<?xml version="1.0" standalone="no"?>
<!DOCTYPE svg PUBLIC "-//W3C//DTD SVG 1.1//EN" "http://www.w3.org/Graphics/SVG/1.1/DTD/svg11.dtd" >
<svg xmlns="http://www.w3.org/2000/svg">
<metadata>
Created by FontPrep 20130207 at Fri Mar 11 08:37:06 2016
 By Matthew Higley
(c) 1989, 2001, 2002 Adobe Systems Incorporated. All rights reserved.
</metadata>
<defs>
<font id="f3ba4b362362d3560d8046eb42c69921" horiz-adv-x='1024' >
  <font-face 
    font-family="BerkeleyStd-Black"
    font-weight="800"
    font-stretch="normal"
    units-per-em="2048"
    panose-1="2 9 9 3 6 3 6 2 4 4"
    ascent="1444"
    descent="-604"
    x-height="872"
    cap-height="1300"
    bbox="-240 -512 2400 1728"
    underline-thickness="102"
    underline-position="-102"
    unicode-range="U+0020-FB02"
  />
<missing-glyph horiz-adv-x="1024" 
d="M102 1239v-1044l349 522zM164 102h696l-348 523zM573 717l349 -522v1044zM512 809l348 522h-696zM0 0v1434h1024v-1434h-1024z" />
    <glyph glyph-name="f_i" unicode="fi" horiz-adv-x="1290" 
d="M76 801v71h125v158q0 428 530 428q151 0 267 -60t116 -138q0 -33 -19 -59q-19 -25 -76 -25t-97 38t-62 134q-20 20 -100 20q-162 0 -218 -101q-44 -81 -44 -200v-195h200q45 0 435 33v-530q0 -260 28 -290q12 -13 45 -13h70v-72h-543v72q102 0 103 20v379q0 272 -28 311
q-13 18 -46 19h-264v-426q0 -260 28 -290q12 -13 45 -13h80v-72h-553v72q102 0 103 20v709h-125z" />
    <glyph glyph-name="f_l" unicode="fl" horiz-adv-x="1290" 
d="M645 872v-71h-188v-426q0 -260 28 -290q12 -13 45 -13h103v-72h-576v72q102 0 103 20v709h-125v71h125v213q0 158 142 266t355 107q166 0 275 -112l205 94v-1065q0 -260 28 -290q12 -13 45 -13h70v-72h-543v72q102 0 103 20v1125q0 63 -32 101t-64 46t-68 8
q-88 0 -154 -70t-65 -204v-226h188z" />
    <glyph glyph-name=".notdef" horiz-adv-x="1024" 
d="M102 1239v-1044l349 522zM164 102h696l-348 523zM573 717l349 -522v1044zM512 809l348 522h-696zM0 0v1434h1024v-1434h-1024z" />
    <glyph glyph-name=".null" horiz-adv-x="0" 
 />
    <glyph glyph-name="nonmarkingreturn" horiz-adv-x="681" 
 />
    <glyph glyph-name="space" unicode=" " horiz-adv-x="569" 
 />
    <glyph glyph-name="exclam" unicode="!" horiz-adv-x="606" 
d="M436 1190q0 -78 -40 -381t-70 -442h-74q-45 459 -96 933q178 0 229 -16t51 -94zM303 -31q-63 0 -106 39q-43 38 -43 102t43 103t106 39t107 -39t43 -102q0 -63 -43 -103q-44 -39 -107 -39z" />
    <glyph glyph-name="quotedbl" unicode="&#x22;" horiz-adv-x="909" 
d="M684 692q-27 0 -41 22t-16 42l-39 418q-12 166 96 165q108 1 96 -165l-39 -418q-2 -20 -16 -42t-41 -22zM227 692q-27 0 -41 22t-16 42l-39 418q-12 166 96 165q109 1 97 -165l-39 -418q-3 -20 -17 -42t-41 -22z" />
    <glyph glyph-name="numbersign" unicode="#" 
d="M1001 498l-79 -170h-158l-62 -273h-104l64 273h-332l-62 -273h-104l61 273h-198l79 170h158l70 305h-199l80 170h158l61 272h105l-62 -272h332l61 272h105l-62 -272h199l-80 -170h-158l-71 -305h198zM700 498l70 305h-332l-69 -305h331z" />
    <glyph glyph-name="dollar" unicode="$" 
d="M774 310q0 87 -42 133t-136 83v-444q84 18 131 80t47 148zM358 1028q0 -142 166 -197v390q-74 -13 -120 -65t-46 -128zM596 1229v-420q209 -59 313 -146q105 -87 105 -255t-122 -274t-296 -128v-149h-72v143q-172 0 -284 60t-113 143q0 35 26 59t62 23q68 1 116 -57
t62 -130q39 -27 131 -26v477q-180 55 -258 113q-131 100 -132 260t111 257t279 117v148h72v-144q172 0 267 -61t95 -135q0 -32 -24 -54t-57 -22q-66 0 -113 53t-49 121q-45 27 -119 27z" />
    <glyph glyph-name="percent" unicode="%" horiz-adv-x="1857" 
d="M1303 1391h104q-461 -698 -672 -1424l-157 -41q197 722 725 1465zM492 1255q-139 0 -140 -221q0 -356 176 -356q139 0 140 223q0 354 -176 354zM545 1329q338 0 338 -343q0 -170 -119 -276t-289 -106q-338 0 -338 343q0 171 119 277t289 105zM1331 625q-139 0 -139 -222
q0 -356 176 -356q139 0 139 223q0 355 -176 355zM1315 -27q-338 0 -338 343q0 170 119 276t289 106q337 0 337 -343q0 -171 -118 -277t-289 -105z" />
    <glyph glyph-name="ampersand" unicode="&#x26;" horiz-adv-x="1857" 
d="M1511 877q166 0 197 112q8 33 33 33t31 -13t6 -42v-150q0 -25 -31 -55t-82 -31q-51 0 -159 38t-136 46l-4 -4q141 -104 141 -265t-131 -288q113 -82 155 -96t90 -14t112 47l36 -58q-6 -3 -48 -33q-203 -143 -315 -143q-113 0 -271 109q-217 -102 -446 -102t-403 97
q-196 110 -196 361q0 132 97 238t243 135q-76 106 -76 196q0 156 124 250t270 94t286 -61q-22 -144 -28 -162t-29 -18q-35 0 -39 48t-62 76t-120 28t-108 -35q-46 -34 -46 -95q0 -100 210 -334t491 -469q41 51 41 167t-81 207t-182 91q-47 1 -94 -30l-41 47q68 111 264 110
q76 0 167 -16t134 -16zM395 506q0 -180 115 -304t307 -124q147 0 240 53q-303 231 -588 608q-74 -53 -74 -233z" />
    <glyph glyph-name="quotesingle" unicode="'" horiz-adv-x="454" 
d="M227 692q-27 0 -41 22t-16 42l-39 418q-12 166 96 165q109 0 97 -165l-39 -418q-3 -20 -17 -42t-41 -22z" />
    <glyph glyph-name="parenleft" unicode="(" horiz-adv-x="796" 
d="M348 621q0 -169 31 -317t119 -292t227 -217l-41 -61q-180 35 -308 174q-241 262 -241 670q0 295 137 529q138 234 398 351l49 -67q-201 -139 -286 -325t-85 -445z" />
    <glyph glyph-name="parenright" unicode=")" horiz-adv-x="796" 
d="M449 571q0 169 -31 317t-119 292t-227 217l41 61q180 -35 308 -174q239 -259 241 -670q0 -295 -138 -529t-397 -351l-49 67q201 139 286 325t85 445z" />
    <glyph glyph-name="asterisk" unicode="*" horiz-adv-x="1024" 
d="M512 1339q68 0 127 -20q-27 -45 -61 -140t-33 -131q0 -36 26 -34q33 0 127 70t123 108q82 -106 78 -242q-72 14 -152 14q-79 0 -115 -4q-36 -6 -42 -12t-6 -18q0 -31 104 -105t146 -88q-78 -111 -205 -147q-2 51 -41 172t-76 121t-76 -121t-41 -172q-127 37 -205 147
q41 14 146 88q104 74 104 105q0 12 -11 23t-121 11q-111 1 -183 -14q-4 136 78 242q29 -37 123 -108q94 -70 124 -70t30 34t-35 130q-34 96 -60 141q59 20 127 20z" />
    <glyph glyph-name="plus" unicode="+" 
d="M477 549v362h187v-362h360v-187h-360v-362h-187v362h-362v187h362z" />
    <glyph glyph-name="comma" unicode="," horiz-adv-x="569" 
d="M236 -31q-41 0 -77 37t-36 94q0 58 40 94t99 35q94 0 148 -76q53 -77 53 -178q0 -216 -219 -337l-43 55q154 111 153 231q0 27 -13 41q-13 15 -21 15t-26 -6q-17 -6 -58 -5z" />
    <glyph glyph-name="hyphen" unicode="-" horiz-adv-x="681" 
d="M56 371q-8 0 -7 8q0 8 76 190h393q56 1 68 7t19 6t7 -10t-75 -189h-394q-55 0 -67 -6t-20 -6z" />
    <glyph glyph-name="period" unicode="." horiz-adv-x="569" 
d="M285 -31q-63 0 -107 39q-43 38 -43 102t43 103q42 39 106 39t107 -39t43 -102t-43 -103t-106 -39z" />
    <glyph glyph-name="slash" unicode="/" horiz-adv-x="569" 
d="M121 -39h-180l508 1378h180z" />
    <glyph glyph-name="zero" unicode="0" 
d="M365 836q1 -342 73 -556t187 -214q150 0 149 399q0 342 -73 556t-187 214q-149 0 -149 -399zM608 1339q152 0 255 -99q184 -177 184 -518q1 -342 -145 -552t-372 -209q-152 0 -255 99q-183 176 -183 518t146 552t370 209z" />
    <glyph glyph-name="one" unicode="1" 
d="M952 78v-78h-770v78h117q74 0 91 3t18 17v676q0 436 -60 436h-166v78l543 49v-1063q0 -197 49 -196h178z" />
    <glyph glyph-name="two" unicode="2" 
d="M836 266q125 0 159 51q18 25 37 25q27 0 27 -39t-107 -303h-858q-49 0 -49 19q-1 19 27 48q42 44 85 85q340 326 406 521q31 89 31 211t-69 212t-200 90t-223 -70l-41 55q76 80 189 124t227 44q190 1 306 -115t116 -300t-108 -309q-59 -67 -101 -103t-152 -119
q-111 -84 -176 -143q424 16 474 16z" />
    <glyph glyph-name="three" unicode="3" 
d="M291 688v84q313 0 313 227q0 92 -66 140q-67 47 -163 47q-137 0 -250 -88l-43 53q72 88 202 138t253 50q172 0 274 -81t102 -197q0 -217 -301 -305v-4q176 -10 295 -98t119 -259q0 -170 -154 -302t-412 -132t-419 102l35 76q140 -73 280 -73t239 94t99 233t-89 217
t-259 78h-55z" />
    <glyph glyph-name="four" unicode="4" 
d="M575 614v387q-23 -20 -79 -87q-56 -66 -138 -158q-80 -92 -122 -142h339zM825 436v-422q-223 -80 -241 -80q-31 0 -31 48q0 2 11 148t11 306h-540v60q73 118 218 278q445 486 527 565h45v-725q76 0 109 6t76 37q25 12 30 13q23 0 23 -18t-74 -216h-164z" />
    <glyph glyph-name="five" unicode="5" 
d="M1006 452q0 -144 -96 -260t-229 -174q-134 -57 -306 -57t-307 68l22 69q119 -33 180 -32q170 0 292 114t122 283q0 129 -92 215t-283 86q-74 0 -121 -10l-49 -9q-16 0 -16 17l129 530q193 -57 358 -57q254 0 277 57q12 33 37 33q37 0 37 -37q1 -8 -5 -39t-15 -82t-13 -73
t-24 -38t-69 -30q-50 -14 -116 -14q-217 -1 -420 116l-74 -284l250 18q141 0 256 -37t195 -133t80 -240z" />
    <glyph glyph-name="six" unicode="6" 
d="M387 569q1 -95 29 -238q57 -286 178 -286q86 0 128 50t42 197t-36 243t-86 138q-50 41 -118 41t-137 -55v-90zM1049 449q-1 -213 -141 -351t-366 -137q-226 0 -342 152q-118 152 -118 403q0 369 247 596t642 227v-73q-236 -2 -404 -140t-176 -374q30 15 63 40
q40 30 105 59q66 28 129 28q166 0 264 -130t97 -300z" />
    <glyph glyph-name="seven" unicode="7" 
d="M600 -25q0 -41 -47 -41q-27 -2 -99 18t-113 40q-42 20 -42 51q0 143 166 493t375 570l-4 4q-226 -72 -436 -72t-242 27q-14 12 -14 36t51 222q157 -61 368 -61q90 0 225 14t201 35l45 14q31 0 -4 -57q-182 -291 -306 -645t-124 -648z" />
    <glyph glyph-name="eight" unicode="8" 
d="M756 756q311 -117 311 -388q0 -179 -160 -293q-161 -114 -367 -114t-339 93t-133 278q0 227 270 309q-102 45 -166 126q-63 81 -63 187q0 143 125 265q126 121 348 120q170 -1 297 -79t127 -236q0 -211 -250 -264v-4zM770 1000q0 118 -58 187t-152 69t-156 -53
q-60 -52 -60 -139t64 -133t276 -128q86 79 86 197zM588 45q110 0 165 65q54 65 54 137t-11 111t-48 82q-72 84 -312 156q-109 -39 -108 -229q0 -129 74 -226q76 -96 186 -96z" />
    <glyph glyph-name="nine" unicode="9" 
d="M590 563q64 0 151 55q0 185 -30 339q-58 300 -207 298q-140 0 -146 -258q0 -142 42 -273q24 -73 75 -117t115 -44zM158 -39v80q256 -2 418 143t163 353l-141 -93q-80 -45 -160 -45q-170 0 -267 128t-97 302q0 213 144 361t373 149q229 -1 343 -157t113 -408
q0 -198 -75 -358q-133 -285 -451 -404q-138 -51 -275 -51h-88z" />
    <glyph glyph-name="colon" unicode=":" horiz-adv-x="569" 
d="M285 623q-63 0 -107 39q-43 39 -43 102t43 102q42 39 106 39t107 -39t43 -102t-43 -102t-106 -39zM285 -31q-63 0 -107 39q-43 38 -43 102t43 103q42 39 106 39t107 -39t43 -102t-43 -103t-106 -39z" />
    <glyph glyph-name="semicolon" unicode=";" horiz-adv-x="569" 
d="M285 623q-63 0 -107 39q-43 39 -43 102t43 102q42 39 106 39t107 -39t43 -102t-43 -102t-106 -39zM236 -31q-41 0 -77 37t-36 94q0 58 40 94t99 35q94 0 148 -76q53 -77 53 -178q0 -216 -219 -337l-43 55q154 111 153 231q0 27 -13 41q-13 15 -21 15t-26 -6
q-17 -6 -58 -5z" />
    <glyph glyph-name="less" unicode="&#x3c;" 
d="M1022 930v-189l-672 -286l672 -287v-188l-916 393v164z" />
    <glyph glyph-name="equal" unicode="=" 
d="M1024 360v-186h-909v186h909zM1024 735v-186h-909v186h909z" />
    <glyph glyph-name="greater" unicode="&#x3e;" 
d="M117 741v189l915 -393v-164l-915 -393v188l671 287z" />
    <glyph glyph-name="question" unicode="?" horiz-adv-x="872" 
d="M406 -31q-63 0 -107 39q-43 38 -43 102t43 103t107 39t106 -39q43 -39 43 -102t-43 -103t-106 -39zM508 924q0 147 -69 219t-150 71q-47 0 -74 -16t-34 -34t-18 -36q-11 -16 -32 -16q-29 0 -29 29q0 6 50 139q132 59 286 59t253 -95t99 -219t-90 -201q-65 -56 -182 -122
q-70 -35 -69 -53q1 -19 37 -83t53 -72q16 -10 16 -23q0 -45 -201 -115q-49 39 -87 107t-48 129l119 72q2 0 27 15t33 21t30 24q23 18 32 34q8 16 28 51t20 115z" />
    <glyph glyph-name="at" unicode="@" horiz-adv-x="1638" 
d="M647 605q0 -52 10 -101t29 -49q53 0 117 83q63 83 113 227t57 294q-86 0 -154 -52t-102 -129q-70 -154 -70 -273zM796 -33q-184 1 -338 61q-153 60 -244 159q-187 203 -187 450q0 353 259 587t636 234q180 0 317 -50q245 -89 334 -321q39 -100 39 -213q0 -213 -150 -389
t-387 -176q-117 0 -139 44t-18 239l-5 4q-47 -98 -129 -183t-182 -85t-144 70t-44 167q0 199 150 374q151 175 384 175q37 0 76 -2l39 -2q49 0 71 18t45 18t23 -13q0 -2 -40 -181t-41 -291q-2 -243 75 -243q82 0 155 120t72 334q0 145 -45 237q-45 91 -98 141t-146 83
t-211 33t-239 -46t-227 -131t-174 -225t-68 -311q0 -59 8 -118t47 -149t105 -154q65 -64 193 -112t290 -48t270 32t199 86l88 56l29 -68q-164 -113 -314 -162t-334 -49z" />
    <glyph glyph-name="A" unicode="A" horiz-adv-x="1327" 
d="M686 539l-151 409l-173 -409h324zM217 131q0 -41 12 -47t41 -6h113v-78h-414v78h56q37 0 48 5t27 57t240 582q225 531 246 568q195 39 213 39q29 0 28 -35q1 -16 -23 -32t-24 -34q0 -44 106 -319t162 -423t98 -258t60 -130q20 -20 54 -20h59v-78h-598v78h84q37 0 37 16
t-121 355h-393l-29 -76q-82 -201 -82 -242z" />
    <glyph glyph-name="B" unicode="B" horiz-adv-x="1290" 
d="M549 1188v-420q133 0 203 -14q55 10 82 65t26 121q0 115 -75 193t-189 77q-47 1 -47 -22zM61 1223v77h660q113 0 198 -28t127 -63q42 -36 72 -90t29 -115q0 -124 -106 -192q-72 -46 -193 -81v-4q362 -82 362 -360q0 -224 -256 -321q-122 -46 -405 -46h-438v78q74 0 91 3
t17 17v1000q0 57 -11 87q-12 30 -22 34t-30 4h-95zM549 690v-280q0 -234 13 -273q12 -39 26 -43t47 -4q113 0 185 83t73 191q0 108 -67 203q-36 53 -108 88t-169 35z" />
    <glyph glyph-name="C" unicode="C" horiz-adv-x="1402" 
d="M1249 1059q-29 0 -36 39t-29 57q-106 94 -273 94t-315 -164t-147 -432q0 -223 102 -403q51 -90 141 -144t198 -55t232 61q123 62 144 154q8 41 39 41t30 -35q0 -17 -8 -91t-12 -115q-215 -104 -510 -105q-187 0 -327 53q-248 94 -336 343q-38 107 -38 247t54 270
q99 235 336 358q209 109 436 107q183 1 373 -75l-15 -138l-2 -22q0 -45 -37 -45z" />
    <glyph glyph-name="D" unicode="D" horiz-adv-x="1517" 
d="M549 1184v-778q0 -208 9 -252q8 -44 18 -54t26 -10h66q215 0 318 137t104 359q0 154 -43 272t-103 184q-60 64 -156 116q-98 52 -194 52q-33 0 -39 -7t-6 -19zM111 0v78q74 0 91 3t17 17v1000q0 57 -11 87q-12 30 -22 34t-30 4h-95v77h635q362 0 550 -180t188 -448
q0 -182 -89 -341q-53 -93 -131 -165t-210 -119t-299 -47h-594z" />
    <glyph glyph-name="E" unicode="E" horiz-adv-x="1214" 
d="M1053 1067q-37 0 -41 45t-60 62q-106 37 -362 36q-30 0 -35 -8q-6 -8 -6 -24v-433h113q158 1 198 19t39 67v68h70v-364h-70v36q0 37 -6 53q-14 37 -166 38h-178v-256q0 -208 9 -252q8 -44 18 -54t26 -10q125 0 209 6t177 36t122 85q12 29 37 29q31 0 31 -31t-58 -215
h-1009v78q74 0 91 3t17 17v1000q0 57 -11 87q-12 30 -22 34t-30 4h-95v77h1045l-16 -147q0 -86 -37 -86z" />
    <glyph glyph-name="F" unicode="F" horiz-adv-x="1175" 
d="M1062 1067q-38 0 -41 45t-58 62q-106 37 -363 36q-28 0 -35 -8q-6 -8 -6 -24v-433h113q158 1 198 19t39 67v68h70v-364h-70v36q0 37 -6 53q-14 37 -166 38h-178v-121q0 -331 11 -388q12 -57 22 -66t33 -9h102v-78h-606v78q74 0 91 3t17 17v1000q0 57 -11 87t-21 34t-31 4
h-94v77h1044l-16 -147q0 -86 -38 -86z" />
    <glyph glyph-name="G" unicode="G" horiz-adv-x="1517" 
d="M1280 1059q-33 0 -40 44t-94 95t-194 51q-254 0 -391 -165t-137 -398q0 -340 194 -530q106 -104 259 -105q66 0 147 37v248q0 129 -16 160t-68 30h-80v78h594v-78h-78q-24 0 -30 -5t-9 -34v-276q1 -41 19 -59t18 -35q0 -29 -45 -49q-79 -40 -259 -73q-179 -34 -286 -34
q-315 0 -502 173t-188 487q0 149 52 273q93 221 322 334q228 113 457 113q228 -1 416 -73l-18 -125q-6 -51 -13 -67t-30 -17z" />
    <glyph glyph-name="H" unicode="H" horiz-adv-x="1517" 
d="M977 745v353q0 57 -11 87q-12 30 -22 34t-31 4h-94v77h600v-77h-73q-23 0 -30 -5t-9 -34v-910q0 -197 49 -196h112v-78h-600v78q74 0 91 3t18 17v557h-438v-381q0 -197 49 -196h119v-78h-607v78q74 0 91 3t18 17v1000q0 57 -11 87q-12 30 -22 34t-31 4h-94v77h606v-77
h-79q-23 0 -30 -5t-9 -34v-439h438z" />
    <glyph glyph-name="I" unicode="I" horiz-adv-x="757" 
d="M51 1223v77h606v-77h-79q-23 0 -30 -5t-9 -34v-910q0 -197 49 -196h119v-78h-607v78q74 0 91 3t18 17v1000q0 57 -11 87q-12 30 -22 34t-31 4h-94z" />
    <glyph glyph-name="J" unicode="J" horiz-adv-x="757" 
d="M672 1300v-77h-80q-23 0 -30 -5t-9 -34v-1131q0 -113 -41 -197t-99 -130q-58 -45 -151 -81t-221 -36q-127 0 -260 37l-21 159q0 35 37 35q26 0 33 -20q2 -6 6 -23q12 -45 60 -71t90 -27q92 0 165 77t72 216v1106q0 57 -11 87q-12 30 -22 34t-30 4h-94v77h606z" />
    <glyph glyph-name="K" unicode="K" horiz-adv-x="1402" 
d="M539 274q0 -197 49 -196h119v-78h-607v78q74 0 91 3t18 17v1000q0 57 -11 87q-12 30 -22 34t-31 4h-94v77h604v-77h-77q-23 0 -30 -5t-9 -34v-549q319 334 414 440t96 133q0 14 -48 15h-124v77h464v-77h-75q-43 0 -76 -35l-367 -391q55 -72 261 -352t278 -339
q31 -24 55 -26q25 -2 62 -2v-78h-389q-37 0 -62 12q-50 24 -225 283q-176 259 -189 285l-75 -70v-236z" />
    <glyph glyph-name="L" unicode="L" horiz-adv-x="1175" 
d="M549 406q0 -208 9 -252q8 -44 18 -54t26 -10q125 0 209 6t177 36t122 85q12 29 37 29q31 0 31 -31t-58 -215h-1009v78q74 0 91 3t17 17v1000q0 57 -11 87q-12 30 -22 34t-30 4h-95v77h619v-77h-92q-23 0 -30 -5t-9 -34v-778z" />
    <glyph glyph-name="M" unicode="M" horiz-adv-x="1744" 
d="M1655 1300v-77h-72q-23 0 -30 -5t-9 -34v-910q0 -197 49 -196h111v-78h-606v78q80 0 98 3t18 17v924h-6l-424 -954q-2 -2 -6 -12t-10 -21q-6 -10 -19 -10t-24 24l-426 928h-4v-766q0 -133 61 -133h101v-78h-381v78h74q43 0 43 20v934q0 123 -42 157t-139 34v77h477
l385 -802q131 309 365 802h416z" />
    <glyph glyph-name="N" unicode="N" horiz-adv-x="1517" 
d="M1214 1090q0 133 -63 133h-100v77h381v-77h-74q-41 0 -41 -21v-1198q-1 -27 -23 -27t-75 54l-904 968v-788q0 -133 62 -133h100v-78h-381v78h74q43 0 43 20v869q0 194 -114 238q-47 18 -87 18v77h445l757 -800v590z" />
    <glyph glyph-name="O" unicode="O" horiz-adv-x="1554" 
d="M724 1255q-321 0 -321 -494q0 -202 83 -434q44 -124 134 -203t198 -79q106 0 172 43q112 73 147 260q14 74 14 158q0 190 -41 335q-41 144 -87 225t-125 135t-174 54zM752 -39q-299 0 -489 174q-189 174 -189 479q0 201 97 377q117 212 344 299q128 49 286 49
q299 0 489 -174t191 -479q0 -194 -100 -377q-54 -98 -134 -174q-81 -76 -209 -125t-286 -49z" />
    <glyph glyph-name="P" unicode="P" horiz-adv-x="1214" 
d="M549 1188v-496q37 -14 82 -14q100 0 161 65q60 65 60 175t-71 201t-185 91q-27 0 -37 -3t-10 -19zM717 78v-78h-606v78q74 0 91 3t17 17v1000q0 57 -11 87q-12 30 -22 34t-30 4h-95v77h666q127 0 221 -34q160 -59 212 -206q22 -58 22 -118q0 -133 -119 -244t-344 -110
q-94 0 -170 24v-338q0 -197 49 -196h119z" />
    <glyph glyph-name="Q" unicode="Q" horiz-adv-x="1554" 
d="M1151 504q0 192 -41 337q-41 144 -87 225t-125 135t-174 54t-161 -43q-67 -42 -99 -114q-59 -131 -60 -275q-2 -263 79 -478q41 -111 119 -189t184 -103q72 13 154 64l39 -33q172 104 172 420zM1174 -381q-77 -1 -117 21q-41 22 -64 33t-57 41t-50 42q-15 12 -51 52
l-45 50q-9 9 -49 55q-39 46 -43 50q-288 23 -456 194t-168 457q0 201 97 377q117 212 344 299q128 49 286 49q299 0 489 -174t191 -479q0 -231 -111 -407t-313 -267l33 -28q30 -31 38 -37t39 -34t45 -38t44 -32q30 -23 48 -31t55 -26q36 -18 77 -18q40 0 116 31l29 -63
q-229 -117 -407 -117z" />
    <glyph glyph-name="R" unicode="R" horiz-adv-x="1327" 
d="M549 1188v-520h53q116 0 182 64t66 180t-73 207t-183 91q-45 1 -45 -22zM549 584v-310q0 -197 49 -196h119v-78h-606v78q74 0 91 3t17 17v1000q0 57 -11 87q-12 30 -22 34t-30 4h-95v77h660q154 0 247 -49q50 -27 101 -67t81 -112q30 -73 30 -155q0 -83 -65 -167
t-202 -99q190 -354 349 -522q47 -51 106 -51v-78h-301q-65 0 -87 4q-60 11 -187 261q-86 171 -144 319h-100z" />
    <glyph glyph-name="S" unicode="S" 
d="M895 1077q-31 0 -41 39q-16 66 -83 100t-153 33q-86 0 -165 -53q-78 -53 -78 -137t54 -130q54 -47 127 -67q234 -66 355 -166q57 -47 93 -129q69 -154 7 -311q-120 -295 -540 -295q-168 0 -340 64q-41 184 -41 204q0 41 39 41q23 0 34 -22q3 -6 9 -23q33 -88 134 -131
t177 -43q119 0 203 67t84 183q0 82 -57 135t-132 76q-244 75 -333 147q-131 106 -131 279q0 131 80 225q150 176 436 176q165 0 280 -39l15 -184q4 -39 -33 -39z" />
    <glyph glyph-name="T" unicode="T" horiz-adv-x="1290" 
d="M1028 78v-78h-731v78q131 0 158 3t26 17v1106h-35q-295 0 -346 -110q-22 -52 -52 -52t-30 29q0 10 66 229h1124q66 -219 66 -229q0 -29 -33 -29q-27 0 -49 52q-51 111 -346 110h-35v-930q0 -197 49 -196h168z" />
    <glyph glyph-name="U" unicode="U" horiz-adv-x="1478" 
d="M1413 1300v-77h-74q-41 0 -41 -21v-717q0 -296 -201 -426q-103 -65 -206 -81q-103 -17 -158 -17q-203 0 -306 53q-56 29 -114 72q-57 43 -91 121t-34 178v713q0 57 -11 87t-21 34t-31 4h-100v77h604v-77h-64q-20 0 -27 -1q-20 -3 -20 -38v-727q0 -387 307 -387
q212 0 300 130q71 101 71 257v633q0 133 -63 133h-101v77h381z" />
    <glyph glyph-name="V" unicode="V" horiz-adv-x="1327" 
d="M1368 1300v-77h-86q-27 0 -39 -31l-510 -1182q-3 -2 -5 -10t-8 -18q-5 -10 -18 -9q-14 0 -20 5l-23 36l-438 957q-74 162 -103 207q-30 45 -67 45h-67v77h600v-77h-60q-49 0 -49 -15q-1 -15 19 -54q20 -38 20 -40l303 -665q297 641 297 747q0 18 -10 22t-37 5h-96v77h397
z" />
    <glyph glyph-name="W" unicode="W" horiz-adv-x="2009" 
d="M2032 1300v-77h-80q-27 0 -39 -31l-490 -1178q-2 -2 -5 -10t-9 -20t-22 -11q-17 1 -28 15t-23 45q-11 31 -11 33l-332 770l-315 -822q-14 -41 -37 -41q-29 -1 -45 45t-16 48l-410 970q-55 131 -77 159t-64 28h-52v77h582v-77h-94q-25 0 -25 -14t116 -278t200 -462
l184 487q-86 203 -113 235t-49 32h-53v77h610v-77h-127q-24 -1 -24 -11t319 -757l211 512q70 174 70 229q0 18 -10 22t-37 5h-101v77h396z" />
    <glyph glyph-name="X" unicode="X" horiz-adv-x="1290" 
d="M1241 1300v-77q-68 0 -85 -3t-32 -22l-342 -432l273 -434q131 -210 157 -232t43 -22h56v-78h-609v78h68q53 0 53 9t-274 458q-64 -90 -99 -144q-36 -53 -61 -88q-119 -167 -119 -213q0 -23 27 -22h121v-78h-414v78h80q29 0 47 26q115 169 210 302q95 132 157 223
l-277 440q-63 100 -87 127t-58 27h-58v77h623v-77h-100q-20 0 -21 -13q0 -20 213 -362q72 96 122 157q126 158 126 199q0 12 -8 16t-35 3h-96v77h399z" />
    <glyph glyph-name="Y" unicode="Y" horiz-adv-x="1175" 
d="M1219 1300v-77h-58q-33 0 -43 -5t-20 -24l-338 -625v-295q0 -197 49 -196h111v-78h-605v78q79 0 97 3t18 17v447l-252 485q-72 135 -98 164q-27 29 -78 29h-45v77h616v-77h-84q-33 1 -33 -11q1 -13 95 -198q94 -184 168 -332q43 84 90 177t103 199t57 132q-1 26 -11 30
t-38 3h-101v77h400z" />
    <glyph glyph-name="Z" unicode="Z" horiz-adv-x="1175" 
d="M1055 1300q45 0 45 -16q0 -4 -39 -82l-633 -1112q436 0 619 84q27 12 45 51q0 2 2 6q25 41 49 45q33 0 33 -36t-64 -240h-1032q-40 0 -49 6q-11 6 -11 16t20 44q19 33 19 34l635 1110h-43q-465 0 -508 -139q-12 -43 -23 -47t-22 -4q-35 0 -35 43l52 237h940z" />
    <glyph glyph-name="bracketleft" unicode="[" horiz-adv-x="796" 
d="M209 -252v1696h422v-78h-121q-49 0 -61 -5t-13 -26v-1321q0 -163 29 -181q10 -7 33 -7h133v-78h-422z" />
    <glyph glyph-name="backslash" unicode="\" horiz-adv-x="569" 
d="M635 -39h-191l-507 1378h190z" />
    <glyph glyph-name="bracketright" unicode="]" horiz-adv-x="796" 
d="M588 1444v-1696h-422v78h121q49 0 61 5t12 26v1321q0 161 -28 181q-10 7 -33 7h-133v78h422z" />
    <glyph glyph-name="asciicircum" unicode="^" 
d="M1026 553h-213l-244 532l-243 -532h-213l362 747h189z" />
    <glyph glyph-name="underscore" unicode="_" horiz-adv-x="1024" 
d="M1024 -256h-1024v102h1024v-102z" />
    <glyph glyph-name="grave" unicode="`" horiz-adv-x="681" 
d="M219 1264q31 0 135 -88t127 -125l-61 -54q-123 92 -309 193q20 20 57 47t51 27z" />
    <glyph glyph-name="a" unicode="a" horiz-adv-x="1073" 
d="M80 180q0 138 159 230q91 53 144 70q53 18 61 22l142 57v121q0 131 -123 131q-51 0 -92 -20v-35q-1 -80 -57 -138t-124 -57q-36 0 -62 25t-26 59q0 109 160 185t350 75q190 0 234 -60q25 -34 31 -67t6 -94v-317q0 -158 19 -193t122 -57l-82 -140q-29 -10 -68 -10
q-186 0 -264 154q-200 -154 -305 -154q-105 -1 -165 59t-60 154zM377 244q0 -96 86 -97q60 1 123 46v278q-108 -51 -144 -80q-65 -51 -65 -147z" />
    <glyph glyph-name="b" unicode="b" 
d="M8 1329v72l436 43v-651q162 113 279 112q158 0 242 -127t84 -293q1 -240 -137 -379t-375 -139q-113 0 -291 68l-35 -80h-72q8 77 8 581t-10 629t-23 145t-42 19h-64zM549 51q195 0 194 322q0 217 -47 298t-133 81q-58 0 -119 -45v-629q47 -27 105 -27z" />
    <glyph glyph-name="c" unicode="c" horiz-adv-x="942" 
d="M562 -33q-226 0 -352 119t-126 335t137 350t348 134q111 0 225 -50t113 -146q-1 -45 -31 -71t-75 -26q-80 0 -132 62t-44 137q-21 10 -63 10t-82 -35q-91 -80 -91 -312q0 -149 61 -260q69 -130 230 -130q111 0 201 59l39 -51q-132 -125 -358 -125z" />
    <glyph glyph-name="d" unicode="d" horiz-adv-x="1175" 
d="M588 811q-180 0 -180 -326q0 -365 188 -364q54 0 115 41v610q-59 39 -123 39zM436 -33q-162 0 -248 131q-86 132 -86 322t111 338t311 147q82 0 187 -47q0 411 -34 455q-13 16 -42 16h-64v72l437 43v-1041q0 -274 28 -312q14 -19 45 -19h70v-72l-117 -8q-59 0 -323 -25
v111q-154 -111 -275 -111z" />
    <glyph glyph-name="e" unicode="e" horiz-adv-x="931" 
d="M467 821q-109 0 -109 -291l267 78q-78 213 -158 213zM496 -33q-112 0 -200 38q-87 38 -131 89t-78 135t-34 187q0 207 122 348t327 141q158 0 255 -77t161 -228l-556 -143q20 -358 277 -359q131 0 244 78l35 -59q-80 -70 -195 -110t-227 -40z" />
    <glyph glyph-name="f" unicode="f" horiz-adv-x="681" 
d="M730 1420q95 -38 95 -119t-99 -81q-50 0 -101 46q-51 45 -54 102q-12 6 -18 6q-96 0 -96 -170v-332h170v-71h-170v-426q0 -260 28 -290q12 -13 45 -13h121v-72h-594v72q102 0 103 20v709h-125v71h125v258q0 88 35 154t79 98t120 54q75 22 158 22t178 -38z" />
    <glyph glyph-name="g" unicode="g" horiz-adv-x="976" 
d="M1006 -185q0 -83 -52 -153q-84 -114 -302 -158q-85 -16 -173 -16q-252 0 -357 78t-106 176q0 119 201 178q-90 55 -90 128t117 180q25 24 28 28q-197 80 -196 283q0 164 123 265t290 101q51 0 187 -22q123 -25 168 -25t61 21q14 23 29 22q31 0 31 -45q-1 -45 -13 -72
q-12 -26 -31 -26h-40l-56 6q74 -96 74 -213t-106 -225t-310 -109q-63 0 -135 16q-29 -39 -29 -53q0 -54 127 -64q28 -2 58 -4t100 -6t109 -8t102 -21t99 -45t64 -81t28 -136zM776 -272q0 76 -81 91q-41 6 -177 13q-136 6 -225 45q-55 -39 -55 -103t35 -111q71 -93 249 -91
q135 0 208 60q46 38 46 96zM524 301q96 0 97 180q0 70 -11 139q-10 70 -52 136t-109 65q-95 0 -95 -172t66 -280q41 -68 104 -68z" />
    <glyph glyph-name="h" unicode="h" horiz-adv-x="1175" 
d="M61 0v72q102 0 103 20v684q0 485 -34 534q-13 19 -42 19h-63v72l436 43v-680q6 4 54 39q49 35 63 42l66 33t138 27t164 -67t78 -220v-243q0 -261 29 -290q12 -13 45 -13h51v-72h-502v72q80 0 80 20v379q0 158 -21 215q-22 57 -105 57t-140 -67v-301q0 -260 28 -290
q12 -13 46 -13h34v-72h-508z" />
    <glyph glyph-name="i" unicode="i" horiz-adv-x="616" 
d="M312 1047q-62 1 -105 39t-43 100t43 100q43 39 105 39t106 -39t43 -100q0 -61 -43 -101q-44 -38 -106 -38zM461 375q0 -260 28 -290q12 -13 46 -13h69v-72h-543v72q102 0 103 20v377q0 275 -29 312q-14 19 -45 20h-63v71h16l418 33v-530z" />
    <glyph glyph-name="j" unicode="j" horiz-adv-x="616" 
d="M475 1186q0 -61 -43 -100t-105 -39t-106 38q-43 39 -43 101t43 100q43 39 105 39t106 -39q43 -39 43 -100zM475 -197q0 -91 -47 -159t-119 -99q-132 -57 -223 -57t-157 20q-130 40 -130 115q0 39 29 61t78 22t94 -41q45 -40 66 -101q78 0 101 83q11 41 11 109v713
q0 274 -28 312q-14 19 -46 20h-63v71h16l418 33v-1102z" />
    <glyph glyph-name="k" unicode="k" horiz-adv-x="1175" 
d="M737 801h-86v71h391v-71q-55 0 -73 -7t-62 -46l-121 -109q143 -352 310 -530q33 -37 84 -37v-72h-314q-35 0 -49 14q-117 117 -239 439l-101 -78q0 -261 29 -290q12 -13 45 -13h70v-72h-543v72q102 0 102 20v684q0 485 -34 534q-13 19 -42 19h-63v72l436 43v-971l240 213
q68 68 67 92q0 23 -47 23z" />
    <glyph glyph-name="l" unicode="l" horiz-adv-x="616" 
d="M61 0v72q102 0 103 20v684q0 485 -34 534q-13 19 -42 19h-63v72l436 43v-1069q0 -260 28 -290q12 -13 46 -13h69v-72h-543z" />
    <glyph glyph-name="m" unicode="m" horiz-adv-x="1716" 
d="M1305 905q98 1 176 -67t78 -220v-243q0 -260 28 -290q12 -13 45 -13h51v-72h-501v72q80 0 80 20v379q0 158 -20 215t-99 57q-78 0 -135 -67v-301q0 -260 28 -290q12 -13 45 -13h31v-72h-481v72q80 0 80 20v379q-1 158 -21 215t-98 57t-135 -67v-301q0 -260 28 -290
q12 -13 45 -13h31v-72h-504v72q102 0 103 20v377q0 275 -29 312q-14 19 -45 20h-63v71h16l418 33v-141q122 91 189 116q68 25 126 25q184 4 227 -141q156 117 233 133q36 8 73 8z" />
    <glyph glyph-name="n" unicode="n" horiz-adv-x="1175" 
d="M782 905q86 1 164 -67t78 -220v-243q0 -261 29 -290q12 -13 45 -13h51v-72h-502v72q80 0 80 20v379q0 158 -21 215q-22 57 -105 57t-140 -67v-301q0 -260 28 -290q12 -13 46 -13h34v-72h-508v72q102 0 103 20v377q0 275 -29 312q-14 19 -45 20h-63v71h16l418 33v-141
q6 4 54 39q49 35 63 42l66 33t138 27z" />
    <glyph glyph-name="o" unicode="o" horiz-adv-x="1099" 
d="M590 51q68 0 99 45t35 96q5 51 5 151q-1 100 -29 229q-28 130 -75 190t-107 59q-109 0 -130 -87q-17 -68 -17 -159q14 -521 219 -524zM568 905q216 0 341 -118q125 -119 125 -335t-144 -350t-360 -135q-216 0 -341 118q-123 118 -123 335t143 351t359 134z" />
    <glyph glyph-name="p" unicode="p" horiz-adv-x="1175" 
d="M588 51q60 0 98 31q78 62 78 299q0 371 -182 371q-64 0 -113 -43v-625q59 -33 119 -33zM740 905q178 0 253 -148q76 -148 76 -332t-116 -321t-312 -137q-86 0 -172 29v-115q0 -261 29 -290q12 -13 45 -13h106v-72h-579v72q102 0 102 21v870q0 275 -29 312q-14 19 -45 20
h-63v71h16l418 33v-121q175 121 271 121z" />
    <glyph glyph-name="q" unicode="q" 
d="M594 98q51 0 104 27v674q-53 23 -94 22q-197 0 -196 -346q0 -377 186 -377zM1145 -389v-72l-447 -43v551q-142 -66 -190 -73t-80 -7q-158 2 -242 128t-84 292q0 240 138 379t374 139q119 0 283 -67l35 80h72q-8 -76 -8 -564t10 -599q10 -110 23 -127t42 -17h74z" />
    <glyph glyph-name="r" unicode="r" horiz-adv-x="833" 
d="M786 668q0 -33 -34 -33q-22 0 -36 38q-14 36 -79 38q-96 0 -180 -78v-258q0 -260 28 -290q12 -13 45 -13h107v-72h-580v72q102 0 103 20v377q0 275 -29 312q-14 19 -45 20h-63v71h16l418 33v-192h4q100 131 141 161q42 30 108 31q66 0 111 -43l-30 -168z" />
    <glyph glyph-name="s" unicode="s" horiz-adv-x="903" 
d="M846 296q0 -114 -79 -192q-139 -137 -394 -137q-174 0 -297 43q-29 172 -29 180q0 33 39 33q20 0 30 -12t27 -55q41 -104 236 -105q43 -1 99 17q108 34 108 118q0 83 -138 114t-257 82q-58 26 -98 83t-40 139q0 131 119 216t300 85t282 -49q2 -20 8 -76t6 -71
q0 -33 -31 -33q-25 0 -39 37q-20 55 -82 82t-128 27t-120 -26t-54 -78t50 -82q52 -30 118 -41t148 -39q216 -74 216 -260z" />
    <glyph glyph-name="t" unicode="t" horiz-adv-x="720" 
d="M160 801h-90q-33 0 -33 22q0 16 26 35l343 260h51v-246h192q-4 -45 -11 -58t-30 -13h-151v-482q0 -175 28 -205t83 -30q56 0 112 25l29 -58q-121 -84 -298 -84t-221 88q-30 64 -30 150v596z" />
    <glyph glyph-name="u" unicode="u" horiz-adv-x="1175" 
d="M1006 346q0 -165 66 -200q34 -17 89 -19l-84 -160q-147 4 -231 30t-105 103l-30 -20q-25 -16 -53 -34t-37 -22q-11 -6 -31 -16t-32 -14t-41 -16q-30 -12 -99 -11q-68 0 -121 25q-53 24 -80 54q-57 62 -57 253v170q0 275 -29 312q-14 19 -45 20h-63v71h16l418 33v-530
q0 -189 26 -226q26 -38 91 -38t149 55q-14 55 -14 147v156q0 273 -29 312q-14 19 -45 20h-64v71h17l418 33v-559z" />
    <glyph glyph-name="v" unicode="v" horiz-adv-x="985" 
d="M-25 801v71h535v-71h-68q-27 0 -26 -17q0 -25 70 -172t114 -252q4 10 30 62q136 275 136 332q0 35 -14 41t-52 6h-55v71h346v-71h-41q-29 0 -39 -5q-11 -6 -35 -60t-72 -155t-127 -269t-149 -316q-14 -29 -37 -29q-23 1 -32 17q-29 48 -29 61q-49 117 -184 397
q-136 280 -162 316q-26 34 -43 38t-66 5z" />
    <glyph glyph-name="w" unicode="w" horiz-adv-x="1554" 
d="M1556 872v-71h-45q-43 0 -51 -25q-98 -224 -231 -492t-137 -278t-8 -14t-9 -14q-6 -10 -19 -11q-30 0 -46 55q-4 13 -6 15l-232 489l-231 -487q0 -1 -7 -19q-21 -52 -49 -53q-18 0 -45 62l-309 663q-33 68 -51 88t-43 21h-41v71h500v-71h-56q-27 0 -26 -17
q0 -37 190 -413q74 147 119 258l-29 61q-33 72 -52 91t-73 20v71h516v-71h-75q-27 1 -27 -17t184 -413l142 305q25 74 25 94t-14 25q-13 6 -52 6h-51v71h339z" />
    <glyph glyph-name="x" unicode="x" horiz-adv-x="1062" 
d="M1065 72v-72h-528v72h45q36 0 36 7t-43 73l-141 192q-180 -197 -180 -258q0 -14 41 -14h88v-72h-383v72q62 0 80 8t53 49l250 287q-229 309 -275 347t-98 38v71h549v-71h-45q-49 1 -49 -19t153 -213q164 172 164 211q0 20 -45 21h-69v71h354v-71h-35l-25 -2q-4 0 -10 -2
t-13 -4t-14 -12q-7 -9 -15 -13t-13 -16l-229 -244q288 -388 316 -412t81 -24z" />
    <glyph glyph-name="y" unicode="y" horiz-adv-x="1024" 
d="M-39 801v71h533v-71h-80q-14 0 -18 -2t-3 -14q0 -12 95 -206t126 -262q182 408 182 441t-10 38q-12 5 -55 5h-82v71h381v-71h-59q-31 0 -49 -37l-562 -1227q-168 -49 -245 -49q-35 0 -35 31q0 20 33 37q100 47 193 175t147 269q-186 363 -268 532q-121 250 -165 264
q-16 4 -59 5z" />
    <glyph glyph-name="z" unicode="z" horiz-adv-x="948" 
d="M877 872q20 0 20 -13t-47 -60l-514 -572q63 8 375 9q33 0 77 13t60 42t35 28q33 0 32 -30q1 -21 -110 -289h-737q-41 0 -41 13t57 77l22 25q41 51 239 261t263 283q-397 -16 -427 -27t-47 -39t-36 -28q-31 0 -30 29l77 278h732z" />
    <glyph glyph-name="braceleft" unicode="{" horiz-adv-x="796" 
d="M289 59v283q0 113 -32 169t-124 85q92 29 124 85t32 169v283q0 190 83 250t294 61v-66q-82 0 -116 -57t-34 -176v-262q0 -129 -33 -194t-133 -91v-4q100 -28 133 -92t33 -193v-262q0 -119 34 -176t116 -57v-66q-211 0 -294 60t-83 251z" />
    <glyph glyph-name="bar" unicode="|" horiz-adv-x="454" 
d="M135 -205v1649h187v-1649h-187z" />
    <glyph glyph-name="braceright" unicode="}" horiz-adv-x="796" 
d="M508 342v-283q0 -190 -83 -250t-294 -61v66q82 0 116 57t34 176v262q0 129 32 194q33 65 133 91v4q-100 28 -133 92t-32 193v262q0 119 -34 176t-116 57v66q211 0 294 -60t83 -251v-283q0 -113 32 -168t124 -84v-4q-92 -29 -124 -84t-32 -168z" />
    <glyph glyph-name="asciitilde" unicode="~" 
d="M776 287q-89 0 -271 85q-125 54 -164 54q-40 0 -76 -25t-55 -51t-50 -71l-74 167q92 176 256 177q80 0 227 -66q67 -29 118 -51q51 -23 90 -23q40 0 76 25q36 24 55 50t50 73l74 -168q-92 -176 -256 -176z" />
    <glyph glyph-name="uni00A0" unicode="&#xa0;" horiz-adv-x="569" 
 />
    <glyph glyph-name="exclamdown" unicode="&#xa1;" horiz-adv-x="606" 
d="M170 -316q0 78 40 382q40 303 71 442h73q45 -459 97 -934q-178 0 -230 16q-51 16 -51 94zM303 905q63 0 107 -39t43 -102q0 -63 -43 -102q-42 -39 -106 -39t-107 39t-43 102t43 102t106 39z" />
    <glyph glyph-name="cent" unicode="&#xa2;" 
d="M651 1339v-217q157 0 268 -92q58 -49 58 -101t-32 -78t-75 -26q-80 1 -132 63t-44 142q-25 14 -43 14v-729q45 -18 99 -18q111 0 200 61l39 -53q-127 -115 -338 -125v-219h-71v219q-174 8 -300 119t-126 344q0 190 116 321q117 130 310 158v217h71zM438 700
q0 -102 35 -198t107 -148v678q-74 -35 -108 -132q-34 -98 -34 -200z" />
    <glyph glyph-name="sterling" unicode="&#xa3;" 
d="M578 209q78 0 172 -23q90 -16 128 -16t74 25q37 25 37 63q0 60 -49 68q-16 2 -16 12t41 28t73 19q32 0 87 -42q57 -41 57 -143t-91 -170t-210 -69q-73 1 -124 15q-146 41 -151 49q-158 55 -244 55t-135 -18t-66 -25q-17 -6 -69 -31t-61 -29l-39 72q164 76 215 176t51 271
q0 72 -6 182h-174v78h168v59q0 193 84 324q133 201 385 200q100 0 172 -47t71 -102q0 -34 -26 -56t-70 -22q-45 0 -95 46t-58 102q-18 6 -39 6t-52 -20q-102 -68 -102 -236q0 -2 14 -254h201v-78h-192l12 -168q1 -121 -61 -206t-193 -171l4 -4q143 80 277 80z" />
    <glyph glyph-name="currency" unicode="&#xa4;" 
d="M569 922q-113 0 -187 -80t-75 -194q0 -114 76 -192q77 -78 187 -79q110 1 186 79t75 192q0 114 -74 194q-75 80 -188 80zM111 649q0 166 94 264l-105 101l103 102l104 -100q94 82 262 82t262 -82l105 100l102 -102l-104 -101q94 -98 94 -264t-94 -264l104 -100l-102 -103
l-105 101q-94 -82 -262 -82t-262 82l-104 -101l-103 103l105 100q-94 98 -94 264z" />
    <glyph glyph-name="yen" unicode="&#xa5;" 
d="M1047 756v-78h-347v-170h347v-78h-347v-156q0 -197 50 -196h110v-78h-543v78q79 0 97 3t18 17v332h-336v78h336v170h-336v78h295l-176 274q-86 135 -118 164t-83 29h-45v77h543v-77h-84q-33 0 -33 -13q0 -39 262 -430q263 396 263 416t-10 24t-40 3h-100v77h379v-77h-57
l-32 -2q-5 0 -10 -3l-8 -4t-7 -9t-9 -13t-12 -27l-273 -409h306z" />
    <glyph glyph-name="brokenbar" unicode="&#xa6;" horiz-adv-x="454" 
d="M135 784v660h187v-660h-187zM135 -205v660h187v-660h-187z" />
    <glyph glyph-name="section" unicode="&#xa7;" horiz-adv-x="1024" 
d="M745 1118q0 72 -59 108t-133 36t-133 -35q-60 -35 -60 -99t48 -95q55 -37 167 -75t178 -73t94 -64q27 -29 53 -81t26 -113q0 -223 -293 -258v-4q69 -25 107 -41t85 -50q93 -66 93 -182t-112 -206t-331 -89q-104 0 -181 25q-77 24 -114 62q-69 70 -69 136q0 88 75 103h107
q-27 -41 -27 -78q0 -78 62 -124t143 -46t147 44q66 45 66 117t-60 114t-146 68q-86 28 -173 62q-86 34 -146 104q-61 70 -61 172q0 101 85 170t206 95v4q-262 74 -262 246q0 74 40 129q68 93 235 126q67 13 135 13q182 0 270 -61q87 -60 87 -130t-63 -95h-102q16 33 16 65z
M324 594q0 -70 54 -109t169 -75q154 47 153 172q0 82 -44 118t-173 80q-67 -24 -113 -70t-46 -116z" />
    <glyph glyph-name="dieresis" unicode="&#xa8;" horiz-adv-x="681" 
d="M483 1036q-43 0 -73 31t-31 74q0 43 31 73q32 30 74 31q42 0 73 -31q31 -32 31 -74t-31 -73t-74 -31zM201 1036q-43 0 -74 31t-31 74t31 73t74 31q43 0 73 -31q30 -32 31 -74q-1 -42 -31 -73t-73 -31z" />
    <glyph glyph-name="copyright" unicode="&#xa9;" horiz-adv-x="1638" 
d="M1528 649q0 -289 -204 -489t-505 -199q-301 0 -505 200q-204 201 -204 489t204 488t505 200t505 -200t204 -489zM1366 649q0 233 -158 397t-389 162q-231 0 -389 -162t-158 -396t158 -397t389 -163t389 163t158 396zM1116 840h-51q-49 160 -180 159q-99 0 -151 -86
t-52 -231q0 -348 203 -348q135 0 211 168h53l-33 -154q-6 -26 -100 -50t-152 -24q-206 0 -318 100t-112 298q0 138 91 254q47 59 137 95t190 36t182 -23t82 -51v-143z" />
    <glyph glyph-name="ordfeminine" unicode="&#xaa;" horiz-adv-x="716" 
d="M586 1141v-217q0 -37 30 -57q31 -19 60 -19l-60 -98q-100 0 -147 22t-74 68q-21 -10 -83 -50t-128 -40q-65 0 -104 38q-39 39 -39 102t64 109q64 45 112 64q47 19 92 35t68 26v70q0 20 -2 34q-1 14 -19 27q-18 15 -54 15t-56 -13q0 -63 -34 -100t-89 -37q-23 0 -41 16
t-19 38q0 82 117 124q116 42 206 41q90 0 126 -8q59 -13 71 -95q3 -27 3 -95zM250 930q0 -59 51 -60q33 0 76 27v166q-47 -23 -69 -35t-40 -38t-18 -60z" />
    <glyph glyph-name="guillemotleft" unicode="&#xab;" horiz-adv-x="1062" 
d="M514 795q0 -82 -42 -175t-101 -145q59 -51 101 -144t42 -175q0 -23 -6 -47l-70 -33q-104 233 -329 399q225 166 329 399l70 -32q6 -25 6 -47zM895 795q0 -82 -42 -175t-101 -145q59 -51 101 -144t42 -175q0 -23 -6 -47l-70 -33q-104 233 -330 399q226 166 330 399l70 -32
q6 -25 6 -47z" />
    <glyph glyph-name="logicalnot" unicode="&#xac;" 
d="M838 195v354h-723v186h909v-540h-186z" />
    <glyph glyph-name="uni00AD" unicode="&#xad;" horiz-adv-x="681" 
d="M56 371q-8 0 -7 8q0 8 76 190h393q56 1 68 7t19 6t7 -10t-75 -189h-394q-55 0 -67 -6t-20 -6z" />
    <glyph glyph-name="registered" unicode="&#xae;" horiz-adv-x="1638" 
d="M1528 649q0 -289 -204 -489t-505 -199q-301 0 -505 200q-204 201 -204 489t204 488t505 200t505 -200t204 -489zM1366 649q0 233 -158 397t-389 162q-231 0 -389 -162t-158 -396t158 -397t389 -163t389 163t158 396zM735 979v-303h56q109 0 108 160q0 80 -26 112t-76 31
h-62zM1190 297h-195q-27 0 -57 47t-75 138q-44 91 -75 139h-53v-209q1 -46 13 -60t71 -18v-37h-344v43q49 0 59 12q9 12 9 60v506q0 49 -9 61t-59 12v43h414q97 0 157 -48t60 -129t-41 -136t-111 -76q46 -64 117 -169t119 -152v-27z" />
    <glyph glyph-name="macron" unicode="&#xaf;" horiz-adv-x="681" 
d="M600 1198v-127h-516v127h516z" />
    <glyph glyph-name="degree" unicode="&#xb0;" horiz-adv-x="768" 
d="M385 696q-135 0 -228 94t-94 228q-1 135 93 228t229 93t228 -93t93 -228q0 -134 -92 -228q-94 -94 -229 -94zM385 1233q-90 1 -147 -61q-58 -62 -58 -154t58 -154t147 -61q90 0 147 61q58 62 58 154t-58 154t-147 61z" />
    <glyph glyph-name="plusminus" unicode="&#xb1;" 
d="M115 0v186h909v-186h-909zM477 676v235h187v-235h360v-187h-360v-235h-187v235h-362v187h362z" />
    <glyph glyph-name="twosuperior" unicode="&#xb2;" horiz-adv-x="671" 
d="M289 1339q127 -1 207 -67t79 -205q-1 -80 -77 -159t-258 -206l4 -4l315 13q27 2 51 22q24 21 44 21q18 0 18 -17t-30 -95q-30 -79 -40 -105h-559q-43 0 -43 11t20 28q20 18 31 28q201 193 253 278t52 173q0 184 -180 184q-80 0 -139 -41l-27 43q102 98 279 98z" />
    <glyph glyph-name="threesuperior" unicode="&#xb3;" horiz-adv-x="671" 
d="M580 1171q0 -123 -197 -174v-4q115 -6 191 -58t77 -145q0 -93 -79 -173q-92 -97 -334 -97q-136 0 -238 62l23 55q86 -43 175 -43t151 55q63 55 63 127t-58 120q-58 50 -192 50v60q190 12 190 131q0 47 -41 75t-111 27q-70 0 -147 -55l-26 43q47 53 131 83t184 30t168 -48
q70 -47 70 -121z" />
    <glyph glyph-name="acute" unicode="&#xb4;" horiz-adv-x="681" 
d="M463 1264q14 0 51 -27t57 -47q-186 -101 -309 -193l-61 54q23 37 127 125t135 88z" />
    <glyph glyph-name="mu" unicode="&#xb5;" horiz-adv-x="1175" 
d="M1006 346q0 -165 66 -200q34 -17 89 -19l-84 -160q-147 4 -231 30t-105 103q-174 -133 -235 -133t-111 13v-93q0 -27 52 -103t53 -112q0 -63 -40 -109t-114 -46q-132 0 -159 81t-27 177v694q0 275 -29 312q-14 19 -45 20h-63v71h16l418 33v-530q0 -189 26 -226
q26 -38 91 -38t149 55q-14 55 -14 147v156q0 273 -29 312q-14 19 -45 20h-64v71h17l418 33v-559z" />
    <glyph glyph-name="paragraph" unicode="&#xb6;" horiz-adv-x="1228" 
d="M535 1223h-43q-238 0 -238 -283q0 -76 34 -146t110 -69q76 0 137 61v437zM381 1300h788v-77h-79q-23 0 -30 -5t-9 -34v-1057q0 -197 49 -197h119v-77h-373v1370h-107v-1370h-313v77q74 0 91 3t18 18v745q-63 -61 -199 -61t-232 93q-94 92 -94 240t104 240t267 92z" />
    <glyph glyph-name="periodcentered" unicode="&#xb7;" horiz-adv-x="569" 
d="M135 455q0 63 43 102q42 39 106 39t107 -39t43 -102t-43 -103t-106 -39q-63 0 -107 39q-43 40 -43 103z" />
    <glyph glyph-name="cedilla" unicode="&#xb8;" horiz-adv-x="681" 
d="M416 -272q0 27 -29 42t-85 27q-56 13 -65 15t-21 5t-11 25q-1 22 63 84t74 74h96l-96 -113q0 -4 44 -16q44 -13 68 -23t48 -36q44 -47 7 -112q-15 -28 -69 -56t-139 -29q-143 0 -143 72q0 43 52 43t87 -54l20 -2q33 0 66 14t33 40z" />
    <glyph glyph-name="onesuperior" unicode="&#xb9;" horiz-adv-x="671" 
d="M598 594v-57h-524v57h114q31 0 31 12v404q0 211 -24 235q-8 8 -25 8h-96v58l377 28v-610q0 -119 21 -131q7 -4 20 -4h106z" />
    <glyph glyph-name="ordmasculine" unicode="&#xba;" horiz-adv-x="716" 
d="M251 1200q-3 -24 -3 -87q0 -62 17 -144q32 -156 118 -156q39 0 59 27q20 28 24 52t3 88q1 64 -17 144q-34 154 -116 154q-42 0 -62 -27t-23 -51zM374 1339q150 1 230 -75t80 -211t-96 -218t-245 -83t-229 76t-81 210q0 135 96 218t245 83z" />
    <glyph glyph-name="guillemotright" unicode="&#xbb;" horiz-adv-x="1062" 
d="M549 156q0 82 42 175t101 144q-59 51 -101 145t-42 175q0 23 6 47l70 32q104 -233 329 -399q-225 -166 -329 -399l-70 33q-6 25 -6 47zM168 156q0 82 42 175t101 144q-59 51 -101 145t-42 175q0 23 6 47l70 32q104 -233 329 -399q-225 -166 -329 -399l-70 33q-6 25 -6 47
z" />
    <glyph glyph-name="onequarter" unicode="&#xbc;" horiz-adv-x="1683" 
d="M598 594v-57h-524v57h114q31 0 31 12v404q0 211 -24 235q-8 8 -25 8h-96v58l377 28v-610q0 -119 21 -131q7 -4 20 -4h106zM1188 1391h104q-461 -698 -671 -1424l-158 -41q197 722 725 1465zM1180 342v211l-185 -211h185zM1376 780v-438q80 0 119 25q11 8 23 8
q12 1 12 -13t-47 -139h-107v-239q-30 -6 -104 -28t-88 -22q-20 0 -21 27q0 4 10 116t7 146h-340v47q58 80 120 147t179 179t190 184h47z" />
    <glyph glyph-name="onehalf" unicode="&#xbd;" horiz-adv-x="1683" 
d="M1190 803q127 0 207 -67t80 -206q0 -80 -77 -158t-259 -206l4 -4l315 12q28 2 52 22t42 21q18 0 19 -19q-1 -19 -31 -95t-39 -103h-559q-43 0 -43 9q1 14 21 31t30 28q201 194 253 278t52 172q0 184 -180 184q-80 1 -139 -40l-27 43q100 98 279 98zM547 594v-57h-524v57
h114q31 0 31 12v404q0 213 -25 235q-8 8 -24 8h-96v58l376 28v-610q0 -118 22 -131q7 -4 19 -4h107zM1137 1391h104q-461 -698 -672 -1424l-157 -41q197 722 725 1465z" />
    <glyph glyph-name="threequarters" unicode="&#xbe;" horiz-adv-x="1683" 
d="M600 1171q0 -123 -197 -174v-4q115 -6 192 -58t77 -144t-79 -174q-92 -97 -335 -97q-135 0 -238 62l23 55q86 -43 175 -43t152 55q62 55 62 127t-58 120q-58 50 -192 50v60q190 12 191 131q0 47 -41 75q-40 28 -110 27q-70 0 -148 -55l-27 43q47 53 131 83t184 30
t168 -48q70 -47 70 -121zM1208 1391h105q-461 -698 -672 -1424l-158 -41q197 722 725 1465zM1200 342v211l-184 -211h184zM1397 780v-438q80 0 119 25q12 8 23 8q11 1 11 -13t-47 -139h-106v-239q-29 -6 -104 -28t-89 -22q-20 0 -20 27q0 4 10 114t6 148h-340v47
q58 80 120 147t179 179t191 184h47z" />
    <glyph glyph-name="questiondown" unicode="&#xbf;" horiz-adv-x="872" 
d="M467 905q63 0 106 -39t43 -102t-43 -102t-106 -39t-107 39q-43 39 -43 102t43 102q44 39 107 39zM365 -49q1 -147 69 -219t150 -72q48 0 74 16t33 34q19 52 49 52t30 -28q0 -6 -49 -140q-131 -59 -285 -59t-255 95q-99 95 -99 219t81 193t171 117t90 67q0 18 -37 82
t-53 74t-17 21q0 45 201 115q49 -38 87 -106t48 -129l-118 -72q-2 0 -27 -15q-25 -16 -33 -22t-31 -23q-24 -17 -32 -33t-28 -51q-20 -33 -19 -116z" />
    <glyph glyph-name="Agrave" unicode="&#xc0;" horiz-adv-x="1327" 
d="M743 1458l-61 -53q-123 92 -309 192q20 19 57 47t51 27q31 0 135 -88t127 -125zM686 539l-151 409l-173 -409h324zM217 131q0 -41 12 -47t41 -6h113v-78h-414v78h56q37 0 48 5t27 57t240 582q225 531 246 568q195 39 213 39q29 0 28 -35q1 -16 -23 -32t-24 -34
q0 -44 106 -319t162 -423t98 -258t60 -130q20 -20 54 -20h59v-78h-598v78h84q37 0 37 16t-121 355h-393l-29 -76q-82 -201 -82 -242z" />
    <glyph glyph-name="Aacute" unicode="&#xc1;" horiz-adv-x="1327" 
d="M848 1671q14 -1 51 -27t57 -47q-186 -100 -309 -192l-61 53q23 37 127 125t135 88zM686 539l-151 409l-173 -409h324zM217 131q0 -41 12 -47t41 -6h113v-78h-414v78h56q37 0 48 5t27 57t240 582q225 531 246 568q195 39 213 39q29 0 28 -35q1 -16 -23 -32t-24 -34
q0 -44 106 -319t162 -423t98 -258t60 -130q20 -20 54 -20h59v-78h-598v78h84q37 0 37 16t-121 355h-393l-29 -76q-82 -201 -82 -242z" />
    <glyph glyph-name="Acircumflex" unicode="&#xc2;" horiz-adv-x="1327" 
d="M897 1407q-113 0 -231 104q-119 -104 -232 -104q-27 -1 -43 11t-57 57q168 29 332 190q164 -162 331 -190q-41 -45 -57 -57t-43 -11zM686 539l-151 409l-173 -409h324zM217 131q0 -41 12 -47t41 -6h113v-78h-414v78h56q37 0 48 5t27 57t240 582q225 531 246 568
q195 39 213 39q29 0 28 -35q1 -16 -23 -32t-24 -34q0 -44 106 -319t162 -423t98 -258t60 -130q20 -20 54 -20h59v-78h-598v78h84q37 0 37 16t-121 355h-393l-29 -76q-82 -201 -82 -242z" />
    <glyph glyph-name="Atilde" unicode="&#xc3;" horiz-adv-x="1327" 
d="M782 1442q-73 0 -166 48q-48 23 -64 23q-18 0 -26 -2t-16 -7t-15 -9t-19 -27t-17 -28l-60 43q15 67 61 111t98 44t138 -35t123 -34q57 0 90 76l62 -41q-57 -162 -189 -162zM686 539l-151 409l-173 -409h324zM217 131q0 -41 12 -47t41 -6h113v-78h-414v78h56q37 0 48 5
t27 57t240 582q225 531 246 568q195 39 213 39q29 0 28 -35q1 -16 -23 -32t-24 -34q0 -44 106 -319t162 -423t98 -258t60 -130q20 -20 54 -20h59v-78h-598v78h84q37 0 37 16t-121 355h-393l-29 -76q-82 -201 -82 -242z" />
    <glyph glyph-name="Adieresis" unicode="&#xc4;" horiz-adv-x="1327" 
d="M807 1413q-43 0 -74 31t-31 74q0 44 31 74t74 30t74 -31t31 -73t-32 -74q-30 -31 -73 -31zM524 1413q-44 0 -74 31t-30 74q0 44 31 74t73 30t74 -31q31 -31 31 -73t-31 -74q-31 -31 -74 -31zM686 539l-151 409l-173 -409h324zM217 131q0 -41 12 -47t41 -6h113v-78h-414
v78h56q37 0 48 5t27 57t240 582q225 531 246 568q195 39 213 39q29 0 28 -35q1 -16 -23 -32t-24 -34q0 -44 106 -319t162 -423t98 -258t60 -130q20 -20 54 -20h59v-78h-598v78h84q37 0 37 16t-121 355h-393l-29 -76q-82 -201 -82 -242z" />
    <glyph glyph-name="Aring" unicode="&#xc5;" horiz-adv-x="1327" 
d="M477 1540q0 78 55 133q56 55 134 55t133 -54q55 -56 55 -134t-55 -133t-133 -55t-134 55q-55 55 -55 133zM567 1540q0 -41 29 -70q29 -28 70 -28q42 0 70 28t28 70q0 41 -29 70q-29 28 -69 28t-70 -28q-29 -28 -29 -70zM686 539l-151 409l-173 -409h324zM217 131
q0 -41 12 -47t41 -6h113v-78h-414v78h56q37 0 48 5t27 57t240 582q225 531 246 568q195 39 213 39q29 0 28 -35q1 -16 -23 -32t-24 -34q0 -44 106 -319t162 -423t98 -258t60 -130q20 -20 54 -20h59v-78h-598v78h84q37 0 37 16t-121 355h-393l-29 -76q-82 -201 -82 -242z" />
    <glyph glyph-name="AE" unicode="&#xc6;" horiz-adv-x="1857" 
d="M1696 1067q-37 0 -41 45t-60 62q-106 37 -362 36q-30 0 -35 -8q-6 -8 -6 -24v-433h113q157 1 197 19t40 67v68h70v-364h-70v36q0 37 -6 53q-14 37 -166 38h-178v-256q0 -208 9 -252t19 -54t25 -10q125 0 209 6t177 36t122 85q12 29 37 29q31 0 31 -31t-58 -215h-1009v78
q74 0 91 3t17 17v541h-389q-274 -494 -274 -530q0 -19 15 -25t85 -6h61v-78h-426v78h93q23 0 61 69l625 1063h-168v90h1204l-16 -147q0 -86 -37 -86zM862 723v262q0 225 -43 225h-4l-295 -487h342z" />
    <glyph glyph-name="Ccedilla" unicode="&#xc7;" horiz-adv-x="1402" 
d="M1249 1059q-29 0 -36 39t-29 57q-106 94 -273 94t-315 -164t-147 -432q0 -223 102 -403q51 -90 141 -144t198 -55t232 61q123 62 144 154q8 41 39 41t30 -35q0 -17 -8 -91t-12 -115q-193 -94 -467 -105q-64 -72 -64 -75t44 -15q44 -13 68 -23t48 -36t23 -55
q1 -29 -15 -57t-70 -56t-139 -29q-143 0 -143 72q0 43 52 43t87 -54l21 -2q34 0 66 14t32 40q0 27 -27 41t-84 27q-57 14 -67 16t-22 5t-11 17q0 27 103 129q-332 15 -489 193t-157 432q0 156 54 286q99 235 336 358q209 109 436 107q183 1 373 -75l-15 -138l-2 -22
q0 -45 -37 -45z" />
    <glyph glyph-name="Egrave" unicode="&#xc8;" horiz-adv-x="1214" 
d="M778 1458l-61 -53q-123 92 -309 192q20 19 57 47t51 27q31 0 135 -88t127 -125zM1053 1067q-37 0 -41 45t-60 62q-106 37 -362 36q-30 0 -35 -8q-6 -8 -6 -24v-433h113q158 1 198 19t39 67v68h70v-364h-70v36q0 37 -6 53q-14 37 -166 38h-178v-256q0 -208 9 -252
q8 -44 18 -54t26 -10q125 0 209 6t177 36t122 85q12 29 37 29q31 0 31 -31t-58 -215h-1009v78q74 0 91 3t17 17v1000q0 57 -11 87q-12 30 -22 34t-30 4h-95v77h1045l-16 -147q0 -86 -37 -86z" />
    <glyph glyph-name="Eacute" unicode="&#xc9;" horiz-adv-x="1214" 
d="M831 1671q13 -1 51 -27t58 -47q-186 -100 -309 -192l-62 53q23 37 127 125t135 88zM1053 1067q-37 0 -41 45t-60 62q-106 37 -362 36q-30 0 -35 -8q-6 -8 -6 -24v-433h113q158 1 198 19t39 67v68h70v-364h-70v36q0 37 -6 53q-14 37 -166 38h-178v-256q0 -208 9 -252
q8 -44 18 -54t26 -10q125 0 209 6t177 36t122 85q12 29 37 29q31 0 31 -31t-58 -215h-1009v78q74 0 91 3t17 17v1000q0 57 -11 87q-12 30 -22 34t-30 4h-95v77h1045l-16 -147q0 -86 -37 -86z" />
    <glyph glyph-name="Ecircumflex" unicode="&#xca;" horiz-adv-x="1214" 
d="M870 1407q-113 0 -231 104q-119 -104 -231 -104q-28 -1 -44 11t-57 57q168 29 332 190q164 -162 332 -190q-41 -45 -57 -57t-44 -11zM1053 1067q-37 0 -41 45t-60 62q-106 37 -362 36q-30 0 -35 -8q-6 -8 -6 -24v-433h113q158 1 198 19t39 67v68h70v-364h-70v36
q0 37 -6 53q-14 37 -166 38h-178v-256q0 -208 9 -252q8 -44 18 -54t26 -10q125 0 209 6t177 36t122 85q12 29 37 29q31 0 31 -31t-58 -215h-1009v78q74 0 91 3t17 17v1000q0 57 -11 87q-12 30 -22 34t-30 4h-95v77h1045l-16 -147q0 -86 -37 -86z" />
    <glyph glyph-name="Edieresis" unicode="&#xcb;" horiz-adv-x="1214" 
d="M750 1413q-43 0 -74 31t-31 74q0 44 31 74t74 30q44 0 74 -31t30 -73t-30 -74q-30 -31 -74 -31zM467 1413q-43 0 -74 31t-31 74q0 44 31 74t74 30t74 -31t31 -73t-32 -74q-30 -31 -73 -31zM1053 1067q-37 0 -41 45t-60 62q-106 37 -362 36q-30 0 -35 -8q-6 -8 -6 -24
v-433h113q158 1 198 19t39 67v68h70v-364h-70v36q0 37 -6 53q-14 37 -166 38h-178v-256q0 -208 9 -252q8 -44 18 -54t26 -10q125 0 209 6t177 36t122 85q12 29 37 29q31 0 31 -31t-58 -215h-1009v78q74 0 91 3t17 17v1000q0 57 -11 87q-12 30 -22 34t-30 4h-95v77h1045
l-16 -147q0 -86 -37 -86z" />
    <glyph glyph-name="Igrave" unicode="&#xcc;" horiz-adv-x="757" 
d="M477 1458l-61 -53q-123 92 -310 192q20 19 58 47t51 27q31 0 135 -88t127 -125zM51 1223v77h606v-77h-79q-23 0 -30 -5t-9 -34v-910q0 -197 49 -196h119v-78h-607v78q74 0 91 3t18 17v1000q0 57 -11 87q-12 30 -22 34t-31 4h-94z" />
    <glyph glyph-name="Iacute" unicode="&#xcd;" horiz-adv-x="757" 
d="M543 1671q14 -1 51 -27t57 -47q-186 -100 -309 -192l-61 53q23 37 127 125t135 88zM51 1223v77h606v-77h-79q-23 0 -30 -5t-9 -34v-910q0 -197 49 -196h119v-78h-607v78q74 0 91 3t18 17v1000q0 57 -11 87q-12 30 -22 34t-31 4h-94z" />
    <glyph glyph-name="Icircumflex" unicode="&#xce;" horiz-adv-x="757" 
d="M582 1407q-113 0 -232 104q-119 -104 -231 -104q-27 -1 -43 11t-58 57q168 29 332 190q164 -162 332 -190q-41 -45 -57 -57t-43 -11zM51 1223v77h606v-77h-79q-23 0 -30 -5t-9 -34v-910q0 -197 49 -196h119v-78h-607v78q74 0 91 3t18 17v1000q0 57 -11 87q-12 30 -22 34
t-31 4h-94z" />
    <glyph glyph-name="Idieresis" unicode="&#xcf;" horiz-adv-x="757" 
d="M502 1413q-43 0 -74 31t-31 74q0 44 31 74t74 30q44 0 74 -31t30 -73t-30 -74q-30 -31 -74 -31zM219 1413q-43 0 -74 31t-30 74q1 44 31 74t73 30t74 -31t31 -73t-31 -74q-31 -31 -74 -31zM51 1223v77h606v-77h-79q-23 0 -30 -5t-9 -34v-910q0 -197 49 -196h119v-78h-607
v78q74 0 91 3t18 17v1000q0 57 -11 87q-12 30 -22 34t-31 4h-94z" />
    <glyph glyph-name="Eth" unicode="&#xd0;" horiz-adv-x="1517" 
d="M549 1184v-439h272v-90h-272v-249q0 -208 9 -252q8 -44 18 -54t26 -10h66q215 0 318 137t104 359q0 154 -43 272t-103 184q-60 64 -156 116q-98 52 -194 52q-33 0 -39 -7t-6 -19zM219 98v557h-188v90h188v353q0 57 -11 87q-12 30 -22 34t-30 4h-95v77h635q362 0 550 -180
t188 -448q0 -182 -89 -341q-53 -93 -131 -165t-210 -119t-299 -47h-594v78q74 0 91 3t17 17z" />
    <glyph glyph-name="Ntilde" unicode="&#xd1;" horiz-adv-x="1517" 
d="M897 1442q-73 0 -166 48q-48 23 -65 23t-25 -2t-16 -7t-15 -9t-19 -27q-12 -24 -18 -28l-59 43q16 67 61 111t97 44t138 -35q85 -35 124 -34q57 0 90 76l61 -41q-57 -162 -188 -162zM1214 1090q0 133 -63 133h-100v77h381v-77h-74q-41 0 -41 -21v-1198q-1 -27 -23 -27
t-75 54l-904 968v-788q0 -133 62 -133h100v-78h-381v78h74q43 0 43 20v869q0 194 -114 238q-47 18 -87 18v77h445l757 -800v590z" />
    <glyph glyph-name="Ograve" unicode="&#xd2;" horiz-adv-x="1554" 
d="M856 1458l-61 -53q-123 92 -310 192q19 19 57 47t52 27q31 0 135 -88t127 -125zM724 1255q-321 0 -321 -494q0 -202 83 -434q44 -124 134 -203t198 -79q106 0 172 43q112 73 147 260q14 74 14 158q0 190 -41 335q-41 144 -87 225t-125 135t-174 54zM752 -39
q-299 0 -489 174q-189 174 -189 479q0 201 97 377q117 212 344 299q128 49 286 49q299 0 489 -174t191 -479q0 -194 -100 -377q-54 -98 -134 -174q-81 -76 -209 -125t-286 -49z" />
    <glyph glyph-name="Oacute" unicode="&#xd3;" horiz-adv-x="1554" 
d="M940 1671q14 -1 51 -27t58 -47q-187 -100 -310 -192l-61 53q23 37 127 125t135 88zM724 1255q-321 0 -321 -494q0 -202 83 -434q44 -124 134 -203t198 -79q106 0 172 43q112 73 147 260q14 74 14 158q0 190 -41 335q-41 144 -87 225t-125 135t-174 54zM752 -39
q-299 0 -489 174q-189 174 -189 479q0 201 97 377q117 212 344 299q128 49 286 49q299 0 489 -174t191 -479q0 -194 -100 -377q-54 -98 -134 -174q-81 -76 -209 -125t-286 -49z" />
    <glyph glyph-name="Ocircumflex" unicode="&#xd4;" horiz-adv-x="1554" 
d="M989 1407q-113 0 -231 104q-119 -104 -232 -104q-27 -1 -43 11t-57 57q168 29 332 190q164 -162 332 -190q-42 -45 -58 -57t-43 -11zM724 1255q-321 0 -321 -494q0 -202 83 -434q44 -124 134 -203t198 -79q106 0 172 43q112 73 147 260q14 74 14 158q0 190 -41 335
q-41 144 -87 225t-125 135t-174 54zM752 -39q-299 0 -489 174q-189 174 -189 479q0 201 97 377q117 212 344 299q128 49 286 49q299 0 489 -174t191 -479q0 -194 -100 -377q-54 -98 -134 -174q-81 -76 -209 -125t-286 -49z" />
    <glyph glyph-name="Otilde" unicode="&#xd5;" horiz-adv-x="1554" 
d="M895 1442q-73 0 -166 48q-48 23 -65 23t-25 -2t-16 -7t-15 -9t-19 -27q-12 -24 -18 -28l-59 43q16 67 61 111t97 44t137 -35q86 -35 125 -34q57 0 90 76l61 -41q-57 -162 -188 -162zM724 1255q-321 0 -321 -494q0 -202 83 -434q44 -124 134 -203t198 -79q106 0 172 43
q112 73 147 260q14 74 14 158q0 190 -41 335q-41 144 -87 225t-125 135t-174 54zM752 -39q-299 0 -489 174q-189 174 -189 479q0 201 97 377q117 212 344 299q128 49 286 49q299 0 489 -174t191 -479q0 -194 -100 -377q-54 -98 -134 -174q-81 -76 -209 -125t-286 -49z" />
    <glyph glyph-name="Odieresis" unicode="&#xd6;" horiz-adv-x="1554" 
d="M920 1413q-43 0 -74 31t-31 74q0 44 31 74t74 30q44 0 74 -31t30 -73t-30 -74q-30 -31 -74 -31zM637 1413q-43 0 -74 31t-31 74q0 44 31 74t74 30t74 -31t31 -73t-32 -74q-30 -31 -73 -31zM724 1255q-321 0 -321 -494q0 -202 83 -434q44 -124 134 -203t198 -79
q106 0 172 43q112 73 147 260q14 74 14 158q0 190 -41 335q-41 144 -87 225t-125 135t-174 54zM752 -39q-299 0 -489 174q-189 174 -189 479q0 201 97 377q117 212 344 299q128 49 286 49q299 0 489 -174t191 -479q0 -194 -100 -377q-54 -98 -134 -174q-81 -76 -209 -125
t-286 -49z" />
    <glyph glyph-name="multiply" unicode="&#xd7;" 
d="M571 586l322 323l133 -131l-324 -323l324 -324l-133 -131l-322 324l-323 -324l-133 133l323 324l-323 321l133 131z" />
    <glyph glyph-name="Oslash" unicode="&#xd8;" horiz-adv-x="1554" 
d="M719 1255q-90 0 -156 -43q-67 -42 -99 -114q-59 -131 -61 -301q1 -308 107 -521l473 844q-104 135 -264 135zM1151 504q0 311 -115 532l-475 -843q104 -147 273 -148q90 0 156 43q112 73 147 260q14 74 14 156zM752 -39q-156 0 -291 53l-88 -157h-99l109 194
q-145 78 -227 222t-82 343t97 375q117 212 344 299q127 49 283 49t281 -47l86 152h99l-105 -187q150 -78 236 -224t86 -343t-100 -381q-54 -98 -134 -174t-209 -125q-130 -49 -286 -49z" />
    <glyph glyph-name="Ugrave" unicode="&#xd9;" horiz-adv-x="1478" 
d="M881 1458l-62 -53q-123 92 -309 192q20 19 57 47t51 27q32 0 136 -88t127 -125zM1413 1300v-77h-74q-41 0 -41 -21v-717q0 -296 -201 -426q-103 -65 -206 -81q-103 -17 -158 -17q-203 0 -306 53q-56 29 -114 72q-57 43 -91 121t-34 178v713q0 57 -11 87t-21 34t-31 4
h-100v77h604v-77h-64q-20 0 -27 -1q-20 -3 -20 -38v-727q0 -387 307 -387q212 0 300 130q71 101 71 257v633q0 133 -63 133h-101v77h381z" />
    <glyph glyph-name="Uacute" unicode="&#xda;" horiz-adv-x="1478" 
d="M944 1671q14 -1 51 -27t58 -47q-187 -100 -310 -192l-61 53q23 37 127 125t135 88zM1413 1300v-77h-74q-41 0 -41 -21v-717q0 -296 -201 -426q-103 -65 -206 -81q-103 -17 -158 -17q-203 0 -306 53q-56 29 -114 72q-57 43 -91 121t-34 178v713q0 57 -11 87t-21 34t-31 4
h-100v77h604v-77h-64q-20 0 -27 -1q-20 -3 -20 -38v-727q0 -387 307 -387q212 0 300 130q71 101 71 257v633q0 133 -63 133h-101v77h381z" />
    <glyph glyph-name="Ucircumflex" unicode="&#xdb;" horiz-adv-x="1478" 
d="M1004 1407q-113 0 -232 104q-119 -104 -231 -104q-27 -1 -43 11t-58 57q168 29 332 190q164 -162 332 -190q-41 -45 -57 -57t-43 -11zM1413 1300v-77h-74q-41 0 -41 -21v-717q0 -296 -201 -426q-103 -65 -206 -81q-103 -17 -158 -17q-203 0 -306 53q-56 29 -114 72
q-57 43 -91 121t-34 178v713q0 57 -11 87t-21 34t-31 4h-100v77h604v-77h-64q-20 0 -27 -1q-20 -3 -20 -38v-727q0 -387 307 -387q212 0 300 130q71 101 71 257v633q0 133 -63 133h-101v77h381z" />
    <glyph glyph-name="Udieresis" unicode="&#xdc;" horiz-adv-x="1478" 
d="M903 1413q-43 0 -74 31t-30 74q1 44 31 74t73 30t74 -31t31 -73t-31 -74q-31 -31 -74 -31zM621 1413q-43 0 -74 31t-31 74q0 44 31 74t74 30t73 -31t31 -73q-1 -42 -31 -74q-30 -31 -73 -31zM1413 1300v-77h-74q-41 0 -41 -21v-717q0 -296 -201 -426q-103 -65 -206 -81
q-103 -17 -158 -17q-203 0 -306 53q-56 29 -114 72q-57 43 -91 121t-34 178v713q0 57 -11 87t-21 34t-31 4h-100v77h604v-77h-64q-20 0 -27 -1q-20 -3 -20 -38v-727q0 -387 307 -387q212 0 300 130q71 101 71 257v633q0 133 -63 133h-101v77h381z" />
    <glyph glyph-name="Yacute" unicode="&#xdd;" horiz-adv-x="1175" 
d="M874 1671q14 -1 52 -27t57 -47q-186 -100 -309 -192l-62 53q23 37 127 125t135 88zM1219 1300v-77h-58q-33 0 -43 -5t-20 -24l-338 -625v-295q0 -197 49 -196h111v-78h-605v78q79 0 97 3t18 17v447l-252 485q-72 135 -98 164q-27 29 -78 29h-45v77h616v-77h-84
q-33 1 -33 -11q1 -13 95 -198q94 -184 168 -332q43 84 90 177t103 199t57 132q-1 26 -11 30t-38 3h-101v77h400z" />
    <glyph glyph-name="Thorn" unicode="&#xde;" horiz-adv-x="1214" 
d="M549 963v-496q37 -14 82 -14q100 0 161 65q60 66 60 176t-71 200q-71 91 -185 91q-27 0 -37 -3t-10 -19zM717 78v-78h-606v78q74 0 91 3t17 17v1000q0 57 -11 87q-12 30 -22 34t-30 4h-95v77h607v-77h-80q-23 0 -30 -22t-9 -126h178q127 0 221 -35q159 -59 212 -205
q22 -58 22 -118q0 -133 -119 -244t-344 -111q-94 0 -170 25v-113q0 -197 49 -196h119z" />
    <glyph glyph-name="germandbls" unicode="&#xdf;" horiz-adv-x="1327" 
d="M498 1182v-807q0 -260 28 -290q12 -13 45 -13h37q-29 43 -28 82q0 40 24 64t66 24q66 0 102 -58t35 -125q16 -8 47 -8q61 0 98 46q37 45 37 105q0 100 -137 216q-57 47 -114 98q-136 124 -136 300q0 100 66 172t180 75q14 29 14 103t-48 143q-48 68 -144 65
q-172 -2 -172 -192zM201 92v709h-125v71h125v160q0 201 131 314q131 112 334 112t326 -77q67 -39 107 -109t40 -164v-45q-99 4 -185 -44t-86 -150t141 -219q58 -48 116 -99q57 -51 99 -121t42 -149q0 -143 -114 -229t-282 -85q-168 0 -247 88v-55h-525v72q103 0 103 20z" />
    <glyph glyph-name="agrave" unicode="&#xe0;" horiz-adv-x="1073" 
d="M416 1264q31 0 135 -88t127 -125l-62 -54q-123 92 -309 193q19 20 57 47t52 27zM80 180q0 138 159 230q91 53 144 70q53 18 61 22l142 57v121q0 131 -123 131q-51 0 -92 -20v-35q-1 -80 -57 -138t-124 -57q-36 0 -62 25t-26 59q0 109 160 185t350 75q190 0 234 -60
q25 -34 31 -67t6 -94v-317q0 -158 19 -193t122 -57l-82 -140q-29 -10 -68 -10q-186 0 -264 154q-200 -154 -305 -154q-105 -1 -165 59t-60 154zM377 244q0 -96 86 -97q60 1 123 46v278q-108 -51 -144 -80q-65 -51 -65 -147z" />
    <glyph glyph-name="aacute" unicode="&#xe1;" horiz-adv-x="1073" 
d="M680 1264q14 0 51 -27t57 -47q-186 -101 -309 -193l-61 54q23 37 127 125t135 88zM80 180q0 138 159 230q91 53 144 70q53 18 61 22l142 57v121q0 131 -123 131q-51 0 -92 -20v-35q-1 -80 -57 -138t-124 -57q-36 0 -62 25t-26 59q0 109 160 185t350 75q190 0 234 -60
q25 -34 31 -67t6 -94v-317q0 -158 19 -193t122 -57l-82 -140q-29 -10 -68 -10q-186 0 -264 154q-200 -154 -305 -154q-105 -1 -165 59t-60 154zM377 244q0 -96 86 -97q60 1 123 46v278q-108 -51 -144 -80q-65 -51 -65 -147z" />
    <glyph glyph-name="acircumflex" unicode="&#xe2;" horiz-adv-x="1073" 
d="M207 1067q168 29 332 190q164 -162 331 -190q-41 -45 -57 -56t-43 -12q-113 0 -231 105q-119 -104 -232 -105q-27 -1 -43 11t-57 57zM80 180q0 138 159 230q91 53 144 70q53 18 61 22l142 57v121q0 131 -123 131q-51 0 -92 -20v-35q-1 -80 -57 -138t-124 -57
q-36 0 -62 25t-26 59q0 109 160 185t350 75q190 0 234 -60q25 -34 31 -67t6 -94v-317q0 -158 19 -193t122 -57l-82 -140q-29 -10 -68 -10q-186 0 -264 154q-200 -154 -305 -154q-105 -1 -165 59t-60 154zM377 244q0 -96 86 -97q60 1 123 46v278q-108 -51 -144 -80
q-65 -51 -65 -147z" />
    <glyph glyph-name="atilde" unicode="&#xe3;" horiz-adv-x="1073" 
d="M614 1034q-54 0 -96 18t-80 36t-55 18t-25 -2t-16 -7t-13 -8t-11 -13t-9 -14q-2 -3 -9 -15t-9 -15l-60 43q15 66 61 111t98 45t138 -35t123 -35q57 0 90 76l62 -41q-57 -162 -189 -162zM80 180q0 138 159 230q91 53 144 70q53 18 61 22l142 57v121q0 131 -123 131
q-51 0 -92 -20v-35q-1 -80 -57 -138t-124 -57q-36 0 -62 25t-26 59q0 109 160 185t350 75q190 0 234 -60q25 -34 31 -67t6 -94v-317q0 -158 19 -193t122 -57l-82 -140q-29 -10 -68 -10q-186 0 -264 154q-200 -154 -305 -154q-105 -1 -165 59t-60 154zM377 244q0 -96 86 -97
q60 1 123 46v278q-108 -51 -144 -80q-65 -51 -65 -147z" />
    <glyph glyph-name="adieresis" unicode="&#xe4;" horiz-adv-x="1073" 
d="M659 1016q-43 0 -73 31t-31 73q0 42 31 74q32 31 74 31t73 -31t31 -74q0 -44 -31 -74t-74 -30zM377 1016q-43 0 -74 31t-31 73t31 74q31 31 74 31t74 -31t31 -74q0 -44 -32 -74q-30 -30 -73 -30zM80 180q0 138 159 230q91 53 144 70q53 18 61 22l142 57v121
q0 131 -123 131q-51 0 -92 -20v-35q-1 -80 -57 -138t-124 -57q-36 0 -62 25t-26 59q0 109 160 185t350 75q190 0 234 -60q25 -34 31 -67t6 -94v-317q0 -158 19 -193t122 -57l-82 -140q-29 -10 -68 -10q-186 0 -264 154q-200 -154 -305 -154q-105 -1 -165 59t-60 154z
M377 244q0 -96 86 -97q60 1 123 46v278q-108 -51 -144 -80q-65 -51 -65 -147z" />
    <glyph glyph-name="aring" unicode="&#xe5;" horiz-adv-x="1073" 
d="M371 1174q0 78 55 133t133 55t133 -55q56 -55 56 -133t-56 -134t-133 -55q-78 -1 -133 55t-55 134zM461 1174q1 -41 29 -70t69 -29t70 29t28 70q-1 42 -29 70t-69 28t-69 -28t-29 -70zM80 180q0 138 159 230q91 53 144 70q53 18 61 22l142 57v121q0 131 -123 131
q-51 0 -92 -20v-35q-1 -80 -57 -138t-124 -57q-36 0 -62 25t-26 59q0 109 160 185t350 75q190 0 234 -60q25 -34 31 -67t6 -94v-317q0 -158 19 -193t122 -57l-82 -140q-29 -10 -68 -10q-186 0 -264 154q-200 -154 -305 -154q-105 -1 -165 59t-60 154zM377 244q0 -96 86 -97
q60 1 123 46v278q-108 -51 -144 -80q-65 -51 -65 -147z" />
    <glyph glyph-name="ae" unicode="&#xe6;" horiz-adv-x="1482" 
d="M377 244q0 -96 86 -97q60 1 123 46v278q-108 -51 -144 -80q-65 -51 -65 -147zM1022 -33q-250 0 -358 187q-258 -186 -362 -186t-162 58q-60 60 -60 154q0 138 159 230q91 53 144 70q53 18 61 22l142 57v121q0 131 -123 131q-51 0 -92 -20v-35q-1 -80 -57 -138t-124 -57
q-36 0 -62 25t-26 59q0 109 160 185t356 75q62 0 118 -18t61 -68q91 86 239 86t245 -77t161 -228l-555 -143q20 -358 276 -359q131 0 244 78l35 -59q-80 -70 -195 -110t-225 -40zM991 821q-108 0 -108 -291l266 78q-78 213 -158 213z" />
    <glyph glyph-name="ccedilla" unicode="&#xe7;" horiz-adv-x="942" 
d="M608 -272q0 27 -30 43t-85 27q-54 11 -70 15q-26 7 -26 28q0 20 109 128q-198 14 -310 132t-112 327t137 343t348 134q111 0 225 -50t113 -146q-1 -45 -31 -71t-75 -26q-80 0 -132 62t-44 137q-21 10 -63 10t-82 -35q-91 -80 -91 -312q0 -149 61 -260q69 -130 230 -130
q111 0 201 59l37 -51q-113 -106 -314 -125l-69 -80q0 -4 44 -16q43 -13 67 -23t48 -36t23 -55q1 -29 -15 -57t-70 -56t-138 -29q-143 0 -144 72q0 43 52 43t87 -54l21 -2q34 0 66 14t32 40z" />
    <glyph glyph-name="egrave" unicode="&#xe8;" horiz-adv-x="931" 
d="M324 1264q31 0 135 -88t127 -125l-62 -54q-123 92 -309 193q20 20 57 47t52 27zM467 821q-109 0 -109 -291l267 78q-78 213 -158 213zM496 -33q-112 0 -200 38q-87 38 -131 89t-78 135t-34 187q0 207 122 348t327 141q158 0 255 -77t161 -228l-556 -143q20 -358 277 -359
q131 0 244 78l35 -59q-80 -70 -195 -110t-227 -40z" />
    <glyph glyph-name="eacute" unicode="&#xe9;" horiz-adv-x="931" 
d="M649 1264q14 0 51 -27t58 -47q-186 -101 -309 -193l-62 54q23 37 127 125t135 88zM467 821q-109 0 -109 -291l267 78q-78 213 -158 213zM496 -33q-112 0 -200 38q-87 38 -131 89t-78 135t-34 187q0 207 122 348t327 141q158 0 255 -77t161 -228l-556 -143
q20 -358 277 -359q131 0 244 78l35 -59q-80 -70 -195 -110t-227 -40z" />
    <glyph glyph-name="ecircumflex" unicode="&#xea;" horiz-adv-x="931" 
d="M156 1067q168 29 331 190q164 -162 332 -190q-41 -45 -57 -56t-43 -12q-113 0 -232 105q-119 -104 -231 -105q-27 -1 -43 11t-57 57zM467 821q-109 0 -109 -291l267 78q-78 213 -158 213zM496 -33q-112 0 -200 38q-87 38 -131 89t-78 135t-34 187q0 207 122 348t327 141
q158 0 255 -77t161 -228l-556 -143q20 -358 277 -359q131 0 244 78l35 -59q-80 -70 -195 -110t-227 -40z" />
    <glyph glyph-name="edieresis" unicode="&#xeb;" horiz-adv-x="931" 
d="M629 1016q-43 0 -74 31t-31 73t31 74q31 31 74 31t73 -31t31 -74q-1 -44 -31 -74t-73 -30zM346 1016q-43 0 -74 31q-30 31 -30 73t30 74q31 31 74 31t74 -31t31 -74q0 -44 -31 -74t-74 -30zM467 821q-109 0 -109 -291l267 78q-78 213 -158 213zM496 -33q-112 0 -200 38
q-87 38 -131 89t-78 135t-34 187q0 207 122 348t327 141q158 0 255 -77t161 -228l-556 -143q20 -358 277 -359q131 0 244 78l35 -59q-80 -70 -195 -110t-227 -40z" />
    <glyph glyph-name="igrave" unicode="&#xec;" horiz-adv-x="616" 
d="M125 1264q31 0 135 -88t127 -125l-61 -54q-123 92 -310 193q20 20 58 47t51 27zM461 375q0 -260 28 -290q12 -13 46 -13h69v-72h-543v72q102 0 103 20v377q0 275 -29 312q-14 19 -45 20h-63v71h16l418 33v-530z" />
    <glyph glyph-name="iacute" unicode="&#xed;" horiz-adv-x="616" 
d="M430 1264q14 0 51 -27t58 -47q-187 -101 -310 -193l-61 54q23 37 127 125t135 88zM461 375q0 -260 28 -290q12 -13 46 -13h69v-72h-543v72q102 0 103 20v377q0 275 -29 312q-14 19 -45 20h-63v71h16l418 33v-530z" />
    <glyph glyph-name="icircumflex" unicode="&#xee;" horiz-adv-x="616" 
d="M-84 1067q168 29 332 190q164 -162 332 -190q-42 -45 -58 -56t-43 -12q-113 0 -231 105q-119 -104 -232 -105q-27 -1 -43 11t-57 57zM461 375q0 -260 28 -290q12 -13 46 -13h69v-72h-543v72q102 0 103 20v377q0 275 -29 312q-14 19 -45 20h-63v71h16l418 33v-530z" />
    <glyph glyph-name="idieresis" unicode="&#xef;" horiz-adv-x="616" 
d="M389 1016q-43 0 -74 31t-31 73t31 74q31 31 74 31t74 -31t31 -74q0 -44 -31 -74t-74 -30zM106 1016q-44 0 -74 31t-30 73t31 74q31 31 73 31t74 -31q31 -31 31 -74q0 -44 -31 -74t-74 -30zM461 375q0 -260 28 -290q12 -13 46 -13h69v-72h-543v72q102 0 103 20v377
q0 275 -29 312q-14 19 -45 20h-63v71h16l418 33v-530z" />
    <glyph glyph-name="eth" unicode="&#xf0;" horiz-adv-x="1099" 
d="M1034 582q0 -303 -140 -459t-360 -156t-345 118q-123 118 -123 335t143 351t358 134q63 0 127 -31q-4 84 -100 246l-217 -133l-103 70l254 162q-59 80 -139 151l141 88q92 -68 162 -137l217 137l113 -76l-244 -149q256 -293 256 -651zM371 575q14 -521 235 -524
q59 0 100 73q40 73 40 157q0 85 -9 159q-41 382 -213 381q-83 0 -116 -50t-35 -101q-2 -52 -2 -95z" />
    <glyph glyph-name="ntilde" unicode="&#xf1;" horiz-adv-x="1175" 
d="M666 1034q-55 0 -97 18t-80 36t-55 18q-48 0 -65 -31q-7 -10 -9 -13t-9 -15t-9 -15l-59 43q16 66 61 111q44 45 96 45t138 -35t124 -35q58 0 91 76l61 -41q-57 -162 -188 -162zM782 905q86 1 164 -67t78 -220v-243q0 -261 29 -290q12 -13 45 -13h51v-72h-502v72
q80 0 80 20v379q0 158 -21 215q-22 57 -105 57t-140 -67v-301q0 -260 28 -290q12 -13 46 -13h34v-72h-508v72q102 0 103 20v377q0 275 -29 312q-14 19 -45 20h-63v71h16l418 33v-141q6 4 54 39q49 35 63 42l66 33t138 27z" />
    <glyph glyph-name="ograve" unicode="&#xf2;" horiz-adv-x="1099" 
d="M387 1264q31 0 135 -88t127 -125l-61 -54q-123 92 -309 193q20 20 57 47t51 27zM590 51q68 0 99 45t35 96q5 51 5 151q-1 100 -29 229q-28 130 -75 190t-107 59q-109 0 -130 -87q-17 -68 -17 -159q14 -521 219 -524zM568 905q216 0 341 -118q125 -119 125 -335t-144 -350
t-360 -135q-216 0 -341 118q-123 118 -123 335t143 351t359 134z" />
    <glyph glyph-name="oacute" unicode="&#xf3;" horiz-adv-x="1099" 
d="M692 1264q14 0 51 -27t58 -47q-186 -101 -309 -193l-62 54q23 37 127 125t135 88zM590 51q68 0 99 45t35 96q5 51 5 151q-1 100 -29 229q-28 130 -75 190t-107 59q-109 0 -130 -87q-17 -68 -17 -159q14 -521 219 -524zM568 905q216 0 341 -118q125 -119 125 -335
t-144 -350t-360 -135q-216 0 -341 118q-123 118 -123 335t143 351t359 134z" />
    <glyph glyph-name="ocircumflex" unicode="&#xf4;" horiz-adv-x="1099" 
d="M219 1067q168 29 332 190q164 -162 332 -190q-41 -45 -57 -56t-44 -12q-113 0 -231 105q-119 -104 -232 -105q-27 -1 -43 11t-57 57zM590 51q68 0 99 45t35 96q5 51 5 151q-1 100 -29 229q-28 130 -75 190t-107 59q-109 0 -130 -87q-17 -68 -17 -159q14 -521 219 -524z
M568 905q216 0 341 -118q125 -119 125 -335t-144 -350t-360 -135q-216 0 -341 118q-123 118 -123 335t143 351t359 134z" />
    <glyph glyph-name="otilde" unicode="&#xf5;" horiz-adv-x="1099" 
d="M647 1034q-55 0 -97 18t-80 36t-54 18t-24 -2t-17 -7q-7 -5 -13 -8t-12 -13t-8 -14q-2 -3 -9 -15t-9 -15l-60 43q16 66 62 111t97 45q52 0 137 -35t124 -35q57 0 90 76l62 -41q-57 -162 -189 -162zM590 51q68 0 99 45t35 96q5 51 5 151q-1 100 -29 229q-28 130 -75 190
t-107 59q-109 0 -130 -87q-17 -68 -17 -159q14 -521 219 -524zM568 905q216 0 341 -118q125 -119 125 -335t-144 -350t-360 -135q-216 0 -341 118q-123 118 -123 335t143 351t359 134z" />
    <glyph glyph-name="odieresis" unicode="&#xf6;" horiz-adv-x="1099" 
d="M692 1016q-43 0 -74 31q-30 31 -30 73t30 74q31 31 74 31t74 -31t31 -74q0 -44 -31 -74t-74 -30zM410 1016q-43 0 -74 31t-31 73t31 74q31 31 74 31q44 0 74 -31t30 -74q0 -44 -30 -74t-74 -30zM590 51q68 0 99 45t35 96q5 51 5 151q-1 100 -29 229q-28 130 -75 190
t-107 59q-109 0 -130 -87q-17 -68 -17 -159q14 -521 219 -524zM568 905q216 0 341 -118q125 -119 125 -335t-144 -350t-360 -135q-216 0 -341 118q-123 118 -123 335t143 351t359 134z" />
    <glyph glyph-name="divide" unicode="&#xf7;" 
d="M569 233q63 0 107 -38q43 -39 43 -103t-43 -102q-42 -39 -106 -39t-107 39t-43 102t43 102t106 39zM571 678q-63 0 -106 39t-43 102t43 103t106 39q63 0 107 -39q44 -38 43 -102q1 -64 -43 -103t-107 -39zM1024 362h-909v187h909v-187z" />
    <glyph glyph-name="oslash" unicode="&#xf8;" horiz-adv-x="1087" 
d="M66 422q0 215 143 349t358 134q125 0 215 -39l72 111h90l-94 -146q184 -115 184 -380q0 -215 -144 -349t-360 -135q-131 0 -215 41l-73 -112h-86l94 145q-184 113 -184 381zM590 51q68 0 99 45t35 96q5 51 5 159t-33 243l-264 -406q59 -137 158 -137zM504 821
q-107 0 -125 -115q-9 -51 -9 -173q0 -123 33 -254l263 407q-55 135 -162 135z" />
    <glyph glyph-name="ugrave" unicode="&#xf9;" horiz-adv-x="1175" 
d="M426 1264q31 0 135 -88t127 -125l-61 -54q-123 92 -310 193q19 20 57 47t52 27zM1006 346q0 -165 66 -200q34 -17 89 -19l-84 -160q-147 4 -231 30t-105 103l-30 -20q-25 -16 -53 -34t-37 -22q-11 -6 -31 -16t-32 -14t-41 -16q-30 -12 -99 -11q-68 0 -121 25
q-53 24 -80 54q-57 62 -57 253v170q0 275 -29 312q-14 19 -45 20h-63v71h16l418 33v-530q0 -189 26 -226q26 -38 91 -38t149 55q-14 55 -14 147v156q0 273 -29 312q-14 19 -45 20h-64v71h17l418 33v-559z" />
    <glyph glyph-name="uacute" unicode="&#xfa;" horiz-adv-x="1175" 
d="M711 1264q14 0 51 -27t57 -47q-186 -101 -309 -193l-61 54q23 37 127 125t135 88zM1006 346q0 -165 66 -200q34 -17 89 -19l-84 -160q-147 4 -231 30t-105 103l-30 -20q-25 -16 -53 -34t-37 -22q-11 -6 -31 -16t-32 -14t-41 -16q-30 -12 -99 -11q-68 0 -121 25
q-53 24 -80 54q-57 62 -57 253v170q0 275 -29 312q-14 19 -45 20h-63v71h16l418 33v-530q0 -189 26 -226q26 -38 91 -38t149 55q-14 55 -14 147v156q0 273 -29 312q-14 19 -45 20h-64v71h17l418 33v-559z" />
    <glyph glyph-name="ucircumflex" unicode="&#xfb;" horiz-adv-x="1175" 
d="M217 1067q168 29 332 190q164 -162 332 -190q-41 -45 -57 -56t-44 -12q-113 0 -231 105q-119 -104 -232 -105q-27 -1 -43 11t-57 57zM1006 346q0 -165 66 -200q34 -17 89 -19l-84 -160q-147 4 -231 30t-105 103l-30 -20q-25 -16 -53 -34t-37 -22q-11 -6 -31 -16t-32 -14
t-41 -16q-30 -12 -99 -11q-68 0 -121 25q-53 24 -80 54q-57 62 -57 253v170q0 275 -29 312q-14 19 -45 20h-63v71h16l418 33v-530q0 -189 26 -226q26 -38 91 -38t149 55q-14 55 -14 147v156q0 273 -29 312q-14 19 -45 20h-64v71h17l418 33v-559z" />
    <glyph glyph-name="udieresis" unicode="&#xfc;" horiz-adv-x="1175" 
d="M711 1016q-43 0 -74 31t-31 73t31 74q31 31 74 31t73 -31t31 -74q-1 -44 -31 -74t-73 -30zM428 1016q-43 0 -74 31q-30 31 -30 73t30 74q31 31 74 31t74 -31q30 -31 30 -74q0 -44 -30 -74t-74 -30zM1006 346q0 -165 66 -200q34 -17 89 -19l-84 -160q-147 4 -231 30
t-105 103l-30 -20q-25 -16 -53 -34t-37 -22q-11 -6 -31 -16t-32 -14t-41 -16q-30 -12 -99 -11q-68 0 -121 25q-53 24 -80 54q-57 62 -57 253v170q0 275 -29 312q-14 19 -45 20h-63v71h16l418 33v-530q0 -189 26 -226q26 -38 91 -38t149 55q-14 55 -14 147v156q0 273 -29 312
q-14 19 -45 20h-64v71h17l418 33v-559z" />
    <glyph glyph-name="yacute" unicode="&#xfd;" horiz-adv-x="1024" 
d="M737 1264q14 0 51 -27t58 -47q-186 -101 -309 -193l-62 54q23 37 127 125t135 88zM-39 801v71h533v-71h-80q-14 0 -18 -2t-3 -14q0 -12 95 -206t126 -262q182 408 182 441t-10 38q-12 5 -55 5h-82v71h381v-71h-59q-31 0 -49 -37l-562 -1227q-168 -49 -245 -49
q-35 0 -35 31q0 20 33 37q100 47 193 175t147 269q-186 363 -268 532q-121 250 -165 264q-16 4 -59 5z" />
    <glyph glyph-name="thorn" unicode="&#xfe;" horiz-adv-x="1175" 
d="M588 51q60 0 98 31q78 62 78 299q0 371 -182 371q-64 0 -113 -43v-625q59 -33 119 -33zM740 905q178 0 253 -148q76 -148 76 -332t-116 -321t-312 -137q-86 0 -172 29v-115q0 -261 29 -290q12 -13 45 -13h106v-72h-579v72q102 0 102 21v1411q0 274 -28 312q-13 19 -46 19
h-63v72l110 8q31 3 137 11t187 12v-660q175 121 271 121z" />
    <glyph glyph-name="ydieresis" unicode="&#xff;" horiz-adv-x="1024" 
d="M686 1016q-43 0 -74 31q-30 31 -30 73t30 74q31 31 74 31t74 -31t31 -74q0 -44 -31 -74t-74 -30zM403 1016q-43 0 -73 31t-31 73q0 42 31 74q32 31 74 31t73 -31t31 -74q0 -44 -31 -74t-74 -30zM-39 801v71h533v-71h-80q-14 0 -18 -2t-3 -14q0 -12 95 -206t126 -262
q182 408 182 441t-10 38q-12 5 -55 5h-82v71h381v-71h-59q-31 0 -49 -37l-562 -1227q-168 -49 -245 -49q-35 0 -35 31q0 20 33 37q100 47 193 175t147 269q-186 363 -268 532q-121 250 -165 264q-16 4 -59 5z" />
    <glyph glyph-name="dotlessi" unicode="&#x131;" horiz-adv-x="616" 
d="M461 375q0 -260 28 -290q12 -13 46 -13h69v-72h-543v72q102 0 103 20v377q0 275 -29 312q-14 19 -45 20h-63v71h16l418 33v-530z" />
    <glyph glyph-name="Lslash" unicode="&#x141;" horiz-adv-x="1175" 
d="M549 406q0 -208 9 -252q8 -44 18 -54t26 -10q125 0 209 6t177 36t122 85q12 29 37 29q31 0 31 -31t-58 -215h-1009v78q74 0 91 3t17 17v367l-131 -96v112l131 97v520q0 57 -11 87q-12 30 -22 34t-30 4h-95v77h619v-77h-92q-23 0 -30 -5t-9 -34v-422l266 196v-112
l-266 -197v-243z" />
    <glyph glyph-name="lslash" unicode="&#x142;" horiz-adv-x="616" 
d="M461 375q0 -260 28 -290q12 -13 46 -13h69v-72h-543v72q102 0 103 20v531l-160 -123v116l160 123q0 516 -34 569q-13 22 -42 21h-63v72l436 43v-545l160 121v-117l-160 -121v-407z" />
    <glyph glyph-name="OE" unicode="&#x152;" horiz-adv-x="2048" 
d="M414 655q0 -164 80 -344q43 -98 133 -163q89 -64 231 -64t141 49v598q0 327 -9 385t-24 67t-59 9q-227 0 -360 -148t-133 -389zM1832 1067q-38 0 -41 45t-58 62q-106 37 -363 36q-28 0 -35 -8q-6 -8 -6 -24v-433h113q158 1 198 19t39 67v68h70v-364h-70v36q0 37 -6 53
q-14 37 -166 38h-178v-256q0 -208 9 -252q8 -44 18 -54t26 -10q125 0 209 6t177 36t122 85q12 29 37 29q31 0 31 -31t-57 -215h-777l-362 -12q-168 0 -296 47t-199 113t-113 156q-70 145 -70 292q0 221 126 384t331 242t458 78h887l-16 -147q0 -86 -38 -86z" />
    <glyph glyph-name="oe" unicode="&#x153;" horiz-adv-x="1593" 
d="M1169 -33q-205 0 -311 109q-129 -109 -337 -109t-332 118q-123 118 -123 335t143 351t357 134t323 -102q55 51 136 78t149 24q158 -2 254 -79t161 -226l-559 -143q8 -154 74 -256q66 -103 202 -103t248 78l35 -59q-81 -70 -195 -110t-225 -40zM1135 821q-109 0 -109 -291
l266 78q-78 213 -157 213zM518 821q-109 0 -130 -87q-17 -68 -16 -150q4 -350 103 -473q47 -60 115 -60t99 45t35 96q5 51 5 151q-1 100 -29 229q-56 249 -182 249z" />
    <glyph glyph-name="Scaron" unicode="&#x160;" 
d="M571 1581q119 104 232 105q27 0 43 -12t57 -56q-168 -29 -332 -191q-164 162 -331 191q41 45 57 56t43 12q112 -1 231 -105zM895 1077q-31 0 -41 39q-16 66 -83 100t-153 33q-86 0 -165 -53q-78 -53 -78 -137t54 -130q54 -47 127 -67q234 -66 355 -166q57 -47 93 -129
q69 -154 7 -311q-120 -295 -540 -295q-168 0 -340 64q-41 184 -41 204q0 41 39 41q23 0 34 -22q3 -6 9 -23q33 -88 134 -131t177 -43q119 0 203 67t84 183q0 82 -57 135t-132 76q-244 75 -333 147q-131 106 -131 279q0 131 80 225q150 176 436 176q165 0 280 -39l15 -184
q4 -39 -33 -39z" />
    <glyph glyph-name="scaron" unicode="&#x161;" horiz-adv-x="903" 
d="M705 1257q27 0 43 -11t57 -56q-168 -29 -332 -191q-164 162 -332 191q41 45 57 56t44 11q112 0 231 -104q119 104 232 104zM846 296q0 -114 -79 -192q-139 -137 -394 -137q-174 0 -297 43q-29 172 -29 180q0 33 39 33q20 0 30 -12t27 -55q41 -104 236 -105q43 -1 99 17
q108 34 108 118q0 83 -138 114t-257 82q-58 26 -98 83t-40 139q0 131 119 216t300 85t282 -49q2 -20 8 -76t6 -71q0 -33 -31 -33q-25 0 -39 37q-20 55 -82 82t-128 27t-120 -26t-54 -78t50 -82q52 -30 118 -41t148 -39q216 -74 216 -260z" />
    <glyph glyph-name="Ydieresis" unicode="&#x178;" horiz-adv-x="1175" 
d="M762 1413q-43 0 -74 31t-31 74q0 44 31 74t74 30t74 -31q30 -31 30 -73t-30 -74q-30 -31 -74 -31zM479 1413q-43 0 -73 31t-31 74q0 44 31 74q32 30 74 30t73 -31t31 -73t-31 -74q-31 -31 -74 -31zM1219 1300v-77h-58q-33 0 -43 -5t-20 -24l-338 -625v-295
q0 -197 49 -196h111v-78h-605v78q79 0 97 3t18 17v447l-252 485q-72 135 -98 164q-27 29 -78 29h-45v77h616v-77h-84q-33 1 -33 -11q1 -13 95 -198q94 -184 168 -332q43 84 90 177t103 199t57 132q-1 26 -11 30t-38 3h-101v77h400z" />
    <glyph glyph-name="Zcaron" unicode="&#x17d;" horiz-adv-x="1175" 
d="M590 1581q119 104 231 105q27 0 43 -12t58 -56q-168 -29 -332 -191q-164 162 -332 191q41 45 57 56t43 12q113 -1 232 -105zM1055 1300q45 0 45 -16q0 -4 -39 -82l-633 -1112q436 0 619 84q27 12 45 51q0 2 2 6q25 41 49 45q33 0 33 -36t-64 -240h-1032q-40 0 -49 6
q-11 6 -11 16t20 44q19 33 19 34l635 1110h-43q-465 0 -508 -139q-12 -43 -23 -47t-22 -4q-35 0 -35 43l52 237h940z" />
    <glyph glyph-name="zcaron" unicode="&#x17e;" horiz-adv-x="948" 
d="M707 1257q27 0 43 -11t57 -56q-168 -29 -332 -191q-164 162 -332 191q41 45 57 56t44 11q112 0 231 -104q119 104 232 104zM877 872q20 0 20 -13t-47 -60l-514 -572q63 8 375 9q33 0 77 13t60 42t35 28q33 0 32 -30q1 -21 -110 -289h-737q-41 0 -41 13t57 77l22 25
q41 51 239 261t263 283q-397 -16 -427 -27t-47 -39t-36 -28q-31 0 -30 29l77 278h732z" />
    <glyph glyph-name="florin" unicode="&#x192;" 
d="M856 872v-77h-156l-69 -725q-11 -130 -61 -236t-112 -168t-136 -102q-130 -72 -238 -72q-59 0 -107 27q-47 27 -47 73q0 84 91 84t145 -98q71 26 109 128q38 103 51 190q32 226 32 319l50 580h-127v77h135q6 130 47 234t98 164t150 110q93 51 184 53q91 1 153 -25t62 -69
t-26 -65t-68 -21q-42 0 -83 29q-42 29 -63 74q-82 -26 -114 -140t-49 -344h149z" />
    <glyph glyph-name="circumflex" unicode="&#x2c6;" horiz-adv-x="681" 
d="M10 1067q168 29 332 190q164 -162 332 -190q-42 -45 -58 -56t-43 -12q-113 0 -231 105q-119 -104 -231 -105q-27 -1 -43 11t-58 57z" />
    <glyph glyph-name="caron" unicode="&#x2c7;" horiz-adv-x="681" 
d="M573 1257q27 0 43 -11t58 -56q-168 -29 -332 -191q-164 162 -332 191q42 45 58 56t43 11q112 0 231 -104q119 104 231 104z" />
    <glyph glyph-name="uni02C9" unicode="&#x2c9;" horiz-adv-x="681" 
d="M600 1198v-127h-516v127h516z" />
    <glyph glyph-name="breve" unicode="&#x2d8;" horiz-adv-x="681" 
d="M342 1122q76 0 122 32t44 101h86q8 -119 -60 -185t-192 -64q-124 0 -192 65t-60 184h86q-4 -133 166 -133z" />
    <glyph glyph-name="dotaccent" unicode="&#x2d9;" horiz-adv-x="681" 
d="M238 1141q0 43 30 73t74 31q43 0 74 -31q30 -32 30 -74t-30 -73t-74 -31q-43 0 -74 31q-30 31 -30 74z" />
    <glyph glyph-name="ring" unicode="&#x2da;" horiz-adv-x="681" 
d="M154 1194q0 78 55 133t133 55t133 -55t55 -133t-55 -133t-133 -55t-133 55t-55 133zM244 1194q0 -41 28 -70q28 -28 70 -28q41 0 70 28t28 70q0 41 -28 70q-29 28 -70 28t-70 -28q-28 -29 -28 -70z" />
    <glyph glyph-name="ogonek" unicode="&#x2db;" horiz-adv-x="681" 
d="M256 -183q0 -39 30 -59t68 -20t105 20l-29 -69q-63 -23 -129 -23t-118 34t-52 104q-1 70 61 121q62 52 144 75h162q-62 -21 -82 -33t-52 -26q-32 -13 -44 -25t-38 -35q-26 -24 -26 -64z" />
    <glyph glyph-name="tilde" unicode="&#x2dc;" horiz-adv-x="681" 
d="M397 1034q-55 0 -97 18t-80 36t-54 18t-24 -2t-17 -7q-8 -5 -13 -8q-6 -3 -12 -13t-8 -14q-2 -3 -9 -15t-9 -15l-60 43q16 66 62 111t97 45t137 -35t124 -35q57 0 90 76l62 -41q-57 -162 -189 -162z" />
    <glyph glyph-name="hungarumlaut" unicode="&#x2dd;" horiz-adv-x="681" 
d="M545 1292q43 0 119 -32q-152 -170 -224 -287l-78 28q10 45 81 168t102 123zM291 1292q43 0 119 -32q-152 -170 -224 -287l-77 28q10 45 80 168q71 123 102 123z" />
    <glyph glyph-name="uni03A9" unicode="&#x3a9;" horiz-adv-x="1490" 
d="M1075 735q0 281 -93 411t-241 130q-330 0 -329 -547q0 -119 43 -259t77 -213t109 -214l-16 -43h-508l-49 319h61q33 -89 64 -115t96 -26h194q-248 188 -312 370q-32 91 -32 195q0 273 171 439q172 166 438 166t433 -160t167 -430q0 -191 -121 -342q-61 -76 -109 -123
t-127 -115h213q63 0 91 26t61 115h65l-55 -319h-508l-16 43q2 6 52 105q68 134 124 281q57 146 57 306z" />
    <glyph glyph-name="uni03BC" unicode="&#x3bc;" horiz-adv-x="1175" 
d="M1006 346q0 -165 66 -200q34 -17 89 -19l-84 -160q-147 4 -231 30t-105 103q-174 -133 -235 -133t-111 13v-93q0 -27 52 -103t53 -112q0 -63 -40 -109t-114 -46q-132 0 -159 81t-27 177v694q0 275 -29 312q-14 19 -45 20h-63v71h16l418 33v-530q0 -189 26 -226
q26 -38 91 -38t149 55q-14 55 -14 147v156q0 273 -29 312q-14 19 -45 20h-64v71h17l418 33v-559z" />
    <glyph glyph-name="pi" unicode="&#x3c0;" horiz-adv-x="1173" 
d="M987 119q39 0 90 45l27 -51q-39 -61 -104 -99t-130 -39q-201 0 -200 261q0 170 20 452q-221 4 -272 4v-24q0 -201 -28 -358t-54 -214t-47 -86q-70 -27 -135 -35l-17 41q97 130 143 320t46 360q-86 2 -136 -16t-120 -64l-33 58q4 4 35 47t75 76q45 33 68 42q24 9 61 21
t119 12q461 -6 529 -6t92 14t49 52l55 -17q-8 -59 -32 -125t-44 -94q-39 -12 -131 -12q-12 -143 -8 -395q0 -170 82 -170z" />
    <glyph glyph-name="uni2010" unicode="&#x2010;" horiz-adv-x="681" 
d="M56 371q-8 0 -7 8q0 8 76 190h393q56 1 68 7t19 6t7 -10t-75 -189h-394q-55 0 -67 -6t-20 -6z" />
    <glyph glyph-name="endash" unicode="&#x2013;" horiz-adv-x="1024" 
d="M1024 383h-1024v186h1024v-186z" />
    <glyph glyph-name="emdash" unicode="&#x2014;" horiz-adv-x="2048" 
d="M2048 383h-2048v186h2048v-186z" />
    <glyph glyph-name="quoteleft" unicode="&#x2018;" horiz-adv-x="454" 
d="M168 1059q0 -51 39 -58h4q35 11 73 11t71 -36q34 -36 34 -92t-39 -92t-96 -36q-92 0 -141 77t-50 173q0 212 209 333l43 -55q-147 -104 -147 -225z" />
    <glyph glyph-name="quoteright" unicode="&#x2019;" horiz-adv-x="454" 
d="M391 1090q0 -213 -209 -334l-43 55q147 104 148 225q0 51 -39 58h-4q-35 -10 -73 -10t-72 35q-33 36 -33 92t38 93q39 36 97 35q92 -1 141 -77t49 -172z" />
    <glyph glyph-name="quotesinglbase" unicode="&#x201a;" horiz-adv-x="454" 
d="M201 225q92 0 141 -77t49 -173q0 -212 -209 -333l-43 55q147 104 148 225q0 51 -39 58h-4l-27 -9l-29 -2q-55 0 -89 36q-33 36 -33 92t38 92q39 36 97 36z" />
    <glyph glyph-name="quotedblleft" unicode="&#x201c;" horiz-adv-x="909" 
d="M410 884q0 -56 -39 -92t-97 -36q-92 0 -141 77t-49 173q0 212 209 333l43 -55q-147 -104 -148 -225q0 -51 39 -58h4q35 11 73 11t72 -36t34 -92zM688 756q-92 0 -141 77t-49 173q0 212 209 333l43 -55q-147 -104 -148 -225q0 -51 39 -58h4q35 11 73 11t72 -36t34 -92
t-40 -92q-39 -36 -96 -36z" />
    <glyph glyph-name="quotedblright" unicode="&#x201d;" horiz-adv-x="909" 
d="M500 1211q0 57 39 93t96 35q92 -1 141 -77t49 -172q0 -213 -209 -334l-43 55q147 104 148 225q0 51 -39 58h-4q-34 -10 -72 -10t-72 35q-34 36 -34 92zM307 1036q0 51 -39 58h-4q-34 -10 -72 -10t-72 35q-34 36 -34 92q0 57 39 93t96 35q92 -1 141 -77t50 -172
q0 -213 -209 -334l-43 55q147 104 147 225z" />
    <glyph glyph-name="quotedblbase" unicode="&#x201e;" horiz-adv-x="909" 
d="M520 97q0 56 39 92t96 36q91 0 141 -77t50 -173q0 -212 -209 -333l-43 55q147 104 147 225q0 51 -39 58h-4l-26 -9l-29 -2q-55 0 -89 36t-34 92zM201 225q92 0 141 -77t49 -173q0 -212 -209 -333l-43 55q147 104 148 225q0 51 -39 58h-4l-27 -9l-29 -2q-55 0 -89 36
q-33 36 -33 92t38 92q39 36 97 36z" />
    <glyph glyph-name="dagger" unicode="&#x2020;" horiz-adv-x="1024" 
d="M551 -125h-78l-14 371q-2 49 -29 138t-61 140q104 123 104 381q-174 -6 -299 -98q-25 98 -78 133q53 35 78 133q125 -92 299 -98q0 135 -92 258q61 27 131 106q70 -80 131 -106q-92 -123 -92 -258q174 6 299 98q25 -98 78 -133q-53 -35 -78 -133q-125 92 -299 98
q0 -258 104 -381q-35 -51 -61 -140t-29 -138z" />
    <glyph glyph-name="daggerdbl" unicode="&#x2021;" horiz-adv-x="1024" 
d="M553 -125h-82v39q0 274 -100 395q100 80 100 199q-145 2 -289 -80q-10 68 -63 113q53 45 63 112q143 -82 289 -80q0 135 -96 215q96 66 96 199q-145 2 -289 -80q-10 68 -63 113q53 45 63 113q143 -82 289 -80q0 102 -90 188q92 43 131 98q39 -55 131 -98
q-90 -86 -90 -188q145 -2 289 80q10 -68 63 -113q-53 -45 -63 -113q-143 82 -289 80q0 -133 96 -199q-96 -80 -96 -215q145 -2 289 80q10 -68 63 -112q-53 -45 -63 -113q-143 82 -289 80q0 -119 100 -199q-100 -121 -100 -395v-39z" />
    <glyph glyph-name="bullet" unicode="&#x2022;" horiz-adv-x="1024" 
d="M870 651q0 -150 -104 -254t-254 -104t-253 103t-104 254t103 255q104 105 254 105t254 -104t104 -255z" />
    <glyph glyph-name="ellipsis" unicode="&#x2026;" horiz-adv-x="2048" 
d="M1706 -31q-63 0 -107 39q-43 38 -43 102t43 103t107 39t106 -39q43 -39 43 -102t-43 -103t-106 -39zM1024 -31q-63 0 -106 39q-44 38 -44 102t44 103t106 39q63 0 106 -39q44 -39 44 -102t-44 -103t-106 -39zM342 -31q-63 0 -106 39q-43 38 -43 102t43 103t106 39
q62 0 106 -39t44 -102t-43 -103q-44 -39 -107 -39z" />
    <glyph glyph-name="perthousand" unicode="&#x2030;" horiz-adv-x="2390" 
d="M1176 1391h104q-461 -698 -672 -1424l-157 -41q197 722 725 1465zM383 1255q-139 0 -139 -221q0 -356 176 -356q139 0 139 223q0 354 -176 354zM436 1329q338 0 338 -343q0 -170 -119 -276t-289 -106q-337 0 -337 336q0 178 118 284q119 105 289 105zM2009 625
q-139 0 -139 -222q0 -356 176 -356q139 0 139 223q0 355 -176 355zM2063 698q337 0 337 -343q0 -171 -119 -277t-289 -105q-337 0 -337 343q0 170 119 276t289 106zM1192 625q-139 0 -139 -222q0 -356 176 -356q139 0 139 223q0 355 -176 355zM1245 698q338 0 338 -343
q0 -171 -119 -277t-289 -105q-337 0 -337 336q0 178 118 284q119 105 289 105z" />
    <glyph glyph-name="guilsinglleft" unicode="&#x2039;" horiz-adv-x="681" 
d="M514 795q0 -82 -42 -175t-101 -145q59 -51 101 -144t42 -175q0 -23 -6 -47l-70 -33q-104 233 -329 399q225 166 329 399l70 -32q6 -25 6 -47z" />
    <glyph glyph-name="guilsinglright" unicode="&#x203a;" horiz-adv-x="681" 
d="M168 156q0 82 42 175t101 144q-59 51 -101 145t-42 175q0 22 6 47l70 32q104 -233 329 -399q-225 -166 -329 -399l-70 33q-6 25 -6 47z" />
    <glyph glyph-name="fraction" unicode="&#x2044;" horiz-adv-x="342" 
d="M532 1391h105q-461 -698 -672 -1424l-158 -41q197 722 725 1465z" />
    <glyph glyph-name="Euro" unicode="&#x20ac;" 
d="M698 -39q-220 0 -353 159q-132 159 -144 419h-135l14 82h119q4 61 12 118h-135l14 82h137q57 225 207 371t342 147q192 0 291 -79l-10 -140q-4 -70 -43 -69q-18 0 -27 11q-8 11 -13 39t-5 29q-13 39 -75 74t-144 35q-219 0 -256 -418h421l-14 -82h-412q-2 -31 -2 -94v-24
h392l-15 -82h-372q16 -217 93 -341t195 -124t254 100l45 -57q-161 -156 -381 -156z" />
    <glyph glyph-name="afii61289" unicode="&#x2113;" horiz-adv-x="880" 
d="M408 915v-217q168 193 167 445q0 203 -83 203q-52 0 -68 -88t-16 -343zM479 -37q-145 0 -223 78q-41 47 -58 107t-18 186v127l-117 -78l-28 59l145 103v260q0 215 22 316t85 177q90 119 217 119q98 0 151 -78t53 -214t-73 -264q-74 -128 -227 -269v-156q0 -182 40 -257
t130 -75q114 0 223 150l45 -41q-137 -250 -367 -250z" />
    <glyph glyph-name="trademark" unicode="&#x2122;" horiz-adv-x="2048" 
d="M1079 1116v-381q1 -87 17 -115t88 -32v-51h-275v51q72 4 88 32t17 115v406q0 39 -49 73t-97 35v51h349l237 -501l254 501h305v-51q-70 0 -89 -19t-19 -71v-481q0 -58 14 -72t90 -18v-51h-428v51q76 4 90 18t15 72v440h-5l-295 -581h-28l-275 579h-4zM516 1245v-567
q0 -58 14 -72t91 -18v-51h-428v51q76 4 90 18t14 72v567h-92q-102 0 -129 -125h-51v180h763v-180h-51q-27 125 -131 125h-90z" />
    <glyph glyph-name="Omega" unicode="&#x2126;" horiz-adv-x="1490" 
d="M1075 735q0 281 -93 411t-241 130q-330 0 -329 -547q0 -119 43 -259t77 -213t109 -214l-16 -43h-508l-49 319h61q33 -89 64 -115t96 -26h194q-248 188 -312 370q-32 91 -32 195q0 273 171 439q172 166 438 166t433 -160t167 -430q0 -191 -121 -342q-61 -76 -109 -123
t-127 -115h213q63 0 91 26t61 115h65l-55 -319h-508l-16 43q2 6 52 105q68 134 124 281q57 146 57 306z" />
    <glyph glyph-name="estimated" unicode="&#x212e;" horiz-adv-x="1658" 
d="M1313 678v377q0 27 -19 45q-201 196 -467 196t-465 -202q-18 -18 -18 -47v-369q0 -12 10 -12h951q8 0 8 12zM1593 631h-1239q-10 0 -10 -8v-375q0 -23 16 -43q200 -205 482 -205t481 229h109q-102 -123 -262 -195t-343 -71q-315 0 -539 201q-224 202 -224 486t224 486
t540 202t541 -202q224 -202 224 -487v-18z" />
    <glyph glyph-name="partialdiff" unicode="&#x2202;" horiz-adv-x="1105" 
d="M596 733h-2q-117 0 -191 -108q-86 -143 -86 -383q-2 -94 39 -150t115 -57q115 0 203 201q66 139 98 376q-20 43 -68 82t-108 39zM537 825h2q73 1 141 -31t111 -92q18 137 20 213q13 293 -140 400q-60 41 -139 41q-137 0 -290 -131q-29 -2 -62 61t-16 103q139 78 295 77
q287 0 442 -278q105 -190 105 -464t-101 -466q-145 -295 -438 -295q-175 1 -279 107t-104 292t123 320q127 143 330 143z" />
    <glyph glyph-name="uni2206" unicode="&#x2206;" horiz-adv-x="1312" 
d="M946 115l-377 917l-368 -917h745zM1241 0h-1171v66l522 1255l106 27l543 -1282v-66z" />
    <glyph glyph-name="product" unicode="&#x220f;" horiz-adv-x="1435" 
d="M1378 1343v-63q-128 -10 -156 -37t-28 -133v-1024q0 -114 29 -144t153 -40v-64h-581v64q113 8 135 36t22 148v1108q0 45 -13 57t-60 13h-330q-45 0 -57 -12t-13 -52v-1114q1 -120 21 -148t123 -36v-64h-568v64q125 8 154 39t29 145v1024q0 106 -30 134t-159 36v63h1329z
" />
    <glyph glyph-name="summation" unicode="&#x2211;" horiz-adv-x="1140" 
d="M53 -176v63l439 625l-429 768v63h936q4 -57 25 -344l-66 -14q-34 141 -66 197t-72 69q-40 14 -146 15h-320l340 -598l-444 -645h487q137 0 182 34q44 35 109 201l66 -16l-95 -418h-946z" />
    <glyph glyph-name="minus" unicode="&#x2212;" 
d="M1024 362h-909v187h909v-187z" />
    <glyph glyph-name="uni2215" unicode="&#x2215;" horiz-adv-x="342" 
d="M532 1391h105q-461 -698 -672 -1424l-158 -41q197 722 725 1465z" />
    <glyph glyph-name="uni2219" unicode="&#x2219;" horiz-adv-x="569" 
d="M135 455q0 63 43 102q42 39 106 39t107 -39t43 -102t-43 -103t-106 -39q-63 0 -107 39q-43 40 -43 103z" />
    <glyph glyph-name="radical" unicode="&#x221a;" horiz-adv-x="1122" 
d="M1098 1686l-346 -1991l-56 -25l-428 1047l-174 -80l-26 76l356 164l303 -781h4l273 1608z" />
    <glyph glyph-name="infinity" unicode="&#x221e;" horiz-adv-x="1499" 
d="M1092 735h-2q-54 -1 -90 -23q-63 -40 -110 -95q-47 -56 -63 -72q89 -111 145 -153t128 -42t118 58t46 138q0 79 -48 134t-124 55zM412 350h2q51 0 102 31t82 63t76 88q-71 94 -111 134q-69 69 -152 69t-131 -55t-50 -138q-2 -84 52 -138q52 -54 130 -54zM1405 549v-2
q0 -150 -92 -242t-219 -92q-178 0 -344 217q-86 -104 -167 -160t-196 -57q-115 0 -206 92q-91 91 -91 235t92 236t230 92q182 0 346 -211q100 113 151 150q90 63 208 62t203 -90t85 -230z" />
    <glyph glyph-name="integral" unicode="&#x222b;" horiz-adv-x="794" 
d="M545 1511q-74 0 -60 -299l37 -716q26 -471 -76 -686t-274 -216q-59 0 -100 33t-43 81t39 82t83 34q41 0 67 -65t44 -64q76 0 60 295l-41 770q-28 560 140 754q83 96 201 98q52 0 97 -30t46 -81t-32 -80t-76 -29t-69 60q-26 59 -43 59z" />
    <glyph glyph-name="approxequal" unicode="&#x2248;" horiz-adv-x="1077" 
d="M731 223q-85 -1 -203 69t-170 70q-88 0 -144 -68q-19 -24 -52 -69l-94 86q47 87 125 141t167 54t234 -87l35 -21q57 -29 105 -29q48 1 86 33t87 104l94 -86q-113 -197 -270 -197zM358 866q41 0 65 -7q25 -7 37 -10t32 -13q18 -10 24 -12t26 -15q20 -12 23 -14
q4 -2 36 -22t45 -25t31 -13t54 -8q88 0 176 139l94 -88q-111 -195 -268 -194q-93 0 -209 69t-166 69q-80 1 -144 -68q-22 -24 -52 -68l-94 84q47 86 125 141t165 55z" />
    <glyph glyph-name="notequal" unicode="&#x2260;" horiz-adv-x="1077" 
d="M981 811v-145h-319l-115 -256h434v-144h-492l-96 -221l-114 49l75 172h-262v144h320l112 256h-432v145h490l94 215l117 -47l-74 -168h262z" />
    <glyph glyph-name="lessequal" unicode="&#x2264;" horiz-adv-x="1077" 
d="M983 -18h-889v147h889v-147zM977 199l-875 426v155l875 424v-166l-727 -333v-5l727 -333v-168z" />
    <glyph glyph-name="greaterequal" unicode="&#x2265;" horiz-adv-x="1077" 
d="M979 -18h-883v147h883v-147zM104 1204l877 -424v-155l-877 -426v168l727 333v5l-727 333v166z" />
    <glyph glyph-name="lozenge" unicode="&#x25ca;" horiz-adv-x="1144" 
d="M885 641l-310 637h-6l-311 -635l311 -641h6zM1051 641l-392 -782h-176l-391 782l395 786h172z" />
    <glyph glyph-name="fi" unicode="&#xfb01;" horiz-adv-x="1290" 
d="M76 801v71h125v158q0 428 530 428q151 0 267 -60t116 -138q0 -33 -19 -59q-19 -25 -76 -25t-97 38t-62 134q-20 20 -100 20q-162 0 -218 -101q-44 -81 -44 -200v-195h200q45 0 435 33v-530q0 -260 28 -290q12 -13 45 -13h70v-72h-543v72q102 0 103 20v379q0 272 -28 311
q-13 18 -46 19h-264v-426q0 -260 28 -290q12 -13 45 -13h80v-72h-553v72q102 0 103 20v709h-125z" />
    <glyph glyph-name="fl" unicode="&#xfb02;" horiz-adv-x="1290" 
d="M645 872v-71h-188v-426q0 -260 28 -290q12 -13 45 -13h103v-72h-576v72q102 0 103 20v709h-125v71h125v213q0 158 142 266t355 107q166 0 275 -112l205 94v-1065q0 -260 28 -290q12 -13 45 -13h70v-72h-543v72q102 0 103 20v1125q0 63 -32 101t-64 46t-68 8
q-88 0 -154 -70t-65 -204v-226h188z" />
    <glyph glyph-name="a.superior" horiz-adv-x="716" 
d="M586 1141v-217q0 -37 30 -57q31 -19 60 -19l-60 -98q-100 0 -147 22t-74 68q-21 -10 -83 -50t-128 -40q-65 0 -104 38q-39 39 -39 102t64 109q64 45 112 64q47 19 92 35t68 26v70q0 20 -2 34q-1 14 -19 27q-18 15 -54 15t-56 -13q0 -63 -34 -100t-89 -37q-23 0 -41 16
t-19 38q0 82 117 124q116 42 206 41q90 0 126 -8q59 -13 71 -95q3 -27 3 -95zM250 930q0 -59 51 -60q33 0 76 27v166q-47 -23 -69 -35t-40 -38t-18 -60z" />
    <glyph glyph-name="o.superior" horiz-adv-x="716" 
d="M251 1200q-3 -24 -3 -87q0 -62 17 -144q32 -156 118 -156q39 0 59 27q20 28 24 52t3 88q1 64 -17 144q-34 154 -116 154q-42 0 -62 -27t-23 -51zM374 1339q150 1 230 -75t80 -211t-96 -218t-245 -83t-229 76t-81 210q0 135 96 218t245 83z" />
    <glyph glyph-name="one.superior" horiz-adv-x="671" 
d="M598 594v-57h-524v57h114q31 0 31 12v404q0 211 -24 235q-8 8 -25 8h-96v58l377 28v-610q0 -119 21 -131q7 -4 20 -4h106z" />
    <glyph glyph-name="two.superior" horiz-adv-x="671" 
d="M289 1339q127 -1 207 -67t79 -205q-1 -80 -77 -159t-258 -206l4 -4l315 13q27 2 51 22q24 21 44 21q18 0 18 -17t-30 -95q-30 -79 -40 -105h-559q-43 0 -43 11t20 28q20 18 31 28q201 193 253 278t52 173q0 184 -180 184q-80 0 -139 -41l-27 43q102 98 279 98z" />
    <glyph glyph-name="three.superior" horiz-adv-x="671" 
d="M580 1171q0 -123 -197 -174v-4q115 -6 191 -58t77 -145q0 -93 -79 -173q-92 -97 -334 -97q-136 0 -238 62l23 55q86 -43 175 -43t151 55q63 55 63 127t-58 120q-58 50 -192 50v60q190 12 190 131q0 47 -41 75t-111 27q-70 0 -147 -55l-26 43q47 53 131 83t184 30t168 -48
q70 -47 70 -121z" />
    </font>
</defs>
</svg>
