<?xml version="1.0" standalone="no"?>
<!DOCTYPE svg PUBLIC "-//W3C//DTD SVG 1.1//EN" "http://www.w3.org/Graphics/SVG/1.1/DTD/svg11.dtd" >
<svg xmlns="http://www.w3.org/2000/svg">
<metadata>
Created by FontPrep 20130207 at Fri Mar 11 08:37:08 2016
 By Matthew Higley
Copyright (c) 1989, 2001 Adobe Systems Incorporated.  All Rights Reserved.
</metadata>
<defs>
<font id="c43e3ccf385b9306cd9912da7b425e75" horiz-adv-x='1024' >
  <font-face 
    font-family="BerkeleyStd-Book"
    font-weight="400"
    font-stretch="normal"
    units-per-em="2048"
    panose-1="2 9 4 2 5 3 6 2 4 4"
    ascent="1444"
    descent="-604"
    x-height="872"
    cap-height="1300"
    bbox="-176 -524 2175 1741"
    underline-thickness="102"
    underline-position="-102"
    unicode-range="U+0020-FB02"
  />
<missing-glyph horiz-adv-x="1024" 
d="M102 1239v-1044l349 522zM164 102h696l-348 523zM573 717l349 -522v1044zM512 809l348 522h-696zM0 0v1434h1024v-1434h-1024z" />
    <glyph glyph-name="fi" unicode="fi" horiz-adv-x="1099" 
d="M887 358q0 -214 9 -250q10 -36 22 -46t22 -12q10 -1 33 -1h82v-49h-402v49h76q39 0 39 21v571q0 160 -26 176q-9 6 -31 6h-383v-465q0 -225 13 -263t27 -42t46 -4h100v-49h-420v49h76q39 0 39 21v753h-123v49h123v218q0 276 260 351q61 17 126 17q181 0 254 -69
q29 -28 32 -54q-1 -45 -59 -45t-111 80q-39 33 -119 33q-129 0 -197 -72t-67 -178v-281h274l285 33v-547z" />
    <glyph glyph-name="fl" unicode="fl" horiz-adv-x="1099" 
d="M86 823v49h123v293q0 81 29 139t66 87q88 67 258 67q94 0 194 -45l137 31v-1086q0 -225 13 -263q12 -38 26 -42t47 -4h82v-49h-402v49h76q39 0 39 21v1104q0 164 -110 208q-137 54 -253 -13q-36 -19 -60 -62t-23 -105v-330h166v-49h-166v-465q0 -225 13 -263t27 -42
t46 -4h82v-49h-402v49h76q39 0 39 21v753h-123z" />
    <glyph glyph-name=".notdef" horiz-adv-x="1024" 
d="M102 1239v-1044l349 522zM164 102h696l-348 523zM573 717l349 -522v1044zM512 809l348 522h-696zM0 0v1434h1024v-1434h-1024z" />
    <glyph glyph-name=".null" horiz-adv-x="0" 
 />
    <glyph glyph-name="nonmarkingreturn" horiz-adv-x="681" 
 />
    <glyph glyph-name="space" unicode=" " horiz-adv-x="530" 
 />
    <glyph glyph-name="exclam" unicode="!" horiz-adv-x="569" 
d="M262 1300q56 0 72 -20t16 -98t-35 -856h-53l-69 974h69zM295 -27q-37 0 -61 23q-24 24 -24 60t24 59t61 23t61 -24q24 -22 23 -59q1 -37 -23 -59t-61 -23z" />
    <glyph glyph-name="quotedbl" unicode="&#x22;" horiz-adv-x="720" 
d="M285 1174l-35 -418q-6 -63 -29 -64q-23 0 -28 64l-35 418q-12 166 63 165q76 1 64 -165zM563 1174l-35 -418q-6 -63 -28 -64q-23 0 -29 64l-35 418q-12 166 64 165q75 1 63 -165z" />
    <glyph glyph-name="numbersign" unicode="#" 
d="M647 55h-86l72 318h-330l-72 -318h-86l72 318h-215l53 116h189l73 322h-213l54 117h186l72 317h86l-72 -317h332l72 317h86l-72 -317h215l-53 -117h-191l-71 -322h210l-53 -116h-186zM662 489l71 322h-330l-73 -322h332z" />
    <glyph glyph-name="dollar" unicode="$" 
d="M502 -143v143q-129 0 -216 33q-147 56 -147 137q1 18 15 28t34 11q82 0 144 -133q37 -27 170 -27v569q-164 53 -258 128t-94 214q0 140 101 228t251 108v148h57v-144q141 0 226 -53t85 -98t-39 -45q-80 0 -151 123q-41 25 -121 24v-526q211 -61 290 -145t79 -217
t-106 -229t-263 -126v-151h-57zM821 338q0 108 -69 167q-70 58 -193 97v-547q109 15 185 95t77 188zM256 1004q0 -100 64 -162t182 -99v506q-102 -14 -174 -79q-72 -66 -72 -166z" />
    <glyph glyph-name="percent" unicode="%" horiz-adv-x="1630" 
d="M1202 1386h78q-164 -182 -393 -660t-295 -781l-109 -41q39 240 308 781q268 541 411 701zM1180 16q98 0 150 73t52 182t-30 188q-56 149 -189 149q-98 0 -150 -72t-52 -181q0 -108 38 -214q19 -55 67 -90t114 -35zM860 300q0 144 93 254t233 110t219 -98q78 -98 78 -242
t-93 -254q-94 -110 -234 -109q-140 0 -218 97t-78 242zM451 1284q-99 0 -151 -73t-52 -181t30 -188q55 -150 189 -150q98 0 150 73q53 73 53 180t-39 214q-19 55 -67 90t-113 35zM770 1000q0 -144 -93 -254t-233 -109q-140 0 -219 97q-78 97 -78 242q-1 144 93 254t234 110
t218 -98t78 -242z" />
    <glyph glyph-name="ampersand" unicode="&#x26;" horiz-adv-x="1669" 
d="M1061 936q33 0 168 -23t186 -23t94 15q43 13 59 33t25 40q7 20 15 36q8 14 20 14q18 0 19 -37v-106q0 -39 -42 -74t-123 -35t-194 29l-4 -4q88 -96 88 -240q0 -221 -168 -385q125 -98 213 -98t150 55l28 -37q-180 -135 -233 -135q-78 0 -258 123q-170 -123 -436 -123
q-335 0 -493 196q-87 108 -87 259q0 150 89 256t235 143q-203 282 3 442q103 82 228 82t184 -47l-22 -104q-11 -53 -27 -53t-16 18q0 51 -58 76t-128 25q-68 0 -121 -41q-53 -40 -54 -126q0 -119 287 -437t469 -439q125 111 125 297q0 142 -75 248t-210 106q-55 0 -118 -47
l-27 35q68 86 209 86zM207 485q0 -255 228 -385q124 -70 299 -71q175 0 319 92l-607 637h-28q-96 0 -154 -85t-57 -188z" />
    <glyph glyph-name="quotesingle" unicode="'" horiz-adv-x="378" 
d="M254 1174l-35 -418q-6 -63 -29 -64q-23 0 -28 64l-35 418q-12 166 63 165q76 1 64 -165z" />
    <glyph glyph-name="parenleft" unicode="(" horiz-adv-x="681" 
d="M596 1458l16 -53q-110 -61 -188 -157q-196 -241 -199 -613q0 -224 90 -480q45 -127 130 -227t196 -141l-20 -53q-133 39 -237 142q-167 167 -241 497t86 682q55 121 149 228t218 175z" />
    <glyph glyph-name="parenright" unicode=")" horiz-adv-x="681" 
d="M86 -266l-16 53q110 61 188 157t120 204q77 197 78 415t-89 474q-45 127 -130 227t-196 141l20 53q133 -39 237 -142q104 -102 158 -234q110 -264 108 -484q-1 -219 -111 -461q-55 -121 -149 -228t-218 -175z" />
    <glyph glyph-name="asterisk" unicode="*" horiz-adv-x="1024" 
d="M459 1002q0 28 -113 64t-158 38q25 72 74 127q27 -39 107 -112t108 -72q20 0 21 30q0 96 -58 256l72 6q13 0 38 -3t34 -3q-57 -160 -58 -256q0 -31 21 -30q29 1 109 73t106 111q49 -55 74 -127q-45 -2 -158 -38t-113 -65t113 -65t158 -37q-25 -72 -74 -127
q-27 39 -107 112t-108 72q-20 0 -21 -30q0 -96 58 -256l-72 -8q-8 0 -35 4t-37 4q57 160 58 256q0 31 -21 30q-29 0 -109 -72t-106 -112q-49 55 -74 127q45 2 158 38q113 37 113 65z" />
    <glyph glyph-name="plus" unicode="+" 
d="M479 489v383h107v-383h383v-106h-383v-383h-107v383h-385v106h385z" />
    <glyph glyph-name="comma" unicode="," horiz-adv-x="530" 
d="M262 123q68 1 107 -59t39 -132q0 -158 -164 -258l-27 29q117 96 117 209q0 59 -39 70l-19 -7l-20 -2q-33 1 -53 21t-21 53q0 33 23 55t57 21z" />
    <glyph glyph-name="hyphen" unicode="-" horiz-adv-x="681" 
d="M479 489q65 1 97 9t34 8q4 -4 4 -10t-61 -113h-408q-33 0 -50 -7t-21 -7t-4 7t67 113h342z" />
    <glyph glyph-name="period" unicode="." horiz-adv-x="530" 
d="M266 -27q-36 0 -60 23q-24 24 -24 60t24 59t60 23t61 -24q23 -22 23 -59t-24 -59t-60 -23z" />
    <glyph glyph-name="slash" unicode="/" horiz-adv-x="569" 
d="M616 1339l-548 -1378h-115l549 1378h114z" />
    <glyph glyph-name="zero" unicode="0" 
d="M217 721q0 -171 29 -301q30 -130 64 -206q34 -75 96 -127t145 -52q117 0 206 130t89 417q0 171 -29 300t-63 204q-36 75 -98 127t-144 53q-117 0 -206 -129t-89 -416zM506 -39q-115 -1 -201 63t-131 167q-84 192 -86 427q0 310 141 516t330 205q115 0 201 -63
q143 -105 194 -379q20 -106 21 -215q1 -309 -141 -515t-328 -206z" />
    <glyph glyph-name="one" unicode="1" 
d="M483 76v786q0 152 -2 226t-14 112q-13 39 -25 44t-47 5h-151v56q132 0 246 17t118 17v-985q0 -261 29 -286q12 -12 39 -13h184v-55h-616v55h198q41 1 41 21z" />
    <glyph glyph-name="two" unicode="2" 
d="M690 922q0 325 -298 325q-150 0 -269 -96l-25 39q160 150 342 150t282 -99q101 -98 101 -277t-115 -337t-257 -308l-197 -206q159 4 168 5q10 1 89 3t191 5t149 11q36 8 56 37q10 12 19 12q16 0 16 -17t-63 -169h-773q-31 0 -30 10q0 10 174 204t219 239q102 104 162 230
q59 126 59 239z" />
    <glyph glyph-name="three" unicode="3" 
d="M522 1339q121 -1 217 -69t97 -197q0 -180 -224 -307v-4q150 -16 239 -104t89 -236q0 -201 -170 -331t-364 -130t-324 88l22 53q168 -80 281 -79q172 -1 294 115t122 288q0 109 -74 196t-248 87h-78v55q127 0 219 75q91 75 91 184t-69 167t-173 57q-190 0 -319 -125
l-33 37q76 82 180 131t225 49z" />
    <glyph glyph-name="four" unicode="4" 
d="M641 629v551q-10 -12 -116 -129q-187 -207 -343 -422h459zM641 522h-600v19q295 397 678 798h35v-710q180 0 219 39q10 10 22 10q13 0 13 -10t-52 -146h-202v-524q-94 -47 -110 -47t-15 22l12 316v233z" />
    <glyph glyph-name="five" unicode="5" 
d="M618 1260q209 0 236 40q10 16 23 17q14 -1 14 -19t-27 -106q-78 -52 -226 -52t-323 70l-71 -315q139 18 184 18q211 0 354 -103q144 -103 144 -298t-147 -367q-71 -82 -189 -133t-247 -51q-128 0 -237 51l19 51q106 -41 224 -41t264 94q73 46 123 137t50 206
q0 188 -111 277q-112 89 -306 89q-66 0 -122 -9q-55 -9 -67 -9t-12 12t111 481q227 -40 339 -40z" />
    <glyph glyph-name="six" unicode="6" 
d="M856 403q0 162 -80 281t-230 119q-148 0 -300 -125q-10 -133 -10 -175t17 -127t53 -169t104 -137q68 -54 141 -54t129 30q55 30 90 68q34 38 60 114t26 175zM889 1339v-55q-244 0 -420 -148t-215 -391q195 156 336 156q176 0 280 -135t105 -313q0 -229 -141 -361
t-302 -131q-101 0 -180 47q-78 48 -126 106t-82 169t-33 256q0 362 219 581t559 219z" />
    <glyph glyph-name="seven" unicode="7" 
d="M487 1274q297 0 474 61q8 4 21 4t13 -7t-8 -15t-12 -17q-174 -211 -337 -615t-163 -714q0 -20 -20 -20t-125 47q115 617 510 1221q-276 -63 -490 -63t-213 36q0 16 17 127q147 -45 333 -45z" />
    <glyph glyph-name="eight" unicode="8" 
d="M123 991q0 129 116 239t292 110t282 -92q106 -91 107 -240q0 -184 -246 -293v-4q151 -37 226 -118t75 -216q0 -180 -136 -298q-135 -118 -319 -118t-309 102t-125 281q0 227 260 348q-223 92 -223 299zM801 1006q0 108 -82 193t-203 85t-198 -68q-76 -68 -76 -184
q0 -117 101 -196t269 -95q189 66 189 265zM205 373q0 -154 91 -255q90 -102 236 -102t235 82t89 218t-73 200t-226 109l-141 41q-96 -25 -154 -108t-57 -185z" />
    <glyph glyph-name="nine" unicode="9" 
d="M516 498q148 0 301 125q10 133 10 175t-17 127t-53 169t-104 137t-168 53t-192 -97q-35 -38 -61 -114t-25 -176q1 -163 81 -281t228 -118zM174 -39v55q244 0 420 148t215 391q-195 -156 -336 -156q-176 -1 -280 135t-105 314q0 229 141 360t301 131q102 0 181 -47
t127 -105t81 -169q34 -111 33 -256q0 -362 -219 -582t-559 -219z" />
    <glyph glyph-name="colon" unicode=":" horiz-adv-x="530" 
d="M266 -27q-36 0 -60 23q-24 24 -24 60t24 59t60 23t61 -24q23 -22 23 -59t-24 -59t-60 -23zM266 741q-36 0 -60 23q-24 24 -24 60t24 59t60 23t61 -24q23 -22 23 -59t-24 -59t-60 -23z" />
    <glyph glyph-name="semicolon" unicode=";" horiz-adv-x="530" 
d="M266 741q-36 0 -60 23q-24 24 -24 60t24 59t60 23t61 -24q23 -22 23 -59t-24 -59t-60 -23zM262 123q68 1 107 -59t39 -132q0 -158 -164 -258l-27 29q117 96 117 209q0 59 -39 70l-19 -7l-20 -2q-33 1 -53 21t-21 53q0 33 23 55t57 21z" />
    <glyph glyph-name="less" unicode="&#x3c;" 
d="M61 489l940 429v-115l-804 -367l804 -366v-115l-940 428v106z" />
    <glyph glyph-name="equal" unicode="=" 
d="M94 229v107h875v-107h-875zM94 537v106h875v-106h-875z" />
    <glyph glyph-name="greater" unicode="&#x3e;" 
d="M61 918l940 -429v-106l-940 -428v115l805 366l-805 367v115z" />
    <glyph glyph-name="question" unicode="?" horiz-adv-x="757" 
d="M342 -27q-36 0 -60 23q-24 24 -24 60t24 59t60 23t60 -24q24 -22 24 -59t-24 -59t-60 -23zM649 1018q0 -100 -58 -183t-153 -165q-29 -29 -46 -43q-50 -41 -50 -71t68 -114q10 -12 30 -16t21 -16q0 -8 -109 -88q-78 84 -125 227q178 147 238 238q59 91 59 202t-78 175
t-192 65q-115 0 -134 -31t-32 -33q-16 0 -16 17l55 125q78 33 158 32q152 0 258 -86t106 -235z" />
    <glyph glyph-name="at" unicode="@" horiz-adv-x="1638" 
d="M549 625q0 -186 137 -189q94 0 187 200q94 200 106 429h-72q-113 0 -199 -78t-122 -176q-37 -98 -37 -186zM1084 935q-42 -192 -42 -316q0 -125 27 -163t100 -38q115 0 202 118t87 336q0 66 -9 126t-44 136t-90 129q-55 54 -157 91t-229 37q-126 -1 -252 -51
q-288 -115 -414 -373q-71 -143 -70 -314q0 -249 149 -424q105 -122 291 -170q104 -27 227 -25t226 28q102 28 154 58t110 70t71 48l29 -60q-305 -211 -602 -211q-190 1 -343 61t-244 159q-187 203 -187 450q0 350 252 586t594 235q176 0 308 -51q234 -90 314 -324
q35 -98 35 -209q0 -213 -150 -389t-387 -176q-86 1 -105 57t-20 246l-4 4q-141 -289 -311 -288q-92 0 -136 70t-44 180t62 235t188 213t276 88l74 -4q39 -2 54 16q16 18 34 20t18 -9q0 -10 -42 -202z" />
    <glyph glyph-name="A" unicode="A" horiz-adv-x="1251" 
d="M793 565l-189 578q-147 -338 -239 -578h428zM215 106q0 -51 51 -51h133v-55h-415v55q74 0 90 5t28 36l519 1229q72 23 95 23t23 -12t-17 -27q-17 -14 -17 -39q0 -57 172 -558t222 -593q30 -62 70 -64h76v-55h-422v55h103q26 0 32 4t6 22t-145 417h-481
q-123 -305 -123 -392z" />
    <glyph glyph-name="B" unicode="B" horiz-adv-x="1099" 
d="M371 1212v-450q199 0 274 -19q88 55 129 107t41 152t-73 166t-140 65h-156q-75 -1 -75 -21zM238 76v895q0 178 -11 226q-10 48 -47 48h-121v55h519q118 0 196 -32t111 -82q55 -84 55 -176t-64 -165t-163 -114v-4q141 -33 228 -124t87 -237t-122 -256t-359 -110h-434v55
h84q41 1 41 21zM371 700v-346q0 -245 29 -274q13 -12 55 -12h110q199 0 271 102q59 84 59 162q0 251 -203 334q-88 35 -211 34h-110z" />
    <glyph glyph-name="C" unicode="C" horiz-adv-x="1327" 
d="M782 -39q-305 0 -490 168q-186 167 -186 481t230 522t557 207q168 0 336 -65l-10 -121q-2 -43 -25 -43q-14 0 -18 43q-6 37 -98 78t-212 41q-284 0 -452 -181t-168 -457t166 -440q166 -165 409 -165q133 0 259 55t139 141q4 35 22 35t19 -24q0 -51 -11 -170
q-215 -105 -467 -105z" />
    <glyph glyph-name="D" unicode="D" horiz-adv-x="1402" 
d="M371 1212v-858q0 -245 29 -274q13 -12 55 -12h168q547 0 546 557q0 147 -46 263t-110 178q-65 62 -170 114t-204 53h-193q-75 -1 -75 -21zM238 76v895q0 178 -11 226q-10 48 -47 48h-121v55h619q299 0 465 -183t166 -429t-141 -449q-73 -105 -211 -172t-322 -67h-522v55
h84q41 1 41 21z" />
    <glyph glyph-name="E" unicode="E" horiz-adv-x="1138" 
d="M59 1245v55h963l-21 -141q-6 -35 -20 -35t-18 25q-4 37 -62 55q-92 29 -303 29h-152q-76 0 -75 -21v-467h194q257 0 291 29q14 12 14 39v82h52v-340h-52v76q0 20 -3 28q-3 9 -31 17t-205 8h-260v-330q0 -245 29 -274q13 -12 55 -12h131q406 0 446 100q8 20 22 20t15 -11
q0 -11 -51 -177h-905v55h84q41 0 41 21v895q0 178 -11 226q-10 48 -47 48h-121z" />
    <glyph glyph-name="F" unicode="F" horiz-adv-x="1099" 
d="M238 76v895q0 178 -11 226q-10 48 -47 48h-121v55h963l-21 -141q-6 -35 -20 -35t-18 25q-4 37 -62 55q-92 29 -303 29h-152q-76 0 -75 -21v-467h194q257 0 291 29q14 12 14 39v82h52v-340h-52v76q0 20 -3 28q-3 9 -31 17t-205 8h-260v-330q0 -260 28 -286q12 -12 39 -13
h115v-55h-440v55h84q41 1 41 21z" />
    <glyph glyph-name="G" unicode="G" horiz-adv-x="1402" 
d="M876 1278q-167 0 -314 -71q-88 -41 -156 -109t-114 -187t-46 -272q0 -301 163 -456t392 -154q160 0 303 63v146q0 221 -12 263t-68 42h-135v55h477v-55h-82q-47 0 -47 -21v-364q0 -27 12 -40t13 -22q0 -12 -33 -28q-247 -106 -519 -106t-438 182q-166 183 -166 477
q0 331 234 525t571 193q215 0 351 -77l-25 -127q-7 -37 -25 -37t-18 20l4 29q0 23 -40 53t-121 54t-161 24z" />
    <glyph glyph-name="H" unicode="H" horiz-adv-x="1478" 
d="M1104 678h-733v-324q0 -260 28 -286q12 -12 39 -13h115v-55h-440v55h84q41 0 41 21v895q0 178 -11 226q-10 48 -47 48h-121v55h441v-55h-82q-47 0 -47 -20v-480h733v226q0 178 -10 226t-47 48h-121v55h440v-55h-82q-47 0 -47 -20v-871q0 -261 29 -286q12 -12 39 -13h114
v-55h-440v55h84q41 0 41 21v602z" />
    <glyph glyph-name="I" unicode="I" horiz-adv-x="645" 
d="M389 1225v-871q0 -261 29 -286q12 -12 39 -13h114v-55h-440v55h84q41 0 41 21v895q0 178 -10 226t-47 48h-121v55h440v-55h-82q-47 0 -47 -20z" />
    <glyph glyph-name="J" unicode="J" horiz-adv-x="645" 
d="M291 53v918q0 178 -10 226t-48 48h-120v55h440v-55h-82q-47 0 -47 -20v-1174q0 -201 -124 -317t-337 -117q-63 0 -104 12q-2 7 -15 69q-14 62 -14 66q0 18 20 19q16 0 23 -19q8 -41 55 -60t95 -19q119 0 193 93t75 275z" />
    <glyph glyph-name="K" unicode="K" horiz-adv-x="1290" 
d="M387 1225v-647q494 460 592 575q47 55 47 78q0 14 -27 14h-153v55h420v-55h-72q-18 0 -47 -26l-518 -514q127 -147 250 -297t201 -244t118 -105q18 -4 88 -4v-55h-223q-20 0 -33 11t-193 248q-180 236 -296 366l-154 -131v-140q0 -261 29 -286q12 -12 39 -13h114v-55
h-440v55h84q41 0 41 21v895q0 178 -10 226t-47 48h-121v55h440v-55h-82q-47 0 -47 -20z" />
    <glyph glyph-name="L" unicode="L" 
d="M59 1245v55h441v-55h-82q-47 0 -47 -20v-871q0 -245 29 -274q13 -12 55 -12h131q406 0 446 100q8 20 22 20t15 -11q0 -11 -51 -177h-905v55h84q41 0 41 21v895q0 178 -11 226q-10 48 -47 48h-121z" />
    <glyph glyph-name="M" unicode="M" horiz-adv-x="1669" 
d="M242 76v1018q0 152 -90 151h-93v55h295l494 -1077l442 1077h266v-55h-81q-47 0 -48 -20v-871q0 -259 29 -286q12 -12 39 -13h115v-55h-441v55h84q41 0 41 21v1046l-4 4l-467 -1112q-4 -12 -10 -12t-14 18l-486 1080h-4v-746q0 -261 29 -286q12 -12 39 -13h115v-55h-375
v55h84q41 1 41 21z" />
    <glyph glyph-name="N" unicode="N" horiz-adv-x="1478" 
d="M1182 231v715q0 260 -29 287q-12 12 -39 12h-115v55h375v-55h-84q-41 0 -41 -20v-1211q0 -31 -14 -30q-6 0 -14 8l-908 1130h-4v-768q0 -261 29 -286q12 -12 39 -13h115v-55h-375v55h84q41 0 41 21v1018q0 152 -90 151h-93v55h260l859 -1069h4z" />
    <glyph glyph-name="O" unicode="O" horiz-adv-x="1517" 
d="M1280 631q0 323 -159 485t-382 162q-144 0 -263 -79q-69 -43 -120 -109t-84 -175t-32 -245q0 -322 158 -485t382 -162q142 0 263 78q146 93 204 284q33 109 33 246zM740 -39q-302 1 -468 185t-166 481t186 505t488 208q301 0 467 -185q166 -184 166 -481t-186 -505
q-185 -208 -487 -208z" />
    <glyph glyph-name="P" unicode="P" 
d="M371 1212v-538q80 -27 172 -27q143 0 235 72t92 209q0 85 -55 181q-31 54 -103 89t-177 35h-89q-75 -1 -75 -21zM371 354q0 -260 28 -286q12 -12 39 -13h115v-55h-440v55h84q41 0 41 21v895q0 178 -11 226q-10 48 -47 48h-121v55h541q190 0 296 -99t108 -238
q0 -175 -132 -273t-317 -98q-98 -1 -184 26v-264z" />
    <glyph glyph-name="Q" unicode="Q" horiz-adv-x="1517" 
d="M743 -39q-305 1 -471 185t-166 481t186 505t488 208q301 0 467 -185q166 -184 166 -485q0 -248 -134 -438t-364 -250q252 -270 431 -271q51 0 127 35l20 -41q-201 -94 -283 -94q-121 0 -436 350h-31zM739 1278q-144 0 -263 -79q-69 -43 -120 -109t-84 -175
q-32 -109 -32 -255t42 -268t100 -188t153 -121q95 -54 200 -60q52 8 99 49l36 -43q215 51 313 214q97 163 97 388q-2 323 -160 485t-381 162z" />
    <glyph glyph-name="R" unicode="R" horiz-adv-x="1175" 
d="M371 1212v-569h114q101 0 183 23q82 22 142 90t60 163t-55 190q-31 54 -103 89t-177 35h-89q-75 -1 -75 -21zM238 76v895q0 178 -11 226q-10 48 -47 48h-121v55h541q190 0 296 -99t108 -240q0 -141 -92 -231t-240 -118q313 -451 418 -534q29 -23 116 -23v-55h-211
q-33 0 -93 79t-363 509h-168v-234q0 -260 28 -286q12 -12 39 -13h115v-55h-440v55h84q41 1 41 21z" />
    <glyph glyph-name="S" unicode="S" horiz-adv-x="985" 
d="M807 1161q0 -25 -19 -24q-16 0 -20 28q-8 55 -91 81t-153 26q-143 0 -218 -78t-75 -173t70 -157t168 -100q99 -37 197 -78t168 -122t69 -206q0 -182 -143 -290q-142 -108 -324 -107q-182 0 -321 55q-29 176 -29 183q0 23 20 22q16 0 27 -37q15 -76 121 -116t224 -39
t219 71t101 188t-68 186q-69 68 -166 106t-195 76t-167 119t-69 221t137 241q137 102 295 102t242 -39v-139z" />
    <glyph glyph-name="T" unicode="T" horiz-adv-x="1175" 
d="M870 55v-55h-536v55h147q41 0 41 21v1161q-391 0 -436 -100q-12 -27 -30 -27t-17 17q0 17 55 173h989q55 -156 55 -173t-16 -17t-30 27q-45 100 -437 100v-883q0 -259 29 -286q12 -12 39 -13h147z" />
    <glyph glyph-name="U" unicode="U" horiz-adv-x="1402" 
d="M954 1245v55h375v-55h-84q-41 0 -41 -20v-746q0 -113 -32 -204t-82 -148q-147 -166 -418 -166q-138 0 -226 42t-137 89t-81 129t-31 189v561q0 178 -11 226q-10 48 -47 48h-121v55h441v-55h-82q-47 0 -47 -20v-785q0 -100 28 -177t67 -118q40 -41 95 -67q122 -57 285 -32
q47 7 110 35t110 73q46 45 79 133t33 205v454q0 258 -29 287q-12 12 -39 12h-115z" />
    <glyph glyph-name="V" unicode="V" horiz-adv-x="1251" 
d="M1255 1300v-55h-94q-16 0 -19 -12t-464 -1190q-33 -82 -45 -82q-11 0 -21 34q-31 113 -200 512q-168 399 -283 675q-17 45 -35 54t-67 9h-43v55h403v-55h-96q-41 0 -41 -9t422 -1027q369 874 368 999q0 25 -14 31t-47 6h-111v55h387z" />
    <glyph glyph-name="W" unicode="W" horiz-adv-x="1933" 
d="M780 1245h-69v55h430v-55h-97q-40 0 -40 -9q1 -20 163 -428t232 -591q225 606 282 774t57 205t-12 43q-14 6 -49 6h-110v55h362v-55h-74q-8 0 -12 -3t-10 -19l-440 -1207q-17 -55 -29 -55q-12 -1 -20 17t-18 50q-11 32 -33 91t-69 186t-241 613l-326 -902
q-18 -55 -29 -55t-22 25q-432 1124 -461 1182t-42 68q-13 9 -46 9h-67v55h413v-55h-106q-41 0 -41 -10q0 -16 174 -434t236 -570l288 775l-71 176q-17 45 -35 54t-68 9z" />
    <glyph glyph-name="X" unicode="X" horiz-adv-x="1251" 
d="M1184 55h76v-55h-435v55h107q43 0 43 17t-168 260q-168 242 -209 303q-108 -121 -188 -248q-144 -229 -144 -303q0 -29 49 -29h115v-55h-393v55h45q42 1 56 11q13 10 24 28q166 313 401 590q-39 57 -167 250t-166 238t-54 57t-34 14t-85 2v55h428v-55h-131q-12 0 -12 -10
t313 -457q37 46 87 106q172 209 211 264q38 56 38 73q0 18 -7 21t-38 3h-121v55h375v-55q-72 0 -87 -2t-21 -9t-406 -507l352 -514q59 -88 91 -123t55 -35z" />
    <glyph glyph-name="Y" unicode="Y" horiz-adv-x="1099" 
d="M637 354q0 -261 29 -286q12 -12 39 -13h114v-55h-440v55h84q41 0 41 21v489q-338 565 -368 612t-46 57t-51 11h-70v55h420v-55h-94q-35 0 -35 -8q0 -13 154 -274t192 -328q289 543 289 582q0 20 -7 24t-24 4h-131v55h367v-55h-70q-28 0 -59 -61l-334 -617v-213z" />
    <glyph glyph-name="Z" unicode="Z" horiz-adv-x="1138" 
d="M78 0q-29 0 -29 10t37 66l776 1157h-110q-539 0 -594 -109q-12 -25 -25 -24q-18 0 -18 18q0 6 49 182h852q22 0 22 -7t-14 -29l-793 -1196h222q575 0 618 131q8 25 23 24q16 0 16 -14t-55 -209h-977z" />
    <glyph glyph-name="bracketleft" unicode="[" horiz-adv-x="681" 
d="M561 1444v-55h-129q-34 -1 -39 -9q-6 -8 -6 -22v-1208q0 -302 32 -334q11 -12 40 -13h102v-55h-280v1321q-1 252 -19 375h299z" />
    <glyph glyph-name="backslash" unicode="\" horiz-adv-x="569" 
d="M68 1339l548 -1378h-114l-549 1378h115z" />
    <glyph glyph-name="bracketright" unicode="]" horiz-adv-x="681" 
d="M121 -252v55h129q34 1 39 9q6 8 6 22v1208q0 302 -32 334q-11 12 -40 13h-102v55h280v-1321q1 -252 19 -375h-299z" />
    <glyph glyph-name="asciicircum" unicode="^" 
d="M231 553h-127l375 747h107l375 -747h-127l-302 604z" />
    <glyph glyph-name="underscore" unicode="_" horiz-adv-x="1024" 
d="M1024 -256h-1024v102h1024v-102z" />
    <glyph glyph-name="grave" unicode="`" horiz-adv-x="530" 
d="M358 1030l-26 -37q-203 131 -303 176q41 61 57 62q27 0 134 -82t138 -119z" />
    <glyph glyph-name="a" unicode="a" horiz-adv-x="872" 
d="M573 686q0 101 -63 130q-33 15 -86 15q-123 0 -199 -63q-1 -70 -27 -124t-71 -54q-18 0 -31 13q-12 13 -12 30q0 115 132 193t254 79q122 0 175 -48q38 -32 45 -131q2 -30 2 -87v-326q0 -105 16 -153q16 -47 46 -69q31 -22 82 -32l-66 -92q-58 1 -120 59t-70 136
q-62 -74 -158 -134t-178 -60t-129 51q-47 52 -47 122q0 116 91 199q68 62 247 139q54 25 167 70v137zM573 233v261q-284 -102 -348 -199q-31 -47 -30 -105q0 -125 116 -124q75 0 145 48t117 119z" />
    <glyph glyph-name="b" unicode="b" 
d="M174 233v932q0 160 -26 176q-9 6 -31 7h-109v49q137 8 285 47v-692q113 84 183 118t153 35q168 0 258 -134q90 -135 90 -327t-119 -334t-321 -143q-166 0 -299 109l-41 -101h-35q12 84 12 258zM852 419q0 167 -76 277t-213 111q-137 0 -270 -119v-586q102 -80 223 -79
q164 1 250 115t86 281z" />
    <glyph glyph-name="c" unicode="c" horiz-adv-x="872" 
d="M489 -33q-203 0 -311 128t-106 340q0 212 136 341t304 129q127 1 204 -65t77 -119q1 -23 -15 -37t-39 -14q-45 0 -81 54t-48 110q-69 45 -188 7q-227 -72 -232 -364q-4 -178 90 -299q94 -120 257 -120q162 0 264 100l26 -33q-135 -158 -338 -158z" />
    <glyph glyph-name="d" unicode="d" horiz-adv-x="1099" 
d="M434 -33q-168 0 -258 134t-90 327t119 335t321 142q135 1 244 -71v331q0 160 -26 176q-9 6 -31 7h-109v49q137 8 285 47v-1086q0 -225 13 -263q12 -38 26 -42t47 -4h82v-49l-287 -33v154q-114 -84 -184 -119t-152 -35zM547 850q-164 0 -250 -115t-86 -282t76 -277
t227 -110q123 -1 256 118v586q-102 80 -223 80z" />
    <glyph glyph-name="e" unicode="e" horiz-adv-x="872" 
d="M418 850q-102 0 -168 -108t-66 -234l461 123q-31 87 -90 153t-137 66zM440 -33q-180 0 -277 129t-97 314q0 277 171 418q91 77 213 77t202 -77t143 -203q-338 -106 -611 -170q8 -178 89 -288q81 -109 241 -109t272 104l29 -31q-154 -164 -375 -164z" />
    <glyph glyph-name="f" unicode="f" horiz-adv-x="569" 
d="M328 823v-465q0 -225 13 -263t27 -42t46 -4h82v-49h-402v49h76q39 0 39 21v753h-123v49h123v258q0 84 22 149q23 65 53 97q75 82 201 82q55 0 122 -28t67 -76q0 -16 -16 -28t-33 -11q-63 0 -131 84q-12 4 -35 4q-57 0 -94 -49t-37 -158v-324h166v-49h-166z" />
    <glyph glyph-name="g" unicode="g" horiz-adv-x="948" 
d="M450 -512q-106 0 -182 15t-139 71t-63 150t60 154t167 110q-125 39 -125 121q0 50 72 132q14 17 30 37t23 25q-158 83 -158 241t98 260t244 101q35 0 165 -25t194 -3q28 8 32 16q13 24 27 25q16 0 16 -16t-6 -32t-11 -34t-11 -29t-21 -14q-14 -2 -30 -2t-113 12
q74 -82 74 -215q-1 -134 -101 -226t-241 -92q-45 0 -107 15q-24 -25 -50 -65t-26 -64q0 -48 62 -64t186 -22q125 -6 155 -10t88 -20q58 -17 94 -43t65 -79t28 -125q0 -104 -84 -176q-84 -73 -194 -101q-112 -28 -218 -28zM164 -248q0 -84 55 -131q89 -76 252 -77
q164 -2 270 60q107 62 107 149t-64 141t-196 61l-172 10q-96 -8 -174 -69q-78 -60 -78 -144zM254 608q0 -106 60 -194t160 -88q101 0 151 70q49 70 49 176t-60 192t-162 86t-150 -68t-48 -174z" />
    <glyph glyph-name="h" unicode="h" horiz-adv-x="1099" 
d="M907 651v-293q0 -222 15 -270q10 -39 71 -39h82v-49h-401v49h76q39 0 38 21v534q0 209 -170 209q-147 0 -307 -135v-320q0 -123 2 -180q1 -57 13 -89t25 -36t46 -4h82v-49h-401v49h76q39 0 39 21v1095q0 159 -26 176q-9 6 -32 7h-108v49q137 8 284 47v-703q96 80 177 122
t171 42q133 0 191 -72q57 -73 57 -182z" />
    <glyph glyph-name="i" unicode="i" horiz-adv-x="530" 
d="M176 1203q0 33 23 55t53 22t54 -23q22 -23 22 -55t-23 -54t-53 -22t-54 22q-22 22 -22 55zM324 358q0 -225 13 -263t27 -42t46 -4h82v-49h-402v49h76q39 0 39 21v571q0 160 -26 176q-9 6 -32 6h-108v49l285 33v-547z" />
    <glyph glyph-name="j" unicode="j" horiz-adv-x="530" 
d="M186 1203q0 33 23 55t53 22t54 -23q22 -23 22 -55t-23 -54t-53 -22t-54 22q-22 22 -22 55zM334 -152q0 -289 -240 -349q-43 -11 -86 -11t-99 23t-56 65q-1 42 61 43q62 0 117 -74q17 -8 45 -8t59 27t53 75t25 122q2 73 2 126v754q0 160 -26 176q-9 6 -31 6h-109v49
l285 33v-1057z" />
    <glyph glyph-name="k" unicode="k" 
d="M209 70v1095q0 160 -26 176q-9 6 -31 7h-109v49q137 8 285 47v-1034q154 98 258 189q172 150 172 206q0 18 -19 18h-139v49h387v-49h-29q-47 0 -90 -37l-299 -270q219 -279 311 -373t136 -94h37v-49h-197q-16 0 -65 58t-310 388l-153 -102q0 -254 28 -282q14 -13 58 -13
h82v-49h-402v49h76q39 1 39 21z" />
    <glyph glyph-name="l" unicode="l" horiz-adv-x="530" 
d="M205 70v1095q0 160 -26 176q-9 6 -32 7h-108v49q137 8 285 47v-1086q0 -225 13 -263t27 -42t46 -4h82v-49h-402v49h76q39 1 39 21z" />
    <glyph glyph-name="m" unicode="m" horiz-adv-x="1630" 
d="M1190 905q133 -1 190 -73t58 -181v-293q0 -225 13 -263t27 -42t46 -4h82v-49h-402v49h76q39 0 39 21v534q0 213 -172 209q-108 0 -199 -80q-8 -7 -35 -29t-32 -26v-320q0 -225 13 -263q12 -38 26 -42t47 -4h82v-49h-402v49h76q39 0 39 21v534q0 213 -172 209
q-108 0 -199 -80q-8 -7 -35 -29t-32 -26v-320q0 -225 13 -263t27 -42t46 -4h82v-49h-402v49h76q39 0 39 21v571q0 160 -26 176q-9 6 -32 6h-108v49l285 33v-164q18 13 72 55t80 58q83 51 167 51t145 -46t76 -128q38 38 126 93t128 68q39 13 72 13z" />
    <glyph glyph-name="n" unicode="n" horiz-adv-x="1099" 
d="M659 905q133 0 191 -72q57 -73 57 -182v-293q0 -222 15 -270q10 -39 71 -39h82v-49h-401v49h76q39 0 38 21v534q0 209 -170 209q-147 0 -307 -135v-320q0 -123 2 -180q1 -57 13 -89t25 -36t46 -4h82v-49h-401v49h76q39 0 39 21v571q0 159 -26 176q-9 6 -32 6h-108v49
l284 33v-164q96 80 177 122t171 42z" />
    <glyph glyph-name="o" unicode="o" horiz-adv-x="1024" 
d="M215 446q0 -168 80 -292t235 -125q106 0 172 63q66 64 86 146t21 188q0 168 -80 293t-235 125q-106 0 -172 -64t-86 -146t-21 -188zM86 408q0 131 47 232q47 102 119 156q147 112 285 109q181 0 291 -125t110 -315q0 -131 -47 -233t-119 -155q-147 -110 -285 -110
q-181 -1 -291 125t-110 316z" />
    <glyph glyph-name="p" unicode="p" horiz-adv-x="1099" 
d="M666 905q168 0 258 -134q90 -135 90 -327t-119 -334t-322 -143q-135 0 -243 72v-186q0 -215 11 -259t42 -50q10 -1 33 -1h82v-49h-402v49h76q39 1 39 21v1077q0 160 -26 176q-9 6 -31 6h-109v49l285 33v-153q114 84 184 118t152 35zM889 419q0 167 -76 277t-213 111
q-137 0 -270 -119v-586q102 -80 223 -79q164 1 250 115t86 281z" />
    <glyph glyph-name="q" unicode="q" 
d="M547 850q-164 0 -250 -115t-86 -282t76 -277t227 -110q123 -1 256 118v586q-102 80 -223 80zM434 -33q-168 1 -258 135t-90 326t119 335q119 142 321 142q166 0 299 -108l41 100h35q-12 -84 -12 -258v-885q0 -159 25 -176q9 -6 32 -6h109v-49q-137 -8 -285 -47v645
q-114 -84 -184 -119t-152 -35z" />
    <glyph glyph-name="r" unicode="r" horiz-adv-x="720" 
d="M617 905q54 0 90 -45q-17 -112 -26 -124q-9 -13 -18 -13t-17 15q-26 46 -110 46q-83 0 -198 -120v-306q0 -214 9 -250t21 -46t23 -12q10 -1 33 -1h82v-49h-402v49h76q39 1 39 21v571q0 159 -25 176q-9 6 -32 6h-109v49l285 33v-176q117 104 171 140t108 36z" />
    <glyph glyph-name="s" unicode="s" horiz-adv-x="757" 
d="M388 838q-80 0 -146 -43t-66 -109t54 -103t131 -57t154 -45t131 -81t54 -146q0 -141 -118 -214t-256 -73q-136 0 -244 39q-27 168 -27 176q0 18 23 19q14 0 24 -35q10 -53 96 -92t171 -39q87 0 159 50t72 127t-53 114t-129 55t-151 41t-128 76t-53 150t93 177t229 80
t229 -43q12 -111 12 -132t-13 -21t-24 18q-71 111 -224 111z" />
    <glyph glyph-name="t" unicode="t" horiz-adv-x="606" 
d="M471 823h-192v-585q0 -142 65 -176q31 -15 86 -15t131 33l19 -41q-124 -72 -226 -72t-148 51t-46 138v667h-45q-35 0 -43 2q-22 6 12 45l166 197h29v-195h223q-6 -49 -31 -49z" />
    <glyph glyph-name="u" unicode="u" horiz-adv-x="1099" 
d="M891 313q0 -153 34 -195t111 -59l-65 -92q-72 9 -122 59t-67 119q-92 -86 -170 -132t-154 -46q-76 -1 -120 17q-45 18 -72 57t-42 74q-31 72 -31 309v217q0 159 -26 176q-9 6 -32 6h-108v49l284 33v-547q0 -194 43 -243t144 -49q152 0 274 133v442q0 160 -26 176
q-9 6 -31 6h-109v49l285 33v-592z" />
    <glyph glyph-name="v" unicode="v" horiz-adv-x="948" 
d="M6 823v49h373v-49h-100q-33 0 -33 -10t9 -35q16 -43 89 -216q73 -172 166 -400q231 487 231 629q0 33 -51 32h-94v49h348v-49h-67q-23 0 -41 -30q-88 -182 -344 -811q-10 -20 -23 -21q-12 0 -31 43q-16 55 -152 395t-180 400q-18 25 -45 24h-55z" />
    <glyph glyph-name="w" unicode="w" horiz-adv-x="1441" 
d="M1438 872v-49h-62q-16 0 -25 -8t-30 -47q-55 -117 -317 -778q-12 -29 -23 -29q-16 0 -29 37l-219 584l-244 -584q-18 -35 -28 -37q-14 0 -29 39l-270 698q-29 72 -49 99t-50 26h-55v49h373v-49h-100q-33 0 -33 -14q0 -15 88 -235t158 -396q68 134 133 285l80 186
q-47 127 -63 151t-52 23h-53v49h368v-49h-106q-33 0 -33 -12t248 -633q160 375 195 472q36 97 36 141q0 33 -43 32h-90v49h324z" />
    <glyph glyph-name="x" unicode="x" horiz-adv-x="985" 
d="M43 823v49h395v-49h-86q-39 0 -39 -15q-1 -15 99 -141q100 -127 110 -139q66 60 149 150t83 125q0 20 -37 20h-107v49h336v-49q-63 0 -76 -10q-48 -45 -319 -328q45 -59 100 -132t89 -117t81 -107q47 -62 64 -72q18 -8 96 -8v-49h-389v49h94q25 0 25 12t-242 342
q-49 -35 -148 -163t-100 -170q0 -20 35 -21h111v-49h-342v49h47q41 0 67 49q129 188 299 348q-246 329 -291 362q-20 15 -45 15h-59z" />
    <glyph glyph-name="y" unicode="y" horiz-adv-x="948" 
d="M4 823v49h373v-49h-101q-33 0 -32 -12q0 -14 270 -651q233 500 234 631q0 28 -23 31q-8 1 -27 1h-92v49h342v-49h-64q-28 0 -31 -3t-7 -9t-5 -11q-1 -4 -7 -18t-91 -223t-257 -598t-214 -442q-100 -27 -211 -27q-25 0 -24 25q0 9 39 25t47 22t31 20q24 14 38 30t39 41
q104 109 218 365l-291 678q-34 74 -52 100t-47 25h-55z" />
    <glyph glyph-name="z" unicode="z" horiz-adv-x="872" 
d="M776 872q23 0 23 -11t-39 -56l-576 -705q222 8 376 10t183 10q29 7 39 24t23 18q16 0 16 -18t-59 -144h-682q-47 0 -47 20q-1 10 69 91t94 109t79 92q56 65 83 96q207 237 277 362h-309q-154 0 -191 -47q-16 -21 -30 -21t-15 19q0 4 49 151h637z" />
    <glyph glyph-name="braceleft" unicode="{" horiz-adv-x="681" 
d="M297 850v283q0 184 68 247t202 64v-25q-92 -25 -128 -89t-36 -185v-262q-1 -129 -33 -194t-132 -91v-4q100 -28 133 -92t32 -193v-262q0 -121 36 -185t128 -89v-25q-135 0 -203 64t-67 247v283q0 113 -32 169t-124 85q92 29 124 85t32 169z" />
    <glyph glyph-name="bar" unicode="|" horiz-adv-x="454" 
d="M174 -205v1649h107v-1649h-107z" />
    <glyph glyph-name="braceright" unicode="}" horiz-adv-x="681" 
d="M385 342v-283q0 -184 -68 -247t-202 -64v25q92 25 128 89t36 185v262q0 129 32 194q33 65 133 91v4q-100 28 -133 92t-32 193v262q0 121 -36 185t-128 89v25q135 0 203 -64t67 -247v-283q0 -113 32 -169t124 -85q-92 -29 -124 -85t-32 -169z" />
    <glyph glyph-name="asciitilde" unicode="~" 
d="M315 563q74 1 234 -69t201 -70q40 0 76 25t56 50q19 26 50 72l74 -86q-41 -55 -68 -86t-78 -61q-52 -30 -118 -29q-66 0 -203 70q-137 69 -237 69t-169 -147l-74 86q92 176 256 176z" />
    <glyph glyph-name="uni00A0" unicode="&#xa0;" horiz-adv-x="530" 
 />
    <glyph glyph-name="exclamdown" unicode="&#xa1;" horiz-adv-x="569" 
d="M309 -422q-57 0 -72 20t-15 99q0 78 34 856h53l70 -975h-70zM276 905q37 -1 61 -23q23 -22 23 -59t-24 -59t-60 -23q-36 0 -60 23q-24 24 -24 60t24 58q23 22 60 23z" />
    <glyph glyph-name="cent" unicode="&#xa2;" 
d="M279 680q0 -136 61 -244t182 -145v770q-123 -37 -183 -141t-60 -240zM578 1067v-786q23 -4 59 -5q154 0 252 97l26 -33q-61 -70 -151 -112t-186 -42v-225h-56v225q-174 16 -268 142t-94 303q0 178 97 310t265 169v229h56v-223q211 0 287 -136q30 -55 0 -83
q-15 -14 -36 -14q-45 0 -81 54t-50 110q-32 20 -120 20z" />
    <glyph glyph-name="sterling" unicode="&#xa3;" 
d="M254 745v129q0 203 106 334t252 131q57 0 117 -32q59 -33 59 -81t-46 -48t-80 30t-52 72q-18 6 -37 6q-100 0 -149 -119t-43 -280l6 -142h188v-55h-186q6 -117 6 -127q0 -133 -37 -234t-135 -192l4 -4q93 41 181 41t236 -49t188 -49q42 0 80 30t38 70q0 41 -16 53
q-16 11 -32 15t-15 12q0 8 31 15t44 7q30 1 49 -36q19 -38 19 -72q0 -88 -76 -148t-141 -60t-261 72q-196 74 -253 75q-123 0 -262 -115l-27 43q173 90 217 246q37 122 33 278l-4 129h-166v55h164z" />
    <glyph glyph-name="currency" unicode="&#xa4;" 
d="M188 649q0 -145 100 -247t244 -101q143 0 244 101q100 100 100 246t-100 248t-244 101q-144 1 -244 -101t-100 -247zM76 650q0 170 100 278l-100 102l71 72l105 -98q112 98 280 98t281 -98l105 98l71 -72l-100 -102q100 -109 100 -279t-100 -278l100 -103l-71 -71
l-105 98q-113 -98 -281 -98t-280 98l-105 -98l-71 71l100 103q-100 109 -100 279z" />
    <glyph glyph-name="yen" unicode="&#xa5;" 
d="M973 446v-55h-346q0 -294 27 -323q11 -12 40 -13h115v-55h-426v55h84q41 0 41 21v315h-344v55h344v164h-344v56h309q-276 458 -308 508t-47 60t-52 11h-72v55h405v-55h-94q-35 0 -35 -8q0 -14 326 -561q268 500 268 541q0 20 -7 24t-23 4h-132v55h367v-55h-70
q-28 0 -59 -61l-281 -518h314v-56h-346v-164h346z" />
    <glyph glyph-name="brokenbar" unicode="&#xa6;" horiz-adv-x="454" 
d="M174 784v660h107v-660h-107zM174 -205v660h107v-660h-107z" />
    <glyph glyph-name="section" unicode="&#xa7;" horiz-adv-x="1024" 
d="M725 1122q0 78 -65 120q-66 42 -146 42t-142 -39t-63 -115q0 -123 281 -219q201 -66 253 -165q24 -46 23 -107q0 -96 -89 -167t-197 -97v-4q272 -82 272 -240q0 -125 -110 -202t-246 -77t-215 70q-78 70 -78 140t51 104h51q-25 -35 -24 -82q1 -82 71 -129t156 -47t159 49
t73 131t-50 122q-49 40 -170 76q-213 64 -287 130q-75 66 -73 155q0 203 291 285v4q-254 96 -254 244q0 113 101 174t231 61t210 -61q80 -62 80 -122t-53 -105h-59q18 29 18 71zM272 608q0 -143 193 -200q109 -6 199 51t90 162q-1 143 -187 198q-125 0 -210 -55t-85 -156z
" />
    <glyph glyph-name="dieresis" unicode="&#xa8;" horiz-adv-x="530" 
d="M377 1038q-29 0 -48 20t-20 48q-1 29 19 49q20 21 49 21t48 -20t19 -50q0 -28 -19 -48t-48 -20zM156 1038q-29 0 -48 20t-20 48q0 29 20 49q20 21 48 21q29 0 48 -20t19 -50q0 -28 -19 -48t-48 -20z" />
    <glyph glyph-name="copyright" unicode="&#xa9;" horiz-adv-x="1638" 
d="M1415 649q0 252 -173 428t-421 176t-423 -177t-175 -427t175 -426t423 -176t421 175t173 427zM1518 649q0 -287 -204 -487t-495 -201q-291 0 -495 201q-204 202 -203 488q0 286 204 488q205 202 495 202t494 -202t204 -489zM440 648q0 185 131 299t283 114t270 -45
q-6 -76 -10 -93t-14 -18q-12 0 -19 27q-8 28 -58 54t-132 26q-145 0 -226 -109t-81 -245t80 -238t217 -103q67 0 143 36t86 91q4 20 18 21q14 0 14 -8q0 -7 -1 -25q-2 -18 -4 -47t-4 -57q-125 -60 -296 -60t-284 98t-113 282z" />
    <glyph glyph-name="ordfeminine" unicode="&#xaa;" horiz-adv-x="665" 
d="M410 1192q0 64 -40 83q-22 9 -55 9q-86 0 -135 -41q0 -39 -19 -71t-53 -32t-32 27q0 72 93 122t171 50t110 -11q53 -17 63 -89q3 -23 3 -68v-198q0 -51 3 -75t26 -50t69 -35l-61 -65q-47 0 -90 38t-49 88q-38 -45 -102 -86q-128 -82 -214 -3q-39 39 -39 85t23 78t81 65
q58 34 146 70q89 35 101 39v70zM410 932v147q-111 -39 -172 -78q-62 -39 -62 -103t64 -64q53 0 99 28t71 70z" />
    <glyph glyph-name="guillemotleft" unicode="&#xab;" horiz-adv-x="985" 
d="M442 834l56 -29q-70 -217 -201 -369q131 -152 201 -368l-56 -29q-86 242 -313 397q227 156 313 398zM745 834l56 -29q-70 -217 -201 -369q131 -152 201 -368l-56 -29q-86 242 -313 397q227 156 313 398z" />
    <glyph glyph-name="logicalnot" unicode="&#xac;" 
d="M94 537v106h875v-502h-107v396h-768z" />
    <glyph glyph-name="uni00AD" unicode="&#xad;" horiz-adv-x="681" 
d="M479 489q65 1 97 9t34 8q4 -4 4 -10t-61 -113h-408q-33 0 -50 -7t-21 -7t-4 7t67 113h342z" />
    <glyph glyph-name="registered" unicode="&#xae;" horiz-adv-x="1638" 
d="M535 295v45h53q20 0 20 18v490q0 114 -8 138t-39 24h-53v45h317q123 -1 188 -61t65 -141t-45 -129q-44 -48 -118 -65q160 -260 228 -319h39v-45h-168q-25 0 -100 127t-117 213h-70v-135q0 -115 6 -138t37 -22h55v-45h-290zM782 680q70 0 121 38t51 104t-43 126t-133 62
q-51 0 -51 -21v-309h55zM1415 649q0 252 -173 428t-421 176t-423 -177t-175 -427t175 -426t423 -176t421 175t173 427zM1518 649q0 -287 -204 -487t-495 -201q-291 0 -495 201q-204 202 -203 488q0 286 204 488q205 202 495 202t494 -202t204 -489z" />
    <glyph glyph-name="macron" unicode="&#xaf;" horiz-adv-x="530" 
d="M496 1153v-82h-461v82h461z" />
    <glyph glyph-name="degree" unicode="&#xb0;" horiz-adv-x="716" 
d="M358 754q-124 0 -208 85t-84 208t85 207t207 85q122 0 208 -85q85 -86 85 -208t-85 -207t-208 -85zM358 819q90 0 154 68q63 68 63 160q0 91 -63 159q-64 68 -154 68t-153 -68t-63 -160t62 -159q64 -68 154 -68z" />
    <glyph glyph-name="plusminus" unicode="&#xb1;" 
d="M94 0v106h875v-106h-875zM969 584v-107h-383v-289h-107v289h-385v107h385v288h107v-288h383z" />
    <glyph glyph-name="twosuperior" unicode="&#xb2;" horiz-adv-x="634" 
d="M280 1339q128 0 202 -57t73 -160q0 -184 -256 -393l-131 -106l4 -5q24 6 174 6t182 6q32 5 46 21q12 16 20 17q8 0 8 -12t-43 -119h-500q-23 0 -23 7q0 8 156 164q154 156 195 231t41 156t-45 129t-139 48t-176 -60l-17 41q101 86 229 86z" />
    <glyph glyph-name="threesuperior" unicode="&#xb3;" horiz-adv-x="634" 
d="M313 1339q94 0 161 -41t67 -111q1 -69 -51 -119t-109 -73v-4q102 -8 167 -60t64 -138q0 -125 -108 -201t-246 -76q-137 0 -223 51l14 39q78 -35 183 -35q106 1 180 63t74 154t-56 128q-55 38 -113 38h-73v47q76 0 129 42q53 43 53 105t-39 93t-100 31q-131 0 -207 -68
l-23 29q106 106 256 106z" />
    <glyph glyph-name="acute" unicode="&#xb4;" horiz-adv-x="530" 
d="M414 1231q16 0 57 -62q-100 -45 -303 -176l-27 37q31 37 139 119t134 82z" />
    <glyph glyph-name="mu" unicode="&#xb5;" horiz-adv-x="1099" 
d="M901 313q0 -153 35 -196q35 -44 111 -58l-66 -92q-72 9 -122 59t-66 119q-94 -86 -171 -133q-159 -97 -323 13v-160q0 -29 42 -117t42 -116t-19 -53q-19 -26 -59 -25q-61 0 -82 57q-20 57 -20 205v825q0 160 -26 176q-9 6 -32 6h-108v49l285 33v-547q0 -195 43 -243
q43 -49 143 -49q152 0 274 133v442q0 159 -25 176q-9 6 -32 6h-109v49l285 33v-592z" />
    <glyph glyph-name="paragraph" unicode="&#xb6;" horiz-adv-x="1024" 
d="M522 1245h-157q-131 0 -205 -79t-74 -204q0 -124 68 -192t167 -68t201 66v477zM324 641q-154 0 -252 89q-98 88 -99 230t95 241t272 99h573v-55h-82q-47 0 -47 -20v-1018q0 -258 29 -287q12 -12 39 -12h115v-55h-275v1392h-78v-1392h-217v55h84q41 0 41 20v772
q-98 -59 -198 -59z" />
    <glyph glyph-name="periodcentered" unicode="&#xb7;" horiz-adv-x="530" 
d="M182 436q0 37 24 60q24 22 60 22t61 -22q23 -22 23 -60t-24 -60t-60 -22t-60 22t-24 60z" />
    <glyph glyph-name="cedilla" unicode="&#xb8;" horiz-adv-x="530" 
d="M358 -336q-54 0 -100 16q-45 16 -45 52q0 26 38 26t73 -55q16 -6 42 -6t58 18q31 18 31 52q-1 47 -109 65t-108 49q-1 31 75 119h56q-56 -74 -58 -84q0 -18 80 -31q143 -25 143 -90t-60 -98q-62 -33 -116 -33z" />
    <glyph glyph-name="onesuperior" unicode="&#xb9;" horiz-adv-x="634" 
d="M362 694q0 -100 21 -108q8 -4 29 -4h116v-45h-430v45h115q41 0 41 12v379q0 283 -25 297q-6 4 -24 4h-107v45q78 0 172 10l92 10v-645z" />
    <glyph glyph-name="ordmasculine" unicode="&#xba;" horiz-adv-x="716" 
d="M370 797q99 1 141 71t42 169t-53 176q-52 77 -152 77t-141 -70t-41 -170q0 -99 52 -177q53 -76 152 -76zM342 748q-135 0 -212 78t-77 198q1 158 103 237t228 79t204 -78t78 -194t-56 -190q-98 -130 -268 -130z" />
    <glyph glyph-name="guillemotright" unicode="&#xbb;" horiz-adv-x="985" 
d="M543 39l-56 29q70 217 201 368q-131 152 -201 369l56 29q86 -242 313 -398q-227 -155 -313 -397zM240 39l-56 29q70 217 201 368q-131 152 -201 369l56 29q86 -242 313 -398q-227 -155 -313 -397z" />
    <glyph glyph-name="onequarter" unicode="&#xbc;" horiz-adv-x="1587" 
d="M379 694q0 -100 20 -108q8 -4 29 -4h117v-45h-430v45h114q41 0 41 12v379q0 281 -24 297q-6 4 -25 4h-106v45q78 0 172 10l92 10v-645zM1153 1391h78q-164 -183 -393 -661t-295 -781l-109 -41q40 240 308 782t411 701zM1219 358v304q-164 -172 -275 -304h275zM1219 279
h-381v26q66 85 200 233t242 250h41v-430h41q67 0 95 22q9 7 15 7t6 -9t-42 -99h-115v-295q-90 -33 -94 -33q-14 0 -15 14l7 189v125z" />
    <glyph glyph-name="onehalf" unicode="&#xbd;" horiz-adv-x="1587" 
d="M1180 809q128 0 202 -57t74 -160q0 -184 -256 -393l-131 -107l4 -4q25 6 175 6t182 5q33 5 45 21t20 17q8 0 8 -12t-43 -119h-499q-23 0 -23 7t154 164t196 232q41 75 41 155t-45 129q-45 48 -139 48t-176 -59l-17 41q100 86 228 86zM377 694q0 -100 20 -108q8 -4 29 -4
h117v-45h-430v45h114q41 0 41 12v379q0 281 -24 297q-6 4 -25 4h-106v45q78 0 170 10l94 10v-645zM1153 1391h78q-164 -183 -393 -661t-295 -781l-109 -41q40 240 308 782t411 701z" />
    <glyph glyph-name="threequarters" unicode="&#xbe;" horiz-adv-x="1587" 
d="M1184 1391h78q-164 -183 -394 -661t-295 -781l-108 -41q39 240 307 782t412 701zM334 1339q94 0 161 -41t67 -111q0 -69 -52 -119q-51 -50 -109 -73v-4q102 -8 167 -60t65 -138q0 -125 -109 -201t-246 -76t-223 51l15 39q78 -35 183 -35q105 1 179 63t74 154t-55 128
q-55 38 -113 38h-74v47q76 0 129 42q53 43 53 105t-38 93q-39 31 -101 31q-131 0 -207 -68l-22 29q106 106 256 106zM1249 358v304q-164 -172 -274 -304h274zM1249 270h-381v27q66 86 201 233t242 250h41v-430h41q70 0 95 22q9 7 15 7t6 -9t-43 -100h-114v-295
q-90 -33 -95 -32q-14 0 -14 14l6 188v125z" />
    <glyph glyph-name="questiondown" unicode="&#xbf;" horiz-adv-x="757" 
d="M414 905q36 -1 60 -23t24 -59t-24 -59t-60 -23q-36 0 -61 23q-23 24 -23 60t23 59q24 22 61 22zM668 -287q16 0 16 -16l-55 -125q-78 -33 -158 -33q-152 0 -258 86t-107 236q0 100 62 188t176 184q70 62 70 82q0 37 -68 121q-10 12 -30 16t-21 15q0 10 108 90
q78 -84 125 -227q-178 -146 -237 -238t-59 -202t77 -176q78 -64 193 -64t134 32q7 11 14 21t18 10z" />
    <glyph glyph-name="Agrave" unicode="&#xc0;" horiz-adv-x="1251" 
d="M719 1458l-27 -37q-203 131 -303 176q41 61 57 62q26 0 134 -82t139 -119zM793 565l-189 578q-147 -338 -239 -578h428zM215 106q0 -51 51 -51h133v-55h-415v55q74 0 90 5t28 36l519 1229q72 23 95 23t23 -12t-17 -27q-17 -14 -17 -39q0 -57 172 -558t222 -593
q30 -62 70 -64h76v-55h-422v55h103q26 0 32 4t6 22t-145 417h-481q-123 -305 -123 -392z" />
    <glyph glyph-name="Aacute" unicode="&#xc1;" horiz-adv-x="1251" 
d="M830 1659q22 0 63 -62q-100 -45 -303 -176l-27 37q31 37 139 119q106 82 128 82zM793 565l-189 578q-147 -338 -239 -578h428zM215 106q0 -51 51 -51h133v-55h-415v55q74 0 90 5t28 36l519 1229q72 23 95 23t23 -12t-17 -27q-17 -14 -17 -39q0 -57 172 -558t222 -593
q30 -62 70 -64h76v-55h-422v55h103q26 0 32 4t6 22t-145 417h-481q-123 -305 -123 -392z" />
    <glyph glyph-name="Acircumflex" unicode="&#xc2;" horiz-adv-x="1251" 
d="M866 1421q-34 0 -112 43t-107 74q-29 -31 -107 -74t-112 -43q-4 0 -57 39q195 80 276 199q82 -119 275 -199q-51 -39 -56 -39zM793 565l-189 578q-147 -338 -239 -578h428zM215 106q0 -51 51 -51h133v-55h-415v55q74 0 90 5t28 36l519 1229q72 23 95 23t23 -12t-17 -27
q-17 -14 -17 -39q0 -57 172 -558t222 -593q30 -62 70 -64h76v-55h-422v55h103q26 0 32 4t6 22t-145 417h-481q-123 -305 -123 -392z" />
    <glyph glyph-name="Atilde" unicode="&#xc3;" horiz-adv-x="1251" 
d="M756 1462q-51 0 -137 34t-103 34q-47 0 -78 -57l-35 10q8 55 42 89t85 34t128 -31t110 -31q55 0 86 68l35 -13q-18 -137 -133 -137zM793 565l-189 578q-147 -338 -239 -578h428zM215 106q0 -51 51 -51h133v-55h-415v55q74 0 90 5t28 36l519 1229q72 23 95 23t23 -12
t-17 -27q-17 -14 -17 -39q0 -57 172 -558t222 -593q30 -62 70 -64h76v-55h-422v55h103q26 0 32 4t6 22t-145 417h-481q-123 -305 -123 -392z" />
    <glyph glyph-name="Adieresis" unicode="&#xc4;" horiz-adv-x="1251" 
d="M778 1466q-29 0 -48 20t-19 48q0 29 19 49q19 21 48 21t48 -20q20 -20 20 -50q0 -28 -20 -48t-48 -20zM557 1466q-29 0 -48 20t-20 48q-1 29 19 49q20 21 49 21t48 -20t19 -50q0 -28 -18 -48q-20 -20 -49 -20zM793 565l-189 578q-147 -338 -239 -578h428zM215 106
q0 -51 51 -51h133v-55h-415v55q74 0 90 5t28 36l519 1229q72 23 95 23t23 -12t-17 -27q-17 -14 -17 -39q0 -57 172 -558t222 -593q30 -62 70 -64h76v-55h-422v55h103q26 0 32 4t6 22t-145 417h-481q-123 -305 -123 -392z" />
    <glyph glyph-name="Aring" unicode="&#xc5;" horiz-adv-x="1251" 
d="M762 1542q0 51 -37 88t-88 37t-88 -37t-37 -88t37 -88t88 -37t88 37t37 88zM817 1542q0 -76 -52 -128t-128 -52t-128 52t-52 128t52 128t128 52t128 -52t52 -128zM793 565l-189 578q-147 -338 -239 -578h428zM215 106q0 -51 51 -51h133v-55h-415v55q74 0 90 5t28 36
l519 1229q72 23 95 23t23 -12t-17 -27q-17 -14 -17 -39q0 -57 172 -558t222 -593q30 -62 70 -64h76v-55h-422v55h103q26 0 32 4t6 22t-145 417h-481q-123 -305 -123 -392z" />
    <glyph glyph-name="AE" unicode="&#xc6;" horiz-adv-x="1781" 
d="M881 76v594h-402q-203 -362 -252 -458t-49 -127q0 -30 55 -30h127v-55h-421v55h96q18 0 26 21q94 184 701 1169h-156v55h1059l-20 -141q-7 -35 -21 -35t-18 25q-4 37 -62 55q-92 29 -303 29h-151q-76 0 -76 -21v-467h194q257 0 291 29q14 12 14 39v82h52v-340h-52v76
q0 20 -3 28q-3 9 -31 17q-28 9 -205 8h-260v-330q0 -245 29 -274q13 -12 55 -12h131q406 0 446 100q9 20 23 20t14 -11t-51 -177h-905v55h84q41 1 41 21zM881 731v291q0 223 -31 223h-8q-80 -123 -324 -514h363z" />
    <glyph glyph-name="Ccedilla" unicode="&#xc7;" horiz-adv-x="1327" 
d="M731 -84q0 -18 80 -31q143 -25 143 -94q0 -61 -61 -94t-115 -33t-100 16q-45 16 -45 52q0 26 38 26t72 -55q14 -6 42 -6t59 18t30 52q0 47 -108 65t-108 46t47 85q-274 23 -437 189q-162 166 -162 448q0 324 230 532t557 207q168 0 336 -65l-10 -121q-2 -43 -25 -43
q-14 0 -18 43q-6 37 -98 78t-212 41q-284 0 -452 -181t-168 -457t166 -440q166 -165 409 -165q133 0 259 55t139 141q4 35 22 35t19 -24q0 -51 -11 -170q-221 -109 -467 -105h-22q-29 -41 -29 -45z" />
    <glyph glyph-name="Egrave" unicode="&#xc8;" horiz-adv-x="1138" 
d="M684 1458l-27 -37q-203 131 -303 176q41 61 63 61t129 -81q107 -82 138 -119zM59 1245v55h963l-21 -141q-6 -35 -20 -35t-18 25q-4 37 -62 55q-92 29 -303 29h-152q-76 0 -75 -21v-467h194q257 0 291 29q14 12 14 39v82h52v-340h-52v76q0 20 -3 28q-3 9 -31 17t-205 8
h-260v-330q0 -245 29 -274q13 -12 55 -12h131q406 0 446 100q8 20 22 20t15 -11q0 -11 -51 -177h-905v55h84q41 0 41 21v895q0 178 -11 226q-10 48 -47 48h-121z" />
    <glyph glyph-name="Eacute" unicode="&#xc9;" horiz-adv-x="1138" 
d="M801 1659q16 0 57 -62q-100 -45 -303 -176l-27 37q31 37 139 119t134 82zM59 1245v55h963l-21 -141q-6 -35 -20 -35t-18 25q-4 37 -62 55q-92 29 -303 29h-152q-76 0 -75 -21v-467h194q257 0 291 29q14 12 14 39v82h52v-340h-52v76q0 20 -3 28q-3 9 -31 17t-205 8h-260
v-330q0 -245 29 -274q13 -12 55 -12h131q406 0 446 100q8 20 22 20t15 -11q0 -11 -51 -177h-905v55h84q41 0 41 21v895q0 178 -11 226q-10 48 -47 48h-121z" />
    <glyph glyph-name="Ecircumflex" unicode="&#xca;" horiz-adv-x="1138" 
d="M831 1421q-35 0 -113 43t-106 74q-28 -31 -106 -74t-113 -43q-4 0 -57 39q195 80 276 199q82 -119 275 -199q-51 -39 -56 -39zM59 1245v55h963l-21 -141q-6 -35 -20 -35t-18 25q-4 37 -62 55q-92 29 -303 29h-152q-76 0 -75 -21v-467h194q257 0 291 29q14 12 14 39v82h52
v-340h-52v76q0 20 -3 28q-3 9 -31 17t-205 8h-260v-330q0 -245 29 -274q13 -12 55 -12h131q406 0 446 100q8 20 22 20t15 -11q0 -11 -51 -177h-905v55h84q41 0 41 21v895q0 178 -11 226q-10 48 -47 48h-121z" />
    <glyph glyph-name="Edieresis" unicode="&#xcb;" horiz-adv-x="1138" 
d="M702 1466q-29 0 -48 20t-19 48q0 29 19 49q19 21 48 21q28 0 48 -20t20 -50q0 -28 -20 -48t-48 -20zM481 1466q-29 0 -48 20t-19 48q0 29 19 49q19 21 48 21t48 -20t19 -50q0 -28 -18 -48q-20 -20 -49 -20zM59 1245v55h963l-21 -141q-6 -35 -20 -35t-18 25q-4 37 -62 55
q-92 29 -303 29h-152q-76 0 -75 -21v-467h194q257 0 291 29q14 12 14 39v82h52v-340h-52v76q0 20 -3 28q-3 9 -31 17t-205 8h-260v-330q0 -245 29 -274q13 -12 55 -12h131q406 0 446 100q8 20 22 20t15 -11q0 -11 -51 -177h-905v55h84q41 0 41 21v895q0 178 -11 226
q-10 48 -47 48h-121z" />
    <glyph glyph-name="Igrave" unicode="&#xcc;" horiz-adv-x="645" 
d="M354 1458l-26 -37q-203 131 -303 176q41 61 57 62q27 0 134 -82t138 -119zM389 1225v-871q0 -261 29 -286q12 -12 39 -13h114v-55h-440v55h84q41 0 41 21v895q0 178 -10 226t-47 48h-121v55h440v-55h-82q-47 0 -47 -20z" />
    <glyph glyph-name="Iacute" unicode="&#xcd;" horiz-adv-x="645" 
d="M512 1659q16 0 57 -62q-100 -45 -303 -176l-26 37q30 37 138 119t134 82zM389 1225v-871q0 -261 29 -286q12 -12 39 -13h114v-55h-440v55h84q41 0 41 21v895q0 178 -10 226t-47 48h-121v55h440v-55h-82q-47 0 -47 -20z" />
    <glyph glyph-name="Icircumflex" unicode="&#xce;" horiz-adv-x="645" 
d="M522 1421q-34 0 -112 43t-107 74q-29 -31 -107 -74t-112 -43q-4 0 -57 39q195 80 276 199q82 -119 275 -199q-51 -39 -56 -39zM389 1225v-871q0 -261 29 -286q12 -12 39 -13h114v-55h-440v55h84q41 0 41 21v895q0 178 -10 226t-47 48h-121v55h440v-55h-82q-47 0 -47 -20z
" />
    <glyph glyph-name="Idieresis" unicode="&#xcf;" horiz-adv-x="645" 
d="M414 1466q-29 0 -48 20t-20 48q0 29 20 49q20 21 48 21q29 0 48 -20t19 -50q0 -28 -19 -48t-48 -20zM193 1466q-29 0 -49 20t-19 48q0 29 19 49q18 21 48 21t49 -20t19 -50q0 -28 -19 -48t-48 -20zM389 1225v-871q0 -261 29 -286q12 -12 39 -13h114v-55h-440v55h84
q41 0 41 21v895q0 178 -10 226t-47 48h-121v55h440v-55h-82q-47 0 -47 -20z" />
    <glyph glyph-name="Eth" unicode="&#xd0;" horiz-adv-x="1402" 
d="M35 678v67h203v226q0 178 -11 226q-10 48 -47 48h-121v55h619q299 0 465 -183t166 -429t-141 -449q-73 -105 -211 -172t-322 -67h-522v55h84q41 0 41 21v602h-203zM371 1212v-467h331v-67h-331v-324q0 -245 29 -274q13 -12 55 -12h168q547 0 546 557q0 147 -46 263
t-110 178q-65 62 -170 114t-204 53h-193q-75 -1 -75 -21z" />
    <glyph glyph-name="Ntilde" unicode="&#xd1;" horiz-adv-x="1478" 
d="M870 1462q-51 0 -137 34t-102 34q-47 0 -78 -57l-35 10q8 55 42 89t85 34t128 -31t110 -31q55 0 86 68l35 -13q-18 -137 -134 -137zM1182 231v715q0 260 -29 287q-12 12 -39 12h-115v55h375v-55h-84q-41 0 -41 -20v-1211q0 -31 -14 -30q-6 0 -14 8l-908 1130h-4v-768
q0 -261 29 -286q12 -12 39 -13h115v-55h-375v55h84q41 0 41 21v1018q0 152 -90 151h-93v55h260l859 -1069h4z" />
    <glyph glyph-name="Ograve" unicode="&#xd2;" horiz-adv-x="1517" 
d="M852 1458l-27 -37q-203 131 -303 176q41 61 63 61t129 -81q107 -82 138 -119zM1280 631q0 323 -159 485t-382 162q-144 0 -263 -79q-69 -43 -120 -109t-84 -175t-32 -245q0 -322 158 -485t382 -162q142 0 263 78q146 93 204 284q33 109 33 246zM740 -39q-302 1 -468 185
t-166 481t186 505t488 208q301 0 467 -185q166 -184 166 -481t-186 -505q-185 -208 -487 -208z" />
    <glyph glyph-name="Oacute" unicode="&#xd3;" horiz-adv-x="1517" 
d="M969 1659q16 0 57 -62q-100 -45 -303 -176l-27 37q31 37 139 119t134 82zM1280 631q0 323 -159 485t-382 162q-144 0 -263 -79q-69 -43 -120 -109t-84 -175t-32 -245q0 -322 158 -485t382 -162q142 0 263 78q146 93 204 284q33 109 33 246zM740 -39q-302 1 -468 185
t-166 481t186 505t488 208q301 0 467 -185q166 -184 166 -481t-186 -505q-185 -208 -487 -208z" />
    <glyph glyph-name="Ocircumflex" unicode="&#xd4;" horiz-adv-x="1517" 
d="M979 1421q-35 0 -113 43t-106 74q-29 -31 -107 -74t-112 -43q-5 0 -58 39q195 80 277 199q82 -119 274 -199q-51 -39 -55 -39zM1280 631q0 323 -159 485t-382 162q-144 0 -263 -79q-69 -43 -120 -109t-84 -175t-32 -245q0 -322 158 -485t382 -162q142 0 263 78
q146 93 204 284q33 109 33 246zM740 -39q-302 1 -468 185t-166 481t186 505t488 208q301 0 467 -185q166 -184 166 -481t-186 -505q-185 -208 -487 -208z" />
    <glyph glyph-name="Otilde" unicode="&#xd5;" horiz-adv-x="1517" 
d="M868 1462q-49 0 -136 34t-103 34q-47 0 -78 -57l-35 10q8 55 42 89t85 34t128 -31t110 -31q55 0 86 68l34 -13q-18 -137 -133 -137zM1280 631q0 323 -159 485t-382 162q-144 0 -263 -79q-69 -43 -120 -109t-84 -175t-32 -245q0 -322 158 -485t382 -162q142 0 263 78
q146 93 204 284q33 109 33 246zM740 -39q-302 1 -468 185t-166 481t186 505t488 208q301 0 467 -185q166 -184 166 -481t-186 -505q-185 -208 -487 -208z" />
    <glyph glyph-name="Odieresis" unicode="&#xd6;" horiz-adv-x="1517" 
d="M870 1466q-29 0 -48 20t-19 48q0 29 19 49q19 21 48 21q28 0 48 -20t20 -50q0 -28 -20 -48t-48 -20zM649 1466q-29 0 -48 20t-19 48q0 29 19 49q19 21 48 21t48 -20t19 -50q0 -28 -18 -48q-20 -20 -49 -20zM1280 631q0 323 -159 485t-382 162q-144 0 -263 -79
q-69 -43 -120 -109t-84 -175t-32 -245q0 -322 158 -485t382 -162q142 0 263 78q146 93 204 284q33 109 33 246zM740 -39q-302 1 -468 185t-166 481t186 505t488 208q301 0 467 -185q166 -184 166 -481t-186 -505q-185 -208 -487 -208z" />
    <glyph glyph-name="multiply" unicode="&#xd7;" 
d="M457 436l-361 361l76 75l360 -360l361 360l76 -75l-361 -361l361 -360l-76 -76l-361 360l-364 -362l-74 76z" />
    <glyph glyph-name="Oslash" unicode="&#xd8;" horiz-adv-x="1517" 
d="M106 631q0 293 186 501t484 207q164 0 295 -59l88 164h68l-103 -191q141 -81 215 -233t74 -350q0 -293 -186 -501t-484 -208q-165 0 -292 57l-89 -161h-63l102 188q-143 80 -219 233t-76 353zM1280 631q0 358 -207 530l-575 -1059q121 -80 273 -80t272 79q146 93 204 284
q33 109 33 246zM749 1278q-154 0 -273 -79q-69 -43 -120 -109t-84 -175t-32 -245q0 -367 211 -533l573 1057q-121 84 -275 84z" />
    <glyph glyph-name="Ugrave" unicode="&#xd9;" horiz-adv-x="1402" 
d="M774 1458l-26 -37q-203 131 -304 176q41 61 63 61t129 -81q107 -82 138 -119zM954 1245v55h375v-55h-84q-41 0 -41 -20v-746q0 -113 -32 -204t-82 -148q-147 -166 -418 -166q-138 0 -226 42t-137 89t-81 129t-31 189v561q0 178 -11 226q-10 48 -47 48h-121v55h441v-55
h-82q-47 0 -47 -20v-785q0 -100 28 -177t67 -118q40 -41 95 -67q122 -57 285 -32q47 7 110 35t110 73q46 45 79 133t33 205v454q0 258 -29 287q-12 12 -39 12h-115z" />
    <glyph glyph-name="Uacute" unicode="&#xda;" horiz-adv-x="1402" 
d="M932 1659q16 0 57 -62q-100 -45 -303 -176l-27 37q31 37 139 119t134 82zM954 1245v55h375v-55h-84q-41 0 -41 -20v-746q0 -113 -32 -204t-82 -148q-147 -166 -418 -166q-138 0 -226 42t-137 89t-81 129t-31 189v561q0 178 -11 226q-10 48 -47 48h-121v55h441v-55h-82
q-47 0 -47 -20v-785q0 -100 28 -177t67 -118q40 -41 95 -67q122 -57 285 -32q47 7 110 35t110 73q46 45 79 133t33 205v454q0 258 -29 287q-12 12 -39 12h-115z" />
    <glyph glyph-name="Ucircumflex" unicode="&#xdb;" horiz-adv-x="1402" 
d="M922 1421q-35 0 -113 43t-107 74q-28 -31 -106 -74t-113 -43q-4 0 -57 39q195 80 276 199q82 -119 275 -199q-51 -39 -55 -39zM954 1245v55h375v-55h-84q-41 0 -41 -20v-746q0 -113 -32 -204t-82 -148q-147 -166 -418 -166q-138 0 -226 42t-137 89t-81 129t-31 189v561
q0 178 -11 226q-10 48 -47 48h-121v55h441v-55h-82q-47 0 -47 -20v-785q0 -100 28 -177t67 -118q40 -41 95 -67q122 -57 285 -32q47 7 110 35t110 73q46 45 79 133t33 205v454q0 258 -29 287q-12 12 -39 12h-115z" />
    <glyph glyph-name="Udieresis" unicode="&#xdc;" horiz-adv-x="1402" 
d="M834 1466q-28 0 -48 20t-20 48q0 29 19 49q19 21 49 21t48 -20q19 -20 19 -50q0 -28 -19 -48t-48 -20zM612 1466q-29 0 -48 20t-19 48q0 29 19 49q19 21 48 21t48 -20q20 -20 20 -50q0 -28 -20 -48t-48 -20zM954 1245v55h375v-55h-84q-41 0 -41 -20v-746q0 -113 -32 -204
t-82 -148q-147 -166 -418 -166q-138 0 -226 42t-137 89t-81 129t-31 189v561q0 178 -11 226q-10 48 -47 48h-121v55h441v-55h-82q-47 0 -47 -20v-785q0 -100 28 -177t67 -118q40 -41 95 -67q122 -57 285 -32q47 7 110 35t110 73q46 45 79 133t33 205v454q0 258 -29 287
q-12 12 -39 12h-115z" />
    <glyph glyph-name="Yacute" unicode="&#xdd;" horiz-adv-x="1099" 
d="M775 1659q21 0 63 -62q-100 -45 -303 -176l-27 37q30 37 138 119t129 82zM637 354q0 -261 29 -286q12 -12 39 -13h114v-55h-440v55h84q41 0 41 21v489q-338 565 -368 612t-46 57t-51 11h-70v55h420v-55h-94q-35 0 -35 -8q0 -13 154 -274t192 -328q289 543 289 582
q0 20 -7 24t-24 4h-131v55h367v-55h-70q-28 0 -59 -61l-334 -617v-213z" />
    <glyph glyph-name="Thorn" unicode="&#xde;" 
d="M371 1008v-539q80 -27 172 -27q143 0 235 72t92 209q0 85 -55 181q-31 54 -103 89t-177 35h-89q-75 0 -75 -20zM238 76v895q0 178 -11 226q-10 48 -47 48h-121v55h441v-55h-82q-47 0 -47 -20v-129h229q190 0 296 -100t108 -238q0 -176 -132 -274t-317 -97q-98 0 -184 27
v-60q0 -260 28 -286q12 -12 39 -13h115v-55h-440v55h84q41 1 41 21z" />
    <glyph glyph-name="germandbls" unicode="&#xdf;" horiz-adv-x="1138" 
d="M209 872v183q0 143 64 238q113 165 317 165q152 0 255 -110t103 -261q-122 -15 -225 -66q-104 -51 -102 -181q0 -78 48 -138q47 -60 115 -97l136 -76t116 -100t47 -146q0 -135 -99 -225t-232 -91q-76 0 -159 39t-83 107q0 43 45 43q76 0 139 -121q31 -12 62 -12
q90 0 156 60t65 139q0 79 -46 130t-112 88q-67 37 -133 78t-112 107t-46 153q0 127 83 218t210 126q0 143 -75 215q-74 72 -182 72t-172 -71t-64 -193v-787q0 -225 13 -263t27 -42t46 -4h82v-49h-402v49h76q39 0 39 21v753h-123v49h123z" />
    <glyph glyph-name="agrave" unicode="&#xe0;" horiz-adv-x="872" 
d="M530 1030l-26 -37q-203 131 -303 176q41 61 57 62q27 0 134 -82t138 -119zM573 686q0 101 -63 130q-33 15 -86 15q-123 0 -199 -63q-1 -70 -27 -124t-71 -54q-18 0 -31 13q-12 13 -12 30q0 115 132 193t254 79q122 0 175 -48q38 -32 45 -131q2 -30 2 -87v-326
q0 -105 16 -153q16 -47 46 -69q31 -22 82 -32l-66 -92q-58 1 -120 59t-70 136q-62 -74 -158 -134t-178 -60t-129 51q-47 52 -47 122q0 116 91 199q68 62 247 139q54 25 167 70v137zM573 233v261q-284 -102 -348 -199q-31 -47 -30 -105q0 -125 116 -124q75 0 145 48t117 119z
" />
    <glyph glyph-name="aacute" unicode="&#xe1;" horiz-adv-x="872" 
d="M586 1231q16 0 57 -62q-100 -45 -303 -176l-27 37q31 37 139 119t134 82zM573 686q0 101 -63 130q-33 15 -86 15q-123 0 -199 -63q-1 -70 -27 -124t-71 -54q-18 0 -31 13q-12 13 -12 30q0 115 132 193t254 79q122 0 175 -48q38 -32 45 -131q2 -30 2 -87v-326
q0 -105 16 -153q16 -47 46 -69q31 -22 82 -32l-66 -92q-58 1 -120 59t-70 136q-62 -74 -158 -134t-178 -60t-129 51q-47 52 -47 122q0 116 91 199q68 62 247 139q54 25 167 70v137zM573 233v261q-284 -102 -348 -199q-31 -47 -30 -105q0 -125 116 -124q75 0 145 48t117 119z
" />
    <glyph glyph-name="acircumflex" unicode="&#xe2;" horiz-adv-x="872" 
d="M657 993q-35 0 -113 43t-106 74q-28 -31 -106 -74t-113 -43q-4 0 -57 39q195 80 276 199q82 -119 275 -199q-51 -39 -56 -39zM573 686q0 101 -63 130q-33 15 -86 15q-123 0 -199 -63q-1 -70 -27 -124t-71 -54q-18 0 -31 13q-12 13 -12 30q0 115 132 193t254 79
q122 0 175 -48q38 -32 45 -131q2 -30 2 -87v-326q0 -105 16 -153q16 -47 46 -69q31 -22 82 -32l-66 -92q-58 1 -120 59t-70 136q-62 -74 -158 -134t-178 -60t-129 51q-47 52 -47 122q0 116 91 199q68 62 247 139q54 25 167 70v137zM573 233v261q-284 -102 -348 -199
q-31 -47 -30 -105q0 -125 116 -124q75 0 145 48t117 119z" />
    <glyph glyph-name="atilde" unicode="&#xe3;" horiz-adv-x="872" 
d="M547 1034q-51 0 -137 34t-103 34q-47 0 -78 -58l-34 11q8 55 42 89t85 34q52 0 128 -31t109 -31q55 0 86 68l35 -13q-18 -137 -133 -137zM573 686q0 101 -63 130q-33 15 -86 15q-123 0 -199 -63q-1 -70 -27 -124t-71 -54q-18 0 -31 13q-12 13 -12 30q0 115 132 193
t254 79q122 0 175 -48q38 -32 45 -131q2 -30 2 -87v-326q0 -105 16 -153q16 -47 46 -69q31 -22 82 -32l-66 -92q-58 1 -120 59t-70 136q-62 -74 -158 -134t-178 -60t-129 51q-47 52 -47 122q0 116 91 199q68 62 247 139q54 25 167 70v137zM573 233v261q-284 -102 -348 -199
q-31 -47 -30 -105q0 -125 116 -124q75 0 145 48t117 119z" />
    <glyph glyph-name="adieresis" unicode="&#xe4;" horiz-adv-x="872" 
d="M549 1038q-29 0 -48 20t-20 48q-1 29 19 49q20 21 49 21t48 -20t19 -50q0 -28 -19 -48t-48 -20zM328 1038q-29 0 -48 20t-20 48q0 29 20 49q20 21 48 21q29 0 48 -20t19 -50q0 -28 -19 -48t-48 -20zM573 686q0 101 -63 130q-33 15 -86 15q-123 0 -199 -63
q-1 -70 -27 -124t-71 -54q-18 0 -31 13q-12 13 -12 30q0 115 132 193t254 79q122 0 175 -48q38 -32 45 -131q2 -30 2 -87v-326q0 -105 16 -153q16 -47 46 -69q31 -22 82 -32l-66 -92q-58 1 -120 59t-70 136q-62 -74 -158 -134t-178 -60t-129 51q-47 52 -47 122q0 116 91 199
q68 62 247 139q54 25 167 70v137zM573 233v261q-284 -102 -348 -199q-31 -47 -30 -105q0 -125 116 -124q75 0 145 48t117 119z" />
    <glyph glyph-name="aring" unicode="&#xe5;" horiz-adv-x="872" 
d="M563 1145q0 51 -36 88t-89 37t-89 -37t-36 -88t36 -88t89 -37t89 37t36 88zM618 1145q0 -76 -52 -128t-128 -52t-128 52t-52 128t52 128t128 52t128 -52t52 -128zM573 686q0 101 -63 130q-33 15 -86 15q-123 0 -199 -63q-1 -70 -27 -124t-71 -54q-18 0 -31 13
q-12 13 -12 30q0 115 132 193t254 79q122 0 175 -48q38 -32 45 -131q2 -30 2 -87v-326q0 -105 16 -153q16 -47 46 -69q31 -22 82 -32l-66 -92q-58 1 -120 59t-70 136q-62 -74 -158 -134t-178 -60t-129 51q-47 52 -47 122q0 116 91 199q68 62 247 139q54 25 167 70v137z
M573 233v261q-284 -102 -348 -199q-31 -47 -30 -105q0 -125 116 -124q75 0 145 48t117 119z" />
    <glyph glyph-name="ae" unicode="&#xe6;" horiz-adv-x="1366" 
d="M940 -33q-230 0 -330 230q-70 -88 -171 -159t-189 -71t-135 52t-47 122q0 116 91 199q68 62 247 139q55 25 167 70v137q0 101 -63 130q-33 15 -86 15q-123 0 -199 -63q-1 -70 -27 -124t-71 -54q-18 0 -31 13q-12 13 -12 30q0 115 132 193t261 79q197 0 197 -151h4
q104 152 283 151q119 0 199 -77t143 -203q-338 -106 -611 -170q8 -178 89 -288q81 -109 241 -109t272 104l29 -31q-153 -164 -383 -164zM926 850q-102 0 -168 -108t-66 -234l461 123q-31 87 -90 153t-137 66zM573 233v261q-284 -102 -348 -199q-31 -47 -30 -105
q0 -125 116 -124q75 0 145 48t117 119z" />
    <glyph glyph-name="ccedilla" unicode="&#xe7;" horiz-adv-x="872" 
d="M479 -33h-4q-33 -45 -33 -51q0 -18 80 -31q144 -25 144 -90t-62 -98t-116 -33t-99 16t-45 52q0 26 38 26t73 -55q17 -6 43 -6t57 18t31 52q0 47 -108 65t-109 49q0 25 51 92q-166 17 -257 143t-91 306q0 225 136 354t304 129q127 1 204 -65t77 -119q1 -23 -15 -37
t-39 -14q-45 0 -81 54t-48 110q-69 45 -188 7q-227 -72 -232 -364q-4 -178 90 -299q94 -120 257 -120q162 0 264 100l26 -33q-135 -158 -348 -158z" />
    <glyph glyph-name="egrave" unicode="&#xe8;" horiz-adv-x="872" 
d="M489 1030l-26 -37q-203 131 -303 176q41 61 57 62q27 0 134 -82t138 -119zM418 850q-102 0 -168 -108t-66 -234l461 123q-31 87 -90 153t-137 66zM440 -33q-180 0 -277 129t-97 314q0 277 171 418q91 77 213 77t202 -77t143 -203q-338 -106 -611 -170q8 -178 89 -288
q81 -109 241 -109t272 104l29 -31q-154 -164 -375 -164z" />
    <glyph glyph-name="eacute" unicode="&#xe9;" horiz-adv-x="872" 
d="M601 1231q21 0 63 -62q-101 -45 -304 -176l-26 37q30 37 138 119t129 82zM418 850q-102 0 -168 -108t-66 -234l461 123q-31 87 -90 153t-137 66zM440 -33q-180 0 -277 129t-97 314q0 277 171 418q91 77 213 77t202 -77t143 -203q-338 -106 -611 -170q8 -178 89 -288
q81 -109 241 -109t272 104l29 -31q-154 -164 -375 -164z" />
    <glyph glyph-name="ecircumflex" unicode="&#xea;" horiz-adv-x="872" 
d="M657 993q-35 0 -113 43t-106 74q-28 -31 -106 -74t-113 -43q-4 0 -57 39q195 80 276 199q82 -119 275 -199q-51 -39 -56 -39zM418 850q-102 0 -168 -108t-66 -234l461 123q-31 87 -90 153t-137 66zM440 -33q-180 0 -277 129t-97 314q0 277 171 418q91 77 213 77t202 -77
t143 -203q-338 -106 -611 -170q8 -178 89 -288q81 -109 241 -109t272 104l29 -31q-154 -164 -375 -164z" />
    <glyph glyph-name="edieresis" unicode="&#xeb;" horiz-adv-x="872" 
d="M549 1038q-29 0 -48 20t-20 48q-1 29 19 49q20 21 49 21t48 -20t19 -50q0 -28 -19 -48t-48 -20zM328 1038q-29 0 -48 20t-20 48q0 29 20 49q20 21 48 21q29 0 48 -20t19 -50q0 -28 -19 -48t-48 -20zM418 850q-102 0 -168 -108t-66 -234l461 123q-31 87 -90 153t-137 66z
M440 -33q-180 0 -277 129t-97 314q0 277 171 418q91 77 213 77t202 -77t143 -203q-338 -106 -611 -170q8 -178 89 -288q81 -109 241 -109t272 104l29 -31q-154 -164 -375 -164z" />
    <glyph glyph-name="igrave" unicode="&#xec;" horiz-adv-x="530" 
d="M338 1030l-27 -37q-203 131 -303 176q41 61 63 61t129 -81q107 -82 138 -119zM324 358q0 -225 13 -263t27 -42t46 -4h82v-49h-402v49h76q39 0 39 21v571q0 160 -26 176q-9 6 -32 6h-108v49l285 33v-547z" />
    <glyph glyph-name="iacute" unicode="&#xed;" horiz-adv-x="530" 
d="M414 1231q16 0 57 -62q-100 -45 -303 -176l-27 37q31 37 139 119t134 82zM324 358q0 -225 13 -263t27 -42t46 -4h82v-49h-402v49h76q39 0 39 21v571q0 160 -26 176q-9 6 -32 6h-108v49l285 33v-547z" />
    <glyph glyph-name="icircumflex" unicode="&#xee;" horiz-adv-x="530" 
d="M434 993q-34 0 -112 43t-107 74q-29 -31 -107 -74t-112 -43q-4 0 -57 39q195 80 276 199q82 -119 274 -199q-51 -39 -55 -39zM324 358q0 -225 13 -263t27 -42t46 -4h82v-49h-402v49h76q39 0 39 21v571q0 160 -26 176q-9 6 -32 6h-108v49l285 33v-547z" />
    <glyph glyph-name="idieresis" unicode="&#xef;" horiz-adv-x="530" 
d="M336 1038q-29 0 -48 20t-20 48q0 29 20 49q20 21 48 21q29 0 48 -20t19 -50q0 -28 -19 -48t-48 -20zM115 1038q-29 0 -48 20t-20 48q-1 29 19 49q20 21 49 21t48 -20t19 -50q0 -28 -19 -48t-48 -20zM324 358q0 -225 13 -263t27 -42t46 -4h82v-49h-402v49h76q39 0 39 21
v571q0 160 -26 176q-9 6 -32 6h-108v49l285 33v-547z" />
    <glyph glyph-name="eth" unicode="&#xf0;" horiz-adv-x="1021" 
d="M86 408q0 131 47 232q47 102 119 156q147 112 284 110q136 -1 230 -99l4 4q-55 236 -195 395l-223 -172l-41 45l224 172q-121 125 -267 162l74 45q158 -53 266 -149l197 153l41 -45l-193 -149q158 -150 221 -339t64 -343q0 -303 -122 -459t-316 -159t-304 122t-110 318z
M215 446q0 -168 80 -292t235 -125q106 0 172 63q66 64 86 146t21 188q0 168 -80 293t-235 125q-106 0 -172 -64t-86 -146t-21 -188z" />
    <glyph glyph-name="ntilde" unicode="&#xf1;" horiz-adv-x="1099" 
d="M659 1034q-49 0 -136 34t-103 34q-47 0 -78 -58l-35 11q8 55 42 89t85 34t128 -31t110 -31q55 0 86 68l35 -13q-18 -137 -134 -137zM659 905q133 0 191 -72q57 -73 57 -182v-293q0 -222 15 -270q10 -39 71 -39h82v-49h-401v49h76q39 0 38 21v534q0 209 -170 209
q-147 0 -307 -135v-320q0 -123 2 -180q1 -57 13 -89t25 -36t46 -4h82v-49h-401v49h76q39 0 39 21v571q0 159 -26 176q-9 6 -32 6h-108v49l284 33v-164q96 80 177 122t171 42z" />
    <glyph glyph-name="ograve" unicode="&#xf2;" horiz-adv-x="1024" 
d="M606 1030l-26 -37q-203 131 -304 176q41 61 63 61t129 -81q107 -82 138 -119zM215 446q0 -168 80 -292t235 -125q106 0 172 63q66 64 86 146t21 188q0 168 -80 293t-235 125q-106 0 -172 -64t-86 -146t-21 -188zM86 408q0 131 47 232q47 102 119 156q147 112 285 109
q181 0 291 -125t110 -315q0 -131 -47 -233t-119 -155q-147 -110 -285 -110q-181 -1 -291 125t-110 316z" />
    <glyph glyph-name="oacute" unicode="&#xf3;" horiz-adv-x="1024" 
d="M697 1231q21 0 63 -62q-100 -45 -303 -176l-27 37q30 37 138 119t129 82zM215 446q0 -168 80 -292t235 -125q106 0 172 63q66 64 86 146t21 188q0 168 -80 293t-235 125q-106 0 -172 -64t-86 -146t-21 -188zM86 408q0 131 47 232q47 102 119 156q147 112 285 109
q181 0 291 -125t110 -315q0 -131 -47 -233t-119 -155q-147 -110 -285 -110q-181 -1 -291 125t-110 316z" />
    <glyph glyph-name="ocircumflex" unicode="&#xf4;" horiz-adv-x="1024" 
d="M733 993q-35 0 -113 43t-106 74q-28 -31 -106 -74t-113 -43q-4 0 -57 39q195 80 276 199q82 -119 274 -199q-51 -39 -55 -39zM215 446q0 -168 80 -292t235 -125q106 0 172 63q66 64 86 146t21 188q0 168 -80 293t-235 125q-106 0 -172 -64t-86 -146t-21 -188zM86 408
q0 131 47 232q47 102 119 156q147 112 285 109q181 0 291 -125t110 -315q0 -131 -47 -233t-119 -155q-147 -110 -285 -110q-181 -1 -291 125t-110 316z" />
    <glyph glyph-name="otilde" unicode="&#xf5;" horiz-adv-x="1024" 
d="M623 1034q-49 0 -136 34t-104 34q-47 0 -78 -58l-35 11q8 55 42 89t85 34t128 -31t110 -31q55 0 86 68l35 -13q-18 -137 -133 -137zM215 446q0 -168 80 -292t235 -125q106 0 172 63q66 64 86 146t21 188q0 168 -80 293t-235 125q-106 0 -172 -64t-86 -146t-21 -188z
M86 408q0 131 47 232q47 102 119 156q147 112 285 109q181 0 291 -125t110 -315q0 -131 -47 -233t-119 -155q-147 -110 -285 -110q-181 -1 -291 125t-110 316z" />
    <glyph glyph-name="odieresis" unicode="&#xf6;" horiz-adv-x="1024" 
d="M625 1038q-29 0 -48 20t-20 48q-1 29 19 49q20 21 49 21t48 -20t19 -50q0 -28 -19 -48t-48 -20zM403 1038q-29 0 -48 20t-19 48q0 29 19 49q19 21 48 21t49 -20t19 -50q1 -28 -19 -48t-49 -20zM215 446q0 -168 80 -292t235 -125q106 0 172 63q66 64 86 146t21 188
q0 168 -80 293t-235 125q-106 0 -172 -64t-86 -146t-21 -188zM86 408q0 131 47 232q47 102 119 156q147 112 285 109q181 0 291 -125t110 -315q0 -131 -47 -233t-119 -155q-147 -110 -285 -110q-181 -1 -291 125t-110 316z" />
    <glyph glyph-name="divide" unicode="&#xf7;" 
d="M530 248q37 0 61 -23q23 -23 23 -59t-24 -60q-24 -22 -60 -22t-60 22t-24 60t24 60t60 22zM532 625q-36 1 -60 23t-23 59q-1 37 23 59t60 22t61 -22q23 -22 23 -60q0 -36 -23 -59q-24 -22 -61 -22zM969 383h-875v106h875v-106z" />
    <glyph glyph-name="oslash" unicode="&#xf8;" horiz-adv-x="1024" 
d="M86 408q0 131 47 232q47 102 119 156q147 112 274 110q126 -1 211 -52l74 123h57l-90 -150q160 -125 160 -362q0 -131 -47 -233t-119 -155q-147 -110 -273 -110t-210 53l-76 -124h-57l92 151q-162 117 -162 361zM719 731l-381 -629q80 -74 189 -74t175 64t86 146t21 188
q0 190 -90 305zM500 844q-112 0 -178 -64t-86 -145q-20 -82 -21 -189q0 -186 90 -305l379 627q-72 76 -184 76z" />
    <glyph glyph-name="ugrave" unicode="&#xf9;" horiz-adv-x="1099" 
d="M602 1030l-27 -37q-203 131 -303 176q41 61 63 61t129 -81q107 -82 138 -119zM891 313q0 -153 34 -195t111 -59l-65 -92q-72 9 -122 59t-67 119q-92 -86 -170 -132t-154 -46q-76 -1 -120 17q-45 18 -72 57t-42 74q-31 72 -31 309v217q0 159 -26 176q-9 6 -32 6h-108v49
l284 33v-547q0 -194 43 -243t144 -49q152 0 274 133v442q0 160 -26 176q-9 6 -31 6h-109v49l285 33v-592z" />
    <glyph glyph-name="uacute" unicode="&#xfa;" horiz-adv-x="1099" 
d="M695 1231q21 0 63 -62q-100 -45 -303 -176l-27 37q30 37 138 119t129 82zM891 313q0 -153 34 -195t111 -59l-65 -92q-72 9 -122 59t-67 119q-92 -86 -170 -132t-154 -46q-76 -1 -120 17q-45 18 -72 57t-42 74q-31 72 -31 309v217q0 159 -26 176q-9 6 -32 6h-108v49
l284 33v-547q0 -194 43 -243t144 -49q152 0 274 133v442q0 160 -26 176q-9 6 -31 6h-109v49l285 33v-592z" />
    <glyph glyph-name="ucircumflex" unicode="&#xfb;" horiz-adv-x="1099" 
d="M750 993q-35 0 -113 43t-107 74q-28 -31 -106 -74t-113 -43q-4 0 -57 39q195 80 276 199q82 -119 275 -199q-51 -39 -55 -39zM891 313q0 -153 34 -195t111 -59l-65 -92q-72 9 -122 59t-67 119q-92 -86 -170 -132t-154 -46q-76 -1 -120 17q-45 18 -72 57t-42 74
q-31 72 -31 309v217q0 159 -26 176q-9 6 -32 6h-108v49l284 33v-547q0 -194 43 -243t144 -49q152 0 274 133v442q0 160 -26 176q-9 6 -31 6h-109v49l285 33v-592z" />
    <glyph glyph-name="udieresis" unicode="&#xfc;" horiz-adv-x="1099" 
d="M662 1038q-28 0 -48 20t-20 48q0 29 19 49q19 21 49 21t48 -20q19 -20 19 -50q0 -28 -19 -48t-48 -20zM440 1038q-29 0 -48 20t-19 48q0 29 19 49q19 21 48 21t48 -20q20 -20 20 -50q0 -28 -20 -48t-48 -20zM891 313q0 -153 34 -195t111 -59l-65 -92q-72 9 -122 59
t-67 119q-92 -86 -170 -132t-154 -46q-76 -1 -120 17q-45 18 -72 57t-42 74q-31 72 -31 309v217q0 159 -26 176q-9 6 -32 6h-108v49l284 33v-547q0 -194 43 -243t144 -49q152 0 274 133v442q0 160 -26 176q-9 6 -31 6h-109v49l285 33v-592z" />
    <glyph glyph-name="yacute" unicode="&#xfd;" horiz-adv-x="948" 
d="M658 1231q22 0 63 -62q-100 -45 -303 -176l-27 37q31 37 139 119q106 82 128 82zM4 823v49h373v-49h-101q-33 0 -32 -12q0 -14 270 -651q233 500 234 631q0 28 -23 31q-8 1 -27 1h-92v49h342v-49h-64q-28 0 -31 -3t-7 -9t-5 -11q-1 -4 -7 -18t-91 -223t-257 -598
t-214 -442q-100 -27 -211 -27q-25 0 -24 25q0 9 39 25t47 22t31 20q24 14 38 30t39 41q104 109 218 365l-291 678q-34 74 -52 100t-47 25h-55z" />
    <glyph glyph-name="thorn" unicode="&#xfe;" horiz-adv-x="1099" 
d="M330 -147q0 -215 11 -259t42 -50q10 -1 33 -1h82v-49h-402v49h76q39 0 39 21v1601q0 160 -26 176q-9 6 -31 7h-109v49q137 8 285 47v-692q114 84 184 118t152 35q168 0 258 -134q90 -135 90 -327t-119 -334t-322 -143q-134 0 -243 72v-186zM889 419q0 167 -76 277
t-213 111q-137 0 -270 -119v-586q102 -80 223 -79q164 1 250 115t86 281z" />
    <glyph glyph-name="ydieresis" unicode="&#xff;" horiz-adv-x="948" 
d="M606 1038q-29 0 -48 20t-19 48q0 29 19 49q19 21 48 21t48 -20q20 -20 20 -50q0 -28 -20 -48t-48 -20zM385 1038q-29 0 -48 20t-20 48q-1 29 19 49q20 21 49 21t48 -20t19 -50q0 -28 -18 -48q-20 -20 -49 -20zM4 823v49h373v-49h-101q-33 0 -32 -12q0 -14 270 -651
q233 500 234 631q0 28 -23 31q-8 1 -27 1h-92v49h342v-49h-64q-28 0 -31 -3t-7 -9t-5 -11q-1 -4 -7 -18t-91 -223t-257 -598t-214 -442q-100 -27 -211 -27q-25 0 -24 25q0 9 39 25t47 22t31 20q24 14 38 30t39 41q104 109 218 365l-291 678q-34 74 -52 100t-47 25h-55z" />
    <glyph glyph-name="dotlessi" unicode="&#x131;" horiz-adv-x="530" 
d="M324 358q0 -225 13 -263t27 -42t46 -4h82v-49h-402v49h76q39 0 39 21v571q0 160 -26 176q-9 6 -32 6h-108v49l285 33v-547z" />
    <glyph glyph-name="Lslash" unicode="&#x141;" 
d="M371 354q0 -245 29 -274q13 -12 55 -12h131q406 0 446 100q8 20 22 20t15 -11q0 -11 -51 -177h-905v55h84q41 0 41 21v456l-172 -126v77l172 127v361q0 178 -11 226q-10 48 -47 48h-121v55h441v-55h-82q-47 0 -47 -20v-535l354 260v-76l-354 -260v-260z" />
    <glyph glyph-name="lslash" unicode="&#x142;" horiz-adv-x="530" 
d="M205 1165q0 160 -26 176q-9 6 -32 7h-108v49q137 8 285 47v-615l145 115v-76l-145 -114v-396q0 -225 13 -263t27 -42t46 -4h82v-49h-402v49h76q39 0 39 21v610l-150 -119v76l150 119v409z" />
    <glyph glyph-name="OE" unicode="&#x152;" horiz-adv-x="2048" 
d="M1810 895v-340h-51v76q0 20 -3 28q-3 9 -31 17t-205 8h-260v-330q0 -245 29 -274q13 -12 54 -12h132q406 0 446 100q9 20 23 20t14 -11t-51 -177h-1149q-166 0 -293 56q-223 98 -303 343q-35 104 -35 215q0 215 120 375t302 236t393 75h969l-21 -141q-6 -35 -20 -35
t-19 25q-4 37 -61 55q-92 29 -303 29h-152q-76 0 -75 -21v-467h194q257 0 291 29q14 12 14 39v82h51zM1126 113v817q0 205 -12 254t-61 49h-158q-262 0 -445 -158q-184 -157 -184 -417t159 -426t427 -164h158q78 0 97 8t19 37z" />
    <glyph glyph-name="oe" unicode="&#x153;" horiz-adv-x="1593" 
d="M1161 850q-101 0 -167 -108t-66 -234l461 123q-31 87 -91 153t-137 66zM215 446q0 -168 80 -292t235 -125q106 0 172 63q66 64 86 146t21 188q0 168 -80 293t-235 125q-106 0 -172 -64t-86 -146t-21 -188zM86 408q0 131 47 232q79 171 264 239q74 27 140 26
q231 -4 337 -211q48 94 134 152t196 59q110 0 191 -77q80 -77 143 -203q-338 -106 -610 -170q8 -178 89 -288t242 -110t271 105l29 -31q-154 -164 -375 -164q-109 1 -197 57t-133 156q-56 -98 -154 -155t-213 -58q-181 -2 -291 123t-110 318z" />
    <glyph glyph-name="Scaron" unicode="&#x160;" horiz-adv-x="985" 
d="M274 1659q35 0 113 -43t107 -74q28 31 106 74t113 43q4 0 55 -39q-193 -80 -274 -199q-82 119 -277 199q53 39 57 39zM807 1161q0 -25 -19 -24q-16 0 -20 28q-8 55 -91 81t-153 26q-143 0 -218 -78t-75 -173t70 -157t168 -100q99 -37 197 -78t168 -122t69 -206
q0 -182 -143 -290q-142 -108 -324 -107q-182 0 -321 55q-29 176 -29 183q0 23 20 22q16 0 27 -37q15 -76 121 -116t224 -39t219 71t101 188t-68 186q-69 68 -166 106t-195 76t-167 119t-69 221t137 241q137 102 295 102t242 -39v-139z" />
    <glyph glyph-name="scaron" unicode="&#x161;" horiz-adv-x="757" 
d="M162 1231q34 0 112 -43t107 -74q29 31 107 74t112 43q4 0 55 -39q-193 -80 -274 -199q-82 119 -277 199q53 39 58 39zM388 838q-80 0 -146 -43t-66 -109t54 -103t131 -57t154 -45t131 -81t54 -146q0 -141 -118 -214t-256 -73q-136 0 -244 39q-27 168 -27 176q0 18 23 19
q14 0 24 -35q10 -53 96 -92t171 -39q87 0 159 50t72 127t-53 114t-129 55t-151 41t-128 76t-53 150t93 177t229 80t229 -43q12 -111 12 -132t-13 -21t-24 18q-71 111 -224 111z" />
    <glyph glyph-name="Ydieresis" unicode="&#x178;" horiz-adv-x="1099" 
d="M682 1466q-29 0 -48 20t-20 48q0 29 20 49q20 21 48 21q29 0 48 -20q20 -20 20 -50q0 -28 -20 -48t-48 -20zM461 1466q-29 0 -48 20t-20 48q-1 29 19 49q20 21 49 21t48 -20t19 -50q0 -28 -19 -48t-48 -20zM637 354q0 -261 29 -286q12 -12 39 -13h114v-55h-440v55h84
q41 0 41 21v489q-338 565 -368 612t-46 57t-51 11h-70v55h420v-55h-94q-35 0 -35 -8q0 -13 154 -274t192 -328q289 543 289 582q0 20 -7 24t-24 4h-131v55h367v-55h-70q-28 0 -59 -61l-334 -617v-213z" />
    <glyph glyph-name="Zcaron" unicode="&#x17d;" horiz-adv-x="1138" 
d="M352 1659q35 0 113 -43t106 -74q29 31 107 74t113 43q4 0 55 -39q-193 -80 -275 -199q-81 119 -276 199q53 39 57 39zM78 0q-29 0 -29 10t37 66l776 1157h-110q-539 0 -594 -109q-12 -25 -25 -24q-18 0 -18 18q0 6 49 182h852q22 0 22 -7t-14 -29l-793 -1196h222
q575 0 618 131q8 25 23 24q16 0 16 -14t-55 -209h-977z" />
    <glyph glyph-name="zcaron" unicode="&#x17e;" horiz-adv-x="872" 
d="M219 1231q35 0 113 -43t106 -74q29 31 107 74t112 43q4 0 56 -39q-193 -80 -275 -199q-81 119 -276 199q53 39 57 39zM776 872q23 0 23 -11t-39 -56l-576 -705q222 8 376 10t183 10q29 7 39 24t23 18q16 0 16 -18t-59 -144h-682q-47 0 -47 20q-1 10 69 91t94 109t79 92
q56 65 83 96q207 237 277 362h-309q-154 0 -191 -47q-16 -21 -30 -21t-15 19q0 4 49 151h637z" />
    <glyph glyph-name="florin" unicode="&#x192;" 
d="M760 872v-55h-172l-154 -776q-33 -162 -93 -279t-131 -172q-132 -102 -253 -102q-45 0 -89 17t-44 49q0 60 66 59q66 0 106 -70q53 7 92 25q104 49 162 208q35 95 63 238l158 803h-131v55h139q63 313 171 439q44 51 111 86t148 35q115 0 115 -64q0 -43 -57 -43t-101 51
q-102 -8 -153 -93t-86 -267l-29 -144h162z" />
    <glyph glyph-name="circumflex" unicode="&#x2c6;" horiz-adv-x="530" 
d="M485 993q-35 0 -113 43t-106 74q-28 -31 -106 -74t-113 -43q-4 0 -57 39q195 80 276 199q82 -119 275 -199q-51 -39 -56 -39z" />
    <glyph glyph-name="caron" unicode="&#x2c7;" horiz-adv-x="530" 
d="M47 1231q35 0 113 -43t106 -74q29 31 107 74t112 43q4 0 56 -39q-193 -80 -275 -199q-81 119 -276 199q53 39 57 39z" />
    <glyph glyph-name="uni02C9" unicode="&#x2c9;" horiz-adv-x="530" 
d="M496 1153v-82h-461v82h461z" />
    <glyph glyph-name="breve" unicode="&#x2d8;" horiz-adv-x="530" 
d="M266 1081q70 0 125 36t53 104h50q6 -99 -61 -157t-167 -58t-167 58q-66 59 -60 157h49q-2 -68 53 -104t125 -36z" />
    <glyph glyph-name="dotaccent" unicode="&#x2d9;" horiz-adv-x="530" 
d="M266 1038q-29 0 -48 20t-19 48q0 29 19 49q19 21 48 21t48 -20q20 -20 20 -50q0 -28 -20 -48t-48 -20z" />
    <glyph glyph-name="ring" unicode="&#x2da;" horiz-adv-x="530" 
d="M391 1145q0 51 -36 88t-89 37t-89 -37t-36 -88t36 -88t89 -37t89 37t36 88zM446 1145q0 -76 -52 -128t-128 -52t-128 52t-52 128t52 128t128 52t128 -52t52 -128z" />
    <glyph glyph-name="ogonek" unicode="&#x2db;" horiz-adv-x="530" 
d="M205 -167q1 -46 27 -72q49 -48 165 -3l-18 -45q-57 -20 -117 -20t-105 31q-46 32 -46 96t58 110t134 70h80q-96 -47 -137 -84t-41 -83z" />
    <glyph glyph-name="tilde" unicode="&#x2dc;" horiz-adv-x="530" 
d="M375 1034q-51 0 -137 34t-103 34q-47 0 -78 -58l-34 11q8 55 42 89t85 34q52 0 128 -31t109 -31q55 0 86 68l35 -13q-18 -137 -133 -137z" />
    <glyph glyph-name="hungarumlaut" unicode="&#x2dd;" horiz-adv-x="530" 
d="M457 1282q18 0 67 -39q-92 -88 -225 -270l-37 24q18 51 93 168t102 117zM244 1282q18 0 67 -39q-92 -88 -225 -270l-37 24q18 51 93 168t102 117z" />
    <glyph glyph-name="uni03A9" unicode="&#x3a9;" horiz-adv-x="1390" 
d="M688 1298q-176 0 -292 -144t-115 -439q0 -97 25 -195t50 -150t35 -76t41 -75t38 -63t42 -66t37 -57l-14 -33h-426l-43 244l36 2q29 -94 59 -123t87 -29h213q-220 205 -285 418q-31 102 -31 215q0 279 158 450q159 171 397 171t390 -162t151 -441q0 -202 -100 -362
t-217 -289h215q63 0 88 26t55 126l41 -2l-45 -244h-432l-10 33q218 327 254 506q20 102 20 188q-2 291 -124 431t-298 140z" />
    <glyph glyph-name="uni03BC" unicode="&#x3bc;" horiz-adv-x="1099" 
d="M901 313q0 -153 35 -196q35 -44 111 -58l-66 -92q-72 9 -122 59t-66 119q-94 -86 -171 -133q-159 -97 -323 13v-160q0 -29 42 -117t42 -116t-19 -53q-19 -26 -59 -25q-61 0 -82 57q-20 57 -20 205v825q0 160 -26 176q-9 6 -32 6h-108v49l285 33v-547q0 -195 43 -243
q43 -49 143 -49q152 0 274 133v442q0 159 -25 176q-9 6 -32 6h-109v49l285 33v-592z" />
    <glyph glyph-name="pi" unicode="&#x3c0;" horiz-adv-x="1056" 
d="M879 66q51 0 102 67l25 -31q-66 -125 -179 -125q-77 1 -115 53t-38 208t22 510q-121 4 -336 4v-45q0 -199 -36 -419t-91 -278q-59 -29 -100 -33l-10 27q96 113 137 330t41 420q-114 0 -185 -46q-24 -15 -65 -51l-24 33q2 2 18 20t22 24q5 4 22 22t29 25t30 21
q20 14 72 30t116 16l508 -6q45 0 67 12t47 53l41 -18q-18 -72 -65 -139q-31 -6 -137 -7q-8 -92 -9 -497q0 -180 91 -180z" />
    <glyph glyph-name="endash" unicode="&#x2013;" horiz-adv-x="1024" 
d="M0 383v106h1024v-106h-1024z" />
    <glyph glyph-name="emdash" unicode="&#x2014;" horiz-adv-x="2048" 
d="M0 383v106h2048v-106h-2048z" />
    <glyph glyph-name="quoteleft" unicode="&#x2018;" horiz-adv-x="378" 
d="M143 1106q0 -57 41 -74q24 8 48 8t43 -18t19 -50t-21 -50q-22 -18 -54 -19q-59 1 -98 59t-39 119q-1 152 151 258l29 -30q-119 -102 -119 -203z" />
    <glyph glyph-name="quoteright" unicode="&#x2019;" horiz-adv-x="378" 
d="M236 1137q0 57 -41 73q-25 -8 -49 -8t-42 18q-20 18 -20 51q0 32 21 50q22 18 55 18q59 0 98 -58t39 -120q0 -152 -152 -258l-28 31q119 102 119 203z" />
    <glyph glyph-name="quotesinglbase" unicode="&#x201a;" horiz-adv-x="378" 
d="M84 42q0 32 21 50q22 18 55 19q59 -1 98 -59t39 -120q0 -152 -152 -258l-28 31q119 102 119 203q0 57 -41 74l-21 -7l-20 -2q-30 1 -50 19t-20 50z" />
    <glyph glyph-name="quotedblleft" unicode="&#x201c;" horiz-adv-x="720" 
d="M248 1040q24 0 42 -18q19 -18 19 -50q1 -32 -21 -50t-55 -19q-59 1 -98 59t-39 119q0 152 152 258l28 -30q-119 -102 -118 -203q0 -57 41 -74q25 8 49 8zM473 1106q0 -57 41 -74q24 8 48 8t43 -18t19 -50t-21 -50q-22 -18 -54 -19q-59 1 -98 59t-39 119q-1 152 151 258
l29 -30q-119 -102 -119 -203z" />
    <glyph glyph-name="quotedblright" unicode="&#x201d;" horiz-adv-x="720" 
d="M563 1137q0 57 -41 73q-24 -8 -48 -8t-43 18t-19 51q0 32 21 50q22 18 54 18q59 0 99 -58t39 -120q0 -152 -152 -258l-29 31q119 102 119 203zM248 1137q0 57 -41 73q-25 -8 -49 -8t-42 18q-20 18 -20 51q0 32 22 50t54 18q59 0 98 -58t39 -120q1 -152 -151 -258l-29 31
q119 102 119 203z" />
    <glyph glyph-name="quotedblbase" unicode="&#x201e;" horiz-adv-x="720" 
d="M412 42q0 32 21 50q22 18 54 19q59 -1 99 -59t39 -120q0 -152 -152 -258l-29 31q119 102 119 203q0 57 -41 74q-12 -4 -20 -7l-21 -2q-31 1 -50 19t-19 50zM248 -92q0 57 -41 74l-21 -7l-20 -2q-31 1 -50 19q-20 18 -20 50t22 50t54 19q59 -1 98 -59t39 -120
q1 -152 -151 -258l-29 31q119 102 119 203z" />
    <glyph glyph-name="dagger" unicode="&#x2020;" horiz-adv-x="1024" 
d="M530 133l9 -268h-54l9 268q0 99 -4 159q-10 175 -74 292q76 111 76 348q-164 -10 -293 -72q-18 55 -70 92q51 37 70 92q127 -61 293 -71q0 180 -68 289q63 29 88 77q25 -49 88 -77q-68 -109 -68 -289q166 10 293 71q18 -55 70 -92q-51 -37 -70 -92q-129 61 -293 72
q0 -238 76 -348q-35 -64 -53 -148t-21 -144t-4 -159z" />
    <glyph glyph-name="daggerdbl" unicode="&#x2021;" horiz-adv-x="1024" 
d="M489 -70q0 240 -57 385q59 80 60 199q-164 -4 -285 -55q-16 39 -60 76q43 37 60 75q121 -51 285 -55q0 96 -14 146q-13 50 -46 106q59 92 60 213q-164 -4 -285 -55q-16 39 -60 75q43 37 60 76q121 -51 285 -55q0 96 -58 207q47 29 78 71q31 -43 78 -71q-57 -111 -58 -207
q164 4 285 55q16 -39 60 -76q-43 -37 -60 -75q-121 51 -285 55q0 -121 60 -213q-33 -55 -46 -105t-14 -147q164 4 285 55q16 -39 60 -75q-43 -37 -60 -76q-121 51 -285 55q0 -119 60 -199q-57 -145 -57 -385q0 -45 8 -65h-62q8 20 8 65z" />
    <glyph glyph-name="bullet" unicode="&#x2022;" horiz-adv-x="1024" 
d="M240 649q0 113 79 193q80 80 193 80t193 -80q79 -80 79 -193t-80 -193t-192 -79q-112 -1 -192 79t-80 193z" />
    <glyph glyph-name="ellipsis" unicode="&#x2026;" horiz-adv-x="2048" 
d="M1706 -27q-36 0 -60 23q-24 24 -24 60t24 59t60 23t60 -24q24 -22 24 -59t-24 -59t-60 -23zM1024 -27q-36 0 -60 23q-24 24 -24 60t24 59t60 23t60 -24q24 -22 24 -59t-24 -59t-60 -23zM342 -27q-36 0 -60 23q-24 24 -24 60t24 59t60 23t60 -24q24 -22 24 -59t-24 -59
t-60 -23z" />
    <glyph glyph-name="perthousand" unicode="&#x2030;" horiz-adv-x="2275" 
d="M1155 1386h78q-164 -182 -393 -660t-295 -781l-109 -41q39 240 307 781q269 541 412 701zM1855 608q-98 0 -150 -72t-52 -182q-1 -108 29 -188q55 -150 190 -150q98 0 150 73t52 180t-38 214q-20 55 -68 90t-113 35zM1552 300q0 144 94 254t233 110q140 0 218 -98
t78 -242t-93 -254q-94 -110 -234 -109q-140 0 -218 97t-78 242zM1133 16q98 0 150 73t52 182q1 109 -29 188q-56 149 -190 149q-98 0 -150 -72t-52 -179q0 -106 38 -216q20 -55 68 -90t113 -35zM813 300q0 144 93 254q94 110 234 110t218 -98t78 -242t-93 -254t-233 -109
q-140 0 -219 97q-78 97 -78 242zM403 1284q-98 0 -150 -73t-52 -181q-1 -108 29 -188q55 -149 190 -150q98 0 150 73t52 180t-38 214q-20 55 -68 90t-113 35zM723 1000q0 -144 -93 -254q-94 -110 -234 -109q-140 0 -218 97t-78 242q0 144 94 254t233 110q140 0 218 -98
t78 -242z" />
    <glyph glyph-name="guilsinglleft" unicode="&#x2039;" horiz-adv-x="681" 
d="M442 834l56 -29q-70 -217 -201 -369q131 -152 201 -368l-56 -29q-86 242 -313 397q227 156 313 398z" />
    <glyph glyph-name="guilsinglright" unicode="&#x203a;" horiz-adv-x="681" 
d="M240 39l-56 29q70 217 201 368q-131 152 -201 369l56 29q86 -242 313 -398q-227 -155 -313 -397z" />
    <glyph glyph-name="fraction" unicode="&#x2044;" horiz-adv-x="342" 
d="M547 1391h78q-163 -183 -393 -661t-295 -781l-109 -41q40 240 308 782t411 701z" />
    <glyph glyph-name="Euro" unicode="&#x20ac;" 
d="M213 578q0 74 12 176h-149l10 57h147q49 227 208 378t337 150q113 0 250 -71l-10 -123q-6 -37 -24 -37t-19 34q0 34 -31 58q-80 66 -180 66q-182 0 -286 -122t-132 -333h535l-11 -57h-532q-2 -29 -2 -72t4 -104h500l-11 -58h-483q33 -262 172 -395q94 -90 234 -90
t268 115l33 -41q-123 -147 -349 -147t-355 159q-128 160 -136 399h-145l10 58h135z" />
    <glyph glyph-name="afii61289" unicode="&#x2113;" horiz-adv-x="743" 
d="M285 909v-266q90 111 146 248t56 241q0 211 -96 214q-57 0 -81 -102t-25 -335zM416 -35q-119 0 -178 75t-60 275v177l-119 -95l-22 37l139 117v237q0 260 18 364t80 175q60 72 136 72t116 -72t39 -176q0 -281 -280 -582v-194q0 -186 46 -257t134 -71q119 0 211 137
l31 -26q-102 -193 -291 -193z" />
    <glyph glyph-name="trademark" unicode="&#x2122;" horiz-adv-x="2027" 
d="M999 596v508q0 120 -35 141q-17 10 -46 10h-37v45h231l264 -540l228 540h213v-45h-60q-20 0 -20 -20v-487q0 -119 6 -143t37 -23h67v-45h-313v45h59q14 0 18 6q3 6 3 33v559h-4l-269 -635h-4l-280 612h-4v-334q0 -176 6 -209t41 -32h63v-45h-243v45h57q22 0 22 14z
M516 1251v-510q0 -115 6 -137t37 -22h82v-45h-354v45h86q20 0 20 18v651q-219 0 -256 -67q-12 -29 -26 -29q-13 0 -13 17t39 128h635q39 -111 40 -128t-13 -17t-27 29q-37 67 -256 67z" />
    <glyph glyph-name="Omega" unicode="&#x2126;" horiz-adv-x="1390" 
d="M688 1298q-176 0 -292 -144t-115 -439q0 -97 25 -195t50 -150t35 -76t41 -75t38 -63t42 -66t37 -57l-14 -33h-426l-43 244l36 2q29 -94 59 -123t87 -29h213q-220 205 -285 418q-31 102 -31 215q0 279 158 450q159 171 397 171t390 -162t151 -441q0 -202 -100 -362
t-217 -289h215q63 0 88 26t55 126l41 -2l-45 -244h-432l-10 33q218 327 254 506q20 102 20 188q-2 291 -124 431t-298 140z" />
    <glyph glyph-name="estimated" unicode="&#x212e;" horiz-adv-x="1658" 
d="M1313 678v377q0 27 -19 45q-201 196 -467 196t-465 -202q-18 -18 -18 -47v-369q0 -12 10 -12h951q8 0 8 12zM1593 631h-1239q-10 0 -10 -8v-375q0 -23 16 -43q200 -205 482 -205t481 229h109q-102 -123 -262 -195t-343 -71q-315 0 -539 201q-224 202 -224 486t224 486
t540 202t541 -202q224 -202 224 -487v-18z" />
    <glyph glyph-name="partialdiff" unicode="&#x2202;" horiz-adv-x="985" 
d="M524 748h-2q-139 0 -231 -115q-86 -125 -86 -332q-2 -115 58 -200t157 -85q150 0 244 203q63 135 94 371q-24 54 -90 106t-144 52zM492 813h2q76 0 152 -38t124 -109q10 94 13 224t-56 288q-31 84 -107 152t-165 67q-131 0 -252 -99q-23 -4 -40 29t-7 59q115 82 262 82
q238 0 375 -268q88 -176 88 -458t-88 -480q-131 -297 -367 -297q-156 1 -248 105t-92 284t109 316q51 63 131 103t166 40z" />
    <glyph glyph-name="Delta" unicode="&#x2206;" horiz-adv-x="1187" 
d="M973 72l-414 1091l-407 -1091h821zM1116 0h-1048v33l491 1296l53 19l504 -1315v-33z" />
    <glyph glyph-name="product" unicode="&#x220f;" horiz-adv-x="1265" 
d="M1210 1327v-41q-120 -8 -146 -24t-26 -80v-1182q0 -78 27 -98t141 -29v-41h-446v41q120 7 144 25t24 102v1217q0 37 -12 47t-52 10h-465q-41 0 -52 -8t-11 -41v-1225q0 -80 22 -99t131 -28v-41h-430v41q115 7 141 27t25 100v1182q0 63 -25 79q-26 15 -147 25v41h1157z
" />
    <glyph glyph-name="summation" unicode="&#x2211;" horiz-adv-x="1038" 
d="M639 1276h-422l381 -641l-432 -703h522q125 0 165 35t95 199l41 -12l-76 -324h-858v35l437 700l-424 727v35h845l23 -291l-41 -8q-23 137 -59 193q-18 33 -56 44t-141 11z" />
    <glyph glyph-name="minus" unicode="&#x2212;" 
d="M94 383v106h875v-106h-875z" />
    <glyph glyph-name="uni2215" unicode="&#x2215;" horiz-adv-x="342" 
d="M547 1391h78q-163 -183 -393 -661t-295 -781l-109 -41q40 240 308 782t411 701z" />
    <glyph glyph-name="uni2219" unicode="&#x2219;" horiz-adv-x="530" 
d="M182 436q0 37 24 60q24 22 60 22t61 -22q23 -22 23 -60t-24 -60t-60 -22t-60 22t-24 60z" />
    <glyph glyph-name="radical" unicode="&#x221a;" horiz-adv-x="1032" 
d="M991 1722l-305 -1984l-29 -19l-419 1065l-164 -82l-19 54l260 127l349 -901h4l262 1759z" />
    <glyph glyph-name="infinity" unicode="&#x221e;" horiz-adv-x="1433" 
d="M1063 758h-2q-75 0 -142 -56t-106 -101q-39 -44 -47 -52q106 -117 168 -163t139 -46q78 0 129 61t51 151t-53 148t-137 58zM377 340h4q86 0 164 73q54 49 89 86q34 38 40 44q-63 77 -91 107t-90 69t-137 39q-74 0 -126 -62t-52 -151q0 -88 55 -147q56 -58 144 -58z
M1337 553v-2q0 -127 -83 -208t-181 -81t-174 52t-180 171q-63 -73 -103 -111t-110 -75q-68 -37 -139 -37q-113 0 -193 82t-80 204t81 204t189 82t189 -60q80 -60 172 -166q55 63 77 86q94 98 155 118q61 21 116 22q119 0 191 -78t73 -203z" />
    <glyph glyph-name="integral" unicode="&#x222b;" horiz-adv-x="675" 
d="M562 1497q-28 0 -50 34t-46 34q-58 0 -85 -132q-16 -81 -10 -210l32 -758q24 -514 -61 -684q-41 -82 -86 -113q-46 -30 -100 -30t-80 22t-28 52q-1 30 22 49q22 19 50 19t50 -34q22 -35 43 -35q47 0 74 96q26 96 18 250l-35 807q-20 459 60 623q71 149 184 147
q49 0 80 -20t32 -52q0 -32 -18 -48t-46 -17z" />
    <glyph glyph-name="approxequal" unicode="&#x2248;" horiz-adv-x="1038" 
d="M715 279q-63 0 -112 23q-48 23 -132 70t-145 48q-100 0 -187 -141l-55 45q41 82 107 128q67 46 135 46t106 -18q39 -18 73 -36q153 -88 212 -88t98 33t82 107l53 -45q-86 -172 -235 -172zM715 586q-67 0 -134 35q-26 12 -83 43q-104 61 -172 61q-98 0 -187 -137l-55 43
q41 82 107 128q67 46 137 46t123 -26t77 -41q25 -15 43 -25q17 -11 25 -15t41 -19t86 -15t93 34t81 105l53 -45q-86 -172 -235 -172z" />
    <glyph glyph-name="notequal" unicode="&#x2260;" horiz-adv-x="1038" 
d="M942 756v-80h-328l-127 -275h455v-79h-489l-99 -218l-65 31l86 187h-281v79h316l125 275h-441v80h473l101 215l63 -31l-84 -184h295z" />
    <glyph glyph-name="lessequal" unicode="&#x2264;" horiz-adv-x="1038" 
d="M942 31h-846v82h846v-82zM938 190l-832 420v84l832 418v-98l-743 -359v-4l743 -364v-97z" />
    <glyph glyph-name="greaterequal" unicode="&#x2265;" horiz-adv-x="1038" 
d="M942 31h-846v82h846v-82zM106 1112l832 -420v-82l-832 -420v97l742 362v4l-742 361v98z" />
    <glyph glyph-name="lozenge" unicode="&#x25ca;" horiz-adv-x="1046" 
d="M858 643l-332 684h-4l-334 -682l334 -686h4zM950 643l-383 -774h-90l-383 774l385 778h90z" />
    </font>
</defs>
</svg>
