<?xml version="1.0" standalone="no"?>
<!DOCTYPE svg PUBLIC "-//W3C//DTD SVG 1.1//EN" "http://www.w3.org/Graphics/SVG/1.1/DTD/svg11.dtd" >
<svg xmlns="http://www.w3.org/2000/svg">
<metadata>
Created by FontPrep 20130207 at Sat Mar 12 16:03:48 2016
 By Matthew Higley
Copyright (c) 2015 Monotype Imaging Inc.  All rights reserved.
</metadata>
<defs>
<font id="f1886ed3f4201a9b1f9ba485f5b05110" horiz-adv-x='1024' >
  <font-face 
    font-family="NeueHaasUnicaW1G-MediumIt"
    font-weight="500"
    font-style="italic"
    font-stretch="normal"
    units-per-em="2048"
    panose-1="2 11 6 4 3 2 6 9 2 3"
    ascent="1565"
    descent="-483"
    x-height="1040"
    cap-height="1458"
    bbox="-1280 -563 2517 2261"
    underline-thickness="102"
    underline-position="-153"
    slope="-14"
    unicode-range="U+0020-FEFF"
  />
<missing-glyph horiz-adv-x="1296" 
d="M512 133v209h227v-209h-227zM1006 1020q0 -86 -31 -146t-107 -128t-114.5 -121t-38.5 -193h-178q-2 20 -2 98t28.5 141.5t107.5 140.5t98 114t19 94t-36.5 92t-104.5 35q-156 0 -162 -182h-213q4 176 101.5 268t268.5 92t267.5 -83t96.5 -222zM154 1319v-1180
q0 -72 42 -114.5t113 -42.5h678q72 0 114 43t42 114v1180q0 72 -42 115t-114 43h-678q-71 0 -113 -43t-42 -115zM1257 1319v-1180q0 -125 -72.5 -198.5t-197.5 -73.5h-678q-125 0 -198.5 73.5t-73.5 198.5v1180q0 127 73.5 199.5t198.5 72.5h678q125 0 197.5 -73.5
t72.5 -198.5z" />
    <glyph glyph-name="f_f" unicode="ff" horiz-adv-x="1259" 
d="M1376 1294q-80 0 -127 -43t-71 -141l-17 -70h199l-45 -178h-199l-215 -862h-231l215 862h-367l-215 -862h-231l215 862h-178l45 178h178l33 131q74 302 376 302q72 0 131 -19l-43 -168q-25 8 -51 8q-80 0 -127 -43t-71 -141l-17 -70h367l33 131q74 302 376 302
q74 -1 129 -19l-41 -168q-25 8 -51 8z" />
    <glyph glyph-name="f_f_i" unicode="ffi" horiz-adv-x="1792" 
d="M1376 1294q-80 0 -127 -43t-71 -141l-17 -70h199l-45 -178h-199l-215 -862h-231l215 862h-367l-215 -862h-231l215 862h-178l45 178h178l33 131q74 302 376 302q72 0 131 -19l-43 -168q-25 8 -51 8q-80 0 -127 -43t-71 -141l-17 -70h367l33 131q74 302 376 302
q74 -1 129 -19l-41 -168q-25 8 -51 8zM1280 0l258 1040h234l-259 -1040h-233zM1587 1235l55 223h234l-55 -223h-234z" />
    <glyph glyph-name="f_f_l" unicode="ffl" horiz-adv-x="1792" 
d="M1376 1294q-80 0 -127 -43t-71 -141l-17 -70h199l-45 -178h-199l-215 -862h-231l215 862h-367l-215 -862h-231l215 862h-178l45 178h178l33 131q74 302 376 302q72 0 131 -19l-43 -168q-25 8 -51 8q-80 0 -127 -43t-71 -141l-17 -70h367l33 131q74 302 376 302
q74 -1 129 -19l-41 -168q-25 8 -51 8zM1280 0l362 1458h234l-363 -1458h-233z" />
    <glyph glyph-name="f_i" unicode="fi" horiz-adv-x="1193" 
d="M778 1294q-80 0 -127 -43t-71 -141l-17 -70h199l-45 -178h-199l-215 -862h-231l215 862h-178l45 178h178l33 131q74 302 376 302q72 -1 131 -19l-43 -168q-25 8 -51 8zM682 0l258 1040h234l-259 -1040h-233zM989 1235l55 223h234l-55 -223h-234z" />
    <glyph glyph-name="f_l" unicode="fl" horiz-adv-x="1193" 
d="M778 1294q-80 0 -127 -43t-71 -141l-17 -70h199l-45 -178h-199l-215 -862h-231l215 862h-178l45 178h178l33 131q74 302 376 302q72 -1 131 -19l-43 -168q-25 8 -51 8zM682 0l362 1458h234l-363 -1458h-233z" />
    <glyph glyph-name=".notdef" horiz-adv-x="1296" 
d="M512 133v209h227v-209h-227zM1006 1020q0 -86 -31 -146t-107 -128t-114.5 -121t-38.5 -193h-178q-2 20 -2 98t28.5 141.5t107.5 140.5t98 114t19 94t-36.5 92t-104.5 35q-156 0 -162 -182h-213q4 176 101.5 268t268.5 92t267.5 -83t96.5 -222zM154 1319v-1180
q0 -72 42 -114.5t113 -42.5h678q72 0 114 43t42 114v1180q0 72 -42 115t-114 43h-678q-71 0 -113 -43t-42 -115zM1257 1319v-1180q0 -125 -72.5 -198.5t-197.5 -73.5h-678q-125 0 -198.5 73.5t-73.5 198.5v1180q0 127 73.5 199.5t198.5 72.5h678q125 0 197.5 -73.5
t72.5 -198.5z" />
    <glyph glyph-name=".null" horiz-adv-x="0" 
 />
    <glyph glyph-name="nonmarkingreturn" horiz-adv-x="681" 
 />
    <glyph glyph-name="NULL" horiz-adv-x="1228" 
 />
    <glyph glyph-name="NULL" horiz-adv-x="1228" 
 />
    <glyph glyph-name="space" unicode=" " horiz-adv-x="471" 
 />
    <glyph glyph-name="exclam" unicode="!" horiz-adv-x="614" 
d="M45 0l61 244h265l-62 -244h-264zM180 383l215 1075h289l-319 -1075h-185z" />
    <glyph glyph-name="quotedbl" unicode="&#x22;" horiz-adv-x="827" 
d="M254 909l111 549h223l-164 -549h-170zM596 909l111 549h223l-164 -549h-170z" />
    <glyph glyph-name="numbersign" unicode="#" horiz-adv-x="1351" 
d="M651 842l-123 -299h263l122 299h-262zM991 543h221l-69 -170h-221l-152 -373h-201l152 373h-262l-152 -373h-201l152 373h-223l69 170h224l123 299h-226l70 170h225l150 368h200l-149 -368h262l150 368h200l-149 -368h219l-70 -170h-219z" />
    <glyph glyph-name="dollar" unicode="$" horiz-adv-x="1189" 
d="M848 398q0 62 -40 103.5t-126 76.5l-107 -424q92 6 154 41.5t90.5 88t28.5 114.5zM453 1026q0 -72 34.5 -113t112.5 -73l96 389q-111 -8 -177 -69.5t-66 -133.5zM1200 1065q0 -55 -14 -111h-219q8 35 8 80q0 145 -133 183l-107 -426q111 -39 225.5 -106.5t114.5 -268.5
q0 -104 -62.5 -205.5t-186.5 -169.5t-296 -70l-43 -174h-147l45 185q-162 25 -248 115.5t-86 240.5q0 57 12 119h226q-12 -53 -13 -95q0 -162 156 -198l115 463q-156 57 -237 134t-81 222q0 98 59.5 196.5t175.5 163t277 66.5l39 156h148l-41 -166q313 -46 313 -334z" />
    <glyph glyph-name="percent" unicode="%" horiz-adv-x="1814" 
d="M1214 258q0 -143 93 -143q63 0 109 61.5t68.5 147.5t22.5 153q0 141 -92 141q-65 0 -110 -61t-68 -145t-23 -154zM1696 490q0 -128 -45 -246.5t-135.5 -196.5t-220.5 -78t-200.5 74t-70.5 202t45 245.5t135 195.5t221 78t201 -73t70 -201zM395 905q0 -143 92 -143
q66 0 111 61.5t67.5 146.5t22.5 154q0 141 -92 142q-66 0 -111 -61.5t-67.5 -145.5t-22.5 -154zM877 1138q0 -128 -45.5 -247t-135.5 -197t-220 -78t-200.5 74t-70.5 202t45 245.5t135 195.5t221 78t201 -72.5t70 -200.5zM299 -61l1147 1503h153l-1146 -1503h-154z" />
    <glyph glyph-name="ampersand" unicode="&#x26;" horiz-adv-x="1521" 
d="M317 366q0 -87 66 -140.5t184 -53.5q162 0 316 123l-291 383q-152 -70 -213.5 -147.5t-61.5 -164.5zM958 1166q0 128 -150 128q-77 0 -125 -58t-48 -116t17.5 -104.5t60.5 -118.5q135 68 190 138.5t55 130.5zM410 1090q0 108 50 196t149 145.5t247 57.5t237 -81t89 -211
t-85 -235.5t-280 -199.5l232 -305q115 143 172 362h233q-79 -315 -280 -528l219 -291h-287l-111 147q-94 -84 -221 -131t-258 -47q-217 0 -332.5 97.5t-115.5 258.5t105.5 294t328.5 212q-92 151 -92 259z" />
    <glyph glyph-name="quotesingle" unicode="'" horiz-adv-x="485" 
d="M254 909l111 549h223l-164 -549h-170z" />
    <glyph glyph-name="parenleft" unicode="(" horiz-adv-x="634" 
d="M324 219q0 -238 45 -520h-189q-96 299 -96 602t133 620.5t399 596.5h205q-252 -322 -374.5 -655t-122.5 -644z" />
    <glyph glyph-name="parenright" unicode=")" horiz-adv-x="634" 
d="M354 970q0 284 -45 548h189q96 -299 96 -602.5t-133 -621t-400 -595.5h-204q252 321 374.5 654t122.5 617z" />
    <glyph glyph-name="asterisk" unicode="*" horiz-adv-x="854" 
d="M924 1221l12 -183l-277 15l132 -242l-170 -70l-72 271l-191 -205l-116 141l229 152l-250 114l96 158l218 -174l36 277l177 -43l-99 -263z" />
    <glyph glyph-name="plus" unicode="+" horiz-adv-x="1159" 
d="M1022 741v-186h-350v-348h-185v348h-350v186h350v351h185v-351h350z" />
    <glyph glyph-name="comma" unicode="," horiz-adv-x="495" 
d="M43 -324h-145l176 324h-90l71 291h269l-70 -291z" />
    <glyph glyph-name="hyphen" unicode="-" horiz-adv-x="634" 
d="M57 502l47 192h512l-47 -192h-512z" />
    <glyph glyph-name="period" unicode="." horiz-adv-x="495" 
d="M-16 0l71 291h269l-70 -291h-270z" />
    <glyph glyph-name="slash" unicode="/" horiz-adv-x="978" 
d="M-115 -182l1030 1708h209l-1030 -1708h-209z" />
    <glyph glyph-name="zero" unicode="0" horiz-adv-x="1189" 
d="M936 907q0 297 -186 297q-127 0 -220.5 -128t-141.5 -303t-48 -304q0 -297 184 -297q129 0 222.5 127t141.5 302t48 306zM1184 932q0 -224 -77 -443t-230.5 -369.5t-363.5 -150.5q-419 0 -419 498q0 203 77 423t229.5 370.5t362.5 150.5t315.5 -127.5t105.5 -351.5z" />
    <glyph glyph-name="one" unicode="1" horiz-adv-x="1189" 
d="M397 0l244 971h-324l45 176q168 0 262.5 54t143.5 179h215l-344 -1380h-242z" />
    <glyph glyph-name="two" unicode="2" horiz-adv-x="1189" 
d="M1178 1060q0 -161 -112 -285t-373 -256t-314 -196.5t-70 -121.5h697l-48 -201h-991q31 166 95.5 280.5t178 206t281.5 174.5t250 139t117 113t35 131t-45 118t-131 44q-209 0 -277 -243h-248q55 215 199 331.5t340 116.5t306 -95t110 -256z" />
    <glyph glyph-name="three" unicode="3" horiz-adv-x="1189" 
d="M1186 1065q0 -123 -78 -221.5t-246 -151.5v-4q184 -78 185 -276q0 -104 -61.5 -207t-183.5 -169.5t-316 -66.5t-310.5 92.5t-116.5 268.5q0 49 13 104h241q-10 -55 -10 -84q0 -178 217 -178q88 0 152.5 36t98.5 91t34 111q0 184 -250 184h-47l49 199h45q115 0 191.5 37.5
t113.5 94.5t37 125t-53 113t-155 45t-174.5 -62.5t-102.5 -187.5h-244q49 213 193.5 333t349.5 120t316.5 -92t111.5 -254z" />
    <glyph glyph-name="four" unicode="4" horiz-adv-x="1189" 
d="M700 526l43 179l17 61q66 252 112 410h-4q-211 -242 -399 -441l-201 -209h432zM1145 526l-49 -194h-209l-82 -332h-242l84 332h-661l57 227l768 821h338l-213 -854h209z" />
    <glyph glyph-name="five" unicode="5" horiz-adv-x="1189" 
d="M705 913q163 0 264.5 -105.5t101.5 -285.5q0 -127 -69.5 -255t-202.5 -213t-324 -85t-302.5 85t-111.5 237q0 43 9 82h243q-4 -16 -4 -47q0 -74 54.5 -114t151.5 -40t167 51t103.5 128t33.5 166t-52.5 144.5t-144.5 55.5q-181 0 -260 -170l-235 16l283 817h823l-49 -200
h-629l-121 -346h4q104 79 267 79z" />
    <glyph glyph-name="six" unicode="6" horiz-adv-x="1189" 
d="M344 376q0 -87 50 -145.5t144 -58.5t159 49t98.5 122t33.5 159t-49 147.5t-140 61.5t-158.5 -49.5t-102.5 -124t-35 -161.5zM711 901q172 0 272 -109.5t100 -295.5q0 -117 -66.5 -240t-192.5 -205t-312 -82t-292.5 118t-106.5 337t80.5 446.5t236.5 384t360 156.5
t309 -92t105 -254q0 -33 -2 -51h-244l3 26q0 168 -175 168q-121 0 -226 -106.5t-167 -319.5h4q142 119 314 119z" />
    <glyph glyph-name="seven" unicode="7" horiz-adv-x="1189" 
d="M835.5 640q-192.5 -302 -335.5 -640h-283q170 371 373 674t393 500h-733l51 206h989l-51 -211q-211 -227 -403.5 -529z" />
    <glyph glyph-name="eight" unicode="8" horiz-adv-x="1189" 
d="M305 347q0 -73 60.5 -123t160.5 -50t166 38t99.5 94t33.5 130t-61.5 125t-161.5 51t-165.5 -37.5t-98.5 -96t-33 -131.5zM477 972q0 -68 56.5 -115.5t150.5 -47.5t153.5 35t89 87t29.5 101q0 84 -55 131t-149 47t-153.5 -33.5t-90.5 -85t-31 -119.5zM1057 393
q0 -102 -62.5 -199.5t-186.5 -161t-314 -63.5t-311.5 102.5t-121.5 282.5q0 131 93.5 237.5t265.5 143.5v4q-80 41 -124 112t-44 163t61.5 184t178 152.5t294.5 60.5t294 -94t116 -254q0 -127 -85 -228.5t-241 -140.5v-4q187 -85 187 -297z" />
    <glyph glyph-name="nine" unicode="9" horiz-adv-x="1189" 
d="M903 1004q0 86 -50 145t-143 59t-159 -49t-99.5 -121.5t-33.5 -159.5t49 -147.5t140 -60.5t159 49t102.5 124t34.5 161zM164 885q0 117 66.5 239.5t193 204.5t312.5 82t292.5 -117.5t106.5 -337.5t-81 -446.5t-236.5 -383.5t-359.5 -157t-309.5 92.5t-105.5 253.5
q0 33 2 52h244l-2 -27q0 -168 174 -168q121 0 226.5 106.5t166.5 319.5h-4q-142 -119 -313 -119q-172 0 -272.5 109.5t-100.5 296.5z" />
    <glyph glyph-name="colon" unicode=":" horiz-adv-x="495" 
d="M-16 0l71 291h269l-70 -291h-270zM170 750l72 290h268l-70 -290h-270z" />
    <glyph glyph-name="semicolon" unicode=";" horiz-adv-x="495" 
d="M43 -324h-145l176 324h-90l71 291h269l-70 -291zM170 750l72 290h268l-70 -290h-270z" />
    <glyph glyph-name="less" unicode="&#x3c;" horiz-adv-x="1159" 
d="M354 651v-4l668 -270v-205l-885 369v217l885 368v-204z" />
    <glyph glyph-name="equal" unicode="=" horiz-adv-x="1159" 
d="M137 373v186h885v-186h-885zM137 737v187h885v-187h-885z" />
    <glyph glyph-name="greater" unicode="&#x3e;" horiz-adv-x="1159" 
d="M1022 541l-885 -369v205l668 270v4l-668 271v204l885 -368v-217z" />
    <glyph glyph-name="question" unicode="?" horiz-adv-x="1089" 
d="M254 0l59 244h265l-60 -244h-264zM1153 1133q0 -113 -63.5 -205t-197.5 -181t-183.5 -135.5t-78 -101.5t-52.5 -150h-201q27 131 59.5 206t88 132.5t177.5 143.5t164.5 149t42.5 135t-50 114t-142 42q-217 0 -277 -235h-243q53 215 189 327.5t338 112.5t315.5 -94.5
t113.5 -259.5z" />
    <glyph glyph-name="at" unicode="@" horiz-adv-x="1781" 
d="M1085 739q0 144 -116 144q-84 0 -151.5 -67.5t-105.5 -163t-38 -210t121 -114.5q80 0 147.5 70.5t105 170t37.5 170.5zM1194 383q0 -74 76 -74q98 0 169.5 76t108.5 188.5t37 217.5q0 227 -149.5 357t-404.5 130t-429 -129t-262 -320.5t-88 -371.5q0 -254 133 -393.5
t387 -139.5t459 111l53 -135q-238 -129 -514 -129q-319 0 -496.5 178t-177.5 500q0 217 111.5 446t323.5 383t497 154q221 0 382 -77t245 -220.5t84 -321.5t-63.5 -327.5t-181.5 -244t-275 -94.5q-100 0 -150.5 46.5t-46.5 130.5h-4q-123 -176 -301 -177q-121 0 -185.5 79.5
t-64.5 217.5t63.5 280t175 239.5t252.5 97.5q184 0 216 -174h4q18 51 65 153h191q-240 -536 -240 -657z" />
    <glyph glyph-name="A" unicode="A" horiz-adv-x="1406" 
d="M961 723q-25 268 -46 580h-4q-156 -283 -329 -580l-68 -115h457zM387 395l-233 -395h-275l893 1458h330l168 -1458h-242l-37 395h-604z" />
    <glyph glyph-name="B" unicode="B" horiz-adv-x="1306" 
d="M629 205q174 0 248.5 72.5t74.5 174.5t-59 146.5t-191 44.5h-245l-109 -438h281zM760 840q176 0 251.5 71.5t75.5 165.5t-59 136t-186 42h-234l-102 -415h254zM1335 1149q0 -139 -82 -251t-258 -163v-4q201 -49 201 -278q0 -111 -62.5 -214.5t-189.5 -171t-311 -67.5
h-582l363 1458h460q232 0 346.5 -85t114.5 -224z" />
    <glyph glyph-name="C" unicode="C" horiz-adv-x="1425" 
d="M1432 1018q0 -49 -9 -88h-247q4 41 4 63q0 127 -75 202t-222.5 75t-266 -107.5t-179 -270.5t-60.5 -330t79 -270.5t217 -103.5t246.5 78t159.5 211h252q-76 -238 -255 -373t-425 -135t-387 158t-141 426q0 219 91 435t272.5 358.5t435.5 142.5q155 0 271 -58.5
t177.5 -165t61.5 -247.5z" />
    <glyph glyph-name="D" unicode="D" horiz-adv-x="1492" 
d="M590 213q213 0 352 92t203.5 230.5t64.5 283.5q0 426 -440 426h-164l-258 -1032h242zM1464 834q0 -203 -97 -394.5t-297 -315.5t-492 -124h-527l363 1458h366q338 0 511 -159.5t173 -464.5z" />
    <glyph glyph-name="E" unicode="E" horiz-adv-x="1280" 
d="M606 1245l-96 -395h684l-55 -211h-684l-107 -426h750l-51 -213h-996l363 1458h975l-54 -213h-729z" />
    <glyph glyph-name="F" unicode="F" horiz-adv-x="1185" 
d="M606 1245l-112 -448h651l-53 -211h-650l-145 -586h-246l363 1458h944l-53 -213h-699z" />
    <glyph glyph-name="G" unicode="G" horiz-adv-x="1509" 
d="M1473 1047q0 -33 -7 -68h-262q2 12 2 33q0 125 -72.5 191.5t-205.5 66.5q-174 0 -299 -108.5t-189.5 -274.5t-64.5 -339t78.5 -274.5t230.5 -101.5t272.5 97.5t169.5 281.5h-374l51 205h604l-188 -756h-211l36 147h-4q-74 -80 -186.5 -127t-237.5 -47q-231 0 -361 156
t-130 399.5t96 461.5t285.5 358.5t442.5 140.5t388.5 -119t135.5 -323z" />
    <glyph glyph-name="H" unicode="H" horiz-adv-x="1523" 
d="M969 0l161 651h-671l-162 -651h-246l363 1458h245l-147 -594h672l147 594h244l-363 -1458h-243z" />
    <glyph glyph-name="I" unicode="I" horiz-adv-x="606" 
d="M51 0l363 1458h245l-362 -1458h-246z" />
    <glyph glyph-name="J" unicode="J" horiz-adv-x="765" 
d="M37 -12q-72 0 -135 18l53 209q41 -10 78 -10q125 0 197.5 63.5t113.5 231.5l240 958h245l-262 -1046q-53 -215 -184 -319.5t-346 -104.5z" />
    <glyph glyph-name="K" unicode="K" horiz-adv-x="1318" 
d="M1182 0h-291l-412 721h-4l-178 -721h-246l363 1458h245l-157 -631h4l661 631h324l-770 -704z" />
    <glyph glyph-name="L" unicode="L" horiz-adv-x="1163" 
d="M1065 213l-51 -213h-963l363 1458h245l-311 -1245h717z" />
    <glyph glyph-name="M" unicode="M" horiz-adv-x="1964" 
d="M1417 0l182 733q68 276 148 553h-4q-160 -287 -316 -549l-434 -737h-280l-68 737q-27 305 -41 549h-4q-61 -276 -129 -553l-182 -733h-238l363 1458h379l63 -694q29 -322 37 -549h4q137 272 301 549l408 694h411l-362 -1458h-238z" />
    <glyph glyph-name="N" unicode="N" horiz-adv-x="1568" 
d="M926 0l-172 610q-92 319 -168 627h-4q-82 -387 -152 -664l-141 -573h-238l363 1458h331l175 -610q92 -326 167 -627h5q72 354 149 664l143 573h236l-363 -1458h-331z" />
    <glyph glyph-name="O" unicode="O" horiz-adv-x="1515" 
d="M377 570.5q0 -168.5 88 -275.5t249 -107t281.5 105.5t184 265.5t63.5 328.5t-89 275.5t-251 107t-281.5 -105.5t-182 -265.5t-62.5 -328.5zM1491 860q0 -201 -92 -409.5t-271.5 -345t-422.5 -136.5q-182 0 -311.5 76t-197 214t-67.5 339t91 410t269.5 345t423.5 136
q181 0 311 -76t198.5 -214t68.5 -339z" />
    <glyph glyph-name="P" unicode="P" horiz-adv-x="1282" 
d="M1096 1028q0 223 -262 223h-226l-125 -497h293q111 0 182.5 41t104.5 103.5t33 129.5zM1346 1047q0 -119 -61.5 -234t-190.5 -190.5t-320 -75.5h-342l-135 -547h-246l363 1458h436q246 0 371 -108.5t125 -302.5z" />
    <glyph glyph-name="Q" unicode="Q" horiz-adv-x="1515" 
d="M1251 892q0 162 -90 270t-253 108t-283.5 -106.5t-184 -268t-63.5 -331.5t89 -278t251 -108q100 0 186 41l-155 238l159 104l148 -227q94 102 145 249t51 309zM694 -31q-178 0 -306 74t-195.5 208.5t-67.5 334.5t93 413t274.5 351.5t431.5 138.5q178 0 307 -74
t196.5 -209.5t67.5 -327.5t-83 -394.5t-236 -336.5l116 -178l-157 -104l-117 178q-146 -74 -324 -74z" />
    <glyph glyph-name="R" unicode="R" horiz-adv-x="1337" 
d="M756 786q115 0 187.5 42t105 103.5t32.5 123.5q0 201 -229 200h-242l-118 -469h264zM895 1458q444 0 444 -348q0 -90 -43 -179t-126 -156.5t-199 -94.5v-4q63 -25 95 -84.5t50 -192.5l53 -399h-251l-41 367q-16 123 -64.5 171t-159.5 48h-211l-145 -586h-246l363 1458
h481z" />
    <glyph glyph-name="S" unicode="S" horiz-adv-x="1269" 
d="M799 1489q481 0 481 -369q0 -45 -16 -110h-248q8 35 8 73q0 100 -64.5 152.5t-170 52.5t-170 -29.5t-98.5 -77.5t-34 -117t62.5 -116t202 -93t219.5 -89q180 -97 180 -328q0 -113 -68.5 -221t-204 -178t-323.5 -70q-244 0 -377 100.5t-133 290.5q0 61 14 121h252
q-10 -55 -10 -90q0 -219 279 -219q106 0 176.5 36t103.5 89t33 111t-29.5 98.5t-82 67t-170 68.5t-197.5 84q-183 96 -183 318q0 104 65.5 207t195 170.5t307.5 67.5z" />
    <glyph glyph-name="T" unicode="T" horiz-adv-x="1243" 
d="M926 1245l-312 -1245h-243l309 1245h-479l53 213h1202l-53 -213h-477z" />
    <glyph glyph-name="U" unicode="U" horiz-adv-x="1458" 
d="M410 440q0 -252 258 -252q141 0 238.5 87t140.5 253l231 930h244l-246 -989q-62 -244 -224.5 -372t-399 -128t-361.5 119t-125 338q0 86 29 201l206 831h246l-217 -874q-20 -76 -20 -144z" />
    <glyph glyph-name="V" unicode="V" horiz-adv-x="1292" 
d="M362 0l-116 1458h235l47 -608q27 -338 33 -610h4q156 307 330 610l350 608h268l-839 -1458h-312z" />
    <glyph glyph-name="W" unicode="W" horiz-adv-x="1916" 
d="M1116 0l4 606q2 264 21 641h-4q-106 -248 -299 -641l-295 -606h-330l41 1458h229l-18 -561q-6 -227 -35 -657h4q131 295 311 659l275 559h321l-4 -559q-4 -389 -16 -659h4q125 293 293 657l260 561h252l-684 -1458h-330z" />
    <glyph glyph-name="X" unicode="X" horiz-adv-x="1282" 
d="M1141 0h-260l-211 551h-4l-469 -551h-316l674 758l-287 700h258l197 -528h4l442 528h310l-641 -725z" />
    <glyph glyph-name="Y" unicode="Y" horiz-adv-x="1282" 
d="M635 0h-246l146 586l-295 872h249l89 -289q39 -123 104 -376h4q125 178 289 376l229 289h303l-727 -872z" />
    <glyph glyph-name="Z" unicode="Z" horiz-adv-x="1175" 
d="M264 209h795l-51 -209h-1098l59 236l1010 1009v4h-731l53 209h1032l-59 -235l-1010 -1010v-4z" />
    <glyph glyph-name="bracketleft" unicode="[" horiz-adv-x="641" 
d="M584 1374l-381 -1536h235l-37 -143h-456l452 1823h457l-35 -144h-235z" />
    <glyph glyph-name="backslash" unicode="\" horiz-adv-x="968" 
d="M688 -182h-184l-193 1708h183z" />
    <glyph glyph-name="bracketright" unicode="]" horiz-adv-x="641" 
d="M100 -162l383 1536h-237l37 144h456l-452 -1823h-457l35 143h235z" />
    <glyph glyph-name="asciicircum" unicode="^" horiz-adv-x="968" 
d="M731 760l-246 514h-4l-245 -514h-216l340 698h248l340 -698h-217z" />
    <glyph glyph-name="underscore" unicode="_" horiz-adv-x="1024" 
d="M-188 -231l32 129h1024l-32 -129h-1024z" />
    <glyph glyph-name="grave" unicode="`" horiz-adv-x="667" 
d="M725 1163h-180l-207 295h283z" />
    <glyph glyph-name="a" unicode="a" horiz-adv-x="1103" 
d="M246 284q0 -134 157 -134q117 0 198 69.5t116 196.5l18 78q-115 -7 -248 -25q-241 -36 -241 -185zM614 901q-90 0 -151.5 -49t-77.5 -133h-231q33 154 159.5 253t314.5 99q382 0 382 -317q0 -63 -19 -138l-84 -342q-43 -172 -43 -274h-207q0 63 19 127h-4
q-143 -150 -357 -150q-150 0 -231.5 74t-81.5 202t106 225q153 141 664 167l6 25q12 43 13 80q0 151 -177 151z" />
    <glyph glyph-name="b" unicode="b" horiz-adv-x="1202" 
d="M362 406q0 -114 50.5 -182t148.5 -68t174 73.5t116 183t40 223.5t-50.5 181.5t-148.5 67.5t-174 -73t-116 -182.5t-40 -223.5zM782 1067q168 0 262.5 -106.5t94.5 -278.5t-66.5 -333t-194.5 -267.5t-300 -106.5q-104 0 -181.5 51.5t-103.5 139.5h-4l-41 -166h-228
l365 1458h233l-129 -516h5q120 125 288 125z" />
    <glyph glyph-name="c" unicode="c" horiz-adv-x="1122" 
d="M1081 694q0 -35 -4 -51h-241q4 20 4 39q0 94 -49.5 149.5t-145.5 55.5t-174 -76t-119 -186.5t-41 -222t52.5 -180t144.5 -68.5t164.5 61t105.5 160h246q-59 -182 -201.5 -294t-333 -112t-304 118t-113.5 325q0 150 68.5 303t203.5 254.5t326.5 101.5t301 -103.5
t109.5 -273.5z" />
    <glyph glyph-name="d" unicode="d" horiz-adv-x="1198" 
d="M311 404q0 -114 50.5 -181t147.5 -67t173 72.5t116 182t40 224.5t-50.5 182.5t-147.5 67.5t-173 -74t-116 -183.5t-40 -223.5zM422 -27q-172 0 -265.5 106.5t-93.5 278.5t67 333t194 267.5t299 106.5q102 0 176.5 -48t105.5 -132h4l142 573h233l-364 -1458h-228l27 104
h-4q-59 -61 -137 -96t-156 -35z" />
    <glyph glyph-name="e" unicode="e" horiz-adv-x="1150" 
d="M870 688q0 102 -57 156.5t-159.5 54.5t-187.5 -70.5t-128 -201.5h528q4 45 4 61zM291 373q0 -117 58.5 -174.5t153.5 -57.5t165.5 47.5t101.5 124.5h238q-59 -147 -197.5 -245.5t-332 -98.5t-301 114t-107.5 316q0 154 70.5 309.5t206.5 259t331 103.5t301 -109.5
t106 -299.5q0 -82 -24 -189h-760q-10 -61 -10 -100z" />
    <glyph glyph-name="f" unicode="f" horiz-adv-x="661" 
d="M778 1294q-80 0 -127 -43t-71 -141l-17 -70h199l-45 -178h-199l-215 -862h-231l215 862h-178l45 178h178l33 131q74 302 376 302q72 -1 131 -19l-43 -168q-25 8 -51 8z" />
    <glyph glyph-name="g" unicode="g" horiz-adv-x="1191" 
d="M319 438.5q0 -102.5 49.5 -168t144.5 -65.5t170 66.5t113 165t38 203t-53.5 169.5t-149.5 65t-167 -67.5t-108 -166.5t-37 -201.5zM203 -100q1 -123 199 -123q228 0 296 274l21 84h-4q-129 -123 -296 -123t-256 108.5t-89 277.5t64.5 319.5t186 251t285.5 100.5
q113 0 186.5 -53t106.5 -146h4l43 170h221l-256 -1034q-49 -199 -191 -300t-345 -101t-305.5 70.5t-102.5 201.5q0 27 6 57h228q-2 -12 -2 -34z" />
    <glyph glyph-name="h" unicode="h" 
d="M784 1065q160 0 242 -79t82 -226q0 -72 -21 -152l-151 -608h-234l150 604q16 63 16 121q0 152 -157 152q-104 0 -190.5 -78t-121.5 -221l-145 -578h-234l363 1458h233l-131 -524h4q135 131 295 131z" />
    <glyph glyph-name="i" unicode="i" horiz-adv-x="532" 
d="M20 0l259 1040h233l-258 -1040h-234zM328 1235l55 223h233l-55 -223h-233z" />
    <glyph glyph-name="j" unicode="j" horiz-adv-x="540" 
d="M-143 -389q-74 0 -136 16l43 174q23 -8 52 -8q84 0 134 47t79 164l258 1036h233l-276 -1110q-41 -163 -143.5 -241t-243.5 -78zM336 1235l55 223h234l-56 -223h-233z" />
    <glyph glyph-name="k" unicode="k" horiz-adv-x="1069" 
d="M958 0h-262l-309 516h-4l-129 -516h-234l363 1458h233l-206 -831h4l446 413h307l-553 -493z" />
    <glyph glyph-name="l" unicode="l" horiz-adv-x="532" 
d="M20 0l363 1458h233l-362 -1458h-234z" />
    <glyph glyph-name="m" unicode="m" horiz-adv-x="1802" 
d="M1413 1065q141 0 218 -75t77 -220q0 -66 -22 -162l-152 -608h-234l152 614q18 68 18 117q0 145 -143 146q-102 0 -179 -83t-114 -233l-141 -561h-234l158 635q14 57 14 111t-36.5 92.5t-106.5 38.5q-102 0 -181 -85t-114 -235l-139 -557h-234l259 1040h223l-27 -108h4
q133 133 293 133q229 0 275 -191q163 191 366 191z" />
    <glyph glyph-name="n" unicode="n" 
d="M797 1065q147 0 229 -78t82 -227q0 -72 -21 -152l-151 -608h-234l150 604q16 63 16 121q0 152 -157 152q-104 0 -190.5 -78t-121.5 -221l-145 -578h-234l261 1040h221l-31 -118h4q143 143 322 143z" />
    <glyph glyph-name="o" unicode="o" horiz-adv-x="1181" 
d="M313 405.5q0 -114.5 55.5 -183t163 -68.5t184.5 74.5t114.5 184t37.5 223.5t-55 182.5t-162.5 68.5t-184.5 -75t-115 -183.5t-38 -223zM1110 623q0 -150 -69.5 -301.5t-207 -252t-336 -100.5t-311 118t-112.5 331q0 150 69.5 301t203.5 251.5t334 100.5t314.5 -117.5
t114.5 -330.5z" />
    <glyph glyph-name="p" unicode="p" horiz-adv-x="1202" 
d="M362 406q0 -114 50.5 -182t148.5 -68t174 73.5t116 183t40 223.5t-50.5 181.5t-148.5 67.5t-174 -73t-116 -182.5t-40 -223.5zM1139 682q0 -172 -66.5 -333t-194.5 -267.5t-300 -106.5q-102 0 -177 48.5t-104 132.5h-4l-133 -535h-234l355 1419h227l-27 -104h4
q59 61 137 96t156 35q172 0 266.5 -106.5t94.5 -278.5z" />
    <glyph glyph-name="q" unicode="q" horiz-adv-x="1200" 
d="M311 406q0 -114 50.5 -182t148.5 -68t174 73.5t116 183t40 223.5t-51.5 181.5t-148.5 67.5t-173 -73t-116 -182.5t-40 -223.5zM419 -25q-167 0 -261.5 106.5t-94.5 278.5t67 333t194 267.5t299 106.5q104 0 180 -51t104 -142h4l41 166h228l-353 -1419h-233l119 477h-4
q-123 -123 -290 -123z" />
    <glyph glyph-name="r" unicode="r" horiz-adv-x="772" 
d="M752 846q-139 0 -234.5 -86t-136.5 -250l-127 -510h-234l259 1040h217l-33 -139h4q147 154 332 154q45 -1 86 -11l-51 -206q-39 8 -82 8z" />
    <glyph glyph-name="s" unicode="s" horiz-adv-x="1042" 
d="M760 770q0 131 -174 131q-90 0 -138.5 -37t-48.5 -92t41 -82.5t149.5 -63.5t168.5 -67q144 -74 145 -246q0 -88 -53 -166.5t-159.5 -128t-281 -49.5t-280.5 75t-106 218q0 47 10 80h235q-8 -41 -8 -57q0 -68 49 -105t144.5 -37t149.5 39t54 102.5t-48 95.5t-157.5 69
t-161.5 63q-126 64 -126 229q0 84 51 160t150.5 123t262.5 47t260 -71.5t97 -208.5q0 -39 -8 -74h-223q6 30 6 53z" />
    <glyph glyph-name="t" unicode="t" horiz-adv-x="694" 
d="M375 266q0 -88 112 -88q33 0 70 8l-47 -186q-53 -12 -100 -12q-143 0 -209 56t-66 181q0 66 21 142l123 495h-175l43 178h177l63 260h234l-66 -260h203l-43 -178h-203l-127 -506q-10 -50 -10 -90z" />
    <glyph glyph-name="u" unicode="u" 
d="M422.5 -25q-162.5 0 -244.5 78t-82 228q0 72 21 151l151 608h234l-150 -604q-16 -63 -16 -121q0 -151 158 -151q104 0 190 77.5t121 221.5l145 577h234l-260 -1040h-222l31 119h-4q-144 -144 -306.5 -144z" />
    <glyph glyph-name="v" unicode="v" horiz-adv-x="1003" 
d="M219 0l-102 1040h229l29 -424q16 -254 22 -454h4q119 236 244 454l240 424h260l-623 -1040h-303z" />
    <glyph glyph-name="w" unicode="w" horiz-adv-x="1617" 
d="M1090 502q0 -168 -7 -340h4q96 240 205 461l199 417h244l-512 -1040h-334l2 430q0 221 6 449h-4q-98 -227 -209 -449l-213 -430h-334l4 1040h224l-11 -417q-8 -322 -14 -461h4q90 209 209 452l211 426h328l-2 -426v-112z" />
    <glyph glyph-name="x" unicode="x" horiz-adv-x="1011" 
d="M891 0h-248l-154 377h-4l-321 -377h-301l512 549l-228 491h246l142 -331h4l286 331h297l-475 -512z" />
    <glyph glyph-name="y" unicode="y" horiz-adv-x="999" 
d="M-30.5 -389q-96.5 0 -151.5 20l45 185q47 -14 117.5 -14.5t131 41.5t126.5 149l-121 1048h229l74 -774h4l455 774h262l-670 -1085q-82 -133 -157.5 -207t-161.5 -105.5t-182.5 -31.5z" />
    <glyph glyph-name="z" unicode="z" horiz-adv-x="974" 
d="M270 186h568l-47 -186h-865l51 205l709 645v4h-526l47 186h823l-51 -204l-709 -646v-4z" />
    <glyph glyph-name="braceleft" unicode="{" horiz-adv-x="655" 
d="M270 608q127 -52 127 -170q0 -58 -14 -114l-70 -281q-12 -53 -12 -103q0 -104 131 -108l-35 -141h-26q-150 0 -217.5 58t-67.5 181q0 51 20 148l66 262q14 61 14 86q0 94 -96 125l37 151q80 20 120 58.5t60 118.5l82 329q41 166 131 238t264 72h68l-35 -140
q-92 -4 -141 -43t-74 -135l-88 -348q-27 -102 -83 -157.5t-159 -80.5z" />
    <glyph glyph-name="bar" unicode="|" horiz-adv-x="579" 
d="M184 -420v1919h211v-1919h-211z" />
    <glyph glyph-name="braceright" unicode="}" horiz-adv-x="655" 
d="M299 784q0 45 14 101l70 282q12 53 12 103q0 103 -131 106l33 142h29q150 0 217 -58.5t67 -181.5q0 -57 -22 -148l-64 -262q-14 -61 -14 -84q0 -94 96 -127l-37 -151q-80 -20 -119.5 -58t-60.5 -118l-82 -330q-41 -166 -132 -237.5t-263 -71.5h-68l35 139q92 4 141.5 44
t73.5 136l86 346q27 102 83 157.5t161 82.5l2 6q-127 48 -127 182z" />
    <glyph glyph-name="asciitilde" unicode="~" horiz-adv-x="1206" 
d="M878 635q60 0 118.5 53t78.5 141h156q-43 -180 -148.5 -280t-238.5 -100q-84 0 -140.5 30.5t-117.5 83.5t-99 76t-98 23t-117 -52.5t-77 -140.5h-156q43 178 148.5 278.5t238.5 100.5q82 0 138.5 -31t115.5 -84t98.5 -75.5t99.5 -22.5z" />
    <glyph glyph-name="uni00A0" unicode="&#xa0;" horiz-adv-x="471" 
 />
    <glyph glyph-name="exclamdown" unicode="&#xa1;" horiz-adv-x="614" 
d="M432 657l-215 -1075h-289l322 1075h182zM567 1040l-59 -243h-264l59 243h264z" />
    <glyph glyph-name="cent" unicode="&#xa2;" horiz-adv-x="1189" 
d="M381 574q0 -186 108 -238l179 706q-88 -20 -153.5 -98t-99.5 -179t-34 -191zM907 844q0 139 -96 186l-176 -708q72 16 128 73.5t85 141.5h246q-57 -178 -194.5 -288t-313.5 -118l-45 -182h-148l49 196q-143 33 -222 145t-79 270t65.5 309t195.5 254.5t313 109.5l45 178
h147l-47 -190q139 -31 215 -127.5t76 -237.5q0 -35 -4 -53h-242q2 12 2 41z" />
    <glyph glyph-name="sterling" unicode="&#xa3;" horiz-adv-x="1189" 
d="M1010 1047q0 78 -43 118.5t-121 40.5q-190 0 -250 -239l-45 -185h252l-49 -198h-254l-27 -111q-27 -109 -70 -170t-116 -102v-4h743l-49 -197h-1061l49 199q96 0 161 63.5t99 208.5l29 113h-192l49 198h192l58 230q97 399 503 399q180 0 279.5 -87t99.5 -243
q0 -47 -12 -102h-234q9 50 9 68z" />
    <glyph glyph-name="currency" unicode="&#xa4;" horiz-adv-x="1189" 
d="M842 596q0 117 -66.5 188.5t-179.5 71.5t-180.5 -71.5t-67.5 -188.5t67.5 -188.5t180.5 -71.5t179.5 71.5t66.5 188.5zM597 152q-130 0 -230 53l-150 -160l-147 139l149 160q-68 109 -67.5 252t67.5 252l-149 160l147 139l150 -160q100 53 230 53t226 -55l150 162
l149 -139l-151 -160q68 -109 68 -252t-68 -252l151 -160l-149 -139l-150 162q-96 -55 -226 -55z" />
    <glyph glyph-name="yen" unicode="&#xa5;" horiz-adv-x="1189" 
d="M1110 725l-33 -133h-340l-24 -98h340l-33 -132h-340l-90 -362h-248l90 362h-340l33 132h340l24 98h-339l32 133h264l-208 655h249l58 -202q66 -236 100 -379h4q127 188 275 379l159 202h299l-536 -655h264z" />
    <glyph glyph-name="brokenbar" unicode="&#xa6;" horiz-adv-x="579" 
d="M184 -420v717h211v-717h-211zM184 782v717h211v-717h-211z" />
    <glyph glyph-name="section" unicode="&#xa7;" horiz-adv-x="1253" 
d="M397 690.5q0 -94.5 41 -142.5t122 -96t185 -112q70 33 111 91t41 117.5t-38.5 110t-106.5 88.5t-205 115q-150 -77 -150 -171.5zM1130 604q0 -247 -264 -381v-4q56 -57 56 -151t-53.5 -180.5t-159 -143.5t-275.5 -57t-273.5 72.5t-103.5 215.5q0 47 11 82h233
q-2 -16 -2 -45q0 -133 166 -133q94 0 153.5 48t59.5 118q0 41 -31 82t-191 130q-159 89 -225.5 161t-66.5 182t65.5 210.5t194.5 166.5v4q-49 57 -49 142t53 170t154.5 140.5t242.5 55.5q369 0 369 -299q0 -41 -4 -68h-234q4 29 5 41q0 133 -162 133q-80 0 -130.5 -45
t-50.5 -103t40 -91t158 -97t216 -134t98 -222z" />
    <glyph glyph-name="dieresis" unicode="&#xa8;" horiz-adv-x="837" 
d="M705 1235l55 223h209l-56 -223h-208zM283 1235l55 223h209l-55 -223h-209z" />
    <glyph glyph-name="copyright" unicode="&#xa9;" horiz-adv-x="1650" 
d="M819 1067q-103 0 -168 -91t-65 -248t64.5 -247t165.5 -90t160.5 55.5t70.5 149.5h176q-14 -164 -120.5 -258t-288.5 -94t-293 129t-111 355t112.5 356t295.5 130t286.5 -95t112.5 -251h-175q-8 90 -64 144.5t-159 54.5zM193 729.5q0 -194.5 78.5 -342t222 -228.5t332 -81
t333 81t223 228.5t78.5 342t-78.5 342t-223 228t-333 80.5t-332 -80.5t-222 -228t-78.5 -342zM1561 729q0 -223 -91.5 -395t-258.5 -266.5t-385 -94.5t-385 94.5t-259 266.5t-92 395t92 395t259 266.5t385 94.5t385 -94.5t258.5 -266.5t91.5 -395z" />
    <glyph glyph-name="ordfeminine" unicode="&#xaa;" horiz-adv-x="825" 
d="M496 997q-158 -25 -158 -114t118 -89q62 0 114 46q52 45 75 127l12 49q-69 -3 -161 -19zM696 1198q0 96 -118 96t-144 -116h-196q25 106 118 177q94 71 238 70q289 0 289 -227q0 -43 -13 -96l-55 -225q-31 -131 -29 -201h-182q4 55 10 80h-4q-98 -96 -250 -97
q-110 1 -168 53t-58 144t77 162q108 97 475 115q10 35 10 65z" />
    <glyph glyph-name="guillemotleft" unicode="&#xab;" horiz-adv-x="1019" 
d="M823 111h-198l-140 417l324 402h219l-328 -418zM434 111h-198l-140 417l324 402h219l-328 -418z" />
    <glyph glyph-name="logicalnot" unicode="&#xac;" horiz-adv-x="1159" 
d="M836 279v471h-699v188h885v-659h-186z" />
    <glyph glyph-name="uni00AD" unicode="&#xad;" horiz-adv-x="634" 
d="M57 502l47 192h512l-47 -192h-512z" />
    <glyph glyph-name="registered" unicode="&#xae;" horiz-adv-x="1206" 
d="M825 1102q0 90 -123 90h-102v-191h94q131 0 131 101zM950 1126q0 -142 -119 -174v-4q33 -8 53.5 -32.5t39.5 -75.5l67 -193h-133l-55 162q-14 49 -41 69.5t-76 20.5h-86v-252h-125v649h250q111 0 168 -49t57 -121zM272 962.5q0 -135.5 55.5 -238.5t155 -159.5
t230.5 -56.5t230 56.5t154.5 159.5t55.5 238.5t-55.5 239t-154.5 159.5t-230 56t-230.5 -56t-155 -159.5t-55.5 -239zM1225 962.5q0 -155.5 -63.5 -274.5t-180.5 -184.5t-268.5 -65.5t-268 65.5t-180 184.5t-63.5 274.5t63.5 275.5t180 185.5t268 65.5t268.5 -65.5
t180.5 -185.5t63.5 -275.5z" />
    <glyph glyph-name="macron" unicode="&#xaf;" horiz-adv-x="831" 
d="M285 1243l39 160h624l-39 -160h-624z" />
    <glyph glyph-name="degree" unicode="&#xb0;" horiz-adv-x="673" 
d="M375 1218q0 -56 39 -95.5t95 -39.5t96 39.5t40 95.5t-40 95t-96 39t-95 -39t-39 -95zM770 1218q0 -70 -35 -131t-95 -96t-131 -35t-131.5 35t-96 95.5t-35.5 131.5t35.5 131t96 95t131.5 35t131 -35t95 -95.5t35 -130.5z" />
    <glyph glyph-name="plusminus" unicode="&#xb1;" horiz-adv-x="1159" 
d="M137 0v186h885v-186h-885zM1022 811v-186h-350v-336h-185v336h-350v186h350v334h185v-334h350z" />
    <glyph glyph-name="twosuperior" unicode="&#xb2;" horiz-adv-x="897" 
d="M1014 1412q0 -114 -81 -202t-243 -161t-216 -113.5t-71 -89.5h500l-39 -170h-747q31 180 122 284.5t265 184.5t234.5 131t60.5 117q0 106 -115 106q-135 0 -176 -158h-215q39 156 145 240t258 84t235 -69.5t83 -183.5z" />
    <glyph glyph-name="threesuperior" unicode="&#xb3;" horiz-adv-x="886" 
d="M1014 1417q0 -183 -230 -258v-2q131 -55 131 -190q0 -74 -46 -146.5t-135.5 -120t-237.5 -47.5t-236 66.5t-88 191.5q0 41 8 74h209q-6 -27 -6 -53q0 -113 143 -113q84 0 134.5 45t50.5 101q0 119 -168 118h-29l37 160h35q106 0 163.5 46.5t57.5 100.5q0 110 -140 109
q-140 0 -182 -160h-206q35 154 143 240t264 86t242 -66.5t86 -181.5z" />
    <glyph glyph-name="acute" unicode="&#xb4;" horiz-adv-x="665" 
d="M262 1163l230 295h305l-332 -295h-203z" />
    <glyph glyph-name="mu" unicode="&#xb5;" horiz-adv-x="1224" 
d="M963 -14q-173 0 -177 166h-4q-47 -76 -132 -121t-181 -45q-141 0 -197 94l-114 -459h-234l355 1419h233l-150 -600q-16 -70 -16 -110q0 -166 170 -166q98 0 180 79t117 222l141 575h234l-178 -721q-15 -48 -15 -83q0 -64 70 -64q25 0 51 6l-45 -180q-49 -12 -108 -12z
" />
    <glyph glyph-name="paragraph" unicode="&#xb6;" horiz-adv-x="1273" 
d="M217 1001q0 109 52.5 214.5t151.5 174t236 68.5h803l-41 -162h-164l-383 -1542h-174l385 1542h-174l-383 -1542h-174l213 858q-348 45 -348 389z" />
    <glyph glyph-name="periodcentered" unicode="&#xb7;" horiz-adv-x="495" 
d="M104 481l70 289h268l-69 -289h-269z" />
    <glyph glyph-name="cedilla" unicode="&#xb8;" horiz-adv-x="661" 
d="M207 -270q0 71 -84 71q-37 0 -68 -12l-37 35l158 176h113l-113 -125q18 6 61 6t82 -37.5t39 -111.5t-78.5 -131.5t-196.5 -57.5t-210 60l47 82q78 -43 148 -43t104.5 23.5t34.5 64.5z" />
    <glyph glyph-name="onesuperior" unicode="&#xb9;" horiz-adv-x="602" 
d="M295 676l162 649h-234l37 152q125 0 194.5 38.5t106.5 126.5h182l-241 -966h-207z" />
    <glyph glyph-name="ordmasculine" unicode="&#xba;" horiz-adv-x="878" 
d="M606 1270q-70 0 -119 -47t-73 -116t-25 -139q0 -70 36 -115q35 -44 105 -44t118 47t73 116t24 132q0 166 -139 166zM954 1100q0 -102 -50 -206t-149 -172q-99 -69 -248 -69t-236 86t-87 242q0 101 49 205t147 172t248 68q148 0 237 -87q89 -86 89 -239z" />
    <glyph glyph-name="guillemotright" unicode="&#xbb;" horiz-adv-x="1019" 
d="M586 930h198l140 -418l-324 -401h-219l328 417zM197 930h198l140 -418l-322 -401h-221l327 417z" />
    <glyph glyph-name="onequarter" unicode="&#xbc;" horiz-adv-x="1564" 
d="M229 553l136 543h-201l33 141q109 0 170 34t92 109h170l-207 -827h-193zM84 0l1116 1380h168l-1114 -1380h-170zM1178 328l22 94q27 119 70 246h-4q-86 -96 -156 -166l-51 -56l-117 -118h236zM1325 180l-45 -180h-190l45 180h-406l41 170l455 477h262l-125 -499h135
l-35 -148h-137z" />
    <glyph glyph-name="onehalf" unicode="&#xbd;" horiz-adv-x="1626" 
d="M229 553l136 543h-201l33 141q109 0 170 34t92 109h170l-207 -827h-193zM84 0l1116 1380h168l-1114 -1380h-170zM1563 629q0 -98 -71 -173q-71 -74 -211 -136t-185 -93t-58 -69h435l-37 -158h-662q25 160 104 250t231 160t204 108q51 39 51 87q0 93 -94 91
q-111 0 -146 -131h-200q33 137 127 210t228 73t209 -61q75 -60 75 -158z" />
    <glyph glyph-name="threequarters" unicode="&#xbe;" horiz-adv-x="1814" 
d="M125 758q0 31 6 63h197q-4 -29 -4 -45q0 -90 116 -90q72 0 112 36t40 81q0 94 -139 94h-27l37 145h29q88 0 135 37t47 82q0 90 -117 89t-149 -132h-191q29 133 125 208t234 75t215 -56q76 -56 75 -157q0 -156 -192 -219v-4q110 -42 108 -162q0 -63 -40 -126
q-94 -145 -328 -145q-132 0 -210 58t-79 168zM332 0l1116 1380h168l-1114 -1380h-170zM1425 328l23 94q27 119 70 246h-5q-86 -96 -155 -166l-51 -56l-117 -118h235zM1573 180l-45 -180h-191l45 180h-405l41 170l455 477h262l-125 -499h135l-35 -148h-137z" />
    <glyph glyph-name="questiondown" unicode="&#xbf;" horiz-adv-x="1024" 
d="M-63 -92q0 113 62.5 205t196.5 181t183 135t77.5 101.5t53.5 149.5h203q-27 -131 -59.5 -206t-88 -132t-178.5 -144t-165 -149.5t-42 -134.5t49.5 -114t141.5 -42q215 0 278 236h244q-53 -215 -189.5 -327.5t-339 -112.5t-315 94t-112.5 260zM836 1040l-62 -243h-264
l61 243h265z" />
    <glyph glyph-name="Agrave" unicode="&#xc0;" horiz-adv-x="1406" 
d="M961 723q-25 268 -46 580h-4q-156 -283 -329 -580l-68 -115h457zM387 395l-233 -395h-275l893 1458h330l168 -1458h-242l-37 395h-604zM938 1556l-207 291h283l102 -291h-178z" />
    <glyph glyph-name="Aacute" unicode="&#xc1;" horiz-adv-x="1406" 
d="M961 723q-25 268 -46 580h-4q-156 -283 -329 -580l-68 -115h457zM387 395l-233 -395h-275l893 1458h330l168 -1458h-242l-37 395h-604zM805 1556l229 291h305l-333 -291h-201z" />
    <glyph glyph-name="Acircumflex" unicode="&#xc2;" horiz-adv-x="1406" 
d="M961 723q-25 268 -46 580h-4q-156 -283 -329 -580l-68 -115h457zM387 395l-233 -395h-275l893 1458h330l168 -1458h-242l-37 395h-604zM1161 1847l160 -291h-197l-96 168l-180 -168h-246l307 291h252z" />
    <glyph glyph-name="Atilde" unicode="&#xc3;" horiz-adv-x="1406" 
d="M961 723q-25 268 -46 580h-4q-156 -283 -329 -580l-68 -115h457zM387 395l-233 -395h-275l893 1458h330l168 -1458h-242l-37 395h-604zM1141 1743q85 0 123 98h139q-35 -121 -106.5 -188.5t-166.5 -67.5q-49 0 -81.5 14.5t-73.5 40t-63.5 36t-49.5 10.5q-84 0 -119 -101
h-143q35 121 106.5 188.5t165.5 67.5q72 0 158 -53q39 -24 61.5 -34.5t49.5 -10.5z" />
    <glyph glyph-name="Adieresis" unicode="&#xc4;" horiz-adv-x="1406" 
d="M961 723q-25 268 -46 580h-4q-156 -283 -329 -580l-68 -115h457zM387 395l-233 -395h-275l893 1458h330l168 -1458h-242l-37 395h-604zM1073 1581l55 223h211l-57 -223h-209zM651 1581l56 223h211l-58 -223h-209z" />
    <glyph glyph-name="Aring" unicode="&#xc5;" horiz-adv-x="1406" 
d="M961 723q-25 268 -46 580h-4q-156 -283 -329 -580l-68 -115h457zM387 395l-233 -395h-275l893 1458h330l168 -1458h-242l-37 395h-604zM874 1751q0 -47 34 -81t81 -34t80 34t33 81t-33 81t-80 34t-81 -34t-34 -81zM1202 1751q0 -88 -62.5 -150.5t-151.5 -62.5
t-151.5 62.5t-62.5 150.5t62.5 150.5t151.5 62.5t151.5 -62.5t62.5 -150.5z" />
    <glyph glyph-name="AE" unicode="&#xc6;" horiz-adv-x="1947" 
d="M1032 1257l-448 -634h413l66 634h-31zM1251 850h609l-54 -211h-579l-43 -426h581l-51 -213h-780l43 414h-541l-291 -414h-286l1059 1458h1138l-53 -213h-713z" />
    <glyph glyph-name="Ccedilla" unicode="&#xc7;" horiz-adv-x="1425" 
d="M649 -270q0 71 -84 71q-37 0 -67 -12l-37 35l133 147q-223 20 -347 175t-124 390.5t91 451.5t272.5 358.5t435.5 142.5q156 0 271.5 -58.5t177 -165t61.5 -247.5q0 -49 -9 -88h-247q4 40 4 63q0 127 -75 202t-222.5 75t-266 -107.5t-179 -270.5t-60.5 -330t79 -270.5
t217 -103.5t246.5 78t159.5 211h252q-72 -227 -237.5 -360t-388.5 -146l-87 -96q18 6 61.5 6t82.5 -38t39 -111.5t-79 -131t-197 -57.5t-210 60l47 82q78 -43 147.5 -43t104.5 23.5t35 64.5z" />
    <glyph glyph-name="Egrave" unicode="&#xc8;" horiz-adv-x="1280" 
d="M606 1245l-96 -395h684l-55 -211h-684l-107 -426h750l-51 -213h-996l363 1458h975l-54 -213h-729zM883 1556l-207 291h282l103 -291h-178z" />
    <glyph glyph-name="Eacute" unicode="&#xc9;" horiz-adv-x="1280" 
d="M606 1245l-96 -395h684l-55 -211h-684l-107 -426h750l-51 -213h-996l363 1458h975l-54 -213h-729zM750 1556l229 291h305l-334 -291h-200z" />
    <glyph glyph-name="Ecircumflex" unicode="&#xca;" horiz-adv-x="1280" 
d="M606 1245l-96 -395h684l-55 -211h-684l-107 -426h750l-51 -213h-996l363 1458h975l-54 -213h-729zM1104 1847l160 -291h-197l-96 168l-180 -168h-246l307 291h252z" />
    <glyph glyph-name="Edieresis" unicode="&#xcb;" horiz-adv-x="1280" 
d="M606 1245l-96 -395h684l-55 -211h-684l-107 -426h750l-51 -213h-996l363 1458h975l-54 -213h-729zM1018 1581l55 223h211l-57 -223h-209zM596 1581l55 223h211l-57 -223h-209z" />
    <glyph glyph-name="Igrave" unicode="&#xcc;" horiz-adv-x="606" 
d="M51 0l363 1458h245l-362 -1458h-246zM539 1556l-207 291h282l103 -291h-178z" />
    <glyph glyph-name="Iacute" unicode="&#xcd;" horiz-adv-x="606" 
d="M51 0l363 1458h245l-362 -1458h-246zM408 1556l229 291h305l-334 -291h-200z" />
    <glyph glyph-name="Icircumflex" unicode="&#xce;" horiz-adv-x="606" 
d="M51 0l363 1458h245l-362 -1458h-246zM762 1847l160 -291h-197l-96 168l-180 -168h-246l307 291h252z" />
    <glyph glyph-name="Idieresis" unicode="&#xcf;" horiz-adv-x="606" 
d="M51 0l363 1458h245l-362 -1458h-246zM674 1581l55 223h211l-57 -223h-209zM252 1581l55 223h211l-57 -223h-209z" />
    <glyph glyph-name="Eth" unicode="&#xd0;" horiz-adv-x="1492" 
d="M1210 819q0 426 -440 426h-164l-104 -416h377l-45 -182h-377l-109 -434h242q213 0 352 92t203.5 230.5t64.5 283.5zM1464 834q0 -203 -97 -394.5t-297 -315.5t-492 -124h-527l162 647h-133l45 182h133l156 629h366q338 0 511 -159.5t173 -464.5z" />
    <glyph glyph-name="Ntilde" unicode="&#xd1;" horiz-adv-x="1568" 
d="M926 0l-172 610q-92 319 -168 627h-4q-82 -387 -152 -664l-141 -573h-238l363 1458h331l175 -610q92 -326 167 -627h5q72 354 149 664l143 573h236l-363 -1458h-331zM1223 1743q85 0 123 98h139q-35 -121 -106.5 -188.5t-166.5 -67.5q-49 0 -81.5 14.5t-73.5 40t-63.5 36
t-49.5 10.5q-84 0 -119 -101h-143q35 121 106.5 188.5t165.5 67.5q72 0 158 -53q39 -24 61.5 -34.5t49.5 -10.5z" />
    <glyph glyph-name="Ograve" unicode="&#xd2;" horiz-adv-x="1515" 
d="M377 570.5q0 -168.5 88 -275.5t249 -107t281.5 105.5t184 265.5t63.5 328.5t-89 275.5t-251 107t-281.5 -105.5t-182 -265.5t-62.5 -328.5zM1491 860q0 -201 -92 -409.5t-271.5 -345t-422.5 -136.5q-182 0 -311.5 76t-197 214t-67.5 339t91 410t269.5 345t423.5 136
q181 0 311 -76t198.5 -214t68.5 -339zM944 1556l-207 291h283l102 -291h-178z" />
    <glyph glyph-name="Oacute" unicode="&#xd3;" horiz-adv-x="1515" 
d="M377 570.5q0 -168.5 88 -275.5t249 -107t281.5 105.5t184 265.5t63.5 328.5t-89 275.5t-251 107t-281.5 -105.5t-182 -265.5t-62.5 -328.5zM1491 860q0 -201 -92 -409.5t-271.5 -345t-422.5 -136.5q-182 0 -311.5 76t-197 214t-67.5 339t91 410t269.5 345t423.5 136
q181 0 311 -76t198.5 -214t68.5 -339zM811 1556l229 291h306l-334 -291h-201z" />
    <glyph glyph-name="Ocircumflex" unicode="&#xd4;" horiz-adv-x="1515" 
d="M377 570.5q0 -168.5 88 -275.5t249 -107t281.5 105.5t184 265.5t63.5 328.5t-89 275.5t-251 107t-281.5 -105.5t-182 -265.5t-62.5 -328.5zM1491 860q0 -201 -92 -409.5t-271.5 -345t-422.5 -136.5q-182 0 -311.5 76t-197 214t-67.5 339t91 410t269.5 345t423.5 136
q181 0 311 -76t198.5 -214t68.5 -339zM1165 1847l160 -291h-197l-96 168l-180 -168h-246l307 291h252z" />
    <glyph glyph-name="Otilde" unicode="&#xd5;" horiz-adv-x="1515" 
d="M377 570.5q0 -168.5 88 -275.5t249 -107t281.5 105.5t184 265.5t63.5 328.5t-89 275.5t-251 107t-281.5 -105.5t-182 -265.5t-62.5 -328.5zM1491 860q0 -201 -92 -409.5t-271.5 -345t-422.5 -136.5q-182 0 -311.5 76t-197 214t-67.5 339t91 410t269.5 345t423.5 136
q181 0 311 -76t198.5 -214t68.5 -339zM1147 1743q85 0 123 98h139q-35 -121 -106.5 -188.5t-165.5 -67.5q-49 0 -82 14.5t-74 40t-63.5 36t-49.5 10.5q-84 0 -118 -101h-144q35 121 106.5 188.5t166.5 67.5q49 0 83.5 -14.5t73.5 -38.5t61.5 -34.5t49.5 -10.5z" />
    <glyph glyph-name="Odieresis" unicode="&#xd6;" horiz-adv-x="1515" 
d="M377 570.5q0 -168.5 88 -275.5t249 -107t281.5 105.5t184 265.5t63.5 328.5t-89 275.5t-251 107t-281.5 -105.5t-182 -265.5t-62.5 -328.5zM1491 860q0 -201 -92 -409.5t-271.5 -345t-422.5 -136.5q-182 0 -311.5 76t-197 214t-67.5 339t91 410t269.5 345t423.5 136
q181 0 311 -76t198.5 -214t68.5 -339zM1079 1581l56 223h211l-58 -223h-209zM657 1581l56 223h211l-58 -223h-209z" />
    <glyph glyph-name="multiply" unicode="&#xd7;" horiz-adv-x="1159" 
d="M711 629l387 -387l-131 -131l-387 387l-385 -387l-134 131l388 387l-388 385l134 131l385 -385l387 385l131 -131z" />
    <glyph glyph-name="Oslash" unicode="&#xd8;" horiz-adv-x="1515" 
d="M1225 1047l-762 -764q94 -104 254 -104.5t282.5 107t187 269.5t64.5 319q1 89 -26 173zM900 1280q-161 0 -282.5 -107.5t-185 -269.5t-63.5 -319q-1 -96 24 -170l762 760q-94 106 -255 106zM1491 873q0 -209 -92 -420t-271.5 -347.5t-429.5 -136.5t-401 148l-139 -140
l-101 101l154 153q-82 145 -82 355.5t92 420.5t270.5 346t428 136t403.5 -148l139 140l99 -101l-152 -151q82 -147 82 -356z" />
    <glyph glyph-name="Ugrave" unicode="&#xd9;" horiz-adv-x="1458" 
d="M410 440q0 -252 258 -252q141 0 238.5 87t140.5 253l231 930h244l-246 -989q-62 -244 -224.5 -372t-399 -128t-361.5 119t-125 338q0 86 29 201l206 831h246l-217 -874q-20 -76 -20 -144zM942 1556l-207 291h283l102 -291h-178z" />
    <glyph glyph-name="Uacute" unicode="&#xda;" horiz-adv-x="1458" 
d="M410 440q0 -252 258 -252q141 0 238.5 87t140.5 253l231 930h244l-246 -989q-62 -244 -224.5 -372t-399 -128t-361.5 119t-125 338q0 86 29 201l206 831h246l-217 -874q-20 -76 -20 -144zM811 1556l229 291h306l-334 -291h-201z" />
    <glyph glyph-name="Ucircumflex" unicode="&#xdb;" horiz-adv-x="1458" 
d="M410 440q0 -252 258 -252q141 0 238.5 87t140.5 253l231 930h244l-246 -989q-62 -244 -224.5 -372t-399 -128t-361.5 119t-125 338q0 86 29 201l206 831h246l-217 -874q-20 -76 -20 -144zM1165 1847l160 -291h-197l-96 168l-180 -168h-246l307 291h252z" />
    <glyph glyph-name="Udieresis" unicode="&#xdc;" horiz-adv-x="1458" 
d="M410 440q0 -252 258 -252q141 0 238.5 87t140.5 253l231 930h244l-246 -989q-62 -244 -224.5 -372t-399 -128t-361.5 119t-125 338q0 86 29 201l206 831h246l-217 -874q-20 -76 -20 -144zM1079 1581l56 223h211l-58 -223h-209zM657 1581l56 223h211l-58 -223h-209z" />
    <glyph glyph-name="Yacute" unicode="&#xdd;" horiz-adv-x="1282" 
d="M635 0h-246l146 586l-295 872h249l89 -289q39 -123 104 -376h4q125 178 289 376l229 289h303l-727 -872zM696 1556l230 291h305l-334 -291h-201z" />
    <glyph glyph-name="Thorn" unicode="&#xde;" horiz-adv-x="1277" 
d="M713 502q111 0 215 59.5t104 212.5q0 225 -262 225h-225l-125 -497h293zM801 1206q240 0 361.5 -105.5t121.5 -295.5q0 -121 -61.5 -238.5t-191.5 -194.5t-320 -77h-342l-72 -295h-246l363 1458h245l-63 -252h205z" />
    <glyph glyph-name="germandbls" unicode="&#xdf;" horiz-adv-x="1159" 
d="M940 1145q0 155 -168 155q-100 0 -163.5 -66.5t-98.5 -205.5l-256 -1028h-234l265 1059q51 205 183 317.5t318 112.5t285.5 -81t99.5 -214t-82.5 -239.5t-244.5 -147.5v-4q219 -66 219 -311q0 -123 -64.5 -239t-190.5 -189.5t-302 -73.5q-66 0 -119 16l45 187
q20 -6 62 -7q113 0 187.5 47.5t110 119t35.5 159.5t-58 141.5t-171 53.5h-8l47 196q160 0 231.5 75t71.5 167z" />
    <glyph glyph-name="agrave" unicode="&#xe0;" horiz-adv-x="1103" 
d="M246 284q0 -134 157 -134q117 0 198 69.5t116 196.5l18 78q-115 -7 -248 -25q-241 -36 -241 -185zM614 901q-90 0 -151.5 -49t-77.5 -133h-231q33 154 159.5 253t314.5 99q382 0 382 -317q0 -63 -19 -138l-84 -342q-43 -172 -43 -274h-207q0 63 19 127h-4
q-143 -150 -357 -150q-150 0 -231.5 74t-81.5 202t106 225q153 141 664 167l6 25q12 43 13 80q0 151 -177 151zM823 1163h-180l-207 295h283z" />
    <glyph glyph-name="aacute" unicode="&#xe1;" horiz-adv-x="1103" 
d="M246 284q0 -134 157 -134q117 0 198 69.5t116 196.5l18 78q-115 -7 -248 -25q-241 -36 -241 -185zM614 901q-90 0 -151.5 -49t-77.5 -133h-231q33 154 159.5 253t314.5 99q382 0 382 -317q0 -63 -19 -138l-84 -342q-43 -172 -43 -274h-207q0 63 19 127h-4
q-143 -150 -357 -150q-150 0 -231.5 74t-81.5 202t106 225q153 141 664 167l6 25q12 43 13 80q0 151 -177 151zM510 1163l229 295h305l-331 -295h-203z" />
    <glyph glyph-name="acircumflex" unicode="&#xe2;" horiz-adv-x="1103" 
d="M246 284q0 -134 157 -134q117 0 198 69.5t116 196.5l18 78q-115 -7 -248 -25q-241 -36 -241 -185zM614 901q-90 0 -151.5 -49t-77.5 -133h-231q33 154 159.5 253t314.5 99q382 0 382 -317q0 -63 -19 -138l-84 -342q-43 -172 -43 -274h-207q0 63 19 127h-4
q-143 -150 -357 -150q-150 0 -231.5 74t-81.5 202t106 225q153 141 664 167l6 25q12 43 13 80q0 151 -177 151zM821 1163l-96 172l-180 -172h-240l307 295h252l160 -295h-203z" />
    <glyph glyph-name="atilde" unicode="&#xe3;" horiz-adv-x="1103" 
d="M246 284q0 -134 157 -134q117 0 198 69.5t116 196.5l18 78q-115 -7 -248 -25q-241 -36 -241 -185zM614 901q-90 0 -151.5 -49t-77.5 -133h-231q33 154 159.5 253t314.5 99q382 0 382 -317q0 -63 -19 -138l-84 -342q-43 -172 -43 -274h-207q0 63 19 127h-4
q-143 -150 -357 -150q-150 0 -231.5 74t-81.5 202t106 225q153 141 664 167l6 25q12 43 13 80q0 151 -177 151zM567 1294q-82 0 -116 -98h-144q35 121 105.5 188.5t167.5 67.5q74 0 157 -54q39 -26 60.5 -36t48.5 -10q86 0 123 100h139q-35 -121 -106.5 -188.5t-155 -67.5
t-143.5 39t-84.5 49t-51.5 10z" />
    <glyph glyph-name="adieresis" unicode="&#xe4;" horiz-adv-x="1103" 
d="M246 284q0 -134 157 -134q117 0 198 69.5t116 196.5l18 78q-115 -7 -248 -25q-241 -36 -241 -185zM614 901q-90 0 -151.5 -49t-77.5 -133h-231q33 154 159.5 253t314.5 99q382 0 382 -317q0 -63 -19 -138l-84 -342q-43 -172 -43 -274h-207q0 63 19 127h-4
q-143 -150 -357 -150q-150 0 -231.5 74t-81.5 202t106 225q153 141 664 167l6 25q12 43 13 80q0 151 -177 151zM791 1235l55 223h209l-56 -223h-208zM369 1235l55 223h209l-55 -223h-209z" />
    <glyph glyph-name="aring" unicode="&#xe5;" horiz-adv-x="1103" 
d="M246 284q0 -134 157 -134q117 0 198 69.5t116 196.5l18 78q-115 -7 -248 -25q-241 -36 -241 -185zM614 901q-90 0 -151.5 -49t-77.5 -133h-231q33 154 159.5 253t314.5 99q382 0 382 -317q0 -63 -19 -138l-84 -342q-43 -172 -43 -274h-207q0 63 19 127h-4
q-143 -150 -357 -150q-150 0 -231.5 74t-81.5 202t106 225q153 141 664 167l6 25q12 43 13 80q0 151 -177 151zM580 1362q0 -47 33.5 -81t80.5 -34t81 34t34 81t-34 81t-81 34t-80.5 -34t-33.5 -81zM907 1363q0 -89 -61.5 -151.5t-150.5 -62.5t-151.5 62.5t-62.5 151.5
t62.5 150.5t151.5 61.5t150.5 -61.5t61.5 -150.5z" />
    <glyph glyph-name="ae" unicode="&#xe6;" horiz-adv-x="1783" 
d="M555 473q-313 0 -313 -192q0 -66 43 -103t125 -37q123 0 205.5 75t117.5 218l8 39h-186zM1501 688q0 104 -53 157.5t-149.5 53.5t-177.5 -69.5t-124 -202.5h500q4 23 4 61zM2 254q0 92 52 175t178 137.5t331 54.5h215l10 38q10 47 11 78q0 164 -181 164q-94 0 -156.5 -49
t-78.5 -133h-229q33 154 158.5 253t312.5 99q248 0 333 -149q150 150 352 149.5t305 -110t103 -299.5q0 -82 -24 -189h-733q-11 -61 -11 -100q0 -117 55.5 -174.5t144.5 -57.5t155.5 47.5t95.5 124.5h239q-57 -147 -192 -245.5t-309 -98.5q-263 0 -353 209
q-156 -209 -415 -209q-176 0 -272.5 78t-96.5 207z" />
    <glyph glyph-name="ccedilla" unicode="&#xe7;" horiz-adv-x="1122" 
d="M500 -270q0 71 -84 71q-37 0 -68 -12l-37 35l133 147q-176 16 -274 132t-98 287.5t68.5 324.5t203.5 254.5t327 101.5t301 -103.5t109 -273.5q0 -35 -4 -51h-241q4 21 4 39q0 94 -49.5 149.5t-145.5 55.5t-174 -76t-119 -186.5t-41 -222t52.5 -180t144.5 -68.5t164.5 61
t105.5 160h246q-53 -168 -179 -276.5t-288 -125.5l-88 -98q18 6 61 6t82 -38t39 -111.5t-78.5 -131t-196.5 -57.5t-210 60l47 82q78 -43 147.5 -43t104.5 23.5t35 64.5z" />
    <glyph glyph-name="egrave" unicode="&#xe8;" horiz-adv-x="1150" 
d="M870 688q0 102 -57 156.5t-159.5 54.5t-187.5 -70.5t-128 -201.5h528q4 45 4 61zM291 373q0 -117 58.5 -174.5t153.5 -57.5t165.5 47.5t101.5 124.5h238q-59 -147 -197.5 -245.5t-332 -98.5t-301 114t-107.5 316q0 154 70.5 309.5t206.5 259t331 103.5t301 -109.5
t106 -299.5q0 -82 -24 -189h-760q-10 -61 -10 -100zM850 1163h-180l-207 295h282z" />
    <glyph glyph-name="eacute" unicode="&#xe9;" horiz-adv-x="1150" 
d="M870 688q0 102 -57 156.5t-159.5 54.5t-187.5 -70.5t-128 -201.5h528q4 45 4 61zM291 373q0 -117 58.5 -174.5t153.5 -57.5t165.5 47.5t101.5 124.5h238q-59 -147 -197.5 -245.5t-332 -98.5t-301 114t-107.5 316q0 154 70.5 309.5t206.5 259t331 103.5t301 -109.5
t106 -299.5q0 -82 -24 -189h-760q-10 -61 -10 -100zM537 1163l229 295h305l-332 -295h-202z" />
    <glyph glyph-name="ecircumflex" unicode="&#xea;" horiz-adv-x="1150" 
d="M870 688q0 102 -57 156.5t-159.5 54.5t-187.5 -70.5t-128 -201.5h528q4 45 4 61zM291 373q0 -117 58.5 -174.5t153.5 -57.5t165.5 47.5t101.5 124.5h238q-59 -147 -197.5 -245.5t-332 -98.5t-301 114t-107.5 316q0 154 70.5 309.5t206.5 259t331 103.5t301 -109.5
t106 -299.5q0 -82 -24 -189h-760q-10 -61 -10 -100zM850 1163l-96 172l-181 -172h-239l307 295h252l160 -295h-203z" />
    <glyph glyph-name="edieresis" unicode="&#xeb;" horiz-adv-x="1150" 
d="M870 688q0 102 -57 156.5t-159.5 54.5t-187.5 -70.5t-128 -201.5h528q4 45 4 61zM291 373q0 -117 58.5 -174.5t153.5 -57.5t165.5 47.5t101.5 124.5h238q-59 -147 -197.5 -245.5t-332 -98.5t-301 114t-107.5 316q0 154 70.5 309.5t206.5 259t331 103.5t301 -109.5
t106 -299.5q0 -82 -24 -189h-760q-10 -61 -10 -100zM817 1235l55 223h209l-55 -223h-209zM395 1235l56 223h208l-55 -223h-209z" />
    <glyph glyph-name="igrave" unicode="&#xec;" horiz-adv-x="532" 
d="M20 0l259 1040h233l-258 -1040h-234zM584 1163h-181l-206 295h282z" />
    <glyph glyph-name="iacute" unicode="&#xed;" horiz-adv-x="532" 
d="M20 0l259 1040h233l-258 -1040h-234zM270 1163l230 295h305l-332 -295h-203z" />
    <glyph glyph-name="icircumflex" unicode="&#xee;" horiz-adv-x="532" 
d="M20 0l259 1040h233l-258 -1040h-234zM563 1165l-76 174l-159 -174h-232l281 293h244l135 -293h-193z" />
    <glyph glyph-name="idieresis" unicode="&#xef;" horiz-adv-x="532" 
d="M20 0l259 1040h233l-258 -1040h-234zM508 1235l55 223h209l-55 -223h-209zM174 1235l55 223h209l-55 -223h-209z" />
    <glyph glyph-name="eth" unicode="&#xf0;" horiz-adv-x="1183" 
d="M874 637q0 111 -54 179.5t-160 68.5t-185.5 -78t-121.5 -191.5t-42 -223.5t52.5 -174t158.5 -64t187.5 75.5t123 186t41.5 221.5zM1118 662q0 -164 -71.5 -324t-212 -264.5t-338.5 -104.5t-311 119t-115 326q2 141 70.5 288.5t198.5 244.5t306 97q106 0 170 -45l2 5
q-47 92 -133 198l-297 -115l-43 111l256 98q-49 49 -98 93l184 100q82 -74 119 -115l276 107l43 -111l-237 -90q231 -299 231 -618z" />
    <glyph glyph-name="ntilde" unicode="&#xf1;" 
d="M797 1065q147 0 229 -78t82 -227q0 -72 -21 -152l-151 -608h-234l150 604q16 63 16 121q0 152 -157 152q-104 0 -190.5 -78t-121.5 -221l-145 -578h-234l261 1040h221l-31 -118h4q143 143 322 143zM670 1294q-82 0 -117 -98h-143q35 121 105.5 188.5t166.5 67.5
q75 0 151.5 -50t114.5 -50q86 0 123 100h139q-34 -121 -106 -188.5t-155.5 -67.5t-143.5 39t-84.5 49t-50.5 10z" />
    <glyph glyph-name="ograve" unicode="&#xf2;" horiz-adv-x="1181" 
d="M313 405.5q0 -114.5 55.5 -183t163 -68.5t184.5 74.5t114.5 184t37.5 223.5t-55 182.5t-162.5 68.5t-184.5 -75t-115 -183.5t-38 -223zM1110 623q0 -150 -69.5 -301.5t-207 -252t-336 -100.5t-311 118t-112.5 331q0 150 69.5 301t203.5 251.5t334 100.5t314.5 -117.5
t114.5 -330.5zM866 1163h-180l-207 295h283z" />
    <glyph glyph-name="oacute" unicode="&#xf3;" horiz-adv-x="1181" 
d="M313 405.5q0 -114.5 55.5 -183t163 -68.5t184.5 74.5t114.5 184t37.5 223.5t-55 182.5t-162.5 68.5t-184.5 -75t-115 -183.5t-38 -223zM1110 623q0 -150 -69.5 -301.5t-207 -252t-336 -100.5t-311 118t-112.5 331q0 150 69.5 301t203.5 251.5t334 100.5t314.5 -117.5
t114.5 -330.5zM555 1163l229 295h306l-332 -295h-203z" />
    <glyph glyph-name="ocircumflex" unicode="&#xf4;" horiz-adv-x="1181" 
d="M313 405.5q0 -114.5 55.5 -183t163 -68.5t184.5 74.5t114.5 184t37.5 223.5t-55 182.5t-162.5 68.5t-184.5 -75t-115 -183.5t-38 -223zM1110 623q0 -150 -69.5 -301.5t-207 -252t-336 -100.5t-311 118t-112.5 331q0 150 69.5 301t203.5 251.5t334 100.5t314.5 -117.5
t114.5 -330.5zM866 1163l-96 172l-180 -172h-240l307 295h252l160 -295h-203z" />
    <glyph glyph-name="otilde" unicode="&#xf5;" horiz-adv-x="1181" 
d="M313 405.5q0 -114.5 55.5 -183t163 -68.5t184.5 74.5t114.5 184t37.5 223.5t-55 182.5t-162.5 68.5t-184.5 -75t-115 -183.5t-38 -223zM1110 623q0 -150 -69.5 -301.5t-207 -252t-336 -100.5t-311 118t-112.5 331q0 150 69.5 301t203.5 251.5t334 100.5t314.5 -117.5
t114.5 -330.5zM612 1294q-82 0 -116 -98h-144q35 121 105.5 188.5t167.5 67.5q74 0 157 -54q39 -26 60.5 -36t48.5 -10q86 0 123 100h139q-35 -121 -106.5 -188.5t-155 -67.5t-143.5 39t-84.5 49t-51.5 10z" />
    <glyph glyph-name="odieresis" unicode="&#xf6;" horiz-adv-x="1181" 
d="M313 405.5q0 -114.5 55.5 -183t163 -68.5t184.5 74.5t114.5 184t37.5 223.5t-55 182.5t-162.5 68.5t-184.5 -75t-115 -183.5t-38 -223zM1110 623q0 -150 -69.5 -301.5t-207 -252t-336 -100.5t-311 118t-112.5 331q0 150 69.5 301t203.5 251.5t334 100.5t314.5 -117.5
t114.5 -330.5zM836 1235l55 223h209l-56 -223h-208zM414 1235l55 223h209l-55 -223h-209z" />
    <glyph glyph-name="divide" unicode="&#xf7;" horiz-adv-x="1159" 
d="M477 195v198h205v-198h-205zM137 555v186h885v-186h-885zM477 903v199h205v-199h-205z" />
    <glyph glyph-name="oslash" unicode="&#xf8;" horiz-adv-x="1183" 
d="M881 595q0 75 -11 122l-505 -506q57 -63 166.5 -63.5t189.5 75.5t120 186.5t40 185.5zM301 442.5q0 -77.5 8 -112.5l504 501q-57 61 -164.5 61.5t-187.5 -75.5t-120 -186.5t-40 -188zM1110 628q0 -155 -70.5 -306.5t-207 -252t-321.5 -100.5t-296 92l-123 -122l-88 88
l131 129q-61 104 -61 259t69.5 306t205.5 250.5t320.5 99.5t295.5 -88l120 121l86 -88l-127 -125q66 -108 66 -263z" />
    <glyph glyph-name="ugrave" unicode="&#xf9;" 
d="M422.5 -25q-162.5 0 -244.5 78t-82 228q0 72 21 151l151 608h234l-150 -604q-16 -63 -16 -121q0 -151 158 -151q104 0 190 77.5t121 221.5l145 577h234l-260 -1040h-222l31 119h-4q-144 -144 -306.5 -144zM899 1163h-180l-207 295h283z" />
    <glyph glyph-name="uacute" unicode="&#xfa;" 
d="M422.5 -25q-162.5 0 -244.5 78t-82 228q0 72 21 151l151 608h234l-150 -604q-16 -63 -16 -121q0 -151 158 -151q104 0 190 77.5t121 221.5l145 577h234l-260 -1040h-222l31 119h-4q-144 -144 -306.5 -144zM586 1163l229 295h305l-332 -295h-202z" />
    <glyph glyph-name="ucircumflex" unicode="&#xfb;" 
d="M422.5 -25q-162.5 0 -244.5 78t-82 228q0 72 21 151l151 608h234l-150 -604q-16 -63 -16 -121q0 -151 158 -151q104 0 190 77.5t121 221.5l145 577h234l-260 -1040h-222l31 119h-4q-144 -144 -306.5 -144zM897 1163l-96 172l-180 -172h-240l307 295h252l160 -295h-203z
" />
    <glyph glyph-name="udieresis" unicode="&#xfc;" 
d="M422.5 -25q-162.5 0 -244.5 78t-82 228q0 72 21 151l151 608h234l-150 -604q-16 -63 -16 -121q0 -151 158 -151q104 0 190 77.5t121 221.5l145 577h234l-260 -1040h-222l31 119h-4q-144 -144 -306.5 -144zM866 1235l56 223h208l-55 -223h-209zM444 1235l56 223h209
l-56 -223h-209z" />
    <glyph glyph-name="yacute" unicode="&#xfd;" horiz-adv-x="999" 
d="M-30.5 -389q-96.5 0 -151.5 20l45 185q47 -14 117.5 -14.5t131 41.5t126.5 149l-121 1048h229l74 -774h4l455 774h262l-670 -1085q-82 -133 -157.5 -207t-161.5 -105.5t-182.5 -31.5zM463 1163l229 295h305l-331 -295h-203z" />
    <glyph glyph-name="thorn" unicode="&#xfe;" 
d="M362 406q0 -114 50.5 -182t148.5 -68t174 73.5t116 183t40 223.5t-50.5 181.5t-148.5 67.5t-174 -73t-116 -182.5t-40 -223.5zM778 1067q172 0 266.5 -106.5t94.5 -278.5t-66.5 -333t-194.5 -267.5t-300 -106.5q-102 0 -177 48.5t-104 132.5h-4l-133 -535h-234l457 1837
h233l-127 -514h5q57 57 132.5 90t151.5 33z" />
    <glyph glyph-name="ydieresis" unicode="&#xff;" horiz-adv-x="999" 
d="M-30.5 -389q-96.5 0 -151.5 20l45 185q47 -14 117.5 -14.5t131 41.5t126.5 149l-121 1048h229l74 -774h4l455 774h262l-670 -1085q-82 -133 -157.5 -207t-161.5 -105.5t-182.5 -31.5zM743 1235l56 223h209l-56 -223h-209zM322 1235l55 223h209l-56 -223h-208z" />
    <glyph glyph-name="Amacron" unicode="&#x100;" horiz-adv-x="1406" 
d="M961 723q-25 268 -46 580h-4q-156 -283 -329 -580l-68 -115h457zM387 395l-233 -395h-275l893 1458h330l168 -1458h-242l-37 395h-604zM662 1604l38 159h625l-39 -159h-624z" />
    <glyph glyph-name="amacron" unicode="&#x101;" horiz-adv-x="1103" 
d="M246 284q0 -134 157 -134q117 0 198 69.5t116 196.5l18 78q-115 -7 -248 -25q-241 -36 -241 -185zM614 901q-90 0 -151.5 -49t-77.5 -133h-231q33 154 159.5 253t314.5 99q382 0 382 -317q0 -63 -19 -138l-84 -342q-43 -172 -43 -274h-207q0 63 19 127h-4
q-143 -150 -357 -150q-150 0 -231.5 74t-81.5 202t106 225q153 141 664 167l6 25q12 43 13 80q0 151 -177 151zM375 1243l39 160h624l-39 -160h-624z" />
    <glyph glyph-name="Abreve" unicode="&#x102;" horiz-adv-x="1406" 
d="M961 723q-25 268 -46 580h-4q-156 -283 -329 -580l-68 -115h457zM387 395l-233 -395h-275l893 1458h330l168 -1458h-242l-37 395h-604zM840 1819q0 -119 146 -119q73 0 128 39t76 108h184q-39 -143 -145.5 -222t-248.5 -79t-215 64.5t-73 181.5q0 18 4 55h146
q-2 -10 -2 -28z" />
    <glyph glyph-name="abreve" unicode="&#x103;" horiz-adv-x="1103" 
d="M246 284q0 -134 157 -134q117 0 198 69.5t116 196.5l18 78q-115 -7 -248 -25q-241 -36 -241 -185zM614 901q-90 0 -151.5 -49t-77.5 -133h-231q33 154 159.5 253t314.5 99q382 0 382 -317q0 -63 -19 -138l-84 -342q-43 -172 -43 -274h-207q0 63 19 127h-4
q-143 -150 -357 -150q-150 0 -231.5 74t-81.5 202t106 225q153 141 664 167l6 25q12 43 13 80q0 151 -177 151zM545 1430q0 -119 146 -119q73 0 128 39t76 108h184q-39 -143 -145.5 -222t-248.5 -79t-215 64.5t-73 181.5q0 14 4 55h146q-2 -10 -2 -28z" />
    <glyph glyph-name="Aogonek" unicode="&#x104;" horiz-adv-x="1406" 
d="M961 723q-25 268 -46 580h-4q-156 -283 -329 -580l-68 -115h457zM1053 -399q-195 0 -195 147q0 68 52.5 128.5t164.5 123.5h-47l-37 395h-604l-233 -395h-275l893 1458h330l166 -1458q-113 -68 -155 -118t-42 -97t62 -47q41 0 77 12l-32 -133q-53 -16 -125 -16z" />
    <glyph glyph-name="aogonek" unicode="&#x105;" horiz-adv-x="1103" 
d="M246 284q0 -134 157 -134q117 0 198 69.5t116 196.5l18 78q-115 -6 -248 -25q-241 -36 -241 -185zM614 901q-90 0 -151.5 -49t-77.5 -133h-231q33 154 159.5 253t314.5 99q382 0 382 -317q0 -63 -19 -138l-84 -342q-43 -172 -43 -274q-113 -68 -154.5 -118t-41.5 -97
t61 -47q41 0 78 12l-33 -133q-53 -16 -125 -16q-194 0 -194 147q0 68 52 128.5t165 123.5h-15q0 63 19 127h-4q-143 -150 -357 -150q-150 0 -231.5 74t-81.5 202t106 225q153 141 664 167l6 25q12 43 13 80q0 151 -177 151z" />
    <glyph glyph-name="Cacute" unicode="&#x106;" horiz-adv-x="1425" 
d="M1432 1018q0 -49 -9 -88h-247q4 41 4 63q0 127 -75 202t-222.5 75t-266 -107.5t-179 -270.5t-60.5 -330t79 -270.5t217 -103.5t246.5 78t159.5 211h252q-76 -238 -255 -373t-425 -135t-387 158t-141 426q0 219 91 435t272.5 358.5t435.5 142.5q155 0 271 -58.5
t177.5 -165t61.5 -247.5zM801 1556l229 291h305l-334 -291h-200z" />
    <glyph glyph-name="cacute" unicode="&#x107;" horiz-adv-x="1122" 
d="M1081 694q0 -35 -4 -51h-241q4 20 4 39q0 94 -49.5 149.5t-145.5 55.5t-174 -76t-119 -186.5t-41 -222t52.5 -180t144.5 -68.5t164.5 61t105.5 160h246q-59 -182 -201.5 -294t-333 -112t-304 118t-113.5 325q0 150 68.5 303t203.5 254.5t326.5 101.5t301 -103.5
t109.5 -273.5zM547 1163l229 295h305l-331 -295h-203z" />
    <glyph glyph-name="Ccircumflex" unicode="&#x108;" horiz-adv-x="1425" 
d="M1432 1018q0 -49 -9 -88h-247q4 41 4 63q0 127 -75 202t-222.5 75t-266 -107.5t-179 -270.5t-60.5 -330t79 -270.5t217 -103.5t246.5 78t159.5 211h252q-76 -238 -255 -373t-425 -135t-387 158t-141 426q0 219 91 435t272.5 358.5t435.5 142.5q155 0 271 -58.5
t177.5 -165t61.5 -247.5zM1155 1847l160 -291h-197l-96 168l-180 -168h-246l307 291h252z" />
    <glyph glyph-name="ccircumflex" unicode="&#x109;" horiz-adv-x="1122" 
d="M1081 694q0 -35 -4 -51h-241q4 20 4 39q0 94 -49.5 149.5t-145.5 55.5t-174 -76t-119 -186.5t-41 -222t52.5 -180t144.5 -68.5t164.5 61t105.5 160h246q-59 -182 -201.5 -294t-333 -112t-304 118t-113.5 325q0 150 68.5 303t203.5 254.5t326.5 101.5t301 -103.5
t109.5 -273.5zM860 1163l-96 172l-180 -172h-240l307 295h252l160 -295h-203z" />
    <glyph glyph-name="Cdotaccent" unicode="&#x10a;" horiz-adv-x="1425" 
d="M1432 1018q0 -49 -9 -88h-247q4 41 4 63q0 127 -75 202t-222.5 75t-266 -107.5t-179 -270.5t-60.5 -330t79 -270.5t217 -103.5t246.5 78t159.5 211h252q-76 -238 -255 -373t-425 -135t-387 158t-141 426q0 219 91 435t272.5 358.5t435.5 142.5q155 0 271 -58.5
t177.5 -165t61.5 -247.5zM846 1581l55 223h234l-56 -223h-233z" />
    <glyph glyph-name="cdotaccent" unicode="&#x10b;" horiz-adv-x="1122" 
d="M1081 694q0 -35 -4 -51h-241q4 20 4 39q0 94 -49.5 149.5t-145.5 55.5t-174 -76t-119 -186.5t-41 -222t52.5 -180t144.5 -68.5t164.5 61t105.5 160h246q-59 -182 -201.5 -294t-333 -112t-304 118t-113.5 325q0 150 68.5 303t203.5 254.5t326.5 101.5t301 -103.5
t109.5 -273.5zM606 1235l56 223h233l-55 -223h-234z" />
    <glyph glyph-name="Ccaron" unicode="&#x10c;" horiz-adv-x="1425" 
d="M1432 1018q0 -49 -9 -88h-247q4 41 4 63q0 127 -75 202t-222.5 75t-266 -107.5t-179 -270.5t-60.5 -330t79 -270.5t217 -103.5t246.5 78t159.5 211h252q-76 -238 -255 -373t-425 -135t-387 158t-141 426q0 219 91 435t272.5 358.5t435.5 142.5q155 0 271 -58.5
t177.5 -165t61.5 -247.5zM831 1556l-159 291h196l97 -168l180 168h246l-308 -291h-252z" />
    <glyph glyph-name="ccaron" unicode="&#x10d;" horiz-adv-x="1122" 
d="M1081 694q0 -35 -4 -51h-241q4 20 4 39q0 94 -49.5 149.5t-145.5 55.5t-174 -76t-119 -186.5t-41 -222t52.5 -180t144.5 -68.5t164.5 61t105.5 160h246q-59 -182 -201.5 -294t-333 -112t-304 118t-113.5 325q0 150 68.5 303t203.5 254.5t326.5 101.5t301 -103.5
t109.5 -273.5zM578 1163l-160 295h203l96 -172l180 172h240l-308 -295h-251z" />
    <glyph glyph-name="Dcaron" unicode="&#x10e;" horiz-adv-x="1492" 
d="M590 213q213 0 352 92t203.5 230.5t64.5 283.5q0 426 -440 426h-164l-258 -1032h242zM1464 834q0 -203 -97 -394.5t-297 -315.5t-492 -124h-527l363 1458h366q338 0 511 -159.5t173 -464.5zM811 1556l-160 291h197l96 -168l180 168h246l-307 -291h-252z" />
    <glyph glyph-name="dcaron" unicode="&#x10f;" horiz-adv-x="1198" 
d="M311 404q0 -114 50 -181q49 -67 147 -67t174 72t116 183t40 225t-50 182t-148 67q-97 0 -173 -74q-76 -73 -116 -183t-40 -224zM422 -27q-172 1 -265 107t-93 278t66 334q67 160 194 266t299 107q102 0 177 -48t105 -132h4l142 573h233l-364 -1458h-228l27 104h-4
q-59 -61 -137 -96t-156 -35zM1257 1096l148 362h194l-204 -362h-138z" />
    <glyph glyph-name="Dcroat" unicode="&#x110;" horiz-adv-x="1492" 
d="M1210 819q0 426 -440 426h-164l-104 -416h377l-45 -182h-377l-109 -434h242q213 0 352 92t203.5 230.5t64.5 283.5zM1464 834q0 -203 -97 -394.5t-297 -315.5t-492 -124h-527l162 647h-133l45 182h133l156 629h366q338 0 511 -159.5t173 -464.5z" />
    <glyph glyph-name="dcroat" unicode="&#x111;" horiz-adv-x="1187" 
d="M838 635q0 115 -50.5 182.5t-147.5 67.5t-173 -74t-116 -183.5t-40 -223.5t50.5 -181t147.5 -67t173 72.5t116 182t40 224.5zM422 -27q-172 0 -265.5 106.5t-93.5 278.5t67 333t194 267.5t299 106.5q102 0 176.5 -48t105.5 -132h4l74 299h-256l33 131h256l35 143h233
l-35 -143h135l-32 -131h-135l-297 -1184h-228l27 104h-4q-59 -61 -137 -96t-156 -35z" />
    <glyph glyph-name="Emacron" unicode="&#x112;" horiz-adv-x="1280" 
d="M606 1245l-96 -395h684l-55 -211h-684l-107 -426h750l-51 -213h-996l363 1458h975l-54 -213h-729zM604 1604l39 159h625l-39 -159h-625z" />
    <glyph glyph-name="emacron" unicode="&#x113;" horiz-adv-x="1150" 
d="M870 688q0 102 -57 156.5t-159.5 54.5t-187.5 -70.5t-128 -201.5h528q4 45 4 61zM291 373q0 -117 58.5 -174.5t153.5 -57.5t165.5 47.5t101.5 124.5h238q-59 -147 -197.5 -245.5t-332 -98.5t-301 114t-107.5 316q0 154 70.5 309.5t206.5 259t331 103.5t301 -109.5
t106 -299.5q0 -82 -24 -189h-760q-10 -61 -10 -100zM401 1243l39 160h625l-39 -160h-625z" />
    <glyph glyph-name="Ebreve" unicode="&#x114;" horiz-adv-x="1280" 
d="M606 1245l-96 -395h684l-55 -211h-684l-107 -426h750l-51 -213h-996l363 1458h975l-54 -213h-729zM784 1819q0 -119 147 -119q73 0 128 39t76 108h184q-39 -143 -145.5 -222t-248.5 -79t-215 64.5t-73 181.5q0 18 4 55h145q-2 -10 -2 -28z" />
    <glyph glyph-name="ebreve" unicode="&#x115;" horiz-adv-x="1150" 
d="M870 688q0 102 -57 156.5t-159.5 54.5t-187.5 -70.5t-128 -201.5h528q4 45 4 61zM291 373q0 -117 58.5 -174.5t153.5 -57.5t165.5 47.5t101.5 124.5h238q-59 -147 -197.5 -245.5t-332 -98.5t-301 114t-107.5 316q0 154 70.5 309.5t206.5 259t331 103.5t301 -109.5
t106 -299.5q0 -82 -24 -189h-760q-10 -61 -10 -100zM571 1430q0 -119 147 -119q73 0 128 39t76 108h184q-39 -143 -145.5 -222t-249 -79t-215 64.5t-72.5 181.5q0 14 4 55h145q-2 -10 -2 -28z" />
    <glyph glyph-name="Edotaccent" unicode="&#x116;" horiz-adv-x="1280" 
d="M606 1245l-96 -395h684l-55 -211h-684l-107 -426h750l-51 -213h-996l363 1458h975l-54 -213h-729zM795 1581l55 223h233l-55 -223h-233z" />
    <glyph glyph-name="edotaccent" unicode="&#x117;" horiz-adv-x="1150" 
d="M870 688q0 102 -57 156.5t-159.5 54.5t-187.5 -70.5t-128 -201.5h528q4 45 4 61zM291 373q0 -117 58.5 -174.5t153.5 -57.5t165.5 47.5t101.5 124.5h238q-59 -147 -197.5 -245.5t-332 -98.5t-301 114t-107.5 316q0 154 70.5 309.5t206.5 259t331 103.5t301 -109.5
t106 -299.5q0 -82 -24 -189h-760q-10 -61 -10 -100zM596 1235l55 223h234l-56 -223h-233z" />
    <glyph glyph-name="Eogonek" unicode="&#x118;" horiz-adv-x="1280" 
d="M831 -399q-194 0 -194 147q0 68 52 128.5t165 123.5h-803l363 1458h975l-54 -213h-729l-96 -395h684l-55 -211h-684l-107 -426h750l-51 -213q-113 -68 -155 -118t-42 -97t61 -47q41 0 78 12l-33 -133q-53 -16 -125 -16z" />
    <glyph glyph-name="eogonek" unicode="&#x119;" horiz-adv-x="1148" 
d="M868 688q0 102 -57 156.5t-159 54.5t-186.5 -69.5t-127.5 -202.5h526q4 45 4 61zM358 -252q0 113 158 219v4q-8 -2 -24 -2q-209 0 -316.5 114t-107.5 316q0 154 70.5 309.5t206.5 259t331 103.5t302 -109.5t107 -299.5q0 -84 -26 -189h-760q-10 -61 -10 -100
q0 -117 59.5 -174.5t153.5 -57.5t164.5 48.5t101.5 123.5h240q-60 -146 -236 -278q-117 -86 -159 -141.5t-42 -105.5t62 -50q41 0 78 12l-33 -133q-53 -16 -125 -16q-195 0 -195 147z" />
    <glyph glyph-name="Ecaron" unicode="&#x11a;" horiz-adv-x="1280" 
d="M606 1245l-96 -395h684l-55 -211h-684l-107 -426h750l-51 -213h-996l363 1458h975l-54 -213h-729zM780 1556l-159 291h196l96 -168l181 168h245l-307 -291h-252z" />
    <glyph glyph-name="ecaron" unicode="&#x11b;" horiz-adv-x="1150" 
d="M870 688q0 102 -57 156.5t-159.5 54.5t-187.5 -70.5t-128 -201.5h528q4 45 4 61zM291 373q0 -117 58.5 -174.5t153.5 -57.5t165.5 47.5t101.5 124.5h238q-59 -147 -197.5 -245.5t-332 -98.5t-301 114t-107.5 316q0 154 70.5 309.5t206.5 259t331 103.5t301 -109.5
t106 -299.5q0 -82 -24 -189h-760q-10 -61 -10 -100zM567 1163l-159 295h202l97 -172l180 172h239l-307 -295h-252z" />
    <glyph glyph-name="Gcircumflex" unicode="&#x11c;" horiz-adv-x="1509" 
d="M1473 1047q0 -33 -7 -68h-262q2 12 2 33q0 125 -72.5 191.5t-205.5 66.5q-174 0 -299 -108.5t-189.5 -274.5t-64.5 -339t78.5 -274.5t230.5 -101.5t272.5 97.5t169.5 281.5h-374l51 205h604l-188 -756h-211l36 147h-4q-74 -80 -186.5 -127t-237.5 -47q-231 0 -361 156
t-130 399.5t96 461.5t285.5 358.5t442.5 140.5t388.5 -119t135.5 -323zM1163 1847l160 -291h-197l-96 168l-180 -168h-246l307 291h252z" />
    <glyph glyph-name="gcircumflex" unicode="&#x11d;" horiz-adv-x="1191" 
d="M319 438.5q0 -102.5 49.5 -168t144.5 -65.5t170 66.5t113 165t38 203t-53.5 169.5t-149.5 65t-167 -67.5t-108 -166.5t-37 -201.5zM203 -100q1 -123 199 -123q228 0 296 274l21 84h-4q-129 -123 -296 -123t-256 108.5t-89 277.5t64.5 319.5t186 251t285.5 100.5
q113 0 186.5 -53t106.5 -146h4l43 170h221l-256 -1034q-49 -199 -191 -300t-345 -101t-305.5 70.5t-102.5 201.5q0 27 6 57h228q-2 -12 -2 -34zM881 1163l-97 172l-180 -172h-239l307 295h252l159 -295h-202z" />
    <glyph glyph-name="Gbreve" unicode="&#x11e;" horiz-adv-x="1509" 
d="M1473 1047q0 -33 -7 -68h-262q2 12 2 33q0 125 -72.5 191.5t-205.5 66.5q-174 0 -299 -108.5t-189.5 -274.5t-64.5 -339t78.5 -274.5t230.5 -101.5t272.5 97.5t169.5 281.5h-374l51 205h604l-188 -756h-211l36 147h-4q-74 -80 -186.5 -127t-237.5 -47q-231 0 -361 156
t-130 399.5t96 461.5t285.5 358.5t442.5 140.5t388.5 -119t135.5 -323zM844 1819q0 -119 146 -119q72 0 128 39t76 108h184q-39 -143 -145.5 -222t-248.5 -79t-215 64.5t-73 181.5q0 18 4 55h146q-2 -10 -2 -28z" />
    <glyph glyph-name="gbreve" unicode="&#x11f;" horiz-adv-x="1191" 
d="M319 438.5q0 -102.5 49.5 -168t144.5 -65.5t170 66.5t113 165t38 203t-53.5 169.5t-149.5 65t-167 -67.5t-108 -166.5t-37 -201.5zM203 -100q1 -123 199 -123q228 0 296 274l21 84h-4q-129 -123 -296 -123t-256 108.5t-89 277.5t64.5 319.5t186 251t285.5 100.5
q113 0 186.5 -53t106.5 -146h4l43 170h221l-256 -1034q-49 -199 -191 -300t-345 -101t-305.5 70.5t-102.5 201.5q0 27 6 57h228q-2 -12 -2 -34zM602 1430q0 -119 146 -119q72 0 128 39t76 108h185q-39 -143 -145.5 -222t-249 -79t-215 64.5t-72.5 181.5q0 14 4 55h145
q-2 -10 -2 -28z" />
    <glyph glyph-name="Gdotaccent" unicode="&#x120;" horiz-adv-x="1509" 
d="M1473 1047q0 -33 -7 -68h-262q2 12 2 33q0 125 -72.5 191.5t-205.5 66.5q-174 0 -299 -108.5t-189.5 -274.5t-64.5 -339t78.5 -274.5t230.5 -101.5t272.5 97.5t169.5 281.5h-374l51 205h604l-188 -756h-211l36 147h-4q-74 -80 -186.5 -127t-237.5 -47q-231 0 -361 156
t-130 399.5t96 461.5t285.5 358.5t442.5 140.5t388.5 -119t135.5 -323zM854 1581l55 223h234l-56 -223h-233z" />
    <glyph glyph-name="gdotaccent" unicode="&#x121;" horiz-adv-x="1191" 
d="M319 438.5q0 -102.5 49.5 -168t144.5 -65.5t170 66.5t113 165t38 203t-53.5 169.5t-149.5 65t-167 -67.5t-108 -166.5t-37 -201.5zM203 -100q1 -123 199 -123q228 0 296 274l21 84h-4q-129 -123 -296 -123t-256 108.5t-89 277.5t64.5 319.5t186 251t285.5 100.5
q113 0 186.5 -53t106.5 -146h4l43 170h221l-256 -1034q-49 -199 -191 -300t-345 -101t-305.5 70.5t-102.5 201.5q0 27 6 57h228q-2 -12 -2 -34zM627 1235l55 223h233l-55 -223h-233z" />
    <glyph glyph-name="Gcommaaccent" unicode="&#x122;" horiz-adv-x="1509" 
d="M1473 1047q0 -33 -7 -68h-262q2 12 2 33q0 125 -72.5 191.5t-205.5 66.5q-174 0 -299 -108.5t-189.5 -274.5t-64.5 -339t78.5 -274.5t230.5 -101.5t272.5 97.5t169.5 281.5h-374l51 205h604l-188 -756h-211l36 147h-4q-74 -80 -186.5 -127t-237.5 -47q-231 0 -361 156
t-130 399.5t96 461.5t285.5 358.5t442.5 140.5t388.5 -119t135.5 -323zM467 -541h-96l139 217h-80l49 197h217l-49 -197z" />
    <glyph glyph-name="gcommaaccent" unicode="&#x123;" horiz-adv-x="1191" 
d="M319 438.5q0 -102.5 49.5 -168t144.5 -65.5t170 66.5t113 165t38 203t-53.5 169.5t-149.5 65t-167 -67.5t-108 -166.5t-37 -201.5zM203 -100q1 -123 199 -123q228 0 296 274l21 84h-4q-129 -123 -296 -123t-256 108.5t-89 277.5t64.5 319.5t186 251t285.5 100.5
q113 0 186.5 -53t106.5 -146h4l43 170h221l-256 -1034q-49 -199 -191 -300t-345 -101t-305.5 70.5t-102.5 201.5q0 27 6 57h228q-2 -12 -2 -34zM887 1384l-47 -196h-219l49 196l180 218h96l-139 -218h80z" />
    <glyph glyph-name="Hcircumflex" unicode="&#x124;" horiz-adv-x="1523" 
d="M969 0l161 651h-671l-162 -651h-246l363 1458h245l-147 -594h672l147 594h244l-363 -1458h-243zM1219 1847l159 -291h-196l-97 168l-180 -168h-246l308 291h252z" />
    <glyph glyph-name="hcircumflex" unicode="&#x125;" 
d="M784 1065q160 0 242 -79t82 -226q0 -72 -21 -152l-151 -608h-234l150 604q16 63 16 121q0 152 -157 152q-104 0 -190.5 -78t-121.5 -221l-145 -578h-234l363 1458h233l-131 -524h4q135 131 295 131zM1059 1847l160 -291h-197l-96 168l-181 -168h-245l307 291h252z" />
    <glyph glyph-name="Hbar" unicode="&#x126;" horiz-adv-x="1523" 
d="M588 1169l-76 -305h672l76 305h-672zM1503 1169l-291 -1169h-243l161 651h-671l-162 -651h-246l291 1169h-115l33 134h115l39 155h245l-38 -155h671l39 155h244l-39 -155h117l-33 -134h-117z" />
    <glyph glyph-name="hbar" unicode="&#x127;" 
d="M784 1065q160 0 242 -79t82 -226q0 -72 -21 -152l-151 -608h-234l150 604q16 63 16 121q0 152 -157 152q-104 0 -190.5 -78t-121.5 -221l-145 -578h-234l295 1184h-149l31 119h147l39 155h233l-38 -155h243l-30 -119h-242l-64 -250h4q135 131 295 131z" />
    <glyph glyph-name="Itilde" unicode="&#x128;" horiz-adv-x="606" 
d="M51 0l363 1458h245l-362 -1458h-246zM741 1743q87 0 123 98h140q-35 -121 -107 -188.5t-166 -67.5q-49 0 -82 14.5t-91 50.5t-95 36q-84 0 -119 -101h-143q35 121 106.5 188.5t165.5 67.5q72 0 151.5 -49t116.5 -49z" />
    <glyph glyph-name="itilde" unicode="&#x129;" horiz-adv-x="532" 
d="M20 0l259 1040h233l-258 -1040h-234zM575 1196q-41 0 -71.5 14.5t-67.5 40t-54 34.5t-40 9q-72 0 -102 -98h-138q35 121 101.5 188.5t154.5 67.5q64 0 131 -50t101 -50q70 0 104 100h137q-36 -121 -102.5 -188.5t-153.5 -67.5z" />
    <glyph glyph-name="Imacron" unicode="&#x12a;" horiz-adv-x="606" 
d="M51 0l363 1458h245l-362 -1458h-246zM262 1604l39 159h625l-39 -159h-625z" />
    <glyph glyph-name="imacron" unicode="&#x12b;" horiz-adv-x="532" 
d="M20 0l259 1040h233l-258 -1040h-234zM168 1243l41 160h555l-41 -160h-555z" />
    <glyph glyph-name="Ibreve" unicode="&#x12c;" horiz-adv-x="606" 
d="M51 0l363 1458h245l-362 -1458h-246zM440 1819q0 -119 147 -119q73 0 128 39t76 108h184q-39 -143 -145.5 -222t-249 -79t-215 64.5t-72.5 181.5q0 18 4 55h145q-2 -10 -2 -28z" />
    <glyph glyph-name="ibreve" unicode="&#x12d;" horiz-adv-x="532" 
d="M20 0l259 1040h233l-258 -1040h-234zM453 1311q131 0 178 147h174q-39 -143 -136.5 -222t-224.5 -79t-191.5 62.5t-64.5 175.5q0 33 7 63h141q-2 -10 -2 -49t30.5 -68.5t88.5 -29.5z" />
    <glyph glyph-name="Iogonek" unicode="&#x12e;" horiz-adv-x="606" 
d="M82 -399q-195 0 -195 147q0 68 52.5 128.5t164.5 123.5h-53l363 1458h245l-362 -1458q-113 -68 -155 -118t-42 -97t62 -47q41 0 78 12l-33 -133q-53 -16 -125 -16z" />
    <glyph glyph-name="iogonek" unicode="&#x12f;" horiz-adv-x="532" 
d="M39 -399q-195 0 -195 147q0 68 52.5 128.5t164.5 123.5h-41l259 1040h233l-258 -1040q-113 -68 -155 -118t-42 -97t62 -47q41 0 78 12l-33 -133q-53 -16 -125 -16zM561 1235h-233l55 223h233z" />
    <glyph glyph-name="Idotaccent" unicode="&#x130;" horiz-adv-x="606" 
d="M51 0l363 1458h245l-362 -1458h-246zM451 1581l55 223h233l-55 -223h-233z" />
    <glyph glyph-name="dotlessi" unicode="&#x131;" horiz-adv-x="532" 
d="M20 0l259 1040h233l-258 -1040h-234z" />
    <glyph glyph-name="IJ" unicode="&#x132;" horiz-adv-x="1372" 
d="M51 0l363 1458h245l-362 -1458h-246zM643 -12q-72 0 -135 18l53 209q41 -10 78 -10q125 0 197.5 63.5t113.5 231.5l240 958h246l-262 -1046q-54 -215 -185 -319.5t-346 -104.5z" />
    <glyph glyph-name="ij" unicode="&#x133;" horiz-adv-x="1073" 
d="M389 -389q-74 0 -135 16l43 174q23 -8 51 -8q84 0 134 47t79 164l258 1036h234l-277 -1110q-41 -163 -143.5 -241t-243.5 -78zM20 0l259 1040h233l-258 -1040h-234zM868 1235l56 223h233l-55 -223h-234zM328 1235l55 223h233l-55 -223h-233z" />
    <glyph glyph-name="Jcircumflex" unicode="&#x134;" horiz-adv-x="765" 
d="M37 -12q-72 0 -135 18l53 209q41 -10 78 -10q125 0 197.5 63.5t113.5 231.5l240 958h245l-262 -1046q-53 -215 -184 -319.5t-346 -104.5zM930 1847l160 -291h-197l-96 168l-181 -168h-245l307 291h252z" />
    <glyph glyph-name="jcircumflex" unicode="&#x135;" horiz-adv-x="540" 
d="M-143 -389q-74 0 -136 16l43 174q23 -8 52 -8q84 0 134 47t79 164l258 1036h233l-276 -1110q-41 -163 -143.5 -241t-243.5 -78zM571 1165l-75 174l-160 -174h-232l281 293h244l135 -293h-193z" />
    <glyph glyph-name="Kcommaaccent" unicode="&#x136;" horiz-adv-x="1318" 
d="M1182 0h-291l-412 721h-4l-178 -721h-246l363 1458h245l-157 -631h4l661 631h324l-770 -704zM393 -541h-96l139 217h-80l50 197h217l-50 -197z" />
    <glyph glyph-name="kcommaaccent" unicode="&#x137;" horiz-adv-x="1069" 
d="M958 0h-262l-309 516h-4l-129 -516h-234l363 1458h233l-206 -831h4l446 413h307l-553 -493zM317 -541h-96l139 217h-79l49 197h217l-49 -197z" />
    <glyph glyph-name="kgreenlandic" unicode="&#x138;" horiz-adv-x="1103" 
d="M958 0h-262l-309 516h-4l-129 -516h-234l259 1040h233l-102 -413h4l446 413h307l-553 -493z" />
    <glyph glyph-name="Lacute" unicode="&#x139;" horiz-adv-x="1163" 
d="M1065 213l-51 -213h-963l363 1458h245l-311 -1245h717zM469 1556l229 291h306l-334 -291h-201z" />
    <glyph glyph-name="lacute" unicode="&#x13a;" horiz-adv-x="532" 
d="M20 0l363 1458h233l-362 -1458h-234zM410 1581l229 295h305l-332 -295h-202z" />
    <glyph glyph-name="Lcommaaccent" unicode="&#x13b;" horiz-adv-x="1163" 
d="M1065 213l-51 -213h-963l363 1458h245l-311 -1245h717zM381 -541h-96l139 217h-80l49 197h217l-49 -197z" />
    <glyph glyph-name="lcommaaccent" unicode="&#x13c;" horiz-adv-x="532" 
d="M20 0l363 1458h233l-362 -1458h-234zM-6 -541h-96l139 217h-80l49 197h217l-49 -197z" />
    <glyph glyph-name="Lcaron" unicode="&#x13d;" horiz-adv-x="1163" 
d="M1065 213l-51 -213h-963l363 1458h245l-311 -1245h717zM647 1006l170 452h195l-230 -452h-135z" />
    <glyph glyph-name="lcaron" unicode="&#x13e;" horiz-adv-x="532" 
d="M20 0l363 1458h233l-362 -1458h-234zM590 1096l147 362h195l-205 -362h-137z" />
    <glyph glyph-name="Ldot" unicode="&#x13f;" horiz-adv-x="1327" 
d="M1065 213l-51 -213h-963l363 1458h245l-311 -1245h717zM872 721l70 289h268l-69 -289h-269z" />
    <glyph glyph-name="ldot" unicode="&#x140;" horiz-adv-x="931" 
d="M20 0l363 1458h233l-362 -1458h-234zM614 584l70 288h268l-69 -288h-269z" />
    <glyph glyph-name="Lslash" unicode="&#x141;" horiz-adv-x="1163" 
d="M1014 0h-963l146 588l-174 -92l57 233l176 90l158 639h245l-127 -512l336 176l-57 -231l-338 -176l-125 -502h717z" />
    <glyph glyph-name="lslash" unicode="&#x142;" horiz-adv-x="632" 
d="M483 727l-180 -727h-233l153 616l-205 -104l56 221l205 105l153 620h234l-127 -510l206 109l-55 -221z" />
    <glyph glyph-name="Nacute" unicode="&#x143;" horiz-adv-x="1568" 
d="M926 0l-172 610q-92 319 -168 627h-4q-82 -387 -152 -664l-141 -573h-238l363 1458h331l175 -610q92 -326 167 -627h5q72 354 149 664l143 573h236l-363 -1458h-331zM887 1556l229 291h305l-334 -291h-200z" />
    <glyph glyph-name="nacute" unicode="&#x144;" 
d="M797 1065q147 0 229 -78t82 -227q0 -72 -21 -152l-151 -608h-234l150 604q16 63 16 121q0 152 -157 152q-104 0 -190.5 -78t-121.5 -221l-145 -578h-234l261 1040h221l-31 -118h4q143 143 322 143zM612 1163l230 295h305l-332 -295h-203z" />
    <glyph glyph-name="Ncommaaccent" unicode="&#x145;" horiz-adv-x="1568" 
d="M926 0l-172 610q-92 319 -168 627h-4q-82 -387 -152 -664l-141 -573h-238l363 1458h331l175 -610q92 -326 167 -627h5q72 354 149 664l143 573h236l-363 -1458h-331zM502 -541h-96l139 217h-80l49 197h217l-49 -197z" />
    <glyph glyph-name="ncommaaccent" unicode="&#x146;" 
d="M797 1065q147 0 229 -78t82 -227q0 -72 -21 -152l-151 -608h-234l150 604q16 63 16 121q0 152 -157 152q-104 0 -190.5 -78t-121.5 -221l-145 -578h-234l261 1040h221l-31 -118h4q143 143 322 143zM326 -541h-97l140 217h-80l49 197h217l-49 -197z" />
    <glyph glyph-name="Ncaron" unicode="&#x147;" horiz-adv-x="1568" 
d="M926 0l-172 610q-92 319 -168 627h-4q-82 -387 -152 -664l-141 -573h-238l363 1458h331l175 -610q92 -326 167 -627h5q72 354 149 664l143 573h236l-363 -1458h-331zM915 1556l-159 291h196l97 -168l180 168h246l-308 -291h-252z" />
    <glyph glyph-name="ncaron" unicode="&#x148;" 
d="M797 1065q147 0 229 -78t82 -227q0 -72 -21 -152l-151 -608h-234l150 604q16 63 16 121q0 152 -157 152q-104 0 -190.5 -78t-121.5 -221l-145 -578h-234l261 1040h221l-31 -118h4q143 143 322 143zM641 1163l-160 295h203l96 -172l181 172h239l-307 -295h-252z" />
    <glyph glyph-name="napostrophe" unicode="&#x149;" horiz-adv-x="1478" 
d="M354 915h-127l158 287h-80l62 256h237l-63 -256zM1056 1065q163 0 244.5 -78t81.5 -227q0 -72 -20 -152l-152 -608h-233l149 604q16 63 17 121q0 152 -158 152q-104 0 -190 -78t-121 -221l-146 -578h-233l260 1040h221l-31 -118h5q143 143 306 143z" />
    <glyph glyph-name="Eng" unicode="&#x14a;" horiz-adv-x="1525" 
d="M797 -393q-68 0 -121 16l41 172q29 -6 61 -6q76 0 123 42t74 144l6 25l-231 664q-90 252 -172 534h-5q-49 -244 -131 -584l-153 -614h-238l363 1458h295l196 -563q100 -291 172 -537h4q53 264 131 582l129 518h238l-383 -1532q-41 -166 -145.5 -242.5t-253.5 -76.5z" />
    <glyph glyph-name="eng" unicode="&#x14b;" 
d="M797 1065q147 0 229 -79t82 -226q0 -72 -21 -152l-169 -678q-41 -164 -142.5 -241.5t-245.5 -77.5q-74 0 -135 16l43 174q23 -8 51 -8q84 0 133.5 47t79.5 164l150 600q16 63 16 121q0 152 -157 152q-104 0 -190.5 -78t-121.5 -221l-145 -578h-234l261 1040h221l-31 -118
h4q143 143 322 143z" />
    <glyph glyph-name="Omacron" unicode="&#x14c;" horiz-adv-x="1515" 
d="M377 570.5q0 -168.5 88 -275.5t249 -107t281.5 105.5t184 265.5t63.5 328.5t-89 275.5t-251 107t-281.5 -105.5t-182 -265.5t-62.5 -328.5zM1491 860q0 -201 -92 -409.5t-271.5 -345t-422.5 -136.5q-182 0 -311.5 76t-197 214t-67.5 339t91 410t269.5 345t423.5 136
q181 0 311 -76t198.5 -214t68.5 -339zM666 1604l39 159h624l-39 -159h-624z" />
    <glyph glyph-name="omacron" unicode="&#x14d;" horiz-adv-x="1181" 
d="M313 405.5q0 -114.5 55.5 -183t163 -68.5t184.5 74.5t114.5 184t37.5 223.5t-55 182.5t-162.5 68.5t-184.5 -75t-115 -183.5t-38 -223zM1110 623q0 -150 -69.5 -301.5t-207 -252t-336 -100.5t-311 118t-112.5 331q0 150 69.5 301t203.5 251.5t334 100.5t314.5 -117.5
t114.5 -330.5zM418 1243l39 160h624l-39 -160h-624z" />
    <glyph glyph-name="Obreve" unicode="&#x14e;" horiz-adv-x="1515" 
d="M377 570.5q0 -168.5 88 -275.5t249 -107t281.5 105.5t184 265.5t63.5 328.5t-89 275.5t-251 107t-281.5 -105.5t-182 -265.5t-62.5 -328.5zM1491 860q0 -201 -92 -409.5t-271.5 -345t-422.5 -136.5q-182 0 -311.5 76t-197 214t-67.5 339t91 410t269.5 345t423.5 136
q181 0 311 -76t198.5 -214t68.5 -339zM846 1819q0 -119 146 -119q72 0 128 39t76 108h184q-39 -143 -145.5 -222t-248.5 -79t-215 64.5t-73 181.5q0 18 4 55h146q-2 -10 -2 -28z" />
    <glyph glyph-name="obreve" unicode="&#x14f;" horiz-adv-x="1181" 
d="M313 405.5q0 -114.5 55.5 -183t163 -68.5t184.5 74.5t114.5 184t37.5 223.5t-55 182.5t-162.5 68.5t-184.5 -75t-115 -183.5t-38 -223zM1110 623q0 -150 -69.5 -301.5t-207 -252t-336 -100.5t-311 118t-112.5 331q0 150 69.5 301t203.5 251.5t334 100.5t314.5 -117.5
t114.5 -330.5zM588 1430q0 -119 146 -119q72 0 128 39t76 108h184q-39 -143 -145.5 -222t-248.5 -79t-215 64.5t-73 181.5q0 14 4 55h146q-2 -10 -2 -28z" />
    <glyph glyph-name="Ohungarumlaut" unicode="&#x150;" horiz-adv-x="1515" 
d="M377 570.5q0 -168.5 88 -275.5t249 -107t281.5 105.5t184 265.5t63.5 328.5t-89 275.5t-251 107t-281.5 -105.5t-182 -265.5t-62.5 -328.5zM1491 860q0 -201 -92 -409.5t-271.5 -345t-422.5 -136.5q-182 0 -311.5 76t-197 214t-67.5 339t91 410t269.5 345t423.5 136
q181 0 311 -76t198.5 -214t68.5 -339zM977 1552l270 295h275l-346 -295h-199zM618 1552l271 295h274l-346 -295h-199z" />
    <glyph glyph-name="ohungarumlaut" unicode="&#x151;" horiz-adv-x="1181" 
d="M313 405.5q0 -114.5 55.5 -183t163 -68.5t184.5 74.5t114.5 184t37.5 223.5t-55 182.5t-162.5 68.5t-184.5 -75t-115 -183.5t-38 -223zM1110 623q0 -150 -69.5 -301.5t-207 -252t-336 -100.5t-311 118t-112.5 331q0 150 69.5 301t203.5 251.5t334 100.5t314.5 -117.5
t114.5 -330.5zM750 1163l270 295h274l-344 -295h-200zM391 1163l271 295h274l-344 -295h-201z" />
    <glyph glyph-name="OE" unicode="&#x152;" horiz-adv-x="2068" 
d="M387 639q0 -426 404 -426h100l258 1032h-150q-211 0 -348 -92t-200.5 -230.5t-63.5 -283.5zM770 0q-313 0 -475 159.5t-162 465.5q0 203 96.5 394t294 315t488.5 124h1163l-53 -213h-727l-99 -395h684l-53 -211h-686l-104 -426h747l-51 -213h-1063z" />
    <glyph glyph-name="oe" unicode="&#x153;" horiz-adv-x="1869" 
d="M854 637q0 113 -52 181.5t-156.5 68.5t-180.5 -75t-114 -184.5t-38 -223t52.5 -182t156 -68.5t180 74.5t114.5 185t38 223.5zM1589 690q0 102 -55 155.5t-152.5 53.5t-176.5 -70.5t-120 -201.5h498q6 33 6 63zM651 1071q260 0 357 -194q164 195 403 194q193 0 294 -108.5
t101 -298.5q0 -72 -26 -191h-731q-11 -61 -11 -102q0 -117 53.5 -173.5t141.5 -56.5t156.5 47.5t99.5 124.5h237q-59 -147 -195 -245.5t-310 -98.5q-240 0 -334 185q-159 -185 -402 -185q-199 0 -305 117t-106 330q0 152 67.5 303t198.5 251.5t311 100.5z" />
    <glyph glyph-name="Racute" unicode="&#x154;" horiz-adv-x="1337" 
d="M756 786q115 0 187.5 42t105 103.5t32.5 123.5q0 201 -229 200h-242l-118 -469h264zM895 1458q444 0 444 -348q0 -90 -43 -179t-126 -156.5t-199 -94.5v-4q63 -25 95 -84.5t50 -192.5l53 -399h-251l-41 367q-16 123 -64.5 171t-159.5 48h-211l-145 -586h-246l363 1458
h481zM717 1556l229 291h305l-333 -291h-201z" />
    <glyph glyph-name="racute" unicode="&#x155;" horiz-adv-x="772" 
d="M752 846q-139 0 -234.5 -86t-136.5 -250l-127 -510h-234l259 1040h217l-33 -139h4q147 154 332 154q45 -1 86 -11l-51 -206q-39 8 -82 8zM430 1163l229 295h306l-332 -295h-203z" />
    <glyph glyph-name="Rcommaaccent" unicode="&#x156;" horiz-adv-x="1337" 
d="M756 786q115 0 187.5 42t105 103.5t32.5 123.5q0 201 -229 200h-242l-118 -469h264zM895 1458q444 0 444 -348q0 -90 -43 -179t-126 -156.5t-199 -94.5v-4q63 -25 95 -84.5t50 -192.5l53 -399h-251l-41 367q-16 123 -64.5 171t-159.5 48h-211l-145 -586h-246l363 1458
h481zM449 -541h-97l140 217h-80l49 197h217l-49 -197z" />
    <glyph glyph-name="rcommaaccent" unicode="&#x157;" horiz-adv-x="772" 
d="M752 846q-139 0 -234.5 -86t-136.5 -250l-127 -510h-234l259 1040h217l-33 -139h4q147 154 332 154q45 -1 86 -11l-51 -206q-39 8 -82 8zM-6 -541h-96l139 217h-80l49 197h217l-49 -197z" />
    <glyph glyph-name="Rcaron" unicode="&#x158;" horiz-adv-x="1337" 
d="M756 786q115 0 187.5 42t105 103.5t32.5 123.5q0 201 -229 200h-242l-118 -469h264zM895 1458q444 0 444 -348q0 -90 -43 -179t-126 -156.5t-199 -94.5v-4q63 -25 95 -84.5t50 -192.5l53 -399h-251l-41 367q-16 123 -64.5 171t-159.5 48h-211l-145 -586h-246l363 1458
h481zM748 1556l-160 291h196l97 -168l180 168h246l-308 -291h-251z" />
    <glyph glyph-name="rcaron" unicode="&#x159;" horiz-adv-x="772" 
d="M752 846q-139 0 -234.5 -86t-136.5 -250l-127 -510h-234l259 1040h217l-33 -139h4q147 154 332 154q45 -1 86 -11l-51 -206q-39 8 -82 8zM461 1163l-160 295h203l96 -172l180 172h240l-307 -295h-252z" />
    <glyph glyph-name="Sacute" unicode="&#x15a;" horiz-adv-x="1269" 
d="M799 1489q481 0 481 -369q0 -45 -16 -110h-248q8 35 8 73q0 100 -64.5 152.5t-170 52.5t-170 -29.5t-98.5 -77.5t-34 -117t62.5 -116t202 -93t219.5 -89q180 -97 180 -328q0 -113 -68.5 -221t-204 -178t-323.5 -70q-244 0 -377 100.5t-133 290.5q0 61 14 121h252
q-10 -55 -10 -90q0 -219 279 -219q106 0 176.5 36t103.5 89t33 111t-29.5 98.5t-82 67t-170 68.5t-197.5 84q-183 96 -183 318q0 104 65.5 207t195 170.5t307.5 67.5zM668 1556l229 291h305l-334 -291h-200z" />
    <glyph glyph-name="sacute" unicode="&#x15b;" horiz-adv-x="1042" 
d="M760 770q0 131 -174 131q-90 0 -138.5 -37t-48.5 -92t41 -82.5t149.5 -63.5t168.5 -67q144 -74 145 -246q0 -88 -53 -166.5t-159.5 -128t-281 -49.5t-280.5 75t-106 218q0 47 10 80h235q-8 -41 -8 -57q0 -68 49 -105t144.5 -37t149.5 39t54 102.5t-48 95.5t-157.5 69
t-161.5 63q-126 64 -126 229q0 84 51 160t150.5 123t262.5 47t260 -71.5t97 -208.5q0 -39 -8 -74h-223q6 30 6 53zM492 1163l229 295h305l-332 -295h-202z" />
    <glyph glyph-name="Scircumflex" unicode="&#x15c;" horiz-adv-x="1269" 
d="M799 1489q481 0 481 -369q0 -45 -16 -110h-248q8 35 8 73q0 100 -64.5 152.5t-170 52.5t-170 -29.5t-98.5 -77.5t-34 -117t62.5 -116t202 -93t219.5 -89q180 -97 180 -328q0 -113 -68.5 -221t-204 -178t-323.5 -70q-244 0 -377 100.5t-133 290.5q0 61 14 121h252
q-10 -55 -10 -90q0 -219 279 -219q106 0 176.5 36t103.5 89t33 111t-29.5 98.5t-82 67t-170 68.5t-197.5 84q-183 96 -183 318q0 104 65.5 207t195 170.5t307.5 67.5zM1022 1847l160 -291h-197l-96 168l-180 -168h-246l307 291h252z" />
    <glyph glyph-name="scircumflex" unicode="&#x15d;" horiz-adv-x="1042" 
d="M760 770q0 131 -174 131q-90 0 -138.5 -37t-48.5 -92t41 -82.5t149.5 -63.5t168.5 -67q144 -74 145 -246q0 -88 -53 -166.5t-159.5 -128t-281 -49.5t-280.5 75t-106 218q0 47 10 80h235q-8 -41 -8 -57q0 -68 49 -105t144.5 -37t149.5 39t54 102.5t-48 95.5t-157.5 69
t-161.5 63q-126 64 -126 229q0 84 51 160t150.5 123t262.5 47t260 -71.5t97 -208.5q0 -39 -8 -74h-223q6 30 6 53zM803 1163l-96 172l-181 -172h-239l307 295h252l160 -295h-203z" />
    <glyph glyph-name="Scedilla" unicode="&#x15e;" horiz-adv-x="1269" 
d="M799 1489q481 0 481 -369q0 -45 -16 -110h-248q8 34 8 73q0 100 -64.5 152.5t-170 52.5t-170 -29.5t-98.5 -77.5t-34 -117t62.5 -116t202 -93t219.5 -89q180 -97 180 -328q0 -106 -63.5 -211.5t-189.5 -177.5t-300 -80l-86 -94q18 6 61 6t82 -38t39 -111.5t-78.5 -131
t-196.5 -57.5t-210 60l47 82q78 -43 147.5 -43t104.5 23.5t35 64.5q0 71 -84 71q-37 0 -68 -12l-37 35l133 147q-213 14 -327.5 113.5t-114.5 275.5q0 61 14 121h252q-10 -55 -10 -90q0 -219 279 -219q106 0 176.5 36t103.5 89t33 111t-29.5 98.5t-82 67t-170 68.5
t-197.5 84q-183 96 -183 318q0 104 65.5 207t195 170.5t307.5 67.5z" />
    <glyph glyph-name="scedilla" unicode="&#x15f;" horiz-adv-x="1042" 
d="M760 770q0 131 -174 131q-90 0 -138.5 -37t-48.5 -92t41 -82.5t149.5 -63.5t168.5 -67q144 -74 145 -246q0 -84 -48 -159.5t-143.5 -124.5t-232.5 -58l-86 -96q18 6 61 6t82 -38t39 -111.5t-78.5 -131t-196.5 -57.5t-210 60l47 82q78 -43 147.5 -43t104.5 23.5t35 64.5
q0 71 -84 71q-37 0 -68 -12l-36 35l133 147q-166 12 -256 86t-90 205q0 47 10 80h235q-8 -41 -8 -57q0 -68 49 -105t144.5 -37t149.5 39t54 102.5t-48 95.5t-157.5 69t-161.5 63q-126 64 -126 229q0 84 51 160t150.5 123t262 47t260 -71.5t97.5 -208.5q0 -39 -8 -74h-223
q6 30 6 53z" />
    <glyph glyph-name="Scaron" unicode="&#x160;" horiz-adv-x="1269" 
d="M799 1489q481 0 481 -369q0 -45 -16 -110h-248q8 35 8 73q0 100 -64.5 152.5t-170 52.5t-170 -29.5t-98.5 -77.5t-34 -117t62.5 -116t202 -93t219.5 -89q180 -97 180 -328q0 -113 -68.5 -221t-204 -178t-323.5 -70q-244 0 -377 100.5t-133 290.5q0 61 14 121h252
q-10 -55 -10 -90q0 -219 279 -219q106 0 176.5 36t103.5 89t33 111t-29.5 98.5t-82 67t-170 68.5t-197.5 84q-183 96 -183 318q0 104 65.5 207t195 170.5t307.5 67.5zM698 1556l-159 291h196l96 -168l181 168h245l-307 -291h-252z" />
    <glyph glyph-name="scaron" unicode="&#x161;" horiz-adv-x="1042" 
d="M760 770q0 131 -174 131q-90 0 -138.5 -37t-48.5 -92t41 -82.5t149.5 -63.5t168.5 -67q144 -74 145 -246q0 -88 -53 -166.5t-159.5 -128t-281 -49.5t-280.5 75t-106 218q0 47 10 80h235q-8 -41 -8 -57q0 -68 49 -105t144.5 -37t149.5 39t54 102.5t-48 95.5t-157.5 69
t-161.5 63q-126 64 -126 229q0 84 51 160t150.5 123t262.5 47t260 -71.5t97 -208.5q0 -39 -8 -74h-223q6 30 6 53zM520 1163l-160 295h203l96 -172l181 172h239l-307 -295h-252z" />
    <glyph glyph-name="uni0162" unicode="&#x162;" horiz-adv-x="606" 
d="M350 -541h-96l139 217h-80l49 197h218l-50 -197zM926 1245l-312 -1245h-243l309 1245h-479l53 213h1202l-53 -213h-477z" />
    <glyph glyph-name="uni0163" unicode="&#x163;" horiz-adv-x="694" 
d="M354 -127l-49 -197l-180 -217h-96l139 217h-80l49 197h217zM375 266q0 -88 112 -88q33 0 70 8l-47 -186q-53 -12 -100 -12q-143 0 -209 56t-66 181q0 66 21 142l123 495h-175l43 178h177l63 260h234l-66 -260h203l-43 -178h-203l-127 -506q-10 -50 -10 -90z" />
    <glyph glyph-name="Tcaron" unicode="&#x164;" horiz-adv-x="1243" 
d="M926 1245l-312 -1245h-243l309 1245h-479l53 213h1202l-53 -213h-477zM731 1556l-160 291h197l96 -168l180 168h246l-307 -291h-252z" />
    <glyph glyph-name="tcaron" unicode="&#x165;" horiz-adv-x="694" 
d="M375 266q0 -88 112 -88q33 0 70 8l-47 -186q-53 -12 -100 -12q-143 0 -209 56t-66 181q0 66 21 142l123 495h-175l43 178h177l63 260h234l-66 -260h203l-43 -178h-203l-127 -506q-10 -50 -10 -90zM633 1096l147 362h195l-205 -362h-137z" />
    <glyph glyph-name="Tbar" unicode="&#x166;" horiz-adv-x="1243" 
d="M821 827h283l-45 -180h-283l-162 -647h-243l159 647h-282l45 180h282l105 418h-479l53 213h1202l-53 -213h-477z" />
    <glyph glyph-name="tbar" unicode="&#x167;" horiz-adv-x="690" 
d="M375 266q0 -88 112 -88q33 0 70 8l-47 -186q-53 -12 -100 -12q-143 0 -209 56t-66 181q0 53 21 142l28 112h-170l37 146h170l60 237h-177l43 178h177l65 260h232l-66 -260h203l-43 -178h-203l-59 -237h196l-37 -146h-196l-31 -123q-10 -50 -10 -90z" />
    <glyph glyph-name="Utilde" unicode="&#x168;" horiz-adv-x="1458" 
d="M410 440q0 -252 258 -252q141 0 238.5 87t140.5 253l231 930h244l-246 -989q-62 -244 -224.5 -372t-399 -128t-361.5 119t-125 338q0 86 29 201l206 831h246l-217 -874q-20 -76 -20 -144zM1147 1743q85 0 123 98h139q-35 -121 -106.5 -188.5t-165.5 -67.5q-49 0 -82 14.5
t-74 40t-63.5 36t-49.5 10.5q-84 0 -118 -101h-144q35 121 106.5 188.5t166.5 67.5q49 0 83.5 -14.5t73.5 -38.5t61.5 -34.5t49.5 -10.5z" />
    <glyph glyph-name="utilde" unicode="&#x169;" 
d="M422.5 -25q-162.5 0 -244.5 78t-82 228q0 72 21 151l151 608h234l-150 -604q-16 -63 -16 -121q0 -151 158 -151q104 0 190 77.5t121 221.5l145 577h234l-260 -1040h-222l31 119h-4q-144 -144 -306.5 -144zM643 1294q-82 0 -117 -98h-143q35 121 105.5 188.5t166.5 67.5
q75 0 158 -54q39 -26 60.5 -36t48.5 -10q86 0 122 100h140q-35 -121 -106.5 -188.5t-155 -67.5t-143.5 39t-84.5 49t-51.5 10z" />
    <glyph glyph-name="Umacron" unicode="&#x16a;" horiz-adv-x="1458" 
d="M410 440q0 -252 258 -252q141 0 238.5 87t140.5 253l231 930h244l-246 -989q-62 -244 -224.5 -372t-399 -128t-361.5 119t-125 338q0 86 29 201l206 831h246l-217 -874q-20 -76 -20 -144zM666 1604l39 159h624l-39 -159h-624z" />
    <glyph glyph-name="umacron" unicode="&#x16b;" 
d="M422.5 -25q-162.5 0 -244.5 78t-82 228q0 72 21 151l151 608h234l-150 -604q-16 -63 -16 -121q0 -151 158 -151q104 0 190 77.5t121 221.5l145 577h234l-260 -1040h-222l31 119h-4q-144 -144 -306.5 -144zM451 1243l38 160h625l-39 -160h-624z" />
    <glyph glyph-name="Ubreve" unicode="&#x16c;" horiz-adv-x="1458" 
d="M410 440q0 -252 258 -252q141 0 238.5 87t140.5 253l231 930h244l-246 -989q-62 -244 -224.5 -372t-399 -128t-361.5 119t-125 338q0 86 29 201l206 831h246l-217 -874q-20 -76 -20 -144zM846 1819q0 -119 146 -119q72 0 128 39t76 108h184q-39 -143 -145.5 -222
t-248.5 -79t-215 64.5t-73 181.5q0 18 4 55h146q-2 -10 -2 -28z" />
    <glyph glyph-name="ubreve" unicode="&#x16d;" 
d="M422.5 -25q-162.5 0 -244.5 78t-82 228q0 72 21 151l151 608h234l-150 -604q-16 -63 -16 -121q0 -151 158 -151q104 0 190 77.5t121 221.5l145 577h234l-260 -1040h-222l31 119h-4q-144 -144 -306.5 -144zM621 1430q0 -119 146 -119q73 0 128 39t76 108h184
q-39 -143 -145.5 -222t-248.5 -79t-215 64.5t-73 181.5q0 14 4 55h146q-2 -10 -2 -28z" />
    <glyph glyph-name="Uring" unicode="&#x16e;" horiz-adv-x="1458" 
d="M410 440q0 -252 258 -252q141 0 238.5 87t140.5 253l231 930h244l-246 -989q-62 -244 -224.5 -372t-399 -128t-361.5 119t-125 338q0 86 29 201l206 831h246l-217 -874q-20 -76 -20 -144zM881 1751q0 -47 33.5 -81t80.5 -34t80 34t33 81t-33 81t-80 34t-80.5 -34
t-33.5 -81zM1208 1751q0 -88 -62.5 -150.5t-151.5 -62.5t-151.5 62.5t-62.5 150.5t62.5 150.5t151.5 62.5t151.5 -62.5t62.5 -150.5z" />
    <glyph glyph-name="uring" unicode="&#x16f;" 
d="M422.5 -25q-162.5 0 -244.5 78t-82 228q0 72 21 151l151 608h234l-150 -604q-16 -63 -16 -121q0 -151 158 -151q104 0 190 77.5t121 221.5l145 577h234l-260 -1040h-222l31 119h-4q-144 -144 -306.5 -144zM655 1362q0 -47 34 -81t81 -34t81 34t34 81t-34 81t-81 34
t-81 -34t-34 -81zM983 1363q0 -89 -61.5 -151.5t-150.5 -62.5t-151.5 62.5t-62.5 151.5t62.5 150.5t151.5 61.5t150.5 -61.5t61.5 -150.5z" />
    <glyph glyph-name="Uhungarumlaut" unicode="&#x170;" horiz-adv-x="1458" 
d="M410 440q0 -252 258 -252q141 0 238.5 87t140.5 253l231 930h244l-246 -989q-62 -244 -224.5 -372t-399 -128t-361.5 119t-125 338q0 86 29 201l206 831h246l-217 -874q-20 -76 -20 -144zM977 1552l270 295h275l-346 -295h-199zM618 1552l271 295h274l-346 -295h-199z
" />
    <glyph glyph-name="uhungarumlaut" unicode="&#x171;" 
d="M422.5 -25q-162.5 0 -244.5 78t-82 228q0 72 21 151l151 608h234l-150 -604q-16 -63 -16 -121q0 -151 158 -151q104 0 190 77.5t121 221.5l145 577h234l-260 -1040h-222l31 119h-4q-144 -144 -306.5 -144zM780 1163l271 295h274l-344 -295h-201zM422 1163l270 295h275
l-344 -295h-201z" />
    <glyph glyph-name="Uogonek" unicode="&#x172;" horiz-adv-x="1458" 
d="M410 440q0 -252 258 -252q143 0 240.5 88.5t138.5 258.5l231 923h244l-244 -983q-69 -274 -266 -407q-162 -111 -218.5 -169.5t-56.5 -109.5t62 -51q41 0 78 12l-33 -133q-53 -16 -125 -16q-195 0 -195 147q0 114 162 219v4q-12 -2 -39 -2q-238 0 -359.5 116t-121.5 341
q0 86 29 201l206 831h246l-217 -874q-20 -76 -20 -144z" />
    <glyph glyph-name="uogonek" unicode="&#x173;" 
d="M336 315q0 -151 158 -151q104 0 190 77.5t121 221.5l145 577h234l-260 -1040h-2q-113 -68 -155 -118t-42 -97t61 -47q41 0 78 12l-33 -133q-53 -16 -124 -16q-195 0 -195 147q0 68 52 128.5t165 123.5h-27l31 119h-4q-144 -144 -306 -144t-244.5 78t-82.5 228
q0 72 21 151l151 608h234l-150 -604q-16 -63 -16 -121z" />
    <glyph glyph-name="Wcircumflex" unicode="&#x174;" horiz-adv-x="1916" 
d="M1116 0l4 606q2 264 21 641h-4q-106 -248 -299 -641l-295 -606h-330l41 1458h229l-18 -561q-6 -227 -35 -657h4q131 295 311 659l275 559h321l-4 -559q-4 -389 -16 -659h4q125 293 293 657l260 561h252l-684 -1458h-330zM1403 1847l160 -291h-197l-96 168l-180 -168h-246
l307 291h252z" />
    <glyph glyph-name="wcircumflex" unicode="&#x175;" horiz-adv-x="1617" 
d="M1090 502q0 -168 -7 -340h4q96 240 205 461l199 417h244l-512 -1040h-334l2 430q0 221 6 449h-4q-98 -227 -209 -449l-213 -430h-334l4 1040h224l-11 -417q-8 -322 -14 -461h4q90 209 209 452l211 426h328l-2 -426v-112zM1114 1163l-96 172l-180 -172h-240l307 295h252
l160 -295h-203z" />
    <glyph glyph-name="Ycircumflex" unicode="&#x176;" horiz-adv-x="1282" 
d="M635 0h-246l146 586l-295 872h249l89 -289q39 -123 104 -376h4q125 178 289 376l229 289h303l-727 -872zM1051 1847l159 -291h-196l-96 168l-181 -168h-245l307 291h252z" />
    <glyph glyph-name="ycircumflex" unicode="&#x177;" horiz-adv-x="999" 
d="M-30.5 -389q-96.5 0 -151.5 20l45 185q47 -14 117.5 -14.5t131 41.5t126.5 149l-121 1048h229l74 -774h4l455 774h262l-670 -1085q-82 -133 -157.5 -207t-161.5 -105.5t-182.5 -31.5zM774 1163l-96 172l-180 -172h-240l307 295h252l160 -295h-203z" />
    <glyph glyph-name="Ydieresis" unicode="&#x178;" horiz-adv-x="1282" 
d="M635 0h-246l146 586l-295 872h249l89 -289q39 -123 104 -376h4q125 178 289 376l229 289h303l-727 -872zM963 1581l55 223h211l-58 -223h-208zM541 1581l55 223h211l-57 -223h-209z" />
    <glyph glyph-name="Zacute" unicode="&#x179;" horiz-adv-x="1175" 
d="M264 209h795l-51 -209h-1098l59 236l1010 1009v4h-731l53 209h1032l-59 -235l-1010 -1010v-4zM666 1556l229 291h305l-334 -291h-200z" />
    <glyph glyph-name="zacute" unicode="&#x17a;" horiz-adv-x="974" 
d="M270 186h568l-47 -186h-865l51 205l709 645v4h-526l47 186h823l-51 -204l-709 -646v-4zM455 1163l229 295h305l-332 -295h-202z" />
    <glyph glyph-name="Zdotaccent" unicode="&#x17b;" horiz-adv-x="1175" 
d="M264 209h795l-51 -209h-1098l59 236l1010 1009v4h-731l53 209h1032l-59 -235l-1010 -1010v-4zM711 1581l55 223h233l-55 -223h-233z" />
    <glyph glyph-name="zdotaccent" unicode="&#x17c;" horiz-adv-x="974" 
d="M270 186h568l-47 -186h-865l51 205l709 645v4h-526l47 186h823l-51 -204l-709 -646v-4zM512 1235l55 223h234l-56 -223h-233z" />
    <glyph glyph-name="Zcaron" unicode="&#x17d;" horiz-adv-x="1175" 
d="M264 209h795l-51 -209h-1098l59 236l1010 1009v4h-731l53 209h1032l-59 -235l-1010 -1010v-4zM696 1556l-159 291h196l96 -168l181 168h245l-307 -291h-252z" />
    <glyph glyph-name="zcaron" unicode="&#x17e;" horiz-adv-x="974" 
d="M270 186h568l-47 -186h-865l51 205l709 645v4h-526l47 186h823l-51 -204l-709 -646v-4zM485 1163l-159 295h202l97 -172l180 172h239l-307 -295h-252z" />
    <glyph glyph-name="longs" unicode="&#x17f;" horiz-adv-x="661" 
d="M778 1294q-80 0 -127 -43t-71 -141l-277 -1110h-231l215 862h-178l45 178h178l33 131q74 302 376 302q72 -1 131 -19l-43 -168q-25 8 -51 8z" />
    <glyph glyph-name="Schwa" unicode="&#x18f;" horiz-adv-x="1540" 
d="M365 508q0 -156 92 -238t256 -82t297 110t192 308h-827q-10 -57 -10 -98zM1526 909q0 -213 -100.5 -432t-292 -363.5t-463.5 -144.5t-416.5 149.5t-144.5 407.5q0 154 49 287h1091q10 66 11 109q0 178 -94.5 265t-242.5 87t-260 -72t-159 -184h-283q55 131 158.5 237.5
t250 170t318.5 63.5q281 0 429.5 -152.5t148.5 -427.5z" />
    <glyph glyph-name="florin" unicode="&#x192;" horiz-adv-x="1189" 
d="M1230 1286q-68 0 -128 -45t-115 -156l-63 -127h217l-43 -176h-260l-394 -782q-106 -213 -218.5 -301t-282.5 -88q-78 0 -121 16l45 183q37 -10 101 -10t118.5 44.5t120.5 175.5l383 762h-199l43 176h242l74 148q100 197 213.5 284t275.5 87q86 -1 141 -19l-45 -182
q-37 10 -105 10z" />
    <glyph glyph-name="Aringacute" unicode="&#x1fa;" horiz-adv-x="1406" 
d="M961 723q-25 268 -46 580h-4q-156 -283 -329 -580l-68 -115h457zM387 395l-233 -395h-275l893 1458h330l168 -1458h-242l-37 395h-604zM842 1714q0 -47 33.5 -81t81 -34t80 34t32.5 81t-32.5 81t-80 34t-81 -34t-33.5 -81zM1169 1714q0 -88 -62.5 -150.5t-151.5 -62.5
t-151.5 62.5t-62.5 150.5t62.5 150.5t151.5 62.5t151.5 -62.5t62.5 -150.5zM819 1970l230 291h305l-334 -291h-201z" />
    <glyph glyph-name="aringacute" unicode="&#x1fb;" horiz-adv-x="1103" 
d="M246 284q0 -134 157 -134q117 0 198 69.5t116 196.5l18 78q-115 -7 -248 -25q-241 -36 -241 -185zM614 901q-90 0 -151.5 -49t-77.5 -133h-231q33 154 159.5 253t314.5 99q382 0 382 -317q0 -63 -19 -138l-84 -342q-43 -172 -43 -274h-207q0 63 19 127h-4
q-143 -150 -357 -150q-150 0 -231.5 74t-81.5 202t106 225q153 141 664 167l6 25q12 43 13 80q0 151 -177 151zM588 1331q0 -47 33.5 -80.5t81 -33.5t81 33.5t33.5 80.5t-33.5 81t-81 34t-81 -34t-33.5 -81zM915 1332q0 -89 -61 -151.5t-150.5 -62.5t-152 62.5t-62.5 151.5
t62.5 150.5t152 61.5t150.5 -61.5t61 -150.5zM571 1593l230 295h305l-332 -295h-203z" />
    <glyph glyph-name="AEacute" unicode="&#x1fc;" horiz-adv-x="1947" 
d="M1032 1257l-448 -634h413l66 634h-31zM1251 850h609l-54 -211h-579l-43 -426h581l-51 -213h-780l43 414h-541l-291 -414h-286l1059 1458h1138l-53 -213h-713zM1153 1556l229 291h306l-334 -291h-201z" />
    <glyph glyph-name="aeacute" unicode="&#x1fd;" horiz-adv-x="1783" 
d="M555 473q-313 0 -313 -192q0 -66 43 -103t125 -37q123 0 205.5 75t117.5 218l8 39h-186zM1501 688q0 104 -53 157.5t-149.5 53.5t-177.5 -69.5t-124 -202.5h500q4 23 4 61zM2 254q0 92 52 175t178 137.5t331 54.5h215l10 38q10 47 11 78q0 164 -181 164q-94 0 -156.5 -49
t-78.5 -133h-229q33 154 158.5 253t312.5 99q248 0 333 -149q150 150 352 149.5t305 -110t103 -299.5q0 -82 -24 -189h-733q-11 -61 -11 -100q0 -117 55.5 -174.5t144.5 -57.5t155.5 47.5t95.5 124.5h239q-57 -147 -192 -245.5t-309 -98.5q-263 0 -353 209
q-156 -209 -415 -209q-176 0 -272.5 78t-96.5 207zM889 1163l229 295h305l-331 -295h-203z" />
    <glyph glyph-name="Oslashacute" unicode="&#x1fe;" horiz-adv-x="1515" 
d="M1225 1047l-762 -764q94 -104 254 -104.5t282.5 107t187 269.5t64.5 319q1 89 -26 173zM900 1280q-161 0 -282.5 -107.5t-185 -269.5t-63.5 -319q-1 -96 24 -170l762 760q-94 106 -255 106zM1491 873q0 -209 -92 -420t-271.5 -347.5t-429.5 -136.5t-401 148l-139 -140
l-101 101l154 153q-82 145 -82 355.5t92 420.5t270.5 346t428 136t403.5 -148l139 140l99 -101l-152 -151q82 -147 82 -356zM860 1556l230 291h305l-334 -291h-201z" />
    <glyph glyph-name="oslashacute" unicode="&#x1ff;" horiz-adv-x="1183" 
d="M881 595q0 75 -11 122l-505 -506q57 -63 166.5 -63.5t189.5 75.5t120 186.5t40 185.5zM301 442.5q0 -77.5 8 -112.5l504 501q-57 61 -164.5 61.5t-187.5 -75.5t-120 -186.5t-40 -188zM1110 628q0 -155 -70.5 -306.5t-207 -252t-321.5 -100.5t-296 92l-123 -122l-88 88
l131 129q-61 104 -61 259t69.5 306t205.5 250.5t320.5 99.5t295.5 -88l120 121l86 -88l-127 -125q66 -108 66 -263zM596 1163l229 295h305l-331 -295h-203z" />
    <glyph glyph-name="Scommaaccent" unicode="&#x218;" horiz-adv-x="1269" 
d="M799 1489q481 0 481 -369q0 -45 -16 -110h-248q8 35 8 73q0 100 -64.5 152.5t-170 52.5t-170 -29.5t-98.5 -77.5t-34 -117t62.5 -116t202 -93t219.5 -89q180 -97 180 -328q0 -113 -68.5 -221t-204 -178t-323.5 -70q-244 0 -377 100.5t-133 290.5q0 61 14 121h252
q-10 -55 -10 -90q0 -219 279 -219q106 0 176.5 36t103.5 89t33 111t-29.5 98.5t-82 67t-170 68.5t-197.5 84q-183 96 -183 318q0 104 65.5 207t195 170.5t307.5 67.5zM381 -541h-96l139 217h-80l49 197h217l-49 -197z" />
    <glyph glyph-name="scommaaccent" unicode="&#x219;" horiz-adv-x="1042" 
d="M760 770q0 131 -174 131q-90 0 -138.5 -37t-48.5 -92t41 -82.5t149.5 -63.5t168.5 -67q144 -74 145 -246q0 -88 -53 -166.5t-159.5 -128t-281 -49.5t-280.5 75t-106 218q0 47 10 80h235q-8 -41 -8 -57q0 -68 49 -105t144.5 -37t149.5 39t54 102.5t-48 95.5t-157.5 69
t-161.5 63q-126 64 -126 229q0 84 51 160t150.5 123t262.5 47t260 -71.5t97 -208.5q0 -39 -8 -74h-223q6 30 6 53zM262 -541h-96l139 217h-80l49 197h218l-50 -197z" />
    <glyph glyph-name="uni021A" unicode="&#x21a;" horiz-adv-x="1243" 
d="M926 1245l-312 -1245h-243l309 1245h-479l53 213h1202l-53 -213h-477zM350 -541h-96l139 217h-80l49 197h218l-50 -197z" />
    <glyph glyph-name="uni021B" unicode="&#x21b;" horiz-adv-x="694" 
d="M375 266q0 -88 112 -88q33 0 70 8l-47 -186q-53 -12 -100 -12q-143 0 -209 56t-66 181q0 66 21 142l123 495h-175l43 178h177l63 260h234l-66 -260h203l-43 -178h-203l-127 -506q-10 -50 -10 -90zM125 -541h-96l139 217h-80l49 197h217l-49 -197z" />
    <glyph glyph-name="dotlessj" unicode="&#x237;" horiz-adv-x="540" 
d="M-143 -389q-74 0 -136 16l43 174q23 -8 52 -8q84 0 134 47t79 164l258 1036h233l-276 -1110q-41 -163 -143.5 -241t-243.5 -78z" />
    <glyph glyph-name="schwa" unicode="&#x259;" horiz-adv-x="1150" 
d="M281 352q0 -102 57.5 -156.5t159.5 -54.5t189 74t130 211h-530q-6 -41 -6 -74zM1081 641q0 -154 -70.5 -309.5t-206.5 -259t-331 -103.5t-302.5 109.5t-107.5 300.5q0 109 35 201h754q8 43 8 88q0 117 -59.5 174t-153.5 57t-162.5 -44t-99.5 -116h-240q59 143 196 237.5
t331 94.5t301.5 -113.5t107.5 -316.5z" />
    <glyph glyph-name="uni02BC" unicode="&#x2bc;" horiz-adv-x="503" 
d="M356 915h-127l158 287h-80l62 256h235l-61 -256z" />
    <glyph glyph-name="circumflex" unicode="&#x2c6;" horiz-adv-x="925" 
d="M778 1163l-96 172l-180 -172h-240l307 295h252l160 -295h-203z" />
    <glyph glyph-name="caron" unicode="&#x2c7;" horiz-adv-x="925" 
d="M498 1163l-160 295h203l96 -172l180 172h240l-307 -295h-252z" />
    <glyph glyph-name="uni02C9" unicode="&#x2c9;" horiz-adv-x="831" 
d="M285 1243l39 160h624l-39 -160h-624z" />
    <glyph glyph-name="breve" unicode="&#x2d8;" horiz-adv-x="882" 
d="M479 1430q0 -119 147 -119q73 0 128 39t75 108h185q-39 -143 -145.5 -222t-248.5 -79t-215 64.5t-73 181.5q0 14 4 55h145q-2 -10 -2 -28z" />
    <glyph glyph-name="dotaccent" unicode="&#x2d9;" horiz-adv-x="440" 
d="M283 1235l55 223h233l-55 -223h-233z" />
    <glyph glyph-name="ring" unicode="&#x2da;" horiz-adv-x="645" 
d="M418 1362q0 -47 33.5 -81t81 -34t81 34t33.5 81t-33.5 81t-81 34t-81 -34t-33.5 -81zM745 1363q0 -89 -60.5 -151.5t-150.5 -62.5t-152.5 62.5t-62.5 151.5t62.5 150.5t152.5 61.5t150.5 -61.5t60.5 -150.5z" />
    <glyph glyph-name="ogonek" unicode="&#x2db;" horiz-adv-x="563" 
d="M-84 -252q0 132 221 254l189 -2q-113 -68 -155 -118t-42 -97t61 -47q41 0 78 12l-32 -133q-53 -16 -125 -16q-195 0 -195 147z" />
    <glyph glyph-name="tilde" unicode="&#x2dc;" horiz-adv-x="942" 
d="M532 1294q-82 0 -116 -98h-144q35 121 106 188.5t167 67.5q75 0 158 -54q39 -26 60 -36t48 -10q86 0 123 100h139q-35 -121 -106.5 -188.5t-155.5 -67.5t-143 39q-60 39 -84.5 49t-51.5 10z" />
    <glyph glyph-name="hungarumlaut" unicode="&#x2dd;" horiz-adv-x="1034" 
d="M621 1163l270 295h274l-344 -295h-200zM262 1163l270 295h275l-344 -295h-201z" />
    <glyph glyph-name="uni0312" unicode="&#x312;" horiz-adv-x="0" 
d="M537 1384l-48 -196h-219l49 196l181 218h96l-139 -218h80z" />
    <glyph glyph-name="commaaccent" unicode="&#x326;" horiz-adv-x="0" 
d="M-66 -541h-96l139 217h-79l49 197h217l-49 -197z" />
    <glyph glyph-name="uni0333" unicode="&#x333;" horiz-adv-x="0" 
d="M-1280 -506l31 123h1024l-31 -123h-1024zM-1210 -225l30 123h1024l-30 -123h-1024z" />
    <glyph glyph-name="numeralsigngreek" unicode="&#x374;" horiz-adv-x="403" 
d="M190 1040l172 418h213l-235 -418h-150z" />
    <glyph glyph-name="numeralsignlowergreek" unicode="&#x375;" horiz-adv-x="403" 
d="M-117 -188l172 417h213l-235 -417h-150z" />
    <glyph glyph-name="questiongreek" unicode="&#x37e;" horiz-adv-x="495" 
d="M43 -324h-145l176 324h-90l71 291h269l-70 -291zM170 750l72 290h268l-70 -290h-270z" />
    <glyph glyph-name="tonos" unicode="&#x384;" horiz-adv-x="516" 
d="M264 1167l162 332h231l-215 -332h-178z" />
    <glyph glyph-name="dieresistonos" unicode="&#x385;" horiz-adv-x="1024" 
d="M893 1194l55 223h195l-53 -223h-197zM272 1194l54 223h196l-55 -223h-195zM547 1167l149 310h197l-182 -310h-164z" />
    <glyph glyph-name="Alphatonos" unicode="&#x386;" horiz-adv-x="1406" 
d="M961 723q-25 268 -46 580h-4q-156 -283 -329 -580l-68 -115h457zM387 395l-233 -395h-275l893 1458h330l168 -1458h-242l-37 395h-604zM180 1044l180 414h232l-236 -414h-176z" />
    <glyph glyph-name="anoteleia" unicode="&#x387;" horiz-adv-x="495" 
d="M172 752l70 288h268l-70 -288h-268z" />
    <glyph glyph-name="Epsilontonos" unicode="&#x388;" horiz-adv-x="1280" 
d="M606 1245l-96 -395h684l-55 -211h-684l-107 -426h750l-51 -213h-996l363 1458h975l-54 -213h-729zM-102 1044l180 414h231l-235 -414h-176z" />
    <glyph glyph-name="Etatonos" unicode="&#x389;" horiz-adv-x="1523" 
d="M969 0l161 651h-671l-162 -651h-246l363 1458h245l-147 -594h672l147 594h244l-363 -1458h-243zM-102 1044l180 414h231l-235 -414h-176z" />
    <glyph glyph-name="Iotatonos" unicode="&#x38a;" horiz-adv-x="606" 
d="M51 0l363 1458h245l-362 -1458h-246zM-102 1044l180 414h231l-235 -414h-176z" />
    <glyph glyph-name="Omicrontonos" unicode="&#x38c;" horiz-adv-x="1515" 
d="M377 570.5q0 -168.5 88 -275.5t249 -107t281.5 105.5t184 265.5t63.5 328.5t-89 275.5t-251 107t-281.5 -105.5t-182 -265.5t-62.5 -328.5zM1491 860q0 -201 -92 -409.5t-271.5 -345t-422.5 -136.5q-182 0 -311.5 76t-197 214t-67.5 339t91 410t269.5 345t423.5 136
q181 0 311 -76t198.5 -214t68.5 -339zM-23 1044l181 414h231l-235 -414h-177z" />
    <glyph glyph-name="Upsilontonos" unicode="&#x38e;" horiz-adv-x="1282" 
d="M635 0h-246l146 586l-295 872h249l89 -289q39 -123 104 -376h4q125 178 289 376l229 289h303l-727 -872zM-223 1044l180 414h231l-235 -414h-176z" />
    <glyph glyph-name="Omegatonos" unicode="&#x38f;" horiz-adv-x="1497" 
d="M1487 1004.5q0 -232.5 -115 -420t-344 -371.5v-4h322l-52 -209h-577l55 219q445 351 445 715q0 166 -86 251t-241 85t-269.5 -89t-173 -226.5t-58.5 -270.5t39 -240.5t113 -224.5l-53 -219h-551l53 209h332v4q-82 123 -127 245t-45 284.5t88 340t264 292t431 114.5
t402.5 -126t147.5 -358.5zM-37 1044l180 414h232l-236 -414h-176z" />
    <glyph glyph-name="iotadieresistonos" unicode="&#x390;" horiz-adv-x="608" 
d="M324 277q0 -99 114 -99q29 0 66 8l-47 -188q-47 -10 -105 -10q-139 0 -204.5 56t-65.5 179q0 59 24 168l162 649h234l-158 -637q-20 -77 -20 -126zM637 1194l55 223h195l-53 -223h-197zM16 1194l54 223h196l-55 -223h-195zM291 1167l149 310h197l-182 -310h-164z" />
    <glyph glyph-name="Alpha" unicode="&#x391;" horiz-adv-x="1406" 
d="M961 723q-25 268 -46 580h-4q-156 -283 -329 -580l-68 -115h457zM387 395l-233 -395h-275l893 1458h330l168 -1458h-242l-37 395h-604z" />
    <glyph glyph-name="Beta" unicode="&#x392;" horiz-adv-x="1306" 
d="M629 205q174 0 249 73q74 73 74 174t-59 146t-191 45h-245l-109 -438h281zM760 840q176 0 252 72t76 165q0 94 -60 136q-59 42 -186 42h-234l-102 -415h254zM1196 453q0 -111 -62 -214t-190 -171t-311 -68h-582l363 1458h460q232 0 347 -85t115 -224t-83 -251
q-82 -112 -258 -163v-4q201 -49 201 -278z" />
    <glyph glyph-name="Gamma" unicode="&#x393;" horiz-adv-x="1019" 
d="M414 1458h819l-53 -213h-574l-309 -1245h-246z" />
    <glyph glyph-name="uni0394" unicode="&#x394;" horiz-adv-x="1406" 
d="M963 723q-20 209 -48 580h-4q-143 -266 -327 -580l-301 -510h729zM-121 0l895 1458h332l164 -1458h-1391z" />
    <glyph glyph-name="Epsilon" unicode="&#x395;" horiz-adv-x="1280" 
d="M606 1245l-96 -395h684l-55 -211h-684l-107 -426h750l-51 -213h-996l363 1458h975l-54 -213h-729z" />
    <glyph glyph-name="Zeta" unicode="&#x396;" horiz-adv-x="1175" 
d="M264 209h795l-51 -209h-1098l59 236l1010 1009v4h-731l53 209h1032l-59 -235l-1010 -1010v-4z" />
    <glyph glyph-name="Eta" unicode="&#x397;" horiz-adv-x="1523" 
d="M969 0l161 651h-671l-162 -651h-246l363 1458h245l-147 -594h672l147 594h244l-363 -1458h-243z" />
    <glyph glyph-name="Theta" unicode="&#x398;" horiz-adv-x="1515" 
d="M502 631l49 198h567l-51 -198h-565zM369 570q0 -172 90 -281t255 -109t286.5 106.5t186 268t64.5 333.5t-91 281t-257 109t-286.5 -107.5t-184 -268t-63.5 -332.5zM1495 872q0 -200 -94 -413t-275.5 -351.5t-431.5 -138.5q-178 0 -306 74t-195.5 208.5t-67.5 334.5
t93 413t274.5 351.5t431.5 138.5q178 0 307 -74t196.5 -208.5t67.5 -334.5z" />
    <glyph glyph-name="Iota" unicode="&#x399;" horiz-adv-x="606" 
d="M51 0l363 1458h245l-362 -1458h-246z" />
    <glyph glyph-name="Kappa" unicode="&#x39a;" horiz-adv-x="1318" 
d="M1182 0h-291l-412 721h-4l-178 -721h-246l363 1458h245l-157 -631h4l661 631h324l-770 -704z" />
    <glyph glyph-name="Lambda" unicode="&#x39b;" horiz-adv-x="1376" 
d="M989 0l-55 715q-23 260 -39 575h-4l-25 -45q-184 -350 -291 -530l-411 -715h-285l875 1458h336l149 -1458h-250z" />
    <glyph glyph-name="Mu" unicode="&#x39c;" horiz-adv-x="1964" 
d="M1417 0l182 733q68 276 148 553h-4q-160 -287 -316 -549l-434 -737h-280l-68 737q-27 305 -41 549h-4q-61 -276 -129 -553l-182 -733h-238l363 1458h379l63 -694q29 -322 37 -549h4q137 272 301 549l408 694h411l-362 -1458h-238z" />
    <glyph glyph-name="Nu" unicode="&#x39d;" horiz-adv-x="1568" 
d="M926 0l-172 610q-92 319 -168 627h-4q-82 -387 -152 -664l-141 -573h-238l363 1458h331l175 -610q92 -326 167 -627h5q72 354 149 664l143 573h236l-363 -1458h-331z" />
    <glyph glyph-name="Xi" unicode="&#x39e;" horiz-adv-x="1368" 
d="M-20 0l61 246h1149l-60 -246h-1150zM195 610l61 246h1024l-61 -246h-1024zM311 1212l60 246h1093l-59 -246h-1094z" />
    <glyph glyph-name="Omicron" unicode="&#x39f;" horiz-adv-x="1515" 
d="M377 570.5q0 -168.5 88 -275.5t249 -107t281.5 105.5t184 265.5t63.5 328.5t-89 275.5t-251 107t-281.5 -105.5t-182 -265.5t-62.5 -328.5zM1491 860q0 -201 -92 -409.5t-271.5 -345t-422.5 -136.5q-182 0 -311.5 76t-197 214t-67.5 339t91 410t269.5 345t423.5 136
q181 0 311 -76t198.5 -214t68.5 -339z" />
    <glyph glyph-name="Pi" unicode="&#x3a0;" horiz-adv-x="1501" 
d="M948 0l309 1245h-651l-309 -1245h-246l363 1458h1140l-362 -1458h-244z" />
    <glyph glyph-name="Rho" unicode="&#x3a1;" horiz-adv-x="1282" 
d="M1096 1028q0 223 -262 223h-226l-125 -497h293q110 0 182 41q138 79 138 233zM1346 1047q0 -119 -62 -234t-190 -191q-129 -76 -320 -75h-342l-135 -547h-246l363 1458h436q246 1 371 -108t125 -303z" />
    <glyph glyph-name="Sigma" unicode="&#x3a3;" horiz-adv-x="1173" 
d="M530 1249v-4l258 -526l-509 -506v-4h778l-51 -209h-1090l57 236l531 524l-250 508l47 190h1038l-53 -209h-756z" />
    <glyph glyph-name="Tau" unicode="&#x3a4;" horiz-adv-x="1243" 
d="M926 1245l-312 -1245h-243l309 1245h-479l53 213h1202l-53 -213h-477z" />
    <glyph glyph-name="Upsilon" unicode="&#x3a5;" horiz-adv-x="1282" 
d="M635 0h-246l146 586l-295 872h249l89 -289q39 -123 104 -376h4q125 178 289 376l229 289h303l-727 -872z" />
    <glyph glyph-name="Phi" unicode="&#x3a6;" horiz-adv-x="1665" 
d="M1380 812q0 130 -69.5 222t-200.5 121l-213 -852q162 6 270.5 82t160.5 186.5t52 240.5zM389 657q0 -129 70.5 -223t204.5 -121l213 854q-162 -6 -271.5 -81.5t-163 -187.5t-53.5 -241zM1634 811q0 -178 -85 -342t-260 -268.5t-431 -104.5h-12l-39 -153h-236l41 163
q-231 35 -352 177.5t-121 378.5q0 172 85 335.5t260 270t431 106.5h13l37 142h235l-39 -152q230 -35 351.5 -178.5t121.5 -374.5z" />
    <glyph glyph-name="Chi" unicode="&#x3a7;" horiz-adv-x="1282" 
d="M1141 0h-260l-211 551h-4l-469 -551h-316l674 758l-287 700h258l197 -528h4l442 528h310l-641 -725z" />
    <glyph glyph-name="Psi" unicode="&#x3a8;" horiz-adv-x="1660" 
d="M186 815q0 106 33 236l103 407h245l-104 -422q-27 -104 -27 -186q0 -131 68.5 -198.5t216.5 -80.5l221 887h244l-221 -891q203 8 311 99.5t162 298.5l123 493h245l-133 -536q-78 -293 -259 -429.5t-501 -142.5h-2l-88 -350h-243l88 356q-244 25 -363 136.5t-119 322.5z
" />
    <glyph glyph-name="uni03A9" unicode="&#x3a9;" horiz-adv-x="1497" 
d="M1487 1004.5q0 -232.5 -115 -420t-344 -371.5v-4h322l-52 -209h-577l55 219q445 351 445 715q0 166 -86 251t-241 85t-269.5 -89t-173 -226.5t-58.5 -270.5t39 -240.5t113 -224.5l-53 -219h-551l53 209h332v4q-82 123 -127 245t-45 284.5t88 340t264 292t431 114.5
t402.5 -126t147.5 -358.5z" />
    <glyph glyph-name="Iotadieresis" unicode="&#x3aa;" horiz-adv-x="606" 
d="M51 0l363 1458h245l-362 -1458h-246zM692 1653l56 223h208l-55 -223h-209zM270 1653l56 223h209l-56 -223h-209z" />
    <glyph glyph-name="Upsilondieresis" unicode="&#x3ab;" horiz-adv-x="1282" 
d="M635 0h-246l146 586l-295 872h249l89 -289q39 -123 104 -376h4q125 178 289 376l229 289h303l-727 -872zM963 1581l55 223h211l-58 -223h-208zM541 1581l55 223h211l-57 -223h-209z" />
    <glyph glyph-name="alphatonos" unicode="&#x3ac;" horiz-adv-x="1228" 
d="M313 405.5q0 -114.5 50.5 -182t148.5 -67.5t174 73.5t116 183t40 223.5t-51.5 181.5t-148.5 67.5t-173 -73t-116 -182.5t-40 -224zM428 -25q-174 0 -268 106.5t-94 279t66.5 333t193.5 267t299 106.5q106 0 183 -54.5t103 -148.5h4q27 98 60 176h227q-63 -158 -112 -368
l-86 -353q-30 -105 2 -133q18 -16 48 -16t56 6l-45 -174q-61 -16 -131 -16q-172 0 -191 139h-4q-137 -150 -311 -150zM629 1167l162 332h231l-215 -332h-178z" />
    <glyph glyph-name="epsilontonos" unicode="&#x3ad;" horiz-adv-x="1034" 
d="M762 748q0 145 -166 145q-94 0 -146.5 -47t-52.5 -106.5t48.5 -94.5t134.5 -35h90l-43 -174h-117q-125 0 -187.5 -46t-62.5 -109t47 -98.5t133 -35.5q195 0 240 175h235q-41 -172 -170 -262.5t-322 -90.5t-295.5 74t-102.5 207q0 102 67.5 182t208.5 119v4
q-131 61 -131 182q0 80 50 157t153.5 127t266.5 50t260 -80t97 -227q0 -14 -4 -55h-235q4 29 4 39zM578 1167l161 332h232l-215 -332h-178z" />
    <glyph glyph-name="etatonos" unicode="&#x3ae;" horiz-adv-x="1230" 
d="M821 1065q150 0 233 -78t83 -227q0 -66 -23 -152l-246 -987h-233l246 983q16 76 16 121q0 152 -160 152q-104 0 -190 -78t-121 -221l-143 -578h-234l176 713q14 51 15 92q0 70 -68 69q-27 0 -51 -6l43 172q57 14 108 15q179 0 183 -170h4q155 180 362 180zM614 1167
l162 332h232l-215 -332h-179z" />
    <glyph glyph-name="iotatonos" unicode="&#x3af;" horiz-adv-x="608" 
d="M324 277q0 -99 114 -99q29 0 66 8l-47 -188q-47 -10 -105 -10q-139 0 -204.5 56t-65.5 179q0 59 24 168l162 649h234l-158 -637q-20 -77 -20 -126zM326 1167l161 332h232l-215 -332h-178z" />
    <glyph glyph-name="upsilondieresistonos" unicode="&#x3b0;" horiz-adv-x="1206" 
d="M477 850q0 -49 -20 -141l-76 -303q-14 -51 -14 -95q0 -82 46 -118.5t138 -36.5q131 0 212 114.5t113.5 276.5t32.5 279.5t-14 213.5h227q12 -92 13 -188q0 -223 -57.5 -422t-193.5 -330t-344.5 -131t-306.5 82t-98 254q0 59 19 135l65 260q31 129 1 154q-16 14 -47.5 14
t-55.5 -6l43 176q61 16 140 16.5t128 -46.5t49 -158zM918 1194l55 223h194l-53 -223h-196zM297 1194l53 223h197l-55 -223h-195zM571 1167l150 310h197l-183 -310h-164z" />
    <glyph glyph-name="alpha" unicode="&#x3b1;" horiz-adv-x="1228" 
d="M313 405.5q0 -114.5 50.5 -182t148.5 -67.5t174 73.5t116 183t40 223.5t-51.5 181.5t-148.5 67.5t-173 -73t-116 -182.5t-40 -224zM428 -25q-174 0 -268 106.5t-94 279t66.5 333t193.5 267t299 106.5q106 0 183 -54.5t103 -148.5h4q27 98 60 176h227q-63 -158 -112 -368
l-86 -353q-30 -105 2 -133q18 -16 48 -16t56 6l-45 -174q-61 -16 -131 -16q-172 0 -191 139h-4q-137 -150 -311 -150z" />
    <glyph glyph-name="beta" unicode="&#x3b2;" horiz-adv-x="1218" 
d="M989 1133q-1 176 -201 176q-104 0 -174.5 -78t-113.5 -244l-140 -557q-10 -45 -10 -76q0 -194 225 -194q100 0 170 46t103 114.5t33 138.5q0 117 -72 172t-217 55h-25l45 188h37q117 0 228.5 55t111.5 204zM592 -20q-241 0 -303 145h-4l-125 -504h-234l346 1391
q59 231 198.5 354t338.5 123t301 -90t102 -252q0 -125 -85 -225.5t-250 -139.5v-4q109 -27 173 -109.5t64 -204.5t-59.5 -231.5t-177 -181t-285.5 -71.5z" />
    <glyph glyph-name="gamma" unicode="&#x3b3;" horiz-adv-x="1103" 
d="M338 352q0 198 -41 360t-145 162q-18 0 -48 -4l43 170q53 16 105 17q152 0 216 -141.5t64 -440.5q0 -94 -14 -205h4q158 193 260.5 373t173.5 397h252q-102 -292 -255.5 -525.5t-413.5 -502.5q-54 -217 -119 -391h-234q78 211 115 372t37 359z" />
    <glyph glyph-name="delta" unicode="&#x3b4;" horiz-adv-x="1183" 
d="M303 378q0 -102 56.5 -164t158.5 -62t179 60t117 150.5t40 176.5q0 205 -162 321q-129 -39 -217 -116.5t-130 -170.5t-42 -195zM791 1303q-156 0 -156 -82q0 -37 42.5 -75t162.5 -119q260 -175 260 -456q0 -143 -69.5 -282t-206 -229.5t-332.5 -90.5t-314.5 110.5
t-118.5 305.5q0 121 55.5 238.5t169 213t283.5 144.5v4q-90 70 -131 122t-41 116q0 104 91.5 180t315.5 76t415 -66l-48 -190q-181 80 -378 80z" />
    <glyph glyph-name="epsilon" unicode="&#x3b5;" horiz-adv-x="1034" 
d="M762 748q0 145 -166 145q-94 0 -146.5 -47t-52.5 -106.5t48.5 -94.5t134.5 -35h90l-43 -174h-117q-125 0 -187.5 -46t-62.5 -109t47 -98.5t133 -35.5q195 0 240 175h235q-41 -172 -170 -262.5t-322 -90.5t-295.5 74t-102.5 207q0 102 67.5 182t208.5 119v4
q-131 61 -131 182q0 80 50 157t153.5 127t266.5 50t260 -80t97 -227q0 -14 -4 -55h-235q4 29 4 39z" />
    <glyph glyph-name="zeta" unicode="&#x3b6;" horiz-adv-x="958" 
d="M559 -123q0 59 -38 89t-128 48q-178 35 -258 119.5t-80 232.5t85 310t251 319.5t402 284.5v4h-471l43 174h778l-43 -174q-260 -127 -437.5 -275.5t-264.5 -296.5t-87 -262t57.5 -167t183.5 -81t177 -85.5t51 -170.5t-88 -243h-203q70 115 70 174z" />
    <glyph glyph-name="eta" unicode="&#x3b7;" horiz-adv-x="1230" 
d="M821 1065q150 0 233 -78t83 -227q0 -66 -23 -152l-246 -987h-233l246 983q16 76 16 121q0 152 -160 152q-104 0 -190 -78t-121 -221l-143 -578h-234l176 713q14 51 15 92q0 70 -68 69q-27 0 -51 -6l43 172q57 14 108 15q179 0 183 -170h4q155 180 362 180z" />
    <glyph glyph-name="theta" unicode="&#x3b8;" horiz-adv-x="1245" 
d="M336 457q0 -310 209 -310q141 0 246.5 142.5t166.5 355.5h-604q-18 -104 -18 -188zM805 1311q-141 0 -247.5 -143.5t-166.5 -354.5h604q18 109 19 191q0 150 -53.5 228.5t-155.5 78.5zM1243 1002q0 -230 -83 -467.5t-243.5 -400.5t-376.5 -163t-325 128.5t-109 356.5
t83 465.5t245 401.5t378 164t323.5 -127.5t107.5 -357.5z" />
    <glyph glyph-name="iota" unicode="&#x3b9;" horiz-adv-x="608" 
d="M324 277q0 -99 114 -99q29 0 66 8l-47 -188q-47 -10 -105 -10q-139 0 -204.5 56t-65.5 179q0 59 24 168l162 649h234l-158 -637q-20 -77 -20 -126z" />
    <glyph glyph-name="kappa" unicode="&#x3ba;" horiz-adv-x="1107" 
d="M1114 854q-88 0 -187.5 -57.5t-262.5 -204.5l-54 -45l387 -547h-262l-286 406l-127 -111l-74 -295h-234l260 1040h234l-113 -450h4l260 233q150 133 250.5 181t180.5 48t122 -16l-47 -186q-25 4 -51 4z" />
    <glyph glyph-name="lambda" unicode="&#x3bb;" horiz-adv-x="1187" 
d="M1053 166q12 0 32 4l-43 -172q-38 -12 -100 -12t-132 35t-93 249q-37 307 -60 516h-2l-532 -786h-264l727 1036q-14 143 -53 197.5t-109 54.5t-115 -16l43 182q56 20 148 20t197 -63.5t149 -396.5l82 -643q16 -121 44.5 -163t80.5 -42z" />
    <glyph glyph-name="uni03BC" unicode="&#x3bc;" horiz-adv-x="1224" 
d="M963 -14q-173 0 -177 166h-4q-47 -76 -132 -121t-181 -45q-141 0 -197 94l-114 -459h-234l355 1419h233l-150 -600q-16 -70 -16 -110q0 -166 170 -166q98 0 180 79t117 222l141 575h234l-178 -721q-15 -49 -15 -98t70 -49q25 0 51 6l-45 -180q-49 -12 -108 -12z" />
    <glyph glyph-name="nu" unicode="&#x3bd;" horiz-adv-x="1077" 
d="M1163 1040q0 -211 -188.5 -489.5t-394.5 -550.5h-306l-38 690q-4 106 -25 145t-70 39q-23 0 -41 -6l43 168q55 18 109 19q106 0 155.5 -68.5t51.5 -230.5l8 -568h4q217 295 326 485.5t131 366.5h235z" />
    <glyph glyph-name="xi" unicode="&#x3be;" horiz-adv-x="970" 
d="M291 987q0 90 59.5 173t167.5 120v4h-207l43 174h815l-43 -174h-178q-152 0 -250 -41t-143 -104t-45 -137t64.5 -116t175.5 -42h186l-43 -172h-184q-147 0 -278.5 -59.5t-131.5 -219.5q0 -82 55.5 -124.5t188.5 -66.5t191.5 -86.5t58.5 -173.5t-84 -239h-203
q68 103 68 169t-39 98t-136 46q-182 27 -268 108t-86 222q0 207 135 309.5t273 130.5v5q-162 48 -162 196z" />
    <glyph glyph-name="omicron" unicode="&#x3bf;" horiz-adv-x="1181" 
d="M313 405.5q0 -114.5 55.5 -183t163 -68.5t184.5 74.5t114.5 184t37.5 223.5t-55 182.5t-162.5 68.5t-184.5 -75t-115 -183.5t-38 -223zM1110 623q0 -150 -69.5 -301.5t-207 -252t-336 -100.5t-311 118t-112.5 331q0 150 69.5 301t203.5 251.5t334 100.5t314.5 -117.5
t114.5 -330.5z" />
    <glyph glyph-name="pi" unicode="&#x3c0;" horiz-adv-x="1355" 
d="M1132 166q36 0 66 4l-45 -172q-53 -12 -100 -12q-127 0 -190.5 52t-63.5 171q0 61 24 153l125 500h-407l-213 -862h-234l213 862h-201l44 178h1298l-45 -178h-221l-125 -500q-36 -133 1.5 -164.5t73.5 -31.5z" />
    <glyph glyph-name="rho" unicode="&#x3c1;" horiz-adv-x="1208" 
d="M350 410q0 -112 54.5 -181t158.5 -69t180 73.5t114 182t38 221.5t-54.5 181.5t-160.5 68.5t-180 -74t-112 -182.5t-38 -220.5zM1135 625q0 -150 -65.5 -300.5t-195 -250t-305.5 -99.5q-203 0 -288 168h-5l-129 -522h-233l240 963q33 129 105.5 239.5t185 179t255.5 68.5
q211 0 323 -116.5t112 -329.5z" />
    <glyph glyph-name="sigma1" unicode="&#x3c2;" horiz-adv-x="1093" 
d="M510 -297q72 103 72 204t-171 129q-341 56 -341 400q0 147 68.5 295t203 244t332.5 96t302.5 -97t104.5 -269q0 -37 -6 -84h-241q6 31 6 55q0 100 -51.5 156.5t-150.5 56.5t-172 -63.5t-110 -157t-37 -190.5q0 -197 222 -245q141 -29 202.5 -91t61.5 -182t-90 -257h-205z
" />
    <glyph glyph-name="sigma" unicode="&#x3c3;" horiz-adv-x="1236" 
d="M309 398q0 -108 56.5 -176t164.5 -68t183 70.5t113 175t38 212.5t-56 176t-164 68t-183.5 -70.5t-113.5 -175t-38 -212.5zM981 866v-4q113 -100 113 -280q0 -141 -68 -283.5t-200 -236t-330 -93.5t-312 117t-114 326q0 143 68.5 289.5t203.5 242.5t320 96h681l-43 -174
h-319z" />
    <glyph glyph-name="tau" unicode="&#x3c4;" horiz-adv-x="956" 
d="M618 166q36 0 66 4l-45 -172q-53 -12 -100 -12q-127 0 -190.5 52t-63.5 171q0 61 24 153l125 504h-328l44 174h915l-43 -174h-354l-125 -504q-36 -133 1.5 -164.5t73.5 -31.5z" />
    <glyph glyph-name="upsilon" unicode="&#x3c5;" horiz-adv-x="1206" 
d="M477 850q0 -49 -20 -141l-76 -303q-14 -51 -14 -95q0 -82 46 -118.5t138 -36.5q131 0 212 114.5t113.5 276.5t32.5 279.5t-14 213.5h227q12 -92 13 -188q0 -223 -57.5 -422t-193.5 -330t-344.5 -131t-306.5 82t-98 254q0 59 19 135l65 260q31 129 1 154q-16 14 -47.5 14
t-55.5 -6l43 176q61 16 140 16.5t128 -46.5t49 -158z" />
    <glyph glyph-name="phi" unicode="&#x3c6;" horiz-adv-x="1587" 
d="M1276 605q0 116 -70.5 192.5t-206.5 95.5l-186 -750h18q148 2 248.5 71t148.5 172t48 219zM311 435q0 -118 71 -194.5t208 -93.5l186 750h-22q-147 -2 -247.5 -70.5t-148 -171t-47.5 -220.5zM1511 590q0 -147 -78.5 -290.5t-238.5 -237t-389 -93.5h-37l-86 -348h-223
l88 354q-223 27 -347 151t-124 325q0 147 78.5 290.5t238.5 236.5t387 93h39l72 285h223l-72 -291q224 -29 346.5 -151.5t122.5 -323.5z" />
    <glyph glyph-name="chi" unicode="&#x3c7;" horiz-adv-x="1202" 
d="M910 -213q54 0 85 8l-41 -174q-57 -14 -123 -14q-119 0 -177 58.5t-91 209.5l-53 248h-4l-436 -502h-285l647 719l-80 362q-25 109 -61.5 146t-92.5 37t-94 -13l43 175q63 18 127 18q125 0 184.5 -58.5t88.5 -207.5l53 -269h4l426 510h285l-631 -731l74 -344
q23 -106 60.5 -142t91.5 -36z" />
    <glyph glyph-name="psi" unicode="&#x3c8;" horiz-adv-x="1630" 
d="M125 395q0 68 22 162l121 483h234l-125 -510q-16 -57 -17 -110q0 -117 64.5 -178.5t193.5 -77.5l297 1192h234l-297 -1196q481 25 481 758q0 45 -8 122h231q8 -82 9 -125q0 -413 -173 -672t-585 -263l-90 -359h-234l90 363q-221 18 -334.5 118.5t-113.5 292.5z" />
    <glyph glyph-name="omega" unicode="&#x3c9;" horiz-adv-x="1652" 
d="M1563 732q0 -167 -57.5 -345t-175.5 -297t-292 -119q-236 0 -276 207h-4q-98 -207 -350 -207q-328 0 -328 328q0 154 75.5 362.5t200.5 378.5h256q-127 -166 -207.5 -369.5t-80.5 -342.5q0 -176 146 -176t198 200l108 434h234l-101 -401q-12 -41 -12 -92q0 -141 131 -141
q104 0 170 98t93.5 235.5t27.5 280t-45 274.5h248q41 -141 41 -308z" />
    <glyph glyph-name="iotadieresis" unicode="&#x3ca;" horiz-adv-x="608" 
d="M324 277q0 -99 114 -99q29 0 66 8l-47 -188q-47 -10 -105 -10q-139 0 -204.5 56t-65.5 179q0 59 24 168l162 649h234l-158 -637q-20 -77 -20 -126zM541 1235l55 223h209l-55 -223h-209zM119 1235l55 223h209l-55 -223h-209z" />
    <glyph glyph-name="upsilondieresis" unicode="&#x3cb;" horiz-adv-x="1206" 
d="M477 850q0 -49 -20 -141l-76 -303q-14 -51 -14 -95q0 -82 46 -118.5t138 -36.5q131 0 212 114.5t113.5 276.5t32.5 279.5t-14 213.5h227q12 -92 13 -188q0 -223 -57.5 -422t-193.5 -330t-344.5 -131t-306.5 82t-98 254q0 59 19 135l65 260q31 129 1 154q-16 14 -47.5 14
t-55.5 -6l43 176q61 16 140 16.5t128 -46.5t49 -158zM821 1235l56 223h208l-55 -223h-209zM399 1235l56 223h209l-56 -223h-209z" />
    <glyph glyph-name="omicrontonos" unicode="&#x3cc;" horiz-adv-x="1181" 
d="M313 405.5q0 -114.5 55.5 -183t163 -68.5t184.5 74.5t114.5 184t37.5 223.5t-55 182.5t-162.5 68.5t-184.5 -75t-115 -183.5t-38 -223zM1110 623q0 -150 -69.5 -301.5t-207 -252t-336 -100.5t-311 118t-112.5 331q0 150 69.5 301t203.5 251.5t334 100.5t314.5 -117.5
t114.5 -330.5zM621 1167l161 332h232l-215 -332h-178z" />
    <glyph glyph-name="upsilontonos" unicode="&#x3cd;" horiz-adv-x="1206" 
d="M477 850q0 -49 -20 -141l-76 -303q-14 -51 -14 -95q0 -82 46 -118.5t138 -36.5q131 0 212 114.5t113.5 276.5t32.5 279.5t-14 213.5h227q12 -92 13 -188q0 -223 -57.5 -422t-193.5 -330t-344.5 -131t-306.5 82t-98 254q0 59 19 135l65 260q31 129 1 154q-16 14 -47.5 14
t-55.5 -6l43 176q61 16 140 16.5t128 -46.5t49 -158zM606 1167l162 332h231l-215 -332h-178z" />
    <glyph glyph-name="omegatonos" unicode="&#x3ce;" horiz-adv-x="1652" 
d="M1563 732q0 -167 -57.5 -345t-175.5 -297t-292 -119q-236 0 -276 207h-4q-98 -207 -350 -207q-328 0 -328 328q0 154 75.5 362.5t200.5 378.5h256q-127 -166 -207.5 -369.5t-80.5 -342.5q0 -176 146 -176t198 200l108 434h234l-101 -401q-12 -41 -12 -92q0 -141 131 -141
q104 0 170 98t93.5 235.5t27.5 280t-45 274.5h248q41 -141 41 -308zM895 1167l162 332h231l-215 -332h-178z" />
    <glyph glyph-name="uni0400" unicode="&#x400;" horiz-adv-x="1280" 
d="M606 1245l-96 -395h684l-55 -211h-684l-107 -426h750l-51 -213h-996l363 1458h975l-54 -213h-729zM883 1556l-207 291h282l103 -291h-178z" />
    <glyph glyph-name="uni0401" unicode="&#x401;" horiz-adv-x="1280" 
d="M606 1245l-96 -395h684l-55 -211h-684l-107 -426h750l-51 -213h-996l363 1458h975l-54 -213h-729zM1018 1581l55 223h211l-57 -223h-209zM596 1581l55 223h211l-57 -223h-209z" />
    <glyph glyph-name="uni0402" unicode="&#x402;" horiz-adv-x="1613" 
d="M1298 492q0 233 -256 233q-137 0 -260 -55l-168 -670h-243l309 1245h-479l53 213h1202l-53 -213h-477l-90 -362q131 55 278 55q209 0 318.5 -110.5t111.5 -303.5q0 -137 -66.5 -263t-199.5 -206t-322 -80q-115 0 -200 29l51 205q61 -21 166 -21t180.5 46.5t110 116
t34.5 141.5z" />
    <glyph glyph-name="uni0403" unicode="&#x403;" horiz-adv-x="1019" 
d="M414 1458h819l-53 -213h-574l-309 -1245h-246zM672 1556l229 291h305l-334 -291h-200z" />
    <glyph glyph-name="uni0404" unicode="&#x404;" horiz-adv-x="1439" 
d="M1196 993q0 127 -78 202t-211 75q-180 0 -306 -124t-185 -310h585l-51 -213h-573l-2 -52q0 -176 82 -279.5t224 -103.5t250.5 78t162.5 211h252q-78 -238 -258 -373q-178 -135 -428 -135t-393.5 158t-143.5 426q0 219 92 435t275.5 358.5t439.5 142.5q158 0 274.5 -58.5
t179 -165t62.5 -247.5q0 -45 -6 -88h-250q6 30 6 63z" />
    <glyph glyph-name="uni0405" unicode="&#x405;" horiz-adv-x="1269" 
d="M799 1489q481 0 481 -369q0 -45 -16 -110h-248q8 35 8 73q0 100 -64.5 152.5t-170 52.5t-170 -29.5t-98.5 -77.5t-34 -117t62.5 -116t202 -93t219.5 -89q180 -97 180 -328q0 -113 -68.5 -221t-204 -178t-323.5 -70q-244 0 -377 100.5t-133 290.5q0 61 14 121h252
q-10 -55 -10 -90q0 -219 279 -219q106 0 176.5 36t103.5 89t33 111t-29.5 98.5t-82 67t-170 68.5t-197.5 84q-183 96 -183 318q0 104 65.5 207t195 170.5t307.5 67.5z" />
    <glyph glyph-name="uni0406" unicode="&#x406;" horiz-adv-x="606" 
d="M51 0l363 1458h245l-362 -1458h-246z" />
    <glyph glyph-name="uni0407" unicode="&#x407;" horiz-adv-x="606" 
d="M51 0l363 1458h245l-362 -1458h-246zM674 1581l55 223h211l-57 -223h-209zM252 1581l55 223h211l-57 -223h-209z" />
    <glyph glyph-name="uni0408" unicode="&#x408;" horiz-adv-x="765" 
d="M37 -12q-72 0 -135 18l53 209q41 -10 78 -10q125 0 197.5 63.5t113.5 231.5l240 958h245l-262 -1046q-53 -215 -184 -319.5t-346 -104.5z" />
    <glyph glyph-name="uni0409" unicode="&#x409;" horiz-adv-x="2152" 
d="M1829 481q0 224 -262 224h-224l-122 -498h288q111 0 182.5 41t104.5 103.5t33 129.5zM1585 911q246 0 372 -108.5t126 -302.5q0 -119 -62.5 -233.5t-191.5 -190.5t-320 -76h-587l311 1245h-469q-145 -530 -260 -797.5t-230.5 -362.5t-283.5 -95q-59 0 -94 14l49 199
q12 -4 35 -4q106 0 185 93t173 356t244 810h948l-135 -547h190z" />
    <glyph glyph-name="uni040A" unicode="&#x40a;" horiz-adv-x="2197" 
d="M1874 481q0 224 -262 224h-223l-125 -498h290q111 0 182.5 41t104.5 103.5t33 129.5zM2124 500q0 -119 -61.5 -233.5t-190.5 -190.5t-318 -76h-585l164 662h-672l-164 -662h-246l363 1458h245l-145 -586h672l145 586h244l-135 -547h190q246 0 370 -108.5t124 -302.5z" />
    <glyph glyph-name="uni040B" unicode="&#x40b;" horiz-adv-x="1611" 
d="M1274 477q0 203 -245 203q-126 0 -255 -41l-160 -639h-243l309 1245h-479l53 213h1202l-53 -213h-477l-99 -393q139 41 289 41q205 0 308.5 -90t103.5 -264q0 -51 -23 -160l-94 -379h-246l97 389q12 49 12 88z" />
    <glyph glyph-name="uni040C" unicode="&#x40c;" horiz-adv-x="1318" 
d="M1182 0h-291l-412 721h-4l-178 -721h-246l363 1458h245l-157 -631h4l661 631h324l-770 -704zM772 1556l229 291h306l-334 -291h-201z" />
    <glyph glyph-name="uni040D" unicode="&#x40d;" horiz-adv-x="1579" 
d="M1030 0l144 573q74 295 176 664h-4l-74 -104q-250 -348 -381 -523l-461 -610h-381l365 1458h237l-143 -573q-82 -332 -178 -664h4q299 418 457 627l460 610h381l-364 -1458h-238zM1026 1556l-207 291h283l102 -291h-178z" />
    <glyph glyph-name="uni040E" unicode="&#x40e;" horiz-adv-x="1363" 
d="M234 195q145 0 268 196l-262 1067h247l93 -444q47 -219 92 -453h4q190 276 313 451l316 446h284l-866 -1175q-223 -299 -472 -299q-116 0 -165 16l51 205q31 -10 97 -10zM778 1819q0 -119 147 -119q73 0 128 39t75 108h185q-39 -143 -145.5 -222t-249 -79t-215 64.5
t-72.5 181.5q0 18 4 55h145q-2 -10 -2 -28z" />
    <glyph glyph-name="uni040F" unicode="&#x40f;" horiz-adv-x="1503" 
d="M731 0l-82 -328h-233l82 328h-447l363 1458h245l-311 -1245h651l312 1245h243l-362 -1458h-461z" />
    <glyph glyph-name="uni0410" unicode="&#x410;" horiz-adv-x="1406" 
d="M961 723q-25 268 -46 580h-4q-156 -283 -329 -580l-68 -115h457zM387 395l-233 -395h-275l893 1458h330l168 -1458h-242l-37 395h-604z" />
    <glyph glyph-name="uni0411" unicode="&#x411;" horiz-adv-x="1327" 
d="M662 207q160 0 236.5 76.5t76.5 180.5q0 212 -266 212h-244l-117 -469h314zM758 883q223 0 345 -107.5t122 -300.5q0 -117 -61.5 -225.5t-184.5 -179t-301 -70.5h-627l363 1458h981l-52 -207h-735l-92 -368h242z" />
    <glyph glyph-name="uni0412" unicode="&#x412;" horiz-adv-x="1306" 
d="M629 205q174 0 249 73q74 73 74 174t-59 146t-191 45h-245l-109 -438h281zM760 840q176 0 252 72t76 165q0 94 -60 136q-59 42 -186 42h-234l-102 -415h254zM1196 453q0 -111 -62 -214t-190 -171t-311 -68h-582l363 1458h460q232 0 347 -85t115 -224t-83 -251
q-82 -112 -258 -163v-4q201 -49 201 -278z" />
    <glyph glyph-name="uni0413" unicode="&#x413;" horiz-adv-x="1019" 
d="M414 1458h819l-53 -213h-574l-309 -1245h-246z" />
    <glyph glyph-name="uni0414" unicode="&#x414;" horiz-adv-x="1560" 
d="M770 1245q-203 -733 -389 -1032h647l258 1032h-516zM1448 213l-133 -541h-234l82 328h-1022l-82 -328h-233l135 541h162q102 133 209.5 408.5t255.5 836.5h995l-311 -1245h176z" />
    <glyph glyph-name="uni0415" unicode="&#x415;" horiz-adv-x="1280" 
d="M606 1245l-96 -395h684l-55 -211h-684l-107 -426h750l-51 -213h-996l363 1458h975l-54 -213h-729z" />
    <glyph glyph-name="uni0416" unicode="&#x416;" horiz-adv-x="1837" 
d="M1700 0h-273l-327 750h-4l-185 -750h-241l178 721h-4l-645 -721h-320l744 780l-326 678h262l295 -696h4l174 696h242l-168 -667h4l590 667h309l-672 -708z" />
    <glyph glyph-name="uni0417" unicode="&#x417;" horiz-adv-x="1280" 
d="M1307 1112q0 -127 -90.5 -229.5t-282.5 -155.5v-4q229 -82 229 -299q0 -109 -68.5 -214.5t-205.5 -174t-330 -68.5q-254 0 -389 100.5t-135 288.5q0 49 12 101h256q-10 -51 -10 -84q0 -193 268 -193q113 0 190.5 39t116.5 97.5t39 115.5q0 96 -75.5 145.5t-219.5 49.5
h-102l51 207h94q133 0 222.5 37.5t131.5 96t42 133.5t-67.5 125t-191.5 50t-211 -67.5t-120 -200.5h-262q51 225 213.5 352t398.5 127t366 -100.5t130 -274.5z" />
    <glyph glyph-name="uni0418" unicode="&#x418;" horiz-adv-x="1579" 
d="M1030 0l144 573q74 295 176 664h-4l-74 -104q-250 -348 -381 -523l-461 -610h-381l365 1458h237l-143 -573q-82 -332 -178 -664h4q299 418 457 627l460 610h381l-364 -1458h-238z" />
    <glyph glyph-name="uni0419" unicode="&#x419;" horiz-adv-x="1579" 
d="M1030 0l144 573q74 295 176 664h-4l-74 -104q-250 -348 -381 -523l-461 -610h-381l365 1458h237l-143 -573q-82 -332 -178 -664h4q299 418 457 627l460 610h381l-364 -1458h-238zM928 1819q0 -119 146 -119q73 0 128 39t76 108h184q-39 -143 -145.5 -222t-248.5 -79
t-215 64.5t-73 181.5q0 18 4 55h146q-2 -10 -2 -28z" />
    <glyph glyph-name="uni041A" unicode="&#x41a;" horiz-adv-x="1318" 
d="M1182 0h-291l-412 721h-4l-178 -721h-246l363 1458h245l-157 -631h4l661 631h324l-770 -704z" />
    <glyph glyph-name="uni041B" unicode="&#x41b;" horiz-adv-x="1476" 
d="M-10 -10q-59 0 -94 14l49 199q12 -4 35 -4q106 0 185 93t173 356t244 810h948l-363 -1458h-245l311 1245h-469q-145 -530 -260 -797.5t-230.5 -362.5t-283.5 -95z" />
    <glyph glyph-name="uni041C" unicode="&#x41c;" horiz-adv-x="1964" 
d="M1417 0l182 733q68 276 148 553h-4q-160 -287 -316 -549l-434 -737h-280l-68 737q-27 305 -41 549h-4q-61 -276 -129 -553l-182 -733h-238l363 1458h379l63 -694q29 -322 37 -549h4q137 272 301 549l408 694h411l-362 -1458h-238z" />
    <glyph glyph-name="uni041D" unicode="&#x41d;" horiz-adv-x="1523" 
d="M969 0l161 651h-671l-162 -651h-246l363 1458h245l-147 -594h672l147 594h244l-363 -1458h-243z" />
    <glyph glyph-name="uni041E" unicode="&#x41e;" horiz-adv-x="1515" 
d="M377 570.5q0 -168.5 88 -275.5t249 -107t281.5 105.5t184 265.5t63.5 328.5t-89 275.5t-251 107t-281.5 -105.5t-182 -265.5t-62.5 -328.5zM1491 860q0 -201 -92 -409.5t-271.5 -345t-422.5 -136.5q-182 0 -311.5 76t-197 214t-67.5 339t91 410t269.5 345t423.5 136
q181 0 311 -76t198.5 -214t68.5 -339z" />
    <glyph glyph-name="uni041F" unicode="&#x41f;" horiz-adv-x="1501" 
d="M948 0l309 1245h-651l-309 -1245h-246l363 1458h1140l-362 -1458h-244z" />
    <glyph glyph-name="uni0420" unicode="&#x420;" horiz-adv-x="1282" 
d="M1096 1028q0 223 -262 223h-226l-125 -497h293q110 0 182 41q138 79 138 233zM1346 1047q0 -119 -62 -234t-190 -191q-129 -76 -320 -75h-342l-135 -547h-246l363 1458h436q246 1 371 -108t125 -303z" />
    <glyph glyph-name="uni0421" unicode="&#x421;" horiz-adv-x="1425" 
d="M1432 1018q0 -49 -9 -88h-247q4 41 4 63q0 127 -75 202t-222.5 75t-266 -107.5t-179 -270.5t-60.5 -330t79 -270.5t217 -103.5t246.5 78t159.5 211h252q-76 -238 -255 -373t-425 -135t-387 158t-141 426q0 219 91 435t272.5 358.5t435.5 142.5q155 0 271 -58.5
t177.5 -165t61.5 -247.5z" />
    <glyph glyph-name="uni0422" unicode="&#x422;" horiz-adv-x="1243" 
d="M926 1245l-312 -1245h-243l309 1245h-479l53 213h1202l-53 -213h-477z" />
    <glyph glyph-name="uni0423" unicode="&#x423;" horiz-adv-x="1363" 
d="M234 195q145 0 268 196l-262 1067h247l93 -444q47 -219 92 -453h4q190 276 313 451l316 446h284l-866 -1175q-223 -299 -472 -299q-116 0 -165 16l51 205q31 -10 97 -10z" />
    <glyph glyph-name="uni0424" unicode="&#x424;" horiz-adv-x="1728" 
d="M1444 798q0 126 -79 218t-228 119l-205 -822q170 6 285.5 78t171 176.5t55.5 230.5zM387 660q0 -126 79 -218t228 -118l205 821q-170 -6 -285.5 -77t-171 -176.5t-55.5 -231.5zM1696 791q0 -170 -87 -327t-268.5 -257.5t-445.5 -100.5h-14l-39 -157h-240l43 168
q-248 33 -378 175t-130 378q0 166 87 322.5t267.5 258t446.5 101.5h14l39 157h240l-41 -168q246 -34 376 -175.5t130 -374.5z" />
    <glyph glyph-name="uni0425" unicode="&#x425;" horiz-adv-x="1282" 
d="M1141 0h-260l-211 551h-4l-469 -551h-316l674 758l-287 700h258l197 -528h4l442 528h310l-641 -725z" />
    <glyph glyph-name="uni0426" unicode="&#x426;" horiz-adv-x="1544" 
d="M1421 213l-135 -541h-233l82 328h-1084l363 1458h245l-311 -1245h651l312 1245h243l-309 -1245h176z" />
    <glyph glyph-name="uni0427" unicode="&#x427;" horiz-adv-x="1353" 
d="M432 946q0 -203 276 -203q142 0 285 41l168 674h246l-363 -1458h-245l143 571q-160 -41 -324 -41q-219 0 -329.5 90.5t-110.5 264.5q0 66 23 159l104 414h244l-105 -424q-12 -49 -12 -88z" />
    <glyph glyph-name="uni0428" unicode="&#x428;" horiz-adv-x="2097" 
d="M51 0l363 1458h245l-311 -1245h502l311 1245h244l-309 -1245h499l312 1245h243l-362 -1458h-1737z" />
    <glyph glyph-name="uni0429" unicode="&#x429;" horiz-adv-x="2127" 
d="M2015 213l-133 -541h-233l82 328h-1680l363 1458h245l-311 -1245h502l311 1245h244l-309 -1245h499l312 1245h243l-311 -1245h176z" />
    <glyph glyph-name="uni042A" unicode="&#x42a;" horiz-adv-x="1538" 
d="M1214 481q0 224 -262 224h-223l-125 -498h291q111 0 215 59.5t104 214.5zM971 911q246 0 369.5 -108.5t123.5 -302.5q0 -119 -61.5 -233.5t-190.5 -190.5t-319 -76h-584l309 1245h-417l53 213h661l-135 -547h191z" />
    <glyph glyph-name="uni042B" unicode="&#x42b;" horiz-adv-x="1888" 
d="M958 481q0 224 -262 224h-223l-125 -498h291q111 0 183 41q136 78 136 233zM715 911q246 0 369.5 -108.5t123.5 -302.5q0 -119 -61.5 -233.5t-190.5 -190.5t-319 -76h-586l363 1458h245l-137 -547h193zM1331 0l363 1458h245l-362 -1458h-246z" />
    <glyph glyph-name="uni042C" unicode="&#x42c;" horiz-adv-x="1280" 
d="M958 481q0 224 -262 224h-223l-125 -498h291q111 0 215 59.5t104 214.5zM715 911q246 0 369.5 -108.5t123.5 -302.5q0 -119 -61.5 -233.5t-190.5 -190.5t-319 -76h-586l363 1458h245l-137 -547h193z" />
    <glyph glyph-name="uni042D" unicode="&#x42d;" horiz-adv-x="1435" 
d="M1419 905q0 -219 -92 -435t-275.5 -358.5t-437.5 -142.5q-160 0 -278.5 58.5t-182 165t-63.5 247.5q0 49 8 88h250q-6 -31 -6 -63q0 -127 79 -202t216 -75q178 0 303 123t184 312h-579l51 213h567l2 51q0 176 -80.5 279.5t-221 103.5t-247 -78t-157.5 -211h-254
q76 238 254 373t426 135t391 -157.5t143 -426.5z" />
    <glyph glyph-name="uni042E" unicode="&#x42e;" horiz-adv-x="2068" 
d="M1798 891q0 168 -82 273.5t-234 105.5t-266 -106.5t-174.5 -268t-60.5 -329.5t82.5 -273t232.5 -105t265.5 106.5t176 267.5t60.5 329zM2046 885q0 -217 -91 -429t-265 -349.5t-422 -137.5t-391.5 163t-143.5 441l2 50h-282l-156 -623h-246l363 1458h245l-155 -622h262
q45 178 143.5 325.5t248 237.5t339.5 90q260 0 404.5 -164t144.5 -440z" />
    <glyph glyph-name="uni042F" unicode="&#x42f;" horiz-adv-x="1323" 
d="M778 1255q-164 0 -241.5 -79.5t-77.5 -194.5q0 -207 256 -207h246l118 481h-301zM688 575q-59 0 -108 7l-416 -582h-285l488 651q-154 102 -154 324q0 119 59.5 229.5t189.5 182t329 71.5h583l-362 -1458h-244l141 575h-221z" />
    <glyph glyph-name="uni0430" unicode="&#x430;" horiz-adv-x="1103" 
d="M246 284q0 -134 157 -134q117 0 198 69.5t116 196.5l18 78q-115 -7 -248 -25q-241 -36 -241 -185zM614 901q-90 0 -151.5 -49t-77.5 -133h-231q33 154 159.5 253t314.5 99q382 0 382 -317q0 -63 -19 -138l-84 -342q-43 -172 -43 -274h-207q0 63 19 127h-4
q-143 -150 -357 -150q-150 0 -231.5 74t-81.5 202t106 225q153 141 664 167l6 25q12 43 13 80q0 151 -177 151z" />
    <glyph glyph-name="uni0431" unicode="&#x431;" horiz-adv-x="1202" 
d="M315 389q0 -107 54.5 -171t162.5 -64t185.5 69.5t116 172t38.5 210.5t-56 174t-168 66t-187.5 -72t-110.5 -175t-35 -210zM696 1020q208 0 314 -112.5t106 -313.5q0 -139 -70.5 -284.5t-208 -243t-335.5 -97.5t-306 117t-108 340q0 98 31 223q74 293 179 460t251.5 241
t390.5 92t367 47l-50 -201q-106 -27 -307 -40t-302 -54t-165.5 -119t-124.5 -213h4q126 158 334 158z" />
    <glyph glyph-name="uni0432" unicode="&#x432;" horiz-adv-x="1101" 
d="M516 160q111 0 161 48t50 111q0 133 -182 134h-187l-73 -293h231zM602 602q115 0 165 45t50 109q0 125 -180 125h-170l-72 -279h207zM961 313q0 -78 -45.5 -149.5t-141.5 -117.5t-239 -46h-515l259 1040h430q170 0 255 -62.5t85 -169.5q0 -224 -240 -284v-4
q152 -33 152 -207z" />
    <glyph glyph-name="uni0433" unicode="&#x433;" horiz-adv-x="878" 
d="M467 862l-213 -862h-234l259 1040h706l-45 -178h-473z" />
    <glyph glyph-name="uni0434" unicode="&#x434;" horiz-adv-x="1253" 
d="M598 862q-141 -471 -272 -684h446l170 684h-344zM1147 178l-127 -506h-234l82 328h-743l-82 -328h-233l124 506h125q80 90 162 278.5t199 583.5h799l-213 -862h141z" />
    <glyph glyph-name="uni0435" unicode="&#x435;" horiz-adv-x="1150" 
d="M870 688q0 102 -57 156.5t-159.5 54.5t-187.5 -70.5t-128 -201.5h528q4 45 4 61zM291 373q0 -117 58.5 -174.5t153.5 -57.5t165.5 47.5t101.5 124.5h238q-59 -147 -197.5 -245.5t-332 -98.5t-301 114t-107.5 316q0 154 70.5 309.5t206.5 259t331 103.5t301 -109.5
t106 -299.5q0 -82 -24 -189h-760q-10 -61 -10 -100z" />
    <glyph glyph-name="uni0436" unicode="&#x436;" horiz-adv-x="1482" 
d="M1374 0h-268l-240 553h-4l-135 -553h-229l131 524h-4l-467 -524h-308l558 578l-256 462h247l236 -473h4l117 473h229l-111 -446h5l424 446h286l-491 -489z" />
    <glyph glyph-name="uni0437" unicode="&#x437;" horiz-adv-x="1030" 
d="M592 893q-178 0 -223 -174h-234q39 166 165 259t307 93t279.5 -73.5t98.5 -202.5q0 -90 -65.5 -162t-206.5 -111v-4q172 -63 172 -215q0 -80 -51.5 -156.5t-153.5 -127t-276 -50.5t-280 75t-106 214q0 39 7 72h233q-6 -27 -6 -51q0 -131 184 -132q102 0 161.5 49.5
t59.5 114.5q0 125 -204 125h-91l44 174h83q129 0 196 50.5t67 110.5t-42 91t-118 31z" />
    <glyph glyph-name="uni0438" unicode="&#x438;" horiz-adv-x="1335" 
d="M821 0l99 393q53 209 120 438h-4q-170 -240 -307 -409l-338 -422h-371l259 1040h235l-98 -395q-47 -193 -119 -436h4q156 223 305 409l340 422h369l-258 -1040h-236z" />
    <glyph glyph-name="uni0439" unicode="&#x439;" horiz-adv-x="1335" 
d="M821 0l99 393q53 209 120 438h-4q-170 -240 -307 -409l-338 -422h-371l259 1040h235l-98 -395q-47 -193 -119 -436h4q156 223 305 409l340 422h369l-258 -1040h-236zM707 1430q0 -119 146 -119q73 0 128 39t76 108h184q-39 -143 -145.5 -222t-248.5 -79t-215 64.5
t-73 181.5q0 14 4 55h146q-2 -10 -2 -28z" />
    <glyph glyph-name="uni043A" unicode="&#x43a;" horiz-adv-x="1103" 
d="M958 0h-262l-309 516h-4l-129 -516h-234l259 1040h233l-102 -413h4l446 413h307l-553 -493z" />
    <glyph glyph-name="uni043B" unicode="&#x43b;" horiz-adv-x="1153" 
d="M-23 -10q-55 0 -94 12l41 168q20 -4 39 -4q72 0 156.5 96.5t261.5 777.5h752l-259 -1040h-233l213 862h-299q-96 -362 -182 -549.5t-177.5 -255t-218.5 -67.5z" />
    <glyph glyph-name="uni043C" unicode="&#x43c;" horiz-adv-x="1640" 
d="M1143 0l121 492q66 254 102 380h-4q-131 -227 -227 -378l-306 -494h-278l-62 494q-29 256 -36 378h-4q-57 -254 -89 -380l-122 -492h-218l259 1040h354l55 -460q20 -166 39 -392h4q92 188 215 392l287 460h387l-258 -1040h-219z" />
    <glyph glyph-name="uni043D" unicode="&#x43d;" horiz-adv-x="1230" 
d="M719 0l108 436h-465l-108 -436h-234l259 1040h233l-104 -426h462l107 426h233l-258 -1040h-233z" />
    <glyph glyph-name="uni043E" unicode="&#x43e;" horiz-adv-x="1181" 
d="M313 405.5q0 -114.5 55.5 -183t163 -68.5t184.5 74.5t114.5 184t37.5 223.5t-55 182.5t-162.5 68.5t-184.5 -75t-115 -183.5t-38 -223zM1110 623q0 -150 -69.5 -301.5t-207 -252t-336 -100.5t-311 118t-112.5 331q0 150 69.5 301t203.5 251.5t334 100.5t314.5 -117.5
t114.5 -330.5z" />
    <glyph glyph-name="uni043F" unicode="&#x43f;" horiz-adv-x="1214" 
d="M702 0l213 862h-448l-213 -862h-234l259 1040h915l-258 -1040h-234z" />
    <glyph glyph-name="uni0440" unicode="&#x440;" horiz-adv-x="1202" 
d="M362 406q0 -114 50 -183q50 -67 149 -67q98 0 174 74t116 183t40 223t-50 182q-51 68 -149 67q-98 0 -174 -73q-76 -72 -116 -182t-40 -224zM778 1067q172 0 266 -106q94 -107 94 -279t-66 -333t-194 -267t-300 -107q-102 1 -178 49t-103 132h-4l-133 -535h-234l355 1419
h227l-27 -104h4q59 61 137 96t156 35z" />
    <glyph glyph-name="uni0441" unicode="&#x441;" horiz-adv-x="1122" 
d="M1081 694q0 -35 -4 -51h-241q4 20 4 39q0 94 -49.5 149.5t-145.5 55.5t-174 -76t-119 -186.5t-41 -222t52.5 -180t144.5 -68.5t164.5 61t105.5 160h246q-59 -182 -201.5 -294t-333 -112t-304 118t-113.5 325q0 150 68.5 303t203.5 254.5t326.5 101.5t301 -103.5
t109.5 -273.5z" />
    <glyph glyph-name="uni0442" unicode="&#x442;" horiz-adv-x="946" 
d="M676 862l-213 -862h-236l213 862h-342l43 178h922l-45 -178h-342z" />
    <glyph glyph-name="uni0443" unicode="&#x443;" horiz-adv-x="999" 
d="M-30.5 -389q-96.5 0 -151.5 20l45 185q47 -14 117.5 -14.5t131 41.5t126.5 149l-121 1048h229l74 -774h4l455 774h262l-670 -1085q-82 -133 -157.5 -207t-161.5 -105.5t-182.5 -31.5z" />
    <glyph glyph-name="uni0444" unicode="&#x444;" horiz-adv-x="1644" 
d="M1333 636q0 110 -48 179.5t-125 69.5t-142 -56l-152 -606q46 -67 144 -67t171.5 75.5t112.5 185t39 219.5zM633 885q-96 0 -170 -76t-112 -185.5t-38 -219.5t47.5 -179t124.5 -69t146 59l149 598q-51 72 -147 72zM1583 687q0 -169 -65.5 -331.5t-191.5 -271.5t-296 -109
q-125 0 -203 91l-110 -445h-234l103 416q-98 -61 -205 -62q-152 0 -235 104.5t-83 274.5t66 333t190.5 271.5t292.5 108.5q133 0 207 -96l121 487h234l-113 -454q102 63 209 63q149 0 231 -105.5t82 -274.5z" />
    <glyph glyph-name="uni0445" unicode="&#x445;" horiz-adv-x="1011" 
d="M891 0h-248l-154 377h-4l-321 -377h-301l512 549l-228 491h246l142 -331h4l286 331h297l-475 -512z" />
    <glyph glyph-name="uni0446" unicode="&#x446;" horiz-adv-x="1228" 
d="M1120 178l-125 -506h-233l82 328h-824l259 1040h233l-213 -862h446l216 862h233l-215 -862h141z" />
    <glyph glyph-name="uni0447" unicode="&#x447;" horiz-adv-x="1136" 
d="M344 690q0 -155 191 -155q96 0 196 28l121 477h233l-258 -1040h-233l96 385q-119 -29 -239 -29q-170 0 -257.5 75t-87.5 218q0 51 15 107l69 284h234l-72 -292q-8 -27 -8 -58z" />
    <glyph glyph-name="uni0448" unicode="&#x448;" horiz-adv-x="1732" 
d="M20 0l259 1040h233l-213 -862h365l215 862h233l-215 -862h367l215 862h233l-258 -1040h-1434z" />
    <glyph glyph-name="uni0449" unicode="&#x449;" horiz-adv-x="1744" 
d="M1632 178l-127 -506h-233l82 328h-1334l259 1040h233l-213 -862h365l215 862h233l-215 -862h367l215 862h233l-215 -862h135z" />
    <glyph glyph-name="uni044A" unicode="&#x44a;" horiz-adv-x="1253" 
d="M905 360q0 146 -184 146h-191l-81 -332h237q113 0 166 55.5t53 130.5zM1139 375q0 -92 -47.5 -178t-148.5 -141.5t-253 -55.5h-518l213 862h-287l43 178h523l-91 -360h170q197 0 296.5 -79t99.5 -226z" />
    <glyph glyph-name="uni044B" unicode="&#x44b;" horiz-adv-x="1566" 
d="M754 360q0 146 -185 146h-190l-82 -332h238q113 0 166 55.5t53 130.5zM592 680q197 0 296 -79t99 -226q0 -92 -47 -178t-148.5 -141.5t-252.5 -55.5h-519l259 1040h233l-90 -360h170zM1055 0l258 1040h233l-258 -1040h-233z" />
    <glyph glyph-name="uni044C" unicode="&#x44c;" horiz-adv-x="1101" 
d="M754 360q0 146 -185 146h-190l-82 -332h238q113 0 166 55.5t53 130.5zM592 680q197 0 296 -79t99 -226q0 -92 -47 -178t-148.5 -141.5t-252.5 -55.5h-519l259 1040h233l-90 -360h170z" />
    <glyph glyph-name="uni044D" unicode="&#x44d;" horiz-adv-x="1122" 
d="M1051 629q0 -150 -69 -303.5t-204 -255t-326.5 -101.5t-301 103.5t-109.5 273.5q0 35 4 51h238q-4 -20 -4 -39q0 -98 50 -154.5t150.5 -56.5t183 85t123.5 212h-403l43 172h391v9q0 127 -53 197.5t-147.5 70.5t-169 -63.5t-107.5 -163.5h-242q59 182 202.5 293.5
t334 111.5t303.5 -117.5t113 -324.5z" />
    <glyph glyph-name="uni044E" unicode="&#x44e;" horiz-adv-x="1673" 
d="M1360 636q0 114 -55 182.5t-163 68.5t-184.5 -75t-114.5 -183.5t-38 -222.5t54.5 -183t162.5 -69t185 74.5t115 184t38 223.5zM1602 623q0 -150 -70 -301.5t-207 -252t-336 -100.5t-311.5 118t-112.5 331v12h-205l-106 -430h-234l259 1040h233l-106 -432l188 2
q55 193 202.5 327t361.5 134t329 -117.5t115 -330.5z" />
    <glyph glyph-name="uni044F" unicode="&#x44f;" horiz-adv-x="1118" 
d="M602 864q-125 0 -184.5 -50t-59.5 -124q0 -155 215 -155h170l82 329h-223zM535 365q-31 0 -84 4l-289 -369h-266l356 432q-117 84 -117 252q0 92 46 173t146.5 132t256.5 51h514l-258 -1040h-230l90 365h-165z" />
    <glyph glyph-name="uni0450" unicode="&#x450;" horiz-adv-x="1150" 
d="M870 688q0 102 -57 156.5t-159.5 54.5t-187.5 -70.5t-128 -201.5h528q4 45 4 61zM291 373q0 -117 58.5 -174.5t153.5 -57.5t165.5 47.5t101.5 124.5h238q-59 -147 -197.5 -245.5t-332 -98.5t-301 114t-107.5 316q0 154 70.5 309.5t206.5 259t331 103.5t301 -109.5
t106 -299.5q0 -82 -24 -189h-760q-10 -61 -10 -100zM850 1163h-180l-207 295h282z" />
    <glyph glyph-name="uni0451" unicode="&#x451;" horiz-adv-x="1150" 
d="M870 688q0 102 -57 156.5t-159.5 54.5t-187.5 -70.5t-128 -201.5h528q4 45 4 61zM291 373q0 -117 58.5 -174.5t153.5 -57.5t165.5 47.5t101.5 124.5h238q-59 -147 -197.5 -245.5t-332 -98.5t-301 114t-107.5 316q0 154 70.5 309.5t206.5 259t331 103.5t301 -109.5
t106 -299.5q0 -82 -24 -189h-760q-10 -61 -10 -100zM817 1235l55 223h209l-55 -223h-209zM395 1235l56 223h208l-55 -223h-209z" />
    <glyph glyph-name="uni0452" unicode="&#x452;" 
d="M1079 649q0 -72 -20 -151l-141 -568q-41 -164 -142.5 -241.5t-245.5 -77.5q-74 0 -135 16l43 174q23 -8 51 -8q84 0 134.5 47t78.5 164l121 490q16 63 17 120q0 152 -158 152q-104 0 -190 -78t-121 -221l-117 -467h-234l281 1130h-147l36 152h150l43 176h233l-45 -176
h449l-37 -152h-448l-78 -307h4q135 131 295 131q159 0 241 -78.5t82 -226.5z" />
    <glyph glyph-name="uni0453" unicode="&#x453;" horiz-adv-x="878" 
d="M467 862l-213 -862h-234l259 1040h706l-45 -178h-473zM496 1163l229 295h305l-332 -295h-202z" />
    <glyph glyph-name="uni0454" unicode="&#x454;" horiz-adv-x="1122" 
d="M844 682q0 98 -50 154q-52 56 -150 56.5t-177.5 -78.5t-122.5 -198h401l-43 -172h-397v-28q0 -127 53.5 -198t147.5 -71t169 63.5t109 164.5h240q-59 -182 -201.5 -294t-332.5 -112t-304 118t-114 325q0 150 68.5 303t203.5 254.5t327 101.5t301 -103.5t109 -273.5
q0 -35 -4 -51h-235q2 10 2 39z" />
    <glyph glyph-name="uni0455" unicode="&#x455;" horiz-adv-x="1042" 
d="M760 770q0 131 -174 131q-90 0 -138.5 -37t-48.5 -92t41 -82.5t149.5 -63.5t168.5 -67q144 -74 145 -246q0 -88 -53 -166.5t-159.5 -128t-281 -49.5t-280.5 75t-106 218q0 47 10 80h235q-8 -41 -8 -57q0 -68 49 -105t144.5 -37t149.5 39t54 102.5t-48 95.5t-157.5 69
t-161.5 63q-126 64 -126 229q0 84 51 160t150.5 123t262.5 47t260 -71.5t97 -208.5q0 -39 -8 -74h-223q6 30 6 53z" />
    <glyph glyph-name="uni0456" unicode="&#x456;" horiz-adv-x="532" 
d="M20 0l259 1040h233l-258 -1040h-234zM328 1235l55 223h233l-55 -223h-233z" />
    <glyph glyph-name="uni0457" unicode="&#x457;" horiz-adv-x="532" 
d="M20 0l259 1040h233l-258 -1040h-234zM508 1235l55 223h209l-55 -223h-209zM174 1235l55 223h209l-55 -223h-209z" />
    <glyph glyph-name="uni0458" unicode="&#x458;" horiz-adv-x="540" 
d="M-143 -389q-74 0 -136 16l43 174q23 -8 52 -8q84 0 134 47t79 164l258 1036h233l-276 -1110q-41 -163 -143.5 -241t-243.5 -78zM336 1235l55 223h234l-56 -223h-233z" />
    <glyph glyph-name="uni0459" unicode="&#x459;" horiz-adv-x="1722" 
d="M1155 174q113 0 166 55.5t53 130.5q0 145 -184 146h-191l-81 -332h237zM1212 680q195 0 295.5 -79t100.5 -226q0 -92 -47.5 -178t-148.5 -141.5t-253 -55.5h-518l213 862h-299q-96 -362 -182 -549.5t-177.5 -255t-218.5 -67.5q-55 0 -94 12l41 168q20 -4 39 -4
q72 0 156.5 96.5t261.5 777.5h752l-91 -360h170z" />
    <glyph glyph-name="uni045A" unicode="&#x45a;" horiz-adv-x="1800" 
d="M1233 174q113 0 166 55.5t53 130.5q0 145 -184 146h-191l-82 -332h238zM1290 680q195 0 295.5 -79t100.5 -226q0 -92 -47.5 -178t-148.5 -141.5t-253 -55.5h-518l112 455h-464l-113 -455h-234l259 1040h233l-100 -407h462l103 407h233l-90 -360h170z" />
    <glyph glyph-name="uni045B" unicode="&#x45b;" 
d="M1079 649q0 -72 -20 -151l-123 -498h-234l121 494q16 63 17 120q0 152 -158 152q-104 0 -190 -78t-121 -221l-117 -467h-234l281 1130h-147l36 152h150l43 176h233l-45 -176h449l-37 -152h-448l-78 -307h4q135 131 295 131q159 0 241 -78.5t82 -226.5z" />
    <glyph glyph-name="uni045C" unicode="&#x45c;" horiz-adv-x="1103" 
d="M958 0h-262l-309 516h-4l-129 -516h-234l259 1040h233l-102 -413h4l446 413h307l-553 -493zM557 1163l229 295h306l-332 -295h-203z" />
    <glyph glyph-name="uni045D" unicode="&#x45d;" horiz-adv-x="1335" 
d="M821 0l99 393q53 209 120 438h-4q-170 -240 -307 -409l-338 -422h-371l259 1040h235l-98 -395q-47 -193 -119 -436h4q156 223 305 409l340 422h369l-258 -1040h-236zM985 1163h-180l-207 295h283z" />
    <glyph glyph-name="uni045E" unicode="&#x45e;" horiz-adv-x="999" 
d="M-30.5 -389q-96.5 0 -151.5 20l45 185q47 -14 117.5 -14.5t131 41.5t126.5 149l-121 1048h229l74 -774h4l455 774h262l-670 -1085q-82 -133 -157.5 -207t-161.5 -105.5t-182.5 -31.5zM498 1430q0 -119 146 -119q73 0 128 39t76 108h184q-39 -143 -145.5 -222t-248.5 -79
t-215 64.5t-73 181.5q0 14 4 55h146q-2 -10 -2 -28z" />
    <glyph glyph-name="uni045F" unicode="&#x45f;" horiz-adv-x="1214" 
d="M592 0l-82 -328h-234l82 328h-338l259 1040h233l-213 -862h446l216 862h233l-258 -1040h-344z" />
    <glyph glyph-name="uni0490" unicode="&#x490;" horiz-adv-x="1019" 
d="M606 1245l-309 -1245h-246l363 1458h585l74 293h234l-127 -506h-574z" />
    <glyph glyph-name="uni0491" unicode="&#x491;" horiz-adv-x="878" 
d="M467 862l-213 -862h-234l259 1040h485l82 328h221l-127 -506h-473z" />
    <glyph glyph-name="uni0492" unicode="&#x492;" horiz-adv-x="1019" 
d="M489 772h295l-45 -182h-295l-147 -590h-246l148 590h-133l45 182h133l170 686h819l-53 -213h-574z" />
    <glyph glyph-name="uni0493" unicode="&#x493;" horiz-adv-x="886" 
d="M401 567h265l-41 -164h-265l-100 -403h-233l100 403h-121l41 164h121l117 473h706l-45 -178h-471z" />
    <glyph glyph-name="uni0496" unicode="&#x496;" horiz-adv-x="1837" 
d="M1753 213l-135 -541h-234l82 328h-39l-327 750h-4l-185 -750h-241l178 721h-4l-645 -721h-320l744 780l-326 678h262l295 -696h4l174 696h242l-168 -667h4l590 667h309l-672 -708l260 -537h156z" />
    <glyph glyph-name="uni0497" unicode="&#x497;" horiz-adv-x="1482" 
d="M1419 178l-127 -506h-233l82 328h-35l-240 553h-4l-135 -553h-229l131 524h-4l-467 -524h-308l558 578l-256 462h247l236 -473h4l117 473h229l-111 -446h5l424 446h286l-491 -489l186 -373h135z" />
    <glyph glyph-name="uni049A" unicode="&#x49a;" horiz-adv-x="1318" 
d="M1235 213l-135 -541h-234l82 328h-57l-412 721h-4l-178 -721h-246l363 1458h245l-157 -631h4l661 631h324l-770 -704l330 -541h184z" />
    <glyph glyph-name="uni049B" unicode="&#x49b;" horiz-adv-x="1103" 
d="M877 -328h-234l82 328h-29l-309 516h-4l-129 -516h-234l259 1040h233l-102 -413h4l446 413h307l-553 -493l232 -369h158z" />
    <glyph glyph-name="uni049C" unicode="&#x49c;" horiz-adv-x="1464" 
d="M1327 0h-272l-293 651h-8l-84 -334h-195l84 334h-104l-162 -651h-242l363 1458h241l-147 -594h102l84 334h195l-84 -334h12l510 594h309l-669 -725z" />
    <glyph glyph-name="uni049D" unicode="&#x49d;" horiz-adv-x="1214" 
d="M1104 0h-268l-209 471h-11l-65 -260h-160l66 260h-92l-117 -471h-228l259 1040h227l-96 -391h90l63 254h160l-64 -254h9l362 391h287l-488 -497z" />
    <glyph glyph-name="uni04A2" unicode="&#x4a2;" horiz-adv-x="1564" 
d="M1073 -328l82 328h-186l161 651h-671l-162 -651h-246l363 1458h245l-147 -594h672l147 594h244l-309 -1245h176l-135 -541h-234z" />
    <glyph glyph-name="uni04A3" unicode="&#x4a3;" horiz-adv-x="1245" 
d="M778 -328l82 328h-141l108 436h-465l-108 -436h-234l259 1040h233l-104 -426h462l107 426h233l-215 -862h142l-125 -506h-234z" />
    <glyph glyph-name="uni04AE" unicode="&#x4ae;" horiz-adv-x="1282" 
d="M635 0h-246l146 586l-295 872h249l89 -289q39 -123 104 -376h4q125 178 289 376l229 289h303l-727 -872z" />
    <glyph glyph-name="uni04AF" unicode="&#x4af;" horiz-adv-x="1003" 
d="M342 1040l39 -385q20 -186 33 -415h4q121 231 233 415l232 385h262l-664 -1063l-86 -356h-233l88 356l-133 1063h225z" />
    <glyph glyph-name="uni04B2" unicode="&#x4b2;" horiz-adv-x="1282" 
d="M1196 213l-133 -541h-234l82 328h-30l-211 551h-4l-469 -551h-316l674 758l-287 700h258l197 -528h4l442 528h310l-641 -725l215 -520h143z" />
    <glyph glyph-name="uni04B3" unicode="&#x4b3;" horiz-adv-x="1011" 
d="M936 178l-127 -506h-234l82 328h-14l-154 377h-4l-321 -377h-301l512 549l-228 491h246l142 -331h4l286 331h297l-475 -512l162 -350h127z" />
    <glyph glyph-name="uni04B8" unicode="&#x4b8;" horiz-adv-x="1353" 
d="M178 885q0 66 23 159l104 414h244l-105 -424q-12 -49 -12 -88q0 -147 148 -188l100 403h207l-103 -413q119 10 209 36l168 674h246l-363 -1458h-245l143 571q-100 -27 -209 -34l-69 -283h-209l69 281q-346 36 -346 350z" />
    <glyph glyph-name="uni04B9" unicode="&#x4b9;" horiz-adv-x="1105" 
d="M106 649q0 51 15 107l69 284h234l-74 -299q-8 -41 -8 -57q0 -104 92 -137l78 309h160l-80 -317q61 4 139 24l121 477h233l-258 -1040h-233l96 385q-63 -14 -141 -25l-49 -192h-160l47 190q-281 28 -281 291z" />
    <glyph glyph-name="uni04BA" unicode="&#x4ba;" horiz-adv-x="1353" 
d="M1026 512q0 203 -274 203q-140 0 -287 -41l-168 -674h-246l363 1458h245l-141 -571q158 41 322 41q440 0 440 -355q0 -66 -23 -159l-102 -414h-246l107 424q10 41 10 88z" />
    <glyph glyph-name="uni04BB" unicode="&#x4bb;" 
d="M784 1065q160 0 242 -79t82 -226q0 -72 -21 -152l-151 -608h-234l150 604q16 63 16 121q0 152 -157 152q-104 0 -190.5 -78t-121.5 -221l-145 -578h-234l363 1458h233l-131 -524h4q135 131 295 131z" />
    <glyph glyph-name="uni04C0" unicode="&#x4c0;" horiz-adv-x="606" 
d="M51 0l363 1458h245l-362 -1458h-246z" />
    <glyph glyph-name="uni04CF" unicode="&#x4cf;" horiz-adv-x="532" 
d="M20 0l363 1458h233l-362 -1458h-234z" />
    <glyph glyph-name="uni04D8" unicode="&#x4d8;" horiz-adv-x="1540" 
d="M365 508q0 -156 92 -238t256 -82t297 110t192 308h-827q-10 -57 -10 -98zM109 526q0 154 49 287h1091q10 66 11 109q0 178 -94 265t-243 87q-148 0 -260 -72t-159 -184h-283q55 131 159 237q104 105 250 169t318 65q281 0 429 -153t149 -427q0 -213 -100 -432t-292 -363
q-191 -144 -463 -144t-417 149q-145 150 -145 407z" />
    <glyph glyph-name="uni04D9" unicode="&#x4d9;" horiz-adv-x="1150" 
d="M281 352q0 -102 57 -156q58 -54 160 -54t189 73q87 74 130 211h-530q-6 -41 -6 -74zM63 379q0 109 35 201h754q8 43 8 88q0 117 -59 174t-153 57t-164 -44q-69 -44 -99 -116h-240q59 143 197 237t330 95q194 0 302 -114t107 -316q-1 -153 -71 -309t-206 -259t-331 -103
t-303 109q-108 110 -107 300z" />
    <glyph glyph-name="uni04E8" unicode="&#x4e8;" horiz-adv-x="1515" 
d="M721 178q176 0 308 127t194 318h-865l-2 -39q0 -184 94.5 -295t270.5 -111zM1264 836v38q0 184 -95.5 295t-272.5 111t-307 -127t-192 -317h867zM1491 860q0 -201 -92 -409.5t-271.5 -345t-422.5 -136.5q-182 0 -311.5 76t-197 214t-67.5 339t91 410t269.5 345t423.5 136
q181 0 311 -76t198.5 -214t68.5 -339z" />
    <glyph glyph-name="uni04E9" unicode="&#x4e9;" horiz-adv-x="1183" 
d="M301 442v-24q0 -127 59.5 -200t173.5 -73t196.5 85t119.5 212h-549zM879 600v23q0 127 -58.5 199.5t-173.5 72.5t-196.5 -84t-120.5 -211h549zM1110 623q0 -150 -69.5 -301.5t-207 -252t-335.5 -100.5t-311 118t-113 331q0 150 69.5 301t203.5 251.5t334 100.5
t314.5 -117.5t114.5 -330.5z" />
    <glyph glyph-name="Wgrave" unicode="&#x1e80;" horiz-adv-x="1916" 
d="M1116 0l4 606q2 264 21 641h-4q-106 -248 -299 -641l-295 -606h-330l41 1458h229l-18 -561q-6 -227 -35 -657h4q131 295 311 659l275 559h321l-4 -559q-4 -389 -16 -659h4q125 293 293 657l260 561h252l-684 -1458h-330zM1182 1556l-207 291h282l103 -291h-178z" />
    <glyph glyph-name="wgrave" unicode="&#x1e81;" horiz-adv-x="1617" 
d="M1090 502q0 -168 -7 -340h4q96 240 205 461l199 417h244l-512 -1040h-334l2 430q0 221 6 449h-4q-98 -227 -209 -449l-213 -430h-334l4 1040h224l-11 -417q-8 -322 -14 -461h4q90 209 209 452l211 426h328l-2 -426v-112zM1116 1163h-180l-207 295h283z" />
    <glyph glyph-name="Wacute" unicode="&#x1e82;" horiz-adv-x="1916" 
d="M1116 0l4 606q2 264 21 641h-4q-106 -248 -299 -641l-295 -606h-330l41 1458h229l-18 -561q-6 -227 -35 -657h4q131 295 311 659l275 559h321l-4 -559q-4 -389 -16 -659h4q125 293 293 657l260 561h252l-684 -1458h-330zM1049 1556l229 291h305l-334 -291h-200z" />
    <glyph glyph-name="wacute" unicode="&#x1e83;" horiz-adv-x="1617" 
d="M1090 502q0 -168 -7 -340h4q96 240 205 461l199 417h244l-512 -1040h-334l2 430q0 221 6 449h-4q-98 -227 -209 -449l-213 -430h-334l4 1040h224l-11 -417q-8 -322 -14 -461h4q90 209 209 452l211 426h328l-2 -426v-112zM803 1163l229 295h305l-331 -295h-203z" />
    <glyph glyph-name="Wdieresis" unicode="&#x1e84;" horiz-adv-x="1916" 
d="M1116 0l4 606q2 264 21 641h-4q-106 -248 -299 -641l-295 -606h-330l41 1458h229l-18 -561q-6 -227 -35 -657h4q131 295 311 659l275 559h321l-4 -559q-4 -389 -16 -659h4q125 293 293 657l260 561h252l-684 -1458h-330zM1317 1581l55 223h211l-57 -223h-209zM895 1581
l55 223h211l-57 -223h-209z" />
    <glyph glyph-name="wdieresis" unicode="&#x1e85;" horiz-adv-x="1617" 
d="M1090 502q0 -168 -7 -340h4q96 240 205 461l199 417h244l-512 -1040h-334l2 430q0 221 6 449h-4q-98 -227 -209 -449l-213 -430h-334l4 1040h224l-11 -417q-8 -322 -14 -461h4q90 209 209 452l211 426h328l-2 -426v-112zM1083 1235l56 223h209l-56 -223h-209zM662 1235
l55 223h209l-56 -223h-208z" />
    <glyph glyph-name="Germandbls" unicode="&#x1e9e;" horiz-adv-x="1607" 
d="M1028 1487q190 0 329.5 -76t211.5 -207l-400 -348q322 -106 322 -407q0 -119 -62.5 -227.5t-188.5 -178.5t-318 -70t-297 78t-105 230q0 47 12 102h238q-6 -33 -6 -59q0 -145 192 -146q94 0 186.5 56t92.5 188q0 133 -93 199.5t-276 83.5l43 172l353 307q-90 98 -276 98
t-314.5 -107.5t-182.5 -318.5l-213 -856h-245l219 874q74 299 273.5 456t504.5 157z" />
    <glyph glyph-name="Ygrave" unicode="&#x1ef2;" horiz-adv-x="1282" 
d="M635 0h-246l146 586l-295 872h249l89 -289q39 -123 104 -376h4q125 178 289 376l229 289h303l-727 -872zM827 1556l-206 291h282l103 -291h-179z" />
    <glyph glyph-name="ygrave" unicode="&#x1ef3;" horiz-adv-x="999" 
d="M-30.5 -389q-96.5 0 -151.5 20l45 185q47 -14 117.5 -14.5t131 41.5t126.5 149l-121 1048h229l74 -774h4l455 774h262l-670 -1085q-82 -133 -157.5 -207t-161.5 -105.5t-182.5 -31.5zM776 1163h-180l-207 295h283z" />
    <glyph glyph-name="uni2010" unicode="&#x2010;" horiz-adv-x="634" 
d="M57 502l47 192h512l-47 -192h-512z" />
    <glyph glyph-name="endash" unicode="&#x2013;" horiz-adv-x="1024" 
d="M37 502l47 192h942l-47 -192h-942z" />
    <glyph glyph-name="emdash" unicode="&#x2014;" horiz-adv-x="2048" 
d="M37 502l47 192h1966l-47 -192h-1966z" />
    <glyph glyph-name="uni2015" unicode="&#x2015;" horiz-adv-x="2048" 
d="M-92 502l47 192h1966l-47 -192h-1966z" />
    <glyph glyph-name="underscoredbl" unicode="&#x2017;" horiz-adv-x="1024" 
d="M-256 -506l31 123h1024l-31 -123h-1024zM-186 -225l30 123h1024l-30 -123h-1024z" />
    <glyph glyph-name="quoteleft" unicode="&#x2018;" horiz-adv-x="503" 
d="M481 1458h127l-157 -287h79l-61 -256h-238l64 256z" />
    <glyph glyph-name="quoteright" unicode="&#x2019;" horiz-adv-x="503" 
d="M354 915h-127l158 287h-80l62 256h237l-63 -256z" />
    <glyph glyph-name="quotesinglbase" unicode="&#x201a;" horiz-adv-x="503" 
d="M55 -287h-127l158 287h-80l62 256h237l-63 -256z" />
    <glyph glyph-name="quotereversed" unicode="&#x201b;" horiz-adv-x="503" 
d="M481 1458h127l-157 -287h79l-61 -256h-238l64 256z" />
    <glyph glyph-name="quotedblleft" unicode="&#x201c;" horiz-adv-x="854" 
d="M831 1458h127l-155 -287h80l-64 -256h-235l61 256zM481 1458h127l-157 -287h79l-61 -256h-238l64 256z" />
    <glyph glyph-name="quotedblright" unicode="&#x201d;" horiz-adv-x="854" 
d="M354 915h-127l158 287h-80l62 256h237l-63 -256zM705 915h-127l157 287h-80l62 256h237l-63 -256z" />
    <glyph glyph-name="quotedblbase" unicode="&#x201e;" horiz-adv-x="854" 
d="M55 -287h-127l158 287h-80l62 256h237l-63 -256zM406 -287h-127l157 287h-80l62 256h237l-63 -256z" />
    <glyph glyph-name="dagger" unicode="&#x2020;" horiz-adv-x="1126" 
d="M1157 1083l-47 -188h-336l-282 -1141h-236l283 1141h-334l45 188h336l94 375h235l-94 -375h336z" />
    <glyph glyph-name="daggerdbl" unicode="&#x2021;" horiz-adv-x="1126" 
d="M1157 1083l-47 -188h-336l-133 -535h334l-45 -190h-336l-102 -416h-236l102 416h-333l45 190h336l133 535h-334l45 188h336l94 375h235l-94 -375h336z" />
    <glyph glyph-name="bullet" unicode="&#x2022;" horiz-adv-x="710" 
d="M94 730q0 71 36 130.5t95.5 94t130.5 34.5q109 0 184.5 -75.5t75.5 -184t-75.5 -184.5t-184.5 -76q-69 0 -129.5 35t-96.5 95t-36 131z" />
    <glyph glyph-name="ellipsis" unicode="&#x2026;" horiz-adv-x="1691" 
d="M-16 0l71 291h269l-70 -291h-270zM582 0l71 291h269l-70 -291h-270zM1180 0l71 291h269l-70 -291h-270z" />
    <glyph glyph-name="perthousand" unicode="&#x2030;" horiz-adv-x="2154" 
d="M1626 219q0 -113 80 -113q55 0 95 52.5t59.5 124t19.5 127.5q0 111 -80 110q-55 0 -94 -51t-59.5 -123t-20.5 -127zM934 219q0 -113 82 -113q55 0 94 52.5t58.5 124t19.5 127.5q0 111 -80 110q-55 0 -94 -51t-59.5 -123t-20.5 -127zM1806 659q242 0 242 -247
q0 -104 -39 -206t-116.5 -169.5t-192.5 -67.5t-178.5 63.5t-63.5 175.5t41 214t120 169.5t187 67.5zM1114 659q242 0 242 -247q0 -104 -39 -206t-117 -169.5t-192 -67.5t-178 63.5t-64 175.5t41 214t120 169.5t187 67.5zM358 973q0 -113 80 -113q55 0 95 52.5t59.5 124
t19.5 126.5q0 111 -80 111q-55 0 -94 -52.5t-59.5 -123t-20.5 -125.5zM780 1172q0 -112 -39 -213t-116.5 -168.5t-193.5 -67.5t-178.5 63.5t-62.5 173.5t40 213t119 170.5t195 67.5t176 -63.5t60 -175.5zM76 -61l1237 1503h157l-1237 -1503h-157z" />
    <glyph glyph-name="minute" unicode="&#x2032;" horiz-adv-x="411" 
d="M158 909l190 471h217l-256 -471h-151z" />
    <glyph glyph-name="second" unicode="&#x2033;" horiz-adv-x="747" 
d="M500 909l190 471h217l-256 -471h-151zM158 909l190 471h217l-256 -471h-151z" />
    <glyph glyph-name="guilsinglleft" unicode="&#x2039;" horiz-adv-x="630" 
d="M434 111h-198l-140 417l324 402h219l-328 -418z" />
    <glyph glyph-name="guilsinglright" unicode="&#x203a;" horiz-adv-x="630" 
d="M197 930h198l140 -418l-322 -401h-221l327 417z" />
    <glyph glyph-name="exclamdbl" unicode="&#x203c;" horiz-adv-x="1099" 
d="M530 0l62 244h264l-61 -244h-265zM666 383l215 1075h288l-319 -1075h-184zM45 0l61 244h265l-62 -244h-264zM180 383l215 1075h289l-319 -1075h-185z" />
    <glyph glyph-name="interrobang" unicode="&#x203d;" horiz-adv-x="1089" 
d="M602 244l-59 -244h-264l59 244h264zM877 984q0 97 -93 134l-108 -375h4q29 27 72 56q125 88 125 185zM1120 1014q0 -114 -62.5 -202.5t-226.5 -184.5q-88 -51 -132 -86t-67.5 -75t-41.5 -106h-193l158 750q-109 -51 -147 -195h-242q47 180 158.5 286t277.5 130l27 127
h254l-39 -133q133 -29 204.5 -113t71.5 -198z" />
    <glyph glyph-name="overline" unicode="&#x203e;" horiz-adv-x="1024" 
d="M270 1604l39 159h1024l-39 -159h-1024z" />
    <glyph glyph-name="fraction" unicode="&#x2044;" horiz-adv-x="303" 
d="M-449 0l1117 1380h168l-1115 -1380h-170z" />
    <glyph glyph-name="zero.superior" unicode="&#x2070;" horiz-adv-x="923" 
d="M817 1307q0 192 -123 192q-84 0 -145.5 -85t-94 -201.5t-32.5 -202.5q0 -193 123 -193q84 0 146.5 85t94 202t31.5 203zM1026 1320q0 -158 -56.5 -310t-169 -254.5t-269.5 -102.5t-236.5 92.5t-79.5 252.5t55.5 311t167 253.5t269 102.5t238.5 -93.5t81 -251.5z" />
    <glyph glyph-name="four.superior" unicode="&#x2074;" horiz-adv-x="876" 
d="M631 1053l31 116q43 178 81 304h-4l-391 -420h283zM791 893l-56 -217h-203l54 217h-471l45 184l536 565h281l-148 -589h156l-39 -160h-155z" />
    <glyph glyph-name="five.superior" unicode="&#x2075;" horiz-adv-x="886" 
d="M586 1161q-115 0 -166 -108l-201 12l201 577h620l-41 -169h-452l-74 -207h4q79 53 193 53t189 -75t75 -202q0 -88 -51.5 -179t-151 -150.5t-243.5 -59.5t-229 61.5t-85 174.5q0 37 6 57h209q-2 -12 -2 -31q0 -47 35 -72.5t96 -25.5q98 0 150.5 65.5t52.5 137.5t-36 106.5
t-99 34.5z" />
    <glyph glyph-name="six.superior" unicode="&#x2076;" horiz-adv-x="884" 
d="M412 947q0 -54 33 -92t93 -38t102 30t64.5 74.5t22.5 100.5t-32.5 94.5t-90.5 38.5t-101.5 -30.5t-67 -77t-23.5 -100.5zM1022 1417q0 -27 -2 -41h-207v17q0 111 -113 110q-80 0 -147.5 -66.5t-108.5 -201.5h5q96 72 219 72t196.5 -77t73.5 -206q0 -84 -48 -170
t-140.5 -143.5t-232.5 -57.5t-223 88.5t-83 244.5t59.5 311t172.5 261.5t265 106.5t233 -65.5t81 -182.5z" />
    <glyph glyph-name="seven.superior" unicode="&#x2077;" horiz-adv-x="784" 
d="M716 1108q-134 -207 -231 -432h-241q113 242 253 448.5t277 343.5h-518l43 174h737l-39 -169q-147 -158 -281 -365z" />
    <glyph glyph-name="eight.superior" unicode="&#x2078;" horiz-adv-x="888" 
d="M723 968q0 124 -159 124q-81 0 -130 -47.5t-49 -104.5t41 -90t119 -33t128 46.5t50 104.5zM814.5 1420q-0.5 83 -146.5 83q-74 0 -120 -43t-46 -97q0 -114 147 -114q76 0 121 44t44.5 127zM313 1386q0 66 45 130.5t130.5 106.5t219.5 42t222 -68.5t88 -170.5t-61.5 -172
t-172.5 -95v-4q63 -20 101.5 -76.5t38.5 -129.5t-46.5 -141.5t-138 -111.5t-235.5 -43t-236 74t-92 201q0 90 68.5 166.5t189.5 97.5v4q-121 59 -121 190z" />
    <glyph glyph-name="nine.superior" unicode="&#x2079;" horiz-adv-x="884" 
d="M791 1356q0 68 -34 106.5t-92 38.5t-101.5 -29.5t-66 -74.5t-22.5 -101t33.5 -94.5t105.5 -38.5t124.5 62.5t52.5 130.5zM180 901q0 27 2 41h209v-16q0 -111 113 -111q80 0 147.5 66.5t106.5 201.5h-4q-96 -71 -219 -71t-197 76.5t-74 205.5q0 84 48 170t141 143.5
t233 57.5t222.5 -88.5t82.5 -244.5t-58.5 -311t-171.5 -261.5t-265 -106.5t-234 66.5t-82 181.5z" />
    <glyph glyph-name="plussuperior" unicode="&#x207a;" horiz-adv-x="839" 
d="M743 1208v-157h-241v-236h-162v236h-244v157h244v238h162v-238h241z" />
    <glyph glyph-name="uni207B" unicode="&#x207b;" horiz-adv-x="841" 
d="M96 1051v157h647v-157h-647z" />
    <glyph glyph-name="equalsuperior" unicode="&#x207c;" horiz-adv-x="839" 
d="M96 915v154h647v-154h-647zM96 1190v153h647v-153h-647z" />
    <glyph glyph-name="parenleftsuperior" unicode="&#x207d;" horiz-adv-x="481" 
d="M389 821q0 -164 35 -356h-156q-80 213 -80 425t95.5 433t285.5 416h172q-352 -463 -352 -918z" />
    <glyph glyph-name="parenrightsuperior" unicode="&#x207e;" horiz-adv-x="481" 
d="M385 1382q0 152 -37 357h158q78 -215 78 -426t-95.5 -432.5t-285.5 -415.5h-172q354 458 354 917z" />
    <glyph glyph-name="zero.inferior" unicode="&#x2080;" horiz-adv-x="923" 
d="M561 279q0 192 -123 192q-84 0 -145 -85t-94 -202q-33 -116 -33 -206t32 -140t91 -49q84 0 146 85t94 202t32 203zM770 292q0 -158 -56 -310t-169 -254t-270 -102t-237 91q-80 92 -79 252q0 160 55 312t167 254q111 102 269 102t239 -93t81 -252z" />
    <glyph glyph-name="one.inferior" unicode="&#x2081;" horiz-adv-x="600" 
d="M37 -352l162 649h-234l37 152q125 1 195 39t106 126h182l-241 -966h-207z" />
    <glyph glyph-name="two.inferior" unicode="&#x2082;" horiz-adv-x="897" 
d="M758 384q0 -114 -81 -202t-243 -161t-216 -113q-54 -41 -71 -90h500l-39 -170h-747q31 180 122 284t265 184t234 132q60 51 61 117q0 106 -115 106q-135 0 -176 -158h-215q39 156 145 240t258 84t235 -70q83 -69 83 -183z" />
    <glyph glyph-name="three.inferior" unicode="&#x2083;" horiz-adv-x="886" 
d="M758 389q0 -183 -230 -258v-2q131 -55 131 -190q0 -74 -46 -147t-136 -120q-89 -47 -237 -47t-236 67t-88 191q0 41 8 74h209q-6 -27 -6 -53q0 -113 143 -113q84 0 134 45t51 101q0 119 -168 118h-29l37 160h35q106 0 164 46q57 47 57 101q0 110 -140 109
q-140 0 -182 -160h-206q35 154 143 240t264 86t242 -67t86 -181z" />
    <glyph glyph-name="four.inferior" unicode="&#x2084;" horiz-adv-x="874" 
d="M373 25l30 116q43 178 82 303h-4l-391 -419h283zM532 -135l-55 -217h-203l54 217h-471l45 184l536 565h281l-148 -589h156l-39 -160h-156z" />
    <glyph glyph-name="five.inferior" unicode="&#x2085;" horiz-adv-x="886" 
d="M332 133q-114 0 -166 -108l-201 12l201 577h620l-41 -170h-452l-74 -206h4q79 53 193 53t189 -75t75 -202q0 -88 -51 -179t-151 -150t-244 -59t-229 60q-85 62 -85 175q0 37 6 57h209q-2 -12 -2 -31q0 -47 35 -73t96 -25q98 0 151 66q52 65 52 137t-36 106t-99 35z" />
    <glyph glyph-name="six.inferior" unicode="&#x2086;" horiz-adv-x="884" 
d="M280 -211q60 0 102 30q87 61 87 175q0 56 -33 94t-91 39q-58 0 -101 -31t-67 -77q-23 -46 -23 -100t34 -92q32 -38 92 -38zM764 389q0 -27 -2 -41h-207v17q0 111 -113 110q-80 -1 -148 -67t-108 -201h4q96 72 220 72t196 -77q74 -77 74 -206q0 -84 -48 -170t-140 -143
t-233 -57t-223 87q-82 89 -83 245q0 156 59 311t173 261q113 106 265 106t233 -65q81 -66 81 -182z" />
    <glyph glyph-name="seven.inferior" unicode="&#x2087;" horiz-adv-x="784" 
d="M460 80q-134 -207 -231 -432h-241q113 242 253 448t277 344h-518l43 174h737l-39 -170q-147 -157 -281 -364z" />
    <glyph glyph-name="eight.inferior" unicode="&#x2088;" horiz-adv-x="888" 
d="M127 -88q0 -57 41 -90t119 -33t128 46q50 47 50 105t-39 91t-120 33t-130 -48q-49 -47 -49 -104zM557 362q-1 113 -147 113q-74 0 -120 -43t-46 -97q0 -114 148 -114q76 0 120 44q45 44 45 97zM55 358q0 66 45 130t130 107q86 42 220 42t222 -69t88 -170t-62 -172
t-172 -95v-4q64 -21 102 -77t38 -129t-46 -141t-138 -112q-92 -43 -236 -43t-236 74t-92 201q0 90 69 167t189 97v4q-121 59 -121 190z" />
    <glyph glyph-name="nine.inferior" unicode="&#x2089;" horiz-adv-x="884" 
d="M409 473q-57 0 -101 -30q-44 -31 -66 -75t-23 -100q0 -56 33 -94q34 -38 106 -38t124 62t52 130t-33 107q-34 38 -92 38zM-76 -127q0 27 2 41h209v-16q0 -111 113 -111q80 0 148 67t106 201h-4q-96 -71 -219 -71t-197 76t-74 206q0 84 48 170t140 144t234 57
q140 0 222 -88q82 -89 83 -245q0 -156 -58 -311t-172 -261q-113 -106 -265 -106t-234 66q-82 67 -82 181z" />
    <glyph glyph-name="uni208A" unicode="&#x208a;" horiz-adv-x="839" 
d="M743 180v-157h-241v-236h-162v236h-244v157h244v238h162v-238h241z" />
    <glyph glyph-name="uni208B" unicode="&#x208b;" horiz-adv-x="839" 
d="M96 23v157h647v-157h-647z" />
    <glyph glyph-name="uni208C" unicode="&#x208c;" horiz-adv-x="839" 
d="M96 -113v154h647v-154h-647zM96 162v153h647v-153h-647z" />
    <glyph glyph-name="uni208D" unicode="&#x208d;" horiz-adv-x="481" 
d="M133 -207q0 -164 35 -356h-156q-80 213 -80 425t96 433q95 221 285 416h172q-352 -463 -352 -918z" />
    <glyph glyph-name="uni208E" unicode="&#x208e;" horiz-adv-x="481" 
d="M127 354q0 152 -37 357h158q78 -215 78 -426t-96 -432t-285 -416h-172q354 460 354 917z" />
    <glyph glyph-name="uni2099" unicode="&#x2099;" horiz-adv-x="886" 
d="M694 178q0 -49 -14 -104l-107 -426h-200l104 420q10 37 10 75q0 92 -100 93q-68 0 -123 -50t-80 -147l-96 -391h-201l183 729h188l-20 -80h2q102 98 219 98t176 -56t59 -161z" />
    <glyph glyph-name="franc" unicode="&#x20a3;" horiz-adv-x="1189" 
d="M543 846h620l-53 -213h-621l-53 -215h344l-45 -182h-344l-59 -236h-246l59 236h-168l48 182h165l240 962h916l-54 -213h-669z" />
    <glyph glyph-name="lira" unicode="&#x20a4;" horiz-adv-x="1189" 
d="M1010 1047q0 78 -43 118.5t-121 40.5q-190 0 -250 -239l-29 -117h252l-33 -133h-251l-25 -99h252l-33 -131h-252q-38 -133 -77.5 -189t-112.5 -97v-4h743l-49 -197h-1061l49 199q96 0 159.5 62t104.5 226h-192l33 131h192l25 99h-193l33 133h193l41 162q97 399 503 399
q180 0 279.5 -87t99.5 -243q0 -47 -12 -102h-234q9 50 9 68z" />
    <glyph glyph-name="peseta" unicode="&#x20a7;" horiz-adv-x="1775" 
d="M1008 950q0 224 -263 224h-157l-125 -498h225q111 0 182.5 41t104.5 103.5t33 129.5zM1458 266q0 -88 113 -88q31 0 67 8l-47 -186q-53 -12 -100 -12q-143 0 -208.5 56t-65.5 181q0 53 20 142l125 495h-117q-56 -232 -226.5 -312.5t-332.5 -80.5h-274l-115 -469h-246
l342 1380h369q223 0 346 -89t145 -251h152l65 260h234l-66 -260h203l-45 -178h-201l-127 -506q-10 -50 -10 -90z" />
    <glyph glyph-name="Euro" unicode="&#x20ac;" horiz-adv-x="1189" 
d="M1030 997q0 209 -222 209q-116 0 -212 -96t-154 -246h490l-58 -133h-473q-12 -45 -18 -98h448l-57 -131h-399q8 -328 231 -328q98 0 174 65.5t117 182.5h240q-68 -213 -215.5 -333t-351.5 -120t-317.5 135.5t-115.5 397.5h-139l57 131h90q8 66 17 98h-107l58 133h84
q80 236 245.5 391.5t387.5 155.5t331 -97t109 -276q0 -35 -6 -77h-236q2 13 2 36z" />
    <glyph glyph-name="uni20B9" unicode="&#x20b9;" horiz-adv-x="1189" 
d="M258 578h-33l41 163h113q139 0 230 49.5t128 122.5h-581l80 154h520q-37 160 -279 160h-244l82 153h1035l-82 -153h-357v-4q99 -47 113 -156h246l-80 -154h-180q-39 -104 -147.5 -183t-284.5 -107v-5q68 -27 110.5 -83t69.5 -158l100 -377h-262l-86 354
q-31 121 -89.5 172.5t-162.5 51.5z" />
    <glyph glyph-name="uni20BA" unicode="&#x20ba;" horiz-adv-x="1189" 
d="M352 -12q-143 0 -262 18l131 529l-209 -103l39 166l211 100l39 158l-209 -102l39 166l211 100l90 360h246l-62 -245l385 182l-38 -164l-388 -184l-38 -156l385 184l-39 -163l-389 -187l-111 -444q219 0 360.5 116.5t182.5 335.5h254q-62 -329 -274 -498t-554 -169z" />
    <glyph glyph-name="uni20BC" unicode="&#x20bc;" horiz-adv-x="1404" 
d="M1358 791q0 -104 -33 -234l-137 -557h-225l141 569q29 106 29 211q0 217 -191 248l-256 -1028h-225l256 1034q-158 -8 -241 -99t-134 -298l-158 -637h-225l170 680q74 293 224.5 429t418.5 142l51 207h226l-54 -217q185 -29 274 -138.5t89 -311.5z" />
    <glyph glyph-name="uni20BD" unicode="&#x20bd;" horiz-adv-x="1189" 
d="M711 729q145 0 215.5 77t70.5 177q0 207 -235 207h-166l-115 -461h230zM1247 999q0 -109 -56 -215t-173 -175.5t-291 -69.5h-293l-31 -125h388l-48 -183h-387l-57 -231h-242l56 231h-164l47 183h164l30 125h-165l49 190h164l163 651h396q223 0 336.5 -100t113.5 -281z
" />
    <glyph glyph-name="uni2105" unicode="&#x2105;" horiz-adv-x="1884" 
d="M932 1139q0 -25 -2 -35h-209q4 12 4 26q0 58 -33 92q-34 34 -96 34t-112 -49t-76 -119t-25 -139q0 -69 33 -111t90 -43q57 0 103 38t67 99h209q-41 -133 -147 -213t-248 -80q-144 0 -229 85t-85 234q0 104 50 208t150 175q100 70 244 70t228 -74t84 -198zM324 0
l1116 1380h168l-1114 -1380h-170zM1581 420q0 166 -139 166q-70 0 -119 -47t-74 -116t-25 -139t37 -115q35 -44 105 -44t118 47t72 116q25 69 25 132zM1790 416q0 -102 -50 -206t-150 -172q-100 -69 -248 -69t-235 86t-87 242q0 101 49 205t147 172t248 68q148 0 237 -87
q89 -86 89 -239z" />
    <glyph glyph-name="uni2113" unicode="&#x2113;" horiz-adv-x="911" 
d="M770 1112q0 143 -76 143q-45 0 -75.5 -45t-59.5 -159l-119 -478q107 52 181.5 144t111.5 196.5t37 198.5zM373 266q0 -115 114 -114q43 0 97 14l-45 -174q-55 -12 -123 -12q-143 0 -212 61t-69 188q0 61 21 136l6 24q-45 2 -105 14l33 132q61 -12 105 -13l124 502
q55 215 138.5 301t205.5 86q248 0 248 -303q0 -137 -57 -280.5t-173 -256t-280 -157.5l-16 -64q-12 -45 -12 -84z" />
    <glyph glyph-name="uni2116" unicode="&#x2116;" horiz-adv-x="2379" 
d="M1518 201l45 180h688l-43 -180h-690zM2212 944q0 166 -104.5 166t-153.5 -47t-74 -115.5t-25 -132.5q0 -166 142 -166q70 0 118 47t72.5 116t24.5 132zM2421 940q0 -104 -50.5 -207.5t-148.5 -171t-246 -67.5t-236.5 87t-88.5 240q0 102 49 205.5t147.5 171.5t246.5 68
t237.5 -86t89.5 -240zM926 0l-172 610q-92 319 -168 627h-4q-82 -387 -152 -664l-141 -573h-238l363 1458h331l175 -610q92 -326 167 -627h5q72 354 149 664l143 573h236l-363 -1458h-331z" />
    <glyph glyph-name="uni2117" unicode="&#x2117;" horiz-adv-x="1650" 
d="M872 731q197 1 197 157t-197 156h-163v-313h163zM1247 888q0 -142 -91 -223t-265 -81h-182v-336h-170v942h352q174 0 265 -80t91 -222zM193 729.5q0 -194.5 78.5 -342t222 -228.5t332 -81t333 81t223 228.5t78.5 342t-78.5 342t-223 228t-333 80.5t-332 -80.5t-222 -228
t-78.5 -342zM1561 729q0 -223 -91.5 -395t-258.5 -266.5t-385 -94.5t-385 94.5t-259 266.5t-92 395t92 395t259 266.5t385 94.5t385 -94.5t258.5 -266.5t91.5 -395z" />
    <glyph glyph-name="trademark" unicode="&#x2122;" horiz-adv-x="1669" 
d="M1233 980q0 -62 -2 -97h4q72 152 141 270l166 305h270l-182 -729h-157l86 340q45 176 69 262h-4l-135 -258l-189 -344h-194l-14 344q-4 172 -9 258h-4q-18 -90 -43 -192l-102 -410h-158l182 729h256l15 -305q4 -111 4 -173zM604 1313l-145 -584h-170l145 584h-227l37 145
h624l-37 -145h-227z" />
    <glyph glyph-name="Omega" unicode="&#x2126;" horiz-adv-x="1497" 
d="M1028 209h322l-52 -209h-577l55 219q445 351 445 715q0 166 -86 251t-241 85q-156 0 -270 -89t-172 -227t-58 -270q0 -133 38 -241q39 -108 113 -224l-53 -219h-551l53 209h332v4q-82 123 -127 245t-45 284t88 340q88 177 264 292t431 115t402 -126q147 -127 147 -359
t-114 -419q-115 -187 -344 -372v-4z" />
    <glyph glyph-name="estimated" unicode="&#x212e;" horiz-adv-x="1765" 
d="M387 741q0 -26 29 -26h932q27 0 26 26v340q0 58 -31 84q-195 193 -463 193t-460 -193q-33 -29 -33 -84v-340zM1667 670h-1251q-12 0 -20.5 -7.5t-8.5 -17.5v-342q0 -59 33 -90q190 -186 463 -186q147 0 277 62.5t212 162.5h141q-82 -115 -241.5 -196t-390.5 -81
t-409.5 92.5t-277 255t-98.5 366.5t95.5 369t274 259t418.5 94t417.5 -100.5t271.5 -270.5t94 -370z" />
    <glyph glyph-name="oneeighth" unicode="&#x215b;" horiz-adv-x="1615" 
d="M229 553l136 543h-201l33 141q109 0 170 34t92 109h170l-207 -827h-193zM84 0l1116 1380h168l-1114 -1380h-170zM1294 253q0 97 -130 97q-66 0 -106 -38t-40 -84q0 -97 130 -97q66 0 106 38t40 84zM1374 607q0 94 -120 94q-62 0 -100 -35t-38 -78t30 -68q30 -24 92 -24
t100 34q36 34 36 77zM938 610q0 54 39 110t115 92t194 36t198 -61q79 -60 79 -147q1 -87 -53 -147t-150 -79v-4q57 -20 89 -66t32 -110t-40 -122t-119 -96t-208 -36q-129 0 -210 63t-81 174q-1 81 59 145t167 78v4q-111 50 -111 166z" />
    <glyph glyph-name="threeeighths" unicode="&#x215c;" horiz-adv-x="1863" 
d="M125 758q0 31 6 63h197q-4 -29 -4 -45q0 -90 116 -90q72 0 112 36t40 81q0 94 -139 94h-27l37 145h29q88 0 135 37t47 82q0 90 -117 89t-149 -132h-191q29 133 125 208t234 75t215 -56q76 -56 75 -157q0 -156 -192 -219v-4q110 -42 108 -162q0 -63 -40 -126
q-94 -145 -328 -145q-132 0 -210 58t-79 168zM332 0l1116 1380h168l-1114 -1380h-170zM1542 253q0 97 -130 97q-66 0 -106 -38t-40 -84q0 -97 129 -97q67 0 107 38t40 84zM1622 607q0 94 -121 94q-61 0 -99 -35t-38 -78t30 -68q30 -24 92 -24t100 34q36 34 36 77zM1729 234
q0 -64 -40 -122t-119 -96t-208 -36q-129 0 -210 63t-81 174q0 81 59 145t166 78v4q-51 23 -81 66q-29 43 -29 99q0 55 39 111t115 92t194 36q119 0 198 -61q78 -60 78 -147t-53 -147t-149 -79v-4q57 -20 89 -66t32 -110z" />
    <glyph glyph-name="fiveeighths" unicode="&#x215d;" horiz-adv-x="1863" 
d="M568 1106q100 0 164 -65t65 -158q0 -93 -44 -171t-131 -128q-87 -52 -215 -52t-205 54t-77 153q0 23 6 47h195q-2 -8 -2 -34t30 -46q30 -22 96 -22q64 0 107 52t43 110t-30 87q-30 30 -79 30q-97 0 -139 -91l-188 13l174 495h549l-37 -157h-391l-62 -162h4q67 45 167 45z
M332 0l1116 1380h168l-1114 -1380h-170zM1542 253q0 97 -130 97q-66 0 -106 -38t-40 -84q0 -97 129 -97q67 0 107 38t40 84zM1622 607q0 94 -121 94q-61 0 -99 -35t-38 -78t30 -68q30 -24 92 -24t100 34q36 34 36 77zM1729 234q0 -64 -40 -122t-119 -96t-208 -36
q-129 0 -210 63t-81 174q0 81 59 145t166 78v4q-51 23 -81 66q-29 43 -29 99q0 55 39 111t115 92t194 36q119 0 198 -61q78 -60 78 -147t-53 -147t-149 -79v-4q57 -20 89 -66t32 -110z" />
    <glyph glyph-name="seveneighths" unicode="&#x215e;" horiz-adv-x="1671" 
d="M607 922q-114 -176 -197 -369h-226q96 203 217 377t236 289h-444l38 161h652l-37 -155q-125 -127 -239 -303zM139 0l1116 1380h168l-1114 -1380h-170zM1350 253q0 97 -130 97q-66 0 -107 -38q-40 -38 -40 -84q-1 -97 129 -97q66 0 107 38t41 84zM1430 607q0 94 -122 94
q-62 0 -99 -35q-38 -35 -38 -78t30 -68q31 -24 93 -24t99 34t37 77zM993 610q0 54 39 110t115 92q77 36 195 36t197 -61q79 -60 79 -147t-53 -147t-150 -79v-4q57 -20 89 -66t32 -110t-40 -122t-119 -96t-207 -36q-128 0 -211 63q-81 63 -80 174q0 81 59 145t166 78v4
q-111 50 -111 166z" />
    <glyph glyph-name="Sevenroman" unicode="&#x2166;" horiz-adv-x="2465" 
d="M362 0l-116 1458h235l47 -608q27 -338 33 -610h4q156 307 330 610l350 608h268l-839 -1458h-312zM1303 0l362 1458h246l-363 -1458h-245zM1909 0l362 1458h246l-363 -1458h-245z" />
    <glyph glyph-name="partialdiff" unicode="&#x2202;" horiz-adv-x="1255" 
d="M307 372q0 -93 49.5 -147.5t155.5 -54.5t186 68.5t120 164t40 186.5t-52 149.5t-156 58.5t-182.5 -67.5t-119.5 -166t-41 -191.5zM745 1288q-170 0 -221 -180h-245q43 176 162.5 278.5t299.5 102.5q224 0 339.5 -131.5t115.5 -359.5t-81 -464.5t-242 -400.5t-379 -164
t-322 110.5t-104 307.5q0 119 62.5 258t190.5 237.5t314 98.5q121 0 199.5 -46t115.5 -120h4q27 111 27 186q0 137 -60.5 212t-175.5 75z" />
    <glyph glyph-name="Delta" unicode="&#x2206;" horiz-adv-x="1406" 
d="M963 723q-20 209 -48 580h-4q-143 -266 -327 -580l-301 -510h729zM-121 0l895 1458h332l164 -1458h-1391z" />
    <glyph glyph-name="product" unicode="&#x220f;" horiz-adv-x="1372" 
d="M948 -246v1491h-522v-1491h-246v1704h1012v-1704h-244z" />
    <glyph glyph-name="summation" unicode="&#x2211;" horiz-adv-x="1024" 
d="M952 -31v-215h-880v215l387 633l-387 641v215h880v-215h-610l383 -641l-383 -633h610z" />
    <glyph glyph-name="minus" unicode="&#x2212;" horiz-adv-x="1159" 
d="M137 555v186h885v-186h-885z" />
    <glyph glyph-name="uni2215" unicode="&#x2215;" horiz-adv-x="968" 
d="M-244 -182l1030 1708h209l-1030 -1708h-209z" />
    <glyph glyph-name="uni2219" unicode="&#x2219;" horiz-adv-x="722" 
d="M227 481v289h269v-289h-269z" />
    <glyph glyph-name="radical" unicode="&#x221a;" horiz-adv-x="1245" 
d="M51 567v189h326l190 -797h4l428 1499h205l-487 -1704h-305l-193 813h-168z" />
    <glyph glyph-name="infinity" unicode="&#x221e;" horiz-adv-x="1333" 
d="M1120 630.5q0 69.5 -37 110.5t-101 41t-113.5 -38.5t-102.5 -112.5q53 -74 102.5 -113t113.5 -39t101 41t37 110.5zM351 782q-65 0 -101.5 -41t-36.5 -110.5t37.5 -110.5t101.5 -41t113 39t102 113q-53 74 -102 112.5t-114 38.5zM1303 630.5q0 -149.5 -84.5 -239.5
t-206.5 -90t-198.5 50t-147.5 141q-70 -90 -146 -140.5t-198 -50.5t-206.5 90t-84.5 239.5t84 240t207 90.5t198.5 -50.5t145.5 -140.5q72 90 148.5 140.5t198.5 50.5t206 -90.5t84 -240z" />
    <glyph glyph-name="integral" unicode="&#x222b;" horiz-adv-x="681" 
d="M225 1151q0 322 316 322q51 -1 123 -15v-172q-25 8 -58 8q-76 0 -112.5 -40t-36.5 -130v-1196q0 -321 -316 -321q-51 0 -123 14v172q25 -8 56 -8q78 0 114.5 40t36.5 130v1196z" />
    <glyph glyph-name="approxequal" unicode="&#x2248;" horiz-adv-x="1159" 
d="M772 446q45 0 75 39t30 107h153q0 -145 -71.5 -233.5t-190.5 -88.5q-61 0 -109.5 25t-103.5 67t-89 60t-79 18t-74.5 -39t-29.5 -104h-154q0 143 71.5 232t190.5 89q62 0 111 -25.5t105 -68.5t88 -60.5t77 -17.5zM772 858q45 0 75 39t30 104h153q0 -143 -71.5 -232
t-190.5 -89q-61 0 -110.5 25.5t-103.5 67.5t-88 60.5t-79 18.5t-74.5 -39t-29.5 -106h-154q0 145 71.5 233t190.5 88q62 0 109 -24.5t105 -67.5t90 -60.5t77 -17.5z" />
    <glyph glyph-name="notequal" unicode="&#x2260;" horiz-adv-x="1159" 
d="M1022 559v-186h-518l-150 -250h-178l150 250h-189v186h299l109 178h-408v187h518l150 250h178l-149 -250h188v-187h-299l-109 -178h408z" />
    <glyph glyph-name="lessequal" unicode="&#x2264;" horiz-adv-x="1159" 
d="M1022 0h-885v182h885v-182zM354 690v-4l668 -246v-192l-885 321v236l885 321v-192z" />
    <glyph glyph-name="greaterequal" unicode="&#x2265;" horiz-adv-x="1159" 
d="M137 0v182h885v-182h-885zM1022 569l-885 -321v192l668 246v4l-668 244v192l885 -321v-236z" />
    <glyph glyph-name="lozenge" unicode="&#x25ca;" horiz-adv-x="1271" 
d="M635 168l313 561l-313 561l-311 -561zM791 0h-310l-399 729l399 729h310l399 -729z" />
    <glyph glyph-name="uniF8FF" unicode="&#xf8ff;" horiz-adv-x="1296" 
d="M512 133v209h227v-209h-227zM715 432h-178q-2 20 -2 98t28 142q29 63 108 140t98 114t19 94t-36 92q-37 35 -105 35q-156 0 -162 -182h-213q4 176 102 268t268 92q171 0 267 -83t97 -222q0 -86 -31 -146t-107 -128t-103 -106q-50 -68 -50 -208zM154 1319v-1180
q0 -73 42 -115t113 -42h678q72 0 114 43t42 114v1180q0 72 -42 115t-114 43h-678q-71 0 -113 -43t-42 -115zM1257 139q-1 -125 -73 -199t-197 -73h-678q-125 0 -199 74t-73 198v1180q0 127 74 200t198 72h678q125 1 198 -73t72 -199v-1180z" />
    <glyph glyph-name="ff" unicode="&#xfb00;" horiz-adv-x="1259" 
d="M1376 1294q-80 0 -127 -43t-71 -141l-17 -70h199l-45 -178h-199l-215 -862h-231l215 862h-367l-215 -862h-231l215 862h-178l45 178h178l33 131q74 302 376 302q72 0 131 -19l-43 -168q-25 8 -51 8q-80 0 -127 -43t-71 -141l-17 -70h367l33 131q74 302 376 302
q74 -1 129 -19l-41 -168q-25 8 -51 8z" />
    <glyph glyph-name="fi" unicode="&#xfb01;" horiz-adv-x="1193" 
d="M778 1294q-80 0 -127 -43t-71 -141l-17 -70h199l-45 -178h-199l-215 -862h-231l215 862h-178l45 178h178l33 131q74 302 376 302q72 -1 131 -19l-43 -168q-25 8 -51 8zM682 0l258 1040h234l-259 -1040h-233zM989 1235l55 223h234l-55 -223h-234z" />
    <glyph glyph-name="fl" unicode="&#xfb02;" horiz-adv-x="1193" 
d="M778 1294q-80 0 -127 -43t-71 -141l-17 -70h199l-45 -178h-199l-215 -862h-231l215 862h-178l45 178h178l33 131q74 302 376 302q72 -1 131 -19l-43 -168q-25 8 -51 8zM682 0l362 1458h234l-363 -1458h-233z" />
    <glyph glyph-name="ffi" unicode="&#xfb03;" horiz-adv-x="1792" 
d="M1772 1040l-259 -1040h-233l258 1040h234zM1821 1235h-234l55 223h234zM741 1473q72 0 131 -19l-43 -168q-25 8 -51 8q-80 0 -127 -43t-71 -141l-17 -70h367l33 131q74 302 376 302q74 0 129 -19l-41 -168q-25 8 -51 8q-80 0 -127 -43t-71 -141l-17 -70h199l-45 -178
h-199l-215 -862h-231l215 862h-367l-215 -862h-231l215 862h-178l45 178h178l33 131q74 302 376 302z" />
    <glyph glyph-name="ffl" unicode="&#xfb04;" horiz-adv-x="1792" 
d="M1513 0h-233l362 1458h234zM741 1473q72 0 131 -19l-43 -168q-25 8 -51 8q-80 0 -127 -43t-71 -141l-17 -70h367l33 131q74 302 376 302q74 0 129 -19l-41 -168q-25 8 -51 8q-80 0 -127 -43t-71 -141l-17 -70h199l-45 -178h-199l-215 -862h-231l215 862h-367l-215 -862
h-231l215 862h-178l45 178h178l33 131q74 302 376 302z" />
    <glyph glyph-name="uniFEFF" unicode="&#xfeff;" horiz-adv-x="0" 
 />
    <glyph glyph-name="J.acute.loclNLD" horiz-adv-x="765" 
d="M37 -12q-72 0 -135 18l53 209q41 -10 78 -10q125 0 197.5 63.5t113.5 231.5l240 958h245l-262 -1046q-53 -215 -184 -319.5t-346 -104.5zM582 1581l229 295h305l-332 -295h-202z" />
    <glyph glyph-name="Ccedilla.ss01" horiz-adv-x="1425" 
d="M1432 1018q0 -49 -9 -88h-247q4 41 4 63q0 127 -75 202t-222.5 75t-266 -107.5t-179 -270.5t-60.5 -330t79 -270.5t217 -103.5t246.5 78t159.5 211h252q-76 -238 -255 -373t-425 -135t-387 158t-141 426q0 219 91 435t272.5 358.5t435.5 142.5q155 0 271 -58.5
t177.5 -165t61.5 -247.5zM180 -438l346 338h217l-274 -338h-289z" />
    <glyph glyph-name="Scedilla.ss01" horiz-adv-x="1269" 
d="M799 1489q481 0 481 -369q0 -45 -16 -110h-248q8 35 8 73q0 100 -64.5 152.5t-170 52.5t-170 -29.5t-98.5 -77.5t-34 -117t62.5 -116t202 -93t219.5 -89q180 -97 180 -328q0 -113 -68.5 -221t-204 -178t-323.5 -70q-244 0 -377 100.5t-133 290.5q0 61 14 121h252
q-10 -55 -10 -90q0 -219 279 -219q106 0 176.5 36t103.5 89t33 111t-29.5 98.5t-82 67t-170 68.5t-197.5 84q-183 96 -183 318q0 104 65.5 207t195 170.5t307.5 67.5zM74 -438l346 338h217l-275 -338h-288z" />
    <glyph glyph-name="uni0162.ss01" horiz-adv-x="1243" 
d="M926 1245l-312 -1245h-243l309 1245h-479l53 213h1202l-53 -213h-477zM43 -438l346 338h217l-274 -338h-289z" />
    <glyph glyph-name="i.loclTRK" horiz-adv-x="532" 
d="M20 0l259 1040h233l-258 -1040h-234zM328 1235l55 223h233l-55 -223h-233z" />
    <glyph glyph-name="j.acute.loclNLD" horiz-adv-x="540" 
d="M-143 -389q-74 0 -136 16l43 174q23 -8 52 -8q84 0 134 47t79 164l258 1036h233l-276 -1110q-41 -163 -143.5 -241t-243.5 -78zM279 1163l229 295h305l-332 -295h-202z" />
    <glyph glyph-name="ccedilla.ss01" horiz-adv-x="1122" 
d="M1081 694q0 -35 -4 -51h-241q4 20 4 39q0 94 -49.5 149.5t-145.5 55.5t-174 -76t-119 -186.5t-41 -222t52.5 -180t144.5 -68.5t164.5 61t105.5 160h246q-59 -182 -201.5 -294t-333 -112t-304 118t-113.5 325q0 150 68.5 303t203.5 254.5t326.5 101.5t301 -103.5
t109.5 -273.5zM31 -438l346 338h217l-275 -338h-288z" />
    <glyph glyph-name="scedilla.ss01" horiz-adv-x="1042" 
d="M760 770q0 131 -174 131q-90 0 -138.5 -37t-48.5 -92t41 -82.5t149.5 -63.5t168.5 -67q144 -74 145 -246q0 -88 -53 -166.5t-159.5 -128t-281 -49.5t-280.5 75t-106 218q0 47 10 80h235q-8 -41 -8 -57q0 -68 49 -105t144.5 -37t149.5 39t54 102.5t-48 95.5t-157.5 69
t-161.5 63q-126 64 -126 229q0 84 51 160t150.5 123t262.5 47t260 -71.5t97 -208.5q0 -39 -8 -74h-223q6 30 6 53zM-45 -438l346 338h217l-274 -338h-289z" />
    <glyph glyph-name="uni0163.ss01" horiz-adv-x="694" 
d="M375 266q0 -88 112 -88q33 0 70 8l-47 -186q-53 -12 -100 -12q-143 0 -209 56t-66 181q0 66 21 142l123 495h-175l43 178h177l63 260h234l-66 -260h203l-43 -178h-203l-127 -506q-10 -50 -10 -90zM-182 -438l346 338h217l-275 -338h-288z" />
    <glyph glyph-name="a.sups" horiz-adv-x="825" 
d="M496 997q-158 -25 -158 -114q0 -88 118 -88q62 0 114.5 45t74.5 127l12 49q-69 -3 -161 -19zM883 1198q0 -43 -13 -96l-55 -225q-31 -131 -29 -201h-182q4 55 10 80h-4q-98 -96 -250 -97q-109 0 -168 52.5t-59 144.5t93.5 175.5t459.5 101.5q10 35 10 65q0 96 -114 96
q-59 0 -97.5 -30.5t-50.5 -85.5h-196q25 106 119 176.5t237 70.5q289 0 289 -227z" />
    <glyph glyph-name="b.sups" horiz-adv-x="890" 
d="M418 968q0 -72 32.5 -114.5t96.5 -42.5t114 46t75.5 115.5t25.5 140.5t-33 114t-97 43t-112.5 -46t-75 -115t-26.5 -141zM722 1425q116 0 184.5 -76.5t68.5 -198.5t-48 -233.5t-140.5 -185.5t-217.5 -74q-72 0 -126 33t-74 90h-4l-27 -104h-195l256 1020h201l-88 -350h2
q92 79 208 79z" />
    <glyph glyph-name="c.sups" horiz-adv-x="833" 
d="M936 1153q0 -25 -2 -35h-209q4 12 4 27q0 59 -32.5 92t-95.5 33t-113 -48t-75.5 -119t-25.5 -139t33 -111.5t90 -43.5t103 38t67 99h209q-41 -133 -146 -213t-249 -80t-229 85t-85 235q0 104 50.5 208.5t150 174t243.5 69.5t228 -73.5t84 -198.5z" />
    <glyph glyph-name="d.sups" horiz-adv-x="890" 
d="M389 966q0 -72 32.5 -113.5t96.5 -41.5t113 45t75.5 113.5t26.5 141.5t-32.5 116t-96.5 43t-114 -46t-75.5 -116t-25.5 -142zM435 655q-122 0 -190.5 77t-68.5 199t48 233.5t141.5 185t218.5 73.5q68 0 120 -30.5t76 -83.5h2l97 387h200l-254 -1020h-194l16 65h-4
q-86 -86 -208 -86z" />
    <glyph glyph-name="e.sups" horiz-adv-x="851" 
d="M608 1290q-67 0 -121.5 -43t-83.5 -129h340l2 39q0 133 -137 133zM369 938q0 -74 38.5 -108.5t100 -34.5t105.5 28.5t63 73.5h205q-43 -104 -144.5 -174t-246 -70t-227.5 85t-83 233q0 104 50.5 209.5t149.5 175t244.5 69.5t227.5 -79.5t82 -221.5q0 -43 -19 -127h-540
q-6 -32 -6 -59z" />
    <glyph glyph-name="egrave.sups" horiz-adv-x="851" 
d="M608 1290q-67 0 -121.5 -43t-83.5 -129h340l2 39q0 133 -137 133zM369 938q0 -74 38.5 -108.5t100 -34.5t105.5 28.5t63 73.5h205q-43 -104 -144.5 -174t-246 -70t-227.5 85t-83 233q0 104 50.5 209.5t149.5 175t244.5 69.5t227.5 -79.5t82 -221.5q0 -43 -19 -127h-540
q-6 -32 -6 -59zM403 1696h248l105 -207h-172z" />
    <glyph glyph-name="f.sups" horiz-adv-x="503" 
d="M674 1708q59 0 106 -14l-35 -140q-76 19 -118.5 -16t-57.5 -98l-8 -35h139l-34 -150h-142l-145 -579h-201l146 579h-123l35 150h124l21 82q57 221 293 221z" />
    <glyph glyph-name="g.sups" horiz-adv-x="880" 
d="M391 989q0 -64 32.5 -105.5t94.5 -41.5t111 42t73.5 105t24.5 129t-35.5 107t-97.5 41t-108 -43t-70.5 -106.5t-24.5 -127.5zM305 610q0 -78 119 -78q80 0 130 41t75 136l12 51h-2q-92 -76 -209 -76t-181.5 79t-64.5 197t45 223t133.5 173.5t184.5 68.5q179 0 231 -131h2
l29 111h188l-180 -729q-35 -139 -139.5 -209t-257.5 -70t-230 50.5t-77 144.5q0 25 4 39h190q-2 -8 -2 -21z" />
    <glyph glyph-name="h.sups" horiz-adv-x="888" 
d="M721 1423q111 0 171 -56t60 -161q0 -43 -16 -104l-107 -426h-198l104 420q10 37 10 75q0 93 -100 93q-70 0 -124 -50.5t-79 -146.5l-98 -391h-201l254 1020h201l-90 -359h2q100 86 211 86z" />
    <glyph glyph-name="i.sups" horiz-adv-x="409" 
d="M143 676l181 729h200l-180 -729h-201zM356 1526l41 170h201l-41 -170h-201z" />
    <glyph glyph-name="j.sups" horiz-adv-x="417" 
d="M68 403q-90 0 -134 15l35 143q12 -4 55 -4q96 0 134 143l176 705h198l-190 -766q-29 -121 -106.5 -178.5t-167.5 -57.5zM362 1526l44 170h198l-39 -170h-203z" />
    <glyph glyph-name="k.sups" horiz-adv-x="802" 
d="M854 676h-225l-193 354h-4l-88 -354h-201l254 1020h201l-141 -570h4l282 279h263l-381 -352z" />
    <glyph glyph-name="l.sups" horiz-adv-x="409" 
d="M143 676l254 1020h201l-254 -1020h-201z" />
    <glyph glyph-name="m.sups" horiz-adv-x="1323" 
d="M709 1423q164 0 196 -135q115 135 264 135q105 0 161 -54t56 -159q0 -43 -14 -110l-106 -424h-201l104 426q12 43 13 74q0 88 -90 88q-66 0 -116 -52.5t-75 -150.5l-96 -385h-201l109 434q8 31 8 59q0 94 -90 95q-66 0 -116 -53.5t-75 -151.5l-96 -383h-201l183 729h188
l-18 -76h4q90 94 209 94z" />
    <glyph glyph-name="n.sups" horiz-adv-x="886" 
d="M950 1206q0 -49 -14 -104l-107 -426h-200l104 420q10 37 10 75q0 92 -100 93q-68 0 -123 -50.5t-80 -146.5l-96 -391h-201l183 729h188l-20 -80h2q102 98 218 98t176 -56t60 -161z" />
    <glyph glyph-name="o.sups" horiz-adv-x="878" 
d="M745 1104q0 166 -104 166t-153.5 -47t-74 -116t-24.5 -139t36 -114.5t105.5 -44.5t117.5 47t72.5 115.5t24.5 132.5zM954 1100q0 -102 -50 -205.5t-150 -172.5t-248 -69t-235 86t-87 242q0 102 49.5 205.5t148 171t246.5 67.5t237 -86t89 -239z" />
    <glyph glyph-name="p.sups" horiz-adv-x="888" 
d="M418 968q0 -72 32.5 -114.5t95.5 -42.5t113 46t75.5 115.5t25.5 140.5t-33 114t-95 43t-112.5 -46t-76 -115t-25.5 -141zM715 1425q121 0 189.5 -76.5t68.5 -198.5t-48 -233.5t-140.5 -185.5t-217.5 -74q-70 0 -122 30t-74 83h-4l-91 -358h-200l248 993h194l-16 -66h2
q90 86 211 86z" />
    <glyph glyph-name="q.sups" horiz-adv-x="890" 
d="M389 966q0 -72 32.5 -113.5t96.5 -41.5t113 45t75.5 113.5t26.5 141.5t-32.5 116t-96.5 43t-114 -46t-75.5 -116t-25.5 -142zM429 655q-116 0 -184.5 77t-68.5 199t48 233.5t141.5 185t218.5 73.5q69 0 123.5 -32.5t74.5 -92.5h4l27 107h193l-246 -993h-201l80 323h-2
q-92 -80 -208 -80z" />
    <glyph glyph-name="r.sups" horiz-adv-x="591" 
d="M690 1239q-100 0 -167.5 -60.5t-94.5 -168.5l-82 -334h-201l181 729h186l-23 -96h3q104 104 243 104q37 0 62 -6l-41 -176q-27 8 -66 8z" />
    <glyph glyph-name="s.sups" horiz-adv-x="780" 
d="M582 1425q286 0 286 -192q0 -35 -6 -51h-190q4 16 4 32q0 78 -113 78q-55 0 -86 -20.5t-31 -55t27 -52t105 -42.5t156.5 -62.5t78.5 -160.5q0 -63 -39 -119.5t-119 -91.5t-214 -35t-215 52.5t-81 152.5q0 33 9 57h200q-4 -14 -4 -36q0 -86 128 -86t128 84q0 39 -31.5 58
t-111.5 45t-148.5 58t-68.5 154q0 59 38 112.5t113.5 87t184.5 33.5z" />
    <glyph glyph-name="t.sups" horiz-adv-x="524" 
d="M434 897q0 -70 80 -70q29 0 51 7l-39 -158q-55 -10 -84 -10q-111 0 -163 44t-52 138q0 37 15 100l77 307h-122l36 150h123l47 188h199l-47 -188h145l-36 -150h-146l-76 -307q-8 -26 -8 -51z" />
    <glyph glyph-name="u.sups" horiz-adv-x="888" 
d="M197 874q0 49 14 105l106 426h201l-104 -420q-10 -35 -11 -76q0 -92 101 -92q68 0 123 50.5t80 146.5l98 391h199l-183 -729h-188l20 80h-2q-102 -98 -218 -98t-176 56t-60 160z" />
    <glyph glyph-name="v.sups" horiz-adv-x="753" 
d="M283 676l-72 729h201l16 -277q6 -111 10 -311h4q49 102 158 311l156 277h227l-436 -729h-264z" />
    <glyph glyph-name="w.sups" horiz-adv-x="1206" 
d="M229 676v729h189l-12 -279q-4 -178 -15 -313h4q82 188 144 309l141 283h268v-283q0 -156 -6 -309h4q51 135 135 313l129 279h207l-362 -729h-275l2 285l2 102q0 68 4 207h-4q-72 -174 -139 -309l-141 -285h-275z" />
    <glyph glyph-name="x.sups" horiz-adv-x="761" 
d="M805 676h-211l-98 250h-4l-207 -250h-252l360 385l-160 344h213l86 -225h3l182 225h248l-332 -361z" />
    </font>
</defs>
</svg>
