<?xml version="1.0" standalone="no"?>
<!DOCTYPE svg PUBLIC "-//W3C//DTD SVG 1.1//EN" "http://www.w3.org/Graphics/SVG/1.1/DTD/svg11.dtd" >
<svg xmlns="http://www.w3.org/2000/svg">
<metadata>
Created by FontPrep 20130207 at Sat Mar 12 16:03:55 2016
 By Matthew Higley
Copyright (c) 2015 Monotype Imaging Inc.  All rights reserved.
</metadata>
<defs>
<font id="8f907d282c60fd802a151771a56209c7" horiz-adv-x='1024' >
  <font-face 
    font-family="NeueHaasUnicaW1G-ThinItalic"
    font-weight="300"
    font-style="italic"
    font-stretch="normal"
    units-per-em="2048"
    panose-1="2 11 3 4 3 2 6 9 2 3"
    ascent="1565"
    descent="-483"
    x-height="1040"
    cap-height="1458"
    bbox="-1253 -563 2253 2173"
    underline-thickness="102"
    underline-position="-153"
    slope="-14"
    unicode-range="U+0020-FEFF"
  />
<missing-glyph horiz-adv-x="1220" 
d="M518 133v139h92v-139h-92zM930 1030q0 -88 -35 -149t-123 -135t-118.5 -116t-42 -97.5t-11.5 -155.5h-68v43q0 90 13.5 146.5t48 102t116.5 117.5t111 122t29 135t-68.5 144.5t-183.5 59.5t-183.5 -64.5t-76.5 -185.5h-76q10 156 98 239t238 83t241 -81t91 -208z
M111 1337v-1216q0 -90 53 -143.5t143 -53.5h604q90 0 143.5 53.5t53.5 143.5v1216q0 90 -53.5 143.5t-143.5 53.5h-604q-90 0 -143 -53.5t-53 -143.5zM1165 1337v-1216q0 -119 -67.5 -186.5t-186.5 -67.5h-604q-117 0 -184.5 67.5t-67.5 186.5v1216q0 119 67.5 186.5
t184.5 67.5h604q119 0 186.5 -67.5t67.5 -186.5z" />
    <glyph glyph-name="f_f" unicode="ff" horiz-adv-x="1026" 
d="M1157 1399q-163 0 -215 -209l-37 -150h215l-16 -65h-215l-242 -975h-74l244 975h-405l-244 -975h-74l244 975h-195l17 65h194l41 168q63 256 281 256q47 0 74 -8l-17 -65q-29 8 -55 8q-82 0 -134 -50.5t-79 -158.5l-37 -150h406l40 168q63 256 281 256q47 0 74 -8
l-17 -65q-29 8 -55 8z" />
    <glyph glyph-name="f_f_i" unicode="ffi" 
d="M1157 1399q-82 0 -135 -50t-80 -159l-37 -150h215l-16 -65h-215l-242 -975h-74l244 975h-405l-244 -975h-74l244 975h-195l17 65h194l41 168q63 256 281 256q47 0 74 -8l-17 -65q-29 8 -55 8q-82 0 -134 -50t-79 -159l-37 -150h406l40 168q63 256 281 256q47 0 74 -8
l-17 -65q-29 8 -55 8zM1077 0l258 1040h74l-258 -1040h-74zM1399 1292l41 166h73l-40 -166h-74z" />
    <glyph glyph-name="f_f_l" unicode="ffl" 
d="M1157 1399q-82 0 -135 -50t-80 -159l-37 -150h215l-16 -65h-215l-242 -975h-74l244 975h-405l-244 -975h-74l244 975h-195l17 65h194l41 168q63 256 281 256q47 0 74 -8l-17 -65q-29 8 -55 8q-82 0 -134 -50t-79 -159l-37 -150h406l40 168q63 256 281 256q47 0 74 -8
l-17 -65q-29 8 -55 8zM1077 0l363 1458h73l-362 -1458h-74z" />
    <glyph glyph-name="f_i" unicode="fi" horiz-adv-x="980" 
d="M678 1399q-82 0 -134 -50t-79 -159l-37 -150h215l-16 -65h-215l-244 -975h-74l244 975h-195l17 65h194l41 168q63 256 281 256q47 0 74 -8l-17 -65q-29 8 -55 8zM600 0l258 1040h74l-258 -1040h-74zM922 1292l41 166h73l-41 -166h-73z" />
    <glyph glyph-name="f_l" unicode="fl" horiz-adv-x="980" 
d="M678 1399q-82 0 -134 -50t-79 -159l-37 -150h215l-16 -65h-215l-244 -975h-74l244 975h-195l17 65h194l41 168q63 256 281 256q47 0 74 -8l-17 -65q-29 8 -55 8zM600 0l363 1458h73l-362 -1458h-74z" />
    <glyph glyph-name=".notdef" horiz-adv-x="1220" 
d="M518 133v139h92v-139h-92zM930 1030q0 -88 -35 -149t-123 -135t-118.5 -116t-42 -97.5t-11.5 -155.5h-68v43q0 90 13.5 146.5t48 102t116.5 117.5t111 122t29 135t-68.5 144.5t-183.5 59.5t-183.5 -64.5t-76.5 -185.5h-76q10 156 98 239t238 83t241 -81t91 -208z
M111 1337v-1216q0 -90 53 -143.5t143 -53.5h604q90 0 143.5 53.5t53.5 143.5v1216q0 90 -53.5 143.5t-143.5 53.5h-604q-90 0 -143 -53.5t-53 -143.5zM1165 1337v-1216q0 -119 -67.5 -186.5t-186.5 -67.5h-604q-117 0 -184.5 67.5t-67.5 186.5v1216q0 119 67.5 186.5
t184.5 67.5h604q119 0 186.5 -67.5t67.5 -186.5z" />
    <glyph glyph-name=".null" horiz-adv-x="0" 
 />
    <glyph glyph-name="nonmarkingreturn" horiz-adv-x="681" 
 />
    <glyph glyph-name="NULL" horiz-adv-x="600" 
 />
    <glyph glyph-name="NULL" horiz-adv-x="600" 
 />
    <glyph glyph-name="space" unicode=" " horiz-adv-x="471" 
 />
    <glyph glyph-name="exclam" unicode="!" horiz-adv-x="456" 
d="M53 0l41 164h92l-41 -164h-92zM145 305l269 1153h96l-305 -1153h-60z" />
    <glyph glyph-name="quotedbl" unicode="&#x22;" horiz-adv-x="624" 
d="M274 946l115 512h80l-141 -512h-54zM510 946l115 512h80l-142 -512h-53z" />
    <glyph glyph-name="numbersign" unicode="#" horiz-adv-x="1284" 
d="M588 897l-166 -408h364l166 408h-364zM854 489h276l-26 -61h-277l-174 -428h-67l174 428h-365l-174 -428h-67l174 428h-279l25 61h280l166 408h-280l24 61h281l172 422h67l-172 -422h365l172 422h68l-173 -422h277l-27 -61h-274z" />
    <glyph glyph-name="dollar" unicode="$" horiz-adv-x="1064" 
d="M850 402q0 94 -59.5 149t-190.5 106l-151 -608q135 0 225 51.5t133 129.5t43 172zM692 1331q-115 0 -196.5 -46t-124.5 -119.5t-43 -160.5t54 -142.5t173 -102.5l143 571h-6zM1071 1077q0 -66 -16 -129h-76q16 72 16 123q0 227 -229 256l-148 -590q106 -39 208 -99.5
t102 -242.5q0 -102 -55.5 -198.5t-165 -158t-265.5 -61.5h-12l-45 -180h-70l45 185q-145 18 -222 104t-77 236q0 59 19 141h76q-16 -72 -17 -137q0 -244 240 -273l158 629q-147 55 -217 125.5t-70 182.5t51 203t152.5 151.5t242.5 60.5h21l39 160h69l-41 -164
q287 -37 287 -324z" />
    <glyph glyph-name="percent" unicode="%" horiz-adv-x="1622" 
d="M999 242q0 -197 146 -197q88 0 150.5 67.5t93 165t30.5 181.5q0 197 -143 196q-88 0 -150.5 -67.5t-94.5 -164.5t-32 -181zM1145 -23q-223 0 -223 265q0 104 41 215.5t120.5 188.5t192.5 77q221 0 221 -264q0 -104 -40 -216t-120 -189t-192 -77zM287 924q0 -199 145 -199
q88 0 150.5 67.5t94.5 165t32 181.5q0 197 -146 196q-88 0 -150.5 -67.5t-94 -163.5t-31.5 -180zM563 1403q223 0 223 -262q0 -104 -40.5 -217t-120.5 -190t-193 -77q-223 0 -223 265q0 104 41 215.5t121 188.5t192 77zM240 -61l1146 1503h80l-1147 -1503h-79z" />
    <glyph glyph-name="ampersand" unicode="&#x26;" 
d="M172 313q0 -127 83 -196.5t230 -69.5q275 1 508 234l-383 493q-248 -111 -343 -222.5t-95 -238.5zM528 1128q0 -66 26 -128t89 -148q203 86 277.5 177t74.5 185t-51 145.5t-140 51.5t-150.5 -43t-93.5 -108.5t-32 -131.5zM94 304q0 154 110.5 283.5t366.5 239.5
q-63 92 -88.5 160.5t-25.5 146.5t42 160t120.5 134.5t192.5 52.5t184.5 -71.5t70.5 -189.5t-86 -223.5t-299 -195.5l362 -465q162 193 234 475h78q-76 -311 -269 -530l220 -281h-97l-176 227q-256 -252 -553 -252q-182 0 -284.5 87.5t-102.5 241.5z" />
    <glyph glyph-name="quotesingle" unicode="'" horiz-adv-x="391" 
d="M274 946l115 512h80l-141 -512h-54z" />
    <glyph glyph-name="parenleft" unicode="(" horiz-adv-x="512" 
d="M176 268q0 -290 70 -569h-68q-80 279 -80 577t132 630.5t388 611.5h80q-260 -295 -391 -627.5t-131 -622.5z" />
    <glyph glyph-name="parenright" unicode=")" horiz-adv-x="509" 
d="M379 949q0 290 -70 569h68q80 -279 80 -577t-132 -631t-388 -611h-80q260 295 391 627.5t131 622.5z" />
    <glyph glyph-name="asterisk" unicode="*" horiz-adv-x="784" 
d="M862 1217l8 -87l-282 5l121 -254l-80 -35l-88 274l-205 -198l-55 67l227 166l-252 127l49 74l230 -164l51 281l82 -21l-88 -272z" />
    <glyph glyph-name="plus" unicode="+" horiz-adv-x="1159" 
d="M1006 684v-70h-392v-391h-69v391h-391v70h391v391h69v-391h392z" />
    <glyph glyph-name="comma" unicode="," horiz-adv-x="350" 
d="M-37 -260h-55l127 260h-27l39 162h98l-41 -162z" />
    <glyph glyph-name="hyphen" unicode="-" horiz-adv-x="575" 
d="M72 561l18 74h453l-21 -74h-450z" />
    <glyph glyph-name="period" unicode="." horiz-adv-x="350" 
d="M-4 0l39 162h100l-39 -162h-100z" />
    <glyph glyph-name="slash" unicode="/" horiz-adv-x="856" 
d="M-115 -182l1030 1708h86l-1030 -1708h-86z" />
    <glyph glyph-name="zero" unicode="0" horiz-adv-x="1085" 
d="M987 938q0 391 -268 391q-170 0 -292 -149.5t-183.5 -359.5t-61.5 -380q0 -391 267 -391q172 0 293.5 149.5t183 359.5t61.5 380zM1067 944q0 -195 -70.5 -421t-212 -386t-340.5 -160q-340 0 -340 459q0 195 71 422t211 386t337 159q344 0 344 -459z" />
    <glyph glyph-name="one" unicode="1" horiz-adv-x="1085" 
d="M401 0l293 1180h-2q-98 -96 -317 -97l16 68q150 0 233 52t134 177h65l-344 -1380h-78z" />
    <glyph glyph-name="two" unicode="2" horiz-adv-x="1085" 
d="M1069 1096q0 -130 -48 -214.5t-156.5 -162.5t-290.5 -163t-281.5 -159.5t-148 -149.5t-74.5 -175h792l-16 -72h-873q29 150 90.5 255t174 190t294.5 170t278.5 153t137.5 138t41 178t-70.5 176.5t-206.5 68.5t-237.5 -87t-150.5 -241h-84q55 188 182 295t294 107
t260 -88.5t93 -218.5z" />
    <glyph glyph-name="three" unicode="3" horiz-adv-x="1085" 
d="M1073 1090q0 -138 -88 -244.5t-258 -147.5v-2q205 -76 205 -293q0 -98 -59.5 -197.5t-173 -164t-282.5 -64.5t-266.5 82t-97.5 228q0 55 13 94h77q-10 -39 -10 -88q0 -117 76 -180.5t215 -63.5t234.5 53.5t145.5 135t50 165.5q0 129 -81 197t-230 68h-78l18 71h74
q145 0 244.5 51.5t146.5 129t47 157.5q0 117 -80.5 185.5t-224 68.5t-246 -85t-141.5 -242h-78q43 188 169 293.5t301 105.5t276.5 -87.5t101.5 -225.5z" />
    <glyph glyph-name="four" unicode="4" horiz-adv-x="1085" 
d="M680 475l201 811h-2l-762 -811h563zM737 403l-100 -403h-76l101 403h-648l21 86l835 891h111l-225 -905h264l-19 -72h-264z" />
    <glyph glyph-name="five" unicode="5" horiz-adv-x="1085" 
d="M584 819q-240 0 -369 -248l-74 4l279 805h698l-18 -71h-631l-193 -557h5q55 66 137 102.5t176 36.5q170 0 262 -99.5t92 -277.5q0 -121 -62.5 -246t-182 -208t-283.5 -83t-256 77t-92 214q0 39 12 88h78q-10 -35 -10 -80q0 -109 72.5 -167t205.5 -58t234.5 72
t152.5 178.5t51 208.5q0 147 -73.5 228t-210.5 81z" />
    <glyph glyph-name="six" unicode="6" horiz-adv-x="1085" 
d="M178 373q0 -158 74 -240t210 -82t231 71t144.5 173t49.5 197q0 154 -74 241.5t-206 87.5t-229 -68.5t-148.5 -173t-51.5 -206.5zM469 -23q-363 0 -363 305.5t79 545t227.5 407.5t347.5 168q164 0 250 -81t86 -224q0 -27 -2 -45h-80q2 14 2 30q0 246 -256 246
q-172 0 -319.5 -170t-227.5 -497h4q63 104 170 168.5t229 64.5q164 0 257.5 -107.5t93.5 -291.5q0 -113 -60.5 -234t-174.5 -203t-263 -82z" />
    <glyph glyph-name="seven" unicode="7" horiz-adv-x="1085" 
d="M1174 1307q-536 -581 -869 -1307h-92q201 422 415 734.5t453 574.5h-798l18 71h891z" />
    <glyph glyph-name="eight" unicode="8" horiz-adv-x="1085" 
d="M141 330q0 -129 85.5 -204t223.5 -75t231 53.5t140 135.5t47 161q0 125 -85 201t-221 76t-229 -52.5t-142.5 -132t-49.5 -163.5zM336 999q0 -115 75 -183t207 -68t218 49t128 124.5t42 153.5q0 117 -78 185.5t-203 68.5t-212 -50t-132 -127t-45 -153zM1085 1086
q0 -140 -90 -243.5t-252 -142.5v-2q94 -37 148.5 -114.5t54.5 -181.5t-58.5 -201t-170 -160.5t-277.5 -63.5t-271.5 95.5t-105.5 245.5t98.5 261t276.5 146v2q-84 37 -132 108t-48 167t56.5 188t162 152.5t257.5 60.5t251.5 -88.5t99.5 -228.5z" />
    <glyph glyph-name="nine" unicode="9" horiz-adv-x="1085" 
d="M991 1008q0 321 -291 321q-129 0 -224 -70.5t-144 -173t-49 -196.5q0 -154 74.5 -242t205.5 -88t228.5 68.5t148.5 173t51 207.5zM76 283q0 27 2 45h78q-2 -14 -2 -31q0 -119 64.5 -182.5t193.5 -63.5q172 0 319.5 170t224.5 498h-4q-61 -104 -167.5 -169t-231.5 -65
q-164 0 -256 107.5t-92 292.5q0 113 60.5 233.5t173.5 202.5t277 82t256.5 -102.5t92.5 -305t-79 -442.5t-227.5 -408t-346.5 -168q-164 0 -250 81t-86 225z" />
    <glyph glyph-name="colon" unicode=":" horiz-adv-x="350" 
d="M-2 0l39 162h100l-39 -162h-100zM215 879l39 161h100l-39 -161h-100z" />
    <glyph glyph-name="semicolon" unicode=";" horiz-adv-x="350" 
d="M-37 -260h-55l127 260h-27l39 162h98l-41 -162zM225 879l39 161h101l-39 -161h-101z" />
    <glyph glyph-name="less" unicode="&#x3c;" horiz-adv-x="1159" 
d="M225 651v-4l781 -344v-78l-852 377v94l852 377v-78z" />
    <glyph glyph-name="equal" unicode="=" horiz-adv-x="1159" 
d="M154 473v70h852v-70h-852zM154 754v69h852v-69h-852z" />
    <glyph glyph-name="greater" unicode="&#x3e;" horiz-adv-x="1159" 
d="M1006 602l-852 -377v78l780 344v4l-780 344v78l852 -377v-94z" />
    <glyph glyph-name="question" unicode="?" horiz-adv-x="989" 
d="M272 0l39 164h92l-38 -164h-93zM1053 1172q0 -132 -69 -229t-255 -222q-102 -70 -154.5 -121t-85 -117.5t-63.5 -185.5h-68q33 135 66 210t89 130t174 136t180.5 144.5t84 118t21.5 119.5q0 117 -77 185.5t-214 68.5t-241.5 -84t-149.5 -242h-78q55 193 180 295.5
t294 102.5t267.5 -88.5t98.5 -220.5z" />
    <glyph glyph-name="at" unicode="@" horiz-adv-x="1742" 
d="M563 455q0 -219 176 -219q113 0 206 97t145.5 233t52.5 232q0 194 -172 195q-117 0 -210 -90t-145.5 -217t-52.5 -231zM1106 340q0 -55 27.5 -79.5t83.5 -24.5q115 0 199.5 86t129.5 215t45 249q0 250 -151.5 393.5t-413.5 143.5t-447.5 -139.5t-281.5 -345t-96 -396.5
q0 -268 141 -415.5t400 -147.5t477 121l24 -57q-229 -131 -509 -131t-442.5 165.5t-162.5 462.5q0 207 106.5 429.5t309.5 372t475 149.5q201 0 345 -73t220 -208.5t76 -303.5t-54.5 -311t-159 -235t-241.5 -92q-82 0 -122 40t-40 111q0 18 9 68h-2q-134 -219 -332 -219
q-232 0 -232 281q0 125 61.5 269t171.5 243.5t236 99.5t181 -66.5t53 -175.5h2q31 84 94 221h72q-252 -554 -252 -700z" />
    <glyph glyph-name="A" unicode="A" horiz-adv-x="1327" 
d="M985 764q-18 113 -45 283l-55 344h-2l-529 -807h660zM307 512l-336 -512h-88l961 1458h104l236 -1458h-78l-82 512h-717z" />
    <glyph glyph-name="B" unicode="B" horiz-adv-x="1228" 
d="M578 70q143 0 241.5 56t145.5 141t47 171q0 129 -81 201t-249 72h-344l-162 -641h402zM686 780q164 0 270.5 56.5t153.5 139.5t47 167q0 246 -332 246h-319l-152 -609h332zM1235 1147q0 -84 -42 -167t-124 -147.5t-197 -89.5v-4q102 -23 161 -101t59 -190t-58.5 -213.5
t-174.5 -168t-279 -66.5h-496l362 1458h392q198 0 297.5 -83t99.5 -228z" />
    <glyph glyph-name="C" unicode="C" horiz-adv-x="1376" 
d="M1362 1026q0 -27 -4 -80h-80q4 53 4 76q0 174 -101.5 279.5t-299 105.5t-353 -132t-236.5 -333t-81 -412.5t110.5 -345t303 -133.5t340 110.5t213.5 291.5h82q-74 -215 -244 -345.5t-396 -130.5t-356.5 153t-130.5 390.5t90 455.5t264.5 361.5t413.5 143.5
q148 0 251 -58.5t156.5 -162t53.5 -234.5z" />
    <glyph glyph-name="D" unicode="D" 
d="M549 72q264 0 442 115.5t262 291.5t84 357q0 268 -145 409t-428 141h-260l-328 -1314h373zM1417 840q0 -203 -94 -395.5t-290.5 -318.5t-485.5 -126h-463l362 1458h320q319 0 485 -158.5t166 -459.5z" />
    <glyph glyph-name="E" unicode="E" horiz-adv-x="1222" 
d="M504 1386l-150 -602h754l-18 -71h-752l-162 -641h817l-16 -72h-893l362 1458h867l-19 -72h-790z" />
    <glyph glyph-name="F" unicode="F" horiz-adv-x="1130" 
d="M504 1386l-152 -606h731l-18 -71h-729l-176 -709h-76l362 1458h846l-18 -72h-770z" />
    <glyph glyph-name="G" unicode="G" horiz-adv-x="1454" 
d="M1397 1065q0 -23 -4 -64h-80q2 16 2 52q0 166 -100.5 260t-306 94t-368.5 -131t-246 -331t-83 -414.5t108.5 -347t306.5 -132.5t363.5 139.5t241.5 446.5h-461l18 72h535l-176 -709h-74l68 274h-2q-80 -137 -220.5 -217t-304.5 -80q-227 0 -354 154t-127 394.5t93 457.5
t274.5 357.5t416 140.5t357.5 -114t123 -302z" />
    <glyph glyph-name="H" unicode="H" horiz-adv-x="1468" 
d="M1051 0l180 721h-891l-180 -721h-76l362 1458h76l-166 -665h893l164 665h78l-363 -1458h-77z" />
    <glyph glyph-name="I" unicode="I" horiz-adv-x="501" 
d="M84 0l362 1458h76l-362 -1458h-76z" />
    <glyph glyph-name="J" unicode="J" horiz-adv-x="651" 
d="M-4 -8q-55 0 -94 14l18 70q37 -10 76 -10q267 0 340 309l270 1083h78l-276 -1104q-43 -178 -150.5 -270t-261.5 -92z" />
    <glyph glyph-name="K" unicode="K" horiz-adv-x="1161" 
d="M1022 0h-98l-576 748h-2l-186 -748h-76l362 1458h76l-168 -670h4l842 670h119l-883 -698z" />
    <glyph glyph-name="L" unicode="L" horiz-adv-x="1101" 
d="M975 72l-17 -72h-874l362 1458h76l-346 -1386h799z" />
    <glyph glyph-name="M" unicode="M" horiz-adv-x="1794" 
d="M1376 0l191 772q63 250 149 600h-2l-899 -1372h-94l-121 760q-23 152 -84 538l-12 74h-2l-342 -1372h-76l362 1458h119l215 -1374h4q244 373 379 578l520 796h132l-363 -1458h-76z" />
    <glyph glyph-name="N" unicode="N" horiz-adv-x="1495" 
d="M1042 0l-258 668q-166 424 -278 714h-2l-344 -1382h-76l362 1458h111l258 -667q166 -424 279 -715h2q94 379 120 479t70 285l154 618h78l-363 -1458h-113z" />
    <glyph glyph-name="O" unicode="O" 
d="M215 545q0 -213 119 -353.5t330 -140.5t365.5 128t236.5 324.5t82 409.5t-120 353.5t-331 140.5t-364.5 -129t-235.5 -324.5t-82 -408.5zM1425 875.5q0 -193.5 -91 -406.5t-264 -352.5t-404 -139.5q-166 0 -285 74t-181.5 206t-62.5 325.5t91 406.5t263.5 352.5
t403.5 139.5q166 0 285.5 -74t182 -206t62.5 -325.5z" />
    <glyph glyph-name="P" unicode="P" horiz-adv-x="1206" 
d="M770 723q141 0 238.5 57.5t143.5 142.5t46 171q0 139 -85 215.5t-259 76.5h-350l-166 -663h432zM1276 1096q0 -106 -56.5 -209t-171 -169.5t-280.5 -66.5h-446l-162 -651h-76l362 1458h412q209 0 313.5 -96t104.5 -266z" />
    <glyph glyph-name="Q" unicode="Q" horiz-adv-x="1456" 
d="M1348 914q0 212 -120 352.5t-331 140.5t-364.5 -129t-235.5 -324.5t-82 -408.5t119 -353.5t334 -140.5q172 0 317 96l-149 224l61 43l147 -221q143 123 223.5 316t80.5 405zM679 -23q-181 0 -300 73t-180.5 204.5t-61.5 325.5t91 407t264.5 353.5t406.5 140.5
q164 0 282.5 -73t181 -204.5t62.5 -323.5t-90 -404t-250 -345l127 -188l-63 -43l-125 186q-164 -109 -345 -109z" />
    <glyph glyph-name="R" unicode="R" horiz-adv-x="1243" 
d="M1157 1118q0 268 -330 268h-323l-160 -638h352q158 0 261.5 58t151.5 143t48 169zM1237 1126q0 -92 -47 -182t-136 -154.5t-212 -84.5v-3q70 -25 104.5 -83t50.5 -189l54 -430h-76l-49 420q-10 98 -36 152.5t-77 79t-141 24.5h-344l-168 -676h-76l362 1458h385
q205 0 305.5 -86t100.5 -246z" />
    <glyph glyph-name="S" unicode="S" horiz-adv-x="1200" 
d="M1186 1130q0 -68 -17 -131h-75q16 76 16 125q0 285 -348 285q-135 0 -227.5 -51t-137.5 -129t-45 -156q0 -115 74 -176t222 -109t224 -91q164 -90 164 -287q0 -106 -60.5 -206t-180 -163.5t-311 -63.5t-300 92.5t-108.5 274.5q0 72 16 143h78q-18 -80 -18 -139
q0 -299 356 -299q154 0 255 54.5t148 136.5t47 167t-37.5 139t-105 89t-189.5 77t-197 84q-155 87 -155 273q0 96 56.5 191.5t168 158t267.5 62.5q420 -1 420 -351z" />
    <glyph glyph-name="T" unicode="T" horiz-adv-x="1185" 
d="M846 1386l-344 -1386h-76l344 1386h-539l17 72h1155l-19 -72h-538z" />
    <glyph glyph-name="U" unicode="U" horiz-adv-x="1400" 
d="M610 -23q-424 0 -424 404q0 92 31 209l217 868h76l-221 -889q-27 -100 -27 -186q0 -332 342 -332q193 0 325 111.5t187 333.5l242 962h76l-246 -983q-64 -246 -214.5 -372t-363.5 -126z" />
    <glyph glyph-name="V" unicode="V" horiz-adv-x="1249" 
d="M442 0l-192 1458h76l182 -1382h2l870 1382h88l-919 -1458h-107z" />
    <glyph glyph-name="W" unicode="W" horiz-adv-x="1794" 
d="M1135 0l-11 684q-8 467 -10 700h-4l-707 -1384h-120l-25 1458h74l24 -1384h4l365 721l340 663h123l8 -663q8 -477 10 -721h4l711 1384h84l-750 -1458h-120z" />
    <glyph glyph-name="X" unicode="X" horiz-adv-x="1236" 
d="M1085 0h-84l-331 690h-2l-668 -690h-106l733 754l-340 704h84l311 -647h4l627 647h104l-690 -710z" />
    <glyph glyph-name="Y" unicode="Y" horiz-adv-x="1198" 
d="M508 0h-76l158 639l-344 819h82l309 -741h2l379 411l299 330h102l-751 -819z" />
    <glyph glyph-name="Z" unicode="Z" horiz-adv-x="1128" 
d="M16 72h967l-18 -72h-1059l22 92l1248 1290v4h-912l17 72h1003l-22 -92l-1246 -1290v-4z" />
    <glyph glyph-name="bracketleft" unicode="[" horiz-adv-x="528" 
d="M469 1454l-422 -1694h250l-14 -63h-324l453 1821h323l-16 -64h-250z" />
    <glyph glyph-name="backslash" unicode="\" horiz-adv-x="851" 
d="M571 -182h-73l-187 1708h74z" />
    <glyph glyph-name="bracketright" unicode="]" horiz-adv-x="528" 
d="M100 -240l424 1694h-250l15 64h323l-452 -1821h-324l14 63h250z" />
    <glyph glyph-name="asciicircum" unicode="^" horiz-adv-x="823" 
d="M721 760l-307 635h-4l-308 -635h-73l340 698h86l340 -698h-74z" />
    <glyph glyph-name="underscore" unicode="_" horiz-adv-x="1024" 
d="M-168 -156l12 54h1024l-12 -54h-1024z" />
    <glyph glyph-name="grave" unicode="`" horiz-adv-x="495" 
d="M555 1174h-68l-149 284h92z" />
    <glyph glyph-name="a" unicode="a" horiz-adv-x="1040" 
d="M98 248q0 -96 64.5 -149.5t177.5 -53.5q162 0 278.5 100.5t161.5 280.5l33 131q-212 -16 -362 -41q-199 -29 -276 -100.5t-77 -167.5zM852 764q0 233 -264 233q-127 0 -216 -73.5t-116 -196.5h-78q33 152 145.5 244t269.5 92t243 -75t86 -224q0 -53 -19 -137l-98 -389
q-35 -137 -39 -238h-72q2 66 33 190h-2q-139 -211 -397 -210q-143 0 -225.5 70.5t-82.5 192.5t96.5 213t301 122t411.5 45l7 24q16 70 16 117z" />
    <glyph glyph-name="b" unicode="b" horiz-adv-x="1134" 
d="M238 368q0 -148 70.5 -235.5t209.5 -87.5t244.5 95.5t160 238.5t54.5 293t-71.5 237.5t-209.5 87.5t-244 -97t-160 -240.5t-54 -291.5zM711 1063q164 0 254 -104.5t90 -274.5t-63.5 -330.5t-186.5 -267t-275 -106.5t-236.5 78.5t-98.5 213.5h-2l-68 -272h-74l365 1458h73
l-153 -608h4q68 100 165 156.5t206 56.5z" />
    <glyph glyph-name="c" unicode="c" horiz-adv-x="1034" 
d="M983 715q0 -25 -2 -39h-76q2 14 2 37q0 131 -71.5 206.5t-208.5 75.5t-246 -96t-165 -239.5t-56 -291t75.5 -235.5t209 -88t237.5 81t149 208h80q-55 -160 -181 -258.5t-292 -98.5t-260 104.5t-94 277t64.5 332t191.5 266t294 106.5t258 -94.5t91 -253.5z" />
    <glyph glyph-name="d" unicode="d" horiz-adv-x="1130" 
d="M156 368q0 -150 71.5 -237.5t209.5 -87.5t243.5 97.5t160 240.5t54.5 291t-70.5 235.5t-210.5 87.5t-245 -95t-159 -238.5t-54 -293.5zM422 -23q-164 0 -253 103.5t-89 275.5t63.5 332t185.5 266.5t274 106.5t236.5 -79t98.5 -214h2l174 690h74l-365 -1458h-73l47 190h-4
q-68 -100 -164.5 -156.5t-206.5 -56.5z" />
    <glyph glyph-name="e" unicode="e" horiz-adv-x="1077" 
d="M938 692q0 147 -76 226t-225.5 79t-274 -113.5t-178.5 -303.5h742q12 57 12 112zM154 369q0 -158 77.5 -242t214 -84t242 72.5t152.5 191.5h78q-55 -145 -181.5 -237.5t-297.5 -92.5t-264 103.5t-93 276t66.5 333t196.5 267t303 106.5t266.5 -97.5t93.5 -275.5
q0 -76 -29 -176h-809q-16 -71 -16 -145z" />
    <glyph glyph-name="f" unicode="f" horiz-adv-x="548" 
d="M678 1399q-82 0 -134 -50.5t-79 -158.5l-37 -150h215l-16 -65h-215l-244 -975h-74l244 975h-195l17 65h194l41 168q63 256 281 256q47 0 74 -8l-17 -65q-29 8 -55 8z" />
    <glyph glyph-name="g" unicode="g" horiz-adv-x="1134" 
d="M164 395.5q0 -143.5 68.5 -230.5t207.5 -87t246 95t161 233.5t54 279t-71.5 226t-210 85.5t-243 -92t-158.5 -229t-54 -280.5zM59 -125q-1 -199 295 -199q152 0 258.5 96.5t155.5 293.5l39 163h-2q-72 -104 -171 -160.5t-212 -56.5q-162 0 -248 103.5t-86 271.5
t64.5 320.5t187.5 254.5q122 102 272 101q292 0 330 -289h2l66 266h73l-249 -1001q-53 -211 -179.5 -319.5t-306.5 -108.5t-271 68.5t-91 193.5q0 31 6 61h74q-6 -31 -7 -59z" />
    <glyph glyph-name="h" unicode="h" horiz-adv-x="1124" 
d="M727 1061q123 0 200 -75t77 -216q0 -66 -23 -162l-152 -608h-73l151 614q23 90 23 152q0 113 -60.5 171t-161 58t-185.5 -44t-149.5 -126t-90.5 -188l-158 -637h-74l363 1458h73l-147 -594h2q143 197 385 197z" />
    <glyph glyph-name="i" unicode="i" horiz-adv-x="432" 
d="M51 0l258 1040h74l-258 -1040h-74zM373 1292l41 166h73l-41 -166h-73z" />
    <glyph glyph-name="j" unicode="j" horiz-adv-x="450" 
d="M-182 -385q-29 0 -66 8l15 68q23 -6 47 -6q90 0 146 52t89 183l279 1120h73l-284 -1138q-39 -154 -114 -220.5t-185 -66.5zM391 1292l41 166h74l-41 -166h-74z" />
    <glyph glyph-name="k" unicode="k" horiz-adv-x="935" 
d="M817 0h-94l-459 553h-4l-135 -553h-74l363 1458h73l-215 -864h2l625 446h117l-668 -479z" />
    <glyph glyph-name="l" unicode="l" horiz-adv-x="432" 
d="M51 0l363 1458h73l-362 -1458h-74z" />
    <glyph glyph-name="m" unicode="m" horiz-adv-x="1691" 
d="M934 829q142 232 379 232q121 0 190.5 -68.5t69.5 -206.5q0 -74 -25 -170l-153 -616h-74l158 629q23 96 22 157q0 209 -209 209q-127 0 -230.5 -95t-141.5 -251l-160 -649h-74l164 662q16 66 16 116q0 102 -53 159.5t-168 57.5t-220.5 -102t-148.5 -275l-153 -618h-74
l260 1040h74l-43 -166h4q130 187 334 187q105 0 174.5 -60.5t81.5 -171.5z" />
    <glyph glyph-name="n" unicode="n" horiz-adv-x="1124" 
d="M342 864q141 197 383 197q123 0 201 -74t78 -217q0 -70 -25 -162l-152 -608h-73l153 614q20 82 21 152q0 229 -232 229q-90 0 -175 -44t-148.5 -125t-89.5 -189l-160 -637h-74l260 1040h74l-45 -176h4z" />
    <glyph glyph-name="o" unicode="o" horiz-adv-x="1103" 
d="M160 377.5q0 -150.5 79.5 -241.5t229 -91t256 93t161 232.5t54.5 291t-81 242.5t-229.5 91t-255 -93t-160.5 -233.5t-54 -291zM1016 643q0 -152 -64.5 -306.5t-189.5 -257t-301 -102.5t-275.5 110t-99.5 286t63.5 330.5t187.5 257t301 102.5t277.5 -110.5t100.5 -309.5z
" />
    <glyph glyph-name="p" unicode="p" horiz-adv-x="1134" 
d="M238 368q0 -148 70.5 -235.5t209.5 -87.5t244.5 95.5t160 238.5t54.5 293t-71.5 237.5t-209.5 87.5t-244 -97t-160 -240.5t-54 -291.5zM1055 684q0 -170 -63.5 -330.5t-186.5 -267t-275 -106.5t-236.5 78.5t-98.5 213.5h-2l-162 -651h-74l354 1419h74l-49 -190h4
q68 100 165 156.5t206 56.5q163 0 253.5 -104.5t90.5 -274.5z" />
    <glyph glyph-name="q" unicode="q" horiz-adv-x="1130" 
d="M158 370q0 -150 71.5 -237.5t208.5 -87.5t243.5 97.5t161 240.5t54.5 292t-70.5 235.5t-210.5 86.5t-245 -95t-159 -238.5t-54 -293.5zM424 -20q-164 0 -254 103t-90 275t63.5 332t186 266.5t274.5 106.5t236 -80t98 -215h2l70 272h73l-354 -1419h-74l142 569h-4
q-68 -100 -163 -155t-206 -55z" />
    <glyph glyph-name="r" unicode="r" horiz-adv-x="677" 
d="M705 973q-158 0 -274 -101.5t-163 -293.5l-143 -578h-74l258 1040h74l-49 -194h2q150 201 385 201q34 -1 61 -7l-18 -71q-33 4 -59 4z" />
    <glyph glyph-name="s" unicode="s" horiz-adv-x="944" 
d="M109 256q-1 -211 287 -211q146 0 232.5 68.5t86.5 176.5q0 110 -113 162q-55 26 -152.5 55.5t-151.5 56t-86 74.5t-32 126t43 146.5t127 110.5t222.5 42t223.5 -67.5t85 -192.5q0 -55 -13 -96h-73q12 47 12 90q0 96 -66.5 147t-197.5 51t-210 -63.5t-79 -164.5t94 -145
q45 -22 142 -51t160 -59.5t100.5 -82.5t37.5 -136t-46 -155.5t-138 -116t-240.5 -44.5t-239.5 72t-91 203q0 53 14 102h74q-12 -51 -12 -98z" />
    <glyph glyph-name="t" unicode="t" horiz-adv-x="581" 
d="M215 166q0 -103 119 -103q37 0 74 9l-19 -70q-27 -6 -67 -6q-92 0 -136.5 39t-44.5 106.5t17 126.5l178 707h-197l17 65h196l60 240h73l-59 -240h211l-16 -65h-211l-181 -719q-14 -51 -14 -90z" />
    <glyph glyph-name="u" unicode="u" horiz-adv-x="1124" 
d="M782 176q-142 -196 -385 -196q-123 0 -199.5 74.5t-76.5 215.5q0 70 24 162l152 608h74l-154 -614q-20 -82 -20 -152q0 -115 59 -172t159.5 -57t186.5 44t149.5 125t90.5 189l159 637h74l-260 -1040h-74l43 176h-2z" />
    <glyph glyph-name="v" unicode="v" horiz-adv-x="897" 
d="M268 0l-141 1040h74l121 -913q4 -20 8 -53h2l612 966h86l-661 -1040h-101z" />
    <glyph glyph-name="w" unicode="w" horiz-adv-x="1527" 
d="M944 0l-65 971h-5l-83 -148q-74 -135 -179 -315l-286 -508h-109l-70 1040h74l62 -968h4q68 119 138.5 245.5t135.5 239.5l270 483h115l62 -968h4q59 102 178 315l366 653h82l-585 -1040h-109z" />
    <glyph glyph-name="x" unicode="x" horiz-adv-x="925" 
d="M793 0h-84l-246 487h-4l-482 -487h-102l547 547l-252 493h82l221 -446h4l434 446h103l-498 -501z" />
    <glyph glyph-name="y" unicode="y" horiz-adv-x="905" 
d="M-96.5 -387q-69.5 0 -104.5 14l17 66q35 -12 91 -12t110.5 25.5t113.5 93t148 200.5l-152 1040h74l135 -944h4l610 944h86l-694 -1071q-94 -145 -163.5 -221t-137.5 -105.5t-137.5 -29.5z" />
    <glyph glyph-name="z" unicode="z" horiz-adv-x="921" 
d="M29 68h735l-16 -68h-832l21 82l937 887v4h-694l17 67h790l-20 -82l-938 -886v-4z" />
    <glyph glyph-name="braceleft" unicode="{" horiz-adv-x="571" 
d="M266 454q0 -54 -14 -110l-82 -326q-14 -56 -14 -122q0 -140 180 -140l-12 -59h-15q-115 0 -171 51t-56 160q0 45 20 127l80 319q28 126 -2 167.5t-82 64.5l17 67q84 25 126 68t64 131l96 385q37 145 120 213t218 68h37l-14 -60q-123 0 -191.5 -53t-99.5 -176l-96 -389
q-23 -94 -71 -145.5t-140 -78.5l-2 -4q104 -51 104 -158z" />
    <glyph glyph-name="bar" unicode="|" horiz-adv-x="507" 
d="M219 -420v1919h70v-1919h-70z" />
    <glyph glyph-name="braceright" unicode="}" horiz-adv-x="571" 
d="M348 761q0 54 14 109l82 326q41 167 -15 214.5t-150 47.5l12 60h14q115 0 171 -51.5t56 -159.5q0 -45 -20 -127l-80 -320q-12 -51 -12 -99q0 -91 96 -132l-16 -68q-84 -25 -126 -67.5t-65 -131.5l-96 -385q-37 -145 -120 -212.5t-218 -67.5h-37l15 59q122 0 191 53.5
t99 176.5l97 389q23 94 70.5 145t140.5 78l2 4q-105 52 -105 159z" />
    <glyph glyph-name="asciitilde" unicode="~" horiz-adv-x="1169" 
d="M872 551q82 0 153 65.5t99 176.5h64q-37 -147 -125.5 -230.5t-190.5 -83.5t-157.5 36t-117.5 104t-108.5 98.5t-126.5 30.5t-152.5 -67t-98.5 -175h-62q33 147 122 229t191 82t157 -36.5t117 -102.5t108 -96.5t128 -30.5z" />
    <glyph glyph-name="uni00A0" unicode="&#xa0;" horiz-adv-x="471" 
 />
    <glyph glyph-name="exclamdown" unicode="&#xa1;" horiz-adv-x="458" 
d="M311 735l-268 -1153h-96l307 1153h57zM403 1040l-38 -163h-93l39 163h92z" />
    <glyph glyph-name="cent" unicode="&#xa2;" horiz-adv-x="1064" 
d="M211 538q0 -140 61.5 -225.5t173.5 -101.5l236 948q-145 -2 -251.5 -98t-163 -239.5t-56.5 -283.5zM961 874q0 113 -55.5 187t-153.5 92l-238 -946q125 4 225.5 86t143.5 205h80q-55 -162 -180.5 -260.5t-284.5 -98.5l-45 -180h-70l47 184q-141 20 -218 123t-77 266
t64.5 322.5t191.5 266t301 106.5h8l43 176h70l-45 -182q127 -20 196.5 -111.5t69.5 -230.5q0 -25 -2 -39h-74q3 11 3 34z" />
    <glyph glyph-name="sterling" unicode="&#xa3;" horiz-adv-x="1064" 
d="M1034 1106q0 225 -238 225q-120 0 -207 -78.5t-124 -228.5l-80 -322h270l-18 -67h-268l-70 -281q-53 -211 -186 -282v-2h749l-16 -70h-926l17 70q104 0 178.5 72.5t109.5 215.5l70 277h-217l16 67h217l84 338q45 176 151 269.5t256 93.5t228 -76t78 -215q0 -49 -12 -111
h-74q12 59 12 105z" />
    <glyph glyph-name="currency" unicode="&#xa4;" horiz-adv-x="1064" 
d="M872 596q0 164 -93 262t-248 98t-246.5 -98t-91.5 -262t92.5 -262t246.5 -98t247 98t93 262zM530 164q-158 0 -264 88l-160 -170l-55 51l162 170q-96 119 -96 293t96 293l-162 170l55 51l160 -170q106 88 264 88t269 -88l157 170l56 -51l-162 -170q96 -115 96 -293
t-96 -293l162 -170l-56 -51l-157 170q-111 -88 -269 -88z" />
    <glyph glyph-name="yen" unicode="&#xa5;" horiz-adv-x="1064" 
d="M1001 729l-18 -70h-379l-39 -159h379l-16 -70h-381l-107 -430h-75l106 430h-379l17 70h380l39 159h-381l19 70h334l-273 651h82l99 -235q94 -233 167 -408h3l589 643h101l-600 -651h333z" />
    <glyph glyph-name="brokenbar" unicode="&#xa6;" horiz-adv-x="507" 
d="M219 -420v717h70v-717h-70zM219 782v717h70v-717h-70z" />
    <glyph glyph-name="section" unicode="&#xa7;" horiz-adv-x="1050" 
d="M248 676q0 -76 47 -136.5t157 -137.5t171 -126q106 55 167.5 133t61.5 156t-48 139.5t-175 149.5q-82 53 -156 111q-225 -133 -225 -289zM121 -31q1 -194 221 -194q108 0 176 41t100.5 104.5t32.5 124.5t-23.5 104.5t-67.5 81t-160 120.5t-169 151.5t-53 163t61.5 186.5
t186.5 156v4q-61 65 -61 148t40.5 154.5t119.5 119t188 47.5q284 0 284 -252q0 -33 -6 -74h-73q6 37 6 70q0 188 -213 188q-86 0 -147.5 -36t-92.5 -91t-31 -107t21.5 -89t62.5 -69.5t164 -118.5t179.5 -160t56.5 -170t-63.5 -186.5t-194.5 -154.5v-4q63 -70 63 -163
t-44 -172.5t-130 -132t-207 -52.5q-301 0 -301 256q0 43 12 94h74q-12 -51 -12 -88z" />
    <glyph glyph-name="dieresis" unicode="&#xa8;" horiz-adv-x="655" 
d="M672 1292l41 166h73l-41 -166h-73zM297 1292l41 166h74l-41 -166h-74z" />
    <glyph glyph-name="copyright" unicode="&#xa9;" horiz-adv-x="1677" 
d="M840 1174q-160 0 -252 -120t-92 -326t91 -324.5t233 -118.5t226 76.5t99 199.5h78q-16 -158 -121 -254t-283 -96t-290.5 139t-112.5 379t114 379t296 139t281 -97t110 -247h-78q-10 119 -90 195t-209 76zM166 729q0 -205 84 -362.5t235.5 -243.5t352 -86t353 86
t236.5 243.5t84 362.5t-84 362.5t-236.5 243.5t-353 86t-352 -86t-235.5 -243.5t-84 -362.5zM1569 729q0 -221 -91.5 -391t-257 -264t-381.5 -94t-382 94t-257 264t-91 391t91 391t257 264.5t382 94.5t381.5 -94.5t257 -264.5t91.5 -391z" />
    <glyph glyph-name="ordfeminine" unicode="&#xaa;" horiz-adv-x="755" 
d="M215 856q1 -134 185 -135q96 1 178 67t112 187l21 82q-361 -24 -443 -92q-54 -45 -53 -109zM739 1208q0 154 -180 154q-93 0 -155 -48t-80 -128h-70q25 104 106 170q82 66 198 66q241 -1 243 -214q0 -41 -13 -94l-65 -266q-29 -119 -29 -172h-65q2 47 20 117h-2
q-98 -131 -276 -131q-104 0 -165 50q-60 50 -61 134q0 199 310 241q125 18 268 27q16 64 16 94z" />
    <glyph glyph-name="guillemotleft" unicode="&#xab;" horiz-adv-x="800" 
d="M592 111h-74l-135 413l330 406h84l-336 -416zM317 111h-73l-135 413l329 406h84l-336 -416z" />
    <glyph glyph-name="logicalnot" unicode="&#xac;" horiz-adv-x="1159" 
d="M936 311v525h-782v69h852v-594h-70z" />
    <glyph glyph-name="uni00AD" unicode="&#xad;" horiz-adv-x="575" 
d="M72 561l18 74h453l-21 -74h-450z" />
    <glyph glyph-name="registered" unicode="&#xae;" horiz-adv-x="1187" 
d="M557 989h135q80 0 120 36t40 94q0 124 -160 124h-135v-254zM915 1132q0 -74 -33.5 -117.5t-90.5 -53.5v-5q33 -8 53 -31.5t41 -78.5l69 -201h-67l-62 182q-18 57 -47.5 81t-85.5 24h-135v-287h-61v655h204q107 0 161 -47t54 -121zM252 966q0 -138 56.5 -245t158.5 -165
t237.5 -58t237.5 58t158.5 165t56.5 245t-56.5 244.5t-158.5 165t-237.5 58.5t-237.5 -58.5t-158.5 -165t-56.5 -244.5zM1206 966q0 -152 -62.5 -269t-177 -181.5t-262.5 -64.5t-262 64.5t-176.5 181t-62.5 269.5t62.5 269.5t176.5 181t262 64.5t261.5 -64.5t177 -181.5
t63.5 -269z" />
    <glyph glyph-name="macron" unicode="&#xaf;" horiz-adv-x="702" 
d="M299 1305l16 65h496l-16 -65h-496z" />
    <glyph glyph-name="degree" unicode="&#xb0;" horiz-adv-x="610" 
d="M334 1263q0 -64 45 -110.5t108.5 -46.5t110.5 46t47 111t-46.5 110.5t-110.5 45.5t-109 -46t-45 -110zM705 1261.5q0 -90.5 -63.5 -152.5t-153.5 -62t-153 63.5t-63 152.5t63 152.5t153 63.5t153.5 -63.5t63.5 -154z" />
    <glyph glyph-name="plusminus" unicode="&#xb1;" horiz-adv-x="1159" 
d="M154 0v70h852v-70h-852zM1006 692v-69h-392v-390h-69v390h-391v69h391v393h69v-393h392z" />
    <glyph glyph-name="twosuperior" unicode="&#xb2;" horiz-adv-x="794" 
d="M913 1422q0 -110 -80.5 -191.5t-268.5 -169.5t-260.5 -157.5t-96.5 -164.5h565l-16 -63h-635q20 106 64 181t124 135.5t210 120.5t196.5 104.5t95.5 91.5t29 119t-48.5 118.5t-143.5 46.5t-164.5 -58t-100.5 -161h-76q39 135 130 210t214 75t192.5 -63.5t69.5 -173.5z
" />
    <glyph glyph-name="threesuperior" unicode="&#xb3;" horiz-adv-x="786" 
d="M903 1438q0 -98 -61.5 -171t-182.5 -104v-2q145 -55 146 -203q0 -70 -42 -138t-124 -114.5t-206 -46.5t-195.5 58.5t-71.5 163.5q0 37 10 67h70q-6 -33 -6 -59q0 -80 52 -123t148 -43t162 35t99.5 88.5t33.5 125.5t-56 118.5t-163 46.5h-53l16 63h49q102 0 172 34t103 86
t33 118t-56.5 110.5t-155.5 44.5t-170 -55t-98 -164h-69q31 133 122 209t219 76t201.5 -61.5t73.5 -159.5z" />
    <glyph glyph-name="acute" unicode="&#xb4;" horiz-adv-x="493" 
d="M266 1174l254 284h105l-279 -284h-80z" />
    <glyph glyph-name="mu" unicode="&#xb5;" horiz-adv-x="1138" 
d="M864 135q0 -45 16 -60t50 -15q33 0 57 8l-16 -68q-25 -8 -60 -8q-117 0 -116 117q0 31 10 81h-4q-61 -96 -159 -152t-209 -56q-113 0 -181 51t-84 149l-139 -561h-74l354 1419h74l-154 -610q-23 -94 -22 -154q0 -227 239 -227q86 0 168 43t145 125q62 82 91 195l156 628
h73l-196 -794q-19 -66 -19 -111z" />
    <glyph glyph-name="paragraph" unicode="&#xb6;" horiz-adv-x="1067" 
d="M223 1030q0 100 48 199.5t139.5 164t218.5 64.5h628l-14 -59h-164l-409 -1645h-62l410 1645h-187l-409 -1645h-62l228 912q-365 21 -365 364z" />
    <glyph glyph-name="periodcentered" unicode="&#xb7;" horiz-adv-x="350" 
d="M131 545l39 162h100l-39 -162h-100z" />
    <glyph glyph-name="cedilla" unicode="&#xb8;" horiz-adv-x="587" 
d="M221 -262q0 86 -100 86q-37 0 -68 -10l-24 26l147 160h70l-125 -135q17 4 35 4q61 0 96 -33.5t35 -101.5t-61.5 -117t-162.5 -49t-184 51l27 45q63 -41 146 -41t126 31t43 84z" />
    <glyph glyph-name="onesuperior" unicode="&#xb9;" horiz-adv-x="468" 
d="M274 676l205 817h-4q-62 -70 -227 -70l14 58q109 0 169.5 36.5t96.5 124.5h58l-242 -966h-70z" />
    <glyph glyph-name="ordmasculine" unicode="&#xba;" horiz-adv-x="798" 
d="M258 945q0 -102 55 -164t159 -62t179 62q74 63 111 157t37 196q1 102 -55 164q-56 61 -162 61t-178 -62q-74 -62 -110 -156t-36 -196zM465 659q-129 0 -202 79q-73 78 -73 202t46 232q45 108 134 179t218 71t204 -80q74 -78 74 -202t-46 -232t-136 -178t-219 -71z" />
    <glyph glyph-name="guillemotright" unicode="&#xbb;" horiz-adv-x="800" 
d="M483 930h74l135 -414l-330 -405h-83l335 415zM211 930h72l135 -414l-328 -405h-84l336 415z" />
    <glyph glyph-name="onequarter" unicode="&#xbc;" horiz-adv-x="1284" 
d="M211 553l170 680h-4q-61 -49 -193 -49l15 59q94 0 146 31t83 106h57l-204 -827h-70zM-33 0l1151 1380h82l-1151 -1380h-82zM987 295l111 446h-4q-68 -72 -209 -219l-219 -227h321zM1038 231l-57 -231h-68l58 231h-398l19 76l498 520h98l-133 -532h155l-16 -64h-156z" />
    <glyph glyph-name="onehalf" unicode="&#xbd;" horiz-adv-x="1353" 
d="M211 553l170 680h-4q-61 -49 -193 -49l15 59q94 0 146 31t83 106h57l-204 -827h-70zM-33 0l1151 1380h82l-1151 -1380h-82zM1292 638q0 -95 -70 -166t-228 -147t-218 -130q-59 -55 -80 -129h480l-17 -66h-549q23 137 98 218q76 81 238 158t217 130t55 125q1 145 -153 145
q-80 0 -139 -49t-82 -131h-76q33 120 112 184q80 64 186 64t166 -56q60 -55 60 -150z" />
    <glyph glyph-name="threequarters" unicode="&#xbe;" horiz-adv-x="1554" 
d="M672 795q0 -59 -36 -119t-106 -98q-70 -39 -177 -39t-171 51q-63 51 -63 141q0 31 8 57h72q-6 -25 -6 -51q0 -133 172 -133q111 0 174 58t63 132q0 146 -184 146h-43l16 66h41q125 0 191 58q65 58 65 126t-46 104q-46 37 -128 37q-179 0 -221 -182h-72q27 119 106 183
t191 64t176 -53t64 -137q1 -176 -203 -233v-4q117 -49 117 -174zM236 0l1150 1380h82l-1151 -1380h-81zM1255 295l111 446h-4q-68 -72 -209 -219l-219 -227h321zM1307 231l-58 -231h-67l57 231h-397l18 76l498 520h98l-133 -532h156l-17 -64h-155z" />
    <glyph glyph-name="questiondown" unicode="&#xbf;" horiz-adv-x="915" 
d="M-66 -133q0 131 69 229.5t257 222.5q102 70 154.5 121.5t85 118t63.5 184.5h68q-33 -135 -66 -209.5t-89 -130t-174 -136.5t-180.5 -144.5t-85 -117.5t-22.5 -120q0 -115 78 -184.5t215 -69.5t241.5 84t149.5 242h78q-55 -193 -180 -295t-295 -102t-268.5 88t-98.5 219z
M717 1040l-39 -163h-94l41 163h92z" />
    <glyph glyph-name="Agrave" unicode="&#xc0;" horiz-adv-x="1327" 
d="M985 764q-18 113 -45 283l-55 344h-2l-529 -807h660zM307 512l-336 -512h-88l961 1458h104l236 -1458h-78l-82 512h-717zM967 1556l-168 267h96l141 -267h-69z" />
    <glyph glyph-name="Aacute" unicode="&#xc1;" horiz-adv-x="1327" 
d="M985 764q-18 113 -45 283l-55 344h-2l-529 -807h660zM307 512l-336 -512h-88l961 1458h104l236 -1458h-78l-82 512h-717zM807 1556l264 267h107l-289 -267h-82z" />
    <glyph glyph-name="Acircumflex" unicode="&#xc2;" horiz-adv-x="1327" 
d="M985 764q-18 113 -45 283l-55 344h-2l-529 -807h660zM307 512l-336 -512h-88l961 1458h104l236 -1458h-78l-82 512h-717zM1030 1823l172 -267h-78l-139 213l-248 -213h-96l307 267h82z" />
    <glyph glyph-name="Atilde" unicode="&#xc3;" horiz-adv-x="1327" 
d="M985 764q-18 113 -45 283l-55 344h-2l-529 -807h660zM307 512l-336 -512h-88l961 1458h104l236 -1458h-78l-82 512h-717zM1102 1679q89 0 133 123h65q-28 -90 -81.5 -139t-108.5 -49t-87 16.5t-79 48.5q-37 29 -63.5 43.5t-59.5 14.5q-91 0 -131 -123h-65q27 90 80 139
t108 49t87 -16.5t79 -48.5q37 -29 63.5 -43.5t59.5 -14.5z" />
    <glyph glyph-name="Adieresis" unicode="&#xc4;" horiz-adv-x="1327" 
d="M985 764q-18 113 -45 283l-55 344h-2l-529 -807h660zM307 512l-336 -512h-88l961 1458h104l236 -1458h-78l-82 512h-717zM1081 1595l43 166h74l-43 -166h-74zM707 1595l43 166h73l-43 -166h-73z" />
    <glyph glyph-name="Aring" unicode="&#xc5;" horiz-adv-x="1327" 
d="M985 764q-18 113 -45 283l-55 344h-2l-529 -807h660zM307 512l-336 -512h-88l961 1458h104l236 -1458h-78l-82 512h-717zM815 1741q0 -55 39 -93t93 -38t92 38t38 93t-38 93t-92 38t-93 -38t-39 -93zM1130 1741q0 -76 -53 -130.5t-130 -54.5t-131 54.5t-54 130.5t54 130
t130 54t130 -54t54 -130z" />
    <glyph glyph-name="AE" unicode="&#xc6;" horiz-adv-x="1869" 
d="M1020 1386l-590 -765h557l70 765h-37zM1073 784h682l-18 -71h-670l-59 -641h632l-18 -72h-694l51 549h-604l-424 -549h-92l1122 1458h977l-19 -72h-809z" />
    <glyph glyph-name="Ccedilla" unicode="&#xc7;" horiz-adv-x="1376" 
d="M653 -262q0 86 -100 86q-37 0 -68 -10l-24 26l127 140q-215 12 -335 162.5t-120 383t90 450.5t264.5 361.5t413.5 143.5q148 0 251 -58.5t156.5 -162t53.5 -234.5q0 -27 -4 -80h-80q4 53 4 76q0 174 -101.5 279.5t-299 105.5t-353 -132t-236.5 -333t-81 -412.5
t110.5 -345t303 -133.5t340 110.5t213.5 291.5h82q-70 -205 -232 -335t-371 -141l-104 -112q16 4 35 4q61 0 96 -34t35 -101.5t-61.5 -116.5t-162.5 -49t-184 51l27 45q63 -41 146.5 -41t126 31t42.5 84z" />
    <glyph glyph-name="Egrave" unicode="&#xc8;" horiz-adv-x="1222" 
d="M504 1386l-150 -602h754l-18 -71h-752l-162 -641h817l-16 -72h-893l362 1458h867l-19 -72h-790zM928 1556l-168 267h96l141 -267h-69z" />
    <glyph glyph-name="Eacute" unicode="&#xc9;" horiz-adv-x="1222" 
d="M504 1386l-150 -602h754l-18 -71h-752l-162 -641h817l-16 -72h-893l362 1458h867l-19 -72h-790zM770 1556l264 267h107l-289 -267h-82z" />
    <glyph glyph-name="Ecircumflex" unicode="&#xca;" horiz-adv-x="1222" 
d="M504 1386l-150 -602h754l-18 -71h-752l-162 -641h817l-16 -72h-893l362 1458h867l-19 -72h-790zM993 1823l172 -267h-78l-139 213l-248 -213h-96l307 267h82z" />
    <glyph glyph-name="Edieresis" unicode="&#xcb;" horiz-adv-x="1222" 
d="M504 1386l-150 -602h754l-18 -71h-752l-162 -641h817l-16 -72h-893l362 1458h867l-19 -72h-790zM1044 1595l43 166h74l-43 -166h-74zM670 1595l43 166h73l-43 -166h-73z" />
    <glyph glyph-name="Igrave" unicode="&#xcc;" horiz-adv-x="501" 
d="M84 0l362 1458h76l-362 -1458h-76zM553 1556l-168 267h96l142 -267h-70z" />
    <glyph glyph-name="Iacute" unicode="&#xcd;" horiz-adv-x="501" 
d="M84 0l362 1458h76l-362 -1458h-76zM395 1556l264 267h107l-289 -267h-82z" />
    <glyph glyph-name="Icircumflex" unicode="&#xce;" horiz-adv-x="501" 
d="M84 0l362 1458h76l-362 -1458h-76zM616 1823l172 -267h-77l-140 213l-247 -213h-97l308 267h81z" />
    <glyph glyph-name="Idieresis" unicode="&#xcf;" horiz-adv-x="501" 
d="M84 0l362 1458h76l-362 -1458h-76zM670 1595l43 166h73l-43 -166h-73zM295 1595l43 166h74l-43 -166h-74z" />
    <glyph glyph-name="Eth" unicode="&#xd0;" 
d="M1337 836q0 268 -145 409t-428 141h-260l-154 -614h494l-19 -67h-491l-158 -633h373q264 0 442 115.5t262 291.5t84 357zM1417 840q0 -203 -94 -395.5t-290.5 -318.5t-485.5 -126h-463l176 705h-131l16 67h131l170 686h320q319 0 485 -158.5t166 -459.5z" />
    <glyph glyph-name="Ntilde" unicode="&#xd1;" horiz-adv-x="1495" 
d="M1042 0l-258 668q-166 424 -278 714h-2l-344 -1382h-76l362 1458h111l258 -667q166 -424 279 -715h2q94 379 120 479t70 285l154 618h78l-363 -1458h-113zM1186 1679q89 0 133 123h65q-28 -90 -81.5 -139t-108.5 -49t-87 16.5t-79 48.5q-37 29 -63.5 43.5t-59.5 14.5
q-91 0 -131 -123h-65q27 90 80 139t108 49t87 -16.5t79 -48.5q37 -29 63.5 -43.5t59.5 -14.5z" />
    <glyph glyph-name="Ograve" unicode="&#xd2;" 
d="M215 545q0 -213 119 -353.5t330 -140.5t365.5 128t236.5 324.5t82 409.5t-120 353.5t-331 140.5t-364.5 -129t-235.5 -324.5t-82 -408.5zM1425 875.5q0 -193.5 -91 -406.5t-264 -352.5t-404 -139.5q-166 0 -285 74t-181.5 206t-62.5 325.5t91 406.5t263.5 352.5
t403.5 139.5q166 0 285.5 -74t182 -206t62.5 -325.5zM983 1556l-168 267h96l142 -267h-70z" />
    <glyph glyph-name="Oacute" unicode="&#xd3;" 
d="M215 545q0 -213 119 -353.5t330 -140.5t365.5 128t236.5 324.5t82 409.5t-120 353.5t-331 140.5t-364.5 -129t-235.5 -324.5t-82 -408.5zM1425 875.5q0 -193.5 -91 -406.5t-264 -352.5t-404 -139.5q-166 0 -285 74t-181.5 206t-62.5 325.5t91 406.5t263.5 352.5
t403.5 139.5q166 0 285.5 -74t182 -206t62.5 -325.5zM823 1556l264 267h107l-289 -267h-82z" />
    <glyph glyph-name="Ocircumflex" unicode="&#xd4;" 
d="M215 545q0 -213 119 -353.5t330 -140.5t365.5 128t236.5 324.5t82 409.5t-120 353.5t-331 140.5t-364.5 -129t-235.5 -324.5t-82 -408.5zM1425 875.5q0 -193.5 -91 -406.5t-264 -352.5t-404 -139.5q-166 0 -285 74t-181.5 206t-62.5 325.5t91 406.5t263.5 352.5
t403.5 139.5q166 0 285.5 -74t182 -206t62.5 -325.5zM1047 1823l172 -267h-78l-140 213l-247 -213h-97l308 267h82z" />
    <glyph glyph-name="Otilde" unicode="&#xd5;" 
d="M215 545q0 -213 119 -353.5t330 -140.5t365.5 128t236.5 324.5t82 409.5t-120 353.5t-331 140.5t-364.5 -129t-235.5 -324.5t-82 -408.5zM1425 875.5q0 -193.5 -91 -406.5t-264 -352.5t-404 -139.5q-166 0 -285 74t-181.5 206t-62.5 325.5t91 406.5t263.5 352.5
t403.5 139.5q166 0 285.5 -74t182 -206t62.5 -325.5zM1118 1679q91 0 133 123h66q-29 -90 -82 -139t-108.5 -49t-87 16.5t-78.5 48.5q-74 58 -123 58q-93 0 -131 -123h-66q27 90 80 139t108.5 49t87 -16.5t78.5 -48.5q37 -29 63.5 -43.5t59.5 -14.5z" />
    <glyph glyph-name="Odieresis" unicode="&#xd6;" 
d="M215 545q0 -213 119 -353.5t330 -140.5t365.5 128t236.5 324.5t82 409.5t-120 353.5t-331 140.5t-364.5 -129t-235.5 -324.5t-82 -408.5zM1425 875.5q0 -193.5 -91 -406.5t-264 -352.5t-404 -139.5q-166 0 -285 74t-181.5 206t-62.5 325.5t91 406.5t263.5 352.5
t403.5 139.5q166 0 285.5 -74t182 -206t62.5 -325.5zM1098 1595l43 166h73l-43 -166h-73zM723 1595l43 166h74l-43 -166h-74z" />
    <glyph glyph-name="multiply" unicode="&#xd7;" horiz-adv-x="1159" 
d="M627 627l417 -418l-47 -47l-417 418l-416 -416l-47 47l415 416l-415 415l47 48l416 -416l417 418l47 -48z" />
    <glyph glyph-name="Oslash" unicode="&#xd8;" 
d="M313 219q117 -168 339.5 -168t377 128t236.5 324.5t81.5 378t-61.5 298.5zM215 578q0 -180 61 -299l971 962q-118 166 -339.5 166t-375 -129t-235.5 -324.5t-82 -375.5zM915 1481q249 0 390 -183l143 142l51 -49l-153 -152q79 -141 79 -347t-92 -420t-265 -354.5
t-421 -140.5t-391 185l-145 -144l-50 50l156 153q-80 137 -80 345t91 421t264.5 353.5t422.5 140.5z" />
    <glyph glyph-name="Ugrave" unicode="&#xd9;" horiz-adv-x="1400" 
d="M610 -23q-424 0 -424 404q0 92 31 209l217 868h76l-221 -889q-27 -100 -27 -186q0 -332 342 -332q193 0 325 111.5t187 333.5l242 962h76l-246 -983q-64 -246 -214.5 -372t-363.5 -126zM983 1556l-168 267h96l142 -267h-70z" />
    <glyph glyph-name="Uacute" unicode="&#xda;" horiz-adv-x="1400" 
d="M610 -23q-424 0 -424 404q0 92 31 209l217 868h76l-221 -889q-27 -100 -27 -186q0 -332 342 -332q193 0 325 111.5t187 333.5l242 962h76l-246 -983q-64 -246 -214.5 -372t-363.5 -126zM823 1556l264 267h107l-289 -267h-82z" />
    <glyph glyph-name="Ucircumflex" unicode="&#xdb;" horiz-adv-x="1400" 
d="M610 -23q-424 0 -424 404q0 92 31 209l217 868h76l-221 -889q-27 -100 -27 -186q0 -332 342 -332q193 0 325 111.5t187 333.5l242 962h76l-246 -983q-64 -246 -214.5 -372t-363.5 -126zM1047 1823l172 -267h-78l-140 213l-247 -213h-97l308 267h82z" />
    <glyph glyph-name="Udieresis" unicode="&#xdc;" horiz-adv-x="1400" 
d="M610 -23q-424 0 -424 404q0 92 31 209l217 868h76l-221 -889q-27 -100 -27 -186q0 -332 342 -332q193 0 325 111.5t187 333.5l242 962h76l-246 -983q-64 -246 -214.5 -372t-363.5 -126zM1098 1595l43 166h73l-43 -166h-73zM723 1595l43 166h74l-43 -166h-74z" />
    <glyph glyph-name="Yacute" unicode="&#xdd;" horiz-adv-x="1198" 
d="M508 0h-76l158 639l-344 819h82l309 -741h2l379 411l299 330h102l-751 -819zM715 1556l264 267h106l-288 -267h-82z" />
    <glyph glyph-name="Thorn" unicode="&#xde;" horiz-adv-x="1204" 
d="M694 424q143 0 240.5 56.5t143.5 142.5t46 172q0 139 -85 215.5t-259 76.5h-350l-166 -663h430zM784 1159q207 0 312.5 -96t105.5 -266q0 -106 -56 -209t-171 -169.5t-283 -66.5h-444l-88 -352h-76l362 1458h76l-73 -299h335z" />
    <glyph glyph-name="germandbls" unicode="&#xdf;" horiz-adv-x="1099" 
d="M1096 1199q0 -130 -84 -237.5t-246 -140.5v-4q102 -29 161.5 -110t59.5 -211t-62.5 -245.5t-190.5 -189t-310 -73.5q-72 0 -131 18l16 66q45 -14 117 -15q160 0 269.5 64.5t163.5 164t54 222.5t-79.5 200.5t-223.5 77.5h-10l16 72q139 0 230.5 50t132.5 126t41 168
t-65.5 151.5t-198.5 59.5t-230.5 -96t-142.5 -277l-258 -1040h-74l260 1051q51 205 169 317.5t281 112.5t249 -76t86 -206z" />
    <glyph glyph-name="agrave" unicode="&#xe0;" horiz-adv-x="1040" 
d="M98 248q0 -96 64.5 -149.5t177.5 -53.5q162 0 278.5 100.5t161.5 280.5l33 131q-212 -16 -362 -41q-199 -29 -276 -100.5t-77 -167.5zM852 764q0 233 -264 233q-127 0 -216 -73.5t-116 -196.5h-78q33 152 145.5 244t269.5 92t243 -75t86 -224q0 -53 -19 -137l-98 -389
q-35 -137 -39 -238h-72q2 66 33 190h-2q-139 -211 -397 -210q-143 0 -225.5 70.5t-82.5 192.5t96.5 213t301 122t411.5 45l7 24q16 70 16 117zM743 1174h-67l-150 284h92z" />
    <glyph glyph-name="aacute" unicode="&#xe1;" horiz-adv-x="1040" 
d="M98 248q0 -96 64.5 -149.5t177.5 -53.5q162 0 278.5 100.5t161.5 280.5l33 131q-212 -16 -362 -41q-199 -29 -276 -100.5t-77 -167.5zM852 764q0 233 -264 233q-127 0 -216 -73.5t-116 -196.5h-78q33 152 145.5 244t269.5 92t243 -75t86 -224q0 -53 -19 -137l-98 -389
q-35 -137 -39 -238h-72q2 66 33 190h-2q-139 -211 -397 -210q-143 0 -225.5 70.5t-82.5 192.5t96.5 213t301 122t411.5 45l7 24q16 70 16 117zM532 1174l254 284h105l-279 -284h-80z" />
    <glyph glyph-name="acircumflex" unicode="&#xe2;" horiz-adv-x="1040" 
d="M98 248q0 -96 64.5 -149.5t177.5 -53.5q162 0 278.5 100.5t161.5 280.5l33 131q-212 -16 -362 -41q-199 -29 -276 -100.5t-77 -167.5zM852 764q0 233 -264 233q-127 0 -216 -73.5t-116 -196.5h-78q33 152 145.5 244t269.5 92t243 -75t86 -224q0 -53 -19 -137l-98 -389
q-35 -137 -39 -238h-72q2 66 33 190h-2q-139 -211 -397 -210q-143 0 -225.5 70.5t-82.5 192.5t96.5 213t301 122t411.5 45l7 24q16 70 16 117zM840 1174l-138 231l-249 -231h-95l310 284h82l168 -284h-78z" />
    <glyph glyph-name="atilde" unicode="&#xe3;" horiz-adv-x="1040" 
d="M98 248q0 -96 64.5 -149.5t177.5 -53.5q162 0 278.5 100.5t161.5 280.5l33 131q-212 -16 -362 -41q-199 -29 -276 -100.5t-77 -167.5zM852 764q0 233 -264 233q-127 0 -216 -73.5t-116 -196.5h-78q33 152 145.5 244t269.5 92t243 -75t86 -224q0 -53 -19 -137l-98 -389
q-35 -137 -39 -238h-72q2 66 33 190h-2q-139 -211 -397 -210q-143 0 -225.5 70.5t-82.5 192.5t96.5 213t301 122t411.5 45l7 24q16 70 16 117zM821 1315q92 0 133 123h66q-29 -90 -82 -139.5t-108.5 -49.5t-88 16.5t-74.5 48.5t-67 45t-57 13q-94 0 -131 -123h-66
q27 90 80 139.5t108.5 49.5t88 -16.5t74.5 -48.5t66.5 -45t57.5 -13z" />
    <glyph glyph-name="adieresis" unicode="&#xe4;" horiz-adv-x="1040" 
d="M98 248q0 -96 64.5 -149.5t177.5 -53.5q162 0 278.5 100.5t161.5 280.5l33 131q-212 -16 -362 -41q-199 -29 -276 -100.5t-77 -167.5zM852 764q0 233 -264 233q-127 0 -216 -73.5t-116 -196.5h-78q33 152 145.5 244t269.5 92t243 -75t86 -224q0 -53 -19 -137l-98 -389
q-35 -137 -39 -238h-72q2 66 33 190h-2q-139 -211 -397 -210q-143 0 -225.5 70.5t-82.5 192.5t96.5 213t301 122t411.5 45l7 24q16 70 16 117zM819 1292l41 166h74l-41 -166h-74zM444 1292l41 166h74l-41 -166h-74z" />
    <glyph glyph-name="aring" unicode="&#xe5;" horiz-adv-x="1040" 
d="M98 248q0 -96 64.5 -149.5t177.5 -53.5q162 0 278.5 100.5t161.5 280.5l33 131q-212 -16 -362 -41q-199 -29 -276 -100.5t-77 -167.5zM852 764q0 233 -264 233q-127 0 -216 -73.5t-116 -196.5h-78q33 152 145.5 244t269.5 92t243 -75t86 -224q0 -53 -19 -137l-98 -389
q-35 -137 -39 -238h-72q2 66 33 190h-2q-139 -211 -397 -210q-143 0 -225.5 70.5t-82.5 192.5t96.5 213t301 122t411.5 45l7 24q16 70 16 117zM537 1376.5q0 -55.5 37.5 -93.5t93 -38t93.5 38t38 93.5t-38 93t-93.5 37.5t-93 -37.5t-37.5 -93zM852 1376q0 -76 -54.5 -130
t-130 -54t-130 54t-54.5 131t54.5 130.5t130 53.5t130 -54.5t54.5 -130.5z" />
    <glyph glyph-name="ae" unicode="&#xe6;" horiz-adv-x="1705" 
d="M504 514q-219 0 -312.5 -77t-93.5 -181t63.5 -158.5t180.5 -54.5q160 0 274.5 107.5t157.5 298.5l19 65h-289zM1294 997q-138 0 -254 -114.5t-163 -302.5h677q12 57 13 112q-1 305 -273 305zM901 803q153 260 423 260q142 0 227 -97.5t85 -275.5q0 -72 -26 -176h-750
q-16 -71 -16 -145q0 -158 70.5 -242t193.5 -84t220 72.5t140 191.5h78q-53 -145 -169.5 -237.5t-264 -92.5t-228.5 83t-98 237q-61 -147 -182 -233.5t-267.5 -86.5t-231.5 70t-85 193q0 198 200 290q108 50 286 50h301l18 67q14 68 15 105q0 245 -253 245q-126 0 -215 -73.5
t-116 -196.5h-78q33 152 145.5 244t260.5 92q294 0 317 -260z" />
    <glyph glyph-name="ccedilla" unicode="&#xe7;" horiz-adv-x="1034" 
d="M494 -262q0 86 -101 86q-37 0 -67 -10l-25 26l127 137q-164 6 -254 111t-90 274t64.5 328.5t191.5 266t294 106.5t258 -94.5t91 -253.5q0 -25 -2 -39h-76q2 14 2 37q0 131 -71.5 206.5t-208.5 75.5t-246 -96t-165 -239.5t-56 -291t75.5 -235.5t209 -88t237.5 81t149 208
h80q-51 -145 -160.5 -240.5t-250.5 -111.5l-107 -117q16 4 35 4q61 0 96 -34t35 -101.5t-61.5 -116.5t-162.5 -49t-183 51l26 45q63 -41 146.5 -41t126.5 31t43 84z" />
    <glyph glyph-name="egrave" unicode="&#xe8;" horiz-adv-x="1077" 
d="M938 692q0 147 -76 226t-225.5 79t-274 -113.5t-178.5 -303.5h742q12 57 12 112zM154 369q0 -158 77.5 -242t214 -84t242 72.5t152.5 191.5h78q-55 -145 -181.5 -237.5t-297.5 -92.5t-264 103.5t-93 276t66.5 333t196.5 267t303 106.5t266.5 -97.5t93.5 -275.5
q0 -76 -29 -176h-809q-16 -71 -16 -145zM766 1174h-68l-149 284h92z" />
    <glyph glyph-name="eacute" unicode="&#xe9;" horiz-adv-x="1077" 
d="M938 692q0 147 -76 226t-225.5 79t-274 -113.5t-178.5 -303.5h742q12 57 12 112zM154 369q0 -158 77.5 -242t214 -84t242 72.5t152.5 191.5h78q-55 -145 -181.5 -237.5t-297.5 -92.5t-264 103.5t-93 276t66.5 333t196.5 267t303 106.5t266.5 -97.5t93.5 -275.5
q0 -76 -29 -176h-809q-16 -71 -16 -145zM553 1174l254 284h104l-278 -284h-80z" />
    <glyph glyph-name="ecircumflex" unicode="&#xea;" horiz-adv-x="1077" 
d="M938 692q0 147 -76 226t-225.5 79t-274 -113.5t-178.5 -303.5h742q12 57 12 112zM154 369q0 -158 77.5 -242t214 -84t242 72.5t152.5 191.5h78q-55 -145 -181.5 -237.5t-297.5 -92.5t-264 103.5t-93 276t66.5 333t196.5 267t303 106.5t266.5 -97.5t93.5 -275.5
q0 -76 -29 -176h-809q-16 -71 -16 -145zM862 1174l-137 231l-250 -231h-94l309 284h82l168 -284h-78z" />
    <glyph glyph-name="edieresis" unicode="&#xeb;" horiz-adv-x="1077" 
d="M938 692q0 147 -76 226t-225.5 79t-274 -113.5t-178.5 -303.5h742q12 57 12 112zM154 369q0 -158 77.5 -242t214 -84t242 72.5t152.5 191.5h78q-55 -145 -181.5 -237.5t-297.5 -92.5t-264 103.5t-93 276t66.5 333t196.5 267t303 106.5t266.5 -97.5t93.5 -275.5
q0 -76 -29 -176h-809q-16 -71 -16 -145zM840 1292l41 166h73l-41 -166h-73zM465 1292l41 166h74l-41 -166h-74z" />
    <glyph glyph-name="igrave" unicode="&#xec;" horiz-adv-x="432" 
d="M51 0l258 1040h74l-258 -1040h-74zM485 1174h-67l-150 284h92z" />
    <glyph glyph-name="iacute" unicode="&#xed;" horiz-adv-x="432" 
d="M51 0l258 1040h74l-258 -1040h-74zM274 1174l254 284h105l-279 -284h-80z" />
    <glyph glyph-name="icircumflex" unicode="&#xee;" horiz-adv-x="432" 
d="M51 0l258 1040h74l-258 -1040h-74zM545 1176l-99 229l-217 -229h-92l269 282h88l129 -282h-78z" />
    <glyph glyph-name="idieresis" unicode="&#xef;" horiz-adv-x="432" 
d="M51 0l258 1040h74l-258 -1040h-74zM522 1300l39 158h74l-39 -158h-74zM229 1300l39 158h74l-39 -158h-74z" />
    <glyph glyph-name="eth" unicode="&#xf0;" horiz-adv-x="1103" 
d="M944 662q0 150 -80 239.5t-228 89.5t-257 -94t-164 -234.5t-55 -290.5t78 -238.5t228 -88.5t259 93t164 233.5t55 290.5zM1018 651q0 -156 -64.5 -312.5t-191.5 -259t-304 -102.5t-274.5 109t-97.5 283t64.5 328.5t190.5 257t302 102.5t260 -125l2 2q-66 176 -196 336
l-293 -133l-27 55l277 125q-55 63 -119 119l49 45q57 -53 133 -135l283 129l26 -56l-270 -123q250 -307 250 -645z" />
    <glyph glyph-name="ntilde" unicode="&#xf1;" horiz-adv-x="1124" 
d="M342 864q141 197 383 197q123 0 201 -74t78 -217q0 -70 -25 -162l-152 -608h-73l153 614q20 82 21 152q0 229 -232 229q-90 0 -175 -44t-148.5 -125t-89.5 -189l-160 -637h-74l260 1040h74l-45 -176h4zM909 1315q92 0 133 123h66q-29 -90 -82 -139.5t-108.5 -49.5
t-88 16.5t-74.5 48.5t-66.5 45t-57.5 13q-94 0 -131 -123h-66q27 90 80 139.5t108.5 49.5t88 -16.5t74.5 -48.5t67 -45t57 -13z" />
    <glyph glyph-name="ograve" unicode="&#xf2;" horiz-adv-x="1103" 
d="M160 377.5q0 -150.5 79.5 -241.5t229 -91t256 93t161 232.5t54.5 291t-81 242.5t-229.5 91t-255 -93t-160.5 -233.5t-54 -291zM1016 643q0 -152 -64.5 -306.5t-189.5 -257t-301 -102.5t-275.5 110t-99.5 286t63.5 330.5t187.5 257t301 102.5t277.5 -110.5t100.5 -309.5z
M780 1174h-67l-150 284h92z" />
    <glyph glyph-name="oacute" unicode="&#xf3;" horiz-adv-x="1103" 
d="M160 377.5q0 -150.5 79.5 -241.5t229 -91t256 93t161 232.5t54.5 291t-81 242.5t-229.5 91t-255 -93t-160.5 -233.5t-54 -291zM1016 643q0 -152 -64.5 -306.5t-189.5 -257t-301 -102.5t-275.5 110t-99.5 286t63.5 330.5t187.5 257t301 102.5t277.5 -110.5t100.5 -309.5z
M567 1174l254 284h105l-279 -284h-80z" />
    <glyph glyph-name="ocircumflex" unicode="&#xf4;" horiz-adv-x="1103" 
d="M160 377.5q0 -150.5 79.5 -241.5t229 -91t256 93t161 232.5t54.5 291t-81 242.5t-229.5 91t-255 -93t-160.5 -233.5t-54 -291zM1016 643q0 -152 -64.5 -306.5t-189.5 -257t-301 -102.5t-275.5 110t-99.5 286t63.5 330.5t187.5 257t301 102.5t277.5 -110.5t100.5 -309.5z
M877 1174l-138 231l-250 -231h-94l310 284h81l168 -284h-77z" />
    <glyph glyph-name="otilde" unicode="&#xf5;" horiz-adv-x="1103" 
d="M160 377.5q0 -150.5 79.5 -241.5t229 -91t256 93t161 232.5t54.5 291t-81 242.5t-229.5 91t-255 -93t-160.5 -233.5t-54 -291zM1016 643q0 -152 -64.5 -306.5t-189.5 -257t-301 -102.5t-275.5 110t-99.5 286t63.5 330.5t187.5 257t301 102.5t277.5 -110.5t100.5 -309.5z
M856 1315q92 0 133 123h66q-29 -90 -82 -139.5t-108.5 -49.5t-88.5 16.5t-75 48.5t-66.5 45t-56.5 13q-93 0 -132 -123h-65q27 90 80 139.5t108.5 49.5t88 -16.5t74.5 -48.5t66.5 -45t57.5 -13z" />
    <glyph glyph-name="odieresis" unicode="&#xf6;" horiz-adv-x="1103" 
d="M160 377.5q0 -150.5 79.5 -241.5t229 -91t256 93t161 232.5t54.5 291t-81 242.5t-229.5 91t-255 -93t-160.5 -233.5t-54 -291zM1016 643q0 -152 -64.5 -306.5t-189.5 -257t-301 -102.5t-275.5 110t-99.5 286t63.5 330.5t187.5 257t301 102.5t277.5 -110.5t100.5 -309.5z
M854 1292l41 166h74l-41 -166h-74zM479 1292l41 166h74l-41 -166h-74z" />
    <glyph glyph-name="divide" unicode="&#xf7;" horiz-adv-x="1159" 
d="M541 268v133h77v-133h-77zM154 614v70h852v-70h-852zM541 897v133h77v-133h-77z" />
    <glyph glyph-name="oslash" unicode="&#xf8;" horiz-adv-x="1103" 
d="M942 629.5q0 119.5 -33 197.5l-684 -677q80 -104 232.5 -104.5t262 92.5t166 232.5t56.5 259zM160 405q0 -123 33 -196l686 678q-80 109 -233.5 108.5t-263.5 -93.5t-166 -233.5t-56 -263.5zM1016 638.5q0 -149.5 -65.5 -303t-192.5 -256t-307 -102.5t-279 121l-123 -121
l-45 46l133 131q-51 96 -51 245.5t65.5 304t192.5 257t309 102.5t277 -125l123 121l47 -45l-133 -131q49 -95 49 -244.5z" />
    <glyph glyph-name="ugrave" unicode="&#xf9;" horiz-adv-x="1124" 
d="M782 176q-142 -196 -385 -196q-123 0 -199.5 74.5t-76.5 215.5q0 70 24 162l152 608h74l-154 -614q-20 -82 -20 -152q0 -115 59 -172t159.5 -57t186.5 44t149.5 125t90.5 189l159 637h74l-260 -1040h-74l43 176h-2zM811 1174h-68l-149 284h92z" />
    <glyph glyph-name="uacute" unicode="&#xfa;" horiz-adv-x="1124" 
d="M782 176q-142 -196 -385 -196q-123 0 -199.5 74.5t-76.5 215.5q0 70 24 162l152 608h74l-154 -614q-20 -82 -20 -152q0 -115 59 -172t159.5 -57t186.5 44t149.5 125t90.5 189l159 637h74l-260 -1040h-74l43 176h-2zM600 1174l254 284h104l-278 -284h-80z" />
    <glyph glyph-name="ucircumflex" unicode="&#xfb;" horiz-adv-x="1124" 
d="M782 176q-142 -196 -385 -196q-123 0 -199.5 74.5t-76.5 215.5q0 70 24 162l152 608h74l-154 -614q-20 -82 -20 -152q0 -115 59 -172t159.5 -57t186.5 44t149.5 125t90.5 189l159 637h74l-260 -1040h-74l43 176h-2zM907 1174l-137 231l-250 -231h-94l309 284h82l168 -284
h-78z" />
    <glyph glyph-name="udieresis" unicode="&#xfc;" horiz-adv-x="1124" 
d="M782 176q-142 -196 -385 -196q-123 0 -199.5 74.5t-76.5 215.5q0 70 24 162l152 608h74l-154 -614q-20 -82 -20 -152q0 -115 59 -172t159.5 -57t186.5 44t149.5 125t90.5 189l159 637h74l-260 -1040h-74l43 176h-2zM887 1292l41 166h73l-40 -166h-74zM512 1292l41 166h74
l-41 -166h-74z" />
    <glyph glyph-name="yacute" unicode="&#xfd;" horiz-adv-x="905" 
d="M-96.5 -387q-69.5 0 -104.5 14l17 66q35 -12 91 -12t110.5 25.5t113.5 93t148 200.5l-152 1040h74l135 -944h4l610 944h86l-694 -1071q-94 -145 -163.5 -221t-137.5 -105.5t-137.5 -29.5zM469 1174l254 284h104l-278 -284h-80z" />
    <glyph glyph-name="thorn" unicode="&#xfe;" horiz-adv-x="1136" 
d="M238 368q0 -148 70.5 -235.5t209.5 -87.5t243.5 95.5t159 238.5t54.5 293t-70.5 237.5t-208.5 87.5t-244 -97t-160 -240.5t-54 -291.5zM709 1063q164 0 254 -103.5t90 -274.5t-63.5 -331.5t-186.5 -267t-275 -106.5t-235.5 78.5t-97.5 213.5h-5l-161 -651h-74l459 1837
h73l-151 -608h2q70 100 166 156.5t205 56.5z" />
    <glyph glyph-name="ydieresis" unicode="&#xff;" horiz-adv-x="905" 
d="M-96.5 -387q-69.5 0 -104.5 14l17 66q35 -12 91 -12t110.5 25.5t113.5 93t148 200.5l-152 1040h74l135 -944h4l610 944h86l-694 -1071q-94 -145 -163.5 -221t-137.5 -105.5t-137.5 -29.5zM756 1292l41 166h73l-41 -166h-73zM381 1292l41 166h74l-41 -166h-74z" />
    <glyph glyph-name="Amacron" unicode="&#x100;" horiz-adv-x="1327" 
d="M985 764q-18 113 -45 283l-55 344h-2l-529 -807h660zM307 512l-336 -512h-88l961 1458h104l236 -1458h-78l-82 512h-717zM692 1634l17 66h495l-16 -66h-496z" />
    <glyph glyph-name="amacron" unicode="&#x101;" horiz-adv-x="1040" 
d="M98 248q0 -96 64.5 -149.5t177.5 -53.5q162 0 278.5 100.5t161.5 280.5l33 131q-212 -16 -362 -41q-199 -29 -276 -100.5t-77 -167.5zM852 764q0 233 -264 233q-127 0 -216 -73.5t-116 -196.5h-78q33 152 145.5 244t269.5 92t243 -75t86 -224q0 -53 -19 -137l-98 -389
q-35 -137 -39 -238h-72q2 66 33 190h-2q-139 -211 -397 -210q-143 0 -225.5 70.5t-82.5 192.5t96.5 213t301 122t411.5 45l7 24q16 70 16 117zM422 1305l16 65h496l-16 -65h-496z" />
    <glyph glyph-name="Abreve" unicode="&#x102;" horiz-adv-x="1327" 
d="M985 764q-18 113 -45 283l-55 344h-2l-529 -807h660zM307 512l-336 -512h-88l961 1458h104l236 -1458h-78l-82 512h-717zM934 1616q212 0 280 207h70q-41 -129 -131 -200t-214 -71t-186.5 58.5t-62.5 167.5q0 29 4 45h62q-2 -12 -2 -37q0 -170 180 -170z" />
    <glyph glyph-name="abreve" unicode="&#x103;" horiz-adv-x="1040" 
d="M98 248q0 -96 64.5 -149.5t177.5 -53.5q162 0 278.5 100.5t161.5 280.5l33 131q-212 -16 -362 -41q-199 -29 -276 -100.5t-77 -167.5zM852 764q0 233 -264 233q-127 0 -216 -73.5t-116 -196.5h-78q33 152 145.5 244t269.5 92t243 -75t86 -224q0 -53 -19 -137l-98 -389
q-35 -137 -39 -238h-72q2 66 33 190h-2q-139 -211 -397 -210q-143 0 -225.5 70.5t-82.5 192.5t96.5 213t301 122t411.5 45l7 24q16 70 16 117zM653 1251q210 0 281 207h70q-41 -129 -131.5 -199.5t-214.5 -70.5q-246 0 -246 227q0 27 2 43h61q-2 -12 -2 -37q0 -170 180 -170
z" />
    <glyph glyph-name="Aogonek" unicode="&#x104;" horiz-adv-x="1327" 
d="M985 764q-18 113 -45 283l-55 344h-2l-529 -807h660zM954 -258q0 -72 80 -72q41 0 76 13l-14 -62q-35 -10 -74 -10q-141 0 -141 125q0 68 52 130t173 140l-82 506h-717l-336 -512h-88l961 1458h104l236 -1458q-131 -84 -180.5 -144.5t-49.5 -113.5z" />
    <glyph glyph-name="aogonek" unicode="&#x105;" horiz-adv-x="1040" 
d="M98 248q0 -96 64.5 -149.5t177.5 -53.5q162 0 278.5 100.5t161.5 280.5l33 131q-212 -16 -362 -41q-199 -29 -276 -100.5t-77 -167.5zM852 764q0 233 -264 233q-127 0 -216 -73.5t-116 -196.5h-78q33 152 145.5 244t269.5 92t243 -75t86 -224q0 -53 -19 -137l-98 -389
q-35 -137 -39 -238q-131 -84 -180 -144.5t-49 -113.5q0 -72 79 -72q41 0 76 13l-14 -62q-35 -10 -74 -10q-141 0 -141 125q0 68 53 131t178 145q4 53 33 178h-2q-139 -211 -397 -210q-143 0 -225.5 70.5t-82.5 192.5t96.5 213t301 122t411.5 45l7 24q16 70 16 117z" />
    <glyph glyph-name="Cacute" unicode="&#x106;" horiz-adv-x="1376" 
d="M1362 1026q0 -27 -4 -80h-80q4 53 4 76q0 174 -101.5 279.5t-299 105.5t-353 -132t-236.5 -333t-81 -412.5t110.5 -345t303 -133.5t340 110.5t213.5 291.5h82q-74 -215 -244 -345.5t-396 -130.5t-356.5 153t-130.5 390.5t90 455.5t264.5 361.5t413.5 143.5
q148 0 251 -58.5t156.5 -162t53.5 -234.5zM829 1556l265 267h106l-289 -267h-82z" />
    <glyph glyph-name="cacute" unicode="&#x107;" horiz-adv-x="1034" 
d="M983 715q0 -25 -2 -39h-76q2 14 2 37q0 131 -71.5 206.5t-208.5 75.5t-246 -96t-165 -239.5t-56 -291t75.5 -235.5t209 -88t237.5 81t149 208h80q-55 -160 -181 -258.5t-292 -98.5t-260 104.5t-94 277t64.5 332t191.5 266t294 106.5t258 -94.5t91 -253.5zM561 1174
l254 284h105l-279 -284h-80z" />
    <glyph glyph-name="Ccircumflex" unicode="&#x108;" horiz-adv-x="1376" 
d="M1362 1026q0 -27 -4 -80h-80q4 53 4 76q0 174 -101.5 279.5t-299 105.5t-353 -132t-236.5 -333t-81 -412.5t110.5 -345t303 -133.5t340 110.5t213.5 291.5h82q-74 -215 -244 -345.5t-396 -130.5t-356.5 153t-130.5 390.5t90 455.5t264.5 361.5t413.5 143.5
q148 0 251 -58.5t156.5 -162t53.5 -234.5zM1053 1823l172 -267h-78l-139 213l-248 -213h-96l307 267h82z" />
    <glyph glyph-name="ccircumflex" unicode="&#x109;" horiz-adv-x="1034" 
d="M983 715q0 -25 -2 -39h-76q2 14 2 37q0 131 -71.5 206.5t-208.5 75.5t-246 -96t-165 -239.5t-56 -291t75.5 -235.5t209 -88t237.5 81t149 208h80q-55 -160 -181 -258.5t-292 -98.5t-260 104.5t-94 277t64.5 332t191.5 266t294 106.5t258 -94.5t91 -253.5zM870 1174
l-137 231l-250 -231h-94l309 284h82l168 -284h-78z" />
    <glyph glyph-name="Cdotaccent" unicode="&#x10a;" horiz-adv-x="1376" 
d="M1362 1026q0 -27 -4 -80h-80q4 53 4 76q0 174 -101.5 279.5t-299 105.5t-353 -132t-236.5 -333t-81 -412.5t110.5 -345t303 -133.5t340 110.5t213.5 291.5h82q-74 -215 -244 -345.5t-396 -130.5t-356.5 153t-130.5 390.5t90 455.5t264.5 361.5t413.5 143.5
q148 0 251 -58.5t156.5 -162t53.5 -234.5zM918 1595l43 166h73l-43 -166h-73z" />
    <glyph glyph-name="cdotaccent" unicode="&#x10b;" horiz-adv-x="1034" 
d="M983 715q0 -25 -2 -39h-76q2 14 2 37q0 131 -71.5 206.5t-208.5 75.5t-246 -96t-165 -239.5t-56 -291t75.5 -235.5t209 -88t237.5 81t149 208h80q-55 -160 -181 -258.5t-292 -98.5t-260 104.5t-94 277t64.5 332t191.5 266t294 106.5t258 -94.5t91 -253.5zM662 1292
l40 166h74l-41 -166h-73z" />
    <glyph glyph-name="Ccaron" unicode="&#x10c;" horiz-adv-x="1376" 
d="M1362 1026q0 -27 -4 -80h-80q4 53 4 76q0 174 -101.5 279.5t-299 105.5t-353 -132t-236.5 -333t-81 -412.5t110.5 -345t303 -133.5t340 110.5t213.5 291.5h82q-74 -215 -244 -345.5t-396 -130.5t-356.5 153t-130.5 390.5t90 455.5t264.5 361.5t413.5 143.5
q148 0 251 -58.5t156.5 -162t53.5 -234.5zM903 1556l-174 267h80l139 -213l246 213h98l-307 -267h-82z" />
    <glyph glyph-name="ccaron" unicode="&#x10d;" horiz-adv-x="1034" 
d="M983 715q0 -25 -2 -39h-76q2 14 2 37q0 131 -71.5 206.5t-208.5 75.5t-246 -96t-165 -239.5t-56 -291t75.5 -235.5t209 -88t237.5 81t149 208h80q-55 -160 -181 -258.5t-292 -98.5t-260 104.5t-94 277t64.5 332t191.5 266t294 106.5t258 -94.5t91 -253.5zM627 1174
l-168 284h78l135 -231l250 231h96l-309 -284h-82z" />
    <glyph glyph-name="Dcaron" unicode="&#x10e;" 
d="M549 72q264 0 442 115.5t262 291.5t84 357q0 268 -145 409t-428 141h-260l-328 -1314h373zM1417 840q0 -203 -94 -395.5t-290.5 -318.5t-485.5 -126h-463l362 1458h320q319 0 485 -158.5t166 -459.5zM879 1556l-174 267h79l140 -213l245 213h99l-307 -267h-82z" />
    <glyph glyph-name="dcaron" unicode="&#x10f;" horiz-adv-x="1130" 
d="M156 369q0 -150 72 -238t209 -88q138 0 244 97q105 96 159 240t55 292q0 148 -71 235q-71 88 -210 88t-244 -95q-106 -95 -160 -238t-54 -293zM80 356q0 172 63 332t185 266t275 106t237 -78q84 -79 98 -214h2l174 690h74l-365 -1458h-73l47 190h-4q-68 -100 -164 -156
t-207 -57q-164 -1 -253 103t-89 276zM1196 1100l162 358h80l-187 -358h-55z" />
    <glyph glyph-name="Dcroat" unicode="&#x110;" 
d="M1337 836q0 268 -145 409t-428 141h-260l-154 -614h494l-19 -67h-491l-158 -633h373q264 0 442 115.5t262 291.5t84 357zM1417 840q0 -203 -94 -395.5t-290.5 -318.5t-485.5 -126h-463l176 705h-131l16 67h131l170 686h320q319 0 485 -158.5t166 -459.5z" />
    <glyph glyph-name="dcroat" unicode="&#x111;" horiz-adv-x="1128" 
d="M895 672q0 148 -70.5 235.5t-209.5 87.5t-245 -95t-160 -238.5t-54 -293.5t71.5 -237.5t209.5 -87.5t243.5 97.5t160 240.5t54.5 291zM422 -23q-164 0 -253 103.5t-89 275.5t63.5 332t185.5 266.5t274 106.5t236.5 -79t98.5 -214h2l111 440h-299l14 62h301l47 188h74
l-47 -188h123l-17 -62h-121l-303 -1208h-73l47 190h-4q-68 -100 -164.5 -156.5t-206.5 -56.5z" />
    <glyph glyph-name="Emacron" unicode="&#x112;" horiz-adv-x="1222" 
d="M504 1386l-150 -602h754l-18 -71h-752l-162 -641h817l-16 -72h-893l362 1458h867l-19 -72h-790zM655 1634l17 66h495l-16 -66h-496z" />
    <glyph glyph-name="emacron" unicode="&#x113;" horiz-adv-x="1077" 
d="M938 692q0 147 -76 226t-225.5 79t-274 -113.5t-178.5 -303.5h742q12 57 12 112zM154 369q0 -158 77.5 -242t214 -84t242 72.5t152.5 191.5h78q-55 -145 -181.5 -237.5t-297.5 -92.5t-264 103.5t-93 276t66.5 333t196.5 267t303 106.5t266.5 -97.5t93.5 -275.5
q0 -76 -29 -176h-809q-16 -71 -16 -145zM444 1305l17 65h495l-16 -65h-496z" />
    <glyph glyph-name="Ebreve" unicode="&#x114;" horiz-adv-x="1222" 
d="M504 1386l-150 -602h754l-18 -71h-752l-162 -641h817l-16 -72h-893l362 1458h867l-19 -72h-790zM895 1616q211 0 281 207h69q-41 -129 -131 -200t-214 -71t-186.5 58.5t-62.5 167.5q0 29 4 45h62q-2 -12 -2 -37q0 -170 180 -170z" />
    <glyph glyph-name="ebreve" unicode="&#x115;" horiz-adv-x="1077" 
d="M938 692q0 147 -76 226t-225.5 79t-274 -113.5t-178.5 -303.5h742q12 57 12 112zM154 369q0 -158 77.5 -242t214 -84t242 72.5t152.5 191.5h78q-55 -145 -181.5 -237.5t-297.5 -92.5t-264 103.5t-93 276t66.5 333t196.5 267t303 106.5t266.5 -97.5t93.5 -275.5
q0 -76 -29 -176h-809q-16 -71 -16 -145zM674 1251q211 0 280 207h70q-41 -129 -131 -199.5t-214 -70.5t-185.5 58.5t-61.5 168.5q0 27 2 43h62q-2 -12 -2 -37q0 -170 180 -170z" />
    <glyph glyph-name="Edotaccent" unicode="&#x116;" horiz-adv-x="1222" 
d="M504 1386l-150 -602h754l-18 -71h-752l-162 -641h817l-16 -72h-893l362 1458h867l-19 -72h-790zM856 1595l43 166h74l-43 -166h-74z" />
    <glyph glyph-name="edotaccent" unicode="&#x117;" horiz-adv-x="1077" 
d="M938 692q0 147 -76 226t-225.5 79t-274 -113.5t-178.5 -303.5h742q12 57 12 112zM154 369q0 -158 77.5 -242t214 -84t242 72.5t152.5 191.5h78q-55 -145 -181.5 -237.5t-297.5 -92.5t-264 103.5t-93 276t66.5 333t196.5 267t303 106.5t266.5 -97.5t93.5 -275.5
q0 -76 -29 -176h-809q-16 -71 -16 -145zM653 1292l41 166h74l-41 -166h-74z" />
    <glyph glyph-name="Eogonek" unicode="&#x118;" horiz-adv-x="1222" 
d="M815 -389q-141 0 -141 125q0 66 49 127t166 137h-805l362 1458h867l-19 -72h-790l-150 -602h754l-18 -71h-752l-162 -641h817l-16 -72q-131 -84 -180 -144.5t-49 -113.5q0 -72 79 -72q41 0 76 13l-14 -62q-35 -10 -74 -10z" />
    <glyph glyph-name="eogonek" unicode="&#x119;" horiz-adv-x="1073" 
d="M934 692q0 147 -76 226t-226 79t-274.5 -114.5t-175.5 -302.5h740q12 47 12 112zM500 -389q-142 0 -142 93t45.5 152.5t149.5 135.5v2q-53 -16 -109 -17q-178 0 -272 103.5t-94 275.5t67.5 333t197.5 267.5t302 106.5t265.5 -97.5t93.5 -275.5q0 -72 -27 -176h-809
q-16 -71 -16 -145q0 -158 76.5 -242t213.5 -84t241.5 72.5t154.5 191.5h75q-57 -158 -243 -289q-135 -92 -186.5 -157.5t-51.5 -118.5q0 -72 80 -72q43 0 76 13l-15 -62q-35 -10 -73 -10z" />
    <glyph glyph-name="Ecaron" unicode="&#x11a;" horiz-adv-x="1222" 
d="M504 1386l-150 -602h754l-18 -71h-752l-162 -641h817l-16 -72h-893l362 1458h867l-19 -72h-790zM844 1556l-174 267h80l139 -213l246 213h98l-307 -267h-82z" />
    <glyph glyph-name="ecaron" unicode="&#x11b;" horiz-adv-x="1077" 
d="M938 692q0 147 -76 226t-225.5 79t-274 -113.5t-178.5 -303.5h742q12 57 12 112zM154 369q0 -158 77.5 -242t214 -84t242 72.5t152.5 191.5h78q-55 -145 -181.5 -237.5t-297.5 -92.5t-264 103.5t-93 276t66.5 333t196.5 267t303 106.5t266.5 -97.5t93.5 -275.5
q0 -76 -29 -176h-809q-16 -71 -16 -145zM618 1174l-167 284h77l136 -231l249 231h97l-310 -284h-82z" />
    <glyph glyph-name="Gcircumflex" unicode="&#x11c;" horiz-adv-x="1454" 
d="M1397 1065q0 -23 -4 -64h-80q2 16 2 52q0 166 -100.5 260t-306 94t-368.5 -131t-246 -331t-83 -414.5t108.5 -347t306.5 -132.5t363.5 139.5t241.5 446.5h-461l18 72h535l-176 -709h-74l68 274h-2q-80 -137 -220.5 -217t-304.5 -80q-227 0 -354 154t-127 394.5t93 457.5
t274.5 357.5t416 140.5t357.5 -114t123 -302zM1057 1823l172 -267h-78l-139 213l-248 -213h-96l307 267h82z" />
    <glyph glyph-name="gcircumflex" unicode="&#x11d;" horiz-adv-x="1134" 
d="M164 395.5q0 -143.5 68.5 -230.5t207.5 -87t246 95t161 233.5t54 279t-71.5 226t-210 85.5t-243 -92t-158.5 -229t-54 -280.5zM59 -125q-1 -199 295 -199q152 0 258.5 96.5t155.5 293.5l39 163h-2q-72 -104 -171 -160.5t-212 -56.5q-162 0 -248 103.5t-86 271.5
t64.5 320.5t187.5 254.5q122 102 272 101q292 0 330 -289h2l66 266h73l-249 -1001q-53 -211 -179.5 -319.5t-306.5 -108.5t-271 68.5t-91 193.5q0 31 6 61h74q-6 -31 -7 -59zM911 1174l-137 231l-250 -231h-94l309 284h82l168 -284h-78z" />
    <glyph glyph-name="Gbreve" unicode="&#x11e;" horiz-adv-x="1454" 
d="M1397 1065q0 -23 -4 -64h-80q2 16 2 52q0 166 -100.5 260t-306 94t-368.5 -131t-246 -331t-83 -414.5t108.5 -347t306.5 -132.5t363.5 139.5t241.5 446.5h-461l18 72h535l-176 -709h-74l68 274h-2q-80 -137 -220.5 -217t-304.5 -80q-227 0 -354 154t-127 394.5t93 457.5
t274.5 357.5t416 140.5t357.5 -114t123 -302zM958 1616q211 0 281 207h70q-41 -129 -131.5 -200t-214.5 -71t-186 58.5t-62 167.5q0 29 4 45h61q-2 -12 -2 -37q0 -170 180 -170z" />
    <glyph glyph-name="gbreve" unicode="&#x11f;" horiz-adv-x="1134" 
d="M164 395.5q0 -143.5 68.5 -230.5t207.5 -87t246 95t161 233.5t54 279t-71.5 226t-210 85.5t-243 -92t-158.5 -229t-54 -280.5zM59 -125q-1 -199 295 -199q152 0 258.5 96.5t155.5 293.5l39 163h-2q-72 -104 -171 -160.5t-212 -56.5q-162 0 -248 103.5t-86 271.5
t64.5 320.5t187.5 254.5q122 102 272 101q292 0 330 -289h2l66 266h73l-249 -1001q-53 -211 -179.5 -319.5t-306.5 -108.5t-271 68.5t-91 193.5q0 31 6 61h74q-6 -31 -7 -59zM725 1251q210 0 281 207h69q-41 -129 -131 -199.5t-214 -70.5t-185.5 58.5t-61.5 168.5q0 27 2 43
h62q-2 -12 -2 -37q0 -170 180 -170z" />
    <glyph glyph-name="Gdotaccent" unicode="&#x120;" horiz-adv-x="1454" 
d="M1397 1065q0 -23 -4 -64h-80q2 16 2 52q0 166 -100.5 260t-306 94t-368.5 -131t-246 -331t-83 -414.5t108.5 -347t306.5 -132.5t363.5 139.5t241.5 446.5h-461l18 72h535l-176 -709h-74l68 274h-2q-80 -137 -220.5 -217t-304.5 -80q-227 0 -354 154t-127 394.5t93 457.5
t274.5 357.5t416 140.5t357.5 -114t123 -302zM920 1595l43 166h73l-43 -166h-73z" />
    <glyph glyph-name="gdotaccent" unicode="&#x121;" horiz-adv-x="1134" 
d="M164 395.5q0 -143.5 68.5 -230.5t207.5 -87t246 95t161 233.5t54 279t-71.5 226t-210 85.5t-243 -92t-158.5 -229t-54 -280.5zM59 -125q-1 -199 295 -199q152 0 258.5 96.5t155.5 293.5l39 163h-2q-72 -104 -171 -160.5t-212 -56.5q-162 0 -248 103.5t-86 271.5
t64.5 320.5t187.5 254.5q122 102 272 101q292 0 330 -289h2l66 266h73l-249 -1001q-53 -211 -179.5 -319.5t-306.5 -108.5t-271 68.5t-91 193.5q0 31 6 61h74q-6 -31 -7 -59zM702 1292l41 166h74l-41 -166h-74z" />
    <glyph glyph-name="Gcommaaccent" unicode="&#x122;" horiz-adv-x="1454" 
d="M1397 1065q0 -23 -4 -64h-80q2 16 2 52q0 166 -100.5 260t-306 94t-368.5 -131t-246 -331t-83 -414.5t108.5 -347t306.5 -132.5t363.5 139.5t241.5 446.5h-461l18 72h535l-176 -709h-74l68 274h-2q-80 -137 -220.5 -217t-304.5 -80q-227 0 -354 154t-127 394.5t93 457.5
t274.5 357.5t416 140.5t357.5 -114t123 -302zM455 -500h-41l112 201h-26l37 147h84l-35 -147z" />
    <glyph glyph-name="gcommaaccent" unicode="&#x123;" horiz-adv-x="1134" 
d="M164 395.5q0 -143.5 68.5 -230.5t207.5 -87t246 95t161 233.5t54 279t-71.5 226t-210 85.5t-243 -92t-158.5 -229t-54 -280.5zM59 -125q-1 -199 295 -199q152 0 258.5 96.5t155.5 293.5l39 163h-2q-72 -104 -171 -160.5t-212 -56.5q-162 0 -248 103.5t-86 271.5
t64.5 320.5t187.5 254.5q122 102 272 101q292 0 330 -289h2l66 266h73l-249 -1001q-53 -211 -179.5 -319.5t-306.5 -108.5t-271 68.5t-91 193.5q0 31 6 61h74q-6 -31 -7 -59zM776 1350l-37 -148h-84l37 148l129 200h43l-114 -200h26z" />
    <glyph glyph-name="Hcircumflex" unicode="&#x124;" horiz-adv-x="1468" 
d="M1051 0l180 721h-891l-180 -721h-76l362 1458h76l-166 -665h893l164 665h78l-363 -1458h-77zM1102 1823l172 -267h-78l-139 213l-248 -213h-96l307 267h82z" />
    <glyph glyph-name="hcircumflex" unicode="&#x125;" horiz-adv-x="1124" 
d="M727 1061q123 0 200 -75t77 -216q0 -66 -23 -162l-152 -608h-73l151 614q23 90 23 152q0 113 -60.5 171t-161 58t-185.5 -44t-149.5 -126t-90.5 -188l-158 -637h-74l363 1458h73l-147 -594h2q143 197 385 197zM930 1823l172 -267h-78l-139 213l-248 -213h-96l307 267h82z
" />
    <glyph glyph-name="Hbar" unicode="&#x126;" horiz-adv-x="1468" 
d="M459 1202l-103 -409h893l101 409h-891zM1427 1202l-299 -1202h-77l180 721h-891l-180 -721h-76l299 1202h-123l14 68h125l47 188h76l-47 -188h891l47 188h78l-47 -188h123l-17 -68h-123z" />
    <glyph glyph-name="hbar" unicode="&#x127;" horiz-adv-x="1124" 
d="M342 864q143 197 385 197q123 0 200 -75t77 -216q0 -66 -23 -162l-152 -608h-73l151 614q23 90 23 152q0 113 -60.5 171t-161 58t-185.5 -44t-149.5 -126t-90.5 -188l-158 -637h-74l301 1208h-129l15 62h129l47 188h73l-47 -188h293l-14 -62h-293l-86 -344h2z" />
    <glyph glyph-name="Itilde" unicode="&#x128;" horiz-adv-x="501" 
d="M84 0l362 1458h76l-362 -1458h-76zM688 1679q91 0 133 123h66q-29 -90 -82 -139t-108.5 -49t-87 16.5t-79.5 48.5q-37 29 -63.5 43.5t-58.5 14.5q-92 0 -132 -123h-65q27 90 80 139t108.5 49t87 -16.5t78.5 -48.5q37 -29 63.5 -43.5t59.5 -14.5z" />
    <glyph glyph-name="itilde" unicode="&#x129;" horiz-adv-x="432" 
d="M51 0l258 1040h74l-258 -1040h-74zM303 1372q-78 0 -113 -123h-67q29 90 78 139.5t98 49.5t78 -17.5t62.5 -48.5t55 -44t48.5 -13q80 0 116 123h64q-27 -90 -76 -139.5t-99 -49.5t-79 17.5t-62.5 48.5t-55 44t-48.5 13z" />
    <glyph glyph-name="Imacron" unicode="&#x12a;" horiz-adv-x="501" 
d="M84 0l362 1458h76l-362 -1458h-76zM279 1634l16 66h496l-17 -66h-495z" />
    <glyph glyph-name="imacron" unicode="&#x12b;" horiz-adv-x="432" 
d="M51 0l258 1040h74l-258 -1040h-74zM195 1305l16 65h434l-16 -65h-434z" />
    <glyph glyph-name="Ibreve" unicode="&#x12c;" horiz-adv-x="501" 
d="M84 0l362 1458h76l-362 -1458h-76zM520 1616q211 0 281 207h69q-41 -129 -131 -200t-214 -71t-186.5 58.5t-62.5 167.5q0 29 5 45h61q-2 -12 -2 -37q0 -170 180 -170z" />
    <glyph glyph-name="ibreve" unicode="&#x12d;" horiz-adv-x="432" 
d="M51 0l258 1040h74l-258 -1040h-74zM399 1251q166 0 234 207h67q-36 -129 -116 -199.5t-184 -70.5q-206 0 -205 215q0 23 4 55h59q-2 -12 -2 -68.5t37 -97.5t106 -41z" />
    <glyph glyph-name="Iogonek" unicode="&#x12e;" horiz-adv-x="501" 
d="M-2 -389q-141 0 -141 125q0 68 52 130t177 144l360 1448h76l-362 -1458q-131 -84 -180.5 -144.5t-49.5 -113.5q0 -72 80 -72q43 0 76 13l-14 -62q-35 -10 -74 -10z" />
    <glyph glyph-name="iogonek" unicode="&#x12f;" horiz-adv-x="432" 
d="M-37 -389q-141 0 -141 125q0 68 53 131t178 145l256 1028h74l-258 -1040q-131 -84 -180 -144.5t-49 -113.5q0 -72 79 -72q41 0 76 13l-14 -62q-35 -10 -74 -10zM446 1292h-73l41 166h73z" />
    <glyph glyph-name="Idotaccent" unicode="&#x130;" horiz-adv-x="501" 
d="M84 0l362 1458h76l-362 -1458h-76zM481 1595l43 166h74l-43 -166h-74z" />
    <glyph glyph-name="dotlessi" unicode="&#x131;" horiz-adv-x="432" 
d="M51 0l258 1040h74l-258 -1040h-74z" />
    <glyph glyph-name="IJ" unicode="&#x132;" horiz-adv-x="1153" 
d="M84 0l362 1458h76l-362 -1458h-76zM498 -8q-55 0 -95 14l19 70q37 -10 76 -10q267 0 340 309l270 1083h78l-277 -1104q-43 -178 -150.5 -270t-260.5 -92z" />
    <glyph glyph-name="ij" unicode="&#x133;" horiz-adv-x="882" 
d="M250 -385q-29 0 -66 8l15 68q20 -6 47 -6q90 0 146.5 52t88.5 183l279 1120h74l-285 -1138q-39 -154 -114 -220.5t-185 -66.5zM51 0l258 1040h74l-258 -1040h-74zM823 1292l41 166h74l-41 -166h-74zM373 1292l41 166h73l-41 -166h-73z" />
    <glyph glyph-name="Jcircumflex" unicode="&#x134;" horiz-adv-x="651" 
d="M-4 -8q-55 0 -94 14l18 70q37 -10 76 -10q267 0 340 309l270 1083h78l-276 -1104q-43 -178 -150.5 -270t-261.5 -92zM778 1823l172 -267h-78l-139 213l-248 -213h-96l307 267h82z" />
    <glyph glyph-name="jcircumflex" unicode="&#x135;" horiz-adv-x="450" 
d="M-182 -385q-29 0 -66 8l15 68q23 -6 47 -6q90 0 146 52t89 183l279 1120h73l-284 -1138q-39 -154 -114 -220.5t-185 -66.5zM563 1176l-98 229l-217 -229h-92l268 282h88l129 -282h-78z" />
    <glyph glyph-name="Kcommaaccent" unicode="&#x136;" horiz-adv-x="1161" 
d="M1022 0h-98l-576 748h-2l-186 -748h-76l362 1458h76l-168 -670h4l842 670h119l-883 -698zM356 -500h-41l113 201h-27l37 147h84l-35 -147z" />
    <glyph glyph-name="kcommaaccent" unicode="&#x137;" horiz-adv-x="935" 
d="M817 0h-94l-459 553h-4l-135 -553h-74l363 1458h73l-215 -864h2l625 446h117l-668 -479zM252 -500h-41l113 201h-27l37 147h84l-35 -147z" />
    <glyph glyph-name="kgreenlandic" unicode="&#x138;" horiz-adv-x="966" 
d="M817 0h-94l-459 553h-4l-135 -553h-74l258 1040h74l-111 -446h2l625 446h117l-668 -479z" />
    <glyph glyph-name="Lacute" unicode="&#x139;" horiz-adv-x="1101" 
d="M975 72l-17 -72h-874l362 1458h76l-346 -1386h799zM469 1556l264 267h107l-289 -267h-82z" />
    <glyph glyph-name="lacute" unicode="&#x13a;" horiz-adv-x="432" 
d="M51 0l363 1458h73l-362 -1458h-74zM440 1591l254 285h105l-279 -285h-80z" />
    <glyph glyph-name="Lcommaaccent" unicode="&#x13b;" horiz-adv-x="1101" 
d="M975 72l-17 -72h-874l362 1458h76l-346 -1386h799zM358 -500h-41l113 201h-27l37 147h84l-35 -147z" />
    <glyph glyph-name="lcommaaccent" unicode="&#x13c;" horiz-adv-x="432" 
d="M51 0l363 1458h73l-362 -1458h-74zM-66 -500h-40l112 201h-26l36 147h84l-34 -147z" />
    <glyph glyph-name="Lcaron" unicode="&#x13d;" horiz-adv-x="1101" 
d="M975 72l-17 -72h-874l362 1458h76l-346 -1386h799zM567 1020l183 438h79l-208 -438h-54z" />
    <glyph glyph-name="lcaron" unicode="&#x13e;" horiz-adv-x="432" 
d="M51 0l363 1458h73l-362 -1458h-74zM500 1100l162 358h79l-186 -358h-55z" />
    <glyph glyph-name="Ldot" unicode="&#x13f;" horiz-adv-x="1265" 
d="M975 72l-17 -72h-874l362 1458h76l-346 -1386h799zM887 729l39 162h100l-39 -162h-100z" />
    <glyph glyph-name="ldot" unicode="&#x140;" horiz-adv-x="665" 
d="M51 0l363 1458h73l-362 -1458h-74zM530 645l39 162h101l-39 -162h-101z" />
    <glyph glyph-name="Lslash" unicode="&#x141;" horiz-adv-x="1101" 
d="M958 0h-874l162 649l-197 -102l23 86l194 102l180 723h76l-172 -686l375 195l-20 -86l-375 -195l-154 -614h799z" />
    <glyph glyph-name="lslash" unicode="&#x142;" horiz-adv-x="503" 
d="M362 817l-202 -817h-74l195 780l-226 -116l21 84l225 114l148 596h73l-139 -557l225 117l-22 -84z" />
    <glyph glyph-name="Nacute" unicode="&#x143;" horiz-adv-x="1495" 
d="M1042 0l-258 668q-166 424 -278 714h-2l-344 -1382h-76l362 1458h111l258 -667q166 -424 279 -715h2q94 379 120 479t70 285l154 618h78l-363 -1458h-113zM893 1556l264 267h107l-289 -267h-82z" />
    <glyph glyph-name="nacute" unicode="&#x144;" horiz-adv-x="1124" 
d="M342 864q141 197 383 197q123 0 201 -74t78 -217q0 -70 -25 -162l-152 -608h-73l153 614q20 82 21 152q0 229 -232 229q-90 0 -175 -44t-148.5 -125t-89.5 -189l-160 -637h-74l260 1040h74l-45 -176h4zM621 1174l253 284h105l-279 -284h-79z" />
    <glyph glyph-name="Ncommaaccent" unicode="&#x145;" horiz-adv-x="1495" 
d="M1042 0l-258 668q-166 424 -278 714h-2l-344 -1382h-76l362 1458h111l258 -667q166 -424 279 -715h2q94 379 120 479t70 285l154 618h78l-363 -1458h-113zM457 -500h-41l112 201h-26l37 147h84l-35 -147z" />
    <glyph glyph-name="ncommaaccent" unicode="&#x146;" horiz-adv-x="1124" 
d="M342 864q141 197 383 197q123 0 201 -74t78 -217q0 -70 -25 -162l-152 -608h-73l153 614q20 82 21 152q0 229 -232 229q-90 0 -175 -44t-148.5 -125t-89.5 -189l-160 -637h-74l260 1040h74l-45 -176h4zM272 -500h-41l113 201h-27l37 147h84l-35 -147z" />
    <glyph glyph-name="Ncaron" unicode="&#x147;" horiz-adv-x="1495" 
d="M1042 0l-258 668q-166 424 -278 714h-2l-344 -1382h-76l362 1458h111l258 -667q166 -424 279 -715h2q94 379 120 479t70 285l154 618h78l-363 -1458h-113zM967 1556l-174 267h79l140 -213l245 213h99l-307 -267h-82z" />
    <glyph glyph-name="ncaron" unicode="&#x148;" horiz-adv-x="1124" 
d="M342 864q141 197 383 197q123 0 201 -74t78 -217q0 -70 -25 -162l-152 -608h-73l153 614q20 82 21 152q0 229 -232 229q-90 0 -175 -44t-148.5 -125t-89.5 -189l-160 -637h-74l260 1040h74l-45 -176h4zM686 1174l-168 284h78l135 -231l250 231h96l-309 -284h-82z" />
    <glyph glyph-name="napostrophe" unicode="&#x149;" horiz-adv-x="1265" 
d="M307 1036h-55l127 260h-29l41 162h96l-38 -162zM483 864q141 197 383 197q123 0 201 -74t78 -217q0 -70 -25 -162l-151 -608h-74l154 614q20 82 20 152q0 229 -231 229q-90 0 -175 -44t-148.5 -125t-90.5 -189l-160 -637h-74l261 1040h73l-45 -176h4z" />
    <glyph glyph-name="Eng" unicode="&#x14a;" horiz-adv-x="1495" 
d="M825 -385q-33 0 -63 10l14 64q29 -4 47 -4q88 0 144.5 52t89.5 181l20 82l-569 1382h-4q-59 -246 -185 -739l-159 -643h-76l362 1458h111l547 -1331h4l332 1331h78l-390 -1556q-39 -154 -113.5 -220.5t-189.5 -66.5z" />
    <glyph glyph-name="eng" unicode="&#x14b;" horiz-adv-x="1124" 
d="M342 864q141 197 383 197q123 0 201 -74t78 -217q0 -72 -25 -162l-178 -710q-39 -154 -113 -218.5t-184 -64.5q-31 0 -68 8l17 68q23 -6 47 -6q88 0 144 51t89 180l174 698q20 82 21 152q0 229 -232 229q-90 0 -175 -44t-148.5 -125t-89.5 -189l-160 -637h-74l260 1040
h74l-45 -176h4z" />
    <glyph glyph-name="Omacron" unicode="&#x14c;" 
d="M215 545q0 -213 119 -353.5t330 -140.5t365.5 128t236.5 324.5t82 409.5t-120 353.5t-331 140.5t-364.5 -129t-235.5 -324.5t-82 -408.5zM1425 875.5q0 -193.5 -91 -406.5t-264 -352.5t-404 -139.5q-166 0 -285 74t-181.5 206t-62.5 325.5t91 406.5t263.5 352.5
t403.5 139.5q166 0 285.5 -74t182 -206t62.5 -325.5zM709 1634l16 66h496l-17 -66h-495z" />
    <glyph glyph-name="omacron" unicode="&#x14d;" horiz-adv-x="1103" 
d="M160 377.5q0 -150.5 79.5 -241.5t229 -91t256 93t161 232.5t54.5 291t-81 242.5t-229.5 91t-255 -93t-160.5 -233.5t-54 -291zM1016 643q0 -152 -64.5 -306.5t-189.5 -257t-301 -102.5t-275.5 110t-99.5 286t63.5 330.5t187.5 257t301 102.5t277.5 -110.5t100.5 -309.5z
M459 1305l16 65h496l-17 -65h-495z" />
    <glyph glyph-name="Obreve" unicode="&#x14e;" 
d="M215 545q0 -213 119 -353.5t330 -140.5t365.5 128t236.5 324.5t82 409.5t-120 353.5t-331 140.5t-364.5 -129t-235.5 -324.5t-82 -408.5zM1425 875.5q0 -193.5 -91 -406.5t-264 -352.5t-404 -139.5q-166 0 -285 74t-181.5 206t-62.5 325.5t91 406.5t263.5 352.5
t403.5 139.5q166 0 285.5 -74t182 -206t62.5 -325.5zM950 1616q211 0 281 207h69q-40 -129 -130.5 -200t-214.5 -71t-186 58.5t-62 167.5q0 29 4 45h61q-2 -12 -2 -37q0 -170 180 -170z" />
    <glyph glyph-name="obreve" unicode="&#x14f;" horiz-adv-x="1103" 
d="M160 377.5q0 -150.5 79.5 -241.5t229 -91t256 93t161 232.5t54.5 291t-81 242.5t-229.5 91t-255 -93t-160.5 -233.5t-54 -291zM1016 643q0 -152 -64.5 -306.5t-189.5 -257t-301 -102.5t-275.5 110t-99.5 286t63.5 330.5t187.5 257t301 102.5t277.5 -110.5t100.5 -309.5z
M688 1251q210 0 281 207h69q-41 -129 -131 -199.5t-214 -70.5t-185.5 58.5t-61.5 168.5q0 27 3 43h61q-2 -12 -2 -37q0 -170 180 -170z" />
    <glyph glyph-name="Ohungarumlaut" unicode="&#x150;" 
d="M215 545q0 -213 119 -353.5t330 -140.5t365.5 128t236.5 324.5t82 409.5t-120 353.5t-331 140.5t-364.5 -129t-235.5 -324.5t-82 -408.5zM1425 875.5q0 -193.5 -91 -406.5t-264 -352.5t-404 -139.5q-166 0 -285 74t-181.5 206t-62.5 325.5t91 406.5t263.5 352.5
t403.5 139.5q166 0 285.5 -74t182 -206t62.5 -325.5zM975 1550l303 273h104l-327 -273h-80zM729 1550l303 273h105l-328 -273h-80z" />
    <glyph glyph-name="ohungarumlaut" unicode="&#x151;" horiz-adv-x="1103" 
d="M160 377.5q0 -150.5 79.5 -241.5t229 -91t256 93t161 232.5t54.5 291t-81 242.5t-229.5 91t-255 -93t-160.5 -233.5t-54 -291zM1016 643q0 -152 -64.5 -306.5t-189.5 -257t-301 -102.5t-275.5 110t-99.5 286t63.5 330.5t187.5 257t301 102.5t277.5 -110.5t100.5 -309.5z
M711 1174l305 284h104l-329 -284h-80zM467 1174l303 284h107l-332 -284h-78z" />
    <glyph glyph-name="OE" unicode="&#x152;" horiz-adv-x="1996" 
d="M225 623q0 -268 131 -409.5t383 -141.5h133l328 1314h-207q-256 0 -430 -115.5t-256 -291.5t-82 -356zM737 0q-291 0 -440.5 159.5t-149.5 458.5q0 203 92.5 395.5t283 318.5t470.5 126h1092l-19 -72h-788l-150 -602h754l-18 -71h-754l-160 -641h817l-18 -72h-1012z" />
    <glyph glyph-name="oe" unicode="&#x153;" horiz-adv-x="1773" 
d="M879 669.5q0 149.5 -70 237.5t-204 88t-237.5 -95t-156.5 -237.5t-53 -292t69.5 -237.5t203.5 -88t237.5 95.5t157 237.5t53.5 291.5zM1636 702q0 141 -67.5 218t-202.5 77t-252 -114.5t-168 -302.5h676q14 57 14 122zM913 358q0 -154 69 -234.5t193 -80.5t220 72.5
t143 191.5h78q-53 -147 -171 -238.5t-264 -91.5t-228.5 80t-98.5 228q-68 -137 -178.5 -222.5t-264 -85.5t-240.5 106.5t-87 281t62.5 332t183.5 262t272 104.5t235.5 -85t100.5 -241q72 145 184.5 235.5t263 90.5t235.5 -94.5t85 -268.5q0 -72 -31 -186h-743
q-19 -74 -19 -156z" />
    <glyph glyph-name="Racute" unicode="&#x154;" horiz-adv-x="1243" 
d="M1157 1118q0 268 -330 268h-323l-160 -638h352q158 0 261.5 58t151.5 143t48 169zM1237 1126q0 -92 -47 -182t-136 -154.5t-212 -84.5v-3q70 -25 104.5 -83t50.5 -189l54 -430h-76l-49 420q-10 98 -36 152.5t-77 79t-141 24.5h-344l-168 -676h-76l362 1458h385
q205 0 305.5 -86t100.5 -246zM719 1556l264 267h107l-289 -267h-82z" />
    <glyph glyph-name="racute" unicode="&#x155;" horiz-adv-x="677" 
d="M705 973q-158 0 -274 -101.5t-163 -293.5l-143 -578h-74l258 1040h74l-49 -194h2q150 201 385 201q34 -1 61 -7l-18 -71q-33 4 -59 4zM463 1174l254 284h104l-278 -284h-80z" />
    <glyph glyph-name="Rcommaaccent" unicode="&#x156;" horiz-adv-x="1243" 
d="M1157 1118q0 268 -330 268h-323l-160 -638h352q158 0 261.5 58t151.5 143t48 169zM1237 1126q0 -92 -47 -182t-136 -154.5t-212 -84.5v-3q70 -25 104.5 -83t50.5 -189l54 -430h-76l-49 420q-10 98 -36 152.5t-77 79t-141 24.5h-344l-168 -676h-76l362 1458h385
q205 0 305.5 -86t100.5 -246zM401 -500h-41l113 201h-27l37 147h84l-35 -147z" />
    <glyph glyph-name="rcommaaccent" unicode="&#x157;" horiz-adv-x="677" 
d="M705 973q-158 0 -274 -101.5t-163 -293.5l-143 -578h-74l258 1040h74l-49 -194h2q150 201 385 201q34 -1 61 -7l-18 -71q-33 4 -59 4zM-66 -500h-40l112 201h-26l36 147h84l-34 -147z" />
    <glyph glyph-name="Rcaron" unicode="&#x158;" horiz-adv-x="1243" 
d="M1157 1118q0 268 -330 268h-323l-160 -638h352q158 0 261.5 58t151.5 143t48 169zM1237 1126q0 -92 -47 -182t-136 -154.5t-212 -84.5v-3q70 -25 104.5 -83t50.5 -189l54 -430h-76l-49 420q-10 98 -36 152.5t-77 79t-141 24.5h-344l-168 -676h-76l362 1458h385
q205 0 305.5 -86t100.5 -246zM793 1556l-175 267h80l140 -213l245 213h99l-308 -267h-81z" />
    <glyph glyph-name="rcaron" unicode="&#x159;" horiz-adv-x="677" 
d="M705 973q-158 0 -274 -101.5t-163 -293.5l-143 -578h-74l258 1040h74l-49 -194h2q150 201 385 201q34 -1 61 -7l-18 -71q-33 4 -59 4zM528 1174l-168 284h78l135 -231l250 231h97l-310 -284h-82z" />
    <glyph glyph-name="Sacute" unicode="&#x15a;" horiz-adv-x="1200" 
d="M1186 1130q0 -68 -17 -131h-75q16 76 16 125q0 285 -348 285q-135 0 -227.5 -51t-137.5 -129t-45 -156q0 -115 74 -176t222 -109t224 -91q164 -90 164 -287q0 -106 -60.5 -206t-180 -163.5t-311 -63.5t-300 92.5t-108.5 274.5q0 72 16 143h78q-18 -80 -18 -139
q0 -299 356 -299q154 0 255 54.5t148 136.5t47 167t-37.5 139t-105 89t-189.5 77t-197 84q-155 87 -155 273q0 96 56.5 191.5t168 158t267.5 62.5q420 -1 420 -351zM678 1556l264 267h107l-289 -267h-82z" />
    <glyph glyph-name="sacute" unicode="&#x15b;" horiz-adv-x="944" 
d="M109 256q-1 -211 287 -211q146 0 232.5 68.5t86.5 176.5q0 110 -113 162q-55 26 -152.5 55.5t-151.5 56t-86 74.5t-32 126t43 146.5t127 110.5t222.5 42t223.5 -67.5t85 -192.5q0 -55 -13 -96h-73q12 47 12 90q0 96 -66.5 147t-197.5 51t-210 -63.5t-79 -164.5t94 -145
q45 -22 142 -51t160 -59.5t100.5 -82.5t37.5 -136t-46 -155.5t-138 -116t-240.5 -44.5t-239.5 72t-91 203q0 53 14 102h74q-12 -51 -12 -98zM489 1174l254 284h105l-279 -284h-80z" />
    <glyph glyph-name="Scircumflex" unicode="&#x15c;" horiz-adv-x="1200" 
d="M1186 1130q0 -68 -17 -131h-75q16 76 16 125q0 285 -348 285q-135 0 -227.5 -51t-137.5 -129t-45 -156q0 -115 74 -176t222 -109t224 -91q164 -90 164 -287q0 -106 -60.5 -206t-180 -163.5t-311 -63.5t-300 92.5t-108.5 274.5q0 72 16 143h78q-18 -80 -18 -139
q0 -299 356 -299q154 0 255 54.5t148 136.5t47 167t-37.5 139t-105 89t-189.5 77t-197 84q-155 87 -155 273q0 96 56.5 191.5t168 158t267.5 62.5q420 -1 420 -351zM901 1823l172 -267h-78l-139 213l-248 -213h-96l307 267h82z" />
    <glyph glyph-name="scircumflex" unicode="&#x15d;" horiz-adv-x="944" 
d="M109 256q-1 -211 287 -211q146 0 232.5 68.5t86.5 176.5q0 110 -113 162q-55 26 -152.5 55.5t-151.5 56t-86 74.5t-32 126t43 146.5t127 110.5t222.5 42t223.5 -67.5t85 -192.5q0 -55 -13 -96h-73q12 47 12 90q0 96 -66.5 147t-197.5 51t-210 -63.5t-79 -164.5t94 -145
q45 -22 142 -51t160 -59.5t100.5 -82.5t37.5 -136t-46 -155.5t-138 -116t-240.5 -44.5t-239.5 72t-91 203q0 53 14 102h74q-12 -51 -12 -98zM799 1174l-137 231l-250 -231h-95l310 284h82l168 -284h-78z" />
    <glyph glyph-name="Scedilla" unicode="&#x15e;" horiz-adv-x="1200" 
d="M76 344q0 72 16 143h78q-18 -80 -18 -139q0 -299 356 -299q154 0 255 54.5t148 136.5t47 167t-37.5 139t-105 89t-189.5 77t-197 84q-155 87 -155 273q0 96 56.5 191.5t168 158t267.5 62.5q420 -1 420 -351q0 -68 -17 -131h-75q16 76 16 125q0 285 -348 285
q-135 0 -227.5 -51t-137.5 -129t-45 -156q0 -115 74 -176t222 -109t224 -91q164 -90 164 -287q0 -100 -54 -194.5t-161.5 -160t-261.5 -75.5l-106 -115q16 4 34 4q61 0 96 -34t35 -101.5t-61 -116.5t-162.5 -49t-183.5 51l27 45q63 -41 146 -41t126 31t43 84q0 86 -100 86
q-37 0 -68 -10l-25 26l127 137q-411 8 -411 367z" />
    <glyph glyph-name="scedilla" unicode="&#x15f;" horiz-adv-x="944" 
d="M109 256q-1 -211 287 -211q146 0 232.5 68.5t86.5 176.5q0 110 -113 162q-55 26 -152.5 55.5t-151.5 56t-86 74.5t-32 126t43 146.5t127 110.5t222.5 42t223.5 -67.5t85 -192.5q0 -55 -13 -96h-73q12 47 12 90q0 96 -66.5 147t-197.5 51t-210 -63.5t-79 -164.5t94 -145
q45 -22 142 -51t160 -59q138 -67 138 -219q0 -78 -40.5 -146.5t-121.5 -113.5t-194 -53l-106 -115q16 4 34 4q61 0 96.5 -34t35.5 -101.5t-61.5 -116.5t-163 -49t-183.5 51l27 45q63 -41 146 -41t126 31t43 84q0 86 -100 86q-37 0 -68 -10l-25 26l127 137q-160 6 -243.5 77
t-83.5 198q0 53 14 102h74q-12 -51 -12 -98z" />
    <glyph glyph-name="Scaron" unicode="&#x160;" horiz-adv-x="1200" 
d="M1186 1130q0 -68 -17 -131h-75q16 76 16 125q0 285 -348 285q-135 0 -227.5 -51t-137.5 -129t-45 -156q0 -115 74 -176t222 -109t224 -91q164 -90 164 -287q0 -106 -60.5 -206t-180 -163.5t-311 -63.5t-300 92.5t-108.5 274.5q0 72 16 143h78q-18 -80 -18 -139
q0 -299 356 -299q154 0 255 54.5t148 136.5t47 167t-37.5 139t-105 89t-189.5 77t-197 84q-155 87 -155 273q0 96 56.5 191.5t168 158t267.5 62.5q420 -1 420 -351zM752 1556l-174 267h79l140 -213l245 213h99l-307 -267h-82z" />
    <glyph glyph-name="scaron" unicode="&#x161;" horiz-adv-x="944" 
d="M109 256q-1 -211 287 -211q146 0 232.5 68.5t86.5 176.5q0 110 -113 162q-55 26 -152.5 55.5t-151.5 56t-86 74.5t-32 126t43 146.5t127 110.5t222.5 42t223.5 -67.5t85 -192.5q0 -55 -13 -96h-73q12 47 12 90q0 96 -66.5 147t-197.5 51t-210 -63.5t-79 -164.5t94 -145
q45 -22 142 -51t160 -59.5t100.5 -82.5t37.5 -136t-46 -155.5t-138 -116t-240.5 -44.5t-239.5 72t-91 203q0 53 14 102h74q-12 -51 -12 -98zM555 1174l-168 284h78l135 -231l250 231h96l-309 -284h-82z" />
    <glyph glyph-name="uni0162" unicode="&#x162;" horiz-adv-x="882" 
d="M846 1386l-344 -1386h-76l344 1386h-539l17 72h1155l-19 -72h-538zM311 -500h-41l113 201h-27l37 147h84l-35 -147z" />
    <glyph glyph-name="uni0163" unicode="&#x163;" horiz-adv-x="581" 
d="M221 -152l-35 -147l-131 -201h-41l113 201h-27l37 147h84zM215 166q0 -103 119 -103q37 0 74 9l-19 -70q-27 -6 -67 -6q-92 0 -136.5 39t-44.5 106.5t17 126.5l178 707h-197l17 65h196l60 240h73l-59 -240h211l-16 -65h-211l-181 -719q-14 -51 -14 -90z" />
    <glyph glyph-name="Tcaron" unicode="&#x164;" horiz-adv-x="1185" 
d="M846 1386l-344 -1386h-76l344 1386h-539l17 72h1155l-19 -72h-538zM795 1556l-174 267h79l140 -213l245 213h99l-307 -267h-82z" />
    <glyph glyph-name="tcaron" unicode="&#x165;" horiz-adv-x="581" 
d="M215 166q0 -103 119 -103q37 0 74 9l-19 -70q-27 -6 -67 -6q-92 0 -136.5 39t-44.5 106.5t17 126.5l178 707h-197l17 65h196l60 240h73l-59 -240h211l-16 -65h-211l-181 -719q-14 -51 -14 -90zM539 1100l161 358h80l-186 -358h-55z" />
    <glyph glyph-name="Tbar" unicode="&#x166;" horiz-adv-x="1185" 
d="M713 852h311l-16 -68h-312l-194 -784h-76l195 784h-312l17 68h311l133 534h-539l17 72h1155l-19 -72h-538z" />
    <glyph glyph-name="tbar" unicode="&#x167;" horiz-adv-x="577" 
d="M215 166q0 -103 119 -103q37 0 74 9l-19 -70q-27 -6 -67 -6q-92 0 -136.5 39t-44.5 107t17 126l67 271h-188l14 61h191l94 375h-197l17 65h196l60 240h73l-59 -240h211l-16 -65h-211l-95 -375h207l-14 -61h-207l-72 -283q-14 -51 -14 -90z" />
    <glyph glyph-name="Utilde" unicode="&#x168;" horiz-adv-x="1400" 
d="M610 -23q-424 0 -424 404q0 92 31 209l217 868h76l-221 -889q-27 -100 -27 -186q0 -332 342 -332q193 0 325 111.5t187 333.5l242 962h76l-246 -983q-64 -246 -214.5 -372t-363.5 -126zM1118 1679q91 0 133 123h66q-29 -90 -82 -139t-108.5 -49t-87 16.5t-78.5 48.5
q-74 58 -123 58q-93 0 -131 -123h-66q27 90 80 139t108.5 49t87 -16.5t78.5 -48.5q37 -29 63.5 -43.5t59.5 -14.5z" />
    <glyph glyph-name="utilde" unicode="&#x169;" horiz-adv-x="1124" 
d="M782 176q-142 -196 -385 -196q-123 0 -199.5 74.5t-76.5 215.5q0 70 24 162l152 608h74l-154 -614q-20 -82 -20 -152q0 -115 59 -172t159.5 -57t186.5 44t149.5 125t90.5 189l159 637h74l-260 -1040h-74l43 176h-2zM889 1315q90 0 133 123h65q-28 -90 -81.5 -139.5
t-108.5 -49.5t-88 16.5t-75 48.5t-66.5 45t-57.5 13q-92 0 -131 -123h-65q27 90 80 139.5t108 49.5t88 -16.5t75 -48.5t66.5 -45t57.5 -13z" />
    <glyph glyph-name="Umacron" unicode="&#x16a;" horiz-adv-x="1400" 
d="M610 -23q-424 0 -424 404q0 92 31 209l217 868h76l-221 -889q-27 -100 -27 -186q0 -332 342 -332q193 0 325 111.5t187 333.5l242 962h76l-246 -983q-64 -246 -214.5 -372t-363.5 -126zM709 1634l16 66h496l-17 -66h-495z" />
    <glyph glyph-name="umacron" unicode="&#x16b;" horiz-adv-x="1124" 
d="M782 176q-142 -196 -385 -196q-123 0 -199.5 74.5t-76.5 215.5q0 70 24 162l152 608h74l-154 -614q-20 -82 -20 -152q0 -115 59 -172t159.5 -57t186.5 44t149.5 125t90.5 189l159 637h74l-260 -1040h-74l43 176h-2zM489 1305l17 65h495l-16 -65h-496z" />
    <glyph glyph-name="Ubreve" unicode="&#x16c;" horiz-adv-x="1400" 
d="M610 -23q-424 0 -424 404q0 92 31 209l217 868h76l-221 -889q-27 -100 -27 -186q0 -332 342 -332q193 0 325 111.5t187 333.5l242 962h76l-246 -983q-64 -246 -214.5 -372t-363.5 -126zM950 1616q211 0 281 207h69q-40 -129 -130.5 -200t-214.5 -71t-186 58.5t-62 167.5
q0 29 4 45h61q-2 -12 -2 -37q0 -170 180 -170z" />
    <glyph glyph-name="ubreve" unicode="&#x16d;" horiz-adv-x="1124" 
d="M782 176q-142 -196 -385 -196q-123 0 -199.5 74.5t-76.5 215.5q0 70 24 162l152 608h74l-154 -614q-20 -82 -20 -152q0 -115 59 -172t159.5 -57t186.5 44t149.5 125t90.5 189l159 637h74l-260 -1040h-74l43 176h-2zM721 1251q211 0 280 207h70q-41 -129 -131 -199.5
t-214 -70.5t-185.5 58.5t-61.5 168.5q0 27 2 43h62q-2 -12 -2 -37q0 -170 180 -170z" />
    <glyph glyph-name="Uring" unicode="&#x16e;" horiz-adv-x="1400" 
d="M610 -23q-424 0 -424 404q0 92 31 209l217 868h76l-221 -889q-27 -100 -27 -186q0 -332 342 -332q193 0 325 111.5t187 333.5l242 962h76l-246 -983q-64 -246 -214.5 -372t-363.5 -126zM831 1741q0 -55 39 -93t93.5 -38t92.5 38t38 93t-38 93t-92.5 38t-93.5 -38t-39 -93
zM1147 1741q0 -76 -53.5 -130.5t-130 -54.5t-131 54.5t-54.5 130.5t54.5 130t130 54t130 -54t54.5 -130z" />
    <glyph glyph-name="uring" unicode="&#x16f;" horiz-adv-x="1124" 
d="M782 176q-142 -196 -385 -196q-123 0 -199.5 74.5t-76.5 215.5q0 70 24 162l152 608h74l-154 -614q-20 -82 -20 -152q0 -115 59 -172t159.5 -57t186.5 44t149.5 125t90.5 189l159 637h74l-260 -1040h-74l43 176h-2zM604 1376.5q0 -55.5 38 -93.5t93.5 -38t93 38
t37.5 93.5t-37.5 93t-93 37.5t-93.5 -37.5t-38 -93zM920 1376q0 -76 -54.5 -130t-130.5 -54t-130 54t-54 131t54 130.5t130 53.5t130.5 -54.5t54.5 -130.5z" />
    <glyph glyph-name="Uhungarumlaut" unicode="&#x170;" horiz-adv-x="1400" 
d="M610 -23q-424 0 -424 404q0 92 31 209l217 868h76l-221 -889q-27 -100 -27 -186q0 -332 342 -332q193 0 325 111.5t187 333.5l242 962h76l-246 -983q-64 -246 -214.5 -372t-363.5 -126zM975 1550l303 273h104l-327 -273h-80zM729 1550l303 273h105l-328 -273h-80z" />
    <glyph glyph-name="uhungarumlaut" unicode="&#x171;" horiz-adv-x="1124" 
d="M782 176q-142 -196 -385 -196q-123 0 -199.5 74.5t-76.5 215.5q0 70 24 162l152 608h74l-154 -614q-20 -82 -20 -152q0 -115 59 -172t159.5 -57t186.5 44t149.5 125t90.5 189l159 637h74l-260 -1040h-74l43 176h-2zM743 1174l306 284h104l-330 -284h-80zM500 1174
l303 284h106l-331 -284h-78z" />
    <glyph glyph-name="Uogonek" unicode="&#x172;" horiz-adv-x="1400" 
d="M608 -258q0 -72 80 -72q39 0 76 13l-16 -62q-31 -10 -72 -10q-141 0 -141 125q0 63 45 121.5t151 130.5v4q-57 -14 -133 -15q-414 0 -414 396q0 88 29 209l221 876h76l-225 -897q-25 -104 -25 -186q0 -324 344 -324q195 0 327 116t189 345l238 946h76l-242 -966
q-74 -298 -264 -424t-255 -195.5t-65 -130.5z" />
    <glyph glyph-name="uogonek" unicode="&#x173;" horiz-adv-x="1124" 
d="M782 176q-142 -196 -384 -196q-122 0 -199.5 74.5t-77.5 215.5q0 70 24 162l152 608h74l-154 -614q-20 -82 -20 -152q0 -115 59 -172t159.5 -57t186.5 44t149.5 125t90.5 189l159 637h74l-260 -1040q-131 -84 -180 -144.5t-49 -113.5q0 -72 80 -72q43 0 75 13l-14 -62
q-35 -10 -74 -10q-141 0 -141 125q0 68 53 131t178 145l41 164h-2z" />
    <glyph glyph-name="Wcircumflex" unicode="&#x174;" horiz-adv-x="1794" 
d="M1135 0l-11 684q-8 467 -10 700h-4l-707 -1384h-120l-25 1458h74l24 -1384h4l365 721l340 663h123l8 -663q8 -477 10 -721h4l711 1384h84l-750 -1458h-120zM1262 1823l172 -267h-78l-139 213l-248 -213h-97l308 267h82z" />
    <glyph glyph-name="wcircumflex" unicode="&#x175;" horiz-adv-x="1527" 
d="M944 0l-65 971h-5l-83 -148q-74 -135 -179 -315l-286 -508h-109l-70 1040h74l62 -968h4q68 119 138.5 245.5t135.5 239.5l270 483h115l62 -968h4q59 102 178 315l366 653h82l-585 -1040h-109zM1124 1174l-137 231l-250 -231h-94l309 284h82l168 -284h-78z" />
    <glyph glyph-name="Ycircumflex" unicode="&#x176;" horiz-adv-x="1198" 
d="M508 0h-76l158 639l-344 819h82l309 -741h2l379 411l299 330h102l-751 -819zM938 1823l172 -267h-78l-139 213l-248 -213h-96l307 267h82z" />
    <glyph glyph-name="ycircumflex" unicode="&#x177;" horiz-adv-x="905" 
d="M-96.5 -387q-69.5 0 -104.5 14l17 66q35 -12 91 -12t110.5 25.5t113.5 93t148 200.5l-152 1040h74l135 -944h4l610 944h86l-694 -1071q-94 -145 -163.5 -221t-137.5 -105.5t-137.5 -29.5zM778 1174l-137 231l-250 -231h-94l309 284h82l168 -284h-78z" />
    <glyph glyph-name="Ydieresis" unicode="&#x178;" horiz-adv-x="1198" 
d="M508 0h-76l158 639l-344 819h82l309 -741h2l379 411l299 330h102l-751 -819zM989 1595l43 166h74l-43 -166h-74zM614 1595l43 166h74l-43 -166h-74z" />
    <glyph glyph-name="Zacute" unicode="&#x179;" horiz-adv-x="1128" 
d="M16 72h967l-18 -72h-1059l22 92l1248 1290v4h-912l17 72h1003l-22 -92l-1246 -1290v-4zM674 1556l264 267h106l-288 -267h-82z" />
    <glyph glyph-name="zacute" unicode="&#x17a;" horiz-adv-x="921" 
d="M29 68h735l-16 -68h-832l21 82l937 887v4h-694l17 67h790l-20 -82l-938 -886v-4zM489 1174l254 284h105l-279 -284h-80z" />
    <glyph glyph-name="Zdotaccent" unicode="&#x17b;" horiz-adv-x="1128" 
d="M16 72h967l-18 -72h-1059l22 92l1248 1290v4h-912l17 72h1003l-22 -92l-1246 -1290v-4zM760 1595l43 166h74l-43 -166h-74z" />
    <glyph glyph-name="zdotaccent" unicode="&#x17c;" horiz-adv-x="921" 
d="M29 68h735l-16 -68h-832l21 82l937 887v4h-694l17 67h790l-20 -82l-938 -886v-4zM588 1292l41 166h73l-40 -166h-74z" />
    <glyph glyph-name="Zcaron" unicode="&#x17d;" horiz-adv-x="1128" 
d="M16 72h967l-18 -72h-1059l22 92l1248 1290v4h-912l17 72h1003l-22 -92l-1246 -1290v-4zM748 1556l-175 267h80l140 -213l245 213h99l-308 -267h-81z" />
    <glyph glyph-name="zcaron" unicode="&#x17e;" horiz-adv-x="921" 
d="M29 68h735l-16 -68h-832l21 82l937 887v4h-694l17 67h790l-20 -82l-938 -886v-4zM553 1174l-168 284h78l135 -231l250 231h96l-309 -284h-82z" />
    <glyph glyph-name="longs" unicode="&#x17f;" horiz-adv-x="548" 
d="M678 1399q-82 0 -134 -50.5t-79 -158.5l-297 -1190h-74l244 975h-195l17 65h194l41 168q63 256 281 256q47 0 74 -8l-17 -65q-29 8 -55 8z" />
    <glyph glyph-name="Schwa" unicode="&#x18f;" 
d="M186 494q0 -213 118 -329t304 -116t327.5 79t242 223.5t143.5 332.5h-1104q-31 -92 -31 -190zM1434 928q0 -217 -95.5 -437.5t-278.5 -367t-429 -146.5t-383 136.5t-137 382.5q0 129 49 260h1177q16 84 17 176q0 229 -117 353t-322 124t-362.5 -105.5t-226.5 -277.5h-84
q78 205 257 330t421 125t378 -145.5t136 -407.5z" />
    <glyph glyph-name="florin" unicode="&#x192;" horiz-adv-x="1064" 
d="M-90 -383q-62 0 -82 6l16 70q18 -6 52 -6q92 0 160.5 60t154.5 228l461 920h-203l14 63h219l103 201q88 172 169 238.5t206 66.5q36 0 67 -10l-16 -68q-25 6 -60 7q-96 0 -158.5 -53.5t-131.5 -192.5l-97 -189h211l-14 -63h-227l-471 -936q-125 -249 -218 -295.5
t-155 -46.5z" />
    <glyph glyph-name="Aringacute" unicode="&#x1fa;" horiz-adv-x="1327" 
d="M985 764q-18 113 -45 283l-55 344h-2l-529 -807h660zM307 512l-336 -512h-88l961 1458h104l236 -1458h-78l-82 512h-717zM780 1685.5q0 -55.5 39 -93.5t93 -38t92 38t38 93.5t-37.5 93.5t-92 38t-93.5 -38t-39 -93.5zM1096 1685.5q0 -75.5 -53.5 -130t-130.5 -54.5
t-131 54.5t-54 130t54.5 130t130 54.5t130 -54.5t54.5 -130zM809 1907l264 266h107l-289 -266h-82z" />
    <glyph glyph-name="aringacute" unicode="&#x1fb;" horiz-adv-x="1040" 
d="M98 248q0 -96 64.5 -149.5t177.5 -53.5q162 0 278.5 100.5t161.5 280.5l33 131q-212 -16 -362 -41q-199 -29 -276 -100.5t-77 -167.5zM852 764q0 233 -264 233q-127 0 -216 -73.5t-116 -196.5h-78q33 152 145.5 244t269.5 92t243 -75t86 -224q0 -53 -19 -137l-98 -389
q-35 -137 -39 -238h-72q2 66 33 190h-2q-139 -211 -397 -210q-143 0 -225.5 70.5t-82.5 192.5t96.5 213t301 122t411.5 45l7 24q16 70 16 117zM543 1333.5q0 -55.5 37.5 -93.5t93 -38t93.5 38t38 93.5t-38 93t-93.5 37.5t-93 -37.5t-37.5 -93zM858 1333q0 -76 -54 -130
t-130 -54t-130.5 54t-54.5 131t54.5 130.5t130.5 53.5t130 -54.5t54 -130.5zM594 1579l254 285h104l-278 -285h-80z" />
    <glyph glyph-name="AEacute" unicode="&#x1fc;" horiz-adv-x="1869" 
d="M1020 1386l-590 -765h557l70 765h-37zM1073 784h682l-18 -71h-670l-59 -641h632l-18 -72h-694l51 549h-604l-424 -549h-92l1122 1458h977l-19 -72h-809zM1186 1556l264 267h106l-288 -267h-82z" />
    <glyph glyph-name="aeacute" unicode="&#x1fd;" horiz-adv-x="1705" 
d="M504 514q-219 0 -312.5 -77t-93.5 -181t63.5 -158.5t180.5 -54.5q160 0 274.5 107.5t157.5 298.5l19 65h-289zM1294 997q-138 0 -254 -114.5t-163 -302.5h677q12 57 13 112q-1 305 -273 305zM901 803q153 260 423 260q142 0 227 -97.5t85 -275.5q0 -72 -26 -176h-750
q-16 -71 -16 -145q0 -158 70.5 -242t193.5 -84t220 72.5t140 191.5h78q-53 -145 -169.5 -237.5t-264 -92.5t-228.5 83t-98 237q-61 -147 -182 -233.5t-267.5 -86.5t-231.5 70t-85 193q0 198 200 290q108 50 286 50h301l18 67q14 68 15 105q0 245 -253 245q-126 0 -215 -73.5
t-116 -196.5h-78q33 152 145.5 244t260.5 92q294 0 317 -260zM905 1174l254 284h105l-279 -284h-80z" />
    <glyph glyph-name="Oslashacute" unicode="&#x1fe;" 
d="M313 219q117 -168 339.5 -168t377 128t236.5 324.5t81.5 378t-61.5 298.5zM215 578q0 -180 61 -299l971 962q-118 166 -339.5 166t-375 -129t-235.5 -324.5t-82 -375.5zM915 1481q249 0 390 -183l143 142l51 -49l-153 -152q79 -141 79 -347t-92 -420t-265 -354.5
t-421 -140.5t-391 185l-145 -144l-50 50l156 153q-80 137 -80 345t91 421t264.5 353.5t422.5 140.5zM872 1556l265 267h106l-289 -267h-82z" />
    <glyph glyph-name="oslashacute" unicode="&#x1ff;" horiz-adv-x="1103" 
d="M942 629.5q0 119.5 -33 197.5l-684 -677q80 -104 232.5 -104.5t262 92.5t166 232.5t56.5 259zM160 405q0 -123 33 -196l686 678q-80 109 -233.5 108.5t-263.5 -93.5t-166 -233.5t-56 -263.5zM1016 638.5q0 -149.5 -65.5 -303t-192.5 -256t-307 -102.5t-279 121l-123 -121
l-45 46l133 131q-51 96 -51 245.5t65.5 304t192.5 257t309 102.5t277 -125l123 121l47 -45l-133 -131q49 -95 49 -244.5zM610 1174l254 284h105l-279 -284h-80z" />
    <glyph glyph-name="Scommaaccent" unicode="&#x218;" horiz-adv-x="1200" 
d="M1186 1130q0 -68 -17 -131h-75q16 76 16 125q0 285 -348 285q-135 0 -227.5 -51t-137.5 -129t-45 -156q0 -115 74 -176t222 -109t224 -91q164 -90 164 -287q0 -106 -60.5 -206t-180 -163.5t-311 -63.5t-300 92.5t-108.5 274.5q0 72 16 143h78q-18 -80 -18 -139
q0 -299 356 -299q154 0 255 54.5t148 136.5t47 167t-37.5 139t-105 89t-189.5 77t-197 84q-155 87 -155 273q0 96 56.5 191.5t168 158t267.5 62.5q420 -1 420 -351zM334 -500h-41l113 201h-27l37 147h84l-35 -147z" />
    <glyph glyph-name="scommaaccent" unicode="&#x219;" horiz-adv-x="944" 
d="M109 256q-1 -211 287 -211q146 0 232.5 68.5t86.5 176.5q0 110 -113 162q-55 26 -152.5 55.5t-151.5 56t-86 74.5t-32 126t43 146.5t127 110.5t222.5 42t223.5 -67.5t85 -192.5q0 -55 -13 -96h-73q12 47 12 90q0 96 -66.5 147t-197.5 51t-210 -63.5t-79 -164.5t94 -145
q45 -22 142 -51t160 -59.5t100.5 -82.5t37.5 -136t-46 -155.5t-138 -116t-240.5 -44.5t-239.5 72t-91 203q0 53 14 102h74q-12 -51 -12 -98zM207 -500h-41l113 201h-27l37 147h84l-35 -147z" />
    <glyph glyph-name="uni021A" unicode="&#x21a;" horiz-adv-x="1185" 
d="M846 1386l-344 -1386h-76l344 1386h-539l17 72h1155l-19 -72h-538zM311 -500h-41l113 201h-27l37 147h84l-35 -147z" />
    <glyph glyph-name="uni021B" unicode="&#x21b;" horiz-adv-x="581" 
d="M215 166q0 -103 119 -103q37 0 74 9l-19 -70q-27 -6 -67 -6q-92 0 -136.5 39t-44.5 106.5t17 126.5l178 707h-197l17 65h196l60 240h73l-59 -240h211l-16 -65h-211l-181 -719q-14 -51 -14 -90zM55 -500h-41l113 201h-27l37 147h84l-35 -147z" />
    <glyph glyph-name="dotlessj" unicode="&#x237;" horiz-adv-x="450" 
d="M-182 -385q-29 0 -66 8l15 68q23 -6 47 -6q90 0 146 52t89 183l279 1120h73l-284 -1138q-39 -154 -114 -220.5t-185 -66.5z" />
    <glyph glyph-name="schwa" unicode="&#x259;" horiz-adv-x="1077" 
d="M442 43q152 0 280 119t175 317h-739q-18 -63 -19 -131q0 -147 75.5 -226t227.5 -79zM995 684q0 -172 -67.5 -333t-197.5 -267.5t-302 -106.5t-265 97.5t-93 275.5q0 90 36 195h803q14 63 15 127q0 158 -78 241.5t-213 83.5t-238.5 -67.5t-152.5 -177.5h-76
q55 137 179 224t293 87t263 -103.5t94 -275.5z" />
    <glyph glyph-name="uni02BC" unicode="&#x2bc;" horiz-adv-x="389" 
d="M307 1036h-55l127 260h-29l41 162h96l-38 -162z" />
    <glyph glyph-name="circumflex" unicode="&#x2c6;" horiz-adv-x="765" 
d="M748 1174l-138 231l-250 -231h-94l309 284h82l168 -284h-77z" />
    <glyph glyph-name="caron" unicode="&#x2c7;" horiz-adv-x="765" 
d="M506 1174l-168 284h78l135 -231l250 231h96l-309 -284h-82z" />
    <glyph glyph-name="uni02C9" unicode="&#x2c9;" horiz-adv-x="702" 
d="M299 1305l16 65h496l-16 -65h-496z" />
    <glyph glyph-name="breve" unicode="&#x2d8;" horiz-adv-x="794" 
d="M575 1251q210 0 281 207h70q-41 -129 -131.5 -199.5t-214.5 -70.5q-246 0 -246 227q0 27 2 43h61q-2 -12 -2 -37q0 -170 180 -170z" />
    <glyph glyph-name="dotaccent" unicode="&#x2d9;" horiz-adv-x="280" 
d="M297 1292l41 166h74l-41 -166h-74z" />
    <glyph glyph-name="ring" unicode="&#x2da;" horiz-adv-x="583" 
d="M375 1376.5q0 -55.5 38 -93.5t93 -38t93 38t38 93.5t-38 93t-93 37.5t-93 -37.5t-38 -93zM690 1376q0 -76 -54 -130t-130 -54t-130 54t-54 131t54 130.5t130 53.5t130 -54.5t54 -130.5z" />
    <glyph glyph-name="ogonek" unicode="&#x2db;" horiz-adv-x="454" 
d="M53 -389q-141 0 -141 125q0 68 53 132t180 144l70 -12q-131 -84 -180 -144.5t-49 -113.5q0 -72 80 -72q43 0 75 13l-14 -62q-35 -10 -74 -10z" />
    <glyph glyph-name="tilde" unicode="&#x2dc;" horiz-adv-x="833" 
d="M762 1315q90 0 133 123h66q-29 -90 -82.5 -139.5t-108.5 -49.5t-88 16.5t-75 48.5t-66.5 45t-57.5 13q-92 0 -131 -123h-65q27 90 80 139.5t108 49.5t88 -16.5t75 -48.5t66.5 -45t57.5 -13z" />
    <glyph glyph-name="hungarumlaut" unicode="&#x2dd;" horiz-adv-x="788" 
d="M510 1174l305 284h105l-330 -284h-80zM266 1174l303 284h107l-332 -284h-78z" />
    <glyph glyph-name="uni0312" unicode="&#x312;" horiz-adv-x="0" 
d="M393 1350l-37 -148h-84l37 148l129 200h43l-114 -200h26z" />
    <glyph glyph-name="commaaccent" unicode="&#x326;" horiz-adv-x="0" 
d="M-109 -500h-41l113 201h-26l36 147h84l-34 -147z" />
    <glyph glyph-name="uni0333" unicode="&#x333;" horiz-adv-x="0" 
d="M-1253 -401l12 53h1024l-12 -53h-1024zM-1192 -156l12 54h1024l-12 -54h-1024z" />
    <glyph glyph-name="numeralsigngreek" unicode="&#x374;" horiz-adv-x="290" 
d="M190 1040l193 418h80l-219 -418h-54z" />
    <glyph glyph-name="numeralsignlowergreek" unicode="&#x375;" horiz-adv-x="290" 
d="M-117 -188l193 417h80l-219 -417h-54z" />
    <glyph glyph-name="questiongreek" unicode="&#x37e;" horiz-adv-x="350" 
d="M-37 -260h-55l127 260h-27l39 162h98l-41 -162zM225 879l39 161h101l-39 -161h-101z" />
    <glyph glyph-name="tonos" unicode="&#x384;" horiz-adv-x="378" 
d="M268 1182l174 317h78l-190 -317h-62z" />
    <glyph glyph-name="dieresistonos" unicode="&#x385;" horiz-adv-x="745" 
d="M741 1214l43 170h74l-43 -170h-74zM276 1214l41 170h74l-41 -170h-74zM467 1182l151 280h74l-164 -280h-61z" />
    <glyph glyph-name="Alphatonos" unicode="&#x386;" horiz-adv-x="1327" 
d="M985 764q-18 113 -45 283l-55 344h-2l-529 -807h660zM307 512l-336 -512h-88l961 1458h104l236 -1458h-78l-82 512h-717zM291 1059l194 399h78l-211 -399h-61z" />
    <glyph glyph-name="anoteleia" unicode="&#x387;" horiz-adv-x="350" 
d="M215 879l39 161h100l-39 -161h-100z" />
    <glyph glyph-name="Epsilontonos" unicode="&#x388;" horiz-adv-x="1222" 
d="M504 1386l-150 -602h754l-18 -71h-752l-162 -641h817l-16 -72h-893l362 1458h867l-19 -72h-790zM18 1059l195 399h78l-211 -399h-62z" />
    <glyph glyph-name="Etatonos" unicode="&#x389;" horiz-adv-x="1468" 
d="M1051 0l180 721h-891l-180 -721h-76l362 1458h76l-166 -665h893l164 665h78l-363 -1458h-77zM18 1059l195 399h78l-211 -399h-62z" />
    <glyph glyph-name="Iotatonos" unicode="&#x38a;" horiz-adv-x="501" 
d="M84 0l362 1458h76l-362 -1458h-76zM18 1059l195 399h78l-211 -399h-62z" />
    <glyph glyph-name="Omicrontonos" unicode="&#x38c;" 
d="M215 545q0 -213 119 -353.5t330 -140.5t365.5 128t236.5 324.5t82 409.5t-120 353.5t-331 140.5t-364.5 -129t-235.5 -324.5t-82 -408.5zM1425 875.5q0 -193.5 -91 -406.5t-264 -352.5t-404 -139.5q-166 0 -285 74t-181.5 206t-62.5 325.5t91 406.5t263.5 352.5
t403.5 139.5q166 0 285.5 -74t182 -206t62.5 -325.5zM66 1059l194 399h78l-211 -399h-61z" />
    <glyph glyph-name="Upsilontonos" unicode="&#x38e;" horiz-adv-x="1198" 
d="M508 0h-76l158 639l-344 819h82l309 -741h2l379 411l299 330h102l-751 -819zM-102 1059l194 399h78l-211 -399h-61z" />
    <glyph glyph-name="Omegatonos" unicode="&#x38f;" horiz-adv-x="1474" 
d="M1446 991q0 -244 -143.5 -466t-425.5 -449v-4h395l-19 -72h-495l18 74q301 242 444.5 458t143.5 439t-119 329.5t-329.5 106.5t-361.5 -109.5t-227.5 -278.5t-76.5 -337t54 -309.5t157 -298.5l-19 -74h-479l17 72h399v4q-98 154 -151.5 298t-53.5 322.5t85 362.5t254 303
t410.5 119t382 -123t140.5 -367zM68 1059l194 399h78l-211 -399h-61z" />
    <glyph glyph-name="iotadieresistonos" unicode="&#x390;" horiz-adv-x="489" 
d="M168 170q0 -108 123 -109q37 0 63 11l-16 -70q-23 -8 -57 -8q-94 0 -140.5 42t-46.5 136q0 49 21 137l182 731h74l-183 -735q-20 -81 -20 -135zM573 1214l43 170h74l-43 -170h-74zM109 1214l41 170h73l-41 -170h-73zM299 1182l152 280h73l-164 -280h-61z" />
    <glyph glyph-name="Alpha" unicode="&#x391;" horiz-adv-x="1327" 
d="M985 764q-18 113 -45 283l-55 344h-2l-529 -807h660zM307 512l-336 -512h-88l961 1458h104l236 -1458h-78l-82 512h-717z" />
    <glyph glyph-name="Beta" unicode="&#x392;" horiz-adv-x="1228" 
d="M578 70q143 0 241 56t146 141q47 85 47 171q0 129 -81 201t-249 72h-344l-162 -641h402zM686 780q164 0 270 56t154 140q47 83 47 167q0 246 -332 246h-319l-152 -609h332zM1235 1147q0 -84 -42 -167q-42 -84 -124 -148t-197 -89v-4q102 -23 161 -101t59 -190t-58 -214
t-175 -168q-116 -66 -279 -66h-496l362 1458h392q199 0 298 -83t99 -228z" />
    <glyph glyph-name="Gamma" unicode="&#x393;" horiz-adv-x="954" 
d="M446 1458h728l-19 -72h-651l-344 -1386h-76z" />
    <glyph glyph-name="uni0394" unicode="&#x394;" horiz-adv-x="1325" 
d="M987 764q-18 113 -45 283l-55 344h-2q-385 -595 -412 -627l-453 -692h1078zM-117 0l961 1458h104l236 -1458h-1301z" />
    <glyph glyph-name="Epsilon" unicode="&#x395;" horiz-adv-x="1222" 
d="M504 1386l-150 -602h754l-18 -71h-752l-162 -641h817l-16 -72h-893l362 1458h867l-19 -72h-790z" />
    <glyph glyph-name="Zeta" unicode="&#x396;" horiz-adv-x="1128" 
d="M16 72h967l-18 -72h-1059l22 92l1248 1290v4h-912l17 72h1003l-22 -92l-1246 -1290v-4z" />
    <glyph glyph-name="Eta" unicode="&#x397;" horiz-adv-x="1468" 
d="M1051 0l180 721h-891l-180 -721h-76l362 1458h76l-166 -665h893l164 665h78l-363 -1458h-77z" />
    <glyph glyph-name="Theta" unicode="&#x398;" 
d="M451 692l18 76h641l-18 -76h-641zM215 545q0 -213 119 -353.5t330 -140.5t365.5 128t236.5 324.5t82 409.5t-120 353.5t-331 140.5t-364.5 -129t-235.5 -324.5t-82 -408.5zM1425 878q0 -192 -92 -406t-265 -354.5t-406 -140.5q-164 0 -283 73t-180.5 204.5t-61.5 325.5
t91 407t264.5 353.5t406.5 140.5q164 0 282.5 -73t181 -205.5t62.5 -324.5z" />
    <glyph glyph-name="Iota" unicode="&#x399;" horiz-adv-x="501" 
d="M84 0l362 1458h76l-362 -1458h-76z" />
    <glyph glyph-name="Kappa" unicode="&#x39a;" horiz-adv-x="1161" 
d="M1022 0h-98l-576 748h-2l-186 -748h-76l362 1458h76l-168 -670h4l842 670h119l-883 -698z" />
    <glyph glyph-name="Lambda" unicode="&#x39b;" horiz-adv-x="1290" 
d="M1069 0l-203 1389h-2q-172 -268 -194 -306l-697 -1083h-90l940 1458h109l217 -1458h-80z" />
    <glyph glyph-name="Mu" unicode="&#x39c;" horiz-adv-x="1794" 
d="M1376 0l191 772q63 250 149 600h-2l-899 -1372h-94l-121 760q-23 152 -84 538l-12 74h-2l-342 -1372h-76l362 1458h119l215 -1374h4q244 373 379 578l520 796h132l-363 -1458h-76z" />
    <glyph glyph-name="Nu" unicode="&#x39d;" horiz-adv-x="1495" 
d="M1042 0l-258 668q-166 424 -278 714h-2l-344 -1382h-76l362 1458h111l258 -667q166 -424 279 -715h2q94 379 120 479t70 285l154 618h78l-363 -1458h-113z" />
    <glyph glyph-name="Xi" unicode="&#x39e;" horiz-adv-x="1320" 
d="M0 0l18 76h1065l-18 -76h-1065zM238 700l18 78h938l-18 -78h-938zM371 1382l20 76h1008l-21 -76h-1007z" />
    <glyph glyph-name="Omicron" unicode="&#x39f;" 
d="M215 545q0 -213 119 -353.5t330 -140.5t365.5 128t236.5 324.5t82 409.5t-120 353.5t-331 140.5t-364.5 -129t-235.5 -324.5t-82 -408.5zM1425 875.5q0 -193.5 -91 -406.5t-264 -352.5t-404 -139.5q-166 0 -285 74t-181.5 206t-62.5 325.5t91 406.5t263.5 352.5
t403.5 139.5q166 0 285.5 -74t182 -206t62.5 -325.5z" />
    <glyph glyph-name="Pi" unicode="&#x3a0;" horiz-adv-x="1447" 
d="M1030 0l344 1386h-870l-344 -1386h-76l362 1458h1024l-362 -1458h-78z" />
    <glyph glyph-name="Rho" unicode="&#x3a1;" horiz-adv-x="1206" 
d="M770 723q140 0 238 57q98 56 144 142t46 172q0 139 -85 216t-259 76h-350l-166 -663h432zM768 651h-446l-162 -651h-76l362 1458h412q209 0 313 -96t105 -266q0 -106 -56 -208t-171 -170q-115 -67 -281 -67z" />
    <glyph glyph-name="Sigma" unicode="&#x3a3;" horiz-adv-x="1107" 
d="M369 1386v-2l301 -651l-635 -657v-4h928l-19 -72h-1032l18 78l648 670l-297 645l16 65h981l-16 -72h-893z" />
    <glyph glyph-name="Tau" unicode="&#x3a4;" horiz-adv-x="1185" 
d="M846 1386l-344 -1386h-76l344 1386h-539l17 72h1155l-19 -72h-538z" />
    <glyph glyph-name="Upsilon" unicode="&#x3a5;" horiz-adv-x="1198" 
d="M508 0h-76l158 639l-344 819h82l309 -741h2l379 411l299 330h102l-751 -819z" />
    <glyph glyph-name="Phi" unicode="&#x3a6;" horiz-adv-x="1538" 
d="M1415 807q0 197 -108.5 318.5t-311.5 148.5l-270 -1084h41q211 0 357.5 94.5t219 237t72.5 285.5zM883 1280q-211 0 -358.5 -94t-221.5 -236.5t-74 -283.5q0 -199 110 -320t310 -149l269 1083h-35zM1495 813q0 -166 -83 -326.5t-250 -265t-404 -104.5h-2l-47 2l-41 -164
h-78l41 170q-229 31 -355 171t-126 366q0 164 83.5 323.5t250.5 264t405 104.5h47l39 149h78l-39 -157q229 -29 355 -169.5t126 -363.5z" />
    <glyph glyph-name="Chi" unicode="&#x3a7;" horiz-adv-x="1236" 
d="M1085 0h-84l-331 690h-2l-668 -690h-106l733 754l-340 704h84l311 -647h4l627 647h104l-690 -710z" />
    <glyph glyph-name="Psi" unicode="&#x3a8;" horiz-adv-x="1480" 
d="M203 827q0 96 39 248l94 383h76l-99 -399q-35 -139 -34 -232q0 -174 100 -254.5t313 -93.5l244 979h76l-244 -981h8q188 2 311 50t202 157t128 297l119 477h76l-123 -495q-51 -207 -142.5 -329t-230.5 -176.5t-344 -56.5h-22l-101 -401h-76l101 403q-242 16 -356.5 115.5
t-114.5 308.5z" />
    <glyph glyph-name="uni03A9" unicode="&#x3a9;" horiz-adv-x="1474" 
d="M1446 991q0 -244 -143.5 -466t-425.5 -449v-4h395l-19 -72h-495l18 74q301 242 444.5 458t143.5 439t-119 329.5t-329.5 106.5t-361.5 -109.5t-227.5 -278.5t-76.5 -337t54 -309.5t157 -298.5l-19 -74h-479l17 72h399v4q-98 154 -151.5 298t-53.5 322.5t85 362.5t254 303
t410.5 119t382 -123t140.5 -367z" />
    <glyph glyph-name="Iotadieresis" unicode="&#x3aa;" horiz-adv-x="501" 
d="M84 0l362 1458h76l-362 -1458h-76zM698 1710l41 166h74l-41 -166h-74zM324 1710l41 166h73l-41 -166h-73z" />
    <glyph glyph-name="Upsilondieresis" unicode="&#x3ab;" horiz-adv-x="1198" 
d="M508 0h-76l158 639l-344 819h82l309 -741h2l379 411l299 330h102l-751 -819zM989 1595l43 166h74l-43 -166h-74zM614 1595l43 166h74l-43 -166h-74z" />
    <glyph glyph-name="alphatonos" unicode="&#x3ac;" horiz-adv-x="1150" 
d="M160 370.5q0 -149.5 71.5 -237.5t208.5 -88t244 97.5t161 240.5t54 292t-70.5 235.5t-210 86.5t-245 -95t-159.5 -238.5t-54 -293zM935 57q32 0 56 9l-16 -64q-35 -10 -80 -10t-76 27.5t-31 76t23 119.5h-2q-68 -113 -167 -174t-216 -61q-164 0 -254 103t-90 274.5
t63.5 332t186.5 267t278.5 106.5t239.5 -86t88 -234h4q29 143 88 297h76q-61 -156 -115 -368l-110 -449q-31 -119 3 -149q18 -16 51 -17zM676 1182l174 317h78l-191 -317h-61z" />
    <glyph glyph-name="epsilontonos" unicode="&#x3ad;" horiz-adv-x="958" 
d="M909 795q0 -18 -4 -52h-78q6 29 7 50q0 98 -62.5 149t-171 51t-178.5 -34.5t-104.5 -89t-34.5 -111.5q0 -92 66.5 -144.5t189.5 -52.5h104l-16 -65h-129q-125 0 -209 -36t-123 -92.5t-39 -119.5q0 -94 69.5 -147.5t201.5 -53.5t219.5 61.5t115.5 174.5h80
q-35 -141 -147.5 -223.5t-277.5 -82.5t-252 70t-87 185.5t79 197.5t226 109v4q-147 59 -147 211q0 74 44 144.5t132 117.5t225 47t219 -69.5t82 -198.5zM623 1182l174 317h77l-190 -317h-61z" />
    <glyph glyph-name="etatonos" unicode="&#x3ae;" horiz-adv-x="1140" 
d="M344 850q148 211 397 211q125 0 202 -75t77 -216q0 -66 -23 -162l-245 -987h-74l246 993q23 90 22 152q0 113 -60.5 171t-160.5 58t-185 -44t-149.5 -126t-91.5 -188l-158 -637h-73l196 793q16 72 17 108q0 80 -70 80q-27 0 -51 -8l16 65q25 10 51 11q121 0 121 -131
q0 -31 -6 -68h2zM657 1182l174 317h78l-190 -317h-62z" />
    <glyph glyph-name="iotatonos" unicode="&#x3af;" horiz-adv-x="489" 
d="M168 170q0 -108 123 -109q37 0 63 11l-16 -70q-23 -8 -57 -8q-94 0 -140.5 42t-46.5 136q0 49 21 137l182 731h74l-183 -735q-20 -81 -20 -135zM334 1182l174 317h78l-191 -317h-61z" />
    <glyph glyph-name="upsilondieresistonos" unicode="&#x3b0;" horiz-adv-x="1128" 
d="M356 911q0 -45 -22 -131l-98 -395q-16 -72 -17 -119q0 -117 66.5 -169t199.5 -52q174 0 279.5 128t148.5 310.5t43 318.5t-16 238h74q16 -104 16 -198q0 -201 -52 -398.5t-176 -332t-325 -134.5q-332 0 -332 289q0 63 21 140l96 387q34 141 2 171q-18 16 -50 16.5
t-56 -7.5l16 67q33 8 57 9q125 0 125 -138zM868 1214l43 170h74l-43 -170h-74zM403 1214l41 170h74l-41 -170h-74zM594 1182l151 280h74l-164 -280h-61z" />
    <glyph glyph-name="alpha" unicode="&#x3b1;" horiz-adv-x="1150" 
d="M160 370.5q0 -149.5 71.5 -237.5t208.5 -88t244 97.5t161 240.5t54 292t-70.5 235.5t-210 86.5t-245 -95t-159.5 -238.5t-54 -293zM935 57q32 0 56 9l-16 -64q-35 -10 -80 -10t-76 27.5t-31 76t23 119.5h-2q-68 -113 -167 -174t-216 -61q-164 0 -254 103t-90 274.5
t63.5 332t186.5 267t278.5 106.5t239.5 -86t88 -234h4q29 143 88 297h76q-61 -156 -115 -368l-110 -449q-31 -119 3 -149q18 -16 51 -17z" />
    <glyph glyph-name="beta" unicode="&#x3b2;" horiz-adv-x="1144" 
d="M217 324q0 -131 78 -203t224 -72t241.5 61.5t142.5 155.5t47 191q0 156 -97 228.5t-300 72.5h-39l18 71h39q168 0 320.5 72.5t152.5 274.5q0 113 -62 175t-185 62q-168 0 -272.5 -108.5t-159.5 -335.5l-134 -543q-14 -51 -14 -102zM1122 1183q0 -140 -92 -249t-274 -141
v-2q119 -18 193.5 -101.5t74.5 -215.5t-57.5 -242.5t-170 -181t-268.5 -70.5q-308 0 -348 235h-2l-147 -594h-74l338 1358q63 254 188 378t322 124q156 0 236.5 -79t80.5 -219z" />
    <glyph glyph-name="gamma" unicode="&#x3b3;" horiz-adv-x="1001" 
d="M385 382q0 212 -45 405.5t-158 193.5q-25 0 -49 -6l17 65q33 8 53 9q133 0 190.5 -187.5t57.5 -480.5q0 -143 -23 -268h4q219 242 354.5 453.5t227.5 473.5h78q-103 -290 -255.5 -522.5t-410.5 -501.5q-59 -233 -119 -395h-76q78 213 116 381t38 380z" />
    <glyph glyph-name="delta" unicode="&#x3b4;" horiz-adv-x="1103" 
d="M152 360q0 -138 83 -226.5t229 -88.5t250.5 79t158 196.5t53.5 242.5t-54.5 223.5t-169.5 188.5q-182 -47 -306 -143.5t-184 -215t-60 -256.5zM707 1411q-117 0 -165 -36t-48 -87t48 -97t184 -143t205.5 -213.5t69.5 -262.5t-64.5 -281t-187 -224.5t-295.5 -89.5
t-276.5 105.5t-103.5 292.5q0 129 61.5 256t187.5 230.5t310 154.5v4q-121 88 -168 141t-47 127t69.5 132.5t217.5 58.5q235 0 423 -76l-16 -70q-186 78 -405 78z" />
    <glyph glyph-name="epsilon" unicode="&#x3b5;" horiz-adv-x="958" 
d="M909 795q0 -18 -4 -52h-78q6 29 7 50q0 98 -62.5 149t-171 51t-178.5 -34.5t-104.5 -89t-34.5 -111.5q0 -92 66.5 -144.5t189.5 -52.5h104l-16 -65h-129q-125 0 -209 -36t-123 -92.5t-39 -119.5q0 -94 69.5 -147.5t201.5 -53.5t219.5 61.5t115.5 174.5h80
q-35 -141 -147.5 -223.5t-277.5 -82.5t-252 70t-87 185.5t79 197.5t226 109v4q-147 59 -147 211q0 74 44 144.5t132 117.5t225 47t219 -69.5t82 -198.5z" />
    <glyph glyph-name="zeta" unicode="&#x3b6;" horiz-adv-x="870" 
d="M606 -112q0 71 -43 106t-145 55q-174 35 -253 118t-79 236.5t95 330.5t277.5 348t436.5 307v4h-524l16 65h649l-16 -65q-275 -140 -468.5 -312t-290.5 -345t-97 -312t64.5 -206.5t203.5 -94.5t194.5 -77t55.5 -137t-78 -206h-78q80 114 80 185z" />
    <glyph glyph-name="eta" unicode="&#x3b7;" horiz-adv-x="1140" 
d="M344 850q148 211 397 211q125 0 202 -75t77 -216q0 -66 -23 -162l-245 -987h-74l246 993q23 90 22 152q0 113 -60.5 171t-160.5 58t-185 -44t-149.5 -126t-91.5 -188l-158 -637h-73l196 793q16 72 17 108q0 80 -70 80q-27 0 -51 -8l16 65q25 10 51 11q121 0 121 -131
q0 -31 -6 -68h2z" />
    <glyph glyph-name="theta" unicode="&#x3b8;" horiz-adv-x="1155" 
d="M481 45q197 0 335 191.5t204 459.5h-797q-29 -143 -28 -254q0 -193 72.5 -295t213.5 -102zM1063 1018q0 190 -72.5 292.5t-216.5 102.5q-194 0 -332.5 -190.5t-203.5 -460.5h798q27 133 27 256zM1137 1024q0 -215 -78 -460t-228.5 -416t-338.5 -171q-370 0 -371 467
q0 203 79 448t227.5 417t336.5 172t280.5 -121t92.5 -336z" />
    <glyph glyph-name="iota" unicode="&#x3b9;" horiz-adv-x="489" 
d="M168 170q0 -108 123 -109q37 0 63 11l-16 -70q-23 -8 -57 -8q-94 0 -140.5 42t-46.5 136q0 49 21 137l182 731h74l-183 -735q-20 -81 -20 -135z" />
    <glyph glyph-name="kappa" unicode="&#x3ba;" horiz-adv-x="987" 
d="M1036 977q-84 0 -175 -54.5t-269 -209.5l-178 -156l444 -557h-94l-406 510l-137 -119l-96 -391h-74l258 1040h74l-133 -536h2l328 287q176 152 269 204t189 52q27 -1 56 -9l-17 -65q-20 4 -41 4z" />
    <glyph glyph-name="lambda" unicode="&#x3bb;" horiz-adv-x="1085" 
d="M918 61q14 0 34 5l-16 -66q-14 -6 -37 -6q-74 0 -115 50t-59 194q-57 438 -94 704h-2q-217 -301 -383 -536l-289 -406h-88l745 1044q-34 263 -94 309t-124 46t-105 -15l16 66q39 16 109 16t152 -56t124 -366l103 -780q14 -121 42.5 -162t80.5 -41z" />
    <glyph glyph-name="uni03BC" unicode="&#x3bc;" horiz-adv-x="1138" 
d="M436 -18q-235 0 -268 200l-139 -561h-74l354 1419h74l-154 -610q-23 -94 -22 -154q0 -227 239 -227q86 0 168 43t144.5 125t91.5 195l156 628h73l-196 -794q-19 -66 -19 -111t16.5 -60.5t49.5 -15.5t57 9l-16 -68q-25 -8 -60 -8q-117 0 -116 117q0 31 10 81h-4
q-61 -96 -158.5 -152t-206.5 -56z" />
    <glyph glyph-name="nu" unicode="&#x3bd;" horiz-adv-x="987" 
d="M1069 1040q0 -212 -199.5 -489t-420.5 -551h-93l-71 776q-10 117 -36 160t-79 43q-20 0 -37 -6l17 67q37 6 43 7q75 0 112 -54.5t49 -191.5l66 -723h4q373 458 467 643.5t104 318.5h74z" />
    <glyph glyph-name="xi" unicode="&#x3be;" horiz-adv-x="894" 
d="M492 797q-187 49 -187 233q0 98 85 204.5t245 154.5v4h-283l17 65h712l-16 -65h-125q-188 0 -314 -56.5t-185.5 -142.5t-59.5 -180t87 -145.5t230 -51.5h144l-17 -65h-153q-186 0 -303 -56.5t-168 -143t-51 -188.5t71 -162.5t221 -80.5t207.5 -69.5t57.5 -133.5
q0 -45 -21.5 -104.5t-58.5 -110.5h-78q82 113 82 205q0 57 -41 91t-146 46q-193 27 -282.5 105.5t-89.5 220.5q0 88 44 176t139 155.5t237 92.5v2z" />
    <glyph glyph-name="omicron" unicode="&#x3bf;" horiz-adv-x="1103" 
d="M160 377.5q0 -150.5 79.5 -241.5t229 -91t256 93t161 232.5t54.5 291t-81 242.5t-229.5 91t-255 -93t-160.5 -233.5t-54 -291zM1016 643q0 -152 -64.5 -306.5t-189.5 -257t-301 -102.5t-275.5 110t-99.5 286t63.5 330.5t187.5 257t301 102.5t277.5 -110.5t100.5 -309.5z
" />
    <glyph glyph-name="pi" unicode="&#x3c0;" horiz-adv-x="1294" 
d="M1027 59q50 0 69 9l-17 -68q-33 -8 -59 -8q-90 0 -138 42t-48 138q0 41 20 133l166 670h-571l-242 -975h-74l242 975h-234l17 65h1226l-16 -65h-274l-168 -680q-16 -71 -16 -125t33.5 -82.5t83.5 -28.5z" />
    <glyph glyph-name="rho" unicode="&#x3c1;" horiz-adv-x="1126" 
d="M231 374q0 -148 74 -237.5t213 -89.5t240.5 94.5t154 235.5t52.5 289t-75 238.5t-213 90.5t-239.5 -94t-154 -236.5t-52.5 -290.5zM1040 672q0 -174 -62.5 -330t-182 -259t-271.5 -103q-296 0 -340 301h-4l-164 -660h-73l239 963q51 205 179.5 342t310.5 137t275 -108.5
t93 -282.5z" />
    <glyph glyph-name="sigma1" unicode="&#x3c2;" horiz-adv-x="980" 
d="M602 -78q0 63 -38 101t-130 57q-338 66 -338 370q0 150 63.5 289.5t185.5 231.5t290 92t257 -87t89 -241q0 -18 -4 -63h-76q4 37 4 53q0 127 -71.5 198.5t-211.5 71.5t-243 -82t-155 -203.5t-52 -249.5t68 -204t200 -100t185 -78.5t53 -156.5t-86 -218h-78q88 113 88 219
z" />
    <glyph glyph-name="sigma" unicode="&#x3c3;" horiz-adv-x="1159" 
d="M158 372q0 -148 80 -237.5t230 -89.5t255.5 90t160 226.5t54.5 284.5t-81 237.5t-231 89.5t-255 -90t-159 -226.5t-54 -284.5zM1014 627q0 -150 -63.5 -300.5t-187.5 -250t-301 -99.5t-277.5 109t-100.5 305q0 150 63.5 300.5t186.5 249.5t293 99h633l-17 -65h-405v-4
q176 -96 176 -344z" />
    <glyph glyph-name="tau" unicode="&#x3c4;" horiz-adv-x="954" 
d="M426 170q0 -112 133 -111q35 0 53 9l-16 -68q-33 -8 -59 -8q-90 0 -138.5 42t-48.5 138q0 41 21 133l166 670h-396l17 65h897l-17 -65h-428l-168 -680q-16 -71 -16 -125z" />
    <glyph glyph-name="upsilon" unicode="&#x3c5;" horiz-adv-x="1128" 
d="M356 911q0 -45 -22 -131l-98 -395q-16 -72 -17 -119q0 -117 66.5 -169t199.5 -52q174 0 279.5 128t148.5 310.5t43 318.5t-16 238h74q16 -104 16 -198q0 -201 -52 -398.5t-176 -332t-325 -134.5q-332 0 -332 289q0 63 21 140l96 387q34 141 2 171q-18 16 -50 16.5
t-56 -7.5l16 67q33 8 57 9q125 0 125 -138z" />
    <glyph glyph-name="phi" unicode="&#x3c6;" horiz-adv-x="1456" 
d="M668 45q202 0 342.5 84t209 211t68.5 258q0 172 -104.5 273.5t-300.5 119.5l-236 -946h21zM786 995q-203 0 -343 -84t-207.5 -212t-67.5 -257q0 -174 103.5 -274t301.5 -119l236 946h-23zM1362 596q0 -150 -79 -292t-235.5 -234.5t-381.5 -92.5h-37l-88 -356h-74l90 361
q-221 23 -343 143.5t-122 318.5q0 147 79 290t236.5 236t380.5 93h37l74 293h74l-74 -299q221 -23 342 -142.5t121 -318.5z" />
    <glyph glyph-name="chi" unicode="&#x3c7;" horiz-adv-x="1105" 
d="M785 -319q46 0 94 10l-19 -68q-45 -10 -86 -10q-96 0 -144 51t-73 197l-65 403h-5l-571 -643h-96l649 727l-76 445q-26 152 -71.5 174t-94.5 22t-94 -16l17 69q41 14 98 14t118 -30.5t93 -212.5l69 -410h2l564 637h98l-639 -718l72 -441q26 -158 70 -179t90 -21z" />
    <glyph glyph-name="psi" unicode="&#x3c8;" 
d="M653 -20h-10l-90 -359h-74l90 361q-213 14 -319.5 105t-106.5 269q0 70 23 160l131 524h74l-133 -540q-20 -74 -21 -140q0 -152 92 -226.5t277 -84.5l325 1307h74l-326 -1309q352 0 493.5 246t141.5 627q0 63 -6 120h74q6 -57 6 -120q0 -412 -162 -676t-553 -264z" />
    <glyph glyph-name="omega" unicode="&#x3c9;" horiz-adv-x="1501" 
d="M1382 733.5q0 -158.5 -46 -335.5t-148.5 -299t-263.5 -122q-229 0 -248 203h-2q-94 -203 -307 -203q-264 0 -265 304q0 160 79 372.5t210 386.5h88q-135 -174 -219 -387t-84 -368q0 -240 201 -240q217 0 291 287l108 440h74l-105 -420q-16 -59 -16 -121q0 -186 191 -186
q139 0 226 113.5t125 275.5t38 318t-33 288h74q32 -148 32 -306.5z" />
    <glyph glyph-name="iotadieresis" unicode="&#x3ca;" horiz-adv-x="489" 
d="M168 170q0 -108 123 -109q37 0 63 11l-16 -70q-23 -8 -57 -8q-94 0 -140.5 42t-46.5 136q0 49 21 137l182 731h74l-183 -735q-20 -81 -20 -135zM549 1292l41 166h74l-41 -166h-74zM174 1292l41 166h74l-41 -166h-74z" />
    <glyph glyph-name="upsilondieresis" unicode="&#x3cb;" horiz-adv-x="1128" 
d="M356 911q0 -45 -22 -131l-98 -395q-16 -72 -17 -119q0 -117 66.5 -169t199.5 -52q174 0 279.5 128t148.5 310.5t43 318.5t-16 238h74q16 -104 16 -198q0 -201 -52 -398.5t-176 -332t-325 -134.5q-332 0 -332 289q0 63 21 140l96 387q34 141 2 171q-18 16 -50 16.5
t-56 -7.5l16 67q33 8 57 9q125 0 125 -138zM844 1292l41 166h73l-40 -166h-74zM469 1292l41 166h74l-41 -166h-74z" />
    <glyph glyph-name="omicrontonos" unicode="&#x3cc;" horiz-adv-x="1103" 
d="M160 377.5q0 -150.5 79.5 -241.5t229 -91t256 93t161 232.5t54.5 291t-81 242.5t-229.5 91t-255 -93t-160.5 -233.5t-54 -291zM1016 643q0 -152 -64.5 -306.5t-189.5 -257t-301 -102.5t-275.5 110t-99.5 286t63.5 330.5t187.5 257t301 102.5t277.5 -110.5t100.5 -309.5z
M641 1182l174 317h78l-191 -317h-61z" />
    <glyph glyph-name="upsilontonos" unicode="&#x3cd;" horiz-adv-x="1128" 
d="M356 911q0 -45 -22 -131l-98 -395q-16 -72 -17 -119q0 -117 66.5 -169t199.5 -52q174 0 279.5 128t148.5 310.5t43 318.5t-16 238h74q16 -104 16 -198q0 -201 -52 -398.5t-176 -332t-325 -134.5q-332 0 -332 289q0 63 21 140l96 387q34 141 2 171q-18 16 -50 16.5
t-56 -7.5l16 67q33 8 57 9q125 0 125 -138zM629 1182l174 317h78l-191 -317h-61z" />
    <glyph glyph-name="omegatonos" unicode="&#x3ce;" horiz-adv-x="1501" 
d="M1382 733.5q0 -158.5 -46 -335.5t-148.5 -299t-263.5 -122q-229 0 -248 203h-2q-94 -203 -307 -203q-264 0 -265 304q0 160 79 372.5t210 386.5h88q-135 -174 -219 -387t-84 -368q0 -240 201 -240q217 0 291 287l108 440h74l-105 -420q-16 -59 -16 -121q0 -186 191 -186
q139 0 226 113.5t125 275.5t38 318t-33 288h74q32 -148 32 -306.5zM881 1182l174 317h78l-191 -317h-61z" />
    <glyph glyph-name="uni0400" unicode="&#x400;" horiz-adv-x="1222" 
d="M504 1386l-150 -602h754l-18 -71h-752l-162 -641h817l-16 -72h-893l362 1458h867l-19 -72h-790zM928 1556l-168 267h96l141 -267h-69z" />
    <glyph glyph-name="uni0401" unicode="&#x401;" horiz-adv-x="1222" 
d="M504 1386l-150 -602h754l-18 -71h-752l-162 -641h817l-16 -72h-893l362 1458h867l-19 -72h-790zM1044 1595l43 166h74l-43 -166h-74zM670 1595l43 166h73l-43 -166h-73z" />
    <glyph glyph-name="uni0402" unicode="&#x402;" horiz-adv-x="1527" 
d="M1450 512q0 -127 -65.5 -249t-191.5 -200.5t-300 -78.5q-106 0 -182 20l16 72q72 -20 196 -20t232.5 68.5t162.5 172.5t54 209q0 330 -346 330q-176 0 -336 -84l-188 -752h-76l344 1386h-539l17 72h1155l-19 -72h-538l-135 -552q160 74 321 73q205 0 311.5 -103.5
t106.5 -291.5z" />
    <glyph glyph-name="uni0403" unicode="&#x403;" horiz-adv-x="954" 
d="M446 1458h728l-19 -72h-651l-344 -1386h-76zM694 1556l264 267h107l-289 -267h-82z" />
    <glyph glyph-name="uni0404" unicode="&#x404;" horiz-adv-x="1382" 
d="M1368 1026q0 -27 -4 -80h-80q4 53 4 76q0 174 -102.5 279.5t-281.5 105.5t-316 -90t-226.5 -235.5t-125.5 -315.5h751l-16 -72h-748q-12 -76 -12 -149q0 -227 111.5 -360.5t305 -133.5t342 110.5t214.5 291.5h82q-74 -213 -245 -344.5t-398.5 -131.5t-358.5 153
t-131 390.5t91 455.5t266.5 361.5t414.5 143.5q148 0 252.5 -58.5t157.5 -162t53 -234.5z" />
    <glyph glyph-name="uni0405" unicode="&#x405;" horiz-adv-x="1200" 
d="M1186 1130q0 -68 -17 -131h-75q16 76 16 125q0 285 -348 285q-135 0 -227.5 -51t-137.5 -129t-45 -156q0 -115 74 -176t222 -109t224 -91q164 -90 164 -287q0 -106 -60.5 -206t-180 -163.5t-311 -63.5t-300 92.5t-108.5 274.5q0 72 16 143h78q-18 -80 -18 -139
q0 -299 356 -299q154 0 255 54.5t148 136.5t47 167t-37.5 139t-105 89t-189.5 77t-197 84q-155 87 -155 273q0 96 56.5 191.5t168 158t267.5 62.5q420 -1 420 -351z" />
    <glyph glyph-name="uni0406" unicode="&#x406;" horiz-adv-x="501" 
d="M84 0l362 1458h76l-362 -1458h-76z" />
    <glyph glyph-name="uni0407" unicode="&#x407;" horiz-adv-x="501" 
d="M84 0l362 1458h76l-362 -1458h-76zM670 1595l43 166h73l-43 -166h-73zM295 1595l43 166h74l-43 -166h-74z" />
    <glyph glyph-name="uni0408" unicode="&#x408;" horiz-adv-x="651" 
d="M-4 -8q-55 0 -94 14l18 70q37 -10 76 -10q267 0 340 309l270 1083h78l-276 -1104q-43 -178 -150.5 -270t-261.5 -92z" />
    <glyph glyph-name="uni0409" unicode="&#x409;" horiz-adv-x="2091" 
d="M1491 72q143 0 240.5 56t143.5 142t46 172q0 137 -86 215t-258 78h-350l-164 -663h428zM1581 807q207 0 312.5 -96.5t105.5 -266.5q0 -106 -56.5 -208.5t-172 -169t-281.5 -66.5h-520l344 1386h-647q-158 -594 -267.5 -888.5t-208 -399t-235.5 -104.5q-33 0 -57 8l16 68
q12 -4 37 -4q119 0 205 102t189.5 395t264.5 895h797l-162 -651h336z" />
    <glyph glyph-name="uni040A" unicode="&#x40a;" horiz-adv-x="2174" 
d="M2003 442q0 137 -85 215t-259 78h-348l-164 -663h428q141 0 238.5 56t143.5 142t46 172zM2081 444q0 -106 -56.5 -208.5t-171 -169t-280.5 -66.5h-522l182 735h-891l-182 -735h-76l362 1458h76l-164 -651h893l162 651h78l-164 -651h336q207 0 312.5 -96.5t105.5 -266.5z
" />
    <glyph glyph-name="uni040B" unicode="&#x40b;" horiz-adv-x="1519" 
d="M1047 807q-192 0 -359 -62l-186 -745h-76l344 1386h-539l17 72h1155l-19 -72h-538l-139 -563q180 55 357 55t272.5 -85.5t95.5 -247.5q0 -57 -21 -135l-100 -410h-78l108 434q14 68 15 107q0 266 -309 266z" />
    <glyph glyph-name="uni040C" unicode="&#x40c;" horiz-adv-x="1161" 
d="M1022 0h-98l-576 748h-2l-186 -748h-76l362 1458h76l-168 -670h4l842 670h119l-883 -698zM762 1556l264 267h107l-289 -267h-82z" />
    <glyph glyph-name="uni040D" unicode="&#x40d;" horiz-adv-x="1495" 
d="M1077 0l344 1382h-4l-223 -256q-139 -162 -399 -458l-584 -668h-129l364 1458h76l-346 -1382h4l223 256q139 162 400 459l586 667h129l-365 -1458h-76zM1051 1556l-168 267h96l141 -267h-69z" />
    <glyph glyph-name="uni040E" unicode="&#x40e;" horiz-adv-x="1263" 
d="M160 -12q-61 0 -103 12l17 70q37 -10 86 -11q98 0 182 55.5t188 190.5l-282 1153h78l127 -526q86 -369 131 -553h4l121 164q135 184 286 385l394 530h94l-889 -1188q-115 -151 -216.5 -216.5t-217.5 -65.5zM860 1616q211 0 281 207h69q-41 -129 -131 -200t-214 -71
t-186.5 58.5t-62.5 167.5q0 29 5 45h61q-2 -12 -2 -37q0 -170 180 -170z" />
    <glyph glyph-name="uni040F" unicode="&#x40f;" horiz-adv-x="1452" 
d="M635 0l-82 -328h-74l82 328h-477l362 1458h76l-346 -1386h877l344 1386h78l-363 -1458h-477z" />
    <glyph glyph-name="uni0410" unicode="&#x410;" horiz-adv-x="1327" 
d="M985 764q-18 113 -45 283l-55 344h-2l-529 -807h660zM307 512l-336 -512h-88l961 1458h104l236 -1458h-78l-82 512h-717z" />
    <glyph glyph-name="uni0411" unicode="&#x411;" horiz-adv-x="1220" 
d="M596 72q143 0 239.5 55t143.5 139t47 172q0 145 -91 224t-269 79h-322l-168 -669h420zM678 813q205 0 316.5 -98.5t111.5 -274.5q0 -106 -56.5 -207.5t-170 -167t-275.5 -65.5h-520l362 1458h844l-18 -72h-768l-144 -573h318z" />
    <glyph glyph-name="uni0412" unicode="&#x412;" horiz-adv-x="1228" 
d="M578 70q143 0 241 56t146 141q47 85 47 171q0 129 -81 201t-249 72h-344l-162 -641h402zM686 780q164 0 270 56t154 140q47 83 47 167q0 246 -332 246h-319l-152 -609h332zM1235 1147q0 -84 -42 -167q-42 -84 -124 -148t-197 -89v-4q102 -23 161 -101t59 -190t-58 -214
t-175 -168q-116 -66 -279 -66h-496l362 1458h392q199 0 298 -83t99 -228z" />
    <glyph glyph-name="uni0413" unicode="&#x413;" horiz-adv-x="954" 
d="M446 1458h728l-19 -72h-651l-344 -1386h-76z" />
    <glyph glyph-name="uni0414" unicode="&#x414;" horiz-adv-x="1394" 
d="M1321 1386h-670q-152 -569 -271.5 -872t-229.5 -442h843zM1217 72l-99 -400h-74l82 328h-1146l-82 -328h-74l98 400h135q117 129 242 436t295 950h821l-344 -1386h146z" />
    <glyph glyph-name="uni0415" unicode="&#x415;" horiz-adv-x="1222" 
d="M504 1386l-150 -602h754l-18 -71h-752l-162 -641h817l-16 -72h-893l362 1458h867l-19 -72h-790z" />
    <glyph glyph-name="uni0416" unicode="&#x416;" horiz-adv-x="1683" 
d="M1546 0h-90l-512 760h-4l-188 -760h-78l188 752h-4l-862 -752h-117l893 772l-471 686h88l473 -688h4l170 688h78l-170 -682h4l789 682h112l-815 -702z" />
    <glyph glyph-name="uni0417" unicode="&#x417;" horiz-adv-x="1206" 
d="M1208 1142q0 -144 -104.5 -255t-298.5 -152v-2q260 -82 260 -315q0 -102 -67.5 -204.5t-199.5 -169.5t-331 -67t-316.5 88.5t-117.5 245.5q0 41 10 88h80q-8 -35 -8 -80q0 -129 95 -198.5t264 -69.5t282.5 55.5t172 140.5t58.5 171q0 137 -100.5 212t-282.5 75h-137
l18 71h129q174 0 290 53.5t171 134t55 164.5q0 125 -98 201t-273 76t-298 -90t-166 -258h-78q47 199 193.5 310.5t352.5 111.5t325.5 -96.5t119.5 -240.5z" />
    <glyph glyph-name="uni0418" unicode="&#x418;" horiz-adv-x="1495" 
d="M1077 0l344 1382h-4l-223 -256q-139 -162 -399 -458l-584 -668h-129l364 1458h76l-346 -1382h4l223 256q139 162 400 459l586 667h129l-365 -1458h-76z" />
    <glyph glyph-name="uni0419" unicode="&#x419;" horiz-adv-x="1495" 
d="M1077 0l344 1382h-4l-223 -256q-139 -162 -399 -458l-584 -668h-129l364 1458h76l-346 -1382h4l223 256q139 162 400 459l586 667h129l-365 -1458h-76zM1018 1616q212 0 280 207h70q-41 -129 -131 -200t-214 -71t-186.5 58.5t-62.5 167.5q0 29 4 45h62q-2 -12 -2 -37
q0 -170 180 -170z" />
    <glyph glyph-name="uni041A" unicode="&#x41a;" horiz-adv-x="1161" 
d="M1022 0h-98l-576 748h-2l-186 -748h-76l362 1458h76l-168 -670h4l842 670h119l-883 -698z" />
    <glyph glyph-name="uni041B" unicode="&#x41b;" horiz-adv-x="1386" 
d="M-45 -6q-33 0 -57 8l16 68q12 -4 37 -4q119 0 205 102t189.5 395t264.5 895h797l-363 -1458h-75l344 1386h-647q-158 -594 -267.5 -888.5t-208 -399t-235.5 -104.5z" />
    <glyph glyph-name="uni041C" unicode="&#x41c;" horiz-adv-x="1794" 
d="M1376 0l191 772q63 250 149 600h-2l-899 -1372h-94l-121 760q-23 152 -84 538l-12 74h-2l-342 -1372h-76l362 1458h119l215 -1374h4q244 373 379 578l520 796h132l-363 -1458h-76z" />
    <glyph glyph-name="uni041D" unicode="&#x41d;" horiz-adv-x="1468" 
d="M1051 0l180 721h-891l-180 -721h-76l362 1458h76l-166 -665h893l164 665h78l-363 -1458h-77z" />
    <glyph glyph-name="uni041E" unicode="&#x41e;" 
d="M215 545q0 -213 119 -353.5t330 -140.5t365.5 128t236.5 324.5t82 409.5t-120 353.5t-331 140.5t-364.5 -129t-235.5 -324.5t-82 -408.5zM1425 875.5q0 -193.5 -91 -406.5t-264 -352.5t-404 -139.5q-166 0 -285 74t-181.5 206t-62.5 325.5t91 406.5t263.5 352.5
t403.5 139.5q166 0 285.5 -74t182 -206t62.5 -325.5z" />
    <glyph glyph-name="uni041F" unicode="&#x41f;" horiz-adv-x="1447" 
d="M1030 0l344 1386h-870l-344 -1386h-76l362 1458h1024l-362 -1458h-78z" />
    <glyph glyph-name="uni0420" unicode="&#x420;" horiz-adv-x="1206" 
d="M770 723q140 0 238 57q98 56 144 142t46 172q0 139 -85 216t-259 76h-350l-166 -663h432zM768 651h-446l-162 -651h-76l362 1458h412q209 0 313 -96t105 -266q0 -106 -56 -208t-171 -170q-115 -67 -281 -67z" />
    <glyph glyph-name="uni0421" unicode="&#x421;" horiz-adv-x="1376" 
d="M1362 1026q0 -27 -4 -80h-80q4 53 4 76q0 174 -101.5 279.5t-299 105.5t-353 -132t-236.5 -333t-81 -412.5t110.5 -345t303 -133.5t340 110.5t213.5 291.5h82q-74 -215 -244 -345.5t-396 -130.5t-356.5 153t-130.5 390.5t90 455.5t264.5 361.5t413.5 143.5
q148 0 251 -58.5t156.5 -162t53.5 -234.5z" />
    <glyph glyph-name="uni0422" unicode="&#x422;" horiz-adv-x="1185" 
d="M846 1386l-344 -1386h-76l344 1386h-539l17 72h1155l-19 -72h-538z" />
    <glyph glyph-name="uni0423" unicode="&#x423;" horiz-adv-x="1263" 
d="M160 -12q-61 0 -103 12l17 70q37 -10 86 -11q98 0 182 55.5t188 190.5l-282 1153h78l127 -526q86 -369 131 -553h4l121 164q135 184 286 385l394 530h94l-889 -1188q-115 -151 -216.5 -216.5t-217.5 -65.5z" />
    <glyph glyph-name="uni0424" unicode="&#x424;" horiz-adv-x="1617" 
d="M1495 788q0 199 -122 322t-343 147l-264 -1062h41q223 0 378.5 91t232.5 228t77 274zM915 1264q-223 0 -379.5 -90.5t-234.5 -227.5t-78 -274q0 -203 122 -325t347 -146l262 1063h-39zM1573 793q0 -160 -86 -314.5t-260 -256t-424 -101.5h-4l-49 2l-43 -166h-76l43 170
q-252 29 -390.5 170t-138.5 371q0 160 87 314.5t262.5 254.5t423.5 100h4l51 -2l43 166h76l-43 -170q251 -28 387.5 -169.5t136.5 -368.5z" />
    <glyph glyph-name="uni0425" unicode="&#x425;" horiz-adv-x="1236" 
d="M1085 0h-84l-331 690h-2l-668 -690h-106l733 754l-340 704h84l311 -647h4l627 647h104l-690 -710z" />
    <glyph glyph-name="uni0426" unicode="&#x426;" horiz-adv-x="1452" 
d="M1274 72l-98 -400h-74l82 328h-1100l362 1458h76l-346 -1386h877l344 1386h78l-347 -1386h146z" />
    <glyph glyph-name="uni0427" unicode="&#x427;" horiz-adv-x="1239" 
d="M610 680q199 0 394 59l180 719h76l-363 -1458h-76l164 664q-186 -55 -385 -55.5t-300 85.5t-101 248q0 57 20 133l94 383h76l-100 -405q-14 -68 -15 -107q0 -266 336 -266z" />
    <glyph glyph-name="uni0428" unicode="&#x428;" horiz-adv-x="2056" 
d="M84 0l362 1458h76l-346 -1386h703l344 1386h77l-346 -1386h701l346 1386h76l-363 -1458h-1630z" />
    <glyph glyph-name="uni0429" unicode="&#x429;" horiz-adv-x="2056" 
d="M1878 72l-98 -400h-74l82 328h-1704l362 1458h76l-346 -1386h703l344 1386h77l-346 -1386h701l346 1386h76l-344 -1386h145z" />
    <glyph glyph-name="uni042A" unicode="&#x42a;" horiz-adv-x="1486" 
d="M887 72q143 0 240.5 56t143.5 142t46 172q0 137 -86 215t-258 78h-350l-164 -663h428zM977 807q207 0 312.5 -96.5t105.5 -266.5q0 -106 -56.5 -208.5t-172 -169t-281.5 -66.5h-520l344 1386h-478l17 72h555l-164 -651h338z" />
    <glyph glyph-name="uni042B" unicode="&#x42b;" horiz-adv-x="1708" 
d="M606 72q143 0 240.5 56t143.5 142t46 172q0 137 -86 215t-258 78h-350l-164 -663h428zM694 807q209 0 314.5 -96.5t105.5 -266.5q0 -106 -56.5 -208.5t-172 -169t-281.5 -66.5h-520l362 1458h76l-164 -651h336zM1290 0l363 1458h76l-363 -1458h-76z" />
    <glyph glyph-name="uni042C" unicode="&#x42c;" horiz-adv-x="1206" 
d="M606 72q143 0 240.5 56t143.5 142t46 172q0 137 -86 215t-258 78h-350l-164 -663h428zM694 807q209 0 314.5 -96.5t105.5 -266.5q0 -106 -56.5 -208.5t-172 -169t-281.5 -66.5h-520l362 1458h76l-164 -651h336z" />
    <glyph glyph-name="uni042D" unicode="&#x42d;" horiz-adv-x="1374" 
d="M1346 938.5q0 -237.5 -90.5 -456t-264.5 -362t-413 -143.5q-150 0 -255.5 58.5t-159.5 162t-54 234.5q0 41 6 80h78q-4 -53 -5 -76q0 -174 103.5 -279.5t285 -105.5t317.5 90t223 236.5t126 316.5h-743l16 72h739q12 74 13 147q0 227 -110.5 360.5t-301 133.5
t-336 -110.5t-211.5 -290.5h-80q72 215 239 345t392 130t355.5 -152.5t130.5 -390z" />
    <glyph glyph-name="uni042E" unicode="&#x42e;" horiz-adv-x="1894" 
d="M1786 920q0 212 -111.5 349.5t-309.5 137.5t-347.5 -131t-228 -329.5t-78.5 -409.5t111.5 -348.5t309.5 -137.5t346 130t228 328.5t80 410.5zM1864 884q0 -192 -89 -408t-256 -357.5t-389 -141.5q-156 0 -267 73t-169.5 203t-58.5 300q0 63 10 141h-313l-172 -694h-76
l362 1458h76l-172 -692h307q37 186 132.5 349t242 264.5t318.5 101.5t284.5 -73t171 -202.5t58.5 -321.5z" />
    <glyph glyph-name="uni042F" unicode="&#x42f;" horiz-adv-x="1218" 
d="M758 1386q-152 0 -250 -51t-143.5 -131t-45.5 -166q0 -133 82 -211.5t252 -78.5h334l158 638h-387zM240 1034q0 104 54 201.5t171 160t295 62.5h481l-362 -1458h-78l168 676h-316q-82 0 -141 14l-522 -690h-96l544 713q-198 81 -198 321z" />
    <glyph glyph-name="uni0430" unicode="&#x430;" horiz-adv-x="1040" 
d="M98 248q0 -96 64.5 -149.5t177.5 -53.5q162 0 278.5 100.5t161.5 280.5l33 131q-212 -16 -362 -41q-199 -29 -276 -100.5t-77 -167.5zM852 764q0 233 -264 233q-127 0 -216 -73.5t-116 -196.5h-78q33 152 145.5 244t269.5 92t243 -75t86 -224q0 -53 -19 -137l-98 -389
q-35 -137 -39 -238h-72q2 66 33 190h-2q-139 -211 -397 -210q-143 0 -225.5 70.5t-82.5 192.5t96.5 213t301 122t411.5 45l7 24q16 70 16 117z" />
    <glyph glyph-name="uni0431" unicode="&#x431;" horiz-adv-x="1124" 
d="M182 406q0 -174 76 -267.5t224 -93.5t256 88t163 220.5t55 282.5t-79.5 244.5t-235.5 94.5t-260.5 -92t-151.5 -223.5t-47 -253.5zM651 1040q180 0 280.5 -112.5t100.5 -313.5q0 -143 -65.5 -291.5t-191.5 -247t-300 -98.5t-269 112t-95 319q0 90 28 210
q76 303 173.5 472.5t229.5 244t358 97.5t333 49l-19 -72q-85 -20 -294 -45l-54 -6q-174 -18 -282.5 -76.5t-183 -167t-146.5 -297.5h4q138 223 393 223z" />
    <glyph glyph-name="uni0432" unicode="&#x432;" horiz-adv-x="1024" 
d="M477 66q102 0 170 35.5t98.5 90t30.5 111.5q0 94 -60.5 145.5t-180.5 51.5h-287l-109 -434h338zM553 563q168 0 246 69.5t78 158.5q0 184 -248 184h-262l-103 -412h289zM954 810q0 -103 -67.5 -181t-188.5 -101v-2q70 -18 113 -74.5t43 -136.5t-41 -150.5t-125 -117.5
t-205 -47h-432l258 1040h340q152 0 228.5 -63.5t76.5 -166.5z" />
    <glyph glyph-name="uni0433" unicode="&#x433;" horiz-adv-x="796" 
d="M367 975l-242 -975h-74l258 1040h586l-16 -65h-512z" />
    <glyph glyph-name="uni0434" unicode="&#x434;" horiz-adv-x="1097" 
d="M956 975h-471q-205 -707 -366 -909h612zM940 66l-96 -394h-74l82 328h-879l-82 -328h-73l98 394h115q86 88 178 302t221 672h617l-242 -974h135z" />
    <glyph glyph-name="uni0435" unicode="&#x435;" horiz-adv-x="1077" 
d="M938 692q0 147 -76 226t-225.5 79t-274 -113.5t-178.5 -303.5h742q12 57 12 112zM154 369q0 -158 77.5 -242t214 -84t242 72.5t152.5 191.5h78q-55 -145 -181.5 -237.5t-297.5 -92.5t-264 103.5t-93 276t66.5 333t196.5 267t303 106.5t266.5 -97.5t93.5 -275.5
q0 -76 -29 -176h-809q-16 -71 -16 -145z" />
    <glyph glyph-name="uni0436" unicode="&#x436;" horiz-adv-x="1284" 
d="M1165 0h-92l-381 563h-2l-139 -563h-74l137 557h-4l-633 -557h-116l671 575l-360 465h92l352 -467h2l117 467h74l-115 -458h2l557 458h117l-594 -477z" />
    <glyph glyph-name="uni0437" unicode="&#x437;" horiz-adv-x="950" 
d="M872 820q0 -106 -70.5 -183.5t-205.5 -110.5v-2q184 -57 184 -225q0 -76 -49 -150.5t-143 -123t-243 -48.5t-235.5 66t-86.5 180q0 35 6 68h75q-6 -31 -6 -58q0 -90 67.5 -138t186.5 -48t196 38t117 96.5t40 119.5q0 94 -72 145.5t-203 51.5h-119l17 65h114q119 0 199 37
t118 93.5t38 128.5t-62.5 121.5t-182.5 49.5t-206 -60.5t-117 -176.5h-75q33 143 143.5 225t260.5 82t232 -68.5t82 -174.5z" />
    <glyph glyph-name="uni0438" unicode="&#x438;" horiz-adv-x="1185" 
d="M801 0l237 961h-2q-253 -279 -323 -359t-119 -135l-416 -467h-127l258 1040h76l-240 -960h5l856 960h129l-258 -1040h-76z" />
    <glyph glyph-name="uni0439" unicode="&#x439;" horiz-adv-x="1185" 
d="M801 0l237 961h-2q-253 -279 -323 -359t-119 -135l-416 -467h-127l258 1040h76l-240 -960h5l856 960h129l-258 -1040h-76zM770 1251q210 0 281 207h69q-41 -129 -131 -199.5t-214 -70.5t-185.5 58.5t-61.5 168.5q0 27 2 43h62q-2 -12 -2 -37q0 -170 180 -170z" />
    <glyph glyph-name="uni043A" unicode="&#x43a;" horiz-adv-x="966" 
d="M817 0h-94l-459 553h-4l-135 -553h-74l258 1040h74l-111 -446h2l625 446h117l-668 -479z" />
    <glyph glyph-name="uni043B" unicode="&#x43b;" horiz-adv-x="1081" 
d="M-57 -4q-31 0 -56 4l15 66q16 -4 39 -5q88 0 152.5 72t140 280t186.5 627h610l-258 -1040h-74l242 975h-467q-104 -410 -186 -620t-160 -284.5t-184 -74.5z" />
    <glyph glyph-name="uni043C" unicode="&#x43c;" horiz-adv-x="1423" 
d="M1040 0l240 965h-4q-160 -244 -289 -430l-358 -535h-94l-168 965h-5l-237 -965h-74l258 1040h117l96 -546q39 -233 72 -414h4l645 960h129l-258 -1040h-74z" />
    <glyph glyph-name="uni043D" unicode="&#x43d;" horiz-adv-x="1150" 
d="M770 0l121 492h-645l-121 -492h-74l258 1040h74l-121 -483h645l121 483h74l-258 -1040h-74z" />
    <glyph glyph-name="uni043E" unicode="&#x43e;" horiz-adv-x="1103" 
d="M160 377.5q0 -150.5 79.5 -241.5t229 -91t256 93t161 232.5t54.5 291t-81 242.5t-229.5 91t-255 -93t-160.5 -233.5t-54 -291zM1016 643q0 -152 -64.5 -306.5t-189.5 -257t-301 -102.5t-275.5 110t-99.5 286t63.5 330.5t187.5 257t301 102.5t277.5 -110.5t100.5 -309.5z
" />
    <glyph glyph-name="uni043F" unicode="&#x43f;" horiz-adv-x="1136" 
d="M756 0l241 975h-630l-242 -975h-74l258 1040h778l-258 -1040h-73z" />
    <glyph glyph-name="uni0440" unicode="&#x440;" horiz-adv-x="1134" 
d="M238 368q0 -148 70 -235q70 -88 210 -88q139 0 245 95q105 94 159 238t55 294q0 150 -72 238t-210 87q-138 0 -243 -97q-106 -96 -160 -240t-54 -292zM1055 684q1 -170 -63 -331t-187 -267t-275 -106t-236 78q-85 78 -99 214h-2l-162 -651h-74l354 1419h74l-49 -190h4
q68 100 165 156t206 57q164 -1 254 -105t90 -274z" />
    <glyph glyph-name="uni0441" unicode="&#x441;" horiz-adv-x="1034" 
d="M983 715q0 -25 -2 -39h-76q2 14 2 37q0 131 -71.5 206.5t-208.5 75.5t-246 -96t-165 -239.5t-56 -291t75.5 -235.5t209 -88t237.5 81t149 208h80q-55 -160 -181 -258.5t-292 -98.5t-260 104.5t-94 277t64.5 332t191.5 266t294 106.5t258 -94.5t91 -253.5z" />
    <glyph glyph-name="uni0442" unicode="&#x442;" horiz-adv-x="888" 
d="M596 975l-242 -975h-75l241 975h-391l16 65h859l-17 -65h-391z" />
    <glyph glyph-name="uni0443" unicode="&#x443;" horiz-adv-x="905" 
d="M-96.5 -387q-69.5 0 -104.5 14l17 66q35 -12 91 -12t110.5 25.5t113.5 93t148 200.5l-152 1040h74l135 -944h4l610 944h86l-694 -1071q-94 -145 -163.5 -221t-137.5 -105.5t-137.5 -29.5z" />
    <glyph glyph-name="uni0444" unicode="&#x444;" horiz-adv-x="1525" 
d="M1368 680q0 146 -65.5 231.5t-187.5 85.5t-222 -102l-188 -754q66 -96 207 -96t244.5 99.5t157.5 244.5t54 291zM614 997q-139 0 -243.5 -99t-158.5 -243.5t-54 -290.5t66.5 -232.5t185.5 -86.5t221 96l188 758q-66 98 -205 98zM1446 693q0 -167 -64.5 -329.5t-187 -273
t-276.5 -110.5t-230 94l-113 -453h-73l108 436q-102 -78 -215 -77q-152 0 -232.5 101t-80.5 271t64.5 332t186 270.5t275.5 108.5t228 -98l122 493h74l-119 -477q106 82 220 82q151 0 232 -101.5t81 -268.5z" />
    <glyph glyph-name="uni0445" unicode="&#x445;" horiz-adv-x="925" 
d="M793 0h-84l-246 487h-4l-482 -487h-102l547 547l-252 493h82l221 -446h4l434 446h103l-498 -501z" />
    <glyph glyph-name="uni0446" unicode="&#x446;" horiz-adv-x="1136" 
d="M981 66l-98 -394h-74l82 328h-840l258 1040h74l-244 -974h633l242 974h73l-241 -974h135z" />
    <glyph glyph-name="uni0447" unicode="&#x447;" horiz-adv-x="985" 
d="M186 682q0 -199 272 -199q140 0 273 41l129 516h74l-258 -1040h-74l115 455q-141 -37 -290 -37t-231.5 66.5t-82.5 193.5q0 43 12 92l68 270h73l-69 -282q-10 -33 -11 -76z" />
    <glyph glyph-name="uni0448" unicode="&#x448;" horiz-adv-x="1677" 
d="M51 0l258 1040h74l-244 -974h551l242 974h74l-242 -974h549l241 974h74l-258 -1040h-1319z" />
    <glyph glyph-name="uni0449" unicode="&#x449;" horiz-adv-x="1677" 
d="M1511 66l-98 -394h-74l82 328h-1370l258 1040h74l-244 -974h551l242 974h74l-242 -974h549l241 974h74l-242 -974h125z" />
    <glyph glyph-name="uni044A" unicode="&#x44a;" horiz-adv-x="1159" 
d="M946 330q0 205 -270 205h-244l-115 -469h316q160 0 236.5 77.5t76.5 186.5zM680 600q340 0 340 -268q0 -86 -42 -162t-129 -123t-218 -47h-404l242 975h-340l16 65h414l-110 -440h231z" />
    <glyph glyph-name="uni044B" unicode="&#x44b;" horiz-adv-x="1343" 
d="M457 66q160 0 235.5 76.5t75.5 184t-65.5 158t-202.5 50.5h-244l-117 -469h318zM504 600q340 0 340 -268q0 -86 -42 -162t-129 -123t-218 -47h-404l258 1040h74l-111 -440h232zM963 0l258 1040h73l-258 -1040h-73z" />
    <glyph glyph-name="uni044C" unicode="&#x44c;" horiz-adv-x="983" 
d="M457 66q160 0 235.5 76t75.5 184t-65.5 158.5t-202.5 50.5h-244l-117 -469h318zM504 600q340 0 340 -268q0 -86 -42 -162t-129 -123t-218 -47h-404l258 1040h74l-111 -440h232z" />
    <glyph glyph-name="uni044D" unicode="&#x44d;" horiz-adv-x="1034" 
d="M952 682q0 -172 -64.5 -332t-191.5 -266.5t-295 -106.5t-258 94.5t-90 254.5q0 25 2 39h74q-2 -14 -2 -37q0 -131 71.5 -207t198.5 -76q174 0 293 131t164 318h-541l15 65h538q8 47 8 103q0 160 -74.5 246.5t-208.5 86.5t-238.5 -80.5t-147.5 -207.5h-80q55 160 180 258
t291 98t261 -104.5t95 -276.5z" />
    <glyph glyph-name="uni044E" unicode="&#x44e;" horiz-adv-x="1495" 
d="M1331 662q0 152 -80 242.5t-229 90.5t-254.5 -93t-160 -233.5t-54.5 -290.5t78.5 -241.5t228.5 -91.5t256.5 93t160.5 232.5t54 291.5zM1407 643q0 -152 -64.5 -306.5t-188.5 -257t-301 -102.5t-276.5 110t-99.5 308q0 47 6 92h-237l-121 -487h-74l258 1040h74l-121 -487
h232q29 133 98.5 250t180 188.5t251.5 71.5q184 0 283.5 -110.5t99.5 -309.5z" />
    <glyph glyph-name="uni044F" unicode="&#x44f;" horiz-adv-x="1005" 
d="M553 975q-156 0 -233.5 -74t-77.5 -174t66.5 -159.5t199.5 -59.5h240l114 467h-309zM164 721q0 82 41 154.5t128 118.5t216 46h407l-258 -1040h-77l110 442h-225q-57 0 -115 11l-373 -453h-100l399 475q-153 65 -153 246z" />
    <glyph glyph-name="uni0450" unicode="&#x450;" horiz-adv-x="1077" 
d="M938 692q0 147 -76 226t-225.5 79t-274 -113.5t-178.5 -303.5h742q12 57 12 112zM154 369q0 -158 77.5 -242t214 -84t242 72.5t152.5 191.5h78q-55 -145 -181.5 -237.5t-297.5 -92.5t-264 103.5t-93 276t66.5 333t196.5 267t303 106.5t266.5 -97.5t93.5 -275.5
q0 -76 -29 -176h-809q-16 -71 -16 -145zM766 1174h-68l-149 284h92z" />
    <glyph glyph-name="uni0451" unicode="&#x451;" horiz-adv-x="1077" 
d="M938 692q0 147 -76 226t-225.5 79t-274 -113.5t-178.5 -303.5h742q12 57 12 112zM154 369q0 -158 77.5 -242t214 -84t242 72.5t152.5 191.5h78q-55 -145 -181.5 -237.5t-297.5 -92.5t-264 103.5t-93 276t66.5 333t196.5 267t303 106.5t266.5 -97.5t93.5 -275.5
q0 -76 -29 -176h-809q-16 -71 -16 -145zM840 1292l41 166h73l-41 -166h-73zM465 1292l41 166h74l-41 -166h-74z" />
    <glyph glyph-name="uni0452" unicode="&#x452;" horiz-adv-x="1124" 
d="M313 754q142 196 385 196q123 0 200 -74.5t77 -216.5q0 -66 -23 -161l-149 -596q-39 -154 -114 -220.5t-185 -66.5q-29 0 -66 8l17 68q18 -6 45 -6q90 0 146 52t89 183l144 584q23 90 22 151q0 113 -60.5 171.5t-160.5 58.5t-185 -44t-149.5 -126t-91.5 -189l-129 -526
h-74l295 1190h-127l14 61h129l52 207h73l-51 -207h488l-15 -61h-489l-109 -436h2z" />
    <glyph glyph-name="uni0453" unicode="&#x453;" horiz-adv-x="796" 
d="M367 975l-242 -975h-74l258 1040h586l-16 -65h-512zM518 1174l254 284h105l-279 -284h-80z" />
    <glyph glyph-name="uni0454" unicode="&#x454;" horiz-adv-x="1034" 
d="M907 713q0 131 -71.5 206.5t-198.5 75.5q-170 0 -289 -127t-166 -309h545l-16 -65h-541q-10 -66 -10 -115q0 -158 76 -246q74 -88 208 -88t238 81t149 208h80q-55 -160 -181 -258.5t-292 -98.5t-260 104.5t-94 276.5t64.5 332t191.5 266.5t294 106.5t258 -94.5t91 -253.5
q0 -25 -2 -39h-76q2 14 2 37z" />
    <glyph glyph-name="uni0455" unicode="&#x455;" horiz-adv-x="944" 
d="M109 256q-1 -211 287 -211q146 0 232.5 68.5t86.5 176.5q0 110 -113 162q-55 26 -152.5 55.5t-151.5 56t-86 74.5t-32 126t43 146.5t127 110.5t222.5 42t223.5 -67.5t85 -192.5q0 -55 -13 -96h-73q12 47 12 90q0 96 -66.5 147t-197.5 51t-210 -63.5t-79 -164.5t94 -145
q45 -22 142 -51t160 -59.5t100.5 -82.5t37.5 -136t-46 -155.5t-138 -116t-240.5 -44.5t-239.5 72t-91 203q0 53 14 102h74q-12 -51 -12 -98z" />
    <glyph glyph-name="uni0456" unicode="&#x456;" horiz-adv-x="432" 
d="M51 0l258 1040h74l-258 -1040h-74zM373 1292l41 166h73l-41 -166h-73z" />
    <glyph glyph-name="uni0457" unicode="&#x457;" horiz-adv-x="432" 
d="M51 0l258 1040h74l-258 -1040h-74zM522 1300l39 158h74l-39 -158h-74zM229 1300l39 158h74l-39 -158h-74z" />
    <glyph glyph-name="uni0458" unicode="&#x458;" horiz-adv-x="450" 
d="M-182 -385q-29 0 -66 8l15 68q23 -6 47 -6q90 0 146 52t89 183l279 1120h73l-284 -1138q-39 -154 -114 -220.5t-185 -66.5zM391 1292l41 166h74l-41 -166h-74z" />
    <glyph glyph-name="uni0459" unicode="&#x459;" horiz-adv-x="1630" 
d="M1104 66q160 0 236.5 76t76.5 184t-65.5 158.5t-202.5 50.5h-244l-117 -469h316zM1153 600q168 0 254 -68.5t86 -199.5q0 -86 -42 -162t-130 -123t-219 -47h-404l242 975h-467q-104 -410 -186 -620t-160 -284.5t-184 -74.5q-31 0 -56 4l15 66q16 -4 39 -5q88 0 152.5 72
t140 280t186.5 627h610l-108 -440h231z" />
    <glyph glyph-name="uni045A" unicode="&#x45a;" horiz-adv-x="1701" 
d="M1489 330q0 205 -270 205h-244l-115 -469h316q160 0 236.5 77.5t76.5 186.5zM1223 600q340 0 340 -268q0 -86 -42 -162t-129 -123t-218 -47h-404l131 535h-645l-131 -535h-74l258 1040h74l-111 -440h646l110 440h74l-111 -440h232z" />
    <glyph glyph-name="uni045B" unicode="&#x45b;" horiz-adv-x="1124" 
d="M313 754q142 196 385 196q123 0 200 -74.5t77 -216.5q0 -66 -23 -161l-123 -498h-73l123 504q23 90 22 151q0 113 -60.5 171.5t-160.5 58.5t-185 -44t-149.5 -126t-91.5 -189l-129 -526h-74l295 1190h-127l14 61h129l52 207h73l-51 -207h488l-15 -61h-489l-109 -436h2z
" />
    <glyph glyph-name="uni045C" unicode="&#x45c;" horiz-adv-x="966" 
d="M817 0h-94l-459 553h-4l-135 -553h-74l258 1040h74l-111 -446h2l625 446h117l-668 -479zM553 1174l254 284h104l-278 -284h-80z" />
    <glyph glyph-name="uni045D" unicode="&#x45d;" horiz-adv-x="1185" 
d="M801 0l237 961h-2q-253 -279 -323 -359t-119 -135l-416 -467h-127l258 1040h76l-240 -960h5l856 960h129l-258 -1040h-76zM862 1174h-67l-150 284h92z" />
    <glyph glyph-name="uni045E" unicode="&#x45e;" horiz-adv-x="905" 
d="M-96.5 -387q-69.5 0 -104.5 14l17 66q35 -12 91 -12t110.5 25.5t113.5 93t148 200.5l-152 1040h74l135 -944h4l610 944h86l-694 -1071q-94 -145 -163.5 -221t-137.5 -105.5t-137.5 -29.5zM590 1251q211 0 280 207h70q-41 -129 -131 -199.5t-214 -70.5t-185.5 58.5
t-61.5 168.5q0 27 2 43h62q-2 -12 -2 -37q0 -170 180 -170z" />
    <glyph glyph-name="uni045F" unicode="&#x45f;" horiz-adv-x="1136" 
d="M477 0l-82 -328h-73l81 328h-352l258 1040h74l-244 -974h633l242 974h73l-258 -1040h-352z" />
    <glyph glyph-name="uni0490" unicode="&#x490;" horiz-adv-x="954" 
d="M504 1386l-344 -1386h-76l362 1458h654l80 322h73l-98 -394h-651z" />
    <glyph glyph-name="uni0491" unicode="&#x491;" horiz-adv-x="796" 
d="M367 975l-242 -975h-74l258 1040h512l82 328h74l-98 -393h-512z" />
    <glyph glyph-name="uni0492" unicode="&#x492;" horiz-adv-x="954" 
d="M348 760h328l-17 -68h-327l-172 -692h-76l172 692h-131l18 68h129l174 698h728l-19 -72h-651z" />
    <glyph glyph-name="uni0493" unicode="&#x493;" horiz-adv-x="796" 
d="M260 545h291l-14 -62h-291l-121 -483h-74l121 483h-119l17 62h116l123 495h586l-16 -65h-512z" />
    <glyph glyph-name="uni0496" unicode="&#x496;" horiz-adv-x="1683" 
d="M1587 72l-98 -400h-74l82 328h-41l-512 760h-4l-188 -760h-78l188 752h-4l-862 -752h-117l893 772l-471 686h88l473 -688h4l170 688h78l-170 -682h4l789 682h112l-815 -702l463 -684h90z" />
    <glyph glyph-name="uni0497" unicode="&#x497;" horiz-adv-x="1284" 
d="M1106 -328h-74l82 328h-41l-381 563h-2l-139 -563h-74l137 557h-4l-633 -557h-116l671 575l-360 465h92l352 -467h2l117 467h74l-115 -458h2l557 458h117l-594 -477l344 -497h84z" />
    <glyph glyph-name="uni049A" unicode="&#x49a;" horiz-adv-x="1161" 
d="M1063 72l-98 -400h-74l82 328h-49l-576 748h-2l-186 -748h-76l362 1458h76l-168 -670h4l842 670h119l-883 -698l531 -688h96z" />
    <glyph glyph-name="uni049B" unicode="&#x49b;" horiz-adv-x="966" 
d="M760 -328h-74l82 328h-45l-459 553h-4l-135 -553h-74l258 1040h74l-111 -446h2l625 446h117l-668 -479l414 -495h96z" />
    <glyph glyph-name="uni049C" unicode="&#x49c;" horiz-adv-x="1290" 
d="M1153 0h-90l-494 725h-8l-90 -358h-76l90 358h-145l-180 -725h-76l362 1458h76l-164 -661h144l90 358h76l-90 -358h8l755 661h115l-813 -710z" />
    <glyph glyph-name="uni049D" unicode="&#x49d;" horiz-adv-x="1042" 
d="M926 0h-95l-358 537h-6l-76 -306h-74l76 306h-135l-133 -537h-74l258 1040h74l-109 -438h136l73 297h74l-74 -297h6l525 438h116l-589 -479z" />
    <glyph glyph-name="uni04A2" unicode="&#x4a2;" horiz-adv-x="1468" 
d="M1118 -328l82 328h-149l180 721h-891l-180 -721h-76l362 1458h76l-166 -665h893l164 665h78l-346 -1386h145l-98 -400h-74z" />
    <glyph glyph-name="uni04A3" unicode="&#x4a3;" horiz-adv-x="1150" 
d="M823 -328l82 328h-135l121 492h-645l-121 -492h-74l258 1040h74l-121 -483h645l121 483h74l-242 -974h135l-98 -394h-74z" />
    <glyph glyph-name="uni04AE" unicode="&#x4ae;" horiz-adv-x="1198" 
d="M508 0h-76l158 639l-344 819h82l309 -741h2l379 411l299 330h102l-751 -819z" />
    <glyph glyph-name="uni04AF" unicode="&#x4af;" horiz-adv-x="899" 
d="M201 1040l65 -458q25 -162 70 -482h4l604 940h86l-676 -1046l-92 -373h-72l93 373l-156 1046h74z" />
    <glyph glyph-name="uni04B2" unicode="&#x4b2;" horiz-adv-x="1236" 
d="M1135 72l-99 -400h-73l81 328h-43l-331 690h-2l-668 -690h-106l733 754l-340 704h84l311 -647h4l627 647h104l-690 -710l324 -676h84z" />
    <glyph glyph-name="uni04B3" unicode="&#x4b3;" horiz-adv-x="925" 
d="M836 66l-99 -394h-73l81 328h-36l-246 487h-4l-482 -487h-102l547 547l-252 493h82l221 -446h4l434 446h103l-498 -501l244 -473h76z" />
    <glyph glyph-name="uni04B8" unicode="&#x4b8;" horiz-adv-x="1239" 
d="M199 942q0 57 20 133l94 383h76l-100 -405q-14 -68 -15 -107q0 -121 72 -188.5t213 -75.5l117 469h76l-117 -471q188 2 369 59l180 719h76l-363 -1458h-76l164 664q-182 -53 -369 -56l-81 -329h-76l82 331q-170 12 -256 97.5t-86 234.5z" />
    <glyph glyph-name="uni04B9" unicode="&#x4b9;" horiz-adv-x="985" 
d="M113 678q0 43 12 92l68 270h73l-69 -282q-10 -33 -11 -76q0 -176 203 -197l88 357h74l-88 -359q141 4 268 41l129 516h74l-258 -1040h-74l115 455q-137 -37 -271 -37l-59 -236h-74l60 240q-129 12 -194.5 77.5t-65.5 178.5z" />
    <glyph glyph-name="uni04BA" unicode="&#x4ba;" horiz-adv-x="1239" 
d="M1069 512q0 266 -338 266q-196 0 -391 -59l-180 -719h-76l362 1458h76l-166 -663q186 55 385 55t301.5 -86t102.5 -248q0 -57 -21 -133l-94 -383h-78l103 406q14 68 14 106z" />
    <glyph glyph-name="uni04BB" unicode="&#x4bb;" horiz-adv-x="1124" 
d="M727 1061q123 0 200 -75t77 -216q0 -66 -23 -162l-152 -608h-73l151 614q23 90 23 152q0 113 -60.5 171t-161 58t-185.5 -44t-149.5 -126t-90.5 -188l-158 -637h-74l363 1458h73l-147 -594h2q143 197 385 197z" />
    <glyph glyph-name="uni04C0" unicode="&#x4c0;" horiz-adv-x="501" 
d="M84 0l362 1458h76l-362 -1458h-76z" />
    <glyph glyph-name="uni04CF" unicode="&#x4cf;" horiz-adv-x="432" 
d="M51 0l363 1458h73l-362 -1458h-74z" />
    <glyph glyph-name="uni04D8" unicode="&#x4d8;" 
d="M186 494q0 -213 118 -329t304 -116q359 0 570 302q100 144 143 333h-1104q-31 -92 -31 -190zM111 496q0 129 49 260h1177q16 84 17 176q0 229 -117 353t-322 124t-363 -105t-226 -278h-84q78 205 257 330q179 124 421 124t377 -145q137 -145 137 -385t-96 -460t-278 -366
q-183 -146 -429 -146t-383 136t-137 382z" />
    <glyph glyph-name="uni04D9" unicode="&#x4d9;" horiz-adv-x="1077" 
d="M442 43q152 0 280 119t175 317h-739q-18 -63 -19 -131q0 -147 76 -226q75 -79 227 -79zM995 684q1 -172 -67 -333t-198 -267t-302 -106t-265 96q-93 98 -93 276q0 90 36 195h803q14 63 15 127q0 158 -78 242t-213 83q-135 0 -239 -67q-103 -68 -152 -178h-76
q55 137 179 224q124 86 293 86t263 -103t94 -275z" />
    <glyph glyph-name="uni04E8" unicode="&#x4e8;" 
d="M215 563q0 -231 119 -371.5t334 -140.5q172 0 309 90t225 236.5t123 316.5h-1100q-10 -76 -10 -131zM893 1407q-170 0 -306 -90t-224.5 -236.5t-124.5 -314.5h1101q8 57 9 129q0 231 -120 371.5t-335 140.5zM1425 876q0 -194 -91 -407t-264 -352.5t-404 -139.5
q-166 0 -285 74t-181.5 205.5t-62.5 325.5t91 407t263.5 352.5t403.5 139.5q166 0 285.5 -74t182 -205.5t62.5 -325.5z" />
    <glyph glyph-name="uni04E9" unicode="&#x4e9;" horiz-adv-x="1103" 
d="M160 393q0 -166 79.5 -257t243.5 -91t281 129t158 313h-756q-6 -49 -6 -94zM940 645q0 168 -81 259t-243 91t-279.5 -130t-158.5 -312h756q6 47 6 92zM1016 643q0 -152 -64.5 -306.5t-189.5 -257t-301 -102.5t-275.5 110t-99.5 286t63.5 330.5t187.5 257t301 102.5
t277.5 -110.5t100.5 -309.5z" />
    <glyph glyph-name="Wgrave" unicode="&#x1e80;" horiz-adv-x="1794" 
d="M1135 0l-11 684q-8 467 -10 700h-4l-707 -1384h-120l-25 1458h74l24 -1384h4l365 721l340 663h123l8 -663q8 -477 10 -721h4l711 1384h84l-750 -1458h-120zM1196 1556l-168 267h96l142 -267h-70z" />
    <glyph glyph-name="wgrave" unicode="&#x1e81;" horiz-adv-x="1527" 
d="M944 0l-65 971h-5l-83 -148q-74 -135 -179 -315l-286 -508h-109l-70 1040h74l62 -968h4q68 119 138.5 245.5t135.5 239.5l270 483h115l62 -968h4q59 102 178 315l366 653h82l-585 -1040h-109zM1030 1174h-67l-150 284h92z" />
    <glyph glyph-name="Wacute" unicode="&#x1e82;" horiz-adv-x="1794" 
d="M1135 0l-11 684q-8 467 -10 700h-4l-707 -1384h-120l-25 1458h74l24 -1384h4l365 721l340 663h123l8 -663q8 -477 10 -721h4l711 1384h84l-750 -1458h-120zM1038 1556l265 267h106l-289 -267h-82z" />
    <glyph glyph-name="wacute" unicode="&#x1e83;" horiz-adv-x="1527" 
d="M944 0l-65 971h-5l-83 -148q-74 -135 -179 -315l-286 -508h-109l-70 1040h74l62 -968h4q68 119 138.5 245.5t135.5 239.5l270 483h115l62 -968h4q59 102 178 315l366 653h82l-585 -1040h-109zM817 1174l254 284h105l-279 -284h-80z" />
    <glyph glyph-name="Wdieresis" unicode="&#x1e84;" horiz-adv-x="1794" 
d="M1135 0l-11 684q-8 467 -10 700h-4l-707 -1384h-120l-25 1458h74l24 -1384h4l365 721l340 663h123l8 -663q8 -477 10 -721h4l711 1384h84l-750 -1458h-120zM1313 1595l43 166h74l-44 -166h-73zM938 1595l43 166h74l-43 -166h-74z" />
    <glyph glyph-name="wdieresis" unicode="&#x1e85;" horiz-adv-x="1527" 
d="M944 0l-65 971h-5l-83 -148q-74 -135 -179 -315l-286 -508h-109l-70 1040h74l62 -968h4q68 119 138.5 245.5t135.5 239.5l270 483h115l62 -968h4q59 102 178 315l366 653h82l-585 -1040h-109zM1104 1292l41 166h74l-41 -166h-74zM729 1292l41 166h74l-41 -166h-74z" />
    <glyph glyph-name="Germandbls" unicode="&#x1e9e;" horiz-adv-x="1501" 
d="M1362 436q0 -113 -59.5 -218t-177 -171.5t-289.5 -66.5t-266.5 71.5t-94.5 210.5q0 39 8 78h80q-8 -33 -8 -74q0 -104 73.5 -159.5t219.5 -55.5t243 56.5t144 144.5t47 180q0 162 -104.5 247t-315.5 109l17 66l477 397q-55 76 -152.5 117t-222.5 41q-242 0 -398.5 -130
t-220.5 -384l-223 -895h-76l226 907q70 279 249 426.5t447 147.5q164 0 286 -63.5t183 -172.5l-483 -401q391 -75 391 -408z" />
    <glyph glyph-name="Ygrave" unicode="&#x1ef2;" horiz-adv-x="1198" 
d="M508 0h-76l158 639l-344 819h82l309 -741h2l379 411l299 330h102l-751 -819zM872 1556l-167 267h96l141 -267h-70z" />
    <glyph glyph-name="ygrave" unicode="&#x1ef3;" horiz-adv-x="905" 
d="M-96.5 -387q-69.5 0 -104.5 14l17 66q35 -12 91 -12t110.5 25.5t113.5 93t148 200.5l-152 1040h74l135 -944h4l610 944h86l-694 -1071q-94 -145 -163.5 -221t-137.5 -105.5t-137.5 -29.5zM682 1174h-68l-149 284h92z" />
    <glyph glyph-name="uni2010" unicode="&#x2010;" horiz-adv-x="575" 
d="M72 561l18 74h453l-21 -74h-450z" />
    <glyph glyph-name="endash" unicode="&#x2013;" horiz-adv-x="1024" 
d="M51 561l19 74h942l-19 -74h-942z" />
    <glyph glyph-name="emdash" unicode="&#x2014;" horiz-adv-x="2048" 
d="M51 561l19 74h1966l-19 -74h-1966z" />
    <glyph glyph-name="uni2015" unicode="&#x2015;" horiz-adv-x="2048" 
d="M-78 561l19 74h1966l-19 -74h-1966z" />
    <glyph glyph-name="underscoredbl" unicode="&#x2017;" horiz-adv-x="1024" 
d="M-229 -401l12 53h1024l-12 -53h-1024zM-168 -156l12 54h1024l-12 -54h-1024z" />
    <glyph glyph-name="quoteleft" unicode="&#x2018;" horiz-adv-x="391" 
d="M444 1458h58l-127 -260h28l-41 -162h-98l41 162z" />
    <glyph glyph-name="quoteright" unicode="&#x2019;" horiz-adv-x="391" 
d="M307 1036h-55l127 260h-29l41 162h96l-38 -162z" />
    <glyph glyph-name="quotesinglbase" unicode="&#x201a;" horiz-adv-x="391" 
d="M-20 -279h-56l127 261h-28l40 161h97l-39 -161z" />
    <glyph glyph-name="quotereversed" unicode="&#x201b;" horiz-adv-x="391" 
d="M444 1458h58l-127 -260h28l-41 -162h-98l41 162z" />
    <glyph glyph-name="quotedblleft" unicode="&#x201c;" horiz-adv-x="645" 
d="M700 1458h56l-127 -260h28l-39 -162h-98l39 162zM444 1458h58l-127 -260h28l-41 -162h-98l41 162z" />
    <glyph glyph-name="quotedblright" unicode="&#x201d;" horiz-adv-x="645" 
d="M307 1036h-55l127 260h-29l41 162h96l-38 -162zM561 1036h-55l127 260h-29l41 162h96l-39 -162z" />
    <glyph glyph-name="quotedblbase" unicode="&#x201e;" horiz-adv-x="645" 
d="M-20 -279h-56l127 261h-28l40 161h97l-39 -161zM233 -279h-55l127 261h-29l41 161h97l-39 -161z" />
    <glyph glyph-name="dagger" unicode="&#x2020;" horiz-adv-x="1044" 
d="M1063 1034l-19 -67h-372l-301 -1213h-78l303 1213h-373l17 67h372l105 424h78l-105 -424h373z" />
    <glyph glyph-name="daggerdbl" unicode="&#x2021;" horiz-adv-x="1044" 
d="M1063 1036l-19 -69h-372l-142 -568h373l-18 -69h-373l-141 -576h-78l143 576h-373l17 69h373l143 568h-373l17 69h372l105 422h78l-105 -422h373z" />
    <glyph glyph-name="bullet" unicode="&#x2022;" horiz-adv-x="634" 
d="M123 729q0 80 57.5 137.5t137 57.5t137 -57.5t57.5 -137.5t-57.5 -137t-137 -57t-137 57t-57.5 137z" />
    <glyph glyph-name="ellipsis" unicode="&#x2026;" horiz-adv-x="1165" 
d="M-4 0l39 162h100l-39 -162h-100zM403 0l39 162h101l-39 -162h-101zM813 0l39 162h100l-39 -162h-100z" />
    <glyph glyph-name="perthousand" unicode="&#x2030;" horiz-adv-x="1851" 
d="M1315 211q0 -168 125 -168q74 0 127 58.5t79.5 142.5t26.5 157q0 164 -123 164q-75 0 -128.5 -57t-80 -140t-26.5 -157zM700 211q0 -168 125 -168q74 0 127.5 58.5t80 142.5t26.5 157q0 164 -121 164q-76 0 -130 -57t-81 -140t-27 -157zM1552 633q193 0 193 -232
q0 -94 -35 -192t-104.5 -165t-166.5 -67t-147.5 58.5t-50.5 160.5t36 202t106.5 167.5t168.5 67.5zM1133 412q0 -102 -35 -201.5t-105.5 -166.5t-168.5 -67q-198 0 -197 230q0 92 35.5 191.5t106.5 167t168 67.5t146.5 -59.5t49.5 -161.5zM266 983q0 -166 125 -166
q74 0 127 58.5t80 142.5t27 158q0 164 -123 163q-76 0 -129.5 -58t-80 -141t-26.5 -157zM504 1405q194 0 194 -229q0 -92 -34.5 -191.5t-105.5 -166t-168 -66.5q-197 0 -197 229q0 92 35.5 190.5t106.5 166t169 67.5zM0 -61l1239 1503h84l-1239 -1503h-84z" />
    <glyph glyph-name="minute" unicode="&#x2032;" horiz-adv-x="299" 
d="M168 946l205 434h80l-230 -434h-55z" />
    <glyph glyph-name="second" unicode="&#x2033;" horiz-adv-x="524" 
d="M403 946l205 434h80l-229 -434h-56zM168 946l205 434h80l-230 -434h-55z" />
    <glyph glyph-name="guilsinglleft" unicode="&#x2039;" horiz-adv-x="526" 
d="M317 111h-73l-135 413l329 406h84l-336 -416z" />
    <glyph glyph-name="guilsinglright" unicode="&#x203a;" horiz-adv-x="526" 
d="M211 930h72l135 -414l-328 -405h-84l336 415z" />
    <glyph glyph-name="exclamdbl" unicode="&#x203c;" horiz-adv-x="866" 
d="M463 0l41 164h92l-41 -164h-92zM555 305l268 1153h97l-306 -1153h-59zM53 0l41 164h92l-41 -164h-92zM145 305l269 1153h96l-305 -1153h-60z" />
    <glyph glyph-name="interrobang" unicode="&#x203d;" horiz-adv-x="989" 
d="M451 164l-41 -164h-93l39 164h95zM934 997q0 92 -62.5 156t-171.5 78l-184 -699h2q38 52 174 139q135 87 188.5 160.5t53.5 165.5zM1014 1004q0 -112 -66.5 -202.5t-196.5 -169.5t-173 -115t-69 -84t-48 -136h-62l219 938q-135 -6 -229 -85t-137 -222h-76
q53 184 172 279.5t287 99.5l35 151h90l-41 -155q137 -19 216 -103t79 -196z" />
    <glyph glyph-name="overline" unicode="&#x203e;" horiz-adv-x="1024" 
d="M279 1634l16 66h1024l-16 -66h-1024z" />
    <glyph glyph-name="fraction" unicode="&#x2044;" horiz-adv-x="253" 
d="M-446 0l1151 1380h81l-1151 -1380h-81z" />
    <glyph glyph-name="zero.superior" unicode="&#x2070;" horiz-adv-x="823" 
d="M293 989q0 -268 184 -268q117 0 202 102.5t127 244.5t42 259q0 266 -186 266q-117 0 -201 -101t-126 -244.5t-42 -258.5zM473 659q-252 0 -252 328q0 137 50.5 294t151.5 267.5t243 110.5q254 0 254 -328q0 -137 -51.5 -293.5t-153 -267.5t-242.5 -111z" />
    <glyph glyph-name="four.superior" unicode="&#x2074;" horiz-adv-x="761" 
d="M612 1014l136 545h-3l-524 -545h391zM664 950l-70 -274h-68l70 274h-467l18 78l590 614h99l-158 -628h184l-16 -64h-182z" />
    <glyph glyph-name="five.superior" unicode="&#x2075;" horiz-adv-x="786" 
d="M554 1303q128 0 196.5 -71.5t68.5 -177.5t-44 -193t-130 -144.5t-206 -57.5t-189.5 55.5t-69.5 153.5q0 31 8 58h72q-6 -18 -6 -49q0 -74 50 -113t143 -39t163 48t105 119.5t35 153.5t-53.5 137.5t-147.5 55.5q-165 0 -252 -166l-68 4l197 565h512l-16 -63h-449
l-127 -362h2q78 86 206 86z" />
    <glyph glyph-name="six.superior" unicode="&#x2076;" horiz-adv-x="796" 
d="M281 924q0 -86 52 -142.5t145 -56.5t157.5 47t98.5 115.5t34 150.5t-52 141.5t-142 59.5t-157 -45t-101.5 -114.5t-34.5 -155.5zM930 1440q0 -20 -2 -33h-72v18q0 168 -176 168q-119 0 -219.5 -110.5t-155.5 -325.5h2q49 68 120 107t153 39q121 0 190.5 -76t69.5 -205
q0 -80 -43 -164t-125 -141.5t-191 -57.5q-268 0 -268 297q0 141 55.5 306t163 281t238.5 116t195.5 -58.5t64.5 -160.5z" />
    <glyph glyph-name="seven.superior" unicode="&#x2077;" horiz-adv-x="692" 
d="M326 676h-82q252 522 606 903h-565l16 63h647l-14 -65q-368 -391 -608 -901z" />
    <glyph glyph-name="eight.superior" unicode="&#x2078;" horiz-adv-x="800" 
d="M254 895q0 -72 59.5 -121t155.5 -49t159.5 36t95.5 88.5t32 122.5t-59 120.5t-155 50.5t-159.5 -35t-96 -88t-32.5 -125zM389 1362q0 -66 53.5 -111t143.5 -45t149.5 33t88 83t28.5 114t-54.5 110.5t-142.5 46.5t-147 -32.5t-89 -82.5t-30 -116zM924 1434
q0 -98 -64.5 -171t-177.5 -98v-4q66 -23 104.5 -78t38.5 -128t-42 -140t-122.5 -111.5t-202.5 -44.5t-199 68t-77 173t71 184t196 100v4q-61 27 -96.5 77t-35.5 115t41 130t117.5 107t188.5 42t186 -63.5t74 -161.5z" />
    <glyph glyph-name="nine.superior" unicode="&#x2079;" horiz-adv-x="796" 
d="M836 1394q0 86 -52.5 142.5t-145.5 56.5t-157.5 -47t-98.5 -115.5t-34 -150.5t51.5 -141.5t142.5 -59.5t157.5 45t101.5 114.5t35 155.5zM635 1659q266 0 266 -297q0 -141 -55 -306t-161.5 -281t-238.5 -116t-196 58.5t-64 161.5v32h74v-18q0 -168 176 -168
q119 0 219.5 110.5t155.5 325.5h-4q-47 -68 -118 -106.5t-152 -38.5q-123 0 -192 75.5t-69 204.5q0 80 43 164t125 141.5t191 57.5z" />
    <glyph glyph-name="plussuperior" unicode="&#x207a;" horiz-adv-x="829" 
d="M723 1161v-61h-279v-269h-59v269h-276v61h276v269h59v-269h279z" />
    <glyph glyph-name="uni207B" unicode="&#x207b;" horiz-adv-x="831" 
d="M109 1100v61h614v-61h-614z" />
    <glyph glyph-name="equalsuperior" unicode="&#x207c;" horiz-adv-x="829" 
d="M106 997v62h615v-62h-615zM106 1202v62h615v-62h-615z" />
    <glyph glyph-name="parenleftsuperior" unicode="&#x207d;" horiz-adv-x="376" 
d="M264 864q0 -198 55 -399h-57q-145 417 -10 747t317 527h68q-186 -211 -279.5 -444t-93.5 -431z" />
    <glyph glyph-name="parenrightsuperior" unicode="&#x207e;" horiz-adv-x="376" 
d="M403 1340q0 198 -55 399h58q145 -418 10 -747.5t-318 -526.5h-67q186 211 279 444t93 431z" />
    <glyph glyph-name="zero.inferior" unicode="&#x2080;" horiz-adv-x="823" 
d="M37 -39q0 -270 184 -268q117 0 202 102q85 103 127 245t42 259q0 266 -186 266q-117 0 -201 -101q-84 -100 -126 -244t-42 -259zM217 -369q-250 0 -252 328q0 137 50 294q49 157 151 267t244 111q254 0 254 -328q0 -137 -52 -294t-152 -267q-101 -110 -243 -111z" />
    <glyph glyph-name="one.inferior" unicode="&#x2081;" horiz-adv-x="468" 
d="M18 -352l205 817h-4q-61 -68 -227 -70l14 58q109 1 169 37t97 124h58l-242 -966h-70z" />
    <glyph glyph-name="two.inferior" unicode="&#x2082;" horiz-adv-x="794" 
d="M584 400q0 72 -48 119q-48 46 -144 46t-165 -58q-70 -58 -100 -161h-76q39 135 130 210q91 74 214 74t193 -63t70 -173t-82 -192q-80 -82 -268 -169q-188 -88 -261 -158q-72 -70 -96 -164h565l-16 -63h-635q20 106 64 181t124 135t210 120t197 105q68 43 96 91t28 120z
" />
    <glyph glyph-name="three.inferior" unicode="&#x2083;" horiz-adv-x="788" 
d="M479 -72q0 179 -219 181h-53l16 63h49q102 0 172 34t103 86t33 118t-56 111q-56 44 -156 44q-99 0 -170 -55t-98 -164h-69q31 133 122 209q91 75 219 75t201 -61q74 -61 74 -159t-61 -172q-61 -72 -183 -103v-2q145 -55 146 -203q0 -70 -42 -138t-124 -115
q-82 -46 -206 -46q-123 1 -195 59t-72 163q0 37 10 67h70q-6 -33 -6 -59q0 -80 52 -123t148 -43t162 35t100 89t33 109z" />
    <glyph glyph-name="four.inferior" unicode="&#x2084;" horiz-adv-x="761" 
d="M354 -14l135 544h-2l-524 -544h391zM406 -78l-70 -274h-68l70 274h-467l18 78l590 614h99l-158 -628h184l-16 -64h-182z" />
    <glyph glyph-name="five.inferior" unicode="&#x2085;" horiz-adv-x="788" 
d="M-76 -160q0 31 8 58h72q-6 -18 -6 -50q0 -74 50 -112t143 -39q93 0 163 48t105 119q35 72 35 154t-54 138t-147 55q-167 0 -252 -166l-68 4l197 565h512l-16 -63h-449l-127 -363h2q79 88 207 87q127 -1 196 -73t68 -196q0 -86 -44 -173t-130 -144t-206 -57
q-119 0 -189 54q-70 56 -70 154z" />
    <glyph glyph-name="six.inferior" unicode="&#x2086;" horiz-adv-x="794" 
d="M220 -303q93 0 158 47q132 94 132 266q0 82 -52 142t-142 59q-90 0 -157 -45t-102 -115q-35 -69 -35 -155t53 -142q52 -56 145 -57zM672 412q0 -20 -2 -33h-72v18q0 168 -176 168q-119 -1 -219 -111t-156 -325h2q49 68 120 107t153 38q120 0 190 -76t70 -204
q0 -80 -43 -164t-125 -141t-191 -58q-268 0 -268 297q0 141 55 306t163 281q109 115 239 115t195 -58t65 -160z" />
    <glyph glyph-name="seven.inferior" unicode="&#x2087;" horiz-adv-x="692" 
d="M68 -352h-82q252 522 606 903h-565l16 63h647l-14 -65q-368 -391 -608 -901z" />
    <glyph glyph-name="eight.inferior" unicode="&#x2088;" horiz-adv-x="800" 
d="M-2 -133q0 -72 59 -121t155 -49t160 36t96 89q32 52 32 122t-60 120t-154 51q-96 0 -159 -35t-96 -88t-33 -125zM133 334q0 -66 53 -111q54 -45 144 -45t149 33t88 83t29 114t-54 111q-54 46 -142 46t-148 -33q-59 -32 -89 -82t-30 -116zM61 354q0 63 41 128t117 107
q77 41 189 41t186 -63t74 -161t-65 -170q-65 -74 -177 -99v-4q66 -23 104 -78t39 -128q0 -73 -42 -141t-123 -111q-80 -44 -202 -44t-199 68t-77 173t71 184t196 100v4q-132 58 -132 194z" />
    <glyph glyph-name="nine.inferior" unicode="&#x2089;" horiz-adv-x="796" 
d="M580 366q0 86 -52 142t-146 57q-93 0 -158 -47q-64 -47 -98 -116q-34 -68 -34 -150t51 -141t142 -59t158 44q67 45 102 115q35 69 35 155zM-70 -117h74v-18q0 -168 176 -168q119 1 219 111t156 325h-4q-47 -69 -118 -107t-152 -38q-123 0 -192 76t-69 204q0 80 43 164
t125 141t202 57t188 -74q68 -75 68 -219t-56 -309t-162 -281q-106 -115 -238 -115t-196 58q-63 58 -64 160v33z" />
    <glyph glyph-name="uni208A" unicode="&#x208a;" horiz-adv-x="831" 
d="M723 133v-61h-279v-269h-59v269h-276v61h276v268h59v-268h279z" />
    <glyph glyph-name="uni208B" unicode="&#x208b;" horiz-adv-x="831" 
d="M109 72v61h614v-61h-614z" />
    <glyph glyph-name="uni208C" unicode="&#x208c;" horiz-adv-x="831" 
d="M106 -31v62h615v-62h-615zM106 174v62h615v-62h-615z" />
    <glyph glyph-name="uni208D" unicode="&#x208d;" horiz-adv-x="376" 
d="M8 -164q0 -198 55 -399h-57q-145 417 30 845q95 232 277 429h68q-187 -212 -280 -444q-93 -233 -93 -431z" />
    <glyph glyph-name="uni208E" unicode="&#x208e;" horiz-adv-x="376" 
d="M145 311q0 199 -55 400h57q66 -189 66 -401t-95 -444t-278 -429h-67q186 211 279 443t93 431z" />
    <glyph glyph-name="uni2099" unicode="&#x2099;" horiz-adv-x="813" 
d="M127 260q101 131 273 131q88 0 144 -53t56 -156q0 -43 -16 -108l-107 -426h-65l108 428q14 72 15 104q0 152 -160 152q-98 0 -181 -67t-112 -177l-109 -440h-65l182 729h66l-31 -117h2z" />
    <glyph glyph-name="franc" unicode="&#x20a3;" horiz-adv-x="1064" 
d="M367 793h653l-19 -72h-653l-82 -328h371l-16 -69h-371l-80 -324h-78l80 324h-164l19 69h163l246 987h772l-18 -71h-694z" />
    <glyph glyph-name="lira" unicode="&#x20a4;" horiz-adv-x="1064" 
d="M1034 1106q0 225 -238 225q-120 0 -207 -78.5t-124 -228.5l-51 -209h268l-16 -70h-271l-37 -153h269l-17 -70h-270l-41 -168q-53 -211 -186 -282v-2h749l-16 -70h-926l17 70q104 0 178.5 72.5t109.5 215.5l41 164h-217l17 70h217l39 153h-218l17 70h219l55 225
q45 176 151 269.5t256 93.5t228 -76t78 -215q0 -49 -12 -111h-74q12 59 12 105z" />
    <glyph glyph-name="peseta" unicode="&#x20a7;" horiz-adv-x="1587" 
d="M1087 1016q0 139 -84.5 216t-259.5 77h-260l-166 -664h340q144 0 241 57.5t143 142.5t46 171zM1221 166q0 -103 118 -103q37 0 74 9l-18 -70q-29 -6 -68 -6q-92 0 -136 39t-44 107t16 126l178 707h-178q-10 -100 -70.5 -192.5t-171 -151t-266.5 -58.5h-354l-141 -573h-76
l342 1380h322q201 0 305 -89t112 -251h193l59 240h74l-59 -240h210l-16 -65h-211l-180 -719q-14 -51 -14 -90z" />
    <glyph glyph-name="Euro" unicode="&#x20ac;" horiz-adv-x="1064" 
d="M997 391q-151 -414 -505 -414q-178 0 -273.5 124t-95.5 368q0 47 2 72h-117l29 67h94q8 68 29 152h-99l31 67h86q74 246 226.5 411t373.5 165q176 0 267.5 -89t91.5 -263q0 -41 -7 -80h-77q4 49 4 69q0 289 -283 289q-186 0 -316 -142.5t-200 -359.5h580l-29 -67h-569
q-20 -84 -29 -152h532l-28 -67h-512q-2 -25 -2 -70q0 -420 307 -420q285 0 410 340h79z" />
    <glyph glyph-name="uni20B9" unicode="&#x20b9;" horiz-adv-x="1064" 
d="M264 649h-41l17 70h84q156 0 265 45t167.5 114.5t70.5 147.5h-645l37 68h608q-20 217 -346 217h-227l37 69h932l-37 -69h-443v-2q152 -51 164 -215h244l-39 -68h-205q-16 -127 -136 -228.5t-329 -129.5v-2q66 -31 108 -92.5t68 -172.5l103 -401h-80l-96 379
q-37 145 -101.5 207.5t-179.5 62.5z" />
    <glyph glyph-name="uni20BA" unicode="&#x20ba;" horiz-adv-x="1064" 
d="M205 -4q-59 0 -86 2l164 653l-228 -108l21 80l227 106l53 215l-229 -108l20 79l228 109l90 356h76l-80 -321l391 186l-18 -80l-394 -186l-53 -215l393 188l-20 -80l-393 -188l-154 -616q295 0 488.5 147t246.5 424h78q-59 -317 -270 -480t-551 -163z" />
    <glyph glyph-name="uni20BC" unicode="&#x20bc;" horiz-adv-x="1228" 
d="M1169 791q0 -104 -41 -256l-131 -535h-77l137 551q37 139 37 240q0 162 -71 238.5t-222 90.5l-279 -1120h-76l279 1124h-6q-150 -2 -245 -50t-158.5 -155.5t-110.5 -297.5l-156 -621h-76l160 639q51 207 126 329t185.5 176t278.5 56h22l64 258h76l-66 -262
q178 -18 264 -114.5t86 -290.5z" />
    <glyph glyph-name="uni20BD" unicode="&#x20bd;" horiz-adv-x="1064" 
d="M641 682q135 0 226 54.5t134 136t43 163.5q0 129 -79.5 202t-241.5 73h-256l-158 -629h332zM1120 1038q0 -102 -53 -200.5t-161.5 -162t-266.5 -63.5h-346l-49 -190h432l-19 -70h-430l-88 -352h-73l88 352h-170l16 70h170l49 190h-170l17 70h170l174 698h317
q197 0 295 -91t98 -251z" />
    <glyph glyph-name="uni2105" unicode="&#x2105;" horiz-adv-x="1648" 
d="M844 1151q0 -16 -2 -25h-66v23q0 90 -51 142t-149 52t-174 -64q-74 -65 -112 -161t-38 -196t52 -160t144 -62q92 0 162 56q72 56 101 139h71q-39 -115 -129 -185t-210 -69q-121 0 -191 76t-70 197q0 122 46 232t138 184t216 73q124 0 193 -68t69 -184zM244 0l1151 1380
h82l-1151 -1380h-82zM940 263q0 -102 55 -164t159 -62t179 62q74 63 111 157t37 196q1 102 -55 164q-56 61 -162 61t-178 -62q-74 -62 -110 -156t-36 -196zM1147 -23q-129 0 -202 79q-73 78 -73 202t46 232q45 108 134 179t218 71t204 -80q74 -78 74 -202t-46 -232
t-136 -178t-219 -71z" />
    <glyph glyph-name="uni2113" unicode="&#x2113;" horiz-adv-x="886" 
d="M766 1151q0 188 -113 188q-63 0 -105 -61t-81 -221l-143 -576q137 33 237.5 144.5t152.5 255t52 270.5zM258 160q0 -110 133 -109q49 0 98 15l-16 -72q-47 -10 -92 -10q-100 0 -148.5 45t-48.5 143q0 53 19 121l28 119h-16q-61 0 -109 12l15 55q47 -10 94 -10l33 2
l145 586q47 195 107.5 270.5t146.5 75.5q176 0 176 -254q0 -147 -61.5 -305t-178 -276.5t-276.5 -147.5l-35 -144q-14 -66 -14 -116z" />
    <glyph glyph-name="uni2116" unicode="&#x2116;" horiz-adv-x="2236" 
d="M1470 258l17 66h600l-16 -66h-601zM1645 756q0 -102 55.5 -164t159.5 -62t176.5 63.5t110.5 158t38 196.5t-54.5 164t-160.5 62t-179 -63.5t-109.5 -158t-36.5 -196.5zM2253 952q0 -124 -46 -232t-136.5 -178.5t-218.5 -70.5t-201.5 78.5t-73.5 202.5t46 232t135 178.5
t218 70.5t203 -78.5t74 -202.5zM1042 0l-258 668q-166 424 -278 714h-2l-344 -1382h-76l362 1458h111l258 -667q166 -424 279 -715h2q94 379 120 479t70 285l154 618h78l-363 -1458h-113z" />
    <glyph glyph-name="uni2117" unicode="&#x2117;" horiz-adv-x="1677" 
d="M645 713h256q129 0 196.5 56t67.5 158.5t-67.5 159t-196.5 56.5h-256v-430zM1245 928q0 -133 -89 -211t-255 -78h-256v-426h-78v1004h334q166 0 255 -78t89 -211zM166 729q0 -205 84 -362.5t235.5 -243.5t352 -86t353 86t236.5 243.5t84 362.5t-84 362.5t-236.5 243.5
t-353 86t-352 -86t-235.5 -243.5t-84 -362.5zM1569 729q0 -221 -91.5 -391t-257 -264t-381.5 -94t-382 94t-257 264t-91 391t91 391t257 264.5t382 94.5t381.5 -94.5t257 -264.5t91.5 -391z" />
    <glyph glyph-name="trademark" unicode="&#x2122;" horiz-adv-x="1544" 
d="M1423 729l164 651h-4l-24 -39q-141 -219 -156 -241l-240 -371h-76l-53 371q-10 80 -41 280h-2l-164 -651h-65l182 729h100l93 -655h4l420 655h110l-182 -729h-66zM553 1397l-166 -668h-65l167 668h-260l15 61h585l-16 -61h-260z" />
    <glyph glyph-name="Omega" unicode="&#x2126;" horiz-adv-x="1474" 
d="M1446 991q0 -244 -143 -466t-426 -449v-4h395l-19 -72h-495l18 74q300 242 444 458t144 438q0 224 -119 330t-330 106t-361 -109q-150 -111 -228 -279q-76 -168 -76 -336t54 -309t157 -299l-19 -74h-479l17 72h399v4q-98 154 -152 298q-53 144 -53 322t85 363
q85 184 254 303t411 119t382 -123t140 -367z" />
    <glyph glyph-name="estimated" unicode="&#x212e;" horiz-adv-x="1755" 
d="M385 1077v-340q0 -27 27 -26h927q27 0 27 26v340q0 56 -31 82q-193 190 -461 190t-458 -190q-31 -28 -31 -82zM1659 666h-1247q-12 0 -19.5 -7.5t-7.5 -17.5v-340q0 -62 31 -88q190 -186 463 -186q147 0 275 60t212 163h139q-82 -113 -240.5 -194t-388.5 -81t-407.5 91.5
t-275 253t-97.5 365.5t95.5 366.5t273 257t415.5 94.5t415.5 -99.5t270.5 -268.5t93 -369z" />
    <glyph glyph-name="oneeighth" unicode="&#x215b;" horiz-adv-x="1357" 
d="M211 553l170 680h-4q-61 -49 -193 -49l15 59q94 0 146 31t83 106h57l-204 -827h-70zM-33 0l1151 1380h82l-1151 -1380h-82zM912 51q80 0 132 30t77 74q26 43 26 101t-48 98q-47 40 -145 39q-98 0 -159 -57t-61 -130t48 -114q50 -41 130 -41zM848 600q0 -66 44 -103
q44 -38 136 -38t147 54q54 53 54 119t-44 105q-45 39 -135 39t-146 -55t-56 -121zM1303 648q1 -85 -55 -146t-154 -84v-2q123 -41 123 -180q0 -60 -36 -118t-105 -95q-68 -37 -174 -37t-174 58t-66 150q0 92 61 158t166 84v2q-51 20 -82 64t-31 102q0 56 35 112t101 92
t162 36q97 0 163 -56q66 -55 66 -140z" />
    <glyph glyph-name="threeeighths" unicode="&#x215c;" horiz-adv-x="1628" 
d="M672 795q0 -59 -36 -119t-106 -98q-70 -39 -177 -39t-171 51q-63 51 -63 141q0 31 8 57h72q-6 -25 -6 -51q0 -133 172 -133q111 0 174 58t63 132q0 146 -184 146h-43l16 66h41q125 0 191 58q65 58 65 126t-46 104q-46 37 -128 37q-179 0 -221 -182h-72q27 119 106 183
t191 64t176 -53t64 -137q1 -176 -203 -233v-4q117 -49 117 -174zM236 0l1150 1380h82l-1151 -1380h-81zM1180 51q80 0 132 30t78 74t25 87q0 72 -48 112q-47 40 -145 39q-98 0 -159 -57t-61 -130t48 -114q50 -41 130 -41zM1116 600q0 -66 44 -103q44 -38 136 -38t147 54
q54 53 54 119t-44 105q-45 39 -135 39t-146 -55t-56 -121zM1571 648q0 -85 -55 -146t-154 -84v-2q123 -41 123 -180q0 -60 -36 -118q-37 -58 -105 -95t-174 -37t-173 58t-67 150t61 158t166 84v2q-51 20 -82 64t-31 102q0 56 35 112t101 92t162 36t163 -56q66 -55 66 -140z
" />
    <glyph glyph-name="fiveeighths" unicode="&#x215d;" horiz-adv-x="1628" 
d="M686 878q0 -188 -151 -290q-75 -49 -179 -49t-165 48q-60 48 -60 132q0 23 6 49h72q-4 -14 -4 -39q0 -59 42 -92q43 -33 119 -33t134 40q116 81 114 224q0 68 -44 114t-124 46q-130 0 -204 -137l-70 4l168 485h446l-16 -65h-383l-102 -293h2q62 70 170 71q109 1 169 -61
t60 -154zM236 0l1150 1380h82l-1151 -1380h-81zM1180 51q80 0 132 30t78 74t25 87q0 72 -48 112q-47 40 -145 39q-98 0 -159 -57t-61 -130t48 -114q50 -41 130 -41zM1116 600q0 -66 44 -103q44 -38 136 -38t147 54q54 53 54 119t-44 105q-45 39 -135 39t-146 -55t-56 -121z
M1571 648q0 -85 -55 -146t-154 -84v-2q123 -41 123 -180q0 -60 -36 -118q-37 -58 -105 -95t-174 -37t-173 58t-67 150t61 158t166 84v2q-51 20 -82 64t-31 102q0 56 35 112t101 92t162 36t163 -56q66 -55 66 -140z" />
    <glyph glyph-name="seveneighths" unicode="&#x215e;" horiz-adv-x="1441" 
d="M266 553h-84q217 449 508 762h-473l14 65h562l-17 -65q-305 -320 -510 -762zM49 0l1151 1380h82l-1151 -1380h-82zM993 51q80 0 132 30t78 74q26 43 26 101t-48 98q-47 40 -145 39q-98 0 -159 -57t-61 -130t48 -114q49 -41 129 -41zM930 600q0 -66 44 -103
q44 -38 136 -38t146 54q54 53 54 119t-43 105q-45 39 -135 39t-146 -55t-56 -121zM743 194q-1 92 61 158t167 84v2q-51 20 -82 64t-31 102q0 56 35 112t101 92t162 36q97 0 163 -56q65 -55 65 -140t-55 -146t-153 -84v-2q123 -41 122 -180q0 -59 -35 -118
q-81 -132 -279 -132q-106 0 -174 58t-67 150z" />
    <glyph glyph-name="Sevenroman" unicode="&#x2166;" horiz-adv-x="2209" 
d="M442 0l-192 1458h76l182 -1382h2l870 1382h88l-919 -1458h-107zM1292 0l363 1458h76l-363 -1458h-76zM1794 0l363 1458h75l-362 -1458h-76z" />
    <glyph glyph-name="partialdiff" unicode="&#x2202;" horiz-adv-x="1179" 
d="M164 332q0 -125 69.5 -203t211.5 -78t251 90t165.5 214t56.5 218q0 150 -77 237t-221 87t-249 -90t-156 -220t-51 -255zM1026 999q0 191 -79 299.5t-236 108.5q-121 0 -201 -71.5t-117 -198.5h-80q43 160 144.5 252t253.5 92q192 0 291.5 -127.5t99.5 -351.5t-75 -460.5
t-226.5 -400.5t-364.5 -164q-174 0 -263 97.5t-89 273.5q0 125 60.5 271.5t182.5 249t296 102.5q125 0 202.5 -57.5t109.5 -141.5t26 -168h4q61 204 61 395z" />
    <glyph glyph-name="Delta" unicode="&#x2206;" horiz-adv-x="1325" 
d="M987 764q-18 113 -45 283l-55 344h-2q-385 -595 -412 -627l-453 -692h1078zM-117 0l961 1458h104l236 -1458h-1301z" />
    <glyph glyph-name="product" unicode="&#x220f;" horiz-adv-x="1304" 
d="M1016 -246v1632h-727v-1632h-76v1704h881v-1704h-78z" />
    <glyph glyph-name="summation" unicode="&#x2211;" horiz-adv-x="933" 
d="M862 -176v-70h-790v70l471 772l-471 793v69h790v-69h-706l469 -793l-469 -772h706z" />
    <glyph glyph-name="minus" unicode="&#x2212;" horiz-adv-x="1159" 
d="M154 614v70h852v-70h-852z" />
    <glyph glyph-name="uni2215" unicode="&#x2215;" horiz-adv-x="851" 
d="M-244 -182l1030 1708h86l-1030 -1708h-86z" />
    <glyph glyph-name="uni2219" unicode="&#x2219;" horiz-adv-x="600" 
d="M250 545v162h100v-162h-100z" />
    <glyph glyph-name="radical" unicode="&#x221a;" horiz-adv-x="1040" 
d="M51 637v65h217l201 -847h4l457 1603h69l-487 -1704h-86l-211 883h-164z" />
    <glyph glyph-name="infinity" unicode="&#x221e;" horiz-adv-x="1175" 
d="M1075 631q0 90 -48 143t-132 53t-142.5 -49t-125.5 -147q68 -98 126 -147.5t142 -49.5t132 53.5t48 143.5zM282 827q-83 0 -131.5 -53t-48.5 -143t48.5 -143.5t131.5 -53.5t141 49t126 148q-68 98 -126 147t-141 49zM1145 631q0 -119 -67.5 -192.5t-173.5 -73.5
t-176.5 54t-139.5 154q-70 -100 -139.5 -154t-175.5 -54t-174 73.5t-68 192.5t68.5 192.5t173.5 73.5t175 -54.5t140 -154.5q70 100 140 154.5t176 54.5t173.5 -73.5t67.5 -192.5z" />
    <glyph glyph-name="integral" unicode="&#x222b;" horiz-adv-x="567" 
d="M481 1399q-82 0 -120.5 -48t-38.5 -153v-1323q0 -260 -228 -260q-37 0 -65 6v68q25 -8 57 -8q82 0 122 48t40 152v1323q0 260 225 260q39 0 68 -6v-67q-29 8 -60 8z" />
    <glyph glyph-name="approxequal" unicode="&#x2248;" horiz-adv-x="1159" 
d="M800 401q61 0 102.5 51.5t41.5 137.5h68q0 -115 -60.5 -186.5t-160.5 -71.5q-68 0 -117.5 28.5t-111.5 82.5t-102 79t-100 25t-102.5 -51.5t-42.5 -137.5h-68q0 115 60.5 186.5t161.5 71.5q67 0 117.5 -28.5t111.5 -82.5t101 -79t101 -25zM800 752q61 0 102.5 51
t41.5 137h68q0 -115 -60.5 -186.5t-160.5 -71.5q-68 0 -117.5 29t-111.5 83t-102 78.5t-100 24.5t-102.5 -51t-42.5 -137h-68q0 115 60.5 186.5t161.5 71.5q67 0 117.5 -29t111.5 -83t101 -78.5t101 -24.5z" />
    <glyph glyph-name="notequal" unicode="&#x2260;" horiz-adv-x="1159" 
d="M1006 543v-70h-508l-201 -289h-80l201 289h-264v70h313l145 211h-458v69h508l200 289h82l-201 -289h263v-69h-312l-147 -211h459z" />
    <glyph glyph-name="lessequal" unicode="&#x2264;" horiz-adv-x="1159" 
d="M1006 0h-852v70h852v-70zM225 651v-4l781 -344v-78l-852 377v94l852 377v-78z" />
    <glyph glyph-name="greaterequal" unicode="&#x2265;" horiz-adv-x="1159" 
d="M154 0v70h852v-70h-852zM1006 602l-852 -377v78l780 344v4l-780 344v78l852 -377v-94z" />
    <glyph glyph-name="lozenge" unicode="&#x25ca;" horiz-adv-x="1126" 
d="M563 59l404 670l-404 670l-403 -670zM608 0h-90l-436 729l436 729h90l436 -729z" />
    <glyph glyph-name="uniF8FF" unicode="&#xf8ff;" horiz-adv-x="1220" 
d="M518 133v139h92v-139h-92zM930 1030q0 -88 -35 -148t-123 -135t-119 -117t-42 -98t-11 -155h-68v43q0 166 62 249q34 45 116 117t111 122t29 135t-69 145t-183 59t-184 -65q-68 -64 -76 -185h-76q10 156 98 239t238 83t241 -81t91 -208zM111 1337v-1216q0 -89 53 -143
t143 -54h604q90 0 144 53q53 53 53 144v1216q0 89 -53 143t-144 54h-604q-90 0 -143 -53t-53 -144zM1165 121q1 -119 -67 -187t-187 -67h-604q-117 -1 -185 67t-67 187v1216q0 119 68 187t184 67h604q119 1 187 -67t67 -187v-1216z" />
    <glyph glyph-name="ff" unicode="&#xfb00;" horiz-adv-x="1026" 
d="M1157 1399q-82 0 -135 -50t-80 -159l-37 -150h215l-16 -65h-215l-242 -975h-74l244 975h-405l-244 -975h-74l244 975h-195l17 65h194l41 168q63 256 281 256q47 0 74 -8l-17 -65q-29 8 -55 8q-82 0 -134 -50t-79 -159l-37 -150h406l40 168q63 256 281 256q47 0 74 -8
l-17 -65q-29 8 -55 8z" />
    <glyph glyph-name="fi" unicode="&#xfb01;" horiz-adv-x="980" 
d="M678 1399q-82 0 -134 -50t-79 -159l-37 -150h215l-16 -65h-215l-244 -975h-74l244 975h-195l17 65h194l41 168q63 256 281 256q47 0 74 -8l-17 -65q-29 8 -55 8zM600 0l258 1040h74l-258 -1040h-74zM922 1292l41 166h73l-41 -166h-73z" />
    <glyph glyph-name="fl" unicode="&#xfb02;" horiz-adv-x="980" 
d="M678 1399q-82 0 -134 -50t-79 -159l-37 -150h215l-16 -65h-215l-244 -975h-74l244 975h-195l17 65h194l41 168q63 256 281 256q47 0 74 -8l-17 -65q-29 8 -55 8zM600 0l363 1458h73l-362 -1458h-74z" />
    <glyph glyph-name="ffi" unicode="&#xfb03;" 
d="M1409 1040l-258 -1040h-74l258 1040h74zM1473 1292h-74l41 166h73zM676 1464q47 0 74 -8l-17 -65q-29 8 -55 8q-82 0 -134 -50.5t-79 -158.5l-37 -150h406l40 168q63 256 281 256q47 0 74 -8l-17 -65q-29 8 -55 8q-163 0 -215 -209l-37 -150h215l-16 -65h-215l-242 -975
h-74l244 975h-405l-244 -975h-74l244 975h-195l17 65h194l41 168q63 256 281 256z" />
    <glyph glyph-name="ffl" unicode="&#xfb04;" 
d="M1151 0h-74l363 1458h73zM676 1464q47 0 74 -8l-17 -65q-29 8 -55 8q-82 0 -134 -50.5t-79 -158.5l-37 -150h406l40 168q63 256 281 256q47 0 74 -8l-17 -65q-29 8 -55 8q-163 0 -215 -209l-37 -150h215l-16 -65h-215l-242 -975h-74l244 975h-405l-244 -975h-74l244 975
h-195l17 65h194l41 168q63 256 281 256z" />
    <glyph glyph-name="uniFEFF" unicode="&#xfeff;" horiz-adv-x="0" 
 />
    <glyph glyph-name="J.acute.loclNLD" horiz-adv-x="651" 
d="M-4 -8q-55 0 -94 14l18 70q37 -10 76 -10q267 0 340 309l270 1083h78l-276 -1104q-43 -178 -150.5 -270t-261.5 -92zM573 1591l254 285h105l-279 -285h-80z" />
    <glyph glyph-name="Ccedilla.ss01" horiz-adv-x="1376" 
d="M1362 1026q0 -27 -4 -80h-80q4 53 4 76q0 174 -101.5 279.5t-299 105.5t-353 -132t-236.5 -333t-81 -412.5t110.5 -345t303 -133.5t340 110.5t213.5 291.5h82q-74 -215 -244 -345.5t-396 -130.5t-356.5 153t-130.5 390.5t90 455.5t264.5 361.5t413.5 143.5
q148 0 251 -58.5t156.5 -162t53.5 -234.5zM238 -424l327 324h82l-303 -324h-106z" />
    <glyph glyph-name="Scedilla.ss01" horiz-adv-x="1200" 
d="M1186 1130q0 -68 -17 -131h-75q16 76 16 125q0 285 -348 285q-135 0 -227.5 -51t-137.5 -129t-45 -156q0 -115 74 -176t222 -109t224 -91q164 -90 164 -287q0 -106 -60.5 -206t-180 -163.5t-311 -63.5t-300 92.5t-108.5 274.5q0 72 16 143h78q-18 -80 -18 -139
q0 -299 356 -299q154 0 255 54.5t148 136.5t47 167t-37.5 139t-105 89t-189.5 77t-197 84q-155 87 -155 273q0 96 56.5 191.5t168 158t267.5 62.5q420 -1 420 -351zM137 -424l328 324h82l-303 -324h-107z" />
    <glyph glyph-name="uni0162.ss01" horiz-adv-x="1185" 
d="M846 1386l-344 -1386h-76l344 1386h-539l17 72h1155l-19 -72h-538zM115 -424l327 324h82l-303 -324h-106z" />
    <glyph glyph-name="i.loclTRK" horiz-adv-x="432" 
d="M51 0l258 1040h74l-258 -1040h-74zM373 1292l41 166h73l-41 -166h-73z" />
    <glyph glyph-name="j.acute.loclNLD" horiz-adv-x="450" 
d="M-182 -385q-29 0 -66 8l15 68q23 -6 47 -6q90 0 146 52t89 183l279 1120h73l-284 -1138q-39 -154 -114 -220.5t-185 -66.5zM293 1174l254 284h104l-278 -284h-80z" />
    <glyph glyph-name="ccedilla.ss01" horiz-adv-x="1034" 
d="M983 715q0 -25 -2 -39h-76q2 14 2 37q0 131 -71.5 206.5t-208.5 75.5t-246 -96t-165 -239.5t-56 -291t75.5 -235.5t209 -88t237.5 81t149 208h80q-55 -160 -181 -258.5t-292 -98.5t-260 104.5t-94 277t64.5 332t191.5 266t294 106.5t258 -94.5t91 -253.5zM78 -424
l328 324h81l-303 -324h-106z" />
    <glyph glyph-name="scedilla.ss01" horiz-adv-x="944" 
d="M109 256q-1 -211 287 -211q146 0 232.5 68.5t86.5 176.5q0 110 -113 162q-55 26 -152.5 55.5t-151.5 56t-86 74.5t-32 126t43 146.5t127 110.5t222.5 42t223.5 -67.5t85 -192.5q0 -55 -13 -96h-73q12 47 12 90q0 96 -66.5 147t-197.5 51t-210 -63.5t-79 -164.5t94 -145
q45 -22 142 -51t160 -59.5t100.5 -82.5t37.5 -136t-46 -155.5t-138 -116t-240.5 -44.5t-239.5 72t-91 203q0 53 14 102h74q-12 -51 -12 -98zM10 -424l328 324h82l-303 -324h-107z" />
    <glyph glyph-name="uni0163.ss01" horiz-adv-x="581" 
d="M215 166q0 -103 119 -103q37 0 74 9l-19 -70q-27 -6 -67 -6q-92 0 -136.5 39t-44.5 106.5t17 126.5l178 707h-197l17 65h196l60 240h73l-59 -240h211l-16 -65h-211l-181 -719q-14 -51 -14 -90zM-141 -424l327 324h82l-303 -324h-106z" />
    <glyph glyph-name="a.sups" horiz-adv-x="755" 
d="M215 856q1 -134 185 -135q96 0 177.5 66.5t112.5 187.5l21 82q-357 -20 -426.5 -78.5t-69.5 -122.5zM739 1208q0 154 -180 154q-94 0 -155.5 -48t-79.5 -128h-70q25 104 106.5 169.5t197.5 65.5t179.5 -53t63.5 -160q0 -41 -13 -94l-65 -266q-29 -119 -29 -172h-65
q2 47 20 117h-2q-98 -131 -276 -131q-104 0 -165 50t-61 134q0 199 310 241q125 18 268 27q16 64 16 94z" />
    <glyph glyph-name="b.sups" horiz-adv-x="823" 
d="M309 938q0 -102 50.5 -160.5t146.5 -58.5t169 63.5t110.5 159.5t37.5 199t-49.5 163t-145.5 60t-169.5 -64.5t-111.5 -162t-38 -199.5zM641 1421q121 0 186.5 -73.5t65.5 -194.5t-46 -232.5t-133.5 -185t-195.5 -73.5t-167.5 50t-74.5 138h-2l-43 -174h-65l256 1020h65
l-104 -410h4q101 135 254 135z" />
    <glyph glyph-name="c.sups" horiz-adv-x="749" 
d="M848 1169q0 -16 -2 -24h-66v22q0 90 -51 142.5t-149 52.5t-173 -64.5t-113 -161t-38 -196.5t52 -160.5t144 -60.5t163 55t100 139h71q-39 -115 -128.5 -184.5t-209.5 -69.5t-191 76t-71 197t46.5 231.5t137.5 184t216 73.5t193.5 -67.5t68.5 -184.5z" />
    <glyph glyph-name="d.sups" horiz-adv-x="821" 
d="M258 938q0 -102 49 -161.5t145 -59.5t170 64.5t112 160.5t38 198t-50 162t-146 60t-169 -64.5t-111 -161t-38 -198.5zM440 659q-121 0 -186.5 74t-65.5 194t45.5 232.5t133.5 186t195 73.5t168 -51t73 -137h4l117 465h65l-256 -1020h-65l28 115h-2q-47 -61 -113.5 -96.5
t-140.5 -35.5z" />
    <glyph glyph-name="e.sups" horiz-adv-x="780" 
d="M585.5 1362q-104.5 0 -190.5 -74t-121 -201h514q8 33 9 72q0 98 -53.5 150.5t-158 52.5zM252 938q0 -109 54 -164t149.5 -55t168 47t105.5 125h68q-39 -102 -129 -167t-216 -65t-196 74t-70 196t48.5 233.5t141.5 185t220 73.5t194.5 -69.5t67.5 -194.5q0 -59 -18 -127
h-578q-10 -41 -10 -92z" />
    <glyph glyph-name="egrave.sups" horiz-adv-x="780" 
d="M585.5 1362q-104.5 0 -190.5 -74t-121 -201h514q8 33 9 72q0 98 -53.5 150.5t-158 52.5zM252 938q0 -109 54 -164t149.5 -55t168 47t105.5 125h68q-39 -102 -129 -167t-216 -65t-196 74t-70 196t48.5 233.5t141.5 185t220 73.5t194.5 -69.5t67.5 -194.5q0 -59 -18 -127
h-578q-10 -41 -10 -92zM494 1696h88l106 -197h-65z" />
    <glyph glyph-name="f.sups" horiz-adv-x="401" 
d="M601 1642q-42 0 -78 -32.5t-54 -108.5l-25 -96h154l-14 -59h-154l-166 -670h-65l166 670h-138l15 59h137l29 115q49 182 208 182q33 0 58 -6l-15 -60q-16 6 -58 6z" />
    <glyph glyph-name="g.sups" horiz-adv-x="819" 
d="M258 957q0 -96 48 -156t144 -60t171 63.5t114 157t39 189.5t-52 154.5t-148 58.5t-168 -62.5t-110 -155.5t-38 -189zM188 590q0 -131 212 -131t280 264l22 94h-2q-108 -133 -266 -133q-117 0 -179 73.5t-62 192.5t46 224.5t133.5 176t193.5 70.5q203 0 239 -182h2l41 166
h65l-174 -709q-75 -295 -364 -295q-119 0 -186.5 49.5t-67.5 137.5q0 14 4 43h68q-4 -29 -5 -41z" />
    <glyph glyph-name="h.sups" horiz-adv-x="813" 
d="M385 1288q101 131 272 131q88 0 144.5 -53t56.5 -156q0 -43 -16 -108l-107 -426h-65l108 428q14 72 15 104q0 152 -160 152q-98 0 -181 -66.5t-112 -177.5l-109 -440h-65l254 1020h65l-102 -408h2z" />
    <glyph glyph-name="i.sups" horiz-adv-x="317" 
d="M166 676l180 729h66l-181 -729h-65zM389 1577l31 119h65l-30 -119h-66z" />
    <glyph glyph-name="j.sups" horiz-adv-x="333" 
d="M10 406q-4 0 -53 6l12 59q12 -4 56 -4t82 35t61 121l194 782h66l-199 -799q-28 -108 -82.5 -154t-136.5 -46zM406 1577l30 119h66l-31 -119h-65z" />
    <glyph glyph-name="k.sups" horiz-adv-x="684" 
d="M731 676h-86l-315 385h-4l-95 -385h-65l254 1020h65l-149 -600h2l428 309h102l-462 -336z" />
    <glyph glyph-name="l.sups" horiz-adv-x="317" 
d="M166 676l254 1020h65l-254 -1020h-65z" />
    <glyph glyph-name="m.sups" horiz-adv-x="1224" 
d="M1071 1419q201 0 201 -198q0 -45 -17 -115l-108 -430h-66l109 440q16 61 16 120q0 124 -143 124q-90 0 -164 -66.5t-100 -173.5l-111 -444h-65l114 457q11 51 11 100t-37 88t-117 39t-153.5 -69.5t-104.5 -186.5l-105 -428h-65l182 729h66l-29 -111h4q84 125 225 125
q80 0 130.5 -41t62.5 -114q96 155 264 155z" />
    <glyph glyph-name="n.sups" horiz-adv-x="813" 
d="M385 1288q101 131 272 131q88 0 144.5 -53t56.5 -156q0 -43 -16 -108l-107 -426h-65l108 428q14 72 15 104q0 152 -160 152q-98 0 -181 -66.5t-112 -177.5l-109 -440h-65l182 729h66l-31 -117h2z" />
    <glyph glyph-name="o.sups" horiz-adv-x="798" 
d="M258 945q0 -102 55.5 -164t159.5 -62t178 62.5t111 156.5t37 196t-55.5 164t-161.5 62t-178 -62.5t-109 -156.5t-37 -196zM866 1140q0 -124 -46 -231.5t-136 -178.5t-219 -71t-202 78.5t-73 202.5t45.5 232t134.5 178.5t218 70.5t203.5 -78.5t74.5 -202.5z" />
    <glyph glyph-name="p.sups" horiz-adv-x="821" 
d="M307 940q0 -100 50.5 -160.5t146.5 -60.5t170 63.5t110.5 159.5t36.5 199t-49.5 163t-145.5 60t-169.5 -64.5t-111.5 -162t-38 -197.5zM891 1153q0 -121 -45 -232.5t-132.5 -185t-195.5 -73.5t-168.5 51t-75.5 137h-2l-108 -438h-66l248 993h66l-31 -119h4
q47 63 113.5 99t140.5 36q121 0 186.5 -73.5t65.5 -194.5z" />
    <glyph glyph-name="q.sups" horiz-adv-x="821" 
d="M258 938q0 -102 49 -161.5t145 -59.5t170 64.5t112 161.5t38 198t-50 161t-146 60t-169 -64.5t-111 -161t-38 -198.5zM440 659q-121 0 -186.5 74t-65.5 194t45.5 232.5t133 186t195.5 73.5t168.5 -51t72.5 -137h4l43 174h65l-247 -993h-66l96 383h-4
q-45 -63 -111.5 -99.5t-142.5 -36.5z" />
    <glyph glyph-name="r.sups" horiz-adv-x="495" 
d="M651 1409q18 0 47 -4l-16 -64q-10 2 -45 2q-113 0 -195 -70.5t-112 -201.5l-99 -395h-65l182 729h66l-33 -131h2q100 135 268 135z" />
    <glyph glyph-name="s.sups" horiz-adv-x="686" 
d="M219 860q0 -141 199 -141q106 0 164.5 44.5t58.5 108.5t-41 92t-129 54t-151.5 56t-63.5 126t72.5 158.5t194.5 62.5t184.5 -48t62.5 -138q0 -33 -8 -64h-66q6 31 6 58q0 133 -180 133q-92 0 -146 -41t-54 -101t33.5 -84t118.5 -50t159 -60.5t74 -134.5t-77 -166
t-209 -66t-199.5 51.5t-67.5 145.5q0 39 8 66h65q-8 -27 -8 -62z" />
    <glyph glyph-name="t.sups" horiz-adv-x="425" 
d="M371 672q-140 0 -140 125q0 31 13 75l118 474h-137l15 59h137l43 168h65l-43 -168h154l-14 -59h-154l-121 -484q-8 -30 -8 -63q0 -68 84 -68q16 0 53 6l-14 -59q-23 -6 -51 -6z" />
    <glyph glyph-name="u.sups" horiz-adv-x="813" 
d="M688 793q-101 -131 -271 -131q-89 0 -145.5 53t-56.5 155q0 43 16 109l107 426h65l-106 -428q-14 -57 -14 -105q0 -151 157 -151q98 0 181.5 65.5t111.5 178.5l111 440h65l-182 -729h-65l28 117h-2z" />
    <glyph glyph-name="v.sups" horiz-adv-x="655" 
d="M322 676l-103 729h66l45 -326q20 -164 45 -336h4q80 125 133 207l84 129l205 326h78l-469 -729h-88z" />
    <glyph glyph-name="w.sups" horiz-adv-x="1099" 
d="M801 676l-43 665h-4l-377 -665h-96l-48 729h64l43 -666h2l373 666h102l21 -336q8 -96 20 -330h4l371 666h74l-410 -729h-96z" />
    <glyph glyph-name="x.sups" horiz-adv-x="675" 
d="M713 676h-74l-174 332h-2l-330 -332h-90l387 383l-180 346h74l153 -303h2l297 303h88l-350 -352z" />
    <glyph glyph-name="y.sups" horiz-adv-x="661" 
d="M72 406q-52 0 -76 8l14 57q26 -6 66 -6t79.5 17.5t79 61.5t99.5 132l-115 729h66l100 -643h2l422 643h76l-496 -756q-119 -185 -192 -214t-125 -29z" />
    <glyph glyph-name="z.sups" horiz-adv-x="665" 
d="M172 735h514l-14 -59h-600l16 69l651 596v5h-485l14 59h572l-19 -70l-649 -596v-4z" />
    <glyph glyph-name="a.smcp" horiz-adv-x="1101" 
d="M799 453l-109 604h-2l-409 -604h520zM231 381l-258 -381h-90l762 1122h107l206 -1122h-75l-70 381h-582z" />
    <glyph glyph-name="aacute.smcp" horiz-adv-x="1101" 
d="M799 453l-109 604h-2l-409 -604h520zM231 381l-258 -381h-90l762 1122h107l206 -1122h-75l-70 381h-582zM612 1255l254 285h105l-279 -285h-80z" />
    </font>
</defs>
</svg>
