<?xml version="1.0" standalone="no"?>
<!DOCTYPE svg PUBLIC "-//W3C//DTD SVG 1.1//EN" "http://www.w3.org/Graphics/SVG/1.1/DTD/svg11.dtd" >
<svg xmlns="http://www.w3.org/2000/svg">
<metadata>
Created by FontPrep 20130207 at Sat Mar 12 16:03:32 2016
 By Matthew Higley
Copyright (c) 2015 Monotype Imaging Inc.  All rights reserved.
</metadata>
<defs>
<font id="8660e66e2924e5f5ec959e039eef227b" horiz-adv-x='1024' >
  <font-face 
    font-family="NeueHaasUnicaW1G-BoldItalic"
    font-weight="700"
    font-style="italic"
    font-stretch="normal"
    units-per-em="2048"
    panose-1="2 11 8 4 3 2 6 9 2 3"
    ascent="1565"
    descent="-483"
    x-height="1040"
    cap-height="1458"
    bbox="-1290 -563 2605 2286"
    underline-thickness="102"
    underline-position="-153"
    slope="-14"
    unicode-range="U+0020-FEFF"
  />
<missing-glyph horiz-adv-x="1314" 
d="M514 133v229h262v-229h-262zM1030 1016q0 -84 -30.5 -142.5t-114.5 -136.5t-109.5 -133t-25.5 -155h-209q-2 23 -2 99t26.5 138t98.5 136t90 107.5t18 82.5t-28 77.5t-88 28.5q-122 0 -126 -164h-256q2 180 103 275.5t279 95.5t276 -83t98 -226zM164 1315v-1172
q0 -68 39 -106.5t106 -38.5h697q68 0 106.5 39t38.5 106v1172q0 68 -39 106.5t-106 38.5h-697q-67 0 -106 -39t-39 -106zM1282 1315v-1172q0 -127 -74.5 -201.5t-201.5 -74.5h-697q-127 0 -201.5 74.5t-74.5 201.5v1172q0 127 74.5 201.5t201.5 74.5h697q127 0 201.5 -74.5
t74.5 -201.5z" />
    <glyph glyph-name="f_f" unicode="ff" horiz-adv-x="1335" 
d="M762 1475q80 0 149 -21l-49 -199q-18 6 -47 7q-80 0 -127 -41t-72 -138l-10 -43h355l28 119q78 316 410 316q79 -1 149 -21l-49 -199q-18 6 -47 7q-80 0 -127 -41t-72 -138l-10 -43h195l-54 -213h-194l-207 -827h-283l207 827h-354l-207 -827h-283l207 827h-174l54 213
h174l28 119q78 316 410 316z" />
    <glyph glyph-name="f_f_i" unicode="ffi" horiz-adv-x="1900" 
d="M762 1475q80 0 149 -21l-49 -199q-18 6 -47 7q-80 0 -127 -41t-72 -138l-10 -43h355l28 119q78 316 410 316q79 -1 149 -21l-49 -199q-18 6 -47 7q-80 0 -127 -41t-72 -138l-10 -43h195l-54 -213h-194l-207 -827h-283l207 827h-354l-207 -827h-283l207 827h-174l54 213
h174l28 119q78 316 410 316zM1346 0l258 1040h286l-258 -1040h-286zM1647 1212l61 246h287l-62 -246h-286z" />
    <glyph glyph-name="f_f_l" unicode="ffl" horiz-adv-x="1900" 
d="M762 1475q80 0 149 -21l-49 -199q-18 6 -47 7q-80 0 -127 -41t-72 -138l-10 -43h355l28 119q78 316 410 316q79 -1 149 -21l-49 -199q-18 6 -47 7q-80 0 -127 -41t-72 -138l-10 -43h195l-54 -213h-194l-207 -827h-283l207 827h-354l-207 -827h-283l207 827h-174l54 213
h174l28 119q78 316 410 316zM1346 0l362 1458h287l-363 -1458h-286z" />
    <glyph glyph-name="f_i" unicode="fi" horiz-adv-x="1263" 
d="M911 1454l-49 -199q-18 6 -47 7q-80 0 -127 -41t-72 -138l-10 -43h195l-53 -213h-195l-207 -827h-283l207 827h-174l54 213h174l28 119q78 316 410 316q79 -1 149 -21zM709 0l258 1040h286l-258 -1040h-286zM1010 1212l61 246h287l-62 -246h-286z" />
    <glyph glyph-name="f_l" unicode="fl" horiz-adv-x="1263" 
d="M911 1454l-49 -199q-18 6 -47 7q-80 0 -127 -41t-72 -138l-10 -43h195l-53 -213h-195l-207 -827h-283l207 827h-174l54 213h174l28 119q78 316 410 316q79 -1 149 -21zM709 0l362 1458h287l-363 -1458h-286z" />
    <glyph glyph-name=".notdef" horiz-adv-x="1314" 
d="M514 133v229h262v-229h-262zM1030 1016q0 -84 -30.5 -142.5t-114.5 -136.5t-109.5 -133t-25.5 -155h-209q-2 23 -2 99t26.5 138t98.5 136t90 107.5t18 82.5t-28 77.5t-88 28.5q-122 0 -126 -164h-256q2 180 103 275.5t279 95.5t276 -83t98 -226zM164 1315v-1172
q0 -68 39 -106.5t106 -38.5h697q68 0 106.5 39t38.5 106v1172q0 68 -39 106.5t-106 38.5h-697q-67 0 -106 -39t-39 -106zM1282 1315v-1172q0 -127 -74.5 -201.5t-201.5 -74.5h-697q-127 0 -201.5 74.5t-74.5 201.5v1172q0 127 74.5 201.5t201.5 74.5h697q127 0 201.5 -74.5
t74.5 -201.5z" />
    <glyph glyph-name=".null" horiz-adv-x="0" 
 />
    <glyph glyph-name="nonmarkingreturn" horiz-adv-x="681" 
 />
    <glyph glyph-name="NULL" 
 />
    <glyph glyph-name="NULL" 
 />
    <glyph glyph-name="space" unicode=" " horiz-adv-x="471" 
 />
    <glyph glyph-name="exclam" unicode="!" horiz-adv-x="663" 
d="M45 0l68 270h315l-68 -270h-315zM193 406l198 1052h348l-325 -1052h-221z" />
    <glyph glyph-name="quotedbl" unicode="&#x22;" horiz-adv-x="892" 
d="M248 899l108 559h271l-170 -559h-209zM625 899l108 559h271l-170 -559h-209z" />
    <glyph glyph-name="numbersign" unicode="#" horiz-adv-x="1376" 
d="M672 823l-109 -264h228l108 264h-227zM1036 559h205l-84 -205h-203l-145 -354h-246l146 354h-228l-145 -354h-246l146 354h-205l84 205h202l109 264h-205l84 205h205l143 352h246l-143 -352h227l143 352h246l-143 -352h203l-84 -205h-203z" />
    <glyph glyph-name="dollar" unicode="$" 
d="M846 382q0 69 -34 105.5t-107 67.5l-93 -373q115 10 174.5 70.5t59.5 129.5zM489 1023q0 -60 30 -95t95 -66l86 338q-94 -12 -152.5 -64.5t-58.5 -112.5zM1239 1063q0 -57 -14 -109h-264q8 31 8 70q0 119 -107 160l-94 -379q115 -39 233.5 -106.5t118.5 -274.5
q0 -106 -64.5 -209.5t-191.5 -171.5t-305 -72l-43 -174h-166l45 185q-168 27 -259 117.5t-91 240.5q0 57 12 115h271q-10 -47 -11 -82q0 -135 134 -176l102 413q-162 57 -247 135t-85 228q0 100 61.5 199.5t182.5 166t287 70.5l39 156h165l-41 -166q324 -50 324 -336z" />
    <glyph glyph-name="percent" unicode="%" horiz-adv-x="1861" 
d="M1266 262q0 -131 77 -131q59 0 100.5 61.5t62 144.5t20.5 148q0 129 -78 129q-59 0 -100 -60t-61.5 -143t-20.5 -149zM1743 498q0 -132 -47 -252.5t-139.5 -199.5t-227.5 -79t-208.5 75t-73.5 207t47 252t139 198.5t228 78.5t209 -74t73 -206zM422 897q0 -131 78 -131
q59 0 100 61.5t61.5 144.5t20.5 148q0 129 -78 129q-59 0 -100 -60.5t-61.5 -143t-20.5 -148.5zM899 1132q0 -132 -47 -252t-139 -199t-227 -79t-209 75t-74 207t47 251.5t139.5 198.5t228.5 79t208.5 -74.5t72.5 -206.5zM315 -61l1147 1503h168l-1147 -1503h-168z" />
    <glyph glyph-name="ampersand" unicode="&#x26;" horiz-adv-x="1542" 
d="M365 381q0 -74 59 -121t178 -47t246 86l-258 342q-125 -57 -175 -121.5t-50 -138.5zM944 1177.5q0 79.5 -126 79.5q-64 0 -105 -48t-41 -99t15 -92t52 -109q109 61 157 125t48 143.5zM393 1080q0 112 53.5 203t159.5 149.5t264 58.5t253.5 -85t95.5 -232
q0 -250 -357 -426l189 -252q96 111 153 327h285q-86 -323 -287 -530l219 -293h-348l-92 123q-86 -74 -210 -115t-249 -41q-227 0 -346 99.5t-119 263.5t103.5 295t320.5 204q-88 139 -88 251z" />
    <glyph glyph-name="quotesingle" unicode="'" horiz-adv-x="516" 
d="M248 899l108 559h271l-170 -559h-209z" />
    <glyph glyph-name="parenleft" unicode="(" horiz-adv-x="671" 
d="M369 244q0 -278 37 -545h-228q-100 301 -100 609t133 619.5t403 590.5h244q-248 -328 -368.5 -662t-120.5 -612z" />
    <glyph glyph-name="parenright" unicode=")" horiz-adv-x="671" 
d="M346 973q0 279 -37 545h228q100 -302 100 -610t-133 -619.5t-404 -589.5h-243q247 328 368 661.5t121 612.5z" />
    <glyph glyph-name="asterisk" unicode="*" horiz-adv-x="872" 
d="M942 1221l12 -205l-276 12l133 -242l-188 -75l-74 266l-189 -201l-131 156l232 151l-250 117l106 176l218 -174l34 275l199 -50l-98 -260z" />
    <glyph glyph-name="plus" unicode="+" horiz-adv-x="1159" 
d="M1028 760v-223h-338v-338h-221v338h-338v223h338v338h221v-338h338z" />
    <glyph glyph-name="comma" unicode="," horiz-adv-x="528" 
d="M53 -352h-172l201 352h-105l84 342h316l-84 -342z" />
    <glyph glyph-name="hyphen" unicode="-" horiz-adv-x="655" 
d="M53 485l56 226h532l-55 -226h-533z" />
    <glyph glyph-name="period" unicode="." horiz-adv-x="528" 
d="M-23 0l84 342h316l-84 -342h-316z" />
    <glyph glyph-name="slash" unicode="/" horiz-adv-x="1011" 
d="M-115 -182l1030 1708h242l-1030 -1708h-242z" />
    <glyph glyph-name="zero" unicode="0" 
d="M924 899q0 266 -162 266q-115 0 -199 -120.5t-128 -284.5t-44 -283q0 -266 160 -266q117 0 201 121t128 284.5t44 282.5zM1225 922q0 -228 -79 -445t-235.5 -363.5t-376.5 -146.5t-332 130.5t-112 358.5t79 446t235.5 364.5t376.5 146.5t332 -131.5t112 -359.5z" />
    <glyph glyph-name="one" unicode="1" 
d="M401 0l234 936h-334l51 209q174 0 273.5 55t146.5 180h268l-344 -1380h-295z" />
    <glyph glyph-name="two" unicode="2" 
d="M1217 1058q0 -163 -111 -290t-359 -253t-294.5 -177t-61.5 -96h666l-58 -242h-1034q31 170 97.5 289t181 211t277.5 174t241 135t111.5 106t33.5 117t-38 100.5t-109 36.5q-186 0 -244 -221h-297q55 225 203.5 345t356.5 120t323 -96t115 -259z" />
    <glyph glyph-name="three" unicode="3" 
d="M1227 1061q0 -123 -77 -219.5t-247 -149.5v-4q184 -76 184 -274q0 -109 -62 -211.5t-186 -169t-300 -66.5q-231 0 -353.5 97.5t-122.5 281.5q0 43 11 105h295q-10 -51 -11 -82q0 -158 193 -158q74 0 129 30.5t85 78t30 92.5q0 160 -230 159h-41l58 238h39
q104 0 173.5 32.5t102.5 82.5t33 110t-45 97.5t-125 37.5q-195 0 -252 -227h-297q53 223 203.5 347t365.5 124t331 -93t116 -259z" />
    <glyph glyph-name="four" unicode="4" 
d="M709 541l41 168q76 285 127 440h-5q-207 -242 -372 -416l-187 -192h396zM1190 541l-57 -232h-193l-78 -309h-295l78 309h-670l68 269l752 802h411l-209 -839h193z" />
    <glyph glyph-name="five" unicode="5" 
d="M725 920q182 0 286.5 -106.5t104.5 -289.5q0 -127 -72.5 -257t-213 -215t-338.5 -85t-316.5 87t-118.5 243q0 43 9 82h296q-4 -14 -4 -39q0 -63 49.5 -97t135.5 -34t146.5 46t89 113.5t28.5 145.5t-47 124t-126 46t-136.5 -39t-87.5 -104l-287 18l283 821h868l-60 -239
h-632l-107 -297h4q104 76 246 76z" />
    <glyph glyph-name="six" unicode="6" 
d="M399 385q0 -76 42 -126t121 -50t136.5 42t87 104.5t29.5 140.5t-41 130t-121 52t-137 -43t-87 -108.5t-30 -141.5zM1243 1051q0 -31 -2 -47h-297l2 24q0 143 -149 143q-106 0 -199.5 -90t-151.5 -276h5q131 96 299 96t271 -109.5t103 -295.5q0 -119 -68.5 -242
t-199.5 -205t-305 -82q-213 0 -324.5 122.5t-111.5 346.5t82 448t240.5 376.5t370.5 152.5t323.5 -95t111.5 -267z" />
    <glyph glyph-name="seven" unicode="7" 
d="M878.5 613q-184.5 -294 -315.5 -613h-342q156 354 355.5 653t381.5 477h-720l61 250h1026l-59 -254q-203 -219 -387.5 -513z" />
    <glyph glyph-name="eight" unicode="8" 
d="M358 360q0 -62 52.5 -105.5t140.5 -43.5t147.5 32.5t88 82.5t28.5 114t-52.5 108t-142.5 44t-147 -34t-86 -85t-29 -113zM524 968q0 -60 48.5 -100.5t131.5 -40.5t136 31t78.5 75t25.5 85q0 74 -48 115t-130 41t-135 -29t-80 -73t-27 -104zM1235 1057q0 -123 -87 -226.5
t-243 -136.5v-4q90 -39 141.5 -116.5t51.5 -181.5t-64.5 -201t-192.5 -160.5t-329 -63.5t-326 104.5t-125 285.5t123 270.5t240 111.5v4q-82 39 -127 110t-45 163t63.5 184t184.5 152.5t306 60.5t307 -96t122 -260z" />
    <glyph glyph-name="nine" unicode="9" 
d="M872 996q0 76 -42 125.5t-120 49.5t-136 -42t-87.5 -104t-29.5 -140t41 -130.5t120.5 -52.5t137 43t87 109t29.5 142zM29 330q0 31 2 47h297l-2 -25q0 -143 149 -143q106 0 199.5 90t150.5 276h-4q-131 -96 -300 -96t-271.5 109.5t-102.5 296.5q0 119 69 241.5t200 204.5
t305 82q213 0 324.5 -123t111.5 -346t-82 -447.5t-240.5 -377t-370.5 -152.5t-323.5 95.5t-111.5 267.5z" />
    <glyph glyph-name="colon" unicode=":" horiz-adv-x="528" 
d="M-23 0l84 342h316l-84 -342h-316zM152 698l84 342h315l-84 -342h-315z" />
    <glyph glyph-name="semicolon" unicode=";" horiz-adv-x="528" 
d="M53 -352h-172l201 352h-105l84 342h316l-84 -342zM152 698l84 342h315l-84 -342h-315z" />
    <glyph glyph-name="less" unicode="&#x3c;" horiz-adv-x="1159" 
d="M395 651v-4l633 -252v-241l-897 370v250l897 371v-242z" />
    <glyph glyph-name="equal" unicode="=" horiz-adv-x="1159" 
d="M131 342v223h897v-223h-897zM131 731v223h897v-223h-897z" />
    <glyph glyph-name="greater" unicode="&#x3e;" horiz-adv-x="1159" 
d="M1028 524l-897 -370v241l633 252v4l-633 252v242l897 -371v-250z" />
    <glyph glyph-name="question" unicode="?" horiz-adv-x="1120" 
d="M250 0l67 270h316l-68 -270h-315zM727 1241q-186 0 -238 -207h-299q53 223 193.5 339t352.5 116t330 -96.5t118 -270.5q0 -109 -61.5 -198.5t-229.5 -202.5q-90 -61 -138 -105.5t-77 -96.5t-51 -138h-244q27 129 58.5 202.5t85 131t169.5 141.5t154.5 140.5t38.5 116.5
t-41 94t-121 34z" />
    <glyph glyph-name="at" unicode="@" horiz-adv-x="1785" 
d="M1065 752.5q0 97.5 -102 97.5q-72 0 -131.5 -60.5t-93 -146.5t-33.5 -154q0 -135 104 -135q70 0 129 63.5t93 150.5t34 184.5zM1219 141q-211 0 -211 170h-4q-121 -170 -291 -170q-123 0 -188.5 81.5t-65.5 221.5t63.5 281t176 238.5t253.5 97.5q176 0 207 -164h4
q33 82 64 143h227q-98 -217 -167.5 -402.5t-69.5 -231.5t16 -61t51 -15q92 0 159.5 71.5t102.5 180t35 211.5q0 221 -148.5 348t-401.5 127t-426 -127t-259 -315.5t-86 -364.5q0 -250 132 -388.5t384 -138.5t459 109l61 -156q-233 -127 -518 -127q-328 0 -510 181.5
t-182 509.5q0 221 112.5 451.5t327.5 385t504 154.5q227 0 390 -78t249 -222.5t86 -325.5t-66.5 -332.5t-188.5 -247t-281 -95.5z" />
    <glyph glyph-name="A" unicode="A" horiz-adv-x="1429" 
d="M950 711q-20 328 -26 569h-4q-143 -287 -304 -569l-55 -97h395zM416 356l-203 -356h-336l868 1458h406l143 -1458h-295l-24 356h-559z" />
    <glyph glyph-name="B" unicode="B" horiz-adv-x="1331" 
d="M645 248q285 0 285 217q0 84 -52.5 120t-168.5 36h-215l-93 -373h244zM786 858q152 0 214.5 57.5t62.5 141.5t-52.5 119.5t-162.5 35.5h-207l-88 -354h233zM1366 1145q0 -141 -80 -250t-264 -160v-4q111 -27 159 -95t48 -180t-63.5 -217.5t-194.5 -172t-322 -66.5h-610
l362 1458h484q241 0 361 -86t120 -227z" />
    <glyph glyph-name="C" unicode="C" horiz-adv-x="1437" 
d="M1452 1014q0 -49 -8 -90h-303q4 37 4 57q0 115 -64.5 179.5t-195.5 64.5t-238.5 -100.5t-162 -251t-54.5 -302t67.5 -245t189.5 -93.5t216 67t139 183h310q-76 -244 -257.5 -380t-434 -136t-397 159t-144.5 431q0 219 92 435t275.5 357.5t441.5 141.5q159 0 278 -59.5
t182.5 -167t63.5 -250.5z" />
    <glyph glyph-name="D" unicode="D" horiz-adv-x="1503" 
d="M604 258q197 0 324 84t184 210t57 261q0 195 -98 291t-301 96h-133l-236 -942h203zM1481 831q0 -203 -97.5 -394t-300 -314t-497.5 -123h-547l362 1458h383q344 0 520.5 -160.5t176.5 -466.5z" />
    <glyph glyph-name="E" unicode="E" horiz-adv-x="1296" 
d="M639 1200l-82 -330h660l-66 -256h-659l-89 -356h725l-63 -258h-1026l362 1458h1008l-63 -258h-707z" />
    <glyph glyph-name="F" unicode="F" horiz-adv-x="1196" 
d="M639 1200l-100 -397h620l-63 -258h-621l-135 -545h-301l362 1458h973l-63 -258h-672z" />
    <glyph glyph-name="G" unicode="G" horiz-adv-x="1523" 
d="M119 528.5q0 245.5 98 463.5t290.5 358.5t453 140.5t397.5 -120t137 -331q0 -33 -6 -69h-324q2 10 2 28q0 109 -62.5 167.5t-176.5 58.5q-158 0 -271.5 -100.5t-172 -255t-58.5 -314.5t69.5 -253t207 -93t243 84t144.5 229h-347l62 246h627l-191 -768h-254l31 125h-4
q-158 -154 -395.5 -154t-368.5 156t-131 401.5z" />
    <glyph glyph-name="H" unicode="H" horiz-adv-x="1536" 
d="M938 0l156 629h-598l-156 -629h-301l362 1458h301l-141 -571h598l141 571h302l-363 -1458h-301z" />
    <glyph glyph-name="I" unicode="I" horiz-adv-x="636" 
d="M39 0l362 1458h301l-362 -1458h-301z" />
    <glyph glyph-name="J" unicode="J" horiz-adv-x="802" 
d="M51 -14q-84 0 -149 20l63 252q45 -10 105 -10q58 0 114 24q113 50 166 273l228 913h301l-256 -1026q-58 -229 -195 -337.5t-377 -108.5z" />
    <glyph glyph-name="K" unicode="K" horiz-adv-x="1357" 
d="M1221 0h-351l-350 713h-4l-176 -713h-301l362 1458h301l-153 -616h4l598 616h385l-731 -706z" />
    <glyph glyph-name="L" unicode="L" horiz-adv-x="1177" 
d="M1092 258l-64 -258h-989l362 1458h301l-299 -1200h689z" />
    <glyph glyph-name="M" unicode="M" horiz-adv-x="2015" 
d="M1430 0l180 725q72 291 149 547h-4q-147 -285 -291 -537l-413 -735h-344l-50 735q-18 307 -20 537h-4q-66 -303 -125 -547l-180 -725h-289l362 1458h465l45 -670q18 -324 17 -536h4q131 291 270 536l377 670h502l-363 -1458h-288z" />
    <glyph glyph-name="N" unicode="N" horiz-adv-x="1589" 
d="M889 0l-148 592q-78 317 -135 602h-4q-68 -362 -135 -633l-139 -561h-289l362 1458h404l147 -592q55 -229 135 -602h5q55 315 135 633l139 561h289l-363 -1458h-403z" />
    <glyph glyph-name="O" unicode="O" horiz-adv-x="1531" 
d="M428 579.5q0 -155.5 79 -251t225.5 -95.5t255 98.5t164.5 246t56 302t-78.5 250t-226 95.5t-256 -97.5t-164 -245t-55.5 -303zM1511 856q0 -203 -92 -410.5t-271 -343t-445.5 -135.5t-422 167t-155.5 456q0 215 91 424t270.5 343t431.5 134q186 0 320 -76t203.5 -216
t69.5 -343z" />
    <glyph glyph-name="P" unicode="P" horiz-adv-x="1302" 
d="M780 766q143 0 211 71.5t68 168.5q0 203 -230 202h-188l-111 -442h250zM1366 1032q0 -123 -62.5 -241.5t-194.5 -196.5t-329 -78h-311l-129 -516h-301l362 1458h449q258 0 387 -111.5t129 -314.5z" />
    <glyph glyph-name="Q" unicode="Q" horiz-adv-x="1531" 
d="M1221 884q0 148 -81 244.5t-230 96.5t-259 -99.5t-166.5 -248.5t-56.5 -307t80 -255.5t225 -97.5q72 0 146 27l-158 248l186 118l148 -231q80 94 123 225.5t43 279.5zM121 573q0 219 93 431.5t276.5 349.5t439.5 137q184 0 316 -75t201 -210.5t69 -329.5t-81 -393.5
t-233 -332.5l115 -181l-187 -119l-114 181q-143 -63 -311 -64q-276 0 -430 163t-154 443z" />
    <glyph glyph-name="R" unicode="R" horiz-adv-x="1363" 
d="M772 797q145 0 214 73.5t69 165.5q0 178 -195 178h-217l-104 -417h233zM918 1458q454 0 454 -348q0 -204 -164 -340q-82 -68 -200 -96v-4q63 -27 95 -87.5t50 -193.5l53 -389h-311l-39 346q-14 119 -60 165t-153 46h-166l-137 -557h-301l362 1458h517z" />
    <glyph glyph-name="S" unicode="S" horiz-adv-x="1290" 
d="M993 1071q0 180 -221 180q-102 0 -172 -50t-70 -123t59.5 -114.5t197 -87t217.5 -90.5q184 -103 184 -337q0 -115 -72 -226.5t-212 -183.5t-333 -72q-256 0 -397 102.5t-141 295.5q0 57 14 114h311q-8 -35 -8 -73q0 -195 256 -195q86 0 145.5 29.5t88 73.5t28.5 95
t-26.5 86t-74.5 59t-164.5 64.5t-197.5 83.5q-190 101 -190 330q0 109 69.5 215.5t205 175t319.5 68.5q500 0 500 -371q0 -47 -17 -108h-305q6 31 6 59z" />
    <glyph glyph-name="T" unicode="T" horiz-adv-x="1259" 
d="M950 1200l-299 -1200h-301l299 1200h-459l64 258h1219l-64 -258h-459z" />
    <glyph glyph-name="U" unicode="U" horiz-adv-x="1470" 
d="M457 461q0 -228 227 -228q127 0 213 80t123 230l227 915h301l-245 -987q-62 -244 -229 -374t-412 -130t-374.5 123t-129.5 352q0 92 26 199l205 817h301l-215 -866q-18 -74 -18 -131z" />
    <glyph glyph-name="V" unicode="V" horiz-adv-x="1306" 
d="M336 0l-90 1458h286l33 -567q16 -250 17 -471l-2 -125h4q143 313 301 596l315 567h328l-815 -1458h-377z" />
    <glyph glyph-name="W" unicode="W" horiz-adv-x="1957" 
d="M1114 0l8 578q2 297 29 624h-4q-115 -279 -283 -624l-278 -578h-391l57 1458h280l-26 -530q-14 -293 -51 -631h4q111 258 291 631l258 530h381l-5 -530q-4 -322 -24 -631h4q98 256 264 631l236 530h309l-668 -1458h-391z" />
    <glyph glyph-name="X" unicode="X" horiz-adv-x="1290" 
d="M1155 0h-319l-170 502h-4l-404 -502h-381l653 756l-268 702h313l158 -489h4l383 489h375l-625 -731z" />
    <glyph glyph-name="Y" unicode="Y" horiz-adv-x="1306" 
d="M674 0h-301l141 567l-276 891h305l71 -274q45 -176 80 -371h4q117 184 260 371l207 274h369l-719 -891z" />
    <glyph glyph-name="Z" unicode="Z" horiz-adv-x="1191" 
d="M346 254h739l-63 -254h-1110l70 281l933 919v4h-671l63 254h1043l-70 -280l-934 -920v-4z" />
    <glyph glyph-name="bracketleft" unicode="[" horiz-adv-x="673" 
d="M621 1352l-371 -1491h229l-41 -166h-499l452 1823h500l-41 -166h-229z" />
    <glyph glyph-name="backslash" unicode="\" horiz-adv-x="999" 
d="M719 -182h-213l-195 1708h213z" />
    <glyph glyph-name="bracketright" unicode="]" horiz-adv-x="673" 
d="M96 -139l371 1491h-229l41 166h499l-452 -1823h-500l41 166h229z" />
    <glyph glyph-name="asciicircum" unicode="^" horiz-adv-x="1015" 
d="M735 760l-225 473h-4l-225 -473h-265l340 698h303l340 -698h-264z" />
    <glyph glyph-name="underscore" unicode="_" horiz-adv-x="1024" 
d="M-195 -258l39 156h1024l-39 -156h-1024z" />
    <glyph glyph-name="grave" unicode="`" horiz-adv-x="720" 
d="M776 1159h-213l-225 299h342z" />
    <glyph glyph-name="a" unicode="a" horiz-adv-x="1120" 
d="M291 291q0 -51 33.5 -81t97.5 -30q211 0 268 232l17 65q-121 -8 -215 -22q-201 -33 -201 -164zM766 743q0 129 -148 129q-76 0 -127 -42t-67 -115h-279q35 156 164 257t328 101q399 1 399 -323q0 -63 -18 -138l-82 -327q-45 -184 -43 -285h-250q0 63 16 121h-4
q-147 -145 -350 -146q-150 0 -230.5 75t-80.5 205t107.5 229.5t365.5 138.5q145 20 283 28l6 25q10 41 10 67z" />
    <glyph glyph-name="b" unicode="b" horiz-adv-x="1224" 
d="M403 416q0 -102 44.5 -162.5t128.5 -60.5t150.5 66.5t101 164.5t34.5 200t-44 163t-129 61t-150.5 -66.5t-100.5 -165t-35 -200.5zM817 1067q160 0 254 -107.5t94 -279.5t-67.5 -333t-195.5 -267.5t-300 -106.5q-96 0 -170 46.5t-102 130.5h-4l-37 -150h-279l365 1458
h287l-127 -504h4q118 113 278 113z" />
    <glyph glyph-name="c" unicode="c" horiz-adv-x="1150" 
d="M1114 688q0 -37 -4 -55h-299q4 20 4 39q0 84 -41 132t-124 48t-150.5 -70.5t-103.5 -171t-36 -199t44.5 -161t124 -62.5t142 53.5t89.5 145.5h301q-59 -190 -207.5 -305t-348.5 -115t-318.5 121t-118.5 336q0 147 69.5 297.5t207.5 251t337 100.5t315.5 -105.5
t116.5 -279.5z" />
    <glyph glyph-name="d" unicode="d" horiz-adv-x="1220" 
d="M360 416q0 -102 45 -162.5t129 -60.5t150 66.5t100.5 164.5t34.5 200t-44 163t-129 61t-150.5 -66.5t-100.5 -165t-35 -200.5zM57 360q0 172 68 333t196 267.5t300 106.5q94 0 164.5 -42t103.5 -118h4l135 551h287l-363 -1458h-278l24 94h-4q-125 -121 -287 -121
q-161 0 -255.5 107.5t-94.5 279.5z" />
    <glyph glyph-name="e" unicode="e" horiz-adv-x="1173" 
d="M846 686q0 92 -52.5 138t-138.5 46t-156.5 -57t-111.5 -172h455q4 33 4 45zM334 373q0 -104 52 -153.5t133 -49.5t141.5 41t82.5 104h293q-63 -150 -206.5 -249t-342 -99t-311.5 117t-113 324q0 152 71 306t209 256.5t341 102.5t315.5 -113.5t112.5 -310.5
q0 -82 -25 -188h-745q-8 -43 -8 -88z" />
    <glyph glyph-name="f" unicode="f" horiz-adv-x="698" 
d="M911 1454l-49 -199q-18 6 -47 7q-80 0 -127 -41t-72 -138l-10 -43h195l-53 -213h-195l-207 -827h-283l207 827h-174l54 213h174l28 119q78 316 410 316q79 -1 149 -21z" />
    <glyph glyph-name="g" unicode="g" horiz-adv-x="1210" 
d="M371 456q0 -89 44 -148.5t125 -59.5t143 57t94 141t32 176t-47 152t-128 60t-140.5 -59.5t-91 -144.5t-31.5 -174zM248 -90q0 -103 170 -103q196 0 256 236l18 76h-4q-123 -107 -281.5 -107t-248.5 109.5t-90 304.5q0 143 63.5 292.5t184 250t282.5 100.5
q111 0 183.5 -50t105.5 -134h4l39 155h270l-258 -1040q-49 -197 -195.5 -297t-357.5 -100t-317.5 71.5t-106.5 204.5q0 25 6 55h279q-2 -8 -2 -24z" />
    <glyph glyph-name="h" unicode="h" 
d="M820.5 1065q154.5 0 238.5 -79t84 -228q0 -70 -21 -150l-151 -608h-287l150 602q14 57 14 107q0 131 -137 131q-92 0 -166 -73t-109 -210l-139 -557h-287l363 1458h286l-129 -514h5q131 121 285.5 121z" />
    <glyph glyph-name="i" unicode="i" horiz-adv-x="565" 
d="M10 0l258 1040h287l-258 -1040h-287zM311 1212l62 246h286l-61 -246h-287z" />
    <glyph glyph-name="j" unicode="j" horiz-adv-x="569" 
d="M-135 -389q-88 0 -154 18l51 205q23 -6 48 -6q84 0 134 46t79 163l249 1003h287l-272 -1095q-43 -172 -155 -253t-267 -81zM315 1212l62 246h287l-62 -246h-287z" />
    <glyph glyph-name="k" unicode="k" horiz-adv-x="1112" 
d="M1004 0h-314l-264 500h-4l-125 -500h-287l363 1458h286l-204 -825h4l395 407h365l-519 -501z" />
    <glyph glyph-name="l" unicode="l" horiz-adv-x="565" 
d="M10 0l363 1458h286l-362 -1458h-287z" />
    <glyph glyph-name="m" unicode="m" horiz-adv-x="1837" 
d="M811 1065q229 0 274 -184q82 92 169 138t214 46t206 -76t79 -223q0 -63 -22 -158l-152 -608h-287l152 610q14 55 14 101q0 129 -121 129q-92 0 -160.5 -79t-105.5 -226l-133 -535h-287l156 629q12 45 12 84q0 127 -123 127q-94 0 -162.5 -79t-103.5 -226l-133 -535h-287
l258 1040h271l-25 -104h4q133 129 293 129z" />
    <glyph glyph-name="n" unicode="n" 
d="M815 1065q162 0 245 -79t83 -228q0 -70 -21 -150l-151 -608h-287l150 602q14 57 14 107q0 131 -137 131q-92 0 -166 -73t-109 -210l-139 -557h-287l260 1040h269l-29 -114h4q139 139 301 139z" />
    <glyph glyph-name="o" unicode="o" horiz-adv-x="1208" 
d="M362 415.5q0 -102.5 47.5 -165t141.5 -62.5t160.5 69t99.5 167t33 200.5t-47 165t-141.5 62.5t-161 -68.5t-99.5 -167t-33 -201zM1141 614q0 -150 -72 -299t-212 -248.5t-347 -99.5t-324.5 121t-117.5 338q0 147 71.5 297.5t210.5 250t346 99.5t326 -121t119 -338z" />
    <glyph glyph-name="p" unicode="p" horiz-adv-x="1224" 
d="M403 416q0 -102 44.5 -162.5t128.5 -60.5t150.5 66.5t101 164.5t34.5 200t-44 163t-129 61t-150.5 -66.5t-100.5 -165t-35 -200.5zM815 1067q162 0 256 -107.5t94 -279.5t-67.5 -333t-195.5 -267.5t-300 -106.5q-94 0 -164.5 42t-103.5 118h-4l-127 -512h-287l354 1419
h279l-25 -94h4q125 121 287 121z" />
    <glyph glyph-name="q" unicode="q" horiz-adv-x="1222" 
d="M360 416q0 -102 45 -162.5t129 -60.5t150 66.5t100.5 164.5t34.5 200t-44 163t-129 61t-150.5 -66.5t-100.5 -165t-35 -200.5zM57 360q0 172 68 333t196 267.5t300 106.5q96 0 169.5 -46t102.5 -130h4l37 149h278l-352 -1419h-287l115 465h-4q-117 -113 -278 -113
q-160 0 -254.5 107.5t-94.5 279.5z" />
    <glyph glyph-name="r" unicode="r" horiz-adv-x="802" 
d="M768 807q-133 0 -222 -81t-126 -234l-123 -492h-287l258 1040h264l-32 -133h4q146 150 321 150q52 -1 93 -13l-62 -247q-55 10 -88 10z" />
    <glyph glyph-name="s" unicode="s" horiz-adv-x="1073" 
d="M311 293q0 -119 160 -119q78 0 121 31t43 83t-44 80q-43 29 -147 65q-104 35 -158 63q-128 66 -128 237q0 86 53 164t158.5 127t275.5 49t271.5 -72.5t101.5 -214.5q0 -31 -6 -65h-273q4 29 4 43q0 109 -143 108q-78 0 -114.5 -30.5t-36.5 -72.5t38.5 -68.5t143 -62.5
t165 -66.5t102.5 -91t42 -154.5t-55.5 -176t-167 -132.5t-294 -50.5t-294 75t-111.5 222q0 41 11 74h288q-6 -25 -6 -45z" />
    <glyph glyph-name="t" unicode="t" horiz-adv-x="731" 
d="M428 303q0 -88 111 -88q31 0 67 8l-57 -223q-51 -14 -113 -14q-158 0 -231.5 61.5t-73.5 198.5q0 61 23 151l106 430h-168l53 213h168l68 271h287l-68 -271h199l-54 -213h-198l-109 -436q-10 -47 -10 -88z" />
    <glyph glyph-name="u" unicode="u" 
d="M413.5 -25q-161.5 0 -244.5 79t-83 229q0 70 20 149l152 608h287l-150 -602q-14 -57 -14 -106q0 -131 137 -131q92 0 166 72.5t109 209.5l139 557h287l-261 -1040h-268l29 115h-4q-140 -140 -301.5 -140z" />
    <glyph glyph-name="v" unicode="v" horiz-adv-x="1044" 
d="M422 260v-80h4q106 240 221 451l223 409h318l-610 -1040h-373l-90 1040h280l19 -409q8 -242 8 -371z" />
    <glyph glyph-name="w" unicode="w" horiz-adv-x="1658" 
d="M881 0l10 410q6 223 18 444h-4q-90 -236 -190 -444l-195 -410h-409l28 1040h273l-23 -401q-16 -309 -31 -453h4q92 231 195 449l193 405h393l-8 -405q-2 -223 -19 -449h4q84 233 183 453l178 401h297l-488 -1040h-409z" />
    <glyph glyph-name="x" unicode="x" horiz-adv-x="1040" 
d="M924 0h-303l-123 340h-4l-271 -340h-364l499 547l-219 493h299l117 -292h4l240 292h360l-469 -518z" />
    <glyph glyph-name="y" unicode="y" horiz-adv-x="1032" 
d="M-22.5 -391q-106.5 0 -172.5 16l58 230q43 -16 106 -17q109 0 174.5 64.5t65.5 160.5q0 35 -10 132l-84 845h282l25 -348q16 -240 14 -436h4q117 250 222 436l194 348h320l-633 -1046q-90 -148 -176 -230.5t-184.5 -118.5t-205 -36z" />
    <glyph glyph-name="z" unicode="z" horiz-adv-x="991" 
d="M346 225h514l-55 -225h-877l62 246l637 565v4h-475l57 225h835l-61 -245l-637 -566v-4z" />
    <glyph glyph-name="braceleft" unicode="{" horiz-adv-x="692" 
d="M440 416q0 -45 -14 -101l-66 -262q-12 -49 -12 -96q0 -98 127 -102l-41 -166h-28q-168 0 -243 60.5t-75 191.5q0 59 23 153l59 240q12 49 12 82q0 95 -96 123l45 178q80 20 119 57t59 115l76 307q43 174 140.5 248t293.5 74h70l-41 -164q-88 -4 -135 -41t-70 -127
l-82 -328q-27 -106 -87 -163.5t-167 -82.5l-2 -6q135 -48 135 -190z" />
    <glyph glyph-name="bar" unicode="|" horiz-adv-x="602" 
d="M172 -420v1919h258v-1919h-258z" />
    <glyph glyph-name="braceright" unicode="}" horiz-adv-x="692" 
d="M293 791q0 45 14 100l66 262q12 49 12 96q0 99 -127 103l41 166h29q168 0 242.5 -60.5t74.5 -191.5q0 -59 -22 -154l-60 -240q-12 -49 -12 -81q0 -97 96 -123l-45 -179q-80 -20 -119 -57t-59 -115l-76 -307q-43 -174 -140 -247.5t-294 -73.5h-70l41 164q88 4 135.5 40.5
t69.5 126.5l82 328q27 106 87 163.5t167 82.5l2 6q-135 48 -135 191z" />
    <glyph glyph-name="asciitilde" unicode="~" horiz-adv-x="1216" 
d="M880 662q54 0 107 49t74 129h184q-45 -188 -155.5 -294t-251.5 -106q-82 0 -137 29t-117 78t-97 68.5t-89 19.5t-106 -48t-73 -130h-184q45 188 156.5 294.5t250.5 106.5q82 0 139 -29t117 -79t94 -69t88 -19z" />
    <glyph glyph-name="uni00A0" unicode="&#xa0;" horiz-adv-x="471" 
 />
    <glyph glyph-name="exclamdown" unicode="&#xa1;" horiz-adv-x="663" 
d="M471 635l-199 -1053h-348l326 1053h221zM618 1040l-67 -270h-315l67 270h315z" />
    <glyph glyph-name="cent" unicode="&#xa2;" 
d="M434 586q0 -146 72 -205l153 618q-70 -27 -121 -98.5t-77.5 -157.5t-26.5 -157zM889 831q0 109 -66 156l-157 -631q57 18 102 68.5t66 122.5h301q-57 -184 -200.5 -299t-326.5 -121l-45 -180h-166l49 196q-147 39 -226 153t-79 272t66.5 306t198 249.5t313.5 109.5
l45 180h166l-49 -192q145 -33 226 -131.5t81 -241.5q0 -37 -4 -55h-299q4 20 4 38z" />
    <glyph glyph-name="sterling" unicode="&#xa3;" 
d="M1001 1026q0 141 -139 141q-166 0 -221 -219l-35 -141h250l-59 -240h-250l-15 -53q-27 -111 -70.5 -172t-123.5 -100v-4h749l-59 -238h-1108l60 242q94 0 155.5 61.5t95.5 206.5l15 57h-185l60 240h184l49 194q102 412 537 412q193 0 298 -90t105 -252q0 -47 -12 -102
h-287q6 30 6 57z" />
    <glyph glyph-name="currency" unicode="&#xa4;" 
d="M836 596q0 102 -60.5 165.5t-161 63.5t-161 -63.5t-60.5 -165.5t60.5 -165.5t161 -63.5t161 63.5t60.5 165.5zM614.5 150q-114.5 0 -215.5 45l-145 -158l-178 166l147 155q-61 104 -61 237.5t61 238.5l-147 155l178 166l145 -158q100 45 215 45t215 -45l146 158l178 -166
l-147 -155q61 -104 61 -238t-61 -238l147 -155l-178 -166l-146 158q-100 -45 -214.5 -45z" />
    <glyph glyph-name="yen" unicode="&#xa5;" 
d="M1141 711l-35 -144h-328l-20 -82h327l-36 -143h-326l-86 -342h-303l86 342h-330l37 143h328l20 82h-328l35 144h252l-192 669h305l45 -196q51 -229 74 -371h4q121 205 241 371l144 196h362l-526 -669h250z" />
    <glyph glyph-name="brokenbar" unicode="&#xa6;" horiz-adv-x="602" 
d="M172 -420v717h258v-717h-258zM172 782v717h258v-717h-258z" />
    <glyph glyph-name="section" unicode="&#xa7;" horiz-adv-x="1323" 
d="M449 655.5q0 -57.5 38.5 -101.5t135.5 -99l163 -95q59 25 93 77.5t34 104.5q0 108 -155 191l-185 101q-57 -27 -90.5 -74t-33.5 -104.5zM1266 1176q0 -41 -4 -66h-287q2 10 2 29q0 57 -37.5 89t-105.5 32t-110 -35t-42 -85t38 -80t155 -87t222 -125.5t105 -235.5
q0 -250 -270 -391v-4q53 -57 53 -149t-56.5 -181.5t-167.5 -147.5t-293 -58t-293.5 73.5t-111.5 222.5q0 41 9 80h288q-2 -10 -2 -30q0 -115 146 -115q78 0 130 35t52 82t-21.5 74.5t-69 57t-147.5 81.5t-194 121.5t-94 222.5q0 111 66.5 213t203.5 172v4q-47 55 -47 140
t56.5 173t166 145.5t260.5 57.5q400 0 400 -315z" />
    <glyph glyph-name="dieresis" unicode="&#xa8;" horiz-adv-x="903" 
d="M721 1212l61 246h252l-61 -246h-252zM276 1212l62 246h252l-62 -246h-252z" />
    <glyph glyph-name="copyright" unicode="&#xa9;" horiz-adv-x="1642" 
d="M817 1040q-94 0 -152.5 -84t-58.5 -228t58.5 -227t149.5 -83t144.5 51t63.5 139h201q-14 -166 -122.5 -259t-290.5 -93t-292 126t-110 346t111.5 347t295.5 127t288.5 -94t113.5 -252h-199q-6 84 -56.5 134t-144.5 50zM195 729.5q0 -192.5 77.5 -338t220 -226.5t329 -81
t328.5 81t221 226.5t79 338t-79 337.5t-221 226t-328.5 81t-329 -81t-220 -226t-77.5 -337.5zM1559 729q0 -225 -92.5 -397t-259.5 -266.5t-386 -94.5t-386 94.5t-259 266.5t-92 397t92 397t259 266.5t386 94.5t386 -94.5t259.5 -266.5t92.5 -397z" />
    <glyph glyph-name="ordfeminine" unicode="&#xaa;" horiz-adv-x="845" 
d="M377 887q0 -68 84 -70q125 0 166 146l10 43q-76 -5 -137 -17q-123 -20 -123 -102zM680 1194q0 80 -95 80t-116 -100h-238q25 110 122 182t249 71q307 0 307 -233q0 -43 -12 -96l-53 -215q-35 -137 -29 -207h-219q0 47 10 82h-4q-106 -100 -232 -100t-185 52
q-58 54 -58 147t80 165t270 96q109 14 193 19q10 35 10 57z" />
    <glyph glyph-name="guillemotleft" unicode="&#xab;" horiz-adv-x="1089" 
d="M897 111h-238l-141 417l322 402h262l-326 -418zM471 111h-238l-141 417l322 402h262l-326 -418z" />
    <glyph glyph-name="logicalnot" unicode="&#xac;" horiz-adv-x="1159" 
d="M807 270v453h-676v223h897v-676h-221z" />
    <glyph glyph-name="uni00AD" unicode="&#xad;" horiz-adv-x="655" 
d="M53 485l56 226h532l-55 -226h-533z" />
    <glyph glyph-name="registered" unicode="&#xae;" horiz-adv-x="1212" 
d="M608 1004h88q123 0 123 94q0 39 -29.5 61.5t-87.5 22.5h-94v-178zM956 1124q0 -140 -118 -172v-4q33 -10 53 -34.5t41 -79.5l67 -187h-147l-55 158q-14 49 -41 68.5t-74 19.5h-74v-246h-139v647h262q111 0 168 -49t57 -121zM274 962.5q0 -135.5 55.5 -238.5t155 -159.5
t230.5 -56.5t230 56.5t154.5 159.5t55.5 238.5t-55.5 239t-154.5 159.5t-230 56t-230.5 -56t-155 -159.5t-55.5 -239zM1229 962.5q0 -157.5 -63.5 -277.5t-180.5 -185.5t-270.5 -65.5t-270 65.5t-180 185.5t-63.5 277.5t63.5 277.5t180 185.5t270 65.5t270.5 -65.5
t180.5 -185.5t63.5 -277.5z" />
    <glyph glyph-name="macron" unicode="&#xaf;" horiz-adv-x="874" 
d="M281 1225l45 186h667l-45 -186h-667z" />
    <glyph glyph-name="degree" unicode="&#xb0;" horiz-adv-x="694" 
d="M383 1202q0 -55 39 -94t94 -39t94 39t39 94t-39 94t-94 39t-94 -39t-39 -94zM793 1202q0 -76 -38 -139.5t-101.5 -100t-138.5 -36.5t-138.5 36.5t-101 100t-37.5 139.5t37.5 139.5t101 100.5t138.5 37t138.5 -37t101.5 -100.5t38 -139.5z" />
    <glyph glyph-name="plusminus" unicode="&#xb1;" horiz-adv-x="1159" 
d="M131 0v223h897v-223h-897zM1028 842v-224h-338v-317h-221v317h-338v224h338v317h221v-317h338z" />
    <glyph glyph-name="twosuperior" unicode="&#xb2;" horiz-adv-x="935" 
d="M793 1386q0 84 -95 84q-117 0 -151 -141h-258q39 162 150.5 249t274.5 87t251 -70.5t88 -185.5t-79.5 -203t-233.5 -154t-204.5 -100t-64.5 -73h481l-47 -203h-790q31 188 125 295.5t264 184.5t229.5 124t59.5 106z" />
    <glyph glyph-name="threesuperior" unicode="&#xb3;" horiz-adv-x="925" 
d="M801 1382q0 88 -119 88t-154 -143h-252q37 160 151.5 249t280.5 89t256.5 -67.5t90.5 -184.5q0 -181 -228 -252v-2q131 -55 131 -190q0 -76 -47 -148.5t-141 -120t-250 -47.5t-251 69t-95 202q0 41 8 73h254q-6 -25 -6 -49q0 -100 125 -100q70 0 112 38t42 83
q0 98 -150 98h-27l46 188h30q92 0 142.5 38t50.5 89z" />
    <glyph glyph-name="acute" unicode="&#xb4;" horiz-adv-x="716" 
d="M262 1159l219 299h367l-348 -299h-238z" />
    <glyph glyph-name="mu" unicode="&#xb5;" horiz-adv-x="1255" 
d="M981 -16q-183 0 -197 166h-4q-43 -74 -125 -118q-81 -44 -187 -44t-159 69l-108 -436h-287l354 1419h287l-149 -598q-12 -55 -13 -94q0 -147 148 -147q89 1 157 73t103 209l137 557h287l-172 -696q-13 -45 -13 -74q0 -63 68 -63q25 0 51 6l-53 -215q-51 -14 -125 -14z
" />
    <glyph glyph-name="paragraph" unicode="&#xb6;" horiz-adv-x="1343" 
d="M215 995q0 109 53.5 216.5t155.5 177t242 69.5h862l-49 -196h-164l-375 -1508h-211l375 1508h-168l-375 -1508h-211l209 840q-344 51 -344 401z" />
    <glyph glyph-name="periodcentered" unicode="&#xb7;" horiz-adv-x="528" 
d="M90 455l84 342h315l-83 -342h-316z" />
    <glyph glyph-name="cedilla" unicode="&#xb8;" horiz-adv-x="681" 
d="M203 -272q0 67 -57.5 67t-90.5 -12l-41 37l160 180h121l-109 -123q18 6 64 6t87.5 -38.5t41.5 -114.5t-84 -134.5t-206 -58.5t-216 62l51 92q80 -45 148 -45t99.5 22.5t31.5 59.5z" />
    <glyph glyph-name="onesuperior" unicode="&#xb9;" horiz-adv-x="649" 
d="M305 676l154 616h-244l45 183q129 0 203 39.5t110 127.5h228l-242 -966h-254z" />
    <glyph glyph-name="ordmasculine" unicode="&#xba;" horiz-adv-x="905" 
d="M549 838q59 0 100 42q80 82 80 221q0 140 -115 140q-59 0 -100 -42q-78 -79 -79 -220t114 -141zM985 1092q0 -102 -52 -204q-51 -102 -153 -168q-102 -67 -256 -67t-250 89q-94 89 -94 247q0 101 51 203t153 169t257 67q156 0 250 -90q94 -89 94 -246z" />
    <glyph glyph-name="guillemotright" unicode="&#xbb;" horiz-adv-x="1089" 
d="M618 930h238l141 -418l-321 -401h-262l325 417zM193 930h237l141 -418l-321 -401h-262l325 417z" />
    <glyph glyph-name="onequarter" unicode="&#xbc;" horiz-adv-x="1650" 
d="M238 553l131 516h-211l39 166q113 0 177 34t95 111h209l-207 -827h-233zM125 0l1100 1380h186l-1100 -1380h-186zM1229 336l20 86q29 125 70 233h-4q-82 -92 -191 -204l-112 -115h217zM1405 164l-41 -164h-227l41 164h-412l47 194l447 469h311l-123 -491h135l-41 -172
h-137z" />
    <glyph glyph-name="onehalf" unicode="&#xbd;" horiz-adv-x="1708" 
d="M238 553l131 516h-211l39 166q113 0 177 34t95 111h209l-207 -827h-233zM125 0l1100 1380h186l-1100 -1380h-186zM1405 597q0 75 -78 77q-100 0 -129 -119h-237q33 141 133 217t244 76t225 -62q79 -61 79 -159q-1 -193 -288 -310q-121 -47 -162 -73t-53 -60h422l-43 -184
h-705q27 166 109 260t230 158t201 102q52 37 52 77z" />
    <glyph glyph-name="threequarters" unicode="&#xbe;" horiz-adv-x="1896" 
d="M676 1155q0 70 -102 71t-130 -116h-229q31 137 132 214q101 76 251 76t229 -57q80 -57 80 -159q0 -154 -196 -215v-4q115 -43 114 -160q0 -66 -42 -128q-42 -61 -125 -103t-222 -42t-224 60t-85 176q0 31 6 63h234q-4 -29 -5 -40q0 -82 107 -82q59 1 94 31t35 65
q0 80 -127 80h-25l41 168h29q76 1 118 31t42 71zM371 0l1099 1380h187l-1100 -1380h-186zM1475 336l20 86q29 125 70 233h-4q-82 -92 -191 -204l-113 -115h218zM1651 164l-41 -164h-228l41 164h-411l47 194l446 469h312l-123 -491h135l-41 -172h-137z" />
    <glyph glyph-name="questiondown" unicode="&#xbf;" horiz-adv-x="1058" 
d="M393 -201q185 0 238 207h299q-53 -223 -193.5 -339t-352.5 -116t-329.5 96.5t-117.5 270.5q0 109 61 199t229 202q90 61 138.5 105.5t77 96.5t51.5 138h243q-27 -129 -58.5 -202.5t-84.5 -131t-169 -141.5t-155 -140t-39 -116t41 -94.5t121 -34.5zM870 1040l-67 -270
h-316l68 270h315z" />
    <glyph glyph-name="Agrave" unicode="&#xc0;" horiz-adv-x="1429" 
d="M950 711q-20 328 -26 569h-4q-143 -287 -304 -569l-55 -97h395zM416 356l-203 -356h-336l868 1458h406l143 -1458h-295l-24 356h-559zM934 1556l-223 299h342l94 -299h-213z" />
    <glyph glyph-name="Aacute" unicode="&#xc1;" horiz-adv-x="1429" 
d="M950 711q-20 328 -26 569h-4q-143 -287 -304 -569l-55 -97h395zM416 356l-203 -356h-336l868 1458h406l143 -1458h-295l-24 356h-559zM799 1556l221 299h366l-350 -299h-237z" />
    <glyph glyph-name="Acircumflex" unicode="&#xc2;" horiz-adv-x="1429" 
d="M950 711q-20 328 -26 569h-4q-143 -287 -304 -569l-55 -97h395zM416 356l-203 -356h-336l868 1458h406l143 -1458h-295l-24 356h-559zM1200 1855l158 -299h-234l-86 156l-161 -156h-291l309 299h305z" />
    <glyph glyph-name="Atilde" unicode="&#xc3;" horiz-adv-x="1429" 
d="M950 711q-20 328 -26 569h-4q-143 -287 -304 -569l-55 -97h395zM416 356l-203 -356h-336l868 1458h406l143 -1458h-295l-24 356h-559zM1153 1761q85 0 121 94h160q-37 -129 -114 -202.5t-167 -73.5t-165 47q-76 47 -114 47q-85 0 -116 -94h-164q35 129 112.5 202.5
t170.5 73.5t176 -55q33 -20 53 -29.5t47 -9.5z" />
    <glyph glyph-name="Adieresis" unicode="&#xc4;" horiz-adv-x="1429" 
d="M950 711q-20 328 -26 569h-4q-143 -287 -304 -569l-55 -97h395zM416 356l-203 -356h-336l868 1458h406l143 -1458h-295l-24 356h-559zM1073 1575l62 246h251l-61 -246h-252zM629 1575l61 246h252l-61 -246h-252z" />
    <glyph glyph-name="Aring" unicode="&#xc5;" horiz-adv-x="1429" 
d="M950 711q-20 328 -26 569h-4q-143 -287 -304 -569l-55 -97h395zM416 356l-203 -356h-336l868 1458h406l143 -1458h-295l-24 356h-559zM891 1758q0 -46 32.5 -78.5t78.5 -32.5t78 32.5t32 78.5t-31.5 78t-78 32t-79 -32t-32.5 -78zM1223 1757q0 -92 -64.5 -156.5
t-157 -64.5t-157 64.5t-64.5 156.5t64.5 156.5t157 64.5t157 -64.5t64.5 -156.5z" />
    <glyph glyph-name="AE" unicode="&#xc6;" horiz-adv-x="1976" 
d="M1038 1219l-407 -598h373l63 598h-29zM1311 870h585l-65 -256h-549l-37 -356h563l-63 -258h-805l39 367h-520l-250 -367h-350l1042 1458h1188l-64 -258h-679z" />
    <glyph glyph-name="Ccedilla" unicode="&#xc7;" horiz-adv-x="1437" 
d="M653 -272q1 67 -77 67q-36 0 -70 -12l-41 37l133 151q-229 20 -354 176t-125 392.5t92 452.5t275.5 357.5t441.5 141.5q160 0 278.5 -59.5t182 -167t63.5 -250.5q0 -49 -8 -90h-303q4 37 4 57q0 115 -64.5 179.5t-195.5 64.5t-238.5 -100.5t-162 -251t-54.5 -302
t67.5 -245t189.5 -93.5t216 67t139 183h310q-72 -231 -240 -366t-395 -148l-80 -92q18 6 64 6t87 -39t41 -114.5t-83.5 -134t-205.5 -58.5t-216 62l51 92q79 -45 147 -45q132 0 131 82z" />
    <glyph glyph-name="Egrave" unicode="&#xc8;" horiz-adv-x="1296" 
d="M639 1200l-82 -330h660l-66 -256h-659l-89 -356h725l-63 -258h-1026l362 1458h1008l-63 -258h-707zM870 1556l-223 299h342l94 -299h-213z" />
    <glyph glyph-name="Eacute" unicode="&#xc9;" horiz-adv-x="1296" 
d="M639 1200l-82 -330h660l-66 -256h-659l-89 -356h725l-63 -258h-1026l362 1458h1008l-63 -258h-707zM735 1556l221 299h367l-350 -299h-238z" />
    <glyph glyph-name="Ecircumflex" unicode="&#xca;" horiz-adv-x="1296" 
d="M639 1200l-82 -330h660l-66 -256h-659l-89 -356h725l-63 -258h-1026l362 1458h1008l-63 -258h-707zM1137 1855l157 -299h-233l-86 156l-162 -156h-291l309 299h306z" />
    <glyph glyph-name="Edieresis" unicode="&#xcb;" horiz-adv-x="1296" 
d="M639 1200l-82 -330h660l-66 -256h-659l-89 -356h725l-63 -258h-1026l362 1458h1008l-63 -258h-707zM1010 1575l61 246h252l-61 -246h-252zM565 1575l62 246h252l-62 -246h-252z" />
    <glyph glyph-name="Igrave" unicode="&#xcc;" horiz-adv-x="636" 
d="M39 0l362 1458h301l-362 -1458h-301zM539 1556l-224 299h342l95 -299h-213z" />
    <glyph glyph-name="Iacute" unicode="&#xcd;" horiz-adv-x="636" 
d="M39 0l362 1458h301l-362 -1458h-301zM403 1556l222 299h366l-350 -299h-238z" />
    <glyph glyph-name="Icircumflex" unicode="&#xce;" horiz-adv-x="636" 
d="M39 0l362 1458h301l-362 -1458h-301zM805 1855l158 -299h-234l-86 156l-162 -156h-291l310 299h305z" />
    <glyph glyph-name="Idieresis" unicode="&#xcf;" horiz-adv-x="636" 
d="M39 0l362 1458h301l-362 -1458h-301zM678 1575l61 246h252l-61 -246h-252zM233 1575l62 246h252l-62 -246h-252z" />
    <glyph glyph-name="Eth" unicode="&#xd0;" horiz-adv-x="1505" 
d="M1169 813q0 195 -98 291t-301 96h-133l-88 -354h340l-55 -217h-340l-93 -371h203q197 0 324 84t184 210t57 261zM1481 831q0 -203 -97.5 -394t-300 -314t-497.5 -123h-547l156 629h-132l56 217h131l151 612h383q344 0 520.5 -160.5t176.5 -466.5z" />
    <glyph glyph-name="Ntilde" unicode="&#xd1;" horiz-adv-x="1589" 
d="M889 0l-148 592q-78 317 -135 602h-4q-68 -362 -135 -633l-139 -561h-289l362 1458h404l147 -592q55 -229 135 -602h5q55 315 135 633l139 561h289l-363 -1458h-403zM1233 1761q85 0 121 94h159q-36 -129 -113 -202.5t-167 -73.5t-165 47q-76 47 -114 47q-85 0 -116 -94
h-164q35 129 112.5 202.5t170.5 73.5t176 -55q33 -20 53 -29.5t47 -9.5z" />
    <glyph glyph-name="Ograve" unicode="&#xd2;" horiz-adv-x="1531" 
d="M428 579.5q0 -155.5 79 -251t225.5 -95.5t255 98.5t164.5 246t56 302t-78.5 250t-226 95.5t-256 -97.5t-164 -245t-55.5 -303zM1511 856q0 -203 -92 -410.5t-271 -343t-445.5 -135.5t-422 167t-155.5 456q0 215 91 424t270.5 343t431.5 134q186 0 320 -76t203.5 -216
t69.5 -343zM936 1556l-223 299h342l94 -299h-213z" />
    <glyph glyph-name="Oacute" unicode="&#xd3;" horiz-adv-x="1531" 
d="M428 579.5q0 -155.5 79 -251t225.5 -95.5t255 98.5t164.5 246t56 302t-78.5 250t-226 95.5t-256 -97.5t-164 -245t-55.5 -303zM1511 856q0 -203 -92 -410.5t-271 -343t-445.5 -135.5t-422 167t-155.5 456q0 215 91 424t270.5 343t431.5 134q186 0 320 -76t203.5 -216
t69.5 -343zM801 1556l221 299h367l-351 -299h-237z" />
    <glyph glyph-name="Ocircumflex" unicode="&#xd4;" horiz-adv-x="1531" 
d="M428 579.5q0 -155.5 79 -251t225.5 -95.5t255 98.5t164.5 246t56 302t-78.5 250t-226 95.5t-256 -97.5t-164 -245t-55.5 -303zM1511 856q0 -203 -92 -410.5t-271 -343t-445.5 -135.5t-422 167t-155.5 456q0 215 91 424t270.5 343t431.5 134q186 0 320 -76t203.5 -216
t69.5 -343zM1202 1855l158 -299h-234l-86 156l-161 -156h-291l309 299h305z" />
    <glyph glyph-name="Otilde" unicode="&#xd5;" horiz-adv-x="1531" 
d="M428 579.5q0 -155.5 79 -251t225.5 -95.5t255 98.5t164.5 246t56 302t-78.5 250t-226 95.5t-256 -97.5t-164 -245t-55.5 -303zM1511 856q0 -203 -92 -410.5t-271 -343t-445.5 -135.5t-422 167t-155.5 456q0 215 91 424t270.5 343t431.5 134q186 0 320 -76t203.5 -216
t69.5 -343zM1155 1761q85 0 121 94h160q-37 -129 -114 -202.5t-166.5 -73.5t-165 47t-113.5 47q-86 0 -117 -94h-164q35 129 112.5 202.5t170 73.5t176.5 -55q33 -20 53 -29.5t47 -9.5z" />
    <glyph glyph-name="Odieresis" unicode="&#xd6;" horiz-adv-x="1531" 
d="M428 579.5q0 -155.5 79 -251t225.5 -95.5t255 98.5t164.5 246t56 302t-78.5 250t-226 95.5t-256 -97.5t-164 -245t-55.5 -303zM1511 856q0 -203 -92 -410.5t-271 -343t-445.5 -135.5t-422 167t-155.5 456q0 215 91 424t270.5 343t431.5 134q186 0 320 -76t203.5 -216
t69.5 -343zM1075 1575l62 246h252l-62 -246h-252zM631 1575l61 246h252l-61 -246h-252z" />
    <glyph glyph-name="multiply" unicode="&#xd7;" horiz-adv-x="1159" 
d="M737 629l379 -379l-158 -158l-378 379l-377 -379l-160 158l379 379l-379 379l160 155l377 -377l378 377l158 -155z" />
    <glyph glyph-name="Oslash" unicode="&#xd8;" horiz-adv-x="1531" 
d="M736.5 217q144.5 0 256 101.5t170 253t58.5 296.5q-1 72 -17 138l-696 -699q84 -90 228.5 -90zM899.5 1241q-146.5 0 -258 -100.5t-168.5 -252t-57 -296.5q0 -71 16 -141l696 698q-82 92 -228.5 92zM1511 867q0 -214 -92 -421.5t-271 -343t-433 -135.5t-408 142
l-137 -140l-109 109l150 149q-86 147 -86 362.5t91 424.5t270.5 343t432.5 134t410 -141l139 139l109 -109l-152 -151q86 -148 86 -362z" />
    <glyph glyph-name="Ugrave" unicode="&#xd9;" horiz-adv-x="1470" 
d="M457 461q0 -228 227 -228q127 0 213 80t123 230l227 915h301l-245 -987q-62 -244 -229 -374t-412 -130t-374.5 123t-129.5 352q0 92 26 199l205 817h301l-215 -866q-18 -74 -18 -131zM934 1556l-223 299h342l94 -299h-213z" />
    <glyph glyph-name="Uacute" unicode="&#xda;" horiz-adv-x="1470" 
d="M457 461q0 -228 227 -228q127 0 213 80t123 230l227 915h301l-245 -987q-62 -244 -229 -374t-412 -130t-374.5 123t-129.5 352q0 92 26 199l205 817h301l-215 -866q-18 -74 -18 -131zM799 1556l221 299h366l-350 -299h-237z" />
    <glyph glyph-name="Ucircumflex" unicode="&#xdb;" horiz-adv-x="1470" 
d="M457 461q0 -228 227 -228q127 0 213 80t123 230l227 915h301l-245 -987q-62 -244 -229 -374t-412 -130t-374.5 123t-129.5 352q0 92 26 199l205 817h301l-215 -866q-18 -74 -18 -131zM1200 1855l158 -299h-234l-86 156l-161 -156h-291l309 299h305z" />
    <glyph glyph-name="Udieresis" unicode="&#xdc;" horiz-adv-x="1470" 
d="M457 461q0 -228 227 -228q127 0 213 80t123 230l227 915h301l-245 -987q-62 -244 -229 -374t-412 -130t-374.5 123t-129.5 352q0 92 26 199l205 817h301l-215 -866q-18 -74 -18 -131zM1073 1575l62 246h251l-61 -246h-252zM629 1575l61 246h252l-61 -246h-252z" />
    <glyph glyph-name="Yacute" unicode="&#xdd;" horiz-adv-x="1306" 
d="M674 0h-301l141 567l-276 891h305l71 -274q45 -176 80 -371h4q117 184 260 371l207 274h369l-719 -891zM684 1556l221 299h367l-350 -299h-238z" />
    <glyph glyph-name="Thorn" unicode="&#xde;" horiz-adv-x="1300" 
d="M719 526q143 0 210.5 72t67.5 168q0 203 -229 203h-188l-111 -443h250zM809 1219q250 0 375 -107.5t125 -302.5q0 -127 -63.5 -249t-197 -203t-329.5 -81h-311l-68 -276h-301l362 1458h301l-61 -239h168z" />
    <glyph glyph-name="germandbls" unicode="&#xdf;" horiz-adv-x="1177" 
d="M799 502q0 180 -205 180h-8l57 236q147 0 208.5 64.5t61.5 145.5q0 135 -137 136q-86 0 -140 -57.5t-85 -182.5l-254 -1024h-287l264 1061q51 205 189.5 317.5t330.5 112.5t297 -83t105 -217t-83 -239.5t-251 -146.5v-4q227 -70 228 -312q0 -121 -66 -236.5t-191.5 -189
t-297.5 -73.5q-63 0 -117 16l55 225q16 -4 43 -4q98 0 190.5 61t92.5 214z" />
    <glyph glyph-name="agrave" unicode="&#xe0;" horiz-adv-x="1120" 
d="M291 291q0 -51 33.5 -81t97.5 -30q211 0 268 232l17 65q-121 -8 -215 -22q-201 -33 -201 -164zM766 743q0 129 -148 129q-76 0 -127 -42t-67 -115h-279q35 156 164 257t328 101q399 1 399 -323q0 -63 -18 -138l-82 -327q-45 -184 -43 -285h-250q0 63 16 121h-4
q-147 -145 -350 -146q-150 0 -230.5 75t-80.5 205t107.5 229.5t365.5 138.5q145 20 283 28l6 25q10 41 10 67zM848 1159h-213l-225 299h342z" />
    <glyph glyph-name="aacute" unicode="&#xe1;" horiz-adv-x="1120" 
d="M291 291q0 -51 33.5 -81t97.5 -30q211 0 268 232l17 65q-121 -8 -215 -22q-201 -33 -201 -164zM766 743q0 129 -148 129q-76 0 -127 -42t-67 -115h-279q35 156 164 257t328 101q399 1 399 -323q0 -63 -18 -138l-82 -327q-45 -184 -43 -285h-250q0 63 16 121h-4
q-147 -145 -350 -146q-150 0 -230.5 75t-80.5 205t107.5 229.5t365.5 138.5q145 20 283 28l6 25q10 41 10 67zM500 1159l219 299h366l-348 -299h-237z" />
    <glyph glyph-name="acircumflex" unicode="&#xe2;" horiz-adv-x="1120" 
d="M291 291q0 -51 33.5 -81t97.5 -30q211 0 268 232l17 65q-121 -8 -215 -22q-201 -33 -201 -164zM766 743q0 129 -148 129q-76 0 -127 -42t-67 -115h-279q35 156 164 257t328 101q399 1 399 -323q0 -63 -18 -138l-82 -327q-45 -184 -43 -285h-250q0 63 16 121h-4
q-147 -145 -350 -146q-150 0 -230.5 75t-80.5 205t107.5 229.5t365.5 138.5q145 20 283 28l6 25q10 41 10 67zM817 1159l-86 156l-162 -156h-282l307 299h305l160 -299h-242z" />
    <glyph glyph-name="atilde" unicode="&#xe3;" horiz-adv-x="1120" 
d="M291 291q0 -51 33.5 -81t97.5 -30q211 0 268 232l17 65q-121 -8 -215 -22q-201 -33 -201 -164zM766 743q0 129 -148 129q-76 0 -127 -42t-67 -115h-279q35 156 164 257t328 101q399 1 399 -323q0 -63 -18 -138l-82 -327q-45 -184 -43 -285h-250q0 63 16 121h-4
q-147 -145 -350 -146q-150 0 -230.5 75t-80.5 205t107.5 229.5t365.5 138.5q145 20 283 28l6 25q10 41 10 67zM852 1364q85 0 121 94h160q-37 -129 -114 -202.5t-169 -73.5t-172 55q-64 39 -103 39q-85 0 -116 -94h-164q35 129 112.5 202.5t169.5 73.5t175 -55
q33 -20 53 -29.5t47 -9.5z" />
    <glyph glyph-name="adieresis" unicode="&#xe4;" horiz-adv-x="1120" 
d="M291 291q0 -51 33.5 -81t97.5 -30q211 0 268 232l17 65q-121 -8 -215 -22q-201 -33 -201 -164zM766 743q0 129 -148 129q-76 0 -127 -42t-67 -115h-279q35 156 164 257t328 101q399 1 399 -323q0 -63 -18 -138l-82 -327q-45 -184 -43 -285h-250q0 63 16 121h-4
q-147 -145 -350 -146q-150 0 -230.5 75t-80.5 205t107.5 229.5t365.5 138.5q145 20 283 28l6 25q10 41 10 67zM782 1212l62 246h252l-62 -246h-252zM338 1212l61 246h252l-61 -246h-252z" />
    <glyph glyph-name="aring" unicode="&#xe5;" horiz-adv-x="1120" 
d="M291 291q0 -51 33.5 -81t97.5 -30q211 0 268 232l17 65q-121 -8 -215 -22q-201 -33 -201 -164zM766 743q0 129 -148 129q-76 0 -127 -42t-67 -115h-279q35 156 164 257t328 101q399 1 399 -323q0 -63 -18 -138l-82 -327q-45 -184 -43 -285h-250q0 63 16 121h-4
q-147 -145 -350 -146q-150 0 -230.5 75t-80.5 205t107.5 229.5t365.5 138.5q145 20 283 28l6 25q10 41 10 67zM592 1361q0 -46 32.5 -79t78.5 -33t78 33t32 79t-31.5 77.5t-78 31.5t-79 -31.5t-32.5 -77.5zM924 1360q0 -92 -64.5 -156.5t-157 -64.5t-157 64.5t-64.5 156.5
t64.5 156.5t157 64.5t157 -64.5t64.5 -156.5z" />
    <glyph glyph-name="ae" unicode="&#xe6;" horiz-adv-x="1800" 
d="M287 291q-1 -119 165 -119q92 0 160 63.5t101 192.5l8 33h-150q-285 0 -284 -170zM1291 870q-83 0 -150.5 -57t-106.5 -172h434q4 33 5 45q0 92 -49.5 138t-132.5 46zM379 -33q-184 0 -283.5 80t-99.5 213q0 94 55 178t185.5 138.5t345.5 54.5h180l8 33q10 45 10 69
q0 74 -40 106.5t-118.5 32.5t-131 -42t-68.5 -115h-279q33 156 163 257t325 101q244 0 336 -127q147 127 349 127t312.5 -113.5t110.5 -310.5q0 -82 -25 -188h-725q-8 -43 -8 -88q0 -104 49 -153.5t126 -49.5t134.5 41t79.5 104h293q-61 -150 -201.5 -249t-318.5 -99
q-252 0 -357 189q-157 -189 -407 -189z" />
    <glyph glyph-name="ccedilla" unicode="&#xe7;" horiz-adv-x="1150" 
d="M504 -272q0 67 -78 67q-35 0 -70 -12l-41 37l134 151q-180 18 -280.5 137t-100.5 316q0 147 69.5 297.5t207.5 251t337 100.5t315.5 -105.5t116.5 -279.5q0 -37 -4 -55h-299q4 21 4 39q0 84 -41 132t-124 48t-150.5 -70.5t-103.5 -171t-36 -199t44.5 -161t124 -62.5
t142 53.5t89.5 145.5h301q-53 -174 -186.5 -287.5t-305.5 -130.5l-82 -92q18 6 64.5 6t87.5 -39t41 -114.5t-84 -134t-206 -58.5t-216 62l51 92q80 -45 147.5 -45t99.5 22.5t32 59.5z" />
    <glyph glyph-name="egrave" unicode="&#xe8;" horiz-adv-x="1173" 
d="M846 686q0 92 -52.5 138t-138.5 46t-156.5 -57t-111.5 -172h455q4 33 4 45zM334 373q0 -104 52 -153.5t133 -49.5t141.5 41t82.5 104h293q-63 -150 -206.5 -249t-342 -99t-311.5 117t-113 324q0 152 71 306t209 256.5t341 102.5t315.5 -113.5t112.5 -310.5
q0 -82 -25 -188h-745q-8 -43 -8 -88zM879 1159h-213l-226 299h342z" />
    <glyph glyph-name="eacute" unicode="&#xe9;" horiz-adv-x="1173" 
d="M846 686q0 92 -52.5 138t-138.5 46t-156.5 -57t-111.5 -172h455q4 33 4 45zM334 373q0 -104 52 -153.5t133 -49.5t141.5 41t82.5 104h293q-63 -150 -206.5 -249t-342 -99t-311.5 117t-113 324q0 152 71 306t209 256.5t341 102.5t315.5 -113.5t112.5 -310.5
q0 -82 -25 -188h-745q-8 -43 -8 -88zM530 1159l220 299h366l-348 -299h-238z" />
    <glyph glyph-name="ecircumflex" unicode="&#xea;" horiz-adv-x="1173" 
d="M846 686q0 92 -52.5 138t-138.5 46t-156.5 -57t-111.5 -172h455q4 33 4 45zM334 373q0 -104 52 -153.5t133 -49.5t141.5 41t82.5 104h293q-63 -150 -206.5 -249t-342 -99t-311.5 117t-113 324q0 152 71 306t209 256.5t341 102.5t315.5 -113.5t112.5 -310.5
q0 -82 -25 -188h-745q-8 -43 -8 -88zM848 1159l-86 156l-162 -156h-283l308 299h305l160 -299h-242z" />
    <glyph glyph-name="edieresis" unicode="&#xeb;" horiz-adv-x="1173" 
d="M846 686q0 92 -52.5 138t-138.5 46t-156.5 -57t-111.5 -172h455q4 33 4 45zM334 373q0 -104 52 -153.5t133 -49.5t141.5 41t82.5 104h293q-63 -150 -206.5 -249t-342 -99t-311.5 117t-113 324q0 152 71 306t209 256.5t341 102.5t315.5 -113.5t112.5 -310.5
q0 -82 -25 -188h-745q-8 -43 -8 -88zM813 1212l61 246h252l-61 -246h-252zM369 1212l61 246h252l-61 -246h-252z" />
    <glyph glyph-name="igrave" unicode="&#xec;" horiz-adv-x="565" 
d="M10 0l258 1040h287l-258 -1040h-287zM616 1159h-213l-225 299h342z" />
    <glyph glyph-name="iacute" unicode="&#xed;" horiz-adv-x="565" 
d="M10 0l258 1040h287l-258 -1040h-287zM268 1159l219 299h367l-348 -299h-238z" />
    <glyph glyph-name="icircumflex" unicode="&#xee;" horiz-adv-x="565" 
d="M10 0l258 1040h287l-258 -1040h-287zM571 1161l-69 158l-148 -158h-268l285 297h288l138 -297h-226z" />
    <glyph glyph-name="idieresis" unicode="&#xef;" horiz-adv-x="565" 
d="M10 0l258 1040h287l-258 -1040h-287zM506 1212l61 246h252l-61 -246h-252zM152 1212l61 246h252l-62 -246h-251z" />
    <glyph glyph-name="eth" unicode="&#xf0;" horiz-adv-x="1208" 
d="M850 630q0 100 -47 161t-137 61t-160 -72.5t-107 -177t-37 -202.5t44.5 -155t134.5 -57t161.5 71t109.5 171t38 200zM1151 668q0 -166 -73.5 -328t-218 -267.5t-350.5 -105.5t-324.5 121t-121.5 334q2 137 72 281.5t201 240.5t307 96q80 0 143 -24l2 4q-51 86 -116 164
l-295 -107l-45 123l246 90q-88 82 -91 84l234 117q61 -51 115 -109l272 101l45 -123l-227 -82q225 -290 225 -610z" />
    <glyph glyph-name="ntilde" unicode="&#xf1;" 
d="M815 1065q162 0 245 -79t83 -228q0 -70 -21 -150l-151 -608h-287l150 602q14 57 14 107q0 131 -137 131q-92 0 -166 -73t-109 -210l-139 -557h-287l260 1040h269l-29 -114h4q139 139 301 139zM958 1364q86 0 121 94h160q-37 -129 -113.5 -202.5t-169.5 -73.5t-172 55
q-64 39 -102 39q-84 0 -117 -94h-164q35 129 113 202.5t169 73.5t175 -55q64 -39 100 -39z" />
    <glyph glyph-name="ograve" unicode="&#xf2;" horiz-adv-x="1208" 
d="M362 415.5q0 -102.5 47.5 -165t141.5 -62.5t160.5 69t99.5 167t33 200.5t-47 165t-141.5 62.5t-161 -68.5t-99.5 -167t-33 -201zM1141 614q0 -150 -72 -299t-212 -248.5t-347 -99.5t-324.5 121t-117.5 338q0 147 71.5 297.5t210.5 250t346 99.5t326 -121t119 -338z
M897 1159h-213l-225 299h342z" />
    <glyph glyph-name="oacute" unicode="&#xf3;" horiz-adv-x="1208" 
d="M362 415.5q0 -102.5 47.5 -165t141.5 -62.5t160.5 69t99.5 167t33 200.5t-47 165t-141.5 62.5t-161 -68.5t-99.5 -167t-33 -201zM1141 614q0 -150 -72 -299t-212 -248.5t-347 -99.5t-324.5 121t-117.5 338q0 147 71.5 297.5t210.5 250t346 99.5t326 -121t119 -338z
M549 1159l219 299h367l-349 -299h-237z" />
    <glyph glyph-name="ocircumflex" unicode="&#xf4;" horiz-adv-x="1208" 
d="M362 415.5q0 -102.5 47.5 -165t141.5 -62.5t160.5 69t99.5 167t33 200.5t-47 165t-141.5 62.5t-161 -68.5t-99.5 -167t-33 -201zM1141 614q0 -150 -72 -299t-212 -248.5t-347 -99.5t-324.5 121t-117.5 338q0 147 71.5 297.5t210.5 250t346 99.5t326 -121t119 -338z
M866 1159l-86 156l-162 -156h-282l307 299h305l160 -299h-242z" />
    <glyph glyph-name="otilde" unicode="&#xf5;" horiz-adv-x="1208" 
d="M362 415.5q0 -102.5 47.5 -165t141.5 -62.5t160.5 69t99.5 167t33 200.5t-47 165t-141.5 62.5t-161 -68.5t-99.5 -167t-33 -201zM1141 614q0 -150 -72 -299t-212 -248.5t-347 -99.5t-324.5 121t-117.5 338q0 147 71.5 297.5t210.5 250t346 99.5t326 -121t119 -338z
M901 1364q86 0 121 94h160q-37 -129 -114 -202.5t-169.5 -73.5t-171.5 55q-64 39 -102 39q-86 0 -117 -94h-164q35 129 113 202.5t169 73.5t175 -55q33 -20 53 -29.5t47 -9.5z" />
    <glyph glyph-name="odieresis" unicode="&#xf6;" horiz-adv-x="1208" 
d="M362 415.5q0 -102.5 47.5 -165t141.5 -62.5t160.5 69t99.5 167t33 200.5t-47 165t-141.5 62.5t-161 -68.5t-99.5 -167t-33 -201zM1141 614q0 -150 -72 -299t-212 -248.5t-347 -99.5t-324.5 121t-117.5 338q0 147 71.5 297.5t210.5 250t346 99.5t326 -121t119 -338z
M831 1212l62 246h252l-62 -246h-252zM387 1212l62 246h251l-61 -246h-252z" />
    <glyph glyph-name="divide" unicode="&#xf7;" horiz-adv-x="1159" 
d="M459 168v225h241v-225h-241zM131 537v223h897v-223h-897zM459 903v225h241v-225h-241z" />
    <glyph glyph-name="oslash" unicode="&#xf8;" horiz-adv-x="1208" 
d="M860 585.5q0 63.5 -6 94.5l-446 -447q51 -55 147 -55t166 70.5t104.5 172t34.5 165zM346 428q0 -23 4 -63l445 444q-49 53 -144.5 53t-165 -70.5t-104.5 -172t-35 -191.5zM1141 623q0 -159 -72 -308t-212 -248.5t-327.5 -99.5t-302.5 86l-125 -125l-94 95l129 129
q-70 106 -69.5 263.5t72 308t210.5 250t324.5 99.5t302.5 -82l123 123l94 -94l-125 -125q72 -113 72 -272z" />
    <glyph glyph-name="ugrave" unicode="&#xf9;" 
d="M413.5 -25q-161.5 0 -244.5 79t-83 229q0 70 20 149l152 608h287l-150 -602q-14 -57 -14 -106q0 -131 137 -131q92 0 166 72.5t109 209.5l139 557h287l-261 -1040h-268l29 115h-4q-140 -140 -301.5 -140zM928 1159h-213l-226 299h342z" />
    <glyph glyph-name="uacute" unicode="&#xfa;" 
d="M413.5 -25q-161.5 0 -244.5 79t-83 229q0 70 20 149l152 608h287l-150 -602q-14 -57 -14 -106q0 -131 137 -131q92 0 166 72.5t109 209.5l139 557h287l-261 -1040h-268l29 115h-4q-140 -140 -301.5 -140zM580 1159l219 299h366l-348 -299h-237z" />
    <glyph glyph-name="ucircumflex" unicode="&#xfb;" 
d="M413.5 -25q-161.5 0 -244.5 79t-83 229q0 70 20 149l152 608h287l-150 -602q-14 -57 -14 -106q0 -131 137 -131q92 0 166 72.5t109 209.5l139 557h287l-261 -1040h-268l29 115h-4q-140 -140 -301.5 -140zM897 1159l-86 156l-162 -156h-282l307 299h305l160 -299h-242z
" />
    <glyph glyph-name="udieresis" unicode="&#xfc;" 
d="M413.5 -25q-161.5 0 -244.5 79t-83 229q0 70 20 149l152 608h287l-150 -602q-14 -57 -14 -106q0 -131 137 -131q92 0 166 72.5t109 209.5l139 557h287l-261 -1040h-268l29 115h-4q-140 -140 -301.5 -140zM862 1212l62 246h252l-62 -246h-252zM418 1212l61 246h252
l-61 -246h-252z" />
    <glyph glyph-name="yacute" unicode="&#xfd;" horiz-adv-x="1032" 
d="M-22.5 -391q-106.5 0 -172.5 16l58 230q43 -16 106 -17q109 0 174.5 64.5t65.5 160.5q0 35 -10 132l-84 845h282l25 -348q16 -240 14 -436h4q117 250 222 436l194 348h320l-633 -1046q-90 -148 -176 -230.5t-184.5 -118.5t-205 -36zM461 1159l219 299h367l-349 -299h-237
z" />
    <glyph glyph-name="thorn" unicode="&#xfe;" horiz-adv-x="1224" 
d="M403 416q0 -102 44.5 -162.5t128.5 -60.5t150.5 66.5t101 164.5t34.5 200t-44 163t-129 61t-150.5 -66.5t-100.5 -165t-35 -200.5zM818 1067q159 0 253 -107.5t94 -279.5t-67.5 -333t-195.5 -267.5t-300 -106.5q-94 0 -164.5 42t-103.5 118h-4l-127 -512h-287l457 1837
h286l-124 -502h4q120 111 279 111z" />
    <glyph glyph-name="ydieresis" unicode="&#xff;" horiz-adv-x="1032" 
d="M-22.5 -391q-106.5 0 -172.5 16l58 230q43 -16 106 -17q109 0 174.5 64.5t65.5 160.5q0 35 -10 132l-84 845h282l25 -348q16 -240 14 -436h4q117 250 222 436l194 348h320l-633 -1046q-90 -148 -176 -230.5t-184.5 -118.5t-205 -36zM743 1212l62 246h252l-62 -246h-252z
M299 1212l61 246h252l-61 -246h-252z" />
    <glyph glyph-name="Amacron" unicode="&#x100;" horiz-adv-x="1429" 
d="M950 711q-20 328 -26 569h-4q-143 -287 -304 -569l-55 -97h395zM416 356l-203 -356h-336l868 1458h406l143 -1458h-295l-24 356h-559zM649 1593l45 187h668l-45 -187h-668z" />
    <glyph glyph-name="amacron" unicode="&#x101;" horiz-adv-x="1120" 
d="M291 291q0 -51 33.5 -81t97.5 -30q211 0 268 232l17 65q-121 -8 -215 -22q-201 -33 -201 -164zM766 743q0 129 -148 129q-76 0 -127 -42t-67 -115h-279q35 156 164 257t328 101q399 1 399 -323q0 -63 -18 -138l-82 -327q-45 -184 -43 -285h-250q0 63 16 121h-4
q-147 -145 -350 -146q-150 0 -230.5 75t-80.5 205t107.5 229.5t365.5 138.5q145 20 283 28l6 25q10 41 10 67zM356 1225l45 186h668l-45 -186h-668z" />
    <glyph glyph-name="Abreve" unicode="&#x102;" horiz-adv-x="1429" 
d="M950 711q-20 328 -26 569h-4q-143 -287 -304 -569l-55 -97h395zM416 356l-203 -356h-336l868 1458h406l143 -1458h-295l-24 356h-559zM991.5 1546q-149.5 0 -227.5 66.5t-78 185.5q0 16 4 57h170q-2 -10 -2 -26q0 -49 36 -77t105.5 -28t120.5 35t68 96h219
q-41 -147 -153.5 -228t-262 -81z" />
    <glyph glyph-name="abreve" unicode="&#x103;" horiz-adv-x="1120" 
d="M291 291q0 -51 33.5 -81t97.5 -30q211 0 268 232l17 65q-121 -8 -215 -22q-201 -33 -201 -164zM766 743q0 129 -148 129q-76 0 -127 -42t-67 -115h-279q35 156 164 257t328 101q399 1 399 -323q0 -63 -18 -138l-82 -327q-45 -184 -43 -285h-250q0 63 16 121h-4
q-147 -145 -350 -146q-150 0 -230.5 75t-80.5 205t107.5 229.5t365.5 138.5q145 20 283 28l6 25q10 41 10 67zM690.5 1149q-149.5 0 -227.5 66.5t-78 185.5q0 16 4 57h170q-2 -10 -2 -26q0 -49 36 -77t105.5 -28t120.5 35t68 96h219q-41 -147 -153.5 -228t-262 -81z" />
    <glyph glyph-name="Aogonek" unicode="&#x104;" horiz-adv-x="1429" 
d="M950 711q-20 328 -26 569h-4q-143 -287 -304 -569l-55 -97h395zM850 -250q0 136 219 250h-70l-24 356h-559l-203 -356h-336l868 1458h406l143 -1458q-106 -63 -146 -109.5t-40 -90.5t50 -44t83 13l-39 -154q-66 -18 -155.5 -18t-143 39.5t-53.5 113.5z" />
    <glyph glyph-name="aogonek" unicode="&#x105;" horiz-adv-x="1120" 
d="M291 291q0 -51 33.5 -81t97.5 -30q211 0 268 232l17 65q-121 -8 -215 -22q-201 -33 -201 -164zM766 743q0 129 -148 129q-76 0 -127 -42t-67 -115h-279q35 156 164 257t328 101q399 1 399 -323q0 -63 -18 -138l-82 -327q-45 -184 -43 -285q-106 -63 -146 -109.5
t-40 -90.5t50 -44t83 13l-39 -154q-66 -18 -142 -18q-210 0 -210 153q0 136 219 250h-25q0 63 16 121h-4q-147 -145 -350 -146q-150 0 -230.5 75t-80.5 205t107.5 229.5t365.5 138.5q145 20 283 28l6 25q10 41 10 67z" />
    <glyph glyph-name="Cacute" unicode="&#x106;" horiz-adv-x="1437" 
d="M1452 1014q0 -49 -8 -90h-303q4 37 4 57q0 115 -64.5 179.5t-195.5 64.5t-238.5 -100.5t-162 -251t-54.5 -302t67.5 -245t189.5 -93.5t216 67t139 183h310q-76 -244 -257.5 -380t-434 -136t-397 159t-144.5 431q0 219 92 435t275.5 357.5t441.5 141.5q159 0 278 -59.5
t182.5 -167t63.5 -250.5zM788 1556l222 299h366l-350 -299h-238z" />
    <glyph glyph-name="cacute" unicode="&#x107;" horiz-adv-x="1150" 
d="M1114 688q0 -37 -4 -55h-299q4 20 4 39q0 84 -41 132t-124 48t-150.5 -70.5t-103.5 -171t-36 -199t44.5 -161t124 -62.5t142 53.5t89.5 145.5h301q-59 -190 -207.5 -305t-348.5 -115t-318.5 121t-118.5 336q0 147 69.5 297.5t207.5 251t337 100.5t315.5 -105.5
t116.5 -279.5zM541 1159l219 299h366l-348 -299h-237z" />
    <glyph glyph-name="Ccircumflex" unicode="&#x108;" horiz-adv-x="1437" 
d="M1452 1014q0 -49 -8 -90h-303q4 37 4 57q0 115 -64.5 179.5t-195.5 64.5t-238.5 -100.5t-162 -251t-54.5 -302t67.5 -245t189.5 -93.5t216 67t139 183h310q-76 -244 -257.5 -380t-434 -136t-397 159t-144.5 431q0 219 92 435t275.5 357.5t441.5 141.5q159 0 278 -59.5
t182.5 -167t63.5 -250.5zM1190 1855l158 -299h-234l-86 156l-162 -156h-291l310 299h305z" />
    <glyph glyph-name="ccircumflex" unicode="&#x109;" horiz-adv-x="1150" 
d="M1114 688q0 -37 -4 -55h-299q4 20 4 39q0 84 -41 132t-124 48t-150.5 -70.5t-103.5 -171t-36 -199t44.5 -161t124 -62.5t142 53.5t89.5 145.5h301q-59 -190 -207.5 -305t-348.5 -115t-318.5 121t-118.5 336q0 147 69.5 297.5t207.5 251t337 100.5t315.5 -105.5
t116.5 -279.5zM858 1159l-86 156l-162 -156h-282l307 299h305l160 -299h-242z" />
    <glyph glyph-name="Cdotaccent" unicode="&#x10a;" horiz-adv-x="1437" 
d="M1452 1014q0 -49 -8 -90h-303q4 37 4 57q0 115 -64.5 179.5t-195.5 64.5t-238.5 -100.5t-162 -251t-54.5 -302t67.5 -245t189.5 -93.5t216 67t139 183h310q-76 -244 -257.5 -380t-434 -136t-397 159t-144.5 431q0 219 92 435t275.5 357.5t441.5 141.5q159 0 278 -59.5
t182.5 -167t63.5 -250.5zM823 1575l62 246h286l-61 -246h-287z" />
    <glyph glyph-name="cdotaccent" unicode="&#x10b;" horiz-adv-x="1150" 
d="M1114 688q0 -37 -4 -55h-299q4 20 4 39q0 84 -41 132t-124 48t-150.5 -70.5t-103.5 -171t-36 -199t44.5 -161t124 -62.5t142 53.5t89.5 145.5h301q-59 -190 -207.5 -305t-348.5 -115t-318.5 121t-118.5 336q0 147 69.5 297.5t207.5 251t337 100.5t315.5 -105.5
t116.5 -279.5zM584 1212l61 246h287l-62 -246h-286z" />
    <glyph glyph-name="Ccaron" unicode="&#x10c;" horiz-adv-x="1437" 
d="M1452 1014q0 -49 -8 -90h-303q4 37 4 57q0 115 -64.5 179.5t-195.5 64.5t-238.5 -100.5t-162 -251t-54.5 -302t67.5 -245t189.5 -93.5t216 67t139 183h310q-76 -244 -257.5 -380t-434 -136t-397 159t-144.5 431q0 219 92 435t275.5 357.5t441.5 141.5q159 0 278 -59.5
t182.5 -167t63.5 -250.5zM809 1556l-158 299h234l86 -155l162 155h290l-309 -299h-305z" />
    <glyph glyph-name="ccaron" unicode="&#x10d;" horiz-adv-x="1150" 
d="M1114 688q0 -37 -4 -55h-299q4 20 4 39q0 84 -41 132t-124 48t-150.5 -70.5t-103.5 -171t-36 -199t44.5 -161t124 -62.5t142 53.5t89.5 145.5h301q-59 -190 -207.5 -305t-348.5 -115t-318.5 121t-118.5 336q0 147 69.5 297.5t207.5 251t337 100.5t315.5 -105.5
t116.5 -279.5zM561 1159l-160 299h242l86 -155l162 155h283l-308 -299h-305z" />
    <glyph glyph-name="Dcaron" unicode="&#x10e;" horiz-adv-x="1503" 
d="M604 258q197 0 324 84t184 210t57 261q0 195 -98 291t-301 96h-133l-236 -942h203zM1481 831q0 -203 -97.5 -394t-300 -314t-497.5 -123h-547l362 1458h383q344 0 520.5 -160.5t176.5 -466.5zM788 1556l-157 299h233l86 -155l162 155h291l-309 -299h-306z" />
    <glyph glyph-name="dcaron" unicode="&#x10f;" horiz-adv-x="1220" 
d="M360 416q0 -102 44 -163q44 -60 129 -60q85 1 151 67t100 164q35 98 35 200t-44 163q-45 61 -129 61t-150 -67t-101 -165t-35 -200zM621 1067q95 0 165 -42t103 -118h4l135 551h287l-363 -1458h-278l24 94h-4q-125 -121 -287 -121q-161 0 -255 108t-94 280q0 173 67 333
q68 160 196 266t300 107zM1284 1096l143 362h228l-209 -362h-162z" />
    <glyph glyph-name="Dcroat" unicode="&#x110;" horiz-adv-x="1505" 
d="M1169 813q0 195 -98 291t-301 96h-133l-88 -354h340l-55 -217h-340l-93 -371h203q197 0 324 84t184 210t57 261zM1481 831q0 -203 -97.5 -394t-300 -314t-497.5 -123h-547l156 629h-132l56 217h131l151 612h383q344 0 520.5 -160.5t176.5 -466.5z" />
    <glyph glyph-name="dcroat" unicode="&#x111;" horiz-adv-x="1208" 
d="M819 624q0 102 -44 163t-129 61t-150.5 -66.5t-100.5 -165t-35 -200.5t45 -162.5t129 -60.5t150 66.5t100.5 164.5t34.5 200zM57 360q0 172 68 333t196 267.5t300 106.5q94 0 164.5 -42t103.5 -118h4l68 273h-244l37 147h241l33 131h287l-33 -131h139l-37 -147h-139
l-293 -1180h-278l24 94h-4q-125 -121 -287 -121q-161 0 -255.5 107.5t-94.5 279.5z" />
    <glyph glyph-name="Emacron" unicode="&#x112;" horiz-adv-x="1296" 
d="M639 1200l-82 -330h660l-66 -256h-659l-89 -356h725l-63 -258h-1026l362 1458h1008l-63 -258h-707zM586 1593l45 187h667l-45 -187h-667z" />
    <glyph glyph-name="emacron" unicode="&#x113;" horiz-adv-x="1173" 
d="M846 686q0 92 -52.5 138t-138.5 46t-156.5 -57t-111.5 -172h455q4 33 4 45zM334 373q0 -104 52 -153.5t133 -49.5t141.5 41t82.5 104h293q-63 -150 -206.5 -249t-342 -99t-311.5 117t-113 324q0 152 71 306t209 256.5t341 102.5t315.5 -113.5t112.5 -310.5
q0 -82 -25 -188h-745q-8 -43 -8 -88zM387 1225l45 186h668l-45 -186h-668z" />
    <glyph glyph-name="Ebreve" unicode="&#x114;" horiz-adv-x="1296" 
d="M639 1200l-82 -330h660l-66 -256h-659l-89 -356h725l-63 -258h-1026l362 1458h1008l-63 -258h-707zM928 1546q-149 0 -227 66.5t-78 185.5q0 16 4 57h170q-2 -10 -2 -26q0 -49 35.5 -77t105.5 -28t121 35t67 96h219q-40 -147 -153 -228t-262 -81z" />
    <glyph glyph-name="ebreve" unicode="&#x115;" horiz-adv-x="1173" 
d="M846 686q0 92 -52.5 138t-138.5 46t-156.5 -57t-111.5 -172h455q4 33 4 45zM334 373q0 -104 52 -153.5t133 -49.5t141.5 41t82.5 104h293q-63 -150 -206.5 -249t-342 -99t-311.5 117t-113 324q0 152 71 306t209 256.5t341 102.5t315.5 -113.5t112.5 -310.5
q0 -82 -25 -188h-745q-8 -43 -8 -88zM721 1149q-149 0 -227 66.5t-78 185.5q0 16 4 57h170q-2 -10 -2 -26q0 -49 35.5 -77t105.5 -28t121 35t68 96h219q-41 -147 -154 -228t-262 -81z" />
    <glyph glyph-name="Edotaccent" unicode="&#x116;" horiz-adv-x="1296" 
d="M639 1200l-82 -330h660l-66 -256h-659l-89 -356h725l-63 -258h-1026l362 1458h1008l-63 -258h-707zM770 1575l61 246h287l-61 -246h-287z" />
    <glyph glyph-name="edotaccent" unicode="&#x117;" horiz-adv-x="1173" 
d="M846 686q0 92 -52.5 138t-138.5 46t-156.5 -57t-111.5 -172h455q4 33 4 45zM334 373q0 -104 52 -153.5t133 -49.5t141.5 41t82.5 104h293q-63 -150 -206.5 -249t-342 -99t-311.5 117t-113 324q0 152 71 306t209 256.5t341 102.5t315.5 -113.5t112.5 -310.5
q0 -82 -25 -188h-745q-8 -43 -8 -88zM573 1212l62 246h287l-62 -246h-287z" />
    <glyph glyph-name="Eogonek" unicode="&#x118;" horiz-adv-x="1296" 
d="M621 -250q0 136 219 250h-801l362 1458h1008l-63 -258h-707l-82 -330h660l-66 -256h-659l-89 -356h725l-63 -258q-106 -63 -146 -109.5t-40 -90.5t50 -44t83 13l-39 -154q-66 -18 -142 -18q-210 0 -210 153z" />
    <glyph glyph-name="eogonek" unicode="&#x119;" horiz-adv-x="1173" 
d="M846 686q0 92 -52.5 138t-138.5 46t-156.5 -57t-111.5 -172h455q4 33 4 45zM356 -250q0 114 156 213v4h-6q-217 0 -330 117t-113 324q0 152 71 306t209 256.5t341 102.5t315.5 -113.5t112.5 -310.5q0 -82 -25 -188h-745q-8 -43 -8 -88q0 -104 52 -153.5t133 -49.5
t141.5 41t82.5 104h293q-59 -140 -235 -276q-109 -82 -148 -135.5t-39 -104.5q0 -43 50 -43t84 13l-39 -154q-66 -18 -156 -18t-143.5 39.5t-53.5 113.5z" />
    <glyph glyph-name="Ecaron" unicode="&#x11a;" horiz-adv-x="1296" 
d="M639 1200l-82 -330h660l-66 -256h-659l-89 -356h725l-63 -258h-1026l362 1458h1008l-63 -258h-707zM756 1556l-158 299h233l87 -155l161 155h291l-309 -299h-305z" />
    <glyph glyph-name="ecaron" unicode="&#x11b;" horiz-adv-x="1173" 
d="M846 686q0 92 -52.5 138t-138.5 46t-156.5 -57t-111.5 -172h455q4 33 4 45zM334 373q0 -104 52 -153.5t133 -49.5t141.5 41t82.5 104h293q-63 -150 -206.5 -249t-342 -99t-311.5 117t-113 324q0 152 71 306t209 256.5t341 102.5t315.5 -113.5t112.5 -310.5
q0 -82 -25 -188h-745q-8 -43 -8 -88zM551 1159l-160 299h242l86 -155l162 155h282l-307 -299h-305z" />
    <glyph glyph-name="Gcircumflex" unicode="&#x11c;" horiz-adv-x="1523" 
d="M119 528.5q0 245.5 98 463.5t290.5 358.5t453 140.5t397.5 -120t137 -331q0 -33 -6 -69h-324q2 10 2 28q0 109 -62.5 167.5t-176.5 58.5q-158 0 -271.5 -100.5t-172 -255t-58.5 -314.5t69.5 -253t207 -93t243 84t144.5 229h-347l62 246h627l-191 -768h-254l31 125h-4
q-158 -154 -395.5 -154t-368.5 156t-131 401.5zM1196 1855l158 -299h-234l-86 156l-162 -156h-290l309 299h305z" />
    <glyph glyph-name="gcircumflex" unicode="&#x11d;" horiz-adv-x="1210" 
d="M371 456q0 -89 44 -148.5t125 -59.5t143 57t94 141t32 176t-47 152t-128 60t-140.5 -59.5t-91 -144.5t-31.5 -174zM248 -90q0 -103 170 -103q196 0 256 236l18 76h-4q-123 -107 -281.5 -107t-248.5 109.5t-90 304.5q0 143 63.5 292.5t184 250t282.5 100.5
q111 0 183.5 -50t105.5 -134h4l39 155h270l-258 -1040q-49 -197 -195.5 -297t-357.5 -100t-317.5 71.5t-106.5 204.5q0 25 6 55h279q-2 -8 -2 -24zM870 1159l-86 156l-161 -156h-283l307 299h305l160 -299h-242z" />
    <glyph glyph-name="Gbreve" unicode="&#x11e;" horiz-adv-x="1523" 
d="M119 528.5q0 245.5 98 463.5t290.5 358.5t453 140.5t397.5 -120t137 -331q0 -33 -6 -69h-324q2 10 2 28q0 109 -62.5 167.5t-176.5 58.5q-158 0 -271.5 -100.5t-172 -255t-58.5 -314.5t69.5 -253t207 -93t243 84t144.5 229h-347l62 246h627l-191 -768h-254l31 125h-4
q-158 -154 -395.5 -154t-368.5 156t-131 401.5zM987.5 1546q-149.5 0 -227.5 66.5t-78 185.5q0 16 4 57h170q-2 -10 -2 -26q0 -49 36 -77t105.5 -28t120.5 35t68 96h219q-41 -147 -153.5 -228t-262 -81z" />
    <glyph glyph-name="gbreve" unicode="&#x11f;" horiz-adv-x="1210" 
d="M371 456q0 -89 44 -148.5t125 -59.5t143 57t94 141t32 176t-47 152t-128 60t-140.5 -59.5t-91 -144.5t-31.5 -174zM248 -90q0 -103 170 -103q196 0 256 236l18 76h-4q-123 -107 -281.5 -107t-248.5 109.5t-90 304.5q0 143 63.5 292.5t184 250t282.5 100.5
q111 0 183.5 -50t105.5 -134h4l39 155h270l-258 -1040q-49 -197 -195.5 -297t-357.5 -100t-317.5 71.5t-106.5 204.5q0 25 6 55h279q-2 -8 -2 -24zM743.5 1149q-149.5 0 -227.5 66.5t-78 185.5q0 16 4 57h170q-2 -10 -2 -26q0 -49 36 -77t106 -28t121 35t67 96h219
q-41 -147 -153.5 -228t-262 -81z" />
    <glyph glyph-name="Gdotaccent" unicode="&#x120;" horiz-adv-x="1523" 
d="M119 528.5q0 245.5 98 463.5t290.5 358.5t453 140.5t397.5 -120t137 -331q0 -33 -6 -69h-324q2 10 2 28q0 109 -62.5 167.5t-176.5 58.5q-158 0 -271.5 -100.5t-172 -255t-58.5 -314.5t69.5 -253t207 -93t243 84t144.5 229h-347l62 246h627l-191 -768h-254l31 125h-4
q-158 -154 -395.5 -154t-368.5 156t-131 401.5zM829 1575l62 246h287l-62 -246h-287z" />
    <glyph glyph-name="gdotaccent" unicode="&#x121;" horiz-adv-x="1210" 
d="M371 456q0 -89 44 -148.5t125 -59.5t143 57t94 141t32 176t-47 152t-128 60t-140.5 -59.5t-91 -144.5t-31.5 -174zM248 -90q0 -103 170 -103q196 0 256 236l18 76h-4q-123 -107 -281.5 -107t-248.5 109.5t-90 304.5q0 143 63.5 292.5t184 250t282.5 100.5
q111 0 183.5 -50t105.5 -134h4l39 155h270l-258 -1040q-49 -197 -195.5 -297t-357.5 -100t-317.5 71.5t-106.5 204.5q0 25 6 55h279q-2 -8 -2 -24zM596 1212l61 246h287l-61 -246h-287z" />
    <glyph glyph-name="Gcommaaccent" unicode="&#x122;" horiz-adv-x="1523" 
d="M119 528.5q0 245.5 98 463.5t290.5 358.5t453 140.5t397.5 -120t137 -331q0 -33 -6 -69h-324q2 10 2 28q0 109 -62.5 167.5t-176.5 58.5q-158 0 -271.5 -100.5t-172 -255t-58.5 -314.5t69.5 -253t207 -93t243 84t144.5 229h-347l62 246h627l-191 -768h-254l31 125h-4
q-158 -154 -395.5 -154t-368.5 156t-131 401.5zM469 -553h-115l148 219h-92l53 213h254l-53 -213z" />
    <glyph glyph-name="gcommaaccent" unicode="&#x123;" horiz-adv-x="1210" 
d="M371 456q0 -89 44 -148.5t125 -59.5t143 57t94 141t32 176t-47 152t-128 60t-140.5 -59.5t-91 -144.5t-31.5 -174zM248 -90q0 -103 170 -103q196 0 256 236l18 76h-4q-123 -107 -281.5 -107t-248.5 109.5t-90 304.5q0 143 63.5 292.5t184 250t282.5 100.5
q111 0 183.5 -50t105.5 -134h4l39 155h270l-258 -1040q-49 -197 -195.5 -297t-357.5 -100t-317.5 71.5t-106.5 204.5q0 25 6 55h279q-2 -8 -2 -24zM911 1395l-51 -213h-254l51 213l195 219h115l-148 -219h92z" />
    <glyph glyph-name="Hcircumflex" unicode="&#x124;" horiz-adv-x="1536" 
d="M938 0l156 629h-598l-156 -629h-301l362 1458h301l-141 -571h598l141 571h302l-363 -1458h-301zM1253 1855l158 -299h-233l-86 156l-162 -156h-291l309 299h305z" />
    <glyph glyph-name="hcircumflex" unicode="&#x125;" 
d="M820.5 1065q154.5 0 238.5 -79t84 -228q0 -70 -21 -150l-151 -608h-287l150 602q14 57 14 107q0 131 -137 131q-92 0 -166 -73t-109 -210l-139 -557h-287l363 1458h286l-129 -514h5q131 121 285.5 121zM1098 1855l157 -299h-233l-86 156l-162 -156h-291l310 299h305z" />
    <glyph glyph-name="Hbar" unicode="&#x126;" horiz-adv-x="1536" 
d="M629 1163l-68 -276h598l68 276h-598zM1528 1163l-289 -1163h-301l156 629h-598l-156 -629h-301l289 1163h-113l37 148h113l36 147h301l-36 -147h598l36 147h302l-37 -147h112l-37 -148h-112z" />
    <glyph glyph-name="hbar" unicode="&#x127;" 
d="M1143 758q0 -70 -21 -150l-151 -608h-287l150 602q14 57 14 107q0 131 -137 131q-92 0 -166 -73t-109 -210l-139 -557h-287l293 1180h-151l32 131h152l37 147h286l-36 -147h229l-33 -131h-229l-60 -236h5q131 121 285.5 121t238.5 -79t84 -228z" />
    <glyph glyph-name="Itilde" unicode="&#x128;" horiz-adv-x="636" 
d="M39 0l362 1458h301l-362 -1458h-301zM594 1626q-76 47 -115 47q-84 0 -117 -94h-163q35 129 112.5 202.5t169.5 73.5t176 -55q64 -39 101 -39q85 0 121 94h159q-37 -129 -113.5 -202.5t-165.5 -73.5t-165 47z" />
    <glyph glyph-name="itilde" unicode="&#x129;" horiz-adv-x="565" 
d="M10 0l258 1040h287l-258 -1040h-287zM606 1364q70 0 103 94h155q-39 -131 -110.5 -203.5t-165.5 -72.5q-45 0 -75 14t-64 37.5t-52 33t-41 9.5q-69 0 -100 -94h-158q37 129 109 202.5t156 73.5t146 -47t97 -47z" />
    <glyph glyph-name="Imacron" unicode="&#x12a;" horiz-adv-x="636" 
d="M39 0l362 1458h301l-362 -1458h-301zM254 1593l45 187h668l-45 -187h-668z" />
    <glyph glyph-name="imacron" unicode="&#x12b;" horiz-adv-x="565" 
d="M10 0l258 1040h287l-258 -1040h-287zM164 1225l47 186h586l-47 -186h-586z" />
    <glyph glyph-name="Ibreve" unicode="&#x12c;" horiz-adv-x="636" 
d="M39 0l362 1458h301l-362 -1458h-301zM596 1546q-149 0 -227 66.5t-78 185.5q0 16 4 57h170q-2 -10 -2 -26q0 -49 36 -77t105.5 -28t120.5 35t68 96h219q-41 -147 -154 -228t-262 -81z" />
    <glyph glyph-name="ibreve" unicode="&#x12d;" horiz-adv-x="565" 
d="M10 0l258 1040h287l-258 -1040h-287zM459 1149q-135 0 -205 64.5t-70 179.5q0 35 6 65h166q-2 -10 -2 -44t29 -60.5t88 -26.5t103 35t61 96h207q-39 -147 -143.5 -228t-239.5 -81z" />
    <glyph glyph-name="Iogonek" unicode="&#x12e;" horiz-adv-x="636" 
d="M-104 -250q0 136 219 250h-76l362 1458h301l-362 -1458q-106 -63 -146 -109.5t-40 -90.5t50 -44t83 13l-39 -154q-66 -18 -142 -18q-210 0 -210 153z" />
    <glyph glyph-name="iogonek" unicode="&#x12f;" horiz-adv-x="565" 
d="M-147 -250q0 136 219 250h-62l258 1040h287l-258 -1040q-106 -63 -146 -109.5t-40 -90.5t50 -44t83 13l-39 -154q-66 -18 -142 -18q-210 0 -210 153zM598 1212h-287l62 246h286z" />
    <glyph glyph-name="Idotaccent" unicode="&#x130;" horiz-adv-x="636" 
d="M39 0l362 1458h301l-362 -1458h-301zM438 1575l62 246h286l-61 -246h-287z" />
    <glyph glyph-name="dotlessi" unicode="&#x131;" horiz-adv-x="565" 
d="M10 0l258 1040h287l-258 -1040h-287z" />
    <glyph glyph-name="IJ" unicode="&#x132;" horiz-adv-x="1439" 
d="M39 0l362 1458h301l-362 -1458h-301zM688 -14q-84 0 -149 20l63 252q45 -10 104.5 -10t115.5 24q111 49 165 273l227 913h302l-256 -1026q-58 -229 -195 -337.5t-377 -108.5z" />
    <glyph glyph-name="ij" unicode="&#x133;" horiz-adv-x="1134" 
d="M430 -389q-90 0 -154 18l52 205q23 -6 47 -6q84 0 134 46t79 163l250 1003h286l-272 -1095q-43 -172 -154.5 -253t-267.5 -81zM10 0l258 1040h287l-258 -1040h-287zM881 1212l61 246h287l-62 -246h-286zM311 1212l62 246h286l-61 -246h-287z" />
    <glyph glyph-name="Jcircumflex" unicode="&#x134;" horiz-adv-x="802" 
d="M51 -14q-84 0 -149 20l63 252q45 -10 105 -10q58 0 114 24q113 50 166 273l228 913h301l-256 -1026q-58 -229 -195 -337.5t-377 -108.5zM981 1855l158 -299h-234l-86 156l-162 -156h-290l309 299h305z" />
    <glyph glyph-name="jcircumflex" unicode="&#x135;" horiz-adv-x="569" 
d="M-135 -389q-88 0 -154 18l51 205q23 -6 48 -6q84 0 134 46t79 163l249 1003h287l-272 -1095q-43 -172 -155 -253t-267 -81zM575 1161l-69 158l-148 -158h-268l285 297h289l137 -297h-226z" />
    <glyph glyph-name="Kcommaaccent" unicode="&#x136;" horiz-adv-x="1357" 
d="M1221 0h-351l-350 713h-4l-176 -713h-301l362 1458h301l-153 -616h4l598 616h385l-731 -706zM399 -553h-114l147 219h-92l53 213h254l-53 -213z" />
    <glyph glyph-name="kcommaaccent" unicode="&#x137;" horiz-adv-x="1112" 
d="M1004 0h-314l-264 500h-4l-125 -500h-287l363 1458h286l-204 -825h4l395 407h365l-519 -501zM336 -553h-115l148 219h-93l54 213h254l-54 -213z" />
    <glyph glyph-name="kgreenlandic" unicode="&#x138;" horiz-adv-x="1146" 
d="M1004 0h-314l-264 500h-4l-125 -500h-287l258 1040h287l-100 -407h4l395 407h365l-519 -501z" />
    <glyph glyph-name="Lacute" unicode="&#x139;" horiz-adv-x="1177" 
d="M1092 258l-64 -258h-989l362 1458h301l-299 -1200h689zM463 1556l221 299h367l-351 -299h-237z" />
    <glyph glyph-name="lacute" unicode="&#x13a;" horiz-adv-x="565" 
d="M10 0l363 1458h286l-362 -1458h-287zM403 1577l220 299h366l-348 -299h-238z" />
    <glyph glyph-name="Lcommaaccent" unicode="&#x13b;" horiz-adv-x="1177" 
d="M1092 258l-64 -258h-989l362 1458h301l-299 -1200h689zM383 -553h-115l148 219h-92l53 213h254l-53 -213z" />
    <glyph glyph-name="lcommaaccent" unicode="&#x13c;" horiz-adv-x="565" 
d="M10 0l363 1458h286l-362 -1458h-287zM12 -553h-114l147 219h-92l53 213h254l-53 -213z" />
    <glyph glyph-name="Lcaron" unicode="&#x13d;" horiz-adv-x="1177" 
d="M1092 258l-64 -258h-989l362 1458h301l-299 -1200h689zM670 999l168 459h227l-234 -459h-161z" />
    <glyph glyph-name="lcaron" unicode="&#x13e;" horiz-adv-x="565" 
d="M10 0l363 1458h286l-362 -1458h-287zM627 1096l143 362h227l-209 -362h-161z" />
    <glyph glyph-name="Ldot" unicode="&#x13f;" horiz-adv-x="1341" 
d="M1092 258l-64 -258h-989l362 1458h301l-299 -1200h689zM864 713l84 342h316l-84 -342h-316z" />
    <glyph glyph-name="ldot" unicode="&#x140;" horiz-adv-x="1032" 
d="M10 0l363 1458h286l-362 -1458h-287zM649 557l84 342h316l-84 -342h-316z" />
    <glyph glyph-name="Lslash" unicode="&#x141;" horiz-adv-x="1177" 
d="M1028 0h-989l139 559l-164 -84l70 277l164 84l153 622h301l-114 -463l325 170l-67 -276l-328 -170l-115 -461h689z" />
    <glyph glyph-name="lslash" unicode="&#x142;" horiz-adv-x="679" 
d="M526 694l-172 -694h-286l139 559l-203 -104l66 262l202 104l158 637h287l-125 -504l203 107l-66 -262z" />
    <glyph glyph-name="Nacute" unicode="&#x143;" horiz-adv-x="1589" 
d="M889 0l-148 592q-78 317 -135 602h-4q-68 -362 -135 -633l-139 -561h-289l362 1458h404l147 -592q55 -229 135 -602h5q55 315 135 633l139 561h289l-363 -1458h-403zM879 1556l221 299h366l-350 -299h-237z" />
    <glyph glyph-name="nacute" unicode="&#x144;" 
d="M815 1065q162 0 245 -79t83 -228q0 -70 -21 -150l-151 -608h-287l150 602q14 57 14 107q0 131 -137 131q-92 0 -166 -73t-109 -210l-139 -557h-287l260 1040h269l-29 -114h4q139 139 301 139zM606 1159l219 299h367l-348 -299h-238z" />
    <glyph glyph-name="Ncommaaccent" unicode="&#x145;" horiz-adv-x="1589" 
d="M889 0l-148 592q-78 317 -135 602h-4q-68 -362 -135 -633l-139 -561h-289l362 1458h404l147 -592q55 -229 135 -602h5q55 315 135 633l139 561h289l-363 -1458h-403zM514 -553h-115l148 219h-92l53 213h254l-53 -213z" />
    <glyph glyph-name="ncommaaccent" unicode="&#x146;" 
d="M815 1065q162 0 245 -79t83 -228q0 -70 -21 -150l-151 -608h-287l150 602q14 57 14 107q0 131 -137 131q-92 0 -166 -73t-109 -210l-139 -557h-287l260 1040h269l-29 -114h4q139 139 301 139zM340 -553h-115l148 219h-92l53 213h254l-53 -213z" />
    <glyph glyph-name="Ncaron" unicode="&#x147;" horiz-adv-x="1589" 
d="M889 0l-148 592q-78 317 -135 602h-4q-68 -362 -135 -633l-139 -561h-289l362 1458h404l147 -592q55 -229 135 -602h5q55 315 135 633l139 561h289l-363 -1458h-403zM899 1556l-158 299h234l86 -155l162 155h290l-309 -299h-305z" />
    <glyph glyph-name="ncaron" unicode="&#x148;" 
d="M815 1065q162 0 245 -79t83 -228q0 -70 -21 -150l-151 -608h-287l150 602q14 57 14 107q0 131 -137 131q-92 0 -166 -73t-109 -210l-139 -557h-287l260 1040h269l-29 -114h4q139 139 301 139zM627 1159l-160 299h242l86 -155l161 155h283l-307 -299h-305z" />
    <glyph glyph-name="napostrophe" unicode="&#x149;" horiz-adv-x="1536" 
d="M352 868h-145l172 299h-90l71 291h269l-72 -291zM1122 1065q162 0 245 -79t83 -228q0 -70 -20 -150l-152 -608h-287l150 602q14 57 14 107q0 131 -137 131q-92 0 -166 -73t-109 -210l-139 -557h-287l261 1040h268l-29 -114h4q139 139 301 139z" />
    <glyph glyph-name="Eng" unicode="&#x14a;" horiz-adv-x="1527" 
d="M778 -395q-78 0 -137 16l51 207q25 -6 60 -6q82 0 129 46t47 136q0 33 -9.5 65.5t-44.5 141.5l-145 442q-78 227 -135 484h-4q-41 -242 -109 -521l-153 -616h-289l362 1458h351l178 -545q82 -254 135 -485h4q41 242 109 520l127 510h288l-370 -1487q-47 -188 -164 -277
t-281 -89z" />
    <glyph glyph-name="eng" unicode="&#x14b;" 
d="M814 1065q161 0 245 -79t84 -228q0 -70 -21 -150l-166 -663q-43 -172 -154.5 -253t-266.5 -81q-88 0 -154 18l51 205q23 -6 47 -6q84 0 134.5 46t78.5 163l142 565q14 57 14 107q0 131 -137 131q-92 0 -166 -73t-109 -210l-139 -557h-287l260 1040h269l-29 -114h4
q139 139 300 139z" />
    <glyph glyph-name="Omacron" unicode="&#x14c;" horiz-adv-x="1531" 
d="M428 579.5q0 -155.5 79 -251t225.5 -95.5t255 98.5t164.5 246t56 302t-78.5 250t-226 95.5t-256 -97.5t-164 -245t-55.5 -303zM1511 856q0 -203 -92 -410.5t-271 -343t-445.5 -135.5t-422 167t-155.5 456q0 215 91 424t270.5 343t431.5 134q186 0 320 -76t203.5 -216
t69.5 -343zM651 1593l45 187h668l-45 -187h-668z" />
    <glyph glyph-name="omacron" unicode="&#x14d;" horiz-adv-x="1208" 
d="M362 415.5q0 -102.5 47.5 -165t141.5 -62.5t160.5 69t99.5 167t33 200.5t-47 165t-141.5 62.5t-161 -68.5t-99.5 -167t-33 -201zM1141 614q0 -150 -72 -299t-212 -248.5t-347 -99.5t-324.5 121t-117.5 338q0 147 71.5 297.5t210.5 250t346 99.5t326 -121t119 -338z
M406 1225l45 186h667l-45 -186h-667z" />
    <glyph glyph-name="Obreve" unicode="&#x14e;" horiz-adv-x="1531" 
d="M428 579.5q0 -155.5 79 -251t225.5 -95.5t255 98.5t164.5 246t56 302t-78.5 250t-226 95.5t-256 -97.5t-164 -245t-55.5 -303zM1511 856q0 -203 -92 -410.5t-271 -343t-445.5 -135.5t-422 167t-155.5 456q0 215 91 424t270.5 343t431.5 134q186 0 320 -76t203.5 -216
t69.5 -343zM993.5 1546q-149.5 0 -227.5 66.5t-78 185.5q0 16 4 57h170q-2 -10 -2 -26q0 -49 36 -77t105.5 -28t121 35t67.5 96h219q-41 -147 -153.5 -228t-262 -81z" />
    <glyph glyph-name="obreve" unicode="&#x14f;" horiz-adv-x="1208" 
d="M362 415.5q0 -102.5 47.5 -165t141.5 -62.5t160.5 69t99.5 167t33 200.5t-47 165t-141.5 62.5t-161 -68.5t-99.5 -167t-33 -201zM1141 614q0 -150 -72 -299t-212 -248.5t-347 -99.5t-324.5 121t-117.5 338q0 147 71.5 297.5t210.5 250t346 99.5t326 -121t119 -338z
M739.5 1149q-149.5 0 -227.5 66.5t-78 185.5q0 16 4 57h170q-2 -10 -2 -26q0 -49 36 -77t105.5 -28t121 35t67.5 96h219q-41 -147 -153.5 -228t-262 -81z" />
    <glyph glyph-name="Ohungarumlaut" unicode="&#x150;" horiz-adv-x="1531" 
d="M428 579.5q0 -155.5 79 -251t225.5 -95.5t255 98.5t164.5 246t56 302t-78.5 250t-226 95.5t-256 -97.5t-164 -245t-55.5 -303zM1511 856q0 -203 -92 -410.5t-271 -343t-445.5 -135.5t-422 167t-155.5 456q0 215 91 424t270.5 343t431.5 134q186 0 320 -76t203.5 -216
t69.5 -343zM969 1556l262 299h325l-350 -299h-237zM580 1556l262 299h325l-350 -299h-237z" />
    <glyph glyph-name="ohungarumlaut" unicode="&#x151;" horiz-adv-x="1208" 
d="M362 415.5q0 -102.5 47.5 -165t141.5 -62.5t160.5 69t99.5 167t33 200.5t-47 165t-141.5 62.5t-161 -68.5t-99.5 -167t-33 -201zM1141 614q0 -150 -72 -299t-212 -248.5t-347 -99.5t-324.5 121t-117.5 338q0 147 71.5 297.5t210.5 250t346 99.5t326 -121t119 -338z
M758 1159l260 299h325l-348 -299h-237zM369 1159l260 299h325l-348 -299h-237z" />
    <glyph glyph-name="OE" unicode="&#x152;" horiz-adv-x="2088" 
d="M438 645q0 -387 367 -387h90l235 942h-131q-196 0 -322 -84t-182.5 -210t-56.5 -261zM778 0q-322 0 -486.5 161t-164.5 466q0 203 97.5 394t298 314t495.5 123h1184l-64 -258h-706l-82 -330h659l-65 -256h-660l-88 -356h725l-63 -258h-1080z" />
    <glyph glyph-name="oe" unicode="&#x153;" horiz-adv-x="1900" 
d="M844 624.5q0 102.5 -47 165t-141.5 62.5t-161 -68.5t-99.5 -167t-33 -201t47.5 -165t141.5 -62.5t160.5 69t99.5 167t33 200.5zM1573 686q0 92 -52.5 138t-135 46t-148.5 -57t-102 -172h436q2 16 2 45zM1233 -33q-230 0 -332 162q-166 -162 -387 -162t-333.5 121
t-112.5 338q0 147 69.5 297.5t203.5 250t318 99.5q252 0 367 -172q162 172 380 172t325.5 -114.5t107.5 -309.5q0 -82 -24 -188h-725q-9 -43 -9 -88q0 -104 46.5 -153.5t123 -49.5t137 41t82.5 104h293q-63 -150 -206.5 -249t-323.5 -99z" />
    <glyph glyph-name="Racute" unicode="&#x154;" horiz-adv-x="1363" 
d="M772 797q145 0 214 73.5t69 165.5q0 178 -195 178h-217l-104 -417h233zM918 1458q454 0 454 -348q0 -204 -164 -340q-82 -68 -200 -96v-4q63 -27 95 -87.5t50 -193.5l53 -389h-311l-39 346q-14 119 -60 165t-153 46h-166l-137 -557h-301l362 1458h517zM709 1556l221 299
h366l-350 -299h-237z" />
    <glyph glyph-name="racute" unicode="&#x155;" horiz-adv-x="802" 
d="M768 807q-133 0 -222 -81t-126 -234l-123 -492h-287l258 1040h264l-32 -133h4q146 150 321 150q52 -1 93 -13l-62 -247q-55 10 -88 10zM414 1159l219 299h366l-348 -299h-237z" />
    <glyph glyph-name="Rcommaaccent" unicode="&#x156;" horiz-adv-x="1363" 
d="M772 797q145 0 214 73.5t69 165.5q0 178 -195 178h-217l-104 -417h233zM918 1458q454 0 454 -348q0 -204 -164 -340q-82 -68 -200 -96v-4q63 -27 95 -87.5t50 -193.5l53 -389h-311l-39 346q-14 119 -60 165t-153 46h-166l-137 -557h-301l362 1458h517zM461 -553h-115
l148 219h-93l54 213h254l-54 -213z" />
    <glyph glyph-name="rcommaaccent" unicode="&#x157;" horiz-adv-x="802" 
d="M768 807q-133 0 -222 -81t-126 -234l-123 -492h-287l258 1040h264l-32 -133h4q146 150 321 150q52 -1 93 -13l-62 -247q-55 10 -88 10zM12 -553h-114l147 219h-92l53 213h254l-53 -213z" />
    <glyph glyph-name="Rcaron" unicode="&#x158;" horiz-adv-x="1363" 
d="M772 797q145 0 214 73.5t69 165.5q0 178 -195 178h-217l-104 -417h233zM918 1458q454 0 454 -348q0 -204 -164 -340q-82 -68 -200 -96v-4q63 -27 95 -87.5t50 -193.5l53 -389h-311l-39 346q-14 119 -60 165t-153 46h-166l-137 -557h-301l362 1458h517zM729 1556l-158 299
h234l86 -155l162 155h290l-309 -299h-305z" />
    <glyph glyph-name="rcaron" unicode="&#x159;" horiz-adv-x="802" 
d="M768 807q-133 0 -222 -81t-126 -234l-123 -492h-287l258 1040h264l-32 -133h4q146 150 321 150q52 -1 93 -13l-62 -247q-55 10 -88 10zM434 1159l-160 299h242l86 -155l162 155h283l-308 -299h-305z" />
    <glyph glyph-name="Sacute" unicode="&#x15a;" horiz-adv-x="1290" 
d="M993 1071q0 180 -221 180q-102 0 -172 -50t-70 -123t59.5 -114.5t197 -87t217.5 -90.5q184 -103 184 -337q0 -115 -72 -226.5t-212 -183.5t-333 -72q-256 0 -397 102.5t-141 295.5q0 57 14 114h311q-8 -35 -8 -73q0 -195 256 -195q86 0 145.5 29.5t88 73.5t28.5 95
t-26.5 86t-74.5 59t-164.5 64.5t-197.5 83.5q-190 101 -190 330q0 109 69.5 215.5t205 175t319.5 68.5q500 0 500 -371q0 -47 -17 -108h-305q6 31 6 59zM659 1556l222 299h366l-350 -299h-238z" />
    <glyph glyph-name="sacute" unicode="&#x15b;" horiz-adv-x="1073" 
d="M311 293q0 -119 160 -119q78 0 121 31t43 83t-44 80q-43 29 -147 65q-104 35 -158 63q-128 66 -128 237q0 86 53 164t158.5 127t275.5 49t271.5 -72.5t101.5 -214.5q0 -31 -6 -65h-273q4 29 4 43q0 109 -143 108q-78 0 -114.5 -30.5t-36.5 -72.5t38.5 -68.5t143 -62.5
t165 -66.5t102.5 -91t42 -154.5t-55.5 -176t-167 -132.5t-294 -50.5t-294 75t-111.5 222q0 41 11 74h288q-6 -25 -6 -45zM492 1159l219 299h366l-348 -299h-237z" />
    <glyph glyph-name="Scircumflex" unicode="&#x15c;" horiz-adv-x="1290" 
d="M993 1071q0 180 -221 180q-102 0 -172 -50t-70 -123t59.5 -114.5t197 -87t217.5 -90.5q184 -103 184 -337q0 -115 -72 -226.5t-212 -183.5t-333 -72q-256 0 -397 102.5t-141 295.5q0 57 14 114h311q-8 -35 -8 -73q0 -195 256 -195q86 0 145.5 29.5t88 73.5t28.5 95
t-26.5 86t-74.5 59t-164.5 64.5t-197.5 83.5q-190 101 -190 330q0 109 69.5 215.5t205 175t319.5 68.5q500 0 500 -371q0 -47 -17 -108h-305q6 31 6 59zM1061 1855l158 -299h-234l-86 156l-162 -156h-291l310 299h305z" />
    <glyph glyph-name="scircumflex" unicode="&#x15d;" horiz-adv-x="1073" 
d="M311 293q0 -119 160 -119q78 0 121 31t43 83t-44 80q-43 29 -147 65q-104 35 -158 63q-128 66 -128 237q0 86 53 164t158.5 127t275.5 49t271.5 -72.5t101.5 -214.5q0 -31 -6 -65h-273q4 29 4 43q0 109 -143 108q-78 0 -114.5 -30.5t-36.5 -72.5t38.5 -68.5t143 -62.5
t165 -66.5t102.5 -91t42 -154.5t-55.5 -176t-167 -132.5t-294 -50.5t-294 75t-111.5 222q0 41 11 74h288q-6 -25 -6 -45zM809 1159l-86 156l-162 -156h-282l307 299h305l160 -299h-242z" />
    <glyph glyph-name="Scedilla" unicode="&#x15e;" horiz-adv-x="1290" 
d="M539 -272q0 67 -78 67q-35 0 -70 -12l-41 37l133 151q-217 16 -333.5 116.5t-116.5 277.5q0 57 14 114h311q-8 -35 -8 -73q0 -195 256 -195q86 0 145.5 29.5t88 73.5t28.5 95t-26.5 86t-74.5 59t-164.5 64.5t-197.5 83.5q-190 101 -190 330q0 109 69.5 215.5t205 175
t319.5 68.5q500 0 500 -371q0 -47 -17 -108h-305q6 30 6 59q0 180 -221 180q-102 0 -172 -50t-70 -123t59.5 -114.5t197 -87t217.5 -90.5q184 -103 184 -337q0 -111 -68.5 -219.5t-201 -182.5t-316.5 -80l-80 -90q18 6 64 6t87.5 -39t41.5 -114.5t-84 -134t-206 -58.5
t-216 62l51 92q80 -45 147.5 -45t99.5 22.5t32 59.5z" />
    <glyph glyph-name="scedilla" unicode="&#x15f;" horiz-adv-x="1073" 
d="M311 293q0 -119 160 -119q78 0 121 31t43 83t-44 80q-43 29 -147 65q-104 35 -158 63q-128 66 -128 237q0 86 53 164t158.5 127t275.5 49t271.5 -72.5t101.5 -214.5q0 -31 -6 -65h-273q4 29 4 43q0 109 -143 108q-78 0 -114.5 -30.5t-36.5 -72.5t38.5 -68.5t143 -62.5
t165 -66.5t102.5 -91t42 -153.5t-51 -171t-153.5 -130.5t-250.5 -58.5l-79 -90q18 6 64 6t87 -39t41 -114.5t-84 -134t-206 -58.5t-216 62l51 92q79 -45 147 -45q132 0 132 82q0 67 -78 67q-37 0 -70 -12l-41 37l134 151q-166 12 -257.5 87t-91.5 206q0 41 11 74h288
q-6 -25 -6 -45z" />
    <glyph glyph-name="Scaron" unicode="&#x160;" horiz-adv-x="1290" 
d="M993 1071q0 180 -221 180q-102 0 -172 -50t-70 -123t59.5 -114.5t197 -87t217.5 -90.5q184 -103 184 -337q0 -115 -72 -226.5t-212 -183.5t-333 -72q-256 0 -397 102.5t-141 295.5q0 57 14 114h311q-8 -35 -8 -73q0 -195 256 -195q86 0 145.5 29.5t88 73.5t28.5 95
t-26.5 86t-74.5 59t-164.5 64.5t-197.5 83.5q-190 101 -190 330q0 109 69.5 215.5t205 175t319.5 68.5q500 0 500 -371q0 -47 -17 -108h-305q6 31 6 59zM680 1556l-158 299h234l86 -155l162 155h290l-309 -299h-305z" />
    <glyph glyph-name="scaron" unicode="&#x161;" horiz-adv-x="1073" 
d="M311 293q0 -119 160 -119q78 0 121 31t43 83t-44 80q-43 29 -147 65q-104 35 -158 63q-128 66 -128 237q0 86 53 164t158.5 127t275.5 49t271.5 -72.5t101.5 -214.5q0 -31 -6 -65h-273q4 29 4 43q0 109 -143 108q-78 0 -114.5 -30.5t-36.5 -72.5t38.5 -68.5t143 -62.5
t165 -66.5t102.5 -91t42 -154.5t-55.5 -176t-167 -132.5t-294 -50.5t-294 75t-111.5 222q0 41 11 74h288q-6 -25 -6 -45zM512 1159l-160 299h242l86 -155l162 155h282l-307 -299h-305z" />
    <glyph glyph-name="uni0162" unicode="&#x162;" horiz-adv-x="1259" 
d="M360 -553h-114l147 219h-92l53 213h254l-53 -213zM950 1200l-299 -1200h-301l299 1200h-459l64 258h1219l-64 -258h-459z" />
    <glyph glyph-name="uni0163" unicode="&#x163;" horiz-adv-x="731" 
d="M395 -121l-53 -213l-195 -219h-114l147 219h-92l53 213h254zM428 303q0 -88 111 -88q31 0 67 8l-57 -223q-51 -14 -113 -14q-158 0 -231.5 61.5t-73.5 198.5q0 61 23 151l106 430h-168l53 213h168l68 271h287l-68 -271h199l-54 -213h-198l-109 -436q-10 -47 -10 -88z" />
    <glyph glyph-name="Tcaron" unicode="&#x164;" horiz-adv-x="1259" 
d="M950 1200l-299 -1200h-301l299 1200h-459l64 258h1219l-64 -258h-459zM707 1556l-158 299h233l86 -155l162 155h291l-309 -299h-305z" />
    <glyph glyph-name="tcaron" unicode="&#x165;" horiz-adv-x="731" 
d="M428 303q0 -88 111 -88q31 0 67 8l-57 -223q-51 -14 -113 -14q-158 0 -231.5 61.5t-73.5 198.5q0 61 23 151l106 430h-168l53 213h168l68 271h287l-68 -271h199l-54 -213h-198l-109 -436q-10 -47 -10 -88zM672 1096l143 362h227l-208 -362h-162z" />
    <glyph glyph-name="Tbar" unicode="&#x166;" horiz-adv-x="1259" 
d="M856 819h274l-53 -217h-276l-150 -602h-301l150 602h-277l53 217h279l94 381h-459l64 258h1219l-64 -258h-459z" />
    <glyph glyph-name="tbar" unicode="&#x167;" horiz-adv-x="731" 
d="M428 303q0 -88 111 -88q31 0 67 8l-57 -223q-51 -14 -113 -14q-158 0 -230.5 61.5t-72.5 198.5q0 61 23 151l16 64h-164l41 170h164l49 196h-170l53 213h170l68 271h285l-68 -271h199l-54 -213h-198l-49 -196h192l-41 -170h-194l-17 -70q-10 -47 -10 -88z" />
    <glyph glyph-name="Utilde" unicode="&#x168;" horiz-adv-x="1470" 
d="M457 461q0 -228 227 -228q127 0 213 80t123 230l227 915h301l-245 -987q-62 -244 -229 -374t-412 -130t-374.5 123t-129.5 352q0 92 26 199l205 817h301l-215 -866q-18 -74 -18 -131zM1153 1761q85 0 121 94h160q-37 -129 -114 -202.5t-167 -73.5t-165 47q-76 47 -114 47
q-85 0 -116 -94h-164q35 129 112.5 202.5t170.5 73.5t176 -55q33 -20 53 -29.5t47 -9.5z" />
    <glyph glyph-name="utilde" unicode="&#x169;" 
d="M413.5 -25q-161.5 0 -244.5 79t-83 229q0 70 20 149l152 608h287l-150 -602q-14 -57 -14 -106q0 -131 137 -131q92 0 166 72.5t109 209.5l139 557h287l-261 -1040h-268l29 115h-4q-140 -140 -301.5 -140zM1099 1255.5q-77 -73.5 -169.5 -73.5t-171.5 55q-64 39 -103 39
q-85 0 -116 -94h-164q35 129 112.5 202.5t170 73.5t173.5 -55q64 -39 101 -39q85 0 121 94h159q-36 -129 -113 -202.5z" />
    <glyph glyph-name="Umacron" unicode="&#x16a;" horiz-adv-x="1470" 
d="M457 461q0 -228 227 -228q127 0 213 80t123 230l227 915h301l-245 -987q-62 -244 -229 -374t-412 -130t-374.5 123t-129.5 352q0 92 26 199l205 817h301l-215 -866q-18 -74 -18 -131zM649 1593l45 187h668l-45 -187h-668z" />
    <glyph glyph-name="umacron" unicode="&#x16b;" 
d="M413.5 -25q-161.5 0 -244.5 79t-83 229q0 70 20 149l152 608h287l-150 -602q-14 -57 -14 -106q0 -131 137 -131q92 0 166 72.5t109 209.5l139 557h287l-261 -1040h-268l29 115h-4q-140 -140 -301.5 -140zM436 1225l45 186h668l-45 -186h-668z" />
    <glyph glyph-name="Ubreve" unicode="&#x16c;" horiz-adv-x="1470" 
d="M457 461q0 -228 227 -228q127 0 213 80t123 230l227 915h301l-245 -987q-62 -244 -229 -374t-412 -130t-374.5 123t-129.5 352q0 92 26 199l205 817h301l-215 -866q-18 -74 -18 -131zM991.5 1546q-149.5 0 -227.5 66.5t-78 185.5q0 16 4 57h170q-2 -10 -2 -26
q0 -49 36 -77t105.5 -28t120.5 35t68 96h219q-41 -147 -153.5 -228t-262 -81z" />
    <glyph glyph-name="ubreve" unicode="&#x16d;" 
d="M413.5 -25q-161.5 0 -244.5 79t-83 229q0 70 20 149l152 608h287l-150 -602q-14 -57 -14 -106q0 -131 137 -131q92 0 166 72.5t109 209.5l139 557h287l-261 -1040h-268l29 115h-4q-140 -140 -301.5 -140zM770.5 1149q-149.5 0 -227.5 66.5t-78 185.5q0 16 4 57h170
q-2 -10 -2 -26q0 -49 36 -77t105.5 -28t120.5 35t68 96h219q-41 -147 -153.5 -228t-262 -81z" />
    <glyph glyph-name="Uring" unicode="&#x16e;" horiz-adv-x="1470" 
d="M457 461q0 -228 227 -228q127 0 213 80t123 230l227 915h301l-245 -987q-62 -244 -229 -374t-412 -130t-374.5 123t-129.5 352q0 92 26 199l205 817h301l-215 -866q-18 -74 -18 -131zM891 1758q0 -46 32.5 -78.5t78.5 -32.5t78 32.5t32 78.5t-31.5 78t-78 32t-79 -32
t-32.5 -78zM1223 1757q0 -92 -64.5 -156.5t-157 -64.5t-157 64.5t-64.5 156.5t64.5 156.5t157 64.5t157 -64.5t64.5 -156.5z" />
    <glyph glyph-name="uring" unicode="&#x16f;" 
d="M413.5 -25q-161.5 0 -244.5 79t-83 229q0 70 20 149l152 608h287l-150 -602q-14 -57 -14 -106q0 -131 137 -131q92 0 166 72.5t109 209.5l139 557h287l-261 -1040h-268l29 115h-4q-140 -140 -301.5 -140zM672 1361q0 -46 32.5 -79t78.5 -33t78 33t32 79t-32 77.5
t-78 31.5t-78.5 -31.5t-32.5 -77.5zM1004 1360q0 -92 -65 -156.5t-157 -64.5t-156.5 64.5t-64.5 156.5t64.5 156.5t156.5 64.5t157 -64.5t65 -156.5z" />
    <glyph glyph-name="Uhungarumlaut" unicode="&#x170;" horiz-adv-x="1470" 
d="M457 461q0 -228 227 -228q127 0 213 80t123 230l227 915h301l-245 -987q-62 -244 -229 -374t-412 -130t-374.5 123t-129.5 352q0 92 26 199l205 817h301l-215 -866q-18 -74 -18 -131zM967 1556l262 299h325l-350 -299h-237zM578 1556l262 299h325l-350 -299h-237z" />
    <glyph glyph-name="uhungarumlaut" unicode="&#x171;" 
d="M413.5 -25q-161.5 0 -244.5 79t-83 229q0 70 20 149l152 608h287l-150 -602q-14 -57 -14 -106q0 -131 137 -131q92 0 166 72.5t109 209.5l139 557h287l-261 -1040h-268l29 115h-4q-140 -140 -301.5 -140zM788 1159l261 299h325l-348 -299h-238zM399 1159l260 299h326
l-348 -299h-238z" />
    <glyph glyph-name="Uogonek" unicode="&#x172;" horiz-adv-x="1470" 
d="M457 461q0 -228 227 -228q127 0 213 80t123 230l227 915h301l-245 -987q-66 -266 -265 -403q-156 -106 -208 -162t-52 -107q0 -43 50 -43t83 13l-39 -154q-66 -18 -156 -18t-143 39.5t-53 113.5q0 115 156 213v4h-17q-248 0 -374.5 121t-126.5 354q0 92 26 199l205 817
h301l-215 -866q-18 -74 -18 -131z" />
    <glyph glyph-name="uogonek" unicode="&#x173;" 
d="M413 -25q-162 0 -244.5 79t-82.5 229q0 70 20 149l152 608h287l-150 -602q-14 -57 -14 -106q0 -131 137 -131q92 0 166 72.5t109 209.5l139 557h287l-261 -1040q-106 -63 -146 -109.5t-40 -90.5t50 -44t83 13l-39 -154q-66 -18 -155.5 -18t-143 39.5t-53.5 113.5
q0 135 219 250h-43l29 115h-4q-140 -140 -302 -140z" />
    <glyph glyph-name="Wcircumflex" unicode="&#x174;" horiz-adv-x="1957" 
d="M1114 0l8 578q2 297 29 624h-4q-115 -279 -283 -624l-278 -578h-391l57 1458h280l-26 -530q-14 -293 -51 -631h4q111 258 291 631l258 530h381l-5 -530q-4 -322 -24 -631h4q98 256 264 631l236 530h309l-668 -1458h-391zM1450 1855l158 -299h-234l-86 156l-162 -156h-290
l309 299h305z" />
    <glyph glyph-name="wcircumflex" unicode="&#x175;" horiz-adv-x="1658" 
d="M881 0l10 410q6 223 18 444h-4q-90 -236 -190 -444l-195 -410h-409l28 1040h273l-23 -401q-16 -309 -31 -453h4q92 231 195 449l193 405h393l-8 -405q-2 -223 -19 -449h4q84 233 183 453l178 401h297l-488 -1040h-409zM1120 1159l-86 156l-162 -156h-282l307 299h305
l160 -299h-242z" />
    <glyph glyph-name="Ycircumflex" unicode="&#x176;" horiz-adv-x="1306" 
d="M674 0h-301l141 567l-276 891h305l71 -274q45 -176 80 -371h4q117 184 260 371l207 274h369l-719 -891zM1085 1855l158 -299h-233l-86 156l-162 -156h-291l309 299h305z" />
    <glyph glyph-name="ycircumflex" unicode="&#x177;" horiz-adv-x="1032" 
d="M-22.5 -391q-106.5 0 -172.5 16l58 230q43 -16 106 -17q109 0 174.5 64.5t65.5 160.5q0 35 -10 132l-84 845h282l25 -348q16 -240 14 -436h4q117 250 222 436l194 348h320l-633 -1046q-90 -148 -176 -230.5t-184.5 -118.5t-205 -36zM778 1159l-86 156l-162 -156h-282
l307 299h305l160 -299h-242z" />
    <glyph glyph-name="Ydieresis" unicode="&#x178;" horiz-adv-x="1306" 
d="M674 0h-301l141 567l-276 891h305l71 -274q45 -176 80 -371h4q117 184 260 371l207 274h369l-719 -891zM958 1575l62 246h252l-62 -246h-252zM514 1575l61 246h252l-61 -246h-252z" />
    <glyph glyph-name="Zacute" unicode="&#x179;" horiz-adv-x="1191" 
d="M346 254h739l-63 -254h-1110l70 281l933 919v4h-671l63 254h1043l-70 -280l-934 -920v-4zM659 1556l222 299h366l-350 -299h-238z" />
    <glyph glyph-name="zacute" unicode="&#x17a;" horiz-adv-x="991" 
d="M346 225h514l-55 -225h-877l62 246l637 565v4h-475l57 225h835l-61 -245l-637 -566v-4zM446 1159l220 299h366l-348 -299h-238z" />
    <glyph glyph-name="Zdotaccent" unicode="&#x17b;" horiz-adv-x="1191" 
d="M346 254h739l-63 -254h-1110l70 281l933 919v4h-671l63 254h1043l-70 -280l-934 -920v-4zM694 1575l62 246h286l-61 -246h-287z" />
    <glyph glyph-name="zdotaccent" unicode="&#x17c;" horiz-adv-x="991" 
d="M346 225h514l-55 -225h-877l62 246l637 565v4h-475l57 225h835l-61 -245l-637 -566v-4zM489 1212l62 246h287l-62 -246h-287z" />
    <glyph glyph-name="Zcaron" unicode="&#x17d;" horiz-adv-x="1191" 
d="M346 254h739l-63 -254h-1110l70 281l933 919v4h-671l63 254h1043l-70 -280l-934 -920v-4zM680 1556l-158 299h234l86 -155l162 155h290l-309 -299h-305z" />
    <glyph glyph-name="zcaron" unicode="&#x17e;" horiz-adv-x="991" 
d="M346 225h514l-55 -225h-877l62 246l637 565v4h-475l57 225h835l-61 -245l-637 -566v-4zM467 1159l-160 299h242l86 -155l162 155h282l-307 -299h-305z" />
    <glyph glyph-name="longs" unicode="&#x17f;" horiz-adv-x="698" 
d="M911 1454l-49 -199q-18 6 -47 7q-80 0 -127 -41t-72 -138l-270 -1083h-283l207 827h-174l54 213h174l28 119q78 316 410 316q79 -1 149 -21z" />
    <glyph glyph-name="Schwa" unicode="&#x18f;" horiz-adv-x="1562" 
d="M424 512q0 -135 85 -207t224 -72t254 91.5t170 257.5h-729q-4 -49 -4 -70zM1552 905q0 -215 -100 -432t-294.5 -361.5t-473.5 -144.5t-428.5 153.5t-149.5 416.5q0 174 50 294h1063q6 47 6 89q0 160 -86 235.5t-215 75.5t-225.5 -60.5t-135.5 -156.5h-348
q55 131 162.5 239.5t258 173t327.5 64.5q286 0 437.5 -154.5t151.5 -431.5z" />
    <glyph glyph-name="florin" unicode="&#x192;" 
d="M1258 1253q-68 0 -125.5 -42t-110.5 -146l-53 -107h217l-53 -213h-269l-368 -733q-109 -219 -231 -311t-304 -92q-88 0 -141 18l55 217q41 -10 105 -10t115.5 41t111.5 160l356 710h-198l53 213h250l65 129q102 207 226 300.5t294 93.5q98 0 166 -23l-53 -215
q-40 10 -108 10z" />
    <glyph glyph-name="Aringacute" unicode="&#x1fa;" horiz-adv-x="1429" 
d="M950 711q-20 328 -26 569h-4q-143 -287 -304 -569l-55 -97h395zM416 356l-203 -356h-336l868 1458h406l143 -1458h-295l-24 356h-559zM858 1723q0 -46 33 -78.5t79 -32.5t77.5 32.5t31.5 78.5t-31.5 78t-77.5 32t-79 -32t-33 -78zM1190 1722.5q0 -92.5 -64.5 -157
t-156.5 -64.5t-156.5 64.5t-64.5 157t64.5 157t156.5 64.5t156.5 -64.5t64.5 -157zM819 1987l221 299h367l-350 -299h-238z" />
    <glyph glyph-name="aringacute" unicode="&#x1fb;" horiz-adv-x="1120" 
d="M291 291q0 -51 33.5 -81t97.5 -30q211 0 268 232l17 65q-121 -8 -215 -22q-201 -33 -201 -164zM766 743q0 129 -148 129q-76 0 -127 -42t-67 -115h-279q35 156 164 257t328 101q399 1 399 -323q0 -63 -18 -138l-82 -327q-45 -184 -43 -285h-250q0 63 16 121h-4
q-147 -145 -350 -146q-150 0 -230.5 75t-80.5 205t107.5 229.5t365.5 138.5q145 20 283 28l6 25q10 41 10 67zM600 1338q0 -46 33 -78.5t79 -32.5t77.5 32.5t31.5 78.5t-31.5 78t-77.5 32t-79 -32t-33 -78zM932 1337.5q0 -92.5 -64.5 -157t-157 -64.5t-157 64.5t-64.5 157
t64.5 157t157 64.5t157 -64.5t64.5 -157zM561 1602l219 299h367l-348 -299h-238z" />
    <glyph glyph-name="AEacute" unicode="&#x1fc;" horiz-adv-x="1976" 
d="M1038 1219l-407 -598h373l63 598h-29zM1311 870h585l-65 -256h-549l-37 -356h563l-63 -258h-805l39 367h-520l-250 -367h-350l1042 1458h1188l-64 -258h-679zM1145 1556l221 299h367l-351 -299h-237z" />
    <glyph glyph-name="aeacute" unicode="&#x1fd;" horiz-adv-x="1800" 
d="M287 291q-1 -119 165 -119q92 0 160 63.5t101 192.5l8 33h-150q-285 0 -284 -170zM1291 870q-83 0 -150.5 -57t-106.5 -172h434q4 33 5 45q0 92 -49.5 138t-132.5 46zM379 -33q-184 0 -283.5 80t-99.5 213q0 94 55 178t185.5 138.5t345.5 54.5h180l8 33q10 45 10 69
q0 74 -40 106.5t-118.5 32.5t-131 -42t-68.5 -115h-279q33 156 163 257t325 101q244 0 336 -127q147 127 349 127t312.5 -113.5t110.5 -310.5q0 -82 -25 -188h-725q-8 -43 -8 -88q0 -104 49 -153.5t126 -49.5t134.5 41t79.5 104h293q-61 -150 -201.5 -249t-318.5 -99
q-252 0 -357 189q-157 -189 -407 -189zM877 1159l219 299h366l-348 -299h-237z" />
    <glyph glyph-name="Oslashacute" unicode="&#x1fe;" horiz-adv-x="1531" 
d="M736.5 217q144.5 0 256 101.5t170 253t58.5 296.5q-1 72 -17 138l-696 -699q84 -90 228.5 -90zM899.5 1241q-146.5 0 -258 -100.5t-168.5 -252t-57 -296.5q0 -71 16 -141l696 698q-82 92 -228.5 92zM1511 867q0 -214 -92 -421.5t-271 -343t-433 -135.5t-408 142
l-137 -140l-109 109l150 149q-86 147 -86 362.5t91 424.5t270.5 343t432.5 134t410 -141l139 139l109 -109l-152 -151q86 -148 86 -362zM850 1556l221 299h367l-351 -299h-237z" />
    <glyph glyph-name="oslashacute" unicode="&#x1ff;" horiz-adv-x="1208" 
d="M860 585.5q0 63.5 -6 94.5l-446 -447q51 -55 147 -55t166 70.5t104.5 172t34.5 165zM346 428q0 -23 4 -63l445 444q-49 53 -144.5 53t-165 -70.5t-104.5 -172t-35 -191.5zM1141 623q0 -159 -72 -308t-212 -248.5t-327.5 -99.5t-302.5 86l-125 -125l-94 95l129 129
q-70 106 -69.5 263.5t72 308t210.5 250t324.5 99.5t302.5 -82l123 123l94 -94l-125 -125q72 -113 72 -272zM590 1159l219 299h367l-349 -299h-237z" />
    <glyph glyph-name="Scommaaccent" unicode="&#x218;" horiz-adv-x="1290" 
d="M993 1071q0 180 -221 180q-102 0 -172 -50t-70 -123t59.5 -114.5t197 -87t217.5 -90.5q184 -103 184 -337q0 -115 -72 -226.5t-212 -183.5t-333 -72q-256 0 -397 102.5t-141 295.5q0 57 14 114h311q-8 -35 -8 -73q0 -195 256 -195q86 0 145.5 29.5t88 73.5t28.5 95
t-26.5 86t-74.5 59t-164.5 64.5t-197.5 83.5q-190 101 -190 330q0 109 69.5 215.5t205 175t319.5 68.5q500 0 500 -371q0 -47 -17 -108h-305q6 31 6 59zM391 -553h-115l148 219h-92l53 213h254l-53 -213z" />
    <glyph glyph-name="scommaaccent" unicode="&#x219;" horiz-adv-x="1073" 
d="M311 293q0 -119 160 -119q78 0 121 31t43 83t-44 80q-43 29 -147 65q-104 35 -158 63q-128 66 -128 237q0 86 53 164t158.5 127t275.5 49t271.5 -72.5t101.5 -214.5q0 -31 -6 -65h-273q4 29 4 43q0 109 -143 108q-78 0 -114.5 -30.5t-36.5 -72.5t38.5 -68.5t143 -62.5
t165 -66.5t102.5 -91t42 -154.5t-55.5 -176t-167 -132.5t-294 -50.5t-294 75t-111.5 222q0 41 11 74h288q-6 -25 -6 -45zM274 -553h-114l147 219h-92l53 213h254l-53 -213z" />
    <glyph glyph-name="uni021A" unicode="&#x21a;" horiz-adv-x="1259" 
d="M950 1200l-299 -1200h-301l299 1200h-459l64 258h1219l-64 -258h-459zM360 -553h-114l147 219h-92l53 213h254l-53 -213z" />
    <glyph glyph-name="uni021B" unicode="&#x21b;" horiz-adv-x="731" 
d="M428 303q0 -88 111 -88q31 0 67 8l-57 -223q-51 -14 -113 -14q-158 0 -231.5 61.5t-73.5 198.5q0 61 23 151l106 430h-168l53 213h168l68 271h287l-68 -271h199l-54 -213h-198l-109 -436q-10 -47 -10 -88zM147 -553h-114l147 219h-92l53 213h254l-53 -213z" />
    <glyph glyph-name="dotlessj" unicode="&#x237;" horiz-adv-x="569" 
d="M-135 -389q-88 0 -154 18l51 205q23 -6 48 -6q84 0 134 46t79 163l249 1003h287l-272 -1095q-43 -172 -155 -253t-267 -81z" />
    <glyph glyph-name="schwa" unicode="&#x259;" horiz-adv-x="1173" 
d="M328 354q0 -92 52 -138t139 -46t158 60.5t111 179.5h-456q-4 -41 -4 -56zM1110 633q0 -152 -70.5 -306.5t-209 -257t-340.5 -102.5t-315.5 114t-113.5 310q0 109 31 199h742q6 43 6 78q0 104 -52.5 153t-132.5 49t-139 -37.5t-84 -97.5h-293q63 145 205.5 241.5
t341.5 96.5t311.5 -116.5t112.5 -323.5z" />
    <glyph glyph-name="uni02BC" unicode="&#x2bc;" horiz-adv-x="522" 
d="M354 868h-145l172 299h-90l71 291h269l-72 -291z" />
    <glyph glyph-name="circumflex" unicode="&#x2c6;" horiz-adv-x="978" 
d="M793 1159l-86 156l-162 -156h-283l307 299h305l160 -299h-241z" />
    <glyph glyph-name="caron" unicode="&#x2c7;" horiz-adv-x="978" 
d="M498 1159l-160 299h242l86 -155l161 155h283l-307 -299h-305z" />
    <glyph glyph-name="uni02C9" unicode="&#x2c9;" horiz-adv-x="874" 
d="M281 1225l45 186h667l-45 -186h-667z" />
    <glyph glyph-name="breve" unicode="&#x2d8;" horiz-adv-x="921" 
d="M637 1149q-149 0 -227 66.5t-78 185.5q0 16 4 57h170q-2 -10 -2 -26q0 -49 35.5 -77t105.5 -28t121 35t68 96h219q-41 -147 -154 -228t-262 -81z" />
    <glyph glyph-name="dotaccent" unicode="&#x2d9;" horiz-adv-x="493" 
d="M276 1212l62 246h287l-62 -246h-287z" />
    <glyph glyph-name="ring" unicode="&#x2da;" horiz-adv-x="661" 
d="M430 1361q0 -46 33 -79t79 -33t77.5 33t31.5 79t-31.5 77.5t-77.5 31.5t-79 -31.5t-33 -77.5zM762 1360q0 -92 -64.5 -156.5t-156.5 -64.5t-157 64.5t-65 156.5t65 156.5t157 64.5t156.5 -64.5t64.5 -156.5z" />
    <glyph glyph-name="ogonek" unicode="&#x2db;" horiz-adv-x="598" 
d="M-84 -250q0 135 219 250h225q-106 -63 -146 -109.5t-40 -90.5t50 -44t83 13l-39 -154q-66 -18 -156 -18t-143 39.5t-53 113.5z" />
    <glyph glyph-name="tilde" unicode="&#x2dc;" horiz-adv-x="974" 
d="M825 1364q86 0 121 94h160q-37 -129 -114 -202.5t-169 -73.5t-172 55q-64 39 -102 39q-84 0 -117 -94h-164q35 129 113 202.5t169 73.5t175 -55q64 -39 100 -39z" />
    <glyph glyph-name="hungarumlaut" unicode="&#x2dd;" horiz-adv-x="1105" 
d="M651 1159l260 299h326l-348 -299h-238zM262 1159l260 299h326l-348 -299h-238z" />
    <glyph glyph-name="uni0312" unicode="&#x312;" horiz-adv-x="0" 
d="M575 1395l-51 -213h-254l52 213l194 219h115l-148 -219h92z" />
    <glyph glyph-name="commaaccent" unicode="&#x326;" horiz-adv-x="0" 
d="M-51 -553h-115l148 219h-93l54 213h254l-54 -213z" />
    <glyph glyph-name="uni0333" unicode="&#x333;" horiz-adv-x="0" 
d="M-1290 -545l37 146h1024l-37 -146h-1024zM-1217 -248l37 146h1024l-37 -146h-1024z" />
    <glyph glyph-name="numeralsigngreek" unicode="&#x374;" horiz-adv-x="440" 
d="M190 1040l166 418h256l-241 -418h-181z" />
    <glyph glyph-name="numeralsignlowergreek" unicode="&#x375;" horiz-adv-x="440" 
d="M-117 -188l166 417h256l-242 -417h-180z" />
    <glyph glyph-name="questiongreek" unicode="&#x37e;" horiz-adv-x="528" 
d="M53 -352h-172l201 352h-105l84 342h316l-84 -342zM152 698l84 342h315l-84 -342h-315z" />
    <glyph glyph-name="tonos" unicode="&#x384;" horiz-adv-x="559" 
d="M264 1163l156 336h280l-223 -336h-213z" />
    <glyph glyph-name="dieresistonos" unicode="&#x385;" horiz-adv-x="1107" 
d="M940 1188l59 239h232l-60 -239h-231zM270 1188l60 239h231l-59 -239h-232zM571 1163l148 320h237l-190 -320h-195z" />
    <glyph glyph-name="Alphatonos" unicode="&#x386;" horiz-adv-x="1429" 
d="M950 711q-20 328 -26 569h-4q-143 -287 -304 -569l-55 -97h395zM416 356l-203 -356h-336l868 1458h406l143 -1458h-295l-24 356h-559zM135 1040l176 418h281l-244 -418h-213z" />
    <glyph glyph-name="anoteleia" unicode="&#x387;" horiz-adv-x="528" 
d="M152 698l84 342h315l-84 -342h-315z" />
    <glyph glyph-name="Epsilontonos" unicode="&#x388;" horiz-adv-x="1296" 
d="M639 1200l-82 -330h660l-66 -256h-659l-89 -356h725l-63 -258h-1026l362 1458h1008l-63 -258h-707zM-143 1040l176 418h280l-243 -418h-213z" />
    <glyph glyph-name="Etatonos" unicode="&#x389;" horiz-adv-x="1536" 
d="M938 0l156 629h-598l-156 -629h-301l362 1458h301l-141 -571h598l141 571h302l-363 -1458h-301zM-143 1040l176 418h280l-243 -418h-213z" />
    <glyph glyph-name="Iotatonos" unicode="&#x38a;" horiz-adv-x="636" 
d="M39 0l362 1458h301l-362 -1458h-301zM-143 1040l176 418h280l-243 -418h-213z" />
    <glyph glyph-name="Omicrontonos" unicode="&#x38c;" horiz-adv-x="1531" 
d="M428 579.5q0 -155.5 79 -251t225.5 -95.5t255 98.5t164.5 246t56 302t-78.5 250t-226 95.5t-256 -97.5t-164 -245t-55.5 -303zM1511 856q0 -203 -92 -410.5t-271 -343t-445.5 -135.5t-422 167t-155.5 456q0 215 91 424t270.5 343t431.5 134q186 0 320 -76t203.5 -216
t69.5 -343zM-55 1040l176 418h280l-243 -418h-213z" />
    <glyph glyph-name="Upsilontonos" unicode="&#x38e;" horiz-adv-x="1306" 
d="M674 0h-301l141 567l-276 891h305l71 -274q45 -176 80 -371h4q117 184 260 371l207 274h369l-719 -891zM-262 1040l176 418h281l-244 -418h-213z" />
    <glyph glyph-name="Omegatonos" unicode="&#x38f;" horiz-adv-x="1503" 
d="M145 733q0 182 90.5 356.5t268.5 288t435 113.5t407.5 -126t150.5 -354.5t-106.5 -405.5t-319.5 -347v-4h303l-63 -254h-602l65 266q395 308 395 652q0 150 -74.5 228.5t-209.5 78.5t-237.5 -83t-156 -210t-53.5 -250t34 -220t97 -196l-65 -266h-570l64 254h311v4
q-164 238 -164 475zM-74 1040l176 418h281l-244 -418h-213z" />
    <glyph glyph-name="iotadieresistonos" unicode="&#x390;" horiz-adv-x="647" 
d="M375 313q0 -98 112 -98q31 0 64 8l-57 -225q-49 -12 -121 -12q-152 0 -223.5 61.5t-71.5 196.5q0 68 26 178l154 618h287l-150 -600q-20 -78 -20 -127zM657 1188l60 239h231l-59 -239h-232zM-12 1188l59 239h232l-60 -239h-231zM289 1163l147 320h238l-191 -320h-194z
" />
    <glyph glyph-name="Alpha" unicode="&#x391;" horiz-adv-x="1429" 
d="M950 711q-20 328 -26 569h-4q-143 -287 -304 -569l-55 -97h395zM416 356l-203 -356h-336l868 1458h406l143 -1458h-295l-24 356h-559z" />
    <glyph glyph-name="Beta" unicode="&#x392;" horiz-adv-x="1331" 
d="M645 248q158 0 221 59q64 59 64 151t-52 127q-52 36 -169 36h-215l-93 -373h244zM786 858q152 0 214 57t62 141t-51 121q-52 36 -163 35h-207l-88 -354h233zM1366 1145q0 -141 -80 -250t-264 -160v-4q111 -27 159 -95t48 -180q1 -112 -63 -217t-195 -172t-322 -67h-610
l362 1458h484q241 0 361 -86t120 -227z" />
    <glyph glyph-name="Gamma" unicode="&#x393;" horiz-adv-x="1040" 
d="M401 1458h852l-63 -258h-551l-299 -1200h-301z" />
    <glyph glyph-name="uni0394" unicode="&#x394;" horiz-adv-x="1429" 
d="M952 711q-20 309 -28 569h-4q-133 -272 -302 -569l-256 -453h623zM-123 0l873 1458h405l139 -1458h-1417z" />
    <glyph glyph-name="Epsilon" unicode="&#x395;" horiz-adv-x="1296" 
d="M639 1200l-82 -330h660l-66 -256h-659l-89 -356h725l-63 -258h-1026l362 1458h1008l-63 -258h-707z" />
    <glyph glyph-name="Zeta" unicode="&#x396;" horiz-adv-x="1191" 
d="M346 254h739l-63 -254h-1110l70 281l933 919v4h-671l63 254h1043l-70 -280l-934 -920v-4z" />
    <glyph glyph-name="Eta" unicode="&#x397;" horiz-adv-x="1536" 
d="M938 0l156 629h-598l-156 -629h-301l362 1458h301l-141 -571h598l141 571h302l-363 -1458h-301z" />
    <glyph glyph-name="Theta" unicode="&#x398;" horiz-adv-x="1531" 
d="M516 614l59 232h545l-59 -232h-545zM416 578q0 -158 82 -257.5t234 -99.5t263 100.5t168.5 250.5t57.5 308t-82.5 257.5t-234.5 99.5t-263 -100.5t-168 -250.5t-57 -308zM1516 868q0 -202 -93.5 -414t-277.5 -349.5t-450 -137.5t-420 163t-154 443q0 219 93 431.5
t276.5 349.5t439.5 137q184 0 316 -75t201 -210.5t69 -337.5z" />
    <glyph glyph-name="Iota" unicode="&#x399;" horiz-adv-x="636" 
d="M39 0l362 1458h301l-362 -1458h-301z" />
    <glyph glyph-name="Kappa" unicode="&#x39a;" horiz-adv-x="1357" 
d="M1221 0h-351l-350 713h-4l-176 -713h-301l362 1458h301l-153 -616h4l598 616h385l-731 -706z" />
    <glyph glyph-name="Lambda" unicode="&#x39b;" horiz-adv-x="1400" 
d="M963 0l-39 700q-18 326 -21 564h-4q-139 -295 -287 -564l-387 -700h-348l852 1458h410l127 -1458h-303z" />
    <glyph glyph-name="Mu" unicode="&#x39c;" horiz-adv-x="2015" 
d="M1430 0l180 725q72 291 149 547h-4q-147 -285 -291 -537l-413 -735h-344l-50 735q-18 307 -20 537h-4q-66 -303 -125 -547l-180 -725h-289l362 1458h465l45 -670q18 -324 17 -536h4q131 291 270 536l377 670h502l-363 -1458h-288z" />
    <glyph glyph-name="Nu" unicode="&#x39d;" horiz-adv-x="1589" 
d="M889 0l-148 592q-78 317 -135 602h-4q-68 -362 -135 -633l-139 -561h-289l362 1458h404l147 -592q55 -229 135 -602h5q55 315 135 633l139 561h289l-363 -1458h-403z" />
    <glyph glyph-name="Xi" unicode="&#x39e;" horiz-adv-x="1382" 
d="M-27 0l74 301h1178l-74 -301h-1178zM182 584l74 301h1051l-74 -301h-1051zM291 1157l74 301h1120l-74 -301h-1120z" />
    <glyph glyph-name="Omicron" unicode="&#x39f;" horiz-adv-x="1531" 
d="M428 579.5q0 -155.5 79 -251t225.5 -95.5t255 98.5t164.5 246t56 302t-78.5 250t-226 95.5t-256 -97.5t-164 -245t-55.5 -303zM1511 856q0 -203 -92 -410.5t-271 -343t-445.5 -135.5t-422 167t-155.5 456q0 215 91 424t270.5 343t431.5 134q186 0 320 -76t203.5 -216
t69.5 -343z" />
    <glyph glyph-name="Pi" unicode="&#x3a0;" horiz-adv-x="1513" 
d="M918 0l299 1200h-578l-299 -1200h-301l362 1458h1178l-362 -1458h-299z" />
    <glyph glyph-name="Rho" unicode="&#x3a1;" horiz-adv-x="1302" 
d="M780 766q143 0 211 72t68 168q0 203 -230 202h-188l-111 -442h250zM1366 1032q0 -124 -62 -242t-194 -196t-330 -78h-311l-129 -516h-301l362 1458h449q258 1 387 -111t129 -315z" />
    <glyph glyph-name="Sigma" unicode="&#x3a3;" horiz-adv-x="1198" 
d="M586 1204v-4l241 -483l-471 -459v-4h736l-64 -254h-1110l72 289l489 477l-233 463l57 229h1059l-64 -254h-712z" />
    <glyph glyph-name="Tau" unicode="&#x3a4;" horiz-adv-x="1259" 
d="M950 1200l-299 -1200h-301l299 1200h-459l64 258h1219l-64 -258h-459z" />
    <glyph glyph-name="Upsilon" unicode="&#x3a5;" horiz-adv-x="1306" 
d="M674 0h-301l141 567l-276 891h305l71 -274q45 -176 80 -371h4q117 184 260 371l207 274h369l-719 -891z" />
    <glyph glyph-name="Phi" unicode="&#x3a6;" horiz-adv-x="1708" 
d="M1372 810q0 116 -57.5 199t-165.5 109l-195 -776q140 12 234 83t139 170t45 215zM436 660q0 -116 58.5 -199.5t173.5 -110.5l194 778q-143 -10 -238.5 -80.5t-141.5 -171t-46 -216.5zM133 657q0 174 85 340t263 273.5t443 107.5l37 142h288l-39 -152q229 -35 350 -177
t121 -378q0 -180 -85 -345t-263 -270.5t-440 -105.5l-39 -153h-289l41 163q-231 33 -352 175.5t-121 379.5z" />
    <glyph glyph-name="Chi" unicode="&#x3a7;" horiz-adv-x="1290" 
d="M1155 0h-319l-170 502h-4l-404 -502h-381l653 756l-268 702h313l158 -489h4l383 489h375l-625 -731z" />
    <glyph glyph-name="Psi" unicode="&#x3a8;" horiz-adv-x="1722" 
d="M178 805q0 106 33 235l104 418h301l-106 -426q-25 -102 -25 -176q0 -121 58.5 -183.5t185.5 -76.5l215 862h301l-215 -866q180 10 275.5 95t142.5 271l125 500h301l-137 -549q-78 -291 -262.5 -430t-509.5 -147l-82 -332h-301l84 340q-248 27 -368 139.5t-120 325.5z" />
    <glyph glyph-name="uni03A9" unicode="&#x3a9;" horiz-adv-x="1503" 
d="M145 733q0 182 90.5 356.5t268.5 288t435 113.5t407.5 -126t150.5 -354.5t-106.5 -405.5t-319.5 -347v-4h303l-63 -254h-602l65 266q395 308 395 652q0 150 -74.5 228.5t-209.5 78.5t-237.5 -83t-156 -210t-53.5 -250t34 -220t97 -196l-65 -266h-570l64 254h311v4
q-164 238 -164 475z" />
    <glyph glyph-name="Iotadieresis" unicode="&#x3aa;" horiz-adv-x="636" 
d="M39 0l362 1458h301l-362 -1458h-301zM692 1630l62 246h252l-62 -246h-252zM248 1630l61 246h252l-61 -246h-252z" />
    <glyph glyph-name="Upsilondieresis" unicode="&#x3ab;" horiz-adv-x="1306" 
d="M674 0h-301l141 567l-276 891h305l71 -274q45 -176 80 -371h4q117 184 260 371l207 274h369l-719 -891zM958 1575l62 246h252l-62 -246h-252zM514 1575l61 246h252l-61 -246h-252z" />
    <glyph glyph-name="alphatonos" unicode="&#x3ac;" horiz-adv-x="1255" 
d="M362 415.5q0 -102.5 44.5 -162.5t129 -60t150.5 66.5t100.5 164.5t34.5 200.5t-44 163t-129 60.5t-150.5 -66.5t-100.5 -165t-35 -201zM59 360.5q0 172.5 68 333t196 267t300 106.5q98 0 172.5 -48t101.5 -136h4q20 76 55 157h279q-63 -158 -113 -368l-80 -328
q-12 -45 -12 -74q0 -63 68 -63q25 0 51 6l-53 -211q-70 -18 -158 -18q-182 0 -211 137h-4q-136 -148 -305.5 -148t-264 107.5t-94.5 280zM618 1163l156 336h281l-224 -336h-213z" />
    <glyph glyph-name="epsilontonos" unicode="&#x3ad;" horiz-adv-x="1060" 
d="M739 731q0 131 -141 131q-78 0 -121 -39t-43 -90t40 -79.5t114 -28.5h90l-51 -207h-115q-104 0 -157.5 -38t-53.5 -90t41 -82t113 -30q172 0 209 156h286q-43 -180 -177 -273.5t-336.5 -93.5t-311.5 76t-109 211q0 102 67 181t210 118v4q-133 61 -133 178q0 82 52 160
t159.5 128t278.5 50t273.5 -83t102.5 -236q0 -35 -4 -56h-285q2 12 2 33zM565 1163l156 336h280l-223 -336h-213z" />
    <glyph glyph-name="etatonos" unicode="&#x3ae;" horiz-adv-x="1261" 
d="M854 1065q154 0 238 -79t84 -228q0 -70 -21 -150l-246 -987h-286l243 981q14 57 15 107q0 131 -138 131q-92 0 -165.5 -73t-108.5 -210l-139 -557h-287l172 690q12 53 12 84q0 68 -65 68q-29 0 -53 -6l51 204q70 16 129 17q190 0 203 -168h4q159 176 358 176zM608 1163
l156 336h280l-223 -336h-213z" />
    <glyph glyph-name="iotatonos" unicode="&#x3af;" horiz-adv-x="647" 
d="M375 313q0 -98 112 -98q31 0 64 8l-57 -225q-49 -12 -121 -12q-152 0 -223.5 61.5t-71.5 196.5q0 68 26 178l154 618h287l-150 -600q-20 -78 -20 -127zM324 1163l155 336h281l-223 -336h-213z" />
    <glyph glyph-name="upsilondieresistonos" unicode="&#x3b0;" horiz-adv-x="1232" 
d="M221 768q0 66 -65 66q-29 0 -54 -7l54 211q72 18 163 18.5t146 -51t55 -171.5q0 -55 -22 -146l-70 -276q-12 -49 -12 -86q0 -135 153 -136q119 0 192 112t103.5 266.5t30.5 267t-14 204.5h278q12 -88 12 -186q0 -225 -59 -426t-200.5 -331t-372.5 -130q-408 0 -408 348
q0 59 19 134l55 221q16 66 16 98zM936 1188l59 239h232l-60 -239h-231zM266 1188l60 239h231l-59 -239h-232zM567 1163l148 320h237l-190 -320h-195z" />
    <glyph glyph-name="alpha" unicode="&#x3b1;" horiz-adv-x="1255" 
d="M362 415.5q0 -102.5 44.5 -162.5t129 -60t150.5 66.5t100.5 164.5t34.5 200.5t-44 163t-129 60.5t-150.5 -66.5t-100.5 -165t-35 -201zM59 360.5q0 172.5 68 333t196 267t300 106.5q98 0 172.5 -48t101.5 -136h4q20 76 55 157h279q-63 -158 -113 -368l-80 -328
q-12 -45 -12 -74q0 -63 68 -63q25 0 51 6l-53 -211q-70 -18 -158 -18q-182 0 -211 137h-4q-136 -148 -305.5 -148t-264 107.5t-94.5 280z" />
    <glyph glyph-name="beta" unicode="&#x3b2;" horiz-adv-x="1241" 
d="M858 459q0 207 -254 207h-20l55 223h37q145 0 221 69.5t76 153.5q0 166 -168 166q-100 0 -161.5 -68.5t-98.5 -216.5l-142 -563q-8 -31 -8 -65q0 -82 48.5 -127t141.5 -45t153.5 40.5t90 103t29.5 122.5zM616 -20q-227 0 -288 131h-4l-121 -490h-287l350 1403
q55 225 199.5 346t350.5 121t316.5 -94t110.5 -260q0 -123 -86 -221.5t-256 -135.5v-4q111 -31 176.5 -113.5t65.5 -201.5t-59.5 -228.5t-179.5 -181t-288 -71.5z" />
    <glyph glyph-name="gamma" unicode="&#x3b3;" horiz-adv-x="1138" 
d="M322 340q0 190 -39 346t-140 156q-18 0 -47 -4l51 202q59 18 143 18t148 -57t92.5 -176t28.5 -261t-10 -240h4q135 178 227 347t158 369h309q-102 -292 -255.5 -525.5t-413.5 -502.5q-49 -196 -119 -391h-287q76 207 113 368t37 351z" />
    <glyph glyph-name="delta" unicode="&#x3b4;" horiz-adv-x="1208" 
d="M354 385q0 -90 46 -144.5t134 -54.5t156 54.5t103.5 135.5t35.5 156q0 193 -141 291q-110 -37 -186 -107.5t-112 -155.5t-36 -175zM682 1202q0 -35 41 -70.5t155 -111.5q254 -169 255 -447q0 -145 -73 -285.5t-212 -230.5t-343 -90t-327 111.5t-123 310.5q0 257 166 396
t334 188v4q-84 63 -125 117.5t-41 115.5q0 109 99.5 188.5t333.5 79.5t423 -61l-55 -227q-176 80 -371 80q-137 0 -137 -68z" />
    <glyph glyph-name="epsilon" unicode="&#x3b5;" horiz-adv-x="1060" 
d="M739 731q0 131 -141 131q-78 0 -121 -39t-43 -90t40 -79.5t114 -28.5h90l-51 -207h-115q-104 0 -157.5 -38t-53.5 -90t41 -82t113 -30q172 0 209 156h286q-43 -180 -177 -273.5t-336.5 -93.5t-311.5 76t-109 211q0 102 67 181t210 118v4q-133 61 -133 178q0 82 52 160
t159.5 128t278.5 50t273.5 -83t102.5 -236q0 -35 -4 -56h-285q2 12 2 33z" />
    <glyph glyph-name="zeta" unicode="&#x3b6;" horiz-adv-x="987" 
d="M543 -129q0 59 -35 87t-125 46q-178 35 -257 118t-79 230t82 305t244 311.5t393 278.5v4h-459l51 207h822l-52 -207q-256 -123 -428 -264t-255 -282t-83 -247t54.5 -155t175.5 -77t170 -88t49 -178t-90 -257h-244q66 109 66 168z" />
    <glyph glyph-name="eta" unicode="&#x3b7;" horiz-adv-x="1261" 
d="M854 1065q154 0 238 -79t84 -228q0 -70 -21 -150l-246 -987h-286l243 981q14 57 15 107q0 131 -138 131q-92 0 -165.5 -73t-108.5 -210l-139 -557h-287l172 690q12 53 12 84q0 68 -65 68q-29 0 -53 -6l51 204q70 16 129 17q190 0 203 -168h4q159 176 358 176z" />
    <glyph glyph-name="theta" unicode="&#x3b8;" horiz-adv-x="1275" 
d="M383 432q0 -108 47 -180t137 -72q123 0 217.5 128t151.5 321h-539q-14 -89 -14 -197zM997 999q0 279 -182 279q-125 0 -219 -128t-152 -321h539q14 88 14 170zM1280 994q0 -234 -84 -469.5t-250 -394.5t-391 -159t-340 129.5t-115 361.5t85 468.5t252 396.5t391 160
t338 -129.5t114 -363.5z" />
    <glyph glyph-name="iota" unicode="&#x3b9;" horiz-adv-x="647" 
d="M375 313q0 -98 112 -98q31 0 64 8l-57 -225q-49 -12 -121 -12q-152 0 -223.5 61.5t-71.5 196.5q0 68 26 178l154 618h287l-150 -600q-20 -78 -20 -127z" />
    <glyph glyph-name="kappa" unicode="&#x3ba;" horiz-adv-x="1146" 
d="M1141 815q-92 0 -191.5 -58.5t-263.5 -201.5l-12 -10l370 -545h-317l-250 371l-123 -107l-65 -264h-287l260 1040h287l-107 -424h4l238 215q143 129 278 192t289 13l-57 -227q-20 6 -53 6z" />
    <glyph glyph-name="lambda" unicode="&#x3bb;" horiz-adv-x="1222" 
d="M1100 199q12 0 28 4l-49 -205q-43 -14 -115 -14t-152 36.5t-99 262.5l-45 456h-2q-115 -178 -279 -426l-207 -313h-323l721 1030q-12 125 -47 174t-101 49t-115 -16l54 217q61 23 163 23t211.5 -66t153.5 -407l76 -596q16 -125 46 -167t81 -42z" />
    <glyph glyph-name="uni03BC" unicode="&#x3bc;" horiz-adv-x="1255" 
d="M981 -16q-183 0 -197 166h-4q-43 -74 -124.5 -118t-187.5 -44t-159 69l-108 -436h-287l354 1419h287l-149 -598q-12 -55 -13 -94q0 -147 148 -147q88 0 156.5 72.5t103.5 209.5l137 557h287l-172 -696q-13 -45 -13 -74q0 -63 68 -63q25 0 51 6l-53 -215q-51 -14 -125 -14
z" />
    <glyph glyph-name="nu" unicode="&#x3bd;" horiz-adv-x="1110" 
d="M1196 1040q0 -215 -184.5 -490.5t-384.5 -549.5h-381l-25 662q-2 104 -22.5 142t-55.5 38t-53 -6l51 200q57 20 129 21q119 0 173.5 -74t50.5 -242l-13 -524h4q195 279 299.5 469.5t120.5 353.5h291z" />
    <glyph glyph-name="xi" unicode="&#x3be;" horiz-adv-x="997" 
d="M557 -138q0 68 -39 100t-137 46q-178 27 -261 107.5t-83 226.5t103.5 271.5t310.5 170.5v4q-164 47 -164 191q0 86 54 162t159 106v4h-201l51 207h850l-51 -207h-199q-141 0 -230 -36.5t-129 -94t-40 -124.5t57.5 -105.5t157.5 -38.5h203l-51 -205h-195
q-135 0 -255 -54.5t-120 -193.5q0 -72 51.5 -109.5t181.5 -62.5t185 -91t55 -189t-84 -244h-243q63 91 63 159z" />
    <glyph glyph-name="omicron" unicode="&#x3bf;" horiz-adv-x="1208" 
d="M362 415.5q0 -102.5 47.5 -165t141.5 -62.5t160.5 69t99.5 167t33 200.5t-47 165t-141.5 62.5t-161 -68.5t-99.5 -167t-33 -201zM1141 614q0 -150 -72 -299t-212 -248.5t-347 -99.5t-324.5 121t-117.5 338q0 147 71.5 297.5t210.5 250t346 99.5t326 -121t119 -338z" />
    <glyph glyph-name="pi" unicode="&#x3c0;" horiz-adv-x="1376" 
d="M1170 199q36 0 61 4l-53 -205q-49 -14 -113 -14q-141 0 -209 55t-68 184q0 66 25 158l111 446h-353l-204 -827h-287l205 827h-191l53 213h1321l-53 -213h-205l-108 -440q-35 -129 -1.5 -158.5t69.5 -29.5z" />
    <glyph glyph-name="rho" unicode="&#x3c1;" horiz-adv-x="1232" 
d="M387 420q0 -102 47 -163.5t141 -61.5t161 67.5t99.5 164.5t32.5 199t-47 164t-141 62t-160.5 -67.5t-99.5 -165t-33 -199.5zM1165 614q0 -145 -67.5 -293.5t-197.5 -247t-313 -98.5t-270 144h-4l-123 -498h-286l239 963q33 129 107 240.5t189.5 180t265.5 68.5
q223 0 341.5 -121t118.5 -338z" />
    <glyph glyph-name="sigma1" unicode="&#x3c2;" horiz-adv-x="1130" 
d="M578 -113q0 55 -39 88t-133 48q-346 51 -347 403q0 152 71 301.5t211 247.5t348 98t316.5 -100.5t108.5 -280.5q0 -41 -6 -88h-297q6 31 6 55q0 90 -43 142.5t-128 52.5t-148.5 -58.5t-96 -142t-32.5 -169.5q0 -181 209 -226q147 -31 208.5 -95.5t61.5 -170.5
q0 -150 -94 -289h-244q68 93 68 184z" />
    <glyph glyph-name="sigma" unicode="&#x3c3;" horiz-adv-x="1261" 
d="M358 406q0 -98 48.5 -158t142.5 -60t160.5 64.5t98.5 158t32 191.5t-48.5 157.5t-142.5 59.5t-160.5 -64.5t-98.5 -157.5t-32 -191zM1018 834v-5q100 -101 100 -251t-68.5 -289t-203.5 -230.5t-339 -91.5t-324 119t-120 332q0 143 71 287.5t209 239.5t329 95h698
l-51 -206h-301z" />
    <glyph glyph-name="tau" unicode="&#x3c4;" horiz-adv-x="958" 
d="M646 199q36 0 61 4l-54 -205q-49 -14 -112 -14q-141 0 -209 55t-68 184q0 66 25 158l112 453h-305l51 206h922l-51 -206h-330l-110 -447q-35 -129 -1.5 -158.5t69.5 -29.5z" />
    <glyph glyph-name="upsilon" unicode="&#x3c5;" horiz-adv-x="1232" 
d="M221 768q0 66 -65 66q-29 0 -54 -7l54 211q72 18 163 18.5t146 -51t55 -171.5q0 -55 -22 -146l-70 -276q-12 -49 -12 -86q0 -135 153 -136q119 0 192 112t103.5 266.5t30.5 267t-14 204.5h278q12 -88 12 -186q0 -225 -59 -426t-200.5 -331t-372.5 -130q-408 0 -408 348
q0 59 19 134l55 221q16 66 16 98z" />
    <glyph glyph-name="phi" unicode="&#x3c6;" horiz-adv-x="1628" 
d="M1270 604q0 106 -58.5 176t-175.5 84l-172 -692h25q127 2 213 67.5t127 162t41 202.5zM358 438q0 -108 59.5 -178t174.5 -84l174 692h-29q-129 -2 -214 -66.5t-125 -160t-40 -203.5zM1559 588q0 -147 -78 -290.5t-238 -237t-391 -93.5h-39l-86 -346h-272l88 352
q-225 25 -349 150t-124 330q0 147 78.5 290.5t237.5 236.5t386 93h45l70 283h272l-72 -289q226 -27 349 -150.5t123 -328.5z" />
    <glyph glyph-name="chi" unicode="&#x3c7;" horiz-adv-x="1230" 
d="M952 -180q50 0 80 6l-49 -205q-59 -16 -161 -16t-163 60.5t-96 211.5l-47 199h-4l-393 -455h-344l643 713l-80 338q-25 106 -61.5 143t-90.5 37t-90 -10l51 205q66 20 144 20q131 0 192.5 -59.5t91.5 -210.5l48 -226h4l383 469h344l-627 -733l74 -313q25 -102 63 -138
t88 -36z" />
    <glyph glyph-name="psi" unicode="&#x3c8;" horiz-adv-x="1685" 
d="M408 436q0 -203 221 -235l286 1155h287l-289 -1161q432 25 433 723q0 45 -9 122h283q8 -82 8 -127q0 -415 -176 -673t-592 -260l-90 -359h-287l90 365q-457 39 -456 420q0 59 24 163l117 471h287l-123 -499q-14 -55 -14 -105z" />
    <glyph glyph-name="omega" unicode="&#x3c9;" horiz-adv-x="1703" 
d="M72 305q0 150 75.5 358.5t198.5 376.5h311q-125 -162 -203.5 -361.5t-78.5 -334.5q0 -158 125 -158t168 172l108 435h287l-100 -402q-10 -39 -11 -82q0 -123 111 -123q94 0 153.5 93.5t84 223.5t24.5 265.5t-47 271.5h307q41 -141 41 -309t-62.5 -346t-187.5 -296
t-303 -118q-117 0 -189.5 54.5t-92.5 160.5h-5q-103 -215 -368 -215q-346 0 -346 334z" />
    <glyph glyph-name="iotadieresis" unicode="&#x3ca;" horiz-adv-x="647" 
d="M375 313q0 -98 112 -98q31 0 64 8l-57 -225q-49 -12 -121 -12q-152 0 -223.5 61.5t-71.5 196.5q0 68 26 178l154 618h287l-150 -600q-20 -78 -20 -127zM541 1212l61 246h252l-61 -246h-252zM96 1212l62 246h252l-62 -246h-252z" />
    <glyph glyph-name="upsilondieresis" unicode="&#x3cb;" horiz-adv-x="1232" 
d="M221 768q0 66 -65 66q-29 0 -54 -7l54 211q72 18 163 18.5t146 -51t55 -171.5q0 -55 -22 -146l-70 -276q-12 -49 -12 -86q0 -135 153 -136q119 0 192 112t103.5 266.5t30.5 267t-14 204.5h278q12 -88 12 -186q0 -225 -59 -426t-200.5 -331t-372.5 -130q-408 0 -408 348
q0 59 19 134l55 221q16 66 16 98zM819 1212l62 246h252l-62 -246h-252zM375 1212l61 246h252l-61 -246h-252z" />
    <glyph glyph-name="omicrontonos" unicode="&#x3cc;" horiz-adv-x="1208" 
d="M362 415.5q0 -102.5 47.5 -165t141.5 -62.5t160.5 69t99.5 167t33 200.5t-47 165t-141.5 62.5t-161 -68.5t-99.5 -167t-33 -201zM1141 614q0 -150 -72 -299t-212 -248.5t-347 -99.5t-324.5 121t-117.5 338q0 147 71.5 297.5t210.5 250t346 99.5t326 -121t119 -338z
M614 1163l156 336h281l-224 -336h-213z" />
    <glyph glyph-name="upsilontonos" unicode="&#x3cd;" horiz-adv-x="1232" 
d="M221 768q0 66 -65 66q-29 0 -54 -7l54 211q72 18 163 18.5t146 -51t55 -171.5q0 -55 -22 -146l-70 -276q-12 -49 -12 -86q0 -135 153 -136q119 0 192 112t103.5 266.5t30.5 267t-14 204.5h278q12 -88 12 -186q0 -225 -59 -426t-200.5 -331t-372.5 -130q-408 0 -408 348
q0 59 19 134l55 221q16 66 16 98zM602 1163l156 336h280l-223 -336h-213z" />
    <glyph glyph-name="omegatonos" unicode="&#x3ce;" horiz-adv-x="1703" 
d="M72 305q0 150 75.5 358.5t198.5 376.5h311q-125 -162 -203.5 -361.5t-78.5 -334.5q0 -158 125 -158t168 172l108 435h287l-100 -402q-10 -39 -11 -82q0 -123 111 -123q94 0 153.5 93.5t84 223.5t24.5 265.5t-47 271.5h307q41 -141 41 -309t-62.5 -346t-187.5 -296
t-303 -118q-117 0 -189.5 54.5t-92.5 160.5h-5q-103 -215 -368 -215q-346 0 -346 334zM903 1163l156 336h280l-223 -336h-213z" />
    <glyph glyph-name="uni0400" unicode="&#x400;" horiz-adv-x="1296" 
d="M639 1200l-82 -330h660l-66 -256h-659l-89 -356h725l-63 -258h-1026l362 1458h1008l-63 -258h-707zM870 1556l-223 299h342l94 -299h-213z" />
    <glyph glyph-name="uni0401" unicode="&#x401;" horiz-adv-x="1296" 
d="M639 1200l-82 -330h660l-66 -256h-659l-89 -356h725l-63 -258h-1026l362 1458h1008l-63 -258h-707zM1010 1575l61 246h252l-61 -246h-252zM565 1575l62 246h252l-62 -246h-252z" />
    <glyph glyph-name="uni0402" unicode="&#x402;" horiz-adv-x="1642" 
d="M1145 946q209 0 319.5 -111.5t112.5 -306.5q0 -139 -66.5 -267t-200.5 -208t-325 -80q-121 0 -203 31l62 248q61 -20 154 -20t157 38.5t92.5 97t28.5 117.5q0 203 -232 203q-127 0 -233 -47l-160 -641h-301l299 1200h-459l64 258h1219l-64 -258h-459l-76 -305
q123 51 271 51z" />
    <glyph glyph-name="uni0403" unicode="&#x403;" horiz-adv-x="1040" 
d="M401 1458h852l-63 -258h-551l-299 -1200h-301zM657 1556l222 299h366l-350 -299h-238z" />
    <glyph glyph-name="uni0404" unicode="&#x404;" horiz-adv-x="1452" 
d="M1161 981q0 115 -66.5 179.5t-202.5 64.5t-245.5 -102.5t-169.5 -264.5h508l-63 -258h-494v-22q0 -158 70 -252t196 -93.5t222 67.5t143 183h309q-78 -244 -260 -380t-439 -136t-404.5 159t-147.5 431q0 219 93 435t279.5 357.5t446.5 141.5q162 0 282.5 -59.5t185 -167
t64.5 -250.5q0 -49 -8 -90h-303q4 37 4 57z" />
    <glyph glyph-name="uni0405" unicode="&#x405;" horiz-adv-x="1290" 
d="M993 1071q0 180 -221 180q-102 0 -172 -50t-70 -123t59.5 -114.5t197 -87t217.5 -90.5q184 -103 184 -337q0 -115 -72 -226.5t-212 -183.5t-333 -72q-256 0 -397 102.5t-141 295.5q0 57 14 114h311q-8 -35 -8 -73q0 -195 256 -195q86 0 145.5 29.5t88 73.5t28.5 95
t-26.5 86t-74.5 59t-164.5 64.5t-197.5 83.5q-190 101 -190 330q0 109 69.5 215.5t205 175t319.5 68.5q500 0 500 -371q0 -47 -17 -108h-305q6 31 6 59z" />
    <glyph glyph-name="uni0406" unicode="&#x406;" horiz-adv-x="636" 
d="M39 0l362 1458h301l-362 -1458h-301z" />
    <glyph glyph-name="uni0407" unicode="&#x407;" horiz-adv-x="636" 
d="M39 0l362 1458h301l-362 -1458h-301zM678 1575l61 246h252l-61 -246h-252zM233 1575l62 246h252l-62 -246h-252z" />
    <glyph glyph-name="uni0408" unicode="&#x408;" horiz-adv-x="802" 
d="M51 -14q-84 0 -149 20l63 252q45 -10 105 -10q58 0 114 24q113 50 166 273l228 913h301l-256 -1026q-58 -229 -195 -337.5t-377 -108.5z" />
    <glyph glyph-name="uni0409" unicode="&#x409;" horiz-adv-x="2170" 
d="M1520 250q143 0 210.5 71.5t67.5 167.5q0 203 -229 203h-187l-110 -442h248zM1591 942q258 0 388 -111.5t130 -314.5q0 -123 -63.5 -241.5t-196.5 -196.5t-329 -78h-613l299 1200h-409q-143 -512 -259 -770t-237 -350t-299 -92q-63 0 -106 16l59 242q12 -4 35 -4
q102 0 178 89t167 344t236 783h1000l-127 -516h147z" />
    <glyph glyph-name="uni040A" unicode="&#x40a;" horiz-adv-x="2199" 
d="M1827 489q0 203 -230 203h-186l-111 -442h248q144 0 211.5 71.5t67.5 167.5zM2134 516q0 -123 -63.5 -241.5t-195.5 -196.5t-327 -78h-610l156 629h-598l-156 -629h-301l362 1458h301l-141 -571h598l141 571h302l-129 -516h147q256 0 385 -112.5t129 -313.5z" />
    <glyph glyph-name="uni040B" unicode="&#x40b;" horiz-adv-x="1640" 
d="M1245 453q0 186 -213 186q-121 0 -231 -37l-150 -602h-301l299 1200h-459l64 258h1219l-64 -258h-459l-86 -340q139 37 273 37q211 0 317.5 -91t106.5 -267q0 -59 -25 -164l-92 -375h-301l92 373q10 47 10 80z" />
    <glyph glyph-name="uni040C" unicode="&#x40c;" horiz-adv-x="1357" 
d="M1221 0h-351l-350 713h-4l-176 -713h-301l362 1458h301l-153 -616h4l598 616h385l-731 -706zM764 1556l221 299h367l-351 -299h-237z" />
    <glyph glyph-name="uni040D" unicode="&#x40d;" horiz-adv-x="1603" 
d="M1016 0l139 561q68 264 174 633h-4q-250 -385 -405 -602l-422 -592h-461l364 1458h289l-141 -561q-68 -281 -174 -633h4q219 340 405 602l424 592h461l-364 -1458h-289zM1022 1556l-223 299h342l94 -299h-213z" />
    <glyph glyph-name="uni040E" unicode="&#x40e;" horiz-adv-x="1396" 
d="M278 -18q-122 0 -182 18l62 250q31 -10 75 -10q100 0 168 60t68 155q0 63 -31 184l-200 819h303l82 -420q47 -233 77 -422h5q145 223 282 422l291 420h348l-860 -1171q-225 -305 -488 -305zM934 1546q-149 0 -227 66.5t-78 185.5q0 16 4 57h170q-2 -10 -2 -26
q0 -49 35.5 -77t105.5 -28t121 35t67 96h220q-41 -147 -154 -228t-262 -81z" />
    <glyph glyph-name="uni040F" unicode="&#x40f;" horiz-adv-x="1515" 
d="M762 0l-82 -328h-287l82 328h-436l362 1458h301l-299 -1200h578l299 1200h301l-362 -1458h-457z" />
    <glyph glyph-name="uni0410" unicode="&#x410;" horiz-adv-x="1429" 
d="M950 711q-20 328 -26 569h-4q-143 -287 -304 -569l-55 -97h395zM416 356l-203 -356h-336l868 1458h406l143 -1458h-295l-24 356h-559z" />
    <glyph glyph-name="uni0411" unicode="&#x411;" horiz-adv-x="1361" 
d="M684 250q143 0 208.5 64.5t65.5 158.5q0 184 -233 184h-221l-103 -407h283zM784 907q229 0 354.5 -111.5t125.5 -310.5q0 -119 -62.5 -230.5t-189.5 -183t-310 -71.5h-663l362 1458h1026l-61 -250h-725l-76 -301h219z" />
    <glyph glyph-name="uni0412" unicode="&#x412;" horiz-adv-x="1331" 
d="M645 248q158 0 221 59q64 59 64 151t-52 127q-52 36 -169 36h-215l-93 -373h244zM786 858q152 0 214 57t62 141t-51 121q-52 36 -163 35h-207l-88 -354h233zM1366 1145q0 -141 -80 -250t-264 -160v-4q111 -27 159 -95t48 -180q1 -112 -63 -217t-195 -172t-322 -67h-610
l362 1458h484q241 0 361 -86t120 -227z" />
    <glyph glyph-name="uni0413" unicode="&#x413;" horiz-adv-x="1040" 
d="M401 1458h852l-63 -258h-551l-299 -1200h-301z" />
    <glyph glyph-name="uni0414" unicode="&#x414;" horiz-adv-x="1626" 
d="M817 1200q-178 -643 -352 -942h582l235 942h-465zM1532 258l-146 -586h-286l82 328h-983l-82 -328h-287l145 586h175q98 131 198.5 395.5t243.5 804.5h1055l-299 -1200h184z" />
    <glyph glyph-name="uni0415" unicode="&#x415;" horiz-adv-x="1296" 
d="M639 1200l-82 -330h660l-66 -256h-659l-89 -356h725l-63 -258h-1026l362 1458h1008l-63 -258h-707z" />
    <glyph glyph-name="uni0416" unicode="&#x416;" horiz-adv-x="1880" 
d="M1743 0h-332l-264 745h-4l-185 -745h-294l176 713h-4l-576 -713h-381l696 782l-282 676h321l234 -698h4l174 698h295l-166 -665h4l524 665h371l-627 -708z" />
    <glyph glyph-name="uni0417" unicode="&#x417;" horiz-adv-x="1302" 
d="M809 1235q-234 0 -295 -244h-324q53 236 222.5 367t415.5 131t377.5 -101.5t131.5 -279.5q0 -127 -88 -226.5t-280 -154.5v-4q225 -78 225 -297q0 -113 -68.5 -218.5t-207 -174t-336.5 -68.5q-264 0 -406.5 104.5t-142.5 303.5q0 51 12 102h315q-10 -51 -10 -84
q0 -170 236 -170q98 0 164.5 34t98.5 84t32 99q0 78 -68 121t-197 43h-94l62 248h84q229 0 290.5 85t61.5 149t-56.5 107.5t-154.5 43.5z" />
    <glyph glyph-name="uni0418" unicode="&#x418;" horiz-adv-x="1603" 
d="M1016 0l139 561q68 264 174 633h-4q-250 -385 -405 -602l-422 -592h-461l364 1458h289l-141 -561q-68 -281 -174 -633h4q219 340 405 602l424 592h461l-364 -1458h-289z" />
    <glyph glyph-name="uni0419" unicode="&#x419;" horiz-adv-x="1603" 
d="M1016 0l139 561q68 264 174 633h-4q-250 -385 -405 -602l-422 -592h-461l364 1458h289l-141 -561q-68 -281 -174 -633h4q219 340 405 602l424 592h461l-364 -1458h-289zM1079.5 1546q-149.5 0 -227.5 66.5t-78 185.5q0 16 4 57h170q-2 -10 -2 -26q0 -49 36 -77t105.5 -28
t121 35t67.5 96h219q-41 -147 -153.5 -228t-262 -81z" />
    <glyph glyph-name="uni041A" unicode="&#x41a;" horiz-adv-x="1357" 
d="M1221 0h-351l-350 713h-4l-176 -713h-301l362 1458h301l-153 -616h4l598 616h385l-731 -706z" />
    <glyph glyph-name="uni041B" unicode="&#x41b;" horiz-adv-x="1505" 
d="M2 -12q-63 0 -106 16l59 242q12 -4 35 -4q102 0 178 89t167 344t236 783h1000l-363 -1458h-301l299 1200h-409q-143 -512 -259 -770t-237 -350t-299 -92z" />
    <glyph glyph-name="uni041C" unicode="&#x41c;" horiz-adv-x="2015" 
d="M1430 0l180 725q72 291 149 547h-4q-147 -285 -291 -537l-413 -735h-344l-50 735q-18 307 -20 537h-4q-66 -303 -125 -547l-180 -725h-289l362 1458h465l45 -670q18 -324 17 -536h4q131 291 270 536l377 670h502l-363 -1458h-288z" />
    <glyph glyph-name="uni041D" unicode="&#x41d;" horiz-adv-x="1536" 
d="M938 0l156 629h-598l-156 -629h-301l362 1458h301l-141 -571h598l141 571h302l-363 -1458h-301z" />
    <glyph glyph-name="uni041E" unicode="&#x41e;" horiz-adv-x="1531" 
d="M428 579.5q0 -155.5 79 -251t225.5 -95.5t255 98.5t164.5 246t56 302t-78.5 250t-226 95.5t-256 -97.5t-164 -245t-55.5 -303zM1511 856q0 -203 -92 -410.5t-271 -343t-445.5 -135.5t-422 167t-155.5 456q0 215 91 424t270.5 343t431.5 134q186 0 320 -76t203.5 -216
t69.5 -343z" />
    <glyph glyph-name="uni041F" unicode="&#x41f;" horiz-adv-x="1513" 
d="M918 0l299 1200h-578l-299 -1200h-301l362 1458h1178l-362 -1458h-299z" />
    <glyph glyph-name="uni0420" unicode="&#x420;" horiz-adv-x="1302" 
d="M780 766q143 0 211 72t68 168q0 203 -230 202h-188l-111 -442h250zM1366 1032q0 -124 -62 -242t-194 -196t-330 -78h-311l-129 -516h-301l362 1458h449q258 1 387 -111t129 -315z" />
    <glyph glyph-name="uni0421" unicode="&#x421;" horiz-adv-x="1437" 
d="M1452 1014q0 -49 -8 -90h-303q4 37 4 57q0 115 -64.5 179.5t-195.5 64.5t-238.5 -100.5t-162 -251t-54.5 -302t67.5 -245t189.5 -93.5t216 67t139 183h310q-76 -244 -257.5 -380t-434 -136t-397 159t-144.5 431q0 219 92 435t275.5 357.5t441.5 141.5q159 0 278 -59.5
t182.5 -167t63.5 -250.5z" />
    <glyph glyph-name="uni0422" unicode="&#x422;" horiz-adv-x="1259" 
d="M950 1200l-299 -1200h-301l299 1200h-459l64 258h1219l-64 -258h-459z" />
    <glyph glyph-name="uni0423" unicode="&#x423;" horiz-adv-x="1396" 
d="M278 -18q-122 0 -182 18l62 250q31 -10 75 -10q100 0 168 60t68 155q0 63 -31 184l-200 819h303l82 -420q47 -233 77 -422h5q145 223 282 422l291 420h348l-860 -1171q-225 -305 -488 -305z" />
    <glyph glyph-name="uni0424" unicode="&#x424;" horiz-adv-x="1765" 
d="M1430 796q0 112 -67 194.5t-189 107.5l-187 -746q148 10 248 77t147.5 161t47.5 206zM438 662q0 -112 65.5 -194.5t192.5 -107.5l185 746q-150 -10 -249.5 -76.5t-146.5 -161t-47 -206.5zM1737 793q0 -172 -88 -330t-271.5 -259.5t-453.5 -101.5l-39 -155h-293l43 166
q-248 35 -376 175t-128 380q0 168 87 325.5t270.5 260t455.5 102.5l39 155h293l-41 -165q244 -35 373 -176.5t129 -376.5z" />
    <glyph glyph-name="uni0425" unicode="&#x425;" horiz-adv-x="1290" 
d="M1155 0h-319l-170 502h-4l-404 -502h-381l653 756l-268 702h313l158 -489h4l383 489h375l-625 -731z" />
    <glyph glyph-name="uni0426" unicode="&#x426;" horiz-adv-x="1576" 
d="M1466 258l-145 -586h-287l82 328h-1077l362 1458h301l-299 -1200h578l299 1200h301l-299 -1200h184z" />
    <glyph glyph-name="uni0427" unicode="&#x427;" horiz-adv-x="1390" 
d="M485 950q0 -186 251 -186q128 0 255 37l164 657h301l-362 -1458h-301l135 543q-158 -37 -305 -37q-225 0 -339 91t-114 267q0 59 25 164l106 430h301l-106 -428q-10 -35 -11 -80z" />
    <glyph glyph-name="uni0428" unicode="&#x428;" horiz-adv-x="2105" 
d="M39 0l362 1458h301l-299 -1200h435l299 1200h301l-299 -1200h434l299 1200h299l-363 -1458h-1769z" />
    <glyph glyph-name="uni0429" unicode="&#x429;" horiz-adv-x="2150" 
d="M2056 258l-145 -586h-287l82 328h-1667l362 1458h301l-299 -1200h435l299 1200h301l-299 -1200h434l299 1200h299l-299 -1200h184z" />
    <glyph glyph-name="uni042A" unicode="&#x42a;" horiz-adv-x="1550" 
d="M899 250q143 0 211 71.5t68 167.5q0 203 -230 203h-186l-111 -442h248zM971 942q256 0 385 -111.5t129 -314.5q0 -123 -63.5 -241.5t-195.5 -196.5t-327 -78h-610l299 1200h-398l64 258h698l-129 -516h148z" />
    <glyph glyph-name="uni042B" unicode="&#x42b;" horiz-adv-x="1937" 
d="M649 250q143 0 211 71.5t68 167.5q0 203 -230 203h-186l-111 -442h248zM721 942q256 0 385 -111.5t129 -314.5q0 -123 -62.5 -241.5t-194.5 -196.5t-329 -78h-610l362 1458h301l-129 -516h148zM1339 0l363 1458h301l-363 -1458h-301z" />
    <glyph glyph-name="uni042C" unicode="&#x42c;" horiz-adv-x="1300" 
d="M649 250q143 0 211 71.5t68 167.5q0 203 -230 203h-186l-111 -442h248zM721 942q256 0 385 -111.5t129 -314.5q0 -123 -62.5 -241.5t-194.5 -196.5t-329 -78h-610l362 1458h301l-129 -516h148z" />
    <glyph glyph-name="uni042D" unicode="&#x42d;" horiz-adv-x="1454" 
d="M1442 901q0 -219 -93.5 -435t-279.5 -357.5t-446 -141.5q-164 0 -286 59.5t-187.5 167t-65.5 250.5q0 49 8 91h303q-4 -37 -4 -58q0 -115 68.5 -179.5t206 -64.5t247 102.5t168.5 264.5h-508l64 258h493v23q0 158 -70.5 251t-194.5 93t-218 -66.5t-141 -183.5h-309
q78 244 259 380t436 136t402.5 -158.5t147.5 -431.5z" />
    <glyph glyph-name="uni042E" unicode="&#x42e;" horiz-adv-x="2119" 
d="M1798 884q0 154 -73.5 247.5t-210.5 93.5t-241 -98.5t-157 -247.5t-53 -303t72.5 -248.5t210.5 -94.5t242 99.5t157 248.5t53 303zM2101 877q0 -217 -90 -427t-267 -346.5t-433 -136.5t-403.5 165t-147.5 450v18h-271l-149 -600h-301l362 1458h301l-149 -600h244
q47 174 146 316.5t248.5 229.5t342.5 87q268 0 417.5 -165t149.5 -449z" />
    <glyph glyph-name="uni042F" unicode="&#x42f;" horiz-adv-x="1355" 
d="M506 965q0 -185 233 -185h213l109 434h-270q-150 0 -217.5 -72.5t-67.5 -176.5zM700 541q-35 0 -96 4l-387 -545h-344l475 633q-141 109 -141 325q0 123 61.5 237t194.5 188.5t340 74.5h618l-362 -1458h-301l133 541h-191z" />
    <glyph glyph-name="uni0430" unicode="&#x430;" horiz-adv-x="1120" 
d="M291 291q0 -51 33.5 -81t97.5 -30q211 0 268 232l17 65q-121 -8 -215 -22q-201 -33 -201 -164zM766 743q0 129 -148 129q-76 0 -127 -42t-67 -115h-279q35 156 164 257t328 101q399 1 399 -323q0 -63 -18 -138l-82 -327q-45 -184 -43 -285h-250q0 63 16 121h-4
q-147 -145 -350 -146q-150 0 -230.5 75t-80.5 205t107.5 229.5t365.5 138.5q145 20 283 28l6 25q10 41 10 67z" />
    <glyph glyph-name="uni0431" unicode="&#x431;" 
d="M358 401q0 -213 187 -213q96 0 163.5 64.5t100.5 158t33 187.5t-48.5 149.5t-144.5 55.5t-162.5 -65.5t-97.5 -159t-31 -177.5zM1143 588q0 -137 -73 -281.5t-214 -242t-347 -97.5t-317.5 119t-111.5 348q0 100 31 225q72 291 180 456t259.5 238t407.5 91t371 47
l-59 -240q-106 -29 -305 -38t-298.5 -46t-161 -106.5t-116.5 -190.5h4q121 142 327 142t314.5 -113t108.5 -311z" />
    <glyph glyph-name="uni0432" unicode="&#x432;" horiz-adv-x="1124" 
d="M526 186q96 0 140.5 42t44.5 98q0 115 -162 114h-154l-63 -254h194zM614 612q98 0 140.5 39t42.5 92q0 111 -154 111h-143l-62 -242h176zM1077 797q0 -218 -243 -273v-4q158 -37 157 -207q0 -80 -47 -150.5t-146.5 -116.5t-250.5 -46h-537l258 1040h459q350 1 350 -243z
" />
    <glyph glyph-name="uni0433" unicode="&#x433;" horiz-adv-x="903" 
d="M502 827l-205 -827h-287l258 1040h744l-54 -213h-456z" />
    <glyph glyph-name="uni0434" unicode="&#x434;" horiz-adv-x="1310" 
d="M637 827q-127 -414 -242 -614h393l152 614h-303zM1219 213l-136 -541h-286l82 328h-705l-82 -328h-287l136 541h131q80 92 156.5 272.5t187.5 554.5h864l-205 -827h144z" />
    <glyph glyph-name="uni0435" unicode="&#x435;" horiz-adv-x="1173" 
d="M846 686q0 92 -52.5 138t-138.5 46t-156.5 -57t-111.5 -172h455q4 33 4 45zM334 373q0 -104 52 -153.5t133 -49.5t141.5 41t82.5 104h293q-63 -150 -206.5 -249t-342 -99t-311.5 117t-113 324q0 152 71 306t209 256.5t341 102.5t315.5 -113.5t112.5 -310.5
q0 -82 -25 -188h-745q-8 -43 -8 -88z" />
    <glyph glyph-name="uni0436" unicode="&#x436;" horiz-adv-x="1556" 
d="M1452 0h-324l-200 547h-4l-136 -547h-278l127 514h-4l-422 -514h-365l525 575l-226 465h293l207 -479h4l119 479h279l-111 -446h4l395 446h334l-463 -495z" />
    <glyph glyph-name="uni0437" unicode="&#x437;" horiz-adv-x="1056" 
d="M1022 791q0 -90 -65.5 -160t-211.5 -109v-4q176 -61 177 -213q0 -84 -52.5 -160.5t-157 -127t-253.5 -50.5q-215 0 -329 78t-114 225q0 39 7 72h282q-6 -25 -6 -49q0 -115 162 -115q86 0 135 41t49 94q0 104 -182 105h-82l51 207h76q113 0 171 41t58 93q1 103 -141 103
t-184 -155h-283q41 172 172 269t323 97t295 -75.5t103 -206.5z" />
    <glyph glyph-name="uni0438" unicode="&#x438;" horiz-adv-x="1388" 
d="M834 0l96 387q41 170 117 408h-5q-121 -197 -266 -385l-319 -410h-447l258 1040h287l-96 -389q-43 -170 -117 -405h4q133 215 266 385l320 409h446l-258 -1040h-286z" />
    <glyph glyph-name="uni0439" unicode="&#x439;" horiz-adv-x="1388" 
d="M834 0l96 387q41 170 117 408h-5q-121 -197 -266 -385l-319 -410h-447l258 1040h287l-96 -389q-43 -170 -117 -405h4q133 215 266 385l320 409h446l-258 -1040h-286zM870.5 1149q-149.5 0 -227.5 66.5t-78 185.5q0 16 4 57h170q-2 -10 -2 -26q0 -49 36 -77t105.5 -28
t121 35t67.5 96h219q-41 -147 -153.5 -228t-262 -81z" />
    <glyph glyph-name="uni043A" unicode="&#x43a;" horiz-adv-x="1146" 
d="M1004 0h-314l-264 500h-4l-125 -500h-287l258 1040h287l-100 -407h4l395 407h365l-519 -501z" />
    <glyph glyph-name="uni043B" unicode="&#x43b;" horiz-adv-x="1175" 
d="M-10 -12q-63 0 -107 14l49 201q20 -4 39 -4q68 0 145 91t253 750h796l-258 -1040h-286l204 827h-243q-94 -348 -182.5 -529t-182.5 -245.5t-227 -64.5z" />
    <glyph glyph-name="uni043C" unicode="&#x43c;" horiz-adv-x="1708" 
d="M1174 0l118 477q41 166 103 375h-4q-109 -203 -209 -371l-287 -481h-340l-51 481q-18 184 -25 371h-4q-41 -209 -82 -375l-119 -477h-264l258 1040h430l45 -444q18 -186 25 -381h4q78 195 189 381l266 444h471l-258 -1040h-266z" />
    <glyph glyph-name="uni043D" unicode="&#x43d;" horiz-adv-x="1255" 
d="M700 0l105 422h-404l-104 -422h-287l258 1040h287l-100 -405h403l100 405h287l-258 -1040h-287z" />
    <glyph glyph-name="uni043E" unicode="&#x43e;" horiz-adv-x="1208" 
d="M362 415.5q0 -102.5 47.5 -165t141.5 -62.5t160.5 69t99.5 167t33 200.5t-47 165t-141.5 62.5t-161 -68.5t-99.5 -167t-33 -201zM1141 614q0 -150 -72 -299t-212 -248.5t-347 -99.5t-324.5 121t-117.5 338q0 147 71.5 297.5t210.5 250t346 99.5t326 -121t119 -338z" />
    <glyph glyph-name="uni043F" unicode="&#x43f;" horiz-adv-x="1239" 
d="M684 0l205 827h-387l-205 -827h-287l258 1040h961l-258 -1040h-287z" />
    <glyph glyph-name="uni0440" unicode="&#x440;" horiz-adv-x="1224" 
d="M403 416q0 -102 44 -163q44 -60 129 -60q85 1 151 67t100 164q35 98 35 200t-44 163t-128 61t-151 -67q-66 -67 -101 -165t-35 -200zM815 1067q162 0 256 -108q94 -107 94 -279q1 -172 -67 -333t-196 -267t-300 -107q-94 0 -165 42t-103 118h-4l-127 -512h-287l354 1419
h279l-25 -94h4q125 121 287 121z" />
    <glyph glyph-name="uni0441" unicode="&#x441;" horiz-adv-x="1150" 
d="M1114 688q0 -37 -4 -55h-299q4 20 4 39q0 84 -41 132t-124 48t-150.5 -70.5t-103.5 -171t-36 -199t44.5 -161t124 -62.5t142 53.5t89.5 145.5h301q-59 -190 -207.5 -305t-348.5 -115t-318.5 121t-118.5 336q0 147 69.5 297.5t207.5 251t337 100.5t315.5 -105.5
t116.5 -279.5z" />
    <glyph glyph-name="uni0442" unicode="&#x442;" horiz-adv-x="970" 
d="M705 827l-205 -827h-287l205 827h-330l53 213h946l-53 -213h-329z" />
    <glyph glyph-name="uni0443" unicode="&#x443;" horiz-adv-x="1032" 
d="M-22.5 -391q-106.5 0 -172.5 16l58 230q43 -16 106 -17q109 0 174.5 64.5t65.5 160.5q0 35 -10 132l-84 845h282l25 -348q16 -240 14 -436h4q117 250 222 436l194 348h320l-633 -1046q-90 -148 -176 -230.5t-184.5 -118.5t-205 -36z" />
    <glyph glyph-name="uni0444" unicode="&#x444;" horiz-adv-x="1679" 
d="M1315 620q0 100 -41 164t-117 64q-49 0 -104 -41l-138 -557q37 -57 122 -57t148.5 66.5t96.5 163.5t33 197zM365 432q0 -239 157 -239q49 0 105 43l137 552q-41 60 -124 60t-146.5 -67.5t-96 -166t-32.5 -182.5zM1622 684q0 -170 -65.5 -332t-191.5 -270.5t-294 -108.5
q-123 0 -201 90l-110 -442h-287l102 412q-102 -59 -200 -60q-152 0 -235 106.5t-83 276.5t65.5 332t189.5 270.5t292 108.5q133 0 205 -94l121 485h287l-113 -450q100 59 205 59q149 0 231 -106.5t82 -276.5z" />
    <glyph glyph-name="uni0445" unicode="&#x445;" horiz-adv-x="1040" 
d="M924 0h-303l-123 340h-4l-271 -340h-364l499 547l-219 493h299l117 -292h4l240 292h360l-469 -518z" />
    <glyph glyph-name="uni0446" unicode="&#x446;" horiz-adv-x="1259" 
d="M1167 213l-135 -541h-287l82 328h-817l258 1040h287l-205 -827h387l205 827h287l-205 -827h143z" />
    <glyph glyph-name="uni0447" unicode="&#x447;" horiz-adv-x="1187" 
d="M395 692q0 -139 124 -139t210 22l117 465h287l-259 -1040h-286l92 367q-106 -27 -256 -27t-237 76t-87 223q0 45 17 111l71 290h287l-74 -297q-6 -27 -6 -51z" />
    <glyph glyph-name="uni0448" unicode="&#x448;" horiz-adv-x="1748" 
d="M10 0l258 1040h287l-205 -827h305l205 827h287l-205 -827h305l205 827h287l-258 -1040h-1471z" />
    <glyph glyph-name="uni0449" unicode="&#x449;" horiz-adv-x="1769" 
d="M1677 213l-135 -541h-287l82 328h-1327l258 1040h287l-205 -827h305l205 827h287l-205 -827h305l205 827h287l-205 -827h143z" />
    <glyph glyph-name="uni044A" unicode="&#x44a;" horiz-adv-x="1280" 
d="M889 373q0 125 -158 125h-170l-72 -291h211q95 0 142 49t47 117zM1174 391q0 -96 -48.5 -185t-153 -147.5t-263.5 -58.5h-557l204 827h-268l53 213h555l-84 -335h148q205 0 309.5 -80t104.5 -234z" />
    <glyph glyph-name="uni044B" unicode="&#x44b;" horiz-adv-x="1642" 
d="M559 207q94 0 141.5 49t47.5 117q0 125 -158 125h-170l-72 -291h211zM618 705q205 0 309.5 -80t104.5 -234q0 -96 -48 -185t-152.5 -147.5t-264.5 -58.5h-557l258 1040h287l-84 -335h147zM1087 0l259 1040h286l-258 -1040h-287z" />
    <glyph glyph-name="uni044C" unicode="&#x44c;" horiz-adv-x="1138" 
d="M559 207q94 0 141.5 49t47.5 117q0 125 -158 125h-170l-72 -291h211zM618 705q205 0 309.5 -80t104.5 -234q0 -96 -48 -185t-152.5 -147.5t-264.5 -58.5h-557l258 1040h287l-84 -335h147z" />
    <glyph glyph-name="uni044D" unicode="&#x44d;" horiz-adv-x="1150" 
d="M1083 616q0 -147 -69.5 -297.5t-207.5 -251t-337 -100.5t-315.5 105.5t-116.5 279.5q0 37 4 56h291q-4 -20 -4 -39q0 -88 43 -138.5t127.5 -50.5t155.5 71t108 177h-346l51 205h332q-4 109 -49 168t-127 59t-146.5 -55t-93.5 -152h-293q59 190 207.5 305t348.5 115
t318.5 -121t118.5 -336z" />
    <glyph glyph-name="uni044E" unicode="&#x44e;" horiz-adv-x="1732" 
d="M1368 624q0 102 -47 165t-141 63t-161 -68.5t-99.5 -167t-32.5 -200.5t47 -165t141 -63t161 69t99.5 167t32.5 200zM1665 614q0 -150 -71.5 -299t-212.5 -248.5t-345 -99.5t-322 118t-122 329h-193l-102 -414h-287l258 1040h287l-102 -413h172q59 188 208.5 317
t371.5 129t341 -121t119 -338z" />
    <glyph glyph-name="uni044F" unicode="&#x44f;" horiz-adv-x="1153" 
d="M621 829q-119 0 -172.5 -43t-53.5 -108q0 -135 203 -135h145l72 286h-194zM545 340q-29 0 -82 4l-260 -344h-316l344 426q-104 86 -104 250q0 94 47 177t152.5 135t269.5 52h547l-258 -1040h-277l84 340h-147z" />
    <glyph glyph-name="uni0450" unicode="&#x450;" horiz-adv-x="1173" 
d="M846 686q0 92 -52.5 138t-138.5 46t-156.5 -57t-111.5 -172h455q4 33 4 45zM334 373q0 -104 52 -153.5t133 -49.5t141.5 41t82.5 104h293q-63 -150 -206.5 -249t-342 -99t-311.5 117t-113 324q0 152 71 306t209 256.5t341 102.5t315.5 -113.5t112.5 -310.5
q0 -82 -25 -188h-745q-8 -43 -8 -88zM879 1159h-213l-226 299h342z" />
    <glyph glyph-name="uni0451" unicode="&#x451;" horiz-adv-x="1173" 
d="M846 686q0 92 -52.5 138t-138.5 46t-156.5 -57t-111.5 -172h455q4 33 4 45zM334 373q0 -104 52 -153.5t133 -49.5t141.5 41t82.5 104h293q-63 -150 -206.5 -249t-342 -99t-311.5 117t-113 324q0 152 71 306t209 256.5t341 102.5t315.5 -113.5t112.5 -310.5
q0 -82 -25 -188h-745q-8 -43 -8 -88zM813 1212l61 246h252l-61 -246h-252zM369 1212l61 246h252l-61 -246h-252z" />
    <glyph glyph-name="uni0452" unicode="&#x452;" 
d="M1114 647q0 -70 -20 -149l-138 -553q-43 -172 -154.5 -253t-266.5 -81q-88 0 -154 18l51 205q23 -6 47 -6q84 0 134.5 46t78.5 163l113 455q14 57 14 106q0 131 -137 131q-92 0 -166 -72.5t-108 -210.5l-111 -446h-287l277 1114h-152l45 180h152l41 164h286l-41 -164h435
l-45 -180h-435l-71 -280h4q132 120 286 120t238 -78.5t84 -228.5z" />
    <glyph glyph-name="uni0453" unicode="&#x453;" horiz-adv-x="903" 
d="M502 827l-205 -827h-287l258 1040h744l-54 -213h-456zM485 1159l220 299h366l-348 -299h-238z" />
    <glyph glyph-name="uni0454" unicode="&#x454;" horiz-adv-x="1150" 
d="M823 672q0 88 -43 138q-42 50 -124 50t-151 -64.5t-110 -162.5h346l-51 -205h-338v-2q0 -117 46 -181.5t129 -64.5t147.5 55.5t93.5 151.5h293q-59 -190 -207.5 -305t-348.5 -115t-318.5 121t-118.5 336q0 147 69.5 297.5t207.5 251t337 100.5t315.5 -105.5t116.5 -279.5
q0 -37 -4 -55h-291q4 21 4 39z" />
    <glyph glyph-name="uni0455" unicode="&#x455;" horiz-adv-x="1073" 
d="M311 293q0 -119 160 -119q78 0 121 31t43 83t-44 80q-43 29 -147 65q-104 35 -158 63q-128 66 -128 237q0 86 53 164t158.5 127t275.5 49t271.5 -72.5t101.5 -214.5q0 -31 -6 -65h-273q4 29 4 43q0 109 -143 108q-78 0 -114.5 -30.5t-36.5 -72.5t38.5 -68.5t143 -62.5
t165 -66.5t102.5 -91t42 -154.5t-55.5 -176t-167 -132.5t-294 -50.5t-294 75t-111.5 222q0 41 11 74h288q-6 -25 -6 -45z" />
    <glyph glyph-name="uni0456" unicode="&#x456;" horiz-adv-x="565" 
d="M10 0l258 1040h287l-258 -1040h-287zM311 1212l62 246h286l-61 -246h-287z" />
    <glyph glyph-name="uni0457" unicode="&#x457;" horiz-adv-x="565" 
d="M10 0l258 1040h287l-258 -1040h-287zM506 1212l61 246h252l-61 -246h-252zM152 1212l61 246h252l-62 -246h-251z" />
    <glyph glyph-name="uni0458" unicode="&#x458;" horiz-adv-x="569" 
d="M-135 -389q-88 0 -154 18l51 205q23 -6 48 -6q84 0 134 46t79 163l249 1003h287l-272 -1095q-43 -172 -155 -253t-267 -81zM315 1212l62 246h287l-62 -246h-287z" />
    <glyph glyph-name="uni0459" unicode="&#x459;" horiz-adv-x="1748" 
d="M1169 207q94 0 141.5 49t47.5 117q0 125 -158 125h-170l-72 -291h211zM1229 705q205 0 309 -80t104 -234q0 -96 -48 -185t-152.5 -147.5t-263.5 -58.5h-557l204 827h-243q-94 -348 -182.5 -529t-182.5 -245.5t-227 -64.5q-63 0 -107 14l49 201q20 -4 39 -4q68 0 145 91
t253 750h796l-84 -335h148z" />
    <glyph glyph-name="uni045A" unicode="&#x45a;" horiz-adv-x="1828" 
d="M1249 207q94 0 141.5 49t47.5 117q0 125 -158 125h-170l-72 -291h211zM1309 705q205 0 309 -80t104 -234q0 -96 -48 -185t-152.5 -147.5t-264.5 -58.5h-557l105 422h-404l-104 -422h-287l258 1040h287l-100 -405h403l100 405h287l-84 -335h148z" />
    <glyph glyph-name="uni045B" unicode="&#x45b;" 
d="M1114 647q0 -70 -20 -149l-123 -498h-287l121 492q14 57 14 106q0 131 -137 131q-92 0 -166 -72.5t-108 -210.5l-111 -446h-287l277 1114h-152l45 180h152l41 164h286l-41 -164h435l-45 -180h-435l-71 -280h4q132 120 286 120t238 -78.5t84 -228.5z" />
    <glyph glyph-name="uni045C" unicode="&#x45c;" horiz-adv-x="1146" 
d="M1004 0h-314l-264 500h-4l-125 -500h-287l258 1040h287l-100 -407h4l395 407h365l-519 -501zM561 1159l219 299h367l-348 -299h-238z" />
    <glyph glyph-name="uni045D" unicode="&#x45d;" horiz-adv-x="1388" 
d="M834 0l96 387q41 170 117 408h-5q-121 -197 -266 -385l-319 -410h-447l258 1040h287l-96 -389q-43 -170 -117 -405h4q133 215 266 385l320 409h446l-258 -1040h-286zM1028 1159h-213l-225 299h342z" />
    <glyph glyph-name="uni045E" unicode="&#x45e;" horiz-adv-x="1032" 
d="M-22.5 -391q-106.5 0 -172.5 16l58 230q43 -16 106 -17q109 0 174.5 64.5t65.5 160.5q0 35 -10 132l-84 845h282l25 -348q16 -240 14 -436h4q117 250 222 436l194 348h320l-633 -1046q-90 -148 -176 -230.5t-184.5 -118.5t-205 -36zM651.5 1149q-149.5 0 -227.5 66.5
t-78 185.5q0 16 4 57h170q-2 -10 -2 -26q0 -49 36 -77t105.5 -28t120.5 35t68 96h219q-41 -147 -153.5 -228t-262 -81z" />
    <glyph glyph-name="uni045F" unicode="&#x45f;" horiz-adv-x="1239" 
d="M629 0l-82 -328h-287l82 328h-332l258 1040h287l-205 -827h387l205 827h287l-258 -1040h-342z" />
    <glyph glyph-name="uni0490" unicode="&#x490;" horiz-adv-x="1040" 
d="M639 1200l-299 -1200h-301l362 1458h566l71 283h287l-135 -541h-551z" />
    <glyph glyph-name="uni0491" unicode="&#x491;" horiz-adv-x="903" 
d="M502 827l-205 -827h-287l258 1040h477l82 328h267l-136 -541h-456z" />
    <glyph glyph-name="uni0492" unicode="&#x492;" horiz-adv-x="1040" 
d="M532 774h297l-55 -217h-295l-139 -557h-301l139 557h-133l55 217h131l170 684h852l-63 -258h-551z" />
    <glyph glyph-name="uni0493" unicode="&#x493;" horiz-adv-x="913" 
d="M449 569h258l-50 -196h-258l-92 -373h-287l93 373h-123l49 196h123l117 471h743l-53 -213h-457z" />
    <glyph glyph-name="uni0496" unicode="&#x496;" horiz-adv-x="1880" 
d="M1806 258l-145 -586h-287l82 328h-45l-264 745h-4l-185 -745h-294l176 713h-4l-576 -713h-381l696 782l-282 676h321l234 -698h4l174 698h295l-166 -665h4l524 665h371l-627 -708l207 -492h172z" />
    <glyph glyph-name="uni0497" unicode="&#x497;" horiz-adv-x="1556" 
d="M1505 213l-135 -541h-287l82 328h-37l-200 547h-4l-136 -547h-278l127 514h-4l-422 -514h-365l525 575l-226 465h293l207 -479h4l119 479h279l-111 -446h4l395 446h334l-463 -495l150 -332h149z" />
    <glyph glyph-name="uni049A" unicode="&#x49a;" horiz-adv-x="1357" 
d="M1284 258l-145 -586h-287l82 328h-64l-350 713h-4l-176 -713h-301l362 1458h301l-153 -616h4l598 616h385l-731 -706l272 -494h207z" />
    <glyph glyph-name="uni049B" unicode="&#x49b;" horiz-adv-x="1146" 
d="M1057 213l-135 -541h-287l82 328h-27l-264 500h-4l-125 -500h-287l258 1040h287l-100 -407h4l395 407h365l-519 -501l183 -326h174z" />
    <glyph glyph-name="uni049C" unicode="&#x49c;" horiz-adv-x="1509" 
d="M1372 0h-332l-229 629h-6l-78 -318h-225l78 318h-91l-155 -629h-295l362 1458h295l-141 -571h90l78 317h225l-78 -317h7l436 571h370l-626 -725z" />
    <glyph glyph-name="uni049D" unicode="&#x49d;" horiz-adv-x="1265" 
d="M1157 0h-323l-170 449h-9l-61 -244h-178l61 244h-78l-110 -449h-279l258 1040h279l-94 -378h75l62 243h178l-61 -243h8l325 378h334l-463 -505z" />
    <glyph glyph-name="uni04A2" unicode="&#x4a2;" horiz-adv-x="1597" 
d="M1055 -328l82 328h-199l156 629h-598l-156 -629h-301l362 1458h301l-141 -571h598l141 571h302l-299 -1200h184l-146 -586h-286z" />
    <glyph glyph-name="uni04A3" unicode="&#x4a3;" horiz-adv-x="1275" 
d="M762 -328l82 328h-144l105 422h-404l-104 -422h-287l258 1040h287l-100 -405h403l100 405h287l-205 -827h144l-135 -541h-287z" />
    <glyph glyph-name="uni04AE" unicode="&#x4ae;" horiz-adv-x="1306" 
d="M674 0h-301l141 567l-276 891h305l71 -274q45 -176 80 -371h4q117 184 260 371l207 274h369l-719 -891z" />
    <glyph glyph-name="uni04AF" unicode="&#x4af;" horiz-adv-x="1044" 
d="M391 1040l31 -360q18 -229 20 -401h4q96 211 209 401l211 360h322l-660 -1067l-86 -352h-286l86 352l-127 1067h276z" />
    <glyph glyph-name="uni04B2" unicode="&#x4b2;" horiz-adv-x="1290" 
d="M1219 258l-146 -586h-287l82 328h-32l-170 502h-4l-404 -502h-381l653 756l-268 702h313l158 -489h4l383 489h375l-625 -731l185 -469h164z" />
    <glyph glyph-name="uni04B3" unicode="&#x4b3;" horiz-adv-x="1040" 
d="M977 213l-135 -541h-287l82 328h-16l-123 340h-4l-271 -340h-364l499 547l-219 493h299l117 -292h4l240 292h360l-469 -518l139 -309h148z" />
    <glyph glyph-name="uni04B8" unicode="&#x4b8;" horiz-adv-x="1390" 
d="M170 864q0 59 25 164l106 430h301l-106 -428q-10 -35 -11 -80q0 -117 105 -164l92 377h246l-99 -393q94 10 162 31l164 657h301l-362 -1458h-301l135 543q-78 -16 -160 -29l-68 -268h-245l65 266q-174 18 -262 108.5t-88 243.5z" />
    <glyph glyph-name="uni04B9" unicode="&#x4b9;" horiz-adv-x="1142" 
d="M100 639q0 45 17 111l71 290h287l-76 -305q-6 -29 -6 -51q0 -82 62 -113l73 291h179l-76 -305l98 18l117 465h287l-259 -1040h-286l92 367q-49 -12 -102 -19l-48 -186h-178l45 180q-147 8 -222 85t-75 212z" />
    <glyph glyph-name="uni04BA" unicode="&#x4ba;" horiz-adv-x="1390" 
d="M1010 508q0 186 -251 186q-128 0 -255 -37l-164 -657h-301l362 1458h301l-135 -543q158 37 305 37q225 0 339 -91t114 -267q0 -59 -25 -164l-106 -430h-301l106 428q10 37 11 80z" />
    <glyph glyph-name="uni04BB" unicode="&#x4bb;" 
d="M820.5 1065q154.5 0 238.5 -79t84 -228q0 -70 -21 -150l-151 -608h-287l150 602q14 57 14 107q0 131 -137 131q-92 0 -166 -73t-109 -210l-139 -557h-287l363 1458h286l-129 -514h5q131 121 285.5 121z" />
    <glyph glyph-name="uni04C0" unicode="&#x4c0;" horiz-adv-x="636" 
d="M39 0l362 1458h301l-362 -1458h-301z" />
    <glyph glyph-name="uni04CF" unicode="&#x4cf;" horiz-adv-x="565" 
d="M10 0l363 1458h286l-362 -1458h-287z" />
    <glyph glyph-name="uni04D8" unicode="&#x4d8;" horiz-adv-x="1562" 
d="M424 512q0 -135 85 -207q85 -71 224 -71t254 91t170 257h-729q-4 -49 -4 -70zM106 537q0 174 50 294h1063q6 47 6 89q0 160 -86 236t-215 75q-130 -1 -226 -61t-135 -156h-348q55 132 163 240t258 172t327 65q286 0 438 -155t151 -431q0 -215 -100 -432t-295 -361
t-473 -144t-428 153q-150 154 -150 416z" />
    <glyph glyph-name="uni04D9" unicode="&#x4d9;" horiz-adv-x="1173" 
d="M328 354q0 -92 52 -138t139 -46t158 60t111 180h-456q-4 -41 -4 -56zM1110 633q0 -153 -71 -307t-209 -256t-340 -102t-316 113q-113 114 -113 310q0 109 31 199h742q6 43 6 78q0 104 -52 153t-133 49q-80 0 -139 -38t-84 -97h-293q63 145 205 241t342 97q198 0 311 -117
t113 -323z" />
    <glyph glyph-name="uni04E8" unicode="&#x4e8;" horiz-adv-x="1531" 
d="M399 600v-8q0 -170 87 -272.5t247 -102.5t277.5 108.5t177.5 274.5h-789zM1237 858v10q0 168 -88 270.5t-249 102.5t-277.5 -108.5t-176.5 -274.5h791zM1511 856q0 -203 -92 -410.5t-271.5 -343t-445.5 -135.5t-421.5 167t-155.5 456q0 215 91 424t270.5 343t431.5 134
q186 0 320 -76t203.5 -216t69.5 -343z" />
    <glyph glyph-name="uni04E9" unicode="&#x4e9;" horiz-adv-x="1208" 
d="M346 428q0 -117 52.5 -184.5t152.5 -67.5t170 70.5t108 181.5h-483zM860 612q0 117 -52 184.5t-152 67.5t-171 -71.5t-108 -180.5h483zM1141 614q0 -150 -72 -299t-212 -248.5t-347 -99.5t-324.5 121t-117.5 338q0 147 71.5 297.5t210.5 250t346 99.5t326 -121t119 -338z
" />
    <glyph glyph-name="Wgrave" unicode="&#x1e80;" horiz-adv-x="1957" 
d="M1114 0l8 578q2 297 29 624h-4q-115 -279 -283 -624l-278 -578h-391l57 1458h280l-26 -530q-14 -293 -51 -631h4q111 258 291 631l258 530h381l-5 -530q-4 -322 -24 -631h4q98 256 264 631l236 530h309l-668 -1458h-391zM1184 1556l-223 299h342l94 -299h-213z" />
    <glyph glyph-name="wgrave" unicode="&#x1e81;" horiz-adv-x="1658" 
d="M881 0l10 410q6 223 18 444h-4q-90 -236 -190 -444l-195 -410h-409l28 1040h273l-23 -401q-16 -309 -31 -453h4q92 231 195 449l193 405h393l-8 -405q-2 -223 -19 -449h4q84 233 183 453l178 401h297l-488 -1040h-409zM1151 1159h-213l-225 299h342z" />
    <glyph glyph-name="Wacute" unicode="&#x1e82;" horiz-adv-x="1957" 
d="M1114 0l8 578q2 297 29 624h-4q-115 -279 -283 -624l-278 -578h-391l57 1458h280l-26 -530q-14 -293 -51 -631h4q111 258 291 631l258 530h381l-5 -530q-4 -322 -24 -631h4q98 256 264 631l236 530h309l-668 -1458h-391zM1049 1556l221 299h366l-350 -299h-237z" />
    <glyph glyph-name="wacute" unicode="&#x1e83;" horiz-adv-x="1658" 
d="M881 0l10 410q6 223 18 444h-4q-90 -236 -190 -444l-195 -410h-409l28 1040h273l-23 -401q-16 -309 -31 -453h4q92 231 195 449l193 405h393l-8 -405q-2 -223 -19 -449h4q84 233 183 453l178 401h297l-488 -1040h-409zM803 1159l219 299h367l-349 -299h-237z" />
    <glyph glyph-name="Wdieresis" unicode="&#x1e84;" horiz-adv-x="1957" 
d="M1114 0l8 578q2 297 29 624h-4q-115 -279 -283 -624l-278 -578h-391l57 1458h280l-26 -530q-14 -293 -51 -631h4q111 258 291 631l258 530h381l-5 -530q-4 -322 -24 -631h4q98 256 264 631l236 530h309l-668 -1458h-391zM1323 1575l61 246h252l-61 -246h-252zM879 1575
l61 246h252l-62 -246h-251z" />
    <glyph glyph-name="wdieresis" unicode="&#x1e85;" horiz-adv-x="1658" 
d="M881 0l10 410q6 223 18 444h-4q-90 -236 -190 -444l-195 -410h-409l28 1040h273l-23 -401q-16 -309 -31 -453h4q92 231 195 449l193 405h393l-8 -405q-2 -223 -19 -449h4q84 233 183 453l178 401h297l-488 -1040h-409zM1085 1212l62 246h252l-62 -246h-252zM641 1212
l61 246h252l-61 -246h-252z" />
    <glyph glyph-name="Germandbls" unicode="&#x1e9e;" horiz-adv-x="1640" 
d="M985 1241q-168 0 -286.5 -100.5t-170.5 -296.5l-209 -844h-301l215 862q76 307 283 466t526 159q199 0 345.5 -79t220.5 -216l-379 -334q303 -108 303 -405q0 -119 -64.5 -229.5t-192.5 -181.5t-312 -71q-431 0 -431 314q0 49 13 108h289q-6 -31 -7 -51q0 -125 162 -125
q115 0 172.5 65.5t57.5 147.5q0 220 -353 248l52 205l313 276q-78 82 -246 82z" />
    <glyph glyph-name="Ygrave" unicode="&#x1ef2;" horiz-adv-x="1306" 
d="M674 0h-301l141 567l-276 891h305l71 -274q45 -176 80 -371h4q117 184 260 371l207 274h369l-719 -891zM819 1556l-223 299h342l94 -299h-213z" />
    <glyph glyph-name="ygrave" unicode="&#x1ef3;" horiz-adv-x="1032" 
d="M-22.5 -391q-106.5 0 -172.5 16l58 230q43 -16 106 -17q109 0 174.5 64.5t65.5 160.5q0 35 -10 132l-84 845h282l25 -348q16 -240 14 -436h4q117 250 222 436l194 348h320l-633 -1046q-90 -148 -176 -230.5t-184.5 -118.5t-205 -36zM809 1159h-213l-225 299h342z" />
    <glyph glyph-name="uni2010" unicode="&#x2010;" horiz-adv-x="655" 
d="M53 485l56 226h532l-55 -226h-533z" />
    <glyph glyph-name="endash" unicode="&#x2013;" horiz-adv-x="1024" 
d="M33 485l55 226h942l-55 -226h-942z" />
    <glyph glyph-name="emdash" unicode="&#x2014;" horiz-adv-x="2048" 
d="M33 485l55 226h1966l-55 -226h-1966z" />
    <glyph glyph-name="uni2015" unicode="&#x2015;" horiz-adv-x="2048" 
d="M-96 485l55 226h1966l-55 -226h-1966z" />
    <glyph glyph-name="underscoredbl" unicode="&#x2017;" horiz-adv-x="1024" 
d="M-266 -545l37 146h1024l-37 -146h-1024zM-193 -248l37 146h1024l-37 -146h-1024z" />
    <glyph glyph-name="quoteleft" unicode="&#x2018;" horiz-adv-x="520" 
d="M489 1458h146l-172 -299h90l-72 -291h-268l72 291z" />
    <glyph glyph-name="quoteright" unicode="&#x2019;" horiz-adv-x="522" 
d="M352 868h-145l172 299h-90l71 291h269l-72 -291z" />
    <glyph glyph-name="quotesinglbase" unicode="&#x201a;" horiz-adv-x="520" 
d="M61 -299h-145l172 299h-90l72 291h268l-72 -291z" />
    <glyph glyph-name="quotereversed" unicode="&#x201b;" horiz-adv-x="520" 
d="M489 1458h146l-172 -299h90l-72 -291h-268l72 291z" />
    <glyph glyph-name="quotedblleft" unicode="&#x201c;" horiz-adv-x="892" 
d="M862 1458h146l-172 -299h90l-72 -291h-268l71 291zM489 1458h146l-172 -299h90l-72 -291h-268l72 291z" />
    <glyph glyph-name="quotedblright" unicode="&#x201d;" horiz-adv-x="892" 
d="M352 868h-145l172 299h-90l71 291h269l-72 -291zM725 868h-145l172 299h-90l71 291h268l-71 -291z" />
    <glyph glyph-name="quotedblbase" unicode="&#x201e;" horiz-adv-x="892" 
d="M61 -299h-145l172 299h-90l72 291h268l-72 -291zM434 -299h-145l172 299h-90l71 291h269l-72 -291z" />
    <glyph glyph-name="dagger" unicode="&#x2020;" horiz-adv-x="1155" 
d="M1188 1098l-55 -228h-324l-279 -1116h-286l278 1116h-323l55 228h324l90 360h286l-90 -360h324z" />
    <glyph glyph-name="daggerdbl" unicode="&#x2021;" horiz-adv-x="1155" 
d="M1188 1098l-55 -228h-324l-133 -528h323l-55 -227h-323l-91 -361h-286l90 361h-324l56 227h323l133 528h-323l55 228h324l90 360h286l-90 -360h324z" />
    <glyph glyph-name="bullet" unicode="&#x2022;" horiz-adv-x="737" 
d="M82 729q0 78 39 144.5t104.5 104.5t143 38t144.5 -38t104.5 -104.5t37.5 -144.5t-37.5 -143.5t-104.5 -104.5t-144.5 -39t-143 39t-104.5 104.5t-39 143.5z" />
    <glyph glyph-name="ellipsis" unicode="&#x2026;" horiz-adv-x="1839" 
d="M-23 0l84 342h316l-84 -342h-316zM633 0l84 342h315l-84 -342h-315zM1288 0l84 342h316l-84 -342h-316z" />
    <glyph glyph-name="perthousand" unicode="&#x2030;" horiz-adv-x="2234" 
d="M1706 221q0 -100 70 -100q51 0 86.5 51t53 120.5t17.5 121.5q0 100 -69 100q-49 0 -85 -51t-54.5 -121t-18.5 -121zM993 221q0 -100 70 -100q51 0 87 51t53.5 120.5t17.5 121.5q0 100 -70 100q-49 0 -85 -51t-54.5 -121t-18.5 -121zM2128 424q0 -114 -41 -218
t-121 -171.5t-200 -67.5t-185 64.5t-65 178.5t40.5 218t122.5 172t201 68t183.5 -65t64.5 -179zM1415 424q0 -114 -41 -218t-120.5 -171.5t-199.5 -67.5t-185.5 64.5t-65.5 178.5t41 218t123.5 172t200.5 68t182.5 -65t64.5 -179zM381 967q0 -100 70 -101q51 0 86.5 51.5
t53 121t17.5 120.5q0 100 -69 101q-50 0 -85.5 -51.5t-54 -121t-18.5 -120.5zM803 1170q0 -114 -41 -218t-120.5 -171.5t-199.5 -67.5t-186 64.5t-66 178.5t41 218t123 171.5t201 67.5t183.5 -64.5t64.5 -178.5zM98 -61l1235 1503h172l-1235 -1503h-172z" />
    <glyph glyph-name="minute" unicode="&#x2032;" horiz-adv-x="440" 
d="M156 899l180 481h258l-256 -481h-182z" />
    <glyph glyph-name="second" unicode="&#x2033;" horiz-adv-x="817" 
d="M532 899l181 481h258l-256 -481h-183zM156 899l180 481h258l-256 -481h-182z" />
    <glyph glyph-name="guilsinglleft" unicode="&#x2039;" horiz-adv-x="663" 
d="M471 111h-238l-141 417l322 402h262l-326 -418z" />
    <glyph glyph-name="guilsinglright" unicode="&#x203a;" horiz-adv-x="663" 
d="M193 930h237l141 -418l-321 -401h-262l325 417z" />
    <glyph glyph-name="exclamdbl" unicode="&#x203c;" horiz-adv-x="1175" 
d="M557 0l68 270h315l-68 -270h-315zM705 406l198 1052h348l-325 -1052h-221zM45 0l68 270h315l-68 -270h-315zM193 406l198 1052h348l-325 -1052h-221z" />
    <glyph glyph-name="interrobang" unicode="&#x203d;" horiz-adv-x="1120" 
d="M633 270l-68 -270h-315l67 270h316zM1149 996q0 -122 -67.5 -223t-239.5 -193q-115 -61 -157 -98.5t-58 -100.5h-244q18 98 43 151.5t78 99.5t164 112t146.5 113.5t35.5 109t-40 97.5t-125 36q-176 0 -226 -189h-299q95 375 442 428l23 119h331l-43 -139
q236 -76 236 -323z" />
    <glyph glyph-name="overline" unicode="&#x203e;" horiz-adv-x="1024" 
d="M268 1593l45 187h1024l-45 -187h-1024z" />
    <glyph glyph-name="fraction" unicode="&#x2044;" horiz-adv-x="303" 
d="M-449 0l1100 1380h187l-1100 -1380h-187z" />
    <glyph glyph-name="zero.superior" unicode="&#x2070;" horiz-adv-x="960" 
d="M811 1300q0 170 -104 170q-74 0 -129.5 -79.5t-84 -188t-28.5 -186.5q0 -170 104 -170q76 0 130.5 80t83 188.5t28.5 185.5zM1065 1310q0 -163 -58.5 -310.5t-174 -247t-281.5 -99.5t-253 95.5t-87 257.5t58.5 311t174 248.5t281.5 99.5t253 -96t87 -259z" />
    <glyph glyph-name="four.superior" unicode="&#x2074;" horiz-adv-x="921" 
d="M641 1063l27 106q45 176 82 285h-5q-74 -82 -233 -256l-127 -135h256zM834 874l-50 -198h-247l49 198h-475l53 216l520 552h342l-145 -579h151l-45 -189h-153z" />
    <glyph glyph-name="five.superior" unicode="&#x2075;" horiz-adv-x="923" 
d="M708 1323q116 0 191.5 -76t75.5 -203q0 -88 -54.5 -179t-159.5 -151.5t-257 -60.5t-242 63.5t-90 180.5q0 35 6 55h254q-2 -10 -2 -36t31 -49t99 -23t111.5 56t43.5 118q0 120 -113 121q-47 0 -85 -26t-56 -66l-244 14l201 581h659l-49 -202h-457l-63 -170h4
q80 53 196 53z" />
    <glyph glyph-name="six.superior" unicode="&#x2076;" horiz-adv-x="917" 
d="M719 1006q1 124 -115 124q-60 0 -104.5 -54t-44.5 -110q-1 -120 115 -120q60 0 104.5 51t44.5 109zM803 1384q0 93 -94 93q-68 0 -126.5 -57.5t-95.5 -174.5h5q90 61 212 61t196.5 -76.5t74.5 -205.5q0 -84 -50.5 -171t-146.5 -143.5t-244 -56.5t-236.5 91.5t-88.5 251.5
t60.5 312t178 254.5t276.5 102.5t246 -67.5t87 -188.5q0 -27 -2 -41h-252v16z" />
    <glyph glyph-name="seven.superior" unicode="&#x2077;" horiz-adv-x="819" 
d="M753 1088.5q-128 -199.5 -216 -412.5h-291q100 225 239.5 426t270.5 330h-510l53 210h772l-47 -202q-143 -152 -271 -351.5z" />
    <glyph glyph-name="eight.superior" unicode="&#x2078;" horiz-adv-x="921" 
d="M717 971q-1 106 -137 106q-68 0 -110 -41t-42 -88t34 -75.5t100 -28.5t110.5 38t44.5 89zM539.5 1332.5q0.5 -70.5 124.5 -70.5q64 0 103.5 36.5t39.5 81.5t-30.5 71t-94.5 26t-103.5 -37t-39 -107.5zM1051 1407q0 -86 -61.5 -156.5t-174.5 -91.5v-4q66 -23 104.5 -79
t38.5 -129t-47 -140.5t-142 -110.5t-249 -43t-250 74t-96 205q0 90 69.5 166t192.5 96v4q-59 25 -92 75t-33 115.5t47.5 129t136.5 105.5t230 42t233.5 -69.5t92.5 -188.5z" />
    <glyph glyph-name="nine.superior" unicode="&#x2079;" horiz-adv-x="917" 
d="M516 1312q0 -124 116 -124q60 0 104 54t44 110q0 120 -116 121q-60 0 -104 -51.5t-44 -109.5zM432 934q0 -92 94 -92q68 0 126.5 57t95.5 174h-5q-89 -61 -211 -61t-197 76.5t-75 205.5q0 84 50 171t146 143.5t244 56.5t237 -90.5t89 -250.5t-60.5 -313t-178 -255.5
t-276.5 -102.5t-246 67.5t-87 188.5q0 27 2 41h252v-16z" />
    <glyph glyph-name="plussuperior" unicode="&#x207a;" horiz-adv-x="845" 
d="M754 1225v-191h-234v-227h-194v227h-234v191h234v227h194v-227h234z" />
    <glyph glyph-name="uni207B" unicode="&#x207b;" horiz-adv-x="845" 
d="M92 1034v191h662v-191h-662z" />
    <glyph glyph-name="equalsuperior" unicode="&#x207c;" horiz-adv-x="845" 
d="M92 891v182h662v-182h-662zM92 1186v182h662v-182h-662z" />
    <glyph glyph-name="parenleftsuperior" unicode="&#x207d;" horiz-adv-x="514" 
d="M428 813q0 -158 29 -348h-191q-82 219 -82 432t95.5 429t287.5 413h207q-346 -467 -346 -926z" />
    <glyph glyph-name="parenrightsuperior" unicode="&#x207e;" horiz-adv-x="514" 
d="M377 1391q0 158 -29 348h191q82 -219 82 -433t-95.5 -429t-287.5 -412h-207q346 467 346 926z" />
    <glyph glyph-name="zero.inferior" unicode="&#x2080;" horiz-adv-x="960" 
d="M209 -14q0 -80 27 -124t77 -44q76 0 130 80t83 188t29 188t-27 124t-77 44q-74 0 -129 -80t-84 -188t-29 -188zM809 282q0 -162 -58 -310t-174 -247t-282 -99t-253 94q-87 95 -87 258q0 164 58 312t174 248t282 99q166 0 253 -96t87 -259z" />
    <glyph glyph-name="one.inferior" unicode="&#x2081;" horiz-adv-x="647" 
d="M47 -352l154 616h-244l45 182q129 0 203 40t110 128h228l-242 -966h-254z" />
    <glyph glyph-name="two.inferior" unicode="&#x2082;" horiz-adv-x="935" 
d="M797 380q0 -114 -80 -202q-79 -88 -233 -154t-204 -101q-50 -34 -65 -73h481l-47 -202h-790q31 188 125 296t264 184t229 124q59 47 59 97q1 95 -94 93q-117 0 -151 -141h-258q39 162 150 249q112 87 275 87t251 -71q88 -72 88 -186z" />
    <glyph glyph-name="three.inferior" unicode="&#x2083;" horiz-adv-x="925" 
d="M545 354q0 90 -111 88q-127 0 -162 -143h-252q37 160 152 249t281 89t256 -68t90 -184q0 -181 -228 -252v-2q131 -55 131 -190q0 -76 -47 -149t-141 -120t-250 -47t-251 69t-95 202q0 41 8 73h254q-6 -25 -6 -49q0 -100 125 -100q70 0 112 38t42 83q0 98 -150 98h-27
l46 188h30q92 0 143 38q50 38 50 89z" />
    <glyph glyph-name="four.inferior" unicode="&#x2084;" horiz-adv-x="919" 
d="M383 35l27 106q45 176 82 285h-5q-74 -82 -233 -256l-127 -135h256zM575 -154l-49 -198h-247l49 198h-475l53 215l520 553h342l-145 -579h151l-45 -189h-154z" />
    <glyph glyph-name="five.inferior" unicode="&#x2085;" horiz-adv-x="923" 
d="M452 295q116 0 191 -76q76 -76 76 -203q0 -88 -54 -179q-55 -91 -159 -151t-257 -60t-243 62q-90 64 -90 181q0 35 6 55h254q-2 -10 -2 -36t31 -50q31 -23 84 -22q84 0 127 56t43 118q0 120 -113 121q-47 0 -85 -26t-56 -67l-244 15l201 581h659l-49 -202h-457l-63 -170
h4q80 53 196 53z" />
    <glyph glyph-name="six.inferior" unicode="&#x2086;" horiz-adv-x="915" 
d="M461 -22q0 124 -116 124q-60 0 -104 -54t-44 -110q-1 -120 115 -120q60 0 105 51q44 51 44 109zM545 356q0 93 -106 93q-56 1 -114 -57t-96 -175h4q90 61 212 61t197 -76q75 -77 75 -206q0 -84 -50 -171q-51 -87 -147 -143t-244 -56t-236 90q-89 91 -89 251t60 313
t178 255t277 102t246 -68t87 -188q0 -27 -2 -41h-252v16z" />
    <glyph glyph-name="seven.inferior" unicode="&#x2087;" horiz-adv-x="819" 
d="M497 60q-128 -200 -216 -412h-291q100 225 239 426t271 329h-510l53 211h772l-47 -202q-143 -152 -271 -352z" />
    <glyph glyph-name="eight.inferior" unicode="&#x2088;" horiz-adv-x="921" 
d="M459 -57q-1 107 -137 107q-68 0 -110 -42q-42 -41 -42 -88t34 -76q34 -28 100 -28t111 38q44 38 44 89zM281 330q1 -97 125 -97q64 0 103 37q40 37 40 82t-31 71t-94 26t-103 -37t-40 -82zM-84 -96q0 90 70 166t192 96v4q-59 25 -92 75q-33 49 -33 115t47 129
q46 63 136 105t231 43q141 0 233 -70t93 -188q1 -86 -61 -157t-175 -91v-4q66 -23 105 -79q38 -56 38 -129t-47 -140q-107 -154 -391 -154q-154 0 -250 74t-96 205z" />
    <glyph glyph-name="nine.inferior" unicode="&#x2089;" horiz-adv-x="917" 
d="M260 284q0 -124 116 -124q60 0 104 54t44 110q0 120 -116 120q-60 0 -104 -51t-44 -109zM176 -94q0 -92 106 -92q56 0 114 57t96 174h-5q-89 -61 -211 -61t-197 76t-75 206q0 84 50 171t146 143t244 57q148 0 237 -91t89 -251q0 -161 -60 -313t-178 -254t-278 -102
q-158 0 -245 67q-87 68 -87 188q0 27 2 41h252v-16z" />
    <glyph glyph-name="uni208A" unicode="&#x208a;" horiz-adv-x="845" 
d="M754 197v-191h-234v-227h-194v227h-234v191h234v227h194v-227h234z" />
    <glyph glyph-name="uni208B" unicode="&#x208b;" horiz-adv-x="845" 
d="M92 6v191h662v-191h-662z" />
    <glyph glyph-name="uni208C" unicode="&#x208c;" horiz-adv-x="845" 
d="M92 -137v182h662v-182h-662zM92 158v182h662v-182h-662z" />
    <glyph glyph-name="uni208D" unicode="&#x208d;" horiz-adv-x="514" 
d="M172 -215q0 -158 29 -348h-191q-82 219 -82 432t96 429q95 216 287 413h207q-346 -467 -346 -926z" />
    <glyph glyph-name="uni208E" unicode="&#x208e;" horiz-adv-x="514" 
d="M119 362q0 158 -29 349h191q168 -448 -14 -862q-95 -216 -287 -412h-207q346 466 346 925z" />
    <glyph glyph-name="uni2099" unicode="&#x2099;" horiz-adv-x="911" 
d="M725 178q0 -49 -14 -104l-107 -426h-246l105 418q8 33 8 63q0 76 -82 76q-57 0 -102 -46t-68 -136l-94 -375h-246l182 729h230l-21 -76h4q98 94 214 94t177 -56q60 -56 60 -161z" />
    <glyph glyph-name="franc" unicode="&#x20a3;" 
d="M596 864h612l-63 -258h-613l-47 -188h336l-55 -219h-336l-49 -199h-301l49 199h-160l56 219h159l240 962h965l-64 -258h-663z" />
    <glyph glyph-name="lira" unicode="&#x20a4;" 
d="M1001 1026q0 141 -139 141q-166 0 -221 -219l-25 -98h250l-35 -143h-249l-21 -82h250l-35 -144h-252q-27 -94 -69.5 -149.5t-116.5 -89.5v-4h749l-59 -238h-1108l60 242q88 0 148 55t95 184h-182l35 144h184l21 82h-185l35 143h186l37 151q102 412 537 412q193 0 298 -90
t105 -252q0 -47 -12 -102h-287q6 30 6 57z" />
    <glyph glyph-name="peseta" unicode="&#x20a7;" horiz-adv-x="1832" 
d="M977 928q0 203 -229 202h-127l-111 -442h188q144 0 211.5 71.5t67.5 168.5zM1530 303q0 -88 110 -88q31 0 68 8l-57 -223q-51 -14 -113 -14q-158 0 -231.5 61.5t-73.5 198.5q0 61 22 151l107 430h-94q-45 -164 -188.5 -276.5t-381.5 -112.5h-249l-109 -438h-301l342 1380
h387q227 0 355 -89t155 -251h137l68 271h286l-67 -271h199l-54 -213h-198l-109 -436q-10 -47 -10 -88z" />
    <glyph glyph-name="Euro" unicode="&#x20ac;" 
d="M1020 981q0 188 -196 188q-102 0 -187.5 -85t-140.5 -218h452l-61 -143h-434q-8 -29 -17 -82h414l-64 -143h-358q12 -287 203 -287q86 0 154.5 58.5t103.5 160.5h289q-63 -215 -218 -339t-367 -124t-329 135.5t-123 395.5h-145l63 143h91q4 43 12 82h-109l62 143h86
q80 238 250 392.5t399 154.5t344 -101.5t115 -281.5q0 -33 -6 -74h-283v25z" />
    <glyph glyph-name="uni20B9" unicode="&#x20b9;" 
d="M258 559h-33l47 191h117q119 0 198 38.5t118 100.5h-555l92 176h483q-39 139 -246 139h-252l95 176h1067l-95 -176h-342v-4q89 -41 107 -135h250l-92 -176h-177q-39 -100 -145.5 -175t-278.5 -102v-4q72 -25 116 -81t73 -160l98 -367h-323l-82 348q-27 113 -84.5 162
t-155.5 49z" />
    <glyph glyph-name="uni20BA" unicode="&#x20ba;" 
d="M399 -16q-154 0 -321 24l123 496l-203 -98l45 184l205 98l33 137l-203 -98l45 184l205 99l92 370h301l-57 -231l385 184l-45 -184l-388 -184l-32 -138l385 185l-45 -185l-387 -184l-99 -395q195 0 317 104.5t160 306.5h312q-62 -331 -275 -503t-553 -172z" />
    <glyph glyph-name="uni20BC" unicode="&#x20bc;" horiz-adv-x="1466" 
d="M1427 797q0 -106 -32 -236l-140 -561h-270l141 569q27 104 27 201q0 201 -164 234l-250 -1004h-270l250 1010q-141 -10 -215 -94.5t-121 -272.5l-160 -643h-270l172 692q74 293 228.5 431.5t430.5 146.5l47 188h271l-49 -198q190 -29 282 -142.5t92 -320.5z" />
    <glyph glyph-name="uni20BD" unicode="&#x20bd;" 
d="M735 752q129 0 187.5 63.5t58.5 151.5q0 184 -203 184h-139l-100 -399h196zM1290 991q0 -111 -56 -219t-176 -179t-296 -71h-281l-26 -110h370l-55 -217h-371l-47 -195h-301l47 195h-161l55 217h162l26 110h-162l58 230h162l157 628h428q234 0 350.5 -102t116.5 -287z
" />
    <glyph glyph-name="uni2105" unicode="&#x2105;" horiz-adv-x="1947" 
d="M603 1227q-52 0 -93 -44q-41 -45 -63 -107q-21 -62 -21 -122t27 -95q27 -36 73 -36t84 32q37 32 54 87h256q-43 -139 -153 -221q-111 -82 -263 -82t-242 88t-90 242q0 101 52 205t154 172t254 68q150 0 240 -77q90 -76 91 -204q0 -12 -5 -37h-256q4 12 5 26
q0 105 -104 105zM352 0l1100 1380h186l-1099 -1380h-187zM1419 152q59 0 101 42q79 81 79 221t-114 140q-60 0 -101 -42q-79 -81 -79 -221t114 -140zM1855 406q0 -102 -52 -204t-153 -168q-101 -67 -256 -67t-249 89t-94 247q0 101 51 203t152 169t257 67t250 -90
q94 -89 94 -246z" />
    <glyph glyph-name="uni2113" unicode="&#x2113;" horiz-adv-x="921" 
d="M772 1098q0 133 -63 133q-39 0 -67 -39t-52 -141l-111 -445q141 78 217 218.5t76 273.5zM410 297q0 -115 112 -115q47 0 90 13l-51 -203q-61 -12 -133 -12q-158 0 -233.5 65.5t-75.5 202.5q0 61 20 135q-66 8 -98 14l39 154q41 -8 96 -12l119 475q57 223 146 311t223 88
q274 0 274 -317q0 -135 -56.5 -273.5t-171 -249t-278.5 -159.5l-10 -37q-12 -43 -12 -80z" />
    <glyph glyph-name="uni2116" unicode="&#x2116;" horiz-adv-x="2422" 
d="M1530 182l53 215h719l-53 -215h-719zM2038 682q59 0 119.5 62t60.5 201q0 140 -115 140q-59 0 -119.5 -62t-60.5 -201q0 -140 115 -140zM2474 936q0 -102 -52 -203.5t-154 -168t-256 -66.5t-248.5 89t-94.5 247q0 102 51.5 203.5t152.5 168t257 66.5t250 -89t94 -247z
M889 0l-148 592q-78 317 -135 602h-4q-68 -362 -135 -633l-139 -561h-289l362 1458h404l147 -592q55 -229 135 -602h5q55 315 135 633l139 561h289l-363 -1458h-403z" />
    <glyph glyph-name="uni2117" unicode="&#x2117;" horiz-adv-x="1642" 
d="M866 737q176 1 176 143t-176 142h-145v-285h145zM1241 878.5q0 -141.5 -88 -222.5t-260 -81h-172v-317h-193v924h365q172 0 260 -81t88 -222.5zM195 729.5q0 -192.5 77.5 -338t220 -226.5t329 -81t328.5 81t221 226.5t79 338t-79 337.5t-221 226t-328.5 81t-329 -81
t-220 -226t-77.5 -337.5zM1559 729q0 -225 -92.5 -397t-259.5 -266.5t-386 -94.5t-386 94.5t-259 266.5t-92 397t92 397t259 266.5t386 94.5t386 -94.5t259.5 -266.5t92.5 -397z" />
    <glyph glyph-name="trademark" unicode="&#x2122;" horiz-adv-x="1697" 
d="M1481 729l84 334q23 88 71 264h-4l-35 -74q-57 -125 -90 -186l-170 -338h-233l2 338l2 260h-4q-23 -117 -60 -264l-83 -334h-185l182 729h304l2 -289q0 -158 -11 -268h4q55 133 125 268l146 289h319l-182 -729h-184zM621 1288l-140 -559h-202l139 559h-217l43 170h637
l-43 -170h-217z" />
    <glyph glyph-name="Omega" unicode="&#x2126;" horiz-adv-x="1503" 
d="M145 733q1 183 91 357t268 288t435 113q257 0 408 -126q151 -127 151 -355t-107 -405q-106 -177 -320 -347v-4h303l-63 -254h-602l65 266q395 308 395 652q-1 150 -75 228t-209 79q-135 0 -237 -83t-156 -210t-54 -250t34 -220t97 -196l-65 -266h-570l64 254h311v4
q-164 238 -164 475z" />
    <glyph glyph-name="estimated" unicode="&#x212e;" horiz-adv-x="1767" 
d="M1350 717q26 0 26 24v342q0 57 -30 84q-195 193 -464 193t-462 -193q-33 -29 -33 -84v-342q0 -24 29 -24h934zM1669 672h-1253q-12 0 -20.5 -8.5t-8.5 -18.5v-342q0 -59 33 -90q190 -186 465 -186q147 0 277 62.5t212 162.5h142q-82 -115 -242 -196t-391 -81t-410.5 92.5
t-278 254t-98.5 367.5t95.5 371t275 259t419.5 94t417.5 -100.5t271.5 -270.5t94 -370z" />
    <glyph glyph-name="oneeighth" unicode="&#x215b;" horiz-adv-x="1691" 
d="M238 553l131 516h-211l39 166q113 0 177 34t95 111h209l-207 -827h-233zM125 0l1100 1380h186l-1100 -1380h-186zM1335 258q0 82 -106 82q-66 0 -101 -34q-34 -34 -34 -73t28 -61t84 -20q57 0 93 32t36 74zM1415 602q0 76 -100 78q-59 0 -93 -30t-34 -66t26 -59
q26 -21 78 -21q53 0 88 30t35 68zM1636 623q0 -73 -53 -133t-151 -76v-4q59 -20 93 -68t34 -112q0 -62 -41 -119t-125 -95q-85 -38 -223 -36q-138 0 -223 63t-85 176q0 80 60 145t170 78v4q-53 20 -83 64t-30 101t41 111t120 90q78 36 204 36t209 -62q83 -61 83 -163z" />
    <glyph glyph-name="threeeighths" unicode="&#x215c;" horiz-adv-x="1937" 
d="M676 1155q0 70 -102 71t-130 -116h-229q31 137 132 214q101 76 251 76t229 -57q80 -57 80 -159q0 -154 -196 -215v-4q115 -43 114 -160q0 -66 -42 -128q-42 -61 -125 -103t-222 -42t-224 60t-85 176q0 31 6 63h234q-4 -29 -5 -40q0 -82 107 -82q59 1 94 31t35 65
q0 80 -127 80h-25l41 168h29q76 1 118 31t42 71zM371 0l1099 1380h187l-1100 -1380h-186zM1339 233q0 -81 113 -81q57 0 93 32t36 72q0 84 -106 84q-66 0 -101 -34t-35 -73zM1661 602q0 76 -100 78q-60 0 -94 -30q-33 -30 -33 -66t26 -59q26 -21 78 -21q53 0 88 30t35 68z
M1882 623q0 -73 -53 -133t-152 -76v-4q59 -20 93 -68t34 -112q0 -62 -41 -119t-125 -95t-222 -36q-138 0 -223 63t-85 176q0 80 60 145t169 78v4q-53 20 -83 64t-30 101t42 111t120 90t204 36t209 -62q83 -61 83 -163z" />
    <glyph glyph-name="fiveeighths" unicode="&#x215d;" horiz-adv-x="1935" 
d="M358 774q0 -69 112 -69q58 0 94 45t36 96t-26 75t-70 23q-83 0 -119 -78l-223 15l174 499h586l-43 -184h-400l-53 -133h4q72 45 174 45t168 -65t66 -158q0 -195 -187 -300q-92 -53 -228 -53t-218 56t-82 157q0 23 6 48h233q-4 -12 -4 -19zM369 0l1099 1380h187
l-1100 -1380h-186zM1337 233q0 -81 113 -81q57 0 93 32t36 72q0 84 -106 84q-66 0 -101 -34t-35 -73zM1659 602q0 76 -100 78q-60 0 -94 -30q-33 -30 -33 -66t26 -59q26 -21 78 -21q53 0 88 30t35 68zM1880 623q0 -73 -53 -133t-152 -76v-4q59 -20 93 -68t34 -112
q0 -62 -41 -119t-125 -95t-222 -36q-138 0 -223 63t-85 176q0 80 60 145t169 78v4q-53 20 -83 64t-30 101t42 111t120 90t204 36t209 -62q83 -61 83 -163z" />
    <glyph glyph-name="seveneighths" unicode="&#x215e;" horiz-adv-x="1742" 
d="M642 904q-110 -169 -187 -351h-269q90 190 209 359t234 278h-443l45 190h687l-44 -182q-122 -125 -232 -294zM176 0l1100 1380h186l-1100 -1380h-186zM1145 233q0 -81 112 -81q57 0 94 31q36 32 35 75q0 82 -106 82q-65 0 -100 -34t-35 -73zM1239 584q0 -36 26 -59
q27 -21 79 -21t88 30q35 30 34 68q0 76 -100 78q-59 0 -93 -30t-34 -66zM1688 623q0 -73 -54 -133t-151 -76v-4q59 -20 93 -68t34 -112q0 -62 -41 -119t-125 -95t-222 -36q-138 0 -224 63q-85 63 -85 176q1 80 61 145t169 78v4q-53 20 -83 64t-30 101t41 111t120 90t205 36
t209 -62q83 -61 83 -163z" />
    <glyph glyph-name="Sevenroman" unicode="&#x2166;" horiz-adv-x="2539" 
d="M336 0l-90 1458h286l33 -567q16 -250 17 -471l-2 -125h4q143 313 301 596l315 567h328l-815 -1458h-377zM1305 0l362 1458h301l-362 -1458h-301zM1942 0l362 1458h301l-362 -1458h-301z" />
    <glyph glyph-name="partialdiff" unicode="&#x2202;" horiz-adv-x="1280" 
d="M352 387q0 -180 168 -180q104 0 176 61.5t107 149.5t35 169t-45 130t-135 49t-160 -61.5t-108 -150.5t-38 -167zM965 1026q0 99 -53.5 162t-155.5 63q-145 0 -191 -153h-297q43 180 168 286.5t314 106.5q233 0 353 -134.5t120 -362.5t-82 -464.5t-247 -399.5t-389 -163
t-334 114t-110 314q0 119 62.5 256t191.5 233.5t332 96.5t289 -131h4q25 77 25 176z" />
    <glyph glyph-name="Delta" unicode="&#x2206;" horiz-adv-x="1429" 
d="M952 711q-20 309 -28 569h-4q-133 -272 -302 -569l-256 -453h623zM-123 0l873 1458h405l139 -1458h-1417z" />
    <glyph glyph-name="product" unicode="&#x220f;" horiz-adv-x="1390" 
d="M924 -246v1446h-455v-1446h-301v1704h1055v-1704h-299z" />
    <glyph glyph-name="summation" unicode="&#x2211;" horiz-adv-x="1054" 
d="M983 18v-264h-911v264l360 586l-360 592v262h911v-262h-580l355 -592l-355 -586h580z" />
    <glyph glyph-name="minus" unicode="&#x2212;" horiz-adv-x="1159" 
d="M131 537v223h897v-223h-897z" />
    <glyph glyph-name="uni2215" unicode="&#x2215;" horiz-adv-x="999" 
d="M-244 -182l1030 1708h242l-1030 -1708h-242z" />
    <glyph glyph-name="uni2219" unicode="&#x2219;" horiz-adv-x="741" 
d="M213 455v342h315v-342h-315z" />
    <glyph glyph-name="radical" unicode="&#x221a;" horiz-adv-x="1312" 
d="M51 543v229h363l186 -778h4l418 1464h250l-488 -1704h-378l-185 789h-170z" />
    <glyph glyph-name="infinity" unicode="&#x221e;" horiz-adv-x="1380" 
d="M1135 630.5q0 63.5 -35 101.5t-94 38t-105.5 -36t-95.5 -103q49 -68 95 -103.5t106 -35.5t94.5 37.5t34.5 101zM375 770q-59 0 -94 -38t-35 -101.5t34 -101t94 -37.5t105 35.5t94 103.5q-49 68 -94 103.5t-104 35.5zM1350 630.5q0 -157.5 -88 -252.5t-216 -95t-208 50
t-148 136q-70 -88 -148.5 -137t-206.5 -49t-216 95t-88 252.5t88 253t216 95.5t207 -49t148 -137q68 86 148 136t190 50q146 0 234 -95.5t88 -253z" />
    <glyph glyph-name="integral" unicode="&#x222b;" horiz-adv-x="720" 
d="M219 1135q0 340 344 340q72 -1 142 -17v-203q-18 7 -74 7t-92.5 -38t-36.5 -124v-1155q0 -340 -344 -340q-72 0 -142 16v203q18 -6 52 -6q78 0 114.5 38t36.5 124v1155z" />
    <glyph glyph-name="approxequal" unicode="&#x2248;" horiz-adv-x="1159" 
d="M763 461q42 0 69.5 34.5t27.5 96.5h176q0 -154 -74.5 -247t-199.5 -93q-59 0 -107.5 23.5t-102.5 62.5t-85 55.5t-71 16.5t-68.5 -36t-28.5 -95h-176q0 154 74.5 246.5t199.5 92.5q60 0 107 -23.5t100 -61.5t85 -55t74 -17zM762 889q41 0 69.5 36t28.5 95h176
q0 -154 -74.5 -247t-199.5 -93q-59 0 -107.5 23.5t-102.5 62.5t-85 55.5t-71 16.5t-68.5 -35t-28.5 -96h-176q0 154 74.5 247t199.5 93q60 0 107 -24t100 -62t85 -55t73 -17z" />
    <glyph glyph-name="notequal" unicode="&#x2260;" horiz-adv-x="1159" 
d="M1028 565v-223h-522l-137 -240h-201l137 240h-174v223h299l96 166h-395v223h520l137 240h203l-137 -240h174v-223h-301l-94 -166h395z" />
    <glyph glyph-name="lessequal" unicode="&#x2264;" horiz-adv-x="1159" 
d="M1028 0h-897v215h897v-215zM395 707v-5l633 -213v-225l-897 303v275l897 303v-225z" />
    <glyph glyph-name="greaterequal" unicode="&#x2265;" horiz-adv-x="1159" 
d="M131 0v215h897v-215h-897zM1028 567l-897 -303v225l633 213v5l-633 213v225l897 -303v-275z" />
    <glyph glyph-name="lozenge" unicode="&#x25ca;" horiz-adv-x="1318" 
d="M659 205l283 524l-283 524l-282 -524zM850 0h-381l-387 729l387 729h381l387 -729z" />
    <glyph glyph-name="uniF8FF" unicode="&#xf8ff;" horiz-adv-x="1314" 
d="M514 133v229h262v-229h-262zM1030 1016q0 -84 -31 -142t-115 -137q-84 -78 -109 -133q-26 -55 -25 -155h-209q-2 23 -2 99t26 138q27 61 99 135t91 108q17 34 17 83t-29 78q-29 28 -88 28q-121 -1 -125 -164h-256q2 180 104 276t278 95q178 0 276 -83t98 -226zM164 1315
v-1172q0 -69 39 -107t106 -38h697q68 0 106 39t39 106v1172q0 69 -39 107t-106 38h-697q-67 0 -106 -39t-39 -106zM1282 1315v-1172q0 -127 -75 -201t-201 -75h-697q-127 0 -201 75t-75 201v1172q0 127 75 202t201 74h697q126 1 201 -74t75 -202z" />
    <glyph glyph-name="ff" unicode="&#xfb00;" horiz-adv-x="1335" 
d="M762 1475q80 0 149 -21l-49 -199q-18 6 -47 7q-80 0 -127 -41t-72 -138l-10 -43h355l28 119q78 316 410 316q79 -1 149 -21l-49 -199q-18 6 -47 7q-80 0 -127 -41t-72 -138l-10 -43h195l-54 -213h-194l-207 -827h-283l207 827h-354l-207 -827h-283l207 827h-174l54 213
h174l28 119q78 316 410 316z" />
    <glyph glyph-name="fi" unicode="&#xfb01;" horiz-adv-x="1263" 
d="M911 1454l-49 -199q-18 6 -47 7q-80 0 -127 -41t-72 -138l-10 -43h195l-53 -213h-195l-207 -827h-283l207 827h-174l54 213h174l28 119q78 316 410 316q79 -1 149 -21zM709 0l258 1040h286l-258 -1040h-286zM1010 1212l61 246h287l-62 -246h-286z" />
    <glyph glyph-name="fl" unicode="&#xfb02;" horiz-adv-x="1263" 
d="M911 1454l-49 -199q-18 6 -47 7q-80 0 -127 -41t-72 -138l-10 -43h195l-53 -213h-195l-207 -827h-283l207 827h-174l54 213h174l28 119q78 316 410 316q79 -1 149 -21zM709 0l362 1458h287l-363 -1458h-286z" />
    <glyph glyph-name="ffi" unicode="&#xfb03;" horiz-adv-x="1900" 
d="M1890 1040l-258 -1040h-286l258 1040h286zM1933 1212h-286l61 246h287zM762 1475q80 0 149 -21l-49 -199q-18 6 -47 7q-80 0 -127 -41t-72 -138l-10 -43h355l28 119q78 316 410 316q80 0 149 -21l-49 -199q-18 6 -47 7q-80 0 -127 -41t-72 -138l-10 -43h195l-54 -213
h-194l-207 -827h-283l207 827h-354l-207 -827h-283l207 827h-174l54 213h174l28 119q78 316 410 316z" />
    <glyph glyph-name="ffl" unicode="&#xfb04;" horiz-adv-x="1900" 
d="M1632 0h-286l362 1458h287zM762 1475q80 0 149 -21l-49 -199q-18 6 -47 7q-80 0 -127 -41t-72 -138l-10 -43h355l28 119q78 316 410 316q80 0 149 -21l-49 -199q-18 6 -47 7q-80 0 -127 -41t-72 -138l-10 -43h195l-54 -213h-194l-207 -827h-283l207 827h-354l-207 -827
h-283l207 827h-174l54 213h174l28 119q78 316 410 316z" />
    <glyph glyph-name="uniFEFF" unicode="&#xfeff;" horiz-adv-x="0" 
 />
    <glyph glyph-name="J.acute.loclNLD" horiz-adv-x="802" 
d="M51 -14q-84 0 -149 20l63 252q45 -10 105 -10q58 0 114 24q113 50 166 273l228 913h301l-256 -1026q-58 -229 -195 -337.5t-377 -108.5zM586 1577l219 299h366l-348 -299h-237z" />
    <glyph glyph-name="Ccedilla.ss01" horiz-adv-x="1437" 
d="M1452 1014q0 -49 -8 -90h-303q4 37 4 57q0 115 -64.5 179.5t-195.5 64.5t-238.5 -100.5t-162 -251t-54.5 -302t67.5 -245t189.5 -93.5t216 67t139 183h310q-76 -244 -257.5 -380t-434 -136t-397 159t-144.5 431q0 219 92 435t275.5 357.5t441.5 141.5q159 0 278 -59.5
t182.5 -167t63.5 -250.5zM164 -444l358 344h258l-270 -344h-346z" />
    <glyph glyph-name="Scedilla.ss01" horiz-adv-x="1290" 
d="M993 1071q0 180 -221 180q-102 0 -172 -50t-70 -123t59.5 -114.5t197 -87t217.5 -90.5q184 -103 184 -337q0 -115 -72 -226.5t-212 -183.5t-333 -72q-256 0 -397 102.5t-141 295.5q0 57 14 114h311q-8 -35 -8 -73q0 -195 256 -195q86 0 145.5 29.5t88 73.5t28.5 95
t-26.5 86t-74.5 59t-164.5 64.5t-197.5 83.5q-190 101 -190 330q0 109 69.5 215.5t205 175t319.5 68.5q500 0 500 -371q0 -47 -17 -108h-305q6 31 6 59zM49 -444l359 344h258l-271 -344h-346z" />
    <glyph glyph-name="uni0162.ss01" horiz-adv-x="1259" 
d="M950 1200l-299 -1200h-301l299 1200h-459l64 258h1219l-64 -258h-459zM18 -444l359 344h258l-270 -344h-347z" />
    <glyph glyph-name="i.loclTRK" horiz-adv-x="565" 
d="M10 0l258 1040h287l-258 -1040h-287zM311 1212l62 246h286l-61 -246h-287z" />
    <glyph glyph-name="j.acute.loclNLD" horiz-adv-x="569" 
d="M-135 -389q-88 0 -154 18l51 205q23 -6 48 -6q84 0 134 46t79 163l249 1003h287l-272 -1095q-43 -172 -155 -253t-267 -81zM272 1159l220 299h366l-348 -299h-238z" />
    <glyph glyph-name="ccedilla.ss01" horiz-adv-x="1150" 
d="M1114 688q0 -37 -4 -55h-299q4 20 4 39q0 84 -41 132t-124 48t-150.5 -70.5t-103.5 -171t-36 -199t44.5 -161t124 -62.5t142 53.5t89.5 145.5h301q-59 -190 -207.5 -305t-348.5 -115t-318.5 121t-118.5 336q0 147 69.5 297.5t207.5 251t337 100.5t315.5 -105.5
t116.5 -279.5zM14 -444l359 344h258l-271 -344h-346z" />
    <glyph glyph-name="scedilla.ss01" horiz-adv-x="1073" 
d="M311 293q0 -119 160 -119q78 0 121 31t43 83t-44 80q-43 29 -147 65q-104 35 -158 63q-128 66 -128 237q0 86 53 164t158.5 127t275.5 49t271.5 -72.5t101.5 -214.5q0 -31 -6 -65h-273q4 29 4 43q0 109 -143 108q-78 0 -114.5 -30.5t-36.5 -72.5t38.5 -68.5t143 -62.5
t165 -66.5t102.5 -91t42 -154.5t-55.5 -176t-167 -132.5t-294 -50.5t-294 75t-111.5 222q0 41 11 74h288q-6 -25 -6 -45zM-68 -444l359 344h258l-270 -344h-347z" />
    <glyph glyph-name="uni0163.ss01" horiz-adv-x="731" 
d="M428 303q0 -88 111 -88q31 0 67 8l-57 -223q-51 -14 -113 -14q-158 0 -231.5 61.5t-73.5 198.5q0 61 23 151l106 430h-168l53 213h168l68 271h287l-68 -271h199l-54 -213h-198l-109 -436q-10 -47 -10 -88zM-195 -444l359 344h258l-270 -344h-347z" />
    <glyph glyph-name="a.sups" horiz-adv-x="845" 
d="M377 887q0 -70 84 -70q125 0 166 146l10 43q-76 -5 -137 -17q-123 -20 -123 -102zM680 1194q0 80 -95 80t-116 -100h-238q25 109 122.5 181t248.5 72q307 0 307 -233q0 -43 -12 -96l-53 -215q-35 -137 -29 -207h-219q0 47 10 82h-4q-106 -100 -232 -100t-184.5 53
t-58.5 146t80 165t270 96q109 14 193 19q10 35 10 57z" />
    <glyph glyph-name="b.sups" horiz-adv-x="913" 
d="M455 976q0 -60 27.5 -97t79.5 -37t115.5 62t63.5 196q0 66 -27.5 102.5t-79.5 36.5t-93 -41t-63.5 -101.5t-22.5 -120.5zM752 1425q114 0 181.5 -76.5t67.5 -199.5t-48 -234.5t-141 -185.5t-218 -74q-68 0 -120 31t-73 86h-2l-24 -96h-238l254 1020h246l-86 -344h2
q85 73 199 73z" />
    <glyph glyph-name="c.sups" horiz-adv-x="860" 
d="M430 977q0 -139 102 -139q45 0 82 31.5t54 86.5h256q-43 -139 -152.5 -221t-262.5 -82t-243 88t-90 242q0 102 52.5 205.5t155 171t252.5 67.5t240.5 -75.5t90.5 -204.5q0 -12 -4 -37h-256q4 12 4 45t-26 59.5t-78 26.5t-93 -44t-62.5 -106.5t-21.5 -113.5z" />
    <glyph glyph-name="d.sups" horiz-adv-x="913" 
d="M432 979q0 -137 105 -137q55 0 96 40t63.5 100t22.5 122t-27.5 98.5t-79.5 36.5t-94.5 -41t-64 -101.5t-21.5 -117.5zM424 655q-117 0 -184.5 77t-67.5 200t49 234.5t142.5 185t218.5 73.5q63 0 112 -27.5t74 -76.5h2l92 375h248l-254 -1020h-238l17 61h-4
q-90 -82 -207 -82z" />
    <glyph glyph-name="e.sups" horiz-adv-x="876" 
d="M729 1174q0 38 -31.5 66t-85.5 28q-115 -1 -166 -142h281q2 10 2 48zM408 936q0 -119 116 -119q47 0 83 22.5t50 59.5h250q-45 -106 -150.5 -176t-255 -70t-236.5 88t-87 240q0 102 51.5 205.5t150.5 172t250.5 68.5t239.5 -85t88 -230q0 -51 -16 -123h-528
q-6 -30 -6 -53z" />
    <glyph glyph-name="egrave.sups" horiz-adv-x="876" 
d="M729 1174q0 38 -31.5 66t-85.5 28q-115 -1 -166 -142h281q2 10 2 48zM408 936q0 -119 116 -119q47 0 83 22.5t50 59.5h250q-45 -106 -150.5 -176t-255 -70t-236.5 88t-87 240q0 102 51.5 205.5t150.5 172t250.5 68.5t239.5 -85t88 -230q0 -51 -16 -123h-528
q-6 -30 -6 -53zM373 1696h297l106 -213h-205z" />
    <glyph glyph-name="f.sups" horiz-adv-x="536" 
d="M720 1532q-38 0 -71 -26.5t-47 -86.5l-4 -14h137l-43 -178h-139l-137 -551h-244l137 551h-119l43 178h119l19 72q62 233 321 233q62 0 123 -16l-41 -166q-16 4 -54 4z" />
    <glyph glyph-name="g.sups" horiz-adv-x="901" 
d="M436 1003q0 -54 28 -90t79 -36t89 34.5t58.5 87t20.5 107.5t-29 91t-80 36t-89 -36t-57.5 -88t-19.5 -106zM342 616q0 -63 98 -63q131 0 172 147l13 54h-2q-88 -70 -200 -70t-177.5 80t-65.5 200t45 222t131 170.5t184 68.5q176 0 226 -131h2l29 111h229l-182 -731
q-35 -139 -143.5 -209t-269.5 -70t-241.5 52.5t-80.5 146.5q0 23 4 37h231q-2 -6 -2 -15z" />
    <glyph glyph-name="h.sups" horiz-adv-x="913" 
d="M983 1206q0 -49 -14 -104l-107 -426h-246l105 418q8 33 8 63q0 76 -82 76q-57 0 -102 -46t-68 -136l-94 -375h-246l254 1020h246l-88 -350h2q92 78 200.5 77.5t170 -56.5t61.5 -161z" />
    <glyph glyph-name="i.sups" horiz-adv-x="440" 
d="M137 676l180 729h246l-180 -729h-246zM344 1505l47 191h246l-47 -191h-246z" />
    <glyph glyph-name="j.sups" horiz-adv-x="446" 
d="M78 403q-102 0 -150 17l41 168q16 -4 31 -4q61 0 98 32.5t58 116.5l168 672h245l-188 -752q-31 -127 -116 -188.5t-187 -61.5zM348 1505l47 191h246l-45 -191h-248z" />
    <glyph glyph-name="k.sups" horiz-adv-x="841" 
d="M895 676h-270l-152 342h-4l-86 -342h-246l254 1020h246l-141 -563h4l241 272h312l-357 -358z" />
    <glyph glyph-name="l.sups" horiz-adv-x="440" 
d="M137 676l254 1020h246l-254 -1020h-246z" />
    <glyph glyph-name="m.sups" horiz-adv-x="1355" 
d="M1425 1208q0 -41 -14 -108l-106 -424h-246l104 422q10 41 11 61q0 74 -74 74q-115 0 -164 -189l-92 -368h-246l107 430q8 27 8 53q0 74 -74 74q-117 0 -164 -189l-92 -368h-246l180 729h230l-17 -74h2q96 92 213 92q164 0 197 -131q119 131 264 131q105 0 162 -55
t57 -160z" />
    <glyph glyph-name="n.sups" horiz-adv-x="911" 
d="M981 1206q0 -49 -14 -104l-107 -426h-246l105 418q8 33 8 63q0 76 -82 76q-57 0 -102 -46t-68 -136l-94 -375h-246l182 729h230l-21 -76h4q98 94 214 94t176.5 -56t60.5 -161z" />
    <glyph glyph-name="o.sups" horiz-adv-x="905" 
d="M549 838q59 0 119.5 62t60.5 201q0 140 -115 140q-59 0 -119.5 -62t-60.5 -201q0 -140 115 -140zM985 1092q0 -102 -52 -204t-153.5 -168.5t-255.5 -66.5t-249 89t-95 247q0 102 51.5 203.5t152.5 168t257 66.5t250 -89t94 -246z" />
    <glyph glyph-name="p.sups" horiz-adv-x="911" 
d="M455 976q0 -62 27.5 -98t79.5 -36t93 41t63.5 101t22.5 121t-27.5 97.5t-80.5 36.5t-94 -41t-62.5 -100.5t-21.5 -121.5zM747 1425q117 0 184.5 -76.5t67.5 -199.5t-48 -234.5t-141 -185.5t-218 -74q-63 0 -112.5 27t-73.5 76h-5l-86 -346h-245l247 993h238l-16 -64h2
q89 84 206 84z" />
    <glyph glyph-name="q.sups" horiz-adv-x="915" 
d="M432 979q0 -137 105 -137q55 0 96 40t63.5 100t22.5 122t-27.5 98.5t-79.5 36.5t-94.5 -41t-64 -101.5t-21.5 -117.5zM423 655q-116 0 -183.5 77t-67.5 200t49 234.5t142.5 185t218.5 73.5q65 0 117.5 -30.5t72.5 -87.5h4l25 98h235l-245 -993h-246l78 317h-2
q-82 -74 -198 -74z" />
    <glyph glyph-name="r.sups" horiz-adv-x="624" 
d="M707 1204q-92 0 -156 -55t-88 -160l-80 -313h-246l180 729h228l-21 -90h2q102 100 238 100q42 0 67 -8l-49 -211q-33 8 -75 8z" />
    <glyph glyph-name="s.sups" horiz-adv-x="811" 
d="M393 883q1 -70 101 -70t100 66q0 31 -31 48t-107 41t-145 60t-69 156q0 61 40 117.5t120.5 91t197.5 34.5q303 0 303 -194q0 -33 -6 -49h-233q4 16 4 26q0 63 -88 64q-47 0 -70 -18t-23 -42t27 -41.5t120 -48.5t154.5 -77t61.5 -127t-42 -138t-126 -93t-207 -36
q-334 0 -334 205q0 29 9 55h247q-4 -12 -4 -30z" />
    <glyph glyph-name="t.sups" horiz-adv-x="557" 
d="M481 920q0 -62 78 -62q27 0 49 6l-47 -188q-53 -12 -96 -12q-123 0 -181.5 48t-58.5 152q0 43 17 109l63 254h-117l43 178h119l49 197h244l-49 -197h141l-43 -178h-143l-62 -248q-6 -31 -6 -59z" />
    <glyph glyph-name="u.sups" horiz-adv-x="913" 
d="M190 874q0 49 15 105l106 426h246l-104 -418q-8 -33 -9 -63q0 -76 82 -76q57 0 102.5 46t67.5 136l95 375h245l-182 -729h-229l20 76h-4q-98 -94 -214 -94t-176.5 56t-60.5 160z" />
    <glyph glyph-name="v.sups" horiz-adv-x="792" 
d="M270 676l-59 729h246l6 -262l2 -127q0 -59 -4 -182h4q61 152 141 309l139 262h277l-424 -729h-328z" />
    <glyph glyph-name="w.sups" horiz-adv-x="1253" 
d="M782 676l9 270q8 207 14 305h-4q-47 -141 -125 -305l-127 -270h-336l14 729h230l-21 -266q-10 -170 -26 -308h4q66 166 135 310l127 264h319l-4 -264q0 -156 -12 -310h4q43 137 119 308l115 266h249l-348 -729h-336z" />
    <glyph glyph-name="x.sups" horiz-adv-x="790" 
d="M838 676h-258l-74 221h-4l-168 -221h-303l350 383l-154 346h258l66 -199h4l145 199h301l-327 -365z" />
    <glyph glyph-name="y.sups" horiz-adv-x="792" 
d="M175 401q-83 0 -132 13l45 184q30 -10 82 -10t90.5 34t38.5 74t-12 123l-76 586h246l14 -244l2 -71q4 -94 4 -148t-2 -84h2q68 156 144 303l127 244h274l-432 -715q-70 -112 -130.5 -173.5t-131 -88.5t-153.5 -27z" />
    <glyph glyph-name="z.sups" horiz-adv-x="735" 
d="M436 864h344l-45 -188h-655l49 198l420 338v5h-322l47 188h631l-49 -199l-420 -338v-4z" />
    <glyph glyph-name="a.smcp" horiz-adv-x="1200" 
d="M741 532q-16 211 -22 398h-4q-86 -184 -205 -398l-39 -69h274zM334 219l-123 -219h-334l676 1122h393l119 -1122h-293l-12 219h-426z" />
    <glyph glyph-name="aacute.smcp" horiz-adv-x="1200" 
d="M741 532q-16 211 -22 398h-4q-86 -184 -205 -398l-39 -69h274zM334 219l-123 -219h-334l676 1122h393l119 -1122h-293l-12 219h-426zM586 1241l219 299h366l-348 -299h-237z" />
    <glyph glyph-name="abreve.smcp" horiz-adv-x="1200" 
d="M741 532q-16 211 -22 398h-4q-86 -184 -205 -398l-39 -69h274zM334 219l-123 -219h-334l676 1122h393l119 -1122h-293l-12 219h-426zM776.5 1231q-149.5 0 -227.5 66.5t-78 185.5q0 16 4 57h170q-2 -10 -2 -27q0 -49 36 -76.5t105.5 -27.5t120.5 35t68 96h219
q-41 -147 -153.5 -228t-262 -81z" />
    <glyph glyph-name="acircumflex.smcp" horiz-adv-x="1200" 
d="M741 532q-16 211 -22 398h-4q-86 -184 -205 -398l-39 -69h274zM334 219l-123 -219h-334l676 1122h393l119 -1122h-293l-12 219h-426zM903 1241l-86 156l-162 -156h-282l307 299h305l160 -299h-242z" />
    <glyph glyph-name="adieresis.smcp" horiz-adv-x="1200" 
d="M741 532q-16 211 -22 398h-4q-86 -184 -205 -398l-39 -69h274zM334 219l-123 -219h-334l676 1122h393l119 -1122h-293l-12 219h-426zM868 1294l62 246h252l-62 -246h-252zM424 1294l61 246h252l-61 -246h-252z" />
    <glyph glyph-name="agrave.smcp" horiz-adv-x="1200" 
d="M741 532q-16 211 -22 398h-4q-86 -184 -205 -398l-39 -69h274zM334 219l-123 -219h-334l676 1122h393l119 -1122h-293l-12 219h-426zM934 1241h-213l-225 299h342z" />
    <glyph glyph-name="amacron.smcp" horiz-adv-x="1200" 
d="M741 532q-16 211 -22 398h-4q-86 -184 -205 -398l-39 -69h274zM334 219l-123 -219h-334l676 1122h393l119 -1122h-293l-12 219h-426zM442 1307l45 186h668l-45 -186h-668z" />
    <glyph glyph-name="aogonek.smcp" horiz-adv-x="1200" 
d="M741 532q-16 211 -22 398h-4q-86 -184 -205 -398l-39 -69h274zM621 -250q0 136 219 250h-68l-12 219h-426l-123 -219h-334l676 1122h393l119 -1122q-106 -63 -146 -109.5t-40 -90.5t50 -44t83 13l-39 -154q-66 -18 -142 -18q-210 0 -210 153z" />
    </font>
</defs>
</svg>
