<?xml version="1.0" standalone="no"?>
<!DOCTYPE svg PUBLIC "-//W3C//DTD SVG 1.1//EN" "http://www.w3.org/Graphics/SVG/1.1/DTD/svg11.dtd" >
<svg xmlns="http://www.w3.org/2000/svg">
<metadata>
Created by FontPrep 20130207 at Sat Mar 12 16:03:41 2016
 By Matthew Higley
Copyright (c) 2015 Monotype Imaging Inc.  All rights reserved.
</metadata>
<defs>
<font id="5c2019fefd59d9a172e06647e11c7a4d" horiz-adv-x='1024' >
  <font-face 
    font-family="NeueHaasUnicaW1G-Light"
    font-weight="350"
    font-stretch="normal"
    units-per-em="2048"
    panose-1="2 11 4 4 3 2 6 2 2 3"
    ascent="1565"
    descent="-483"
    x-height="1040"
    cap-height="1458"
    bbox="-1024 -563 2230 2216"
    underline-thickness="102"
    underline-position="-153"
    unicode-range="U+0020-FEFF"
  />
<missing-glyph horiz-adv-x="1257" 
d="M508 133v166h158v-166h-158zM958 1026q0 -90 -32.5 -150t-117.5 -132t-113.5 -111t-39 -89t-10.5 -147h-117v52q0 88 13.5 143t47.5 101t103 110q82 72 104.5 115.5t22.5 117.5t-53.5 121t-151.5 47t-155.5 -56t-63.5 -163h-129q8 166 100 252t248 86t250 -82t94 -215z
M131 1329v-1200q0 -82 48 -130t130 -48h639q82 0 130 48t48 130v1200q0 82 -48 130t-130 48h-639q-82 0 -130 -48t-48 -130zM1210 1329v-1200q0 -121 -70.5 -191.5t-191.5 -70.5h-639q-121 0 -191.5 70.5t-70.5 191.5v1200q0 121 70.5 191.5t191.5 70.5h639
q121 0 191.5 -70.5t70.5 -191.5z" />
    <glyph glyph-name="f_f" unicode="ff" horiz-adv-x="1107" 
d="M864 1174v-134h209v-106h-209v-934h-127v934h-393v-934h-127v934h-186v106h186v146q0 281 256 280q41 0 86 -8v-108q-29 8 -65 8q-76 0 -113 -43t-37 -141v-134h393v146q0 281 256 280q43 0 84 -8v-108q-29 8 -63 8q-76 0 -113 -43t-37 -141z" />
    <glyph glyph-name="f_f_i" unicode="ffi" horiz-adv-x="1574" 
d="M1405 1040v-1040h-127v1040h127zM1405 1278h-127v180h127v-180zM993 1466q43 0 84 -8v-108q-29 8 -63 8q-76 0 -113 -43t-37 -141v-134h209v-106h-209v-934h-127v934h-393v-934h-127v934h-186v106h186v146q0 281 256 280q41 0 86 -8v-108q-29 8 -65 8q-76 0 -113 -43
t-37 -141v-134h393v146q0 280 256 280z" />
    <glyph glyph-name="f_f_l" unicode="ffl" horiz-adv-x="1574" 
d="M864 1174v-134h209v-106h-209v-934h-127v934h-393v-934h-127v934h-186v106h186v146q0 281 256 280q41 0 86 -8v-108q-29 8 -65 8q-76 0 -113 -43t-37 -141v-134h393v146q0 281 256 280q43 0 84 -8v-108q-29 8 -63 8q-76 0 -113 -43t-37 -141zM1278 0v1458h127v-1458h-127
z" />
    <glyph glyph-name="f_i" unicode="fi" horiz-adv-x="1056" 
d="M885 1040v-1040h-127v1040h127zM885 1278h-127v180h127v-180zM473 1466q41 0 86 -8v-108q-29 8 -65 8q-76 0 -113 -43t-37 -141v-134h211v-106h-211v-934h-127v934h-186v106h186v146q0 280 256 280z" />
    <glyph glyph-name="f_l" unicode="fl" horiz-adv-x="1056" 
d="M344 1174v-134h211v-106h-211v-934h-127v934h-186v106h186v146q0 281 256 280q41 0 86 -8v-108q-29 8 -65 8q-76 0 -113 -43t-37 -141zM758 0v1458h127v-1458h-127z" />
    <glyph glyph-name=".notdef" horiz-adv-x="1257" 
d="M508 133v166h158v-166h-158zM958 1026q0 -90 -32.5 -150t-117.5 -132t-113.5 -111t-39 -89t-10.5 -147h-117v52q0 88 13.5 143t47.5 101t103 110q82 72 104.5 115.5t22.5 117.5t-53.5 121t-151.5 47t-155.5 -56t-63.5 -163h-129q8 166 100 252t248 86t250 -82t94 -215z
M131 1329v-1200q0 -82 48 -130t130 -48h639q82 0 130 48t48 130v1200q0 82 -48 130t-130 48h-639q-82 0 -130 -48t-48 -130zM1210 1329v-1200q0 -121 -70.5 -191.5t-191.5 -70.5h-639q-121 0 -191.5 70.5t-70.5 191.5v1200q0 121 70.5 191.5t191.5 70.5h639
q121 0 191.5 -70.5t70.5 -191.5z" />
    <glyph glyph-name=".null" horiz-adv-x="0" 
 />
    <glyph glyph-name="nonmarkingreturn" horiz-adv-x="681" 
 />
    <glyph glyph-name="NULL" horiz-adv-x="1228" 
 />
    <glyph glyph-name="NULL" horiz-adv-x="1228" 
 />
    <glyph glyph-name="space" unicode=" " horiz-adv-x="471" 
 />
    <glyph glyph-name="exclam" unicode="!" horiz-adv-x="514" 
d="M176 0v190h162v-190h-162zM205 336l-33 1122h170l-33 -1122h-104z" />
    <glyph glyph-name="quotedbl" unicode="&#x22;" horiz-adv-x="696" 
d="M166 930l-21 528h134l-21 -528h-92zM438 930l-20 528h133l-21 -528h-92z" />
    <glyph glyph-name="numbersign" unicode="#" horiz-adv-x="1304" 
d="M518 879l-59 -371h329l60 371h-330zM899 508h260l-16 -100h-258l-66 -408h-110l65 408h-330l-65 -408h-113l66 408h-260l16 100h258l60 371h-261l17 100h260l63 401h113l-63 -401h329l64 401h110l-63 -401h258l-16 -100h-259z" />
    <glyph glyph-name="dollar" unicode="$" horiz-adv-x="1114" 
d="M881 340q0 100 -32 150.5t-86 79t-151 57.5v-533q129 10 199 78t70 168zM258 1047q0 -109 57.5 -160t186.5 -88v487q-244 -18 -244 -239zM612 -203h-110v178q-199 16 -303.5 137t-106.5 339h139q0 -321 271 -355v561q-121 35 -252 99t-131 291q0 158 101.5 253t281.5 105
v160h110v-160q385 -31 385 -451h-137q0 160 -60.5 239t-187.5 91v-514q137 -39 272.5 -105t135.5 -307q0 -163 -108.5 -266.5t-299.5 -116.5v-178z" />
    <glyph glyph-name="percent" unicode="%" horiz-adv-x="1722" 
d="M1161 354q0 -131 44 -200.5t124 -69.5t125 69.5t45 199.5t-45 202t-125 72t-124 -71t-44 -202zM1630 354.5q0 -182.5 -77.5 -282t-223 -99.5t-223.5 99.5t-78 282t78 281.5t223.5 99t223 -99t77.5 -281.5zM225 1024q0 -131 44 -200.5t124 -69.5t125 70.5t45 200.5
t-45 200.5t-125 70.5t-124 -70.5t-44 -201.5zM694 1025q0 -183 -78.5 -281.5t-222 -98.5t-222.5 98.5t-79 281.5t78 282.5t223.5 99.5t223 -99.5t77.5 -282.5zM414 -61l772 1503h125l-774 -1503h-123z" />
    <glyph glyph-name="ampersand" unicode="&#x26;" horiz-adv-x="1482" 
d="M262 404q0 -100 71 -207t293 -107t380 186l-469 469q-154 -76 -214.5 -158.5t-60.5 -182.5zM406 1184q0 -82 34.5 -141.5t139.5 -165.5q141 70 191 137.5t50 157.5t-54.5 144t-152.5 54t-153 -52t-55 -134zM1311 813q0 -302 -140 -520l295 -293h-184l-190 190
q-88 -104 -210 -161.5t-266 -57.5t-256 53.5t-174.5 146.5t-62.5 214q0 280 336 440q-104 109 -141 180.5t-37 170.5q0 137 93.5 223t241.5 86t239 -86t91 -218t-63.5 -217t-223.5 -165l418 -414q100 178 101 428h133z" />
    <glyph glyph-name="quotesingle" unicode="'" horiz-adv-x="423" 
d="M166 930l-21 528h134l-21 -528h-92z" />
    <glyph glyph-name="parenleft" unicode="(" horiz-adv-x="561" 
d="M254 608q0 -254 59.5 -469t186.5 -440h-117q-135 207 -202.5 425t-67.5 484t67.5 484.5t202.5 425.5h117q-127 -226 -186.5 -441t-59.5 -469z" />
    <glyph glyph-name="parenright" unicode=")" horiz-adv-x="561" 
d="M449 608q0 -266 -67 -484t-202 -425h-119q129 223 187.5 438t58.5 471t-58.5 471t-187.5 439h119q135 -207 202 -425.5t67 -484.5z" />
    <glyph glyph-name="asterisk" unicode="*" horiz-adv-x="815" 
d="M700 1290l45 -135l-274 -47l186 -201l-114 -88l-135 250l-136 -250l-116 88l186 201l-272 47l45 135l256 -114l-33 282h139l-33 -282z" />
    <glyph glyph-name="plus" unicode="+" horiz-adv-x="1159" 
d="M1008 707v-117h-371v-369h-115v369h-370v117h370v370h115v-370h371z" />
    <glyph glyph-name="comma" unicode="," horiz-adv-x="430" 
d="M127 0v188h176v-188l-84 -266h-92l61 266h-61z" />
    <glyph glyph-name="hyphen" unicode="-" horiz-adv-x="593" 
d="M61 535v127h471v-127h-471z" />
    <glyph glyph-name="period" unicode="." horiz-adv-x="430" 
d="M127 0v188h176v-188h-176z" />
    <glyph glyph-name="slash" unicode="/" horiz-adv-x="905" 
d="M61 -182l609 1708h131l-608 -1708h-132z" />
    <glyph glyph-name="zero" unicode="0" horiz-adv-x="1114" 
d="M223 690q0 -291 85 -443.5t249 -152.5t249 152.5t85 443.5t-85 441.5t-249 150.5t-249 -150.5t-85 -441.5zM1030 691q0 -349 -122 -533.5t-352 -184.5t-352 184.5t-122 533.5t122 532.5t353 183.5t352 -183.5t121 -532.5z" />
    <glyph glyph-name="one" unicode="1" horiz-adv-x="1114" 
d="M520 0v1042h-297v109q158 0 230.5 52t93.5 177h106v-1380h-133z" />
    <glyph glyph-name="two" unicode="2" horiz-adv-x="1114" 
d="M975 1026q0 -113 -48 -195.5t-129 -145t-220 -143.5t-213 -147.5t-101.5 -129t-27.5 -144.5h770v-121h-906q-2 14 -2 39q0 139 31 233.5t119 183.5t236 175t250 162t102 233q0 115 -77 185.5t-211 70.5t-208 -76t-84 -217h-139q8 195 128 306.5t312 111.5q123 0 218 -48
t147.5 -134t52.5 -199z" />
    <glyph glyph-name="three" unicode="3" horiz-adv-x="1114" 
d="M739 705q262 -89 262 -335q0 -243 -162.5 -320t-295.5 -77q-211 0 -330 114t-119 312h139q0 -150 79.5 -226.5t225.5 -76.5t235 74t89 200t-92 198.5t-264 72.5h-60v121h60q156 0 245 71.5t89 190.5t-84 189.5t-222 70.5t-215 -74.5t-77 -220.5h-138q0 197 118 307.5
t318.5 110.5t318.5 -101.5t118 -269.5q0 -125 -58.5 -203.5t-179.5 -123.5v-4z" />
    <glyph glyph-name="four" unicode="4" horiz-adv-x="1114" 
d="M688 496v741h-4l-506 -741h510zM817 379v-379h-131v379h-641v131l596 870h176v-884h244v-117h-244z" />
    <glyph glyph-name="five" unicode="5" horiz-adv-x="1114" 
d="M561 903q201 0 319.5 -123t118.5 -331q0 -143 -56 -251t-160.5 -166.5t-241.5 -58.5q-193 0 -308.5 104.5t-115.5 284.5h137q2 -125 81 -195.5t215 -70.5t223 94t87 252t-83 248t-210 90q-248 0 -307 -221l-135 10l76 811h737v-120h-621l-43 -478h5q45 57 120.5 89
t161.5 32z" />
    <glyph glyph-name="six" unicode="6" horiz-adv-x="1114" 
d="M258 439q0 -153 84 -248t225 -95t226.5 95t85.5 249t-85 246t-222.5 92t-225.5 -93t-88 -246zM569 -27q-467 1 -467 685q0 352 127 550.5t361 198.5q174 0 280.5 -98.5t126.5 -272.5h-139q-47 248 -268 248q-166 0 -260 -144.5t-101 -432.5h4q125 192 353 192
q127 0 225 -56.5t152.5 -159.5t54.5 -241t-56.5 -244t-159 -165.5t-233.5 -59.5z" />
    <glyph glyph-name="seven" unicode="7" horiz-adv-x="1114" 
d="M88 1260v120h918v-123q-367 -529 -517 -1257h-151q176 743 522 1260h-772z" />
    <glyph glyph-name="eight" unicode="8" horiz-adv-x="1114" 
d="M236 374q0 -124 88 -200t232 -76t233.5 77t89.5 200t-90.5 199.5t-231.5 76.5t-231 -76.5t-90 -200.5zM260 1029q0 -116 81 -186.5t216 -70.5t215 70.5t80 186.5t-82 185.5t-214 69.5t-214 -69.5t-82 -185.5zM123 977q0 162 56.5 248t154.5 134t223 48t223.5 -48
t154.5 -134t56 -247.5t-237 -260.5v-4q264 -88 264 -338q0 -119 -58.5 -210t-164 -141.5t-239.5 -50.5t-238.5 50.5t-163 141.5t-58.5 210q0 249 262 338v4q-235 98 -235 260z" />
    <glyph glyph-name="nine" unicode="9" horiz-adv-x="1114" 
d="M852 941q0 153 -83 248t-224 95t-226.5 -95t-85.5 -249t84.5 -246t222.5 -92t225 93t87 246zM543 1407q467 0 467 -684q0 -352 -128 -551t-362 -199q-174 0 -280.5 98.5t-126.5 272.5h139q47 -248 270 -248q166 0 259 144.5t100 433.5h-4q-121 -193 -353 -193
q-127 0 -225 57.5t-152.5 160t-54.5 239.5t56.5 243.5t159 166t235.5 59.5z" />
    <glyph glyph-name="colon" unicode=":" horiz-adv-x="430" 
d="M127 0v188h176v-188h-176zM127 852v188h176v-188h-176z" />
    <glyph glyph-name="semicolon" unicode=";" horiz-adv-x="430" 
d="M127 0v188h176v-188l-84 -266h-92l61 266h-61zM127 852v188h176v-188h-176z" />
    <glyph glyph-name="less" unicode="&#x3c;" horiz-adv-x="1159" 
d="M272 651v-4l736 -309v-127l-856 360v156l856 360v-126z" />
    <glyph glyph-name="equal" unicode="=" horiz-adv-x="1159" 
d="M152 434v115h856v-115h-856zM152 748v114h856v-114h-856z" />
    <glyph glyph-name="greater" unicode="&#x3e;" horiz-adv-x="1159" 
d="M1008 571l-856 -360v127l735 309v4l-735 310v126l856 -360v-156z" />
    <glyph glyph-name="question" unicode="?" horiz-adv-x="1026" 
d="M391 0v190h160v-190h-160zM944 1136q0 -92 -25.5 -170t-199.5 -223q-84 -70 -123 -120t-52.5 -116.5t-13.5 -189.5h-118v60q0 113 17 182.5t62.5 127.5t129.5 131t120.5 118t50 85t13.5 97q0 113 -79 179.5t-216 66.5t-218 -75t-89 -218h-131q10 201 125.5 307.5
t318.5 106.5q125 0 222.5 -46t151.5 -128.5t54 -174.5z" />
    <glyph glyph-name="at" unicode="@" horiz-adv-x="1771" 
d="M614 544q0 -128 52 -200t156 -72t178.5 108.5t74.5 324.5q0 117 -49 181t-134 64t-146.5 -49t-96.5 -139t-35 -218zM1663 696q0 -194 -51 -309t-136 -171t-188 -56q-186 0 -213 190h-4q-88 -190 -289 -190q-137 0 -216 102.5t-80 271.5t48.5 283.5t136.5 179t197 64.5
q182 0 248 -172h4q10 76 27 151h119q-37 -172 -61.5 -347t-24.5 -259q0 -166 127 -166q102 0 170.5 101t68.5 295t-78.5 337.5t-224 221t-347.5 77.5t-355.5 -97t-233.5 -264t-80 -374t80 -356.5t225.5 -228t341.5 -78.5q266 0 453 116l51 -94q-213 -131 -504 -131
q-231 0 -404 92t-266 266.5t-93 410.5t95 429t275.5 305.5t416.5 112.5t407.5 -92t264.5 -259.5t93 -361.5z" />
    <glyph glyph-name="A" unicode="A" horiz-adv-x="1359" 
d="M973 594l-291 756h-4l-25 -64q-106 -281 -209 -541l-59 -151h588zM338 471l-182 -471h-144l578 1458h182l576 -1458h-144l-182 471h-684z" />
    <glyph glyph-name="B" unicode="B" horiz-adv-x="1259" 
d="M676 117q346 0 346 286q0 135 -92 209t-289 74h-301v-569h336zM340 803h301q184 0 269 71.5t85 196.5q0 270 -348 270h-307v-538zM1130 1090q0 -121 -61 -210t-176 -130v-5q123 -31 195.5 -123t72.5 -221q0 -184 -124 -292.5t-345 -108.5h-485v1458h452q234 0 352.5 -99
t118.5 -269z" />
    <glyph glyph-name="C" unicode="C" horiz-adv-x="1398" 
d="M734 1360q-165 0 -274.5 -76t-168 -218t-58.5 -336.5t58.5 -337t167 -218.5t271.5 -76t281.5 107.5t143.5 290.5h139q-16 -158 -90 -276t-199.5 -182.5t-302.5 -64.5t-317.5 91.5t-216.5 261.5t-76 403.5t76 403.5t217 261t321.5 91t306.5 -66.5t195.5 -183.5t77.5 -264
h-139q-16 178 -132 283.5t-281 105.5z" />
    <glyph glyph-name="D" unicode="D" horiz-adv-x="1470" 
d="M340 121h293q291 0 447.5 157.5t156.5 450.5t-156.5 450.5t-447.5 157.5h-293v-1216zM1378 729q0 -350 -194.5 -539.5t-550.5 -189.5h-426v1458h426q356 0 550.5 -189.5t194.5 -539.5z" />
    <glyph glyph-name="E" unicode="E" horiz-adv-x="1249" 
d="M340 1337v-528h735v-121h-735v-567h799v-121h-932v1458h907v-121h-774z" />
    <glyph glyph-name="F" unicode="F" horiz-adv-x="1163" 
d="M340 1337v-551h709v-120h-709v-666h-133v1458h887v-121h-754z" />
    <glyph glyph-name="G" unicode="G" horiz-adv-x="1482" 
d="M748 1360q-167 0 -280.5 -77t-174 -220t-60.5 -338t58.5 -336t167 -216t258.5 -75q207 0 333 130t126 413h-428v121h557v-762h-125v223h-4q-55 -113 -184.5 -180.5t-302.5 -67.5t-310 90.5t-212 259.5t-75 401t78 403t223.5 263.5t324.5 92.5t302 -56.5t196.5 -160
t86.5 -240.5h-140q-27 158 -137.5 245t-277.5 87z" />
    <glyph glyph-name="H" unicode="H" horiz-adv-x="1497" 
d="M1157 0v696h-817v-696h-133v1458h133v-641h817v641h133v-1458h-133z" />
    <glyph glyph-name="I" unicode="I" horiz-adv-x="546" 
d="M207 0v1458h133v-1458h-133z" />
    <glyph glyph-name="J" unicode="J" horiz-adv-x="690" 
d="M115 117q245 0 245 282v1059h136v-1063q0 -200 -98.5 -301.5t-280.5 -101.5q-49 0 -86 10v123q43 -8 84 -8z" />
    <glyph glyph-name="K" unicode="K" horiz-adv-x="1243" 
d="M340 731v-731h-133v1458h133v-665h4l643 665h180l-678 -696l744 -762h-186l-703 731h-4z" />
    <glyph glyph-name="L" unicode="L" horiz-adv-x="1132" 
d="M1112 121v-121h-905v1458h133v-1337h772z" />
    <glyph glyph-name="M" unicode="M" horiz-adv-x="1861" 
d="M1522 0v748q0 377 2 565h-4l-512 -1313h-156l-510 1313h-4q2 -188 2 -565v-748h-133v1458h215l289 -745l217 -570h4l508 1315h215v-1458h-133z" />
    <glyph glyph-name="N" unicode="N" horiz-adv-x="1525" 
d="M340 0h-133v1458h203l594 -1014q119 -209 180 -311h4q-2 244 -2 729v596h133v-1458h-203l-594 1014q-119 209 -180 311h-4l2 -729v-596z" />
    <glyph glyph-name="O" unicode="O" horiz-adv-x="1482" 
d="M233 729.5q0 -190.5 62.5 -334t177.5 -220.5t268.5 -77t268 78t177 220.5t62.5 333t-62.5 332.5t-177 220t-268 78t-268.5 -77t-177.5 -220t-62.5 -333.5zM1389 729q0 -229 -79 -399t-225.5 -263.5t-343 -93.5t-343 93.5t-226.5 264.5t-80 398t80 398t226.5 264.5
t343 93.5t343 -93.5t225.5 -263.5t79 -399z" />
    <glyph glyph-name="P" unicode="P" horiz-adv-x="1241" 
d="M340 729h340q176 0 268 80t92 224t-92 224t-268 80h-340v-608zM1180 1034.5q0 -196.5 -129 -311.5t-369 -115h-342v-608h-133v1458h475q240 0 369 -113.5t129 -310z" />
    <glyph glyph-name="Q" unicode="Q" horiz-adv-x="1480" 
d="M1247 729q0 190 -61.5 332.5t-173.5 220.5t-266 78t-271 -78t-179.5 -220t-62.5 -332.5t62.5 -334t179.5 -220.5t273 -77t272 84l-186 201l92 86l186 -201q135 172 135 461zM1386 729q0 -354 -182 -561l162 -172l-92 -88l-162 176q-156 -111 -360 -111t-351 93.5
t-228 263.5t-81 399t81 399t228.5 263.5t344.5 93.5t341 -93.5t221.5 -263.5t77.5 -399z" />
    <glyph glyph-name="R" unicode="R" horiz-adv-x="1284" 
d="M340 764h303q176 0 265 82t89 217q0 274 -364 274h-293v-573zM1135 1069q0 -141 -78 -240.5t-205 -126.5v-4q80 -25 124 -81t93 -191l154 -426h-146l-139 406q-47 135 -110.5 186t-186.5 51h-301v-643h-133v1458h428q252 0 376 -100.5t124 -288.5z" />
    <glyph glyph-name="S" unicode="S" horiz-adv-x="1226" 
d="M1085 1006h-135q0 358 -372 358q-154 0 -238 -70.5t-84 -193.5q0 -156 156 -220q76 -32 227.5 -69t251.5 -80q221 -95 221 -342q0 -190 -134 -303t-374 -113t-376 131.5t-136 380.5h133q0 -199 102.5 -294t282.5 -95t273.5 76t93.5 215q0 88 -42 140.5t-121 84
t-232.5 70.5t-251.5 82q-210 92 -209 331q-1 239 211 341q104 50 246 49q251 0 379 -121t128 -358z" />
    <glyph glyph-name="T" unicode="T" horiz-adv-x="1212" 
d="M672 1337v-1337h-133v1337h-519v121h1172v-121h-520z" />
    <glyph glyph-name="U" unicode="U" horiz-adv-x="1431" 
d="M717 -27q-254 0 -388 145.5t-134 422.5v917h133v-915q0 -221 101 -333t286.5 -112t287 112t101.5 333v915h133v-917q0 -279 -133 -423.5t-387 -144.5z" />
    <glyph glyph-name="V" unicode="V" horiz-adv-x="1263" 
d="M543 0l-529 1458h142l475 -1329h4l225 639l248 690h141l-526 -1458h-180z" />
    <glyph glyph-name="W" unicode="W" horiz-adv-x="1835" 
d="M1247 0l-164 666q-111 446 -163 669h-5q-53 -223 -163 -669l-164 -666h-209l-356 1458h135l151 -620q59 -238 174 -713h4l328 1333h205l328 -1333h4l325 1333h135l-356 -1458h-209z" />
    <glyph glyph-name="X" unicode="X" horiz-adv-x="1263" 
d="M1243 0h-164l-446 641h-4l-447 -641h-162l529 752l-500 706h162l418 -598h4l420 598h161l-499 -706z" />
    <glyph glyph-name="Y" unicode="Y" horiz-adv-x="1232" 
d="M684 0h-135v623l-539 835h158l446 -706h4q164 262 248 391l199 315h158l-539 -835v-623z" />
    <glyph glyph-name="Z" unicode="Z" horiz-adv-x="1142" 
d="M188 121h918v-121h-1071v139l878 1194v4h-860v121h1014v-139l-879 -1194v-4z" />
    <glyph glyph-name="bracketleft" unicode="[" horiz-adv-x="575" 
d="M287 1419v-1624h248v-98h-373v1821h373v-99h-248z" />
    <glyph glyph-name="backslash" unicode="\" horiz-adv-x="905" 
d="M844 -182h-131l-609 1708h132z" />
    <glyph glyph-name="bracketright" unicode="]" horiz-adv-x="575" 
d="M414 -303h-373v98h248v1624h-248v99h373v-1821z" />
    <glyph glyph-name="asciicircum" unicode="^" horiz-adv-x="872" 
d="M725 760l-287 594h-4l-287 -594h-120l340 698h139l340 -698h-121z" />
    <glyph glyph-name="underscore" unicode="_" horiz-adv-x="1024" 
d="M0 -180v78h1024v-78h-1024z" />
    <glyph glyph-name="grave" unicode="`" horiz-adv-x="561" 
d="M459 1169h-121l-236 289h172z" />
    <glyph glyph-name="a" unicode="a" horiz-adv-x="1073" 
d="M211 285q0 -90 64.5 -144.5t158.5 -54.5q173 0 260 92q55 57 76 113.5t21 157.5v79q-418 -28 -519 -106q-61 -47 -61 -137zM913 668v-412q0 -147 23 -256h-119q-14 70 -14 158h-4q-106 -178 -371 -178q-158 0 -255 83.5t-97 216t89 208.5q133 113 626 147v49
q0 139 -72 206.5t-197 67.5t-194.5 -62t-75.5 -169h-133q10 152 115.5 246t289 94t286.5 -100.5t103 -298.5z" />
    <glyph glyph-name="b" unicode="b" horiz-adv-x="1157" 
d="M291 522.5q0 -198.5 85.5 -318.5t233.5 -120t236 119t88 319.5t-88 319.5t-236 119t-233.5 -120t-85.5 -318.5zM640 1067q122 0 221.5 -66.5t152.5 -190.5t53 -288t-53 -287.5t-152.5 -190.5t-221.5 -67t-210 49.5t-129 131.5h-4v-158h-127v1458h127v-571h4
q41 82 129 131t210 49z" />
    <glyph glyph-name="c" unicode="c" horiz-adv-x="1067" 
d="M561 956q-156 0 -245 -116.5t-89 -320.5t89.5 -319.5t244.5 -115.5q117 0 198 83t91 204h133q-10 -113 -64.5 -203t-146.5 -142.5t-211 -52.5q-219 0 -345 146.5t-126 400.5t126 400.5t345 146.5q176 0 292 -106.5t130 -278.5h-133q-10 121 -90 197.5t-199 76.5z" />
    <glyph glyph-name="d" unicode="d" horiz-adv-x="1157" 
d="M223 522.5q0 -200.5 87.5 -319.5t235.5 -119t234 120t86 318.5t-86 318.5t-234 120t-235.5 -119t-87.5 -319.5zM860 0v158h-4q-41 -82 -129 -131.5t-210 -49.5t-221 67t-152.5 190.5t-53.5 287.5t53.5 288t152.5 190.5t221 66.5t210 -49t129 -131h4v571h127v-1458h-127z
" />
    <glyph glyph-name="e" unicode="e" horiz-adv-x="1103" 
d="M557 958q-143 0 -235.5 -96t-100.5 -262h670q-10 170 -100.5 264t-233.5 94zM565 -27q-221 0 -348 153t-127 413q0 154 56.5 273.5t162 187t264 67.5t274.5 -98.5t150 -272.5q16 -74 17 -200h-795q4 -201 100.5 -307.5t233.5 -106.5t217 62.5t104 164.5h132
q-27 -143 -140.5 -239.5t-300.5 -96.5z" />
    <glyph glyph-name="f" unicode="f" horiz-adv-x="587" 
d="M344 1174v-134h211v-106h-211v-934h-127v934h-186v106h186v146q0 281 256 280q41 0 86 -8v-108q-29 8 -65 8q-76 0 -113 -43t-37 -141z" />
    <glyph glyph-name="g" unicode="g" horiz-adv-x="1157" 
d="M223 538.5q0 -190.5 86 -305t235 -114.5t235.5 112.5t86.5 307t-87 307t-235.5 112.5t-234.5 -114.5t-86 -305zM856 193q-110 -183 -336 -183q-118 0 -218.5 65.5t-156 185.5t-55.5 277.5t55.5 277.5t155.5 185.5t219 65.5q231 0 336 -182h4v155h127v-977
q0 -225 -110.5 -340.5t-315.5 -115.5t-315.5 87t-112.5 240h129q2 -104 80 -162.5t222 -58.5q296 0 296 357v123h-4z" />
    <glyph glyph-name="h" unicode="h" 
d="M623 1063q180 0 275 -108.5t95 -321.5v-633h-127v627q0 176 -67.5 250.5t-198.5 74.5q-82 0 -151.5 -39t-110.5 -114.5t-41 -182.5v-616h-127v1458h127v-557h4q51 80 137 121t185 41z" />
    <glyph glyph-name="i" unicode="i" horiz-adv-x="466" 
d="M170 0v1040h127v-1040h-127zM170 1278v180h127v-180h-127z" />
    <glyph glyph-name="j" unicode="j" horiz-adv-x="481" 
d="M39 -387q-39 0 -74 8v111q33 -6 62 -6q78 0 117.5 46t39.5 154v1114h127v-1116q0 -311 -272 -311zM184 1278v180h127v-180h-127z" />
    <glyph glyph-name="k" unicode="k" horiz-adv-x="980" 
d="M297 537v-537h-127v1458h127v-854h4l463 436h172l-504 -467l563 -573h-176l-518 537h-4z" />
    <glyph glyph-name="l" unicode="l" horiz-adv-x="466" 
d="M170 0v1458h127v-1458h-127z" />
    <glyph glyph-name="m" unicode="m" horiz-adv-x="1730" 
d="M1231 1063q166 0 253 -105.5t87 -312.5v-645h-127v637q0 172 -58.5 243.5t-179.5 71.5t-196.5 -92t-75.5 -244v-616h-127v670q0 133 -61.5 207.5t-179.5 74.5t-193.5 -96t-75.5 -256v-600h-127v1040h127v-135h4q113 158 291 158q106 0 188 -54.5t121 -152.5
q101 207 330 207z" />
    <glyph glyph-name="n" unicode="n" 
d="M993 633v-633h-127v627q0 176 -67.5 250.5t-198.5 74.5q-82 0 -151.5 -39t-110.5 -114.5t-41 -182.5v-616h-127v1040h125v-141h4q49 76 134 120t190 44q180 0 275 -108.5t95 -321.5z" />
    <glyph glyph-name="o" unicode="o" horiz-adv-x="1130" 
d="M223 520q0 -203 91.5 -319.5t252 -116.5t251.5 116.5t91 319.5t-91 319.5t-251.5 116.5t-252 -116.5t-91.5 -319.5zM1040 520q0 -254 -127 -400.5t-348 -146.5t-348 146.5t-127 400.5t127 400.5t348 146.5t348 -146.5t127 -400.5z" />
    <glyph glyph-name="p" unicode="p" horiz-adv-x="1157" 
d="M291 522.5q0 -198.5 85.5 -318.5t233.5 -120t236 119t88 319.5t-88 319.5t-236 119t-233.5 -120t-85.5 -318.5zM1067 522q0 -164 -53 -287.5t-152.5 -190.5t-221.5 -67t-210 49.5t-129 131.5h-4v-537h-127v1419h127v-153h4q41 82 129 131t210 49t221.5 -66.5
t152.5 -190.5t53 -288z" />
    <glyph glyph-name="q" unicode="q" horiz-adv-x="1157" 
d="M223 522.5q0 -200.5 87.5 -319.5t235.5 -119t234 120t86 318.5t-86 318.5t-234 120t-235.5 -119t-87.5 -319.5zM860 887v153h127v-1419h-127v537h-4q-41 -82 -129 -131.5t-210 -49.5t-221 67t-152.5 190.5t-53.5 287.5t53.5 288t152.5 190.5t221 66.5t210 -49t129 -131h4
z" />
    <glyph glyph-name="r" unicode="r" horiz-adv-x="710" 
d="M621 926q-156 0 -240 -98.5t-84 -278.5v-549h-127v1040h125v-163h4q104 172 317 172q39 -1 70 -7v-120q-33 4 -65 4z" />
    <glyph glyph-name="s" unicode="s" horiz-adv-x="980" 
d="M735 711q0 117 -69.5 181t-185 64t-180 -47t-64.5 -116.5t26.5 -102.5t74.5 -49t172 -45t199.5 -56.5t130 -90t54.5 -185.5t-106.5 -207t-293 -84t-297 98.5t-112.5 278.5h129q0 -127 76 -196.5t204 -69.5t200.5 51t72.5 126t-30.5 112t-90 57.5t-184.5 50t-191.5 54
t-113.5 82t-47 157.5q0 131 101 212t273 81t274.5 -93t104.5 -263h-127z" />
    <glyph glyph-name="t" unicode="t" horiz-adv-x="618" 
d="M338 276q0 -174 128 -172q60 0 93 9v-109q-45 -10 -94 -10q-135 0 -194.5 65.5t-59.5 214.5v660h-186v106h186v242h127v-242h211v-106h-211v-658z" />
    <glyph glyph-name="u" unicode="u" 
d="M160 408v632h127v-626q0 -176 67.5 -251t198.5 -75q82 0 151.5 39t110.5 114.5t41 182.5v616h127v-1040h-125v141h-4q-47 -76 -132 -120t-192 -44q-180 0 -275 109t-95 322z" />
    <glyph glyph-name="v" unicode="v" horiz-adv-x="921" 
d="M379 0l-389 1040h137l332 -917h4l332 917h137l-389 -1040h-164z" />
    <glyph glyph-name="w" unicode="w" horiz-adv-x="1536" 
d="M1036 0l-135 471q-82 283 -131 455h-4q-49 -172 -131 -455l-135 -471h-183l-301 1040h131l250 -884q2 -10 11 -41h4l260 925h192l260 -925h4q8 31 11 41l250 884h131l-301 -1040h-183z" />
    <glyph glyph-name="x" unicode="x" horiz-adv-x="956" 
d="M956 0h-157l-320 449h-4l-319 -449h-156l401 545l-364 495h156l282 -405h4l285 405h154l-365 -495z" />
    <glyph glyph-name="y" unicode="y" horiz-adv-x="933" 
d="M142.5 -387q-74.5 0 -105.5 8v113q31 -8 91.5 -8t107.5 21.5t82.5 78.5t80.5 174l-409 1040h137l338 -878h4l338 878h137l-430 -1089q-55 -137 -108.5 -209t-121 -100.5t-142 -28.5z" />
    <glyph glyph-name="z" unicode="z" horiz-adv-x="944" 
d="M209 111h684v-111h-842v119l664 807v4h-643v110h800v-118l-663 -807v-4z" />
    <glyph glyph-name="braceleft" unicode="{" horiz-adv-x="579" 
d="M342 1210v-354q0 -104 -36 -159.5t-126 -86.5v-6q90 -31 126 -86t36 -160v-354q0 -117 43 -166t145 -51v-90h-45q-137 0 -201.5 75.5t-64.5 239.5v342q0 92 -30.5 137.5t-106.5 67.5v96q76 23 106.5 68t30.5 137v342q0 164 64.5 240t201.5 76h45v-91q-102 -2 -145 -51
t-43 -166z" />
    <glyph glyph-name="bar" unicode="|" horiz-adv-x="536" 
d="M209 -420v1919h119v-1919h-119z" />
    <glyph glyph-name="braceright" unicode="}" horiz-adv-x="579" 
d="M360 1202v-342q0 -92 30 -137t108 -68v-96q-78 -23 -108 -68t-30 -137v-342q0 -164 -65.5 -239.5t-202.5 -75.5h-45v90q102 2 145.5 51t43.5 166v354q0 104 35.5 159.5t125.5 86.5v6q-90 31 -125.5 86.5t-35.5 159.5v354q0 117 -43 166t-146 51v91h45q137 0 202.5 -76
t65.5 -240z" />
    <glyph glyph-name="asciitilde" unicode="~" horiz-adv-x="1183" 
d="M862 584q70 0 120 61.5t50 161.5h101q0 -152 -80 -246t-207 -94q-82 0 -143.5 34t-139.5 97t-124.5 90t-116.5 27t-120 -61.5t-50 -161.5h-101q0 152 80 244.5t209 92.5q80 0 140.5 -32.5t137.5 -94.5t125.5 -90t118.5 -28z" />
    <glyph glyph-name="uni00A0" unicode="&#xa0;" horiz-adv-x="471" 
 />
    <glyph glyph-name="exclamdown" unicode="&#xa1;" horiz-adv-x="514" 
d="M309 705l33 -1123h-170l33 1123h104zM338 1040v-190h-162v190h162z" />
    <glyph glyph-name="cent" unicode="&#xa2;" horiz-adv-x="1114" 
d="M246 684q0 -184 74.5 -298t207.5 -134v864q-133 -20 -207.5 -134t-74.5 -298zM639 -47h-111v186q-197 18 -307 161.5t-110 383.5t110.5 383t306.5 162v178h111v-180q154 -16 253 -121t112 -260h-134q-8 104 -71.5 178t-159.5 90v-860q96 20 158.5 99t70.5 182h136
q-12 -158 -111.5 -266.5t-253.5 -127.5v-188z" />
    <glyph glyph-name="sterling" unicode="&#xa3;" horiz-adv-x="1114" 
d="M1016 115v-115h-967v115q205 0 205 278v223h-205v115h205v250q0 209 101.5 317.5t283.5 108.5t283.5 -108.5t101.5 -301.5h-127q0 139 -67.5 213t-190.5 74t-189.5 -78t-66.5 -225v-250h260v-115h-260v-223q0 -106 -22.5 -169.5t-75.5 -104.5v-4h731z" />
    <glyph glyph-name="currency" unicode="&#xa4;" horiz-adv-x="1114" 
d="M856 596q0 145 -81 232t-218 87t-219 -87t-82 -232t82 -232.5t219 -87.5t218 87.5t81 232.5zM131 596q0 162 84 278l-160 170l90 89l160 -170q107 73 251 73t253 -73l158 170l92 -89l-162 -167q86 -115 86 -281t-86 -281l162 -168l-92 -88l-158 170q-109 -73 -253 -73
t-251 73l-160 -170l-90 88l160 170q-84 117 -84 279z" />
    <glyph glyph-name="yen" unicode="&#xa5;" horiz-adv-x="1114" 
d="M989 752v-109h-366v-133h366v-109h-366v-401h-134v401h-366v109h366v133h-366v109h297l-406 628h158l383 -610h4l383 610h156l-406 -628h297z" />
    <glyph glyph-name="brokenbar" unicode="&#xa6;" horiz-adv-x="536" 
d="M209 -420v717h119v-717h-119zM209 782v717h119v-717h-119z" />
    <glyph glyph-name="section" unicode="&#xa7;" horiz-adv-x="1116" 
d="M254 694q0 -86 60.5 -148.5t194.5 -122.5t218 -116q135 92 135 225q0 59 -23.5 103.5t-84 85.5t-165.5 87t-208 103q-127 -98 -127 -217zM299 57q4 -245 242 -245q121 0 181 54t60 136t-27.5 123t-86 77t-193.5 100t-205.5 113.5t-104.5 110t-34 154.5q0 187 164 287v4
q-100 81 -100 216q0 134 95 216t256 82t252 -87t93 -249h-129q-2 223 -223 223q-98 0 -154.5 -49t-56.5 -123t23.5 -109.5t74 -64t194.5 -96.5t222 -119t110.5 -111.5t32.5 -152.5q0 -193 -172 -295v-4q102 -84 102 -233t-98 -232.5t-274 -83.5t-273.5 90t-99.5 268h129z
" />
    <glyph glyph-name="dieresis" unicode="&#xa8;" horiz-adv-x="706" 
d="M479 1278v180h125v-180h-125zM102 1278v180h125v-180h-125z" />
    <glyph glyph-name="copyright" unicode="&#xa9;" horiz-adv-x="1667" 
d="M822 1120q-122 0 -198.5 -104.5t-76.5 -286.5t76.5 -286.5t196.5 -104.5t189.5 63.5t84.5 171.5h131q-16 -162 -120 -258t-285 -96t-293.5 136.5t-112.5 372.5t113 373.5t297 137.5t285 -97.5t110 -248.5h-129q-10 104 -78 165.5t-190 61.5zM186 729q0 -199 81 -348.5
t227.5 -232t339 -82.5t339 82.5t227.5 233t81 347.5t-81 347.5t-227.5 233.5t-339 83t-339 -83t-227.5 -232.5t-81 -348.5zM1567 729q0 -223 -91.5 -393t-258 -264.5t-384 -94.5t-383 94.5t-258 264.5t-92.5 393t92.5 393t258 264.5t383 94.5t384 -94.5t258 -264.5
t91.5 -393z" />
    <glyph glyph-name="ordfeminine" unicode="&#xaa;" horiz-adv-x="784" 
d="M170 880q0 -58 43 -94t107 -34q122 1 178 57q39 39 53 76t14 104v47q-279 -18 -353 -69q-42 -29 -42 -87zM565 1155q0 178 -182 178q-86 0 -133 -40t-51 -107h-115q6 104 85 171t215 67t212 -71t76 -212v-279q0 -109 18 -186h-100q-10 57 -10 108h-5q-78 -123 -264 -122
q-117 0 -187 59t-71 153q0 94 67 148q100 81 445 104v29z" />
    <glyph glyph-name="guillemotleft" unicode="&#xab;" horiz-adv-x="880" 
d="M776 111h-127l-233 409l233 410h127l-229 -410zM463 111h-127l-234 409l234 410h127l-230 -410z" />
    <glyph glyph-name="logicalnot" unicode="&#xac;" horiz-adv-x="1159" 
d="M893 295v510h-741v117h856v-627h-115z" />
    <glyph glyph-name="uni00AD" unicode="&#xad;" horiz-adv-x="593" 
d="M61 535v127h471v-127h-471z" />
    <glyph glyph-name="registered" unicode="&#xae;" horiz-adv-x="1196" 
d="M473 999h109q143 0 143 113q0 102 -135 102h-117v-215zM825 1112q0 -55 -31.5 -101t-82.5 -57v-4q31 -8 50 -29.5t36 -70.5l69 -205h-106l-55 174q-14 51 -43 72.5t-80 21.5h-109v-268h-96v655h229q107 0 163 -49t56 -139zM158 964.5q0 -135.5 55 -238.5t154.5 -159.5
t230.5 -56.5t230.5 56.5t154.5 159.5t55 238.5t-55 239t-154.5 159.5t-230.5 56t-230.5 -56t-154.5 -159.5t-55 -239zM1104 964.5q0 -153.5 -63.5 -271.5t-178 -183.5t-264 -65.5t-264.5 65.5t-178.5 183.5t-63.5 271.5t63.5 271.5t178.5 183.5t264.5 65.5t264 -65.5
t178 -183.5t63.5 -271.5z" />
    <glyph glyph-name="macron" unicode="&#xaf;" horiz-adv-x="743" 
d="M102 1278v106h539v-106h-539z" />
    <glyph glyph-name="degree" unicode="&#xb0;" horiz-adv-x="632" 
d="M178 1247.5q0 -57.5 40 -97.5t97.5 -40t99.5 40t42 97.5t-42 98t-99.5 40.5t-97.5 -40.5t-40 -98zM547 1247q0 -96 -67.5 -163.5t-163.5 -67.5t-163 67.5t-67 163.5t67 164t163 68t163.5 -68t67.5 -164z" />
    <glyph glyph-name="plusminus" unicode="&#xb1;" horiz-adv-x="1159" 
d="M152 0v115h856v-115h-856zM1008 750v-115h-371v-369h-115v369h-370v115h370v368h115v-368h371z" />
    <glyph glyph-name="twosuperior" unicode="&#xb2;" horiz-adv-x="823" 
d="M725 1393q0 -147 -95 -218t-213 -139t-168 -126t-50 -132h549v-102h-664q-4 10 -4 70t22.5 128t86 130.5t188.5 132t175 121t50 130.5t-50 123.5t-136 44.5q-188 0 -201 -192h-121q6 139 94 219t228 80t224.5 -75t84.5 -195z" />
    <glyph glyph-name="threesuperior" unicode="&#xb3;" horiz-adv-x="811" 
d="M715 1399q0 -84 -40 -138.5t-126 -89.5v-4q96 -35 139 -91t43 -162t-94 -182.5t-245 -76.5t-238.5 82t-87.5 224h118q0 -201 213 -201q94 0 153.5 47t59.5 130t-62.5 130t-182.5 47h-37v103h37q106 0 168.5 46t62.5 125t-55.5 123.5t-149.5 44.5q-199 0 -198 -194h-119
q0 141 87 221t234.5 80t233.5 -72.5t86 -191.5z" />
    <glyph glyph-name="acute" unicode="&#xb4;" horiz-adv-x="561" 
d="M102 1169l185 289h172l-236 -289h-121z" />
    <glyph glyph-name="mu" unicode="&#xb5;" horiz-adv-x="1163" 
d="M1070 100q40 0 63 9v-105q-41 -14 -110 -14q-144 0 -159 168h-4q-41 -80 -125 -127t-188 -47q-176 0 -250 108v-471h-127v1419h127v-620q-1 -176 65 -252t195 -76q82 0 151 40t109 116q41 76 41 182v610h127v-768q0 -100 22 -136q23 -36 63 -36z" />
    <glyph glyph-name="paragraph" unicode="&#xb6;" horiz-adv-x="1136" 
d="M928 1366v-1612h-99v1612h-182v-1612h-98v893h-82q-176 0 -280.5 110.5t-104.5 296.5t104.5 295t280.5 109h625v-92h-164z" />
    <glyph glyph-name="periodcentered" unicode="&#xb7;" horiz-adv-x="430" 
d="M127 532v187h176v-187h-176z" />
    <glyph glyph-name="cedilla" unicode="&#xb8;" horiz-adv-x="624" 
d="M362 -125q68 0 114 -40.5t46 -110.5t-55 -120t-162 -50t-203 55l31 65q75 -41 147 -41q136 0 136 91q0 41 -31 64.5t-74 23.5t-73 -11l-33 37l108 162h88l-86 -129q20 4 47 4z" />
    <glyph glyph-name="onesuperior" unicode="&#xb9;" horiz-adv-x="507" 
d="M238 676v713h-215v92q115 0 169 36.5t68 124.5h92v-966h-114z" />
    <glyph glyph-name="ordmasculine" unicode="&#xba;" horiz-adv-x="829" 
d="M651 1040q0 133 -62 211t-172 78t-172 -78q-63 -78 -63 -211t62 -211q62 -77 173 -77q110 0 172 78t62 210zM766 1040q0 -180 -93 -282t-256 -102t-258 102q-95 104 -96 282t95 280t259 103q163 0 256 -102q93 -101 93 -281z" />
    <glyph glyph-name="guillemotright" unicode="&#xbb;" horiz-adv-x="880" 
d="M778 520l-233 -409h-129l231 409l-231 410h129zM463 520l-234 -409h-127l230 409l-230 410h127z" />
    <glyph glyph-name="onequarter" unicode="&#xbc;" horiz-adv-x="1394" 
d="M203 553v596h-185v94q98 0 147 32q48 32 60 105h92v-827h-114zM133 0l803 1380h133l-803 -1380h-133zM1126 313v389h-4l-276 -389h280zM1239 211v-211h-115v211h-395v113l356 503h154v-514h137v-102h-137z" />
    <glyph glyph-name="onehalf" unicode="&#xbd;" horiz-adv-x="1468" 
d="M203 553v596h-185v94q98 0 147 32q48 32 60 105h92v-827h-114zM133 0l803 1380h133l-803 -1380h-133zM940 102h465v-102h-582q-2 8 -2 62q0 132 94 226q55 54 161 113t148 101t42 105q0 61 -41 97t-111 35q-152 0 -162 -153h-116q4 120 82 190t198 70t195 -65
q73 -65 73 -166t-63 -169t-180 -132t-159 -110t-42 -102z" />
    <glyph glyph-name="threequarters" unicode="&#xbe;" horiz-adv-x="1654" 
d="M346 1292q-166 0 -166 -155h-117q0 123 77 193t207 68q130 0 204 -61t74 -166q0 -71 -31 -115t-105 -77v-4q80 -33 115 -81t35 -138t-81 -156t-214 -66t-211 72q-78 70 -78 197h117q0 -162 176 -162q78 0 125 36q47 37 47 103t-53 104t-154 38h-26v102h26q88 0 141 38
q52 38 52 99t-42 96t-118 35zM391 0l803 1380h133l-803 -1380h-133zM1384 313v389h-4l-276 -389h280zM1497 211v-211h-115v211h-395v113l356 503h154v-514h137v-102h-137z" />
    <glyph glyph-name="questiondown" unicode="&#xbf;" horiz-adv-x="954" 
d="M82 -95q0 91 25.5 169t199.5 223q84 70 123 120t52.5 116.5t13.5 189.5h118v-59q0 -113 -17 -182.5t-62.5 -128t-129.5 -131.5t-120.5 -118t-50 -84.5t-13.5 -97.5q0 -113 79 -179.5t216 -66.5t218 75t89 218h131q-12 -201 -126.5 -307t-317.5 -106q-125 0 -222.5 46
t-151.5 129t-54 174zM635 1040v-190h-162v190h162z" />
    <glyph glyph-name="Agrave" unicode="&#xc0;" horiz-adv-x="1359" 
d="M973 594l-291 756h-4l-25 -64q-106 -281 -209 -541l-59 -151h588zM338 471l-182 -471h-144l578 1458h182l576 -1458h-144l-182 471h-684zM799 1556h-121l-236 277h172z" />
    <glyph glyph-name="Aacute" unicode="&#xc1;" horiz-adv-x="1359" 
d="M973 594l-291 756h-4l-25 -64q-106 -281 -209 -541l-59 -151h588zM338 471l-182 -471h-144l578 1458h182l576 -1458h-144l-182 471h-684zM561 1556l184 277h173l-236 -277h-121z" />
    <glyph glyph-name="Acircumflex" unicode="&#xc2;" horiz-adv-x="1359" 
d="M973 594l-291 756h-4l-25 -64q-106 -281 -209 -541l-59 -151h588zM338 471l-182 -471h-144l578 1458h182l576 -1458h-144l-182 471h-684zM754 1833l233 -277h-141l-166 195l-164 -195h-141l233 277h146z" />
    <glyph glyph-name="Atilde" unicode="&#xc3;" horiz-adv-x="1359" 
d="M973 594l-291 756h-4l-25 -64q-106 -281 -209 -541l-59 -151h588zM338 471l-182 -471h-144l578 1458h182l576 -1458h-144l-182 471h-684zM825 1704q85 0 95 108h98q-6 -104 -56.5 -159.5t-125 -55.5t-165.5 55.5t-133 55.5q-88 0 -96 -111h-98q6 104 56.5 159.5
t134.5 55.5q68 0 156.5 -54t133.5 -54z" />
    <glyph glyph-name="Adieresis" unicode="&#xc4;" horiz-adv-x="1359" 
d="M973 594l-291 756h-4l-25 -64q-106 -281 -209 -541l-59 -151h588zM338 471l-182 -471h-144l578 1458h182l576 -1458h-144l-182 471h-684zM805 1593v181h125v-181h-125zM428 1593v181h125v-181h-125z" />
    <glyph glyph-name="Aring" unicode="&#xc5;" horiz-adv-x="1359" 
d="M973 594l-291 756h-4l-25 -64q-106 -281 -209 -541l-59 -151h588zM338 471l-182 -471h-144l578 1458h182l576 -1458h-144l-182 471h-684zM557 1740q0 -50 36 -86t87 -36t86 36t35 86t-35 86t-86 36t-87 -36t-36 -86zM877 1741q0 -82 -57.5 -140.5t-139.5 -58.5
t-140.5 58.5t-58.5 140.5t58.5 139t140.5 57t139.5 -57t57.5 -139z" />
    <glyph glyph-name="AE" unicode="&#xc6;" horiz-adv-x="1892" 
d="M844 1337h-35l-356 -710h497zM1780 0h-736l-75 506h-576l-254 -506h-151l731 1458h1036v-121h-778l80 -528h659v-121h-641l86 -567h619v-121z" />
    <glyph glyph-name="Ccedilla" unicode="&#xc7;" horiz-adv-x="1398" 
d="M754 -125q68 0 113.5 -40t45.5 -110.5t-55 -120.5t-162 -50t-202 55l30 65q76 -41 148 -41q136 0 135 91q0 41 -31 64.5t-74 23.5t-73 -11l-33 37l90 135q-182 6 -316 99.5t-206 261.5t-72 398t76 400.5t217 261.5t321.5 91t306.5 -66.5t195.5 -183.5t77.5 -264h-139
q-16 178 -132 283.5t-281 105.5t-274.5 -76t-168 -218t-58.5 -336.5t58.5 -337t167 -218.5t271.5 -76t281.5 107.5t143.5 290.5h139q-22 -222 -159.5 -362t-358.5 -159l-69 -104q20 4 47 4z" />
    <glyph glyph-name="Egrave" unicode="&#xc8;" horiz-adv-x="1249" 
d="M340 1337v-528h735v-121h-735v-567h799v-121h-932v1458h907v-121h-774zM778 1556h-121l-235 277h172z" />
    <glyph glyph-name="Eacute" unicode="&#xc9;" horiz-adv-x="1249" 
d="M340 1337v-528h735v-121h-735v-567h799v-121h-932v1458h907v-121h-774zM543 1556l184 277h172l-235 -277h-121z" />
    <glyph glyph-name="Ecircumflex" unicode="&#xca;" horiz-adv-x="1249" 
d="M340 1337v-528h735v-121h-735v-567h799v-121h-932v1458h907v-121h-774zM733 1833l234 -277h-142l-166 195l-163 -195h-142l234 277h145z" />
    <glyph glyph-name="Edieresis" unicode="&#xcb;" horiz-adv-x="1249" 
d="M340 1337v-528h735v-121h-735v-567h799v-121h-932v1458h907v-121h-774zM784 1593v181h125v-181h-125zM408 1593v181h124v-181h-124z" />
    <glyph glyph-name="Igrave" unicode="&#xcc;" horiz-adv-x="546" 
d="M207 0v1458h133v-1458h-133zM391 1556h-121l-235 277h172z" />
    <glyph glyph-name="Iacute" unicode="&#xcd;" horiz-adv-x="546" 
d="M207 0v1458h133v-1458h-133zM156 1556l184 277h172l-236 -277h-120z" />
    <glyph glyph-name="Icircumflex" unicode="&#xce;" horiz-adv-x="546" 
d="M207 0v1458h133v-1458h-133zM346 1833l234 -277h-142l-166 195l-163 -195h-142l234 277h145z" />
    <glyph glyph-name="Idieresis" unicode="&#xcf;" horiz-adv-x="546" 
d="M207 0v1458h133v-1458h-133zM397 1593v181h125v-181h-125zM20 1593v181h125v-181h-125z" />
    <glyph glyph-name="Eth" unicode="&#xd0;" horiz-adv-x="1470" 
d="M1237 729q0 293 -156.5 450.5t-447.5 157.5h-293v-542h451v-113h-451v-561h293q291 0 447.5 157.5t156.5 450.5zM1378 729q0 -350 -194.5 -539.5t-550.5 -189.5h-426v682h-135v113h135v663h426q356 0 550.5 -189.5t194.5 -539.5z" />
    <glyph glyph-name="Ntilde" unicode="&#xd1;" horiz-adv-x="1525" 
d="M340 0h-133v1458h203l594 -1014q119 -209 180 -311h4q-2 244 -2 729v596h133v-1458h-203l-594 1014q-119 209 -180 311h-4l2 -729v-596zM907 1704q86 0 94 108h99q-6 -104 -56.5 -159.5t-134.5 -55.5q-63 0 -155.5 55.5t-135.5 55.5q-86 0 -94 -111h-98q6 104 56 159.5
t134 55.5q69 0 157.5 -54t133.5 -54z" />
    <glyph glyph-name="Ograve" unicode="&#xd2;" horiz-adv-x="1482" 
d="M233 729.5q0 -190.5 62.5 -334t177.5 -220.5t268.5 -77t268 78t177 220.5t62.5 333t-62.5 332.5t-177 220t-268 78t-268.5 -77t-177.5 -220t-62.5 -333.5zM1389 729q0 -229 -79 -399t-225.5 -263.5t-343 -93.5t-343 93.5t-226.5 264.5t-80 398t80 398t226.5 264.5
t343 93.5t343 -93.5t225.5 -263.5t79 -399zM860 1556h-121l-235 277h172z" />
    <glyph glyph-name="Oacute" unicode="&#xd3;" horiz-adv-x="1482" 
d="M233 729.5q0 -190.5 62.5 -334t177.5 -220.5t268.5 -77t268 78t177 220.5t62.5 333t-62.5 332.5t-177 220t-268 78t-268.5 -77t-177.5 -220t-62.5 -333.5zM1389 729q0 -229 -79 -399t-225.5 -263.5t-343 -93.5t-343 93.5t-226.5 264.5t-80 398t80 398t226.5 264.5
t343 93.5t343 -93.5t225.5 -263.5t79 -399zM623 1556l184 277h172l-236 -277h-120z" />
    <glyph glyph-name="Ocircumflex" unicode="&#xd4;" horiz-adv-x="1482" 
d="M233 729.5q0 -190.5 62.5 -334t177.5 -220.5t268.5 -77t268 78t177 220.5t62.5 333t-62.5 332.5t-177 220t-268 78t-268.5 -77t-177.5 -220t-62.5 -333.5zM1389 729q0 -229 -79 -399t-225.5 -263.5t-343 -93.5t-343 93.5t-226.5 264.5t-80 398t80 398t226.5 264.5
t343 93.5t343 -93.5t225.5 -263.5t79 -399zM813 1833l234 -277h-142l-166 195l-164 -195h-141l234 277h145z" />
    <glyph glyph-name="Otilde" unicode="&#xd5;" horiz-adv-x="1482" 
d="M233 729.5q0 -190.5 62.5 -334t177.5 -220.5t268.5 -77t268 78t177 220.5t62.5 333t-62.5 332.5t-177 220t-268 78t-268.5 -77t-177.5 -220t-62.5 -333.5zM1389 729q0 -229 -79 -399t-225.5 -263.5t-343 -93.5t-343 93.5t-226.5 264.5t-80 398t80 398t226.5 264.5
t343 93.5t343 -93.5t225.5 -263.5t79 -399zM885 1704q86 0 94 108h98q-6 -104 -56 -159.5t-125 -55.5t-166 55.5t-134 55.5q-86 0 -94 -111h-99q6 104 56.5 159.5t134.5 55.5q69 0 157.5 -54t133.5 -54z" />
    <glyph glyph-name="Odieresis" unicode="&#xd6;" horiz-adv-x="1482" 
d="M233 729.5q0 -190.5 62.5 -334t177.5 -220.5t268.5 -77t268 78t177 220.5t62.5 333t-62.5 332.5t-177 220t-268 78t-268.5 -77t-177.5 -220t-62.5 -333.5zM1389 729q0 -229 -79 -399t-225.5 -263.5t-343 -93.5t-343 93.5t-226.5 264.5t-80 398t80 398t226.5 264.5
t343 93.5t343 -93.5t225.5 -263.5t79 -399zM866 1593v181h125v-181h-125zM489 1593v181h125v-181h-125z" />
    <glyph glyph-name="multiply" unicode="&#xd7;" horiz-adv-x="1159" 
d="M657 627l404 -402l-80 -80l-401 404l-402 -404l-80 80l404 402l-404 401l80 80l402 -401l401 401l80 -80z" />
    <glyph glyph-name="Oslash" unicode="&#xd8;" horiz-adv-x="1482" 
d="M1249 729q0 264 -112 426l-713 -942q131 -115 301 -115t284.5 77t177 220.5t62.5 333.5zM757.5 1360q-170.5 0 -286 -78t-178 -220t-62.5 -333q0 -260 115 -426l713 942q-131 115 -301.5 115zM1389 729q0 -229 -79 -399t-225.5 -263.5t-363 -93.5t-379.5 133l-123 -163
l-92 71l133 174q-168 201 -168 541q0 227 80 398t226.5 264.5t362.5 93.5t378 -133l125 164l92 -70l-133 -176q166 -205 166 -541z" />
    <glyph glyph-name="Ugrave" unicode="&#xd9;" horiz-adv-x="1431" 
d="M717 -27q-254 0 -388 145.5t-134 422.5v917h133v-915q0 -221 101 -333t286.5 -112t287 112t101.5 333v915h133v-917q0 -279 -133 -423.5t-387 -144.5zM834 1556h-121l-236 277h172z" />
    <glyph glyph-name="Uacute" unicode="&#xda;" horiz-adv-x="1431" 
d="M717 -27q-254 0 -388 145.5t-134 422.5v917h133v-915q0 -221 101 -333t286.5 -112t287 112t101.5 333v915h133v-917q0 -279 -133 -423.5t-387 -144.5zM598 1556l184 277h172l-235 -277h-121z" />
    <glyph glyph-name="Ucircumflex" unicode="&#xdb;" horiz-adv-x="1431" 
d="M717 -27q-254 0 -388 145.5t-134 422.5v917h133v-915q0 -221 101 -333t286.5 -112t287 112t101.5 333v915h133v-917q0 -279 -133 -423.5t-387 -144.5zM788 1833l234 -277h-141l-166 195l-164 -195h-141l233 277h145z" />
    <glyph glyph-name="Udieresis" unicode="&#xdc;" horiz-adv-x="1431" 
d="M717 -27q-254 0 -388 145.5t-134 422.5v917h133v-915q0 -221 101 -333t286.5 -112t287 112t101.5 333v915h133v-917q0 -279 -133 -423.5t-387 -144.5zM842 1593v181h125v-181h-125zM465 1593v181h125v-181h-125z" />
    <glyph glyph-name="Yacute" unicode="&#xdd;" horiz-adv-x="1232" 
d="M684 0h-135v623l-539 835h158l446 -706h4q164 262 248 391l199 315h158l-539 -835v-623zM498 1556l184 277h172l-236 -277h-120z" />
    <glyph glyph-name="Thorn" unicode="&#xde;" horiz-adv-x="1241" 
d="M340 451h340q176 0 268 79.5t92 223.5t-92 224.5t-268 80.5h-340v-608zM682 1180q240 0 369 -114t129 -310.5t-129 -311t-369 -114.5h-342v-330h-133v1458h133v-278h342z" />
    <glyph glyph-name="germandbls" unicode="&#xdf;" horiz-adv-x="1122" 
d="M965 1137q0 -242 -228 -316v-4q135 -27 216 -128t81 -265q0 -207 -125 -321.5t-350 -114.5q-57 0 -106 12v115q41 -12 100 -13q164 0 257 85t93 239t-90 243t-246 89h-30v119q147 0 223 65.5t76 181.5t-71 182t-198 66t-198.5 -85t-71.5 -249v-1038h-127v1044
q0 209 105 325t291 116t292.5 -95.5t106.5 -252.5z" />
    <glyph glyph-name="agrave" unicode="&#xe0;" horiz-adv-x="1073" 
d="M211 285q0 -90 64.5 -144.5t158.5 -54.5q173 0 260 92q55 57 76 113.5t21 157.5v79q-418 -28 -519 -106q-61 -47 -61 -137zM913 668v-412q0 -147 23 -256h-119q-14 70 -14 158h-4q-106 -178 -371 -178q-158 0 -255 83.5t-97 216t89 208.5q133 113 626 147v49
q0 139 -72 206.5t-197 67.5t-194.5 -62t-75.5 -169h-133q10 152 115.5 246t289 94t286.5 -100.5t103 -298.5zM629 1169h-121l-236 289h172z" />
    <glyph glyph-name="aacute" unicode="&#xe1;" horiz-adv-x="1073" 
d="M211 285q0 -90 64.5 -144.5t158.5 -54.5q173 0 260 92q55 57 76 113.5t21 157.5v79q-418 -28 -519 -106q-61 -47 -61 -137zM913 668v-412q0 -147 23 -256h-119q-14 70 -14 158h-4q-106 -178 -371 -178q-158 0 -255 83.5t-97 216t89 208.5q133 113 626 147v49
q0 139 -72 206.5t-197 67.5t-194.5 -62t-75.5 -169h-133q10 152 115.5 246t289 94t286.5 -100.5t103 -298.5zM391 1169l184 289h173l-236 -289h-121z" />
    <glyph glyph-name="acircumflex" unicode="&#xe2;" horiz-adv-x="1073" 
d="M211 285q0 -90 64.5 -144.5t158.5 -54.5q173 0 260 92q55 57 76 113.5t21 157.5v79q-418 -28 -519 -106q-61 -47 -61 -137zM913 668v-412q0 -147 23 -256h-119q-14 70 -14 158h-4q-106 -178 -371 -178q-158 0 -255 83.5t-97 216t89 208.5q133 113 626 147v49
q0 139 -72 206.5t-197 67.5t-194.5 -62t-75.5 -169h-133q10 152 115.5 246t289 94t286.5 -100.5t103 -298.5zM510 1376l-166 -207h-141l233 289h146l233 -289h-141z" />
    <glyph glyph-name="atilde" unicode="&#xe3;" horiz-adv-x="1073" 
d="M211 285q0 -90 64.5 -144.5t158.5 -54.5q173 0 260 92q55 57 76 113.5t21 157.5v79q-418 -28 -519 -106q-61 -47 -61 -137zM913 668v-412q0 -147 23 -256h-119q-14 70 -14 158h-4q-106 -178 -371 -178q-158 0 -255 83.5t-97 216t89 208.5q133 113 626 147v49
q0 139 -72 206.5t-197 67.5t-194.5 -62t-75.5 -169h-133q10 152 115.5 246t289 94t286.5 -100.5t103 -298.5zM653 1329q85 0 95 111h98q-6 -105 -56.5 -160t-134.5 -55q-67 0 -156 54t-134 54q-87 0 -95 -108h-98q6 104 56.5 159.5t133.5 55.5q41 0 76 -14.5t87 -44.5
t77 -41t51 -11z" />
    <glyph glyph-name="adieresis" unicode="&#xe4;" horiz-adv-x="1073" 
d="M211 285q0 -90 64.5 -144.5t158.5 -54.5q173 0 260 92q55 57 76 113.5t21 157.5v79q-418 -28 -519 -106q-61 -47 -61 -137zM913 668v-412q0 -147 23 -256h-119q-14 70 -14 158h-4q-106 -178 -371 -178q-158 0 -255 83.5t-97 216t89 208.5q133 113 626 147v49
q0 139 -72 206.5t-197 67.5t-194.5 -62t-75.5 -169h-133q10 152 115.5 246t289 94t286.5 -100.5t103 -298.5zM635 1278v180h125v-180h-125zM258 1278v180h125v-180h-125z" />
    <glyph glyph-name="aring" unicode="&#xe5;" horiz-adv-x="1073" 
d="M211 285q0 -90 64.5 -144.5t158.5 -54.5q173 0 260 92q55 57 76 113.5t21 157.5v79q-418 -28 -519 -106q-61 -47 -61 -137zM913 668v-412q0 -147 23 -256h-119q-14 70 -14 158h-4q-106 -178 -371 -178q-158 0 -255 83.5t-97 216t89 208.5q133 113 626 147v49
q0 139 -72 206.5t-197 67.5t-194.5 -62t-75.5 -169h-133q10 152 115.5 246t289 94t286.5 -100.5t103 -298.5zM387 1366q0 -51 36 -87t87 -36t86 36t35 87t-35 86t-86 35t-87 -35t-36 -86zM707 1366q0 -82 -57.5 -140.5t-139.5 -58.5t-140.5 58.5t-58.5 140.5t58.5 140.5
t140.5 58.5t139.5 -58.5t57.5 -140.5z" />
    <glyph glyph-name="ae" unicode="&#xe6;" horiz-adv-x="1748" 
d="M551 494q-184 0 -262 -51.5t-78 -151.5t64.5 -155.5t158.5 -55.5q174 0 260 94q55 57 76 113.5t21 161.5v45h-240zM1218.5 958q-135.5 0 -221.5 -96t-94 -262h629q-8 170 -93 264t-220.5 94zM1221 1067q162 0 274.5 -100.5t146.5 -270.5q14 -78 15 -202h-754
q6 -201 95 -306.5t218.5 -105.5t204 62.5t97.5 164.5h131q-23 -143 -132.5 -239.5t-287.5 -96.5q-131 0 -227.5 64.5t-151.5 183.5q-53 -117 -161.5 -182.5t-262.5 -65.5t-252 86t-98 230t106.5 227.5t352.5 83.5h256v84q0 137 -70 205.5t-196 68.5t-196.5 -63.5
t-76.5 -167.5h-133q10 150 117.5 245t287.5 95q262 0 342 -201q115 201 355 201z" />
    <glyph glyph-name="ccedilla" unicode="&#xe7;" horiz-adv-x="1067" 
d="M610 -125q68 0 114 -40t46 -110.5t-55.5 -120.5t-162 -50t-202.5 55l31 65q75 -41 147 -41q136 0 136 91q0 41 -31 64.5t-74 23.5t-74 -11l-32 37l90 135q-211 6 -332 151.5t-121 397.5t126 398.5t345 146.5q176 0 292 -106.5t130 -278.5h-133q-10 121 -90 197.5
t-199 76.5q-156 0 -245 -116.5t-89 -320.5t89.5 -319.5t244.5 -115.5q117 0 198 83t91 204h133q-12 -154 -106.5 -261.5t-241.5 -129.5l-72 -109q20 4 47 4z" />
    <glyph glyph-name="egrave" unicode="&#xe8;" horiz-adv-x="1103" 
d="M557 958q-143 0 -235.5 -96t-100.5 -262h670q-10 170 -100.5 264t-233.5 94zM565 -27q-221 0 -348 153t-127 413q0 154 56.5 273.5t162 187t264 67.5t274.5 -98.5t150 -272.5q16 -74 17 -200h-795q4 -201 100.5 -307.5t233.5 -106.5t217 62.5t104 164.5h132
q-27 -143 -140.5 -239.5t-300.5 -96.5zM670 1169h-121l-236 289h172z" />
    <glyph glyph-name="eacute" unicode="&#xe9;" horiz-adv-x="1103" 
d="M557 958q-143 0 -235.5 -96t-100.5 -262h670q-10 170 -100.5 264t-233.5 94zM565 -27q-221 0 -348 153t-127 413q0 154 56.5 273.5t162 187t264 67.5t274.5 -98.5t150 -272.5q16 -74 17 -200h-795q4 -201 100.5 -307.5t233.5 -106.5t217 62.5t104 164.5h132
q-27 -143 -140.5 -239.5t-300.5 -96.5zM432 1169l184 289h172l-235 -289h-121z" />
    <glyph glyph-name="ecircumflex" unicode="&#xea;" horiz-adv-x="1103" 
d="M557 958q-143 0 -235.5 -96t-100.5 -262h670q-10 170 -100.5 264t-233.5 94zM565 -27q-221 0 -348 153t-127 413q0 154 56.5 273.5t162 187t264 67.5t274.5 -98.5t150 -272.5q16 -74 17 -200h-795q4 -201 100.5 -307.5t233.5 -106.5t217 62.5t104 164.5h132
q-27 -143 -140.5 -239.5t-300.5 -96.5zM553 1376l-166 -207h-141l233 289h146l233 -289h-141z" />
    <glyph glyph-name="edieresis" unicode="&#xeb;" horiz-adv-x="1103" 
d="M557 958q-143 0 -235.5 -96t-100.5 -262h670q-10 170 -100.5 264t-233.5 94zM565 -27q-221 0 -348 153t-127 413q0 154 56.5 273.5t162 187t264 67.5t274.5 -98.5t150 -272.5q16 -74 17 -200h-795q4 -201 100.5 -307.5t233.5 -106.5t217 62.5t104 164.5h132
q-27 -143 -140.5 -239.5t-300.5 -96.5zM676 1278v180h125v-180h-125zM299 1278v180h125v-180h-125z" />
    <glyph glyph-name="igrave" unicode="&#xec;" horiz-adv-x="466" 
d="M170 0v1040h127v-1040h-127zM352 1169h-121l-235 289h172z" />
    <glyph glyph-name="iacute" unicode="&#xed;" horiz-adv-x="466" 
d="M170 0v1040h127v-1040h-127zM117 1169l184 289h172l-235 -289h-121z" />
    <glyph glyph-name="icircumflex" unicode="&#xee;" horiz-adv-x="466" 
d="M170 0v1040h127v-1040h-127zM373 1171l-140 207l-137 -207h-139l201 287h151l201 -287h-137z" />
    <glyph glyph-name="idieresis" unicode="&#xef;" horiz-adv-x="466" 
d="M170 0v1040h127v-1040h-127zM319 1278v180h125v-180h-125zM25 1278v180h125v-180h-125z" />
    <glyph glyph-name="eth" unicode="&#xf0;" horiz-adv-x="1132" 
d="M911 516q0 201 -92 316.5t-253 115.5t-252 -115.5t-91 -316.5t91.5 -316.5t251.5 -115.5t252.5 115.5t92.5 316.5zM1042 520q0 -254 -128 -400.5t-349 -146.5t-348 144.5t-127 395.5t123 394.5t336 143.5q143 0 246 -93v5q-96 135 -256 276l-279 -133l-41 88l238 113
q-84 68 -150 108l84 70q57 -37 172 -127l246 119l41 -88l-207 -99q121 -111 182 -188q111 -139 164 -278.5t53 -303.5z" />
    <glyph glyph-name="ntilde" unicode="&#xf1;" 
d="M993 633v-633h-127v627q0 176 -67.5 250.5t-198.5 74.5q-82 0 -151.5 -39t-110.5 -114.5t-41 -182.5v-616h-127v1040h125v-141h4q49 76 134 120t190 44q180 0 275 -108.5t95 -321.5zM727 1329q86 0 94 111h99q-7 -105 -57 -160t-125 -55t-144.5 42t-98 54t-57.5 12
q-86 0 -94 -108h-98q6 104 56 159.5t134 55.5q41 0 76 -14.5t87 -44.5t76.5 -41t51.5 -11z" />
    <glyph glyph-name="ograve" unicode="&#xf2;" horiz-adv-x="1130" 
d="M223 520q0 -203 91.5 -319.5t252 -116.5t251.5 116.5t91 319.5t-91 319.5t-251.5 116.5t-252 -116.5t-91.5 -319.5zM1040 520q0 -254 -127 -400.5t-348 -146.5t-348 146.5t-127 400.5t127 400.5t348 146.5t348 -146.5t127 -400.5zM684 1169h-121l-235 289h172z" />
    <glyph glyph-name="oacute" unicode="&#xf3;" horiz-adv-x="1130" 
d="M223 520q0 -203 91.5 -319.5t252 -116.5t251.5 116.5t91 319.5t-91 319.5t-251.5 116.5t-252 -116.5t-91.5 -319.5zM1040 520q0 -254 -127 -400.5t-348 -146.5t-348 146.5t-127 400.5t127 400.5t348 146.5t348 -146.5t127 -400.5zM446 1169l185 289h172l-236 -289h-121z
" />
    <glyph glyph-name="ocircumflex" unicode="&#xf4;" horiz-adv-x="1130" 
d="M223 520q0 -203 91.5 -319.5t252 -116.5t251.5 116.5t91 319.5t-91 319.5t-251.5 116.5t-252 -116.5t-91.5 -319.5zM1040 520q0 -254 -127 -400.5t-348 -146.5t-348 146.5t-127 400.5t127 400.5t348 146.5t348 -146.5t127 -400.5zM567 1376l-166 -207h-141l234 289h145
l233 -289h-141z" />
    <glyph glyph-name="otilde" unicode="&#xf5;" horiz-adv-x="1130" 
d="M223 520q0 -203 91.5 -319.5t252 -116.5t251.5 116.5t91 319.5t-91 319.5t-251.5 116.5t-252 -116.5t-91.5 -319.5zM1040 520q0 -254 -127 -400.5t-348 -146.5t-348 146.5t-127 400.5t127 400.5t348 146.5t348 -146.5t127 -400.5zM711 1329q86 0 94 111h98
q-6 -105 -56 -160t-125 -55t-144.5 42t-98 54t-57.5 12q-86 0 -94 -108h-99q6 104 56.5 159.5t134.5 55.5q41 0 75.5 -14.5t87 -44.5t77 -41t51.5 -11z" />
    <glyph glyph-name="odieresis" unicode="&#xf6;" horiz-adv-x="1130" 
d="M223 520q0 -203 91.5 -319.5t252 -116.5t251.5 116.5t91 319.5t-91 319.5t-251.5 116.5t-252 -116.5t-91.5 -319.5zM1040 520q0 -254 -127 -400.5t-348 -146.5t-348 146.5t-127 400.5t127 400.5t348 146.5t348 -146.5t127 -400.5zM690 1278v180h125v-180h-125zM313 1278
v180h125v-180h-125z" />
    <glyph glyph-name="divide" unicode="&#xf7;" horiz-adv-x="1159" 
d="M512 248v147h135v-147h-135zM152 590v117h856v-117h-856zM512 903v148h135v-148h-135z" />
    <glyph glyph-name="oslash" unicode="&#xf8;" horiz-adv-x="1132" 
d="M911 505.5q0 188.5 -67 297.5l-490 -645q86 -74 211 -74q162 0 254 116.5t92 305zM221 535.5q0 -187.5 66 -295.5l491 643q-86 74 -213 73q-159 0 -251.5 -116.5t-92.5 -304zM1042 516q0 -250 -128 -396.5t-349 -146.5q-166 0 -284 86l-105 -135l-80 64l111 143
q-117 145 -117 394t127 395.5t348 146.5q168 0 287 -88l104 139l80 -63l-112 -146q118 -143 118 -393z" />
    <glyph glyph-name="ugrave" unicode="&#xf9;" 
d="M160 408v632h127v-626q0 -176 67.5 -251t198.5 -75q82 0 151.5 39t110.5 114.5t41 182.5v616h127v-1040h-125v141h-4q-47 -76 -132 -120t-192 -44q-180 0 -275 109t-95 322zM696 1169h-121l-235 289h172z" />
    <glyph glyph-name="uacute" unicode="&#xfa;" 
d="M160 408v632h127v-626q0 -176 67.5 -251t198.5 -75q82 0 151.5 39t110.5 114.5t41 182.5v616h127v-1040h-125v141h-4q-47 -76 -132 -120t-192 -44q-180 0 -275 109t-95 322zM459 1169l184 289h172l-235 -289h-121z" />
    <glyph glyph-name="ucircumflex" unicode="&#xfb;" 
d="M160 408v632h127v-626q0 -176 67.5 -251t198.5 -75q82 0 151.5 39t110.5 114.5t41 182.5v616h127v-1040h-125v141h-4q-47 -76 -132 -120t-192 -44q-180 0 -275 109t-95 322zM580 1376l-166 -207h-142l234 289h145l234 -289h-142z" />
    <glyph glyph-name="udieresis" unicode="&#xfc;" 
d="M160 408v632h127v-626q0 -176 67.5 -251t198.5 -75q82 0 151.5 39t110.5 114.5t41 182.5v616h127v-1040h-125v141h-4q-47 -76 -132 -120t-192 -44q-180 0 -275 109t-95 322zM702 1278v180h125v-180h-125zM326 1278v180h125v-180h-125z" />
    <glyph glyph-name="yacute" unicode="&#xfd;" horiz-adv-x="933" 
d="M142.5 -387q-74.5 0 -105.5 8v113q31 -8 91.5 -8t107.5 21.5t82.5 78.5t80.5 174l-409 1040h137l338 -878h4l338 878h137l-430 -1089q-55 -137 -108.5 -209t-121 -100.5t-142 -28.5zM350 1169l185 289h172l-236 -289h-121z" />
    <glyph glyph-name="thorn" unicode="&#xfe;" horiz-adv-x="1157" 
d="M291 522.5q0 -198.5 85.5 -318.5t233.5 -120t236 119t88 319.5t-88 319.5t-236 119t-233.5 -120t-85.5 -318.5zM640 1067q122 0 221.5 -66.5t152.5 -190.5t53 -288t-53 -287.5t-152.5 -190.5t-221.5 -67t-210 49.5t-129 131.5h-4v-537h-127v1837h127v-571h4
q41 82 129 131t210 49z" />
    <glyph glyph-name="ydieresis" unicode="&#xff;" horiz-adv-x="933" 
d="M142.5 -387q-74.5 0 -105.5 8v113q31 -8 91.5 -8t107.5 21.5t82.5 78.5t80.5 174l-409 1040h137l338 -878h4l338 878h137l-430 -1089q-55 -137 -108.5 -209t-121 -100.5t-142 -28.5zM592 1278v180h125v-180h-125zM215 1278v180h125v-180h-125z" />
    <glyph glyph-name="Amacron" unicode="&#x100;" horiz-adv-x="1359" 
d="M973 594l-291 756h-4l-25 -64q-106 -281 -209 -541l-59 -151h588zM338 471l-182 -471h-144l578 1458h182l576 -1458h-144l-182 471h-684zM410 1624v107h538v-107h-538z" />
    <glyph glyph-name="amacron" unicode="&#x101;" horiz-adv-x="1073" 
d="M211 285q0 -90 64.5 -144.5t158.5 -54.5q173 0 260 92q55 57 76 113.5t21 157.5v79q-418 -28 -519 -106q-61 -47 -61 -137zM913 668v-412q0 -147 23 -256h-119q-14 70 -14 158h-4q-106 -178 -371 -178q-158 0 -255 83.5t-97 216t89 208.5q133 113 626 147v49
q0 139 -72 206.5t-197 67.5t-194.5 -62t-75.5 -169h-133q10 152 115.5 246t289 94t286.5 -100.5t103 -298.5zM240 1278v106h538v-106h-538z" />
    <glyph glyph-name="Abreve" unicode="&#x102;" horiz-adv-x="1359" 
d="M973 594l-291 756h-4l-25 -64q-106 -281 -209 -541l-59 -151h588zM338 471l-182 -471h-144l578 1458h182l576 -1458h-144l-182 471h-684zM680 1649q165 0 194 184h105q-12 -135 -90 -210t-209 -75t-209 75t-90 210h104q12 -88 62.5 -136t132.5 -48z" />
    <glyph glyph-name="abreve" unicode="&#x103;" horiz-adv-x="1073" 
d="M211 285q0 -90 64.5 -144.5t158.5 -54.5q173 0 260 92q55 57 76 113.5t21 157.5v79q-418 -28 -519 -106q-61 -47 -61 -137zM913 668v-412q0 -147 23 -256h-119q-14 70 -14 158h-4q-106 -178 -371 -178q-158 0 -255 83.5t-97 216t89 208.5q133 113 626 147v49
q0 139 -72 206.5t-197 67.5t-194.5 -62t-75.5 -169h-133q10 152 115.5 246t289 94t286.5 -100.5t103 -298.5zM510 1276q165 0 195 182h104q-12 -135 -90 -209.5t-209 -74.5t-209 74.5t-90 209.5h104q12 -88 62.5 -135t132.5 -47z" />
    <glyph glyph-name="Aogonek" unicode="&#x104;" horiz-adv-x="1359" 
d="M973 594l-291 756h-4l-25 -64q-106 -281 -209 -541l-59 -151h588zM1184 -225q0 -76 88 -76q45 0 82 14v-90q-39 -16 -117 -16t-125 40t-47 109.5t38 123.5t122 120h-21l-182 471h-684l-182 -471h-144l578 1458h182l576 -1458q-92 -70 -128 -121t-36 -104z" />
    <glyph glyph-name="aogonek" unicode="&#x105;" horiz-adv-x="1073" 
d="M211 285q0 -90 64.5 -144.5t158.5 -54.5q173 0 260 92q55 57 76 113.5t21 157.5v79q-417 -28 -519 -106q-61 -47 -61 -137zM772 -225q0 -76 88 -76q45 0 82 14v-90q-39 -16 -116.5 -16t-125 40t-47.5 109.5t39 125t125 120.5q-14 70 -14 156h-4q-106 -178 -371 -178
q-158 0 -255 83.5t-97 216t89 208.5q133 113 626 147v49q0 139 -72 206.5t-197 67.5t-194.5 -62t-75.5 -169h-133q10 152 115.5 246t288.5 94t286.5 -100.5t103.5 -298.5v-412q0 -147 23 -256q-92 -70 -128 -121t-36 -104z" />
    <glyph glyph-name="Cacute" unicode="&#x106;" horiz-adv-x="1398" 
d="M734 1360q-165 0 -274.5 -76t-168 -218t-58.5 -336.5t58.5 -337t167 -218.5t271.5 -76t281.5 107.5t143.5 290.5h139q-16 -158 -90 -276t-199.5 -182.5t-302.5 -64.5t-317.5 91.5t-216.5 261.5t-76 403.5t76 403.5t217 261t321.5 91t306.5 -66.5t195.5 -183.5t77.5 -264
h-139q-16 178 -132 283.5t-281 105.5zM600 1556l184 277h172l-235 -277h-121z" />
    <glyph glyph-name="cacute" unicode="&#x107;" horiz-adv-x="1067" 
d="M561 956q-156 0 -245 -116.5t-89 -320.5t89.5 -319.5t244.5 -115.5q117 0 198 83t91 204h133q-10 -113 -64.5 -203t-146.5 -142.5t-211 -52.5q-219 0 -345 146.5t-126 400.5t126 400.5t345 146.5q176 0 292 -106.5t130 -278.5h-133q-10 121 -90 197.5t-199 76.5z
M442 1169l185 289h172l-236 -289h-121z" />
    <glyph glyph-name="Ccircumflex" unicode="&#x108;" horiz-adv-x="1398" 
d="M734 1360q-165 0 -274.5 -76t-168 -218t-58.5 -336.5t58.5 -337t167 -218.5t271.5 -76t281.5 107.5t143.5 290.5h139q-16 -158 -90 -276t-199.5 -182.5t-302.5 -64.5t-317.5 91.5t-216.5 261.5t-76 403.5t76 403.5t217 261t321.5 91t306.5 -66.5t195.5 -183.5t77.5 -264
h-139q-16 178 -132 283.5t-281 105.5zM791 1833l233 -277h-141l-166 195l-164 -195h-141l233 277h146z" />
    <glyph glyph-name="ccircumflex" unicode="&#x109;" horiz-adv-x="1067" 
d="M561 956q-156 0 -245 -116.5t-89 -320.5t89.5 -319.5t244.5 -115.5q117 0 198 83t91 204h133q-10 -113 -64.5 -203t-146.5 -142.5t-211 -52.5q-219 0 -345 146.5t-126 400.5t126 400.5t345 146.5q176 0 292 -106.5t130 -278.5h-133q-10 121 -90 197.5t-199 76.5z
M563 1376l-166 -207h-141l233 289h146l233 -289h-141z" />
    <glyph glyph-name="Cdotaccent" unicode="&#x10a;" horiz-adv-x="1398" 
d="M734 1360q-165 0 -274.5 -76t-168 -218t-58.5 -336.5t58.5 -337t167 -218.5t271.5 -76t281.5 107.5t143.5 290.5h139q-16 -158 -90 -276t-199.5 -182.5t-302.5 -64.5t-317.5 91.5t-216.5 261.5t-76 403.5t76 403.5t217 261t321.5 91t306.5 -66.5t195.5 -183.5t77.5 -264
h-139q-16 178 -132 283.5t-281 105.5zM653 1575v180h127v-180h-127z" />
    <glyph glyph-name="cdotaccent" unicode="&#x10b;" horiz-adv-x="1067" 
d="M561 956q-156 0 -245 -116.5t-89 -320.5t89.5 -319.5t244.5 -115.5q117 0 198 83t91 204h133q-10 -113 -64.5 -203t-146.5 -142.5t-211 -52.5q-219 0 -345 146.5t-126 400.5t126 400.5t345 146.5q176 0 292 -106.5t130 -278.5h-133q-10 121 -90 197.5t-199 76.5z
M498 1278v180h127v-180h-127z" />
    <glyph glyph-name="Ccaron" unicode="&#x10c;" horiz-adv-x="1398" 
d="M734 1360q-165 0 -274.5 -76t-168 -218t-58.5 -336.5t58.5 -337t167 -218.5t271.5 -76t281.5 107.5t143.5 290.5h139q-16 -158 -90 -276t-199.5 -182.5t-302.5 -64.5t-317.5 91.5t-216.5 261.5t-76 403.5t76 403.5t217 261t321.5 91t306.5 -66.5t195.5 -183.5t77.5 -264
h-139q-16 178 -132 283.5t-281 105.5zM645 1556l-233 277h141l166 -195l164 195h141l-233 -277h-146z" />
    <glyph glyph-name="ccaron" unicode="&#x10d;" horiz-adv-x="1067" 
d="M561 956q-156 0 -245 -116.5t-89 -320.5t89.5 -319.5t244.5 -115.5q117 0 198 83t91 204h133q-10 -113 -64.5 -203t-146.5 -142.5t-211 -52.5q-219 0 -345 146.5t-126 400.5t126 400.5t345 146.5q176 0 292 -106.5t130 -278.5h-133q-10 121 -90 197.5t-199 76.5z
M489 1169l-233 289h141l166 -207l164 207h141l-233 -289h-146z" />
    <glyph glyph-name="Dcaron" unicode="&#x10e;" horiz-adv-x="1470" 
d="M340 121h293q291 0 447.5 157.5t156.5 450.5t-156.5 450.5t-447.5 157.5h-293v-1216zM1378 729q0 -350 -194.5 -539.5t-550.5 -189.5h-426v1458h426q356 0 550.5 -189.5t194.5 -539.5zM596 1556l-234 277h142l166 -195l164 195h141l-234 -277h-145z" />
    <glyph glyph-name="dcaron" unicode="&#x10f;" horiz-adv-x="1157" 
d="M223 522q0 -202 88 -320q87 -118 235 -118t234 120t86 318t-86 319q-86 120 -234 120t-235 -119q-88 -119 -88 -320zM860 0v158h-4q-41 -82 -129 -131t-210 -49t-221 66q-98 66 -152 190t-54 288t53 288t153 190t221 67q122 0 210 -49t129 -131h4v571h127v-1458h-127z
M1063 1098l63 360h131l-110 -360h-84z" />
    <glyph glyph-name="Dcroat" unicode="&#x110;" horiz-adv-x="1470" 
d="M1237 729q0 293 -156.5 450.5t-447.5 157.5h-293v-542h451v-113h-451v-561h293q291 0 447.5 157.5t156.5 450.5zM1378 729q0 -350 -194.5 -539.5t-550.5 -189.5h-426v682h-135v113h135v663h426q356 0 550.5 -189.5t194.5 -539.5z" />
    <glyph glyph-name="dcroat" unicode="&#x111;" horiz-adv-x="1146" 
d="M866 522.5q0 198.5 -86 318.5t-234 120t-235.5 -119t-87.5 -319.5t87.5 -319.5t235.5 -119t234 120t86 318.5zM987 1194v-1194h-127v158h-4q-41 -82 -129 -131.5t-210 -49.5t-221 67t-152.5 190.5t-53.5 287.5t53.5 288t152.5 190.5t221 66.5t210 -49t129 -131h4v307
h-280v94h280v170h127v-170h131v-94h-131z" />
    <glyph glyph-name="Emacron" unicode="&#x112;" horiz-adv-x="1249" 
d="M340 1337v-528h735v-121h-735v-567h799v-121h-932v1458h907v-121h-774zM389 1624v107h539v-107h-539z" />
    <glyph glyph-name="emacron" unicode="&#x113;" horiz-adv-x="1103" 
d="M557 958q-143 0 -235.5 -96t-100.5 -262h670q-10 170 -100.5 264t-233.5 94zM565 -27q-221 0 -348 153t-127 413q0 154 56.5 273.5t162 187t264 67.5t274.5 -98.5t150 -272.5q16 -74 17 -200h-795q4 -201 100.5 -307.5t233.5 -106.5t217 62.5t104 164.5h132
q-27 -143 -140.5 -239.5t-300.5 -96.5zM281 1278v106h538v-106h-538z" />
    <glyph glyph-name="Ebreve" unicode="&#x114;" horiz-adv-x="1249" 
d="M340 1337v-528h735v-121h-735v-567h799v-121h-932v1458h907v-121h-774zM660 1649q166 0 194 184h104q-12 -135 -89.5 -210t-209 -75t-209 75t-90.5 210h105q12 -88 62.5 -136t132.5 -48z" />
    <glyph glyph-name="ebreve" unicode="&#x115;" horiz-adv-x="1103" 
d="M557 958q-143 0 -235.5 -96t-100.5 -262h670q-10 170 -100.5 264t-233.5 94zM565 -27q-221 0 -348 153t-127 413q0 154 56.5 273.5t162 187t264 67.5t274.5 -98.5t150 -272.5q16 -74 17 -200h-795q4 -201 100.5 -307.5t233.5 -106.5t217 62.5t104 164.5h132
q-27 -143 -140.5 -239.5t-300.5 -96.5zM551 1276q166 0 194 182h105q-12 -135 -90 -209.5t-209 -74.5t-209 74.5t-90 209.5h104q12 -88 62.5 -135t132.5 -47z" />
    <glyph glyph-name="Edotaccent" unicode="&#x116;" horiz-adv-x="1249" 
d="M340 1337v-528h735v-121h-735v-567h799v-121h-932v1458h907v-121h-774zM596 1575v180h127v-180h-127z" />
    <glyph glyph-name="edotaccent" unicode="&#x117;" horiz-adv-x="1103" 
d="M557 958q-143 0 -235.5 -96t-100.5 -262h670q-10 170 -100.5 264t-233.5 94zM565 -27q-221 0 -348 153t-127 413q0 154 56.5 273.5t162 187t264 67.5t274.5 -98.5t150 -272.5q16 -74 17 -200h-795q4 -201 100.5 -307.5t233.5 -106.5t217 62.5t104 164.5h132
q-27 -143 -140.5 -239.5t-300.5 -96.5zM487 1278v180h127v-180h-127z" />
    <glyph glyph-name="Eogonek" unicode="&#x118;" horiz-adv-x="1249" 
d="M975 -225q0 -76 88 -76q45 0 82 14v-90q-39 -16 -117 -16t-125 40t-47 109.5t38 123.5t122 120h-809v1458h907v-121h-774v-528h735v-121h-735v-567h799v-121q-92 -70 -128 -121t-36 -104z" />
    <glyph glyph-name="eogonek" unicode="&#x119;" horiz-adv-x="1103" 
d="M557 958q-143 0 -235.5 -96t-100.5 -262h670q-10 170 -100.5 264t-233.5 94zM555 -240q0 113 107 220v4q-51 -10 -97 -11q-221 0 -348 153t-127 413q0 154 56.5 273.5t162 187t263.5 67.5t274.5 -98.5t150.5 -272.5q16 -74 17 -200h-795q4 -201 100.5 -307.5
t233.5 -106.5t217 62.5t104 164.5h132q-26 -142 -158 -260q-98 -86 -136 -144.5t-38 -121.5q0 -84 88 -84q45 0 82 14v-90q-43 -16 -101 -16q-188 0 -188 153z" />
    <glyph glyph-name="Ecaron" unicode="&#x11a;" horiz-adv-x="1249" 
d="M340 1337v-528h735v-121h-735v-567h799v-121h-932v1458h907v-121h-774zM588 1556l-234 277h142l166 -195l163 195h142l-234 -277h-145z" />
    <glyph glyph-name="ecaron" unicode="&#x11b;" horiz-adv-x="1103" 
d="M557 958q-143 0 -235.5 -96t-100.5 -262h670q-10 170 -100.5 264t-233.5 94zM565 -27q-221 0 -348 153t-127 413q0 154 56.5 273.5t162 187t264 67.5t274.5 -98.5t150 -272.5q16 -74 17 -200h-795q4 -201 100.5 -307.5t233.5 -106.5t217 62.5t104 164.5h132
q-27 -143 -140.5 -239.5t-300.5 -96.5zM479 1169l-233 289h141l166 -207l164 207h141l-233 -289h-146z" />
    <glyph glyph-name="Gcircumflex" unicode="&#x11c;" horiz-adv-x="1482" 
d="M748 1360q-167 0 -280.5 -77t-174 -220t-60.5 -338t58.5 -336t167 -216t258.5 -75q207 0 333 130t126 413h-428v121h557v-762h-125v223h-4q-55 -113 -184.5 -180.5t-302.5 -67.5t-310 90.5t-212 259.5t-75 401t78 403t223.5 263.5t324.5 92.5t302 -56.5t196.5 -160
t86.5 -240.5h-140q-27 158 -137.5 245t-277.5 87zM801 1833l233 -277h-141l-166 195l-164 -195h-141l233 277h146z" />
    <glyph glyph-name="gcircumflex" unicode="&#x11d;" horiz-adv-x="1157" 
d="M223 538.5q0 -190.5 86 -305t235 -114.5t235.5 112.5t86.5 307t-87 307t-235.5 112.5t-234.5 -114.5t-86 -305zM856 193q-110 -183 -336 -183q-118 0 -218.5 65.5t-156 185.5t-55.5 277.5t55.5 277.5t155.5 185.5t219 65.5q231 0 336 -182h4v155h127v-977
q0 -225 -110.5 -340.5t-315.5 -115.5t-315.5 87t-112.5 240h129q2 -104 80 -162.5t222 -58.5q296 0 296 357v123h-4zM561 1376l-166 -207h-141l233 289h146l233 -289h-141z" />
    <glyph glyph-name="Gbreve" unicode="&#x11e;" horiz-adv-x="1482" 
d="M748 1360q-167 0 -280.5 -77t-174 -220t-60.5 -338t58.5 -336t167 -216t258.5 -75q207 0 333 130t126 413h-428v121h557v-762h-125v223h-4q-55 -113 -184.5 -180.5t-302.5 -67.5t-310 90.5t-212 259.5t-75 401t78 403t223.5 263.5t324.5 92.5t302 -56.5t196.5 -160
t86.5 -240.5h-140q-27 158 -137.5 245t-277.5 87zM729 1649q164 0 195 184h104q-12 -135 -90 -210t-209 -75t-209 75t-90 210h105q12 -88 62 -136t132 -48z" />
    <glyph glyph-name="gbreve" unicode="&#x11f;" horiz-adv-x="1157" 
d="M223 538.5q0 -190.5 86 -305t235 -114.5t235.5 112.5t86.5 307t-87 307t-235.5 112.5t-234.5 -114.5t-86 -305zM856 193q-110 -183 -336 -183q-118 0 -218.5 65.5t-156 185.5t-55.5 277.5t55.5 277.5t155.5 185.5t219 65.5q231 0 336 -182h4v155h127v-977
q0 -225 -110.5 -340.5t-315.5 -115.5t-315.5 87t-112.5 240h129q2 -104 80 -162.5t222 -58.5q296 0 296 357v123h-4zM559 1276q165 0 195 182h104q-12 -135 -90 -209.5t-209 -74.5t-209 74.5t-90 209.5h105q12 -88 62 -135t132 -47z" />
    <glyph glyph-name="Gdotaccent" unicode="&#x120;" horiz-adv-x="1482" 
d="M748 1360q-167 0 -280.5 -77t-174 -220t-60.5 -338t58.5 -336t167 -216t258.5 -75q207 0 333 130t126 413h-428v121h557v-762h-125v223h-4q-55 -113 -184.5 -180.5t-302.5 -67.5t-310 90.5t-212 259.5t-75 401t78 403t223.5 263.5t324.5 92.5t302 -56.5t196.5 -160
t86.5 -240.5h-140q-27 158 -137.5 245t-277.5 87zM664 1575v180h127v-180h-127z" />
    <glyph glyph-name="gdotaccent" unicode="&#x121;" horiz-adv-x="1157" 
d="M223 538.5q0 -190.5 86 -305t235 -114.5t235.5 112.5t86.5 307t-87 307t-235.5 112.5t-234.5 -114.5t-86 -305zM856 193q-110 -183 -336 -183q-118 0 -218.5 65.5t-156 185.5t-55.5 277.5t55.5 277.5t155.5 185.5t219 65.5q231 0 336 -182h4v155h127v-977
q0 -225 -110.5 -340.5t-315.5 -115.5t-315.5 87t-112.5 240h129q2 -104 80 -162.5t222 -58.5q296 0 296 357v123h-4zM496 1278v180h127v-180h-127z" />
    <glyph glyph-name="Gcommaaccent" unicode="&#x122;" horiz-adv-x="1482" 
d="M748 1360q-167 0 -280.5 -77t-174 -220t-60.5 -338t58.5 -336t167 -216t258.5 -75q207 0 333 130t126 413h-428v121h557v-762h-125v223h-4q-55 -113 -184.5 -180.5t-302.5 -67.5t-310 90.5t-212 259.5t-75 401t78 403t223.5 263.5t324.5 92.5t302 -56.5t196.5 -160
t86.5 -240.5h-140q-27 158 -137.5 245t-277.5 87zM655 -305v166h146v-166l-101 -209h-59l72 209h-58z" />
    <glyph glyph-name="gcommaaccent" unicode="&#x123;" horiz-adv-x="1157" 
d="M223 538.5q0 -190.5 86 -305t235 -114.5t235.5 112.5t86.5 307t-87 307t-235.5 112.5t-234.5 -114.5t-86 -305zM856 193q-110 -183 -336 -183q-118 0 -218.5 65.5t-156 185.5t-55.5 277.5t55.5 277.5t155.5 185.5t219 65.5q231 0 336 -182h4v155h127v-977
q0 -225 -110.5 -340.5t-315.5 -115.5t-315.5 87t-112.5 240h129q2 -104 80 -162.5t222 -58.5q296 0 296 357v123h-4zM625 1366v-166h-146v166l101 209h59l-72 -209h58z" />
    <glyph glyph-name="Hcircumflex" unicode="&#x124;" horiz-adv-x="1497" 
d="M1157 0v696h-817v-696h-133v1458h133v-641h817v641h133v-1458h-133zM821 1833l234 -277h-142l-165 195l-164 -195h-142l234 277h145z" />
    <glyph glyph-name="hcircumflex" unicode="&#x125;" 
d="M623 1063q180 0 275 -108.5t95 -321.5v-633h-127v627q0 176 -67.5 250.5t-198.5 74.5q-82 0 -151.5 -39t-110.5 -114.5t-41 -182.5v-616h-127v1458h127v-557h4q51 80 137 121t185 41zM651 1833l234 -277h-142l-165 195l-164 -195h-142l234 277h145z" />
    <glyph glyph-name="Hbar" unicode="&#x126;" horiz-adv-x="1497" 
d="M340 1180v-363h817v363h-817zM1290 1180v-1180h-133v696h-817v-696h-133v1180h-123v108h123v170h133v-170h817v170h133v-170h123v-108h-123z" />
    <glyph glyph-name="hbar" unicode="&#x127;" 
d="M993 633v-633h-127v627q0 176 -67.5 250.5t-198.5 74.5q-82 0 -151.5 -39t-110.5 -114.5t-41 -182.5v-616h-127v1194h-141v94h141v170h127v-170h270v-94h-270v-293h4q51 80 137 121t185 41q180 0 275 -108.5t95 -321.5z" />
    <glyph glyph-name="Itilde" unicode="&#x128;" horiz-adv-x="546" 
d="M207 0v1458h133v-1458h-133zM418 1704q86 0 94 108h98q-6 -104 -56 -159.5t-125 -55.5t-166 55.5t-134 55.5q-86 0 -94 -111h-98q6 104 56 159.5t134 55.5q69 0 157.5 -54t133.5 -54z" />
    <glyph glyph-name="itilde" unicode="&#x129;" horiz-adv-x="466" 
d="M170 0v1040h127v-1040h-127zM352 1225q-39 0 -68.5 15t-82.5 55t-88 40q-74 0 -84 -110h-90q4 104 50 159.5t124 55.5q39 0 68.5 -16.5t83.5 -56.5t87 -40q76 0 86 113h90q-4 -103 -51 -159t-125 -56z" />
    <glyph glyph-name="Imacron" unicode="&#x12a;" horiz-adv-x="546" 
d="M207 0v1458h133v-1458h-133zM2 1624v107h539v-107h-539z" />
    <glyph glyph-name="imacron" unicode="&#x12b;" horiz-adv-x="466" 
d="M170 0v1040h127v-1040h-127zM-14 1280v104h495v-104h-495z" />
    <glyph glyph-name="Ibreve" unicode="&#x12c;" horiz-adv-x="546" 
d="M207 0v1458h133v-1458h-133zM274 1649q166 0 195 184h104q-12 -135 -89.5 -210t-209 -75t-209 75t-90.5 210h105q12 -88 62 -136t132 -48z" />
    <glyph glyph-name="ibreve" unicode="&#x12d;" horiz-adv-x="466" 
d="M170 0v1040h127v-1040h-127zM235.5 1174q-122.5 0 -191.5 74.5t-73 209.5h103q6 -90 48 -137t113.5 -47t113.5 48t46 136h105q-4 -135 -73 -209.5t-191.5 -74.5z" />
    <glyph glyph-name="Iogonek" unicode="&#x12e;" horiz-adv-x="546" 
d="M176 -225q0 -76 88 -76q45 0 82 14v-90q-39 -16 -116.5 -16t-125 40t-47.5 109.5t38 123.5t122 120h-10v1458h133v-1458q-92 -70 -128 -121t-36 -104z" />
    <glyph glyph-name="iogonek" unicode="&#x12f;" horiz-adv-x="466" 
d="M133 -225q0 -76 88 -76q45 0 82 14v-90q-39 -16 -116.5 -16t-125 40t-47.5 109.5t38 123.5t122 120h-4v1040h127v-1040q-92 -70 -128 -121t-36 -104zM170 1278v180h127v-180h-127z" />
    <glyph glyph-name="Idotaccent" unicode="&#x130;" horiz-adv-x="546" 
d="M207 0v1458h133v-1458h-133zM209 1575v180h127v-180h-127z" />
    <glyph glyph-name="dotlessi" unicode="&#x131;" horiz-adv-x="466" 
d="M170 0v1040h127v-1040h-127z" />
    <glyph glyph-name="IJ" unicode="&#x132;" horiz-adv-x="1236" 
d="M207 0v1458h133v-1458h-133zM662 117q245 0 245 282v1059h135v-1063q0 -200 -98 -301.5t-280 -101.5q-49 0 -86 10v123q43 -8 84 -8z" />
    <glyph glyph-name="ij" unicode="&#x133;" horiz-adv-x="948" 
d="M506 -387q-39 0 -74 8v111q35 -6 62 -6q78 0 117.5 46t39.5 154v1114h127v-1116q0 -311 -272 -311zM170 0v1040h127v-1040h-127zM651 1278v180h127v-180h-127zM170 1278v180h127v-180h-127z" />
    <glyph glyph-name="Jcircumflex" unicode="&#x134;" horiz-adv-x="690" 
d="M115 117q245 0 245 282v1059h136v-1063q0 -200 -98.5 -301.5t-280.5 -101.5q-49 0 -86 10v123q43 -8 84 -8zM502 1833l233 -277h-141l-166 195l-164 -195h-141l233 277h146z" />
    <glyph glyph-name="jcircumflex" unicode="&#x135;" horiz-adv-x="481" 
d="M39 -387q-39 0 -74 8v111q33 -6 62 -6q78 0 117.5 46t39.5 154v1114h127v-1116q0 -311 -272 -311zM387 1171l-139 207l-137 -207h-140l201 287h152l200 -287h-137z" />
    <glyph glyph-name="Kcommaaccent" unicode="&#x136;" horiz-adv-x="1243" 
d="M340 731v-731h-133v1458h133v-665h4l643 665h180l-678 -696l744 -762h-186l-703 731h-4zM594 -305v166h145v-166l-100 -209h-59l71 209h-57z" />
    <glyph glyph-name="kcommaaccent" unicode="&#x137;" horiz-adv-x="980" 
d="M297 537v-537h-127v1458h127v-854h4l463 436h172l-504 -467l563 -573h-176l-518 537h-4zM471 -305v166h145v-166l-100 -209h-59l71 209h-57z" />
    <glyph glyph-name="kgreenlandic" unicode="&#x138;" horiz-adv-x="1015" 
d="M297 537v-537h-127v1040h127v-436h4l463 436h172l-504 -467l563 -573h-176l-518 537h-4z" />
    <glyph glyph-name="Lacute" unicode="&#x139;" horiz-adv-x="1132" 
d="M1112 121v-121h-905v1458h133v-1337h772zM221 1556l185 277h172l-236 -277h-121z" />
    <glyph glyph-name="lacute" unicode="&#x13a;" horiz-adv-x="466" 
d="M170 0v1458h127v-1458h-127zM160 1587l184 289h172l-235 -289h-121z" />
    <glyph glyph-name="Lcommaaccent" unicode="&#x13b;" horiz-adv-x="1132" 
d="M1112 121v-121h-905v1458h133v-1337h772zM588 -305v166h145v-166l-100 -209h-60l72 209h-57z" />
    <glyph glyph-name="lcommaaccent" unicode="&#x13c;" horiz-adv-x="466" 
d="M170 0v1458h127v-1458h-127zM162 -305v166h145v-166l-100 -209h-60l72 209h-57z" />
    <glyph glyph-name="Lcaron" unicode="&#x13d;" horiz-adv-x="1132" 
d="M1112 121v-121h-905v1458h133v-1337h772zM479 1018l64 440h131l-111 -440h-84z" />
    <glyph glyph-name="lcaron" unicode="&#x13e;" horiz-adv-x="466" 
d="M170 0v1458h127v-1458h-127zM377 1098l63 360h131l-110 -360h-84z" />
    <glyph glyph-name="Ldot" unicode="&#x13f;" horiz-adv-x="1296" 
d="M1112 121v-121h-905v1458h133v-1337h772zM834 733v187h176v-187h-176z" />
    <glyph glyph-name="ldot" unicode="&#x140;" horiz-adv-x="729" 
d="M170 0v1458h127v-1458h-127zM510 635v186h176v-186h-176z" />
    <glyph glyph-name="Lslash" unicode="&#x141;" horiz-adv-x="1132" 
d="M1112 0h-905v647l-172 -102v129l172 102v682h133v-616l311 186v-129l-311 -186v-592h772v-121z" />
    <glyph glyph-name="lslash" unicode="&#x142;" horiz-adv-x="536" 
d="M332 0h-127v743l-185 -108v121l185 108v594h127v-528l184 108v-120l-184 -109v-809z" />
    <glyph glyph-name="Nacute" unicode="&#x143;" horiz-adv-x="1525" 
d="M340 0h-133v1458h203l594 -1014q119 -209 180 -311h4q-2 244 -2 729v596h133v-1458h-203l-594 1014q-119 209 -180 311h-4l2 -729v-596zM645 1556l184 277h172l-235 -277h-121z" />
    <glyph glyph-name="nacute" unicode="&#x144;" 
d="M993 633v-633h-127v627q0 176 -67.5 250.5t-198.5 74.5q-82 0 -151.5 -39t-110.5 -114.5t-41 -182.5v-616h-127v1040h125v-141h4q49 76 134 120t190 44q180 0 275 -108.5t95 -321.5zM463 1169l184 289h172l-235 -289h-121z" />
    <glyph glyph-name="Ncommaaccent" unicode="&#x145;" horiz-adv-x="1525" 
d="M340 0h-133v1458h203l594 -1014q119 -209 180 -311h4q-2 244 -2 729v596h133v-1458h-203l-594 1014q-119 209 -180 311h-4l2 -729v-596zM692 -305v166h146v-166l-101 -209h-59l72 209h-58z" />
    <glyph glyph-name="ncommaaccent" unicode="&#x146;" 
d="M993 633v-633h-127v627q0 176 -67.5 250.5t-198.5 74.5q-82 0 -151.5 -39t-110.5 -114.5t-41 -182.5v-616h-127v1040h125v-141h4q49 76 134 120t190 44q180 0 275 -108.5t95 -321.5zM510 -305v166h145v-166l-100 -209h-59l71 209h-57z" />
    <glyph glyph-name="Ncaron" unicode="&#x147;" horiz-adv-x="1525" 
d="M340 0h-133v1458h203l594 -1014q119 -209 180 -311h4q-2 244 -2 729v596h133v-1458h-203l-594 1014q-119 209 -180 311h-4l2 -729v-596zM690 1556l-233 277h141l166 -195l164 195h141l-233 -277h-146z" />
    <glyph glyph-name="ncaron" unicode="&#x148;" 
d="M993 633v-633h-127v627q0 176 -67.5 250.5t-198.5 74.5q-82 0 -151.5 -39t-110.5 -114.5t-41 -182.5v-616h-127v1040h125v-141h4q49 76 134 120t190 44q180 0 275 -108.5t95 -321.5zM510 1169l-234 289h142l166 -207l164 207h141l-234 -289h-145z" />
    <glyph glyph-name="napostrophe" unicode="&#x149;" horiz-adv-x="1363" 
d="M147 1274v184h172v-184l-81 -262h-91l60 262h-60zM1204 633v-633h-127v627q0 176 -67.5 250.5t-198.5 74.5q-82 0 -151.5 -39t-110.5 -114.5t-41 -182.5v-616h-127v1040h125v-141h4q49 76 134 120t190 44q180 0 275 -108.5t95 -321.5z" />
    <glyph glyph-name="Eng" unicode="&#x14a;" horiz-adv-x="1521" 
d="M1315 -96q0 -291 -277 -291q-41 0 -73 8v111q35 -6 61 -6q80 0 119 40.5t39 139.5v94l-842 1321h-4l2 -709v-612h-133v1458h199l774 -1220h4v1220h131v-1554z" />
    <glyph glyph-name="eng" unicode="&#x14b;" 
d="M993 612v-708q0 -291 -270 -291q-41 0 -74 8v111q31 -6 60 -6q80 0 118.5 42t38.5 140v696q0 111 -15 170.5t-52 102.5q-72 78 -199 77q-82 0 -151.5 -40t-110.5 -115.5t-41 -182.5v-616h-127v1040h127v-141h4q51 82 136 123t186 41q170 -1 270 -105q55 -59 77.5 -138
t22.5 -208z" />
    <glyph glyph-name="Omacron" unicode="&#x14c;" horiz-adv-x="1482" 
d="M233 729.5q0 -190.5 62.5 -334t177.5 -220.5t268.5 -77t268 78t177 220.5t62.5 333t-62.5 332.5t-177 220t-268 78t-268.5 -77t-177.5 -220t-62.5 -333.5zM1389 729q0 -229 -79 -399t-225.5 -263.5t-343 -93.5t-343 93.5t-226.5 264.5t-80 398t80 398t226.5 264.5
t343 93.5t343 -93.5t225.5 -263.5t79 -399zM471 1624v107h539v-107h-539z" />
    <glyph glyph-name="omacron" unicode="&#x14d;" horiz-adv-x="1130" 
d="M223 520q0 -203 91.5 -319.5t252 -116.5t251.5 116.5t91 319.5t-91 319.5t-251.5 116.5t-252 -116.5t-91.5 -319.5zM1040 520q0 -254 -127 -400.5t-348 -146.5t-348 146.5t-127 400.5t127 400.5t348 146.5t348 -146.5t127 -400.5zM295 1278v106h539v-106h-539z" />
    <glyph glyph-name="Obreve" unicode="&#x14e;" horiz-adv-x="1482" 
d="M233 729.5q0 -190.5 62.5 -334t177.5 -220.5t268.5 -77t268 78t177 220.5t62.5 333t-62.5 332.5t-177 220t-268 78t-268.5 -77t-177.5 -220t-62.5 -333.5zM1389 729q0 -229 -79 -399t-225.5 -263.5t-343 -93.5t-343 93.5t-226.5 264.5t-80 398t80 398t226.5 264.5
t343 93.5t343 -93.5t225.5 -263.5t79 -399zM741 1649q166 0 195 184h104q-12 -135 -90 -210t-209 -75t-208.5 75t-90.5 210h105q12 -88 62 -136t132 -48z" />
    <glyph glyph-name="obreve" unicode="&#x14f;" horiz-adv-x="1130" 
d="M223 520q0 -203 91.5 -319.5t252 -116.5t251.5 116.5t91 319.5t-91 319.5t-251.5 116.5t-252 -116.5t-91.5 -319.5zM1040 520q0 -254 -127 -400.5t-348 -146.5t-348 146.5t-127 400.5t127 400.5t348 146.5t348 -146.5t127 -400.5zM565 1276q165 0 195 182h104
q-12 -135 -90 -209.5t-209 -74.5t-208.5 74.5t-90.5 209.5h105q12 -88 62 -135t132 -47z" />
    <glyph glyph-name="Ohungarumlaut" unicode="&#x150;" horiz-adv-x="1482" 
d="M233 729.5q0 -190.5 62.5 -334t177.5 -220.5t268.5 -77t268 78t177 220.5t62.5 333t-62.5 332.5t-177 220t-268 78t-268.5 -77t-177.5 -220t-62.5 -333.5zM1389 729q0 -229 -79 -399t-225.5 -263.5t-343 -93.5t-343 93.5t-226.5 264.5t-80 398t80 398t226.5 264.5
t343 93.5t343 -93.5t225.5 -263.5t79 -399zM786 1542l226 291h164l-275 -291h-115zM489 1542l226 291h164l-275 -291h-115z" />
    <glyph glyph-name="ohungarumlaut" unicode="&#x151;" horiz-adv-x="1130" 
d="M223 520q0 -203 91.5 -319.5t252 -116.5t251.5 116.5t91 319.5t-91 319.5t-251.5 116.5t-252 -116.5t-91.5 -319.5zM1040 520q0 -254 -127 -400.5t-348 -146.5t-348 146.5t-127 400.5t127 400.5t348 146.5t348 -146.5t127 -400.5zM614 1169l226 289h164l-275 -289h-115z
M317 1169l226 289h164l-275 -289h-115z" />
    <glyph glyph-name="OE" unicode="&#x152;" horiz-adv-x="2025" 
d="M233 729q0 -293 154 -450.5t440 -157.5h154v1216h-154q-286 0 -440 -157.5t-154 -450.5zM1116 1337v-528h733v-121h-733v-567h797v-121h-1086q-352 0 -543.5 189.5t-191.5 539.5t191.5 539.5t543.5 189.5h1061v-121h-772z" />
    <glyph glyph-name="oe" unicode="&#x153;" horiz-adv-x="1806" 
d="M850 520q0 203 -85 319.5t-230.5 116.5t-228.5 -116.5t-83 -319.5t83 -319.5t228.5 -116.5t230.5 116.5t85 319.5zM1277 958q-136 0 -222 -96t-94 -262h628q-8 170 -92 264t-220 94zM905 817q107 250 389 250q146 0 258.5 -100.5t147.5 -270.5q16 -88 16 -200h-755
q4 -201 94 -307.5t220 -106.5t204.5 62.5t95.5 164.5h131q-23 -143 -132.5 -239.5t-287.5 -96.5q-267 0 -379 256q-51 -123 -146 -189.5t-226 -66.5q-207 0 -326 146.5t-119 400.5t119 400.5t326 146.5q129 0 224 -64.5t146 -185.5z" />
    <glyph glyph-name="Racute" unicode="&#x154;" horiz-adv-x="1284" 
d="M340 764h303q176 0 265 82t89 217q0 274 -364 274h-293v-573zM1135 1069q0 -141 -78 -240.5t-205 -126.5v-4q80 -25 124 -81t93 -191l154 -426h-146l-139 406q-47 135 -110.5 186t-186.5 51h-301v-643h-133v1458h428q252 0 376 -100.5t124 -288.5zM518 1556l184 277h172
l-235 -277h-121z" />
    <glyph glyph-name="racute" unicode="&#x155;" horiz-adv-x="710" 
d="M621 926q-156 0 -240 -98.5t-84 -278.5v-549h-127v1040h125v-163h4q104 172 317 172q39 -1 70 -7v-120q-33 4 -65 4zM303 1169l184 289h172l-235 -289h-121z" />
    <glyph glyph-name="Rcommaaccent" unicode="&#x156;" horiz-adv-x="1284" 
d="M340 764h303q176 0 265 82t89 217q0 274 -364 274h-293v-573zM1135 1069q0 -141 -78 -240.5t-205 -126.5v-4q80 -25 124 -81t93 -191l154 -426h-146l-139 406q-47 135 -110.5 186t-186.5 51h-301v-643h-133v1458h428q252 0 376 -100.5t124 -288.5zM616 -305v166h146v-166
l-100 -209h-60l72 209h-58z" />
    <glyph glyph-name="rcommaaccent" unicode="&#x157;" horiz-adv-x="710" 
d="M621 926q-156 0 -240 -98.5t-84 -278.5v-549h-127v1040h125v-163h4q104 172 317 172q39 -1 70 -7v-120q-33 4 -65 4zM162 -305v166h145v-166l-100 -209h-60l72 209h-57z" />
    <glyph glyph-name="Rcaron" unicode="&#x158;" horiz-adv-x="1284" 
d="M340 764h303q176 0 265 82t89 217q0 274 -364 274h-293v-573zM1135 1069q0 -141 -78 -240.5t-205 -126.5v-4q80 -25 124 -81t93 -191l154 -426h-146l-139 406q-47 135 -110.5 186t-186.5 51h-301v-643h-133v1458h428q252 0 376 -100.5t124 -288.5zM563 1556l-233 277h141
l166 -195l164 195h141l-233 -277h-146z" />
    <glyph glyph-name="rcaron" unicode="&#x159;" horiz-adv-x="710" 
d="M621 926q-156 0 -240 -98.5t-84 -278.5v-549h-127v1040h125v-163h4q104 172 317 172q39 -1 70 -7v-120q-33 4 -65 4zM350 1169l-233 289h141l166 -207l164 207h141l-233 -289h-146z" />
    <glyph glyph-name="Sacute" unicode="&#x15a;" horiz-adv-x="1226" 
d="M1085 1006h-135q0 358 -372 358q-154 0 -238 -70.5t-84 -193.5q0 -156 156 -220q76 -32 227.5 -69t251.5 -80q221 -95 221 -342q0 -190 -134 -303t-374 -113t-376 131.5t-136 380.5h133q0 -199 102.5 -294t282.5 -95t273.5 76t93.5 215q0 88 -42 140.5t-121 84
t-232.5 70.5t-251.5 82q-210 92 -209 331q-1 239 211 341q104 50 246 49q251 0 379 -121t128 -358zM459 1556l184 277h172l-235 -277h-121z" />
    <glyph glyph-name="sacute" unicode="&#x15b;" horiz-adv-x="980" 
d="M735 711q0 117 -69.5 181t-185 64t-180 -47t-64.5 -116.5t26.5 -102.5t74.5 -49t172 -45t199.5 -56.5t130 -90t54.5 -185.5t-106.5 -207t-293 -84t-297 98.5t-112.5 278.5h129q0 -127 76 -196.5t204 -69.5t200.5 51t72.5 126t-30.5 112t-90 57.5t-184.5 50t-191.5 54
t-113.5 82t-47 157.5q0 131 101 212t273 81t274.5 -93t104.5 -263h-127zM352 1169l185 289h172l-236 -289h-121z" />
    <glyph glyph-name="Scircumflex" unicode="&#x15c;" horiz-adv-x="1226" 
d="M1085 1006h-135q0 358 -372 358q-154 0 -238 -70.5t-84 -193.5q0 -156 156 -220q76 -32 227.5 -69t251.5 -80q221 -95 221 -342q0 -190 -134 -303t-374 -113t-376 131.5t-136 380.5h133q0 -199 102.5 -294t282.5 -95t273.5 76t93.5 215q0 88 -42 140.5t-121 84
t-232.5 70.5t-251.5 82q-210 92 -209 331q-1 239 211 341q104 50 246 49q251 0 379 -121t128 -358zM651 1833l234 -277h-142l-165 195l-164 -195h-142l234 277h145z" />
    <glyph glyph-name="scircumflex" unicode="&#x15d;" horiz-adv-x="980" 
d="M735 711q0 117 -69.5 181t-185 64t-180 -47t-64.5 -116.5t26.5 -102.5t74.5 -49t172 -45t199.5 -56.5t130 -90t54.5 -185.5t-106.5 -207t-293 -84t-297 98.5t-112.5 278.5h129q0 -127 76 -196.5t204 -69.5t200.5 51t72.5 126t-30.5 112t-90 57.5t-184.5 50t-191.5 54
t-113.5 82t-47 157.5q0 131 101 212t273 81t274.5 -93t104.5 -263h-127zM471 1376l-166 -207h-141l233 289h146l233 -289h-141z" />
    <glyph glyph-name="Scedilla" unicode="&#x15e;" horiz-adv-x="1226" 
d="M664 -125q68 0 113.5 -40t45.5 -110.5t-55 -120.5t-162 -50t-203 55l31 65q76 -41 148 -41q136 0 135 91q0 41 -31 64.5t-74 23.5t-73 -11l-33 37l90 135q-242 4 -373 135.5t-131 376.5h133q0 -199 102.5 -294t282.5 -95t273.5 76t93.5 215q0 88 -42 140.5t-121 84
t-232.5 70.5t-251.5 82q-210 92 -209 331q-1 239 211 341q104 50 246 49q252 0 379.5 -121t127.5 -358h-135q0 358 -372 358q-154 0 -238 -70.5t-84 -193.5q0 -156 156 -220q76 -32 227.5 -69t251.5 -80q221 -95 221 -342q0 -174 -113.5 -284.5t-312.5 -127.5l-70 -106
q20 4 48 4z" />
    <glyph glyph-name="scedilla" unicode="&#x15f;" horiz-adv-x="980" 
d="M553 -125q68 0 114 -40t46 -110.5t-55.5 -120.5t-162 -50t-202.5 55l31 65q76 -41 147 -41q135 0 135 91q0 41 -30.5 64.5t-73.5 23.5t-74 -11l-33 37l90 135q-188 4 -293.5 102.5t-107.5 274.5h129q0 -127 76 -196.5t204 -69.5t200.5 51t72.5 126t-30.5 112t-90 57.5
t-184.5 50t-191.5 54t-113.5 82t-47 157.5q0 131 101 212t273 81t274.5 -93t104.5 -263h-127q0 117 -69.5 181t-185 64t-180 -47t-64.5 -116.5t26.5 -102.5t74.5 -49t172 -45t199.5 -56.5t130 -90t54.5 -178t-85 -196.5t-230 -98l-72 -106q20 4 47 4z" />
    <glyph glyph-name="Scaron" unicode="&#x160;" horiz-adv-x="1226" 
d="M1085 1006h-135q0 358 -372 358q-154 0 -238 -70.5t-84 -193.5q0 -156 156 -220q76 -32 227.5 -69t251.5 -80q221 -95 221 -342q0 -190 -134 -303t-374 -113t-376 131.5t-136 380.5h133q0 -199 102.5 -294t282.5 -95t273.5 76t93.5 215q0 88 -42 140.5t-121 84
t-232.5 70.5t-251.5 82q-210 92 -209 331q-1 239 211 341q104 50 246 49q251 0 379 -121t128 -358zM506 1556l-234 277h142l166 -195l163 195h142l-234 -277h-145z" />
    <glyph glyph-name="scaron" unicode="&#x161;" horiz-adv-x="980" 
d="M735 711q0 117 -69.5 181t-185 64t-180 -47t-64.5 -116.5t26.5 -102.5t74.5 -49t172 -45t199.5 -56.5t130 -90t54.5 -185.5t-106.5 -207t-293 -84t-297 98.5t-112.5 278.5h129q0 -127 76 -196.5t204 -69.5t200.5 51t72.5 126t-30.5 112t-90 57.5t-184.5 50t-191.5 54
t-113.5 82t-47 157.5q0 131 101 212t273 81t274.5 -93t104.5 -263h-127zM397 1169l-233 289h141l166 -207l164 207h141l-233 -289h-146z" />
    <glyph glyph-name="uni0162" unicode="&#x162;" horiz-adv-x="1212" 
d="M672 1337v-1337h-133v1337h-519v121h1172v-121h-520zM535 -305v166h145v-166l-100 -209h-60l72 209h-57z" />
    <glyph glyph-name="uni0163" unicode="&#x163;" horiz-adv-x="618" 
d="M420 -139v-166l-101 -209h-59l72 209h-58v166h146zM338 276q0 -174 128 -172q60 0 93 9v-109q-45 -10 -94 -10q-135 0 -194.5 65.5t-59.5 214.5v660h-186v106h186v242h127v-242h211v-106h-211v-658z" />
    <glyph glyph-name="Tcaron" unicode="&#x164;" horiz-adv-x="1212" 
d="M672 1337v-1337h-133v1337h-519v121h1172v-121h-520zM532 1556l-233 277h141l166 -195l164 195h141l-233 -277h-146z" />
    <glyph glyph-name="tcaron" unicode="&#x165;" horiz-adv-x="618" 
d="M338 276q0 -174 128 -172q60 0 93 9v-109q-45 -10 -94 -10q-135 0 -194.5 65.5t-59.5 214.5v660h-186v106h186v242h127v-242h211v-106h-211v-658zM416 1098l63 360h131l-110 -360h-84z" />
    <glyph glyph-name="Tbar" unicode="&#x166;" horiz-adv-x="1212" 
d="M672 846h297v-111h-297v-735h-133v735h-295v111h295v491h-519v121h1172v-121h-520v-491z" />
    <glyph glyph-name="tbar" unicode="&#x167;" horiz-adv-x="610" 
d="M338 276q0 -174 128 -172q60 0 93 9v-109q-45 -10 -94 -10q-135 0 -194.5 65.5t-59.5 214.5v240h-180v98h180v322h-186v106h186v242h127v-242h211v-106h-211v-322h205v-98h-205v-238z" />
    <glyph glyph-name="Utilde" unicode="&#x168;" horiz-adv-x="1431" 
d="M717 -27q-254 0 -388 145.5t-134 422.5v917h133v-915q0 -221 101 -333t286.5 -112t287 112t101.5 333v915h133v-917q0 -279 -133 -423.5t-387 -144.5zM860 1704q86 0 94 108h99q-6 -104 -56.5 -159.5t-125.5 -55.5t-166 55.5t-134 55.5q-86 0 -94 -111h-98
q6 104 56 159.5t134 55.5q69 0 157.5 -54t133.5 -54z" />
    <glyph glyph-name="utilde" unicode="&#x169;" 
d="M160 408v632h127v-626q0 -176 67.5 -251t198.5 -75q82 0 151.5 39t110.5 114.5t41 182.5v616h127v-1040h-125v141h-4q-47 -76 -132 -120t-192 -44q-180 0 -275 109t-95 322zM723 1329q86 0 94 111h98q-6 -105 -56 -160t-125 -55t-144.5 42t-98 54t-57.5 12
q-86 0 -94 -108h-98q6 104 56 159.5t134 55.5q41 0 76 -14.5t87 -44.5t76.5 -41t51.5 -11z" />
    <glyph glyph-name="Umacron" unicode="&#x16a;" horiz-adv-x="1431" 
d="M717 -27q-254 0 -388 145.5t-134 422.5v917h133v-915q0 -221 101 -333t286.5 -112t287 112t101.5 333v915h133v-917q0 -279 -133 -423.5t-387 -144.5zM446 1624v107h539v-107h-539z" />
    <glyph glyph-name="umacron" unicode="&#x16b;" 
d="M160 408v632h127v-626q0 -176 67.5 -251t198.5 -75q82 0 151.5 39t110.5 114.5t41 182.5v616h127v-1040h-125v141h-4q-47 -76 -132 -120t-192 -44q-180 0 -275 109t-95 322zM307 1278v106h539v-106h-539z" />
    <glyph glyph-name="Ubreve" unicode="&#x16c;" horiz-adv-x="1431" 
d="M717 -27q-254 0 -388 145.5t-134 422.5v917h133v-915q0 -221 101 -333t286.5 -112t287 112t101.5 333v915h133v-917q0 -279 -133 -423.5t-387 -144.5zM717 1649q165 0 194 184h105q-12 -135 -90 -210t-209 -75t-209 75t-90 210h104q12 -88 62.5 -136t132.5 -48z" />
    <glyph glyph-name="ubreve" unicode="&#x16d;" 
d="M160 408v632h127v-626q0 -176 67.5 -251t198.5 -75q82 0 151.5 39t110.5 114.5t41 182.5v616h127v-1040h-125v141h-4q-47 -76 -132 -120t-192 -44q-180 0 -275 109t-95 322zM578 1276q166 0 194 182h105q-13 -135 -90.5 -209.5t-209 -74.5t-209 74.5t-89.5 209.5h104
q12 -88 62.5 -135t132.5 -47z" />
    <glyph glyph-name="Uring" unicode="&#x16e;" horiz-adv-x="1431" 
d="M717 -27q-254 0 -388 145.5t-134 422.5v917h133v-915q0 -221 101 -333t286.5 -112t287 112t101.5 333v915h133v-917q0 -279 -133 -423.5t-387 -144.5zM594 1740q0 -50 36 -86t87 -36t86 36t35 86t-35 86t-86 36t-87 -36t-36 -86zM913 1741q0 -82 -57 -140.5t-139 -58.5
t-140.5 58.5t-58.5 140.5t58.5 139t140.5 57t139 -57t57 -139z" />
    <glyph glyph-name="uring" unicode="&#x16f;" 
d="M160 408v632h127v-626q0 -176 67.5 -251t198.5 -75q82 0 151.5 39t110.5 114.5t41 182.5v616h127v-1040h-125v141h-4q-47 -76 -132 -120t-192 -44q-180 0 -275 109t-95 322zM455 1366q0 -51 35.5 -87t87 -36t86 36t34.5 87t-34.5 86t-86 35t-87 -35t-35.5 -86zM774 1366
q0 -82 -57.5 -140.5t-139 -58.5t-140 58.5t-58.5 140.5t58.5 140.5t140 58.5t139 -58.5t57.5 -140.5z" />
    <glyph glyph-name="Uhungarumlaut" unicode="&#x170;" horiz-adv-x="1431" 
d="M717 -27q-254 0 -388 145.5t-134 422.5v917h133v-915q0 -221 101 -333t286.5 -112t287 112t101.5 333v915h133v-917q0 -279 -133 -423.5t-387 -144.5zM762 1542l225 291h164l-274 -291h-115zM465 1542l225 291h164l-274 -291h-115z" />
    <glyph glyph-name="uhungarumlaut" unicode="&#x171;" 
d="M160 408v632h127v-626q0 -176 67.5 -251t198.5 -75q82 0 151.5 39t110.5 114.5t41 182.5v616h127v-1040h-125v141h-4q-47 -76 -132 -120t-192 -44q-180 0 -275 109t-95 322zM627 1169l225 289h164l-275 -289h-114zM330 1169l225 289h164l-275 -289h-114z" />
    <glyph glyph-name="Uogonek" unicode="&#x172;" horiz-adv-x="1431" 
d="M911 -393q-190 0 -190 166q0 59 30.5 108t100.5 109v4q-68 -20 -135 -21q-254 0 -388 145.5t-134 422.5v917h133v-915q0 -221 101 -333t287 -112t287 112t101 333v915h133v-917q0 -185 -58.5 -307t-162.5 -206t-140 -135t-36 -104q0 -90 90 -90q45 0 80 14v-90
q-39 -16 -99 -16z" />
    <glyph glyph-name="uogonek" unicode="&#x173;" 
d="M819 -225q0 -76 88 -76q45 0 82 14v-90q-39 -16 -116.5 -16t-125 40t-47.5 109.5t38 123.5t122 120h-2v141h-4q-47 -76 -132 -120t-192 -44q-180 0 -275 109t-95 322v632h127v-626q0 -176 67.5 -251t198.5 -75q82 0 151.5 39t110.5 114.5t41 182.5v616h127v-1040
q-92 -70 -128 -121t-36 -104z" />
    <glyph glyph-name="Wcircumflex" unicode="&#x174;" horiz-adv-x="1835" 
d="M1247 0l-164 666q-111 446 -163 669h-5q-53 -223 -163 -669l-164 -666h-209l-356 1458h135l151 -620q59 -238 174 -713h4l328 1333h205l328 -1333h4l325 1333h135l-356 -1458h-209zM991 1833l234 -277h-142l-165 195l-164 -195h-142l234 277h145z" />
    <glyph glyph-name="wcircumflex" unicode="&#x175;" horiz-adv-x="1536" 
d="M1036 0l-135 471q-82 283 -131 455h-4q-49 -172 -131 -455l-135 -471h-183l-301 1040h131l250 -884q2 -10 11 -41h4l260 925h192l260 -925h4q8 31 11 41l250 884h131l-301 -1040h-183zM768 1376l-166 -207h-141l233 289h146l233 -289h-141z" />
    <glyph glyph-name="Ycircumflex" unicode="&#x176;" horiz-adv-x="1232" 
d="M684 0h-135v623l-539 835h158l446 -706h4q164 262 248 391l199 315h158l-539 -835v-623zM690 1833l234 -277h-142l-166 195l-163 -195h-142l234 277h145z" />
    <glyph glyph-name="ycircumflex" unicode="&#x177;" horiz-adv-x="933" 
d="M142.5 -387q-74.5 0 -105.5 8v113q31 -8 91.5 -8t107.5 21.5t82.5 78.5t80.5 174l-409 1040h137l338 -878h4l338 878h137l-430 -1089q-55 -137 -108.5 -209t-121 -100.5t-142 -28.5zM469 1376l-166 -207h-141l233 289h146l233 -289h-141z" />
    <glyph glyph-name="Ydieresis" unicode="&#x178;" horiz-adv-x="1232" 
d="M684 0h-135v623l-539 835h158l446 -706h4q164 262 248 391l199 315h158l-539 -835v-623zM741 1593v181h125v-181h-125zM365 1593v181h124v-181h-124z" />
    <glyph glyph-name="Zacute" unicode="&#x179;" horiz-adv-x="1142" 
d="M188 121h918v-121h-1071v139l878 1194v4h-860v121h1014v-139l-879 -1194v-4zM440 1556l185 277h172l-236 -277h-121z" />
    <glyph glyph-name="zacute" unicode="&#x17a;" horiz-adv-x="944" 
d="M209 111h684v-111h-842v119l664 807v4h-643v110h800v-118l-663 -807v-4zM334 1169l184 289h172l-235 -289h-121z" />
    <glyph glyph-name="Zdotaccent" unicode="&#x17b;" horiz-adv-x="1142" 
d="M188 121h918v-121h-1071v139l878 1194v4h-860v121h1014v-139l-879 -1194v-4zM496 1575v180h127v-180h-127z" />
    <glyph glyph-name="zdotaccent" unicode="&#x17c;" horiz-adv-x="944" 
d="M209 111h684v-111h-842v119l664 807v4h-643v110h800v-118l-663 -807v-4zM387 1278v180h127v-180h-127z" />
    <glyph glyph-name="Zcaron" unicode="&#x17d;" horiz-adv-x="1142" 
d="M188 121h918v-121h-1071v139l878 1194v4h-860v121h1014v-139l-879 -1194v-4zM487 1556l-233 277h141l166 -195l164 195h141l-233 -277h-146z" />
    <glyph glyph-name="zcaron" unicode="&#x17e;" horiz-adv-x="944" 
d="M209 111h684v-111h-842v119l664 807v4h-643v110h800v-118l-663 -807v-4zM379 1169l-234 289h142l166 -207l163 207h142l-234 -289h-145z" />
    <glyph glyph-name="longs" unicode="&#x17f;" horiz-adv-x="587" 
d="M494 1358q-76 0 -113 -43t-37 -141v-1174h-127v934h-186v106h186v146q0 281 256 280q41 0 86 -8v-108q-29 8 -65 8z" />
    <glyph glyph-name="Schwa" unicode="&#x18f;" horiz-adv-x="1492" 
d="M740 98q146 0 262 69t182.5 194.5t72.5 295.5h-1024q8 -176 74 -302t176.5 -191.5t256.5 -65.5zM1401 731q0 -225 -81 -396t-231.5 -266.5t-350.5 -95.5t-345 92.5t-223 262.5t-78 401q0 20 4 49h1164q-4 184 -75 315.5t-191 199t-288 67.5t-285.5 -92t-148.5 -244h-147
q23 131 98.5 235.5t202 165t314.5 60.5t342.5 -93.5t236.5 -264.5t82 -396z" />
    <glyph glyph-name="florin" unicode="&#x192;" horiz-adv-x="1114" 
d="M944 958v-102h-250l-223 -883q-35 -135 -78 -212.5t-107 -112.5t-134 -35t-105 10v117q35 -10 83 -10t107 32.5t109 227.5l217 866h-207v102h232l47 185q45 180 122 252.5t222 72.5q45 0 90 -10v-117q-41 10 -82 11q-92 0 -144 -51.5t-81 -174.5l-43 -168h225z" />
    <glyph glyph-name="Aringacute" unicode="&#x1fa;" horiz-adv-x="1359" 
d="M973 594l-291 756h-4l-25 -64q-106 -281 -209 -541l-59 -151h588zM338 471l-182 -471h-144l578 1458h182l576 -1458h-144l-182 471h-684zM557 1699q0 -50 36 -86t87 -36t86 36t35 86t-35 86t-86 36t-87 -36t-36 -86zM877 1700q0 -82 -57.5 -140.5t-139.5 -58.5
t-140.5 58.5t-58.5 140.5t58.5 139t140.5 57t139.5 -57t57.5 -139zM561 1939l184 277h173l-236 -277h-121z" />
    <glyph glyph-name="aringacute" unicode="&#x1fb;" horiz-adv-x="1073" 
d="M211 285q0 -90 64.5 -144.5t158.5 -54.5q173 0 260 92q55 57 76 113.5t21 157.5v79q-418 -28 -519 -106q-61 -47 -61 -137zM913 668v-412q0 -147 23 -256h-119q-14 70 -14 158h-4q-106 -178 -371 -178q-158 0 -255 83.5t-97 216t89 208.5q133 113 626 147v49
q0 139 -72 206.5t-197 67.5t-194.5 -62t-75.5 -169h-133q10 152 115.5 246t289 94t286.5 -100.5t103 -298.5zM387 1321q0 -51 36 -87t87 -36t86 36t35 87t-35 86t-86 35t-87 -35t-36 -86zM707 1321q0 -82 -57.5 -140.5t-139.5 -58.5t-140.5 58.5t-58.5 140.5t58.5 140.5
t140.5 58.5t139.5 -58.5t57.5 -140.5zM391 1573l184 289h173l-236 -289h-121z" />
    <glyph glyph-name="AEacute" unicode="&#x1fc;" horiz-adv-x="1892" 
d="M844 1337h-35l-356 -710h497zM1780 0h-736l-75 506h-576l-254 -506h-151l731 1458h1036v-121h-778l80 -528h659v-121h-641l86 -567h619v-121zM909 1556l185 277h172l-236 -277h-121z" />
    <glyph glyph-name="aeacute" unicode="&#x1fd;" horiz-adv-x="1748" 
d="M551 494q-184 0 -262 -51.5t-78 -151.5t64.5 -155.5t158.5 -55.5q174 0 260 94q55 57 76 113.5t21 161.5v45h-240zM1218.5 958q-135.5 0 -221.5 -96t-94 -262h629q-8 170 -93 264t-220.5 94zM1221 1067q162 0 274.5 -100.5t146.5 -270.5q14 -78 15 -202h-754
q6 -201 95 -306.5t218.5 -105.5t204 62.5t97.5 164.5h131q-23 -143 -132.5 -239.5t-287.5 -96.5q-131 0 -227.5 64.5t-151.5 183.5q-53 -117 -161.5 -182.5t-262.5 -65.5t-252 86t-98 230t106.5 227.5t352.5 83.5h256v84q0 137 -70 205.5t-196 68.5t-196.5 -63.5
t-76.5 -167.5h-133q10 150 117.5 245t287.5 95q262 0 342 -201q115 201 355 201zM752 1169l184 289h172l-236 -289h-120z" />
    <glyph glyph-name="Oslashacute" unicode="&#x1fe;" horiz-adv-x="1482" 
d="M1249 729q0 264 -112 426l-713 -942q131 -115 301 -115t284.5 77t177 220.5t62.5 333.5zM757.5 1360q-170.5 0 -286 -78t-178 -220t-62.5 -333q0 -260 115 -426l713 942q-131 115 -301.5 115zM1389 729q0 -229 -79 -399t-225.5 -263.5t-363 -93.5t-379.5 133l-123 -163
l-92 71l133 174q-168 201 -168 541q0 227 80 398t226.5 264.5t362.5 93.5t378 -133l125 164l92 -70l-133 -176q166 -205 166 -541zM623 1556l184 277h172l-236 -277h-120z" />
    <glyph glyph-name="oslashacute" unicode="&#x1ff;" horiz-adv-x="1132" 
d="M911 505.5q0 188.5 -67 297.5l-490 -645q86 -74 211 -74q162 0 254 116.5t92 305zM221 535.5q0 -187.5 66 -295.5l491 643q-86 74 -213 73q-159 0 -251.5 -116.5t-92.5 -304zM1042 516q0 -250 -128 -396.5t-349 -146.5q-166 0 -284 86l-105 -135l-80 64l111 143
q-117 145 -117 394t127 395.5t348 146.5q168 0 287 -88l104 139l80 -63l-112 -146q118 -143 118 -393zM449 1169l184 289h172l-236 -289h-120z" />
    <glyph glyph-name="Scommaaccent" unicode="&#x218;" horiz-adv-x="1226" 
d="M1085 1006h-135q0 358 -372 358q-154 0 -238 -70.5t-84 -193.5q0 -156 156 -220q76 -32 227.5 -69t251.5 -80q221 -95 221 -342q0 -190 -134 -303t-374 -113t-376 131.5t-136 380.5h133q0 -199 102.5 -294t282.5 -95t273.5 76t93.5 215q0 88 -42 140.5t-121 84
t-232.5 70.5t-251.5 82q-210 92 -209 331q-1 239 211 341q104 50 246 49q251 0 379 -121t128 -358zM541 -305v166h145v-166l-100 -209h-60l72 209h-57z" />
    <glyph glyph-name="scommaaccent" unicode="&#x219;" horiz-adv-x="980" 
d="M735 711q0 117 -69.5 181t-185 64t-180 -47t-64.5 -116.5t26.5 -102.5t74.5 -49t172 -45t199.5 -56.5t130 -90t54.5 -185.5t-106.5 -207t-293 -84t-297 98.5t-112.5 278.5h129q0 -127 76 -196.5t204 -69.5t200.5 51t72.5 126t-30.5 112t-90 57.5t-184.5 50t-191.5 54
t-113.5 82t-47 157.5q0 131 101 212t273 81t274.5 -93t104.5 -263h-127zM432 -305v166h146v-166l-101 -209h-59l71 209h-57z" />
    <glyph glyph-name="uni021A" unicode="&#x21a;" horiz-adv-x="1212" 
d="M672 1337v-1337h-133v1337h-519v121h1172v-121h-520zM535 -305v166h145v-166l-100 -209h-60l72 209h-57z" />
    <glyph glyph-name="uni021B" unicode="&#x21b;" horiz-adv-x="618" 
d="M338 276q0 -174 128 -172q60 0 93 9v-109q-45 -10 -94 -10q-135 0 -194.5 65.5t-59.5 214.5v660h-186v106h186v242h127v-242h211v-106h-211v-658zM274 -305v166h146v-166l-101 -209h-59l72 209h-58z" />
    <glyph glyph-name="dotlessj" unicode="&#x237;" horiz-adv-x="481" 
d="M39 -387q-39 0 -74 8v111q33 -6 62 -6q78 0 117.5 46t39.5 154v1114h127v-1116q0 -311 -272 -311z" />
    <glyph glyph-name="schwa" unicode="&#x259;" horiz-adv-x="1103" 
d="M546 82q144 0 236 100.5t101 274.5h-670q10 -178 99.5 -276.5t233.5 -98.5zM1014 520q0 -160 -56.5 -283.5t-163 -193.5t-247.5 -70t-243.5 66.5t-158 190.5t-55.5 290q0 29 2 41h793q-6 193 -103.5 295t-251.5 102q-117 0 -191.5 -62t-94.5 -165h-131q25 143 132 239.5
t285 96.5q226 0 355 -148.5t129 -398.5z" />
    <glyph glyph-name="uni02BC" unicode="&#x2bc;" horiz-adv-x="468" 
d="M147 1274v184h172v-184l-81 -262h-91l60 262h-60z" />
    <glyph glyph-name="circumflex" unicode="&#x2c6;" horiz-adv-x="817" 
d="M410 1376l-166 -207h-142l234 289h145l234 -289h-142z" />
    <glyph glyph-name="caron" unicode="&#x2c7;" horiz-adv-x="817" 
d="M336 1169l-234 289h142l166 -207l163 207h142l-234 -289h-145z" />
    <glyph glyph-name="uni02C9" unicode="&#x2c9;" horiz-adv-x="743" 
d="M102 1278v106h539v-106h-539z" />
    <glyph glyph-name="breve" unicode="&#x2d8;" horiz-adv-x="802" 
d="M443.5 1276q124.5 0 152.5 182h104q-12 -135 -90 -209.5t-209 -74.5t-208.5 74.5t-90.5 209.5h105q12 -88 62 -135t174.5 -47z" />
    <glyph glyph-name="dotaccent" unicode="&#x2d9;" horiz-adv-x="331" 
d="M102 1278v180h127v-180h-127z" />
    <glyph glyph-name="ring" unicode="&#x2da;" horiz-adv-x="600" 
d="M178 1366q0 -51 36 -87t87 -36t86 36t35 87t-35 86t-86 35t-87 -35t-36 -86zM498 1366q0 -82 -57.5 -140.5t-139.5 -58.5t-140.5 58.5t-58.5 140.5t58.5 140.5t140.5 58.5t139.5 -58.5t57.5 -140.5z" />
    <glyph glyph-name="ogonek" unicode="&#x2db;" horiz-adv-x="493" 
d="M221 -225q0 -76 88 -76q45 0 82 14v-90q-39 -16 -117 -16t-125 40.5t-47 110.5t40 125.5t128 122.5l115 -6q-92 -70 -128 -121t-36 -104z" />
    <glyph glyph-name="tilde" unicode="&#x2dc;" horiz-adv-x="878" 
d="M584 1329q86 0 94 111h98q-6 -105 -56 -160t-125 -55t-145 42q-69 42 -97.5 54t-57.5 12q-86 0 -94 -108h-99q6 104 56.5 159.5t134.5 55.5q41 0 76 -14.5t87 -44.5t76.5 -41t51.5 -11z" />
    <glyph glyph-name="hungarumlaut" unicode="&#x2dd;" horiz-adv-x="890" 
d="M399 1169l226 289h163l-274 -289h-115zM102 1169l226 289h164l-275 -289h-115z" />
    <glyph glyph-name="uni0312" unicode="&#x312;" horiz-adv-x="0" 
d="M248 1366v-166h-146v166l101 209h59l-72 -209h58z" />
    <glyph glyph-name="commaaccent" unicode="&#x326;" horiz-adv-x="0" 
d="M117 -305v166h145v-166l-100 -209h-60l72 209h-57z" />
    <glyph glyph-name="uni0333" unicode="&#x333;" horiz-adv-x="0" 
d="M-1024 -430v78h1024v-78h-1024zM-1024 -180v78h1024v-78h-1024z" />
    <glyph glyph-name="numeralsigngreek" unicode="&#x374;" horiz-adv-x="331" 
d="M61 1040l78 418h131l-123 -418h-86z" />
    <glyph glyph-name="numeralsignlowergreek" unicode="&#x375;" horiz-adv-x="331" 
d="M61 -188l78 417h131l-123 -417h-86z" />
    <glyph glyph-name="questiongreek" unicode="&#x37e;" horiz-adv-x="430" 
d="M127 0v188h176v-188l-84 -266h-92l61 266h-61zM127 852v188h176v-188h-176z" />
    <glyph glyph-name="tonos" unicode="&#x384;" horiz-adv-x="419" 
d="M98 1178l92 321h132l-119 -321h-105z" />
    <glyph glyph-name="dieresistonos" unicode="&#x385;" horiz-adv-x="854" 
d="M629 1206v189h123v-189h-123zM102 1206v189h123v-189h-123zM334 1178l80 288h118l-98 -288h-100z" />
    <glyph glyph-name="Alphatonos" unicode="&#x386;" horiz-adv-x="1359" 
d="M973 594l-291 756h-4l-25 -64q-106 -281 -209 -541l-59 -151h588zM338 471l-182 -471h-144l578 1458h182l576 -1458h-144l-182 471h-684zM135 1055l92 403h131l-118 -403h-105z" />
    <glyph glyph-name="anoteleia" unicode="&#x387;" horiz-adv-x="430" 
d="M127 854v186h176v-186h-176z" />
    <glyph glyph-name="Epsilontonos" unicode="&#x388;" horiz-adv-x="1249" 
d="M340 1337v-528h735v-121h-735v-567h799v-121h-932v1458h907v-121h-774zM-158 1055l92 403h132l-119 -403h-105z" />
    <glyph glyph-name="Etatonos" unicode="&#x389;" horiz-adv-x="1497" 
d="M1157 0v696h-817v-696h-133v1458h133v-641h817v641h133v-1458h-133zM-158 1055l92 403h132l-119 -403h-105z" />
    <glyph glyph-name="Iotatonos" unicode="&#x38a;" horiz-adv-x="546" 
d="M207 0v1458h133v-1458h-133zM-158 1055l92 403h132l-119 -403h-105z" />
    <glyph glyph-name="Omicrontonos" unicode="&#x38c;" horiz-adv-x="1482" 
d="M233 729.5q0 -190.5 62.5 -334t177.5 -220.5t268.5 -77t268 78t177 220.5t62.5 333t-62.5 332.5t-177 220t-268 78t-268.5 -77t-177.5 -220t-62.5 -333.5zM1389 729q0 -229 -79 -399t-225.5 -263.5t-343 -93.5t-343 93.5t-226.5 264.5t-80 398t80 398t226.5 264.5
t343 93.5t343 -93.5t225.5 -263.5t79 -399zM-94 1055l92 403h131l-119 -403h-104z" />
    <glyph glyph-name="Upsilontonos" unicode="&#x38e;" horiz-adv-x="1232" 
d="M684 0h-135v623l-539 835h158l446 -706h4q164 262 248 391l199 315h158l-539 -835v-623zM-279 1055l93 403h131l-119 -403h-105z" />
    <glyph glyph-name="Omegatonos" unicode="&#x38f;" horiz-adv-x="1486" 
d="M1380 838q0 -205 -90 -374t-256 -339v-4h369v-121h-518v125q174 178 265 341t91 363q0 260 -135 395.5t-361.5 135.5t-361.5 -135t-135 -396q0 -203 91 -364.5t263 -339.5v-125h-518v121h369v4q-166 170 -256.5 339t-90.5 374q0 317 174.5 482t464 165t462.5 -165
t173 -482zM-100 1055l92 403h131l-119 -403h-104z" />
    <glyph glyph-name="iotadieresistonos" unicode="&#x390;" horiz-adv-x="530" 
d="M436 102q39 0 74 11v-109q-53 -12 -96 -12q-135 0 -194.5 70.5t-59.5 230.5v747h127v-743q0 -104 34.5 -149.5t114.5 -45.5zM428 1206v189h123v-189h-123zM-98 1206v189h123v-189h-123zM133 1178l80 288h119l-99 -288h-100z" />
    <glyph glyph-name="Alpha" unicode="&#x391;" horiz-adv-x="1359" 
d="M973 594l-291 756h-4l-25 -64q-106 -281 -209 -541l-59 -151h588zM338 471l-182 -471h-144l578 1458h182l576 -1458h-144l-182 471h-684z" />
    <glyph glyph-name="Beta" unicode="&#x392;" horiz-adv-x="1259" 
d="M676 117q346 0 346 286q0 135 -92 209t-289 74h-301v-569h336zM340 803h301q184 -1 269 71t85 197q0 270 -348 270h-307v-538zM692 0h-485v1458h452q234 0 353 -99t118 -269q0 -121 -61 -210t-176 -130v-5q123 -31 196 -123t72 -221q0 -185 -124 -293t-345 -108z" />
    <glyph glyph-name="Gamma" unicode="&#x393;" horiz-adv-x="978" 
d="M207 1458h751v-121h-618v-1337h-133v1458z" />
    <glyph glyph-name="uni0394" unicode="&#x394;" horiz-adv-x="1359" 
d="M1157 121l-475 1229h-4l-475 -1229h954zM12 0l578 1458h182l576 -1458h-1336z" />
    <glyph glyph-name="Epsilon" unicode="&#x395;" horiz-adv-x="1249" 
d="M340 1337v-528h735v-121h-735v-567h799v-121h-932v1458h907v-121h-774z" />
    <glyph glyph-name="Zeta" unicode="&#x396;" horiz-adv-x="1142" 
d="M188 121h918v-121h-1071v139l878 1194v4h-860v121h1014v-139l-879 -1194v-4z" />
    <glyph glyph-name="Eta" unicode="&#x397;" horiz-adv-x="1497" 
d="M1157 0v696h-817v-696h-133v1458h133v-641h817v641h133v-1458h-133z" />
    <glyph glyph-name="Theta" unicode="&#x398;" horiz-adv-x="1482" 
d="M436 666v131h608v-131h-608zM231 729.5q0 -190.5 62.5 -333t178.5 -220.5t269.5 -78t268 77t177 220.5t62.5 334t-62.5 333.5t-177 220t-268 77t-269.5 -78t-178.5 -220t-62.5 -332.5zM1389 729q0 -229 -79 -399t-225.5 -263.5t-343 -93.5t-343 93.5t-226.5 264.5
t-80 398t80 398t226.5 264.5t343 93.5t343 -93.5t225.5 -263.5t79 -399z" />
    <glyph glyph-name="Iota" unicode="&#x399;" horiz-adv-x="546" 
d="M207 0v1458h133v-1458h-133z" />
    <glyph glyph-name="Kappa" unicode="&#x39a;" horiz-adv-x="1243" 
d="M340 731v-731h-133v1458h133v-665h4l643 665h180l-678 -696l744 -762h-186l-703 731h-4z" />
    <glyph glyph-name="Lambda" unicode="&#x39b;" horiz-adv-x="1325" 
d="M1165 0l-499 1343h-4l-502 -1343h-148l557 1458h189l557 -1458h-150z" />
    <glyph glyph-name="Mu" unicode="&#x39c;" horiz-adv-x="1861" 
d="M1522 0v748q0 377 2 565h-4l-512 -1313h-156l-510 1313h-4q2 -188 2 -565v-748h-133v1458h215l289 -745l217 -570h4l508 1315h215v-1458h-133z" />
    <glyph glyph-name="Nu" unicode="&#x39d;" horiz-adv-x="1525" 
d="M340 0h-133v1458h203l594 -1014q119 -209 180 -311h4q-2 244 -2 729v596h133v-1458h-203l-594 1014q-119 209 -180 311h-4l2 -729v-596z" />
    <glyph glyph-name="Xi" unicode="&#x39e;" horiz-adv-x="1339" 
d="M121 0v133h1098v-133h-1098zM184 664v133h971v-133h-971zM150 1325v133h1040v-133h-1040z" />
    <glyph glyph-name="Omicron" unicode="&#x39f;" horiz-adv-x="1482" 
d="M233 729.5q0 -190.5 62.5 -334t177.5 -220.5t268.5 -77t268 78t177 220.5t62.5 333t-62.5 332.5t-177 220t-268 78t-268.5 -77t-177.5 -220t-62.5 -333.5zM1389 729q0 -229 -79 -399t-225.5 -263.5t-343 -93.5t-343 93.5t-226.5 264.5t-80 398t80 398t226.5 264.5
t343 93.5t343 -93.5t225.5 -263.5t79 -399z" />
    <glyph glyph-name="Pi" unicode="&#x3a0;" horiz-adv-x="1476" 
d="M1137 0v1337h-797v-1337h-133v1458h1063v-1458h-133z" />
    <glyph glyph-name="Rho" unicode="&#x3a1;" horiz-adv-x="1241" 
d="M340 729h340q176 0 268 80t92 224t-92 224t-268 80h-340v-608zM1180 1034q0 -198 -129 -312t-369 -114h-342v-608h-133v1458h475q240 1 369 -113t129 -311z" />
    <glyph glyph-name="Sigma" unicode="&#x3a3;" horiz-adv-x="1122" 
d="M231 1337v-4l431 -592l-451 -614v-6h876v-121h-1046v121l455 620l-433 596v121h996v-121h-828z" />
    <glyph glyph-name="Tau" unicode="&#x3a4;" horiz-adv-x="1212" 
d="M672 1337v-1337h-133v1337h-519v121h1172v-121h-520z" />
    <glyph glyph-name="Upsilon" unicode="&#x3a5;" horiz-adv-x="1232" 
d="M684 0h-135v623l-539 835h158l446 -706h4q164 262 248 391l199 315h158l-539 -835v-623z" />
    <glyph glyph-name="Phi" unicode="&#x3a6;" horiz-adv-x="1576" 
d="M1343 735.5q0 239.5 -128 368.5t-361 135v-1008q233 7 361 136t128 368.5zM233 735.5q0 -237.5 129.5 -367.5t360.5 -137v1008q-231 -6 -360.5 -136t-129.5 -367.5zM1485 735q0 -293 -167 -454.5t-464 -171.5v-158h-131v158q-297 10 -464 171.5t-167 454.5t167 455
t464 172v145h131v-145q297 -10 464 -172t167 -455z" />
    <glyph glyph-name="Chi" unicode="&#x3a7;" horiz-adv-x="1263" 
d="M1243 0h-164l-446 641h-4l-447 -641h-162l529 752l-500 706h162l418 -598h4l420 598h161l-499 -706z" />
    <glyph glyph-name="Psi" unicode="&#x3a8;" horiz-adv-x="1540" 
d="M836 0h-134v387q-313 10 -457.5 156.5t-144.5 468.5v446h136v-444q0 -176 47 -282.5t148 -157t271 -56.5v940h134v-940q170 6 272 56.5t149.5 157t47.5 282.5v444h133v-446q0 -322 -144.5 -468.5t-457.5 -156.5v-387z" />
    <glyph glyph-name="uni03A9" unicode="&#x3a9;" horiz-adv-x="1486" 
d="M1380 838q0 -205 -90 -374t-256 -339v-4h369v-121h-518v125q174 178 265 341t91 363q0 260 -135 395.5t-361.5 135.5t-361.5 -135t-135 -396q0 -203 91 -364.5t263 -339.5v-125h-518v121h369v4q-166 170 -256.5 339t-90.5 374q0 317 174.5 482t464 165t462.5 -165
t173 -482z" />
    <glyph glyph-name="Iotadieresis" unicode="&#x3aa;" horiz-adv-x="546" 
d="M207 0v1458h133v-1458h-133zM397 1696v180h125v-180h-125zM20 1696v180h125v-180h-125z" />
    <glyph glyph-name="Upsilondieresis" unicode="&#x3ab;" horiz-adv-x="1232" 
d="M684 0h-135v623l-539 835h158l446 -706h4q164 262 248 391l199 315h158l-539 -835v-623zM741 1593v181h125v-181h-125zM365 1593v181h124v-181h-124z" />
    <glyph glyph-name="alphatonos" unicode="&#x3ac;" horiz-adv-x="1175" 
d="M223 522.5q0 -200.5 88 -319.5t235.5 -119t233.5 120t86 318.5t-86 318.5t-233.5 120t-235.5 -119t-88 -319.5zM987 672v-404q0 -100 21.5 -136t62.5 -36t64 8v-100q-43 -14 -111 -14q-141 0 -160 178h-4q-41 -88 -130 -139.5t-212 -51.5t-222 67t-152.5 190.5
t-53.5 287.5t53.5 288t152.5 190.5t223 66.5t213 -52t130 -141h4q4 86 17 166h127q-23 -139 -23 -368zM510 1178l92 321h131l-119 -321h-104z" />
    <glyph glyph-name="epsilontonos" unicode="&#x3ad;" horiz-adv-x="983" 
d="M129 778q0 133 97.5 211t270.5 78t278.5 -88t105.5 -242h-133q0 106 -65 160.5t-180.5 54.5t-177 -47t-61.5 -134t75 -139t196 -52h104v-107h-104q-145 0 -222 -51t-77 -142.5t69.5 -141.5t194.5 -50q264 0 264 219h137q0 -158 -106.5 -246t-293.5 -88t-294 80t-107 219
q0 190 207 258v5q-178 72 -178 243zM438 1178l92 321h132l-119 -321h-105z" />
    <glyph glyph-name="etatonos" unicode="&#x3ae;" horiz-adv-x="1171" 
d="M188 758q0 182 -86 182q-39 0 -61 -8v104q127 41 201 -25q45 -40 57 -132h4q53 88 140 136t198 48q180 0 275.5 -108.5t95.5 -321.5v-1012h-127v1004q0 178 -67.5 253.5t-199.5 75.5q-82 0 -151.5 -40t-110.5 -115.5t-41 -182.5v-616h-127v758zM467 1178l92 321h131
l-119 -321h-104z" />
    <glyph glyph-name="iotatonos" unicode="&#x3af;" horiz-adv-x="530" 
d="M436 102q39 0 74 11v-109q-53 -12 -96 -12q-135 0 -194.5 70.5t-59.5 230.5v747h127v-743q0 -104 34.5 -149.5t114.5 -45.5zM168 1178l92 321h131l-119 -321h-104z" />
    <glyph glyph-name="upsilondieresistonos" unicode="&#x3b0;" horiz-adv-x="1155" 
d="M315 791v-424q0 -147 69 -215t208 -68q311 0 311 426q0 297 -80 530h125q82 -240 82 -515q0 -552 -438 -552q-201 0 -303.5 93.5t-102.5 293.5v410q0 100 -21.5 135t-61.5 35t-62 -8v104q37 14 84 15q100 0 145 -57.5t45 -202.5zM750 1206v189h122v-189h-122zM223 1206
v189h123v-189h-123zM455 1178l80 288h118l-98 -288h-100z" />
    <glyph glyph-name="alpha" unicode="&#x3b1;" horiz-adv-x="1175" 
d="M223 522.5q0 -200.5 88 -319.5t235.5 -119t233.5 120t86 318.5t-86 318.5t-233.5 120t-235.5 -119t-88 -319.5zM987 672v-404q0 -100 21.5 -136t62.5 -36t64 8v-100q-43 -14 -111 -14q-141 0 -160 178h-4q-41 -88 -130 -139.5t-212 -51.5t-222 67t-152.5 190.5
t-53.5 287.5t53.5 288t152.5 190.5t223 66.5t213 -52t130 -141h4q4 86 17 166h127q-23 -139 -23 -368z" />
    <glyph glyph-name="beta" unicode="&#x3b2;" horiz-adv-x="1171" 
d="M872 1114q0 258 -284 258q-146 0 -218.5 -95t-72.5 -300v-590q0 -137 80.5 -216t238.5 -79t248 83t90 242t-108.5 235.5t-331.5 76.5h-35v119h35q180 0 269 70.5t89 195.5zM170 971q0 514 430 514q188 0 294.5 -95.5t106.5 -259.5q0 -129 -65.5 -216t-175.5 -117v-4
q145 -23 235 -121t90 -284t-124.5 -297t-353.5 -111t-306 141h-4v-500h-127v1350z" />
    <glyph glyph-name="gamma" unicode="&#x3b3;" horiz-adv-x="1034" 
d="M463 -28q0 176 -57.5 401t-155.5 411q-49 92 -90 124t-81 32t-61 -6v104q128 37 198 -15.5t142 -190.5t126.5 -325.5t68.5 -342.5h4q141 225 215 427t98 449h131q-30 -290 -125.5 -523.5t-285.5 -502.5v-26q0 -208 -23 -367h-127q23 175 23 351z" />
    <glyph glyph-name="delta" unicode="&#x3b4;" horiz-adv-x="1132" 
d="M223 466q0 -177 94.5 -279.5t250.5 -102.5t249.5 102.5t93.5 270.5t-78.5 279.5t-244.5 199.5q-174 -53 -269.5 -173t-95.5 -297zM522 1368q-170 0 -170 -90q0 -51 62 -95.5t246 -142.5t282 -236t98 -343q0 -147 -58 -258t-166 -170.5t-250 -59.5t-249.5 59.5t-167 170
t-59.5 258.5q0 199 100.5 335t284.5 199v4q-100 57 -177 113t-77 168q0 199 289 199q227 0 430 -68v-121q-203 78 -418 78z" />
    <glyph glyph-name="epsilon" unicode="&#x3b5;" horiz-adv-x="983" 
d="M129 778q0 133 97.5 211t270.5 78t278.5 -88t105.5 -242h-133q0 106 -65 160.5t-180.5 54.5t-177 -47t-61.5 -134t75 -139t196 -52h104v-107h-104q-145 0 -222 -51t-77 -142.5t69.5 -141.5t194.5 -50q264 0 264 219h137q0 -158 -106.5 -246t-293.5 -88t-294 80t-107 219
q0 190 207 258v5q-178 72 -178 243z" />
    <glyph glyph-name="zeta" unicode="&#x3b6;" horiz-adv-x="899" 
d="M874 -103q0 -107 -51 -194h-116q43 82 43 159t-45.5 115.5t-167.5 51.5q-449 49 -449 442q0 258 155.5 483.5t415.5 393.5v4h-516v106h693v-106q-289 -174 -452 -395.5t-163 -475.5q0 -156 79 -233.5t254 -96.5t247.5 -83t72.5 -171z" />
    <glyph glyph-name="eta" unicode="&#x3b7;" horiz-adv-x="1171" 
d="M188 758q0 182 -86 182q-39 0 -61 -8v104q127 41 201 -25q45 -40 57 -132h4q53 88 140 136t198 48q180 0 275.5 -108.5t95.5 -321.5v-1012h-127v1004q0 178 -67.5 253.5t-199.5 75.5q-82 0 -151.5 -40t-110.5 -115.5t-41 -182.5v-616h-127v758z" />
    <glyph glyph-name="theta" unicode="&#x3b8;" horiz-adv-x="1185" 
d="M592 84q166 0 262 155.5t104 436.5h-735q10 -281 106.5 -436.5t262.5 -155.5zM592 1374q-166 0 -262.5 -155.5t-106.5 -436.5h735q-8 281 -104 436.5t-262 155.5zM1090 729.5q0 -235.5 -59.5 -405.5t-173 -260.5t-267.5 -90.5t-265.5 90.5t-171 260.5t-59.5 405.5
t59.5 405.5t171 260t265.5 90t267.5 -90t173 -260t59.5 -405.5z" />
    <glyph glyph-name="iota" unicode="&#x3b9;" horiz-adv-x="530" 
d="M436 102q39 0 74 11v-109q-53 -12 -96 -12q-135 0 -194.5 70.5t-59.5 230.5v747h127v-743q0 -104 34.5 -149.5t114.5 -45.5z" />
    <glyph glyph-name="kappa" unicode="&#x3ba;" horiz-adv-x="1030" 
d="M297 0h-127v1040h127v-512h4l236 267q169 191 252 222.5t133 31.5t86 -9v-112q-25 6 -52 6q-84 0 -164.5 -54.5t-213.5 -203.5l-97 -109l553 -567h-176l-457 477l-104 -117v-360z" />
    <glyph glyph-name="lambda" unicode="&#x3bb;" horiz-adv-x="1120" 
d="M1065 102q14 0 35 4v-106q-33 -8 -77 -8t-108.5 30.5t-136.5 225.5q-41 115 -172 459l-67 176h-4l-406 -883h-139l483 1047q-84 225 -153.5 268t-131.5 43t-98 -15v107q39 18 122 18t150.5 -36.5t125 -125.5t120.5 -253l285 -754q43 -117 82 -157t90 -40z" />
    <glyph glyph-name="uni03BC" unicode="&#x3bc;" horiz-adv-x="1163" 
d="M1069 100q41 0 64 9v-105q-41 -14 -110 -14q-144 0 -159 168h-4q-41 -80 -125 -127t-188 -47q-176 0 -250 108v-471h-127v1419h127v-620q0 -176 65.5 -252t194.5 -76q82 0 150.5 40t109.5 116t41 182v610h127v-768q0 -100 21.5 -136t62.5 -36z" />
    <glyph glyph-name="nu" unicode="&#x3bd;" horiz-adv-x="1013" 
d="M852 958q0 43 -6 82h125q8 -39 8 -121t-44 -249.5t-323 -669.5h-151l-252 748q-37 111 -70 150.5t-84 39.5q-18 0 -35 -4v102q29 12 72 13q86 0 138.5 -57.5t101.5 -205.5l217 -653h4q174 319 236.5 496.5t62.5 328.5z" />
    <glyph glyph-name="xi" unicode="&#x3be;" horiz-adv-x="917" 
d="M889 -100q0 -106 -51 -197h-117q43 82 43 160t-46 117.5t-169 50.5q-461 40 -461 381q0 141 76 234t225 126v4q-100 29 -159.5 101.5t-59.5 174.5q0 211 190 296v4h-231v106h745v-106h-137q-213 0 -327.5 -76t-114.5 -202t92 -185.5t238 -59.5h170v-106h-146
q-219 0 -322.5 -82t-103.5 -215t82 -196.5t270 -79.5q314 -27 314 -250z" />
    <glyph glyph-name="omicron" unicode="&#x3bf;" horiz-adv-x="1130" 
d="M223 520q0 -203 91.5 -319.5t252 -116.5t251.5 116.5t91 319.5t-91 319.5t-251.5 116.5t-252 -116.5t-91.5 -319.5zM1040 520q0 -254 -127 -400.5t-348 -146.5t-348 146.5t-127 400.5t127 400.5t348 146.5t348 -146.5t127 -400.5z" />
    <glyph glyph-name="pi" unicode="&#x3c0;" horiz-adv-x="1314" 
d="M1020 934v-627q0 -117 38 -162t113 -45q29 0 62 9v-105q-43 -14 -103 -14q-119 0 -178 69.5t-59 235.5v639h-516v-934h-127v934h-223v106h1249v-106h-256z" />
    <glyph glyph-name="rho" unicode="&#x3c1;" horiz-adv-x="1157" 
d="M287 521q0 -202 82.5 -317.5t234.5 -115.5t242 114.5t90 318.5t-90 319.5t-242 115.5t-234.5 -116.5t-82.5 -318.5zM597 -23q-220 0 -306 162h-4v-518h-127v899q0 166 54 290t152.5 190.5t231.5 66.5q217 0 343 -146.5t126 -399.5t-125 -398.5t-345 -145.5z" />
    <glyph glyph-name="sigma1" unicode="&#x3c2;" horiz-adv-x="1017" 
d="M872 -95q0 -111 -49 -202h-118q43 82 43 166t-45.5 129t-170.5 59q-449 51 -448 498q0 240 123 376t327 136t315.5 -104.5t125.5 -284.5h-131q-10 127 -88 202.5t-222 75.5t-230.5 -103t-86.5 -285t79 -274.5t261 -115.5q315 -38 315 -273z" />
    <glyph glyph-name="sigma" unicode="&#x3c3;" horiz-adv-x="1189" 
d="M225 510q0 -201 90.5 -313.5t252.5 -112.5t252.5 112.5t90.5 313.5t-90.5 313.5t-252.5 112.5t-252.5 -112.5t-90.5 -313.5zM854 934v-4q88 -55 137 -164t49 -262q0 -246 -128 -388.5t-347 -142.5t-347 143.5t-128 391.5t128 390t347 142h598v-106h-309z" />
    <glyph glyph-name="tau" unicode="&#x3c4;" horiz-adv-x="954" 
d="M526 934v-627q0 -117 38 -162t114 -45q29 0 61 9v-105q-43 -14 -102 -14q-119 0 -178.5 69.5t-59.5 235.5v639h-372v106h901v-106h-402z" />
    <glyph glyph-name="upsilon" unicode="&#x3c5;" horiz-adv-x="1155" 
d="M315 791v-424q0 -147 69 -215t208 -68q311 0 311 426q0 297 -80 530h125q82 -240 82 -515q0 -552 -438 -552q-201 0 -303.5 93.5t-102.5 293.5v410q0 100 -21.5 135t-61.5 35t-62 -8v104q37 14 84 15q100 0 145 -57.5t45 -202.5z" />
    <glyph glyph-name="phi" unicode="&#x3c6;" horiz-adv-x="1505" 
d="M1282 520q0 203 -123 318.5t-344 117.5v-872q221 2 344 117.5t123 318.5zM221 520q0 -203 124 -317.5t345 -118.5v872q-221 -4 -345 -118.5t-124 -317.5zM815 -379h-125v352q-182 2 -318 70t-209 189.5t-73 287.5t73 288t209 189.5t318 69.5v289h125v-289
q182 -2 317.5 -69.5t208 -189.5t72.5 -288t-72.5 -287.5t-208 -189.5t-317.5 -70v-352z" />
    <glyph glyph-name="chi" unicode="&#x3c7;" horiz-adv-x="1142" 
d="M1032 -279q43 0 88 11v-107q-46 -14 -128 -14t-147 49t-124 190l-156 367h-4l-385 -596h-145l471 709l-189 432q-35 80 -63.5 119t-62 53t-83.5 14t-86 -14v104q41 20 128 20t153 -50t123 -185l158 -374h4l377 591h147l-459 -712l180 -418q66 -150 113 -169.5t90 -19.5z
" />
    <glyph glyph-name="psi" unicode="&#x3c8;" horiz-adv-x="1517" 
d="M834 -379h-127v359q-270 6 -408.5 115.5t-138.5 338.5v606h127v-587q0 -182 104.5 -269.5t315.5 -93.5v1266h127v-1266q430 18 430 426q0 291 -84 524h127q84 -236 84 -530q0 -250 -138.5 -386t-418.5 -144v-359z" />
    <glyph glyph-name="omega" unicode="&#x3c9;" horiz-adv-x="1548" 
d="M1421 459q0 -485 -354 -486q-227 0 -293 187h-2q-67 -187 -291 -187q-354 0 -354 486q0 317 133 581h131q-135 -256 -135 -569q0 -387 244 -387q211 0 211 274v418h127v-418q0 -274 211 -274q242 0 241 387q0 313 -135 569h133q133 -260 133 -581z" />
    <glyph glyph-name="iotadieresis" unicode="&#x3ca;" horiz-adv-x="530" 
d="M436 102q39 0 74 11v-109q-53 -12 -96 -12q-135 0 -194.5 70.5t-59.5 230.5v747h127v-743q0 -104 34.5 -149.5t114.5 -45.5zM348 1278v180h125v-180h-125zM-29 1278v180h125v-180h-125z" />
    <glyph glyph-name="upsilondieresis" unicode="&#x3cb;" horiz-adv-x="1155" 
d="M315 791v-424q0 -147 69 -215t208 -68q311 0 311 426q0 297 -80 530h125q82 -240 82 -515q0 -552 -438 -552q-201 0 -303.5 93.5t-102.5 293.5v410q0 100 -21.5 135t-61.5 35t-62 -8v104q37 14 84 15q100 0 145 -57.5t45 -202.5zM672 1278v180h125v-180h-125zM295 1278
v180h125v-180h-125z" />
    <glyph glyph-name="omicrontonos" unicode="&#x3cc;" horiz-adv-x="1130" 
d="M223 520q0 -203 91.5 -319.5t252 -116.5t251.5 116.5t91 319.5t-91 319.5t-251.5 116.5t-252 -116.5t-91.5 -319.5zM1040 520q0 -254 -127 -400.5t-348 -146.5t-348 146.5t-127 400.5t127 400.5t348 146.5t348 -146.5t127 -400.5zM508 1178l92 321h131l-119 -321h-104z
" />
    <glyph glyph-name="upsilontonos" unicode="&#x3cd;" horiz-adv-x="1155" 
d="M315 791v-424q0 -147 69 -215t208 -68q311 0 311 426q0 297 -80 530h125q82 -240 82 -515q0 -552 -438 -552q-201 0 -303.5 93.5t-102.5 293.5v410q0 100 -21.5 135t-61.5 35t-62 -8v104q37 14 84 15q100 0 145 -57.5t45 -202.5zM492 1178l92 321h131l-119 -321h-104z
" />
    <glyph glyph-name="omegatonos" unicode="&#x3ce;" horiz-adv-x="1548" 
d="M1421 459q0 -485 -354 -486q-227 0 -293 187h-2q-67 -187 -291 -187q-354 0 -354 486q0 317 133 581h131q-135 -256 -135 -569q0 -387 244 -387q211 0 211 274v418h127v-418q0 -274 211 -274q242 0 241 387q0 313 -135 569h133q133 -260 133 -581zM719 1178l92 321h131
l-119 -321h-104z" />
    <glyph glyph-name="uni0400" unicode="&#x400;" horiz-adv-x="1249" 
d="M340 1337v-528h735v-121h-735v-567h799v-121h-932v1458h907v-121h-774zM778 1556h-121l-235 277h172z" />
    <glyph glyph-name="uni0401" unicode="&#x401;" horiz-adv-x="1249" 
d="M340 1337v-528h735v-121h-735v-567h799v-121h-932v1458h907v-121h-774zM784 1593v181h125v-181h-125zM408 1593v181h124v-181h-124z" />
    <glyph glyph-name="uni0402" unicode="&#x402;" horiz-adv-x="1556" 
d="M672 1337v-497q154 80 332 80q236 0 363.5 -124t127.5 -343t-133 -346t-358 -127q-109 0 -173 20v123q68 -23 170 -23q168 0 264.5 94.5t96.5 259.5t-92 255t-270 90t-328 -84v-715h-133v1337h-519v121h1172v-121h-520z" />
    <glyph glyph-name="uni0403" unicode="&#x403;" horiz-adv-x="978" 
d="M207 1458h751v-121h-618v-1337h-133v1458zM465 1556l184 277h172l-235 -277h-121z" />
    <glyph glyph-name="uni0404" unicode="&#x404;" horiz-adv-x="1400" 
d="M715 -27q-190 0 -330.5 91.5t-216.5 261.5t-76 403.5t76 403.5t217 261t322.5 91t307.5 -66.5t195.5 -183.5t77.5 -264h-141q-16 178 -132 283.5t-296 105.5q-213 0 -341 -151.5t-142 -417.5h714v-121h-714q12 -268 140 -420t339 -152q178 0 296.5 107.5t143.5 290.5h139
q-22 -238 -176.5 -380.5t-402.5 -142.5z" />
    <glyph glyph-name="uni0405" unicode="&#x405;" horiz-adv-x="1226" 
d="M1085 1006h-135q0 358 -372 358q-154 0 -238 -70.5t-84 -193.5q0 -156 156 -220q76 -32 227.5 -69t251.5 -80q221 -95 221 -342q0 -190 -134 -303t-374 -113t-376 131.5t-136 380.5h133q0 -199 102.5 -294t282.5 -95t273.5 76t93.5 215q0 88 -42 140.5t-121 84
t-232.5 70.5t-251.5 82q-210 92 -209 331q-1 239 211 341q104 50 246 49q251 0 379 -121t128 -358z" />
    <glyph glyph-name="uni0406" unicode="&#x406;" horiz-adv-x="546" 
d="M207 0v1458h133v-1458h-133z" />
    <glyph glyph-name="uni0407" unicode="&#x407;" horiz-adv-x="546" 
d="M207 0v1458h133v-1458h-133zM397 1593v181h125v-181h-125zM20 1593v181h125v-181h-125z" />
    <glyph glyph-name="uni0408" unicode="&#x408;" horiz-adv-x="690" 
d="M115 117q245 0 245 282v1059h136v-1063q0 -200 -98.5 -301.5t-280.5 -101.5q-49 0 -86 10v123q43 -8 84 -8z" />
    <glyph glyph-name="uni0409" unicode="&#x409;" horiz-adv-x="2115" 
d="M1214 121h340q176 0 268.5 80t92.5 224t-92 224t-269 80h-340v-608zM1556 850q240 0 369 -114.5t129 -311.5t-129 -310.5t-369 -113.5h-475v1337h-585q-12 -569 -54.5 -854.5t-124 -388t-231.5 -102.5q-39 0 -61 8v115q20 -4 36 -4q115 0 174.5 99t89 380.5t42.5 867.5
h847v-608h342z" />
    <glyph glyph-name="uni040A" unicode="&#x40a;" horiz-adv-x="2191" 
d="M1991 425q0 144 -92.5 224t-268.5 80h-340v-608h340q176 0 268.5 80t92.5 224zM2132 424q0 -197 -130 -310.5t-368 -113.5h-477v725h-817v-725h-133v1458h133v-612h817v612h133v-608h344q240 0 369 -114.5t129 -311.5z" />
    <glyph glyph-name="uni040B" unicode="&#x40b;" horiz-adv-x="1552" 
d="M1341 440q0 324 -336 324q-173 0 -333 -53v-711h-133v1337h-519v121h1172v-121h-520v-506q172 53 374 53t315.5 -112.5t113.5 -320.5v-451h-134v440z" />
    <glyph glyph-name="uni040C" unicode="&#x40c;" horiz-adv-x="1243" 
d="M340 731v-731h-133v1458h133v-665h4l643 665h180l-678 -696l744 -762h-186l-703 731h-4zM528 1556l185 277h172l-236 -277h-121z" />
    <glyph glyph-name="uni040D" unicode="&#x40d;" horiz-adv-x="1525" 
d="M1319 1458v-1458h-133v596q0 485 2 729h-4q-61 -102 -180 -311l-594 -1014h-203v1458h133v-596l-2 -729h4q61 102 180 311l594 1014h203zM881 1556h-121l-236 277h172z" />
    <glyph glyph-name="uni040E" unicode="&#x40e;" horiz-adv-x="1296" 
d="M313 -14q-72 0 -116 14v119q41 -12 117.5 -12.5t141 47t122.5 159.5l-566 1145h148l237 -493q164 -344 248 -516h4l488 1009h147l-586 -1184q-77 -155 -169.5 -221.5t-215.5 -66.5zM649 1649q164 0 195 184h104q-12 -135 -90 -210t-209 -75t-209 75t-90 210h105
q12 -88 62 -136t132 -48z" />
    <glyph glyph-name="uni040F" unicode="&#x40f;" horiz-adv-x="1476" 
d="M801 0v-328h-127v328h-467v1458h133v-1337h797v1337h133v-1458h-469z" />
    <glyph glyph-name="uni0410" unicode="&#x410;" horiz-adv-x="1359" 
d="M973 594l-291 756h-4l-25 -64q-106 -281 -209 -541l-59 -151h588zM338 471l-182 -471h-144l578 1458h182l576 -1458h-144l-182 471h-684z" />
    <glyph glyph-name="uni0411" unicode="&#x411;" horiz-adv-x="1259" 
d="M340 121h344q168 0 260 77.5t92 217t-92 217.5t-260 78h-344v-590zM340 1337v-506h367q221 0 345 -111.5t124 -304t-124 -304t-345 -111.5h-500v1458h887v-121h-754z" />
    <glyph glyph-name="uni0412" unicode="&#x412;" horiz-adv-x="1259" 
d="M676 117q346 0 346 286q0 135 -92 209t-289 74h-301v-569h336zM340 803h301q184 -1 269 71t85 197q0 270 -348 270h-307v-538zM692 0h-485v1458h452q234 0 353 -99t118 -269q0 -121 -61 -210t-176 -130v-5q123 -31 196 -123t72 -221q0 -185 -124 -293t-345 -108z" />
    <glyph glyph-name="uni0413" unicode="&#x413;" horiz-adv-x="978" 
d="M207 1458h751v-121h-618v-1337h-133v1458z" />
    <glyph glyph-name="uni0414" unicode="&#x414;" horiz-adv-x="1431" 
d="M1090 121v1216h-617q-18 -914 -156 -1216h773zM1382 -328h-127v328h-1097v-328h-127v449h133q80 131 125 428t55 909h879v-1337h159v-449z" />
    <glyph glyph-name="uni0415" unicode="&#x415;" horiz-adv-x="1249" 
d="M340 1337v-528h735v-121h-735v-567h799v-121h-932v1458h907v-121h-774z" />
    <glyph glyph-name="uni0416" unicode="&#x416;" horiz-adv-x="1753" 
d="M944 745v-745h-135v745h-4l-623 -745h-172l643 762l-583 696h166l569 -682h4v682h135v-682h4l570 682h165l-585 -696l645 -762h-172l-623 745h-4z" />
    <glyph glyph-name="uni0417" unicode="&#x417;" horiz-adv-x="1234" 
d="M836 743q301 -88 301 -350t-184.5 -341t-344.5 -79q-250 0 -391 120t-141 327h147q0 -158 98.5 -240t282.5 -82t284.5 77t100.5 213t-111.5 213t-314.5 77h-117v123h117q184 0 292 75.5t108 203.5t-98.5 203t-269.5 75t-266.5 -81t-95.5 -235h-145q0 207 141 324t375 117
t368 -105.5t134 -283.5q0 -137 -69.5 -219t-200.5 -127v-5z" />
    <glyph glyph-name="uni0418" unicode="&#x418;" horiz-adv-x="1525" 
d="M1319 1458v-1458h-133v596q0 485 2 729h-4q-61 -102 -180 -311l-594 -1014h-203v1458h133v-596l-2 -729h4q61 102 180 311l594 1014h203z" />
    <glyph glyph-name="uni0419" unicode="&#x419;" horiz-adv-x="1525" 
d="M1319 1458v-1458h-133v596q0 485 2 729h-4q-61 -102 -180 -311l-594 -1014h-203v1458h133v-596l-2 -729h4q61 102 180 311l594 1014h203zM762 1649q165 0 194 184h105q-12 -135 -90 -210t-209 -75t-209 75t-90 210h104q12 -88 62.5 -136t132.5 -48z" />
    <glyph glyph-name="uni041A" unicode="&#x41a;" horiz-adv-x="1243" 
d="M340 731v-731h-133v1458h133v-665h4l643 665h180l-678 -696l744 -762h-186l-703 731h-4z" />
    <glyph glyph-name="uni041B" unicode="&#x41b;" horiz-adv-x="1421" 
d="M1081 0v1337h-585q-12 -569 -54.5 -854.5t-124 -388t-231.5 -102.5q-39 0 -61 8v115q20 -4 36 -4q115 0 174.5 99t89 380.5t42.5 867.5h847v-1458h-133z" />
    <glyph glyph-name="uni041C" unicode="&#x41c;" horiz-adv-x="1861" 
d="M1522 0v748q0 377 2 565h-4l-512 -1313h-156l-510 1313h-4q2 -188 2 -565v-748h-133v1458h215l289 -745l217 -570h4l508 1315h215v-1458h-133z" />
    <glyph glyph-name="uni041D" unicode="&#x41d;" horiz-adv-x="1497" 
d="M1157 0v696h-817v-696h-133v1458h133v-641h817v641h133v-1458h-133z" />
    <glyph glyph-name="uni041E" unicode="&#x41e;" horiz-adv-x="1482" 
d="M233 729.5q0 -190.5 62.5 -334t177.5 -220.5t268.5 -77t268 78t177 220.5t62.5 333t-62.5 332.5t-177 220t-268 78t-268.5 -77t-177.5 -220t-62.5 -333.5zM1389 729q0 -229 -79 -399t-225.5 -263.5t-343 -93.5t-343 93.5t-226.5 264.5t-80 398t80 398t226.5 264.5
t343 93.5t343 -93.5t225.5 -263.5t79 -399z" />
    <glyph glyph-name="uni041F" unicode="&#x41f;" horiz-adv-x="1476" 
d="M1137 0v1337h-797v-1337h-133v1458h1063v-1458h-133z" />
    <glyph glyph-name="uni0420" unicode="&#x420;" horiz-adv-x="1241" 
d="M340 729h340q176 0 268 80t92 224t-92 224t-268 80h-340v-608zM1180 1034q0 -198 -129 -312t-369 -114h-342v-608h-133v1458h475q240 1 369 -113t129 -311z" />
    <glyph glyph-name="uni0421" unicode="&#x421;" horiz-adv-x="1398" 
d="M734 1360q-165 0 -274.5 -76t-168 -218t-58.5 -336.5t58.5 -337t167 -218.5t271.5 -76t281.5 107.5t143.5 290.5h139q-16 -158 -90 -276t-199.5 -182.5t-302.5 -64.5t-317.5 91.5t-216.5 261.5t-76 403.5t76 403.5t217 261t321.5 91t306.5 -66.5t195.5 -183.5t77.5 -264
h-139q-16 178 -132 283.5t-281 105.5z" />
    <glyph glyph-name="uni0422" unicode="&#x422;" horiz-adv-x="1212" 
d="M672 1337v-1337h-133v1337h-519v121h1172v-121h-520z" />
    <glyph glyph-name="uni0423" unicode="&#x423;" horiz-adv-x="1296" 
d="M313 -14q-72 0 -116 14v119q41 -12 117.5 -12.5t141 47t122.5 159.5l-566 1145h148l237 -493q164 -344 248 -516h4l488 1009h147l-586 -1184q-77 -155 -169.5 -221.5t-215.5 -66.5z" />
    <glyph glyph-name="uni0424" unicode="&#x424;" horiz-adv-x="1656" 
d="M1425 729q0 217 -142 348t-388 142v-979q246 10 388 141t142 348zM233 729q0 -217 141.5 -348t387.5 -141v979q-246 -10 -387.5 -141.5t-141.5 -348.5zM895 -47h-133v164q-207 6 -358.5 81.5t-231.5 212t-80 318.5t80 318.5t231.5 212t358.5 81.5v164h133v-164
q207 -6 358.5 -81.5t231.5 -212t80 -318.5t-80 -318.5t-231.5 -212t-358.5 -81.5v-164z" />
    <glyph glyph-name="uni0425" unicode="&#x425;" horiz-adv-x="1263" 
d="M1243 0h-164l-446 641h-4l-447 -641h-162l529 752l-500 706h162l418 -598h4l420 598h161l-499 -706z" />
    <glyph glyph-name="uni0426" unicode="&#x426;" horiz-adv-x="1480" 
d="M1430 121v-449h-127v328h-1096v1458h133v-1337h797v1337h133v-1337h160z" />
    <glyph glyph-name="uni0427" unicode="&#x427;" horiz-adv-x="1280" 
d="M211 1024q-1 -324 371 -324q188 0 358 54v704h135v-1458h-135v633q-182 -53 -399 -53t-340 111.5t-123 318.5v448h133v-434z" />
    <glyph glyph-name="uni0428" unicode="&#x428;" horiz-adv-x="2082" 
d="M207 0v1458h133v-1337h635v1337h133v-1337h635v1337h133v-1458h-1669z" />
    <glyph glyph-name="uni0429" unicode="&#x429;" horiz-adv-x="2084" 
d="M2036 121v-449h-127v328h-1702v1458h133v-1337h635v1337h133v-1337h635v1337h133v-1337h160z" />
    <glyph glyph-name="uni042A" unicode="&#x42a;" horiz-adv-x="1511" 
d="M610 121h340q176 0 268.5 80t92.5 224t-92.5 224t-268.5 80h-340v-608zM952 850q240 0 370 -114.5t130 -311.5t-130 -310.5t-370 -113.5h-475v1337h-457v121h590v-608h342z" />
    <glyph glyph-name="uni042B" unicode="&#x42b;" horiz-adv-x="1787" 
d="M1040 425q0 144 -92 224t-268 80h-340v-608h340q176 0 268 80t92 224zM1448 0v1458h133v-1458h-133zM207 1458h133v-608h342q240 0 369 -114.5t129 -311.5t-129 -310.5t-369 -113.5h-475v1458z" />
    <glyph glyph-name="uni042C" unicode="&#x42c;" horiz-adv-x="1241" 
d="M1040 425q0 144 -92 224t-268 80h-340v-608h340q176 0 268 80t92 224zM207 1458h133v-608h342q240 0 369 -114.5t129 -311.5t-129 -310.5t-369 -113.5h-475v1458z" />
    <glyph glyph-name="uni042D" unicode="&#x42d;" horiz-adv-x="1400" 
d="M1307 729.5q0 -233.5 -75 -403.5t-215 -261.5t-331 -91.5q-248 0 -403.5 142.5t-178.5 380.5h142q23 -182 141.5 -290t314 -108t323.5 151.5t140 420.5h-716v121h716q-14 266 -143 417.5t-324.5 151.5t-312.5 -106.5t-133 -282.5h-139q8 147 77.5 264t195.5 183.5
t307 66.5t321.5 -91t216.5 -261t76 -403.5z" />
    <glyph glyph-name="uni042E" unicode="&#x42e;" horiz-adv-x="1964" 
d="M1731 729.5q0 190.5 -58.5 332.5t-166 220t-251 78t-251 -78t-166 -220t-58.5 -332.5t58.5 -333t166 -220.5t251 -78t251 78t166 220.5t58.5 333zM1870 729q0 -229 -76 -399t-214 -263.5t-320 -93.5t-317.5 85t-214.5 243t-87 369h-301v-670h-133v1458h133v-667h301
q10 211 88 367.5t213.5 241.5t317.5 85t320 -93.5t214 -263.5t76 -399z" />
    <glyph glyph-name="uni042F" unicode="&#x42f;" horiz-adv-x="1255" 
d="M594 1337q-365 0 -365 -286q0 -129 89.5 -208t265.5 -79h331v573h-321zM92 1055q0 193 126 298t374 105h457v-1458h-134v643h-323q-37 0 -98 4l-322 -647h-154l347 674q-273 86 -273 381z" />
    <glyph glyph-name="uni0430" unicode="&#x430;" horiz-adv-x="1073" 
d="M211 285q0 -90 64.5 -144.5t158.5 -54.5q173 0 260 92q55 57 76 113.5t21 157.5v79q-418 -28 -519 -106q-61 -47 -61 -137zM913 668v-412q0 -147 23 -256h-119q-14 70 -14 158h-4q-106 -178 -371 -178q-158 0 -255 83.5t-97 216t89 208.5q133 113 626 147v49
q0 139 -72 206.5t-197 67.5t-194.5 -62t-75.5 -169h-133q10 152 115.5 246t289 94t286.5 -100.5t103 -298.5z" />
    <glyph glyph-name="uni0431" unicode="&#x431;" horiz-adv-x="1150" 
d="M240 514q0 -197 92 -313.5t254 -116.5t252 110.5t90 310.5t-94.5 313.5t-264.5 113.5t-249.5 -110.5t-79.5 -307.5zM580 1038q145 0 253.5 -63.5t168 -182t59.5 -280.5q0 -252 -127 -395.5t-350 -143.5t-349 154t-126 428q0 328 57 512t175.5 266t344.5 104t334 48v-121
q-76 -21 -197 -33t-139 -14q-168 -16 -262 -72.5t-140 -160t-69 -283.5h4q92 237 363 237z" />
    <glyph glyph-name="uni0432" unicode="&#x432;" horiz-adv-x="1056" 
d="M297 106h260q264 0 264 186.5t-264 186.5h-260v-373zM297 582h246q256 0 256 176t-256 176h-246v-352zM934 770q0 -180 -174 -235v-5q86 -18 141 -81.5t55 -157.5q0 -137 -95 -214t-265 -77h-426v1040h391q182 0 277.5 -72.5t95.5 -197.5z" />
    <glyph glyph-name="uni0433" unicode="&#x433;" horiz-adv-x="829" 
d="M297 934v-934h-127v1040h631v-106h-504z" />
    <glyph glyph-name="uni0434" unicode="&#x434;" horiz-adv-x="1138" 
d="M842 106v828h-424q-29 -614 -131 -828h555zM1106 -328h-127v328h-825v-328h-127v434h116q61 88 99.5 292t54.5 642h672v-934h137v-434z" />
    <glyph glyph-name="uni0435" unicode="&#x435;" horiz-adv-x="1103" 
d="M557 958q-143 0 -235.5 -96t-100.5 -262h670q-10 170 -100.5 264t-233.5 94zM565 -27q-221 0 -348 153t-127 413q0 154 56.5 273.5t162 187t264 67.5t274.5 -98.5t150 -272.5q16 -74 17 -200h-795q4 -201 100.5 -307.5t233.5 -106.5t217 62.5t104 164.5h132
q-27 -143 -140.5 -239.5t-300.5 -96.5z" />
    <glyph glyph-name="uni0436" unicode="&#x436;" horiz-adv-x="1335" 
d="M731 555v-555h-127v555h-4l-438 -555h-176l477 573l-426 467h172l391 -454h4v454h127v-454h4l391 454h172l-426 -467l478 -573h-176l-439 555h-4z" />
    <glyph glyph-name="uni0437" unicode="&#x437;" horiz-adv-x="976" 
d="M479 952q-252 0 -252 -215h-131q0 154 104.5 242t278.5 88t270.5 -78t96.5 -211q0 -174 -178 -243v-5q207 -68 206 -258q0 -139 -106 -219t-294 -80t-293 88.5t-105 245.5h135q0 -219 266 -219q125 0 194.5 50t69.5 141t-77.5 142.5t-223.5 51.5h-104v107h104
q121 0 197 52t76 139t-61.5 134t-172.5 47z" />
    <glyph glyph-name="uni0438" unicode="&#x438;" horiz-adv-x="1224" 
d="M922 0v905h-4q-48 -85 -158 -264l-387 -641h-203v1040h133v-407q0 -332 -2 -498h4q48 85 158 264l389 641h203v-1040h-133z" />
    <glyph glyph-name="uni0439" unicode="&#x439;" horiz-adv-x="1224" 
d="M922 0v905h-4q-48 -85 -158 -264l-387 -641h-203v1040h133v-407q0 -332 -2 -498h4q48 85 158 264l389 641h203v-1040h-133zM612 1276q167 0 195 182h104q-12 -135 -90 -209.5t-209 -74.5t-208.5 74.5t-90.5 209.5h105q12 -88 62 -135t132 -47z" />
    <glyph glyph-name="uni043A" unicode="&#x43a;" horiz-adv-x="1015" 
d="M297 537v-537h-127v1040h127v-436h4l463 436h172l-504 -467l563 -573h-176l-518 537h-4z" />
    <glyph glyph-name="uni043B" unicode="&#x43b;" horiz-adv-x="1105" 
d="M809 0v934h-410q-6 -391 -40.5 -593t-101.5 -274.5t-181 -72.5q-39 0 -64 6v104q20 -4 41 -4q84 0 129 70t67.5 269.5t29.5 600.5h657v-1040h-127z" />
    <glyph glyph-name="uni043C" unicode="&#x43c;" horiz-adv-x="1503" 
d="M1208 0v913h-4l-375 -913h-155l-211 516q-86 203 -164 397h-4v-913h-125v1040h211l203 -495q55 -133 166 -410h4l370 905h209v-1040h-125z" />
    <glyph glyph-name="uni043D" unicode="&#x43d;" horiz-adv-x="1179" 
d="M883 0v467h-586v-467h-127v1040h127v-467h586v467h127v-1040h-127z" />
    <glyph glyph-name="uni043E" unicode="&#x43e;" horiz-adv-x="1130" 
d="M223 520q0 -203 91.5 -319.5t252 -116.5t251.5 116.5t91 319.5t-91 319.5t-251.5 116.5t-252 -116.5t-91.5 -319.5zM1040 520q0 -254 -127 -400.5t-348 -146.5t-348 146.5t-127 400.5t127 400.5t348 146.5t348 -146.5t127 -400.5z" />
    <glyph glyph-name="uni043F" unicode="&#x43f;" horiz-adv-x="1163" 
d="M866 0v934h-569v-934h-127v1040h823v-1040h-127z" />
    <glyph glyph-name="uni0440" unicode="&#x440;" horiz-adv-x="1157" 
d="M291 522q0 -198 86 -318q85 -120 233 -120t236 119t88 319t-88 320q-88 119 -236 119t-233 -120q-86 -120 -86 -319zM1067 522q0 -164 -53 -288q-52 -124 -152 -190t-222 -67t-210 49t-129 132h-4v-537h-127v1419h127v-153h4q41 82 129 131t210 49t221 -67
q99 -66 153 -190t53 -288z" />
    <glyph glyph-name="uni0441" unicode="&#x441;" horiz-adv-x="1067" 
d="M561 956q-156 0 -245 -116.5t-89 -320.5t89.5 -319.5t244.5 -115.5q117 0 198 83t91 204h133q-10 -113 -64.5 -203t-146.5 -142.5t-211 -52.5q-219 0 -345 146.5t-126 400.5t126 400.5t345 146.5q176 0 292 -106.5t130 -278.5h-133q-10 121 -90 197.5t-199 76.5z" />
    <glyph glyph-name="uni0442" unicode="&#x442;" horiz-adv-x="899" 
d="M516 934v-934h-131v934h-371v106l871 -2v-104h-369z" />
    <glyph glyph-name="uni0443" unicode="&#x443;" horiz-adv-x="933" 
d="M142.5 -387q-74.5 0 -105.5 8v113q31 -8 91.5 -8t107.5 21.5t82.5 78.5t80.5 174l-409 1040h137l338 -878h4l338 878h137l-430 -1089q-55 -137 -108.5 -209t-121 -100.5t-142 -28.5z" />
    <glyph glyph-name="uni0444" unicode="&#x444;" horiz-adv-x="1576" 
d="M1061 84q127 0 211 120t84 318.5t-84 318t-211 119.5t-209 -92v-698q82 -86 209 -86zM223 522.5q0 -198.5 84 -318.5t210 -120t208 86v698q-82 92 -208 92t-210 -119.5t-84 -318zM1071 1067q125 0 219 -66.5t145.5 -190.5t51.5 -288t-51.5 -287.5t-145.5 -190.5t-219 -67
t-219 78v-434h-127v434q-94 -78 -218 -78t-219 67t-146.5 190.5t-51.5 287.5t51.5 288t146.5 190.5t219 66.5t218 -84v475h127v-475q94 84 219 84z" />
    <glyph glyph-name="uni0445" unicode="&#x445;" horiz-adv-x="956" 
d="M956 0h-157l-320 449h-4l-319 -449h-156l401 545l-364 495h156l282 -405h4l285 405h154l-365 -495z" />
    <glyph glyph-name="uni0446" unicode="&#x446;" horiz-adv-x="1165" 
d="M1130 106v-434h-126v328h-834v1040h127v-934h569v934h127v-934h137z" />
    <glyph glyph-name="uni0447" unicode="&#x447;" horiz-adv-x="1030" 
d="M733 0v432q-133 -41 -301 -41t-266 85t-98 241v323h127v-311q0 -111 68.5 -170t206.5 -59t263 43v497h127v-1040h-127z" />
    <glyph glyph-name="uni0448" unicode="&#x448;" horiz-adv-x="1697" 
d="M170 0v1040h127v-934h487v934h127v-934h490v934h127v-1040h-1358z" />
    <glyph glyph-name="uni0449" unicode="&#x449;" horiz-adv-x="1697" 
d="M1645 106v-434h-127v328h-1348v1040h127v-934h487v934h127v-934h490v934h127v-934h117z" />
    <glyph glyph-name="uni044A" unicode="&#x44a;" horiz-adv-x="1181" 
d="M469 106h272q252 0 252 209t-252 209h-272v-418zM735 631q186 0 287.5 -84t101.5 -231.5t-101 -231.5t-288 -84h-393v934h-328v106h455v-409h266z" />
    <glyph glyph-name="uni044B" unicode="&#x44b;" horiz-adv-x="1415" 
d="M297 106h272q252 0 252 209t-252 209h-272v-418zM563 631q186 0 287.5 -84t101.5 -231.5t-101 -231.5t-288 -84h-393v1040h127v-409h266zM1118 0v1040h127v-1040h-127z" />
    <glyph glyph-name="uni044C" unicode="&#x44c;" horiz-adv-x="1028" 
d="M297 106h272q252 0 252 209t-252 209h-272v-418zM563 631q186 0 287.5 -84t101.5 -231.5t-101 -231.5t-288 -84h-393v1040h127v-409h266z" />
    <glyph glyph-name="uni044D" unicode="&#x44d;" horiz-adv-x="1067" 
d="M975 520q0 -254 -126 -400.5t-343 -146.5q-119 0 -211 52.5t-147.5 142.5t-65.5 203h133q10 -121 92 -204t214 -83t219 104.5t98 286.5h-510v107h510q-14 176 -101.5 275t-230.5 99q-82 0 -146.5 -38.5t-101.5 -101t-43 -134.5h-133q10 104 63.5 191.5t146.5 140.5
t214 53q217 0 343 -146.5t126 -400.5z" />
    <glyph glyph-name="uni044E" unicode="&#x44e;" horiz-adv-x="1556" 
d="M1335 520q0 203 -91 319.5t-252 116.5t-252 -116.5t-91 -319.5t91 -319.5t252 -116.5t252 116.5t91 319.5zM1466 520q0 -254 -127 -400.5t-342 -146.5t-340 130t-139 362h-221v-465h-127v1040h127v-467l221 2q14 231 139 361.5t340 130.5t342 -146.5t127 -400.5z" />
    <glyph glyph-name="uni044F" unicode="&#x44f;" horiz-adv-x="1046" 
d="M492 934q-260 0 -261 -207q0 -94 62.5 -150.5t187.5 -56.5h264v414h-253zM94 731q0 145 100.5 227t294.5 82h388v-1040h-132v414h-296l-252 -414h-158l276 434q-221 66 -221 297z" />
    <glyph glyph-name="uni0450" unicode="&#x450;" horiz-adv-x="1103" 
d="M557 958q-143 0 -235.5 -96t-100.5 -262h670q-10 170 -100.5 264t-233.5 94zM565 -27q-221 0 -348 153t-127 413q0 154 56.5 273.5t162 187t264 67.5t274.5 -98.5t150 -272.5q16 -74 17 -200h-795q4 -201 100.5 -307.5t233.5 -106.5t217 62.5t104 164.5h132
q-27 -143 -140.5 -239.5t-300.5 -96.5zM670 1169h-121l-236 289h172z" />
    <glyph glyph-name="uni0451" unicode="&#x451;" horiz-adv-x="1103" 
d="M557 958q-143 0 -235.5 -96t-100.5 -262h670q-10 170 -100.5 264t-233.5 94zM565 -27q-221 0 -348 153t-127 413q0 154 56.5 273.5t162 187t264 67.5t274.5 -98.5t150 -272.5q16 -74 17 -200h-795q4 -201 100.5 -307.5t233.5 -106.5t217 62.5t104 164.5h132
q-27 -143 -140.5 -239.5t-300.5 -96.5zM676 1278v180h125v-180h-125zM299 1278v180h125v-180h-125z" />
    <glyph glyph-name="uni0452" unicode="&#x452;" 
d="M993 522v-618q0 -291 -270 -291q-41 0 -74 8v111q31 -6 60 -6q80 0 118.5 42t38.5 140v608q0 176 -67.5 251t-198.5 75q-82 0 -151.5 -39t-110.5 -115t-41 -182v-506h-127v1161h-141v99h141v198h127v-198h475v-99h-475v-370h4q51 80 137 120.5t185 40.5q180 0 275 -108.5
t95 -321.5z" />
    <glyph glyph-name="uni0453" unicode="&#x453;" horiz-adv-x="829" 
d="M297 934v-934h-127v1040h631v-106h-504zM367 1169l184 289h172l-236 -289h-120z" />
    <glyph glyph-name="uni0454" unicode="&#x454;" horiz-adv-x="1067" 
d="M561 -27q-219 0 -345 146.5t-126 400.5t126 400.5t345 146.5q121 0 214 -53t146.5 -140.5t61.5 -191.5h-133q-6 72 -43 134.5t-100.5 101t-145.5 38.5q-143 0 -231 -99t-103 -275h510v-107h-510q10 -182 98.5 -286.5t220.5 -104.5t213 83t91 204h133q-10 -113 -64.5 -203
t-146.5 -142.5t-211 -52.5z" />
    <glyph glyph-name="uni0455" unicode="&#x455;" horiz-adv-x="980" 
d="M735 711q0 117 -69.5 181t-185 64t-180 -47t-64.5 -116.5t26.5 -102.5t74.5 -49t172 -45t199.5 -56.5t130 -90t54.5 -185.5t-106.5 -207t-293 -84t-297 98.5t-112.5 278.5h129q0 -127 76 -196.5t204 -69.5t200.5 51t72.5 126t-30.5 112t-90 57.5t-184.5 50t-191.5 54
t-113.5 82t-47 157.5q0 131 101 212t273 81t274.5 -93t104.5 -263h-127z" />
    <glyph glyph-name="uni0456" unicode="&#x456;" horiz-adv-x="466" 
d="M170 0v1040h127v-1040h-127zM170 1278v180h127v-180h-127z" />
    <glyph glyph-name="uni0457" unicode="&#x457;" horiz-adv-x="466" 
d="M170 0v1040h127v-1040h-127zM319 1278v180h125v-180h-125zM25 1278v180h125v-180h-125z" />
    <glyph glyph-name="uni0458" unicode="&#x458;" horiz-adv-x="481" 
d="M39 -387q-39 0 -74 8v111q33 -6 62 -6q78 0 117.5 46t39.5 154v1114h127v-1116q0 -311 -272 -311zM184 1278v180h127v-180h-127z" />
    <glyph glyph-name="uni0459" unicode="&#x459;" horiz-adv-x="1667" 
d="M936 106h272q252 0 252 209t-252 209h-272v-418zM1202 631q186 0 287.5 -84t101.5 -231.5t-101 -231.5t-288 -84h-393v934h-410q-6 -391 -40.5 -593t-101.5 -274.5t-181 -72.5q-39 0 -64 6v104q20 -4 41 -4q84 0 129 70t67.5 269.5t29.5 600.5h657v-409h266z" />
    <glyph glyph-name="uni045A" unicode="&#x45a;" horiz-adv-x="1740" 
d="M1010 106h272q252 0 252 209t-252 209h-272v-418zM1276 631q186 0 287.5 -84t101.5 -231.5t-101.5 -231.5t-287.5 -84h-393v520h-586v-520h-127v1040h127v-413h586v413h127v-409h266z" />
    <glyph glyph-name="uni045B" unicode="&#x45b;" 
d="M993 522v-522h-127v516q0 176 -67.5 251t-198.5 75q-82 0 -151.5 -39t-110.5 -115t-41 -182v-506h-127v1161h-141v99h141v198h127v-198h475v-99h-475v-370h4q51 80 137 120.5t185 40.5q180 0 275 -108.5t95 -321.5z" />
    <glyph glyph-name="uni045C" unicode="&#x45c;" horiz-adv-x="1015" 
d="M297 537v-537h-127v1040h127v-436h4l463 436h172l-504 -467l563 -573h-176l-518 537h-4zM412 1169l184 289h172l-236 -289h-120z" />
    <glyph glyph-name="uni045D" unicode="&#x45d;" horiz-adv-x="1224" 
d="M922 0v905h-4q-48 -85 -158 -264l-387 -641h-203v1040h133v-407q0 -332 -2 -498h4q48 85 158 264l389 641h203v-1040h-133zM731 1169h-121l-235 289h172z" />
    <glyph glyph-name="uni045E" unicode="&#x45e;" horiz-adv-x="933" 
d="M142.5 -387q-74.5 0 -105.5 8v113q31 -8 91.5 -8t107.5 21.5t82.5 78.5t80.5 174l-409 1040h137l338 -878h4l338 878h137l-430 -1089q-55 -137 -108.5 -209t-121 -100.5t-142 -28.5zM469 1276q165 0 195 182h104q-12 -135 -90 -209.5t-209 -74.5t-209 74.5t-90 209.5h104
q12 -88 62.5 -135t132.5 -47z" />
    <glyph glyph-name="uni045F" unicode="&#x45f;" horiz-adv-x="1163" 
d="M645 0v-328h-127v328h-348v1040h127v-934h569v934h127v-1040h-348z" />
    <glyph glyph-name="uni0490" unicode="&#x490;" horiz-adv-x="978" 
d="M340 1337v-1337h-133v1458h624v314h127v-435h-618z" />
    <glyph glyph-name="uni0491" unicode="&#x491;" horiz-adv-x="829" 
d="M297 934v-934h-127v1040h504v328h127v-434h-504z" />
    <glyph glyph-name="uni0492" unicode="&#x492;" horiz-adv-x="978" 
d="M340 768h295v-111h-295v-657h-133v657h-135v111h135v690h751v-121h-618v-569z" />
    <glyph glyph-name="uni0493" unicode="&#x493;" horiz-adv-x="831" 
d="M297 563h276v-98h-276v-465h-127v465h-119v98h119v477h631v-106h-504v-371z" />
    <glyph glyph-name="uni0496" unicode="&#x496;" horiz-adv-x="1753" 
d="M1743 -328h-127v328h-45l-623 745h-4v-745h-135v745h-4l-623 -745h-172l643 762l-583 696h166l569 -682h4v682h135v-682h4l570 682h165l-585 -696l542 -641h103v-449z" />
    <glyph glyph-name="uni0497" unicode="&#x497;" horiz-adv-x="1335" 
d="M1350 -328h-127v328h-49l-439 555h-4v-555h-127v555h-4l-438 -555h-176l477 573l-426 467h172l391 -454h4v454h127v-454h4l391 454h172l-426 -467l390 -467h88v-434z" />
    <glyph glyph-name="uni049A" unicode="&#x49a;" horiz-adv-x="1243" 
d="M1233 -328h-127v328h-59l-703 731h-4v-731h-133v1458h133v-665h4l643 665h180l-678 -696l625 -641h119v-449z" />
    <glyph glyph-name="uni049B" unicode="&#x49b;" horiz-adv-x="1015" 
d="M995 -328h-127v328h-49l-518 537h-4v-537h-127v1040h127v-436h4l463 436h172l-504 -467l459 -467h104v-434z" />
    <glyph glyph-name="uni049C" unicode="&#x49c;" horiz-adv-x="1376" 
d="M602 696v-366h-129v366h-133v-696h-133v1458h133v-641h133v367h129v-367h4l535 641h166l-588 -702l647 -756h-172l-590 696h-2z" />
    <glyph glyph-name="uni049D" unicode="&#x49d;" horiz-adv-x="1110" 
d="M539 518v-297h-121v297h-121v-518h-127v1040h127v-415h121v276h121v-276h4l358 415h170l-422 -465l475 -575h-176l-405 518h-4z" />
    <glyph glyph-name="uni04A2" unicode="&#x4a2;" horiz-adv-x="1501" 
d="M1323 -328v328h-166v696h-817v-696h-133v1458h133v-641h817v641h133v-1337h160v-449h-127z" />
    <glyph glyph-name="uni04A3" unicode="&#x4a3;" horiz-adv-x="1179" 
d="M1020 -328v328h-137v467h-586v-467h-127v1040h127v-467h586v467h127v-934h137v-434h-127z" />
    <glyph glyph-name="uni04AE" unicode="&#x4ae;" horiz-adv-x="1232" 
d="M684 0h-135v623l-539 835h158l446 -706h4q164 262 248 391l199 315h158l-539 -835v-623z" />
    <glyph glyph-name="uni04AF" unicode="&#x4af;" horiz-adv-x="921" 
d="M522 -379h-125v365l-407 1054h137l332 -880h4l332 880h137l-410 -1054v-365z" />
    <glyph glyph-name="uni04B2" unicode="&#x4b2;" horiz-adv-x="1263" 
d="M1253 -328h-127v328h-47l-446 641h-4l-447 -641h-162l529 752l-500 706h162l418 -598h4l420 598h161l-499 -706l444 -631h94v-449z" />
    <glyph glyph-name="uni04B3" unicode="&#x4b3;" horiz-adv-x="956" 
d="M956 -328h-127v328h-30l-320 449h-4l-319 -449h-156l401 545l-364 495h156l282 -405h4l285 405h154l-365 -495l324 -439h79v-434z" />
    <glyph glyph-name="uni04B8" unicode="&#x4b8;" horiz-adv-x="1280" 
d="M1075 0h-135v633q-143 -39 -291 -51v-314h-131v312q-215 8 -327.5 119.5t-112.5 310.5v448h133v-434q0 -145 79 -227t228 -95v453h131v-453q158 8 291 52v704h135v-1458z" />
    <glyph glyph-name="uni04B9" unicode="&#x4b9;" horiz-adv-x="1030" 
d="M860 0h-127v432q-96 -31 -211 -39v-213h-121v213q-162 10 -247.5 94t-85.5 230v323h127v-311q0 -201 206 -225v340h121v-342q104 6 211 41v497h127v-1040z" />
    <glyph glyph-name="uni04BA" unicode="&#x4ba;" horiz-adv-x="1280" 
d="M1069 434q1 324 -371 324q-188 0 -358 -53v-705h-133v1458h133v-633q186 53 401 53t339 -111.5t124 -317.5v-449h-135v434z" />
    <glyph glyph-name="uni04BB" unicode="&#x4bb;" 
d="M623 1063q180 0 275 -108.5t95 -321.5v-633h-127v627q0 176 -67.5 250.5t-198.5 74.5q-82 0 -151.5 -39t-110.5 -114.5t-41 -182.5v-616h-127v1458h127v-557h4q51 80 137 121t185 41z" />
    <glyph glyph-name="uni04C0" unicode="&#x4c0;" horiz-adv-x="546" 
d="M207 0v1458h133v-1458h-133z" />
    <glyph glyph-name="uni04CF" unicode="&#x4cf;" horiz-adv-x="466" 
d="M170 0v1458h127v-1458h-127z" />
    <glyph glyph-name="uni04D8" unicode="&#x4d8;" horiz-adv-x="1492" 
d="M740 98q146 0 262 69t183 195t72 295h-1024q8 -176 74 -302q67 -125 177 -191t256 -66zM1401 731q0 -225 -81 -396q-82 -171 -232 -266t-350 -95t-345 92t-223 262t-78 401q0 20 4 49h1164q-4 184 -75 316t-191 198q-120 68 -288 68t-285 -92q-118 -92 -149 -244h-147
q49 281 300 400q126 60 314 60t343 -92t237 -264t82 -397z" />
    <glyph glyph-name="uni04D9" unicode="&#x4d9;" horiz-adv-x="1103" 
d="M546 82q144 0 236 100t101 275h-670q10 -179 99 -277q90 -98 234 -98zM1014 520q0 -160 -56 -284t-163 -193q-105 -70 -247 -70t-245 67q-101 66 -157 190t-56 290q0 29 2 41h793q-5 193 -103 295t-252 102q-118 0 -192 -62t-94 -165h-131q25 143 132 240q108 96 285 96
q226 0 355 -148t129 -399z" />
    <glyph glyph-name="uni04E8" unicode="&#x4e8;" horiz-adv-x="1482" 
d="M741 98q146 0 257.5 70t176 199t72.5 303h-1014q16 -264 151.5 -418t356.5 -154zM741.5 1360q-221.5 0 -356.5 -152.5t-152 -416.5h1014q-14 262 -149 415.5t-356.5 153.5zM1389 729q0 -229 -79 -399t-225.5 -263.5t-343 -93.5t-343 93.5t-226.5 264.5t-80 398t80 398
t226.5 264.5t343 93.5t343 -93.5t225.5 -263.5t79 -399z" />
    <glyph glyph-name="uni04E9" unicode="&#x4e9;" horiz-adv-x="1132" 
d="M565.5 84q149.5 0 241.5 102.5t102 282.5h-686q12 -180 102.5 -282.5t240 -102.5zM565.5 956q-149.5 0 -239.5 -101t-103 -282h686q-12 180 -103 281.5t-240.5 101.5zM1042 520q0 -254 -128 -400.5t-349 -146.5t-348 146.5t-127 400.5t127 400.5t348 146.5t349 -146.5
t128 -400.5z" />
    <glyph glyph-name="Wgrave" unicode="&#x1e80;" horiz-adv-x="1835" 
d="M1247 0l-164 666q-111 446 -163 669h-5q-53 -223 -163 -669l-164 -666h-209l-356 1458h135l151 -620q59 -238 174 -713h4l328 1333h205l328 -1333h4l325 1333h135l-356 -1458h-209zM1038 1556h-120l-236 277h172z" />
    <glyph glyph-name="wgrave" unicode="&#x1e81;" horiz-adv-x="1536" 
d="M1036 0l-135 471q-82 283 -131 455h-4q-49 -172 -131 -455l-135 -471h-183l-301 1040h131l250 -884q2 -10 11 -41h4l260 925h192l260 -925h4q8 31 11 41l250 884h131l-301 -1040h-183zM887 1169h-121l-236 289h172z" />
    <glyph glyph-name="Wacute" unicode="&#x1e82;" horiz-adv-x="1835" 
d="M1247 0l-164 666q-111 446 -163 669h-5q-53 -223 -163 -669l-164 -666h-209l-356 1458h135l151 -620q59 -238 174 -713h4l328 1333h205l328 -1333h4l325 1333h135l-356 -1458h-209zM801 1556l184 277h172l-235 -277h-121z" />
    <glyph glyph-name="wacute" unicode="&#x1e83;" horiz-adv-x="1536" 
d="M1036 0l-135 471q-82 283 -131 455h-4q-49 -172 -131 -455l-135 -471h-183l-301 1040h131l250 -884q2 -10 11 -41h4l260 925h192l260 -925h4q8 31 11 41l250 884h131l-301 -1040h-183zM649 1169l185 289h172l-236 -289h-121z" />
    <glyph glyph-name="Wdieresis" unicode="&#x1e84;" horiz-adv-x="1835" 
d="M1247 0l-164 666q-111 446 -163 669h-5q-53 -223 -163 -669l-164 -666h-209l-356 1458h135l151 -620q59 -238 174 -713h4l328 1333h205l328 -1333h4l325 1333h135l-356 -1458h-209zM1044 1593v181h125v-181h-125zM668 1593v181h125v-181h-125z" />
    <glyph glyph-name="wdieresis" unicode="&#x1e85;" horiz-adv-x="1536" 
d="M1036 0l-135 471q-82 283 -131 455h-4q-49 -172 -131 -455l-135 -471h-183l-301 1040h131l250 -884q2 -10 11 -41h4l260 925h192l260 -925h4q8 31 11 41l250 884h131l-301 -1040h-183zM893 1278v180h125v-180h-125zM516 1278v180h125v-180h-125z" />
    <glyph glyph-name="Germandbls" unicode="&#x1e9e;" horiz-adv-x="1540" 
d="M1440 390q0 -198 -125 -305.5t-335 -107.5t-321.5 98.5t-111.5 284.5h137q0 -125 73.5 -192.5t222.5 -67.5t234.5 75t85.5 214q0 174 -122.5 262t-368.5 109v106l340 359q-66 63 -162 100t-207 37q-227 0 -344 -121t-117 -360v-881h-133v881q0 289 156 446.5t440 157.5
q168 0 308.5 -67.5t230.5 -182.5l-356 -375q233 -43 354 -157.5t121 -312.5z" />
    <glyph glyph-name="Ygrave" unicode="&#x1ef2;" horiz-adv-x="1232" 
d="M684 0h-135v623l-539 835h158l446 -706h4q164 262 248 391l199 315h158l-539 -835v-623zM735 1556h-121l-235 277h172z" />
    <glyph glyph-name="ygrave" unicode="&#x1ef3;" horiz-adv-x="933" 
d="M142.5 -387q-74.5 0 -105.5 8v113q31 -8 91.5 -8t107.5 21.5t82.5 78.5t80.5 174l-409 1040h137l338 -878h4l338 878h137l-430 -1089q-55 -137 -108.5 -209t-121 -100.5t-142 -28.5zM586 1169h-121l-236 289h172z" />
    <glyph glyph-name="uni2010" unicode="&#x2010;" horiz-adv-x="593" 
d="M61 535v127h471v-127h-471z" />
    <glyph glyph-name="endash" unicode="&#x2013;" horiz-adv-x="1024" 
d="M41 535v127h942v-127h-942z" />
    <glyph glyph-name="emdash" unicode="&#x2014;" horiz-adv-x="2048" 
d="M41 535v127h1966v-127h-1966z" />
    <glyph glyph-name="uni2015" unicode="&#x2015;" horiz-adv-x="2048" 
d="M41 535v127h1966v-127h-1966z" />
    <glyph glyph-name="underscoredbl" unicode="&#x2017;" horiz-adv-x="1024" 
d="M0 -430v78h1024v-78h-1024zM0 -180v78h1024v-78h-1024z" />
    <glyph glyph-name="quoteleft" unicode="&#x2018;" horiz-adv-x="468" 
d="M319 1196v-184h-172v184l84 262h91l-62 -262h59z" />
    <glyph glyph-name="quoteright" unicode="&#x2019;" horiz-adv-x="468" 
d="M147 1274v184h172v-184l-81 -262h-91l60 262h-60z" />
    <glyph glyph-name="quotesinglbase" unicode="&#x201a;" horiz-adv-x="468" 
d="M147 0v184h172v-184l-81 -262h-91l60 262h-60z" />
    <glyph glyph-name="quotereversed" unicode="&#x201b;" horiz-adv-x="468" 
d="M319 1274h-59l62 -262h-91l-84 262v184h172v-184z" />
    <glyph glyph-name="quotedblleft" unicode="&#x201c;" horiz-adv-x="776" 
d="M627 1196v-184h-172v184l84 262h90l-62 -262h60zM319 1196v-184h-172v184l84 262h91l-62 -262h59z" />
    <glyph glyph-name="quotedblright" unicode="&#x201d;" horiz-adv-x="776" 
d="M147 1274v184h172v-184l-81 -262h-91l60 262h-60zM455 1274v184h172v-184l-82 -262h-90l59 262h-59z" />
    <glyph glyph-name="quotedblbase" unicode="&#x201e;" horiz-adv-x="776" 
d="M147 0v184h172v-184l-81 -262h-91l60 262h-60zM455 0v184h172v-184l-82 -262h-90l59 262h-59z" />
    <glyph glyph-name="dagger" unicode="&#x2020;" horiz-adv-x="1071" 
d="M961 1055v-113h-359v-1188h-133v1188h-358v113h358v403h133v-403h359z" />
    <glyph glyph-name="daggerdbl" unicode="&#x2021;" horiz-adv-x="1071" 
d="M961 1057v-113h-359v-549h359v-112h-359v-529h-133v529h-358v112h358v549h-358v113h358v401h133v-401h359z" />
    <glyph glyph-name="bullet" unicode="&#x2022;" horiz-adv-x="659" 
d="M121 729q0 86 61.5 147.5t148.5 61.5t148.5 -61.5t61.5 -147.5t-61.5 -147.5t-148.5 -61.5t-148.5 61.5t-61.5 147.5z" />
    <glyph glyph-name="ellipsis" unicode="&#x2026;" horiz-adv-x="1394" 
d="M127 0v188h176v-188h-176zM608 0v188h176v-188h-176zM1092 0v188h176v-188h-176z" />
    <glyph glyph-name="perthousand" unicode="&#x2030;" horiz-adv-x="1996" 
d="M1532 308q0 -110 37 -169t103 -59t103 59t37 169t-37 168.5t-103 58.5t-103 -58.5t-37 -168.5zM881 308q0 -110 36.5 -169t103.5 -59t103.5 59t36.5 169t-37.5 168.5t-103.5 58.5t-102.5 -58.5t-36.5 -168.5zM1935 307q0 -160 -68.5 -246t-194.5 -86t-195.5 86t-69.5 246
t69.5 247t195.5 87t194.5 -87t68.5 -247zM1284 307q0 -160 -68.5 -246t-194.5 -86t-195.5 86t-69.5 246t69.5 247t195.5 87t194.5 -87t68.5 -247zM184 1075.5q0 -108.5 37 -168t104.5 -59.5t104.5 59.5t37 168t-38 168t-103.5 59.5t-103.5 -59.5t-38 -168zM590 1075
q0 -160 -68.5 -247t-195.5 -87t-196 87t-69 247t69 246t196 86t195.5 -86t68.5 -246zM176 -61l866 1503h129l-868 -1503h-127z" />
    <glyph glyph-name="minute" unicode="&#x2032;" horiz-adv-x="352" 
d="M61 930l97 450h133l-144 -450h-86z" />
    <glyph glyph-name="second" unicode="&#x2033;" horiz-adv-x="606" 
d="M334 930l96 450h133l-143 -450h-86zM61 930l97 450h133l-144 -450h-86z" />
    <glyph glyph-name="guilsinglleft" unicode="&#x2039;" horiz-adv-x="565" 
d="M463 111h-127l-234 409l234 410h127l-230 -410z" />
    <glyph glyph-name="guilsinglright" unicode="&#x203a;" horiz-adv-x="565" 
d="M463 520l-234 -409h-127l230 409l-230 410h127z" />
    <glyph glyph-name="exclamdbl" unicode="&#x203c;" horiz-adv-x="948" 
d="M610 0v190h162v-190h-162zM639 336l-33 1122h170l-33 -1122h-104zM176 0v190h162v-190h-162zM205 336l-33 1122h170l-33 -1122h-104z" />
    <glyph glyph-name="interrobang" unicode="&#x203d;" horiz-adv-x="1026" 
d="M584 190v-190h-162v190h162zM805 997q0 86 -62.5 140.5t-171.5 62.5l-16 -577h4q29 31 84 79q100 95 131 152t31 143zM944 997q0 -78 -26.5 -157.5t-198.5 -214.5q-72 -55 -103.5 -92t-45 -84.5t-13.5 -131.5h-106l-23 875q-209 -47 -225 -266h-131q8 166 100 265
t254 124l-4 143h156l-5 -137q168 -8 269.5 -97t101.5 -227z" />
    <glyph glyph-name="overline" unicode="&#x203e;" horiz-adv-x="1024" 
d="M0 1624v107h1024v-107h-1024z" />
    <glyph glyph-name="fraction" unicode="&#x2044;" horiz-adv-x="301" 
d="M-317 0l802 1380h133l-802 -1380h-133z" />
    <glyph glyph-name="zero.superior" unicode="&#x2070;" horiz-adv-x="851" 
d="M199 1158q0 -194 59 -297t168 -103t168 103t59 297t-59 296t-168 102t-168 -102t-59 -296zM774 1160q0 -245 -90 -375t-258 -130t-257 130t-89 375t89 374t258 129t258 -129t89 -374z" />
    <glyph glyph-name="four.superior" unicode="&#x2074;" horiz-adv-x="786" 
d="M485 1032v486h-4l-94 -136q-68 -92 -135 -190l-115 -160h348zM596 930v-254h-113v254h-460v112l421 600h152v-610h168v-102h-168z" />
    <glyph glyph-name="five.superior" unicode="&#x2075;" horiz-adv-x="811" 
d="M424 1311q135 0 221 -86t86 -237t-90.5 -242t-238.5 -91t-234 75t-86 202h119q2 -80 55 -125t146 -45t151.5 61.5t58.5 163.5t-56 161.5t-141 59.5q-169 0 -210 -145l-117 8l55 571h543v-102h-440l-31 -303h4q70 74 205 74z" />
    <glyph glyph-name="six.superior" unicode="&#x2076;" horiz-adv-x="821" 
d="M211 981q0 -100 57.5 -159.5t151.5 -59.5t152.5 62.5t58.5 160.5t-56.5 158.5t-150.5 60.5t-153.5 -61.5t-59.5 -161.5zM427 1307q150 0 236.5 -88.5t86.5 -233.5t-92 -237.5t-248 -92.5t-243 118.5t-87 364.5t92 385.5t264 139.5q129 0 209 -71.5t90 -196.5h-119
q-29 162 -182 161q-111 0 -174 -92t-70 -276h5q82 119 232 119z" />
    <glyph glyph-name="seven.superior" unicode="&#x2077;" horiz-adv-x="712" 
d="M23 1540v102h667v-104q-258 -360 -358 -862h-131q123 508 364 864h-542z" />
    <glyph glyph-name="eight.superior" unicode="&#x2078;" horiz-adv-x="817" 
d="M190 941q0 -81 60.5 -130t159 -49t158 49t59.5 130t-61.5 132t-157.5 51t-157 -51t-61 -132zM209 1392q0 -76 53.5 -121.5t145.5 -45.5t147 46t55 122t-55 119.5t-145.5 43.5t-145.5 -44t-55 -120zM727 1395q0 -141 -162 -217v-4q182 -66 183 -234q0 -125 -94.5 -205
t-244 -80t-243.5 79t-94 206q0 170 180 234v4q-162 76 -162 217q0 117 89 192.5t229 75.5t229.5 -76t89.5 -192z" />
    <glyph glyph-name="nine.superior" unicode="&#x2079;" horiz-adv-x="821" 
d="M610 1337q0 100 -57 159.5t-151 59.5t-153 -62t-59 -160t56.5 -159t151 -61t153.5 61.5t59 161.5zM387 762q111 0 174.5 92t69.5 276h-4q-83 -118 -233 -118t-236 88t-86 233t91 237.5t247 92.5t243.5 -118.5t87.5 -364.5t-92 -385.5t-264 -139.5q-129 0 -209 72t-90 197
h119q29 -162 182 -162z" />
    <glyph glyph-name="plussuperior" unicode="&#x207a;" horiz-adv-x="829" 
d="M723 1178v-97h-260v-252h-96v252h-261v97h261v254h96v-254h260z" />
    <glyph glyph-name="uni207B" unicode="&#x207b;" horiz-adv-x="829" 
d="M106 1081v97h617v-97h-617z" />
    <glyph glyph-name="equalsuperior" unicode="&#x207c;" horiz-adv-x="829" 
d="M106 967v96h617v-96h-617zM106 1196v96h617v-96h-617z" />
    <glyph glyph-name="parenleftsuperior" unicode="&#x207d;" horiz-adv-x="417" 
d="M78 1099q0 348 196 640h101q-90 -160 -132 -310.5t-42 -326.5t42 -326.5t132 -310.5h-101q-196 286 -196 634z" />
    <glyph glyph-name="parenrightsuperior" unicode="&#x207e;" horiz-adv-x="417" 
d="M340 1103q0 -349 -197 -638h-100q90 160 132 310.5t42 326.5t-42 326.5t-132 310.5h100q197 -287 197 -636z" />
    <glyph glyph-name="zero.inferior" unicode="&#x2080;" horiz-adv-x="851" 
d="M197 130q0 -194 59 -297t168 -103t168 103t59 297t-59 296t-168 102t-168 -102t-59 -296zM772 132q0 -245 -90 -375t-258 -130t-257 130t-89 375t89 374t258 129t258 -129t89 -374z" />
    <glyph glyph-name="one.inferior" unicode="&#x2081;" horiz-adv-x="507" 
d="M236 -352v712h-216v93q115 1 169 37t69 124h92v-966h-114z" />
    <glyph glyph-name="two.inferior" unicode="&#x2082;" horiz-adv-x="823" 
d="M725 365q0 -147 -131 -245q-59 -44 -177 -112t-168 -126t-50 -132h549v-102h-664q-4 10 -4 69q0 153 108 259q62 62 188 132t176 122q50 50 50 130t-50 124t-136 44q-188 0 -201 -192h-121q6 139 94 219t228 80t224 -75q85 -75 85 -195z" />
    <glyph glyph-name="three.inferior" unicode="&#x2083;" horiz-adv-x="811" 
d="M715 371q0 -85 -40 -139t-126 -89v-4q96 -35 139 -91t43 -162t-94 -182q-94 -77 -245 -77q-150 0 -238 82t-88 223h118q0 -201 213 -200q94 0 154 47q59 47 59 130t-62 130t-183 47h-37v102h37q106 0 169 46q62 46 62 125t-55 124t-150 45q-199 0 -198 -194h-119
q0 141 87 221t235 80t233 -73q86 -73 86 -191z" />
    <glyph glyph-name="four.inferior" unicode="&#x2084;" horiz-adv-x="786" 
d="M483 4v485h-4l-94 -135q-68 -92 -135 -190l-115 -160h348zM594 -98v-254h-113v254h-461v112l422 600h152v-610h168v-102h-168z" />
    <glyph glyph-name="five.inferior" unicode="&#x2085;" horiz-adv-x="811" 
d="M731 -40q0 -151 -91 -242q-90 -91 -238 -91t-234 75t-86 202h119q2 -80 55 -125t146 -45t152 61q58 61 58 163t-56 162t-141 60q-166 0 -210 -145l-117 8l55 571h543v-102h-440l-31 -303h4q68 72 204 73t222 -85t86 -237z" />
    <glyph glyph-name="six.inferior" unicode="&#x2086;" horiz-adv-x="821" 
d="M209 -46q0 -100 57 -160q58 -60 152 -60t152 62t58 160t-56 160q-56 60 -150 60t-154 -61q-59 -61 -59 -161zM425 279q151 -1 237 -89t86 -233t-92 -237t-248 -93q-156 0 -243 118q-87 119 -87 365t92 386t264 139q129 0 209 -72t90 -196h-119q-29 162 -182 161
q-111 0 -174 -92t-70 -276h5q82 119 232 119z" />
    <glyph glyph-name="seven.inferior" unicode="&#x2087;" horiz-adv-x="712" 
d="M20 512v102h668v-104q-258 -360 -358 -862h-131q123 508 364 864h-543z" />
    <glyph glyph-name="eight.inferior" unicode="&#x2088;" horiz-adv-x="817" 
d="M410 -266q98 0 157 49t59 130t-60 132q-62 51 -158 51t-156 -51q-62 -51 -62 -132t60 -130q62 -49 160 -49zM209 364q0 -76 54 -121q53 -46 145 -46t147 46t55 122q0 75 -55 119t-145 44t-146 -44q-55 -44 -55 -120zM727 367q0 -141 -162 -217v-5q182 -66 183 -233
q0 -125 -94 -205t-244 -80t-244 79t-94 206q0 170 180 233v5q-162 76 -162 217q0 117 89 193t229 75q140 0 230 -76q89 -76 89 -192z" />
    <glyph glyph-name="nine.inferior" unicode="&#x2089;" horiz-adv-x="821" 
d="M610 308q0 100 -57 160t-151 60t-153 -62t-59 -160t56 -160q56 -60 152 -60q94 0 153 61t59 161zM387 -266q111 0 174 92t70 276h-4q-83 -118 -233 -118t-236 88t-86 233t91 237t247 93q156 0 244 -118q87 -119 87 -365t-92 -385t-264 -140q-129 0 -209 72t-90 197h119
q29 -162 182 -162z" />
    <glyph glyph-name="uni208A" unicode="&#x208a;" horiz-adv-x="831" 
d="M725 150v-97h-260v-252h-96v252h-260v97h260v253h96v-253h260z" />
    <glyph glyph-name="uni208B" unicode="&#x208b;" horiz-adv-x="831" 
d="M109 53v97h616v-97h-616z" />
    <glyph glyph-name="uni208C" unicode="&#x208c;" horiz-adv-x="831" 
d="M109 -61v96h616v-96h-616zM109 168v96h616v-96h-616z" />
    <glyph glyph-name="uni208D" unicode="&#x208d;" horiz-adv-x="417" 
d="M78 72q0 349 196 639h101q-90 -160 -132 -311q-42 -150 -42 -326t42 -327t132 -310h-101q-196 286 -196 635z" />
    <glyph glyph-name="uni208E" unicode="&#x208e;" horiz-adv-x="417" 
d="M340 75q0 -349 -197 -638h-100q90 159 132 310t42 327t-42 326t-132 311h100q197 -287 197 -636z" />
    <glyph glyph-name="uni2099" unicode="&#x2099;" horiz-adv-x="837" 
d="M727 90v-442h-109v436q0 121 -45 168t-135 47t-149 -58t-60 -169v-424h-110v729h108v-92h4q33 49 93 79t133 29q132 0 201 -77t69 -226z" />
    <glyph glyph-name="franc" unicode="&#x20a3;" horiz-adv-x="1114" 
d="M362 811h637v-123h-637v-268h363v-113h-363v-307h-135v307h-178v113h178v960h815v-120h-680v-449z" />
    <glyph glyph-name="lira" unicode="&#x20a4;" horiz-adv-x="1114" 
d="M1016 115v-115h-967v115q205 0 205 278v105h-205v110h205v131h-205v109h205v133q0 209 101.5 317.5t283.5 108.5t283.5 -108.5t101.5 -301.5h-127q0 139 -67.5 213t-190.5 74t-189.5 -78t-66.5 -225v-133h260v-109h-260v-131h260v-110h-260v-105q0 -106 -22.5 -169.5
t-75.5 -104.5v-4h731z" />
    <glyph glyph-name="peseta" unicode="&#x20a7;" horiz-adv-x="1660" 
d="M961 955q0 144 -92.5 224.5t-268.5 80.5h-260v-609h260q176 0 268.5 80t92.5 224zM1382 276q0 -174 128 -172q60 0 94 9v-109q-45 -10 -95 -10q-135 0 -194.5 65.5t-59.5 214.5v660h-155q-8 -188 -136 -296t-362 -108h-262v-530h-133v1380h395q213 0 339 -90t153 -250
h161v242h127v-242h211v-106h-211v-658z" />
    <glyph glyph-name="Euro" unicode="&#x20ac;" horiz-adv-x="1114" 
d="M614 -27q-204 0 -335.5 137.5t-163.5 399.5h-113l21 108h83l-2 72q0 41 2 60h-104l21 108h90q33 268 164 408.5t339 140.5t324.5 -111.5t132.5 -320.5h-139q-12 147 -93 227t-227 80t-239.5 -108.5t-120.5 -315.5h561l-20 -108h-549l-2 -60q0 -49 2 -72h526l-22 -108
h-494q59 -412 367 -412q133 0 216 81t103 235h139q-26 -215 -144.5 -328t-322.5 -113z" />
    <glyph glyph-name="uni20B9" unicode="&#x20b9;" horiz-adv-x="1114" 
d="M233 614h-32v113h88q170 0 272.5 63.5t124.5 172.5h-629l31 110h600q-39 197 -381 197h-250l31 110h969l-31 -110h-344v-4q125 -48 145 -193h230l-31 -110h-199q-18 -117 -110 -198t-242 -110v-4q70 -31 124 -91t108 -165l192 -395h-149l-177 365q-66 135 -144.5 192
t-195.5 57z" />
    <glyph glyph-name="uni20BA" unicode="&#x20ba;" horiz-adv-x="1114" 
d="M369 -6q-68 0 -127 6v594l-195 -107v125l195 107v196l-195 -106v125l195 106v340h133v-278l344 184v-123l-344 -184v-199l344 187v-123l-344 -187v-542q260 0 400 134t140 398h138q0 -321 -177.5 -487t-506.5 -166z" />
    <glyph glyph-name="uni20BC" unicode="&#x20bc;" horiz-adv-x="1282" 
d="M575 1458h132v-244q248 -10 360.5 -143t112.5 -424v-647h-131v647q0 229 -79 328.5t-263 107.5v-1083h-132v1083q-184 -8 -263 -107t-79 -329v-647h-133v647q0 291 114 424t361 143v244z" />
    <glyph glyph-name="uni20BD" unicode="&#x20bd;" horiz-adv-x="1114" 
d="M324 686h270q158 0 241 77t83 214t-83 213t-241 76h-270v-580zM1051 976.5q0 -188.5 -118 -297t-339 -108.5h-270v-151h419v-113h-419v-307h-127v307h-170v113h170v151h-170v115h170v694h397q221 0 339 -107.5t118 -296z" />
    <glyph glyph-name="uni2105" unicode="&#x2105;" horiz-adv-x="1765" 
d="M396 739q94 -1 149 55t61 132h115q-10 -123 -95 -205q-84 -82 -230 -82t-238 102q-92 101 -92 281t92 282t240 103q148 0 230 -82q83 -82 93 -195h-115q-4 68 -59 123t-149 55t-154 -75q-60 -76 -62 -209q0 -133 60 -209t154 -76zM399 0l803 1380h133l-803 -1380h-133z
M1587 358q0 133 -62 211t-172 78t-172 -78q-63 -78 -63 -211t62 -211q62 -77 173 -77q110 0 172 78t62 210zM1702 358q0 -180 -93 -282t-256 -102t-258 102q-95 104 -96 282t95 280t259 103q163 0 256 -102q93 -101 93 -281z" />
    <glyph glyph-name="uni2113" unicode="&#x2113;" horiz-adv-x="890" 
d="M631 1016q0 289 -144 289q-66 0 -94 -60.5t-28 -224.5v-510q266 84 266 506zM365 287q-1 -195 143 -195q68 0 119 17v-109q-55 -18 -127 -18q-135 0 -198.5 73.5t-63.5 231.5v112h-9q-63 0 -112 13v90q57 -10 112 -10h9v509q0 227 58 316.5t177 89.5t186.5 -92.5
t67.5 -328.5t-96 -383.5t-266 -188.5v-127z" />
    <glyph glyph-name="uni2116" unicode="&#x2116;" horiz-adv-x="2293" 
d="M1565 238v108h628v-108h-628zM1647 872q0 -134 62.5 -212t172.5 -78t172 77.5t62 211.5t-62 212t-172 78t-172.5 -77.5t-62.5 -211.5zM2230 870q0 -180 -93 -282.5t-256 -102.5t-258 103.5t-95 282t95 281.5t257 103t256 -102.5t94 -282.5zM340 0h-133v1458h203
l594 -1014q119 -209 180 -311h4q-2 244 -2 729v596h133v-1458h-203l-594 1014q-119 209 -180 311h-4l2 -729v-596z" />
    <glyph glyph-name="uni2117" unicode="&#x2117;" horiz-adv-x="1667" 
d="M887 719q237 0 237 182q0 92 -61.5 139t-175.5 47h-201v-368h201zM1257 902q0 -144 -96 -223t-272 -79h-203v-375h-129v979h332q178 0 273 -79t95 -223zM186 729q0 -199 81 -348.5t227.5 -232t339 -82.5t339 82.5t227.5 233t81 347.5t-81 347.5t-227.5 233.5t-339 83
t-339 -83t-227.5 -232.5t-81 -348.5zM1567 729q0 -223 -91.5 -393t-258 -264.5t-384 -94.5t-383 94.5t-258 264.5t-92.5 393t92.5 393t258 264.5t383 94.5t384 -94.5t258 -264.5t91.5 -393z" />
    <glyph glyph-name="trademark" unicode="&#x2122;" horiz-adv-x="1611" 
d="M1405 729v612h-4q-8 -20 -45 -127l-182 -485h-117l-133 356q-73 200 -93 256h-4l2 -258v-354h-104v729h168l121 -336q35 -92 100 -276h4l223 612h166v-729h-102zM362 1364v-635h-104v635h-248v94h600v-94h-248z" />
    <glyph glyph-name="Omega" unicode="&#x2126;" horiz-adv-x="1486" 
d="M1380 838q0 -205 -90 -374t-256 -339v-4h369v-121h-518v125q174 178 265 341t91 363q0 259 -135 395q-136 136 -362 136t-361 -135t-135 -396q0 -203 91 -365t263 -339v-125h-518v121h369v4q-166 170 -256 339t-91 374q0 317 174 482t464 165t463 -165t173 -482z" />
    <glyph glyph-name="estimated" unicode="&#x212e;" horiz-adv-x="1759" 
d="M387 1079v-340q0 -27 27 -26h929q27 0 27 26v340q0 55 -31 84q-193 190 -462 190t-459 -190q-31 -31 -31 -84zM1663 668h-1249q-12 0 -19.5 -7.5t-7.5 -17.5v-340q0 -64 31 -90q190 -186 463 -186q147 0 276 61.5t211 161.5h141q-82 -113 -241.5 -194t-389.5 -81
t-408.5 91.5t-276 253t-97.5 366.5t95.5 369t272.5 258t416.5 94t417 -100.5t271.5 -269.5t94 -369z" />
    <glyph glyph-name="oneeighth" unicode="&#x215b;" horiz-adv-x="1466" 
d="M203 553v596h-185v94q98 0 147 32q48 32 60 105h92v-827h-114zM133 0l803 1380h133l-803 -1380h-133zM930 229q0 -65 49 -103t130 -38t130 38t49 104t-49 105q-49 40 -129 40t-130 -40t-50 -106zM944 612q0 -60 45 -98q45 -37 121 -37t120 37t44 97q0 61 -45 95t-120 34
t-120 -34t-45 -94zM813 227q0 145 148 201v2q-133 62 -133 174t78 177q79 65 203 65t203 -66t79 -166q0 -121 -134 -184v-2q148 -55 148 -201q0 -109 -82 -177t-214 -68t-214 68t-82 177z" />
    <glyph glyph-name="threeeighths" unicode="&#x215c;" horiz-adv-x="1726" 
d="M346 1292q-166 0 -166 -155h-117q0 123 77 193t207 68q130 0 204 -61t74 -166q0 -71 -31 -115t-105 -77v-4q80 -33 115 -81t35 -138t-81 -156t-214 -66t-211 72q-78 70 -78 197h117q0 -162 176 -162q78 0 125 36q47 37 47 103t-53 104t-154 38h-26v102h26q88 0 141 38
q52 38 52 99t-42 96t-118 35zM391 0l803 1380h133l-803 -1380h-133zM1188 229q0 -65 49 -103t130 -38t130 38t49 104t-49 105q-49 40 -129 40t-130 -40t-50 -106zM1202 612q0 -60 45 -98q45 -37 121 -37t120 37t44 97q0 61 -45 95t-120 34t-120 -34t-45 -94zM1071 227
q0 145 148 201v2q-133 62 -133 174t78 177q79 65 203 65t203 -66t79 -166q0 -121 -133 -184v-2q147 -55 147 -201q0 -109 -82 -177t-214 -68t-214 68t-82 177z" />
    <glyph glyph-name="fiveeighths" unicode="&#x215d;" horiz-adv-x="1728" 
d="M643 820q0 -130 -80 -208t-210 -78t-207 66q-77 64 -76 174h116q2 -63 47 -98t120 -35t123 49t48 131t-45 128t-123 46q-134 0 -163 -112l-115 6l45 491h479v-104h-375l-22 -232h2q52 56 168 57q117 1 193 -75t75 -206zM393 0l803 1380h133l-803 -1380h-133zM1190 229
q0 -65 49 -103t130 -38t130 38t49 104t-49 105q-49 40 -129 40t-130 -40t-50 -106zM1204 612q0 -60 45 -98q45 -37 121 -37t120 37t44 97q0 61 -45 95t-120 34t-120 -34t-45 -94zM1073 227q0 145 148 201v2q-133 62 -133 174t78 177q79 65 203 65t203 -66t79 -166
q0 -121 -133 -184v-2q147 -55 147 -201q0 -109 -82 -177t-214 -68t-214 68t-82 177z" />
    <glyph glyph-name="seveneighths" unicode="&#x215e;" horiz-adv-x="1536" 
d="M18 1276v104h582v-104q-98 -132 -179 -322t-124 -401h-123q109 447 301 723h-457zM201 0l803 1380h133l-803 -1380h-133zM1177 88q81 0 130 38t49 104t-49 105q-49 40 -129 40t-130 -40t-50 -106q0 -65 48 -103q50 -38 131 -38zM1012 612q0 -60 45 -98q45 -37 121 -37
t120 37t43 97q0 61 -45 95q-46 34 -120 34t-119 -34t-45 -94zM881 227q0 145 147 201v2q-133 62 -133 174t79 177q78 65 202 65t203 -66t79 -166q0 -121 -133 -184v-2q148 -55 148 -201q0 -109 -82 -177t-214 -68t-214 68t-82 177z" />
    <glyph glyph-name="Sevenroman" unicode="&#x2166;" horiz-adv-x="2316" 
d="M543 0l-529 1458h142l475 -1329h4l225 639l248 690h141l-526 -1458h-180zM1430 0v1458h133v-1458h-133zM1976 0v1458h133v-1458h-133z" />
    <glyph glyph-name="partialdiff" unicode="&#x2202;" horiz-adv-x="1206" 
d="M240 422q0 -142 80.5 -234t236.5 -92t246 116t90 282t-86 264t-234 98q-100 0 -175.5 -53t-116.5 -146t-41 -235zM1065 766q0 -268 -68.5 -446.5t-183.5 -262.5t-258 -84q-215 0 -335 130t-120 348q0 147 56.5 268t162 190.5t243.5 69.5t228.5 -58.5t131.5 -148.5h4
q2 23 2 68q0 156 -46 274.5t-131 183t-198 64.5q-229 0 -262 -236h-139q18 166 117.5 262.5t281.5 96.5q246 0 380 -183.5t134 -535.5z" />
    <glyph glyph-name="Delta" unicode="&#x2206;" horiz-adv-x="1359" 
d="M1157 121l-475 1229h-4l-475 -1229h954zM12 0l578 1458h182l576 -1458h-1336z" />
    <glyph glyph-name="product" unicode="&#x220f;" horiz-adv-x="1335" 
d="M995 -246v1583h-655v-1583h-133v1704h921v-1704h-133z" />
    <glyph glyph-name="summation" unicode="&#x2211;" horiz-adv-x="964" 
d="M893 -127v-119h-821v119l442 725l-442 741v119h821v-119h-674l438 -741l-438 -725h674z" />
    <glyph glyph-name="minus" unicode="&#x2212;" horiz-adv-x="1159" 
d="M152 590v117h856v-117h-856z" />
    <glyph glyph-name="uni2215" unicode="&#x2215;" horiz-adv-x="905" 
d="M61 -182l609 1708h131l-608 -1708h-132z" />
    <glyph glyph-name="uni2219" unicode="&#x2219;" horiz-adv-x="686" 
d="M254 532v187h176v-187h-176z" />
    <glyph glyph-name="radical" unicode="&#x221a;" horiz-adv-x="1107" 
d="M51 614v107h252l199 -832h4l446 1569h115l-487 -1704h-158l-205 860h-166z" />
    <glyph glyph-name="infinity" unicode="&#x221e;" horiz-adv-x="1241" 
d="M1094 631q0 84 -43 131t-120 47t-131.5 -45t-115.5 -133q61 -88 115.5 -133t131.5 -45t120 47t43 131zM311.5 809q-75.5 0 -120 -47t-44.5 -131t44.5 -131t120 -47t130 45t115.5 133q-61 88 -115.5 133t-130 45zM1210 631q0 -131 -75 -212t-187 -81t-185 53t-142 148
q-70 -94 -142.5 -147.5t-185.5 -53.5t-187.5 81t-74.5 212t74.5 212t186.5 81t185.5 -53.5t143.5 -147.5q70 94 142.5 147.5t184.5 53.5t187 -81t75 -212z" />
    <glyph glyph-name="integral" unicode="&#x222b;" horiz-adv-x="604" 
d="M496 1358q-58 0 -94.5 -43t-36.5 -141v-1280q0 -281 -254 -281q-45 0 -86 8v109q25 -8 82 -8t94 42.5t37 141.5v1280q0 281 256 280q41 0 86 -8v-108q-26 8 -84 8z" />
    <glyph glyph-name="approxequal" unicode="&#x2248;" horiz-adv-x="1159" 
d="M789 420q52 0 87 46t35 124h109q0 -127 -65.5 -206t-174.5 -79q-68 0 -119 28.5t-109 78.5t-94 71t-88 21t-87 -46t-35 -126h-109q0 127 65.5 205.5t174.5 78.5q67 0 117.5 -27.5t110.5 -77.5t95 -70.5t87 -20.5zM789 795q52 0 87 46t35 126h109q0 -127 -65.5 -206
t-174.5 -79q-66 0 -117 28t-108 76t-95 70.5t-90 22.5t-87 -46.5t-35 -123.5h-109q0 127 65.5 205.5t174.5 78.5q67 0 117.5 -27.5t111.5 -78.5t95 -71.5t86 -20.5z" />
    <glyph glyph-name="notequal" unicode="&#x2260;" horiz-adv-x="1159" 
d="M1008 549v-115h-504l-180 -270h-129l178 270h-221v115h297l133 199h-430v114h505l179 271h131l-181 -271h222v-114h-297l-131 -199h428z" />
    <glyph glyph-name="lessequal" unicode="&#x2264;" horiz-adv-x="1159" 
d="M1008 0h-856v115h856v-115zM272 655v-4l736 -307v-127l-856 358v154l856 358v-124z" />
    <glyph glyph-name="greaterequal" unicode="&#x2265;" horiz-adv-x="1159" 
d="M152 0v115h856v-115h-856zM1008 575l-856 -358v127l735 307v4l-735 308v124l856 -358v-154z" />
    <glyph glyph-name="lozenge" unicode="&#x25ca;" horiz-adv-x="1175" 
d="M588 94l370 635l-370 635l-373 -635zM670 0h-164l-424 729l424 729h164l424 -729z" />
    <glyph glyph-name="uniF8FF" unicode="&#xf8ff;" horiz-adv-x="1257" 
d="M508 133v166h158v-166h-158zM958 1026q0 -90 -32 -150t-118 -132q-85 -72 -114 -111t-39 -89t-10 -147h-117v52q0 161 61 244q34 46 103 110q82 72 105 115q23 44 23 118t-54 121t-152 47t-155 -56t-64 -163h-129q8 166 100 252t248 86t250 -82t94 -215zM131 1329v-1200
q0 -82 48 -130t130 -48h639q82 0 130 48t48 130v1200q0 82 -48 130t-130 48h-639q-82 0 -130 -48t-48 -130zM1210 129q0 -121 -70 -191t-192 -71h-639q-121 0 -191 71t-71 191v1200q0 121 71 192t191 70h639q121 1 192 -70t70 -192v-1200z" />
    <glyph glyph-name="ff" unicode="&#xfb00;" horiz-adv-x="1107" 
d="M864 1174v-134h209v-106h-209v-934h-127v934h-393v-934h-127v934h-186v106h186v146q0 281 256 280q41 0 86 -8v-108q-29 8 -65 8q-76 0 -113 -43t-37 -141v-134h393v146q0 281 256 280q43 0 84 -8v-108q-29 8 -63 8q-76 0 -113 -43t-37 -141z" />
    <glyph glyph-name="fi" unicode="&#xfb01;" horiz-adv-x="1056" 
d="M885 1040v-1040h-127v1040h127zM885 1278h-127v180h127v-180zM473 1466q41 0 86 -8v-108q-29 8 -65 8q-76 0 -113 -43t-37 -141v-134h211v-106h-211v-934h-127v934h-186v106h186v146q0 280 256 280z" />
    <glyph glyph-name="fl" unicode="&#xfb02;" horiz-adv-x="1056" 
d="M344 1174v-134h211v-106h-211v-934h-127v934h-186v106h186v146q0 281 256 280q41 0 86 -8v-108q-29 8 -65 8q-76 0 -113 -43t-37 -141zM758 0v1458h127v-1458h-127z" />
    <glyph glyph-name="ffi" unicode="&#xfb03;" horiz-adv-x="1574" 
d="M1405 1040v-1040h-127v1040h127zM1405 1278h-127v180h127v-180zM993 1466q43 0 84 -8v-108q-29 8 -63 8q-76 0 -113 -43t-37 -141v-134h209v-106h-209v-934h-127v934h-393v-934h-127v934h-186v106h186v146q0 281 256 280q41 0 86 -8v-108q-29 8 -65 8q-76 0 -113 -43
t-37 -141v-134h393v146q0 280 256 280z" />
    <glyph glyph-name="ffl" unicode="&#xfb04;" horiz-adv-x="1574" 
d="M1405 0h-127v1458h127v-1458zM993 1466q43 0 84 -8v-108q-29 8 -63 8q-76 0 -113 -43t-37 -141v-134h209v-106h-209v-934h-127v934h-393v-934h-127v934h-186v106h186v146q0 281 256 280q41 0 86 -8v-108q-29 8 -65 8q-76 0 -113 -43t-37 -141v-134h393v146q0 280 256 280
z" />
    <glyph glyph-name="uniFEFF" unicode="&#xfeff;" horiz-adv-x="0" 
 />
    <glyph glyph-name="J.acute.loclNLD" horiz-adv-x="690" 
d="M115 117q245 0 245 282v1059h136v-1063q0 -200 -98.5 -301.5t-280.5 -101.5q-49 0 -86 10v123q43 -8 84 -8zM309 1587l185 289h172l-236 -289h-121z" />
    <glyph glyph-name="Ccedilla.ss01" horiz-adv-x="1398" 
d="M734 1360q-165 0 -274.5 -76t-168 -218t-58.5 -336.5t58.5 -337t167 -218.5t271.5 -76t281.5 107.5t143.5 290.5h139q-16 -158 -90 -276t-199.5 -182.5t-302.5 -64.5t-317.5 91.5t-216.5 261.5t-76 403.5t76 403.5t217 261t321.5 91t306.5 -66.5t195.5 -183.5t77.5 -264
h-139q-16 178 -132 283.5t-281 105.5zM416 -426l254 326h123l-207 -326h-170z" />
    <glyph glyph-name="Scedilla.ss01" horiz-adv-x="1226" 
d="M1085 1006h-135q0 358 -372 358q-154 0 -238 -70.5t-84 -193.5q0 -156 156 -220q76 -32 227.5 -69t251.5 -80q221 -95 221 -342q0 -190 -134 -303t-374 -113t-376 131.5t-136 380.5h133q0 -199 102.5 -294t282.5 -95t273.5 76t93.5 215q0 88 -42 140.5t-121 84
t-232.5 70.5t-251.5 82q-210 92 -209 331q-1 239 211 341q104 50 246 49q251 0 379 -121t128 -358zM326 -426l254 326h122l-206 -326h-170z" />
    <glyph glyph-name="uni0162.ss01" horiz-adv-x="1212" 
d="M672 1337v-1337h-133v1337h-519v121h1172v-121h-520zM317 -426l254 326h123l-207 -326h-170z" />
    <glyph glyph-name="i.loclTRK" horiz-adv-x="466" 
d="M170 0v1040h127v-1040h-127zM170 1278v180h127v-180h-127z" />
    <glyph glyph-name="j.acute.loclNLD" horiz-adv-x="481" 
d="M39 -387q-39 0 -74 8v111q33 -6 62 -6q78 0 117.5 46t39.5 154v1114h127v-1116q0 -311 -272 -311zM129 1169l184 289h172l-235 -289h-121z" />
    <glyph glyph-name="ccedilla.ss01" horiz-adv-x="1067" 
d="M561 956q-156 0 -245 -116.5t-89 -320.5t89.5 -319.5t244.5 -115.5q117 0 198 83t91 204h133q-10 -113 -64.5 -203t-146.5 -142.5t-211 -52.5q-219 0 -345 146.5t-126 400.5t126 400.5t345 146.5q176 0 292 -106.5t130 -278.5h-133q-10 121 -90 197.5t-199 76.5z
M272 -426l254 326h123l-207 -326h-170z" />
    <glyph glyph-name="scedilla.ss01" horiz-adv-x="980" 
d="M735 711q0 117 -69.5 181t-185 64t-180 -47t-64.5 -116.5t26.5 -102.5t74.5 -49t172 -45t199.5 -56.5t130 -90t54.5 -185.5t-106.5 -207t-293 -84t-297 98.5t-112.5 278.5h129q0 -127 76 -196.5t204 -69.5t200.5 51t72.5 126t-30.5 112t-90 57.5t-184.5 50t-191.5 54
t-113.5 82t-47 157.5q0 131 101 212t273 81t274.5 -93t104.5 -263h-127zM215 -426l254 326h123l-207 -326h-170z" />
    <glyph glyph-name="uni0163.ss01" horiz-adv-x="618" 
d="M338 276q0 -174 128 -172q60 0 93 9v-109q-45 -10 -94 -10q-135 0 -194.5 65.5t-59.5 214.5v660h-186v106h186v242h127v-242h211v-106h-211v-658zM57 -426l254 326h123l-207 -326h-170z" />
    <glyph glyph-name="a.sups" horiz-adv-x="784" 
d="M170 880q0 -58 43 -93t107 -35q122 0 178 57q39 39 53 76t14 104v47q-279 -18 -337 -58t-58 -98zM565 1155q0 178 -182 178q-86 0 -133 -40t-51 -107h-115q6 104 85 170.5t215 66.5t212 -70.5t76 -211.5v-279q0 -109 18 -186h-100q-10 57 -10 108h-5q-78 -123 -264 -122
q-117 0 -187.5 59t-70.5 153.5t83 161.5t429 90v29z" />
    <glyph glyph-name="b.sups" horiz-adv-x="841" 
d="M221 1042.5q0 -131.5 60.5 -211t161 -79.5t161 79.5t60.5 211t-60.5 211t-161 79.5t-161 -79.5t-60.5 -211zM461 1425q145 0 231 -104t86 -278.5t-86 -279t-231 -104.5q-76 0 -137.5 34t-92.5 87h-4v-104h-108v1020h110v-391h4q29 53 90.5 86.5t137.5 33.5z" />
    <glyph glyph-name="c.sups" horiz-adv-x="778" 
d="M398 1325q-94 0 -155 -75.5t-61 -209t60 -209t154 -75.5t149 55t61 131h115q-10 -123 -94.5 -205t-230.5 -82t-238 102.5t-92 281.5t92 281.5t240 102.5t230.5 -81.5t92.5 -194.5h-115q-4 68 -59 123t-149 55z" />
    <glyph glyph-name="d.sups" horiz-adv-x="841" 
d="M178 1042.5q0 -131.5 61.5 -211t160.5 -79.5t160 79.5t61 211t-60.5 211t-160.5 79.5t-161 -79.5t-61 -211zM723 676h-109v104h-4q-29 -53 -91 -87t-136 -34q-145 0 -231 104.5t-86 279t86 278.5t229 104q76 0 137.5 -33.5t91.5 -86.5h4v391h109v-1020z" />
    <glyph glyph-name="e.sups" horiz-adv-x="804" 
d="M405.5 1331q-96.5 0 -159 -60.5t-70.5 -168.5h457q-8 109 -69.5 169t-158 60zM400.5 655q-150.5 0 -242.5 107.5t-92 281t91 276.5t234.5 103t227 -68.5t110.5 -189.5q12 -61 12 -149h-565q4 -132 68 -200t158 -68q180 0 221 145h112q-18 -100 -101 -169t-233.5 -69z" />
    <glyph glyph-name="egrave.sups" horiz-adv-x="804" 
d="M405.5 1331q-96.5 0 -159 -60.5t-70.5 -168.5h457q-8 109 -69.5 169t-158 60zM400.5 655q-150.5 0 -242.5 107.5t-92 275t77.5 268.5t216.5 115l-178 191h158l137 -195q98 -16 164 -81.5t83 -148.5t17 -171h-565q4 -132 68 -200t158 -68q180 0 221 145h112
q-18 -100 -101 -169t-233.5 -69z" />
    <glyph glyph-name="f.sups" horiz-adv-x="438" 
d="M264 1487v-82h150v-92h-150v-637h-110v637h-131v92h131v96q0 201 196 201q37 0 66 -8v-88q-20 6 -60 6q-92 0 -92 -125z" />
    <glyph glyph-name="g.sups" horiz-adv-x="841" 
d="M178 1057q0 -123 58.5 -199t159.5 -76t161.5 73t60.5 202t-60 202.5t-162 73.5t-160 -76.5t-58 -199.5zM207 631q3 -142 201 -142q204 0 204 236v80h-4q-77 -115 -223 -115q-145 0 -232 100.5t-87 266.5t87 266t234 100t223 -114h4v96h109v-684q0 -322 -328 -322
q-139 0 -218 61.5t-79 170.5h109z" />
    <glyph glyph-name="h.sups" horiz-adv-x="837" 
d="M457 1421q270 0 270 -303v-442h-109v436q0 121 -45 168t-135 47t-149.5 -58.5t-59.5 -168.5v-424h-110v1020h110v-381h4q74 106 224 106z" />
    <glyph glyph-name="i.sups" horiz-adv-x="348" 
d="M119 676v729h110v-729h-110zM119 1565v131h110v-131h-110z" />
    <glyph glyph-name="j.sups" horiz-adv-x="360" 
d="M25 502q106 0 106 108v795h109v-797q0 -106 -53.5 -155.5t-149.5 -49.5q-29 0 -62 7v96q18 -4 50 -4zM131 1565v131h109v-131h-109z" />
    <glyph glyph-name="k.sups" horiz-adv-x="722" 
d="M229 1049v-373h-110v1020h110v-592h4l310 301h147l-348 -326l391 -403h-151l-349 373h-4z" />
    <glyph glyph-name="l.sups" horiz-adv-x="348" 
d="M119 676v1020h110v-1020h-110z" />
    <glyph glyph-name="m.sups" horiz-adv-x="1257" 
d="M578 1139q0 188 -164 188q-82 0 -133.5 -65.5t-51.5 -171.5v-414h-110v729h108v-88h4q84 104 203 104q76 0 135.5 -36.5t89.5 -104.5q76 141 236 141q123 0 187.5 -74.5t64.5 -220.5v-450h-111v442q0 117 -39 163t-123 46t-135 -63.5t-51 -167.5v-420h-110v463z" />
    <glyph glyph-name="n.sups" horiz-adv-x="839" 
d="M457 1421q270 0 270 -303v-442h-109v436q0 121 -45 168t-135 47t-149.5 -58.5t-59.5 -168.5v-424h-110v729h108v-92h4q33 49 93.5 78.5t132.5 29.5z" />
    <glyph glyph-name="o.sups" horiz-adv-x="829" 
d="M182 1040.5q0 -133.5 62.5 -211t172.5 -77.5t172 77.5t62 211t-62.5 211t-172.5 77.5t-172 -77.5t-62 -211zM766 1040q0 -180 -93 -282.5t-256 -102.5t-258.5 103.5t-95.5 282t95.5 280.5t258.5 102t256 -101.5t93 -281.5z" />
    <glyph glyph-name="p.sups" horiz-adv-x="841" 
d="M221 1042.5q0 -131.5 60.5 -211t161 -79.5t161 79.5t60.5 211t-60.5 211t-161 79.5t-161 -79.5t-60.5 -211zM778 1042.5q0 -174.5 -86 -279t-231 -104.5q-76 0 -137.5 34t-90.5 87h-4v-368h-110v993h108v-102h4q31 53 92.5 87.5t137.5 34.5q145 0 231 -104t86 -278.5z
" />
    <glyph glyph-name="q.sups" horiz-adv-x="841" 
d="M178 1042.5q0 -131.5 61.5 -211t160.5 -79.5t160 79.5t61 211t-60.5 211t-160.5 79.5t-161 -79.5t-61 -211zM614 1303v102h109v-993h-109v368h-4q-31 -53 -92 -87t-137 -34q-143 0 -229 104.5t-86 279t86 278.5t231 104q74 0 136.5 -34.5t90.5 -87.5h4z" />
    <glyph glyph-name="r.sups" horiz-adv-x="524" 
d="M457 1307q-111 0 -169.5 -69t-58.5 -189v-373h-110v729h108v-113h4q80 119 224 119q22 0 51 -4v-104q-25 4 -49 4z" />
    <glyph glyph-name="s.sups" horiz-adv-x="718" 
d="M524 1176q0 76 -47 115.5t-126 39.5t-122 -28.5t-43 -73.5t18.5 -65.5t51.5 -31t121 -29.5t142 -39t96 -66t42 -135t-77.5 -148.5t-215.5 -59.5t-219.5 69t-85.5 196h111q0 -82 52 -126t140 -44t137.5 31.5t49.5 78.5t-20.5 71.5t-73 42t-215 55.5t-162.5 185
q0 94 73.5 151.5t201.5 57.5t204 -64.5t78 -182.5h-111z" />
    <glyph glyph-name="t.sups" horiz-adv-x="456" 
d="M258 879q0 -113 86 -113q39 0 70 6v-94q-27 -6 -70 -6q-104 0 -150.5 47t-46.5 155v439h-131v92h131v170h111v-170h150v-92h-150v-434z" />
    <glyph glyph-name="u.sups" horiz-adv-x="837" 
d="M111 963v442h110v-436q0 -121 45 -168t134 -47t149.5 59t60.5 168v424h109v-729h-109v92h-4q-33 -49 -93 -79t-132 -30q-133 0 -201.5 77t-68.5 227z" />
    <glyph glyph-name="v.sups" horiz-adv-x="677" 
d="M268 676l-276 729h119l227 -623h4l225 623h119l-274 -729h-144z" />
    <glyph glyph-name="w.sups" horiz-adv-x="1114" 
d="M737 676l-88 315q-41 135 -59 205l-31 109h-4q-49 -184 -90 -314l-88 -315h-156l-209 729h113l174 -631h4l174 631h162l133 -485q25 -98 39 -146h4l176 631h113l-209 -729h-158z" />
    <glyph glyph-name="x.sups" horiz-adv-x="702" 
d="M702 676h-135l-215 301h-4l-215 -301h-133l287 383l-260 346h133l188 -270h4l191 270h131l-258 -346z" />
    <glyph glyph-name="y.sups" horiz-adv-x="690" 
d="M116 406q-54 0 -79 6v96q25 -6 67 -6t74.5 14t57 50t53.5 110l-295 729h119l233 -594h4l230 594h116l-307 -768q-39 -92 -78 -141.5t-90 -69.5t-105 -20z" />
    <glyph glyph-name="z.sups" horiz-adv-x="684" 
d="M174 770h475v-94h-612v98l459 533v4h-445v94h584v-98l-461 -533v-4z" />
    <glyph glyph-name="a.smcp" horiz-adv-x="1134" 
d="M752 563q-125 307 -183 451h-4q-57 -143 -182 -451l-41 -102h451zM293 340l-137 -340h-144l465 1122h180l465 -1122h-143l-137 340h-549z" />
    <glyph glyph-name="aacute.smcp" horiz-adv-x="1134" 
d="M752 563q-125 307 -183 451h-4q-57 -143 -182 -451l-41 -102h451zM293 340l-137 -340h-144l465 1122h180l465 -1122h-143l-137 340h-549zM449 1251l184 289h172l-236 -289h-120z" />
    <glyph glyph-name="abreve.smcp" horiz-adv-x="1134" 
d="M752 563q-125 307 -183 451h-4q-57 -143 -182 -451l-41 -102h451zM293 340l-137 -340h-144l465 1122h180l465 -1122h-143l-137 340h-549zM567 1358q167 0 195 182h104q-12 -135 -90 -210t-209 -75t-208.5 75t-90.5 210h105q12 -88 62 -135t132 -47z" />
    <glyph glyph-name="acircumflex.smcp" horiz-adv-x="1134" 
d="M752 563q-125 307 -183 451h-4q-57 -143 -182 -451l-41 -102h451zM293 340l-137 -340h-144l465 1122h180l465 -1122h-143l-137 340h-549zM567 1458l-166 -207h-141l234 289h145l233 -289h-141z" />
    <glyph glyph-name="adieresis.smcp" horiz-adv-x="1134" 
d="M752 563q-125 307 -183 451h-4q-57 -143 -182 -451l-41 -102h451zM293 340l-137 -340h-144l465 1122h180l465 -1122h-143l-137 340h-549zM692 1360v180h125v-180h-125zM315 1360v180h125v-180h-125z" />
    <glyph glyph-name="agrave.smcp" horiz-adv-x="1134" 
d="M752 563q-125 307 -183 451h-4q-57 -143 -182 -451l-41 -102h451zM293 340l-137 -340h-144l465 1122h180l465 -1122h-143l-137 340h-549zM686 1251h-121l-235 289h172z" />
    <glyph glyph-name="amacron.smcp" horiz-adv-x="1134" 
d="M752 563q-125 307 -183 451h-4q-57 -143 -182 -451l-41 -102h451zM293 340l-137 -340h-144l465 1122h180l465 -1122h-143l-137 340h-549zM297 1360v106h539v-106h-539z" />
    <glyph glyph-name="aogonek.smcp" horiz-adv-x="1134" 
d="M752 563q-125 307 -183 451h-4q-57 -143 -182 -451l-41 -102h451zM958 -225q0 -76 89 -76q44 0 81 14v-90q-39 -16 -116.5 -16t-124.5 40t-47 109.5t37.5 123.5t121.5 120h-20l-137 340h-549l-137 -340h-144l465 1122h180l465 -1122q-92 -70 -128 -121t-36 -104z" />
    <glyph glyph-name="aring.smcp" horiz-adv-x="1134" 
d="M752 563q-125 307 -183 451h-4q-57 -143 -182 -451l-41 -102h451zM293 340l-137 -340h-144l465 1122h180l465 -1122h-143l-137 340h-549zM444 1448q0 -51 36 -87t87 -36t86 36t35 87t-35 86t-86 35t-87 -35t-36 -86zM764 1448q0 -82 -57.5 -140.5t-139.5 -58.5t-140 58.5
t-58 140.5t58 140.5t140 58.5t139.5 -58.5t57.5 -140.5z" />
    <glyph glyph-name="atilde.smcp" horiz-adv-x="1134" 
d="M752 563q-125 307 -183 451h-4q-57 -143 -182 -451l-41 -102h451zM293 340l-137 -340h-144l465 1122h180l465 -1122h-143l-137 340h-549zM713 1411q86 0 94 111h98q-6 -105 -56 -160t-125 -55t-144.5 42t-98 54t-57.5 12q-86 0 -94 -108h-99q6 104 56.5 159.5t134.5 55.5
q41 0 75.5 -14.5t87 -44.5t77 -41t51.5 -11z" />
    <glyph glyph-name="ae.smcp" horiz-adv-x="1579" 
d="M690 1001h-26l-271 -516h381zM1470 0h-618l-59 365h-463l-191 -365h-149l588 1122h874v-121h-625l60 -364h532v-121h-512l64 -395h499v-121z" />
    <glyph glyph-name="b.smcp" horiz-adv-x="1099" 
d="M573 117q273 1 273 199t-299 198h-230v-397h256zM553 1008h-236v-379h230q281 0 280 186q0 193 -274 193zM963 831q0 -90 -49.5 -155.5t-141.5 -97.5v-5q98 -27 155.5 -96t57.5 -164q0 -143 -103.5 -228t-287.5 -85h-410v1122h383q195 0 295.5 -78.5t100.5 -212.5z" />
    <glyph glyph-name="c.smcp" horiz-adv-x="1181" 
d="M600 1024q-176 0 -276.5 -123t-100.5 -340t99.5 -340t275.5 -123q137 0 229.5 77t112.5 210h141q-18 -188 -147 -300t-352.5 -112t-360.5 157t-137 431.5t137 431t363.5 156.5t353.5 -110.5t137 -290.5h-141q-12 129 -103.5 202.5t-230.5 73.5z" />
    <glyph glyph-name="cacute.smcp" horiz-adv-x="1181" 
d="M600 1024q-176 0 -276.5 -123t-100.5 -340t99.5 -340t275.5 -123q137 0 229.5 77t112.5 210h141q-18 -188 -147 -300t-352.5 -112t-360.5 157t-137 431.5t137 431t363.5 156.5t353.5 -110.5t137 -290.5h-141q-12 129 -103.5 202.5t-230.5 73.5zM481 1251l185 289h172
l-236 -289h-121z" />
    <glyph glyph-name="ccaron.smcp" horiz-adv-x="1181" 
d="M600 1024q-176 0 -276.5 -123t-100.5 -340t99.5 -340t275.5 -123q137 0 229.5 77t112.5 210h141q-18 -188 -147 -300t-352.5 -112t-360.5 157t-137 431.5t137 431t363.5 156.5t353.5 -110.5t137 -290.5h-141q-12 129 -103.5 202.5t-230.5 73.5zM526 1251l-233 289h141
l166 -207l164 207h141l-233 -289h-146z" />
    <glyph glyph-name="ccedilla.smcp" horiz-adv-x="1181" 
d="M647 -125q68 0 114 -40t46 -110.5t-55.5 -120.5t-162 -50t-202.5 55l31 65q76 -41 148 -41q134 0 134 91q0 41 -30.5 64.5t-73.5 23.5t-74 -11l-33 37l91 135q-231 6 -363.5 162t-132.5 428t137 429t363.5 157t353.5 -110.5t137 -290.5h-141q-12 129 -103.5 202.5
t-230.5 73.5q-176 0 -276.5 -123t-100.5 -340t99.5 -340t275.5 -123q137 0 229.5 77t112.5 210h141q-16 -172 -124.5 -279.5t-284.5 -128.5l-72 -106q20 4 47 4z" />
    <glyph glyph-name="ccircumflex.smcp" horiz-adv-x="1181" 
d="M600 1024q-176 0 -276.5 -123t-100.5 -340t99.5 -340t275.5 -123q137 0 229.5 77t112.5 210h141q-18 -188 -147 -300t-352.5 -112t-360.5 157t-137 431.5t137 431t363.5 156.5t353.5 -110.5t137 -290.5h-141q-12 129 -103.5 202.5t-230.5 73.5zM600 1458l-166 -207h-141
l233 289h146l233 -289h-141z" />
    <glyph glyph-name="cdotaccent.smcp" horiz-adv-x="1181" 
d="M600 1024q-176 0 -276.5 -123t-100.5 -340t99.5 -340t275.5 -123q137 0 229.5 77t112.5 210h141q-18 -188 -147 -300t-352.5 -112t-360.5 157t-137 431.5t137 431t363.5 156.5t353.5 -110.5t137 -290.5h-141q-12 129 -103.5 202.5t-230.5 73.5zM535 1360v180h127v-180
h-127z" />
    <glyph glyph-name="d.smcp" horiz-adv-x="1236" 
d="M317 121h222q227 0 350 113.5t123 326.5t-123 326.5t-350 113.5h-222v-880zM1153 561q0 -270 -159.5 -415.5t-454.5 -145.5h-355v1122h355q295 0 454.5 -145.5t159.5 -415.5z" />
    <glyph glyph-name="eth.smcp" horiz-adv-x="1239" 
d="M1016 561q0 213 -124 326.5t-351 113.5h-222v-378h338v-109h-338v-393h222q227 0 351 113.5t124 326.5zM1155 561q0 -270 -159.5 -415.5t-454.5 -145.5h-355v514h-131v109h131v499h355q295 0 454.5 -145.5t159.5 -415.5z" />
    <glyph glyph-name="dcaron.smcp" horiz-adv-x="1236" 
d="M317 121h222q227 0 350 113.5t123 326.5t-123 326.5t-350 113.5h-222v-880zM1153 561q0 -270 -159.5 -415.5t-454.5 -145.5h-355v1122h355q295 0 454.5 -145.5t159.5 -415.5zM496 1251l-234 289h141l166 -207l164 207h141l-233 -289h-145z" />
    <glyph glyph-name="dcroat.smcp" horiz-adv-x="1239" 
d="M1016 561q0 213 -124 327t-351 113h-222v-378h338v-109h-338v-393h222q227 -1 351 113t124 327zM1155 562q0 -270 -160 -416t-454 -146h-355v514h-131v109h131v499h355q294 0 454 -145t160 -415z" />
    <glyph glyph-name="e.smcp" horiz-adv-x="1064" 
d="M319 1001v-364h594v-121h-594v-395h646v-121h-779v1122h762v-121h-629z" />
    <glyph glyph-name="eacute.smcp" horiz-adv-x="1064" 
d="M319 1001v-364h594v-121h-594v-395h646v-121h-779v1122h762v-121h-629zM449 1251l184 289h172l-236 -289h-120z" />
    <glyph glyph-name="ebreve.smcp" horiz-adv-x="1064" 
d="M319 1001v-364h594v-121h-594v-395h646v-121h-779v1122h762v-121h-629zM567 1358q167 0 195 182h104q-12 -135 -90 -210t-209 -75t-208.5 75t-90.5 210h105q12 -88 62 -135t132 -47z" />
    <glyph glyph-name="ecaron.smcp" horiz-adv-x="1064" 
d="M319 1001v-364h594v-121h-594v-395h646v-121h-779v1122h762v-121h-629zM496 1251l-234 289h141l166 -207l164 207h141l-233 -289h-145z" />
    <glyph glyph-name="ecircumflex.smcp" horiz-adv-x="1064" 
d="M319 1001v-364h594v-121h-594v-395h646v-121h-779v1122h762v-121h-629zM569 1458l-166 -207h-141l234 289h145l233 -289h-141z" />
    <glyph glyph-name="edieresis.smcp" horiz-adv-x="1064" 
d="M319 1001v-364h594v-121h-594v-395h646v-121h-779v1122h762v-121h-629zM692 1360v180h125v-180h-125zM315 1360v180h125v-180h-125z" />
    <glyph glyph-name="edotaccent.smcp" horiz-adv-x="1064" 
d="M319 1001v-364h594v-121h-594v-395h646v-121h-779v1122h762v-121h-629zM504 1360v180h127v-180h-127z" />
    <glyph glyph-name="egrave.smcp" horiz-adv-x="1064" 
d="M319 1001v-364h594v-121h-594v-395h646v-121h-779v1122h762v-121h-629zM686 1251h-121l-235 289h172z" />
    <glyph glyph-name="emacron.smcp" horiz-adv-x="1064" 
d="M319 1001v-364h594v-121h-594v-395h646v-121h-779v1122h762v-121h-629zM297 1360v106h539v-106h-539z" />
    <glyph glyph-name="eogonek.smcp" horiz-adv-x="1064" 
d="M801 -225q0 -76 88 -76q45 0 82 14v-90q-39 -16 -117 -16t-125 40t-47 109.5t38 123.5t122 120h-656v1122h762v-121h-629v-364h594v-121h-594v-395h646v-121q-92 -70 -128 -121t-36 -104z" />
    <glyph glyph-name="f.smcp" horiz-adv-x="991" 
d="M317 1001v-391h574v-121h-574v-489h-133v1122h744v-121h-611z" />
    <glyph glyph-name="fi.smcp" horiz-adv-x="1497" 
d="M317 1001v-391h574v-121h-574v-489h-133v1122h744v-121h-611zM1178 0v1122h133v-1122h-133z" />
    <glyph glyph-name="fl.smcp" horiz-adv-x="1953" 
d="M317 1001v-391h574v-121h-574v-489h-133v1122h744v-121h-611zM1933 121v-121h-755v1122h133v-1001h622z" />
    <glyph glyph-name="g.smcp" horiz-adv-x="1249" 
d="M614 1024q-182 0 -286.5 -124t-104.5 -339t100.5 -337t271.5 -122t268.5 91.5t97.5 285.5h-338v119h467v-598h-125v145h-4q-49 -78 -151.5 -121.5t-240 -43.5t-250 69.5t-174 200.5t-61.5 309q0 274 141.5 432t388.5 158q201 0 331 -96.5t145 -259.5h-142
q-23 113 -109.5 172t-224.5 59z" />
    <glyph glyph-name="gbreve.smcp" horiz-adv-x="1249" 
d="M614 1024q-182 0 -286.5 -124t-104.5 -339t100.5 -337t271.5 -122t268.5 91.5t97.5 285.5h-338v119h467v-598h-125v145h-4q-49 -78 -151.5 -121.5t-240 -43.5t-250 69.5t-174 200.5t-61.5 309q0 274 141.5 432t388.5 158q201 0 331 -96.5t145 -259.5h-142
q-23 113 -109.5 172t-224.5 59zM604 1358q165 0 195 182h104q-12 -135 -90 -210t-209 -75t-209 75t-90 210h105q12 -88 62 -135t132 -47z" />
    <glyph glyph-name="gcircumflex.smcp" horiz-adv-x="1249" 
d="M614 1024q-182 0 -286.5 -124t-104.5 -339t100.5 -337t271.5 -122t268.5 91.5t97.5 285.5h-338v119h467v-598h-125v145h-4q-49 -78 -151.5 -121.5t-240 -43.5t-250 69.5t-174 200.5t-61.5 309q0 274 141.5 432t388.5 158q201 0 331 -96.5t145 -259.5h-142
q-23 113 -109.5 172t-224.5 59zM604 1458l-166 -207h-141l233 289h146l233 -289h-141z" />
    <glyph glyph-name="gcommaaccent.smcp" horiz-adv-x="1249" 
d="M614 1024q-182 0 -286.5 -124t-104.5 -339t100.5 -337t271.5 -122t268.5 91.5t97.5 285.5h-338v119h467v-598h-125v145h-4q-49 -78 -151.5 -121.5t-240 -43.5t-250 69.5t-174 200.5t-61.5 309q0 274 141.5 432t388.5 158q201 0 331 -96.5t145 -259.5h-142
q-23 113 -109.5 172t-224.5 59zM539 -305v166h145v-166l-100 -209h-60l72 209h-57z" />
    <glyph glyph-name="gdotaccent.smcp" horiz-adv-x="1249" 
d="M614 1024q-182 0 -286.5 -124t-104.5 -339t100.5 -337t271.5 -122t268.5 91.5t97.5 285.5h-338v119h467v-598h-125v145h-4q-49 -78 -151.5 -121.5t-240 -43.5t-250 69.5t-174 200.5t-61.5 309q0 274 141.5 432t388.5 158q201 0 331 -96.5t145 -259.5h-142
q-23 113 -109.5 172t-224.5 59zM539 1360v180h127v-180h-127z" />
    <glyph glyph-name="h.smcp" horiz-adv-x="1277" 
d="M958 0v522h-639v-522h-133v1122h133v-479h639v479h134v-1122h-134z" />
    <glyph glyph-name="hbar.smcp" horiz-adv-x="1277" 
d="M319 897v-254h639v254h-639zM1092 897v-897h-134v522h-639v-522h-133v897h-100v104h100v121h133v-121h639v121h134v-121h100v-104h-100z" />
    <glyph glyph-name="uni0125.smcp" horiz-adv-x="1277" 
d="M958 0v522h-639v-522h-133v1122h133v-479h639v479h134v-1122h-134zM641 1458l-166 -207h-141l233 289h146l233 -289h-141z" />
    <glyph glyph-name="i.smcp" horiz-adv-x="505" 
d="M186 0v1122h133v-1122h-133z" />
    <glyph glyph-name="iacute.smcp" horiz-adv-x="505" 
d="M186 0v1122h133v-1122h-133zM135 1251l184 289h173l-236 -289h-121z" />
    <glyph glyph-name="ibreve.smcp" horiz-adv-x="505" 
d="M186 0v1122h133v-1122h-133zM254 1255q-123 0 -191.5 75t-72.5 210h102q6 -90 48 -137t114 -47t114 48t46 136h104q-4 -135 -72.5 -210t-191.5 -75z" />
    <glyph glyph-name="icircumflex.smcp" horiz-adv-x="505" 
d="M186 0v1122h133v-1122h-133zM391 1253l-139 207l-137 -207h-140l201 287h152l200 -287h-137z" />
    <glyph glyph-name="idieresis.smcp" horiz-adv-x="505" 
d="M186 0v1122h133v-1122h-133zM338 1360v180h125v-180h-125zM43 1360v180h125v-180h-125z" />
    <glyph glyph-name="i.loclTRK.smcp" horiz-adv-x="505" 
d="M186 0v1122h133v-1122h-133zM188 1360v180h127v-180h-127z" />
    <glyph glyph-name="igrave.smcp" horiz-adv-x="505" 
d="M186 0v1122h133v-1122h-133zM371 1251h-121l-236 289h172z" />
    <glyph glyph-name="ij.smcp" horiz-adv-x="1107" 
d="M186 0v1122h133v-1122h-133zM602 117q197 0 197 205v800h133v-805q0 -161 -83 -242t-239 -81q-51 0 -78 8v121q37 -6 70 -6z" />
    <glyph glyph-name="imacron.smcp" horiz-adv-x="505" 
d="M186 0v1122h133v-1122h-133zM4 1362v104h496v-104h-496z" />
    <glyph glyph-name="iogonek.smcp" horiz-adv-x="505" 
d="M156 -225q0 -76 88 -76q45 0 82 14v-90q-39 -16 -117 -16t-125 40t-47 109.5t38 123.5t122 120h-11v1122h133v-1122q-92 -70 -127.5 -121t-35.5 -104z" />
    <glyph glyph-name="itilde.smcp" horiz-adv-x="505" 
d="M186 0v1122h133v-1122h-133zM239 1362q-73 55 -108 55q-74 0 -84 -110h-90q4 104 50 159.5t124 55.5q39 0 68.5 -16.5t68.5 -45.5t59.5 -40t43.5 -11q76 0 86 113h90q-4 -103 -51 -159t-115.5 -56t-141.5 55z" />
    <glyph glyph-name="j.smcp" horiz-adv-x="602" 
d="M96 117q197 0 197 205v800h133v-805q0 -161 -83 -242t-239 -81q-51 0 -77 8v121q37 -6 69 -6z" />
    <glyph glyph-name="jcircumflex.smcp" horiz-adv-x="602" 
d="M96 117q197 0 197 205v800h133v-805q0 -161 -83 -242t-239 -81q-51 0 -77 8v121q37 -6 69 -6zM496 1253l-140 207l-137 -207h-139l201 287h151l201 -287h-137z" />
    <glyph glyph-name="k.smcp" horiz-adv-x="1075" 
d="M319 555v-555h-133v1122h133v-508h5l507 508h183l-543 -536l594 -586h-186l-555 555h-5z" />
    <glyph glyph-name="kcommaaccent.smcp" horiz-adv-x="1075" 
d="M319 555v-555h-133v1122h133v-508h5l507 508h183l-543 -536l594 -586h-186l-555 555h-5zM502 -305v166h145v-166l-100 -209h-60l72 209h-57z" />
    <glyph glyph-name="l.smcp" horiz-adv-x="962" 
d="M942 121v-121h-756v1122h133v-1001h623z" />
    <glyph glyph-name="lacute.smcp" horiz-adv-x="962" 
d="M942 121v-121h-756v1122h133v-1001h623zM205 1251l184 289h172l-235 -289h-121z" />
    <glyph glyph-name="lcaron.smcp" horiz-adv-x="962" 
d="M942 121v-121h-756v1122h133v-1001h623zM436 762l64 360h131l-111 -360h-84z" />
    <glyph glyph-name="lcommaaccent.smcp" horiz-adv-x="962" 
d="M942 121v-121h-756v1122h133v-1001h623zM489 -305v166h146v-166l-100 -209h-60l72 209h-58z" />
    <glyph glyph-name="ldot.smcp" horiz-adv-x="1085" 
d="M709 590v188h174v-188h-174zM942 121v-121h-756v1122h133v-1001h623z" />
    <glyph glyph-name="j.acute.loclNLD.smcp" horiz-adv-x="602" 
d="M96 117q197 0 197 205v800h133v-805q0 -161 -83 -242t-239 -81q-51 0 -77 8v121q37 -6 69 -6zM240 1251l184 289h172l-236 -289h-120z" />
    <glyph glyph-name="lslash.smcp" horiz-adv-x="950" 
d="M930 0h-758v500l-141 -80v123l141 80v499h133v-438l252 141v-123l-252 -141v-440h625v-121z" />
    <glyph glyph-name="m.smcp" horiz-adv-x="1593" 
d="M1276 0v975h-4q-18 -43 -51 -129l-347 -846h-155l-397 975h-5l2 -414v-561h-133v1122h215l222 -544l172 -433h4l393 977h217v-1122h-133z" />
    <glyph glyph-name="n.smcp" horiz-adv-x="1302" 
d="M319 0h-133v1122h203l426 -710q84 -141 166 -277h4v987h131v-1122h-203l-292 487q-123 213 -246 412l-53 90h-5l2 -543v-446z" />
    <glyph glyph-name="nacute.smcp" horiz-adv-x="1302" 
d="M319 0h-133v1122h203l426 -710q84 -141 166 -277h4v987h131v-1122h-203l-292 487q-123 213 -246 412l-53 90h-5l2 -543v-446zM532 1251l185 289h172l-236 -289h-121z" />
    <glyph glyph-name="ncaron.smcp" horiz-adv-x="1302" 
d="M319 0h-133v1122h203l426 -710q84 -141 166 -277h4v987h131v-1122h-203l-292 487q-123 213 -246 412l-53 90h-5l2 -543v-446zM580 1251l-234 289h141l166 -207l164 207h141l-233 -289h-145z" />
    <glyph glyph-name="ncommaaccent.smcp" horiz-adv-x="1302" 
d="M319 0h-133v1122h203l426 -710q84 -141 166 -277h4v987h131v-1122h-203l-292 487q-123 213 -246 412l-53 90h-5l2 -543v-446zM580 -305v166h145v-166l-100 -209h-60l72 209h-57z" />
    <glyph glyph-name="eng.smcp" horiz-adv-x="1300" 
d="M858 -211q123 0 123 148v63l-659 987h-5l2 -536v-451h-133v1122h199l594 -886h4q-2 180 -2 536v350h133v-1185q0 -258 -240 -259q-29 0 -69 11v106q31 -6 53 -6z" />
    </font>
</defs>
</svg>
