<?xml version="1.0" standalone="no"?>
<!DOCTYPE svg PUBLIC "-//W3C//DTD SVG 1.1//EN" "http://www.w3.org/Graphics/SVG/1.1/DTD/svg11.dtd" >
<svg xmlns="http://www.w3.org/2000/svg">
<metadata>
Created by FontPrep 20130207 at Sat Mar 12 16:03:43 2016
 By Matthew Higley
Copyright (c) 2015 Monotype Imaging Inc.  All rights reserved.
</metadata>
<defs>
<font id="979873f2cfeeca879b9881ec9737095a" horiz-adv-x='1024' >
  <font-face 
    font-family="NeueHaasUnicaW1G-LightIt"
    font-weight="350"
    font-style="italic"
    font-stretch="normal"
    units-per-em="2048"
    panose-1="2 11 4 4 3 2 6 9 2 3"
    ascent="1565"
    descent="-483"
    x-height="1040"
    cap-height="1458"
    bbox="-1262 -563 2343 2216"
    underline-thickness="102"
    underline-position="-153"
    slope="-14"
    unicode-range="U+0020-FEFF"
  />
<missing-glyph horiz-adv-x="1257" 
d="M508 133v166h158v-166h-158zM958 1026q0 -90 -32.5 -150t-117.5 -132t-113.5 -111t-39 -89t-10.5 -147h-117v52q0 88 13.5 143t47.5 101t103 110q82 72 104.5 115.5t22.5 117.5t-53.5 121t-151.5 47t-155.5 -56t-63.5 -163h-129q8 166 100 252t248 86t250 -82t94 -215z
M131 1329v-1200q0 -82 48 -130t130 -48h639q82 0 130 48t48 130v1200q0 82 -48 130t-130 48h-639q-82 0 -130 -48t-48 -130zM1210 1329v-1200q0 -121 -70.5 -191.5t-191.5 -70.5h-639q-121 0 -191.5 70.5t-70.5 191.5v1200q0 121 70.5 191.5t191.5 70.5h639
q121 0 191.5 -70.5t70.5 -191.5z" />
    <glyph glyph-name="f_f" unicode="ff" horiz-adv-x="1107" 
d="M1225 1358q-78 0 -127 -45t-74 -150l-31 -123h209l-24 -106h-211l-232 -934h-127l234 934h-396l-231 -934h-127l234 934h-189l27 106h188l39 156q66 270 311 270q53 0 95 -10l-27 -106q-29 8 -61 8q-78 0 -127.5 -45t-73.5 -150l-31 -123h395l39 156q66 270 312 270
q55 0 92 -10l-25 -106q-29 8 -61 8z" />
    <glyph glyph-name="f_f_i" unicode="ffi" horiz-adv-x="1574" 
d="M1225 1358q-78 0 -127 -45t-74 -150l-31 -123h209l-24 -106h-211l-232 -934h-127l234 934h-396l-231 -934h-127l234 934h-189l27 106h188l39 156q66 270 311 270q53 0 95 -10l-27 -106q-29 8 -61 8q-78 0 -127 -45t-74 -150l-31 -123h395l39 156q66 270 312 270
q55 0 92 -10l-25 -106q-29 8 -61 8zM1149 0l258 1040h127l-258 -1040h-127zM1468 1278l43 180h127l-43 -180h-127z" />
    <glyph glyph-name="f_f_l" unicode="ffl" horiz-adv-x="1574" 
d="M1225 1358q-78 0 -127 -45t-74 -150l-31 -123h209l-24 -106h-211l-232 -934h-127l234 934h-396l-231 -934h-127l234 934h-189l27 106h188l39 156q66 270 311 270q53 0 95 -10l-27 -106q-29 8 -61 8q-78 0 -127 -45t-74 -150l-31 -123h395l39 156q66 270 312 270
q55 0 92 -10l-25 -106q-29 8 -61 8zM1149 0l362 1458h127l-362 -1458h-127z" />
    <glyph glyph-name="f_i" unicode="fi" horiz-adv-x="1056" 
d="M705 1358q-78 0 -127 -45t-74 -150l-31 -123h211l-27 -106h-211l-231 -934h-127l234 934h-189l27 106h188l39 156q66 270 311 270q54 0 95 -10l-27 -106q-29 8 -61 8zM629 0l258 1040h127l-258 -1040h-127zM948 1278l43 180h127l-43 -180h-127z" />
    <glyph glyph-name="f_l" unicode="fl" horiz-adv-x="1056" 
d="M705 1358q-78 0 -127 -45t-74 -150l-31 -123h211l-27 -106h-211l-231 -934h-127l234 934h-189l27 106h188l39 156q66 270 311 270q54 0 95 -10l-27 -106q-29 8 -61 8zM629 0l362 1458h127l-362 -1458h-127z" />
    <glyph glyph-name=".notdef" horiz-adv-x="1257" 
d="M508 133v166h158v-166h-158zM958 1026q0 -90 -32.5 -150t-117.5 -132t-113.5 -111t-39 -89t-10.5 -147h-117v52q0 88 13.5 143t47.5 101t103 110q82 72 104.5 115.5t22.5 117.5t-53.5 121t-151.5 47t-155.5 -56t-63.5 -163h-129q8 166 100 252t248 86t250 -82t94 -215z
M131 1329v-1200q0 -82 48 -130t130 -48h639q82 0 130 48t48 130v1200q0 82 -48 130t-130 48h-639q-82 0 -130 -48t-48 -130zM1210 1329v-1200q0 -121 -70.5 -191.5t-191.5 -70.5h-639q-121 0 -191.5 70.5t-70.5 191.5v1200q0 121 70.5 191.5t191.5 70.5h639
q121 0 191.5 -70.5t70.5 -191.5z" />
    <glyph glyph-name=".null" horiz-adv-x="0" 
 />
    <glyph glyph-name="nonmarkingreturn" horiz-adv-x="681" 
 />
    <glyph glyph-name="NULL" horiz-adv-x="1228" 
 />
    <glyph glyph-name="NULL" horiz-adv-x="1228" 
 />
    <glyph glyph-name="space" unicode=" " horiz-adv-x="471" 
 />
    <glyph glyph-name="exclam" unicode="!" horiz-adv-x="514" 
d="M47 0l47 190h160l-45 -190h-162zM158 336l248 1122h169l-311 -1122h-106z" />
    <glyph glyph-name="quotedbl" unicode="&#x22;" horiz-adv-x="696" 
d="M266 930l113 528h133l-152 -528h-94zM539 930l112 528h133l-151 -528h-94z" />
    <glyph glyph-name="numbersign" unicode="#" horiz-adv-x="1304" 
d="M608 879l-151 -371h329l152 371h-330zM897 508h260l-43 -100h-258l-166 -408h-110l165 408h-329l-166 -408h-113l166 408h-258l39 100h260l152 371h-260l38 100h263l163 401h113l-164 -401h330l164 401h110l-163 -401h258l-43 -100h-256z" />
    <glyph glyph-name="dollar" unicode="$" horiz-adv-x="1114" 
d="M852 400q0 78 -51 129t-164 96l-131 -531q119 4 196.5 50t113.5 112t36 144zM381 1032q0 -96 46 -146t144 -89l121 491q-143 -4 -227 -82t-84 -174zM61 332q0 63 15 129h133q-14 -63 -14 -117q0 -207 202 -244l140 564q-145 57 -217 129.5t-72 212.5q0 94 52 187
t158.5 154.5t260.5 61.5h4l39 156h110l-41 -164q291 -43 291 -332q0 -66 -12 -115h-133q12 56 12 99q0 193 -188 227l-129 -522q102 -37 207.5 -100.5t105.5 -256.5q0 -100 -58.5 -198.5t-174 -163t-277.5 -66.5l-43 -176h-110l45 183q-306 47 -306 352z" />
    <glyph glyph-name="percent" unicode="%" horiz-adv-x="1722" 
d="M1470 463q0 164 -120 164q-78 0 -132.5 -62.5t-81 -150.5t-26.5 -166q0 -164 121 -164q76 0 130 62.5t81.5 151.5t27.5 165zM1599 475q0 -121 -41.5 -234.5t-126.5 -190.5t-205 -77t-184.5 70t-64.5 191t43 235.5t128 190t206 75.5t183 -69.5t62 -190.5zM342 920
q0 -166 119 -166q78 0 132 62.5t80.5 151.5t26.5 167q0 162 -118 161q-78 0 -132.5 -62.5t-81 -150.5t-26.5 -163zM831 1147q0 -121 -41.5 -234.5t-126.5 -190.5t-206 -77t-184.5 69.5t-63.5 191.5t43 235.5t128 189.5t206 76t183 -69.5t62 -190.5zM268 -61l1147 1503h125
l-1149 -1503h-123z" />
    <glyph glyph-name="ampersand" unicode="&#x26;" horiz-adv-x="1482" 
d="M221 328q0 -106 79 -172t206 -66q247 0 448 195l-354 465q-379 -166 -379 -422zM561 1122q0 -56 22.5 -111t80.5 -137q190 80 256.5 162t66.5 164t-48 126t-130 44t-138.5 -39t-83 -96t-26.5 -113zM504 -29q-195 0 -306.5 94.5t-111.5 248.5t108.5 288.5t346.5 233.5
q-55 86 -78 151t-23 143t44 162t129 138.5t212 54.5t204 -74t77 -198t-85 -227t-296 -193l317 -412q145 180 209 432h133q-73 -302 -268 -526l221 -287h-166l-147 195q-243 -224 -520 -224z" />
    <glyph glyph-name="quotesingle" unicode="'" horiz-adv-x="423" 
d="M266 930l113 528h133l-152 -528h-94z" />
    <glyph glyph-name="parenleft" unicode="(" horiz-adv-x="561" 
d="M231 233q0 -238 64 -534h-109q-90 276 -90 579t134.5 632t392.5 608h125q-259 -312 -388 -643.5t-129 -641.5z" />
    <glyph glyph-name="parenright" unicode=")" horiz-adv-x="561" 
d="M373 954q0 280 -64 564h111q88 -281 88 -582t-134 -630t-390 -607h-127q258 311 387 643t129 612z" />
    <glyph glyph-name="asterisk" unicode="*" horiz-adv-x="815" 
d="M885 1223l12 -142l-276 21l131 -240l-134 -57l-71 274l-191 -209l-92 113l230 150l-254 112l77 119l220 -172l36 281l136 -33l-101 -266z" />
    <glyph glyph-name="plus" unicode="+" horiz-adv-x="1159" 
d="M1008 707v-117h-371v-369h-115v369h-370v117h370v370h115v-370h371z" />
    <glyph glyph-name="comma" unicode="," horiz-adv-x="430" 
d="M23 -266h-93l129 266h-61l47 188h174l-45 -188z" />
    <glyph glyph-name="hyphen" unicode="-" horiz-adv-x="593" 
d="M66 535l30 127h471l-30 -127h-471z" />
    <glyph glyph-name="period" unicode="." horiz-adv-x="430" 
d="M-2 0l47 188h174l-45 -188h-176z" />
    <glyph glyph-name="slash" unicode="/" horiz-adv-x="913" 
d="M-115 -182l1030 1708h144l-1030 -1708h-144z" />
    <glyph glyph-name="zero" unicode="0" horiz-adv-x="1114" 
d="M238 451q0 -357 233 -357q154 0 264.5 141.5t168 338t57.5 352.5q0 356 -234 356q-152 0 -263.5 -142.5t-168.5 -339t-57 -349.5zM461 -27q-359 0 -359 471q0 195 73 421.5t216.5 384t333.5 157.5q375 0 375 -471q0 -195 -74 -421t-219 -384t-346 -158z" />
    <glyph glyph-name="one" unicode="1" horiz-adv-x="1114" 
d="M391 0l260 1042h-299l29 109q158 0 244 52t137 177h106l-344 -1380h-133z" />
    <glyph glyph-name="two" unicode="2" horiz-adv-x="1114" 
d="M1100 1073q0 -113 -51.5 -202t-160 -168t-281.5 -165t-264 -151t-135 -126.5t-65 -139.5h762l-28 -121h-906q29 158 91.5 265.5t175 194.5t290.5 175t265.5 149.5t125 124.5t37.5 159t-59 155t-179 59t-208 -77t-131 -216h-146q55 201 187.5 309.5t306.5 108.5t273.5 -92
t99.5 -242z" />
    <glyph glyph-name="three" unicode="3" horiz-adv-x="1114" 
d="M827 406q0 235 -290 235h-60l29 121h61q133 0 224.5 46t135.5 116.5t44 156.5t-70.5 144.5t-198.5 58.5t-218.5 -74.5t-125.5 -220.5h-137q43 197 176 307.5t315 110.5t287 -88.5t105 -228.5t-80 -243.5t-244 -154.5v-4q183 -77 183 -229t-59.5 -252.5t-175.5 -167
t-293 -66.5t-279.5 85t-102.5 239q0 53 15 102h135q-10 -41 -10 -88q0 -215 264 -215q115 0 199.5 46t127.5 118t43 146z" />
    <glyph glyph-name="four" unicode="4" horiz-adv-x="1114" 
d="M680 496l53 202l131 529h-4l-450 -486l-230 -245h500zM782 379l-94 -379h-131l94 379h-643l35 141l803 860h186l-221 -884h244l-31 -117h-242z" />
    <glyph glyph-name="five" unicode="5" horiz-adv-x="1114" 
d="M588 780q-217 0 -320 -221l-131 10l279 811h737l-31 -120h-620l-152 -449h4q49 43 120 67.5t140 24.5q176 0 272.5 -103.5t96.5 -283.5q0 -123 -63.5 -249t-185.5 -210t-294 -84t-272 80t-100 223q0 41 12 86h137q-8 -33 -8 -67q0 -94 66.5 -146.5t184.5 -52.5t207 64.5
t134 160t45 205.5t-67.5 182t-190.5 72z" />
    <glyph glyph-name="six" unicode="6" horiz-adv-x="1114" 
d="M233 381q0 -133 68 -209t187 -76t202.5 63.5t126.5 156t43 173.5q0 133 -65 211t-181 78t-203 -62.5t-132.5 -154.5t-45.5 -180zM639 899q168 0 264 -107.5t96 -293.5q0 -115 -62.5 -238t-178 -205t-286.5 -82t-267 110t-96 318t77.5 443t227 399t352.5 164
q172 0 266 -85t94 -230q0 -33 -4 -56h-137q2 12 2 27q0 221 -223 221q-150 0 -279 -140t-200 -407h4q150 162 350 162z" />
    <glyph glyph-name="seven" unicode="7" horiz-adv-x="1114" 
d="M1188 1257q-491 -530 -815 -1257h-164q358 750 823 1260h-760l31 120h916z" />
    <glyph glyph-name="eight" unicode="8" horiz-adv-x="1114" 
d="M199 344q0 -115 75.5 -180.5t200.5 -65.5t206 47.5t122 119t41 145.5q0 111 -76 176t-199 65t-204.5 -46t-123.5 -116.5t-42 -144.5zM385 995q0 -104 68.5 -163.5t186.5 -59.5t193.5 44t111.5 110.5t36 152.5t-70.5 145.5t-184.5 59.5t-189.5 -43t-113.5 -109.5
t-38 -136.5zM252 965q0 137 57.5 229t166 152.5t270.5 60.5t268 -92.5t106 -232.5q0 -284 -321 -388v-4q178 -85 178 -295q0 -100 -59.5 -198.5t-172.5 -161t-287 -62.5t-285.5 99.5t-111.5 253.5q0 313 351 403v4q-160 95 -160 232z" />
    <glyph glyph-name="nine" unicode="9" horiz-adv-x="1114" 
d="M963 999q0 133 -68.5 209t-186.5 76t-201 -63.5t-126 -155.5t-43 -174q0 -133 65 -211t181 -78t202 62.5t131.5 154.5t45.5 180zM197 883q0 115 62.5 237.5t178 204.5t286.5 82t267 -109.5t96 -317.5t-77.5 -443.5t-226 -399.5t-351.5 -164q-172 0 -266 85t-94 231
q0 33 4 55h137q-2 -12 -2 -27q0 -221 221 -221q150 0 279 140.5t200 406.5h-4q-145 -162 -350 -162q-168 0 -264 107.5t-96 294.5z" />
    <glyph glyph-name="colon" unicode=":" horiz-adv-x="430" 
d="M-2 0l47 188h174l-45 -188h-176zM211 852l47 188h174l-45 -188h-176z" />
    <glyph glyph-name="semicolon" unicode=";" horiz-adv-x="430" 
d="M23 -266h-93l129 266h-61l47 188h174l-45 -188zM211 852l47 188h174l-45 -188h-176z" />
    <glyph glyph-name="less" unicode="&#x3c;" horiz-adv-x="1159" 
d="M272 651v-4l736 -309v-127l-856 360v156l856 360v-126z" />
    <glyph glyph-name="equal" unicode="=" horiz-adv-x="1159" 
d="M152 434v115h856v-115h-856zM152 748v114h856v-114h-856z" />
    <glyph glyph-name="greater" unicode="&#x3e;" horiz-adv-x="1159" 
d="M1008 571l-856 -360v127l735 309v4l-735 310v126l856 -360v-156z" />
    <glyph glyph-name="question" unicode="?" horiz-adv-x="1026" 
d="M262 0l45 190h162l-47 -190h-160zM1090 1151q0 -117 -67 -215t-251 -219q-100 -66 -150.5 -114t-80 -110.5t-60.5 -175.5h-119q31 137 65 214t91 134.5t170 135.5t170 135t74.5 103t17.5 104q0 102 -67.5 161.5t-191.5 59.5t-218 -76t-133 -217h-133q55 201 185 307.5
t310 106.5t284 -91t104 -243z" />
    <glyph glyph-name="at" unicode="@" horiz-adv-x="1771" 
d="M614 465q0 -193 150 -193q102 0 185 86t131 208t48 208q0 176 -149 176q-107 0 -189.5 -82t-129 -196.5t-46.5 -206.5zM1147 360q0 -92 101 -92t181 84t122 206t42 230q0 238 -152.5 375t-410.5 137t-436 -134t-269.5 -333.5t-91.5 -386.5q0 -260 136.5 -402t387.5 -142
t466 116l37 -94q-233 -131 -519 -131t-455 171t-169 478q0 209 108.5 435.5t314 379t484.5 152.5q213 0 366.5 -76t234.5 -215t81 -311t-58.5 -317.5t-169 -237.5t-259.5 -92q-84 0 -127 42t-43 113q0 23 2 35h-4q-131 -190 -324 -190q-117 0 -178.5 73t-61.5 209t62.5 279
t175.5 241.5t235 98.5t177 -51.5t67 -141.5h4q27 70 72 172h119q-248 -537 -248 -680z" />
    <glyph glyph-name="A" unicode="A" horiz-adv-x="1359" 
d="M1001 594l-104 756h-4q-227 -362 -383 -605l-96 -151h587zM336 471l-299 -471h-154l940 1458h183l213 -1458h-136l-65 471h-682z" />
    <glyph glyph-name="B" unicode="B" horiz-adv-x="1259" 
d="M598 117q137 0 226 50t130 126.5t41 172.5t-73.5 158t-229.5 62h-311l-141 -569h358zM707 803q156 0 252 49t138 124t42 152q0 213 -308 213h-286l-135 -538h297zM1274 1153q0 -137 -85 -252t-245 -164v-4q90 -27 139.5 -102t49.5 -183t-59.5 -210.5t-180.5 -170
t-291 -67.5h-524l362 1458h416q209 0 313.5 -84t104.5 -221z" />
    <glyph glyph-name="C" unicode="C" horiz-adv-x="1400" 
d="M1391 1026q0 -43 -7 -86h-139q6 41 6 76q0 158 -97 251t-276.5 93t-320.5 -124t-214 -310.5t-73 -382t100.5 -320.5t273.5 -125t307 100.5t200 266.5h139q-74 -223 -248 -357.5t-407.5 -134.5t-367.5 155t-134 417q0 217 89 435t265.5 361.5t421.5 143.5
q150 0 258.5 -58.5t166 -162t57.5 -238.5z" />
    <glyph glyph-name="D" unicode="D" horiz-adv-x="1470" 
d="M563 121q244 0 408 108.5t241.5 271.5t77.5 328q0 248 -132 378t-388 130h-227l-303 -1216h323zM1432 838q0 -201 -95.5 -394.5t-292 -318.5t-483.5 -125h-483l362 1458h334q324 0 491 -158.5t167 -461.5z" />
    <glyph glyph-name="E" unicode="E" horiz-adv-x="1249" 
d="M543 1337l-129 -528h733l-31 -121h-735l-141 -567h798l-28 -121h-932l362 1458h908l-31 -121h-774z" />
    <glyph glyph-name="F" unicode="F" horiz-adv-x="1163" 
d="M543 1337l-137 -551h708l-29 -120h-708l-166 -666h-133l362 1458h887l-33 -121h-751z" />
    <glyph glyph-name="G" unicode="G" horiz-adv-x="1482" 
d="M1425 1057q0 -25 -4 -62h-141q2 14 2 39q0 156 -92 241t-279.5 85t-337 -124t-226.5 -313.5t-77 -387t97.5 -317.5t279.5 -120t335 124t216 386h-430l31 121h557l-180 -729h-125l47 190h-4q-74 -98 -204 -156.5t-277 -58.5t-255 72t-165.5 201t-57.5 325.5t93.5 413.5
t275.5 357.5t421.5 140.5t369.5 -117t130 -311z" />
    <glyph glyph-name="H" unicode="H" horiz-adv-x="1497" 
d="M1028 0l174 696h-819l-172 -696h-133l362 1458h133l-157 -641h817l158 641h133l-363 -1458h-133z" />
    <glyph glyph-name="I" unicode="I" horiz-adv-x="546" 
d="M78 0l362 1458h133l-362 -1458h-133z" />
    <glyph glyph-name="J" unicode="J" horiz-adv-x="690" 
d="M6 -8q-63 0 -102 16l28 119q37 -10 74 -10q127 0 208 69.5t120 221.5l260 1050h135l-272 -1087q-45 -189 -162 -284t-289 -95z" />
    <glyph glyph-name="K" unicode="K" horiz-adv-x="1243" 
d="M1104 0h-170l-535 739h-4l-184 -739h-133l362 1458h133l-163 -657h4l788 657h199l-854 -704z" />
    <glyph glyph-name="L" unicode="L" horiz-adv-x="1132" 
d="M1012 121l-29 -121h-905l362 1458h133l-333 -1337h772z" />
    <glyph glyph-name="M" unicode="M" horiz-adv-x="1861" 
d="M1393 0l327 1313h-4l-104 -164q-215 -338 -260 -406l-473 -743h-156l-105 743l-36 275q-29 197 -41 295h-4l-326 -1313h-133l362 1458h205l164 -1198l14 -117h4l834 1315h227l-362 -1458h-133z" />
    <glyph glyph-name="N" unicode="N" horiz-adv-x="1525" 
d="M1001 0l-225 647q-133 383 -233 678h-4q-37 -152 -152 -606l-176 -719h-133l362 1458h189l225 -647q133 -383 233 -678h5q104 426 180 729l147 596h133l-362 -1458h-189z" />
    <glyph glyph-name="O" unicode="O" horiz-adv-x="1482" 
d="M272 553q0 -197 108.5 -326t299 -129t335 120t222.5 303.5t78 382t-109.5 327.5t-301 129t-335 -121t-220.5 -305t-77 -381zM1450 870.5q0 -194.5 -93 -407.5t-269.5 -351.5t-407.5 -138.5q-170 0 -292 75t-186.5 210t-64.5 330.5t92.5 407.5t267.5 350.5t406 138.5
q170 0 294 -75t188.5 -210t64.5 -329.5z" />
    <glyph glyph-name="P" unicode="P" horiz-adv-x="1241" 
d="M768 729q137 0 227 52.5t133 131t43 158.5q0 129 -81.5 197.5t-245.5 68.5h-301l-152 -608h377zM1307 1077q0 -115 -59.5 -222t-182.5 -177t-301 -70h-404l-149 -608h-133l362 1458h412q223 0 339 -101.5t116 -279.5z" />
    <glyph glyph-name="Q" unicode="Q" horiz-adv-x="1480" 
d="M1315 908q0 194 -109.5 323t-301.5 129t-335 -121t-220 -305t-77 -382t110 -326t302 -128q145 0 266 74l-147 215l106 74l144 -211q123 117 192.5 290.5t69.5 367.5zM135 580q0 196 93.5 411t270.5 354.5t414 139.5q168 0 290 -74t185.5 -206.5t63.5 -322.5t-86 -396.5
t-242 -340.5l121 -178l-104 -71l-119 174q-166 -96 -342 -96t-297 73.5t-184.5 205t-63.5 327.5z" />
    <glyph glyph-name="R" unicode="R" horiz-adv-x="1284" 
d="M725 764q139 0 231.5 52t134.5 128t42 148q0 246 -295 245h-295l-144 -573h326zM1272 1112q0 -88 -45 -177t-131 -154.5t-201 -88.5v-4q63 -25 96 -82t49 -188l54 -418h-133l-46 406q-14 135 -67 186t-176 51h-301l-160 -643h-133l362 1458h408q215 0 319.5 -89
t104.5 -257z" />
    <glyph glyph-name="S" unicode="S" horiz-adv-x="1226" 
d="M1221 1122q0 -57 -15 -116h-135q14 55 14 102q0 256 -319 256q-123 0 -205 -44t-121 -109.5t-39 -131.5q0 -106 69 -161.5t212 -103.5t221 -91q172 -95 172 -305q0 -106 -62.5 -209t-188.5 -169.5t-324.5 -66.5t-314 96.5t-115.5 284.5q0 66 14 131h133q-12 -68 -12 -120
q0 -268 323 -269q143 0 235.5 47t134.5 119t42 146t-35 123t-98.5 82.5t-182 75.5t-194.5 84q-164 91 -164 294q0 96 57.5 193.5t173 161t279.5 63.5q445 -1 445 -363z" />
    <glyph glyph-name="T" unicode="T" horiz-adv-x="1212" 
d="M874 1337l-331 -1337h-133l331 1337h-518l31 121h1171l-32 -121h-519z" />
    <glyph glyph-name="U" unicode="U" horiz-adv-x="1431" 
d="M315 401q0 -303 328 -303q164 0 284 101.5t173 302.5l237 956h133l-247 -991q-62 -242 -216.5 -368t-375.5 -126t-334 108.5t-113 313.5q0 86 29 205l215 858h133l-223 -891q-23 -88 -23 -166z" />
    <glyph glyph-name="V" unicode="V" horiz-adv-x="1263" 
d="M414 0l-166 1458h133l74 -690q25 -213 69 -639h4l385 639l420 690h150l-889 -1458h-180z" />
    <glyph glyph-name="W" unicode="W" horiz-adv-x="1835" 
d="M1118 0v666q0 223 4 669h-4q-20 -41 -184 -370l-475 -965h-209l6 1458h129l-2 -620q0 -238 -4 -713h4l352 717l307 616h203l-2 -616v-717h4l658 1333h141l-719 -1458h-209z" />
    <glyph glyph-name="X" unicode="X" horiz-adv-x="1263" 
d="M1114 0h-145l-291 647h-4l-602 -647h-181l713 760l-321 698h145l274 -604h5l561 604h180l-674 -715z" />
    <glyph glyph-name="Y" unicode="Y" horiz-adv-x="1232" 
d="M555 0h-135l155 623l-331 835h141l121 -315q51 -129 149 -391h4q229 262 347 391l274 315h176l-747 -835z" />
    <glyph glyph-name="Z" unicode="Z" horiz-adv-x="1142" 
d="M100 121h906l-29 -121h-1071l37 147l1163 1186v4h-850l31 121h1013l-36 -147l-1164 -1186v-4z" />
    <glyph glyph-name="bracketleft" unicode="[" horiz-adv-x="575" 
d="M510 1419l-404 -1624h248l-24 -98h-373l453 1821h372l-22 -99h-250z" />
    <glyph glyph-name="backslash" unicode="\" horiz-adv-x="905" 
d="M625 -182h-123l-191 1708h123z" />
    <glyph glyph-name="bracketright" unicode="]" horiz-adv-x="575" 
d="M109 -205l405 1624h-250l25 99h373l-453 -1821h-373l23 98h250z" />
    <glyph glyph-name="asciicircum" unicode="^" horiz-adv-x="872" 
d="M725 760l-287 594h-4l-287 -594h-120l340 698h139l340 -698h-121z" />
    <glyph glyph-name="underscore" unicode="_" horiz-adv-x="1024" 
d="M-176 -180l20 78h1024l-20 -78h-1024z" />
    <glyph glyph-name="grave" unicode="`" horiz-adv-x="561" 
d="M621 1169h-113l-172 289h164z" />
    <glyph glyph-name="a" unicode="a" horiz-adv-x="1073" 
d="M154 261q0 -85 56 -130t159 -45q143 0 249.5 90t149.5 250l25 102q-455 -26 -569 -122q-70 -60 -70 -145zM840 760q0 198 -239 198q-116 0 -194.5 -63.5t-101.5 -167.5h-133q33 150 152.5 245t286.5 95t257 -77t90 -230q0 -59 -18 -137l-90 -367q-39 -158 -43 -256h-121
q4 80 21 137h-5q-139 -158 -366 -157q-150 0 -235 71.5t-85 190.5q0 289 451 356q168 25 352 37l6 24q14 57 15 101z" />
    <glyph glyph-name="b" unicode="b" horiz-adv-x="1157" 
d="M281 386q0 -138 63.5 -220t187.5 -82t220 87t145 219t49 269t-62.5 219.5t-187.5 82.5t-221 -87.5t-145 -218.5t-49 -269zM727 1067q170 0 263 -105.5t93 -277.5t-65.5 -333t-191.5 -267.5t-296 -106.5q-121 0 -202.5 60.5t-106.5 163.5h-4l-49 -201h-127l365 1458h126
l-135 -540h4q61 70 146.5 109.5t179.5 39.5z" />
    <glyph glyph-name="c" unicode="c" horiz-adv-x="1067" 
d="M1016 709q0 -31 -2 -47h-129q2 14 2 40q0 117 -63.5 185.5t-187.5 68.5t-221.5 -88t-148.5 -219t-51 -266t67.5 -217t184.5 -82t211 77t135 189h137q-59 -168 -190 -272.5t-303 -104.5t-273.5 111t-101.5 284t65.5 330.5t194.5 263t306 105.5t272.5 -97.5t95.5 -260.5z
" />
    <glyph glyph-name="d" unicode="d" horiz-adv-x="1155" 
d="M211 382q0 -138 62.5 -220t187.5 -82t221 87t145.5 218t49.5 269t-62.5 220t-187.5 82t-221.5 -87t-145.5 -218t-49 -269zM430 -27q-170 0 -263 105.5t-93 277.5t65.5 333t191.5 267.5t296 106.5q121 0 202.5 -60.5t106.5 -162.5h4l154 618h127l-365 -1458h-127l31 123
h-4q-61 -70 -146.5 -110t-179.5 -40z" />
    <glyph glyph-name="e" unicode="e" horiz-adv-x="1103" 
d="M646 958q-134 0 -246.5 -96t-159.5 -262h669q8 43 9 90q0 129 -69 198.5t-203 69.5zM203 375q0 -143 72.5 -218t195.5 -75t214 62.5t136 164.5h131q-57 -143 -184 -239.5t-308 -96.5t-280.5 107.5t-99.5 283t68.5 334t200.5 264t313.5 105.5t276.5 -101.5t95 -281.5
q0 -70 -26 -188h-793q-12 -68 -12 -121z" />
    <glyph glyph-name="f" unicode="f" horiz-adv-x="587" 
d="M705 1358q-78 0 -127.5 -45t-73.5 -150l-31 -123h211l-27 -106h-211l-231 -934h-127l234 934h-189l27 106h188l39 156q66 270 311 270q54 0 95 -10l-27 -106q-29 8 -61 8z" />
    <glyph glyph-name="g" unicode="g" horiz-adv-x="1157" 
d="M215 407q0 -128 60.5 -208t184.5 -80t222 85t149.5 211t51.5 255.5t-67.5 208.5t-192.5 79t-218.5 -86t-141.5 -211.5t-48 -253.5zM84 391q0 168 65.5 320.5t190.5 254t293 101.5q115 0 192.5 -57.5t110.5 -165.5h4l49 196h127l-254 -1022q-51 -203 -183 -307
t-319.5 -104t-282.5 70.5t-95 197.5q0 29 6 59h129q-6 -29 -6 -53q0 -82 62.5 -125t176.5 -43q158 0 255 86t143 269l24 98h-4q-144 -156 -348 -156q-160 0 -248 106.5t-88 274.5z" />
    <glyph glyph-name="h" unicode="h" 
d="M737 1063q143 0 222 -77t79 -222q0 -66 -22 -156l-152 -608h-127l152 610q20 80 20 161t-52 131t-164.5 50t-221.5 -89t-147 -247l-156 -616h-127l362 1458h127l-135 -545h4q141 150 338 150z" />
    <glyph glyph-name="i" unicode="i" horiz-adv-x="466" 
d="M41 0l258 1040h127l-258 -1040h-127zM360 1278l43 180h127l-43 -180h-127z" />
    <glyph glyph-name="j" unicode="j" horiz-adv-x="481" 
d="M-162 -387q-53 0 -96 12l27 109q31 -8 59 -8q82 0 132 48t79 163l274 1103h127l-284 -1136q-39 -154 -119 -222.5t-199 -68.5zM375 1278l43 180h127l-43 -180h-127z" />
    <glyph glyph-name="k" unicode="k" horiz-adv-x="980" 
d="M866 0h-159l-400 547h-4l-135 -547h-127l362 1458h127l-211 -846h5l550 428h191l-621 -477z" />
    <glyph glyph-name="l" unicode="l" horiz-adv-x="466" 
d="M41 0l362 1458h127l-362 -1458h-127z" />
    <glyph glyph-name="m" unicode="m" horiz-adv-x="1730" 
d="M1493 792q-1 160 -201 160q-106 0 -201.5 -92t-132.5 -244l-153 -616h-127l160 645q16 61 16 109q0 94 -47 146t-135 52q-121 0 -218.5 -96t-136.5 -256l-149 -600h-127l258 1040h127l-29 -118h4q131 141 295 141q109 0 179.5 -53.5t93.5 -153.5q149 207 364 207
q285 0 285 -287q0 -72 -25 -168l-151 -608h-127l155 625q23 91 23 167z" />
    <glyph glyph-name="n" unicode="n" 
d="M737 1063q144 0 222.5 -77t78.5 -222q0 -66 -22 -156l-152 -608h-127l152 610q20 80 20 161t-52 131t-164.5 50t-221.5 -89t-147 -247l-156 -616h-127l260 1040h125l-31 -129h4q139 152 338 152z" />
    <glyph glyph-name="o" unicode="o" horiz-adv-x="1130" 
d="M215 385.5q0 -138.5 70.5 -220t205 -81.5t230.5 87t146.5 216t50.5 267.5t-72 220t-207 81.5t-230.5 -87t-144.5 -216t-49 -267.5zM1047 637q0 -154 -66 -307.5t-195 -255t-312 -101.5t-286.5 113t-103.5 317q0 154 65.5 307.5t192.5 255t311.5 101.5t289 -112.5
t104.5 -317.5z" />
    <glyph glyph-name="p" unicode="p" horiz-adv-x="1157" 
d="M281 386q0 -138 63.5 -220t187.5 -82t220 87t145 219t49 269t-62.5 219.5t-187.5 82.5t-221 -87.5t-145 -218.5t-49 -269zM1083 684q0 -172 -65.5 -333t-191.5 -267.5t-296 -106.5q-121 0 -202.5 60.5t-106.5 163.5h-4l-143 -580h-127l354 1419h127l-31 -122h4
q61 70 146.5 109.5t179.5 39.5q170 0 263 -105.5t93 -277.5z" />
    <glyph glyph-name="q" unicode="q" horiz-adv-x="1155" 
d="M213 385q0 -137 62.5 -219t187.5 -82t221 87t145.5 218t49.5 269t-63.5 220.5t-187.5 82.5t-220.5 -87.5t-145.5 -219.5t-49 -269zM432 -23q-170 0 -263 105.5t-93 277.5t65.5 333t191.5 267.5t296 106.5q121 0 201.5 -62.5t105.5 -164.5h4l49 200h127l-354 -1419h-127
l125 502h-4q-61 -68 -146.5 -107t-177.5 -39z" />
    <glyph glyph-name="r" unicode="r" horiz-adv-x="710" 
d="M721 926q-156 0 -264.5 -98.5t-151.5 -278.5l-137 -549h-127l258 1040h125l-37 -151h4q150 160 357 160q38 -1 69 -7l-31 -120q-33 4 -65 4z" />
    <glyph glyph-name="s" unicode="s" horiz-adv-x="980" 
d="M160 268q0 -184 254 -184q137 0 211.5 55.5t74.5 152.5q0 96 -104 142q-51 22 -147.5 52t-148.5 56q-126 62 -126 218q0 80 47 149.5t136 113.5t235.5 44t236 -69.5t89.5 -198.5q0 -49 -11 -88h-125q8 45 9 73q0 84 -60.5 128t-174.5 44t-183.5 -48t-69.5 -139t86 -128
q41 -18 138 -49t156.5 -58.5t101.5 -84t42 -145.5t-47 -163.5t-143 -121t-255 -46.5t-255 74t-96 211q0 53 12 92h127q-10 -45 -10 -82z" />
    <glyph glyph-name="t" unicode="t" horiz-adv-x="618" 
d="M268 207q0 -103 117 -103q37 0 74 9l-29 -111q-45 -8 -74 -8q-111 0 -163 46t-52 146q0 57 17 117l157 631h-188l27 106h188l59 242h127l-59 -242h209l-27 -106h-209l-161 -649q-13 -45 -13 -78z" />
    <glyph glyph-name="u" unicode="u" 
d="M115 276q0 66 22 156l152 608h127l-152 -610q-20 -80 -20 -160.5t52 -131t163.5 -50.5t222.5 89t149 247l154 616h127l-260 -1040h-125l33 129h-4q-66 -70 -155 -111t-183 -41q-146 0 -224.5 77t-78.5 222z" />
    <glyph glyph-name="v" unicode="v" horiz-adv-x="921" 
d="M248 0l-129 1040h129l100 -917h4l563 917h146l-649 -1040h-164z" />
    <glyph glyph-name="w" unicode="w" horiz-adv-x="1536" 
d="M907 0l-37 926h-4l-241 -455l-254 -471h-183l-43 1040h123l17 -450l16 -475h4l490 925h192l14 -465q12 -301 15 -460h4l489 925h140l-559 -1040h-183z" />
    <glyph glyph-name="x" unicode="x" horiz-adv-x="956" 
d="M827 0h-141l-213 453h-4l-426 -453h-172l535 551l-240 489h139l189 -409h4l381 409h168l-484 -501z" />
    <glyph glyph-name="y" unicode="y" horiz-adv-x="933" 
d="M-71.5 -387q-75.5 0 -114.5 12l26 109q31 -8 90.5 -8t111.5 22.5t102.5 79.5t123.5 172l-149 1040h129l119 -878h4l557 878h145l-694 -1089q-86 -135 -155.5 -208t-144.5 -101.5t-150.5 -28.5z" />
    <glyph glyph-name="z" unicode="z" horiz-adv-x="944" 
d="M117 111h674l-27 -111h-842l31 125l854 801v4h-633l29 110h801l-31 -125l-856 -800v-4z" />
    <glyph glyph-name="braceleft" unicode="{" horiz-adv-x="579" 
d="M313 452q0 -54 -14 -110l-82 -322q-12 -58 -12 -114q0 -115 143 -119l-22 -90h-25q-113 0 -167 51t-54 162q0 49 20 137l78 307q14 61 14 101q1 82 -96 120l23 97q80 23 122 63.5t62 124.5l94 375q37 147 113 215t203 68h65l-20 -91q-103 -2 -158 -48t-82 -152l-96 -387
q-23 -94 -72 -145.5t-147 -78.5l-2 -6q112 -51 112 -158z" />
    <glyph glyph-name="bar" unicode="|" horiz-adv-x="536" 
d="M209 -420v1919h119v-1919h-119z" />
    <glyph glyph-name="braceright" unicode="}" horiz-adv-x="579" 
d="M309 770q0 47 15 102l79 322q38 149 -7.5 190t-121.5 43l21 91h24q115 0 168.5 -51.5t53.5 -161.5q0 -51 -21 -138l-76 -309q-14 -61 -14 -100q0 -81 96 -119l-24 -98q-80 -23 -122 -64t-63 -123l-92 -374q-37 -147 -113.5 -215t-203.5 -68h-66l23 90q100 2 156.5 48
t82.5 153l95 387q23 94 73 145t146 78l2 6q-111 53 -111 166z" />
    <glyph glyph-name="asciitilde" unicode="~" horiz-adv-x="1183" 
d="M874 584q72 0 138.5 61.5t93.5 161.5h98q-39 -162 -133 -251t-217 -89q-86 0 -141.5 34t-119.5 96t-106.5 90t-114.5 28t-138 -61.5t-91 -161.5h-98q37 162 131 249.5t219 87.5q84 0 138.5 -32.5t119.5 -94.5t107 -90t114 -28z" />
    <glyph glyph-name="uni00A0" unicode="&#xa0;" horiz-adv-x="471" 
 />
    <glyph glyph-name="exclamdown" unicode="&#xa1;" horiz-adv-x="516" 
d="M356 705l-247 -1123h-170l311 1123h106zM467 1040l-47 -190h-162l47 190h162z" />
    <glyph glyph-name="cent" unicode="&#xa2;" horiz-adv-x="1114" 
d="M274 556q0 -122 50.5 -201t138.5 -99l215 864q-125 -10 -216 -99t-139.5 -216t-48.5 -249zM946 866q0 94 -41 157.5t-119 86.5l-215 -858q102 12 183.5 86t119.5 176h138q-57 -162 -181 -265.5t-286 -111.5l-47 -184h-111l47 192q-137 25 -215 131.5t-78 266.5
t64.5 317.5t192.5 263t309 107.5l43 176h110l-47 -186q127 -27 194.5 -119t67.5 -230q0 -31 -2 -47h-129q2 14 2 41z" />
    <glyph glyph-name="sterling" unicode="&#xa3;" horiz-adv-x="1114" 
d="M1024 1085q0 199 -218 199q-110 0 -188.5 -71.5t-113.5 -206.5l-68 -275h260l-28 -115h-260l-56 -223q-25 -104 -64.5 -167.5t-103.5 -106.5v-4h731l-28 -115h-967l29 115q207 0 274 278l56 223h-205l28 115h205l76 301q45 184 158.5 279.5t276.5 95.5t248 -80t85 -225
q0 -49 -12 -105h-125q10 55 10 88z" />
    <glyph glyph-name="currency" unicode="&#xa4;" horiz-adv-x="1114" 
d="M856 596q0 145 -81 232t-218 87t-219 -87t-82 -232t82 -232.5t219 -87.5t218 87.5t81 232.5zM131 596q0 162 84 278l-160 170l90 89l160 -170q107 73 251 73t253 -73l158 170l92 -89l-162 -167q86 -115 86 -281t-86 -281l162 -168l-92 -88l-158 170q-109 -73 -253 -73
t-251 73l-160 -170l-90 88l160 170q-84 117 -84 279z" />
    <glyph glyph-name="yen" unicode="&#xa5;" horiz-adv-x="1114" 
d="M1047 752l-27 -109h-367l-32 -133h366l-26 -109h-367l-100 -401h-134l101 401h-367l27 109h366l33 133h-366l26 109h297l-248 628h142l82 -217q51 -131 149 -393h4l535 610h172l-563 -628h297z" />
    <glyph glyph-name="brokenbar" unicode="&#xa6;" horiz-adv-x="536" 
d="M209 -420v717h119v-717h-119zM209 782v717h119v-717h-119z" />
    <glyph glyph-name="section" unicode="&#xa7;" horiz-adv-x="1116" 
d="M295 664q0 -70 46.5 -127.5t146.5 -118.5t176 -119q90 51 146 120.5t56 143.5t-46 129.5t-152 117.5t-174 112q-199 -112 -199 -258zM178 -16q0 -172 209 -172q88 0 149.5 35.5t92 91t30.5 108.5t-23.5 90t-67.5 72t-162 113t-175 147.5t-57 169.5t60.5 196.5
t179.5 155.5v4q-54 59 -54 143t46.5 164t133.5 131.5t221 51.5t213 -67.5t79 -196.5q0 -31 -6 -72h-127q6 31 6 61q0 162 -189 162q-78 0 -133 -32.5t-82.5 -83t-27.5 -98.5t20.5 -78.5t60 -61t167.5 -108.5t187.5 -150t59.5 -175t-61.5 -199.5t-190.5 -160.5v-4
q55 -61 55 -153t-47 -175t-141 -138.5t-227 -55.5q-330 0 -330 272q0 47 10 86h127q-6 -39 -6 -73z" />
    <glyph glyph-name="dieresis" unicode="&#xa8;" horiz-adv-x="706" 
d="M670 1278l43 180h125l-43 -180h-125zM293 1278l43 180h125l-45 -180h-123z" />
    <glyph glyph-name="copyright" unicode="&#xa9;" horiz-adv-x="1667" 
d="M822 1120q-122 0 -198.5 -104.5t-76.5 -286.5t76.5 -286.5t196.5 -104.5t189.5 63.5t84.5 171.5h131q-16 -162 -120 -258t-285 -96t-293.5 136.5t-112.5 372.5t113 373.5t297 137.5t285 -97.5t110 -248.5h-129q-10 104 -78 165.5t-190 61.5zM186 729q0 -199 81 -348.5
t227.5 -232t339 -82.5t339 82.5t227.5 233t81 347.5t-81 347.5t-227.5 233.5t-339 83t-339 -83t-227.5 -232.5t-81 -348.5zM1567 729q0 -223 -91.5 -393t-258 -264.5t-384 -94.5t-383 94.5t-258 264.5t-92.5 393t92.5 393t258 264.5t383 94.5t384 -94.5t258 -264.5
t91.5 -393z" />
    <glyph glyph-name="ordfeminine" unicode="&#xaa;" horiz-adv-x="784" 
d="M262 864q0 -114 146 -112q96 0 171 58t101 165l16 61q-317 -22 -388 -80q-46 -38 -46 -92zM729 1206q0 129 -158 127q-84 0 -137 -40t-69 -107h-115q25 102 112 170q88 68 212 68q259 -1 257 -220q0 -45 -12 -94l-59 -248q-31 -123 -31 -186h-106q4 39 10 74h-4
q-94 -88 -252 -88q-109 0 -171 51t-63 135q0 205 330 254q121 18 244 22q12 45 12 82z" />
    <glyph glyph-name="guillemotleft" unicode="&#xab;" horiz-adv-x="880" 
d="M674 111h-119l-137 417l325 402h136l-334 -418zM360 111h-118l-138 417l326 402h135l-334 -418z" />
    <glyph glyph-name="logicalnot" unicode="&#xac;" horiz-adv-x="1159" 
d="M893 295v510h-741v117h856v-627h-115z" />
    <glyph glyph-name="uni00AD" unicode="&#xad;" horiz-adv-x="593" 
d="M66 535l30 127h471l-30 -127h-471z" />
    <glyph glyph-name="registered" unicode="&#xae;" horiz-adv-x="1196" 
d="M584 999h108q143 0 144 113q0 102 -136 102h-116v-215zM936 1112q0 -55 -32 -101t-83 -57v-4q31 -8 50.5 -29.5t35.5 -70.5l70 -205h-107l-55 174q-16 51 -44 72.5t-79 21.5h-108v-268h-99v655h230q108 0 164.5 -49t56.5 -139zM268 964.5q0 -135.5 55.5 -238.5
t155 -159.5t230.5 -56.5t230 56.5t154.5 159.5t55.5 238.5t-55.5 239t-154.5 159.5t-230 56t-230.5 -56t-155 -159.5t-55.5 -239zM1214 964.5q0 -153.5 -63.5 -271.5t-178 -183.5t-264 -65.5t-264 65.5t-178 183.5t-63.5 271.5t63.5 271.5t178 183.5t264 65.5t264 -65.5
t178 -183.5t63.5 -271.5z" />
    <glyph glyph-name="macron" unicode="&#xaf;" horiz-adv-x="743" 
d="M293 1278l24 106h539l-25 -106h-538z" />
    <glyph glyph-name="degree" unicode="&#xb0;" horiz-adv-x="632" 
d="M358 1247.5q0 -57.5 40 -97.5t97.5 -40t98.5 40t41 97.5t-41 98t-98.5 40.5t-97.5 -40.5t-40 -98zM727 1248q0 -95 -67.5 -163.5t-162.5 -68.5t-164 68.5t-69 163.5t68 163t164 68t163.5 -68t67.5 -163z" />
    <glyph glyph-name="plusminus" unicode="&#xb1;" horiz-adv-x="1159" 
d="M152 0v115h856v-115h-856zM1008 750v-115h-371v-369h-115v369h-370v115h370v368h115v-368h371z" />
    <glyph glyph-name="twosuperior" unicode="&#xb2;" horiz-adv-x="819" 
d="M938 1416q0 -112 -83 -195t-263 -173t-243.5 -145t-82.5 -125h541l-25 -102h-663q20 115 64 190.5t124.5 137t232.5 136.5t212.5 131t60.5 134q0 152 -156 151q-86 0 -144 -51t-85 -141h-127q41 145 136 222t225 77t203 -67.5t73 -179.5z" />
    <glyph glyph-name="threesuperior" unicode="&#xb3;" horiz-adv-x="808" 
d="M717 958q0 156 -205 156h-37l23 103h41q179 0 228.5 76.5t49.5 132.5t-48 93t-130 37q-190 0 -238 -194h-118q33 141 129 221t231 80t212 -63.5t77 -161.5q0 -204 -232 -281v-2q131 -60 131 -194q0 -70 -43 -140.5t-125.5 -118t-212.5 -47.5t-206 60.5t-76 171.5
q0 43 10 74h117q-8 -31 -8 -60q0 -141 180 -141q152 0 201 75.5t49 122.5z" />
    <glyph glyph-name="acute" unicode="&#xb4;" horiz-adv-x="561" 
d="M264 1169l248 289h180l-299 -289h-129z" />
    <glyph glyph-name="mu" unicode="&#xb5;" horiz-adv-x="1163" 
d="M465 92q123 0 228 90t145 248l149 610h127l-190 -768q-17 -57 -17 -99q1 -42 17 -57q16 -16 49 -16t57 9l-26 -109q-31 -10 -78 -10q-137 0 -138 137l3 31h-5q-59 -80 -149 -127t-193 -47q-195 0 -247 143l-125 -506h-127l354 1419h127l-152 -604q-23 -90 -22 -145
q0 -199 213 -199z" />
    <glyph glyph-name="paragraph" unicode="&#xb6;" horiz-adv-x="1136" 
d="M639 1458h686l-22 -92h-164l-402 -1612h-98l401 1612h-182l-401 -1612h-99l222 893q-360 33 -361 369q0 104 50 206.5t145.5 169t224.5 66.5z" />
    <glyph glyph-name="periodcentered" unicode="&#xb7;" horiz-adv-x="430" 
d="M131 532l45 187h174l-45 -187h-174z" />
    <glyph glyph-name="cedilla" unicode="&#xb8;" horiz-adv-x="620" 
d="M213 -264q0 76 -92 76q-35 0 -66 -11l-30 31l155 168h96l-118 -129q17 4 37 4q57 0 90.5 -35.5t33.5 -105.5t-69.5 -125t-179.5 -55t-195 55l39 65q70 -41 146 -41t114.5 28t38.5 75z" />
    <glyph glyph-name="onesuperior" unicode="&#xb9;" horiz-adv-x="505" 
d="M274 676l177 713h-213l24 92q115 0 177.5 36.5t99.5 124.5h92l-242 -966h-115z" />
    <glyph glyph-name="ordmasculine" unicode="&#xba;" horiz-adv-x="823" 
d="M301 961q0 -209 191 -209q90 0 156 57t98 143q34 86 34 176t-49 144t-141 55q-92 0 -158 -57q-66 -56 -98 -142t-33 -167zM893 1136q0 -126 -48 -232t-140 -178q-91 -71 -227 -71t-212 81t-76 208q0 128 46 234t139 176q92 70 227 70t213 -81t78 -207z" />
    <glyph glyph-name="guillemotright" unicode="&#xbb;" horiz-adv-x="880" 
d="M518 930h121l137 -418l-325 -401h-138l336 417zM205 930h119l137 -418l-324 -401h-137l334 417z" />
    <glyph glyph-name="onequarter" unicode="&#xbc;" horiz-adv-x="1394" 
d="M211 553l147 596h-184l25 94q100 0 154 31t85 106h92l-204 -827h-115zM4 0l1147 1380h133l-1147 -1380h-133zM1073 311l94 379h-4l-360 -379h270zM1161 211l-53 -211h-113l54 211h-396l31 121l471 495h160l-129 -516h137l-25 -100h-137z" />
    <glyph glyph-name="onehalf" unicode="&#xbd;" horiz-adv-x="1464" 
d="M211 553l147 596h-184l25 94q100 0 154 31t85 106h92l-204 -827h-115zM4 0l1147 1380h133l-1147 -1380h-133zM1278 623q0 117 -129 117t-176 -156h-127q35 130 118 196t195 66t177 -58q65 -57 65 -154t-71 -170t-222 -151t-203 -118q-51 -41 -67 -91h454l-22 -104h-578
q33 185 163 288q69 54 197 118t177 110q49 45 49 107z" />
    <glyph glyph-name="threequarters" unicode="&#xbe;" horiz-adv-x="1648" 
d="M244 750q0 -111 141 -111q92 0 144 48t53 112q0 121 -166 121h-29l25 104h30q111 0 168 50q58 50 58 106t-37 86q-37 29 -103 28q-152 0 -192 -157h-117q27 123 112 193t203 69q118 0 185 -54q66 -54 65 -151q0 -156 -186 -223v-4q102 -54 100 -168q0 -59 -36 -121
q-37 -60 -109 -102q-73 -42 -185 -42t-180 54q-68 53 -67 149q0 33 8 66h121q-6 -27 -6 -53zM258 0l1147 1380h133l-1147 -1380h-133zM1327 311l94 379h-4l-360 -379h270zM1415 211l-53 -211h-113l54 211h-396l31 121l471 495h160l-129 -516h137l-25 -100h-137z" />
    <glyph glyph-name="questiondown" unicode="&#xbf;" horiz-adv-x="954" 
d="M-63 -111q0 117 66.5 215.5t250.5 219.5q100 66 150.5 113.5t80 110t60.5 175.5h119q-31 -137 -65 -214t-91 -134.5t-170 -135t-170 -135t-74.5 -103.5t-17.5 -103q0 -102 67.5 -162t191.5 -60t218 76t133 217h131q-53 -201 -183 -307t-310 -106t-283.5 91t-103.5 242z
M764 1040l-45 -190h-162l45 190h162z" />
    <glyph glyph-name="Agrave" unicode="&#xc0;" horiz-adv-x="1359" 
d="M1001 594l-104 756h-4q-227 -362 -383 -605l-96 -151h587zM336 471l-299 -471h-154l940 1458h183l213 -1458h-136l-65 471h-682zM944 1556l-174 277h164l123 -277h-113z" />
    <glyph glyph-name="Aacute" unicode="&#xc1;" horiz-adv-x="1359" 
d="M1001 594l-104 756h-4q-227 -362 -383 -605l-96 -151h587zM336 471l-299 -471h-154l940 1458h183l213 -1458h-136l-65 471h-682zM819 1556l246 277h180l-297 -277h-129z" />
    <glyph glyph-name="Acircumflex" unicode="&#xc2;" horiz-adv-x="1359" 
d="M1001 594l-104 756h-4q-227 -362 -383 -605l-96 -151h587zM336 471l-299 -471h-154l940 1458h183l213 -1458h-136l-65 471h-682zM1081 1833l164 -277h-125l-116 195l-216 -195h-155l303 277h145z" />
    <glyph glyph-name="Atilde" unicode="&#xc3;" horiz-adv-x="1359" 
d="M1001 594l-104 756h-4q-227 -362 -383 -605l-96 -151h587zM336 471l-299 -471h-154l940 1458h183l213 -1458h-136l-65 471h-682zM838 1708q-88 0 -121 -111h-103q29 102 90.5 158.5t135.5 56.5t154 -54t126 -54q84 0 123 108h98q-30 -102 -90.5 -158.5t-138.5 -56.5
q-43 0 -75.5 15.5t-79 44.5t-69 40t-50.5 11z" />
    <glyph glyph-name="Adieresis" unicode="&#xc4;" horiz-adv-x="1359" 
d="M1001 594l-104 756h-4q-227 -362 -383 -605l-96 -151h587zM336 471l-299 -471h-154l940 1458h183l213 -1458h-136l-65 471h-682zM1073 1593l45 181h125l-45 -181h-125zM696 1593l45 181h125l-45 -181h-125z" />
    <glyph glyph-name="Aring" unicode="&#xc5;" horiz-adv-x="1359" 
d="M1001 594l-104 756h-4q-227 -362 -383 -605l-96 -151h587zM336 471l-299 -471h-154l940 1458h183l213 -1458h-136l-65 471h-682zM840 1740q0 -50 35.5 -86t87 -36t86 35t34.5 86t-34.5 87t-86 36t-87 -36t-35.5 -86zM1161 1741q0 -82 -58.5 -140.5t-140 -58.5t-140 58.5
t-58.5 140.5t58.5 139t140 57t140 -57t58.5 -139z" />
    <glyph glyph-name="AE" unicode="&#xc6;" horiz-adv-x="1892" 
d="M1022 1337l-533 -710h496l70 710h-33zM1130 809h658l-31 -121h-641l-55 -567h618l-28 -121h-727l49 506h-576l-379 -506h-159l1093 1458h1037l-31 -121h-778z" />
    <glyph glyph-name="Ccedilla" unicode="&#xc7;" horiz-adv-x="1400" 
d="M641 -264q0 76 -92 76q-35 0 -66 -11l-30 31l133 143q-215 18 -334 171t-119 384.5t89 449.5t265.5 361.5t421.5 143.5q150 0 258.5 -58.5t166 -162t57.5 -238.5q0 -43 -7 -86h-139q6 39 6 76q0 158 -97 251t-276.5 93t-320.5 -124t-214 -310.5t-73 -382t100.5 -320.5
t273.5 -125t307 100.5t200 266.5h139q-72 -213 -233.5 -345t-374.5 -145l-96 -104q16 4 37 4q57 0 91 -36t34 -105.5t-70 -124.5t-180.5 -55t-194.5 55l39 65q70 -41 146 -41t114.5 28t38.5 75z" />
    <glyph glyph-name="Egrave" unicode="&#xc8;" horiz-adv-x="1249" 
d="M543 1337l-129 -528h733l-31 -121h-735l-141 -567h798l-28 -121h-932l362 1458h908l-31 -121h-774zM903 1556l-174 277h164l123 -277h-113z" />
    <glyph glyph-name="Eacute" unicode="&#xc9;" horiz-adv-x="1249" 
d="M543 1337l-129 -528h733l-31 -121h-735l-141 -567h798l-28 -121h-932l362 1458h908l-31 -121h-774zM780 1556l246 277h180l-297 -277h-129z" />
    <glyph glyph-name="Ecircumflex" unicode="&#xca;" horiz-adv-x="1249" 
d="M543 1337l-129 -528h733l-31 -121h-735l-141 -567h798l-28 -121h-932l362 1458h908l-31 -121h-774zM1040 1833l164 -277h-125l-116 195l-215 -195h-156l303 277h145z" />
    <glyph glyph-name="Edieresis" unicode="&#xcb;" horiz-adv-x="1249" 
d="M543 1337l-129 -528h733l-31 -121h-735l-141 -567h798l-28 -121h-932l362 1458h908l-31 -121h-774zM1032 1593l45 181h125l-45 -181h-125zM655 1593l45 181h125l-45 -181h-125z" />
    <glyph glyph-name="Igrave" unicode="&#xcc;" horiz-adv-x="546" 
d="M78 0l362 1458h133l-362 -1458h-133zM537 1556l-175 277h164l123 -277h-112z" />
    <glyph glyph-name="Iacute" unicode="&#xcd;" horiz-adv-x="546" 
d="M78 0l362 1458h133l-362 -1458h-133zM414 1556l245 277h181l-297 -277h-129z" />
    <glyph glyph-name="Icircumflex" unicode="&#xce;" horiz-adv-x="546" 
d="M78 0l362 1458h133l-362 -1458h-133zM674 1833l164 -277h-125l-117 195l-215 -195h-156l303 277h146z" />
    <glyph glyph-name="Idieresis" unicode="&#xcf;" horiz-adv-x="546" 
d="M78 0l362 1458h133l-362 -1458h-133zM666 1593l45 181h125l-45 -181h-125zM289 1593l45 181h125l-45 -181h-125z" />
    <glyph glyph-name="Eth" unicode="&#xd0;" horiz-adv-x="1470" 
d="M1290 829q0 248 -132 378t-388 130h-227l-135 -542h452l-29 -113h-452l-139 -561h323q244 0 408 108.5t241.5 271.5t77.5 328zM1432 838q0 -201 -95.5 -394.5t-292 -318.5t-483.5 -125h-483l170 682h-137l28 113h135l166 663h334q324 0 491 -158.5t167 -461.5z" />
    <glyph glyph-name="Ntilde" unicode="&#xd1;" horiz-adv-x="1525" 
d="M1001 0l-225 647q-133 383 -233 678h-4q-37 -152 -152 -606l-176 -719h-133l362 1458h189l225 -647q133 -383 233 -678h5q104 426 180 729l147 596h133l-362 -1458h-189zM920 1708q-88 0 -121 -111h-103q29 102 90.5 158.5t134.5 56.5t154 -54q80 -54 127 -54
q84 0 123 108h98q-30 -102 -90.5 -158.5t-138.5 -56.5q-43 0 -76 15.5t-79 44.5t-68.5 40t-50.5 11z" />
    <glyph glyph-name="Ograve" unicode="&#xd2;" horiz-adv-x="1482" 
d="M272 553q0 -197 108.5 -326t299 -129t335 120t222.5 303.5t78 382t-109.5 327.5t-301 129t-335 -121t-220.5 -305t-77 -381zM1450 870.5q0 -194.5 -93 -407.5t-269.5 -351.5t-407.5 -138.5q-170 0 -292 75t-186.5 210t-64.5 330.5t92.5 407.5t267.5 350.5t406 138.5
q170 0 294 -75t188.5 -210t64.5 -329.5zM956 1556l-174 277h164l123 -277h-113z" />
    <glyph glyph-name="Oacute" unicode="&#xd3;" horiz-adv-x="1482" 
d="M272 553q0 -197 108.5 -326t299 -129t335 120t222.5 303.5t78 382t-109.5 327.5t-301 129t-335 -121t-220.5 -305t-77 -381zM1450 870.5q0 -194.5 -93 -407.5t-269.5 -351.5t-407.5 -138.5q-170 0 -292 75t-186.5 210t-64.5 330.5t92.5 407.5t267.5 350.5t406 138.5
q170 0 294 -75t188.5 -210t64.5 -329.5zM831 1556l246 277h180l-296 -277h-130z" />
    <glyph glyph-name="Ocircumflex" unicode="&#xd4;" horiz-adv-x="1482" 
d="M272 553q0 -197 108.5 -326t299 -129t335 120t222.5 303.5t78 382t-109.5 327.5t-301 129t-335 -121t-220.5 -305t-77 -381zM1450 870.5q0 -194.5 -93 -407.5t-269.5 -351.5t-407.5 -138.5q-170 0 -292 75t-186.5 210t-64.5 330.5t92.5 407.5t267.5 350.5t406 138.5
q170 0 294 -75t188.5 -210t64.5 -329.5zM1092 1833l163 -277h-125l-116 195l-215 -195h-156l303 277h146z" />
    <glyph glyph-name="Otilde" unicode="&#xd5;" horiz-adv-x="1482" 
d="M272 553q0 -197 108.5 -326t299 -129t335 120t222.5 303.5t78 382t-109.5 327.5t-301 129t-335 -121t-220.5 -305t-77 -381zM1450 870.5q0 -194.5 -93 -407.5t-269.5 -351.5t-407.5 -138.5q-170 0 -292 75t-186.5 210t-64.5 330.5t92.5 407.5t267.5 350.5t406 138.5
q170 0 294 -75t188.5 -210t64.5 -329.5zM848 1708q-88 0 -121 -111h-102q29 102 90 158.5t135 56.5t154 -54t126 -54q84 0 123 108h99q-31 -102 -91.5 -158.5t-138.5 -56.5q-43 0 -75.5 15.5t-78.5 44.5t-68.5 40t-51.5 11z" />
    <glyph glyph-name="Odieresis" unicode="&#xd6;" horiz-adv-x="1482" 
d="M272 553q0 -197 108.5 -326t299 -129t335 120t222.5 303.5t78 382t-109.5 327.5t-301 129t-335 -121t-220.5 -305t-77 -381zM1450 870.5q0 -194.5 -93 -407.5t-269.5 -351.5t-407.5 -138.5q-170 0 -292 75t-186.5 210t-64.5 330.5t92.5 407.5t267.5 350.5t406 138.5
q170 0 294 -75t188.5 -210t64.5 -329.5zM1085 1593l45 181h125l-45 -181h-125zM709 1593l45 181h125l-45 -181h-125z" />
    <glyph glyph-name="multiply" unicode="&#xd7;" horiz-adv-x="1159" 
d="M657 627l404 -402l-80 -80l-401 404l-402 -404l-80 80l404 402l-404 401l80 80l402 -401l401 401l80 -80z" />
    <glyph glyph-name="Oslash" unicode="&#xd8;" horiz-adv-x="1482" 
d="M1315 864.5q0 159.5 -43 259.5l-897 -888q109 -137 302 -137.5t337.5 119.5t222.5 303.5t78 343zM907 1360q-194 0 -337.5 -121t-220.5 -305t-77 -339t41 -259l897 889q-109 135 -303 135zM920 1485q244 0 389 -162l143 141l78 -82l-156 -153q78 -139 78 -344t-94 -419
t-272.5 -353.5t-422 -139.5t-389.5 164l-143 -143l-80 82l158 155q-74 137 -74 342t93.5 419t270.5 353.5t421 139.5z" />
    <glyph glyph-name="Ugrave" unicode="&#xd9;" horiz-adv-x="1431" 
d="M315 401q0 -303 328 -303q164 0 284 101.5t173 302.5l237 956h133l-247 -991q-62 -242 -216.5 -368t-375.5 -126t-334 108.5t-113 313.5q0 86 29 205l215 858h133l-223 -891q-23 -88 -23 -166zM958 1556l-174 277h164l123 -277h-113z" />
    <glyph glyph-name="Uacute" unicode="&#xda;" horiz-adv-x="1431" 
d="M315 401q0 -303 328 -303q164 0 284 101.5t173 302.5l237 956h133l-247 -991q-62 -242 -216.5 -368t-375.5 -126t-334 108.5t-113 313.5q0 86 29 205l215 858h133l-223 -891q-23 -88 -23 -166zM836 1556l245 277h181l-297 -277h-129z" />
    <glyph glyph-name="Ucircumflex" unicode="&#xdb;" horiz-adv-x="1431" 
d="M315 401q0 -303 328 -303q164 0 284 101.5t173 302.5l237 956h133l-247 -991q-62 -242 -216.5 -368t-375.5 -126t-334 108.5t-113 313.5q0 86 29 205l215 858h133l-223 -891q-23 -88 -23 -166zM1096 1833l164 -277h-125l-117 195l-215 -195h-156l303 277h146z" />
    <glyph glyph-name="Udieresis" unicode="&#xdc;" horiz-adv-x="1431" 
d="M315 401q0 -303 328 -303q164 0 284 101.5t173 302.5l237 956h133l-247 -991q-62 -242 -216.5 -368t-375.5 -126t-334 108.5t-113 313.5q0 86 29 205l215 858h133l-223 -891q-23 -88 -23 -166zM1090 1593l45 181h125l-46 -181h-124zM713 1593l45 181h125l-45 -181h-125z
" />
    <glyph glyph-name="Yacute" unicode="&#xdd;" horiz-adv-x="1232" 
d="M555 0h-135l155 623l-331 835h141l121 -315q51 -129 149 -391h4q229 262 347 391l274 315h176l-747 -835zM719 1556l246 277h180l-297 -277h-129z" />
    <glyph glyph-name="Thorn" unicode="&#xde;" horiz-adv-x="1232" 
d="M700 451q135 0 225.5 52t133.5 131t43 159q0 129 -82 197.5t-246 68.5h-301l-149 -608h376zM784 1180q223 0 338 -100.5t115 -280.5q0 -113 -59.5 -221.5t-182.5 -178t-299 -69.5h-403l-82 -330h-133l362 1458h133l-69 -278h280z" />
    <glyph glyph-name="germandbls" unicode="&#xdf;" horiz-adv-x="1122" 
d="M1012 494q0 -125 -62.5 -241t-190.5 -190.5t-313 -74.5q-68 0 -120 18l26 109q37 -12 97 -13q141 0 240 58.5t147.5 149.5t48.5 200t-73 178.5t-206 69.5h-10l31 119q125 0 206.5 46t119.5 114.5t38 150.5t-58.5 133t-176.5 51t-203.5 -85t-126.5 -249l-258 -1038h-127
l262 1053q51 207 173 319.5t292 112.5t262 -78t92 -207t-80.5 -237.5t-232.5 -149.5v-4q203 -66 203 -315z" />
    <glyph glyph-name="agrave" unicode="&#xe0;" horiz-adv-x="1073" 
d="M154 261q0 -85 56 -130t159 -45q143 0 249.5 90t149.5 250l25 102q-455 -26 -569 -122q-70 -60 -70 -145zM840 760q0 198 -239 198q-116 0 -194.5 -63.5t-101.5 -167.5h-133q33 150 152.5 245t286.5 95t257 -77t90 -230q0 -59 -18 -137l-90 -367q-39 -158 -43 -256h-121
q4 80 21 137h-5q-139 -158 -366 -157q-150 0 -235 71.5t-85 190.5q0 289 451 356q168 25 352 37l6 24q14 57 15 101zM770 1169h-113l-172 289h164z" />
    <glyph glyph-name="aacute" unicode="&#xe1;" horiz-adv-x="1073" 
d="M154 261q0 -85 56 -130t159 -45q143 0 249.5 90t149.5 250l25 102q-455 -26 -569 -122q-70 -60 -70 -145zM840 760q0 198 -239 198q-116 0 -194.5 -63.5t-101.5 -167.5h-133q33 150 152.5 245t286.5 95t257 -77t90 -230q0 -59 -18 -137l-90 -367q-39 -158 -43 -256h-121
q4 80 21 137h-5q-139 -158 -366 -157q-150 0 -235 71.5t-85 190.5q0 289 451 356q168 25 352 37l6 24q14 57 15 101zM532 1169l248 289h181l-299 -289h-130z" />
    <glyph glyph-name="acircumflex" unicode="&#xe2;" horiz-adv-x="1073" 
d="M154 261q0 -85 56 -130t159 -45q143 0 249.5 90t149.5 250l25 102q-455 -26 -569 -122q-70 -60 -70 -145zM840 760q0 198 -239 198q-116 0 -194.5 -63.5t-101.5 -167.5h-133q33 150 152.5 245t286.5 95t257 -77t90 -230q0 -59 -18 -137l-90 -367q-39 -158 -43 -256h-121
q4 80 21 137h-5q-139 -158 -366 -157q-150 0 -235 71.5t-85 190.5q0 289 451 356q168 25 352 37l6 24q14 57 15 101zM827 1169l-114 207l-215 -207h-154l305 289h146l161 -289h-129z" />
    <glyph glyph-name="atilde" unicode="&#xe3;" horiz-adv-x="1073" 
d="M154 261q0 -85 56 -130t159 -45q143 0 249.5 90t149.5 250l25 102q-455 -26 -569 -122q-70 -60 -70 -145zM840 760q0 198 -239 198q-116 0 -194.5 -63.5t-101.5 -167.5h-133q33 150 152.5 245t286.5 95t257 -77t90 -230q0 -59 -18 -137l-90 -367q-39 -158 -43 -256h-121
q4 80 21 137h-5q-139 -158 -366 -157q-150 0 -235 71.5t-85 190.5q0 289 451 356q168 25 352 37l6 24q14 57 15 101zM825 1225q-43 0 -76.5 15t-94 54t-103.5 39q-84 0 -119 -108h-102q29 102 89 158.5t134 56.5t155.5 -55.5t122.5 -55.5q86 0 125 111h99
q-31 -103 -91.5 -159t-138.5 -56z" />
    <glyph glyph-name="adieresis" unicode="&#xe4;" horiz-adv-x="1073" 
d="M154 261q0 -85 56 -130t159 -45q143 0 249.5 90t149.5 250l25 102q-455 -26 -569 -122q-70 -60 -70 -145zM840 760q0 198 -239 198q-116 0 -194.5 -63.5t-101.5 -167.5h-133q33 150 152.5 245t286.5 95t257 -77t90 -230q0 -59 -18 -137l-90 -367q-39 -158 -43 -256h-121
q4 80 21 137h-5q-139 -158 -366 -157q-150 0 -235 71.5t-85 190.5q0 289 451 356q168 25 352 37l6 24q14 57 15 101zM805 1278l43 180h125l-43 -180h-125zM428 1278l43 180h125l-45 -180h-123z" />
    <glyph glyph-name="aring" unicode="&#xe5;" horiz-adv-x="1073" 
d="M154 261q0 -85 56 -130t159 -45q143 0 249.5 90t149.5 250l25 102q-455 -26 -569 -122q-70 -60 -70 -145zM840 760q0 198 -239 198q-116 0 -194.5 -63.5t-101.5 -167.5h-133q33 150 152.5 245t286.5 95t257 -77t90 -230q0 -59 -18 -137l-90 -367q-39 -158 -43 -256h-121
q4 80 21 137h-5q-139 -158 -366 -157q-150 0 -235 71.5t-85 190.5q0 289 451 356q168 25 352 37l6 24q14 57 15 101zM557 1366q0 -51 36 -87t87 -36t86 36t35 87t-35 86t-86 35t-87 -35t-36 -86zM877 1366q0 -82 -57.5 -140.5t-139.5 -58.5t-140.5 58.5t-58.5 140.5
t58.5 140.5t140.5 58.5t139.5 -58.5t57.5 -140.5z" />
    <glyph glyph-name="ae" unicode="&#xe6;" horiz-adv-x="1748" 
d="M522 494q-367 0 -370 -232q2 -86 54 -134t152 -48q150 0 262.5 97t151.5 269l12 48h-262zM1310 958q-126 0 -233.5 -96t-152.5 -262h628q8 43 9 90q0 268 -251 268zM1327 1067q170 0 261 -101.5t91 -281.5q0 -74 -28 -190h-752q-12 -64 -12 -119q0 -143 67.5 -218
t182.5 -75t200.5 62.5t126.5 164.5h131q-55 -143 -176 -239.5t-272 -96.5q-294 0 -352 267q-72 -125 -187.5 -196t-263.5 -71t-238 74t-90 195q0 88 47.5 169t161 135t301.5 54h285l12 51q12 51 13 97q0 210 -228 210q-123 0 -200.5 -63.5t-102.5 -167.5h-133
q33 150 152.5 245t291.5 95q269 0 318 -211q159 211 393 211z" />
    <glyph glyph-name="ccedilla" unicode="&#xe7;" horiz-adv-x="1067" 
d="M487 -264q0 76 -92 76q-35 0 -65 -11l-31 31l131 141q-162 10 -255 120t-93 279t65.5 326.5t194.5 263t306 105.5t272.5 -97.5t95.5 -260.5q0 -31 -2 -47h-129q2 13 2 40q0 117 -63.5 185.5t-187.5 68.5t-221.5 -88t-148.5 -219t-51 -266t67.5 -217t184.5 -82t211 77
t135 189h137q-53 -150 -163.5 -250t-256.5 -120l-98 -109q16 4 37 4q57 0 91 -36t34 -105.5t-69.5 -124.5t-181.5 -55t-193 55l38 65q70 -41 146 -41t114.5 28t38.5 75z" />
    <glyph glyph-name="egrave" unicode="&#xe8;" horiz-adv-x="1103" 
d="M646 958q-134 0 -246.5 -96t-159.5 -262h669q8 43 9 90q0 129 -69 198.5t-203 69.5zM203 375q0 -143 72.5 -218t195.5 -75t214 62.5t136 164.5h131q-57 -143 -184 -239.5t-308 -96.5t-280.5 107.5t-99.5 283t68.5 334t200.5 264t313.5 105.5t276.5 -101.5t95 -281.5
q0 -70 -26 -188h-793q-12 -68 -12 -121zM791 1169h-113l-172 289h164z" />
    <glyph glyph-name="eacute" unicode="&#xe9;" horiz-adv-x="1103" 
d="M646 958q-134 0 -246.5 -96t-159.5 -262h669q8 43 9 90q0 129 -69 198.5t-203 69.5zM203 375q0 -143 72.5 -218t195.5 -75t214 62.5t136 164.5h131q-57 -143 -184 -239.5t-308 -96.5t-280.5 107.5t-99.5 283t68.5 334t200.5 264t313.5 105.5t276.5 -101.5t95 -281.5
q0 -70 -26 -188h-793q-12 -68 -12 -121zM553 1169l248 289h180l-299 -289h-129z" />
    <glyph glyph-name="ecircumflex" unicode="&#xea;" horiz-adv-x="1103" 
d="M646 958q-134 0 -246.5 -96t-159.5 -262h669q8 43 9 90q0 129 -69 198.5t-203 69.5zM203 375q0 -143 72.5 -218t195.5 -75t214 62.5t136 164.5h131q-57 -143 -184 -239.5t-308 -96.5t-280.5 107.5t-99.5 283t68.5 334t200.5 264t313.5 105.5t276.5 -101.5t95 -281.5
q0 -70 -26 -188h-793q-12 -68 -12 -121zM850 1169l-115 207l-215 -207h-153l305 289h145l162 -289h-129z" />
    <glyph glyph-name="edieresis" unicode="&#xeb;" horiz-adv-x="1103" 
d="M646 958q-134 0 -246.5 -96t-159.5 -262h669q8 43 9 90q0 129 -69 198.5t-203 69.5zM203 375q0 -143 72.5 -218t195.5 -75t214 62.5t136 164.5h131q-57 -143 -184 -239.5t-308 -96.5t-280.5 107.5t-99.5 283t68.5 334t200.5 264t313.5 105.5t276.5 -101.5t95 -281.5
q0 -70 -26 -188h-793q-12 -68 -12 -121zM825 1278l43 180h125l-43 -180h-125zM449 1278l43 180h124l-45 -180h-122z" />
    <glyph glyph-name="igrave" unicode="&#xec;" horiz-adv-x="466" 
d="M41 0l258 1040h127l-258 -1040h-127zM514 1169h-113l-172 289h164z" />
    <glyph glyph-name="iacute" unicode="&#xed;" horiz-adv-x="466" 
d="M41 0l258 1040h127l-258 -1040h-127zM279 1169l247 289h181l-299 -289h-129z" />
    <glyph glyph-name="icircumflex" unicode="&#xee;" horiz-adv-x="466" 
d="M41 0l258 1040h127l-258 -1040h-127zM547 1171l-86 207l-189 -207h-153l272 287h152l129 -287h-125z" />
    <glyph glyph-name="idieresis" unicode="&#xef;" horiz-adv-x="466" 
d="M41 0l258 1040h127l-258 -1040h-127zM508 1278l45 180h125l-45 -180h-125zM215 1278l43 180h125l-45 -180h-123z" />
    <glyph glyph-name="eth" unicode="&#xf0;" horiz-adv-x="1132" 
d="M924 650q0 134 -71 216t-206 82t-235.5 -88t-150.5 -218t-50 -264t69.5 -214t203.5 -80t235.5 88t153 216t51.5 262zM1053 651q0 -158 -67.5 -314.5t-199 -260t-316.5 -103.5t-286.5 113t-103.5 313q2 150 68.5 301.5t197 251t290.5 99.5t236 -82l2 4q-61 137 -165 264
l-303 -129l-37 86l272 117q-51 55 -111 104l88 70q68 -61 130 -129l280 121l39 -86l-256 -111q242 -306 242 -629z" />
    <glyph glyph-name="ntilde" unicode="&#xf1;" 
d="M737 1063q144 0 222.5 -77t78.5 -222q0 -66 -22 -156l-152 -608h-127l152 610q20 80 20 161t-52 131t-164.5 50t-221.5 -89t-147 -247l-156 -616h-127l260 1040h125l-31 -129h4q139 152 338 152zM772 1279q-84 54 -127 54q-84 0 -119 -108h-102q29 102 89 158.5t134 56.5
t155.5 -55.5t123.5 -55.5q86 0 125 111h98q-31 -103 -91.5 -159t-131 -56t-154.5 54z" />
    <glyph glyph-name="ograve" unicode="&#xf2;" horiz-adv-x="1130" 
d="M215 385.5q0 -138.5 70.5 -220t205 -81.5t230.5 87t146.5 216t50.5 267.5t-72 220t-207 81.5t-230.5 -87t-144.5 -216t-49 -267.5zM1047 637q0 -154 -66 -307.5t-195 -255t-312 -101.5t-286.5 113t-103.5 317q0 154 65.5 307.5t192.5 255t311.5 101.5t289 -112.5
t104.5 -317.5zM805 1169h-113l-172 289h164z" />
    <glyph glyph-name="oacute" unicode="&#xf3;" horiz-adv-x="1130" 
d="M215 385.5q0 -138.5 70.5 -220t205 -81.5t230.5 87t146.5 216t50.5 267.5t-72 220t-207 81.5t-230.5 -87t-144.5 -216t-49 -267.5zM1047 637q0 -154 -66 -307.5t-195 -255t-312 -101.5t-286.5 113t-103.5 317q0 154 65.5 307.5t192.5 255t311.5 101.5t289 -112.5
t104.5 -317.5zM567 1169l248 289h180l-299 -289h-129z" />
    <glyph glyph-name="ocircumflex" unicode="&#xf4;" horiz-adv-x="1130" 
d="M215 385.5q0 -138.5 70.5 -220t205 -81.5t230.5 87t146.5 216t50.5 267.5t-72 220t-207 81.5t-230.5 -87t-144.5 -216t-49 -267.5zM1047 637q0 -154 -66 -307.5t-195 -255t-312 -101.5t-286.5 113t-103.5 317q0 154 65.5 307.5t192.5 255t311.5 101.5t289 -112.5
t104.5 -317.5zM864 1169l-114 207l-215 -207h-154l305 289h145l162 -289h-129z" />
    <glyph glyph-name="otilde" unicode="&#xf5;" horiz-adv-x="1130" 
d="M215 385.5q0 -138.5 70.5 -220t205 -81.5t230.5 87t146.5 216t50.5 267.5t-72 220t-207 81.5t-230.5 -87t-144.5 -216t-49 -267.5zM1047 637q0 -154 -66 -307.5t-195 -255t-312 -101.5t-286.5 113t-103.5 317q0 154 65.5 307.5t192.5 255t311.5 101.5t289 -112.5
t104.5 -317.5zM862 1225q-43 0 -76.5 15t-94 54t-103.5 39q-84 0 -119 -108h-102q29 102 89 158.5t134 56.5t155.5 -55.5t122.5 -55.5q86 0 125 111h99q-31 -103 -91.5 -159t-138.5 -56z" />
    <glyph glyph-name="odieresis" unicode="&#xf6;" horiz-adv-x="1130" 
d="M215 385.5q0 -138.5 70.5 -220t205 -81.5t230.5 87t146.5 216t50.5 267.5t-72 220t-207 81.5t-230.5 -87t-144.5 -216t-49 -267.5zM1047 637q0 -154 -66 -307.5t-195 -255t-312 -101.5t-286.5 113t-103.5 317q0 154 65.5 307.5t192.5 255t311.5 101.5t289 -112.5
t104.5 -317.5zM840 1278l43 180h125l-43 -180h-125zM463 1278l43 180h125l-45 -180h-123z" />
    <glyph glyph-name="divide" unicode="&#xf7;" horiz-adv-x="1159" 
d="M512 248v147h135v-147h-135zM152 590v117h856v-117h-856zM512 903v148h135v-148h-135z" />
    <glyph glyph-name="oslash" unicode="&#xf8;" horiz-adv-x="1132" 
d="M920 619.5q0 103.5 -21 162.5l-620 -614q68 -84 203.5 -84t235 87t151 216t51.5 232.5zM211 422.5q0 -101.5 18 -160.5l621 612q-70 82 -204 82t-233.5 -87t-150.5 -216t-51 -230.5zM1049 634.5q0 -149.5 -68 -304t-198 -256t-311 -101.5t-282 107l-120 -119l-72 72
l133 131q-47 100 -47 246.5t66.5 300t197.5 255t310 101.5t280 -104l119 118l71 -71l-131 -129q52 -97 52 -246.5z" />
    <glyph glyph-name="ugrave" unicode="&#xf9;" 
d="M115 276q0 66 22 156l152 608h127l-152 -610q-20 -80 -20 -160.5t52 -131t163.5 -50.5t222.5 89t149 247l154 616h127l-260 -1040h-125l33 129h-4q-66 -70 -155 -111t-183 -41q-146 0 -224.5 77t-78.5 222zM838 1169h-113l-172 289h164z" />
    <glyph glyph-name="uacute" unicode="&#xfa;" 
d="M115 276q0 66 22 156l152 608h127l-152 -610q-20 -80 -20 -160.5t52 -131t163.5 -50.5t222.5 89t149 247l154 616h127l-260 -1040h-125l33 129h-4q-66 -70 -155 -111t-183 -41q-146 0 -224.5 77t-78.5 222zM600 1169l248 289h180l-299 -289h-129z" />
    <glyph glyph-name="ucircumflex" unicode="&#xfb;" 
d="M115 276q0 66 22 156l152 608h127l-152 -610q-20 -80 -20 -160.5t52 -131t163.5 -50.5t222.5 89t149 247l154 616h127l-260 -1040h-125l33 129h-4q-66 -70 -155 -111t-183 -41q-146 0 -224.5 77t-78.5 222zM897 1169l-115 207l-215 -207h-153l305 289h145l162 -289h-129z
" />
    <glyph glyph-name="udieresis" unicode="&#xfc;" 
d="M115 276q0 66 22 156l152 608h127l-152 -610q-20 -80 -20 -160.5t52 -131t163.5 -50.5t222.5 89t149 247l154 616h127l-260 -1040h-125l33 129h-4q-66 -70 -155 -111t-183 -41q-146 0 -224.5 77t-78.5 222zM872 1278l43 180h125l-43 -180h-125zM496 1278l43 180h125
l-46 -180h-122z" />
    <glyph glyph-name="yacute" unicode="&#xfd;" horiz-adv-x="933" 
d="M-71.5 -387q-75.5 0 -114.5 12l26 109q31 -8 90.5 -8t111.5 22.5t102.5 79.5t123.5 172l-149 1040h129l119 -878h4l557 878h145l-694 -1089q-86 -135 -155.5 -208t-144.5 -101.5t-150.5 -28.5zM471 1169l248 289h180l-299 -289h-129z" />
    <glyph glyph-name="thorn" unicode="&#xfe;" horiz-adv-x="1161" 
d="M281 386q0 -138 63.5 -220t187.5 -82t220 87t145 219t49 269t-62.5 219.5t-187.5 82.5t-221 -87.5t-145 -218.5t-49 -269zM727 1067q170 0 263 -105.5t93 -277.5t-65.5 -333t-191.5 -267.5t-296 -106.5q-121 0 -202.5 60.5t-106.5 163.5h-4l-143 -580h-127l456 1837h127
l-133 -540h4q61 70 147.5 109.5t178.5 39.5z" />
    <glyph glyph-name="ydieresis" unicode="&#xff;" horiz-adv-x="933" 
d="M-71.5 -387q-75.5 0 -114.5 12l26 109q31 -8 90.5 -8t111.5 22.5t102.5 79.5t123.5 172l-149 1040h129l119 -878h4l557 878h145l-694 -1089q-86 -135 -155.5 -208t-144.5 -101.5t-150.5 -28.5zM741 1278l43 180h125l-43 -180h-125zM365 1278l43 180h124l-45 -180h-122z
" />
    <glyph glyph-name="Amacron" unicode="&#x100;" horiz-adv-x="1359" 
d="M1001 594l-104 756h-4q-227 -362 -383 -605l-96 -151h587zM336 471l-299 -471h-154l940 1458h183l213 -1458h-136l-65 471h-682zM686 1624l25 107h538l-24 -107h-539z" />
    <glyph glyph-name="amacron" unicode="&#x101;" horiz-adv-x="1073" 
d="M154 261q0 -85 56 -130t159 -45q143 0 249.5 90t149.5 250l25 102q-455 -26 -569 -122q-70 -60 -70 -145zM840 760q0 198 -239 198q-116 0 -194.5 -63.5t-101.5 -167.5h-133q33 150 152.5 245t286.5 95t257 -77t90 -230q0 -59 -18 -137l-90 -367q-39 -158 -43 -256h-121
q4 80 21 137h-5q-139 -158 -366 -157q-150 0 -235 71.5t-85 190.5q0 289 451 356q168 25 352 37l6 24q14 57 15 101zM410 1278l24 106h539l-25 -106h-538z" />
    <glyph glyph-name="Abreve" unicode="&#x102;" horiz-adv-x="1359" 
d="M1001 594l-104 756h-4q-227 -362 -383 -605l-96 -151h587zM336 471l-299 -471h-154l940 1458h183l213 -1458h-136l-65 471h-682zM952 1649q177 0 244 184h111q-37 -135 -129.5 -210t-218.5 -75t-190 60.5t-64 173.5q0 33 4 51h96q-2 -10 -2 -33q0 -74 39 -112.5
t110 -38.5z" />
    <glyph glyph-name="abreve" unicode="&#x103;" horiz-adv-x="1073" 
d="M154 261q0 -85 56 -130t159 -45q143 0 249.5 90t149.5 250l25 102q-455 -26 -569 -122q-70 -60 -70 -145zM840 760q0 198 -239 198q-116 0 -194.5 -63.5t-101.5 -167.5h-133q33 150 152.5 245t286.5 95t257 -77t90 -230q0 -59 -18 -137l-90 -367q-39 -158 -43 -256h-121
q4 80 21 137h-5q-139 -158 -366 -157q-150 0 -235 71.5t-85 190.5q0 289 451 356q168 25 352 37l6 24q14 57 15 101zM518 1425q0 -149 150 -149q86 0 148.5 47t92.5 135h113q-37 -135 -130 -209.5t-219 -74.5t-189.5 61t-63.5 174q0 31 4 49h96q-2 -10 -2 -33z" />
    <glyph glyph-name="Aogonek" unicode="&#x104;" horiz-adv-x="1359" 
d="M1001 594l-104 756h-4q-227 -362 -383 -605l-96 -151h587zM997 -240q0 -61 72 -61q43 0 84 14l-25 -94q-35 -12 -88 -12q-166 0 -166 139q0 66 51.5 125t164.5 129h-7l-65 471h-682l-299 -471h-154l940 1458h183l213 -1458q-222 -135 -222 -240z" />
    <glyph glyph-name="aogonek" unicode="&#x105;" horiz-adv-x="1073" 
d="M154 261q0 -85 56 -130t159 -45q143 0 249.5 90t149.5 250l25 102q-459 -28 -569 -122q-70 -60 -70 -145zM840 760q0 198 -239 198q-116 0 -194.5 -63.5t-101.5 -167.5h-133q33 150 152.5 245t286.5 95t257 -77t90 -230q0 -61 -18 -137l-90 -367q-39 -158 -43 -256
q-221 -134 -221 -240q0 -61 71 -61q43 0 84 14l-24 -94q-35 -12 -88 -12q-166 0 -166 139q0 68 53 128t170 130q4 78 21 133h-5q-139 -158 -366 -157q-150 0 -235 71.5t-85 190.5q0 289 451 356q168 25 352 37l6 24q14 57 15 101z" />
    <glyph glyph-name="Cacute" unicode="&#x106;" horiz-adv-x="1400" 
d="M1391 1026q0 -43 -7 -86h-139q6 41 6 76q0 158 -97 251t-276.5 93t-320.5 -124t-214 -310.5t-73 -382t100.5 -320.5t273.5 -125t307 100.5t200 266.5h139q-74 -223 -248 -357.5t-407.5 -134.5t-367.5 155t-134 417q0 217 89 435t265.5 361.5t421.5 143.5
q150 0 258.5 -58.5t166 -162t57.5 -238.5zM827 1556l246 277h180l-297 -277h-129z" />
    <glyph glyph-name="cacute" unicode="&#x107;" horiz-adv-x="1067" 
d="M1016 709q0 -31 -2 -47h-129q2 14 2 40q0 117 -63.5 185.5t-187.5 68.5t-221.5 -88t-148.5 -219t-51 -266t67.5 -217t184.5 -82t211 77t135 189h137q-59 -168 -190 -272.5t-303 -104.5t-273.5 111t-101.5 284t65.5 330.5t194.5 263t306 105.5t272.5 -97.5t95.5 -260.5z
M563 1169l248 289h180l-299 -289h-129z" />
    <glyph glyph-name="Ccircumflex" unicode="&#x108;" horiz-adv-x="1400" 
d="M1391 1026q0 -43 -7 -86h-139q6 41 6 76q0 158 -97 251t-276.5 93t-320.5 -124t-214 -310.5t-73 -382t100.5 -320.5t273.5 -125t307 100.5t200 266.5h139q-74 -223 -248 -357.5t-407.5 -134.5t-367.5 155t-134 417q0 217 89 435t265.5 361.5t421.5 143.5
q150 0 258.5 -58.5t166 -162t57.5 -238.5zM1087 1833l164 -277h-125l-116 195l-215 -195h-156l303 277h145z" />
    <glyph glyph-name="ccircumflex" unicode="&#x109;" horiz-adv-x="1067" 
d="M1016 709q0 -31 -2 -47h-129q2 14 2 40q0 117 -63.5 185.5t-187.5 68.5t-221.5 -88t-148.5 -219t-51 -266t67.5 -217t184.5 -82t211 77t135 189h137q-59 -168 -190 -272.5t-303 -104.5t-273.5 111t-101.5 284t65.5 330.5t194.5 263t306 105.5t272.5 -97.5t95.5 -260.5z
M860 1169l-115 207l-215 -207h-153l305 289h145l162 -289h-129z" />
    <glyph glyph-name="Cdotaccent" unicode="&#x10a;" horiz-adv-x="1400" 
d="M1391 1026q0 -43 -7 -86h-139q6 41 6 76q0 158 -97 251t-276.5 93t-320.5 -124t-214 -310.5t-73 -382t100.5 -320.5t273.5 -125t307 100.5t200 266.5h139q-74 -223 -248 -357.5t-407.5 -134.5t-367.5 155t-134 417q0 217 89 435t265.5 361.5t421.5 143.5
q150 0 258.5 -58.5t166 -162t57.5 -238.5zM891 1593l45 181h127l-45 -181h-127z" />
    <glyph glyph-name="cdotaccent" unicode="&#x10b;" horiz-adv-x="1067" 
d="M1016 709q0 -31 -2 -47h-129q2 14 2 40q0 117 -63.5 185.5t-187.5 68.5t-221.5 -88t-148.5 -219t-51 -266t67.5 -217t184.5 -82t211 77t135 189h137q-59 -168 -190 -272.5t-303 -104.5t-273.5 111t-101.5 284t65.5 330.5t194.5 263t306 105.5t272.5 -97.5t95.5 -260.5z
M647 1278l43 180h127l-43 -180h-127z" />
    <glyph glyph-name="Ccaron" unicode="&#x10c;" horiz-adv-x="1400" 
d="M1391 1026q0 -43 -7 -86h-139q6 41 6 76q0 158 -97 251t-276.5 93t-320.5 -124t-214 -310.5t-73 -382t100.5 -320.5t273.5 -125t307 100.5t200 266.5h139q-74 -223 -248 -357.5t-407.5 -134.5t-367.5 155t-134 417q0 217 89 435t265.5 361.5t421.5 143.5
q150 0 258.5 -58.5t166 -162t57.5 -238.5zM872 1556l-163 277h127l116 -195l213 195h156l-303 -277h-146z" />
    <glyph glyph-name="ccaron" unicode="&#x10d;" horiz-adv-x="1067" 
d="M1016 709q0 -31 -2 -47h-129q2 14 2 40q0 117 -63.5 185.5t-187.5 68.5t-221.5 -88t-148.5 -219t-51 -266t67.5 -217t184.5 -82t211 77t135 189h137q-59 -168 -190 -272.5t-303 -104.5t-273.5 111t-101.5 284t65.5 330.5t194.5 263t306 105.5t272.5 -97.5t95.5 -260.5z
M608 1169l-162 289h129l115 -207l215 207h154l-305 -289h-146z" />
    <glyph glyph-name="Dcaron" unicode="&#x10e;" horiz-adv-x="1470" 
d="M563 121q244 0 408 108.5t241.5 271.5t77.5 328q0 248 -132 378t-388 130h-227l-303 -1216h323zM1432 838q0 -201 -95.5 -394.5t-292 -318.5t-483.5 -125h-483l362 1458h334q324 0 491 -158.5t167 -461.5zM854 1556l-164 277h127l117 -195l213 195h156l-304 -277h-145z
" />
    <glyph glyph-name="dcaron" unicode="&#x10f;" horiz-adv-x="1155" 
d="M211 382q0 -138 62 -220q61 -82 187 -82t222 87t145 218t49 269t-62 220t-187 82t-221 -87t-146 -218t-49 -269zM430 -27q-170 -1 -263 105t-93 278t66 334q66 160 191 266q126 106 296 107q121 -1 203 -61t106 -162h4l154 618h127l-365 -1458h-127l31 123h-4
q-60 -70 -146 -110t-180 -40zM1206 1098l154 360h131l-201 -360h-84z" />
    <glyph glyph-name="Dcroat" unicode="&#x110;" horiz-adv-x="1470" 
d="M1290 829q0 248 -132 378t-388 130h-227l-135 -542h452l-29 -113h-452l-139 -561h323q244 0 408 108.5t241.5 271.5t77.5 328zM1432 838q0 -201 -95.5 -394.5t-292 -318.5t-483.5 -125h-483l170 682h-137l28 113h135l166 663h334q324 0 491 -158.5t167 -461.5z" />
    <glyph glyph-name="dcroat" unicode="&#x111;" horiz-adv-x="1146" 
d="M877 654q0 138 -62.5 220t-187.5 82t-221.5 -87t-145.5 -218t-49 -269t62.5 -220t187.5 -82t221 87t145.5 218t49.5 269zM430 -27q-170 0 -263 105.5t-93 277.5t65.5 333t191.5 267.5t296 106.5q121 0 202.5 -60.5t106.5 -162.5h4l88 354h-280l22 94h281l43 170h127
l-43 -170h131l-23 -94h-131l-299 -1194h-127l31 123h-4q-61 -70 -146.5 -110t-179.5 -40z" />
    <glyph glyph-name="Emacron" unicode="&#x112;" horiz-adv-x="1249" 
d="M543 1337l-129 -528h733l-31 -121h-735l-141 -567h798l-28 -121h-932l362 1458h908l-31 -121h-774zM645 1624l25 107h538l-24 -107h-539z" />
    <glyph glyph-name="emacron" unicode="&#x113;" horiz-adv-x="1103" 
d="M646 958q-134 0 -246.5 -96t-159.5 -262h669q8 43 9 90q0 129 -69 198.5t-203 69.5zM203 375q0 -143 72.5 -218t195.5 -75t214 62.5t136 164.5h131q-57 -143 -184 -239.5t-308 -96.5t-280.5 107.5t-99.5 283t68.5 334t200.5 264t313.5 105.5t276.5 -101.5t95 -281.5
q0 -70 -26 -188h-793q-12 -68 -12 -121zM430 1278l25 106h538l-24 -106h-539z" />
    <glyph glyph-name="Ebreve" unicode="&#x114;" horiz-adv-x="1249" 
d="M543 1337l-129 -528h733l-31 -121h-735l-141 -567h798l-28 -121h-932l362 1458h908l-31 -121h-774zM911 1649q177 0 244 184h111q-37 -135 -129.5 -210t-218.5 -75t-190 60.5t-64 173.5q0 33 4 51h96q-2 -10 -2 -33q0 -74 39 -112.5t110 -38.5z" />
    <glyph glyph-name="ebreve" unicode="&#x115;" horiz-adv-x="1103" 
d="M646 958q-134 0 -246.5 -96t-159.5 -262h669q8 43 9 90q0 129 -69 198.5t-203 69.5zM203 375q0 -143 72.5 -218t195.5 -75t214 62.5t136 164.5h131q-57 -143 -184 -239.5t-308 -96.5t-280.5 107.5t-99.5 283t68.5 334t200.5 264t313.5 105.5t276.5 -101.5t95 -281.5
q0 -70 -26 -188h-793q-12 -68 -12 -121zM539 1425q0 -149 149 -149q86 0 148.5 47t93.5 135h112q-36 -135 -129.5 -209.5t-219.5 -74.5t-189.5 61t-63.5 174q0 31 4 49h97q-2 -10 -2 -33z" />
    <glyph glyph-name="Edotaccent" unicode="&#x116;" horiz-adv-x="1249" 
d="M543 1337l-129 -528h733l-31 -121h-735l-141 -567h798l-28 -121h-932l362 1458h908l-31 -121h-774zM844 1593l45 181h127l-45 -181h-127z" />
    <glyph glyph-name="edotaccent" unicode="&#x117;" horiz-adv-x="1103" 
d="M646 958q-134 0 -246.5 -96t-159.5 -262h669q8 43 9 90q0 129 -69 198.5t-203 69.5zM203 375q0 -143 72.5 -218t195.5 -75t214 62.5t136 164.5h131q-57 -143 -184 -239.5t-308 -96.5t-280.5 107.5t-99.5 283t68.5 334t200.5 264t313.5 105.5t276.5 -101.5t95 -281.5
q0 -70 -26 -188h-793q-12 -68 -12 -121zM637 1278l43 180h127l-43 -180h-127z" />
    <glyph glyph-name="Eogonek" unicode="&#x118;" horiz-adv-x="1249" 
d="M831 -393q-165 0 -165 139q0 66 51 125t164 129h-803l362 1458h908l-31 -121h-774l-129 -528h733l-31 -121h-735l-141 -567h798l-28 -121q-222 -135 -222 -240q0 -61 72 -61q43 0 84 14l-24 -94q-35 -12 -89 -12z" />
    <glyph glyph-name="eogonek" unicode="&#x119;" horiz-adv-x="1099" 
d="M913 690q0 129 -68.5 198.5t-202.5 69.5t-246.5 -96t-159.5 -262h669q8 43 8 90zM360 -254q0 109 162 227v4q-33 -4 -57 -4q-190 0 -289.5 107.5t-99.5 283.5t68.5 334t200.5 263.5t313 105.5t277.5 -101.5t96.5 -281.5q0 -74 -28 -188h-793q-12 -68 -12 -121
q0 -143 72.5 -218t195.5 -75t214 62.5t136 164.5h131q-59 -160 -233 -282q-133 -92 -182.5 -153.5t-49.5 -113.5q0 -61 72 -61q45 0 82 14l-23 -94q-33 -12 -90 -12q-164 0 -164 139z" />
    <glyph glyph-name="Ecaron" unicode="&#x11a;" horiz-adv-x="1249" 
d="M543 1337l-129 -528h733l-31 -121h-735l-141 -567h798l-28 -121h-932l362 1458h908l-31 -121h-774zM825 1556l-163 277h126l117 -195l213 195h156l-303 -277h-146z" />
    <glyph glyph-name="ecaron" unicode="&#x11b;" horiz-adv-x="1103" 
d="M646 958q-134 0 -246.5 -96t-159.5 -262h669q8 43 9 90q0 129 -69 198.5t-203 69.5zM203 375q0 -143 72.5 -218t195.5 -75t214 62.5t136 164.5h131q-57 -143 -184 -239.5t-308 -96.5t-280.5 107.5t-99.5 283t68.5 334t200.5 264t313.5 105.5t276.5 -101.5t95 -281.5
q0 -70 -26 -188h-793q-12 -68 -12 -121zM598 1169l-162 289h129l115 -207l215 207h154l-306 -289h-145z" />
    <glyph glyph-name="Gcircumflex" unicode="&#x11c;" horiz-adv-x="1482" 
d="M1425 1057q0 -25 -4 -62h-141q2 14 2 39q0 156 -92 241t-279.5 85t-337 -124t-226.5 -313.5t-77 -387t97.5 -317.5t279.5 -120t335 124t216 386h-430l31 121h557l-180 -729h-125l47 190h-4q-74 -98 -204 -156.5t-277 -58.5t-255 72t-165.5 201t-57.5 325.5t93.5 413.5
t275.5 357.5t421.5 140.5t369.5 -117t130 -311zM1098 1833l164 -277h-125l-117 195l-215 -195h-156l303 277h146z" />
    <glyph glyph-name="gcircumflex" unicode="&#x11d;" horiz-adv-x="1157" 
d="M215 407q0 -128 60.5 -208t184.5 -80t222 85t149.5 211t51.5 255.5t-67.5 208.5t-192.5 79t-218.5 -86t-141.5 -211.5t-48 -253.5zM84 391q0 168 65.5 320.5t190.5 254t293 101.5q115 0 192.5 -57.5t110.5 -165.5h4l49 196h127l-254 -1022q-51 -203 -183 -307
t-319.5 -104t-282.5 70.5t-95 197.5q0 29 6 59h129q-6 -29 -6 -53q0 -82 62.5 -125t176.5 -43q158 0 255 86t143 269l24 98h-4q-144 -156 -348 -156q-160 0 -248 106.5t-88 274.5zM899 1169l-115 207l-215 -207h-153l305 289h145l162 -289h-129z" />
    <glyph glyph-name="Gbreve" unicode="&#x11e;" horiz-adv-x="1482" 
d="M1425 1057q0 -25 -4 -62h-141q2 14 2 39q0 156 -92 241t-279.5 85t-337 -124t-226.5 -313.5t-77 -387t97.5 -317.5t279.5 -120t335 124t216 386h-430l31 121h557l-180 -729h-125l47 190h-4q-74 -98 -204 -156.5t-277 -58.5t-255 72t-165.5 201t-57.5 325.5t93.5 413.5
t275.5 357.5t421.5 140.5t369.5 -117t130 -311zM971 1649q178 0 243 184h111q-37 -135 -129 -210t-218 -75t-190.5 60.5t-64.5 173.5q0 33 4 51h96q-2 -10 -2 -33q0 -74 39 -112.5t111 -38.5z" />
    <glyph glyph-name="gbreve" unicode="&#x11f;" horiz-adv-x="1157" 
d="M215 407q0 -128 60.5 -208t184.5 -80t222 85t149.5 211t51.5 255.5t-67.5 208.5t-192.5 79t-218.5 -86t-141.5 -211.5t-48 -253.5zM84 391q0 168 65.5 320.5t190.5 254t293 101.5q115 0 192.5 -57.5t110.5 -165.5h4l49 196h127l-254 -1022q-51 -203 -183 -307
t-319.5 -104t-282.5 70.5t-95 197.5q0 29 6 59h129q-6 -29 -6 -53q0 -82 62.5 -125t176.5 -43q158 0 255 86t143 269l24 98h-4q-144 -156 -348 -156q-160 0 -248 106.5t-88 274.5zM588 1425q0 -149 156 -149q78 0 141 47t94 135h113q-37 -135 -130.5 -209.5t-219.5 -74.5
t-189.5 61t-63.5 174q0 31 5 49h96q-2 -10 -2 -33z" />
    <glyph glyph-name="Gdotaccent" unicode="&#x120;" horiz-adv-x="1482" 
d="M1425 1057q0 -25 -4 -62h-141q2 14 2 39q0 156 -92 241t-279.5 85t-337 -124t-226.5 -313.5t-77 -387t97.5 -317.5t279.5 -120t335 124t216 386h-430l31 121h557l-180 -729h-125l47 190h-4q-74 -98 -204 -156.5t-277 -58.5t-255 72t-165.5 201t-57.5 325.5t93.5 413.5
t275.5 357.5t421.5 140.5t369.5 -117t130 -311zM901 1593l45 181h127l-45 -181h-127z" />
    <glyph glyph-name="gdotaccent" unicode="&#x121;" horiz-adv-x="1157" 
d="M215 407q0 -128 60.5 -208t184.5 -80t222 85t149.5 211t51.5 255.5t-67.5 208.5t-192.5 79t-218.5 -86t-141.5 -211.5t-48 -253.5zM84 391q0 168 65.5 320.5t190.5 254t293 101.5q115 0 192.5 -57.5t110.5 -165.5h4l49 196h127l-254 -1022q-51 -203 -183 -307
t-319.5 -104t-282.5 70.5t-95 197.5q0 29 6 59h129q-6 -29 -6 -53q0 -82 62.5 -125t176.5 -43q158 0 255 86t143 269l24 98h-4q-144 -156 -348 -156q-160 0 -248 106.5t-88 274.5zM686 1278l43 180h127l-43 -180h-127z" />
    <glyph glyph-name="Gcommaaccent" unicode="&#x122;" horiz-adv-x="1482" 
d="M1425 1057q0 -25 -4 -62h-141q2 14 2 39q0 156 -92 241t-279.5 85t-337 -124t-226.5 -313.5t-77 -387t97.5 -317.5t279.5 -120t335 124t216 386h-430l31 121h557l-180 -729h-125l47 190h-4q-74 -98 -204 -156.5t-277 -58.5t-255 72t-165.5 201t-57.5 325.5t93.5 413.5
t275.5 357.5t421.5 140.5t369.5 -117t130 -311zM461 -514h-58l123 209h-57l41 166h145l-39 -166z" />
    <glyph glyph-name="gcommaaccent" unicode="&#x123;" horiz-adv-x="1157" 
d="M215 407q0 -128 60.5 -208t184.5 -80t222 85t149.5 211t51.5 255.5t-67.5 208.5t-192.5 79t-218.5 -86t-141.5 -211.5t-48 -253.5zM84 391q0 168 65.5 320.5t190.5 254t293 101.5q115 0 192.5 -57.5t110.5 -165.5h4l49 196h127l-254 -1022q-51 -203 -183 -307
t-319.5 -104t-282.5 70.5t-95 197.5q0 29 6 59h129q-6 -29 -6 -53q0 -82 62.5 -125t176.5 -43q158 0 255 86t143 269l24 98h-4q-144 -156 -348 -156q-160 0 -248 106.5t-88 274.5zM838 1366l-43 -166h-146l41 166l154 209h57l-121 -209h58z" />
    <glyph glyph-name="Hcircumflex" unicode="&#x124;" horiz-adv-x="1497" 
d="M1028 0l174 696h-819l-172 -696h-133l362 1458h133l-157 -641h817l158 641h133l-363 -1458h-133zM1149 1833l164 -277h-125l-117 195l-215 -195h-156l304 277h145z" />
    <glyph glyph-name="hcircumflex" unicode="&#x125;" 
d="M737 1063q143 0 222 -77t79 -222q0 -66 -22 -156l-152 -608h-127l152 610q20 80 20 161t-52 131t-164.5 50t-221.5 -89t-147 -247l-156 -616h-127l362 1458h127l-135 -545h4q141 150 338 150zM979 1833l164 -277h-125l-117 195l-215 -195h-156l304 277h145z" />
    <glyph glyph-name="Hbar" unicode="&#x126;" horiz-adv-x="1497" 
d="M506 1180l-90 -363h817l90 363h-817zM1454 1180l-293 -1180h-133l174 696h-819l-172 -696h-133l293 1180h-121l24 108h123l43 170h133l-41 -170h818l41 170h133l-43 -170h123l-25 -108h-125z" />
    <glyph glyph-name="hbar" unicode="&#x127;" 
d="M737 1063q144 0 222.5 -77t78.5 -222q0 -66 -22 -156l-152 -608h-127l152 610q20 80 20 161t-52 131t-164.5 50t-221.5 -89t-147 -247l-156 -616h-127l297 1194h-141l22 94h141l43 170h127l-43 -170h271l-23 -94h-270l-70 -281h4q141 150 338 150z" />
    <glyph glyph-name="Itilde" unicode="&#x128;" horiz-adv-x="546" 
d="M78 0l362 1458h133l-362 -1458h-133zM430 1708q-86 0 -121 -111h-102q29 102 90 158.5t135 56.5t154 -54t127 -54q84 0 123 108h98q-31 -102 -91.5 -158.5t-137.5 -56.5q-43 0 -76 15.5t-79 44.5t-68.5 40t-51.5 11z" />
    <glyph glyph-name="itilde" unicode="&#x129;" horiz-adv-x="466" 
d="M41 0l258 1040h127l-258 -1040h-127zM313 1333q-71 0 -104 -108h-100q31 102 87 158.5t128 56.5q39 0 68.5 -15.5t70.5 -46.5q57 -49 96 -49q70 0 109 111h96q-31 -103 -87 -159t-128 -56q-59 0 -129 54t-107 54z" />
    <glyph glyph-name="Imacron" unicode="&#x12a;" horiz-adv-x="546" 
d="M78 0l362 1458h133l-362 -1458h-133zM279 1624l24 107h539l-25 -107h-538z" />
    <glyph glyph-name="imacron" unicode="&#x12b;" horiz-adv-x="466" 
d="M41 0l258 1040h127l-258 -1040h-127zM176 1278l25 106h495l-26 -106h-494z" />
    <glyph glyph-name="Ibreve" unicode="&#x12c;" horiz-adv-x="546" 
d="M78 0l362 1458h133l-362 -1458h-133zM547 1649q177 0 244 184h110q-37 -135 -129 -210t-218 -75t-190.5 60.5t-64.5 173.5q0 33 4 51h96q-2 -10 -2 -33q0 -74 39 -112.5t111 -38.5z" />
    <glyph glyph-name="ibreve" unicode="&#x12d;" horiz-adv-x="466" 
d="M41 0l258 1040h127l-258 -1040h-127zM424 1276q142 0 201 182h108q-35 -135 -119 -209.5t-193 -74.5t-165.5 58t-56.5 167q0 33 6 59h94q-2 -10 -2 -59.5t34 -86t93 -36.5z" />
    <glyph glyph-name="Iogonek" unicode="&#x12e;" horiz-adv-x="546" 
d="M33 -393q-166 0 -166 139q0 66 51 125t164 129h-4l362 1458h133l-362 -1458q-221 -134 -221 -240q0 -61 71 -61q43 0 84 14l-24 -94q-35 -12 -88 -12z" />
    <glyph glyph-name="iogonek" unicode="&#x12f;" horiz-adv-x="466" 
d="M-10 -393q-166 0 -166 139q0 66 51 126t166 130l258 1038h127l-258 -1040q-221 -134 -221 -240q0 -61 71 -61q43 0 84 14l-24 -94q-35 -12 -88 -12zM487 1278h-127l43 180h127z" />
    <glyph glyph-name="Idotaccent" unicode="&#x130;" horiz-adv-x="546" 
d="M78 0l362 1458h133l-362 -1458h-133zM477 1593l45 181h127l-45 -181h-127z" />
    <glyph glyph-name="dotlessi" unicode="&#x131;" horiz-adv-x="466" 
d="M41 0l258 1040h127l-258 -1040h-127z" />
    <glyph glyph-name="IJ" unicode="&#x132;" horiz-adv-x="1236" 
d="M78 0l362 1458h133l-362 -1458h-133zM553 -8q-63 0 -102 16l28 119q37 -10 74 -10q127 0 208 69.5t120 221.5l260 1050h135l-272 -1087q-46 -189 -162.5 -284t-288.5 -95z" />
    <glyph glyph-name="ij" unicode="&#x133;" horiz-adv-x="948" 
d="M305 -387q-53 0 -96 12l27 109q31 -8 59 -8q82 0 132 48t79 163l274 1103h127l-284 -1136q-39 -154 -119 -222.5t-199 -68.5zM41 0l258 1040h127l-258 -1040h-127zM842 1278l43 180h127l-43 -180h-127zM360 1278l43 180h127l-43 -180h-127z" />
    <glyph glyph-name="Jcircumflex" unicode="&#x134;" horiz-adv-x="690" 
d="M6 -8q-63 0 -102 16l28 119q37 -10 74 -10q127 0 208 69.5t120 221.5l260 1050h135l-272 -1087q-45 -189 -162 -284t-289 -95zM829 1833l164 -277h-125l-116 195l-215 -195h-156l303 277h145z" />
    <glyph glyph-name="jcircumflex" unicode="&#x135;" horiz-adv-x="481" 
d="M-162 -387q-53 0 -96 12l27 109q31 -8 59 -8q82 0 132 48t79 163l274 1103h127l-284 -1136q-39 -154 -119 -222.5t-199 -68.5zM561 1171l-86 207l-188 -207h-154l273 287h151l129 -287h-125z" />
    <glyph glyph-name="Kcommaaccent" unicode="&#x136;" horiz-adv-x="1243" 
d="M1104 0h-170l-535 739h-4l-184 -739h-133l362 1458h133l-163 -657h4l788 657h199l-854 -704zM379 -514h-57l122 209h-57l41 166h145l-38 -166z" />
    <glyph glyph-name="kcommaaccent" unicode="&#x137;" horiz-adv-x="980" 
d="M866 0h-159l-400 547h-4l-135 -547h-127l362 1458h127l-211 -846h5l550 428h191l-621 -477zM276 -514h-57l123 209h-57l41 166h145l-39 -166z" />
    <glyph glyph-name="kgreenlandic" unicode="&#x138;" horiz-adv-x="1015" 
d="M866 0h-159l-400 547h-4l-135 -547h-127l258 1040h127l-107 -428h5l550 428h191l-621 -477z" />
    <glyph glyph-name="Lacute" unicode="&#x139;" horiz-adv-x="1132" 
d="M1012 121l-29 -121h-905l362 1458h133l-333 -1337h772zM479 1556l246 277h180l-297 -277h-129z" />
    <glyph glyph-name="lacute" unicode="&#x13a;" horiz-adv-x="466" 
d="M41 0l362 1458h127l-362 -1458h-127zM426 1587l248 289h180l-299 -289h-129z" />
    <glyph glyph-name="Lcommaaccent" unicode="&#x13b;" horiz-adv-x="1132" 
d="M1012 121l-29 -121h-905l362 1458h133l-333 -1337h772zM373 -514h-58l123 209h-57l41 166h145l-39 -166z" />
    <glyph glyph-name="lcommaaccent" unicode="&#x13c;" horiz-adv-x="466" 
d="M41 0l362 1458h127l-362 -1458h-127zM-43 -514h-57l123 209h-58l41 166h146l-39 -166z" />
    <glyph glyph-name="Lcaron" unicode="&#x13d;" horiz-adv-x="1132" 
d="M1012 121l-29 -121h-905l362 1458h133l-333 -1337h772zM604 1018l172 440h131l-219 -440h-84z" />
    <glyph glyph-name="lcaron" unicode="&#x13e;" horiz-adv-x="466" 
d="M41 0l362 1458h127l-362 -1458h-127zM520 1098l154 360h131l-201 -360h-84z" />
    <glyph glyph-name="Ldot" unicode="&#x13f;" horiz-adv-x="1296" 
d="M1012 121l-29 -121h-905l362 1458h133l-333 -1337h772zM889 733l45 187h174l-45 -187h-174z" />
    <glyph glyph-name="ldot" unicode="&#x140;" horiz-adv-x="731" 
d="M41 0l362 1458h127l-362 -1458h-127zM541 635l45 186h174l-45 -186h-174z" />
    <glyph glyph-name="Lslash" unicode="&#x141;" horiz-adv-x="1132" 
d="M983 0h-905l160 643l-201 -104l37 143l198 104l168 672h133l-151 -608l358 186l-37 -143l-358 -186l-145 -586h772z" />
    <glyph glyph-name="lslash" unicode="&#x142;" horiz-adv-x="536" 
d="M401 799l-198 -799h-127l182 737l-211 -110l35 137l211 110l145 584h127l-129 -520l211 109l-35 -138z" />
    <glyph glyph-name="Nacute" unicode="&#x143;" horiz-adv-x="1525" 
d="M1001 0l-225 647q-133 383 -233 678h-4q-37 -152 -152 -606l-176 -719h-133l362 1458h189l225 -647q133 -383 233 -678h5q104 426 180 729l147 596h133l-362 -1458h-189zM903 1556l246 277h180l-297 -277h-129z" />
    <glyph glyph-name="nacute" unicode="&#x144;" 
d="M737 1063q144 0 222.5 -77t78.5 -222q0 -66 -22 -156l-152 -608h-127l152 610q20 80 20 161t-52 131t-164.5 50t-221.5 -89t-147 -247l-156 -616h-127l260 1040h125l-31 -129h4q139 152 338 152zM625 1169l247 289h181l-299 -289h-129z" />
    <glyph glyph-name="Ncommaaccent" unicode="&#x145;" horiz-adv-x="1525" 
d="M1001 0l-225 647q-133 383 -233 678h-4q-37 -152 -152 -606l-176 -719h-133l362 1458h189l225 -647q133 -383 233 -678h5q104 426 180 729l147 596h133l-362 -1458h-189zM477 -514h-57l123 209h-58l41 166h146l-39 -166z" />
    <glyph glyph-name="ncommaaccent" unicode="&#x146;" 
d="M737 1063q144 0 222.5 -77t78.5 -222q0 -66 -22 -156l-152 -608h-127l152 610q20 80 20 161t-52 131t-164.5 50t-221.5 -89t-147 -247l-156 -616h-127l260 1040h125l-31 -129h4q139 152 338 152zM295 -514h-57l122 209h-57l41 166h145l-38 -166z" />
    <glyph glyph-name="Ncaron" unicode="&#x147;" horiz-adv-x="1525" 
d="M1001 0l-225 647q-133 383 -233 678h-4q-37 -152 -152 -606l-176 -719h-133l362 1458h189l225 -647q133 -383 233 -678h5q104 426 180 729l147 596h133l-362 -1458h-189zM948 1556l-164 277h127l117 -195l213 195h156l-303 -277h-146z" />
    <glyph glyph-name="ncaron" unicode="&#x148;" 
d="M737 1063q144 0 222.5 -77t78.5 -222q0 -66 -22 -156l-152 -608h-127l152 610q20 80 20 161t-52 131t-164.5 50t-221.5 -89t-147 -247l-156 -616h-127l260 1040h125l-31 -129h4q139 152 338 152zM672 1169l-162 289h129l115 -207l215 207h153l-305 -289h-145z" />
    <glyph glyph-name="napostrophe" unicode="&#x149;" horiz-adv-x="1363" 
d="M360 1012h-90l125 262h-59l45 184h172l-43 -184zM948 1063q144 0 222.5 -77t78.5 -222q0 -66 -22 -156l-152 -608h-127l152 610q20 80 20 161t-52 131t-164.5 50t-221.5 -89t-147 -247l-156 -616h-127l260 1040h125l-31 -129h4q139 152 338 152z" />
    <glyph glyph-name="Eng" unicode="&#x14a;" horiz-adv-x="1521" 
d="M831 -387q-51 0 -88 14l25 105q31 -6 61 -6q78 0 128.5 47t76.5 153l19 76l-265 680q-90 229 -163 426l-82 213h-4q-68 -274 -88 -354l-240 -967h-133l362 1458h185l231 -602q164 -426 248 -639h4q115 471 176 709l133 532h131l-387 -1556q-39 -154 -122 -221.5
t-208 -67.5z" />
    <glyph glyph-name="eng" unicode="&#x14b;" 
d="M737 1063q144 0 222.5 -77t78.5 -222q0 -66 -22 -156l-176 -704q-41 -154 -121 -222.5t-199 -68.5q-51 0 -94 12l25 109q31 -8 61 -8q80 0 130 48t79 163l168 673q20 80 20 161t-52.5 131t-164.5 50t-221 -89t-147 -247l-156 -616h-127l260 1040h125l-31 -129h4
q139 152 338 152z" />
    <glyph glyph-name="Omacron" unicode="&#x14c;" horiz-adv-x="1482" 
d="M272 553q0 -197 108.5 -326t299 -129t335 120t222.5 303.5t78 382t-109.5 327.5t-301 129t-335 -121t-220.5 -305t-77 -381zM1450 870.5q0 -194.5 -93 -407.5t-269.5 -351.5t-407.5 -138.5q-170 0 -292 75t-186.5 210t-64.5 330.5t92.5 407.5t267.5 350.5t406 138.5
q170 0 294 -75t188.5 -210t64.5 -329.5zM698 1624l25 107h539l-25 -107h-539z" />
    <glyph glyph-name="omacron" unicode="&#x14d;" horiz-adv-x="1130" 
d="M215 385.5q0 -138.5 70.5 -220t205 -81.5t230.5 87t146.5 216t50.5 267.5t-72 220t-207 81.5t-230.5 -87t-144.5 -216t-49 -267.5zM1047 637q0 -154 -66 -307.5t-195 -255t-312 -101.5t-286.5 113t-103.5 317q0 154 65.5 307.5t192.5 255t311.5 101.5t289 -112.5
t104.5 -317.5zM444 1278l25 106h539l-25 -106h-539z" />
    <glyph glyph-name="Obreve" unicode="&#x14e;" horiz-adv-x="1482" 
d="M272 553q0 -197 108.5 -326t299 -129t335 120t222.5 303.5t78 382t-109.5 327.5t-301 129t-335 -121t-220.5 -305t-77 -381zM1450 870.5q0 -194.5 -93 -407.5t-269.5 -351.5t-407.5 -138.5q-170 0 -292 75t-186.5 210t-64.5 330.5t92.5 407.5t267.5 350.5t406 138.5
q170 0 294 -75t188.5 -210t64.5 -329.5zM965 1649q178 0 243 184h111q-37 -135 -129 -210t-218 -75t-190.5 60.5t-64.5 173.5q0 33 4 51h96q-2 -10 -2 -33q0 -74 39 -112.5t111 -38.5z" />
    <glyph glyph-name="obreve" unicode="&#x14f;" horiz-adv-x="1130" 
d="M215 385.5q0 -138.5 70.5 -220t205 -81.5t230.5 87t146.5 216t50.5 267.5t-72 220t-207 81.5t-230.5 -87t-144.5 -216t-49 -267.5zM1047 637q0 -154 -66 -307.5t-195 -255t-312 -101.5t-286.5 113t-103.5 317q0 154 65.5 307.5t192.5 255t311.5 101.5t289 -112.5
t104.5 -317.5zM553 1425q1 -149 157 -149q78 0 140.5 47t93.5 135h113q-37 -135 -130 -209.5t-219.5 -74.5t-189.5 61t-63 174q0 31 4 49h96q-2 -10 -2 -33z" />
    <glyph glyph-name="Ohungarumlaut" unicode="&#x150;" horiz-adv-x="1482" 
d="M272 553q0 -197 108.5 -326t299 -129t335 120t222.5 303.5t78 382t-109.5 327.5t-301 129t-335 -121t-220.5 -305t-77 -381zM1450 870.5q0 -194.5 -93 -407.5t-269.5 -351.5t-407.5 -138.5q-170 0 -292 75t-186.5 210t-64.5 330.5t92.5 407.5t267.5 350.5t406 138.5
q170 0 294 -75t188.5 -210t64.5 -329.5zM991 1542l291 291h172l-338 -291h-125zM694 1542l291 291h172l-338 -291h-125z" />
    <glyph glyph-name="ohungarumlaut" unicode="&#x151;" horiz-adv-x="1130" 
d="M215 385.5q0 -138.5 70.5 -220t205 -81.5t230.5 87t146.5 216t50.5 267.5t-72 220t-207 81.5t-230.5 -87t-144.5 -216t-49 -267.5zM1047 637q0 -154 -66 -307.5t-195 -255t-312 -101.5t-286.5 113t-103.5 317q0 154 65.5 307.5t192.5 255t311.5 101.5t289 -112.5
t104.5 -317.5zM735 1169l289 289h172l-338 -289h-123zM438 1169l289 289h172l-338 -289h-123z" />
    <glyph glyph-name="OE" unicode="&#x152;" horiz-adv-x="2025" 
d="M285 629q0 -248 120.5 -378t354.5 -130h121l303 1216h-185q-239 0 -401 -108.5t-237.5 -271t-75.5 -328.5zM756 0q-301 0 -457 158.5t-156 462.5q0 201 94.5 394t288 318t475.5 125h1121l-31 -121h-772l-131 -528h735l-31 -121h-735l-141 -567h796l-28 -121h-1028z" />
    <glyph glyph-name="oe" unicode="&#x153;" horiz-adv-x="1806" 
d="M872 660q0 136 -62 216t-186 80t-218.5 -88t-143.5 -220t-49 -267t62.5 -216t187.5 -81t219 88t142 220t48 268zM1620 696q0 262 -247 262q-124 0 -230.5 -96t-151.5 -262h621q8 47 8 96zM967 797q158 270 441 270q153 0 242 -98.5t89 -276.5q0 -80 -31 -196h-741
q-15 -66 -15 -127q0 -141 66.5 -214t179.5 -73t198 62.5t128 164.5h131q-55 -143 -176 -239.5t-269 -96.5q-286 0 -346 254q-156 -254 -418 -254q-176 0 -269 110t-93 288t64.5 334.5t190.5 258.5q127 102 279 103q290 0 349 -270z" />
    <glyph glyph-name="Racute" unicode="&#x154;" horiz-adv-x="1284" 
d="M725 764q139 0 231.5 52t134.5 128t42 148q0 246 -295 245h-295l-144 -573h326zM1272 1112q0 -88 -45 -177t-131 -154.5t-201 -88.5v-4q63 -25 96 -82t49 -188l54 -418h-133l-46 406q-14 135 -67 186t-176 51h-301l-160 -643h-133l362 1458h408q215 0 319.5 -89
t104.5 -257zM735 1556l246 277h180l-297 -277h-129z" />
    <glyph glyph-name="racute" unicode="&#x155;" horiz-adv-x="710" 
d="M721 926q-156 0 -264.5 -98.5t-151.5 -278.5l-137 -549h-127l258 1040h125l-37 -151h4q150 160 357 160q38 -1 69 -7l-31 -120q-33 4 -65 4zM465 1169l248 289h180l-299 -289h-129z" />
    <glyph glyph-name="Rcommaaccent" unicode="&#x156;" horiz-adv-x="1284" 
d="M725 764q139 0 231.5 52t134.5 128t42 148q0 246 -295 245h-295l-144 -573h326zM1272 1112q0 -88 -45 -177t-131 -154.5t-201 -88.5v-4q63 -25 96 -82t49 -188l54 -418h-133l-46 406q-14 135 -67 186t-176 51h-301l-160 -643h-133l362 1458h408q215 0 319.5 -89
t104.5 -257zM424 -514h-57l122 209h-57l41 166h145l-38 -166z" />
    <glyph glyph-name="rcommaaccent" unicode="&#x157;" horiz-adv-x="710" 
d="M721 926q-156 0 -264.5 -98.5t-151.5 -278.5l-137 -549h-127l258 1040h125l-37 -151h4q150 160 357 160q38 -1 69 -7l-31 -120q-33 4 -65 4zM-43 -514h-57l123 209h-58l41 166h146l-39 -166z" />
    <glyph glyph-name="Rcaron" unicode="&#x158;" horiz-adv-x="1284" 
d="M725 764q139 0 231.5 52t134.5 128t42 148q0 246 -295 245h-295l-144 -573h326zM1272 1112q0 -88 -45 -177t-131 -154.5t-201 -88.5v-4q63 -25 96 -82t49 -188l54 -418h-133l-46 406q-14 135 -67 186t-176 51h-301l-160 -643h-133l362 1458h408q215 0 319.5 -89
t104.5 -257zM780 1556l-164 277h127l117 -195l213 195h156l-303 -277h-146z" />
    <glyph glyph-name="rcaron" unicode="&#x159;" horiz-adv-x="710" 
d="M721 926q-156 0 -264.5 -98.5t-151.5 -278.5l-137 -549h-127l258 1040h125l-37 -151h4q150 160 357 160q38 -1 69 -7l-31 -120q-33 4 -65 4zM512 1169l-162 289h129l115 -207l215 207h154l-306 -289h-145z" />
    <glyph glyph-name="Sacute" unicode="&#x15a;" horiz-adv-x="1226" 
d="M1221 1122q0 -57 -15 -116h-135q14 55 14 102q0 256 -319 256q-123 0 -205 -44t-121 -109.5t-39 -131.5q0 -106 69 -161.5t212 -103.5t221 -91q172 -95 172 -305q0 -106 -62.5 -209t-188.5 -169.5t-324.5 -66.5t-314 96.5t-115.5 284.5q0 66 14 131h133q-12 -68 -12 -120
q0 -268 323 -269q143 0 235.5 47t134.5 119t42 146t-35 123t-98.5 82.5t-182 75.5t-194.5 84q-164 91 -164 294q0 96 57.5 193.5t173 161t279.5 63.5q445 -1 445 -363zM686 1556l246 277h180l-297 -277h-129z" />
    <glyph glyph-name="sacute" unicode="&#x15b;" horiz-adv-x="980" 
d="M160 268q0 -184 254 -184q137 0 211.5 55.5t74.5 152.5q0 96 -104 142q-51 22 -147.5 52t-148.5 56q-126 62 -126 218q0 80 47 149.5t136 113.5t235.5 44t236 -69.5t89.5 -198.5q0 -49 -11 -88h-125q8 45 9 73q0 84 -60.5 128t-174.5 44t-183.5 -48t-69.5 -139t86 -128
q41 -18 138 -49t156.5 -58.5t101.5 -84t42 -145.5t-47 -163.5t-143 -121t-255 -46.5t-255 74t-96 211q0 53 12 92h127q-10 -45 -10 -82zM494 1169l247 289h181l-299 -289h-129z" />
    <glyph glyph-name="Scircumflex" unicode="&#x15c;" horiz-adv-x="1226" 
d="M1221 1122q0 -57 -15 -116h-135q14 55 14 102q0 256 -319 256q-123 0 -205 -44t-121 -109.5t-39 -131.5q0 -106 69 -161.5t212 -103.5t221 -91q172 -95 172 -305q0 -106 -62.5 -209t-188.5 -169.5t-324.5 -66.5t-314 96.5t-115.5 284.5q0 66 14 131h133q-12 -68 -12 -120
q0 -268 323 -269q143 0 235.5 47t134.5 119t42 146t-35 123t-98.5 82.5t-182 75.5t-194.5 84q-164 91 -164 294q0 96 57.5 193.5t173 161t279.5 63.5q445 -1 445 -363zM946 1833l164 -277h-125l-117 195l-215 -195h-155l303 277h145z" />
    <glyph glyph-name="scircumflex" unicode="&#x15d;" horiz-adv-x="980" 
d="M160 268q0 -184 254 -184q137 0 211.5 55.5t74.5 152.5q0 96 -104 142q-51 22 -147.5 52t-148.5 56q-126 62 -126 218q0 80 47 149.5t136 113.5t235.5 44t236 -69.5t89.5 -198.5q0 -49 -11 -88h-125q8 45 9 73q0 84 -60.5 128t-174.5 44t-183.5 -48t-69.5 -139t86 -128
q41 -18 138 -49t156.5 -58.5t101.5 -84t42 -145.5t-47 -163.5t-143 -121t-255 -46.5t-255 74t-96 211q0 53 12 92h127q-10 -45 -10 -82zM788 1169l-114 207l-215 -207h-154l305 289h146l162 -289h-130z" />
    <glyph glyph-name="Scedilla" unicode="&#x15e;" horiz-adv-x="1226" 
d="M549 -264q0 76 -92 76q-35 0 -66 -11l-31 31l132 141q-205 6 -313.5 102.5t-108.5 278.5q0 66 14 131h133q-12 -68 -12 -120q0 -268 323 -269q143 0 235.5 47t134.5 119t42 146t-35 123t-98.5 82.5t-182 75.5t-194.5 84q-164 91 -164 294q0 96 57.5 193.5t173 161
t279.5 63.5q444 0 445 -363q0 -57 -15 -116h-135q14 55 14 102q0 256 -319 256q-123 0 -205 -44t-121 -109.5t-39 -131.5q0 -106 69 -161.5t212 -103.5t221 -91q172 -95 172 -305q0 -98 -54 -195.5t-165 -165t-266 -82.5l-96 -104q16 4 36 4q57 0 91 -36t34 -105.5
t-69.5 -124.5t-181 -55t-193.5 55l39 65q70 -41 145.5 -41t114.5 28t39 75z" />
    <glyph glyph-name="scedilla" unicode="&#x15f;" horiz-adv-x="980" 
d="M160 268q0 -184 254 -184q137 0 211.5 55.5t74.5 152.5q0 96 -104 142q-51 22 -147.5 52t-148.5 56q-126 62 -126 218q0 80 47 149.5t136 113.5t235.5 44t236 -69.5t89.5 -198.5q0 -49 -11 -88h-125q9 44 9 73q0 84 -60.5 128t-174.5 44t-183.5 -48t-69.5 -139t86 -128
q41 -18 138 -49t156.5 -58.5t101.5 -84t42 -164t-92 -199.5t-266 -111l-96 -104q16 4 37 4q57 0 91 -36t34 -105.5t-70 -124.5t-181.5 -55t-193.5 55l39 65q70 -41 146 -41t114.5 28t38.5 75q0 76 -92 76q-35 0 -66 -11l-30 31l131 141q-164 8 -252 81t-88 204q0 53 12 92
h127q-10 -45 -10 -82z" />
    <glyph glyph-name="Scaron" unicode="&#x160;" horiz-adv-x="1226" 
d="M1221 1122q0 -57 -15 -116h-135q14 55 14 102q0 256 -319 256q-123 0 -205 -44t-121 -109.5t-39 -131.5q0 -106 69 -161.5t212 -103.5t221 -91q172 -95 172 -305q0 -106 -62.5 -209t-188.5 -169.5t-324.5 -66.5t-314 96.5t-115.5 284.5q0 66 14 131h133q-12 -68 -12 -120
q0 -268 323 -269q143 0 235.5 47t134.5 119t42 146t-35 123t-98.5 82.5t-182 75.5t-194.5 84q-164 91 -164 294q0 96 57.5 193.5t173 161t279.5 63.5q445 -1 445 -363zM731 1556l-164 277h127l117 -195l213 195h156l-303 -277h-146z" />
    <glyph glyph-name="scaron" unicode="&#x161;" horiz-adv-x="980" 
d="M160 268q0 -184 254 -184q137 0 211.5 55.5t74.5 152.5q0 96 -104 142q-51 22 -147.5 52t-148.5 56q-126 62 -126 218q0 80 47 149.5t136 113.5t235.5 44t236 -69.5t89.5 -198.5q0 -49 -11 -88h-125q8 45 9 73q0 84 -60.5 128t-174.5 44t-183.5 -48t-69.5 -139t86 -128
q41 -18 138 -49t156.5 -58.5t101.5 -84t42 -145.5t-47 -163.5t-143 -121t-255 -46.5t-255 74t-96 211q0 53 12 92h127q-10 -45 -10 -82zM539 1169l-162 289h129l115 -207l215 207h153l-305 -289h-145z" />
    <glyph glyph-name="uni0162" unicode="&#x162;" horiz-adv-x="591" 
d="M874 1337l-331 -1337h-133l331 1337h-518l31 121h1171l-32 -121h-519zM330 -514h-58l123 209h-57l41 166h145l-39 -166z" />
    <glyph glyph-name="uni0163" unicode="&#x163;" horiz-adv-x="618" 
d="M274 -139l-38 -166l-156 -209h-57l122 209h-57l41 166h145zM268 207q0 -103 117 -103q37 0 74 9l-29 -111q-45 -8 -74 -8q-111 0 -163 46t-52 146q0 57 17 117l157 631h-188l27 106h188l59 242h127l-59 -242h209l-27 -106h-209l-161 -649q-13 -45 -13 -78z" />
    <glyph glyph-name="Tcaron" unicode="&#x164;" horiz-adv-x="1212" 
d="M874 1337l-331 -1337h-133l331 1337h-518l31 121h1171l-32 -121h-519zM778 1556l-164 277h127l117 -195l213 195h156l-303 -277h-146z" />
    <glyph glyph-name="tcaron" unicode="&#x165;" horiz-adv-x="618" 
d="M268 207q0 -103 117 -103q37 0 74 9l-29 -111q-45 -8 -74 -8q-111 0 -163 46t-52 146q0 57 17 117l157 631h-188l27 106h188l59 242h127l-59 -242h209l-27 -106h-209l-161 -649q-13 -45 -13 -78zM559 1098l154 360h131l-201 -360h-84z" />
    <glyph glyph-name="Tbar" unicode="&#x166;" horiz-adv-x="1212" 
d="M752 846h299l-29 -111h-297l-182 -735h-133l182 735h-295l27 111h294l123 491h-518l31 121h1171l-32 -121h-519z" />
    <glyph glyph-name="tbar" unicode="&#x167;" horiz-adv-x="610" 
d="M385 104q37 0 74 9l-29 -111q-45 -8 -74 -8q-111 0 -163 46t-52 146q0 57 17 117l53 211h-182l24 98h183l79 322h-188l27 106h188l59 242h127l-59 -242h209l-27 -106h-209l-80 -322h203l-24 -98h-203l-57 -229q-12 -45 -13 -78q0 -103 117 -103z" />
    <glyph glyph-name="Utilde" unicode="&#x168;" horiz-adv-x="1431" 
d="M315 401q0 -303 328 -303q164 0 284 101.5t173 302.5l237 956h133l-247 -991q-62 -242 -216.5 -368t-375.5 -126t-334 108.5t-113 313.5q0 86 29 205l215 858h133l-223 -891q-23 -88 -23 -166zM852 1708q-86 0 -121 -111h-102q29 102 90 158.5t135 56.5t154 -54t127 -54
q84 0 122 108h99q-31 -102 -91.5 -158.5t-138.5 -56.5q-43 0 -75.5 15.5t-78.5 44.5t-68.5 40t-51.5 11z" />
    <glyph glyph-name="utilde" unicode="&#x169;" 
d="M115 276q0 66 22 156l152 608h127l-152 -610q-20 -80 -20 -160.5t52 -131t163.5 -50.5t222.5 89t149 247l154 616h127l-260 -1040h-125l33 129h-4q-66 -70 -155 -111t-183 -41q-146 0 -224.5 77t-78.5 222zM747 1279q-84 54 -126 54q-84 0 -119 -108h-103
q29 102 89.5 158.5t140.5 56.5q67 0 153 -59q41 -28 65.5 -40t53.5 -12q86 0 125 111h98q-30 -103 -90.5 -159t-131.5 -56t-155 54z" />
    <glyph glyph-name="Umacron" unicode="&#x16a;" horiz-adv-x="1431" 
d="M315 401q0 -303 328 -303q164 0 284 101.5t173 302.5l237 956h133l-247 -991q-62 -242 -216.5 -368t-375.5 -126t-334 108.5t-113 313.5q0 86 29 205l215 858h133l-223 -891q-23 -88 -23 -166zM702 1624l25 107h539l-25 -107h-539z" />
    <glyph glyph-name="umacron" unicode="&#x16b;" 
d="M115 276q0 66 22 156l152 608h127l-152 -610q-20 -80 -20 -160.5t52 -131t163.5 -50.5t222.5 89t149 247l154 616h127l-260 -1040h-125l33 129h-4q-66 -70 -155 -111t-183 -41q-146 0 -224.5 77t-78.5 222zM477 1278l25 106h538l-24 -106h-539z" />
    <glyph glyph-name="Ubreve" unicode="&#x16c;" horiz-adv-x="1431" 
d="M315 401q0 -303 328 -303q164 0 284 101.5t173 302.5l237 956h133l-247 -991q-62 -242 -216.5 -368t-375.5 -126t-334 108.5t-113 313.5q0 86 29 205l215 858h133l-223 -891q-23 -88 -23 -166zM969 1649q178 0 243 184h111q-37 -135 -129 -210t-218 -75t-190.5 60.5
t-64.5 173.5q0 33 4 51h96q-2 -10 -2 -33q0 -74 39 -112.5t111 -38.5z" />
    <glyph glyph-name="ubreve" unicode="&#x16d;" 
d="M115 276q0 66 22 156l152 608h127l-152 -610q-20 -80 -20 -160.5t52 -131t163.5 -50.5t222.5 89t149 247l154 616h127l-260 -1040h-125l33 129h-4q-66 -70 -155 -111t-183 -41q-146 0 -224.5 77t-78.5 222zM586 1425q0 -149 156 -149q78 0 141 47t94 135h113
q-37 -135 -130.5 -209.5t-219.5 -74.5t-189.5 61t-63.5 174q0 31 5 49h96q-2 -10 -2 -33z" />
    <glyph glyph-name="Uring" unicode="&#x16e;" horiz-adv-x="1431" 
d="M315 401q0 -303 328 -303q164 0 284 101.5t173 302.5l237 956h133l-247 -991q-62 -242 -216.5 -368t-375.5 -126t-334 108.5t-113 313.5q0 86 29 205l215 858h133l-223 -891q-23 -88 -23 -166zM856 1740q0 -50 36 -86t87 -36t86 35t35 86t-35 87t-86 36t-87 -36t-36 -86z
M1178 1741q0 -82 -58.5 -140.5t-140.5 -58.5t-140.5 58.5t-58.5 140.5t58.5 139t140.5 57t140.5 -57t58.5 -139z" />
    <glyph glyph-name="uring" unicode="&#x16f;" 
d="M115 276q0 66 22 156l152 608h127l-152 -610q-20 -80 -20 -160.5t52 -131t163.5 -50.5t222.5 89t149 247l154 616h127l-260 -1040h-125l33 129h-4q-66 -70 -155 -111t-183 -41q-146 0 -224.5 77t-78.5 222zM625 1366q0 -51 35.5 -87t87 -36t86 36t34.5 87t-34.5 86
t-86 35t-87 -35t-35.5 -86zM944 1366q0 -82 -57.5 -140.5t-139 -58.5t-140 58.5t-58.5 140.5t58.5 140.5t140 58.5t139 -58.5t57.5 -140.5z" />
    <glyph glyph-name="Uhungarumlaut" unicode="&#x170;" horiz-adv-x="1431" 
d="M315 401q0 -303 328 -303q164 0 284 101.5t173 302.5l237 956h133l-247 -991q-62 -242 -216.5 -368t-375.5 -126t-334 108.5t-113 313.5q0 86 29 205l215 858h133l-223 -891q-23 -88 -23 -166zM995 1542l291 291h172l-338 -291h-125zM698 1542l291 291h172l-338 -291
h-125z" />
    <glyph glyph-name="uhungarumlaut" unicode="&#x171;" 
d="M115 276q0 66 22 156l152 608h127l-152 -610q-20 -80 -20 -160.5t52 -131t163.5 -50.5t222.5 89t149 247l154 616h127l-260 -1040h-125l33 129h-4q-66 -70 -155 -111t-183 -41q-146 0 -224.5 77t-78.5 222zM768 1169l289 289h172l-338 -289h-123zM471 1169l289 289h172
l-338 -289h-123z" />
    <glyph glyph-name="Uogonek" unicode="&#x172;" horiz-adv-x="1431" 
d="M315 401q0 -303 329 -303q165 0 286 105.5t172 314.5l235 940h133l-243 -975q-73 -288 -259 -410t-249.5 -189.5t-63.5 -125.5t70 -59q43 0 84 14l-23 -94q-37 -12 -90 -12q-164 0 -164 139q0 116 175 229v5q-39 -6 -86 -7q-215 0 -326 106.5t-111 315.5q0 86 29 205
l215 858h133l-223 -891q-23 -88 -23 -166z" />
    <glyph glyph-name="uogonek" unicode="&#x173;" 
d="M674 -393q-166 0 -166 139q0 66 52 126t167 130l33 127h-4q-66 -70 -155 -111t-183 -41q-145 0 -224 77t-79 222q0 66 22 156l152 608h127l-152 -610q-20 -80 -20 -160.5t52 -131t163.5 -50.5t222.5 89t149 247l154 616h127l-260 -1040q-221 -134 -221 -240q0 -61 71 -61
q43 0 84 14l-24 -94q-35 -12 -88 -12z" />
    <glyph glyph-name="Wcircumflex" unicode="&#x174;" horiz-adv-x="1835" 
d="M1118 0v666q0 223 4 669h-4q-20 -41 -184 -370l-475 -965h-209l6 1458h129l-2 -620q0 -238 -4 -713h4l352 717l307 616h203l-2 -616v-717h4l658 1333h141l-719 -1458h-209zM1311 1833l164 -277h-125l-117 195l-215 -195h-156l303 277h146z" />
    <glyph glyph-name="wcircumflex" unicode="&#x175;" horiz-adv-x="1536" 
d="M907 0l-37 926h-4l-241 -455l-254 -471h-183l-43 1040h123l17 -450l16 -475h4l490 925h192l14 -465q12 -301 15 -460h4l489 925h140l-559 -1040h-183zM1100 1169l-115 207l-215 -207h-154l306 289h145l162 -289h-129z" />
    <glyph glyph-name="Ycircumflex" unicode="&#x176;" horiz-adv-x="1232" 
d="M555 0h-135l155 623l-331 835h141l121 -315q51 -129 149 -391h4q229 262 347 391l274 315h176l-747 -835zM979 1833l164 -277h-125l-117 195l-215 -195h-156l304 277h145z" />
    <glyph glyph-name="ycircumflex" unicode="&#x177;" horiz-adv-x="933" 
d="M-71.5 -387q-75.5 0 -114.5 12l26 109q31 -8 90.5 -8t111.5 22.5t102.5 79.5t123.5 172l-149 1040h129l119 -878h4l557 878h145l-694 -1089q-86 -135 -155.5 -208t-144.5 -101.5t-150.5 -28.5zM766 1169l-115 207l-215 -207h-153l305 289h145l162 -289h-129z" />
    <glyph glyph-name="Ydieresis" unicode="&#x178;" horiz-adv-x="1232" 
d="M555 0h-135l155 623l-331 835h141l121 -315q51 -129 149 -391h4q229 262 347 391l274 315h176l-747 -835zM973 1593l45 181h125l-45 -181h-125zM596 1593l45 181h125l-45 -181h-125z" />
    <glyph glyph-name="Zacute" unicode="&#x179;" horiz-adv-x="1142" 
d="M100 121h906l-29 -121h-1071l37 147l1163 1186v4h-850l31 121h1013l-36 -147l-1164 -1186v-4zM678 1556l246 277h180l-297 -277h-129z" />
    <glyph glyph-name="zacute" unicode="&#x17a;" horiz-adv-x="944" 
d="M117 111h674l-27 -111h-842l31 125l854 801v4h-633l29 110h801l-31 -125l-856 -800v-4zM475 1169l248 289h180l-299 -289h-129z" />
    <glyph glyph-name="Zdotaccent" unicode="&#x17b;" horiz-adv-x="1142" 
d="M100 121h906l-29 -121h-1071l37 147l1163 1186v4h-850l31 121h1013l-36 -147l-1164 -1186v-4zM743 1593l45 181h127l-45 -181h-127z" />
    <glyph glyph-name="zdotaccent" unicode="&#x17c;" horiz-adv-x="944" 
d="M117 111h674l-27 -111h-842l31 125l854 801v4h-633l29 110h801l-31 -125l-856 -800v-4zM557 1278l43 180h127l-43 -180h-127z" />
    <glyph glyph-name="Zcaron" unicode="&#x17d;" horiz-adv-x="1142" 
d="M100 121h906l-29 -121h-1071l37 147l1163 1186v4h-850l31 121h1013l-36 -147l-1164 -1186v-4zM725 1556l-164 277h127l117 -195l213 195h156l-304 -277h-145z" />
    <glyph glyph-name="zcaron" unicode="&#x17e;" horiz-adv-x="944" 
d="M117 111h674l-27 -111h-842l31 125l854 801v4h-633l29 110h801l-31 -125l-856 -800v-4zM520 1169l-162 289h129l115 -207l215 207h154l-305 -289h-146z" />
    <glyph glyph-name="longs" unicode="&#x17f;" horiz-adv-x="587" 
d="M705 1358q-78 0 -127.5 -45t-73.5 -150l-289 -1163h-127l234 934h-189l27 106h188l39 156q66 270 311 270q54 0 95 -10l-27 -106q-29 8 -61 8z" />
    <glyph glyph-name="Schwa" unicode="&#x18f;" horiz-adv-x="1492" 
d="M248 498q0 -193 106.5 -297.5t276.5 -104.5t300 68.5t222 195.5t133 297h-1018q-20 -80 -20 -159zM1470 920q0 -215 -97 -435.5t-284.5 -366t-442.5 -145.5t-394 140.5t-139 390.5q0 125 51 274h1151q14 78 14 150q0 211 -110.5 322.5t-298.5 111.5t-329.5 -93
t-207.5 -245h-152q80 203 261.5 332t437.5 129t398 -148.5t142 -416.5z" />
    <glyph glyph-name="florin" unicode="&#x192;" horiz-adv-x="1114" 
d="M-72 -387q-74 0 -104 12l29 113q23 -8 63 -8q88 0 152.5 53t140.5 207l434 866h-201l23 102h227l92 185q90 180 185.5 252.5t240.5 72.5q54 0 93 -12l-29 -113q-24 9 -96 9q-148 1 -263 -226l-84 -168h222l-25 -102h-244l-444 -883q-68 -135 -130.5 -212.5t-135 -112.5
t-146.5 -35z" />
    <glyph glyph-name="Aringacute" unicode="&#x1fa;" horiz-adv-x="1359" 
d="M1001 594l-104 756h-4q-227 -362 -383 -605l-96 -151h587zM336 471l-299 -471h-154l940 1458h183l213 -1458h-136l-65 471h-682zM807 1699q0 -50 36 -86t87 -36t86 35t35 86t-35 87t-86 36t-87 -36t-36 -86zM1128 1700q0 -82 -58 -140.5t-140 -58.5t-140.5 58.5
t-58.5 140.5t58.5 139t140.5 57t140 -57t58 -139zM821 1939l246 277h180l-297 -277h-129z" />
    <glyph glyph-name="aringacute" unicode="&#x1fb;" horiz-adv-x="1073" 
d="M154 261q0 -85 56 -130t159 -45q143 0 249.5 90t149.5 250l25 102q-455 -26 -569 -122q-70 -60 -70 -145zM840 760q0 198 -239 198q-116 0 -194.5 -63.5t-101.5 -167.5h-133q33 150 152.5 245t286.5 95t257 -77t90 -230q0 -59 -18 -137l-90 -367q-39 -158 -43 -256h-121
q4 80 21 137h-5q-139 -158 -366 -157q-150 0 -235 71.5t-85 190.5q0 289 451 356q168 25 352 37l6 24q14 57 15 101zM563 1321q0 -51 36 -87t87 -36t86 36t35 87t-35 86t-86 35t-87 -35t-36 -86zM883 1321q0 -82 -57.5 -140.5t-139.5 -58.5t-140.5 58.5t-58.5 140.5
t58.5 140.5t140.5 58.5t139.5 -58.5t57.5 -140.5zM594 1573l248 289h180l-299 -289h-129z" />
    <glyph glyph-name="AEacute" unicode="&#x1fc;" horiz-adv-x="1892" 
d="M1022 1337l-533 -710h496l70 710h-33zM1130 809h658l-31 -121h-641l-55 -567h618l-28 -121h-727l49 506h-576l-379 -506h-159l1093 1458h1037l-31 -121h-778zM1167 1556l246 277h180l-297 -277h-129z" />
    <glyph glyph-name="aeacute" unicode="&#x1fd;" horiz-adv-x="1748" 
d="M522 494q-367 0 -370 -232q2 -86 54 -134t152 -48q150 0 262.5 97t151.5 269l12 48h-262zM1310 958q-126 0 -233.5 -96t-152.5 -262h628q8 43 9 90q0 268 -251 268zM1327 1067q170 0 261 -101.5t91 -281.5q0 -74 -28 -190h-752q-12 -64 -12 -119q0 -143 67.5 -218
t182.5 -75t200.5 62.5t126.5 164.5h131q-55 -143 -176 -239.5t-272 -96.5q-294 0 -352 267q-72 -125 -187.5 -196t-263.5 -71t-238 74t-90 195q0 88 47.5 169t161 135t301.5 54h285l12 51q12 51 13 97q0 210 -228 210q-123 0 -200.5 -63.5t-102.5 -167.5h-133
q33 150 152.5 245t291.5 95q269 0 318 -211q159 211 393 211zM913 1169l248 289h180l-299 -289h-129z" />
    <glyph glyph-name="Oslashacute" unicode="&#x1fe;" horiz-adv-x="1482" 
d="M1315 864.5q0 159.5 -43 259.5l-897 -888q109 -137 302 -137.5t337.5 119.5t222.5 303.5t78 343zM907 1360q-194 0 -337.5 -121t-220.5 -305t-77 -339t41 -259l897 889q-109 135 -303 135zM920 1485q244 0 389 -162l143 141l78 -82l-156 -153q78 -139 78 -344t-94 -419
t-272.5 -353.5t-422 -139.5t-389.5 164l-143 -143l-80 82l158 155q-74 137 -74 342t93.5 419t270.5 353.5t421 139.5zM881 1556l245 277h181l-297 -277h-129z" />
    <glyph glyph-name="oslashacute" unicode="&#x1ff;" horiz-adv-x="1132" 
d="M920 619.5q0 103.5 -21 162.5l-620 -614q68 -84 203.5 -84t235 87t151 216t51.5 232.5zM211 422.5q0 -101.5 18 -160.5l621 612q-70 82 -204 82t-233.5 -87t-150.5 -216t-51 -230.5zM1049 634.5q0 -149.5 -68 -304t-198 -256t-311 -101.5t-282 107l-120 -119l-72 72
l133 131q-47 100 -47 246.5t66.5 300t197.5 255t310 101.5t280 -104l119 118l71 -71l-131 -129q52 -97 52 -246.5zM610 1169l248 289h180l-299 -289h-129z" />
    <glyph glyph-name="Scommaaccent" unicode="&#x218;" horiz-adv-x="1226" 
d="M1221 1122q0 -57 -15 -116h-135q14 55 14 102q0 256 -319 256q-123 0 -205 -44t-121 -109.5t-39 -131.5q0 -106 69 -161.5t212 -103.5t221 -91q172 -95 172 -305q0 -106 -62.5 -209t-188.5 -169.5t-324.5 -66.5t-314 96.5t-115.5 284.5q0 66 14 131h133q-12 -68 -12 -120
q0 -268 323 -269q143 0 235.5 47t134.5 119t42 146t-35 123t-98.5 82.5t-182 75.5t-194.5 84q-164 91 -164 294q0 96 57.5 193.5t173 161t279.5 63.5q445 -1 445 -363zM358 -514h-57l123 209h-57l41 166h145l-39 -166z" />
    <glyph glyph-name="scommaaccent" unicode="&#x219;" horiz-adv-x="980" 
d="M160 268q0 -184 254 -184q137 0 211.5 55.5t74.5 152.5q0 96 -104 142q-51 22 -147.5 52t-148.5 56q-126 62 -126 218q0 80 47 149.5t136 113.5t235.5 44t236 -69.5t89.5 -198.5q0 -49 -11 -88h-125q8 45 9 73q0 84 -60.5 128t-174.5 44t-183.5 -48t-69.5 -139t86 -128
q41 -18 138 -49t156.5 -58.5t101.5 -84t42 -145.5t-47 -163.5t-143 -121t-255 -46.5t-255 74t-96 211q0 53 12 92h127q-10 -45 -10 -82zM238 -514h-58l123 209h-57l41 166h145l-39 -166z" />
    <glyph glyph-name="uni021A" unicode="&#x21a;" horiz-adv-x="1212" 
d="M874 1337l-331 -1337h-133l331 1337h-518l31 121h1171l-32 -121h-519zM330 -514h-58l123 209h-57l41 166h145l-39 -166z" />
    <glyph glyph-name="uni021B" unicode="&#x21b;" horiz-adv-x="618" 
d="M268 207q0 -103 117 -103q37 0 74 9l-29 -111q-45 -8 -74 -8q-111 0 -163 46t-52 146q0 57 17 117l157 631h-188l27 106h188l59 242h127l-59 -242h209l-27 -106h-209l-161 -649q-13 -45 -13 -78zM80 -514h-57l122 209h-57l41 166h145l-38 -166z" />
    <glyph glyph-name="dotlessj" unicode="&#x237;" horiz-adv-x="481" 
d="M-162 -387q-53 0 -96 12l27 109q31 -8 59 -8q82 0 132 48t79 163l274 1103h127l-284 -1136q-39 -154 -119 -222.5t-199 -68.5z" />
    <glyph glyph-name="schwa" unicode="&#x259;" horiz-adv-x="1103" 
d="M459 82q135 0 249.5 99.5t159.5 275.5h-669q-12 -59 -13 -107q0 -129 69 -198.5t204 -69.5zM1026 676q0 -176 -68.5 -334t-201 -263.5t-314.5 -105.5t-277 101.5t-95 281.5q0 98 39 205h782q10 47 10 105q0 143 -72.5 217.5t-194.5 74.5t-211 -57t-134 -153h-133
q57 137 183 228t306 91t280.5 -107.5t100.5 -283.5z" />
    <glyph glyph-name="uni02BC" unicode="&#x2bc;" horiz-adv-x="468" 
d="M360 1012h-90l127 262h-59l43 184h172l-43 -184z" />
    <glyph glyph-name="circumflex" unicode="&#x2c6;" horiz-adv-x="817" 
d="M748 1169l-115 207l-215 -207h-154l305 289h146l162 -289h-129z" />
    <glyph glyph-name="caron" unicode="&#x2c7;" horiz-adv-x="817" 
d="M498 1169l-162 289h129l115 -207l215 207h153l-305 -289h-145z" />
    <glyph glyph-name="uni02C9" unicode="&#x2c9;" horiz-adv-x="743" 
d="M293 1278l24 106h539l-25 -106h-538z" />
    <glyph glyph-name="breve" unicode="&#x2d8;" horiz-adv-x="802" 
d="M430 1425q0 -149 150 -149q86 0 148.5 47t92.5 135h113q-37 -135 -130 -209.5t-219 -74.5t-189.5 61t-63.5 174q0 31 4 49h96q-2 -10 -2 -33z" />
    <glyph glyph-name="dotaccent" unicode="&#x2d9;" horiz-adv-x="331" 
d="M293 1278l43 180h127l-43 -180h-127z" />
    <glyph glyph-name="ring" unicode="&#x2da;" horiz-adv-x="614" 
d="M395 1366q0 -51 36 -87t87 -36t86 36t35 87t-35 86t-86 35t-87 -35t-36 -86zM715 1366q0 -82 -57.5 -140.5t-139.5 -58.5t-140.5 58.5t-58.5 140.5t58.5 140.5t140.5 58.5t139.5 -58.5t57.5 -140.5z" />
    <glyph glyph-name="ogonek" unicode="&#x2db;" horiz-adv-x="495" 
d="M37 -240q0 -61 72 -61q43 0 84 14l-25 -94q-35 -12 -88 -12q-166 0 -166 103.5t53 163.5t172 132l119 -6q-221 -134 -221 -240z" />
    <glyph glyph-name="tilde" unicode="&#x2dc;" horiz-adv-x="878" 
d="M776 1225q-43 0 -76.5 15t-94.5 54t-103 39q-84 0 -119 -108h-102q29 102 89 158.5t134 56.5t155 -56t123 -55q86 0 125 111h99q-31 -103 -91.5 -159t-138.5 -56z" />
    <glyph glyph-name="hungarumlaut" unicode="&#x2dd;" horiz-adv-x="890" 
d="M561 1169l289 289h172l-338 -289h-123zM264 1169l289 289h172l-338 -289h-123z" />
    <glyph glyph-name="uni0312" unicode="&#x312;" horiz-adv-x="0" 
d="M461 1366l-43 -166h-146l41 166l154 209h57l-121 -209h58z" />
    <glyph glyph-name="commaaccent" unicode="&#x326;" horiz-adv-x="0" 
d="M-96 -514h-58l123 209h-57l41 166h145l-39 -166z" />
    <glyph glyph-name="uni0333" unicode="&#x333;" horiz-adv-x="0" 
d="M-1262 -430l21 78h1024l-21 -78h-1024zM-1200 -180l20 78h1024l-20 -78h-1024z" />
    <glyph glyph-name="numeralsigngreek" unicode="&#x374;" horiz-adv-x="331" 
d="M190 1040l183 418h131l-228 -418h-86z" />
    <glyph glyph-name="numeralsignlowergreek" unicode="&#x375;" horiz-adv-x="331" 
d="M-117 -188l183 417h131l-228 -417h-86z" />
    <glyph glyph-name="questiongreek" unicode="&#x37e;" horiz-adv-x="430" 
d="M23 -266h-93l129 266h-61l47 188h174l-45 -188zM211 852l47 188h174l-45 -188h-176z" />
    <glyph glyph-name="tonos" unicode="&#x384;" horiz-adv-x="428" 
d="M266 1178l170 321h133l-198 -321h-105z" />
    <glyph glyph-name="dieresistonos" unicode="&#x385;" horiz-adv-x="854" 
d="M799 1206l47 189h123l-45 -189h-125zM274 1206l45 189h125l-47 -189h-123zM498 1178l151 288h119l-170 -288h-100z" />
    <glyph glyph-name="Alphatonos" unicode="&#x386;" horiz-adv-x="1359" 
d="M1001 594l-104 756h-4q-227 -362 -383 -605l-96 -151h587zM336 471l-299 -471h-154l940 1458h183l213 -1458h-136l-65 471h-682zM268 1055l191 403h133l-219 -403h-105z" />
    <glyph glyph-name="anoteleia" unicode="&#x387;" horiz-adv-x="430" 
d="M211 854l45 186h174l-45 -186h-174z" />
    <glyph glyph-name="Epsilontonos" unicode="&#x388;" horiz-adv-x="1249" 
d="M543 1337l-129 -528h733l-31 -121h-735l-141 -567h798l-28 -121h-932l362 1458h908l-31 -121h-774zM-25 1055l191 403h133l-219 -403h-105z" />
    <glyph glyph-name="Etatonos" unicode="&#x389;" horiz-adv-x="1497" 
d="M1028 0l174 696h-819l-172 -696h-133l362 1458h133l-157 -641h817l158 641h133l-363 -1458h-133zM-25 1055l191 403h133l-219 -403h-105z" />
    <glyph glyph-name="Iotatonos" unicode="&#x38a;" horiz-adv-x="546" 
d="M78 0l362 1458h133l-362 -1458h-133zM-25 1055l191 403h133l-219 -403h-105z" />
    <glyph glyph-name="Omicrontonos" unicode="&#x38c;" horiz-adv-x="1482" 
d="M272 553q0 -197 108.5 -326t299 -129t335 120t222.5 303.5t78 382t-109.5 327.5t-301 129t-335 -121t-220.5 -305t-77 -381zM1450 870.5q0 -194.5 -93 -407.5t-269.5 -351.5t-407.5 -138.5q-170 0 -292 75t-186.5 210t-64.5 330.5t92.5 407.5t267.5 350.5t406 138.5
q170 0 294 -75t188.5 -210t64.5 -329.5zM39 1055l190 403h133l-219 -403h-104z" />
    <glyph glyph-name="Upsilontonos" unicode="&#x38e;" horiz-adv-x="1232" 
d="M555 0h-135l155 623l-331 835h141l121 -315q51 -129 149 -391h4q229 262 347 391l274 315h176l-747 -835zM-145 1055l190 403h133l-219 -403h-104z" />
    <glyph glyph-name="Omegatonos" unicode="&#x38f;" horiz-adv-x="1486" 
d="M1464 995.5q0 -239.5 -132 -448.5t-392 -422v-4h363l-29 -121h-526l30 125q279 225 411 425t132 406t-107.5 305t-300.5 99t-332 -102.5t-209.5 -259t-70.5 -311.5t49 -283t146 -279l-31 -125h-510l29 121h374v4q-92 150 -141 283t-49 303.5t86 353t258 301.5t420 119
t390 -125t142 -364.5zM33 1055l190 403h133l-219 -403h-104z" />
    <glyph glyph-name="iotadieresistonos" unicode="&#x390;" horiz-adv-x="530" 
d="M219 201q0 -99 121 -99q37 0 68 11l-27 -113q-41 -8 -70 -8q-115 0 -168 45t-53 147q0 57 23 144l176 712h127l-176 -712q-21 -78 -21 -127zM596 1206l47 189h123l-45 -189h-125zM72 1206l45 189h125l-47 -189h-123zM295 1178l151 288h119l-170 -288h-100z" />
    <glyph glyph-name="Alpha" unicode="&#x391;" horiz-adv-x="1359" 
d="M1001 594l-104 756h-4q-227 -362 -383 -605l-96 -151h587zM336 471l-299 -471h-154l940 1458h183l213 -1458h-136l-65 471h-682z" />
    <glyph glyph-name="Beta" unicode="&#x392;" horiz-adv-x="1259" 
d="M995 449q0 237 -303 237h-311l-141 -569h358q137 0 226 50t130 126t41 156zM707 803q155 0 251 49t139 124q42 75 42 152q0 213 -308 213h-286l-135 -538h297zM602 0h-524l362 1458h416q209 0 313 -84q105 -84 105 -221t-85 -252t-245 -164v-4q90 -27 139 -103t49 -182
q0 -108 -58 -210q-60 -102 -181 -170t-291 -68z" />
    <glyph glyph-name="Gamma" unicode="&#x393;" horiz-adv-x="978" 
d="M440 1458h752l-31 -121h-618l-332 -1337h-133z" />
    <glyph glyph-name="uni0394" unicode="&#x394;" horiz-adv-x="1359" 
d="M1067 121l-168 1229h-4q-227 -362 -383 -605l-397 -624h952zM-117 0l940 1458h183l213 -1458h-1336z" />
    <glyph glyph-name="Epsilon" unicode="&#x395;" horiz-adv-x="1249" 
d="M543 1337l-129 -528h733l-31 -121h-735l-141 -567h798l-28 -121h-932l362 1458h908l-31 -121h-774z" />
    <glyph glyph-name="Zeta" unicode="&#x396;" horiz-adv-x="1142" 
d="M100 121h906l-29 -121h-1071l37 147l1163 1186v4h-850l31 121h1013l-36 -147l-1164 -1186v-4z" />
    <glyph glyph-name="Eta" unicode="&#x397;" horiz-adv-x="1497" 
d="M1028 0l174 696h-819l-172 -696h-133l362 1458h133l-157 -641h817l158 641h133l-363 -1458h-133z" />
    <glyph glyph-name="Theta" unicode="&#x398;" horiz-adv-x="1482" 
d="M471 666l33 131h608l-33 -131h-608zM272 552q0 -198 109 -326t299 -128t334.5 120t222.5 304t78 382t-109.5 327t-301.5 129t-336 -121t-220 -305t-76 -382zM1452 878q0 -196 -94 -410t-272.5 -354.5t-413.5 -140.5q-168 0 -289 74t-184.5 205.5t-63.5 327.5t93.5 411
t270.5 354.5t414 139.5q168 0 290 -74t185.5 -205.5t63.5 -327.5z" />
    <glyph glyph-name="Iota" unicode="&#x399;" horiz-adv-x="546" 
d="M78 0l362 1458h133l-362 -1458h-133z" />
    <glyph glyph-name="Kappa" unicode="&#x39a;" horiz-adv-x="1243" 
d="M1104 0h-170l-535 739h-4l-184 -739h-133l362 1458h133l-163 -657h4l788 657h199l-854 -704z" />
    <glyph glyph-name="Lambda" unicode="&#x39b;" horiz-adv-x="1325" 
d="M1044 0l-92 743q-43 354 -73 600h-5l-147 -237q-215 -348 -225 -363l-461 -743h-158l920 1458h188l195 -1458h-142z" />
    <glyph glyph-name="Mu" unicode="&#x39c;" horiz-adv-x="1861" 
d="M1393 0l327 1313h-4l-104 -164q-215 -338 -260 -406l-473 -743h-156l-105 743l-36 275q-29 197 -41 295h-4l-326 -1313h-133l362 1458h205l164 -1198l14 -117h4l834 1315h227l-362 -1458h-133z" />
    <glyph glyph-name="Nu" unicode="&#x39d;" horiz-adv-x="1525" 
d="M1001 0l-225 647q-133 383 -233 678h-4q-37 -152 -152 -606l-176 -719h-133l362 1458h189l225 -647q133 -383 233 -678h5q104 426 180 729l147 596h133l-362 -1458h-189z" />
    <glyph glyph-name="Xi" unicode="&#x39e;" horiz-adv-x="1339" 
d="M-8 0l35 133h1095l-32 -133h-1098zM221 664l33 133h971l-35 -133h-969zM350 1325l33 133h1040l-32 -133h-1041z" />
    <glyph glyph-name="Omicron" unicode="&#x39f;" horiz-adv-x="1482" 
d="M272 553q0 -197 108.5 -326t299 -129t335 120t222.5 303.5t78 382t-109.5 327.5t-301 129t-335 -121t-220.5 -305t-77 -381zM1450 870.5q0 -194.5 -93 -407.5t-269.5 -351.5t-407.5 -138.5q-170 0 -292 75t-186.5 210t-64.5 330.5t92.5 407.5t267.5 350.5t406 138.5
q170 0 294 -75t188.5 -210t64.5 -329.5z" />
    <glyph glyph-name="Pi" unicode="&#x3a0;" horiz-adv-x="1476" 
d="M1008 0l331 1337h-796l-332 -1337h-133l362 1458h1063l-362 -1458h-133z" />
    <glyph glyph-name="Rho" unicode="&#x3a1;" horiz-adv-x="1241" 
d="M768 729q137 0 227 52t133 131t43 159q0 129 -81 198q-82 69 -246 68h-301l-152 -608h377zM1307 1077q1 -115 -59 -223t-183 -176q-123 -70 -301 -70h-404l-149 -608h-133l362 1458h412q223 0 339 -101t116 -280z" />
    <glyph glyph-name="Sigma" unicode="&#x3a3;" horiz-adv-x="1122" 
d="M422 1337v-2l291 -610l-590 -600v-4h864l-29 -121h-1046l31 131l610 619l-285 596l29 112h995l-30 -121h-840z" />
    <glyph glyph-name="Tau" unicode="&#x3a4;" horiz-adv-x="1212" 
d="M874 1337l-331 -1337h-133l331 1337h-518l31 121h1171l-32 -121h-519z" />
    <glyph glyph-name="Upsilon" unicode="&#x3a5;" horiz-adv-x="1232" 
d="M555 0h-135l155 623l-331 835h141l121 -315q51 -129 149 -391h4q229 262 347 391l274 315h176l-747 -835z" />
    <glyph glyph-name="Phi" unicode="&#x3a6;" horiz-adv-x="1581" 
d="M807 229q194 0 327.5 86t198 217.5t64.5 262.5q0 176 -94.5 288.5t-268.5 145.5l-250 -1000h23zM885 1241q-193 0 -327 -87t-199.5 -217t-65.5 -261q0 -178 93 -290t267 -144l250 999h-18zM1538 807q0 -172 -83 -333t-252 -264.5t-408 -103.5h-41l-39 -155h-133l41 168
q-225 37 -348 180t-123 371q0 164 82.5 324.5t250.5 265t412 104.5h37l37 143h133l-39 -155q227 -37 350 -178.5t123 -366.5z" />
    <glyph glyph-name="Chi" unicode="&#x3a7;" horiz-adv-x="1263" 
d="M1114 0h-145l-291 647h-4l-602 -647h-181l713 760l-321 698h145l274 -604h5l561 604h180l-674 -715z" />
    <glyph glyph-name="Psi" unicode="&#x3a8;" horiz-adv-x="1540" 
d="M203 838q0 96 35 231l96 389h135l-102 -411q-31 -121 -31 -207q0 -156 88 -230.5t278 -89.5l234 938h133l-233 -942q170 4 282.5 51t185 146.5t115.5 265.5l119 479h133l-127 -510q-76 -297 -250 -428t-483 -135h-8l-96 -385h-134l97 391q-238 23 -352.5 129.5
t-114.5 317.5z" />
    <glyph glyph-name="uni03A9" unicode="&#x3a9;" horiz-adv-x="1486" 
d="M1464 995.5q0 -239.5 -132 -448.5t-392 -422v-4h363l-29 -121h-526l30 125q279 225 411 425t132 406t-107.5 305t-300.5 99t-332 -102.5t-209.5 -259t-70.5 -311.5t49 -283t146 -279l-31 -125h-510l29 121h374v4q-92 150 -141 283t-49 303.5t86 353t258 301.5t420 119
t390 -125t142 -364.5z" />
    <glyph glyph-name="Iotadieresis" unicode="&#x3aa;" horiz-adv-x="546" 
d="M78 0l362 1458h133l-362 -1458h-133zM692 1696l43 180h125l-43 -180h-125zM315 1696l43 180h125l-45 -180h-123z" />
    <glyph glyph-name="Upsilondieresis" unicode="&#x3ab;" horiz-adv-x="1232" 
d="M555 0h-135l155 623l-331 835h141l121 -315q51 -129 149 -391h4q229 262 347 391l274 315h176l-747 -835zM973 1593l45 181h125l-45 -181h-125zM596 1593l45 181h125l-45 -181h-125z" />
    <glyph glyph-name="alphatonos" unicode="&#x3ac;" horiz-adv-x="1175" 
d="M215 385q0 -137 62.5 -219t187.5 -82t221 87t145.5 218t49.5 269t-63.5 220.5t-187.5 82.5t-220.5 -87.5t-145.5 -219.5t-49 -269zM78 360.5q0 172.5 65.5 333t191.5 267t296 106.5q123 0 205 -65.5t104 -172.5h4q33 129 68 211h127q-61 -156 -115 -368l-98 -404
q-34 -124 0 -156q16 -16 49 -16t57 8l-26 -104q-41 -10 -100.5 -10t-95.5 35.5t-36 109.5h-4q-141 -158 -323.5 -158t-275.5 105.5t-93 278zM653 1178l170 321h133l-198 -321h-105z" />
    <glyph glyph-name="epsilontonos" unicode="&#x3ad;" horiz-adv-x="983" 
d="M412 88q241 0 299 211h135q-37 -154 -156 -240t-292 -86t-265 71t-92 186.5t69.5 198.5t204.5 118v4q-123 66 -122 192q0 74 45 149t139 125t240.5 50t233.5 -73.5t87 -209.5q0 -18 -4 -55h-133q4 37 4 49q0 174 -213 174q-88 0 -148.5 -30.5t-90 -76.5t-29.5 -95
q0 -78 64.5 -124t174.5 -46h92l-26 -107h-125q-164 0 -246 -63.5t-82 -147.5t61.5 -129t174.5 -45zM602 1178l170 321h133l-198 -321h-105z" />
    <glyph glyph-name="etatonos" unicode="&#x3ae;" horiz-adv-x="1171" 
d="M754 1063q143 0 223 -77t80 -222q0 -66 -23 -156l-246 -987h-126l245 989q53 212 -31 292q-52 50 -164 50t-222.5 -89t-149.5 -247l-154 -616h-127l189 758q16 70 16 106q0 76 -69 76q-27 0 -52 -8l27 108q27 10 68 11q143 0 143 -146l-2 -26h4q155 184 371 184z
M631 1178l170 321h133l-199 -321h-104z" />
    <glyph glyph-name="iotatonos" unicode="&#x3af;" horiz-adv-x="530" 
d="M219 201q0 -99 121 -99q37 0 68 11l-27 -113q-41 -8 -70 -8q-115 0 -168 45t-53 147q0 57 23 144l176 712h127l-176 -712q-21 -78 -21 -127zM332 1178l170 321h133l-199 -321h-104z" />
    <glyph glyph-name="upsilondieresistonos" unicode="&#x3b0;" horiz-adv-x="1155" 
d="M393 881q0 -43 -20 -131l-88 -359q-16 -66 -17 -108q0 -104 61.5 -151.5t182.5 -47.5q160 0 256 123t134 297t38 309t-18 227h127q14 -88 14 -194q0 -213 -53.5 -410.5t-180.5 -330t-333 -132.5q-354 0 -355 310q0 57 23 141l84 338q16 72 16 108q0 70 -69 70
q-27 0 -52 -8l27 108q35 10 76 11q147 0 147 -170zM879 1206l47 189h123l-45 -189h-125zM354 1206l45 189h125l-47 -189h-123zM578 1178l151 288h119l-170 -288h-100z" />
    <glyph glyph-name="alpha" unicode="&#x3b1;" horiz-adv-x="1175" 
d="M215 385q0 -137 62.5 -219t187.5 -82t221 87t145.5 218t49.5 269t-63.5 220.5t-187.5 82.5t-220.5 -87.5t-145.5 -219.5t-49 -269zM78 360.5q0 172.5 65.5 333t191.5 267t296 106.5q123 0 205 -65.5t104 -172.5h4q33 129 68 211h127q-61 -156 -115 -368l-98 -404
q-34 -124 0 -156q16 -16 49 -16t57 8l-26 -104q-41 -10 -100.5 -10t-95.5 35.5t-36 109.5h-4q-141 -158 -323.5 -158t-275.5 105.5t-93 278z" />
    <glyph glyph-name="beta" unicode="&#x3b2;" horiz-adv-x="1171" 
d="M262 334q0 -115 70 -178.5t206 -63.5t222 56.5t127 140.5t41 170q0 139 -89 204.5t-274 65.5h-33l29 119h35q152 0 288 64.5t136 242.5q0 104 -55.5 160.5t-163.5 56.5q-154 0 -247 -95t-144 -300l-136 -549q-12 -51 -12 -94zM1153 1176q0 -142 -84 -247.5t-244 -140.5
v-4q102 -23 166 -106.5t64 -210.5t-57.5 -236.5t-173 -180t-279.5 -70.5q-268 0 -334 176h-4l-133 -535h-127l340 1368q125 496 530 496q164 0 250 -83.5t86 -225.5z" />
    <glyph glyph-name="gamma" unicode="&#x3b3;" horiz-adv-x="1034" 
d="M369 374q0 210 -43 388t-156 178q-25 0 -49 -6l26 106q37 10 72 11q137 0 198.5 -165t61.5 -485q0 -119 -20 -237h4q199 225 322.5 427t209.5 449h135q-102 -290 -255.5 -523.5t-411.5 -502.5q-56 -223 -119 -393h-127q78 217 115 380t37 373z" />
    <glyph glyph-name="delta" unicode="&#x3b4;" horiz-adv-x="1132" 
d="M203 364q0 -122 73.5 -201t206.5 -79t228.5 72.5t143.5 181t48 220.5q0 221 -205 376q-163 -45 -275 -135t-166 -201.5t-54 -233.5zM735 1368q-111 0 -153.5 -31.5t-42.5 -77t46 -87.5t177 -132q272 -188 272 -475q0 -139 -66.5 -276t-194.5 -226.5t-309 -89.5
t-287.5 107.5t-106.5 296.5q0 125 57 248t174 223t289 151v5q-100 80 -140 129t-40 129t76.5 148.5t240.5 68.5q242 0 432 -76l-29 -113q-184 78 -395 78z" />
    <glyph glyph-name="epsilon" unicode="&#x3b5;" horiz-adv-x="983" 
d="M412 88q241 0 299 211h135q-37 -154 -156 -240t-292 -86t-265 71t-92 186.5t69.5 198.5t204.5 118v4q-123 66 -122 192q0 74 45 149t139 125t240.5 50t233.5 -73.5t87 -209.5q0 -18 -4 -55h-133q4 37 4 49q0 174 -213 174q-88 0 -148.5 -30.5t-90 -76.5t-29.5 -95
q0 -78 64.5 -124t174.5 -46h92l-26 -107h-125q-164 0 -246 -63.5t-82 -147.5t61.5 -129t174.5 -45z" />
    <glyph glyph-name="zeta" unicode="&#x3b6;" horiz-adv-x="899" 
d="M590 -100q0 51 -40 82.5t-136 50.5q-174 33 -258 120t-84 237t90 320.5t264 337t418 300.5v4h-492l25 106h692l-25 -106q-268 -133 -457.5 -297t-283.5 -329t-94 -294t61.5 -190.5t196.5 -88t194.5 -78.5t59.5 -148t-84 -224h-125q78 112 78 197z" />
    <glyph glyph-name="eta" unicode="&#x3b7;" horiz-adv-x="1171" 
d="M754 1063q143 0 223 -77t80 -222q0 -66 -23 -156l-246 -987h-126l245 989q53 212 -31 292q-52 50 -164 50t-222.5 -89t-149.5 -247l-154 -616h-127l189 758q16 70 16 106q0 76 -69 76q-27 0 -52 -8l27 108q27 10 68 11q143 0 143 -146l-2 -26h4q155 184 371 184z" />
    <glyph glyph-name="theta" unicode="&#x3b8;" horiz-adv-x="1185" 
d="M502 84q178 0 305 172t192 420h-735q-23 -131 -22 -230q0 -176 66.5 -269t193.5 -93zM1047 1014q0 174 -67 267t-196 93q-178 0 -305 -172t-190 -420h735q23 132 23 232zM1171 1017q0 -220 -79.5 -463t-232.5 -412t-351 -169t-294.5 123.5t-96.5 343.5t79.5 463.5
t232.5 412.5t351 169t294.5 -124t96.5 -344z" />
    <glyph glyph-name="iota" unicode="&#x3b9;" horiz-adv-x="530" 
d="M219 201q0 -99 121 -99q37 0 68 11l-27 -113q-41 -8 -70 -8q-115 0 -168 45t-53 147q0 57 23 144l176 712h127l-176 -712q-21 -78 -21 -127z" />
    <glyph glyph-name="kappa" unicode="&#x3ba;" horiz-adv-x="1030" 
d="M1063 934q-84 0 -178 -55.5t-269 -210.5l-133 -115l422 -553h-155l-357 473l-137 -119l-88 -354h-127l260 1040h127l-127 -503h4l303 268q164 143 261.5 193.5t199.5 50.5q37 -1 68 -11l-27 -108q-25 4 -47 4z" />
    <glyph glyph-name="lambda" unicode="&#x3bb;" horiz-adv-x="1120" 
d="M958 102q18 0 39 4l-26 -108q-20 -6 -66 -6t-101 30t-81 226q-53 395 -84 635h-4q-117 -168 -354 -500l-271 -383h-149l743 1047q-26 227 -85 269t-121 42t-103 -15l27 109q39 16 92 16q143 0 221 -96t108 -340l95 -733q14 -117 41.5 -157t78.5 -40z" />
    <glyph glyph-name="uni03BC" unicode="&#x3bc;" horiz-adv-x="1163" 
d="M465 92q123 0 228.5 90t144.5 248l149 610h127l-190 -768q-17 -57 -17 -99t16.5 -57.5t49.5 -15.5t57 9l-26 -109q-31 -10 -78 -10q-137 0 -138 137l3 31h-5q-59 -80 -149 -127t-193 -47q-195 0 -247 143l-125 -506h-127l354 1419h127l-152 -604q-23 -90 -22 -145
q0 -199 213 -199z" />
    <glyph glyph-name="nu" unicode="&#x3bd;" horiz-adv-x="1013" 
d="M1098 1040q0 -214 -198 -490t-417 -550h-151l-66 748q-8 111 -31.5 150.5t-74.5 39.5q-20 0 -37 -4l27 104q31 10 63 11q86 0 125 -57.5t49 -205.5l53 -653h4q260 322 382.5 522t144.5 385h127z" />
    <glyph glyph-name="xi" unicode="&#x3be;" horiz-adv-x="917" 
d="M457 795q-158 53 -158 221q0 88 69.5 185t188.5 147v4h-221l26 106h746l-27 -106h-137q-174 0 -290.5 -50.5t-172 -127t-55.5 -163.5t80 -134.5t213 -47.5h151l-26 -106h-166q-172 0 -279.5 -51t-153.5 -129t-46 -170t63.5 -144.5t205.5 -73.5t204.5 -76.5t62.5 -154.5
t-82 -221h-125q76 115 76 183t-38 99t-132 46q-190 29 -281.5 109.5t-91.5 226.5q0 88 41 175t130.5 154.5t224.5 94.5v4z" />
    <glyph glyph-name="omicron" unicode="&#x3bf;" horiz-adv-x="1130" 
d="M215 385.5q0 -138.5 70.5 -220t205 -81.5t230.5 87t146.5 216t50.5 267.5t-72 220t-207 81.5t-230.5 -87t-144.5 -216t-49 -267.5zM1047 637q0 -154 -66 -307.5t-195 -255t-312 -101.5t-286.5 113t-103.5 317q0 154 65.5 307.5t192.5 255t311.5 101.5t289 -112.5
t104.5 -317.5z" />
    <glyph glyph-name="pi" unicode="&#x3c0;" horiz-adv-x="1314" 
d="M1063 100q47 0 67 6l-28 -108q-37 -8 -74 -8q-102 0 -154.5 45t-52.5 147q0 49 23 144l151 608h-516l-231 -934h-127l231 934h-223l27 106h1249l-27 -106h-256l-153 -619q-17 -67 -17 -115t32 -74t79 -26z" />
    <glyph glyph-name="rho" unicode="&#x3c1;" horiz-adv-x="1157" 
d="M279 386q0 -134 66.5 -216t192.5 -82t219 88t141 218t48 265t-67.5 216t-194.5 81t-218 -88t-139 -218t-48 -264zM1075 645q0 -154 -63.5 -308.5t-188.5 -257t-295 -102.5q-240 0 -319 216h-4l-142 -572h-126l239 965q51 205 184.5 343t325.5 138t290.5 -110.5
t98.5 -311.5z" />
    <glyph glyph-name="sigma1" unicode="&#x3c2;" horiz-adv-x="1017" 
d="M590 -107q0 78 -36 114t-128 54q-338 65 -338 379q0 156 65.5 298.5t190.5 235.5t303 93t272.5 -89t94.5 -249q0 -33 -6 -74h-129q4 33 4 54q0 117 -66.5 182t-193.5 65t-218.5 -74.5t-137.5 -186t-46 -230.5t57.5 -186.5t188.5 -92.5t191.5 -84.5t60.5 -165.5t-82 -233
h-125q78 112 78 190z" />
    <glyph glyph-name="sigma" unicode="&#x3c3;" horiz-adv-x="1187" 
d="M213 380q0 -134 70.5 -215t204.5 -81t230.5 84t146.5 209t50 259t-72.5 215t-206.5 81t-229.5 -84t-144.5 -209t-49 -259zM907 934v-4q135 -106 135 -314q0 -150 -64.5 -298t-192 -246.5t-311.5 -98.5t-288 111t-104 313q0 147 64.5 297t191.5 248t301 98h651l-24 -106
h-359z" />
    <glyph glyph-name="tau" unicode="&#x3c4;" horiz-adv-x="954" 
d="M459 200q0 -100 125 -100q33 0 53 6l-29 -108q-37 -8 -73 -8q-102 0 -154.5 45t-52.5 147q0 49 22 144l152 608h-373l27 106h901l-25 -106h-403l-154 -619q-16 -67 -16 -115z" />
    <glyph glyph-name="upsilon" unicode="&#x3c5;" horiz-adv-x="1155" 
d="M393 881q0 -43 -20 -131l-88 -359q-16 -66 -17 -108q0 -104 61.5 -151.5t182.5 -47.5q160 0 256 123t134 297t38 309t-18 227h127q14 -88 14 -194q0 -213 -53.5 -410.5t-180.5 -330t-333 -132.5q-354 0 -355 310q0 57 23 141l84 338q16 72 16 108q0 70 -69 70
q-27 0 -52 -8l27 108q35 10 76 11q147 0 147 -170z" />
    <glyph glyph-name="phi" unicode="&#x3c6;" horiz-adv-x="1505" 
d="M1286 608q0 136 -94 228t-270 114l-215 -866h8q190 0 319 77t190.5 194t61.5 253zM788 956q-190 0 -319 -77.5t-190.5 -194.5t-61.5 -253t95.5 -227t271.5 -114l215 866h-11zM1415 592q0 -150 -80 -291t-239.5 -234.5t-386.5 -93.5h-29l-88 -352h-125l90 361
q-223 29 -347 149.5t-124 317.5q0 147 81 289.5t241.5 235.5t388.5 93h30l72 289h125l-74 -297q221 -29 343 -151t122 -316z" />
    <glyph glyph-name="chi" unicode="&#x3c7;" horiz-adv-x="1142" 
d="M836 -279q45 0 86 11l-27 -111q-47 -10 -105 -10t-125.5 32t-103.5 228l-61 346h-4l-525 -596h-164l652 729l-80 412q-26 145 -71.5 165.5t-97.5 20.5t-89 -14l29 110q37 14 90 15q112 0 167.5 -54.5t81.5 -201.5l66 -354h4l514 591h164l-637 -725l74 -405
q26 -148 71.5 -168.5t90.5 -20.5z" />
    <glyph glyph-name="psi" unicode="&#x3c8;" horiz-adv-x="1517" 
d="M139 377q0 66 23 155l127 508h127l-131 -530q-18 -74 -19 -125q0 -139 83 -210t251 -83l315 1264h127l-315 -1266q582 23 582 825q0 68 -6 125h127q6 -59 6 -122q0 -412 -167 -673t-569 -265l-90 -359h-127l90 363q-217 16 -325.5 111t-108.5 282z" />
    <glyph glyph-name="omega" unicode="&#x3c9;" horiz-adv-x="1548" 
d="M969 -27q-232 0 -267 187h-2q-94 -186 -315 -187q-291 0 -291 316q0 158 77 367.5t204 383.5h145q-131 -174 -214 -382.5t-83 -360.5q0 -213 189.5 -213t253.5 258l108 434h127l-100 -401q-16 -59 -17 -117q0 -174 174 -174q125 0 204 108.5t113 262t34 302.5t-43 283
h127q43 -137 43 -304t-46.5 -343t-151.5 -298t-269 -122z" />
    <glyph glyph-name="iotadieresis" unicode="&#x3ca;" horiz-adv-x="530" 
d="M219 201q0 -99 121 -99q37 0 68 11l-27 -113q-41 -8 -70 -8q-115 0 -168 45t-53 147q0 57 23 144l176 712h127l-176 -712q-21 -78 -21 -127zM539 1278l43 180h125l-43 -180h-125zM162 1278l43 180h125l-45 -180h-123z" />
    <glyph glyph-name="upsilondieresis" unicode="&#x3cb;" horiz-adv-x="1155" 
d="M393 881q0 -43 -20 -131l-88 -359q-16 -66 -17 -108q0 -104 61.5 -151.5t182.5 -47.5q160 0 256 123t134 297t38 309t-18 227h127q14 -88 14 -194q0 -213 -53.5 -410.5t-180.5 -330t-333 -132.5q-354 0 -355 310q0 57 23 141l84 338q16 72 16 108q0 70 -69 70
q-27 0 -52 -8l27 108q35 10 76 11q147 0 147 -170zM821 1278l43 180h125l-43 -180h-125zM444 1278l43 180h125l-45 -180h-123z" />
    <glyph glyph-name="omicrontonos" unicode="&#x3cc;" horiz-adv-x="1130" 
d="M215 385.5q0 -138.5 70.5 -220t205 -81.5t230.5 87t146.5 216t50.5 267.5t-72 220t-207 81.5t-230.5 -87t-144.5 -216t-49 -267.5zM1047 637q0 -154 -66 -307.5t-195 -255t-312 -101.5t-286.5 113t-103.5 317q0 154 65.5 307.5t192.5 255t311.5 101.5t289 -112.5
t104.5 -317.5zM633 1178l170 321h133l-199 -321h-104z" />
    <glyph glyph-name="upsilontonos" unicode="&#x3cd;" horiz-adv-x="1155" 
d="M393 881q0 -43 -20 -131l-88 -359q-16 -66 -17 -108q0 -104 61.5 -151.5t182.5 -47.5q160 0 256 123t134 297t38 309t-18 227h127q14 -88 14 -194q0 -213 -53.5 -410.5t-180.5 -330t-333 -132.5q-354 0 -355 310q0 57 23 141l84 338q16 72 16 108q0 70 -69 70
q-27 0 -52 -8l27 108q35 10 76 11q147 0 147 -170zM614 1178l170 321h134l-199 -321h-105z" />
    <glyph glyph-name="omegatonos" unicode="&#x3ce;" horiz-adv-x="1548" 
d="M969 -27q-232 0 -267 187h-2q-94 -186 -315 -187q-291 0 -291 316q0 158 77 367.5t204 383.5h145q-131 -174 -214 -382.5t-83 -360.5q0 -213 189.5 -213t253.5 258l108 434h127l-100 -401q-16 -59 -17 -117q0 -174 174 -174q125 0 204 108.5t113 262t34 302.5t-43 283
h127q43 -137 43 -304t-46.5 -343t-151.5 -298t-269 -122zM883 1178l170 321h133l-199 -321h-104z" />
    <glyph glyph-name="uni0400" unicode="&#x400;" horiz-adv-x="1249" 
d="M543 1337l-129 -528h733l-31 -121h-735l-141 -567h798l-28 -121h-932l362 1458h908l-31 -121h-774zM903 1556l-174 277h164l123 -277h-113z" />
    <glyph glyph-name="uni0401" unicode="&#x401;" horiz-adv-x="1249" 
d="M543 1337l-129 -528h733l-31 -121h-735l-141 -567h798l-28 -121h-932l362 1458h908l-31 -121h-774zM1032 1593l45 181h125l-45 -181h-125zM655 1593l45 181h125l-45 -181h-125z" />
    <glyph glyph-name="uni0402" unicode="&#x402;" horiz-adv-x="1556" 
d="M1479 514q0 -131 -66.5 -255t-198 -201.5t-313.5 -77.5q-119 0 -199 26l29 119q73 -25 195 -25t221.5 61.5t149 155t49.5 185.5q0 145 -78 221t-235 76t-308 -74l-182 -725h-133l331 1337h-518l31 121h1171l-32 -121h-519l-116 -479q147 61 295 62q207 0 316.5 -109
t109.5 -297z" />
    <glyph glyph-name="uni0403" unicode="&#x403;" horiz-adv-x="978" 
d="M440 1458h752l-31 -121h-618l-332 -1337h-133zM702 1556l246 277h180l-297 -277h-129z" />
    <glyph glyph-name="uni0404" unicode="&#x404;" horiz-adv-x="1413" 
d="M1264 1016q0 158 -98.5 251t-260.5 93q-163 0 -285 -80q-235 -153 -321 -489h735l-28 -121h-730q-6 -55 -6 -111q0 -211 102.5 -336t278.5 -125t311.5 100.5t200.5 266.5h140q-74 -223 -250 -357.5t-412 -134.5t-372 155t-136 417q0 217 90 435t268.5 361.5t426.5 143.5
q152 0 261 -58.5t166.5 -162t57.5 -238.5q0 -43 -6 -86h-140q7 41 7 76z" />
    <glyph glyph-name="uni0405" unicode="&#x405;" horiz-adv-x="1226" 
d="M1221 1122q0 -57 -15 -116h-135q14 55 14 102q0 256 -319 256q-123 0 -205 -44t-121 -109.5t-39 -131.5q0 -106 69 -161.5t212 -103.5t221 -91q172 -95 172 -305q0 -106 -62.5 -209t-188.5 -169.5t-324.5 -66.5t-314 96.5t-115.5 284.5q0 66 14 131h133q-12 -68 -12 -120
q0 -268 323 -269q143 0 235.5 47t134.5 119t42 146t-35 123t-98.5 82.5t-182 75.5t-194.5 84q-164 91 -164 294q0 96 57.5 193.5t173 161t279.5 63.5q445 -1 445 -363z" />
    <glyph glyph-name="uni0406" unicode="&#x406;" horiz-adv-x="546" 
d="M78 0l362 1458h133l-362 -1458h-133z" />
    <glyph glyph-name="uni0407" unicode="&#x407;" horiz-adv-x="546" 
d="M78 0l362 1458h133l-362 -1458h-133zM666 1593l45 181h125l-45 -181h-125zM289 1593l45 181h125l-45 -181h-125z" />
    <glyph glyph-name="uni0408" unicode="&#x408;" horiz-adv-x="690" 
d="M6 -8q-63 0 -102 16l28 119q37 -10 74 -10q127 0 208 69.5t120 221.5l260 1050h135l-272 -1087q-45 -189 -162 -284t-289 -95z" />
    <glyph glyph-name="uni0409" unicode="&#x409;" horiz-adv-x="2115" 
d="M1491 121q135 0 225 52t133 131t43 159q0 129 -81.5 197.5t-245.5 68.5h-297l-152 -608h375zM1575 850q223 0 339 -101.5t116 -279.5q0 -115 -60.5 -222.5t-183.5 -177t-299 -69.5h-535l332 1337h-586q-152 -567 -263 -853.5t-216.5 -389t-251.5 -102.5q-45 0 -69 12
l26 111q16 -4 35 -4q115 0 199 99t184 381.5t258 866.5h848l-152 -608h279z" />
    <glyph glyph-name="uni040A" unicode="&#x40a;" horiz-adv-x="2191" 
d="M1970 463q0 129 -82 197.5t-246 68.5h-299l-151 -608h375q137 0 227 52t133 131t43 159zM2105 469q0 -115 -59 -222.5t-182 -177t-299 -69.5h-537l180 725h-817l-180 -725h-133l362 1458h133l-153 -612h819l152 612h133l-152 -608h279q223 0 338.5 -101.5t115.5 -279.5z
" />
    <glyph glyph-name="uni040B" unicode="&#x40b;" horiz-adv-x="1552" 
d="M1331 524q0 240 -282 240q-168 0 -328 -53l-178 -711h-133l331 1337h-518l31 121h1171l-32 -121h-519l-122 -499q162 47 338 47t275 -89t99 -259q0 -49 -22 -148l-96 -389h-134l105 424q14 66 14 100z" />
    <glyph glyph-name="uni040C" unicode="&#x40c;" horiz-adv-x="1243" 
d="M1104 0h-170l-535 739h-4l-184 -739h-133l362 1458h133l-163 -657h4l788 657h199l-854 -704zM786 1556l246 277h180l-297 -277h-129z" />
    <glyph glyph-name="uni040D" unicode="&#x40d;" horiz-adv-x="1529" 
d="M1061 0l330 1325h-5l-555 -678l-534 -647h-221l364 1458h133l-333 -1325h4q96 115 284 348l807 977h221l-364 -1458h-131zM1030 1556l-174 277h164l123 -277h-113z" />
    <glyph glyph-name="uni040E" unicode="&#x40e;" horiz-adv-x="1296" 
d="M180 -14q-72 0 -112 14l28 117q34 -11 106 -11q152 -1 318 222l-274 1130h135l115 -493q78 -344 118 -516h4l740 1009h160l-881 -1184q-117 -155 -225.5 -221.5t-231.5 -66.5zM881 1649q178 0 243 184h111q-37 -135 -129 -210t-218 -75t-190.5 60.5t-64.5 173.5
q0 33 4 51h96q-2 -10 -2 -33q0 -74 39 -112.5t111 -38.5z" />
    <glyph glyph-name="uni040F" unicode="&#x40f;" horiz-adv-x="1476" 
d="M672 0l-82 -328h-127l82 328h-467l362 1458h133l-333 -1337h796l334 1337h133l-362 -1458h-469z" />
    <glyph glyph-name="uni0410" unicode="&#x410;" horiz-adv-x="1359" 
d="M1001 594l-104 756h-4q-227 -362 -383 -605l-96 -151h587zM336 471l-299 -471h-154l940 1458h183l213 -1458h-136l-65 471h-682z" />
    <glyph glyph-name="uni0411" unicode="&#x411;" horiz-adv-x="1259" 
d="M616 121q133 0 221.5 49t130.5 125t42 156q0 125 -85 192.5t-251 67.5h-285l-149 -590h376zM702 831q211 0 329 -100t118 -278q0 -109 -59.5 -213.5t-176 -172t-282.5 -67.5h-553l362 1458h887l-31 -121h-753l-125 -506h284z" />
    <glyph glyph-name="uni0412" unicode="&#x412;" horiz-adv-x="1259" 
d="M995 449q0 237 -303 237h-311l-141 -569h358q137 0 226 50t130 126t41 156zM707 803q155 0 251 49t139 124q42 75 42 152q0 213 -308 213h-286l-135 -538h297zM602 0h-524l362 1458h416q209 0 313 -84q105 -84 105 -221t-85 -252t-245 -164v-4q90 -27 139 -103t49 -182
q0 -108 -58 -210q-60 -102 -181 -170t-291 -68z" />
    <glyph glyph-name="uni0413" unicode="&#x413;" horiz-adv-x="978" 
d="M440 1458h752l-31 -121h-618l-332 -1337h-133z" />
    <glyph glyph-name="uni0414" unicode="&#x414;" horiz-adv-x="1431" 
d="M1292 1337h-616q-244 -911 -459 -1216h772zM1282 121l-111 -449h-127l82 328h-1097l-82 -328h-127l110 449h133q113 129 233 427t282 910h878l-334 -1337h160z" />
    <glyph glyph-name="uni0415" unicode="&#x415;" horiz-adv-x="1249" 
d="M543 1337l-129 -528h733l-31 -121h-735l-141 -567h798l-28 -121h-932l362 1458h908l-31 -121h-774z" />
    <glyph glyph-name="uni0416" unicode="&#x416;" horiz-adv-x="1753" 
d="M1614 0h-154l-454 756h-5l-186 -756h-135l184 737h-4l-786 -737h-193l836 774l-414 684h148l415 -690h4l172 690h136l-168 -674h4l717 674h186l-760 -708z" />
    <glyph glyph-name="uni0417" unicode="&#x417;" horiz-adv-x="1232" 
d="M1102 420q0 -102 -68.5 -205.5t-202 -172.5t-341.5 -69t-330.5 91.5t-122.5 257.5q0 47 12 96h137q-8 -39 -8 -80q0 -240 336 -240q141 0 242.5 48.5t154 123t52.5 152.5q0 125 -92.5 190.5t-268.5 65.5h-117l31 123h113q162 0 270.5 48t159.5 120.5t51 150.5
q0 109 -89 173.5t-250 64.5t-270.5 -81t-146.5 -237h-141q47 207 197.5 325t367.5 118t343 -97.5t126 -263.5q0 -129 -96 -235.5t-287 -157.5v-4q238 -85 238 -305z" />
    <glyph glyph-name="uni0418" unicode="&#x418;" horiz-adv-x="1529" 
d="M1061 0l330 1325h-5l-555 -678l-534 -647h-221l364 1458h133l-333 -1325h4q96 115 284 348l807 977h221l-364 -1458h-131z" />
    <glyph glyph-name="uni0419" unicode="&#x419;" horiz-adv-x="1529" 
d="M1061 0l330 1325h-5l-555 -678l-534 -647h-221l364 1458h133l-333 -1325h4q96 115 284 348l807 977h221l-364 -1458h-131zM1038 1649q177 0 244 184h111q-37 -135 -129.5 -210t-218.5 -75t-190 60.5t-64 173.5q0 33 4 51h96q-2 -10 -2 -33q0 -74 39 -112.5t110 -38.5z
" />
    <glyph glyph-name="uni041A" unicode="&#x41a;" horiz-adv-x="1243" 
d="M1104 0h-170l-535 739h-4l-184 -739h-133l362 1458h133l-163 -657h4l788 657h199l-854 -704z" />
    <glyph glyph-name="uni041B" unicode="&#x41b;" horiz-adv-x="1421" 
d="M-33 -8q-45 0 -69 12l26 111q16 -4 35 -4q115 0 199 99t184 381.5t258 866.5h848l-363 -1458h-133l332 1337h-586q-152 -567 -263 -853.5t-216.5 -389t-251.5 -102.5z" />
    <glyph glyph-name="uni041C" unicode="&#x41c;" horiz-adv-x="1861" 
d="M1393 0l327 1313h-4l-104 -164q-215 -338 -260 -406l-473 -743h-156l-105 743l-36 275q-29 197 -41 295h-4l-326 -1313h-133l362 1458h205l164 -1198l14 -117h4l834 1315h227l-362 -1458h-133z" />
    <glyph glyph-name="uni041D" unicode="&#x41d;" horiz-adv-x="1497" 
d="M1028 0l174 696h-819l-172 -696h-133l362 1458h133l-157 -641h817l158 641h133l-363 -1458h-133z" />
    <glyph glyph-name="uni041E" unicode="&#x41e;" horiz-adv-x="1482" 
d="M272 553q0 -197 108.5 -326t299 -129t335 120t222.5 303.5t78 382t-109.5 327.5t-301 129t-335 -121t-220.5 -305t-77 -381zM1450 870.5q0 -194.5 -93 -407.5t-269.5 -351.5t-407.5 -138.5q-170 0 -292 75t-186.5 210t-64.5 330.5t92.5 407.5t267.5 350.5t406 138.5
q170 0 294 -75t188.5 -210t64.5 -329.5z" />
    <glyph glyph-name="uni041F" unicode="&#x41f;" horiz-adv-x="1476" 
d="M1008 0l331 1337h-796l-332 -1337h-133l362 1458h1063l-362 -1458h-133z" />
    <glyph glyph-name="uni0420" unicode="&#x420;" horiz-adv-x="1241" 
d="M768 729q137 0 227 52t133 131t43 159q0 129 -81 198q-82 69 -246 68h-301l-152 -608h377zM1307 1077q1 -115 -59 -223t-183 -176q-123 -70 -301 -70h-404l-149 -608h-133l362 1458h412q223 0 339 -101t116 -280z" />
    <glyph glyph-name="uni0421" unicode="&#x421;" horiz-adv-x="1400" 
d="M1391 1026q0 -43 -7 -86h-139q6 41 6 76q0 158 -97 251t-276.5 93t-320.5 -124t-214 -310.5t-73 -382t100.5 -320.5t273.5 -125t307 100.5t200 266.5h139q-74 -223 -248 -357.5t-407.5 -134.5t-367.5 155t-134 417q0 217 89 435t265.5 361.5t421.5 143.5
q150 0 258.5 -58.5t166 -162t57.5 -238.5z" />
    <glyph glyph-name="uni0422" unicode="&#x422;" horiz-adv-x="1212" 
d="M874 1337l-331 -1337h-133l331 1337h-518l31 121h1171l-32 -121h-519z" />
    <glyph glyph-name="uni0423" unicode="&#x423;" horiz-adv-x="1296" 
d="M180 -14q-72 0 -112 14l28 117q34 -11 106 -11q152 -1 318 222l-274 1130h135l115 -493q78 -344 118 -516h4l740 1009h160l-881 -1184q-117 -155 -225.5 -221.5t-231.5 -66.5z" />
    <glyph glyph-name="uni0424" unicode="&#x424;" horiz-adv-x="1656" 
d="M848 240q205 0 347 81.5t211 206.5t69 248q0 176 -106.5 289t-303.5 143l-240 -968h23zM915 1219q-207 0 -348 -82t-210.5 -206t-69.5 -247q0 -180 106.5 -292.5t300.5 -141.5l242 969h-21zM1612 784q0 -164 -86 -317.5t-260 -251.5t-426 -98h-45l-41 -164h-133l43 176
q-246 35 -380 178.5t-137 368.5q0 160 86 312.5t261.5 252.5t429.5 100h43l41 164h133l-43 -174q245 -37 379.5 -179t134.5 -368z" />
    <glyph glyph-name="uni0425" unicode="&#x425;" horiz-adv-x="1263" 
d="M1114 0h-145l-291 647h-4l-602 -647h-181l713 760l-321 698h145l274 -604h5l561 604h180l-674 -715z" />
    <glyph glyph-name="uni0426" unicode="&#x426;" horiz-adv-x="1480" 
d="M1329 121l-110 -449h-127l82 328h-1096l362 1458h133l-333 -1337h796l334 1337h133l-334 -1337h160z" />
    <glyph glyph-name="uni0427" unicode="&#x427;" horiz-adv-x="1280" 
d="M326 940q0 -240 329 -240q172 0 344 54l175 704h135l-363 -1458h-135l158 627q-182 -47 -373 -47t-297 90t-106 258q0 63 22 147l96 383h133l-104 -418q-14 -63 -14 -100z" />
    <glyph glyph-name="uni0428" unicode="&#x428;" horiz-adv-x="2082" 
d="M78 0l362 1458h133l-333 -1337h634l334 1337h133l-333 -1337h634l334 1337h133l-362 -1458h-1669z" />
    <glyph glyph-name="uni0429" unicode="&#x429;" horiz-adv-x="2084" 
d="M1935 121l-110 -449h-127l82 328h-1702l362 1458h133l-333 -1337h634l334 1337h133l-333 -1337h634l334 1337h133l-333 -1337h159z" />
    <glyph glyph-name="uni042A" unicode="&#x42a;" horiz-adv-x="1511" 
d="M887 121q137 0 227 52t133 131t43 159q0 129 -82 197.5t-245 68.5h-299l-152 -608h375zM971 850q223 0 338.5 -101.5t115.5 -279.5q0 -115 -59 -222.5t-182 -177t-301 -69.5h-535l332 1337h-457l31 121h590l-152 -608h279z" />
    <glyph glyph-name="uni042B" unicode="&#x42b;" horiz-adv-x="1787" 
d="M616 121q135 0 225.5 52t133.5 131t43 159q0 129 -82 197.5t-246 68.5h-297l-151 -608h374zM700 850q223 0 339 -101.5t116 -279.5q0 -115 -60.5 -222.5t-183.5 -177t-299 -69.5h-534l362 1458h133l-151 -608h278zM1319 0l362 1458h134l-363 -1458h-133z" />
    <glyph glyph-name="uni042C" unicode="&#x42c;" horiz-adv-x="1241" 
d="M616 121q135 0 225.5 52t133.5 131t43 159q0 129 -82 197.5t-246 68.5h-297l-151 -608h374zM700 850q223 0 339 -101.5t116 -279.5q0 -115 -60.5 -222.5t-183.5 -177t-299 -69.5h-534l362 1458h133l-151 -608h278z" />
    <glyph glyph-name="uni042D" unicode="&#x42d;" horiz-adv-x="1400" 
d="M1372 913q0 -217 -89 -435t-265 -361.5t-422 -143.5q-154 0 -264.5 58.5t-169 162t-58.5 238.5q0 43 7 86h141q-6 -39 -6 -76q0 -158 98 -251t260 -93t284 80t201.5 210t116.5 282h-719l29 121h713q6 55 6 108q0 211 -101.5 336t-273.5 125t-304 -100.5t-194 -266.5h-141
q74 223 247 357.5t404.5 134.5t365.5 -154.5t134 -417.5z" />
    <glyph glyph-name="uni042E" unicode="&#x42e;" horiz-adv-x="1966" 
d="M1798 908q0 198 -100.5 325t-280.5 127t-317 -123t-211 -310t-74 -381t101.5 -321t279.5 -127t315.5 121t212 306t74.5 383zM1933 878q0 -194 -91 -409t-260 -355.5t-392 -140.5q-160 0 -274.5 74t-175 206t-60.5 306q0 55 6 111h-309l-166 -670h-133l362 1458h133
l-165 -667h299q41 184 138 341.5t244.5 255t319.5 97.5t287.5 -74t176 -206.5t60.5 -326.5z" />
    <glyph glyph-name="uni042F" unicode="&#x42f;" horiz-adv-x="1255" 
d="M756 1337q-135 0 -263 -68t-128 -255q0 -115 74.5 -182.5t224.5 -67.5h311l143 573h-362zM662 643q-66 0 -132 10l-475 -653h-166l517 692q-178 88 -179 316q0 113 55.5 215t176.5 168.5t305 66.5h518l-362 -1458h-134l160 643h-284z" />
    <glyph glyph-name="uni0430" unicode="&#x430;" horiz-adv-x="1073" 
d="M154 261q0 -85 56 -130t159 -45q143 0 249.5 90t149.5 250l25 102q-455 -26 -569 -122q-70 -60 -70 -145zM840 760q0 198 -239 198q-116 0 -194.5 -63.5t-101.5 -167.5h-133q33 150 152.5 245t286.5 95t257 -77t90 -230q0 -59 -18 -137l-90 -367q-39 -158 -43 -256h-121
q4 80 21 137h-5q-139 -158 -366 -157q-150 0 -235 71.5t-85 190.5q0 289 451 356q168 25 352 37l6 24q14 57 15 101z" />
    <glyph glyph-name="uni0431" unicode="&#x431;" horiz-adv-x="1150" 
d="M229 382q0 -134 69 -216t203 -82t232 81t148.5 202t50.5 257t-72 222t-213 86t-236.5 -86t-138.5 -208t-43 -256zM668 1038q188 0 291.5 -114.5t103.5 -317.5q0 -143 -66.5 -290.5t-196.5 -245t-312 -97.5t-282 114t-100 325q0 102 29 215q76 301 175.5 470t236.5 243.5
t369 96.5t344 48l-29 -121q-66 -16 -171.5 -27.5t-133.5 -15.5l-43 -4q-168 -16 -273.5 -67.5t-175 -145.5t-135.5 -256h4q137 190 365 190z" />
    <glyph glyph-name="uni0432" unicode="&#x432;" horiz-adv-x="1056" 
d="M496 106q139 0 202.5 59.5t63.5 143.5q0 170 -223 170h-254l-92 -373h303zM858 780q0 154 -231 154h-228l-88 -352h267q147 0 213.5 58t66.5 140zM993 811q0 -102 -59.5 -178t-171.5 -107v-4q61 -18 98 -72.5t37 -131.5t-43 -149.5t-131 -120.5t-215 -48h-467l258 1040
h373q159 0 240 -63.5t81 -165.5z" />
    <glyph glyph-name="uni0433" unicode="&#x433;" horiz-adv-x="829" 
d="M399 934l-231 -934h-127l258 1040h631l-27 -106h-504z" />
    <glyph glyph-name="uni0434" unicode="&#x434;" horiz-adv-x="1138" 
d="M522 934q-184 -618 -340 -828h557l205 828h-422zM1004 106l-109 -434h-127l82 328h-825l-82 -328h-127l108 434h115q84 88 171 292t216 642h672l-232 -934h138z" />
    <glyph glyph-name="uni0435" unicode="&#x435;" horiz-adv-x="1103" 
d="M646 958q-134 0 -246.5 -96t-159.5 -262h669q8 43 9 90q0 129 -69 198.5t-203 69.5zM203 375q0 -143 72.5 -218t195.5 -75t214 62.5t136 164.5h131q-57 -143 -184 -239.5t-308 -96.5t-280.5 107.5t-99.5 283t68.5 334t200.5 264t313.5 105.5t276.5 -101.5t95 -281.5
q0 -70 -26 -188h-793q-12 -68 -12 -121z" />
    <glyph glyph-name="uni0436" unicode="&#x436;" horiz-adv-x="1335" 
d="M1221 0h-158l-318 563h-4l-139 -563h-127l135 547h-4l-555 -547h-194l624 582l-315 458h153l295 -462h4l115 462h127l-110 -446h4l483 446h190l-546 -477z" />
    <glyph glyph-name="uni0437" unicode="&#x437;" horiz-adv-x="976" 
d="M569 952q-237 0 -288 -211h-134q35 152 149 239t274 87t249.5 -70.5t89.5 -193.5q0 -90 -64.5 -165t-197.5 -116v-4q166 -64 166 -178.5t-49 -190t-146.5 -126t-253.5 -50.5t-248.5 69t-92.5 189q0 41 8 74h131q-6 -31 -6 -57q0 -160 229 -160q94 0 161.5 32t102.5 81
t35 117t-65.5 112.5t-188.5 44.5h-102l24 107h103q109 0 181.5 32.5t107 83t34.5 112.5t-55 102t-154 40z" />
    <glyph glyph-name="uni0438" unicode="&#x438;" horiz-adv-x="1230" 
d="M799 0l102 408q82 332 125 497h-4q-76 -88 -183.5 -217t-201.5 -239l-379 -449h-217l258 1040h133l-102 -407q-82 -332 -125 -498h4l764 905h217l-258 -1040h-133z" />
    <glyph glyph-name="uni0439" unicode="&#x439;" horiz-adv-x="1230" 
d="M799 0l102 408q82 332 125 497h-4q-76 -88 -183.5 -217t-201.5 -239l-379 -449h-217l258 1040h133l-102 -407q-82 -332 -125 -498h4l764 905h217l-258 -1040h-133zM645 1425q0 -149 150 -149q86 0 148.5 47t92.5 135h113q-37 -135 -130 -209.5t-219 -74.5t-189.5 61
t-63.5 174q0 31 4 49h96q-2 -10 -2 -33z" />
    <glyph glyph-name="uni043A" unicode="&#x43a;" horiz-adv-x="1015" 
d="M866 0h-159l-400 547h-4l-135 -547h-127l258 1040h127l-107 -428h5l550 428h191l-621 -477z" />
    <glyph glyph-name="uni043B" unicode="&#x43b;" horiz-adv-x="1105" 
d="M-47 -6q-47 0 -70 8l27 102q16 -4 39 -4q84 0 145.5 70t134 269.5t179.5 600.5h657l-258 -1040h-127l231 934h-409q-185 -719 -310.5 -829.5t-238.5 -110.5z" />
    <glyph glyph-name="uni043C" unicode="&#x43c;" horiz-adv-x="1503" 
d="M1079 0l228 913h-4l-603 -913h-155l-148 913h-4l-227 -913h-125l258 1040h201l147 -905h4l264 410l328 495h219l-258 -1040h-125z" />
    <glyph glyph-name="uni043D" unicode="&#x43d;" horiz-adv-x="1179" 
d="M754 0l116 467h-585l-117 -467h-127l258 1040h127l-115 -467h586l115 467h127l-258 -1040h-127z" />
    <glyph glyph-name="uni043E" unicode="&#x43e;" horiz-adv-x="1130" 
d="M215 385.5q0 -138.5 70.5 -220t205 -81.5t230.5 87t146.5 216t50.5 267.5t-72 220t-207 81.5t-230.5 -87t-144.5 -216t-49 -267.5zM1047 637q0 -154 -66 -307.5t-195 -255t-312 -101.5t-286.5 113t-103.5 317q0 154 65.5 307.5t192.5 255t311.5 101.5t289 -112.5
t104.5 -317.5z" />
    <glyph glyph-name="uni043F" unicode="&#x43f;" horiz-adv-x="1163" 
d="M737 0l232 934h-570l-231 -934h-127l258 1040h823l-258 -1040h-127z" />
    <glyph glyph-name="uni0440" unicode="&#x440;" horiz-adv-x="1157" 
d="M281 386q0 -138 63 -220t187 -82t221 87q96 87 145 219t49 269t-62 219t-188 82t-221 -87q-96 -87 -145 -218t-49 -269zM1083 684q1 -172 -65 -333t-192 -267t-296 -107q-120 1 -202 61t-107 163h-4l-143 -580h-127l354 1419h127l-31 -122h4q61 70 147 110t179 39
q170 0 263 -105q93 -106 93 -278z" />
    <glyph glyph-name="uni0441" unicode="&#x441;" horiz-adv-x="1067" 
d="M1016 709q0 -31 -2 -47h-129q2 14 2 40q0 117 -63.5 185.5t-187.5 68.5t-221.5 -88t-148.5 -219t-51 -266t67.5 -217t184.5 -82t211 77t135 189h137q-59 -168 -190 -272.5t-303 -104.5t-273.5 111t-101.5 284t65.5 330.5t194.5 263t306 105.5t272.5 -97.5t95.5 -260.5z
" />
    <glyph glyph-name="uni0442" unicode="&#x442;" horiz-adv-x="899" 
d="M621 934l-234 -934h-131l231 934h-370l26 106l871 -2l-27 -104h-366z" />
    <glyph glyph-name="uni0443" unicode="&#x443;" horiz-adv-x="933" 
d="M-71.5 -387q-75.5 0 -114.5 12l26 109q31 -8 90.5 -8t111.5 22.5t102.5 79.5t123.5 172l-149 1040h129l119 -878h4l557 878h145l-694 -1089q-86 -135 -155.5 -208t-144.5 -101.5t-150.5 -28.5z" />
    <glyph glyph-name="uni0444" unicode="&#x444;" horiz-adv-x="1576" 
d="M1368 666q0 130 -59.5 212.5t-164.5 82.5t-204 -89l-174 -698q63 -90 189 -90t220.5 92t143.5 226t49 264zM209 379q0 -131 60.5 -213t166.5 -82t201 84l174 696q-63 96 -188 96.5t-219.5 -92t-144.5 -225.5t-50 -264zM1503 692q0 -168 -65.5 -331.5t-191.5 -273.5
t-296 -110q-131 0 -211 91l-110 -447h-127l104 422q-102 -66 -215 -66q-152 0 -233.5 103.5t-81.5 273.5t65.5 332t191.5 271.5t296 109.5q135 0 207 -100l122 491h127l-114 -461q102 70 235 70t215 -103.5t82 -271.5z" />
    <glyph glyph-name="uni0445" unicode="&#x445;" horiz-adv-x="956" 
d="M827 0h-141l-213 453h-4l-426 -453h-172l535 551l-240 489h139l189 -409h4l381 409h168l-484 -501z" />
    <glyph glyph-name="uni0446" unicode="&#x446;" horiz-adv-x="1165" 
d="M1028 106l-108 -434h-127l81 328h-833l258 1040h127l-231 -934h569l231 934h127l-231 -934h137z" />
    <glyph glyph-name="uni0447" unicode="&#x447;" horiz-adv-x="1032" 
d="M438 391q-146 0 -233.5 72t-87.5 209q0 45 12 96l68 272h127l-72 -286q-10 -41 -10 -70q0 -184 237 -184q131 0 256 37l127 503h127l-258 -1040h-127l105 424q-125 -33 -271 -33z" />
    <glyph glyph-name="uni0448" unicode="&#x448;" horiz-adv-x="1697" 
d="M41 0l258 1040h127l-231 -934h487l231 934h127l-231 -934h487l234 934h127l-258 -1040h-1358z" />
    <glyph glyph-name="uni0449" unicode="&#x449;" horiz-adv-x="1697" 
d="M1542 106l-108 -434h-127l82 328h-1348l258 1040h127l-231 -934h487l231 934h127l-231 -934h487l234 934h127l-234 -934h119z" />
    <glyph glyph-name="uni044A" unicode="&#x44a;" horiz-adv-x="1200" 
d="M940 384q0 140 -238 140h-231l-104 -418h290q146 0 214.5 69t68.5 209zM1069 344q0 -86 -45 -165t-138 -129t-231 -50h-442l231 934h-327l26 106h455l-100 -409h215q176 0 266 -75t90 -212z" />
    <glyph glyph-name="uni044B" unicode="&#x44b;" horiz-adv-x="1415" 
d="M768 338q0 186 -238 186h-231l-104 -418h290q145 0 214 69t69 163zM539 631q178 0 268 -75t90 -212q0 -86 -45 -165t-138 -129t-231 -50h-442l258 1040h127l-100 -409h213zM989 0l258 1040h127l-258 -1040h-127z" />
    <glyph glyph-name="uni044C" unicode="&#x44c;" horiz-adv-x="1028" 
d="M768 384q0 140 -238 140h-231l-104 -418h290q145 0 214 69t69 209zM539 631q178 0 268 -75t90 -212q0 -86 -45 -165t-138 -129t-231 -50h-442l258 1040h127l-100 -409h213z" />
    <glyph glyph-name="uni044D" unicode="&#x44d;" horiz-adv-x="1067" 
d="M985 672.5q0 -173.5 -65.5 -331t-194.5 -263t-306 -105.5t-272.5 97.5t-95.5 261.5q0 31 2 47h129q-2 -14 -2 -41q0 -117 63.5 -185.5t178.5 -68.5q152 0 257 113.5t150 277.5h-512l27 107h504q4 45 4 65q0 145 -67.5 227t-185.5 82t-211 -76.5t-136 -189.5h-137
q59 170 191 273.5t304 103.5t273.5 -110.5t101.5 -284z" />
    <glyph glyph-name="uni044E" unicode="&#x44e;" horiz-adv-x="1556" 
d="M1343 654q0 138 -71.5 220t-206.5 82t-230.5 -87t-144.5 -216t-49 -267t70.5 -220t204.5 -82t230.5 87t146.5 216t50 267zM1473 637q0 -154 -66 -307.5t-195 -255t-312 -101.5t-285.5 113t-102.5 317q0 41 2 62h-231l-115 -465h-127l258 1040h127l-117 -467l223 2
q31 129 102 242t182.5 181.5t254.5 68.5q193 0 297.5 -112.5t104.5 -317.5z" />
    <glyph glyph-name="uni044F" unicode="&#x44f;" horiz-adv-x="1046" 
d="M567 934q-143 0 -212.5 -64.5t-69.5 -155.5t58 -142.5t179 -51.5h223l103 414h-281zM516 414q-35 0 -88 4l-348 -418h-170l389 455q-150 68 -149 247q0 88 43 165t135 125t229 48h449l-258 -1040h-132l103 414h-203z" />
    <glyph glyph-name="uni0450" unicode="&#x450;" horiz-adv-x="1103" 
d="M646 958q-134 0 -246.5 -96t-159.5 -262h669q8 43 9 90q0 129 -69 198.5t-203 69.5zM203 375q0 -143 72.5 -218t195.5 -75t214 62.5t136 164.5h131q-57 -143 -184 -239.5t-308 -96.5t-280.5 107.5t-99.5 283t68.5 334t200.5 264t313.5 105.5t276.5 -101.5t95 -281.5
q0 -70 -26 -188h-793q-12 -68 -12 -121zM791 1169h-113l-172 289h164z" />
    <glyph glyph-name="uni0451" unicode="&#x451;" horiz-adv-x="1103" 
d="M646 958q-134 0 -246.5 -96t-159.5 -262h669q8 43 9 90q0 129 -69 198.5t-203 69.5zM203 375q0 -143 72.5 -218t195.5 -75t214 62.5t136 164.5h131q-57 -143 -184 -239.5t-308 -96.5t-280.5 107.5t-99.5 283t68.5 334t200.5 264t313.5 105.5t276.5 -101.5t95 -281.5
q0 -70 -26 -188h-793q-12 -68 -12 -121zM825 1278l43 180h125l-43 -180h-125zM449 1278l43 180h124l-45 -180h-122z" />
    <glyph glyph-name="uni0452" unicode="&#x452;" 
d="M709 952q143 0 222 -76.5t79 -222.5q0 -66 -23 -155l-147 -594q-41 -154 -121 -222.5t-199 -68.5q-51 0 -94 12l25 109q31 -8 61 -8q80 0 130 48t79 163l139 563q20 80 20 160t-52 131t-164 51t-221 -89t-148 -247l-127 -506h-127l289 1161h-142l25 99h141l49 198h127
l-49 -198h475l-24 -99h-475l-90 -358h4q140 149 338 149z" />
    <glyph glyph-name="uni0453" unicode="&#x453;" horiz-adv-x="829" 
d="M399 934l-231 -934h-127l258 1040h631l-27 -106h-504zM516 1169l248 289h180l-299 -289h-129z" />
    <glyph glyph-name="uni0454" unicode="&#x454;" horiz-adv-x="1067" 
d="M887 702q0 117 -63.5 185.5t-194.5 68.5t-236.5 -107.5t-150.5 -266.5h512l-27 -107h-508q-6 -43 -6 -82q0 -145 68.5 -227t185.5 -82t212 77t136 189h135q-59 -168 -190 -272.5t-303 -104.5t-273.5 111t-101.5 284t65.5 330.5t194.5 263t306 105.5t272.5 -97.5
t95.5 -260.5q0 -31 -2 -47h-129q2 13 2 40z" />
    <glyph glyph-name="uni0455" unicode="&#x455;" horiz-adv-x="980" 
d="M160 268q0 -184 254 -184q137 0 211.5 55.5t74.5 152.5q0 96 -104 142q-51 22 -147.5 52t-148.5 56q-126 62 -126 218q0 80 47 149.5t136 113.5t235.5 44t236 -69.5t89.5 -198.5q0 -49 -11 -88h-125q8 45 9 73q0 84 -60.5 128t-174.5 44t-183.5 -48t-69.5 -139t86 -128
q41 -18 138 -49t156.5 -58.5t101.5 -84t42 -145.5t-47 -163.5t-143 -121t-255 -46.5t-255 74t-96 211q0 53 12 92h127q-10 -45 -10 -82z" />
    <glyph glyph-name="uni0456" unicode="&#x456;" horiz-adv-x="466" 
d="M41 0l258 1040h127l-258 -1040h-127zM360 1278l43 180h127l-43 -180h-127z" />
    <glyph glyph-name="uni0457" unicode="&#x457;" horiz-adv-x="466" 
d="M41 0l258 1040h127l-258 -1040h-127zM508 1278l45 180h125l-45 -180h-125zM215 1278l43 180h125l-45 -180h-123z" />
    <glyph glyph-name="uni0458" unicode="&#x458;" horiz-adv-x="481" 
d="M-162 -387q-53 0 -96 12l27 109q31 -8 59 -8q82 0 132 48t79 163l274 1103h127l-284 -1136q-39 -154 -119 -222.5t-199 -68.5zM375 1278l43 180h127l-43 -180h-127z" />
    <glyph glyph-name="uni0459" unicode="&#x459;" horiz-adv-x="1669" 
d="M1407 384q0 140 -238 140h-231l-104 -418h290q145 0 214 69t69 209zM1180 631q176 0 266 -75t90 -212q0 -86 -45 -165t-138 -129t-231 -50h-442l231 934h-409q-185 -719 -310.5 -829.5t-238.5 -110.5q-47 0 -70 8l27 102q16 -4 39 -4q84 0 145.5 70t134 269.5
t179.5 600.5h657l-100 -409h215z" />
    <glyph glyph-name="uni045A" unicode="&#x45a;" horiz-adv-x="1742" 
d="M1483 384q0 140 -240 140h-231l-105 -418h293q143 0 213 69t70 209zM1253 631q176 0 266.5 -75t90.5 -212q0 -86 -45 -165t-138.5 -129t-230.5 -50h-442l131 520h-588l-129 -520h-127l258 1040h127l-102 -413h585l103 413h127l-101 -409h215z" />
    <glyph glyph-name="uni045B" unicode="&#x45b;" 
d="M709 952q143 0 222 -76.5t79 -222.5q0 -66 -23 -155l-123 -498h-127l123 500q20 80 20 160t-52 131t-164 51t-221 -89t-148 -247l-127 -506h-127l289 1161h-142l25 99h141l49 198h127l-49 -198h475l-24 -99h-475l-90 -358h4q140 149 338 149z" />
    <glyph glyph-name="uni045C" unicode="&#x45c;" horiz-adv-x="1015" 
d="M866 0h-159l-400 547h-4l-135 -547h-127l258 1040h127l-107 -428h5l550 428h191l-621 -477zM553 1169l248 289h180l-299 -289h-129z" />
    <glyph glyph-name="uni045D" unicode="&#x45d;" horiz-adv-x="1230" 
d="M799 0l102 408q82 332 125 497h-4q-76 -88 -183.5 -217t-201.5 -239l-379 -449h-217l258 1040h133l-102 -407q-82 -332 -125 -498h4l764 905h217l-258 -1040h-133zM895 1169h-113l-172 289h164z" />
    <glyph glyph-name="uni045E" unicode="&#x45e;" horiz-adv-x="933" 
d="M-71.5 -387q-75.5 0 -114.5 12l26 109q31 -8 90.5 -8t111.5 22.5t102.5 79.5t123.5 172l-149 1040h129l119 -878h4l557 878h145l-694 -1089q-86 -135 -155.5 -208t-144.5 -101.5t-150.5 -28.5zM457 1425q1 -149 157 -149q78 0 140.5 47t93.5 135h113
q-37 -135 -130.5 -209.5t-219.5 -74.5t-189.5 61t-63.5 174q0 31 4 49h97q-2 -10 -2 -33z" />
    <glyph glyph-name="uni045F" unicode="&#x45f;" horiz-adv-x="1163" 
d="M516 0l-82 -328h-127l82 328h-348l258 1040h127l-231 -934h569l231 934h127l-258 -1040h-348z" />
    <glyph glyph-name="uni0490" unicode="&#x490;" horiz-adv-x="978" 
d="M543 1337l-332 -1337h-133l362 1458h625l80 314h127l-111 -435h-618z" />
    <glyph glyph-name="uni0491" unicode="&#x491;" horiz-adv-x="829" 
d="M399 934l-231 -934h-127l258 1040h504l82 328h127l-109 -434h-504z" />
    <glyph glyph-name="uni0492" unicode="&#x492;" horiz-adv-x="978" 
d="M401 768h295l-28 -111h-293l-164 -657h-133l164 657h-138l29 111h135l172 690h752l-31 -121h-618z" />
    <glyph glyph-name="uni0493" unicode="&#x493;" horiz-adv-x="831" 
d="M307 563h277l-25 -98h-276l-115 -465h-127l115 465h-119l24 98h119l119 477h631l-27 -106h-504z" />
    <glyph glyph-name="uni0496" unicode="&#x496;" horiz-adv-x="1753" 
d="M1645 121l-111 -449h-127l82 328h-29l-454 756h-5l-186 -756h-135l184 737h-4l-786 -737h-193l836 774l-414 684h148l415 -690h4l172 690h136l-168 -674h4l717 674h186l-760 -708l383 -629h105z" />
    <glyph glyph-name="uni0497" unicode="&#x497;" horiz-adv-x="1335" 
d="M1139 -328h-127l82 328h-31l-318 563h-4l-139 -563h-127l135 547h-4l-555 -547h-194l624 582l-315 458h153l295 -462h4l115 462h127l-110 -446h4l483 446h190l-546 -477l276 -457h90z" />
    <glyph glyph-name="uni049A" unicode="&#x49a;" horiz-adv-x="1243" 
d="M1135 121l-111 -449h-127l82 328h-45l-535 739h-4l-184 -739h-133l362 1458h133l-163 -657h4l788 657h199l-854 -704l467 -633h121z" />
    <glyph glyph-name="uni049B" unicode="&#x49b;" horiz-adv-x="1015" 
d="M784 -328h-127l82 328h-32l-400 547h-4l-135 -547h-127l258 1040h127l-107 -428h5l550 428h191l-621 -477l342 -457h107z" />
    <glyph glyph-name="uni049C" unicode="&#x49c;" horiz-adv-x="1376" 
d="M1237 0h-152l-428 696h-12l-92 -366h-129l92 366h-133l-172 -696h-133l362 1458h133l-159 -641h133l92 367h129l-92 -367h10l668 641h186l-758 -721z" />
    <glyph glyph-name="uni049D" unicode="&#x49d;" horiz-adv-x="1110" 
d="M995 0h-157l-295 518h-4l-74 -297h-121l74 297h-123l-127 -518h-127l258 1040h127l-104 -415h122l68 276h121l-68 -276h4l443 415h188l-543 -483z" />
    <glyph glyph-name="uni04A2" unicode="&#x4a2;" horiz-adv-x="1501" 
d="M1112 -328l82 328h-166l174 696h-819l-172 -696h-133l362 1458h133l-157 -641h817l158 641h133l-334 -1337h160l-111 -449h-127z" />
    <glyph glyph-name="uni04A3" unicode="&#x4a3;" horiz-adv-x="1181" 
d="M809 -328l82 328h-137l116 467h-585l-117 -467h-127l258 1040h127l-115 -467h586l115 467h127l-232 -934h137l-108 -434h-127z" />
    <glyph glyph-name="uni04AE" unicode="&#x4ae;" horiz-adv-x="1232" 
d="M555 0h-135l155 623l-331 835h141l121 -315q51 -129 149 -391h4q229 262 347 391l274 315h176l-747 -835z" />
    <glyph glyph-name="uni04AF" unicode="&#x4af;" horiz-adv-x="921" 
d="M246 1040l55 -432q23 -184 57 -448h4l551 880h148l-672 -1054l-90 -365h-125l90 365l-145 1054h127z" />
    <glyph glyph-name="uni04B2" unicode="&#x4b2;" horiz-adv-x="1263" 
d="M1153 121l-111 -449h-127l82 328h-28l-291 647h-4l-602 -647h-181l713 760l-321 698h145l274 -604h5l561 604h180l-674 -715l285 -622h94z" />
    <glyph glyph-name="uni04B3" unicode="&#x4b3;" horiz-adv-x="956" 
d="M854 106l-109 -434h-127l82 328h-14l-213 453h-4l-426 -453h-172l535 551l-240 489h139l189 -409h4l381 409h168l-484 -501l211 -433h80z" />
    <glyph glyph-name="uni04B8" unicode="&#x4b8;" horiz-adv-x="1280" 
d="M193 928q0 63 22 147l96 383h133l-104 -418q-14 -66 -14 -100q0 -207 239 -235l111 450h131l-113 -453q164 6 305 52l175 704h135l-363 -1458h-135l158 627q-150 -39 -303 -45l-78 -314h-131l78 316q-168 14 -255 103t-87 241z" />
    <glyph glyph-name="uni04B9" unicode="&#x4b9;" horiz-adv-x="1030" 
d="M117 672q0 43 12 96l68 272h127l-72 -288q-10 -37 -10 -68q0 -147 155 -178l84 338h121l-84 -344q106 6 217 37l127 503h127l-258 -1040h-127l105 424q-113 -31 -220 -33l-51 -211h-121l54 217q-254 37 -254 275z" />
    <glyph glyph-name="uni04BA" unicode="&#x4ba;" horiz-adv-x="1280" 
d="M1059 518q1 240 -327 240q-170 0 -345 -53l-176 -705h-133l362 1458h133l-155 -627q178 47 370 47t298 -90t106 -258q0 -63 -23 -147l-94 -383h-135l107 418q12 55 12 100z" />
    <glyph glyph-name="uni04BB" unicode="&#x4bb;" 
d="M737 1063q143 0 222 -77t79 -222q0 -66 -22 -156l-152 -608h-127l152 610q20 80 20 161t-52 131t-164.5 50t-221.5 -89t-147 -247l-156 -616h-127l362 1458h127l-135 -545h4q141 150 338 150z" />
    <glyph glyph-name="uni04C0" unicode="&#x4c0;" horiz-adv-x="546" 
d="M78 0l362 1458h133l-362 -1458h-133z" />
    <glyph glyph-name="uni04CF" unicode="&#x4cf;" horiz-adv-x="466" 
d="M41 0l362 1458h127l-362 -1458h-127z" />
    <glyph glyph-name="uni04D8" unicode="&#x4d8;" horiz-adv-x="1492" 
d="M248 498q0 -193 106 -297q106 -105 276 -105q329 -1 523 264q92 127 133 297h-1018q-20 -80 -20 -159zM1470 920q0 -216 -97 -436t-284 -365t-443 -145t-394 140q-139 140 -139 390q0 125 51 274h1151q14 78 14 150q-1 210 -111 322t-298 112t-329 -93
q-142 -93 -208 -245h-152q79 203 261 332q182 128 438 128t398 -148t142 -416z" />
    <glyph glyph-name="uni04D9" unicode="&#x4d9;" horiz-adv-x="1103" 
d="M459 82q135 0 250 99t159 276h-669q-12 -59 -13 -107q0 -128 69 -198t204 -70zM1026 676q0 -176 -69 -334t-201 -263t-314 -105t-277 100q-95 102 -95 282q0 98 39 205h782q10 47 10 105q0 143 -73 218q-72 74 -194 74t-211 -57t-134 -153h-133q57 137 183 228
q127 91 307 91t280 -108t100 -283z" />
    <glyph glyph-name="uni04E8" unicode="&#x4e8;" horiz-adv-x="1482" 
d="M270 569q0 -213 108.5 -342t303.5 -129q154 0 277.5 79t207.5 209t123 284h-1014q-6 -53 -6 -101zM1317 887q0 215 -110.5 344t-305.5 129q-151 0 -275 -80t-206 -209t-121 -280h1012q6 49 6 96zM1450 870q0 -194 -93 -407t-269.5 -351.5t-407.5 -138.5q-170 0 -292 75
t-186.5 209.5t-64.5 330.5t92.5 408t267.5 350.5t406 138.5q170 0 294 -75t188.5 -210.5t64.5 -329.5z" />
    <glyph glyph-name="uni04E9" unicode="&#x4e9;" horiz-adv-x="1132" 
d="M213 399q1 -315 287 -315q146 0 249 111.5t146 273.5h-678q-4 -49 -4 -70zM630 956q-144 0 -247.5 -110.5t-146.5 -272.5h677q4 45 5 68q0 152 -72 233.5t-216 81.5zM1047 637q0 -154 -66 -307.5t-195 -255t-312 -101.5t-286.5 113t-103.5 317q0 154 65.5 307.5t193 255
t311.5 101.5t288.5 -112.5t104.5 -317.5z" />
    <glyph glyph-name="Wgrave" unicode="&#x1e80;" horiz-adv-x="1835" 
d="M1118 0v666q0 223 4 669h-4q-20 -41 -184 -370l-475 -965h-209l6 1458h129l-2 -620q0 -238 -4 -713h4l352 717l307 616h203l-2 -616v-717h4l658 1333h141l-719 -1458h-209zM1174 1556l-175 277h164l123 -277h-112z" />
    <glyph glyph-name="wgrave" unicode="&#x1e81;" horiz-adv-x="1536" 
d="M907 0l-37 926h-4l-241 -455l-254 -471h-183l-43 1040h123l17 -450l16 -475h4l490 925h192l14 -465q12 -301 15 -460h4l489 925h140l-559 -1040h-183zM1042 1169h-112l-172 289h164z" />
    <glyph glyph-name="Wacute" unicode="&#x1e82;" horiz-adv-x="1835" 
d="M1118 0v666q0 223 4 669h-4q-20 -41 -184 -370l-475 -965h-209l6 1458h129l-2 -620q0 -238 -4 -713h4l352 717l307 616h203l-2 -616v-717h4l658 1333h141l-719 -1458h-209zM1051 1556l245 277h181l-297 -277h-129z" />
    <glyph glyph-name="wacute" unicode="&#x1e83;" horiz-adv-x="1536" 
d="M907 0l-37 926h-4l-241 -455l-254 -471h-183l-43 1040h123l17 -450l16 -475h4l490 925h192l14 -465q12 -301 15 -460h4l489 925h140l-559 -1040h-183zM805 1169l248 289h180l-299 -289h-129z" />
    <glyph glyph-name="Wdieresis" unicode="&#x1e84;" horiz-adv-x="1835" 
d="M1118 0v666q0 223 4 669h-4q-20 -41 -184 -370l-475 -965h-209l6 1458h129l-2 -620q0 -238 -4 -713h4l352 717l307 616h203l-2 -616v-717h4l658 1333h141l-719 -1458h-209zM1305 1593l45 181h125l-45 -181h-125zM928 1593l45 181h125l-45 -181h-125z" />
    <glyph glyph-name="wdieresis" unicode="&#x1e85;" horiz-adv-x="1536" 
d="M907 0l-37 926h-4l-241 -455l-254 -471h-183l-43 1040h123l17 -450l16 -475h4l490 925h192l14 -465q12 -301 15 -460h4l489 925h140l-559 -1040h-183zM1077 1278l43 180h125l-43 -180h-125zM700 1278l43 180h125l-45 -180h-123z" />
    <glyph glyph-name="Germandbls" unicode="&#x1e9e;" horiz-adv-x="1540" 
d="M999 1485q170 0 297 -69.5t193 -188.5l-442 -377q360 -95 360 -408q0 -117 -60.5 -224t-179 -174t-295.5 -67t-275.5 76t-98.5 221q0 45 8 86h137q-8 -33 -8 -71q0 -189 258 -189q127 0 211 49.5t124 125t40 155.5q0 150 -100.5 229.5t-299.5 100.5l27 106l426 363
q-108 133 -333 133q-226 0 -372.5 -121t-205.5 -360l-220 -881h-133l224 897q72 281 258 434.5t460 153.5z" />
    <glyph glyph-name="Ygrave" unicode="&#x1ef2;" horiz-adv-x="1232" 
d="M555 0h-135l155 623l-331 835h141l121 -315q51 -129 149 -391h4q229 262 347 391l274 315h176l-747 -835zM842 1556l-174 277h163l123 -277h-112z" />
    <glyph glyph-name="ygrave" unicode="&#x1ef3;" horiz-adv-x="933" 
d="M-71.5 -387q-75.5 0 -114.5 12l26 109q31 -8 90.5 -8t111.5 22.5t102.5 79.5t123.5 172l-149 1040h129l119 -878h4l557 878h145l-694 -1089q-86 -135 -155.5 -208t-144.5 -101.5t-150.5 -28.5zM707 1169h-113l-172 289h164z" />
    <glyph glyph-name="uni2010" unicode="&#x2010;" horiz-adv-x="593" 
d="M66 535l30 127h471l-30 -127h-471z" />
    <glyph glyph-name="endash" unicode="&#x2013;" horiz-adv-x="1024" 
d="M45 535l31 127h942l-31 -127h-942z" />
    <glyph glyph-name="emdash" unicode="&#x2014;" horiz-adv-x="2048" 
d="M45 535l31 127h1966l-31 -127h-1966z" />
    <glyph glyph-name="uni2015" unicode="&#x2015;" horiz-adv-x="2048" 
d="M-84 535l31 127h1966l-31 -127h-1966z" />
    <glyph glyph-name="underscoredbl" unicode="&#x2017;" horiz-adv-x="1024" 
d="M-238 -430l21 78h1024l-21 -78h-1024zM-176 -180l20 78h1024l-20 -78h-1024z" />
    <glyph glyph-name="quoteleft" unicode="&#x2018;" horiz-adv-x="468" 
d="M465 1458h90l-127 -262h59l-45 -184h-172l45 184z" />
    <glyph glyph-name="quoteright" unicode="&#x2019;" horiz-adv-x="468" 
d="M360 1012h-90l125 262h-59l45 184h172l-43 -184z" />
    <glyph glyph-name="quotesinglbase" unicode="&#x201a;" horiz-adv-x="468" 
d="M43 -262h-90l125 262h-60l45 184h173l-43 -184z" />
    <glyph glyph-name="quotereversed" unicode="&#x201b;" horiz-adv-x="468" 
d="M465 1458h90l-127 -262h59l-45 -184h-172l45 184z" />
    <glyph glyph-name="quotedblleft" unicode="&#x201c;" horiz-adv-x="776" 
d="M772 1458h90l-127 -262h60l-45 -184h-172l45 184zM465 1458h90l-127 -262h59l-45 -184h-172l45 184z" />
    <glyph glyph-name="quotedblright" unicode="&#x201d;" horiz-adv-x="776" 
d="M360 1012h-90l125 262h-59l45 184h172l-43 -184zM668 1012h-90l124 262h-59l45 184h172l-43 -184z" />
    <glyph glyph-name="quotedblbase" unicode="&#x201e;" horiz-adv-x="776" 
d="M43 -262h-90l125 262h-60l45 184h173l-43 -184zM350 -262h-90l125 262h-59l45 184h172l-43 -184z" />
    <glyph glyph-name="dagger" unicode="&#x2020;" horiz-adv-x="1071" 
d="M1094 1055l-29 -113h-358l-295 -1188h-133l294 1188h-358l29 113h358l100 403h134l-101 -403h359z" />
    <glyph glyph-name="daggerdbl" unicode="&#x2021;" horiz-adv-x="1071" 
d="M1094 1057l-29 -113h-358l-138 -549h359l-29 -112h-358l-129 -529h-133l131 529h-359l29 112h356l137 549h-358l29 113h358l100 401h134l-101 -401h359z" />
    <glyph glyph-name="bullet" unicode="&#x2022;" horiz-adv-x="659" 
d="M121 729q0 86 61.5 147.5t148.5 61.5t148.5 -61.5t61.5 -147.5t-61.5 -147.5t-148.5 -61.5t-148.5 61.5t-61.5 147.5z" />
    <glyph glyph-name="ellipsis" unicode="&#x2026;" horiz-adv-x="1394" 
d="M-2 0l47 188h174l-45 -188h-176zM479 0l47 188h174l-45 -188h-176zM963 0l47 188h174l-45 -188h-176z" />
    <glyph glyph-name="perthousand" unicode="&#x2030;" horiz-adv-x="1996" 
d="M1466 216q0 -136 112 -136q58 0 102 53t68 129t24 141q0 131 -101 132q-65 0 -111.5 -52.5t-70 -127t-23.5 -139.5zM817 217q0 -137 103 -137q63 0 109 53t68.5 130t22.5 140q0 131 -100 132q-66 0 -111 -52.5t-68.5 -127t-23.5 -138.5zM1673 641q217 0 217 -238
q0 -96 -36.5 -195t-109.5 -166t-178 -67t-162.5 60.5t-57.5 166.5t37.5 206t112.5 166.5t177 66.5zM1022 641q217 0 217 -238q0 -96 -37 -195t-109.5 -166t-178.5 -67t-163 60.5t-57 166.5t38 206t113 166.5t177 66.5zM618 1205.5q0 97.5 -100 97.5q-65 0 -111.5 -52.5
t-70 -128t-23.5 -139.5q0 -135 103 -135q63 0 109 53t69.5 130t23.5 174.5zM520 1407q217 0 217 -236q0 -98 -36.5 -197.5t-110.5 -166t-179 -66.5t-161.5 60.5t-56.5 166.5t37.5 206t111.5 166.5t178 66.5zM31 -61l1241 1503h129l-1243 -1503h-127z" />
    <glyph glyph-name="minute" unicode="&#x2032;" horiz-adv-x="352" 
d="M164 930l207 450h135l-254 -450h-88z" />
    <glyph glyph-name="second" unicode="&#x2033;" horiz-adv-x="606" 
d="M436 930l207 450h135l-254 -450h-88zM164 930l207 450h135l-254 -450h-88z" />
    <glyph glyph-name="guilsinglleft" unicode="&#x2039;" horiz-adv-x="565" 
d="M360 111h-118l-138 417l326 402h135l-334 -418z" />
    <glyph glyph-name="guilsinglright" unicode="&#x203a;" horiz-adv-x="565" 
d="M205 930h119l137 -418l-324 -401h-137l334 417z" />
    <glyph glyph-name="exclamdbl" unicode="&#x203c;" horiz-adv-x="948" 
d="M481 0l47 190h160l-45 -190h-162zM592 336l248 1122h170l-312 -1122h-106zM47 0l47 190h160l-45 -190h-162zM158 336l248 1122h169l-311 -1122h-106z" />
    <glyph glyph-name="interrobang" unicode="&#x203d;" horiz-adv-x="1026" 
d="M502 190l-47 -190h-162l47 190h162zM913 994q0 76 -48 130t-136 70l-158 -571h4q41 35 145 103t148.5 130t44.5 138zM1053 1008q0 -112 -66.5 -200.5t-196.5 -164.5t-174.5 -111.5t-70 -82t-47.5 -132.5h-107l197 881q-102 -16 -175 -86t-106 -186h-131q51 180 165 281.5
t275 113.5l31 137h156l-39 -143q135 -25 212 -110t77 -197z" />
    <glyph glyph-name="overline" unicode="&#x203e;" horiz-adv-x="1024" 
d="M276 1624l25 107h1024l-25 -107h-1024z" />
    <glyph glyph-name="fraction" unicode="&#x2044;" horiz-adv-x="301" 
d="M-446 0l1146 1380h134l-1147 -1380h-133z" />
    <glyph glyph-name="zero.superior" unicode="&#x2070;" horiz-adv-x="849" 
d="M827 1317q0 239 -155 239q-105 0 -180.5 -95t-114.5 -228t-39 -242t41 -171t117 -62q104 0 179 95t113.5 228t38.5 236zM950 1338q0 -150 -54 -307t-159 -266.5t-243 -109.5q-274 0 -273 338q0 137 52.5 294t154.5 266.5t242 109.5t210 -87.5t70 -237.5z" />
    <glyph glyph-name="four.superior" unicode="&#x2074;" horiz-adv-x="786" 
d="M612 1032l121 477h-4l-457 -477h340zM700 930l-63 -254h-115l64 254h-461l27 121l567 591h160l-152 -610h164l-25 -102h-166z" />
    <glyph glyph-name="five.superior" unicode="&#x2075;" horiz-adv-x="811" 
d="M594 1311q113 0 184.5 -73t71.5 -202q0 -88 -46 -176t-134 -146.5t-215 -58.5t-203 58.5t-76 160.5q0 27 6 58h121q-4 -16 -4 -41q0 -61 45 -95t127 -34t141.5 42t89 103t29.5 133t-47 120t-129 48q-142 0 -215 -145l-115 8l199 571h541l-25 -102h-440l-99 -283h5
q75 54 188 54z" />
    <glyph glyph-name="six.superior" unicode="&#x2076;" horiz-adv-x="821" 
d="M328 936q0 -72 46 -123t125 -51t135 41t83.5 100t27.5 129t-44 121t-121.5 51t-134 -39t-87 -98t-30.5 -131zM500 655q-283 0 -283 320q0 141 55.5 302t163 273.5t243.5 112.5t205.5 -63.5t69.5 -165.5q0 -25 -2 -39h-118v14q0 147 -150 147q-102 0 -188 -88t-136 -256h5
q106 94 231 94.5t197.5 -75.5t72.5 -207q0 -82 -44 -168t-128 -143.5t-194 -57.5z" />
    <glyph glyph-name="seven.superior" unicode="&#x2077;" horiz-adv-x="712" 
d="M944 1538q-341 -368 -563 -862h-141q248 512 569 864h-535l27 102h668z" />
    <glyph glyph-name="eight.superior" unicode="&#x2078;" horiz-adv-x="825" 
d="M301 924q0 -76 52.5 -119t137.5 -43t139 29.5t80.5 76.5t26.5 108t-51.5 103.5t-155.5 42.5t-166.5 -61t-62.5 -137zM834 1411q0 145 -192 145q-95 0 -153.5 -56t-58.5 -126t47 -109.5t145 -39.5t155 58t57 128zM952 1432q0 -98 -60.5 -171t-166.5 -102v-4
q59 -20 93 -75.5t34 -128.5t-43 -141.5t-126 -111.5t-210 -43t-209 72.5t-82 178.5t66.5 182.5t183.5 99.5v4q-117 68 -117 192q0 66 41 130.5t120 106.5t198 42t198.5 -66.5t79.5 -164.5z" />
    <glyph glyph-name="nine.superior" unicode="&#x2079;" horiz-adv-x="821" 
d="M813 1382q0 72 -46 123t-125 51t-135 -40.5t-84 -100t-28 -129.5t44 -121t122 -51t134.5 39t87 98t30.5 131zM641 1663q283 0 283 -320q0 -141 -55.5 -301.5t-163 -273.5t-243.5 -113t-206 63.5t-70 166.5q0 25 2 39h119v-15q0 -147 150 -147q102 0 188 88t135 256h-4
q-106 -94 -231 -94t-198 75.5t-73 206.5q0 82 44 168t128 143.5t195 57.5z" />
    <glyph glyph-name="plussuperior" unicode="&#x207a;" horiz-adv-x="829" 
d="M723 1178v-97h-260v-252h-96v252h-261v97h261v254h96v-254h260z" />
    <glyph glyph-name="uni207B" unicode="&#x207b;" horiz-adv-x="831" 
d="M106 1081v97h617v-97h-617z" />
    <glyph glyph-name="equalsuperior" unicode="&#x207c;" horiz-adv-x="829" 
d="M104 967v96h617v-96h-617zM104 1196v96h617v-96h-617z" />
    <glyph glyph-name="parenleftsuperior" unicode="&#x207d;" horiz-adv-x="417" 
d="M309 860q0 -194 51 -395h-90q-154 420 -17.5 749.5t322.5 524.5h103q-186 -223 -277.5 -454t-91.5 -425z" />
    <glyph glyph-name="parenrightsuperior" unicode="&#x207e;" horiz-adv-x="417" 
d="M399 1344q0 194 -51 395h90q72 -197 72 -409t-95.5 -441.5t-281.5 -423.5h-102q186 223 277 454t91 425z" />
    <glyph glyph-name="zero.inferior" unicode="&#x2080;" horiz-adv-x="849" 
d="M571 289q0 239 -155 239q-104 0 -180 -95t-115 -228t-39 -242t41 -171t117 -62q104 0 179 95t113 228q39 133 39 236zM238 -373q-274 0 -273 338q0 137 52 294q53 157 155 267t242 109q282 0 280 -340q0 -135 -54 -292t-158 -267q-106 -110 -244 -109z" />
    <glyph glyph-name="one.inferior" unicode="&#x2081;" horiz-adv-x="505" 
d="M18 -352l177 712h-213l24 93q115 1 177 37t100 124h92l-242 -966h-115z" />
    <glyph glyph-name="two.inferior" unicode="&#x2082;" horiz-adv-x="819" 
d="M682 388q0 -112 -83 -196t-263 -172q-180 -90 -244 -145t-82 -125h541l-25 -102h-663q20 114 64 190t125 137q80 61 232 136t212 131t61 135q0 152 -156 151q-86 0 -144 -51t-85 -141h-127q41 145 136 222t224 77t203 -68q74 -67 74 -179z" />
    <glyph glyph-name="three.inferior" unicode="&#x2083;" horiz-adv-x="808" 
d="M461 -70q0 156 -205 156h-37l23 102h41q176 0 247 107q31 47 31 103t-48 94t-130 36q-190 0 -238 -194h-118q33 141 129 221q96 79 231 79t212 -63t77 -161q0 -205 -232 -281v-2q133 -61 131 -195q0 -70 -43 -140q-44 -70 -126 -118q-82 -47 -212 -47q-130 1 -206 61
t-76 171q0 43 10 73h117q-8 -31 -8 -59q0 -141 180 -141q152 0 220 105q30 46 30 93z" />
    <glyph glyph-name="four.inferior" unicode="&#x2084;" horiz-adv-x="786" 
d="M356 4l121 477h-4l-457 -477h340zM444 -98l-63 -254h-115l64 254h-461l27 121l567 591h160l-152 -610h164l-25 -102h-166z" />
    <glyph glyph-name="five.inferior" unicode="&#x2085;" horiz-adv-x="815" 
d="M598 8q0 -88 -46 -176t-134 -146t-215 -58t-203 58t-76 160q0 27 6 58h121q-4 -16 -4 -41q0 -61 45 -95t127 -34t141 42q122 86 120 236q0 72 -48 120q-47 48 -129 48q-141 0 -215 -145l-115 8l199 571h541l-25 -102h-440l-98 -283h4q73 52 187 53q113 1 185 -72t72 -202
z" />
    <glyph glyph-name="six.inferior" unicode="&#x2086;" horiz-adv-x="821" 
d="M243 -266q79 0 135 41t84 100t28 129t-45 121q-44 51 -122 51t-134 -39t-87 -98q-30 -59 -30 -131t46 -123t125 -51zM-39 -53q0 141 55 302t163 273t244 112t206 -63t69 -165q0 -25 -2 -39h-118v14q0 147 -150 147q-102 0 -188 -88t-136 -256h5q106 94 231 94t198 -75
q73 -76 72 -207q0 -82 -44 -168t-128 -143t-194 -58q-283 0 -283 320z" />
    <glyph glyph-name="seven.inferior" unicode="&#x2087;" horiz-adv-x="714" 
d="M688 510q-341 -368 -563 -862h-141q248 512 569 864h-535l27 102h668z" />
    <glyph glyph-name="eight.inferior" unicode="&#x2088;" horiz-adv-x="823" 
d="M43 -103q0 -77 52 -120q51 -43 137 -43t140 30t81 76q27 48 27 108t-53 103q-52 43 -156 43t-166 -60t-62 -137zM575 383q1 145 -191 145q-96 0 -154 -56t-58 -126t47 -110t145 -39q98 0 154 58q57 58 57 128zM694 404q0 -97 -60 -171t-167 -102v-4q59 -19 93 -75
t34 -129t-43 -141t-126 -112q-83 -43 -210 -43t-209 72q-82 73 -82 179t67 182t183 100v4q-117 68 -117 192q0 66 41 130t120 107q80 42 198 42t198 -67t80 -164z" />
    <glyph glyph-name="nine.inferior" unicode="&#x2089;" horiz-adv-x="821" 
d="M557 354q0 72 -46 123t-125 51t-135 -41t-84 -100t-28 -129t44 -121t122 -51t134 39t87 98t31 131zM385 635q283 0 283 -320q0 -141 -56 -302t-162 -273q-108 -112 -244 -112t-206 63t-70 166q0 25 2 39h119v-15q0 -147 150 -147q102 0 188 88t135 256h-4
q-106 -94 -231 -94t-198 76t-73 206q0 82 44 168t128 144t195 57z" />
    <glyph glyph-name="uni208A" unicode="&#x208a;" horiz-adv-x="829" 
d="M723 150v-97h-260v-252h-96v252h-261v97h261v253h96v-253h260z" />
    <glyph glyph-name="uni208B" unicode="&#x208b;" horiz-adv-x="829" 
d="M106 53v97h617v-97h-617z" />
    <glyph glyph-name="uni208C" unicode="&#x208c;" horiz-adv-x="829" 
d="M104 -61v96h617v-96h-617zM104 168v96h617v-96h-617z" />
    <glyph glyph-name="uni208D" unicode="&#x208d;" horiz-adv-x="417" 
d="M53 -169q0 -194 51 -394h-90q-154 420 24 850q95 229 281 424h103q-187 -224 -278 -455t-91 -425z" />
    <glyph glyph-name="uni208E" unicode="&#x208e;" horiz-adv-x="417" 
d="M141 316q0 194 -51 395h90q72 -197 72 -409t-95 -441t-282 -424h-102q186 223 277 454t91 425z" />
    <glyph glyph-name="uni2099" unicode="&#x2099;" horiz-adv-x="837" 
d="M518 181q0 52 -35 85t-111 33t-153 -59q-76 -59 -104 -168l-105 -424h-110l182 729h108l-22 -88h2q102 106 240 104q106 0 163 -55t58 -160q0 -45 -17 -104l-106 -426h-109l107 426q12 55 12 107z" />
    <glyph glyph-name="franc" unicode="&#x20a3;" horiz-adv-x="1114" 
d="M434 811h637l-31 -123h-637l-65 -268h362l-28 -113h-363l-76 -307h-135l76 307h-178l29 113h178l239 960h815l-30 -120h-680z" />
    <glyph glyph-name="lira" unicode="&#x20a4;" horiz-adv-x="1114" 
d="M1024 1085q0 199 -218 199q-110 0 -188.5 -71.5t-113.5 -206.5l-39 -158h260l-27 -109h-260l-32 -131h260l-29 -110h-258l-27 -105q-25 -104 -64.5 -167.5t-103.5 -106.5v-4h731l-28 -115h-967l29 115q207 0 274 278l27 105h-207l27 110h206l33 131h-205l27 109h207
l45 184q45 184 158.5 279.5t276.5 95.5t248 -80t85 -225q0 -49 -12 -105h-125q10 55 10 88z" />
    <glyph glyph-name="peseta" unicode="&#x20a7;" horiz-adv-x="1660" 
d="M1069 993q0 129 -82 198t-246 69h-219l-151 -609h297q135 0 225 52.5t133 131t43 158.5zM1313 207q0 -103 117 -103q35 0 71 9l-26 -111q-45 -8 -76 -8q-111 0 -162 46t-51 146q0 57 16 117l158 631h-160q-16 -104 -80.5 -196.5t-180.5 -150t-275 -57.5h-324l-129 -530
h-133l342 1380h332q209 0 323.5 -90t126.5 -250h184l60 242h127l-60 -242h209l-26 -106h-209l-162 -649q-12 -47 -12 -78z" />
    <glyph glyph-name="Euro" unicode="&#x20ac;" horiz-adv-x="1114" 
d="M268 496q0 -398 289 -398q121 0 213 80t143 230h140q-72 -209 -205.5 -322t-321.5 -113t-291.5 132.5t-103.5 388.5v16h-131l47 108h92q6 55 23 132h-103l47 108h87q76 236 232.5 392.5t377.5 156.5q186 0 286.5 -90t100.5 -264q0 -37 -6 -84h-140q7 30 7 59
q0 125 -65.5 189.5t-192.5 64.5q-160 0 -276 -120t-181 -304h565l-49 -108h-549q-16 -61 -27 -132h521l-49 -108h-480v-14z" />
    <glyph glyph-name="uni20B9" unicode="&#x20b9;" horiz-adv-x="1114" 
d="M258 614h-33l29 113h106q182 0 293 68.5t148 167.5h-635l59 110h588q-20 197 -340 197h-229l59 110h969l-58 -110h-387v-4q115 -53 123 -193h244l-57 -110h-195q-33 -113 -146.5 -200t-293.5 -118v-4q61 -29 99 -87t65 -159l104 -395h-141l-94 367q-35 135 -98.5 191
t-178.5 56z" />
    <glyph glyph-name="uni20BA" unicode="&#x20ba;" horiz-adv-x="1114" 
d="M258 -6q-78 0 -145 6l149 596l-223 -109l31 125l221 107l51 196l-223 -106l31 125l223 106l84 340h133l-70 -280l389 186l-30 -123l-390 -186l-49 -197l389 187l-30 -123l-389 -189l-136 -540q264 0 443.5 139t226.5 393h139q-61 -323 -270 -488t-555 -165z" />
    <glyph glyph-name="uni20BC" unicode="&#x20bc;" horiz-adv-x="1282" 
d="M1221 780q0 -104 -33 -233l-137 -547h-131l141 571q31 121 31 205q0 141 -60.5 214t-185.5 89l-268 -1079h-132l271 1085q-133 -4 -219 -51t-142.5 -146.5t-97.5 -264.5l-154 -623h-133l164 653q49 201 126 323t193.5 180t284.5 61h11l59 241h131l-61 -250
q172 -26 257 -129.5t85 -298.5z" />
    <glyph glyph-name="uni20BD" unicode="&#x20bd;" horiz-adv-x="1114" 
d="M659 686q125 0 209 50t123 126t39 152q0 121 -74.5 186.5t-224.5 65.5h-221l-145 -580h294zM1163 1018q0 -109 -56 -211t-171 -169t-281 -67h-317l-39 -151h420l-29 -113h-420l-75 -307h-127l75 307h-170l29 113h168l39 151h-170l29 115h170l174 694h331q207 0 313.5 -95
t106.5 -267z" />
    <glyph glyph-name="uni2105" unicode="&#x2105;" horiz-adv-x="1759" 
d="M760 1143q0 78 -45 124t-130 46q-85 1 -152 -57t-101 -144t-35 -176q0 -90 47 -145t125 -55t140 50q62 51 89 125h119q-43 -121 -138 -197t-220 -75q-125 0 -201 80q-76 81 -76 203t47 231t141 181t225 73q132 0 205 -71t72 -189q0 -20 -2 -31h-112q2 8 2 27zM270 0
l1147 1380h133l-1147 -1380h-133zM1067 270q0 -90 48 -146q48 -54 140 -54t158 57t99 143q34 86 34 176t-49 144t-141 55q-92 0 -158 -57q-66 -56 -98 -142t-33 -176zM1659 434q0 -106 -48 -212q-49 -106 -141 -178q-92 -71 -227 -71t-211 81t-76 208q0 271 185 410
q92 70 227 70t213 -80t78 -228z" />
    <glyph glyph-name="uni2113" unicode="&#x2113;" horiz-adv-x="890" 
d="M764 1135q0 170 -100 170q-55 0 -93.5 -55.5t-72.5 -196.5l-133 -537q127 41 218 145.5t136 232.5t45 241zM656 1407q200 0 200 -210t-60.5 -363.5t-178 -269t-279.5 -150.5l-29 -117q-12 -53 -12 -101q0 -104 121 -104q53 0 106 17l-28 -115q-49 -12 -103 -12
q-115 0 -170 52t-55 159q0 53 18 126l21 80q-57 0 -119 15l23 88q51 -10 100 -10h18l140 550q51 203 120 284t167 81z" />
    <glyph glyph-name="uni2116" unicode="&#x2116;" horiz-adv-x="2293" 
d="M1493 238l27 108h630l-26 -108h-631zM1722 782q0 -90 48.5 -145t140.5 -55t157.5 57t99.5 144t34 177t-49.5 144.5t-141.5 54.5t-157.5 -57.5t-98.5 -143.5t-33 -176zM2314 968q0 -126 -47 -233.5t-140 -178.5t-228 -71t-211 81t-76 208t46 234.5t138 177t228 69.5
t213 -80.5t77 -206.5zM1001 0l-225 647q-133 383 -233 678h-4q-37 -152 -152 -606l-176 -719h-133l362 1458h189l225 -647q133 -383 233 -678h5q104 426 180 729l147 596h133l-362 -1458h-189z" />
    <glyph glyph-name="uni2117" unicode="&#x2117;" horiz-adv-x="1667" 
d="M887 719q237 0 237 182q0 92 -61.5 139t-175.5 47h-201v-368h201zM1257 902q0 -144 -96 -223t-272 -79h-203v-375h-129v979h332q178 0 273 -79t95 -223zM186 729q0 -199 81 -348.5t227.5 -232t339 -82.5t339 82.5t227.5 233t81 347.5t-81 347.5t-227.5 233.5t-339 83
t-339 -83t-227.5 -232.5t-81 -348.5zM1567 729q0 -223 -91.5 -393t-258 -264.5t-384 -94.5t-383 94.5t-258 264.5t-92.5 393t92.5 393t258 264.5t383 94.5t384 -94.5t258 -264.5t91.5 -393z" />
    <glyph glyph-name="trademark" unicode="&#x2122;" horiz-adv-x="1611" 
d="M1456 729l154 612h-4l-156 -256l-225 -356h-117l-43 356q-8 76 -29 256h-4l-151 -612h-105l182 729h160l39 -336q18 -137 31 -276h4q111 184 170 276l207 336h172l-182 -729h-103zM573 1364l-159 -635h-105l158 635h-248l25 94h600l-23 -94h-248z" />
    <glyph glyph-name="Omega" unicode="&#x2126;" horiz-adv-x="1486" 
d="M1464 996q0 -240 -132 -449t-392 -422v-4h363l-29 -121h-526l30 125q279 225 411 425t132 406t-108 305q-109 99 -301 99t-330 -102t-210 -260q-71 -158 -71 -312t49 -282t146 -279l-31 -125h-510l29 121h374v4q-92 150 -141 283q-49 134 -49 304t86 352t258 302
q172 119 420 119t390 -125q142 -124 142 -364z" />
    <glyph glyph-name="estimated" unicode="&#x212e;" horiz-adv-x="1759" 
d="M387 1079v-340q0 -27 27 -26h929q27 0 27 26v340q0 55 -31 84q-193 190 -462 190t-459 -190q-31 -31 -31 -84zM1663 668h-1249q-12 0 -19.5 -7.5t-7.5 -17.5v-340q0 -64 31 -90q190 -186 463 -186q147 0 276 61.5t211 161.5h141q-82 -113 -241.5 -194t-389.5 -81
t-408.5 91.5t-276 253t-97.5 366.5t95.5 369t272.5 258t416.5 94t417 -100.5t271.5 -269.5t94 -369z" />
    <glyph glyph-name="oneeighth" unicode="&#x215b;" horiz-adv-x="1464" 
d="M211 553l147 596h-184l25 94q100 0 154 31t85 106h92l-204 -827h-115zM4 0l1147 1380h133l-1147 -1380h-133zM1210 248q0 126 -165 125q-85 0 -134 -47q-49 -46 -49 -108t43 -96t125 -34t131 50t49 110zM971 596q-1 -119 155 -119q80 0 123 44q43 43 43 99t-38 88
t-116 32t-122 -44q-45 -43 -45 -100zM1413 645q0 -86 -52 -146t-149 -85v-4q113 -35 113 -172q0 -62 -37 -122q-38 -60 -108 -98t-182 -36q-112 0 -183 62q-72 62 -72 156q-1 94 57 158q58 63 158 80v4q-48 20 -76 66t-28 101q0 57 36 111t104 90t173 36q104 0 175 -58
q71 -57 71 -143z" />
    <glyph glyph-name="threeeighths" unicode="&#x215c;" horiz-adv-x="1718" 
d="M244 750q0 -111 141 -111q92 0 144 48t53 112q0 121 -166 121h-29l25 104h30q111 0 168 50q58 50 58 106t-37 86q-37 29 -103 28q-152 0 -192 -157h-117q27 123 112 193t203 69q118 0 185 -54q66 -54 65 -151q0 -156 -186 -223v-4q102 -54 100 -168q0 -59 -36 -121
q-37 -60 -109 -102q-73 -42 -185 -42t-180 54q-68 53 -67 149q0 33 8 66h121q-6 -27 -6 -53zM258 0l1147 1380h133l-1147 -1380h-133zM1464 248q0 126 -165 125q-85 0 -134 -47q-49 -46 -49 -108t43 -96t125 -34t131 50t49 110zM1225 596q-1 -119 155 -119q80 0 123 44
q43 43 43 99t-38 88t-116 32t-122 -44q-45 -43 -45 -100zM1667 645q0 -86 -52 -146t-149 -85v-4q113 -35 113 -172q0 -62 -37 -122q-38 -60 -108 -98t-182 -36q-112 0 -183 62q-72 62 -72 156q-1 94 57 158q58 63 158 80v4q-48 20 -76 66t-28 101q0 57 36 111t104 90t173 36
q104 0 175 -58q71 -57 71 -143z" />
    <glyph glyph-name="fiveeighths" unicode="&#x215d;" horiz-adv-x="1722" 
d="M455 997q-114 0 -168 -114l-117 8l170 489h475l-24 -104h-373l-76 -219h2q52 45 150 45t160 -64t62 -158t-38 -170q-39 -76 -116 -125q-76 -50 -188 -50t-178 50t-67 140q0 23 6 49h119q-2 -10 -2 -44t38 -62t102 -27q64 0 112 34q94 67 94 189q0 58 -38 96t-105 37z
M260 0l1147 1380h133l-1147 -1380h-133zM1466 248q0 126 -165 125q-85 0 -134 -47q-49 -46 -49 -108t43 -96t125 -34t131 50t49 110zM1227 596q-1 -119 155 -119q80 0 123 44q43 43 43 99t-38 88t-116 32t-122 -44q-45 -43 -45 -100zM1669 645q0 -86 -52 -146t-149 -85v-4
q113 -35 113 -172q0 -62 -37 -122q-38 -60 -108 -98t-182 -36q-112 0 -183 62q-72 62 -72 156q-1 94 57 158q58 63 158 80v4q-48 20 -76 66t-28 101q0 57 36 111t104 90t173 36q104 0 175 -58q71 -57 71 -143z" />
    <glyph glyph-name="seveneighths" unicode="&#x215e;" horiz-adv-x="1529" 
d="M537 951q-123 -189 -215 -398h-144q207 426 473 723h-444l26 104h580l-25 -104q-128 -136 -251 -325zM68 0l1146 1380h134l-1147 -1380h-133zM1274 248q0 126 -165 125q-85 0 -134 -47q-49 -46 -49 -108t43 -96t125 -34t131 50t49 110zM1034 596q0 -119 156 -119
q80 0 123 44q43 43 43 99t-38 88t-116 32t-123 -44q-45 -43 -45 -100zM1477 645q-1 -86 -53 -146t-148 -85v-4q113 -35 113 -172q0 -62 -37 -122t-108 -98q-70 -38 -182 -36q-112 0 -184 62t-71 156q0 94 57 158q57 63 158 80v4q-47 20 -76 66q-64 101 7 212q36 54 105 90
t173 36t175 -58q71 -57 71 -143z" />
    <glyph glyph-name="Sevenroman" unicode="&#x2166;" horiz-adv-x="2316" 
d="M414 0l-166 1458h133l74 -690q25 -213 69 -639h4l385 639l420 690h150l-889 -1458h-180zM1300 0l363 1458h133l-362 -1458h-134zM1847 0l363 1458h133l-363 -1458h-133z" />
    <glyph glyph-name="partialdiff" unicode="&#x2202;" horiz-adv-x="1206" 
d="M215 350q0 -114 62.5 -184t192.5 -70t228.5 82t148.5 196t50 222t-67.5 184t-197.5 76t-225.5 -81t-143.5 -196t-48 -229zM1141 1000q0 -224 -77 -461.5t-232.5 -401.5t-378.5 -164q-184 0 -279.5 103.5t-95.5 292.5q0 123 63.5 266t190 243.5t286.5 100.5t246 -65.5
t113 -165.5h4q31 123 31 243q0 178 -73 274.5t-198 96.5q-236 0 -301 -236h-139q43 166 151.5 262.5t270.5 96.5q205 0 311.5 -130.5t106.5 -354.5z" />
    <glyph glyph-name="Delta" unicode="&#x2206;" horiz-adv-x="1359" 
d="M1067 121l-168 1229h-4q-227 -362 -383 -605l-397 -624h952zM-117 0l940 1458h183l213 -1458h-1336z" />
    <glyph glyph-name="product" unicode="&#x220f;" horiz-adv-x="1335" 
d="M995 -246v1583h-655v-1583h-133v1704h921v-1704h-133z" />
    <glyph glyph-name="summation" unicode="&#x2211;" horiz-adv-x="964" 
d="M893 -127v-119h-821v119l442 725l-442 741v119h821v-119h-674l438 -741l-438 -725h674z" />
    <glyph glyph-name="minus" unicode="&#x2212;" horiz-adv-x="1159" 
d="M152 590v117h856v-117h-856z" />
    <glyph glyph-name="uni2215" unicode="&#x2215;" horiz-adv-x="905" 
d="M-244 -182l1030 1708h144l-1030 -1708h-144z" />
    <glyph glyph-name="uni2219" unicode="&#x2219;" horiz-adv-x="686" 
d="M256 532v187h174v-187h-174z" />
    <glyph glyph-name="radical" unicode="&#x221a;" horiz-adv-x="1107" 
d="M51 614v107h252l199 -832h4l446 1569h115l-487 -1704h-158l-205 860h-166z" />
    <glyph glyph-name="infinity" unicode="&#x221e;" horiz-adv-x="1241" 
d="M1094 631q0 84 -43 131t-120 47t-131.5 -45t-115.5 -133q61 -88 115.5 -133t131.5 -45t120 47t43 131zM311.5 809q-75.5 0 -120 -47t-44.5 -131t44.5 -131t120 -47t130 45t115.5 133q-61 88 -115.5 133t-130 45zM1210 631q0 -131 -75 -212t-187 -81t-185 53t-142 148
q-70 -94 -142.5 -147.5t-185.5 -53.5t-187.5 81t-74.5 212t74.5 212t186.5 81t185.5 -53.5t143.5 -147.5q70 94 142.5 147.5t184.5 53.5t187 -81t75 -212z" />
    <glyph glyph-name="integral" unicode="&#x222b;" horiz-adv-x="604" 
d="M496 1358q-58 0 -94.5 -43t-36.5 -141v-1280q0 -281 -254 -281q-45 0 -86 8v109q25 -8 82 -8t94 42.5t37 141.5v1280q0 281 256 280q41 0 86 -8v-108q-26 8 -84 8z" />
    <glyph glyph-name="approxequal" unicode="&#x2248;" horiz-adv-x="1159" 
d="M789 420q52 0 87 46t35 124h109q0 -127 -65.5 -206t-174.5 -79q-68 0 -119 28.5t-109 78.5t-94 71t-88 21t-87 -46t-35 -126h-109q0 127 65.5 205.5t174.5 78.5q67 0 117.5 -27.5t110.5 -77.5t95 -70.5t87 -20.5zM789 795q52 0 87 46t35 126h109q0 -127 -65.5 -206
t-174.5 -79q-66 0 -117 28t-108 76t-95 70.5t-90 22.5t-87 -46.5t-35 -123.5h-109q0 127 65.5 205.5t174.5 78.5q67 0 117.5 -27.5t111.5 -78.5t95 -71.5t86 -20.5z" />
    <glyph glyph-name="notequal" unicode="&#x2260;" horiz-adv-x="1159" 
d="M1008 549v-115h-504l-180 -270h-129l178 270h-221v115h297l133 199h-430v114h505l179 271h131l-181 -271h222v-114h-297l-131 -199h428z" />
    <glyph glyph-name="lessequal" unicode="&#x2264;" horiz-adv-x="1159" 
d="M1008 0h-856v115h856v-115zM272 655v-4l736 -307v-127l-856 358v154l856 358v-124z" />
    <glyph glyph-name="greaterequal" unicode="&#x2265;" horiz-adv-x="1159" 
d="M152 0v115h856v-115h-856zM1008 575l-856 -358v127l735 307v4l-735 308v124l856 -358v-154z" />
    <glyph glyph-name="lozenge" unicode="&#x25ca;" horiz-adv-x="1175" 
d="M588 94l370 635l-370 635l-373 -635zM670 0h-164l-424 729l424 729h164l424 -729z" />
    <glyph glyph-name="uniF8FF" unicode="&#xf8ff;" horiz-adv-x="1257" 
d="M508 133v166h158v-166h-158zM958 1026q0 -90 -32 -150t-118 -132q-85 -72 -114 -111t-39 -89t-10 -147h-117v52q0 161 61 244q34 46 103 110q82 72 105 115q23 44 23 118t-54 121t-152 47t-155 -56t-64 -163h-129q8 166 100 252t248 86t250 -82t94 -215zM131 1329v-1200
q0 -82 48 -130t130 -48h639q82 0 130 48t48 130v1200q0 82 -48 130t-130 48h-639q-82 0 -130 -48t-48 -130zM1210 129q0 -121 -70 -191t-192 -71h-639q-121 0 -191 71t-71 191v1200q0 121 71 192t191 70h639q121 1 192 -70t70 -192v-1200z" />
    <glyph glyph-name="ff" unicode="&#xfb00;" horiz-adv-x="1107" 
d="M1225 1358q-78 0 -127 -45t-74 -150l-31 -123h209l-24 -106h-211l-232 -934h-127l234 934h-396l-231 -934h-127l234 934h-189l27 106h188l39 156q66 270 311 270q53 0 95 -10l-27 -106q-29 8 -61 8q-78 0 -127 -45t-74 -150l-31 -123h395l39 156q66 270 312 270
q55 0 92 -10l-25 -106q-29 8 -61 8z" />
    <glyph glyph-name="fi" unicode="&#xfb01;" horiz-adv-x="1056" 
d="M705 1358q-78 0 -127 -45t-74 -150l-31 -123h211l-27 -106h-211l-231 -934h-127l234 934h-189l27 106h188l39 156q66 270 311 270q54 0 95 -10l-27 -106q-29 8 -61 8zM629 0l258 1040h127l-258 -1040h-127zM948 1278l43 180h127l-43 -180h-127z" />
    <glyph glyph-name="fl" unicode="&#xfb02;" horiz-adv-x="1056" 
d="M705 1358q-78 0 -127 -45t-74 -150l-31 -123h211l-27 -106h-211l-231 -934h-127l234 934h-189l27 106h188l39 156q66 270 311 270q54 0 95 -10l-27 -106q-29 8 -61 8zM629 0l362 1458h127l-362 -1458h-127z" />
    <glyph glyph-name="ffi" unicode="&#xfb03;" horiz-adv-x="1574" 
d="M1534 1040l-258 -1040h-127l258 1040h127zM1595 1278h-127l43 180h127zM698 1466q53 0 95 -10l-27 -106q-29 8 -61 8q-78 0 -127.5 -45t-73.5 -150l-31 -123h395l39 156q66 270 312 270q55 0 92 -10l-25 -106q-29 8 -61 8q-78 0 -127 -45t-74 -150l-31 -123h209l-24 -106
h-211l-232 -934h-127l234 934h-396l-231 -934h-127l234 934h-189l27 106h188l39 156q66 270 311 270z" />
    <glyph glyph-name="ffl" unicode="&#xfb04;" horiz-adv-x="1574" 
d="M1276 0h-127l362 1458h127zM698 1466q53 0 95 -10l-27 -106q-29 8 -61 8q-78 0 -127.5 -45t-73.5 -150l-31 -123h395l39 156q66 270 312 270q55 0 92 -10l-25 -106q-29 8 -61 8q-78 0 -127 -45t-74 -150l-31 -123h209l-24 -106h-211l-232 -934h-127l234 934h-396
l-231 -934h-127l234 934h-189l27 106h188l39 156q66 270 311 270z" />
    <glyph glyph-name="uniFEFF" unicode="&#xfeff;" horiz-adv-x="0" 
 />
    <glyph glyph-name="J.acute.loclNLD" horiz-adv-x="690" 
d="M6 -8q-63 0 -102 16l28 119q37 -10 74 -10q127 0 208 69.5t120 221.5l260 1050h135l-272 -1087q-45 -189 -162 -284t-289 -95zM575 1587l248 289h181l-299 -289h-130z" />
    <glyph glyph-name="Ccedilla.ss01" horiz-adv-x="1400" 
d="M1391 1026q0 -43 -7 -86h-139q6 41 6 76q0 158 -97 251t-276.5 93t-320.5 -124t-214 -310.5t-73 -382t100.5 -320.5t273.5 -125t307 100.5t200 266.5h139q-74 -223 -248 -357.5t-407.5 -134.5t-367.5 155t-134 417q0 217 89 435t265.5 361.5t421.5 143.5
q150 0 258.5 -58.5t166 -162t57.5 -238.5zM213 -426l326 326h131l-279 -326h-178z" />
    <glyph glyph-name="Scedilla.ss01" horiz-adv-x="1226" 
d="M1221 1122q0 -57 -15 -116h-135q14 55 14 102q0 256 -319 256q-123 0 -205 -44t-121 -109.5t-39 -131.5q0 -106 69 -161.5t212 -103.5t221 -91q172 -95 172 -305q0 -106 -62.5 -209t-188.5 -169.5t-324.5 -66.5t-314 96.5t-115.5 284.5q0 66 14 131h133q-12 -68 -12 -120
q0 -268 323 -269q143 0 235.5 47t134.5 119t42 146t-35 123t-98.5 82.5t-182 75.5t-194.5 84q-164 91 -164 294q0 96 57.5 193.5t173 161t279.5 63.5q445 -1 445 -363zM121 -426l325 326h132l-279 -326h-178z" />
    <glyph glyph-name="uni0162.ss01" horiz-adv-x="1212" 
d="M874 1337l-331 -1337h-133l331 1337h-518l31 121h1171l-32 -121h-519zM92 -426l326 326h131l-279 -326h-178z" />
    <glyph glyph-name="i.loclTRK" horiz-adv-x="466" 
d="M41 0l258 1040h127l-258 -1040h-127zM360 1278l43 180h127l-43 -180h-127z" />
    <glyph glyph-name="j.acute.loclNLD" horiz-adv-x="481" 
d="M-162 -387q-53 0 -96 12l27 109q31 -8 59 -8q82 0 132 48t79 163l274 1103h127l-284 -1136q-39 -154 -119 -222.5t-199 -68.5zM291 1169l248 289h180l-299 -289h-129z" />
    <glyph glyph-name="ccedilla.ss01" horiz-adv-x="1067" 
d="M1016 709q0 -31 -2 -47h-129q2 14 2 40q0 117 -63.5 185.5t-187.5 68.5t-221.5 -88t-148.5 -219t-51 -266t67.5 -217t184.5 -82t211 77t135 189h137q-59 -168 -190 -272.5t-303 -104.5t-273.5 111t-101.5 284t65.5 330.5t194.5 263t306 105.5t272.5 -97.5t95.5 -260.5z
M59 -426l326 326h131l-278 -326h-179z" />
    <glyph glyph-name="scedilla.ss01" horiz-adv-x="980" 
d="M160 268q0 -184 254 -184q137 0 211.5 55.5t74.5 152.5q0 96 -104 142q-51 22 -147.5 52t-148.5 56q-126 62 -126 218q0 80 47 149.5t136 113.5t235.5 44t236 -69.5t89.5 -198.5q0 -49 -11 -88h-125q8 45 9 73q0 84 -60.5 128t-174.5 44t-183.5 -48t-69.5 -139t86 -128
q41 -18 138 -49t156.5 -58.5t101.5 -84t42 -145.5t-47 -163.5t-143 -121t-255 -46.5t-255 74t-96 211q0 53 12 92h127q-10 -45 -10 -82zM0 -426l326 326h131l-279 -326h-178z" />
    <glyph glyph-name="uni0163.ss01" horiz-adv-x="618" 
d="M268 207q0 -103 117 -103q37 0 74 9l-29 -111q-45 -8 -74 -8q-111 0 -163 46t-52 146q0 57 17 117l157 631h-188l27 106h188l59 242h127l-59 -242h209l-27 -106h-209l-161 -649q-13 -45 -13 -78zM-158 -426l326 326h131l-279 -326h-178z" />
    <glyph glyph-name="a.sups" horiz-adv-x="784" 
d="M262 864q0 -112 146 -112q96 0 170.5 58t101.5 165l16 61q-316 -21 -375 -68.5t-59 -103.5zM578 1423q253 0 253 -219q0 -45 -12 -94l-59 -248q-31 -123 -31 -186h-106q4 39 10 74h-4q-94 -88 -252 -88q-109 0 -171.5 51t-62.5 135q0 205 330 254q121 18 244 22
q12 45 12 82q0 127 -158 127q-84 0 -137 -40t-69 -107h-115q25 102 113 169.5t215 67.5z" />
    <glyph glyph-name="b.sups" horiz-adv-x="843" 
d="M344 955q0 -92 44 -147.5t128 -55.5t150.5 57t100.5 143t34 178t-43 147.5t-128 55.5t-150.5 -56t-100.5 -143t-35 -179zM658 1423q124 0 193 -73.5t69 -195.5t-48.5 -234.5t-139.5 -186.5t-214 -74q-80 0 -137 38t-80 100h-4l-31 -121h-108l256 1020h110l-92 -361h4
q98 88 222 88z" />
    <glyph glyph-name="c.sups" horiz-adv-x="778" 
d="M877 1163q0 -20 -3 -30h-112q2 8 2 26q0 78 -45 124t-130 46t-151.5 -57.5t-101.5 -143.5t-35 -176t47 -145t125 -55t140.5 51t88.5 125h119q-43 -121 -138 -197t-220 -76t-201 80.5t-76 202.5t47.5 231t140.5 181.5t225 72.5t205 -70.5t73 -189.5z" />
    <glyph glyph-name="d.sups" horiz-adv-x="843" 
d="M303 950q0 -92 43 -147t128 -55t150.5 56t100.5 143t35 179t-44 147.5t-128 55.5t-149.5 -57.5t-100.5 -143.5t-35 -178zM446 657q-125 0 -192.5 75t-67.5 196t47.5 233.5t138.5 186t214 73.5q78 0 136 -37.5t81 -99.5h4l102 412h109l-254 -1020h-109l19 72h-4
q-41 -41 -101.5 -66t-122.5 -25z" />
    <glyph glyph-name="e.sups" horiz-adv-x="802" 
d="M780 1157q0 176 -178 176q-96 0 -173 -62.5t-107 -168.5h456q2 20 2 55zM293 942q0 -98 51 -146t135 -48t144.5 39.5t91.5 105.5h112q-41 -100 -132 -169t-226 -69t-209 78t-74 202t49.5 233.5t144.5 182t229 72.5t204 -71.5t70 -200.5q0 -51 -21 -135h-563
q-6 -39 -6 -74z" />
    <glyph glyph-name="egrave.sups" horiz-adv-x="802" 
d="M780 1157q0 176 -178 176q-96 0 -173 -62.5t-107 -168.5h456q2 20 2 55zM293 942q0 -98 51 -146t135 -48t144.5 39.5t91.5 105.5h112q-41 -100 -132 -169t-226 -69t-209 78t-74 202t49.5 233.5t144.5 182t229 72.5t204 -71.5t70 -200.5q0 -51 -21 -135h-563
q-6 -39 -6 -74zM465 1696h151l97 -197h-103z" />
    <glyph glyph-name="f.sups" horiz-adv-x="436" 
d="M641 1612q-105 0 -139 -131l-19 -76h148l-21 -92h-149l-158 -637h-110l159 637h-133l23 92h133l26 104q47 193 234 193q47 0 74 -6l-21 -90q-31 6 -47 6z" />
    <glyph glyph-name="g.sups" horiz-adv-x="841" 
d="M301 966q0 -83 42 -137.5t127 -54.5t151.5 55.5t101.5 138t35 170.5t-47 141.5t-132 53.5t-147.5 -58t-96.5 -142t-34 -167zM229 596q1 -107 179 -107q198 0 256 234l10 47h-2q-100 -88 -227 -88q-126 0 -190.5 77t-64.5 195t47.5 224t136.5 175.5t210 69.5
q161 0 219 -129h2l29 111h108l-178 -723q-35 -139 -131.5 -211t-234.5 -72t-207.5 50.5t-69.5 140.5q0 12 4 41h108q-4 -25 -4 -35z" />
    <glyph glyph-name="h.sups" horiz-adv-x="837" 
d="M653 1421q236 0 236 -215q0 -45 -17 -104l-106 -426h-109l107 426q12 45 12 96q0 129 -135 129q-90 0 -166 -59.5t-102 -167.5l-105 -424h-110l254 1020h110l-94 -377h2q102 102 223 102z" />
    <glyph glyph-name="i.sups" horiz-adv-x="348" 
d="M158 676l180 729h111l-181 -729h-110zM381 1565l31 131h110l-33 -131h-108z" />
    <glyph glyph-name="j.sups" horiz-adv-x="360" 
d="M29 403q-35 0 -80 11l22 94q18 -6 61 -6q92 0 130 135l190 768h109l-199 -797q-51 -205 -233 -205zM393 1565l31 131h108l-30 -131h-109z" />
    <glyph glyph-name="k.sups" horiz-adv-x="722" 
d="M772 676h-135l-272 381h-5l-92 -381h-110l254 1020h110l-145 -584h4l369 293h159l-426 -336z" />
    <glyph glyph-name="l.sups" horiz-adv-x="348" 
d="M158 676l254 1020h110l-254 -1020h-110z" />
    <glyph glyph-name="m.sups" horiz-adv-x="1259" 
d="M1094 1421q215 0 215 -209q0 -45 -17 -114l-106 -422h-111l109 436q16 59 16 110q0 105 -127 105q-84 0 -150.5 -63.5t-93.5 -167.5l-102 -420h-111l111 444q10 45 10 72q0 135 -123 135q-84 0 -150.5 -65.5t-94.5 -171.5l-101 -414h-110l182 729h109l-21 -82h4
q80 98 203 98q76 0 128 -36.5t71 -104.5q106 141 260 141z" />
    <glyph glyph-name="n.sups" horiz-adv-x="837" 
d="M668 1421q106 0 163.5 -55t57.5 -160q0 -45 -17 -104l-106 -426h-109l107 426q12 55 12 96q0 129 -135 129q-88 0 -164 -59.5t-104 -167.5l-105 -424h-110l182 729h109l-23 -88h2q100 104 240 104z" />
    <glyph glyph-name="o.sups" horiz-adv-x="823" 
d="M301 952q0 -90 48.5 -145t140.5 -55t157.5 57t99 143t33.5 176t-49 144.5t-141 54.5t-157.5 -57.5t-98.5 -142.5t-33 -175zM893 1116q0 -106 -48 -212.5t-140.5 -177.5t-227.5 -71t-211 81t-76 208t46.5 233.5t138.5 176t227 69.5t213 -79.5t78 -227.5z" />
    <glyph glyph-name="p.sups" horiz-adv-x="841" 
d="M342 955q0 -92 44 -147.5t128 -55.5t150.5 57t100.5 143t34 178t-43 147.5t-128 55.5t-150.5 -56t-100.5 -143t-35 -179zM918 1154q0 -122 -48.5 -234.5t-139.5 -186.5t-214 -74q-78 0 -136 38t-81 100h-4l-94 -387h-111l248 995h108l-18 -72h4q41 41 101.5 65.5
t121.5 24.5q125 0 194 -73.5t69 -195.5z" />
    <glyph glyph-name="q.sups" horiz-adv-x="843" 
d="M303 950q0 -92 43 -147t128 -55t150.5 56t100.5 143t35 179t-44 147.5t-128 55.5t-149.5 -57.5t-100.5 -143.5t-35 -178zM186 928q0 121 47.5 233.5t138.5 186t214 73.5q78 0 136 -37.5t81 -99.5h4l31 121h108l-250 -995h-108l84 335h-4q-97 -88 -222 -88t-192.5 75
t-67.5 196z" />
    <glyph glyph-name="r.sups" horiz-adv-x="526" 
d="M678 1411q18 0 51 -4l-24 -104q-25 4 -50 4q-113 0 -189.5 -69t-105.5 -189l-90 -373h-110l180 729h109l-27 -107h2q101 113 254 113z" />
    <glyph glyph-name="s.sups" horiz-adv-x="716" 
d="M543 1423q258 0 258 -192q0 -37 -6 -55h-109q4 25 4 45q0 110 -164 110t-164 -114q0 -61 39 -77t115 -40t117 -42t73.5 -60t32.5 -106t-33.5 -117.5t-104.5 -86.5t-189 -33t-189 53.5t-71 151.5q0 37 8 60h108q-6 -25 -6 -52q0 -118 184 -118t185 127q0 51 -37 74.5
t-125 52.5t-124 44t-63.5 52.5t-27.5 115.5t77 142.5t212 64.5z" />
    <glyph glyph-name="t.sups" horiz-adv-x="456" 
d="M399 672q-166 0 -166 130q0 62 11 97l104 414h-133l23 92h133l43 170h108l-43 -170h150l-21 -92h-151l-107 -426q-8 -24 -8 -49q0 -72 84 -72q10 0 53 6l-24 -94q-20 -6 -56 -6z" />
    <glyph glyph-name="u.sups" horiz-adv-x="837" 
d="M209 874q0 45 16 105l107 426h110l-106 -426q-14 -51 -14 -96q0 -129 135 -129q88 0 163.5 59t104.5 168l106 424h109l-182 -729h-109l23 88h-2q-101 -105 -222 -105q-239 0 -239 215z" />
    <glyph glyph-name="v.sups" horiz-adv-x="677" 
d="M305 676l-92 729h111l34 -307q20 -193 33 -316h4l383 623h127l-459 -729h-141z" />
    <glyph glyph-name="w.sups" horiz-adv-x="1110" 
d="M866 774h4l43 84q30 62 127 242l160 305h119l-389 -729h-156l-10 315q0 51 -4 154l-6 160h-4l-74 -140q-18 -35 -41 -78t-51 -96l-170 -315h-154l-29 729h107l8 -305q4 -100 8 -326h4l54 105q23 41 49 93t59 113l168 320h164l8 -320l2 -98q4 -139 4 -213z" />
    <glyph glyph-name="x.sups" horiz-adv-x="702" 
d="M741 676h-120l-146 305h-2l-287 -305h-147l379 387l-172 342h121l127 -277h2l252 277h145l-340 -352z" />
    <glyph glyph-name="y.sups" horiz-adv-x="688" 
d="M72 406q-35 0 -62 8l23 90q33 -4 69 -4t73.5 15t70.5 51t82 110l-115 729h111l86 -594h4l379 594h122l-491 -768q-86 -135 -161 -183t-191 -48z" />
    <glyph glyph-name="z.sups" horiz-adv-x="686" 
d="M244 770h465l-21 -94h-612l24 102l586 529v4h-438l24 94h584l-27 -105l-585 -526v-4z" />
    </font>
</defs>
</svg>
