<?xml version="1.0" standalone="no"?>
<!DOCTYPE svg PUBLIC "-//W3C//DTD SVG 1.1//EN" "http://www.w3.org/Graphics/SVG/1.1/DTD/svg11.dtd" >
<svg xmlns="http://www.w3.org/2000/svg">
<metadata>
Created by FontPrep 20130207 at Sat Mar 12 16:04:00 2016
 By Matthew Higley
Copyright (c) 2015 Monotype Imaging Inc.  All rights reserved.
</metadata>
<defs>
<font id="701efeddeb3f8ab0c257909d0be32d8b" horiz-adv-x='1024' >
  <font-face 
    font-family="NeueHaasUnicaW1G-UltraLight"
    font-weight="250"
    font-stretch="normal"
    units-per-em="2048"
    panose-1="2 11 2 4 3 2 6 2 2 3"
    ascent="1565"
    descent="-483"
    x-height="1040"
    cap-height="1458"
    bbox="-1024 -563 2122 2134"
    underline-thickness="102"
    underline-position="-153"
    unicode-range="U+0020-FEFF"
  />
<missing-glyph horiz-adv-x="1187" 
d="M528 133v117h37v-117h-37zM907 1034q0 -86 -36.5 -147t-128.5 -139t-124 -122t-44.5 -102.5t-12.5 -163.5h-26v35q0 92 13 149.5t48.5 103.5t121.5 121t121 131t35 134q0 111 -80.5 180.5t-208.5 69.5t-206 -72.5t-86 -205.5h-33q10 150 97 230.5t229 80.5t231.5 -79
t89.5 -204zM94 1346v-1233q0 -98 57.5 -155.5t155.5 -57.5h574q98 0 155.5 57t57.5 156v1233q0 98 -57.5 155.5t-155.5 57.5h-574q-98 0 -155.5 -57.5t-57.5 -155.5zM1126 1346v-1233q0 -115 -65.5 -180.5t-179.5 -65.5h-574q-113 0 -179.5 65.5t-66.5 180.5v1233
q0 115 67 180t179 65h574q114 0 179.5 -65.5t65.5 -179.5z" />
    <glyph glyph-name="f_f" unicode="ff" horiz-adv-x="960" 
d="M674 1217q0 247 203 247q29 0 53 -6v-33q-23 6 -53 7q-170 0 -170 -215v-177h221v-32h-221v-1008h-33v1008h-414v-1008h-33v1008h-196v32h196v177q0 123 52.5 185t150.5 62q29 0 53 -6v-33q-20 6 -53 7q-170 0 -170 -215v-177h414v177z" />
    <glyph glyph-name="f_f_i" unicode="ffi" horiz-adv-x="1366" 
d="M1180 1040v-1040h-33v1040h33zM1180 1300h-33v158h33v-158zM877 1464q29 0 53 -6v-33q-23 6 -53 7q-170 0 -170 -215v-177h221v-32h-221v-1008h-33v1008h-414v-1008h-33v1008h-196v32h196v177q0 123 52.5 185t150.5 62q29 0 53 -6v-33q-20 6 -53 7q-170 0 -170 -215v-177
h414v177q0 122 52 184.5t151 62.5z" />
    <glyph glyph-name="f_f_l" unicode="ffl" horiz-adv-x="1366" 
d="M674 1217q0 247 203 247q29 0 53 -6v-33q-23 6 -53 7q-170 0 -170 -215v-177h221v-32h-221v-1008h-33v1008h-414v-1008h-33v1008h-196v32h196v177q1 123 53 185t150 62q29 0 53 -6v-33q-20 6 -53 7q-170 0 -170 -215v-177h414v177zM1147 0v1458h33v-1458h-33z" />
    <glyph glyph-name="f_i" unicode="fi" horiz-adv-x="919" 
d="M733 1040v-1040h-33v1040h33zM733 1300h-33v158h33v-158zM430 1464q29 0 53 -6v-33q-20 6 -53 7q-170 0 -170 -215v-177h221v-32h-221v-1008h-33v1008h-196v32h196v177q0 122 52.5 184.5t150.5 62.5z" />
    <glyph glyph-name="f_l" unicode="fl" horiz-adv-x="919" 
d="M260 1217v-177h221v-32h-221v-1008h-33v1008h-196v32h196v177q1 123 53 185t150 62q29 0 53 -6v-33q-20 6 -53 7q-170 0 -170 -215zM700 0v1458h33v-1458h-33z" />
    <glyph glyph-name=".notdef" horiz-adv-x="1187" 
d="M528 133v117h37v-117h-37zM907 1034q0 -86 -36.5 -147t-128.5 -139t-124 -122t-44.5 -102.5t-12.5 -163.5h-26v35q0 92 13 149.5t48.5 103.5t121.5 121t121 131t35 134q0 111 -80.5 180.5t-208.5 69.5t-206 -72.5t-86 -205.5h-33q10 150 97 230.5t229 80.5t231.5 -79
t89.5 -204zM94 1346v-1233q0 -98 57.5 -155.5t155.5 -57.5h574q98 0 155.5 57t57.5 156v1233q0 98 -57.5 155.5t-155.5 57.5h-574q-98 0 -155.5 -57.5t-57.5 -155.5zM1126 1346v-1233q0 -115 -65.5 -180.5t-179.5 -65.5h-574q-113 0 -179.5 65.5t-66.5 180.5v1233
q0 115 67 180t179 65h574q114 0 179.5 -65.5t65.5 -179.5z" />
    <glyph glyph-name=".null" horiz-adv-x="0" 
 />
    <glyph glyph-name="nonmarkingreturn" horiz-adv-x="681" 
 />
    <glyph glyph-name="NULL" horiz-adv-x="0" 
 />
    <glyph glyph-name="NULL" horiz-adv-x="0" 
 />
    <glyph glyph-name="space" unicode=" " horiz-adv-x="471" 
 />
    <glyph glyph-name="exclam" unicode="!" horiz-adv-x="413" 
d="M188 0v141h37v-141h-37zM197 279l-9 1179h37l-8 -1179h-20z" />
    <glyph glyph-name="quotedbl" unicode="&#x22;" horiz-adv-x="569" 
d="M170 958l-6 500h37l-6 -500h-25zM375 958l-6 500h37l-7 -500h-24z" />
    <glyph glyph-name="numbersign" unicode="#" horiz-adv-x="1267" 
d="M475 911l-69 -436h391l69 436h-391zM829 475h293l-6 -33h-293l-69 -442h-33l70 442h-392l-69 -442h-33l70 442h-295l6 33h295l69 436h-297l7 33h294l70 436h33l-70 -436h391l70 436h33l-70 -436h293l-6 -33h-291z" />
    <glyph glyph-name="dollar" unicode="$" horiz-adv-x="1024" 
d="M893 342q0 209 -118 263t-249 91v-684q172 2 269.5 90t97.5 240zM158 1086q0 -124 39 -185t105.5 -93t191.5 -69v629q-166 -2 -251 -80t-85 -202zM526 -203h-32v183q-395 18 -396 471h33q0 -423 363 -439v695q-133 37 -251 92t-118 268q0 158 94 245t275 89v164h32v-164
q195 -4 291 -113.5t96 -333.5h-32q0 209 -87 309.5t-268 104.5v-637q139 -39 269.5 -100t130.5 -289q0 -166 -106.5 -263t-293.5 -99v-183z" />
    <glyph glyph-name="percent" unicode="%" horiz-adv-x="1533" 
d="M958 345q0 -163 57.5 -248t168 -85t168 85t57.5 248t-57.5 250t-168 87t-168 -87t-57.5 -250zM1442 345q0 -177 -66.5 -271t-191.5 -94t-191.5 94t-66.5 271t66.5 273.5t191.5 96.5t191.5 -96.5t66.5 -273.5zM125 1031q0 -163 57.5 -248t168 -85t167.5 85t57 248t-57 250
t-167.5 87t-168 -87t-57.5 -250zM608 1031q0 -177 -66.5 -271t-191.5 -94t-191.5 94t-66.5 271t66.5 273.5t191.5 96.5t191.5 -96.5t66.5 -273.5zM362 -61l773 1503h36l-772 -1503h-37z" />
    <glyph glyph-name="ampersand" unicode="&#x26;" horiz-adv-x="1439" 
d="M182 375q0 -162 108.5 -262.5t299.5 -100.5q296 0 493 262l-534 521q-135 -70 -213 -127.5t-116 -127t-38 -165.5zM834 1187q0 112 -69 185.5t-177 73.5t-177 -70t-69 -170t43 -176t170 -196q154 78 216.5 159.5t62.5 193.5zM590 -20q-137 0 -236.5 50t-151.5 140
t-52 222t87 228.5t287 196.5q-129 125 -172 204t-43 189t78 189.5t201 79.5t200.5 -83t77.5 -206t-66.5 -212t-217.5 -169l520 -508q129 195 129 508h33q0 -330 -138 -530l285 -279h-47l-258 252q-203 -272 -516 -272z" />
    <glyph glyph-name="quotesingle" unicode="'" horiz-adv-x="364" 
d="M170 958l-6 500h37l-6 -500h-25z" />
    <glyph glyph-name="parenleft" unicode="(" horiz-adv-x="471" 
d="M147 608.5q0 -276.5 62.5 -488.5t200.5 -421h-37q-133 205 -195.5 417t-62.5 492.5t62.5 492.5t195.5 417h37q-138 -209 -200.5 -421t-62.5 -488.5z" />
    <glyph glyph-name="parenright" unicode=")" horiz-adv-x="471" 
d="M356 609q0 -280 -62.5 -492.5t-195.5 -417.5h-37q137 209 200 421t63 488.5t-62.5 488.5t-200.5 421h37q133 -205 195.5 -417t62.5 -492z" />
    <glyph glyph-name="asterisk" unicode="*" horiz-adv-x="757" 
d="M664 1266l12 -37l-277 -82l174 -232l-28 -20l-166 238l-166 -238l-29 20l174 232l-276 82l12 37l273 -97l-7 289h37l-6 -289z" />
    <glyph glyph-name="plus" unicode="+" horiz-adv-x="1159" 
d="M1006 666v-33h-410v-410h-33v410h-409v33h409v409h33v-409h410z" />
    <glyph glyph-name="comma" unicode="," horiz-adv-x="278" 
d="M143 147h33v-147l-72 -260h-28l67 260v147z" />
    <glyph glyph-name="hyphen" unicode="-" horiz-adv-x="561" 
d="M61 582v32h439v-32h-439z" />
    <glyph glyph-name="period" unicode="." horiz-adv-x="278" 
d="M121 0v147h37v-147h-37z" />
    <glyph glyph-name="slash" unicode="/" horiz-adv-x="808" 
d="M61 -182l609 1708h35l-609 -1708h-35z" />
    <glyph glyph-name="zero" unicode="0" horiz-adv-x="1064" 
d="M123 690q0 -678 409.5 -678t409.5 678t-409.5 678t-409.5 -678zM532.5 -20q-442.5 0 -442.5 710q0 350 111.5 530.5t331 180.5t331 -180.5t111.5 -530.5q0 -710 -442.5 -710z" />
    <glyph glyph-name="one" unicode="1" horiz-adv-x="1064" 
d="M541 0v1270h-2q-49 -152 -297 -152v33q145 0 213.5 52t85.5 177h32v-1380h-32z" />
    <glyph glyph-name="two" unicode="2" horiz-adv-x="1064" 
d="M922 1032q0 -109 -42 -181.5t-119 -128.5t-240 -148t-247 -174.5t-111.5 -165t-27.5 -201.5h817v-33h-848l-2 33q0 125 31 213t118 173t251 179t236.5 146.5t111.5 120t39 169.5q0 147 -97.5 240.5t-261.5 93.5t-262 -94t-112 -262h-33q14 180 121.5 284.5t290.5 104.5
q114 0 202 -47t136.5 -130t48.5 -192z" />
    <glyph glyph-name="three" unicode="3" horiz-adv-x="1064" 
d="M920 1028q0 -121 -73 -206t-200 -115v-2q141 -31 222 -119t81 -214t-57 -211t-157.5 -133t-225.5 -48q-190 0 -300 106.5t-110 282.5h33q0 -162 100.5 -259.5t276.5 -97.5q115 0 208 44t146.5 122t53.5 174q0 160 -109 248t-299 88h-94v33h94q180 0 278.5 86t98.5 234
t-105.5 237.5t-275.5 89.5t-268.5 -93t-98.5 -259h-33q0 180 108 282.5t288 102.5q123 0 218 -45t147.5 -126t52.5 -202z" />
    <glyph glyph-name="four" unicode="4" horiz-adv-x="1064" 
d="M692 457v891h-2l-614 -891h616zM725 424v-424h-33v424h-649v41l631 915h51v-923h287v-33h-287z" />
    <glyph glyph-name="five" unicode="5" horiz-adv-x="1064" 
d="M520 850q-278 0 -360 -270l-31 2l78 798h672v-32h-643l-66 -668h2q45 96 134 149.5t214 53.5q193 0 305.5 -121t112.5 -327t-118 -330.5t-303 -124.5t-287.5 99t-102.5 273h33q0 -160 93 -250t265 -90t279.5 116t107.5 308.5t-103.5 303t-281.5 110.5z" />
    <glyph glyph-name="six" unicode="6" horiz-adv-x="1064" 
d="M164 459q0 -197 99 -322t279 -125t284 118t104 309t-107.5 305t-283.5 114q-107 0 -193 -52t-134 -143.5t-48 -203.5zM567 1368q-207 0 -320.5 -203.5t-107.5 -615.5h4q25 147 131 244.5t248 97.5t238 -56.5t149.5 -158t53.5 -236.5t-52.5 -240.5t-146.5 -162.5t-217 -57
q-215 0 -326.5 160t-111.5 512t120.5 550.5t337.5 198.5q154 0 249 -89t122 -247h-33q-27 145 -111.5 224t-226.5 79z" />
    <glyph glyph-name="seven" unicode="7" horiz-adv-x="1064" 
d="M84 1348v32h874v-32q-198 -295 -341.5 -610.5t-237.5 -737.5h-35q98 432 240.5 745.5t337.5 602.5h-838z" />
    <glyph glyph-name="eight" unicode="8" horiz-adv-x="1064" 
d="M135 362q0 -97 51.5 -178.5t141.5 -126.5t204.5 -45t204.5 45t141.5 126t51.5 179t-52.5 173t-142.5 118t-202.5 43t-202.5 -43t-142.5 -118.5t-52.5 -172.5zM168 1044q0 -142 100.5 -228.5t264 -86.5t264 87t100.5 228t-102.5 232.5t-262 91.5t-262 -91t-102.5 -233z
M930 1029q0 -116 -77 -203t-200 -111v-2q135 -33 222.5 -124t87.5 -212t-55.5 -210t-154 -138t-221 -49t-221 49t-154 138t-55.5 210t87 212t223 124v2q-123 25 -200 111t-77 202t51.5 198.5t141.5 128.5t204.5 46t204.5 -46t141.5 -128t51.5 -198z" />
    <glyph glyph-name="nine" unicode="9" horiz-adv-x="1064" 
d="M901 922q0 197 -99.5 321.5t-278.5 124.5t-283.5 -117t-104.5 -309t107.5 -306t283.5 -114q107 0 193 52.5t134 143.5t48 204zM498 12q207 0 320.5 204t107.5 615h-4q-25 -147 -131.5 -244.5t-248.5 -97.5t-237.5 56.5t-149 158t-53.5 236.5t52.5 240.5t146.5 163
t217 57.5q215 0 326.5 -161t111.5 -512t-120.5 -549.5t-337.5 -198.5q-154 0 -249 89t-122 246h33q27 -145 111.5 -224t226.5 -79z" />
    <glyph glyph-name="colon" unicode=":" horiz-adv-x="278" 
d="M121 0v147h37v-147h-37zM121 893v147h37v-147h-37z" />
    <glyph glyph-name="semicolon" unicode=";" horiz-adv-x="282" 
d="M143 147h33v-147l-72 -260h-28l67 260v147zM143 893v147h37v-147h-37z" />
    <glyph glyph-name="less" unicode="&#x3c;" horiz-adv-x="1159" 
d="M186 651v-4l820 -375v-36l-852 391v45l852 391v-37z" />
    <glyph glyph-name="equal" unicode="=" horiz-adv-x="1159" 
d="M154 504v33h852v-33h-852zM154 760v33h852v-33h-852z" />
    <glyph glyph-name="greater" unicode="&#x3e;" horiz-adv-x="1159" 
d="M1006 627l-852 -391v36l819 375v4l-819 375v37l852 -391v-45z" />
    <glyph glyph-name="question" unicode="?" horiz-adv-x="958" 
d="M410 0v141h36v-141h-36zM877 1142q0 -88 -28 -167t-202 -225q-90 -76 -131 -132.5t-57.5 -131t-16.5 -205.5h-26v43q0 115 17.5 186.5t60.5 129.5t133 134t136 131.5t63.5 105t17.5 129.5t-47 152t-130 113t-186 41q-166 0 -264 -92t-111 -262h-32q14 186 120.5 286.5
t286.5 100.5q113 0 203 -45t141.5 -124.5t51.5 -167.5z" />
    <glyph glyph-name="at" unicode="@" horiz-adv-x="1714" 
d="M522 538q0 -154 65.5 -242.5t186.5 -88.5q86 0 159 54t117 172.5t44 278.5t-62 238t-168 78t-182 -59.5t-118 -168t-42 -262.5zM1108 412q0 -205 116.5 -205t181 50t103.5 152.5t39 280.5t-83 332t-235.5 237.5t-363.5 83.5t-371.5 -103t-244.5 -282.5t-84 -397.5
t83 -375.5t235.5 -241.5t359.5 -84q268 0 463 127l18 -29q-207 -131 -481 -131q-215 0 -376 88t-248 253t-87 393t88 413.5t256 294t389 108.5t381 -88t247 -248t87 -348t-43 -298.5t-115.5 -165t-158.5 -54.5q-187 0 -187 246h-2q-86 -246 -301 -246q-135 0 -210 98.5
t-75 264.5t47.5 280.5t130.5 179t193 64.5t180 -70.5t78 -187.5h2q14 98 43 237h33q-88 -423 -88 -628z" />
    <glyph glyph-name="A" unicode="A" horiz-adv-x="1298" 
d="M1008 578l-359 847h-2l-356 -847h717zM276 545l-229 -545h-35l615 1458h43l614 -1458h-35l-229 545h-744z" />
    <glyph glyph-name="B" unicode="B" horiz-adv-x="1204" 
d="M248 33h414q186 0 290.5 95t104.5 254t-108.5 254t-327.5 95h-373v-698zM248 764h373q205 0 303 94t98 245t-100.5 236.5t-303.5 85.5h-370v-661zM1055 1114q0 -154 -81 -247t-224 -117v-2q152 -16 246 -112.5t94 -261.5t-114 -269.5t-314 -104.5h-447v1458h403
q218 0 327.5 -95t109.5 -249z" />
    <glyph glyph-name="C" unicode="C" horiz-adv-x="1351" 
d="M692.5 1446q-161.5 0 -292 -88t-201 -250t-70.5 -379t68.5 -379t195.5 -250t286.5 -88t271.5 59.5t178.5 165t80.5 240.5h33q-16 -145 -86 -258t-189.5 -176t-287.5 -63t-303 92t-208 261t-73 396t75 396t213 261.5t309 92.5t288 -66.5t181.5 -178.5t72.5 -249h-33
q-10 129 -69.5 233.5t-169 166t-271 61.5z" />
    <glyph glyph-name="D" unicode="D" horiz-adv-x="1449" 
d="M248 33h368q342 0 523.5 180t181.5 516t-181.5 516t-523.5 180h-368v-1392zM1354 729q0 -350 -190.5 -539.5t-547.5 -189.5h-401v1458h401q357 0 547.5 -189.5t190.5 -539.5z" />
    <glyph glyph-name="E" unicode="E" horiz-adv-x="1200" 
d="M248 1425v-659h766v-33h-766v-700h829v-33h-862v1458h834v-33h-801z" />
    <glyph glyph-name="F" unicode="F" 
d="M248 1425v-649h743v-33h-743v-743h-33v1458h815v-33h-782z" />
    <glyph glyph-name="G" unicode="G" horiz-adv-x="1427" 
d="M740.5 1446q-199.5 0 -334 -87t-206 -251t-71.5 -385t67.5 -381t195.5 -245t302 -85q229 0 379 161t150 519h-488v33h518v-725h-32v195q0 170 6 258h-2q-37 -221 -176.5 -347t-339 -126t-334.5 89t-207 256t-72 398t76 402t218 262.5t353 91.5t348.5 -121t155.5 -320h-33
q-18 184 -146 296t-327.5 112z" />
    <glyph glyph-name="H" unicode="H" horiz-adv-x="1443" 
d="M1196 0v741h-948v-741h-33v1458h33v-684h948v684h33v-1458h-33z" />
    <glyph glyph-name="I" unicode="I" horiz-adv-x="462" 
d="M215 0v1458h33v-1458h-33z" />
    <glyph glyph-name="J" unicode="J" horiz-adv-x="620" 
d="M111 -8q-45 0 -80 10v33q41 -10 80 -10q131 0 201.5 82.5t70.5 242.5v1108h33v-1108q0 -174 -80 -266t-225 -92z" />
    <glyph glyph-name="K" unicode="K" horiz-adv-x="1089" 
d="M248 754v-754h-33v1458h33v-680h2l717 680h49l-731 -692l796 -766h-49l-782 754h-2z" />
    <glyph glyph-name="L" unicode="L" horiz-adv-x="1075" 
d="M1065 33v-33h-850v1458h33v-1425h817z" />
    <glyph glyph-name="M" unicode="M" horiz-adv-x="1738" 
d="M1491 0v1425h-2l-598 -1425h-43l-598 1425h-2v-1425h-33v1458h55l598 -1425h2l598 1425h56v-1458h-33z" />
    <glyph glyph-name="N" unicode="N" horiz-adv-x="1470" 
d="M248 1427v-1427h-33v1458h53l953 -1427h2v1427h32v-1458h-53l-952 1427h-2z" />
    <glyph glyph-name="O" unicode="O" horiz-adv-x="1437" 
d="M129 729q0 -217 72.5 -379t206 -250t311.5 -88t311 88t206 250t73 379t-73 379t-206 250t-311 88t-311.5 -88t-206 -250t-72.5 -379zM1341 729q0 -227 -75.5 -396t-217 -261t-330 -92t-329.5 92t-217 261t-76 396t76 396t217 261.5t329.5 92.5t330 -92.5t217 -261.5
t75.5 -396z" />
    <glyph glyph-name="P" unicode="P" horiz-adv-x="1177" 
d="M248 721h432q199 0 301 97t102 255t-102 255t-301 97h-432v-704zM1116 1073q0 -172 -111.5 -278.5t-324.5 -106.5h-432v-688h-33v1458h465q213 0 324.5 -106.5t111.5 -278.5z" />
    <glyph glyph-name="Q" unicode="Q" horiz-adv-x="1437" 
d="M1309 729q0 217 -72 379t-203 250t-309 88t-313.5 -88t-209 -250t-73.5 -379t73.5 -379t209 -250t315.5 -88q220 0 365 133l-191 213l23 23l192 -215q193 197 193 563zM1341 729q0 -382 -204 -588l166 -184l-23 -23l-166 187q-154 -141 -387 -141q-190 0 -332.5 92
t-220.5 261t-78 396t78 396t220.5 261.5t330.5 92.5t326.5 -92.5t214 -261.5t75.5 -396z" />
    <glyph glyph-name="R" unicode="R" horiz-adv-x="1210" 
d="M248 733h379q201 0 303 100.5t102 259.5t-109.5 245.5t-328.5 86.5h-346v-692zM1065 1101q0 -165 -85 -262.5t-230 -121.5v-2q84 -23 133 -80t100 -195l162 -440h-35l-158 430q-38 104 -76 160q-73 110 -249 110h-379v-700h-33v1458h379q233 0 352 -96t119 -261z" />
    <glyph glyph-name="S" unicode="S" horiz-adv-x="1179" 
d="M1022 993h-33q0 453 -434 453q-180 0 -285.5 -91t-105.5 -243q0 -104 43 -168.5t130 -104.5t252 -80t260 -82t146.5 -117t51.5 -206q0 -174 -122 -274t-346.5 -100t-348.5 126.5t-124 380.5h33q0 -475 453 -475q199 0 310.5 91.5t111.5 250.5q0 123 -48 191.5
t-135.5 104.5t-254.5 77t-259 86t-139 115.5t-47 183.5q0 166 115.5 266.5t327.5 100.5t330 -122t118 -364z" />
    <glyph glyph-name="T" unicode="T" horiz-adv-x="1163" 
d="M598 1425v-1425h-33v1425h-555v33h1143v-33h-555z" />
    <glyph glyph-name="U" unicode="U" horiz-adv-x="1372" 
d="M686.5 -20q-235.5 0 -359.5 140t-124 412v926h33v-926q0 -260 114.5 -390t335.5 -130t336 130t115 390v926h32v-926q0 -272 -123.5 -412t-359 -140z" />
    <glyph glyph-name="V" unicode="V" horiz-adv-x="1239" 
d="M598 0l-582 1458h35l567 -1423h3l567 1423h35l-582 -1458h-43z" />
    <glyph glyph-name="W" unicode="W" horiz-adv-x="1763" 
d="M1278 0l-395 1425h-2l-396 -1425h-47l-413 1458h32l404 -1423h2l393 1423h51l393 -1423h3l403 1423h33l-414 -1458h-47z" />
    <glyph glyph-name="X" unicode="X" horiz-adv-x="1214" 
d="M1190 0h-41l-541 723h-2l-540 -723h-41l561 750l-531 708h41l510 -682h2l510 682h41l-530 -708z" />
    <glyph glyph-name="Y" unicode="Y" horiz-adv-x="1167" 
d="M600 0h-33v651l-553 807h39l529 -772h2l530 772h39l-553 -807v-651z" />
    <glyph glyph-name="Z" unicode="Z" horiz-adv-x="1120" 
d="M68 33h1017v-33h-1050v45l973 1378v2h-963v33h995v-45l-972 -1378v-2z" />
    <glyph glyph-name="bracketleft" unicode="[" horiz-adv-x="487" 
d="M197 1485v-1755h249v-33h-282v1821h282v-33h-249z" />
    <glyph glyph-name="backslash" unicode="\" horiz-adv-x="808" 
d="M748 -182h-35l-609 1708h35z" />
    <glyph glyph-name="bracketright" unicode="]" horiz-adv-x="487" 
d="M324 -303h-283v33h250v1755h-250v33h283v-1821z" />
    <glyph glyph-name="asciicircum" unicode="^" horiz-adv-x="786" 
d="M719 760l-324 665h-4l-323 -665h-37l340 698h45l340 -698h-37z" />
    <glyph glyph-name="underscore" unicode="_" horiz-adv-x="1024" 
d="M0 -135v33h1024v-33h-1024z" />
    <glyph glyph-name="grave" unicode="`" horiz-adv-x="440" 
d="M338 1176h-35l-201 282h43z" />
    <glyph glyph-name="a" unicode="a" horiz-adv-x="1011" 
d="M117 263q0 -114 84 -182.5t223 -68.5q182 0 285 117q57 66 78.5 130.5t21.5 189.5v133q-230 -27 -386.5 -50.5t-231 -89t-74.5 -179.5zM842 682v-449q0 -131 18 -233h-33q-14 104 -14 170t2 88h-2q-41 -129 -143.5 -203.5t-251 -74.5t-241.5 77.5t-93 205.5t83 202
t266 101.5t376 47.5v68q0 176 -84 261t-234.5 85t-235.5 -82t-95 -219h-33q10 154 106.5 244t259 90t256 -94.5t93.5 -284.5z" />
    <glyph glyph-name="b" unicode="b" horiz-adv-x="1116" 
d="M217 520.5q0 -235.5 98.5 -372t276.5 -136.5t285.5 135.5t107.5 373t-107.5 372.5t-285.5 135t-276.5 -136t-98.5 -371.5zM584 1061q201 0 317.5 -144.5t116.5 -396.5t-117 -396t-317 -144q-150 0 -243 93t-126 244h-2q6 -90 6 -260v-57h-33v1458h33v-475q0 -170 -6 -260
h2q33 152 126 245t243 93z" />
    <glyph glyph-name="c" unicode="c" horiz-adv-x="1009" 
d="M532 1028q-188 0 -294.5 -134t-106.5 -373.5t106.5 -374t294.5 -134.5q147 0 243.5 90.5t111.5 239.5h33q-14 -164 -120 -263t-268 -99q-203 0 -318.5 143t-115.5 397t116 397.5t318 143.5q162 0 267.5 -97.5t120.5 -254.5h-33q-12 143 -109.5 231t-245.5 88z" />
    <glyph glyph-name="d" unicode="d" horiz-adv-x="1116" 
d="M131 520.5q0 -237.5 107.5 -373t285.5 -135.5t276.5 136.5t98.5 372t-98.5 371.5t-276.5 136t-285.5 -135t-107.5 -372.5zM930 0h-33v57q0 170 6 260h-2q-33 -152 -126 -244.5t-243 -92.5q-201 0 -317.5 144t-116.5 396t117 396.5t317 144.5q150 0 243 -93.5t126 -244.5
h2q-6 90 -6 260v475h33v-1458z" />
    <glyph glyph-name="e" unicode="e" horiz-adv-x="1054" 
d="M924 563q0 145 -51.5 251t-141.5 160t-205 54q-180 0 -285.5 -128t-109.5 -337h793zM557.5 -20q-147.5 0 -249 68.5t-156 195.5t-54.5 291t52.5 281.5t149.5 181t226 63.5q168 0 280 -101.5t140 -275.5q10 -61 10 -154h-825q0 -156 50 -272.5t143.5 -181t229.5 -64.5
t235.5 80t117.5 213h35q-23 -150 -130 -237.5t-254.5 -87.5z" />
    <glyph glyph-name="f" unicode="f" horiz-adv-x="514" 
d="M260 1217v-177h221v-32h-221v-1008h-33v1008h-196v32h196v177q0 123 52.5 185t150.5 62q29 0 53 -6v-33q-20 6 -53 7q-170 0 -170 -215z" />
    <glyph glyph-name="g" unicode="g" horiz-adv-x="1116" 
d="M131 536.5q0 -229.5 107.5 -360.5t284.5 -131t275.5 132t98.5 359.5t-98.5 359.5t-275.5 132t-284.5 -131t-107.5 -360.5zM897 1040h33v-977q0 -221 -102.5 -335.5t-292 -114.5t-294 85t-104.5 236h33q0 -137 95 -212.5t257 -75.5q375 0 375 417q0 182 4 275h-2
q-39 -158 -134 -242t-233 -84q-201 0 -317.5 140.5t-116.5 384t117 384t317 140.5q138 0 233 -84t134 -242h2q-4 102 -4 305z" />
    <glyph glyph-name="h" unicode="h" 
d="M594 1061q150 0 243 -108.5t93 -319.5v-633h-33v633q0 197 -84 296t-235 99q-96 0 -178.5 -48t-131.5 -134t-49 -195v-651h-33v1458h33v-418q0 -170 -6 -258h2q35 123 132 201t247 78z" />
    <glyph glyph-name="i" unicode="i" horiz-adv-x="405" 
d="M186 0v1040h33v-1040h-33zM186 1300v158h33v-158h-33z" />
    <glyph glyph-name="j" unicode="j" horiz-adv-x="428" 
d="M18 -383q-20 0 -36 4v33q16 -4 36 -4q96 0 143.5 55t47.5 197v1138h33v-1138q0 -156 -56.5 -220.5t-167.5 -64.5zM209 1300v158h33v-158h-33z" />
    <glyph glyph-name="k" unicode="k" horiz-adv-x="899" 
d="M219 555v-555h-33v1458h33v-880h2l576 462h51l-590 -475l649 -565h-49l-637 555h-2z" />
    <glyph glyph-name="l" unicode="l" horiz-adv-x="405" 
d="M186 0v1458h33v-1458h-33z" />
    <glyph glyph-name="m" unicode="m" horiz-adv-x="1660" 
d="M1489 653v-653h-33v653q0 186 -72.5 280.5t-205.5 94.5q-92 0 -166 -44t-116 -124t-42 -184v-676h-33v696q0 154 -72.5 243t-201.5 89q-92 0 -167 -47t-118 -135t-43 -209v-637h-33v1040h33q0 -166 -6 -252h2q35 127 122 200t209 73t198.5 -71.5t97.5 -194.5
q31 123 121 194.5t226 71.5t218 -103.5t82 -304.5z" />
    <glyph glyph-name="n" unicode="n" 
d="M930 633v-633h-33v633q0 197 -84 296t-235 99q-96 0 -178.5 -48t-131.5 -134t-49 -195v-651h-33v1040h33q0 -170 -6 -258h2q35 123 132 201t246.5 78t243 -108.5t93.5 -319.5z" />
    <glyph glyph-name="o" unicode="o" horiz-adv-x="1081" 
d="M131 520.5q0 -237.5 108.5 -373t301 -135.5t301 135.5t108.5 373t-108.5 372.5t-301 135t-301 -135t-108.5 -372.5zM983 520q0 -252 -117.5 -396t-324.5 -144t-325 144t-118 396t118 396.5t325 144.5t324.5 -144.5t117.5 -396.5z" />
    <glyph glyph-name="p" unicode="p" horiz-adv-x="1116" 
d="M217 520.5q0 -235.5 98.5 -372t276.5 -136.5t285.5 135.5t107.5 373t-107.5 372.5t-285.5 135t-276.5 -136t-98.5 -371.5zM1018 520q0 -252 -117 -396t-317 -144q-150 0 -243 93t-126 244h-2q6 -90 6 -260v-436h-33v1419h33v-57q0 -170 -6 -260h2q33 152 126 245t243 93
q200 0 317 -144.5t117 -396.5z" />
    <glyph glyph-name="q" unicode="q" horiz-adv-x="1116" 
d="M131 520.5q0 -237.5 106.5 -373t285.5 -135.5t276.5 136.5t97.5 372t-97.5 371.5t-276.5 136t-285.5 -135t-106.5 -372.5zM897 756v284h33v-1419h-33v664h-2q-43 -145 -135 -225t-228 -80q-201 0 -317.5 144t-116.5 396t117 396.5t317 144.5q134 0 227 -79t136 -226h2z
" />
    <glyph glyph-name="r" unicode="r" horiz-adv-x="653" 
d="M567 1012q-158 0 -253 -104.5t-95 -307.5v-600h-33v1040h33q0 -178 -6 -272h2q37 137 128 206.5t224 69.5q25 0 58 -4v-32q-33 4 -58 4z" />
    <glyph glyph-name="s" unicode="s" horiz-adv-x="915" 
d="M791 705h-33q0 152 -84 237.5t-223.5 85.5t-222.5 -65.5t-83 -174.5q0 -74 32 -115.5t93.5 -66t188 -52.5t206.5 -60.5t118 -87t38 -144.5q0 -125 -97 -203.5t-264 -78.5t-268.5 99t-101.5 277h33q0 -164 92 -254t244.5 -90t240.5 70t88 166t-35.5 143t-107.5 76t-199 55
q-126 28 -194 56q-138 58 -139 210q0 123 93 198t245.5 75t246 -95.5t93.5 -260.5z" />
    <glyph glyph-name="t" unicode="t" horiz-adv-x="552" 
d="M416 -4q-98 0 -143.5 56.5t-45.5 180.5v775h-198v32h198v240h33v-240h217v-32h-217v-775q0 -111 36 -157.5t120 -46.5q34 0 71 8v-33q-37 -8 -71 -8z" />
    <glyph glyph-name="u" unicode="u" 
d="M172 408v632h33v-632q0 -197 84 -296.5t235 -99.5q96 0 178 48.5t131.5 134.5t49.5 194v651h32v-1040h-32v227h-2q-45 -117 -141.5 -182t-215.5 -65q-166 0 -259 108.5t-93 319.5z" />
    <glyph glyph-name="v" unicode="v" horiz-adv-x="882" 
d="M418 0l-414 1040h35l401 -1009h2l402 1009h35l-414 -1040h-47z" />
    <glyph glyph-name="w" unicode="w" horiz-adv-x="1519" 
d="M1102 0l-340 1010h-4l-340 -1010h-49l-349 1040h33l338 -1007h4l340 1007h49l340 -1007h4l338 1007h33l-348 -1040h-49z" />
    <glyph glyph-name="x" unicode="x" horiz-adv-x="901" 
d="M893 0h-41l-399 514h-2l-402 -514h-41l424 541l-389 499h41l367 -473h2l364 473h41l-387 -499z" />
    <glyph glyph-name="y" unicode="y" horiz-adv-x="882" 
d="M106 -387q-64 0 -96 14v33q31 -14 91.5 -14t108.5 28q97 56 206 324l-412 1042h35l393 -995h2l410 995h35l-433 -1052q-112 -284 -220 -344q-56 -30 -120 -31z" />
    <glyph glyph-name="z" unicode="z" horiz-adv-x="903" 
d="M74 33h788v-33h-821v49l768 955v4h-748v32h781v-49l-768 -954v-4z" />
    <glyph glyph-name="braceleft" unicode="{" horiz-adv-x="571" 
d="M258 1212v-356q0 -104 -32.5 -159.5t-114.5 -86.5v-4q82 -31 114.5 -86t32.5 -160v-358q0 -145 64.5 -208.5t207.5 -63.5v-33h-4q-154 0 -227.5 73.5t-73.5 231.5v358q0 100 -31.5 148.5t-111.5 77.5v45q80 29 111.5 77t31.5 148v356q0 158 74 232t227 74h4v-33
q-143 0 -207.5 -63.5t-64.5 -209.5z" />
    <glyph glyph-name="bar" unicode="|" horiz-adv-x="483" 
d="M225 -420v1919h33v-1919h-33z" />
    <glyph glyph-name="braceright" unicode="}" horiz-adv-x="571" 
d="M346 1212v-356q0 -100 32 -148.5t111 -76.5v-45q-80 -29 -111.5 -77t-31.5 -149v-358q0 -158 -73.5 -231.5t-227.5 -73.5h-4v33q145 0 208.5 63.5t63.5 208.5v358q0 104 33 159.5t115 86.5v4q-82 31 -115 86.5t-33 159.5v356q0 145 -63.5 209t-208.5 64v33h4
q154 0 227.5 -74t73.5 -232z" />
    <glyph glyph-name="asciitilde" unicode="~" horiz-adv-x="1159" 
d="M870 522q88 0 146.5 71t58.5 187h33q0 -131 -69 -211t-167 -80t-160.5 37t-142.5 108t-136 105.5t-144 34.5t-146.5 -70.5t-58.5 -187.5h-33q0 131 68.5 211t166.5 80t161 -37.5t143 -107.5t136 -105t144 -35z" />
    <glyph glyph-name="uni00A0" unicode="&#xa0;" horiz-adv-x="471" 
 />
    <glyph glyph-name="exclamdown" unicode="&#xa1;" horiz-adv-x="413" 
d="M217 762l8 -1180h-37l9 1180h20zM225 1040v-141h-37v141h37z" />
    <glyph glyph-name="cent" unicode="&#xa2;" horiz-adv-x="1024" 
d="M135 682q0 -236 101.5 -369t283.5 -139v1016q-182 -6 -283.5 -139t-101.5 -369zM553 -37h-33v178q-195 6 -306.5 149.5t-111.5 391.5t112 391.5t306 149.5v178h33v-178q156 -6 256 -102.5t115 -250.5h-33q-12 139 -104.5 226.5t-233.5 93.5v-1016q141 6 232.5 95
t105.5 235h33q-14 -160 -114.5 -258.5t-256.5 -104.5v-178z" />
    <glyph glyph-name="sterling" unicode="&#xa3;" horiz-adv-x="1024" 
d="M942 0h-893v33q106 0 165.5 73.5t59.5 217.5v323h-225v33h225v332q0 186 88.5 287.5t244 101.5t244.5 -105.5t89 -291.5h-33q0 172 -79.5 268t-221 96t-220.5 -92t-79 -264v-332h279v-33h-279v-323q0 -133 -46 -205t-114 -90v-2q84 6 269 6h526v-33z" />
    <glyph glyph-name="currency" unicode="&#xa4;" horiz-adv-x="1024" 
d="M885 596q0 178 -102.5 285.5t-270.5 107.5t-270.5 -107.5t-102.5 -285.5t102.5 -285.5t270.5 -107.5t270.5 107.5t102.5 285.5zM511.5 170q-165.5 0 -275.5 100l-160 -170l-25 23l162 170q-106 117 -106.5 303t106.5 303l-162 170l25 23l160 -170q111 100 276.5 100
t275.5 -100l160 170l25 -23l-162 -170q106 -117 106 -303t-106 -303l162 -170l-25 -23l-160 170q-111 -100 -276.5 -100z" />
    <glyph glyph-name="yen" unicode="&#xa5;" horiz-adv-x="1024" 
d="M918 705v-33h-390v-185h390v-32h-390v-455h-32v455h-390v32h390v185h-390v33h367l-463 675h39l461 -673h2l463 673h39l-463 -675h367z" />
    <glyph glyph-name="brokenbar" unicode="&#xa6;" horiz-adv-x="483" 
d="M225 -420v717h33v-717h-33zM225 782v717h33v-717h-33z" />
    <glyph glyph-name="section" unicode="&#xa7;" horiz-adv-x="1001" 
d="M164 702q0 -70 24.5 -115.5t86 -89.5t193.5 -112t196 -106q174 106 174 272q0 70 -22.5 115t-89.5 93t-207 120t-185 96q-170 -121 -170 -273zM209 57q-1 -313 279 -313q140 0 214 69t74 177t-28.5 160.5t-90 92t-201.5 111.5t-207 120t-92.5 99.5t-25.5 128.5
q0 162 174 289v2q-61 43 -86.5 91.5t-25.5 129.5q0 119 78.5 192t218.5 73t219 -81t82 -241h-33q-6 289 -279 289q-117 0 -185.5 -64t-68.5 -154t24.5 -133.5t82.5 -79.5t204 -110t217.5 -127t94 -102t22.5 -125q0 -170 -178 -291v-2q66 -49 91.5 -106.5t25.5 -145.5
q0 -135 -83 -215t-228 -80q-322 0 -322 346h33z" />
    <glyph glyph-name="dieresis" unicode="&#xa8;" horiz-adv-x="614" 
d="M479 1300v158h33v-158h-33zM102 1300v158h33v-158h-33z" />
    <glyph glyph-name="copyright" unicode="&#xa9;" horiz-adv-x="1683" 
d="M844 1221q-182 0 -287.5 -133.5t-105.5 -360.5t103.5 -358t267.5 -131t258 88t108 227h33q-16 -156 -120 -252t-248 -96t-238.5 63.5t-145.5 181t-51 276.5t52 278.5t149 184t243 64.5t244 -98t108 -246h-32q-12 133 -100.5 222.5t-237.5 89.5zM145 729q0 -213 87 -376
t245 -252t365 -89t364.5 89t244.5 252t87 376t-87 376t-244.5 252t-364.5 89t-365 -89t-245 -252t-87 -376zM1571 729q0 -221 -91 -391t-257 -264t-381 -94t-381 94t-257 264t-91 391t91 391t257 264.5t381 94.5t381 -94.5t257 -264.5t91 -391z" />
    <glyph glyph-name="ordfeminine" unicode="&#xaa;" horiz-adv-x="733" 
d="M94 861q0 -77 58 -123t170 -46t186 80q41 47 56 90t16 127v88q-186 -20 -282 -34q-96 -13 -150 -59t-54 -123zM612 836q0 -92 15 -160h-33q-12 78 -12 151h-2q-78 -165 -275 -165q-111 0 -179 55t-67 145q-1 90 61 142t175 69q113 16 285 35v45q0 121 -58 178t-165 57
t-165 -54q-58 -56 -67 -148h-33q8 106 78 170t188 64t187 -67q68 -67 67 -202v-315z" />
    <glyph glyph-name="guillemotleft" unicode="&#xab;" horiz-adv-x="737" 
d="M625 111h-37l-234 409l234 410h37l-234 -410zM383 111h-37l-233 409l233 410h37l-233 -410z" />
    <glyph glyph-name="logicalnot" unicode="&#xac;" horiz-adv-x="1159" 
d="M973 326v532h-819v33h852v-565h-33z" />
    <glyph glyph-name="uni00AD" unicode="&#xad;" horiz-adv-x="561" 
d="M61 582v32h439v-32h-439z" />
    <glyph glyph-name="registered" unicode="&#xae;" horiz-adv-x="1179" 
d="M756 1126q0 142 -181 142h-151v-287h158q86 0 130 41t44 104zM788 1134q0 -74 -36.5 -116.5t-98.5 -52.5v-2q37 -10 58.5 -35t42.5 -84l71 -199h-34l-68 189q-23 66 -52.5 90t-88.5 24h-158v-303h-33v655h184q107 0 160 -46t53 -120zM125 966.5q0 -141.5 58.5 -250
t164 -169t242.5 -60.5t242.5 60.5t164 169t58.5 250t-58.5 250t-164 169t-242.5 60.5t-242.5 -60.5t-164 -169t-58.5 -250zM1087 966.5q0 -151.5 -62 -267t-175 -180t-260.5 -64.5t-260 64.5t-175 180t-62.5 267t62.5 267.5t175 180.5t260 64.5t260.5 -64.5t175 -180.5
t62 -267.5z" />
    <glyph glyph-name="macron" unicode="&#xaf;" horiz-adv-x="667" 
d="M102 1327v33h463v-33h-463z" />
    <glyph glyph-name="degree" unicode="&#xb0;" horiz-adv-x="593" 
d="M125 1275q0 -71 51 -122t122 -51t121 51t50 122t-50 121t-121 50t-122 -50t-51 -121zM502 1274q0 -84 -60.5 -144.5t-144.5 -60.5t-144.5 60.5t-60.5 144.5t60.5 144.5t144.5 60.5t144.5 -60.5t60.5 -144.5z" />
    <glyph glyph-name="plusminus" unicode="&#xb1;" horiz-adv-x="1159" 
d="M154 0v33h852v-33h-852zM1006 645v-33h-410v-409h-33v409h-409v33h409v410h33v-410h410z" />
    <glyph glyph-name="twosuperior" unicode="&#xb2;" horiz-adv-x="780" 
d="M117 709h583v-33h-614q-2 10 -2 61t33.5 144.5t259.5 220.5q111 63 190.5 117.5t79.5 167.5q0 112 -68.5 174.5t-184.5 62.5t-184.5 -63.5t-78.5 -178.5h-33q10 127 88 201t207 74t208 -72t79 -198t-87 -188t-201 -126t-174 -119t-80.5 -111.5t-20.5 -133.5z" />
    <glyph glyph-name="threesuperior" unicode="&#xb3;" horiz-adv-x="776" 
d="M475 1169q213 -49 213 -251q0 -106 -90 -181t-229 -75t-219 74.5t-80 201.5h32q0 -113 71 -178.5t196 -65.5t205.5 64.5t80.5 169.5t-76.5 165t-211.5 60h-64v33h64q127 0 197.5 58.5t70.5 158.5t-74.5 160.5t-194.5 60.5t-190 -63.5t-70 -176.5h-32q0 127 79 200t213 73
t218 -69.5t84 -173.5q0 -198 -193 -243v-2z" />
    <glyph glyph-name="acute" unicode="&#xb4;" horiz-adv-x="440" 
d="M102 1176l193 282h43l-201 -282h-35z" />
    <glyph glyph-name="mu" unicode="&#xb5;" horiz-adv-x="1120" 
d="M219 0v-379h-33v1419h33v-632q0 -197 84 -296t236 -100q96 0 176 47t128 135t48 203v643h33v-817q-1 -116 22 -156t80 -40q27 0 49 8v-33q-23 -8 -49 -8q-70 0 -102 46t-33 165q0 20 2 39h-2q-35 -123 -132 -194t-220 -70q-267 0 -324 256h-2q6 -80 6 -236z" />
    <glyph glyph-name="paragraph" unicode="&#xb6;" horiz-adv-x="1013" 
d="M809 1425v-1671h-33v1671h-190v-1671h-33v926h-102q-168 0 -268.5 105.5t-100.5 283.5t100.5 283.5t268.5 105.5h522v-33h-164z" />
    <glyph glyph-name="periodcentered" unicode="&#xb7;" horiz-adv-x="278" 
d="M121 553v147h37v-147h-37z" />
    <glyph glyph-name="cedilla" unicode="&#xb8;" horiz-adv-x="563" 
d="M295 -135q80 0 123 -36.5t43 -102.5t-49.5 -106t-137.5 -40t-172 47l17 29q74 -43 153 -43q156 0 156 115q0 106 -133 106q-37 0 -68 -10l-22 22l104 154h39l-96 -141q18 6 43 6z" />
    <glyph glyph-name="onesuperior" unicode="&#xb9;" horiz-adv-x="442" 
d="M236 676v868h-3q-38 -94 -213 -94v31q104 0 154.5 36.5t63.5 124.5h30v-966h-32z" />
    <glyph glyph-name="ordmasculine" unicode="&#xba;" horiz-adv-x="782" 
d="M102 1040q0 -162 77 -254t212 -92t212 92t77 254t-77 254t-212 92t-212 -92t-77 -254zM713 1040q0 -176 -86 -277t-236 -101q-149 0 -235 101t-86 277t86 278t236 101q150 0 235 -101q86 -102 86 -278z" />
    <glyph glyph-name="guillemotright" unicode="&#xbb;" horiz-adv-x="737" 
d="M625 520l-234 -409h-37l234 409l-234 410h37zM383 520l-233 -409h-37l233 409l-233 410h37z" />
    <glyph glyph-name="onequarter" unicode="&#xbc;" horiz-adv-x="1198" 
d="M205 553v731h-2q-41 -74 -185 -74v33q90 0 134 31q43 31 53 106h33v-827h-33zM68 0l806 1380h37l-807 -1380h-36zM973 281v507h-2l-363 -507h365zM1006 248v-248h-33v248h-402v37l387 542h48v-546h172v-33h-172z" />
    <glyph glyph-name="onehalf" unicode="&#xbd;" horiz-adv-x="1267" 
d="M205 553v731h-2q-41 -74 -185 -74v33q90 0 134 31q43 31 53 106h33v-827h-33zM68 0l806 1380h37l-807 -1380h-36zM1182 635q0 -82 -27 -127t-76 -81t-146 -89q-184 -101 -217 -193q-17 -47 -18 -112h502v-33h-534v20q0 78 19 132q39 110 233 215q94 53 138 84
q93 66 93 160t-57 146q-56 52 -154 52t-154 -54t-67 -151h-33q10 111 77 174t176 63t177 -62t68 -144z" />
    <glyph glyph-name="threequarters" unicode="&#xbe;" horiz-adv-x="1482" 
d="M414 975q182 -38 182 -215q0 -92 -77 -157t-197 -65t-190 66q-71 66 -71 174h33q0 -94 62 -150t166 -56q106 0 174 54q68 56 68 144t-66 138t-183 50h-53v33h53q109 0 169 50q60 49 60 135t-60 136q-62 50 -164 50t-162 -53q-59 -53 -60 -150h-32q0 111 69 173t185 62
t187 -60t71 -156q0 -154 -164 -201v-2zM352 0l807 1380h37l-807 -1380h-37zM1257 281v507h-2l-362 -507h364zM1290 248v-248h-33v248h-401v37l387 542h47v-546h172v-33h-172z" />
    <glyph glyph-name="questiondown" unicode="&#xbf;" horiz-adv-x="884" 
d="M82 -101q0 87 28 166t201 226q90 76 131 132t57.5 131t16.5 206h27v-43q0 -115 -17.5 -186.5t-60.5 -130t-133 -134.5t-136 -131t-63.5 -105t-17.5 -130t47 -152t130 -113t185 -41q166 0 264.5 92.5t110.5 262.5h33q-14 -186 -121 -286.5t-287 -100.5q-112 0 -202.5 45
t-141.5 125t-51 167zM549 1040v-141h-37v141h37z" />
    <glyph glyph-name="Agrave" unicode="&#xc0;" horiz-adv-x="1298" 
d="M1008 578l-359 847h-2l-356 -847h717zM276 545l-229 -545h-35l615 1458h43l614 -1458h-35l-229 545h-744zM764 1556h-39l-225 259h45z" />
    <glyph glyph-name="Aacute" unicode="&#xc1;" horiz-adv-x="1298" 
d="M1008 578l-359 847h-2l-356 -847h717zM276 545l-229 -545h-35l615 1458h43l614 -1458h-35l-229 545h-744zM535 1556l219 259h45l-226 -259h-38z" />
    <glyph glyph-name="Acircumflex" unicode="&#xc2;" horiz-adv-x="1298" 
d="M1008 578l-359 847h-2l-356 -847h717zM276 545l-229 -545h-35l615 1458h43l614 -1458h-35l-229 545h-744zM666 1815l245 -259h-45l-217 228l-217 -228h-45l246 259h33z" />
    <glyph glyph-name="Atilde" unicode="&#xc3;" horiz-adv-x="1298" 
d="M1008 578l-359 847h-2l-356 -847h717zM276 545l-229 -545h-35l615 1458h43l614 -1458h-35l-229 545h-744zM811 1628q-51 0 -87 17.5t-102.5 66.5t-119.5 49q-107 0 -115 -133h-33q6 80 44 123t89.5 43t87 -17.5t102 -66.5t119.5 -49q107 0 115 133h33q-6 -80 -44 -123
t-89 -43z" />
    <glyph glyph-name="Adieresis" unicode="&#xc4;" horiz-adv-x="1298" 
d="M1008 578l-359 847h-2l-356 -847h717zM276 545l-229 -545h-35l615 1458h43l614 -1458h-35l-229 545h-744zM821 1595v158h33v-158h-33zM444 1595v158h33v-158h-33z" />
    <glyph glyph-name="Aring" unicode="&#xc5;" horiz-adv-x="1298" 
d="M1008 578l-359 847h-2l-356 -847h717zM276 545l-229 -545h-35l615 1458h43l614 -1458h-35l-229 545h-744zM510 1744q0 -58 41 -99t99 -41t98 41t40 99t-39.5 98t-98 40t-99.5 -40t-41 -98zM821 1743q0 -72 -50 -122t-121.5 -50t-122 50t-50.5 122t51.5 122t122 50
t120.5 -50t50 -122z" />
    <glyph glyph-name="AE" unicode="&#xc6;" horiz-adv-x="1853" 
d="M834 1425h-43l-435 -809h607zM1731 0h-672l-92 584h-629l-313 -584h-37l784 1458h930v-33h-836l105 -659h696v-33h-692l112 -700h644v-33z" />
    <glyph glyph-name="Ccedilla" unicode="&#xc7;" horiz-adv-x="1351" 
d="M711 -135q80 0 123 -37t43 -102.5t-49.5 -105.5t-137.5 -40t-172 47l17 29q74 -43 152.5 -43t117.5 30.5t39 84.5q0 106 -133 106q-37 0 -68 -10l-22 22l90 134h-19q-180 0 -315 92t-208 261t-73 396t75 396t213 261.5t309.5 92.5t288 -66.5t181 -178.5t72.5 -249h-33
q-10 129 -69.5 233.5t-169 166t-271 61.5t-292 -88t-201 -250t-70.5 -379t68.5 -379t195.5 -250t286.5 -88t271.5 59.5t178.5 165t80.5 240.5h33q-22 -209 -152 -343t-339 -152l-84 -123q18 6 43 6z" />
    <glyph glyph-name="Egrave" unicode="&#xc8;" horiz-adv-x="1200" 
d="M248 1425v-659h766v-33h-766v-700h829v-33h-862v1458h834v-33h-801zM748 1556h-39l-226 259h45z" />
    <glyph glyph-name="Eacute" unicode="&#xc9;" horiz-adv-x="1200" 
d="M248 1425v-659h766v-33h-766v-700h829v-33h-862v1458h834v-33h-801zM518 1556l219 259h45l-225 -259h-39z" />
    <glyph glyph-name="Ecircumflex" unicode="&#xca;" horiz-adv-x="1200" 
d="M248 1425v-659h766v-33h-766v-700h829v-33h-862v1458h834v-33h-801zM649 1815l246 -259h-45l-217 228l-217 -228h-45l245 259h33z" />
    <glyph glyph-name="Edieresis" unicode="&#xcb;" horiz-adv-x="1200" 
d="M248 1425v-659h766v-33h-766v-700h829v-33h-862v1458h834v-33h-801zM805 1595v158h33v-158h-33zM428 1595v158h33v-158h-33z" />
    <glyph glyph-name="Igrave" unicode="&#xcc;" horiz-adv-x="462" 
d="M215 0v1458h33v-1458h-33zM346 1556h-39l-225 259h45z" />
    <glyph glyph-name="Iacute" unicode="&#xcd;" horiz-adv-x="462" 
d="M215 0v1458h33v-1458h-33zM117 1556l219 259h45l-225 -259h-39z" />
    <glyph glyph-name="Icircumflex" unicode="&#xce;" horiz-adv-x="462" 
d="M215 0v1458h33v-1458h-33zM248 1815l246 -259h-45l-218 228l-217 -228h-45l246 259h33z" />
    <glyph glyph-name="Idieresis" unicode="&#xcf;" horiz-adv-x="462" 
d="M215 0v1458h33v-1458h-33zM403 1595v158h33v-158h-33zM27 1595v158h32v-158h-32z" />
    <glyph glyph-name="Eth" unicode="&#xd0;" horiz-adv-x="1449" 
d="M1321 729q0 336 -181.5 516t-523.5 180h-368v-671h524v-33h-524v-688h368q342 0 523.5 180t181.5 516zM1354 729q0 -350 -190.5 -539.5t-547.5 -189.5h-401v721h-123v33h123v704h401q357 0 547.5 -189.5t190.5 -539.5z" />
    <glyph glyph-name="Ntilde" unicode="&#xd1;" horiz-adv-x="1470" 
d="M248 1427v-1427h-33v1458h53l953 -1427h2v1427h32v-1458h-53l-952 1427h-2zM897 1628q-51 0 -87 17.5t-102.5 66.5t-119.5 49q-107 0 -115 -133h-33q6 80 44 123t89.5 43t87 -17.5t102 -66.5t119.5 -49q107 0 115 133h33q-6 -80 -44 -123t-89 -43z" />
    <glyph glyph-name="Ograve" unicode="&#xd2;" horiz-adv-x="1437" 
d="M129 729q0 -217 72.5 -379t206 -250t311.5 -88t311 88t206 250t73 379t-73 379t-206 250t-311 88t-311.5 -88t-206 -250t-72.5 -379zM1341 729q0 -227 -75.5 -396t-217 -261t-330 -92t-329.5 92t-217 261t-76 396t76 396t217 261.5t329.5 92.5t330 -92.5t217 -261.5
t75.5 -396zM834 1556h-39l-226 259h45z" />
    <glyph glyph-name="Oacute" unicode="&#xd3;" horiz-adv-x="1437" 
d="M129 729q0 -217 72.5 -379t206 -250t311.5 -88t311 88t206 250t73 379t-73 379t-206 250t-311 88t-311.5 -88t-206 -250t-72.5 -379zM1341 729q0 -227 -75.5 -396t-217 -261t-330 -92t-329.5 92t-217 261t-76 396t76 396t217 261.5t329.5 92.5t330 -92.5t217 -261.5
t75.5 -396zM604 1556l219 259h45l-225 -259h-39z" />
    <glyph glyph-name="Ocircumflex" unicode="&#xd4;" horiz-adv-x="1437" 
d="M129 729q0 -217 72.5 -379t206 -250t311.5 -88t311 88t206 250t73 379t-73 379t-206 250t-311 88t-311.5 -88t-206 -250t-72.5 -379zM1341 729q0 -227 -75.5 -396t-217 -261t-330 -92t-329.5 92t-217 261t-76 396t76 396t217 261.5t329.5 92.5t330 -92.5t217 -261.5
t75.5 -396zM735 1815l246 -259h-45l-217 228l-217 -228h-45l245 259h33z" />
    <glyph glyph-name="Otilde" unicode="&#xd5;" horiz-adv-x="1437" 
d="M129 729q0 -217 72.5 -379t206 -250t311.5 -88t311 88t206 250t73 379t-73 379t-206 250t-311 88t-311.5 -88t-206 -250t-72.5 -379zM1341 729q0 -227 -75.5 -396t-217 -261t-330 -92t-329.5 92t-217 261t-76 396t76 396t217 261.5t329.5 92.5t330 -92.5t217 -261.5
t75.5 -396zM880.5 1628q-51.5 0 -87 17.5t-102 66.5t-119.5 49q-107 0 -115 -133h-33q6 80 44 123t89 43t87 -17.5t102.5 -66.5t119.5 -49q107 0 115 133h33q-6 -80 -44 -123t-89.5 -43z" />
    <glyph glyph-name="Odieresis" unicode="&#xd6;" horiz-adv-x="1437" 
d="M129 729q0 -217 72.5 -379t206 -250t311.5 -88t311 88t206 250t73 379t-73 379t-206 250t-311 88t-311.5 -88t-206 -250t-72.5 -379zM1341 729q0 -227 -75.5 -396t-217 -261t-330 -92t-329.5 92t-217 261t-76 396t76 396t217 261.5t329.5 92.5t330 -92.5t217 -261.5
t75.5 -396zM891 1595v158h33v-158h-33zM514 1595v158h33v-158h-33z" />
    <glyph glyph-name="multiply" unicode="&#xd7;" horiz-adv-x="1159" 
d="M602 627l430 -430l-22 -23l-430 430l-428 -428l-23 23l428 428l-428 428l23 22l428 -428l430 430l22 -22z" />
    <glyph glyph-name="Oslash" unicode="&#xd8;" horiz-adv-x="1437" 
d="M1309 704q0 359 -166 556l-828 -1084q154 -164 404 -164q178 0 311 88t206 250t73 354zM719 1446q-178 0 -311.5 -88t-206 -250t-72.5 -354q0 -360 166 -555l827 1083q-154 164 -403 164zM1341 729q0 -227 -75.5 -396t-217 -261t-329.5 -92q-258 0 -424 170l-129 -170
l-25 18l133 174q-178 203 -178 557q0 227 76 396t217 261.5t330 92.5q258 0 424 -170l129 170l24 -19l-133 -174q178 -203 178 -557z" />
    <glyph glyph-name="Ugrave" unicode="&#xd9;" horiz-adv-x="1372" 
d="M686.5 -20q-235.5 0 -359.5 140t-124 412v926h33v-926q0 -260 114.5 -390t335.5 -130t336 130t115 390v926h32v-926q0 -272 -123.5 -412t-359 -140zM801 1556h-39l-225 259h45z" />
    <glyph glyph-name="Uacute" unicode="&#xda;" horiz-adv-x="1372" 
d="M686.5 -20q-235.5 0 -359.5 140t-124 412v926h33v-926q0 -260 114.5 -390t335.5 -130t336 130t115 390v926h32v-926q0 -272 -123.5 -412t-359 -140zM571 1556l220 259h45l-226 -259h-39z" />
    <glyph glyph-name="Ucircumflex" unicode="&#xdb;" horiz-adv-x="1372" 
d="M686.5 -20q-235.5 0 -359.5 140t-124 412v926h33v-926q0 -260 114.5 -390t335.5 -130t336 130t115 390v926h32v-926q0 -272 -123.5 -412t-359 -140zM702 1815l246 -259h-45l-217 228l-217 -228h-45l246 259h32z" />
    <glyph glyph-name="Udieresis" unicode="&#xdc;" horiz-adv-x="1372" 
d="M686.5 -20q-235.5 0 -359.5 140t-124 412v926h33v-926q0 -260 114.5 -390t335.5 -130t336 130t115 390v926h32v-926q0 -272 -123.5 -412t-359 -140zM858 1595v158h33v-158h-33zM481 1595v158h33v-158h-33z" />
    <glyph glyph-name="Yacute" unicode="&#xdd;" horiz-adv-x="1167" 
d="M600 0h-33v651l-553 807h39l529 -772h2l530 772h39l-553 -807v-651zM469 1556l219 259h45l-225 -259h-39z" />
    <glyph glyph-name="Thorn" unicode="&#xde;" horiz-adv-x="1177" 
d="M248 403h432q199 0 301 97.5t102 255t-102 255t-301 97.5h-432v-705zM680 1141q213 0 324.5 -106.5t111.5 -278.5t-111.5 -278.5t-324.5 -106.5h-432v-371h-33v1458h33v-317h432z" />
    <glyph glyph-name="germandbls" unicode="&#xdf;" horiz-adv-x="1083" 
d="M918 1139q0 -259 -261 -310v-2q145 -18 238.5 -121.5t93.5 -295.5t-125 -307t-350 -115q-68 0 -119 14v35q49 -16 119 -17q213 0 327.5 104t114.5 292t-107.5 291.5t-285.5 103.5h-33v33q180 0 267.5 80t87.5 217t-89 221t-247 84t-244 -105.5t-86 -300.5v-1040h-33v1040
q0 207 96.5 323t267.5 116t269.5 -93.5t98.5 -246.5z" />
    <glyph glyph-name="agrave" unicode="&#xe0;" horiz-adv-x="1011" 
d="M117 263q0 -114 84 -182.5t223 -68.5q182 0 285 117q57 66 78.5 130.5t21.5 189.5v133q-230 -27 -386.5 -50.5t-231 -89t-74.5 -179.5zM842 682v-449q0 -131 18 -233h-33q-14 104 -14 170t2 88h-2q-41 -129 -143.5 -203.5t-251 -74.5t-241.5 77.5t-93 205.5t83 202
t266 101.5t376 47.5v68q0 176 -84 261t-234.5 85t-235.5 -82t-95 -219h-33q10 154 106.5 244t259 90t256 -94.5t93.5 -284.5zM584 1176h-35l-201 282h43z" />
    <glyph glyph-name="aacute" unicode="&#xe1;" horiz-adv-x="1011" 
d="M117 263q0 -114 84 -182.5t223 -68.5q182 0 285 117q57 66 78.5 130.5t21.5 189.5v133q-230 -27 -386.5 -50.5t-231 -89t-74.5 -179.5zM842 682v-449q0 -131 18 -233h-33q-14 104 -14 170t2 88h-2q-41 -129 -143.5 -203.5t-251 -74.5t-241.5 77.5t-93 205.5t83 202
t266 101.5t376 47.5v68q0 176 -84 261t-234.5 85t-235.5 -82t-95 -219h-33q10 154 106.5 244t259 90t256 -94.5t93.5 -284.5zM385 1176l193 282h43l-201 -282h-35z" />
    <glyph glyph-name="acircumflex" unicode="&#xe2;" horiz-adv-x="1011" 
d="M117 263q0 -114 84 -182.5t223 -68.5q182 0 285 117q57 66 78.5 130.5t21.5 189.5v133q-230 -27 -386.5 -50.5t-231 -89t-74.5 -179.5zM842 682v-449q0 -131 18 -233h-33q-14 104 -14 170t2 88h-2q-41 -129 -143.5 -203.5t-251 -74.5t-241.5 77.5t-93 205.5t83 202
t266 101.5t376 47.5v68q0 176 -84 261t-234.5 85t-235.5 -82t-95 -219h-33q10 154 106.5 244t259 90t256 -94.5t93.5 -284.5zM483 1427l-217 -251h-43l244 282h33l243 -282h-43z" />
    <glyph glyph-name="atilde" unicode="&#xe3;" horiz-adv-x="1011" 
d="M117 263q0 -114 84 -182.5t223 -68.5q182 0 285 117q57 66 78.5 130.5t21.5 189.5v133q-230 -27 -386.5 -50.5t-231 -89t-74.5 -179.5zM842 682v-449q0 -131 18 -233h-33q-14 104 -14 170t2 88h-2q-41 -129 -143.5 -203.5t-251 -74.5t-241.5 77.5t-93 205.5t83 202
t266 101.5t376 47.5v68q0 176 -84 261t-234.5 85t-235.5 -82t-95 -219h-33q10 154 106.5 244t259 90t256 -94.5t93.5 -284.5zM645 1272q-51 0 -87 17.5t-82 51t-77.5 49t-73.5 15.5t-71 -34t-33 -99h-33q6 80 44 123t89.5 43t87 -17.5t82 -51.5t78 -49t73.5 -15t70.5 33.5
t32.5 99.5h33q-6 -80 -44 -123t-89 -43z" />
    <glyph glyph-name="adieresis" unicode="&#xe4;" horiz-adv-x="1011" 
d="M117 263q0 -114 84 -182.5t223 -68.5q182 0 285 117q57 66 78.5 130.5t21.5 189.5v133q-230 -27 -386.5 -50.5t-231 -89t-74.5 -179.5zM842 682v-449q0 -131 18 -233h-33q-14 104 -14 170t2 88h-2q-41 -129 -143.5 -203.5t-251 -74.5t-241.5 77.5t-93 205.5t83 202
t266 101.5t376 47.5v68q0 176 -84 261t-234.5 85t-235.5 -82t-95 -219h-33q10 154 106.5 244t259 90t256 -94.5t93.5 -284.5zM655 1300v158h33v-158h-33zM279 1300v158h32v-158h-32z" />
    <glyph glyph-name="aring" unicode="&#xe5;" horiz-adv-x="1011" 
d="M117 263q0 -114 84 -182.5t223 -68.5q182 0 285 117q57 66 78.5 130.5t21.5 189.5v133q-230 -27 -386.5 -50.5t-231 -89t-74.5 -179.5zM842 682v-449q0 -131 18 -233h-33q-14 104 -14 170t2 88h-2q-41 -129 -143.5 -203.5t-251 -74.5t-241.5 77.5t-93 205.5t83 202
t266 101.5t376 47.5v68q0 176 -84 261t-234.5 85t-235.5 -82t-95 -219h-33q10 154 106.5 244t259 90t256 -94.5t93.5 -284.5zM344 1387.5q0 -58.5 41 -99.5t99 -41t98.5 41t40.5 99t-40 98.5t-98.5 40.5t-99.5 -40t-41 -98.5zM655 1386.5q0 -71.5 -50 -122t-121.5 -50.5
t-122 50.5t-50.5 122t51.5 122t122 50.5t120.5 -50.5t50 -122z" />
    <glyph glyph-name="ae" unicode="&#xe6;" horiz-adv-x="1669" 
d="M793 449v81h-273q-213 0 -308 -65.5t-95 -190.5t82 -193.5t217 -68.5q184 0 288 126q50 60 69.5 126t19.5 185zM1538 563q0 145 -46 251t-127 160t-185 54q-162 0 -256.5 -128t-98.5 -337h713zM1198 -20q-143 0 -242.5 94t-138.5 262h-2q-16 -166 -130 -261t-266.5 -95
t-243.5 77.5t-91 216.5q0 289 436 289h273v119q0 176 -81 261t-223.5 85t-230.5 -84t-98 -217h-33q10 152 109.5 243t245.5 91t234.5 -79t102.5 -237h2q39 150 133 233q92 83 236 83q144 -1 246 -103q135 -136 135 -428h-746q0 -320 174 -454q84 -64 207 -64t211 80t105 213
h34q-18 -150 -116.5 -237.5t-241.5 -87.5z" />
    <glyph glyph-name="ccedilla" unicode="&#xe7;" horiz-adv-x="1009" 
d="M545 -135q80 0 123 -37t43 -102.5t-49.5 -105.5t-137.5 -40t-172 47l17 29q74 -43 152.5 -43t117.5 30.5t39 84.5q0 106 -133 106q-37 0 -68 -10l-22 22l90 134h-13q-203 0 -318.5 143t-115.5 397t116 397.5t318 143.5q162 0 267.5 -97.5t120.5 -254.5h-33
q-12 143 -109.5 231t-245.5 88q-188 0 -294.5 -134t-106.5 -373.5t106.5 -374t294.5 -134.5q148 0 244 90.5t111 239.5h33q-12 -150 -102.5 -246t-231.5 -112l-84 -125q18 6 43 6z" />
    <glyph glyph-name="egrave" unicode="&#xe8;" horiz-adv-x="1054" 
d="M924 563q0 145 -51.5 251t-141.5 160t-205 54q-180 0 -285.5 -128t-109.5 -337h793zM557.5 -20q-147.5 0 -249 68.5t-156 195.5t-54.5 291t52.5 281.5t149.5 181t226 63.5q168 0 280 -101.5t140 -275.5q10 -61 10 -154h-825q0 -156 50 -272.5t143.5 -181t229.5 -64.5
t235.5 80t117.5 213h35q-23 -150 -130 -237.5t-254.5 -87.5zM627 1176h-35l-201 282h43z" />
    <glyph glyph-name="eacute" unicode="&#xe9;" horiz-adv-x="1054" 
d="M924 563q0 145 -51.5 251t-141.5 160t-205 54q-180 0 -285.5 -128t-109.5 -337h793zM557.5 -20q-147.5 0 -249 68.5t-156 195.5t-54.5 291t52.5 281.5t149.5 181t226 63.5q168 0 280 -101.5t140 -275.5q10 -61 10 -154h-825q0 -156 50 -272.5t143.5 -181t229.5 -64.5
t235.5 80t117.5 213h35q-23 -150 -130 -237.5t-254.5 -87.5zM428 1176l193 282h43l-201 -282h-35z" />
    <glyph glyph-name="ecircumflex" unicode="&#xea;" horiz-adv-x="1054" 
d="M924 563q0 145 -51.5 251t-141.5 160t-205 54q-180 0 -285.5 -128t-109.5 -337h793zM557.5 -20q-147.5 0 -249 68.5t-156 195.5t-54.5 291t52.5 281.5t149.5 181t226 63.5q168 0 280 -101.5t140 -275.5q10 -61 10 -154h-825q0 -156 50 -272.5t143.5 -181t229.5 -64.5
t235.5 80t117.5 213h35q-23 -150 -130 -237.5t-254.5 -87.5zM526 1427l-217 -251h-43l244 282h33l243 -282h-43z" />
    <glyph glyph-name="edieresis" unicode="&#xeb;" horiz-adv-x="1054" 
d="M924 563q0 145 -51.5 251t-141.5 160t-205 54q-180 0 -285.5 -128t-109.5 -337h793zM557.5 -20q-147.5 0 -249 68.5t-156 195.5t-54.5 291t52.5 281.5t149.5 181t226 63.5q168 0 280 -101.5t140 -275.5q10 -61 10 -154h-825q0 -156 50 -272.5t143.5 -181t229.5 -64.5
t235.5 80t117.5 213h35q-23 -150 -130 -237.5t-254.5 -87.5zM698 1300v158h33v-158h-33zM322 1300v158h32v-158h-32z" />
    <glyph glyph-name="igrave" unicode="&#xec;" horiz-adv-x="405" 
d="M186 0v1040h33v-1040h-33zM303 1176h-35l-200 282h43z" />
    <glyph glyph-name="iacute" unicode="&#xed;" horiz-adv-x="405" 
d="M186 0v1040h33v-1040h-33zM104 1176l193 282h43l-201 -282h-35z" />
    <glyph glyph-name="icircumflex" unicode="&#xee;" horiz-adv-x="405" 
d="M186 0v1040h33v-1040h-33zM377 1178l-174 249l-176 -249h-41l198 280h35l199 -280h-41z" />
    <glyph glyph-name="idieresis" unicode="&#xef;" horiz-adv-x="405" 
d="M186 0v1040h33v-1040h-33zM334 1317v141h33v-141h-33zM39 1317v141h33v-141h-33z" />
    <glyph glyph-name="eth" unicode="&#xf0;" horiz-adv-x="1081" 
d="M950 520.5q0 237.5 -109.5 372.5t-300.5 135t-300 -135t-109 -372.5t108.5 -373t300.5 -135.5t301 135.5t109 373zM527 1061q193 0 313 -127v4q-115 186 -320 365l-260 -140l-14 29l248 133q-70 59 -166 131l22 23q82 -57 174 -138l246 132l14 -29l-235 -125
q123 -111 220 -231q214 -264 214 -568q0 -252 -118.5 -396t-324.5 -144t-324 144t-118 396t118 396.5t311 144.5z" />
    <glyph glyph-name="ntilde" unicode="&#xf1;" 
d="M930 633v-633h-33v633q0 197 -84 296t-235 99q-96 0 -178.5 -48t-131.5 -134t-49 -195v-651h-33v1040h33q0 -170 -6 -258h2q35 123 132 201t246.5 78t243 -108.5t93.5 -319.5zM713 1272q-51 0 -87 17.5t-82 51t-78 49t-74 15.5t-70.5 -34t-32.5 -99h-33q6 80 44 123
t89 43t87 -17.5t102.5 -66.5t119.5 -49q107 0 115 133h33q-6 -80 -44 -123t-89 -43z" />
    <glyph glyph-name="ograve" unicode="&#xf2;" horiz-adv-x="1081" 
d="M131 520.5q0 -237.5 108.5 -373t301 -135.5t301 135.5t108.5 373t-108.5 372.5t-301 135t-301 -135t-108.5 -372.5zM983 520q0 -252 -117.5 -396t-324.5 -144t-325 144t-118 396t118 396.5t325 144.5t324.5 -144.5t117.5 -396.5zM641 1176h-35l-200 282h43z" />
    <glyph glyph-name="oacute" unicode="&#xf3;" horiz-adv-x="1081" 
d="M131 520.5q0 -237.5 108.5 -373t301 -135.5t301 135.5t108.5 373t-108.5 372.5t-301 135t-301 -135t-108.5 -372.5zM983 520q0 -252 -117.5 -396t-324.5 -144t-325 144t-118 396t118 396.5t325 144.5t324.5 -144.5t117.5 -396.5zM442 1176l193 282h43l-201 -282h-35z" />
    <glyph glyph-name="ocircumflex" unicode="&#xf4;" horiz-adv-x="1081" 
d="M131 520.5q0 -237.5 108.5 -373t301 -135.5t301 135.5t108.5 373t-108.5 372.5t-301 135t-301 -135t-108.5 -372.5zM983 520q0 -252 -117.5 -396t-324.5 -144t-325 144t-118 396t118 396.5t325 144.5t324.5 -144.5t117.5 -396.5zM541 1427l-217 -251h-43l243 282h33
l244 -282h-43z" />
    <glyph glyph-name="otilde" unicode="&#xf5;" horiz-adv-x="1081" 
d="M131 520.5q0 -237.5 108.5 -373t301 -135.5t301 135.5t108.5 373t-108.5 372.5t-301 135t-301 -135t-108.5 -372.5zM983 520q0 -252 -117.5 -396t-324.5 -144t-325 144t-118 396t118 396.5t325 144.5t324.5 -144.5t117.5 -396.5zM702.5 1272q-51.5 0 -87 17.5t-82 51
t-78 49t-73.5 15.5t-70.5 -34t-32.5 -99h-33q6 80 44 123t89 43t87 -17.5t82 -51.5t77.5 -49t73.5 -15t71 33.5t33 99.5h33q-7 -80 -44.5 -123t-89 -43z" />
    <glyph glyph-name="odieresis" unicode="&#xf6;" horiz-adv-x="1081" 
d="M131 520.5q0 -237.5 108.5 -373t301 -135.5t301 135.5t108.5 373t-108.5 372.5t-301 135t-301 -135t-108.5 -372.5zM983 520q0 -252 -117.5 -396t-324.5 -144t-325 144t-118 396t118 396.5t325 144.5t324.5 -144.5t117.5 -396.5zM713 1300v158h32v-158h-32zM336 1300v158
h33v-158h-33z" />
    <glyph glyph-name="divide" unicode="&#xf7;" horiz-adv-x="1159" 
d="M563 285v123h33v-123h-33zM154 633v33h852v-33h-852zM563 891v123h33v-123h-33z" />
    <glyph glyph-name="oslash" unicode="&#xf8;" horiz-adv-x="1081" 
d="M950 519.5q0 236.5 -106 371.5l-586 -764q109 -115 291 -115t291.5 135.5t109.5 372zM131 521q0 -237 107 -371l585 765q-106 113 -290.5 113t-293 -135t-108.5 -372zM983 522.5q0 -254.5 -119 -398.5t-315 -144t-311 120l-109 -143l-25 18l113 150q-119 141 -119 394
t118 397.5t312.5 144.5t313.5 -119l108 141l25 -18l-113 -147q121 -141 121 -395.5z" />
    <glyph glyph-name="ugrave" unicode="&#xf9;" 
d="M172 408v632h33v-632q0 -197 84 -296.5t235 -99.5q96 0 178 48.5t131.5 134.5t49.5 194v651h32v-1040h-32v227h-2q-45 -117 -141.5 -182t-215.5 -65q-166 0 -259 108.5t-93 319.5zM651 1176h-35l-200 282h43z" />
    <glyph glyph-name="uacute" unicode="&#xfa;" 
d="M172 408v632h33v-632q0 -197 84 -296.5t235 -99.5q96 0 178 48.5t131.5 134.5t49.5 194v651h32v-1040h-32v227h-2q-45 -117 -141.5 -182t-215.5 -65q-166 0 -259 108.5t-93 319.5zM453 1176l192 282h43l-201 -282h-34z" />
    <glyph glyph-name="ucircumflex" unicode="&#xfb;" 
d="M172 408v632h33v-632q0 -197 84 -296.5t235 -99.5q96 0 178 48.5t131.5 134.5t49.5 194v651h32v-1040h-32v227h-2q-45 -117 -141.5 -182t-215.5 -65q-166 0 -259 108.5t-93 319.5zM551 1427l-217 -251h-43l244 282h32l244 -282h-43z" />
    <glyph glyph-name="udieresis" unicode="&#xfc;" 
d="M172 408v632h33v-632q0 -197 84 -296.5t235 -99.5q96 0 178 48.5t131.5 134.5t49.5 194v651h32v-1040h-32v227h-2q-45 -117 -141.5 -182t-215.5 -65q-166 0 -259 108.5t-93 319.5zM723 1300v158h33v-158h-33zM346 1300v158h33v-158h-33z" />
    <glyph glyph-name="yacute" unicode="&#xfd;" horiz-adv-x="882" 
d="M106 -387q-64 0 -96 14v33q31 -14 91.5 -14t108.5 28q97 56 206 324l-412 1042h35l393 -995h2l410 995h35l-433 -1052q-112 -284 -220 -344q-56 -30 -120 -31zM344 1176l193 282h43l-201 -282h-35z" />
    <glyph glyph-name="thorn" unicode="&#xfe;" horiz-adv-x="1116" 
d="M217 520.5q0 -235.5 98.5 -372t276.5 -136.5t285.5 135.5t107.5 373t-107.5 372.5t-285.5 135t-276.5 -136t-98.5 -371.5zM584 1061q201 0 317.5 -144.5t116.5 -396.5t-117 -396t-317 -144q-150 0 -243 93t-126 244h-2q6 -90 6 -260v-436h-33v1837h33v-475
q0 -170 -6 -260h2q33 152 126 245t243 93z" />
    <glyph glyph-name="ydieresis" unicode="&#xff;" horiz-adv-x="882" 
d="M106 -387q-64 0 -96 14v33q31 -14 91.5 -14t108.5 28q97 56 206 324l-412 1042h35l393 -995h2l410 995h35l-433 -1052q-112 -284 -220 -344q-56 -30 -120 -31zM614 1300v158h33v-158h-33zM238 1300v158h32v-158h-32z" />
    <glyph glyph-name="Amacron" unicode="&#x100;" horiz-adv-x="1298" 
d="M1008 578l-359 847h-2l-356 -847h717zM276 545l-229 -545h-35l615 1458h43l614 -1458h-35l-229 545h-744zM418 1642v33h463v-33h-463z" />
    <glyph glyph-name="amacron" unicode="&#x101;" horiz-adv-x="1011" 
d="M117 263q0 -114 84 -182.5t223 -68.5q182 0 285 117q57 66 78.5 130.5t21.5 189.5v133q-230 -27 -386.5 -50.5t-231 -89t-74.5 -179.5zM842 682v-449q0 -131 18 -233h-33q-14 104 -14 170t2 88h-2q-41 -129 -143.5 -203.5t-251 -74.5t-241.5 77.5t-93 205.5t83 202
t266 101.5t376 47.5v68q0 176 -84 261t-234.5 85t-235.5 -82t-95 -219h-33q10 154 106.5 244t259 90t256 -94.5t93.5 -284.5zM252 1327v33h463v-33h-463z" />
    <glyph glyph-name="Abreve" unicode="&#x102;" horiz-adv-x="1298" 
d="M1008 578l-359 847h-2l-356 -847h717zM276 545l-229 -545h-35l615 1458h43l614 -1458h-35l-229 545h-744zM649 1554q-129 0 -205.5 69t-89.5 192h33q12 -111 78.5 -169.5t183.5 -58.5t183.5 58.5t78.5 169.5h33q-12 -123 -89 -192t-206 -69z" />
    <glyph glyph-name="abreve" unicode="&#x103;" horiz-adv-x="1011" 
d="M117 263q0 -114 84 -182.5t223 -68.5q182 0 285 117q57 66 78.5 130.5t21.5 189.5v133q-230 -27 -386.5 -50.5t-231 -89t-74.5 -179.5zM842 682v-449q0 -131 18 -233h-33q-14 104 -14 170t2 88h-2q-41 -129 -143.5 -203.5t-251 -74.5t-241.5 77.5t-93 205.5t83 202
t266 101.5t376 47.5v68q0 176 -84 261t-234.5 85t-235.5 -82t-95 -219h-33q10 154 106.5 244t259 90t256 -94.5t93.5 -284.5zM483 1198q-129 0 -205.5 68.5t-89.5 191.5h33q12 -111 79 -169t183.5 -58t183 58.5t78.5 168.5h33q-12 -123 -89 -191.5t-206 -68.5z" />
    <glyph glyph-name="Aogonek" unicode="&#x104;" horiz-adv-x="1298" 
d="M1008 578l-359 847h-2l-356 -847h717zM1208 -387q-55 0 -92 36t-37 101.5t38 123.5t128 134l-225 537h-744l-229 -545h-35l615 1458h43l614 -1458q-96 -78 -134 -134t-38 -116q0 -104 113 -104q38 0 65 10v-33q-27 -10 -82 -10z" />
    <glyph glyph-name="aogonek" unicode="&#x105;" horiz-adv-x="1011" 
d="M117 263q0 -114 84 -182.5t223 -68.5q182 0 285 117q57 66 78.5 130.5t21.5 189.5v133q-230 -27 -386.5 -50.5t-231 -89t-74.5 -179.5zM784 -387q-55 0 -92 36t-37 102.5t39 123.5t131 135q-12 115 -12 170.5t2 77.5h-2q-41 -129 -143.5 -203.5t-251 -74.5t-241.5 77.5
t-93 205.5t83 202t266 101.5t376 47.5v68q0 176 -84 261t-234.5 85t-235.5 -82t-95 -219h-33q10 154 106.5 244t259.5 90t256 -94.5t93 -284.5v-449q0 -131 18 -233q-96 -78 -134 -134t-38 -116q0 -104 113 -104q38 0 65 10v-33q-27 -10 -82 -10z" />
    <glyph glyph-name="Cacute" unicode="&#x106;" horiz-adv-x="1351" 
d="M692.5 1446q-161.5 0 -292 -88t-201 -250t-70.5 -379t68.5 -379t195.5 -250t286.5 -88t271.5 59.5t178.5 165t80.5 240.5h33q-16 -145 -86 -258t-189.5 -176t-287.5 -63t-303 92t-208 261t-73 396t75 396t213 261.5t309 92.5t288 -66.5t181.5 -178.5t72.5 -249h-33
q-10 129 -69.5 233.5t-169 166t-271 61.5zM592 1556l219 259h45l-225 -259h-39z" />
    <glyph glyph-name="cacute" unicode="&#x107;" horiz-adv-x="1009" 
d="M532 1028q-188 0 -294.5 -134t-106.5 -373.5t106.5 -374t294.5 -134.5q147 0 243.5 90.5t111.5 239.5h33q-14 -164 -120 -263t-268 -99q-203 0 -318.5 143t-115.5 397t116 397.5t318 143.5q162 0 267.5 -97.5t120.5 -254.5h-33q-12 143 -109.5 231t-245.5 88zM434 1176
l193 282h43l-201 -282h-35z" />
    <glyph glyph-name="Ccircumflex" unicode="&#x108;" horiz-adv-x="1351" 
d="M692.5 1446q-161.5 0 -292 -88t-201 -250t-70.5 -379t68.5 -379t195.5 -250t286.5 -88t271.5 59.5t178.5 165t80.5 240.5h33q-16 -145 -86 -258t-189.5 -176t-287.5 -63t-303 92t-208 261t-73 396t75 396t213 261.5t309 92.5t288 -66.5t181.5 -178.5t72.5 -249h-33
q-10 129 -69.5 233.5t-169 166t-271 61.5zM723 1815l246 -259h-45l-217 228l-218 -228h-45l246 259h33z" />
    <glyph glyph-name="ccircumflex" unicode="&#x109;" horiz-adv-x="1009" 
d="M532 1028q-188 0 -294.5 -134t-106.5 -373.5t106.5 -374t294.5 -134.5q147 0 243.5 90.5t111.5 239.5h33q-14 -164 -120 -263t-268 -99q-203 0 -318.5 143t-115.5 397t116 397.5t318 143.5q162 0 267.5 -97.5t120.5 -254.5h-33q-12 143 -109.5 231t-245.5 88zM532 1427
l-217 -251h-43l244 282h33l244 -282h-43z" />
    <glyph glyph-name="Cdotaccent" unicode="&#x10a;" horiz-adv-x="1351" 
d="M692.5 1446q-161.5 0 -292 -88t-201 -250t-70.5 -379t68.5 -379t195.5 -250t286.5 -88t271.5 59.5t178.5 165t80.5 240.5h33q-16 -145 -86 -258t-189.5 -176t-287.5 -63t-303 92t-208 261t-73 396t75 396t213 261.5t309 92.5t288 -66.5t181.5 -178.5t72.5 -249h-33
q-10 129 -69.5 233.5t-169 166t-271 61.5zM690 1575v158h33v-158h-33z" />
    <glyph glyph-name="cdotaccent" unicode="&#x10b;" horiz-adv-x="1009" 
d="M532 1028q-188 0 -294.5 -134t-106.5 -373.5t106.5 -374t294.5 -134.5q147 0 243.5 90.5t111.5 239.5h33q-14 -164 -120 -263t-268 -99q-203 0 -318.5 143t-115.5 397t116 397.5t318 143.5q162 0 267.5 -97.5t120.5 -254.5h-33q-12 143 -109.5 231t-245.5 88zM516 1300
v158h33v-158h-33z" />
    <glyph glyph-name="Ccaron" unicode="&#x10c;" horiz-adv-x="1351" 
d="M692.5 1446q-161.5 0 -292 -88t-201 -250t-70.5 -379t68.5 -379t195.5 -250t286.5 -88t271.5 59.5t178.5 165t80.5 240.5h33q-16 -145 -86 -258t-189.5 -176t-287.5 -63t-303 92t-208 261t-73 396t75 396t213 261.5t309 92.5t288 -66.5t181.5 -178.5t72.5 -249h-33
q-10 129 -69.5 233.5t-169 166t-271 61.5zM690 1556l-246 259h45l218 -228l217 228h45l-246 -259h-33z" />
    <glyph glyph-name="ccaron" unicode="&#x10d;" horiz-adv-x="1009" 
d="M532 1028q-188 0 -294.5 -134t-106.5 -373.5t106.5 -374t294.5 -134.5q147 0 243.5 90.5t111.5 239.5h33q-14 -164 -120 -263t-268 -99q-203 0 -318.5 143t-115.5 397t116 397.5t318 143.5q162 0 267.5 -97.5t120.5 -254.5h-33q-12 143 -109.5 231t-245.5 88zM516 1176
l-244 282h43l217 -252l218 252h43l-244 -282h-33z" />
    <glyph glyph-name="Dcaron" unicode="&#x10e;" horiz-adv-x="1449" 
d="M248 33h368q342 0 523.5 180t181.5 516t-181.5 516t-523.5 180h-368v-1392zM1354 729q0 -350 -190.5 -539.5t-547.5 -189.5h-401v1458h401q357 0 547.5 -189.5t190.5 -539.5zM639 1556l-246 259h45l217 -228l217 228h46l-246 -259h-33z" />
    <glyph glyph-name="dcaron" unicode="&#x10f;" horiz-adv-x="1116" 
d="M131 520q0 -238 108 -373q107 -135 285 -135t277 136q98 136 98 372t-98 372t-276 136t-286 -135t-108 -373zM930 0h-33v57q0 170 6 260h-2q-33 -153 -126 -245t-243 -92q-202 0 -318 144t-116 396t117 396t317 145q150 0 243 -93t126 -245h2q-6 90 -6 260v475h33v-1458z
M1053 1102l84 356h34l-90 -356h-28z" />
    <glyph glyph-name="Dcroat" unicode="&#x110;" horiz-adv-x="1449" 
d="M1321 729q0 336 -181.5 516t-523.5 180h-368v-671h524v-33h-524v-688h368q342 0 523.5 180t181.5 516zM1354 729q0 -350 -190.5 -539.5t-547.5 -189.5h-401v721h-123v33h123v704h401q357 0 547.5 -189.5t190.5 -539.5z" />
    <glyph glyph-name="dcroat" unicode="&#x111;" horiz-adv-x="1114" 
d="M899 520.5q0 235.5 -98.5 371.5t-276.5 136t-285.5 -135t-107.5 -372.5t107.5 -373t285.5 -135.5t276.5 136.5t98.5 372zM930 1221v-1221h-33v57q0 170 6 260h-2q-33 -152 -126 -244.5t-243 -92.5q-201 0 -317.5 144t-116.5 396t117 396.5t317 144.5q150 0 243 -93.5
t126 -244.5h2q-6 90 -6 260v238h-317v32h317v205h33v-205h112v-32h-112z" />
    <glyph glyph-name="Emacron" unicode="&#x112;" horiz-adv-x="1200" 
d="M248 1425v-659h766v-33h-766v-700h829v-33h-862v1458h834v-33h-801zM401 1642v33h463v-33h-463z" />
    <glyph glyph-name="emacron" unicode="&#x113;" horiz-adv-x="1054" 
d="M924 563q0 145 -51.5 251t-141.5 160t-205 54q-180 0 -285.5 -128t-109.5 -337h793zM557.5 -20q-147.5 0 -249 68.5t-156 195.5t-54.5 291t52.5 281.5t149.5 181t226 63.5q168 0 280 -101.5t140 -275.5q10 -61 10 -154h-825q0 -156 50 -272.5t143.5 -181t229.5 -64.5
t235.5 80t117.5 213h35q-23 -150 -130 -237.5t-254.5 -87.5zM295 1327v33h463v-33h-463z" />
    <glyph glyph-name="Ebreve" unicode="&#x114;" horiz-adv-x="1200" 
d="M248 1425v-659h766v-33h-766v-700h829v-33h-862v1458h834v-33h-801zM633 1554q-129 0 -206 69t-89 192h33q12 -111 78.5 -169.5t183.5 -58.5t183.5 58.5t78.5 169.5h33q-13 -123 -89.5 -192t-205.5 -69z" />
    <glyph glyph-name="ebreve" unicode="&#x115;" horiz-adv-x="1054" 
d="M924 563q0 145 -51.5 251t-141.5 160t-205 54q-180 0 -285.5 -128t-109.5 -337h793zM557.5 -20q-147.5 0 -249 68.5t-156 195.5t-54.5 291t52.5 281.5t149.5 181t226 63.5q168 0 280 -101.5t140 -275.5q10 -61 10 -154h-825q0 -156 50 -272.5t143.5 -181t229.5 -64.5
t235.5 80t117.5 213h35q-23 -150 -130 -237.5t-254.5 -87.5zM526 1198q-129 0 -205.5 68.5t-89.5 191.5h33q12 -111 79 -169t183.5 -58t183 58.5t78.5 168.5h33q-12 -123 -89 -191.5t-206 -68.5z" />
    <glyph glyph-name="Edotaccent" unicode="&#x116;" horiz-adv-x="1200" 
d="M248 1425v-659h766v-33h-766v-700h829v-33h-862v1458h834v-33h-801zM616 1575v158h33v-158h-33z" />
    <glyph glyph-name="edotaccent" unicode="&#x117;" horiz-adv-x="1054" 
d="M924 563q0 145 -51.5 251t-141.5 160t-205 54q-180 0 -285.5 -128t-109.5 -337h793zM557.5 -20q-147.5 0 -249 68.5t-156 195.5t-54.5 291t52.5 281.5t149.5 181t226 63.5q168 0 280 -101.5t140 -275.5q10 -61 10 -154h-825q0 -156 50 -272.5t143.5 -181t229.5 -64.5
t235.5 80t117.5 213h35q-23 -150 -130 -237.5t-254.5 -87.5zM510 1300v158h33v-158h-33z" />
    <glyph glyph-name="Eogonek" unicode="&#x118;" horiz-adv-x="1200" 
d="M1001 -387q-55 0 -92 36t-37 101.5t36 120.5t122 129h-815v1458h834v-33h-801v-659h766v-33h-766v-700h829v-33q-96 -78 -134 -134t-38 -116q0 -104 113 -104q38 0 65 10v-33q-27 -10 -82 -10z" />
    <glyph glyph-name="eogonek" unicode="&#x119;" horiz-adv-x="1054" 
d="M924 563q0 145 -51.5 251t-141.5 160t-205 54q-180 0 -285.5 -128t-109.5 -337h793zM602 -250q0 -104 113 -104q39 0 65 10v-33q-27 -10 -82 -10t-92 36.5t-37 102.5t33 125.5t107 130.5v4q-71 -32 -185 -32t-215.5 68.5t-156 195.5t-54.5 291t52.5 281.5t149.5 181
t226 63.5q168 0 280 -101.5t140 -275.5q10 -61 10 -154h-825q0 -156 50 -272.5t143.5 -181t229.5 -64.5t235.5 80t117.5 213h35q-14 -84 -47 -139t-121 -132t-130 -144.5t-42 -139.5z" />
    <glyph glyph-name="Ecaron" unicode="&#x11a;" horiz-adv-x="1200" 
d="M248 1425v-659h766v-33h-766v-700h829v-33h-862v1458h834v-33h-801zM616 1556l-245 259h45l217 -228l217 228h45l-246 -259h-33z" />
    <glyph glyph-name="ecaron" unicode="&#x11b;" horiz-adv-x="1054" 
d="M924 563q0 145 -51.5 251t-141.5 160t-205 54q-180 0 -285.5 -128t-109.5 -337h793zM557.5 -20q-147.5 0 -249 68.5t-156 195.5t-54.5 291t52.5 281.5t149.5 181t226 63.5q168 0 280 -101.5t140 -275.5q10 -61 10 -154h-825q0 -156 50 -272.5t143.5 -181t229.5 -64.5
t235.5 80t117.5 213h35q-23 -150 -130 -237.5t-254.5 -87.5zM510 1176l-244 282h43l217 -252l217 252h43l-243 -282h-33z" />
    <glyph glyph-name="Gcircumflex" unicode="&#x11c;" horiz-adv-x="1427" 
d="M740.5 1446q-199.5 0 -334 -87t-206 -251t-71.5 -385t67.5 -381t195.5 -245t302 -85q229 0 379 161t150 519h-488v33h518v-725h-32v195q0 170 6 258h-2q-37 -221 -176.5 -347t-339 -126t-334.5 89t-207 256t-72 398t76 402t218 262.5t353 91.5t348.5 -121t155.5 -320h-33
q-18 184 -146 296t-327.5 112zM719 1815l246 -259h-45l-218 228l-217 -228h-45l246 259h33z" />
    <glyph glyph-name="gcircumflex" unicode="&#x11d;" horiz-adv-x="1116" 
d="M131 536.5q0 -229.5 107.5 -360.5t284.5 -131t275.5 132t98.5 359.5t-98.5 359.5t-275.5 132t-284.5 -131t-107.5 -360.5zM897 1040h33v-977q0 -221 -102.5 -335.5t-292 -114.5t-294 85t-104.5 236h33q0 -137 95 -212.5t257 -75.5q375 0 375 417q0 182 4 275h-2
q-39 -158 -134 -242t-233 -84q-201 0 -317.5 140.5t-116.5 384t117 384t317 140.5q138 0 233 -84t134 -242h2q-4 102 -4 305zM535 1427l-218 -251h-43l244 282h33l244 -282h-43z" />
    <glyph glyph-name="Gbreve" unicode="&#x11e;" horiz-adv-x="1427" 
d="M740.5 1446q-199.5 0 -334 -87t-206 -251t-71.5 -385t67.5 -381t195.5 -245t302 -85q229 0 379 161t150 519h-488v33h518v-725h-32v195q0 170 6 258h-2q-37 -221 -176.5 -347t-339 -126t-334.5 89t-207 256t-72 398t76 402t218 262.5t353 91.5t348.5 -121t155.5 -320h-33
q-18 184 -146 296t-327.5 112zM702 1554q-129 0 -205.5 69t-88.5 192h32q12 -111 79 -169.5t183.5 -58.5t183 58.5t79.5 169.5h32q-12 -123 -89 -192t-206 -69z" />
    <glyph glyph-name="gbreve" unicode="&#x11f;" horiz-adv-x="1116" 
d="M131 536.5q0 -229.5 107.5 -360.5t284.5 -131t275.5 132t98.5 359.5t-98.5 359.5t-275.5 132t-284.5 -131t-107.5 -360.5zM897 1040h33v-977q0 -221 -102.5 -335.5t-292 -114.5t-294 85t-104.5 236h33q0 -137 95 -212.5t257 -75.5q375 0 375 417q0 182 4 275h-2
q-39 -158 -134 -242t-233 -84q-201 0 -317.5 140.5t-116.5 384t117 384t317 140.5q138 0 233 -84t134 -242h2q-4 102 -4 305zM535 1198q-129 0 -206 68.5t-89 191.5h32q12 -111 79 -169t183.5 -58t183 58.5t79.5 168.5h32q-12 -123 -88.5 -191.5t-205.5 -68.5z" />
    <glyph glyph-name="Gdotaccent" unicode="&#x120;" horiz-adv-x="1427" 
d="M740.5 1446q-199.5 0 -334 -87t-206 -251t-71.5 -385t67.5 -381t195.5 -245t302 -85q229 0 379 161t150 519h-488v33h518v-725h-32v195q0 170 6 258h-2q-37 -221 -176.5 -347t-339 -126t-334.5 89t-207 256t-72 398t76 402t218 262.5t353 91.5t348.5 -121t155.5 -320h-33
q-18 184 -146 296t-327.5 112zM686 1575v158h33v-158h-33z" />
    <glyph glyph-name="gdotaccent" unicode="&#x121;" horiz-adv-x="1116" 
d="M131 536.5q0 -229.5 107.5 -360.5t284.5 -131t275.5 132t98.5 359.5t-98.5 359.5t-275.5 132t-284.5 -131t-107.5 -360.5zM897 1040h33v-977q0 -221 -102.5 -335.5t-292 -114.5t-294 85t-104.5 236h33q0 -137 95 -212.5t257 -75.5q375 0 375 417q0 182 4 275h-2
q-39 -158 -134 -242t-233 -84q-201 0 -317.5 140.5t-116.5 384t117 384t317 140.5q138 0 233 -84t134 -242h2q-4 102 -4 305zM518 1300v158h33v-158h-33z" />
    <glyph glyph-name="Gcommaaccent" unicode="&#x122;" horiz-adv-x="1427" 
d="M740.5 1446q-199.5 0 -334 -87t-206 -251t-71.5 -385t67.5 -381t195.5 -245t302 -85q229 0 379 161t150 519h-488v33h518v-725h-32v195q0 170 6 258h-2q-37 -221 -176.5 -347t-339 -126t-334.5 89t-207 256t-72 398t76 402t218 262.5t353 91.5t348.5 -121t155.5 -320h-33
q-18 184 -146 296t-327.5 112zM686 -162h33v-135l-62 -192h-28l57 192v135z" />
    <glyph glyph-name="gcommaaccent" unicode="&#x123;" horiz-adv-x="1116" 
d="M131 536.5q0 -229.5 107.5 -360.5t284.5 -131t275.5 132t98.5 359.5t-98.5 359.5t-275.5 132t-284.5 -131t-107.5 -360.5zM897 1040h33v-977q0 -221 -102.5 -335.5t-292 -114.5t-294 85t-104.5 236h33q0 -137 95 -212.5t257 -75.5q375 0 375 417q0 182 4 275h-2
q-39 -158 -134 -242t-233 -84q-201 0 -317.5 140.5t-116.5 384t117 384t317 140.5q138 0 233 -84t134 -242h2q-4 102 -4 305zM522 1202h-33v135l62 193h29l-58 -193v-135z" />
    <glyph glyph-name="Hcircumflex" unicode="&#x124;" horiz-adv-x="1443" 
d="M1196 0v741h-948v-741h-33v1458h33v-684h948v684h33v-1458h-33zM739 1815l246 -259h-45l-217 228l-217 -228h-45l246 259h32z" />
    <glyph glyph-name="hcircumflex" unicode="&#x125;" 
d="M594 1061q150 0 243 -108.5t93 -319.5v-633h-33v633q0 197 -84 296t-235 99q-96 0 -178.5 -48t-131.5 -134t-49 -195v-651h-33v1458h33v-418q0 -170 -6 -258h2q35 123 132 201t247 78zM565 1815l246 -259h-45l-217 228l-217 -228h-45l245 259h33z" />
    <glyph glyph-name="Hbar" unicode="&#x126;" horiz-adv-x="1443" 
d="M248 1221v-447h948v447h-948zM1229 1221v-1221h-33v741h-948v-741h-33v1221h-123v32h123v205h33v-205h948v205h33v-205h123v-32h-123z" />
    <glyph glyph-name="hbar" unicode="&#x127;" 
d="M930 633v-633h-33v633q0 197 -84 296t-235 99q-96 0 -178.5 -48t-131.5 -134t-49 -195v-651h-33v1221h-114v32h114v205h33v-205h316v-32h-316v-181q0 -170 -6 -258h2q35 123 132 201t246.5 78t243 -108.5t93.5 -319.5z" />
    <glyph glyph-name="Itilde" unicode="&#x128;" horiz-adv-x="462" 
d="M215 0v1458h33v-1458h-33zM393 1628q-51 0 -87 17.5t-82 51.5t-77.5 49t-73.5 15t-71 -33.5t-33 -99.5h-32q6 80 43.5 123t89 43t87.5 -17.5t82 -51.5t77.5 -49t73.5 -15t70.5 34t33.5 99h32q-6 -80 -44 -123t-89 -43z" />
    <glyph glyph-name="itilde" unicode="&#x129;" horiz-adv-x="405" 
d="M186 0v1040h33v-1040h-33zM337 1272q-46 0 -75 17.5t-70 52t-64.5 49t-51.5 14.5q-86 0 -96 -133h-33q4 80 38.5 123t81 43t75 -17.5t69.5 -52.5t64.5 -49t52.5 -14q86 0 96 133h33q-4 -80 -39 -123t-81 -43z" />
    <glyph glyph-name="Imacron" unicode="&#x12a;" horiz-adv-x="462" 
d="M215 0v1458h33v-1458h-33zM0 1642v33h463v-33h-463z" />
    <glyph glyph-name="imacron" unicode="&#x12b;" horiz-adv-x="405" 
d="M186 0v1040h33v-1040h-33zM12 1327v33h381v-33h-381z" />
    <glyph glyph-name="Ibreve" unicode="&#x12c;" horiz-adv-x="462" 
d="M215 0v1458h33v-1458h-33zM231 1554q-129 0 -205.5 69t-88.5 192h32q12 -111 79 -169.5t183.5 -58.5t183 58.5t79.5 169.5h32q-12 -123 -89 -192t-206 -69z" />
    <glyph glyph-name="ibreve" unicode="&#x12d;" horiz-adv-x="405" 
d="M186 0v1040h33v-1040h-33zM202.5 1198q-106.5 0 -169 67.5t-72.5 192.5h33q10 -111 63.5 -169t145.5 -58t145 58.5t64 168.5h32q-10 -123 -72.5 -191.5t-169 -68.5z" />
    <glyph glyph-name="Iogonek" unicode="&#x12e;" horiz-adv-x="462" 
d="M171.5 -387q-55.5 0 -92 36t-36.5 102.5t39 124.5t133 136v1446h33v-1458q-96 -78 -134 -134t-38 -116q0 -104 112 -104q39 0 66 10v-33q-27 -10 -82.5 -10z" />
    <glyph glyph-name="iogonek" unicode="&#x12f;" horiz-adv-x="405" 
d="M143 -387q-55 0 -92 36t-37 102.5t39 124.5t133 136v1028h33v-1040q-96 -78 -134 -134t-38 -116q0 -104 113 -104q38 0 65 10v-33q-27 -10 -82 -10zM186 1300v158h33v-158h-33z" />
    <glyph glyph-name="Idotaccent" unicode="&#x130;" horiz-adv-x="462" 
d="M215 0v1458h33v-1458h-33zM215 1575v158h33v-158h-33z" />
    <glyph glyph-name="dotlessi" unicode="&#x131;" horiz-adv-x="405" 
d="M186 0v1040h33v-1040h-33z" />
    <glyph glyph-name="IJ" unicode="&#x132;" horiz-adv-x="1083" 
d="M215 0v1458h33v-1458h-33zM573 -8q-45 0 -79 10v33q41 -10 79 -10q131 0 202 82.5t71 242.5v1108h33v-1108q0 -174 -80 -266t-226 -92z" />
    <glyph glyph-name="ij" unicode="&#x133;" horiz-adv-x="833" 
d="M424 -383q-20 0 -37 4v33q16 -4 37 -4q96 0 143 55t47 197v1138h33v-1138q0 -156 -56 -220.5t-167 -64.5zM186 0v1040h33v-1040h-33zM614 1300v158h33v-158h-33zM186 1300v158h33v-158h-33z" />
    <glyph glyph-name="Jcircumflex" unicode="&#x134;" horiz-adv-x="620" 
d="M111 -8q-45 0 -80 10v33q41 -10 80 -10q131 0 201.5 82.5t70.5 242.5v1108h33v-1108q0 -174 -80 -266t-225 -92zM416 1815l246 -259h-46l-217 228l-217 -228h-45l246 259h33z" />
    <glyph glyph-name="jcircumflex" unicode="&#x135;" horiz-adv-x="428" 
d="M18 -383q-20 0 -36 4v33q16 -4 36 -4q96 0 143.5 55t47.5 197v1138h33v-1138q0 -156 -56.5 -220.5t-167.5 -64.5zM399 1178l-174 249l-176 -249h-41l199 280h35l198 -280h-41z" />
    <glyph glyph-name="Kcommaaccent" unicode="&#x136;" horiz-adv-x="1089" 
d="M248 754v-754h-33v1458h33v-680h2l717 680h49l-731 -692l796 -766h-49l-782 754h-2zM614 -162h33v-135l-61 -192h-29l57 192v135z" />
    <glyph glyph-name="kcommaaccent" unicode="&#x137;" horiz-adv-x="899" 
d="M219 555v-555h-33v1458h33v-880h2l576 462h51l-590 -475l649 -565h-49l-637 555h-2zM492 -162h32v-135l-61 -192h-29l58 192v135z" />
    <glyph glyph-name="kgreenlandic" unicode="&#x138;" horiz-adv-x="927" 
d="M219 555v-555h-33v1040h33v-462h2l576 462h51l-590 -475l649 -565h-49l-637 555h-2z" />
    <glyph glyph-name="Lacute" unicode="&#x139;" horiz-adv-x="1075" 
d="M1065 33v-33h-850v1458h33v-1425h817zM199 1556l219 259h45l-225 -259h-39z" />
    <glyph glyph-name="lacute" unicode="&#x13a;" horiz-adv-x="405" 
d="M186 0v1458h33v-1458h-33zM182 1593l193 283h43l-201 -283h-35z" />
    <glyph glyph-name="Lcommaaccent" unicode="&#x13b;" horiz-adv-x="1075" 
d="M1065 33v-33h-850v1458h33v-1425h817zM625 -162h32v-135l-61 -192h-29l58 192v135z" />
    <glyph glyph-name="lcommaaccent" unicode="&#x13c;" horiz-adv-x="405" 
d="M186 0v1458h33v-1458h-33zM186 -162h33v-135l-61 -192h-29l57 192v135z" />
    <glyph glyph-name="Lcaron" unicode="&#x13d;" horiz-adv-x="1075" 
d="M1065 33v-33h-850v1458h33v-1425h817zM412 1020l84 438h34l-90 -438h-28z" />
    <glyph glyph-name="lcaron" unicode="&#x13e;" horiz-adv-x="405" 
d="M186 0v1458h33v-1458h-33zM342 1102l84 356h35l-90 -356h-29z" />
    <glyph glyph-name="Ldot" unicode="&#x13f;" horiz-adv-x="1239" 
d="M1065 33v-33h-850v1458h33v-1425h817zM834 727v147h36v-147h-36z" />
    <glyph glyph-name="ldot" unicode="&#x140;" horiz-adv-x="622" 
d="M186 0v1458h33v-1458h-33zM496 651v148h36v-148h-36z" />
    <glyph glyph-name="Lslash" unicode="&#x141;" horiz-adv-x="1075" 
d="M1065 0h-850v653l-164 -98v37l164 98v768h33v-751l338 202v-37l-338 -202v-637h817v-33z" />
    <glyph glyph-name="lslash" unicode="&#x142;" horiz-adv-x="483" 
d="M258 0h-33v815l-205 -123v37l205 123v606h33v-590l205 123v-37l-205 -123v-831z" />
    <glyph glyph-name="Nacute" unicode="&#x143;" horiz-adv-x="1470" 
d="M248 1427v-1427h-33v1458h53l953 -1427h2v1427h32v-1458h-53l-952 1427h-2zM621 1556l219 259h45l-226 -259h-38z" />
    <glyph glyph-name="nacute" unicode="&#x144;" 
d="M930 633v-633h-33v633q0 197 -84 296t-235 99q-96 0 -178.5 -48t-131.5 -134t-49 -195v-651h-33v1040h33q0 -170 -6 -258h2q35 123 132 201t246.5 78t243 -108.5t93.5 -319.5zM453 1176l192 282h43l-201 -282h-34z" />
    <glyph glyph-name="Ncommaaccent" unicode="&#x145;" horiz-adv-x="1470" 
d="M248 1427v-1427h-33v1458h53l953 -1427h2v1427h32v-1458h-53l-952 1427h-2zM719 -162h33v-135l-62 -192h-28l57 192v135z" />
    <glyph glyph-name="ncommaaccent" unicode="&#x146;" 
d="M930 633v-633h-33v633q0 197 -84 296t-235 99q-96 0 -178.5 -48t-131.5 -134t-49 -195v-651h-33v1040h33q0 -170 -6 -258h2q35 123 132 201t246.5 78t243 -108.5t93.5 -319.5zM535 -162h32v-135l-61 -192h-29l58 192v135z" />
    <glyph glyph-name="Ncaron" unicode="&#x147;" horiz-adv-x="1470" 
d="M248 1427v-1427h-33v1458h53l953 -1427h2v1427h32v-1458h-53l-952 1427h-2zM719 1556l-246 259h45l217 -228l217 228h45l-245 -259h-33z" />
    <glyph glyph-name="ncaron" unicode="&#x148;" 
d="M930 633v-633h-33v633q0 197 -84 296t-235 99q-96 0 -178.5 -48t-131.5 -134t-49 -195v-651h-33v1040h33q0 -170 -6 -258h2q35 123 132 201t246.5 78t243 -108.5t93.5 -319.5zM535 1176l-244 282h43l217 -252l217 252h43l-244 -282h-32z" />
    <glyph glyph-name="napostrophe" unicode="&#x149;" horiz-adv-x="1183" 
d="M164 1458h33v-145l-72 -260h-29l68 260v145zM1012 633v-633h-33v633q0 197 -84 296t-236 99q-96 0 -178 -48t-131 -134t-49 -195v-651h-33v1040h33q0 -170 -6 -258h2q35 123 132 201t246.5 78t243 -108.5t93.5 -319.5z" />
    <glyph glyph-name="Eng" unicode="&#x14a;" horiz-adv-x="1470" 
d="M1255 -98q0 -156 -56 -220.5t-167 -64.5q-20 0 -37 4v33q16 -4 37 -4q96 0 143.5 55t47.5 197v98l-973 1427h-2v-1427h-33v1458h53l953 -1397h2v1397h32v-1556z" />
    <glyph glyph-name="eng" unicode="&#x14b;" 
d="M930 616v-714q0 -156 -56.5 -220.5t-166.5 -64.5q-20 0 -37 4v33q16 -4 37 -4q96 0 143 55t47 197v714q0 117 -19.5 189t-64.5 123q-88 100 -235 100q-96 0 -178.5 -48t-131.5 -134t-49 -195v-651h-33v1040h33q0 -170 -6 -258h2q35 123 132 201t245 78t246 -111
q51 -57 71.5 -134t20.5 -200z" />
    <glyph glyph-name="Omacron" unicode="&#x14c;" horiz-adv-x="1437" 
d="M129 729q0 -217 72.5 -379t206 -250t311.5 -88t311 88t206 250t73 379t-73 379t-206 250t-311 88t-311.5 -88t-206 -250t-72.5 -379zM1341 729q0 -227 -75.5 -396t-217 -261t-330 -92t-329.5 92t-217 261t-76 396t76 396t217 261.5t329.5 92.5t330 -92.5t217 -261.5
t75.5 -396zM487 1642v33h463v-33h-463z" />
    <glyph glyph-name="omacron" unicode="&#x14d;" horiz-adv-x="1081" 
d="M131 520.5q0 -237.5 108.5 -373t301 -135.5t301 135.5t108.5 373t-108.5 372.5t-301 135t-301 -135t-108.5 -372.5zM983 520q0 -252 -117.5 -396t-324.5 -144t-325 144t-118 396t118 396.5t325 144.5t324.5 -144.5t117.5 -396.5zM309 1327v33h463v-33h-463z" />
    <glyph glyph-name="Obreve" unicode="&#x14e;" horiz-adv-x="1437" 
d="M129 729q0 -217 72.5 -379t206 -250t311.5 -88t311 88t206 250t73 379t-73 379t-206 250t-311 88t-311.5 -88t-206 -250t-72.5 -379zM1341 729q0 -227 -75.5 -396t-217 -261t-330 -92t-329.5 92t-217 261t-76 396t76 396t217 261.5t329.5 92.5t330 -92.5t217 -261.5
t75.5 -396zM719 1554q-129 0 -206 69t-89 192h33q12 -111 78.5 -169.5t183.5 -58.5t183.5 58.5t78.5 169.5h33q-13 -123 -89.5 -192t-205.5 -69z" />
    <glyph glyph-name="obreve" unicode="&#x14f;" horiz-adv-x="1081" 
d="M131 520.5q0 -237.5 108.5 -373t301 -135.5t301 135.5t108.5 373t-108.5 372.5t-301 135t-301 -135t-108.5 -372.5zM983 520q0 -252 -117.5 -396t-324.5 -144t-325 144t-118 396t118 396.5t325 144.5t324.5 -144.5t117.5 -396.5zM541 1198q-129 0 -206 68.5t-89 191.5h33
q12 -111 78.5 -169t183 -58t183.5 58.5t79 168.5h33q-13 -123 -89.5 -191.5t-205.5 -68.5z" />
    <glyph glyph-name="Ohungarumlaut" unicode="&#x150;" horiz-adv-x="1437" 
d="M129 729q0 -217 72.5 -379t206 -250t311.5 -88t311 88t206 250t73 379t-73 379t-206 250t-311 88t-311.5 -88t-206 -250t-72.5 -379zM1341 729q0 -227 -75.5 -396t-217 -261t-330 -92t-329.5 92t-217 261t-76 396t76 396t217 261.5t329.5 92.5t330 -92.5t217 -261.5
t75.5 -396zM748 1556l249 259h50l-261 -259h-38zM545 1556l250 259h49l-260 -259h-39z" />
    <glyph glyph-name="ohungarumlaut" unicode="&#x151;" horiz-adv-x="1081" 
d="M131 520.5q0 -237.5 108.5 -373t301 -135.5t301 135.5t108.5 373t-108.5 372.5t-301 135t-301 -135t-108.5 -372.5zM983 520q0 -252 -117.5 -396t-324.5 -144t-325 144t-118 396t118 396.5t325 144.5t324.5 -144.5t117.5 -396.5zM569 1176l250 282h49l-260 -282h-39z
M367 1176l249 282h50l-260 -282h-39z" />
    <glyph glyph-name="OE" unicode="&#x152;" horiz-adv-x="1970" 
d="M129 729q0 -336 174 -516t500 -180h182v1392h-182q-326 0 -500 -180t-174 -516zM1018 1425v-659h766v-33h-766v-700h829v-33h-1044q-340 0 -523.5 189.5t-183.5 539.5t183.5 539.5t523.5 189.5h1016v-33h-801z" />
    <glyph glyph-name="oe" unicode="&#x153;" horiz-adv-x="1744" 
d="M1614 563q0 145 -46 251t-127 160t-186 54q-161 0 -255.5 -128t-98.5 -337h713zM868 520.5q0 235.5 -99 371.5t-270 136t-269.5 -136t-98.5 -371.5t98.5 -372t269.5 -136.5t270 136.5t99 372zM1271 -20q-146 0 -247.5 103t-136.5 284h-2q-29 -182 -130.5 -284.5
t-256.5 -102.5q-186 0 -293 144t-107 396t106.5 396.5t293.5 144.5q150 0 250 -96.5t133 -270.5h4q31 172 129 269.5t246.5 97.5t251 -102.5t124.5 -274.5q10 -82 11 -154h-746q0 -320 174 -454q84 -64 207 -64t211 80t104 213h35q-18 -150 -116.5 -237.5t-244.5 -87.5z" />
    <glyph glyph-name="Racute" unicode="&#x154;" horiz-adv-x="1210" 
d="M248 733h379q201 0 303 100.5t102 259.5t-109.5 245.5t-328.5 86.5h-346v-692zM1065 1101q0 -165 -85 -262.5t-230 -121.5v-2q84 -23 133 -80t100 -195l162 -440h-35l-158 430q-38 104 -76 160q-73 110 -249 110h-379v-700h-33v1458h379q233 0 352 -96t119 -261z
M483 1556l219 259h46l-226 -259h-39z" />
    <glyph glyph-name="racute" unicode="&#x155;" horiz-adv-x="653" 
d="M567 1012q-158 0 -253 -104.5t-95 -307.5v-600h-33v1040h33q0 -178 -6 -272h2q37 137 128 206.5t224 69.5q25 0 58 -4v-32q-33 4 -58 4zM293 1176l192 282h43l-200 -282h-35z" />
    <glyph glyph-name="Rcommaaccent" unicode="&#x156;" horiz-adv-x="1210" 
d="M248 733h379q201 0 303 100.5t102 259.5t-109.5 245.5t-328.5 86.5h-346v-692zM1065 1101q0 -165 -85 -262.5t-230 -121.5v-2q84 -23 133 -80t100 -195l162 -440h-35l-158 430q-38 104 -76 160q-73 110 -249 110h-379v-700h-33v1458h379q233 0 352 -96t119 -261z
M643 -162h33v-135l-62 -192h-28l57 192v135z" />
    <glyph glyph-name="rcommaaccent" unicode="&#x157;" horiz-adv-x="653" 
d="M567 1012q-158 0 -253 -104.5t-95 -307.5v-600h-33v1040h33q0 -178 -6 -272h2q37 137 128 206.5t224 69.5q25 0 58 -4v-32q-33 4 -58 4zM186 -162h33v-135l-61 -192h-29l57 192v135z" />
    <glyph glyph-name="Rcaron" unicode="&#x158;" horiz-adv-x="1210" 
d="M248 733h379q201 0 303 100.5t102 259.5t-109.5 245.5t-328.5 86.5h-346v-692zM1065 1101q0 -165 -85 -262.5t-230 -121.5v-2q84 -23 133 -80t100 -195l162 -440h-35l-158 430q-38 104 -76 160q-73 110 -249 110h-379v-700h-33v1458h379q233 0 352 -96t119 -261z
M582 1556l-246 259h45l217 -228l217 228h45l-246 -259h-32z" />
    <glyph glyph-name="rcaron" unicode="&#x159;" horiz-adv-x="653" 
d="M567 1012q-158 0 -253 -104.5t-95 -307.5v-600h-33v1040h33q0 -178 -6 -272h2q37 137 128 206.5t224 69.5q25 0 58 -4v-32q-33 4 -58 4zM375 1176l-244 282h43l217 -252l217 252h43l-243 -282h-33z" />
    <glyph glyph-name="Sacute" unicode="&#x15a;" horiz-adv-x="1179" 
d="M1022 993h-33q0 453 -434 453q-180 0 -285.5 -91t-105.5 -243q0 -104 43 -168.5t130 -104.5t252 -80t260 -82t146.5 -117t51.5 -206q0 -174 -122 -274t-346.5 -100t-348.5 126.5t-124 380.5h33q0 -475 453 -475q199 0 310.5 91.5t111.5 250.5q0 123 -48 191.5
t-135.5 104.5t-254.5 77t-259 86t-139 115.5t-47 183.5q0 166 115.5 266.5t327.5 100.5t330 -122t118 -364zM440 1556l219 259h46l-226 -259h-39z" />
    <glyph glyph-name="sacute" unicode="&#x15b;" horiz-adv-x="915" 
d="M791 705h-33q0 152 -84 237.5t-223.5 85.5t-222.5 -65.5t-83 -174.5q0 -74 32 -115.5t93.5 -66t188 -52.5t206.5 -60.5t118 -87t38 -144.5q0 -125 -97 -203.5t-264 -78.5t-268.5 99t-101.5 277h33q0 -164 92 -254t244.5 -90t240.5 70t88 166t-35.5 143t-107.5 76t-199 55
q-126 28 -194 56q-138 58 -139 210q0 123 93 198t245.5 75t246 -95.5t93.5 -260.5zM342 1176l193 282h43l-201 -282h-35z" />
    <glyph glyph-name="Scircumflex" unicode="&#x15c;" horiz-adv-x="1179" 
d="M1022 993h-33q0 453 -434 453q-180 0 -285.5 -91t-105.5 -243q0 -104 43 -168.5t130 -104.5t252 -80t260 -82t146.5 -117t51.5 -206q0 -174 -122 -274t-346.5 -100t-348.5 126.5t-124 380.5h33q0 -475 453 -475q199 0 310.5 91.5t111.5 250.5q0 123 -48 191.5
t-135.5 104.5t-254.5 77t-259 86t-139 115.5t-47 183.5q0 166 115.5 266.5t327.5 100.5t330 -122t118 -364zM571 1815l246 -259h-45l-217 228l-217 -228h-45l246 259h32z" />
    <glyph glyph-name="scircumflex" unicode="&#x15d;" horiz-adv-x="915" 
d="M791 705h-33q0 152 -84 237.5t-223.5 85.5t-222.5 -65.5t-83 -174.5q0 -74 32 -115.5t93.5 -66t188 -52.5t206.5 -60.5t118 -87t38 -144.5q0 -125 -97 -203.5t-264 -78.5t-268.5 99t-101.5 277h33q0 -164 92 -254t244.5 -90t240.5 70t88 166t-35.5 143t-107.5 76t-199 55
q-126 28 -194 56q-138 58 -139 210q0 123 93 198t245.5 75t246 -95.5t93.5 -260.5zM440 1427l-217 -251h-43l244 282h33l243 -282h-43z" />
    <glyph glyph-name="Scedilla" unicode="&#x15e;" horiz-adv-x="1179" 
d="M592 -135q80 0 123 -37t43 -102.5t-49.5 -105.5t-137.5 -40t-172 47l17 29q74 -43 152.5 -43t117.5 30.5t39 84.5q0 106 -133 106q-37 0 -68 -10l-22 22l90 134q-238 0 -362 126.5t-124 380.5h33q0 -475 453 -475q199 0 310.5 91.5t111.5 250.5q0 123 -48 191.5
t-135.5 104.5t-254.5 77t-259 86t-139 115.5t-47 183.5q0 166 115.5 266.5t327.5 100.5t330 -122t118 -364h-33q0 453 -434 453q-180 0 -285.5 -91t-105.5 -243q0 -104 43 -168.5t130 -104.5t252 -80t260 -82t146.5 -117t51.5 -206q0 -166 -110 -265t-304 -109l-84 -121
q18 6 43 6z" />
    <glyph glyph-name="scedilla" unicode="&#x15f;" horiz-adv-x="915" 
d="M469 -135q80 0 123 -37t43 -102.5t-49 -105.5t-137 -40t-173 47l17 29q74 -43 153 -43q156 0 156 115q0 106 -133 106q-37 0 -68 -10l-22 22l90 134q-178 2 -278.5 101t-100.5 275h33q0 -164 92 -254t244.5 -90t240.5 70t88 166t-35.5 143t-107.5 76t-199 55
q-126 28 -194 56q-138 58 -139 210q0 123 93 198t245.5 75t246 -95.5t93.5 -260.5h-33q0 152 -84 237.5t-223.5 85.5t-222.5 -65.5t-83 -174.5q0 -74 32 -115.5t93.5 -66t188 -52.5t206.5 -60.5t118 -87t38 -158t-87 -181t-224 -87.5l-84 -121q18 6 43 6z" />
    <glyph glyph-name="Scaron" unicode="&#x160;" horiz-adv-x="1179" 
d="M1022 993h-33q0 453 -434 453q-180 0 -285.5 -91t-105.5 -243q0 -104 43 -168.5t130 -104.5t252 -80t260 -82t146.5 -117t51.5 -206q0 -174 -122 -274t-346.5 -100t-348.5 126.5t-124 380.5h33q0 -475 453 -475q199 0 310.5 91.5t111.5 250.5q0 123 -48 191.5
t-135.5 104.5t-254.5 77t-259 86t-139 115.5t-47 183.5q0 166 115.5 266.5t327.5 100.5t330 -122t118 -364zM539 1556l-246 259h45l217 -228l217 228h45l-246 -259h-32z" />
    <glyph glyph-name="scaron" unicode="&#x161;" horiz-adv-x="915" 
d="M791 705h-33q0 152 -84 237.5t-223.5 85.5t-222.5 -65.5t-83 -174.5q0 -74 32 -115.5t93.5 -66t188 -52.5t206.5 -60.5t118 -87t38 -144.5q0 -125 -97 -203.5t-264 -78.5t-268.5 99t-101.5 277h33q0 -164 92 -254t244.5 -90t240.5 70t88 166t-35.5 143t-107.5 76t-199 55
q-126 28 -194 56q-138 58 -139 210q0 123 93 198t245.5 75t246 -95.5t93.5 -260.5zM424 1176l-244 282h43l217 -252l217 252h43l-243 -282h-33z" />
    <glyph glyph-name="uni0162" unicode="&#x162;" horiz-adv-x="1163" 
d="M598 1425v-1425h-33v1425h-555v33h1143v-33h-555zM565 -162h33v-135l-61 -192h-29l57 192v135z" />
    <glyph glyph-name="uni0163" unicode="&#x163;" horiz-adv-x="552" 
d="M330 -162v-135l-62 -192h-28l57 192v135h33zM416 -4q-98 0 -143.5 56.5t-45.5 180.5v775h-198v32h198v240h33v-240h217v-32h-217v-775q0 -111 36 -157.5t120 -46.5q34 0 71 8v-33q-37 -8 -71 -8z" />
    <glyph glyph-name="Tcaron" unicode="&#x164;" horiz-adv-x="1163" 
d="M598 1425v-1425h-33v1425h-555v33h1143v-33h-555zM565 1556l-246 259h46l217 -228l217 228h45l-246 -259h-33z" />
    <glyph glyph-name="tcaron" unicode="&#x165;" horiz-adv-x="552" 
d="M416 -4q-98 0 -143.5 56.5t-45.5 180.5v775h-198v32h198v240h33v-240h217v-32h-217v-775q0 -111 36 -157.5t120 -46.5q34 0 71 8v-33q-37 -8 -71 -8zM383 1102l84 356h35l-90 -356h-29z" />
    <glyph glyph-name="Tbar" unicode="&#x166;" horiz-adv-x="1163" 
d="M598 856h324v-33h-324v-823h-33v823h-323v33h323v569h-555v33h1143v-33h-555v-569z" />
    <glyph glyph-name="tbar" unicode="&#x167;" horiz-adv-x="552" 
d="M416 -4q-98 0 -143.5 56.5t-45.5 180.5v324h-194v33h194v418h-198v32h198v240h33v-240h217v-32h-217v-418h213v-33h-213v-324q0 -111 36 -157.5t120 -46.5q34 0 71 8v-33q-37 -8 -71 -8z" />
    <glyph glyph-name="Utilde" unicode="&#x168;" horiz-adv-x="1372" 
d="M686.5 -20q-235.5 0 -359.5 140t-124 412v926h33v-926q0 -260 114.5 -390t335.5 -130t336 130t115 390v926h32v-926q0 -272 -123.5 -412t-359 -140zM848 1628q-51 0 -87 17.5t-102.5 66.5t-119.5 49q-107 0 -115 -133h-33q6 80 44 123t89 43t87 -17.5t102.5 -66.5
t119.5 -49q107 0 115 133h33q-6 -80 -44 -123t-89 -43z" />
    <glyph glyph-name="utilde" unicode="&#x169;" 
d="M172 408v632h33v-632q0 -197 84 -296.5t235 -99.5q96 0 178 48.5t131.5 134.5t49.5 194v651h32v-1040h-32v227h-2q-45 -117 -141.5 -182t-215.5 -65q-166 0 -259 108.5t-93 319.5zM713 1272q-51 0 -87 17.5t-82 51t-78 49t-74 15.5t-70.5 -34t-32.5 -99h-33q6 80 44 123
t89 43t87 -17.5t102.5 -66.5t119.5 -49q107 0 115 133h33q-6 -80 -44 -123t-89 -43z" />
    <glyph glyph-name="Umacron" unicode="&#x16a;" horiz-adv-x="1372" 
d="M686.5 -20q-235.5 0 -359.5 140t-124 412v926h33v-926q0 -260 114.5 -390t335.5 -130t336 130t115 390v926h32v-926q0 -272 -123.5 -412t-359 -140zM455 1642v33h463v-33h-463z" />
    <glyph glyph-name="umacron" unicode="&#x16b;" 
d="M172 408v632h33v-632q0 -197 84 -296.5t235 -99.5q96 0 178 48.5t131.5 134.5t49.5 194v651h32v-1040h-32v227h-2q-45 -117 -141.5 -182t-215.5 -65q-166 0 -259 108.5t-93 319.5zM319 1327v33h463v-33h-463z" />
    <glyph glyph-name="Ubreve" unicode="&#x16c;" horiz-adv-x="1372" 
d="M686.5 -20q-235.5 0 -359.5 140t-124 412v926h33v-926q0 -260 114.5 -390t335.5 -130t336 130t115 390v926h32v-926q0 -272 -123.5 -412t-359 -140zM686 1554q-129 0 -206 69t-89 192h33q12 -111 78.5 -169.5t183.5 -58.5t183.5 58.5t78.5 169.5h33q-12 -123 -89 -192
t-206 -69z" />
    <glyph glyph-name="ubreve" unicode="&#x16d;" 
d="M172 408v632h33v-632q0 -197 84 -296.5t235 -99.5q96 0 178 48.5t131.5 134.5t49.5 194v651h32v-1040h-32v227h-2q-45 -117 -141.5 -182t-215.5 -65q-166 0 -259 108.5t-93 319.5zM551 1198q-129 0 -206 68.5t-89 191.5h33q12 -111 78.5 -169t183.5 -58t183.5 58.5
t78.5 168.5h33q-12 -123 -89 -191.5t-206 -68.5z" />
    <glyph glyph-name="Uring" unicode="&#x16e;" horiz-adv-x="1372" 
d="M686.5 -20q-235.5 0 -359.5 140t-124 412v926h33v-926q0 -260 114.5 -390t335.5 -130t336 130t115 390v926h32v-926q0 -272 -123.5 -412t-359 -140zM547 1744q0 -58 41 -99t99 -41t98 41t40 99t-40 98t-98 40t-99 -40t-41 -98zM858 1743q0 -72 -50 -122t-122 -50t-122 50
t-50 122t51 122t122 50t121 -50t50 -122z" />
    <glyph glyph-name="uring" unicode="&#x16f;" 
d="M172 408v632h33v-632q0 -197 84 -296.5t235 -99.5q96 0 178 48.5t131.5 134.5t49.5 194v651h32v-1040h-32v227h-2q-45 -117 -141.5 -182t-215.5 -65q-166 0 -259 108.5t-93 319.5zM412 1387.5q0 -58.5 41 -99.5t99 -41t98 41t40 99t-40 98.5t-98 40.5t-99 -40t-41 -98.5z
M723 1386.5q0 -71.5 -50 -122t-122 -50.5t-122 50.5t-50 122t51 122t122 50.5t121 -50.5t50 -122z" />
    <glyph glyph-name="Uhungarumlaut" unicode="&#x170;" horiz-adv-x="1372" 
d="M686.5 -20q-235.5 0 -359.5 140t-124 412v926h33v-926q0 -260 114.5 -390t335.5 -130t336 130t115 390v926h32v-926q0 -272 -123.5 -412t-359 -140zM715 1556l250 259h49l-260 -259h-39zM512 1556l250 259h49l-260 -259h-39z" />
    <glyph glyph-name="uhungarumlaut" unicode="&#x171;" 
d="M172 408v632h33v-632q0 -197 84 -296.5t235 -99.5q96 0 178 48.5t131.5 134.5t49.5 194v651h32v-1040h-32v227h-2q-45 -117 -141.5 -182t-215.5 -65q-166 0 -259 108.5t-93 319.5zM580 1176l249 282h50l-261 -282h-38zM377 1176l250 282h49l-260 -282h-39z" />
    <glyph glyph-name="Uogonek" unicode="&#x172;" horiz-adv-x="1372" 
d="M766 -238q0 -117 113 -116q39 0 65 10v-33q-27 -10 -82 -10t-92 38.5t-37 108.5t39 127.5t133 132.5v5q-96 -45 -219 -45q-236 0 -359.5 140t-123.5 412v926h33v-926q0 -260 114.5 -390t335.5 -130t336 130t115 390v926h32v-926q0 -188 -55.5 -305t-163.5 -205t-146 -144
t-38 -116z" />
    <glyph glyph-name="uogonek" unicode="&#x173;" 
d="M839.5 -387q-55.5 0 -92 36t-36.5 102.5t38.5 124.5t133.5 136v215h-2q-45 -117 -141.5 -182t-215.5 -65q-166 0 -259 108.5t-93 319.5v632h33v-632q0 -197 84 -296.5t235 -99.5q96 0 178 48.5t131.5 134.5t49.5 194v651h32v-1040q-96 -78 -134 -134t-38 -116
q0 -104 113 -104q39 0 66 10v-33q-27 -10 -82.5 -10z" />
    <glyph glyph-name="Wcircumflex" unicode="&#x174;" horiz-adv-x="1763" 
d="M1278 0l-395 1425h-2l-396 -1425h-47l-413 1458h32l404 -1423h2l393 1423h51l393 -1423h3l403 1423h33l-414 -1458h-47zM899 1815l246 -259h-45l-217 228l-217 -228h-45l245 259h33z" />
    <glyph glyph-name="wcircumflex" unicode="&#x175;" horiz-adv-x="1519" 
d="M1102 0l-340 1010h-4l-340 -1010h-49l-349 1040h33l338 -1007h4l340 1007h49l340 -1007h4l338 1007h33l-348 -1040h-49zM760 1427l-217 -251h-43l243 282h33l244 -282h-43z" />
    <glyph glyph-name="Ycircumflex" unicode="&#x176;" horiz-adv-x="1167" 
d="M600 0h-33v651l-553 807h39l529 -772h2l530 772h39l-553 -807v-651zM600 1815l246 -259h-45l-217 228l-217 -228h-45l245 259h33z" />
    <glyph glyph-name="ycircumflex" unicode="&#x177;" horiz-adv-x="882" 
d="M106 -387q-64 0 -96 14v33q31 -14 91.5 -14t108.5 28q97 56 206 324l-412 1042h35l393 -995h2l410 995h35l-433 -1052q-112 -284 -220 -344q-56 -30 -120 -31zM442 1427l-217 -251h-43l244 282h33l243 -282h-43z" />
    <glyph glyph-name="Ydieresis" unicode="&#x178;" horiz-adv-x="1167" 
d="M600 0h-33v651l-553 807h39l529 -772h2l530 772h39l-553 -807v-651zM756 1595v158h32v-158h-32zM379 1595v158h33v-158h-33z" />
    <glyph glyph-name="Zacute" unicode="&#x179;" horiz-adv-x="1120" 
d="M68 33h1017v-33h-1050v45l973 1378v2h-963v33h995v-45l-972 -1378v-2zM428 1556l219 259h45l-225 -259h-39z" />
    <glyph glyph-name="zacute" unicode="&#x17a;" horiz-adv-x="903" 
d="M74 33h788v-33h-821v49l768 955v4h-748v32h781v-49l-768 -954v-4zM354 1176l193 282h43l-201 -282h-35z" />
    <glyph glyph-name="Zdotaccent" unicode="&#x17b;" horiz-adv-x="1120" 
d="M68 33h1017v-33h-1050v45l973 1378v2h-963v33h995v-45l-972 -1378v-2zM526 1575v158h33v-158h-33z" />
    <glyph glyph-name="zdotaccent" unicode="&#x17c;" horiz-adv-x="903" 
d="M74 33h788v-33h-821v49l768 955v4h-748v32h781v-49l-768 -954v-4zM436 1300v158h33v-158h-33z" />
    <glyph glyph-name="Zcaron" unicode="&#x17d;" horiz-adv-x="1120" 
d="M68 33h1017v-33h-1050v45l973 1378v2h-963v33h995v-45l-972 -1378v-2zM526 1556l-245 259h45l217 -228l217 228h45l-246 -259h-33z" />
    <glyph glyph-name="zcaron" unicode="&#x17e;" horiz-adv-x="903" 
d="M74 33h788v-33h-821v49l768 955v4h-748v32h781v-49l-768 -954v-4zM436 1176l-243 282h43l217 -252l217 252h43l-244 -282h-33z" />
    <glyph glyph-name="longs" unicode="&#x17f;" horiz-adv-x="514" 
d="M260 1217v-1217h-33v1008h-196v32h196v177q0 123 52.5 185t150.5 62q28 0 53 -6v-33q-20 6 -53 7q-170 0 -170 -215z" />
    <glyph glyph-name="Schwa" unicode="&#x18f;" horiz-adv-x="1427" 
d="M710 12q175 0 308 87t204.5 245t75.5 363h-1169q2 -219 74.5 -376t202 -238t304.5 -81zM1331 729q0 -227 -77.5 -397t-220 -261t-329 -91t-323.5 90t-211 259t-74 400v10h1202q0 213 -74.5 373t-212 247t-335.5 87t-338.5 -113.5t-169.5 -304.5h-35q33 209 184.5 330
t359.5 121t352.5 -92.5t223 -261.5t78.5 -396z" />
    <glyph glyph-name="florin" unicode="&#x192;" horiz-adv-x="1024" 
d="M906 1427q-46 0 -89 -24.5t-71.5 -80.5t-55.5 -161l-51 -203h203v-32h-213l-248 -979q-62 -244 -137.5 -286t-125.5 -42t-63 2v33q13 -2 59 -2t114 40t124 271l244 963h-207v32h217l53 211q29 113 62 174.5t82 89t99 27.5t67 -4v-33q-17 4 -63 4z" />
    <glyph glyph-name="Aringacute" unicode="&#x1fa;" horiz-adv-x="1298" 
d="M1008 578l-359 847h-2l-356 -847h717zM276 545l-229 -545h-35l615 1458h43l614 -1458h-35l-229 545h-744zM510 1674.5q0 -58.5 41 -99.5t99 -41t98 41t40 99t-39.5 98t-98 40t-99.5 -39.5t-41 -98zM821 1673.5q0 -71.5 -50 -122t-121.5 -50.5t-122 50.5t-50.5 122
t51.5 121.5t122 50t120.5 -50t50 -121.5zM535 1876l219 258h45l-226 -258h-38z" />
    <glyph glyph-name="aringacute" unicode="&#x1fb;" horiz-adv-x="1011" 
d="M117 263q0 -114 84 -182.5t223 -68.5q182 0 285 117q57 66 78.5 130.5t21.5 189.5v133q-230 -27 -386.5 -50.5t-231 -89t-74.5 -179.5zM842 682v-449q0 -131 18 -233h-33q-14 104 -14 170t2 88h-2q-41 -129 -143.5 -203.5t-251 -74.5t-241.5 77.5t-93 205.5t83 202
t266 101.5t376 47.5v68q0 176 -84 261t-234.5 85t-235.5 -82t-95 -219h-33q10 154 106.5 244t259 90t256 -94.5t93.5 -284.5zM344 1347q0 -58 41 -99.5t99 -41.5t98.5 41t40.5 99.5t-40 98.5t-98.5 40t-99.5 -40t-41 -98zM655 1345.5q0 -71.5 -50 -121.5t-121.5 -50t-122 50
t-50.5 121.5t51.5 122t122 50.5t120.5 -50.5t50 -122zM385 1585l193 283h43l-201 -283h-35z" />
    <glyph glyph-name="AEacute" unicode="&#x1fc;" horiz-adv-x="1853" 
d="M834 1425h-43l-435 -809h607zM1731 0h-672l-92 584h-629l-313 -584h-37l784 1458h930v-33h-836l105 -659h696v-33h-692l112 -700h644v-33zM940 1556l219 259h45l-225 -259h-39z" />
    <glyph glyph-name="aeacute" unicode="&#x1fd;" horiz-adv-x="1669" 
d="M793 449v81h-273q-213 0 -308 -65.5t-95 -190.5t82 -193.5t217 -68.5q184 0 288 126q50 60 69.5 126t19.5 185zM1538 563q0 145 -46 251t-127 160t-185 54q-162 0 -256.5 -128t-98.5 -337h713zM1198 -20q-143 0 -242.5 94t-138.5 262h-2q-16 -166 -130 -261t-266.5 -95
t-243.5 77.5t-91 216.5q0 289 436 289h273v119q0 176 -81 261t-223.5 85t-230.5 -84t-98 -217h-33q10 152 109.5 243t245.5 91t234.5 -79t102.5 -237h2q39 150 133 233q92 83 236 83q144 -1 246 -103q135 -136 135 -428h-746q0 -320 174 -454q84 -64 207 -64t211 80t105 213
h34q-18 -150 -116.5 -237.5t-241.5 -87.5zM729 1176l193 282h43l-201 -282h-35z" />
    <glyph glyph-name="Oslashacute" unicode="&#x1fe;" horiz-adv-x="1437" 
d="M1309 704q0 359 -166 556l-828 -1084q154 -164 404 -164q178 0 311 88t206 250t73 354zM719 1446q-178 0 -311.5 -88t-206 -250t-72.5 -354q0 -360 166 -555l827 1083q-154 164 -403 164zM1341 729q0 -227 -75.5 -396t-217 -261t-329.5 -92q-258 0 -424 170l-129 -170
l-25 18l133 174q-178 203 -178 557q0 227 76 396t217 261.5t330 92.5q258 0 424 -170l129 170l24 -19l-133 -174q178 -203 178 -557zM604 1556l219 259h45l-225 -259h-39z" />
    <glyph glyph-name="oslashacute" unicode="&#x1ff;" horiz-adv-x="1081" 
d="M950 519.5q0 236.5 -106 371.5l-586 -764q109 -115 291 -115t291.5 135.5t109.5 372zM131 521q0 -237 107 -371l585 765q-106 113 -290.5 113t-293 -135t-108.5 -372zM983 522.5q0 -254.5 -119 -398.5t-315 -144t-311 120l-109 -143l-25 18l113 150q-119 141 -119 394
t118 397.5t312.5 144.5t313.5 -119l108 141l25 -18l-113 -147q121 -141 121 -395.5zM442 1176l193 282h43l-201 -282h-35z" />
    <glyph glyph-name="Scommaaccent" unicode="&#x218;" horiz-adv-x="1179" 
d="M1022 993h-33q0 453 -434 453q-180 0 -285.5 -91t-105.5 -243q0 -104 43 -168.5t130 -104.5t252 -80t260 -82t146.5 -117t51.5 -206q0 -174 -122 -274t-346.5 -100t-348.5 126.5t-124 380.5h33q0 -475 453 -475q199 0 310.5 91.5t111.5 250.5q0 123 -48 191.5
t-135.5 104.5t-254.5 77t-259 86t-139 115.5t-47 183.5q0 166 115.5 266.5t327.5 100.5t330 -122t118 -364zM563 -162h33v-135l-61 -192h-29l57 192v135z" />
    <glyph glyph-name="scommaaccent" unicode="&#x219;" horiz-adv-x="915" 
d="M791 705h-33q0 152 -84 237.5t-223.5 85.5t-222.5 -65.5t-83 -174.5q0 -74 32 -115.5t93.5 -66t188 -52.5t206.5 -60.5t118 -87t38 -144.5q0 -125 -97 -203.5t-264 -78.5t-268.5 99t-101.5 277h33q0 -164 92 -254t244.5 -90t240.5 70t88 166t-35.5 143t-107.5 76t-199 55
q-126 28 -194 56q-138 58 -139 210q0 123 93 198t245.5 75t246 -95.5t93.5 -260.5zM440 -162h33v-135l-61 -192h-29l57 192v135z" />
    <glyph glyph-name="uni021A" unicode="&#x21a;" horiz-adv-x="1163" 
d="M598 1425v-1425h-33v1425h-555v33h1143v-33h-555zM565 -162h33v-135l-61 -192h-29l57 192v135z" />
    <glyph glyph-name="uni021B" unicode="&#x21b;" horiz-adv-x="552" 
d="M416 -4q-98 0 -143.5 56.5t-45.5 180.5v775h-198v32h198v240h33v-240h217v-32h-217v-775q0 -111 36 -157.5t120 -46.5q34 0 71 8v-33q-37 -8 -71 -8zM297 -162h33v-135l-62 -192h-28l57 192v135z" />
    <glyph glyph-name="dotlessj" unicode="&#x237;" horiz-adv-x="428" 
d="M18 -383q-20 0 -36 4v33q16 -4 36 -4q96 0 143.5 55t47.5 197v1138h33v-1138q0 -156 -56.5 -220.5t-167.5 -64.5z" />
    <glyph glyph-name="schwa" unicode="&#x259;" horiz-adv-x="1054" 
d="M526 12q178 0 286 134.5t112 351.5h-793q2 -229 109.5 -357.5t285.5 -128.5zM956 520q0 -164 -54 -285.5t-152.5 -188t-229.5 -66.5q-195 0 -308.5 144t-113.5 396v10h826q0 150 -50.5 262.5t-143.5 174t-227 61.5t-229.5 -80t-115.5 -213h-35q23 150 128 238t249 88
t246 -66.5t156 -188.5t54 -286z" />
    <glyph glyph-name="uni02BC" unicode="&#x2bc;" horiz-adv-x="319" 
d="M164 1458h33v-145l-72 -260h-29l68 260v145z" />
    <glyph glyph-name="circumflex" unicode="&#x2c6;" horiz-adv-x="724" 
d="M362 1427l-217 -251h-43l244 282h33l244 -282h-43z" />
    <glyph glyph-name="caron" unicode="&#x2c7;" horiz-adv-x="724" 
d="M346 1176l-244 282h43l217 -252l218 252h43l-244 -282h-33z" />
    <glyph glyph-name="uni02C9" unicode="&#x2c9;" horiz-adv-x="667" 
d="M102 1327v33h463v-33h-463z" />
    <glyph glyph-name="breve" unicode="&#x2d8;" horiz-adv-x="794" 
d="M397 1198q-129 0 -205.5 68.5t-89.5 191.5h33q12 -111 79 -169t183.5 -58t183 58.5t78.5 168.5h33q-12 -123 -89 -191.5t-206 -68.5z" />
    <glyph glyph-name="dotaccent" unicode="&#x2d9;" horiz-adv-x="237" 
d="M102 1300v158h33v-158h-33z" />
    <glyph glyph-name="ring" unicode="&#x2da;" horiz-adv-x="548" 
d="M135 1388q0 -58 41 -99.5t99 -41.5t98.5 41t40.5 99t-40 98.5t-98 40.5t-99.5 -40t-41.5 -98zM446 1386.5q0 -71.5 -50 -122t-121.5 -50.5t-122 50.5t-50.5 122t52 122t122 50.5t120 -50.5t50 -122z" />
    <glyph glyph-name="ogonek" unicode="&#x2db;" horiz-adv-x="415" 
d="M135 -250q0 -104 113 -104q39 0 65 10v-33q-27 -10 -82 -10t-92 36.5t-37 102.5t39 124t133 136l33 -12q-96 -78 -134 -134t-38 -116z" />
    <glyph glyph-name="tilde" unicode="&#x2dc;" horiz-adv-x="794" 
d="M559 1272q-51 0 -87 17t-82 51t-77.5 49.5t-73.5 15.5t-71 -34t-33 -99h-33q6 80 44 123t90 43t87 -17.5t81 -51.5t78 -49t74 -15t70.5 33.5t32.5 99.5h33q-6 -80 -44 -123t-89 -43z" />
    <glyph glyph-name="hungarumlaut" unicode="&#x2dd;" horiz-adv-x="706" 
d="M305 1176l250 282h49l-260 -282h-39zM102 1176l250 282h49l-260 -282h-39z" />
    <glyph glyph-name="uni0312" unicode="&#x312;" horiz-adv-x="0" 
d="M135 1202h-33v135l62 193h29l-58 -193v-135z" />
    <glyph glyph-name="commaaccent" unicode="&#x326;" horiz-adv-x="0" 
d="M160 -162h33v-135l-62 -192h-29l58 192v135z" />
    <glyph glyph-name="uni0333" unicode="&#x333;" horiz-adv-x="0" 
d="M-1024 -381v33h1024v-33h-1024zM-1024 -135v33h1024v-33h-1024z" />
    <glyph glyph-name="numeralsigngreek" unicode="&#x374;" horiz-adv-x="256" 
d="M61 1040l99 418h35l-105 -418h-29z" />
    <glyph glyph-name="numeralsignlowergreek" unicode="&#x375;" horiz-adv-x="256" 
d="M61 -188l99 417h35l-105 -417h-29z" />
    <glyph glyph-name="questiongreek" unicode="&#x37e;" horiz-adv-x="282" 
d="M143 147h33v-147l-72 -260h-28l67 260v147zM143 893v147h37v-147h-37z" />
    <glyph glyph-name="tonos" unicode="&#x384;" horiz-adv-x="339" 
d="M102 1184l101 315h35l-107 -315h-29z" />
    <glyph glyph-name="dieresistonos" unicode="&#x385;" horiz-adv-x="655" 
d="M520 1219v157h33v-157h-33zM102 1219v157h33v-157h-33zM274 1184l86 274h35l-92 -274h-29z" />
    <glyph glyph-name="Alphatonos" unicode="&#x386;" horiz-adv-x="1298" 
d="M1008 578l-359 847h-2l-356 -847h717zM276 545l-229 -545h-35l615 1458h43l614 -1458h-35l-229 545h-744zM168 1061l100 397h35l-106 -397h-29z" />
    <glyph glyph-name="anoteleia" unicode="&#x387;" horiz-adv-x="278" 
d="M121 893v147h37v-147h-37z" />
    <glyph glyph-name="Epsilontonos" unicode="&#x388;" horiz-adv-x="1200" 
d="M248 1425v-659h766v-33h-766v-700h829v-33h-862v1458h834v-33h-801zM-84 1061l100 397h35l-106 -397h-29z" />
    <glyph glyph-name="Etatonos" unicode="&#x389;" horiz-adv-x="1443" 
d="M1196 0v741h-948v-741h-33v1458h33v-684h948v684h33v-1458h-33zM-84 1061l100 397h35l-106 -397h-29z" />
    <glyph glyph-name="Iotatonos" unicode="&#x38a;" horiz-adv-x="462" 
d="M215 0v1458h33v-1458h-33zM-84 1061l100 397h35l-106 -397h-29z" />
    <glyph glyph-name="Omicrontonos" unicode="&#x38c;" horiz-adv-x="1437" 
d="M129 729q0 -217 72.5 -379t206 -250t311.5 -88t311 88t206 250t73 379t-73 379t-206 250t-311 88t-311.5 -88t-206 -250t-72.5 -379zM1341 729q0 -227 -75.5 -396t-217 -261t-330 -92t-329.5 92t-217 261t-76 396t76 396t217 261.5t329.5 92.5t330 -92.5t217 -261.5
t75.5 -396zM-51 1061l100 397h35l-107 -397h-28z" />
    <glyph glyph-name="Upsilontonos" unicode="&#x38e;" horiz-adv-x="1167" 
d="M600 0h-33v651l-553 807h39l529 -772h2l530 772h39l-553 -807v-651zM-205 1061l101 397h34l-106 -397h-29z" />
    <glyph glyph-name="Omegatonos" unicode="&#x38f;" horiz-adv-x="1462" 
d="M1343 831q0 -225 -103 -412.5t-294 -383.5v-2h420v-33h-463v33q199 205 303.5 389t104.5 409q0 301 -158 458t-422 157t-421.5 -156.5t-157.5 -458.5q0 -225 104 -409t303 -389v-33h-463v33h420v2q-190 197 -293.5 384t-103.5 412q0 317 167 482.5t445.5 165.5t445 -165
t166.5 -483zM-43 1061l100 397h35l-106 -397h-29z" />
    <glyph glyph-name="iotadieresistonos" unicode="&#x390;" horiz-adv-x="456" 
d="M377 -6q-205 0 -205 270v776h33v-776q0 -133 44 -185t128 -52q33 0 57 10v-33q-25 -10 -57 -10zM381 1219v157h33v-157h-33zM-37 1219v157h33v-157h-33zM135 1184l86 274h35l-92 -274h-29z" />
    <glyph glyph-name="Alpha" unicode="&#x391;" horiz-adv-x="1298" 
d="M1008 578l-359 847h-2l-356 -847h717zM276 545l-229 -545h-35l615 1458h43l614 -1458h-35l-229 545h-744z" />
    <glyph glyph-name="Beta" unicode="&#x392;" horiz-adv-x="1204" 
d="M248 33h414q186 0 290 95t104 254t-108 254q-109 95 -327 95h-373v-698zM248 764h373q205 0 303 94t98 245t-100 237t-304 85h-370v-661zM1055 1114q0 -154 -81 -248q-81 -92 -224 -116v-2q152 -16 246 -112t94 -262t-114 -270t-314 -104h-447v1458h403q217 0 327 -95
t110 -249z" />
    <glyph glyph-name="Gamma" unicode="&#x393;" horiz-adv-x="935" 
d="M215 1458h711v-33h-678v-1425h-33v1458z" />
    <glyph glyph-name="uni0394" unicode="&#x394;" horiz-adv-x="1296" 
d="M1237 33l-588 1392h-2l-586 -1392h1176zM12 0l615 1458h43l614 -1458h-1272z" />
    <glyph glyph-name="Epsilon" unicode="&#x395;" horiz-adv-x="1200" 
d="M248 1425v-659h766v-33h-766v-700h829v-33h-862v1458h834v-33h-801z" />
    <glyph glyph-name="Zeta" unicode="&#x396;" horiz-adv-x="1120" 
d="M68 33h1017v-33h-1050v45l973 1378v2h-963v33h995v-45l-972 -1378v-2z" />
    <glyph glyph-name="Eta" unicode="&#x397;" horiz-adv-x="1443" 
d="M1196 0v741h-948v-741h-33v1458h33v-684h948v684h33v-1458h-33z" />
    <glyph glyph-name="Theta" unicode="&#x398;" horiz-adv-x="1437" 
d="M385 713v32h668v-32h-668zM129 729q0 -217 72.5 -379t206 -250t311.5 -88t311 88t206 250t73 379t-73 379t-206 250t-311 88t-311.5 -88t-206 -250t-72.5 -379zM1341 729q0 -227 -75.5 -396t-217 -261t-330 -92t-329.5 92t-217 261t-76 396t76 396t217 261.5t329.5 92.5
t330 -92.5t217 -261.5t75.5 -396z" />
    <glyph glyph-name="Iota" unicode="&#x399;" horiz-adv-x="462" 
d="M215 0v1458h33v-1458h-33z" />
    <glyph glyph-name="Kappa" unicode="&#x39a;" horiz-adv-x="1089" 
d="M248 754v-754h-33v1458h33v-680h2l717 680h49l-731 -692l796 -766h-49l-782 754h-2z" />
    <glyph glyph-name="Lambda" unicode="&#x39b;" horiz-adv-x="1259" 
d="M1212 0l-581 1425h-2l-582 -1425h-35l596 1458h43l596 -1458h-35z" />
    <glyph glyph-name="Mu" unicode="&#x39c;" horiz-adv-x="1738" 
d="M1491 0v1425h-2l-598 -1425h-43l-598 1425h-2v-1425h-33v1458h55l598 -1425h2l598 1425h56v-1458h-33z" />
    <glyph glyph-name="Nu" unicode="&#x39d;" horiz-adv-x="1470" 
d="M248 1427v-1427h-33v1458h53l953 -1427h2v1427h32v-1458h-53l-952 1427h-2z" />
    <glyph glyph-name="Xi" unicode="&#x39e;" horiz-adv-x="1306" 
d="M133 0v33h1041v-33h-1041zM197 733v33h913v-33h-913zM162 1425v33h983v-33h-983z" />
    <glyph glyph-name="Omicron" unicode="&#x39f;" horiz-adv-x="1437" 
d="M129 729q0 -217 72.5 -379t206 -250t311.5 -88t311 88t206 250t73 379t-73 379t-206 250t-311 88t-311.5 -88t-206 -250t-72.5 -379zM1341 729q0 -227 -75.5 -396t-217 -261t-330 -92t-329.5 92t-217 261t-76 396t76 396t217 261.5t329.5 92.5t330 -92.5t217 -261.5
t75.5 -396z" />
    <glyph glyph-name="Pi" unicode="&#x3a0;" horiz-adv-x="1423" 
d="M1176 0v1425h-928v-1425h-33v1458h993v-1458h-32z" />
    <glyph glyph-name="Rho" unicode="&#x3a1;" horiz-adv-x="1177" 
d="M248 721h432q199 0 301 97t102 255t-102 255t-301 97h-432v-704zM248 688v-688h-33v1458h465q213 0 325 -106q111 -106 111 -278t-112 -279q-112 -106 -324 -107h-432z" />
    <glyph glyph-name="Sigma" unicode="&#x3a3;" horiz-adv-x="1099" 
d="M104 1425v-2l480 -682l-500 -706v-2h981v-33h-1024v33l502 708l-480 684v33h973v-33h-932z" />
    <glyph glyph-name="Tau" unicode="&#x3a4;" horiz-adv-x="1163" 
d="M598 1425v-1425h-33v1425h-555v33h1143v-33h-555z" />
    <glyph glyph-name="Upsilon" unicode="&#x3a5;" horiz-adv-x="1167" 
d="M600 0h-33v651l-553 807h39l529 -772h2l530 772h39l-553 -807v-651z" />
    <glyph glyph-name="Phi" unicode="&#x3a6;" horiz-adv-x="1507" 
d="M1378 735.5q0 270.5 -160.5 421t-447.5 156.5v-1155q287 6 447.5 156.5t160.5 421zM129 735.5q0 -270.5 161 -421t447 -156.5v1155q-286 -6 -447 -156.5t-161 -421zM1411 735.5q0 -284.5 -170 -443.5t-471 -167v-166h-33v166q-301 8 -471 167t-170 443.5t170 443
t471 167.5v153h33v-153q301 -9 471 -167.5t170 -443z" />
    <glyph glyph-name="Chi" unicode="&#x3a7;" horiz-adv-x="1214" 
d="M1190 0h-41l-541 723h-2l-540 -723h-41l561 750l-531 708h41l510 -682h2l510 682h41l-530 -708z" />
    <glyph glyph-name="Psi" unicode="&#x3a8;" horiz-adv-x="1437" 
d="M735 0h-33v412q-219 4 -349 61t-190.5 188.5t-60.5 360.5v436h33v-436q0 -221 56.5 -344t178.5 -176t332 -58v1014h33v-1014q211 4 333 57.5t178.5 176.5t56.5 344v436h32v-436q0 -229 -60.5 -360.5t-190.5 -188.5t-349 -61v-412z" />
    <glyph glyph-name="uni03A9" unicode="&#x3a9;" horiz-adv-x="1462" 
d="M1343 831q0 -225 -103 -412.5t-294 -383.5v-2h420v-33h-463v33q199 205 303.5 389t104.5 409q0 301 -158 458t-422 157t-421.5 -156.5t-157.5 -458.5q0 -225 104 -409t303 -389v-33h-463v33h420v2q-190 197 -293.5 384t-103.5 412q0 317 167 482.5t445.5 165.5t445 -165
t166.5 -483z" />
    <glyph glyph-name="Iotadieresis" unicode="&#x3aa;" horiz-adv-x="462" 
d="M215 0v1458h33v-1458h-33zM403 1718v158h33v-158h-33zM27 1718v158h32v-158h-32z" />
    <glyph glyph-name="Upsilondieresis" unicode="&#x3ab;" horiz-adv-x="1167" 
d="M600 0h-33v651l-553 807h39l529 -772h2l530 772h39l-553 -807v-651zM756 1595v158h32v-158h-32zM379 1595v158h33v-158h-33z" />
    <glyph glyph-name="alphatonos" unicode="&#x3ac;" horiz-adv-x="1132" 
d="M131 520.5q0 -237.5 106.5 -373t285.5 -135.5t276.5 136.5t97.5 372t-97.5 371.5t-276.5 136t-285.5 -135t-106.5 -372.5zM1032 -6q-135 0 -135 183q0 97 6 145h-2q-37 -168 -132 -255t-237 -87q-201 0 -317.5 144t-116.5 396t117 396.5t317 144.5q140 0 238 -90
t133 -262h2q-4 37 -4 121t17 210h32q-20 -147 -20 -368v-490q0 -155 90 -155q39 0 61 8v-33q-23 -8 -49 -8zM510 1184l100 315h35l-106 -315h-29z" />
    <glyph glyph-name="epsilontonos" unicode="&#x3ad;" horiz-adv-x="937" 
d="M150 784q0 127 90 202t245.5 75t248.5 -80t93 -219h-32q0 125 -84 195.5t-225.5 70.5t-222.5 -65.5t-81 -178t84 -176t236 -63.5h127v-33h-127q-166 0 -260.5 -64.5t-94.5 -182.5t91.5 -185.5t249 -67.5t242.5 72t85 195h33q0 -137 -95.5 -218t-266.5 -81t-271 77.5
t-100 198.5q0 229 268 272v2q-233 51 -233 254zM473 1184l100 315h35l-106 -315h-29z" />
    <glyph glyph-name="etatonos" unicode="&#x3ae;" horiz-adv-x="1118" 
d="M203 858q-1 156 -91 156q-40 0 -61 -8v32q23 8 49 9q66 0 101 -43t35 -146q0 -41 -5 -67h2q41 129 139.5 199.5t221.5 70.5q166 0 259 -108.5t93 -319.5v-1012h-33v1012q0 197 -84 296t-235 99q-96 0 -178 -48t-131 -134t-49 -195v-651h-33v858zM514 1184l100 315h35
l-106 -315h-29z" />
    <glyph glyph-name="iotatonos" unicode="&#x3af;" horiz-adv-x="456" 
d="M377 -6q-205 0 -205 270v776h33v-776q0 -133 44 -185t128 -52q33 0 57 10v-33q-25 -10 -57 -10zM168 1184l100 315h35l-106 -315h-29z" />
    <glyph glyph-name="upsilondieresistonos" unicode="&#x3b0;" horiz-adv-x="1105" 
d="M971 522q1 -542 -391 -542q-192 0 -285.5 89t-93.5 281v473q0 115 -21.5 153t-81.5 38q-27 0 -49 -8v32q23 8 49 9q74 0 104.5 -48.5t30.5 -175.5v-475q0 -176 84 -256t252 -80q369 0 369 484q0 303 -84 544h33q84 -242 84 -518zM729 1219v157h33v-157h-33zM311 1219v157
h33v-157h-33zM483 1184l86 274h35l-92 -274h-29z" />
    <glyph glyph-name="alpha" unicode="&#x3b1;" horiz-adv-x="1132" 
d="M131 520.5q0 -237.5 106.5 -373t285.5 -135.5t276.5 136.5t97.5 372t-97.5 371.5t-276.5 136t-285.5 -135t-106.5 -372.5zM1032 -6q-135 0 -135 183q0 97 6 145h-2q-37 -168 -132 -255t-237 -87q-201 0 -317.5 144t-116.5 396t117 396.5t317 144.5q140 0 238 -90
t133 -262h2q-4 37 -4 121t17 210h32q-20 -147 -20 -368v-490q0 -155 90 -155q39 0 61 8v-33q-23 -8 -49 -8z" />
    <glyph glyph-name="beta" unicode="&#x3b2;" horiz-adv-x="1124" 
d="M219 965v-605q0 -164 95.5 -256t282.5 -92t293.5 102t106.5 292t-128 282t-392 92h-41v33h41q432 0 432 324q0 143 -85 226t-258 83t-260 -117t-87 -364zM186 965q0 514 380 514q188 0 282 -92.5t94 -239.5q0 -295 -301 -348v-2q174 -14 281.5 -110.5t107.5 -291.5
t-115.5 -305t-314.5 -110q-313 0 -385 239h-2q6 -63 6 -188v-410h-33v1344z" />
    <glyph glyph-name="gamma" unicode="&#x3b3;" horiz-adv-x="974" 
d="M489 -26q0 186 -64.5 431.5t-176.5 452.5q-49 92 -90 124t-79 32t-59 -6v32q83 25 142 -20t114 -146q100 -186 165 -406t77 -398h2q174 254 263 475t118 495h33q-31 -290 -126 -522.5t-286 -501.5v-28q0 -200 -22 -367h-33q22 167 22 353z" />
    <glyph glyph-name="delta" unicode="&#x3b4;" horiz-adv-x="1081" 
d="M131 461q0 -209 111.5 -329t298 -120t298 120t111.5 314t-89 323.5t-277 240.5q-215 -60 -334 -200t-119 -349zM455 1446q-199 0 -199 -117q0 -84 93 -143.5t220 -128.5q211 -117 312.5 -257.5t101.5 -342.5q0 -145 -55.5 -253t-154.5 -166t-232 -58t-232.5 58
t-155 165.5t-55.5 253.5q0 215 117 359.5t330 211.5v4q-123 68 -222.5 134t-99.5 163q-1 150 229 150t435 -74v-35q-203 76 -432 76z" />
    <glyph glyph-name="epsilon" unicode="&#x3b5;" horiz-adv-x="937" 
d="M150 784q0 127 90 202t245.5 75t248.5 -80t93 -219h-32q0 125 -84 195.5t-225.5 70.5t-222.5 -65.5t-81 -178t84 -176t236 -63.5h127v-33h-127q-166 0 -260.5 -64.5t-94.5 -182.5t91.5 -185.5t249 -67.5t242.5 72t85 195h33q0 -137 -95.5 -218t-266.5 -81t-271 77.5
t-100 198.5q0 229 268 272v2q-233 51 -233 254z" />
    <glyph glyph-name="zeta" unicode="&#x3b6;" horiz-adv-x="849" 
d="M139 477q0 -178 89 -270t311 -119q154 -18 213 -69.5t59 -141.5t-45 -174h-37q49 84 49 168t-50 126t-193 58q-236 29 -332.5 129.5t-96.5 292.5q0 281 169 523.5t446 422.5v2h-559v33h616v-33q-297 -184 -468 -428.5t-171 -519.5z" />
    <glyph glyph-name="eta" unicode="&#x3b7;" horiz-adv-x="1118" 
d="M203 858q-1 156 -91 156q-40 0 -61 -8v32q23 8 49 9q66 0 101 -43t35 -146q0 -41 -5 -67h2q41 129 139.5 199.5t221.5 70.5q166 0 259 -108.5t93 -319.5v-1012h-33v1012q0 197 -84 296t-235 99q-96 0 -178 -48t-131 -134t-49 -195v-651h-33v858z" />
    <glyph glyph-name="theta" unicode="&#x3b8;" horiz-adv-x="1130" 
d="M563 12q199 0 311.5 186.5t116.5 514.5h-852q4 -444 149.5 -572.5t274.5 -128.5zM563 1446q-129 0 -274.5 -128.5t-149.5 -572.5h852q-4 328 -116.5 514.5t-311.5 186.5zM1024 729.5q0 -231.5 -55.5 -400.5t-159.5 -259t-245.5 -90t-244 90t-158 259t-55.5 400.5
t55.5 400t158 259t244 90.5t245.5 -90.5t159.5 -259t55.5 -400z" />
    <glyph glyph-name="iota" unicode="&#x3b9;" horiz-adv-x="456" 
d="M377 -6q-205 0 -205 270v776h33v-776q0 -133 44 -185t128 -52q33 0 57 10v-33q-25 -10 -57 -10z" />
    <glyph glyph-name="kappa" unicode="&#x3ba;" horiz-adv-x="952" 
d="M219 0h-33v1040h33v-567h2l271 301q100 111 162.5 167t116.5 79.5t95 23.5t66 -4v-32q-26 4 -62 4t-107 -31.5t-247 -226.5l-168 -187l600 -567h-49l-573 543l-107 -119v-424z" />
    <glyph glyph-name="lambda" unicode="&#x3bb;" horiz-adv-x="1058" 
d="M1010 29q12 0 28 4v-33q-16 -4 -28 -4q-66 0 -112 46t-99 185l-295 770h-2l-463 -997h-35l483 1042q-59 156 -106 238t-98.5 117t-115.5 35t-99 -15v33q34 14 104 14t126 -36.5t107.5 -123.5t112.5 -251l313 -817q47 -123 87 -165t92 -42z" />
    <glyph glyph-name="uni03BC" unicode="&#x3bc;" horiz-adv-x="1120" 
d="M539 -20q-267 0 -324 256h-2q6 -80 6 -236v-379h-33v1419h33v-632q0 -197 84 -296.5t236 -99.5q96 0 176 47t128 134.5t48 203.5v643h33v-817q0 -117 22.5 -156.5t79.5 -39.5q27 0 49 8v-33q-23 -8 -49 -8q-70 0 -102.5 46t-32.5 165q0 20 2 39h-2q-35 -123 -132 -193.5
t-220 -70.5z" />
    <glyph glyph-name="nu" unicode="&#x3bd;" horiz-adv-x="968" 
d="M895 924q0 76 -6 116h33q6 -39 6 -120t-44 -245t-333 -675h-47l-275 799q-43 123 -80.5 168t-95.5 45q-20 0 -33 -6v32q12 6 33 6q68 0 116 -52t91 -181l268 -780h2q277 487 321 652t44 241z" />
    <glyph glyph-name="xi" unicode="&#x3be;" horiz-adv-x="878" 
d="M713 1425q-236 0 -368 -90t-132 -254q0 -133 105.5 -202.5t269.5 -69.5h160v-33h-123q-248 0 -367 -97t-119 -263q0 -100 60 -198.5t372 -129.5q154 -16 213.5 -67.5t59.5 -142.5t-45 -175h-37q49 84 49 168t-51 127t-193 57q-252 25 -356.5 111t-104.5 242t87.5 254
t263.5 129v2q-131 25 -204 100t-73 199t83 213.5t249 124.5v2q-63 -6 -186 -7h-185v33h686v-33h-114z" />
    <glyph glyph-name="omicron" unicode="&#x3bf;" horiz-adv-x="1081" 
d="M131 520.5q0 -237.5 108.5 -373t301 -135.5t301 135.5t108.5 373t-108.5 372.5t-301 135t-301 -135t-108.5 -372.5zM983 520q0 -252 -117.5 -396t-324.5 -144t-325 144t-118 396t118 396.5t325 144.5t324.5 -144.5t117.5 -396.5z" />
    <glyph glyph-name="pi" unicode="&#x3c0;" horiz-adv-x="1280" 
d="M952 1008v-744q0 -133 44 -185t128 -52q39 0 66 10v-33q-27 -10 -66 -10q-98 0 -151 62.5t-53 207.5v744h-615v-1008h-33v1008h-241v32h1208v-32h-287z" />
    <glyph glyph-name="rho" unicode="&#x3c1;" 
d="M205 520.5q0 -235.5 97 -372t276 -136.5t286 135.5t107 373t-106.5 372.5t-286.5 135t-276.5 -136t-96.5 -371.5zM1004 520q0 -252 -117 -396t-318 -144q-150 0 -243 93t-125 244h-2q6 -90 6 -260v-436h-33v899q0 250 107 395.5t299 145.5t309 -144.5t117 -396.5z" />
    <glyph glyph-name="sigma1" unicode="&#x3c2;" horiz-adv-x="952" 
d="M511 1028q-171 0 -275.5 -122t-104.5 -331t103.5 -319.5t316.5 -134.5q139 -16 194.5 -76.5t55.5 -158.5t-45 -183h-37q49 84 49 175t-46 143.5t-175 66.5q-449 51 -449 477q0 233 114 364.5t298 131.5t285.5 -95.5t115.5 -256.5h-32q-12 147 -104.5 233t-263.5 86z" />
    <glyph glyph-name="sigma" unicode="&#x3c3;" horiz-adv-x="1136" 
d="M131 509.5q0 -233.5 108.5 -365.5t300.5 -132t301 132t109 365.5t-109 366t-301 132.5t-300.5 -132.5t-108.5 -366zM901 1008q-145 0 -215 6v-4q147 -47 222 -177.5t75 -322.5q0 -248 -118.5 -389t-324.5 -141t-324 141t-118 389t118 389t323 141h567v-32h-205z" />
    <glyph glyph-name="tau" unicode="&#x3c4;" horiz-adv-x="954" 
d="M649 -6q-205 0 -205 270v744h-413v32h893v-32h-447v-744q0 -133 44 -185t128 -52q39 0 66 10v-33q-27 -10 -66 -10z" />
    <glyph glyph-name="upsilon" unicode="&#x3c5;" horiz-adv-x="1105" 
d="M971 522q1 -542 -391 -542q-192 0 -285.5 89t-93.5 281v473q0 115 -21.5 153t-81.5 38q-27 0 -49 -8v32q23 8 49 9q74 0 104.5 -48.5t30.5 -175.5v-475q0 -176 84 -256t252 -80q369 0 369 484q0 303 -84 544h33q84 -242 84 -518z" />
    <glyph glyph-name="phi" unicode="&#x3c6;" horiz-adv-x="1417" 
d="M1286 520.5q0 235.5 -149.5 370.5t-413.5 137v-1016q264 2 413.5 137.5t149.5 371zM131 520.5q0 -235.5 148.5 -370t410.5 -138.5v1016q-262 -4 -410.5 -138t-148.5 -369.5zM723 -379h-33v359q-182 2 -315 67.5t-205 187t-72 285.5t72 286t205 187.5t315 67.5v295h33
v-295q279 -2 437.5 -146.5t158.5 -394.5t-159 -394t-437 -146v-359z" />
    <glyph glyph-name="chi" unicode="&#x3c7;" horiz-adv-x="1077" 
d="M962 -354q48 0 95 10v-33q-47 -10 -97 -10t-108 26.5t-131 206.5l-182 455h-2l-447 -680h-39l471 717l-192 479q-64 158 -114 181.5t-104 23.5t-92 -14v32q37 14 109 14t126 -46.5t105 -178.5l185 -458h2l440 669h39l-465 -708l191 -473q68 -166 115 -189.5t95 -23.5z
" />
    <glyph glyph-name="psi" unicode="&#x3c8;" horiz-adv-x="1413" 
d="M733 -379h-33v359q-262 4 -395 107t-133 323v630h33v-630q0 -205 123 -299.5t372 -98.5v1344h33v-1344q506 6 506 484q0 303 -84 544h33q84 -242 84 -544q0 -248 -133 -381t-406 -135v-359z" />
    <glyph glyph-name="omega" unicode="&#x3c9;" horiz-adv-x="1466" 
d="M1323 459q0 -231 -80 -355t-242 -124q-217 0 -266 206h-4q-49 -207 -266 -206q-322 0 -322 479q0 317 133 581h35q-135 -264 -135 -581q0 -446 289 -447q252 0 252 305v451h33v-451q0 -305 251 -305q289 0 289 447q0 317 -135 581h35q133 -264 133 -581z" />
    <glyph glyph-name="iotadieresis" unicode="&#x3ca;" horiz-adv-x="456" 
d="M377 -6q-205 0 -205 270v776h33v-776q0 -133 44 -185t128 -52q33 0 57 10v-33q-25 -10 -57 -10zM360 1300v158h33v-158h-33zM-16 1300v158h32v-158h-32z" />
    <glyph glyph-name="upsilondieresis" unicode="&#x3cb;" horiz-adv-x="1105" 
d="M971 522q1 -542 -391 -542q-192 0 -285.5 89t-93.5 281v473q0 115 -21.5 153t-81.5 38q-27 0 -49 -8v32q23 8 49 9q74 0 104.5 -48.5t30.5 -175.5v-475q0 -176 84 -256t252 -80q369 0 369 484q0 303 -84 544h33q84 -242 84 -518zM709 1300v158h32v-158h-32zM332 1300v158
h33v-158h-33z" />
    <glyph glyph-name="omicrontonos" unicode="&#x3cc;" horiz-adv-x="1081" 
d="M131 520.5q0 -237.5 108.5 -373t301 -135.5t301 135.5t108.5 373t-108.5 372.5t-301 135t-301 -135t-108.5 -372.5zM983 520q0 -252 -117.5 -396t-324.5 -144t-325 144t-118 396t118 396.5t325 144.5t324.5 -144.5t117.5 -396.5zM520 1184l101 315h34l-106 -315h-29z" />
    <glyph glyph-name="upsilontonos" unicode="&#x3cd;" horiz-adv-x="1105" 
d="M971 522q1 -542 -391 -542q-192 0 -285.5 89t-93.5 281v473q0 115 -21.5 153t-81.5 38q-27 0 -49 -8v32q23 8 49 9q74 0 104.5 -48.5t30.5 -175.5v-475q0 -176 84 -256t252 -80q369 0 369 484q0 303 -84 544h33q84 -242 84 -518zM516 1184l100 315h35l-106 -315h-29z" />
    <glyph glyph-name="omegatonos" unicode="&#x3ce;" horiz-adv-x="1466" 
d="M1323 459q0 -231 -80 -355t-242 -124q-217 0 -266 206h-4q-49 -207 -266 -206q-322 0 -322 479q0 317 133 581h35q-135 -264 -135 -581q0 -446 289 -447q252 0 252 305v451h33v-451q0 -305 251 -305q289 0 289 447q0 317 -135 581h35q133 -264 133 -581zM713 1184
l100 315h35l-107 -315h-28z" />
    <glyph glyph-name="uni0400" unicode="&#x400;" horiz-adv-x="1200" 
d="M248 1425v-659h766v-33h-766v-700h829v-33h-862v1458h834v-33h-801zM748 1556h-39l-226 259h45z" />
    <glyph glyph-name="uni0401" unicode="&#x401;" horiz-adv-x="1200" 
d="M248 1425v-659h766v-33h-766v-700h829v-33h-862v1458h834v-33h-801zM805 1595v158h33v-158h-33zM428 1595v158h33v-158h-33z" />
    <glyph glyph-name="uni0402" unicode="&#x402;" horiz-adv-x="1505" 
d="M598 1425v-626q170 98 389 98t338 -117.5t119 -333.5t-124 -338t-331 -122q-88 0 -160 14v33q72 -14 160 -15q193 0 307.5 113t114.5 315t-109.5 310t-324.5 108t-379 -102v-762h-33v1425h-555v33h1143v-33h-555z" />
    <glyph glyph-name="uni0403" unicode="&#x403;" horiz-adv-x="935" 
d="M215 1458h711v-33h-678v-1425h-33v1458zM444 1556l220 259h45l-226 -259h-39z" />
    <glyph glyph-name="uni0404" unicode="&#x404;" horiz-adv-x="1351" 
d="M680 -20q-168 0 -303 92t-208 261t-73 396t75 396t213 261.5t309.5 92.5t288 -66.5t181 -178.5t72.5 -249h-33q-10 129 -69.5 233.5t-169 166t-270 61.5t-290 -86t-201 -244t-73.5 -371h756v-32h-756q2 -213 71.5 -371t195.5 -244t284.5 -86t270.5 59.5t178.5 165
t80.5 240.5h33q-16 -145 -86 -258t-189.5 -176t-287.5 -63z" />
    <glyph glyph-name="uni0405" unicode="&#x405;" horiz-adv-x="1179" 
d="M1022 993h-33q0 453 -434 453q-180 0 -285.5 -91t-105.5 -243q0 -104 43 -168.5t130 -104.5t252 -80t260 -82t146.5 -117t51.5 -206q0 -174 -122 -274t-346.5 -100t-348.5 126.5t-124 380.5h33q0 -475 453 -475q199 0 310.5 91.5t111.5 250.5q0 123 -48 191.5
t-135.5 104.5t-254.5 77t-259 86t-139 115.5t-47 183.5q0 166 115.5 266.5t327.5 100.5t330 -122t118 -364z" />
    <glyph glyph-name="uni0406" unicode="&#x406;" horiz-adv-x="462" 
d="M215 0v1458h33v-1458h-33z" />
    <glyph glyph-name="uni0407" unicode="&#x407;" horiz-adv-x="462" 
d="M215 0v1458h33v-1458h-33zM403 1595v158h33v-158h-33zM27 1595v158h32v-158h-32z" />
    <glyph glyph-name="uni0408" unicode="&#x408;" horiz-adv-x="620" 
d="M111 -8q-45 0 -80 10v33q41 -10 80 -10q131 0 201.5 82.5t70.5 242.5v1108h33v-1108q0 -174 -80 -266t-225 -92z" />
    <glyph glyph-name="uni0409" unicode="&#x409;" horiz-adv-x="2072" 
d="M1143 33h432q199 0 301 97t102 255t-102 255t-301 97h-432v-704zM1575 770q213 0 324.5 -106.5t111.5 -278.5t-111.5 -278.5t-324.5 -106.5h-465v1425h-694q-10 -612 -44 -913t-102.5 -408.5t-201.5 -107.5q-25 0 -41 4v33q16 -4 41 -4q121 0 182 105.5t92 405.5t43 918
h758v-688h432z" />
    <glyph glyph-name="uni040A" unicode="&#x40a;" horiz-adv-x="2158" 
d="M2064 385q0 158 -102 255t-301 97h-432v-704h432q199 0 301 97t102 255zM2097 385q0 -172 -111.5 -278.5t-324.5 -106.5h-465v737h-948v-737h-33v1458h33v-688h948v688h33v-688h432q213 0 324.5 -106.5t111.5 -278.5z" />
    <glyph glyph-name="uni040B" unicode="&#x40b;" horiz-adv-x="1492" 
d="M1411 471v-471h-33v471q0 178 -97 273.5t-301 95.5t-382 -64v-776h-33v1425h-555v33h1143v-33h-555v-614q184 61 392 61t314.5 -104t106.5 -297z" />
    <glyph glyph-name="uni040C" unicode="&#x40c;" horiz-adv-x="1089" 
d="M248 754v-754h-33v1458h33v-680h2l717 680h49l-731 -692l796 -766h-49l-782 754h-2zM475 1556l219 259h45l-225 -259h-39z" />
    <glyph glyph-name="uni040D" unicode="&#x40d;" horiz-adv-x="1470" 
d="M248 1458v-1427h2l952 1427h53v-1458h-32v1427h-2l-953 -1427h-53v1458h33zM850 1556h-39l-225 259h45z" />
    <glyph glyph-name="uni040E" unicode="&#x40e;" horiz-adv-x="1236" 
d="M279 -12q-59 0 -101 12v33q41 -12 120 -12.5t151.5 58t146.5 204.5l-580 1175h37l561 -1136h2q143 291 218 434q31 66 71 145l279 557h37l-596 -1190q-76 -151 -157 -215.5t-189 -64.5zM618.5 1554q-129.5 0 -206 69t-88.5 192h32q12 -111 79 -169.5t183.5 -58.5
t183 58.5t79.5 169.5h32q-12 -123 -88.5 -192t-206 -69z" />
    <glyph glyph-name="uni040F" unicode="&#x40f;" horiz-adv-x="1431" 
d="M733 0v-328h-33v328h-485v1458h33v-1425h936v1425h33v-1458h-484z" />
    <glyph glyph-name="uni0410" unicode="&#x410;" horiz-adv-x="1298" 
d="M1008 578l-359 847h-2l-356 -847h717zM276 545l-229 -545h-35l615 1458h43l614 -1458h-35l-229 545h-744z" />
    <glyph glyph-name="uni0411" unicode="&#x411;" horiz-adv-x="1187" 
d="M248 33h414q195 0 303 98t108 268t-108.5 268.5t-302.5 98.5h-414v-733zM248 1425v-626h414q209 0 326.5 -107.5t117.5 -292t-118 -292t-326 -107.5h-447v1458h813v-33h-780z" />
    <glyph glyph-name="uni0412" unicode="&#x412;" horiz-adv-x="1204" 
d="M248 33h414q186 0 290 95t104 254t-108 254q-109 95 -327 95h-373v-698zM248 764h373q205 0 303 94t98 245t-100 237t-304 85h-370v-661zM1055 1114q0 -154 -81 -248q-81 -92 -224 -116v-2q152 -16 246 -112t94 -262t-114 -270t-314 -104h-447v1458h403q217 0 327 -95
t110 -249z" />
    <glyph glyph-name="uni0413" unicode="&#x413;" horiz-adv-x="935" 
d="M215 1458h711v-33h-678v-1425h-33v1458z" />
    <glyph glyph-name="uni0414" unicode="&#x414;" horiz-adv-x="1370" 
d="M1122 33v1392h-712q-8 -631 -58.5 -946t-130.5 -446h901zM1290 -328h-33v328h-1185v-328h-33v361h141q86 123 136.5 439t60.5 986h778v-1425h135v-361z" />
    <glyph glyph-name="uni0415" unicode="&#x415;" horiz-adv-x="1200" 
d="M248 1425v-659h766v-33h-766v-700h829v-33h-862v1458h834v-33h-801z" />
    <glyph glyph-name="uni0416" unicode="&#x416;" horiz-adv-x="1626" 
d="M829 762v-762h-32v762h-2l-740 -762h-47l748 766l-688 692h47l680 -688h2v688h32v-688h2l680 688h48l-689 -692l748 -766h-47l-740 762h-2z" />
    <glyph glyph-name="uni0417" unicode="&#x417;" horiz-adv-x="1185" 
d="M1034 1100q0 -289 -323 -357v-2q162 -27 261 -118t99 -261t-135.5 -276t-369.5 -106t-364 111.5t-130 295.5h32q0 -172 121 -273.5t341 -101.5t346 97.5t126 264.5t-129 259t-354 92h-154v33h146q219 0 336.5 91t117.5 250t-119.5 251t-325.5 92t-325.5 -98.5
t-119.5 -274.5h-33q0 190 129 298t348 108t349 -101.5t130 -273.5z" />
    <glyph glyph-name="uni0418" unicode="&#x418;" horiz-adv-x="1470" 
d="M248 1458v-1427h2l952 1427h53v-1458h-32v1427h-2l-953 -1427h-53v1458h33z" />
    <glyph glyph-name="uni0419" unicode="&#x419;" horiz-adv-x="1470" 
d="M248 1458v-1427h2l952 1427h53v-1458h-32v1427h-2l-953 -1427h-53v1458h33zM735 1554q-129 0 -205.5 69t-89.5 192h33q12 -111 78.5 -169.5t183.5 -58.5t183.5 58.5t78.5 169.5h33q-12 -123 -89 -192t-206 -69z" />
    <glyph glyph-name="uni041A" unicode="&#x41a;" horiz-adv-x="1089" 
d="M248 754v-754h-33v1458h33v-680h2l717 680h49l-731 -692l796 -766h-49l-782 754h-2z" />
    <glyph glyph-name="uni041B" unicode="&#x41b;" horiz-adv-x="1357" 
d="M1110 0v1425h-694q-10 -612 -44 -913t-102.5 -408.5t-201.5 -107.5q-25 0 -41 4v33q16 -4 41 -4q121 0 182 105.5t92 405.5t43 918h758v-1458h-33z" />
    <glyph glyph-name="uni041C" unicode="&#x41c;" horiz-adv-x="1738" 
d="M1491 0v1425h-2l-598 -1425h-43l-598 1425h-2v-1425h-33v1458h55l598 -1425h2l598 1425h56v-1458h-33z" />
    <glyph glyph-name="uni041D" unicode="&#x41d;" horiz-adv-x="1443" 
d="M1196 0v741h-948v-741h-33v1458h33v-684h948v684h33v-1458h-33z" />
    <glyph glyph-name="uni041E" unicode="&#x41e;" horiz-adv-x="1437" 
d="M129 729q0 -217 72.5 -379t206 -250t311.5 -88t311 88t206 250t73 379t-73 379t-206 250t-311 88t-311.5 -88t-206 -250t-72.5 -379zM1341 729q0 -227 -75.5 -396t-217 -261t-330 -92t-329.5 92t-217 261t-76 396t76 396t217 261.5t329.5 92.5t330 -92.5t217 -261.5
t75.5 -396z" />
    <glyph glyph-name="uni041F" unicode="&#x41f;" horiz-adv-x="1423" 
d="M1176 0v1425h-928v-1425h-33v1458h993v-1458h-32z" />
    <glyph glyph-name="uni0420" unicode="&#x420;" horiz-adv-x="1177" 
d="M248 721h432q199 0 301 97t102 255t-102 255t-301 97h-432v-704zM248 688v-688h-33v1458h465q213 0 325 -106q111 -106 111 -278t-112 -279q-112 -106 -324 -107h-432z" />
    <glyph glyph-name="uni0421" unicode="&#x421;" horiz-adv-x="1351" 
d="M692.5 1446q-161.5 0 -292 -88t-201 -250t-70.5 -379t68.5 -379t195.5 -250t286.5 -88t271.5 59.5t178.5 165t80.5 240.5h33q-16 -145 -86 -258t-189.5 -176t-287.5 -63t-303 92t-208 261t-73 396t75 396t213 261.5t309 92.5t288 -66.5t181.5 -178.5t72.5 -249h-33
q-10 129 -69.5 233.5t-169 166t-271 61.5z" />
    <glyph glyph-name="uni0422" unicode="&#x422;" horiz-adv-x="1163" 
d="M598 1425v-1425h-33v1425h-555v33h1143v-33h-555z" />
    <glyph glyph-name="uni0423" unicode="&#x423;" horiz-adv-x="1236" 
d="M279 -12q-59 0 -101 12v33q41 -12 120 -12.5t151.5 58t146.5 204.5l-580 1175h37l561 -1136h2q143 291 218 434q31 66 71 145l279 557h37l-596 -1190q-76 -151 -157 -215.5t-189 -64.5z" />
    <glyph glyph-name="uni0424" unicode="&#x424;" horiz-adv-x="1585" 
d="M1460 729q0 172 -80 301t-226 199.5t-345 73.5v-1147q199 2 345 72.5t226 199.5t80 301zM125 729q0 -172 80 -301t226.5 -199.5t344.5 -72.5v1147q-199 -2 -345 -73t-226 -200t-80 -301zM809 -41h-33v164q-209 2 -363.5 76.5t-237.5 211t-83 318.5t83 318.5t237.5 211
t363.5 76.5v164h33v-164q209 -2 363.5 -76.5t237.5 -211t83 -318.5t-83 -318.5t-237.5 -211t-363.5 -76.5v-164z" />
    <glyph glyph-name="uni0425" unicode="&#x425;" horiz-adv-x="1214" 
d="M1190 0h-41l-541 723h-2l-540 -723h-41l561 750l-531 708h41l510 -682h2l510 682h41l-530 -708z" />
    <glyph glyph-name="uni0426" unicode="&#x426;" horiz-adv-x="1431" 
d="M1352 33v-361h-33v328h-1104v1458h33v-1425h936v1425h33v-1425h135z" />
    <glyph glyph-name="uni0427" unicode="&#x427;" horiz-adv-x="1204" 
d="M547 664q217 0 409 63v731h33v-1458h-33v692q-203 -61 -422 -61q-218 0 -335 104.5t-117 296.5v426h33v-426q0 -178 107.5 -273t324.5 -95z" />
    <glyph glyph-name="uni0428" unicode="&#x428;" horiz-adv-x="2031" 
d="M215 0v1458h33v-1425h751v1425h33v-1425h752v1425h33v-1458h-1602z" />
    <glyph glyph-name="uni0429" unicode="&#x429;" horiz-adv-x="2031" 
d="M1952 33v-361h-33v328h-1704v1458h33v-1425h751v1425h33v-1425h752v1425h33v-1425h135z" />
    <glyph glyph-name="uni042A" unicode="&#x42a;" horiz-adv-x="1466" 
d="M537 33h432q190 0 296.5 91t106.5 254t-101.5 260t-301.5 97h-432v-702zM969 768q213 0 324.5 -106.5t111.5 -282.5t-115.5 -277.5t-320.5 -101.5h-465v1425h-494v33h527v-690h432z" />
    <glyph glyph-name="uni042B" unicode="&#x42b;" horiz-adv-x="1640" 
d="M1083 385q0 158 -102 255t-301 97h-432v-704h432q199 0 301 97t102 255zM1393 0v1458h32v-1458h-32zM215 1458h33v-688h432q213 0 324.5 -106.5t111.5 -278.5t-111.5 -278.5t-324.5 -106.5h-465v1458z" />
    <glyph glyph-name="uni042C" unicode="&#x42c;" horiz-adv-x="1177" 
d="M1083 385q0 158 -102 255t-301 97h-432v-704h432q199 0 301 97t102 255zM215 1458h33v-688h432q213 0 324.5 -106.5t111.5 -278.5t-111.5 -278.5t-324.5 -106.5h-465v1458z" />
    <glyph glyph-name="uni042D" unicode="&#x42d;" horiz-adv-x="1351" 
d="M1255 729q0 -227 -72.5 -396t-207.5 -261t-303.5 -92t-288 63t-189 176t-85.5 258h32q14 -135 81 -240.5t178.5 -165t270 -59.5t284.5 86t196 244t72 371h-756v32h756q-2 213 -74 371t-201 244t-289.5 86t-270 -61.5t-169 -166t-69.5 -233.5h-33q8 137 72.5 249
t181 178.5t287.5 66.5t309.5 -92.5t213 -261.5t74.5 -396z" />
    <glyph glyph-name="uni042E" unicode="&#x42e;" horiz-adv-x="1839" 
d="M1710 729q0 217 -68.5 379t-194.5 250t-296 88t-297 -88t-194.5 -250t-67.5 -379t67.5 -379t194.5 -250t297 -88t296 88t194.5 250t68.5 379zM1743 729q0 -227 -73 -396t-207 -261t-312 -92t-310 90t-206 256t-76 387h-311v-713h-33v1458h33v-713h311q2 221 76 387
t206 256.5t310 90.5t312 -92.5t207 -261.5t73 -396z" />
    <glyph glyph-name="uni042F" unicode="&#x42f;" horiz-adv-x="1189" 
d="M575 1425q-219 0 -328.5 -90t-109.5 -249t110.5 -256t327.5 -97h367v692h-367zM975 0h-33v700h-367q-66 0 -131 11l-383 -711h-36l387 717q-154 35 -231 132t-77 230q0 180 119 279.5t352 99.5h400v-1458z" />
    <glyph glyph-name="uni0430" unicode="&#x430;" horiz-adv-x="1011" 
d="M117 263q0 -114 84 -182.5t223 -68.5q182 0 285 117q57 66 78.5 130.5t21.5 189.5v133q-230 -27 -386.5 -50.5t-231 -89t-74.5 -179.5zM842 682v-449q0 -131 18 -233h-33q-14 104 -14 170t2 88h-2q-41 -129 -143.5 -203.5t-251 -74.5t-241.5 77.5t-93 205.5t83 202
t266 101.5t376 47.5v68q0 176 -84 261t-234.5 85t-235.5 -82t-95 -219h-33q10 154 106.5 244t259 90t256 -94.5t93.5 -284.5z" />
    <glyph glyph-name="uni0431" unicode="&#x431;" 
d="M152 522q0 -230 108.5 -370t301 -140t301 131t108.5 365t-113.5 367t-315.5 133t-296 -128t-94 -358zM538 1040q150 0 252.5 -63.5t158 -183t55.5 -283.5q0 -248 -118 -389t-325 -141t-324.5 150.5t-117.5 410.5q0 332 52 515t161.5 265t298.5 104l49 7q215 25 291 47
v-33q-76 -22 -287 -47l-49 -6q-174 -20 -269.5 -89t-141.5 -196t-72 -352h2q39 129 136.5 206.5t247.5 77.5z" />
    <glyph glyph-name="uni0432" unicode="&#x432;" horiz-adv-x="997" 
d="M219 33h342q137 0 213 64.5t76 176.5t-79 177t-241 65h-311v-483zM219 549h311q150 0 222.5 62.5t72.5 168.5t-73.5 167t-221.5 61h-311v-459zM858 788q0 -110 -58.5 -172.5t-160.5 -80.5v-3q109 -12 176.5 -80.5t67.5 -186.5t-85 -191.5t-237 -73.5h-375v1040h344
q162 0 245 -71t83 -181z" />
    <glyph glyph-name="uni0433" unicode="&#x433;" horiz-adv-x="770" 
d="M219 1008v-1008h-33v1040h553v-32h-520z" />
    <glyph glyph-name="uni0434" unicode="&#x434;" horiz-adv-x="1067" 
d="M848 33v975h-512q-16 -438 -54 -659.5t-96 -315.5h662zM1016 -328h-33v328h-920v-328h-32v361h114q63 86 103.5 307t56.5 700h576v-1007h135v-361z" />
    <glyph glyph-name="uni0435" unicode="&#x435;" horiz-adv-x="1054" 
d="M924 563q0 145 -51.5 251t-141.5 160t-205 54q-180 0 -285.5 -128t-109.5 -337h793zM557.5 -20q-147.5 0 -249 68.5t-156 195.5t-54.5 291t52.5 281.5t149.5 181t226 63.5q168 0 280 -101.5t140 -275.5q10 -61 10 -154h-825q0 -156 50 -272.5t143.5 -181t229.5 -64.5
t235.5 80t117.5 213h35q-23 -150 -130 -237.5t-254.5 -87.5z" />
    <glyph glyph-name="uni0436" unicode="&#x436;" horiz-adv-x="1249" 
d="M641 563v-563h-33v563h-2l-565 -563h-47l569 565l-516 475h49l510 -471h2v471h33v-471h2l510 471h49l-516 -475l569 -565h-47l-565 563h-2z" />
    <glyph glyph-name="uni0437" unicode="&#x437;" horiz-adv-x="937" 
d="M559 528q256 -50 256 -272q0 -121 -100.5 -198.5t-271.5 -77.5t-266 80.5t-95 218.5h33q0 -123 84.5 -195t242.5 -72t249 67.5t91 185.5t-94 182.5t-260 64.5h-127v33h127q152 0 236 63.5t84 176t-81 178t-223 65.5t-225.5 -70.5t-83.5 -195.5h-33q0 139 93 219t249 80
t246 -75t90 -202q0 -201 -221 -254v-2z" />
    <glyph glyph-name="uni0438" unicode="&#x438;" horiz-adv-x="1150" 
d="M932 0v1008h-2l-690 -1008h-54v1040h33v-1007h2l690 1007h54v-1040h-33z" />
    <glyph glyph-name="uni0439" unicode="&#x439;" horiz-adv-x="1150" 
d="M932 0v1008h-2l-690 -1008h-54v1040h33v-1007h2l690 1007h54v-1040h-33zM575.5 1198q-129.5 0 -206 68.5t-88.5 191.5h32q12 -111 79 -169t183.5 -58t183 58.5t79.5 168.5h32q-12 -123 -88.5 -191.5t-206 -68.5z" />
    <glyph glyph-name="uni043A" unicode="&#x43a;" horiz-adv-x="927" 
d="M219 555v-555h-33v1040h33v-462h2l576 462h51l-590 -475l649 -565h-49l-637 555h-2z" />
    <glyph glyph-name="uni043B" unicode="&#x43b;" horiz-adv-x="1060" 
d="M842 0v1008h-512q-4 -428 -32 -644.5t-83 -292t-156 -75.5q-20 0 -41 4v33q20 -4 41 -4q90 0 138.5 74.5t73 288.5t28.5 648h575v-1040h-32z" />
    <glyph glyph-name="uni043C" unicode="&#x43c;" horiz-adv-x="1357" 
d="M1139 0v1008h-2l-437 -1008h-43l-436 1008h-2v-1008h-33v1040h58l434 -1007h2l434 1007h57v-1040h-32z" />
    <glyph glyph-name="uni043D" unicode="&#x43d;" horiz-adv-x="1128" 
d="M909 0v512h-690v-512h-33v1040h33v-495h690v495h33v-1040h-33z" />
    <glyph glyph-name="uni043E" unicode="&#x43e;" horiz-adv-x="1081" 
d="M131 520.5q0 -237.5 108.5 -373t301 -135.5t301 135.5t108.5 373t-108.5 372.5t-301 135t-301 -135t-108.5 -372.5zM983 520q0 -252 -117.5 -396t-324.5 -144t-325 144t-118 396t118 396.5t325 144.5t324.5 -144.5t117.5 -396.5z" />
    <glyph glyph-name="uni043F" unicode="&#x43f;" horiz-adv-x="1116" 
d="M897 0v1008h-678v-1008h-33v1040h744v-1040h-33z" />
    <glyph glyph-name="uni0440" unicode="&#x440;" horiz-adv-x="1116" 
d="M217 520q0 -236 98 -372q99 -136 277 -136t286 135t107 373q0 238 -107 373q-108 135 -286 135t-277 -136q-98 -136 -98 -372zM1018 520q0 -252 -117 -396t-317 -144q-150 0 -243 93t-126 244h-2q6 -90 6 -260v-436h-33v1419h33v-57q0 -170 -6 -260h2q33 152 126 245
t243 93q200 -1 317 -145t117 -396z" />
    <glyph glyph-name="uni0441" unicode="&#x441;" horiz-adv-x="1009" 
d="M532 1028q-188 0 -294.5 -134t-106.5 -373.5t106.5 -374t294.5 -134.5q147 0 243.5 90.5t111.5 239.5h33q-14 -164 -120 -263t-268 -99q-203 0 -318.5 143t-115.5 397t116 397.5t318 143.5q162 0 267.5 -97.5t120.5 -254.5h-33q-12 143 -109.5 231t-245.5 88z" />
    <glyph glyph-name="uni0442" unicode="&#x442;" horiz-adv-x="884" 
d="M459 1008v-1008h-33v1008h-410v32h852v-32h-409z" />
    <glyph glyph-name="uni0443" unicode="&#x443;" horiz-adv-x="882" 
d="M106 -387q-64 0 -96 14v33q31 -14 91.5 -14t108.5 28q97 56 206 324l-412 1042h35l393 -995h2l410 995h35l-433 -1052q-112 -284 -220 -344q-56 -30 -120 -31z" />
    <glyph glyph-name="uni0444" unicode="&#x444;" horiz-adv-x="1482" 
d="M1352 520.5q0 237.5 -99.5 372.5t-273.5 135q-131 0 -221 -104v-807q90 -104 221 -105q174 0 273.5 135.5t99.5 373zM131 520.5q0 -237.5 99.5 -373t273.5 -135.5q133 0 221 105v807q-88 104 -221 104q-174 0 -273.5 -135t-99.5 -372.5zM979 1061q188 0 296.5 -144.5
t108.5 -396.5t-108.5 -396t-296.5 -144q-129 0 -221 96v-455h-33v455q-92 -96 -221 -96q-188 0 -297 144t-109 396t108.5 396.5t297.5 144.5q129 0 221 -96v493h33v-493q92 96 221 96z" />
    <glyph glyph-name="uni0445" unicode="&#x445;" horiz-adv-x="901" 
d="M893 0h-41l-399 514h-2l-402 -514h-41l424 541l-389 499h41l367 -473h2l364 473h41l-387 -499z" />
    <glyph glyph-name="uni0446" unicode="&#x446;" horiz-adv-x="1116" 
d="M1065 33v-361h-33v328h-846v1040h33v-1007h678v1007h33v-1007h135z" />
    <glyph glyph-name="uni0447" unicode="&#x447;" horiz-adv-x="950" 
d="M94 737q0 -266 328 -266q166 0 309 51v518h33v-1040h-33v487q-147 -49 -318 -49t-261.5 78t-90.5 221v303h33v-303z" />
    <glyph glyph-name="uni0448" unicode="&#x448;" horiz-adv-x="1662" 
d="M186 0v1040h33v-1007h596v1007h33v-1007h596v1007h33v-1040h-1291z" />
    <glyph glyph-name="uni0449" unicode="&#x449;" horiz-adv-x="1662" 
d="M1612 33v-361h-33v328h-1393v1040h33v-1007h596v1007h33v-1007h596v1007h33v-1007h135z" />
    <glyph glyph-name="uni044A" unicode="&#x44a;" horiz-adv-x="1122" 
d="M397 33h293q162 0 239 61.5t77 192.5t-77 192.5t-239 61.5h-293v-508zM690 573q348 0 348 -286.5t-348 -286.5h-325v1008h-349v32h381v-467h293z" />
    <glyph glyph-name="uni044B" unicode="&#x44b;" horiz-adv-x="1288" 
d="M219 33h293q162 0 238.5 61.5t76.5 192.5t-76.5 192.5t-238.5 61.5h-293v-508zM512 573q348 0 348 -286.5t-348 -286.5h-326v1040h33v-467h293zM1069 0v1040h33v-1040h-33z" />
    <glyph glyph-name="uni044C" unicode="&#x44c;" horiz-adv-x="944" 
d="M219 33h293q162 0 238.5 61.5t76.5 192.5t-76.5 192.5t-238.5 61.5h-293v-508zM512 573q348 0 348 -286.5t-348 -286.5h-326v1040h33v-467h293z" />
    <glyph glyph-name="uni044D" unicode="&#x44d;" horiz-adv-x="1009" 
d="M911 520q0 -254 -115.5 -397t-318.5 -143q-162 0 -267.5 99t-119.5 263h33q14 -150 110.5 -240t243.5 -90q186 0 291.5 131t110.5 367h-564v33h564q-4 229 -110.5 357t-291.5 128q-147 0 -244.5 -88t-109.5 -231h-33q14 158 119.5 255t267.5 97q203 0 318.5 -143.5
t115.5 -397.5z" />
    <glyph glyph-name="uni044E" unicode="&#x44e;" horiz-adv-x="1445" 
d="M1315 520.5q0 237.5 -108.5 372.5t-301 135t-301 -135t-108.5 -372.5t108.5 -373t301 -135.5t301 135.5t108.5 373zM1348 520q0 -252 -118 -396t-323 -144t-322.5 140t-121.5 384h-244v-504h-33v1040h33v-503h244q4 244 121.5 384t322.5 140t323 -144.5t118 -396.5z" />
    <glyph glyph-name="uni044F" unicode="&#x44f;" horiz-adv-x="972" 
d="M465 1008q-160 0 -240 -65.5t-80 -183.5t80 -188.5t238 -70.5h291v508h-289zM786 0h-32v467h-291q-55 0 -96 8l-275 -475h-39l281 481q-109 27 -165 100.5t-56 172.5q0 135 89 210.5t263 75.5h321v-1040z" />
    <glyph glyph-name="uni0450" unicode="&#x450;" horiz-adv-x="1054" 
d="M924 563q0 145 -51.5 251t-141.5 160t-205 54q-180 0 -285.5 -128t-109.5 -337h793zM557.5 -20q-147.5 0 -249 68.5t-156 195.5t-54.5 291t52.5 281.5t149.5 181t226 63.5q168 0 280 -101.5t140 -275.5q10 -61 10 -154h-825q0 -156 50 -272.5t143.5 -181t229.5 -64.5
t235.5 80t117.5 213h35q-23 -150 -130 -237.5t-254.5 -87.5zM627 1176h-35l-201 282h43z" />
    <glyph glyph-name="uni0451" unicode="&#x451;" horiz-adv-x="1054" 
d="M924 563q0 145 -51.5 251t-141.5 160t-205 54q-180 0 -285.5 -128t-109.5 -337h793zM557.5 -20q-147.5 0 -249 68.5t-156 195.5t-54.5 291t52.5 281.5t149.5 181t226 63.5q168 0 280 -101.5t140 -275.5q10 -61 10 -154h-825q0 -156 50 -272.5t143.5 -181t229.5 -64.5
t235.5 80t117.5 213h35q-23 -150 -130 -237.5t-254.5 -87.5zM698 1300v158h33v-158h-33zM322 1300v158h32v-158h-32z" />
    <glyph glyph-name="uni0452" unicode="&#x452;" 
d="M930 522v-620q0 -156 -56.5 -220.5t-166.5 -64.5q-20 0 -37 4v33q16 -4 37 -4q96 0 143 55t47 197v620q0 197 -84 296.5t-235 99.5q-96 0 -178.5 -48.5t-131.5 -134.5t-49 -194v-541h-33v1212h-114v33h114v213h33v-213h500v-33h-500v-282q0 -170 -6 -258h2
q35 123 132 200.5t247 77.5t243 -108.5t93 -319.5z" />
    <glyph glyph-name="uni0453" unicode="&#x453;" horiz-adv-x="770" 
d="M219 1008v-1008h-33v1040h553v-32h-520zM365 1176l192 282h43l-201 -282h-34z" />
    <glyph glyph-name="uni0454" unicode="&#x454;" horiz-adv-x="1009" 
d="M532 -20q-203 0 -318.5 143t-115.5 397t116 397.5t318 143.5q162 0 267.5 -97.5t120.5 -254.5h-33q-12 143 -109.5 231t-245.5 88q-184 0 -290.5 -128t-110.5 -357h563v-33h-563q4 -236 109.5 -367t291.5 -131q148 0 244 90.5t111 239.5h33q-14 -164 -120 -263t-268 -99z
" />
    <glyph glyph-name="uni0455" unicode="&#x455;" horiz-adv-x="915" 
d="M791 705h-33q0 152 -84 237.5t-223.5 85.5t-222.5 -65.5t-83 -174.5q0 -74 32 -115.5t93.5 -66t188 -52.5t206.5 -60.5t118 -87t38 -144.5q0 -125 -97 -203.5t-264 -78.5t-268.5 99t-101.5 277h33q0 -164 92 -254t244.5 -90t240.5 70t88 166t-35.5 143t-107.5 76t-199 55
q-126 28 -194 56q-138 58 -139 210q0 123 93 198t245.5 75t246 -95.5t93.5 -260.5z" />
    <glyph glyph-name="uni0456" unicode="&#x456;" horiz-adv-x="405" 
d="M186 0v1040h33v-1040h-33zM186 1300v158h33v-158h-33z" />
    <glyph glyph-name="uni0457" unicode="&#x457;" horiz-adv-x="405" 
d="M186 0v1040h33v-1040h-33zM334 1317v141h33v-141h-33zM39 1317v141h33v-141h-33z" />
    <glyph glyph-name="uni0458" unicode="&#x458;" horiz-adv-x="428" 
d="M18 -383q-20 0 -36 4v33q16 -4 36 -4q96 0 143.5 55t47.5 197v1138h33v-1138q0 -156 -56.5 -220.5t-167.5 -64.5zM209 1300v158h33v-158h-33z" />
    <glyph glyph-name="uni0459" unicode="&#x459;" horiz-adv-x="1599" 
d="M874 33h293q162 0 239 61.5t77 192.5t-77 192.5t-239 61.5h-293v-508zM1167 573q348 0 348.5 -286.5t-348.5 -286.5h-325v1008h-512q-4 -428 -32 -644.5t-83 -292t-156 -75.5q-20 0 -41 4v33q20 -4 41 -4q90 0 138.5 74.5t73 288.5t28.5 648h575v-467h293z" />
    <glyph glyph-name="uni045A" unicode="&#x45a;" horiz-adv-x="1667" 
d="M942 33h293q162 0 238.5 61.5t76.5 192.5t-76.5 192.5t-238.5 61.5h-293v-508zM1235 573q348 0 348 -286.5t-348 -286.5h-326v541h-690v-541h-33v1040h33v-467h690v467h33v-467h293z" />
    <glyph glyph-name="uni045B" unicode="&#x45b;" 
d="M930 522v-522h-33v522q0 197 -84 296.5t-235 99.5q-96 0 -178.5 -48.5t-131.5 -134.5t-49 -194v-541h-33v1212h-114v33h114v213h33v-213h500v-33h-500v-282q0 -170 -6 -258h2q35 123 132 200.5t247 77.5t243 -108.5t93 -319.5z" />
    <glyph glyph-name="uni045C" unicode="&#x45c;" horiz-adv-x="927" 
d="M219 555v-555h-33v1040h33v-462h2l576 462h51l-590 -475l649 -565h-49l-637 555h-2zM410 1176l192 282h43l-201 -282h-34z" />
    <glyph glyph-name="uni045D" unicode="&#x45d;" horiz-adv-x="1150" 
d="M932 0v1008h-2l-690 -1008h-54v1040h33v-1007h2l690 1007h54v-1040h-33zM676 1176h-35l-201 282h43z" />
    <glyph glyph-name="uni045E" unicode="&#x45e;" horiz-adv-x="882" 
d="M106 -387q-64 0 -96 14v33q31 -14 91.5 -14t108.5 28q97 56 206 324l-412 1042h35l393 -995h2l410 995h35l-433 -1052q-112 -284 -220 -344q-56 -30 -120 -31zM442 1198q-129 0 -205.5 68.5t-89.5 191.5h33q12 -111 79 -169t183.5 -58t183 58.5t79.5 168.5h32
q-12 -123 -89 -191.5t-206 -68.5z" />
    <glyph glyph-name="uni045F" unicode="&#x45f;" horiz-adv-x="1116" 
d="M575 0v-328h-32v328h-357v1040h33v-1007h678v1007h33v-1040h-355z" />
    <glyph glyph-name="uni0490" unicode="&#x490;" horiz-adv-x="935" 
d="M248 1425v-1425h-33v1458h678v328h33v-361h-678z" />
    <glyph glyph-name="uni0491" unicode="&#x491;" horiz-adv-x="770" 
d="M219 1008v-1008h-33v1040h521v328h32v-360h-520z" />
    <glyph glyph-name="uni0492" unicode="&#x492;" horiz-adv-x="935" 
d="M248 754h360v-33h-360v-721h-33v721h-123v33h123v704h711v-33h-678v-671z" />
    <glyph glyph-name="uni0493" unicode="&#x493;" horiz-adv-x="770" 
d="M219 528h307v-32h-307v-496h-33v496h-114v32h114v512h553v-32h-520v-480z" />
    <glyph glyph-name="uni0496" unicode="&#x496;" horiz-adv-x="1626" 
d="M1665 -328h-33v328h-61l-740 762h-2v-762h-32v762h-2l-740 -762h-47l748 766l-688 692h47l680 -688h2v688h32v-688h2l680 688h48l-689 -692l715 -733h80v-361z" />
    <glyph glyph-name="uni0497" unicode="&#x497;" horiz-adv-x="1249" 
d="M1303 -328h-33v328h-62l-565 563h-2v-563h-33v563h-2l-565 -563h-47l569 565l-516 475h49l510 -471h2v471h33v-471h2l510 471h49l-516 -475l537 -532h80v-361z" />
    <glyph glyph-name="uni049A" unicode="&#x49a;" horiz-adv-x="1089" 
d="M1126 -328h-32v328h-62l-782 754h-2v-754h-33v1458h33v-680h2l717 680h49l-731 -692l762 -733h79v-361z" />
    <glyph glyph-name="uni049B" unicode="&#x49b;" horiz-adv-x="927" 
d="M952 -328h-32v328h-62l-637 555h-2v-555h-33v1040h33v-462h2l576 462h51l-590 -475l612 -532h82v-361z" />
    <glyph glyph-name="uni049C" unicode="&#x49c;" horiz-adv-x="1216" 
d="M432 401h-33v349h-151v-750h-33v1458h33v-676h151v348h33l2 -348l668 676h47l-688 -692l747 -766h-47l-729 750v-349z" />
    <glyph glyph-name="uni049D" unicode="&#x49d;" horiz-adv-x="989" 
d="M399 238h-32v313h-148v-551h-33v1040h33v-456h148v313h32l2 -313l494 456h49l-514 -473l567 -567h-47l-551 551v-313z" />
    <glyph glyph-name="uni04A2" unicode="&#x4a2;" horiz-adv-x="1443" 
d="M1331 -328v328h-135v741h-948v-741h-33v1458h33v-684h948v684h33v-1425h135v-361h-33z" />
    <glyph glyph-name="uni04A3" unicode="&#x4a3;" horiz-adv-x="1128" 
d="M1044 -328v328h-135v512h-690v-512h-33v1040h33v-495h690v495h33v-1007h135v-361h-33z" />
    <glyph glyph-name="uni04AE" unicode="&#x4ae;" horiz-adv-x="1167" 
d="M600 0h-33v651l-553 807h39l529 -772h2l530 772h39l-553 -807v-651z" />
    <glyph glyph-name="uni04AF" unicode="&#x4af;" horiz-adv-x="884" 
d="M459 -379h-33v379l-422 1040h35l401 -989h4l402 989h35l-422 -1040v-379z" />
    <glyph glyph-name="uni04B2" unicode="&#x4b2;" horiz-adv-x="1214" 
d="M1243 -328h-33v328h-61l-541 723h-2l-540 -723h-41l561 750l-531 708h41l510 -682h2l510 682h41l-530 -708l536 -717h78v-361z" />
    <glyph glyph-name="uni04B3" unicode="&#x4b3;" horiz-adv-x="901" 
d="M946 -328h-33v328h-61l-399 514h-2l-402 -514h-41l424 541l-389 499h41l367 -473h2l364 473h41l-387 -499l397 -508h78v-361z" />
    <glyph glyph-name="uni04B8" unicode="&#x4b8;" horiz-adv-x="1204" 
d="M956 1458h33v-1458h-33v692q-201 -57 -405 -61v-346h-33v346q-211 4 -323.5 108.5t-112.5 292.5v426h33v-426q0 -176 102 -270t301 -98v485h33v-485q222 4 405 63v731z" />
    <glyph glyph-name="uni04B9" unicode="&#x4b9;" horiz-adv-x="950" 
d="M764 0h-33v487q-141 -47 -303 -49v-256h-33v256q-162 4 -248 82t-86 217v303h33v-303q0 -127 77 -195.5t224 -70.5v371h33v-371q166 4 303 51v518h33v-1040z" />
    <glyph glyph-name="uni04BA" unicode="&#x4ba;" horiz-adv-x="1204" 
d="M658 795q-216 0 -410 -64v-731h-33v1458h33v-692q203 61 422 61t335.5 -104.5t116.5 -296.5v-426h-32v426q0 178 -108 273.5t-324 95.5z" />
    <glyph glyph-name="uni04BB" unicode="&#x4bb;" 
d="M594 1061q150 0 243 -108.5t93 -319.5v-633h-33v633q0 197 -84 296t-235 99q-96 0 -178.5 -48t-131.5 -134t-49 -195v-651h-33v1458h33v-418q0 -170 -6 -258h2q35 123 132 201t247 78z" />
    <glyph glyph-name="uni04C0" unicode="&#x4c0;" horiz-adv-x="462" 
d="M215 0v1458h33v-1458h-33z" />
    <glyph glyph-name="uni04CF" unicode="&#x4cf;" horiz-adv-x="405" 
d="M186 0v1458h33v-1458h-33z" />
    <glyph glyph-name="uni04D8" unicode="&#x4d8;" horiz-adv-x="1427" 
d="M710 12q175 0 308 87t205 245t75 363h-1169q2 -219 75 -376t202 -238t304 -81zM1331 729q0 -227 -78 -397t-220 -261t-328 -91t-324 90q-137 90 -211 259t-74 400v10h1202q0 213 -74 373q-75 160 -212 247t-335 87t-339 -114t-170 -304h-35q33 209 184 330
q152 120 360 120t352 -92t223 -261t79 -396z" />
    <glyph glyph-name="uni04D9" unicode="&#x4d9;" horiz-adv-x="1054" 
d="M526 12q178 0 286 134t112 352h-793q2 -230 110 -358q107 -128 285 -128zM956 520q0 -164 -54 -286t-152 -188t-230 -66q-194 0 -308 144t-114 396v10h826q0 150 -51 263q-104 235 -370 235q-133 0 -229 -80t-116 -213h-35q23 150 128 238t249 88t246 -67
q102 -66 156 -188t54 -286z" />
    <glyph glyph-name="uni04E8" unicode="&#x4e8;" horiz-adv-x="1437" 
d="M719 12q176 0 308 86t206 244t76 371h-1180q2 -213 76 -371t206 -244t308 -86zM719 1446q-176 0 -308 -86t-206 -244t-76 -371h1180q-2 213 -76 371t-206 244t-308 86zM1341 729q0 -227 -75.5 -396t-217 -261t-330 -92t-329.5 92t-217 261t-76 396t76 396t217 261.5
t329.5 92.5t330 -92.5t217 -261.5t75.5 -396z" />
    <glyph glyph-name="uni04E9" unicode="&#x4e9;" horiz-adv-x="1081" 
d="M540 12q188 0 297 130t113 362h-819q4 -231 112.5 -361.5t296.5 -130.5zM540 1028q-188 0 -296.5 -130t-112.5 -361h819q-4 231 -113 361t-297 130zM983 520q0 -252 -118.5 -396t-324.5 -144t-324 144t-118 396t118 396.5t324 144.5t324.5 -144.5t118.5 -396.5z" />
    <glyph glyph-name="Wgrave" unicode="&#x1e80;" horiz-adv-x="1763" 
d="M1278 0l-395 1425h-2l-396 -1425h-47l-413 1458h32l404 -1423h2l393 1423h51l393 -1423h3l403 1423h33l-414 -1458h-47zM997 1556h-39l-225 259h45z" />
    <glyph glyph-name="wgrave" unicode="&#x1e81;" horiz-adv-x="1519" 
d="M1102 0l-340 1010h-4l-340 -1010h-49l-349 1040h33l338 -1007h4l340 1007h49l340 -1007h4l338 1007h33l-348 -1040h-49zM860 1176h-35l-200 282h43z" />
    <glyph glyph-name="Wacute" unicode="&#x1e82;" horiz-adv-x="1763" 
d="M1278 0l-395 1425h-2l-396 -1425h-47l-413 1458h32l404 -1423h2l393 1423h51l393 -1423h3l403 1423h33l-414 -1458h-47zM768 1556l219 259h45l-225 -259h-39z" />
    <glyph glyph-name="wacute" unicode="&#x1e83;" horiz-adv-x="1519" 
d="M1102 0l-340 1010h-4l-340 -1010h-49l-349 1040h33l338 -1007h4l340 1007h49l340 -1007h4l338 1007h33l-348 -1040h-49zM662 1176l192 282h43l-201 -282h-34z" />
    <glyph glyph-name="Wdieresis" unicode="&#x1e84;" horiz-adv-x="1763" 
d="M1278 0l-395 1425h-2l-396 -1425h-47l-413 1458h32l404 -1423h2l393 1423h51l393 -1423h3l403 1423h33l-414 -1458h-47zM1055 1595v158h32v-158h-32zM678 1595v158h33v-158h-33z" />
    <glyph glyph-name="wdieresis" unicode="&#x1e85;" horiz-adv-x="1519" 
d="M1102 0l-340 1010h-4l-340 -1010h-49l-349 1040h33l338 -1007h4l340 1007h49l340 -1007h4l338 1007h33l-348 -1040h-49zM932 1300v158h33v-158h-33zM555 1300v158h33v-158h-33z" />
    <glyph glyph-name="Germandbls" unicode="&#x1e9e;" horiz-adv-x="1468" 
d="M823 840q537 -59 537 -450q0 -200 -118 -305t-318 -105t-305 90t-105 254h33q0 -150 95.5 -231t281.5 -81t294.5 95t108.5 285t-136 292t-407 127v33l418 418q-80 86 -198.5 135t-260.5 49q-516 0 -516 -533v-913h-32v913q0 279 139 422.5t409 143.5q156 0 287 -58.5
t215 -158.5z" />
    <glyph glyph-name="Ygrave" unicode="&#x1ef2;" horiz-adv-x="1167" 
d="M600 0h-33v651l-553 807h39l529 -772h2l530 772h39l-553 -807v-651zM698 1556h-39l-225 259h45z" />
    <glyph glyph-name="ygrave" unicode="&#x1ef3;" horiz-adv-x="882" 
d="M106 -387q-64 0 -96 14v33q31 -14 91.5 -14t108.5 28q97 56 206 324l-412 1042h35l393 -995h2l410 995h35l-433 -1052q-112 -284 -220 -344q-56 -30 -120 -31zM543 1176h-35l-201 282h43z" />
    <glyph glyph-name="uni2010" unicode="&#x2010;" horiz-adv-x="561" 
d="M61 582v32h439v-32h-439z" />
    <glyph glyph-name="endash" unicode="&#x2013;" horiz-adv-x="1024" 
d="M41 582v32h942v-32h-942z" />
    <glyph glyph-name="emdash" unicode="&#x2014;" horiz-adv-x="2048" 
d="M41 582v32h1966v-32h-1966z" />
    <glyph glyph-name="uni2015" unicode="&#x2015;" horiz-adv-x="2048" 
d="M41 582v32h1966v-32h-1966z" />
    <glyph glyph-name="underscoredbl" unicode="&#x2017;" horiz-adv-x="1024" 
d="M0 -381v33h1024v-33h-1024zM0 -135v33h1024v-33h-1024z" />
    <glyph glyph-name="quoteleft" unicode="&#x2018;" horiz-adv-x="319" 
d="M156 1053h-33v145l72 260h28l-67 -260v-145z" />
    <glyph glyph-name="quoteright" unicode="&#x2019;" horiz-adv-x="319" 
d="M164 1458h33v-145l-72 -260h-29l68 260v145z" />
    <glyph glyph-name="quotesinglbase" unicode="&#x201a;" horiz-adv-x="319" 
d="M164 111h33v-146l-72 -260h-29l68 260v146z" />
    <glyph glyph-name="quotereversed" unicode="&#x201b;" horiz-adv-x="319" 
d="M123 1458h33v-145l67 -260h-28l-72 260v145z" />
    <glyph glyph-name="quotedblleft" unicode="&#x201c;" horiz-adv-x="528" 
d="M365 1053h-33v145l71 260h29l-67 -260v-145zM156 1053h-33v145l72 260h28l-67 -260v-145z" />
    <glyph glyph-name="quotedblright" unicode="&#x201d;" horiz-adv-x="528" 
d="M164 1458h33v-145l-72 -260h-29l68 260v145zM373 1458h33v-145l-72 -260h-29l68 260v145z" />
    <glyph glyph-name="quotedblbase" unicode="&#x201e;" horiz-adv-x="528" 
d="M164 111h33v-146l-72 -260h-29l68 260v146zM373 111h33v-146l-72 -260h-29l68 260v146z" />
    <glyph glyph-name="dagger" unicode="&#x2020;" horiz-adv-x="1024" 
d="M913 1018v-33h-385v-1231h-32v1231h-385v33h385v440h32v-440h385z" />
    <glyph glyph-name="daggerdbl" unicode="&#x2021;" horiz-adv-x="1024" 
d="M913 1018v-33h-385v-586h385v-32h-385v-613h-32v613h-385v32h385v586h-385v33h385v440h32v-440h385z" />
    <glyph glyph-name="bullet" unicode="&#x2022;" horiz-adv-x="614" 
d="M123 729q0 76 54 130t130 54t130.5 -54t54.5 -130t-53.5 -130t-130.5 -54t-131 54t-54 130z" />
    <glyph glyph-name="ellipsis" unicode="&#x2026;" horiz-adv-x="974" 
d="M121 0v147h37v-147h-37zM469 0v147h37v-147h-37zM817 0v147h37v-147h-37z" />
    <glyph glyph-name="perthousand" unicode="&#x2030;" horiz-adv-x="1728" 
d="M1245 303q0 -141 50.5 -216t144.5 -75t144 75t50 216t-50 216t-144 75t-144.5 -75t-50.5 -216zM664 303q0 -141 50 -216t144 -75t144.5 75t50.5 216t-50.5 216t-144.5 75t-144 -75t-50 -216zM1667 303q0 -156 -59.5 -239.5t-168 -83.5t-168 83.5t-59.5 239.5t59.5 240
t168 84t168 -84t59.5 -240zM1085 303q0 -156 -59 -239.5t-167.5 -83.5t-168 83.5t-59.5 239.5t59.5 240t168 84t167.5 -84t59 -240zM94 1081.5q0 -141.5 50.5 -216t144.5 -74.5t144 74.5t50 216t-50 216t-144 74.5t-144.5 -74.5t-50.5 -216zM516 1081.5
q0 -155.5 -59.5 -239.5t-168 -84t-168 84t-59.5 239.5t59.5 239.5t168 84t168 -84t59.5 -239.5zM121 -61l868 1503h37l-868 -1503h-37z" />
    <glyph glyph-name="minute" unicode="&#x2032;" horiz-adv-x="256" 
d="M61 958l99 422h35l-105 -422h-29z" />
    <glyph glyph-name="second" unicode="&#x2033;" horiz-adv-x="460" 
d="M266 958l99 422h34l-104 -422h-29zM61 958l99 422h35l-105 -422h-29z" />
    <glyph glyph-name="guilsinglleft" unicode="&#x2039;" horiz-adv-x="495" 
d="M383 111h-37l-233 409l233 410h37l-233 -410z" />
    <glyph glyph-name="guilsinglright" unicode="&#x203a;" horiz-adv-x="495" 
d="M383 520l-233 -409h-37l233 409l-233 410h37z" />
    <glyph glyph-name="exclamdbl" unicode="&#x203c;" horiz-adv-x="802" 
d="M578 0v141h36v-141h-36zM586 279l-8 1179h36l-8 -1179h-20zM188 0v141h37v-141h-37zM197 279l-9 1179h37l-8 -1179h-20z" />
    <glyph glyph-name="interrobang" unicode="&#x203d;" horiz-adv-x="958" 
d="M504 141v-141h-37v141h37zM844 965q0 127 -96.5 208.5t-247.5 88.5l-4 -816h2q12 41 41.5 78.5t107.5 103.5t122 119.5t59.5 102.5t15.5 115zM877 965q0 -104 -44.5 -180t-144.5 -161t-131 -121t-44 -85t-13 -137h-27l-6 981q-160 -4 -254 -90.5t-107 -243.5h-32
q14 172 116.5 267t276.5 99l-2 164h37v-164q164 -6 269.5 -97t105.5 -232z" />
    <glyph glyph-name="overline" unicode="&#x203e;" horiz-adv-x="1024" 
d="M0 1642v33h1024v-33h-1024z" />
    <glyph glyph-name="fraction" unicode="&#x2044;" horiz-adv-x="208" 
d="M-317 0l806 1380h37l-807 -1380h-36z" />
    <glyph glyph-name="zero.superior" unicode="&#x2070;" horiz-adv-x="802" 
d="M401.5 1624q-286.5 0 -286.5 -466t286.5 -466t286.5 466t-286.5 466zM401.5 1658q321.5 0 321.5 -498t-321.5 -498t-321.5 498t321.5 498z" />
    <glyph glyph-name="four.superior" unicode="&#x2074;" horiz-adv-x="747" 
d="M489 999v609h-2l-432 -609h434zM522 967v-291h-33v291h-466v39l450 636h49v-643h203v-32h-203z" />
    <glyph glyph-name="five.superior" unicode="&#x2075;" horiz-adv-x="768" 
d="M377 1296q139 0 221 -85t82 -229t-86 -232t-220 -88t-210 70.5t-76 191.5h33q0 -109 65.5 -169.5t187.5 -60.5t197.5 78t75.5 210t-72.5 207t-182.5 75q-210 0 -269 -185l-33 2l55 561h492v-32h-463l-43 -447h2q33 61 95.5 97t148.5 36z" />
    <glyph glyph-name="six.superior" unicode="&#x2076;" horiz-adv-x="774" 
d="M129 988q0 -126 70.5 -210t194.5 -84t199 80t75 209t-75 207t-193 78t-194.5 -77t-76.5 -203zM397 662q-317 0 -317 450q0 268 88 406.5t246 138.5q112 0 182 -63.5t88 -176.5h-35q-18 98 -77.5 152.5t-157.5 54.5q-145 0 -225 -136t-78 -411h2q20 98 97.5 160.5
t199.5 62.5t206 -87t84 -230t-84 -232t-219 -89z" />
    <glyph glyph-name="seven.superior" unicode="&#x2077;" horiz-adv-x="677" 
d="M23 1610v32h632v-32q-139 -203 -242.5 -423t-168.5 -511h-35q70 299 172 519t237 415h-595z" />
    <glyph glyph-name="eight.superior" unicode="&#x2078;" horiz-adv-x="786" 
d="M113 929q0 -101 78.5 -168t201.5 -67t202 66t79 168t-81 166.5t-200 64.5t-199.5 -64.5t-80.5 -165.5zM135 1405q0 -96 70.5 -155.5t187.5 -59.5t187.5 59.5t70.5 155.5t-71.5 157.5t-186 61.5t-186.5 -61.5t-72 -157.5zM684 1416q0 -100 -54.5 -160t-140.5 -80v-2
q96 -25 157 -87.5t61 -168.5t-88.5 -181t-225.5 -75t-225 75t-88 181t60.5 168.5t156.5 87.5v2q-86 20 -140.5 80t-54.5 160t82 170.5t209 70.5t209 -70.5t82 -170.5z" />
    <glyph glyph-name="nine.superior" unicode="&#x2079;" horiz-adv-x="774" 
d="M645 1330q0 126 -70.5 210t-194.5 84t-199 -80t-75 -209t75 -206.5t194 -77.5t194.5 76.5t75.5 202.5zM377 1657q317 0 317 -451q0 -268 -88 -406t-246 -138q-112 0 -181.5 63t-88.5 176h35q18 -98 77.5 -152.5t157.5 -54.5q145 0 225.5 136.5t78.5 410.5h-2
q-20 -98 -98 -160.5t-200 -62.5t-206 87t-84 230t84 232.5t219 89.5z" />
    <glyph glyph-name="plussuperior" unicode="&#x207a;" horiz-adv-x="831" 
d="M723 1147v-33h-291v-283h-33v283h-290v33h290v283h33v-283h291z" />
    <glyph glyph-name="uni207B" unicode="&#x207b;" horiz-adv-x="831" 
d="M109 1114v33h614v-33h-614z" />
    <glyph glyph-name="equalsuperior" unicode="&#x207c;" horiz-adv-x="831" 
d="M109 1022v33h614v-33h-614zM109 1206v33h614v-33h-614z" />
    <glyph glyph-name="parenleftsuperior" unicode="&#x207d;" horiz-adv-x="344" 
d="M113 1101q0 -189 45 -339t143 -297h-35q-96 143 -141 292.5t-45 344t45 343t141 294.5h35q-98 -150 -143 -299.5t-45 -338.5z" />
    <glyph glyph-name="parenrightsuperior" unicode="&#x207e;" horiz-adv-x="344" 
d="M231 1102q0 190 -45 339.5t-143 297.5h35q96 -143 141 -293t45 -344.5t-45 -343t-141 -293.5h-35q98 149 143 298t45 339z" />
    <glyph glyph-name="zero.inferior" unicode="&#x2080;" horiz-adv-x="802" 
d="M115 130q1 -466 287 -466t286 466t-286 466t-287 -466zM80 131q0 498 322 498t321 -498q1 -498 -321 -498t-322 498z" />
    <glyph glyph-name="one.inferior" unicode="&#x2081;" horiz-adv-x="442" 
d="M233 -352v868h-2q-39 -96 -213 -94v31q104 0 155 36q50 37 63 125h30v-966h-33z" />
    <glyph glyph-name="two.inferior" unicode="&#x2082;" horiz-adv-x="780" 
d="M117 -319h583v-33h-614q-2 10 -2 61q0 133 109 237q63 60 179 126t167 100q108 74 108 187q0 112 -68 175q-69 62 -185 62t-184 -64t-79 -178h-33q10 127 88 201t207 74t208 -72t79 -197t-118 -212q-56 -40 -170 -104q-214 -119 -255 -229q-20 -56 -20 -134z" />
    <glyph glyph-name="three.inferior" unicode="&#x2083;" horiz-adv-x="776" 
d="M688 -104q0 -113 -90 -188t-229 -75t-219 75t-80 202h32q0 -112 71 -178t196 -66t205 65t81 169q0 104 -76 165q-77 60 -212 60h-64v33h64q127 0 197 58t71 158q0 100 -75 162q-74 60 -194 60t-190 -64t-70 -176h-32q0 127 79 200t213 73t218 -70t84 -173
q0 -198 -193 -243v-2q213 -49 213 -245z" />
    <glyph glyph-name="four.inferior" unicode="&#x2084;" horiz-adv-x="747" 
d="M487 -29v609h-2l-432 -609h434zM520 -61v-291h-33v291h-467v38l451 637h49v-643h203v-32h-203z" />
    <glyph glyph-name="five.inferior" unicode="&#x2085;" horiz-adv-x="768" 
d="M377 268q139 0 221 -85t82 -229t-86 -232t-220 -89q-134 0 -210 71t-76 192h33q-1 -109 65 -169q66 -61 188 -61t198 78t75 210q0 132 -73 207t-182 75q-211 0 -269 -185l-33 2l55 561h492v-32h-463l-43 -447h2q72 133 244 133z" />
    <glyph glyph-name="six.inferior" unicode="&#x2086;" horiz-adv-x="774" 
d="M129 -40q0 -126 71 -210q70 -84 194 -84t199 80t75 209t-75 207t-193 78t-195 -77q-76 -77 -76 -203zM414 596q-146 0 -226 -136t-77 -411h2q20 99 97 161q78 62 200 62t206 -87t84 -230t-84 -233t-230 -89q-146 0 -226 113q-80 114 -80 360t88 384t246 139
q112 -1 182 -64t88 -176h-35q-17 99 -77 153t-158 54z" />
    <glyph glyph-name="seven.inferior" unicode="&#x2087;" horiz-adv-x="677" 
d="M20 582v32h633v-32q-139 -203 -242 -423t-169 -511h-35q70 299 172 519t237 415h-596z" />
    <glyph glyph-name="eight.inferior" unicode="&#x2088;" horiz-adv-x="786" 
d="M391 -334q123 0 202 67t79 168t-81 166t-200 65t-200 -65t-81 -166t80 -168q78 -67 201 -67zM133 378q0 -96 71 -156q72 -60 188 -60t187 59t71 155t-72 159q-72 61 -186 61t-187 -61q-72 -61 -72 -157zM682 388q0 -100 -54 -160t-141 -81v-2q97 -25 157 -87t60 -168
t-88 -181q-88 -76 -225 -76t-225 76q-88 75 -88 181t60 168t157 87v2q-86 21 -140 81q-55 60 -55 160t82 170t209 71q127 0 209 -71t82 -170z" />
    <glyph glyph-name="nine.inferior" unicode="&#x2089;" horiz-adv-x="774" 
d="M645 302q0 126 -71 210q-70 84 -194 84t-199 -80t-75 -209t75 -207t193 -78t195 77q76 77 76 203zM360 -334q145 0 226 136q80 136 78 411h-2q-20 -99 -98 -161t-200 -62t-206 87t-84 230t84 233t230 89q146 0 226 -113q80 -114 80 -360t-88 -384t-246 -139
q-112 1 -182 64t-88 176h35q17 -99 77 -153t158 -54z" />
    <glyph glyph-name="uni208A" unicode="&#x208a;" horiz-adv-x="829" 
d="M721 119v-33h-291v-283h-33v283h-291v33h291v282h33v-282h291z" />
    <glyph glyph-name="uni208B" unicode="&#x208b;" horiz-adv-x="829" 
d="M106 86v33h615v-33h-615z" />
    <glyph glyph-name="uni208C" unicode="&#x208c;" horiz-adv-x="829" 
d="M106 -6v33h615v-33h-615zM106 178v33h615v-33h-615z" />
    <glyph glyph-name="uni208D" unicode="&#x208d;" horiz-adv-x="344" 
d="M113 73q0 -189 45 -339t143 -297h-35q-96 143 -141 293t-45 344t45 343q45 148 141 294h35q-98 -149 -143 -299t-45 -339z" />
    <glyph glyph-name="uni208E" unicode="&#x208e;" horiz-adv-x="344" 
d="M231 75q0 189 -45 339t-143 297h35q96 -143 141 -293t45 -344t-45 -343q-45 -148 -141 -294h-35q98 149 143 299t45 339z" />
    <glyph glyph-name="uni2099" unicode="&#x2099;" horiz-adv-x="794" 
d="M674 90v-442h-33v442q0 135 -58 202q-59 66 -165 66t-180 -72t-74 -186v-452h-33v729h33q0 -113 -6 -170h2q29 88 100 136q72 48 158 48q122 0 189 -77t67 -224z" />
    <glyph glyph-name="franc" unicode="&#x20a3;" horiz-adv-x="1024" 
d="M248 778h665v-33h-665v-378h375v-33h-375v-334h-33v334h-152v33h152v1013h737v-32h-704v-570z" />
    <glyph glyph-name="lira" unicode="&#x20a4;" horiz-adv-x="1024" 
d="M942 0h-893v33q106 0 165.5 73.5t59.5 217.5v221h-225v33h225v172h-225v32h225v230q0 186 88.5 287.5t244 101.5t244.5 -105.5t89 -291.5h-33q0 172 -79.5 268t-221 96t-220.5 -92t-79 -264v-230h279v-32h-279v-172h279v-33h-279v-221q0 -127 -42 -198t-95 -91v-2h772
v-33z" />
    <glyph glyph-name="peseta" unicode="&#x20a7;" horiz-adv-x="1525" 
d="M981 995.5q0 157.5 -102.5 255t-300.5 97.5h-330v-705h330q198 0 300.5 97.5t102.5 255zM1389 -4q-98 0 -143.5 56.5t-45.5 180.5v775h-186v-13q0 -172 -111.5 -278.5t-324.5 -106.5h-330v-610h-33v1380h363q199 0 309 -93t125 -247h188v240h33v-240h217v-32h-217v-775
q0 -111 36 -157.5t120 -46.5q34 0 71 8v-33q-37 -8 -71 -8z" />
    <glyph glyph-name="Euro" unicode="&#x20ac;" horiz-adv-x="1024" 
d="M561 1401q372 0 418 -412h-33q-23 193 -118 286t-267 93q-397 0 -432 -569h584l-6 -33h-578l-2 -76q0 -59 2 -88h549l-6 -33h-541q37 -557 422 -557q346 0 401 383h33q-58 -415 -434 -415q-417 0 -455 589h-96l6 33h88q-2 29 -2 88l2 76h-94l6 33h88q36 602 465 602z" />
    <glyph glyph-name="uni20B9" unicode="&#x20b9;" horiz-adv-x="1024" 
d="M743 1040q0 -143 -108.5 -240.5t-302.5 -109.5v-2q92 -25 155.5 -91.5t124.5 -190.5l199 -406h-37l-190 389q-76 154 -163 222.5t-210 68.5h-29v33h62q221 0 344 90t123 237q0 29 -2 41h-654l13 33h637q-51 233 -422 234h-228l13 32h901l-13 -32h-213q-184 0 -268 6v-2
q223 -43 262 -238h232l-13 -33h-215q2 -12 2 -41z" />
    <glyph glyph-name="uni20BA" unicode="&#x20ba;" horiz-adv-x="1024" 
d="M287 -4h-33v706l-203 -110v37l203 110v230l-203 -111v37l203 111v374h33v-360l348 188v-37l-348 -188v-229l348 188v-37l-348 -188v-688q307 0 473 152.5t166 449.5h32q0 -312 -175 -473.5t-496 -161.5z" />
    <glyph glyph-name="uni20BC" unicode="&#x20bc;" horiz-adv-x="1187" 
d="M578 1458h32v-268q172 -4 275.5 -56.5t151.5 -170t48 -322.5v-641h-32v641q0 197 -44 307.5t-139.5 157.5t-259.5 51v-1157h-32v1157q-164 -4 -259.5 -51t-139.5 -157.5t-44 -307.5v-641h-33v641q0 205 48.5 322.5t152 170t275.5 56.5v268z" />
    <glyph glyph-name="uni20BD" unicode="&#x20bd;" horiz-adv-x="1024" 
d="M225 682h342q180 0 271.5 92t91.5 241.5t-91 241t-272 91.5h-342v-666zM963 1016q0 -164 -100.5 -265.5t-295.5 -101.5h-342v-227h439v-33h-439v-389h-32v389h-170v33h170v227h-170v33h170v698h374q195 0 295.5 -100t100.5 -264z" />
    <glyph glyph-name="uni2105" unicode="&#x2105;" horiz-adv-x="1556" 
d="M370 1368q-118 0 -193 -91t-75 -255t75 -256t193 -92t187 62q68 62 78 163h33q-10 -115 -87 -185t-210 -71q-133 0 -217 100q-84 99 -84 277t84 279t217 101t210 -69q77 -70 87 -180h-33q-10 97 -78 157q-69 60 -187 60zM350 0l807 1380h37l-807 -1380h-37zM1165 12
q135 0 212 92t77 254t-77 254t-212 92t-212 -92t-77 -254t78 -254q76 -92 211 -92zM1487 358q0 -176 -86 -277t-236 -101q-149 0 -235 101t-86 277t86 278t236 101q150 0 235 -101q86 -102 86 -278z" />
    <glyph glyph-name="uni2113" unicode="&#x2113;" horiz-adv-x="886" 
d="M629 1020q0 184 -48.5 266t-127.5 82q-53 0 -99.5 -44t-46.5 -298v-569q152 22 237 160.5t85 402.5zM307 229q1 -213 155 -213q72 0 124 21v-33q-51 -20 -107 -20q-205 0 -205 245v191h-30q-53 0 -101 10v33q51 -10 101 -10l30 2v571q0 209 43 292t137 83t151 -91
t57 -290q0 -281 -94.5 -427.5t-260.5 -168.5v-195z" />
    <glyph glyph-name="uni2116" unicode="&#x2116;" horiz-adv-x="2191" 
d="M1511 274v33h578v-33h-578zM1511 835.5q0 -161.5 77 -254t212 -92.5t212 92.5t77 254t-77 254t-212 92.5t-212 -92.5t-77 -254zM2122 835.5q0 -176.5 -86 -277.5t-235.5 -101t-235.5 101t-86 277.5t86 277.5t235.5 101t235.5 -101t86 -277.5zM248 1427v-1427h-33v1458h53
l953 -1427h2v1427h32v-1458h-53l-952 1427h-2z" />
    <glyph glyph-name="uni2117" unicode="&#x2117;" horiz-adv-x="1683" 
d="M608 709h303q141 0 214 66.5t73 175t-72.5 175t-214.5 66.5h-303v-483zM1231 950q0 -123 -82 -198.5t-238 -75.5h-303v-471h-33v1020h336q156 0 238 -76t82 -199zM145 729q0 -213 87 -376t245 -252t365 -89t364.5 89t244.5 252t87 376t-87 376t-244.5 252t-364.5 89
t-365 -89t-245 -252t-87 -376zM1571 729q0 -221 -91 -391t-257 -264t-381 -94t-381 94t-257 264t-91 391t91 391t257 264.5t381 94.5t381 -94.5t257 -264.5t91 -391z" />
    <glyph glyph-name="trademark" unicode="&#x2122;" horiz-adv-x="1484" 
d="M1343 729v690h-2l-282 -690h-43l-283 690h-2v-690h-33v729h56l282 -692h2l283 692h55v-729h-33zM313 1425v-696h-32v696h-271v33h574v-33h-271z" />
    <glyph glyph-name="Omega" unicode="&#x2126;" horiz-adv-x="1462" 
d="M946 33h420v-33h-463v33q199 205 303 389t105 409q0 301 -158 458t-422 157t-422 -157t-157 -458q0 -225 104 -409t303 -389v-33h-463v33h420v2q-190 197 -294 384q-103 187 -103 412q0 317 167 483q168 166 446 165q278 0 445 -165t166 -483q0 -225 -103 -412t-294 -384
v-2z" />
    <glyph glyph-name="estimated" unicode="&#x212e;" horiz-adv-x="1753" 
d="M385 1075v-340q0 -25 27 -24h925q27 0 27 24v340q0 56 -31 82q-193 190 -460 190t-457 -190q-31 -28 -31 -82zM1655 666h-1243q-12 0 -19.5 -7.5t-7.5 -17.5v-340q0 -62 31 -88q190 -186 461 -186q147 0 275 60t212 163h139q-82 -113 -240.5 -194t-387.5 -81t-406.5 91.5
t-275 252t-97.5 364.5t95.5 366.5t272 257t414.5 94.5t414 -99.5t269.5 -267.5t93.5 -368z" />
    <glyph glyph-name="oneeighth" unicode="&#x215b;" horiz-adv-x="1269" 
d="M205 553v731h-2q-41 -74 -185 -74v33q90 0 134 31q43 31 53 106h33v-827h-33zM68 0l806 1380h37l-807 -1380h-36zM694 217q0 -86 65 -141q65 -56 173 -56t174 56q64 56 64 141q0 86 -68 140t-170 54t-170 -54t-68 -140zM713 625q0 -82 60 -131q61 -50 159 -50t158 50
t61 131q0 82 -59 133t-160 51t-160 -51t-59 -133zM1184 635q0 -86 -46 -136t-120 -69v-2q84 -20 134 -74t50 -145q0 -92 -74 -157q-74 -64 -196 -64t-197 64q-73 64 -73 157q1 173 184 219v2q-74 18 -120 68t-46 137q0 86 70 146t182 60t182 -60t70 -146z" />
    <glyph glyph-name="threeeighths" unicode="&#x215c;" horiz-adv-x="1554" 
d="M414 975q182 -38 182 -215q0 -92 -77 -157t-197 -65t-190 66q-71 66 -71 174h33q0 -94 62 -150t166 -56q106 0 174 54q68 56 68 144t-66 138t-183 50h-53v33h53q109 0 169 50q60 49 60 135t-60 136q-62 50 -164 50t-162 -53q-59 -53 -60 -150h-32q0 111 69 173t185 62
t187 -60t71 -156q0 -154 -164 -201v-2zM352 0l807 1380h37l-807 -1380h-37zM979 217q1 -86 65 -141q64 -56 173 -56t173 56t64 141q0 86 -68 140t-170 54t-169 -54q-68 -54 -68 -140zM1216 809q-100 0 -159 -51t-59 -133t60 -131q60 -50 158 -50t159 50t61 131q0 82 -60 133
t-160 51zM1487 209q0 -92 -74 -157q-75 -64 -197 -64t-196 64t-74 157q0 173 184 219v2q-74 18 -120 68t-45 137q0 86 69 146q70 60 182 60t183 -60q69 -60 69 -146t-46 -136t-119 -69v-2q84 -20 134 -74t50 -145z" />
    <glyph glyph-name="fiveeighths" unicode="&#x215d;" horiz-adv-x="1548" 
d="M551 1380v-32h-395l-35 -359h4q63 96 193 96q130 -1 200 -73t70 -197t-74 -201t-191 -76t-183 62q-66 61 -64 166h33q0 -92 56 -143q55 -51 159 -51t168 66q63 68 63 178t-61 173t-168 64q-169 0 -213 -156l-35 2l47 481h426zM346 0l807 1380h37l-807 -1380h-37z
M1448 217q0 86 -68 140t-170 54t-170 -54t-68 -140t66 -141q64 -56 172 -56t174 56q64 56 64 141zM1210 809q-100 0 -159 -51t-59 -133t60 -131q60 -50 158 -50t158 50t62 131q0 82 -60 133t-160 51zM1481 209q0 -92 -74 -157q-74 -64 -197 -64q-122 0 -196 64t-74 157
q0 173 184 219v2q-74 18 -120 68t-46 137q0 86 70 146t182 60t183 -60q69 -60 69 -146t-46 -136t-120 -69v-2q84 -20 134 -74t51 -145z" />
    <glyph glyph-name="seveneighths" unicode="&#x215e;" horiz-adv-x="1368" 
d="M18 1348v32h547v-32q-117 -171 -205 -360t-147 -435h-35q61 256 149 443q87 187 201 352h-510zM166 0l807 1380h37l-807 -1380h-37zM1268 217q0 86 -68 140t-170 54t-170 -54t-68 -140t66 -141q64 -56 172 -56t174 56q64 56 64 141zM811 625q0 -82 60 -131
q61 -50 159 -50t158 50t61 131q0 82 -59 133t-160 51t-160 -51t-59 -133zM1282 635q0 -86 -46 -136t-120 -69v-2q84 -20 134 -74t50 -145q0 -92 -74 -157q-74 -64 -196 -64t-196 64t-74 157q0 173 184 219v2q-74 18 -120 68t-46 137q0 86 70 146t182 60t182 -60t70 -146z
" />
    <glyph glyph-name="Sevenroman" unicode="&#x2166;" horiz-adv-x="2123" 
d="M598 0l-582 1458h35l567 -1423h3l567 1423h35l-582 -1458h-43zM1413 0v1458h33v-1458h-33zM1876 0v1458h33v-1458h-33z" />
    <glyph glyph-name="partialdiff" unicode="&#x2202;" horiz-adv-x="1159" 
d="M150 452q0 -210 95 -325t277 -115q125 0 217 70t141.5 183.5t49.5 239.5t-47 222t-132 149.5t-196 53.5q-190 0 -297.5 -134t-107.5 -344zM991 709q0 -244 -60.5 -408t-166 -242.5t-242.5 -78.5q-197 0 -301 125.5t-104 340.5q0 150 52 266.5t150.5 183.5t248.5 67
t258 -105.5t128 -286.5h2q4 43 5 138q0 369 -110 553t-319 184q-297 0 -331 -301h-33q16 156 106.5 245t257.5 89q224 0 341.5 -193.5t117.5 -576.5z" />
    <glyph glyph-name="Delta" unicode="&#x2206;" horiz-adv-x="1296" 
d="M1237 33l-588 1392h-2l-586 -1392h1176zM12 0l615 1458h43l614 -1458h-1272z" />
    <glyph glyph-name="product" unicode="&#x220f;" horiz-adv-x="1280" 
d="M1032 -246v1671h-784v-1671h-33v1704h850v-1704h-33z" />
    <glyph glyph-name="summation" unicode="&#x2211;" horiz-adv-x="911" 
d="M840 -213v-33h-768v33l491 809l-491 829v33h768v-33h-731l491 -829l-491 -809h731z" />
    <glyph glyph-name="minus" unicode="&#x2212;" horiz-adv-x="1159" 
d="M154 633v33h852v-33h-852z" />
    <glyph glyph-name="uni2215" unicode="&#x2215;" horiz-adv-x="808" 
d="M61 -182l609 1708h35l-609 -1708h-35z" />
    <glyph glyph-name="uni2219" unicode="&#x2219;" horiz-adv-x="520" 
d="M242 553v147h37v-147h-37z" />
    <glyph glyph-name="radical" unicode="&#x221a;" horiz-adv-x="989" 
d="M51 655v33h189l204 -860h5l464 1630h35l-487 -1704h-33l-213 901h-164z" />
    <glyph glyph-name="infinity" unicode="&#x221e;" horiz-adv-x="1122" 
d="M1059 631q0 94 -53.5 152.5t-142.5 58.5t-151.5 -53.5t-131.5 -157.5q70 -104 132 -157.5t151 -53.5t142.5 58.5t53.5 152.5zM259 842q-89 0 -142.5 -58.5t-53.5 -152.5t53.5 -152.5t142.5 -58.5t151.5 53t132.5 158q-70 104 -132.5 157.5t-151.5 53.5zM1092 630.5
q0 -108.5 -62.5 -176t-163 -67.5t-166 55.5t-139.5 161.5q-74 -106 -139.5 -161.5t-165.5 -55.5t-162.5 67.5t-62.5 176t62.5 176t162.5 67.5t165.5 -55t139.5 -162q74 106 139.5 161.5t166 55.5t163 -67.5t62.5 -176z" />
    <glyph glyph-name="integral" unicode="&#x222b;" horiz-adv-x="540" 
d="M254 1217q0 247 203 247q28 0 53 -6v-33q-23 6 -53 7q-170 0 -170 -215v-1354q0 -123 -52.5 -185.5t-150.5 -62.5q-29 0 -53 6v33q20 -6 53 -6q170 0 170 215v1354z" />
    <glyph glyph-name="approxequal" unicode="&#x2248;" horiz-adv-x="1159" 
d="M809 385q70 0 117 56.5t47 148.5h33q0 -106 -57.5 -172t-137.5 -66t-127.5 29t-111.5 88t-107 87t-113 28t-118 -56.5t-48 -148.5h-32q0 106 57 171.5t138 65.5t130 -30.5t111 -87.5t105.5 -85t113.5 -28zM809 715q70 0 117 56t47 149h33q0 -106 -57.5 -172t-137.5 -66
t-127.5 28t-111.5 88t-107 87.5t-114 27.5t-118 -56t-47 -148h-32q0 106 57 171.5t138 65.5t130 -30t111 -88t105.5 -85.5t113.5 -27.5z" />
    <glyph glyph-name="notequal" unicode="&#x2260;" horiz-adv-x="1159" 
d="M1006 537v-33h-510l-222 -303h-38l219 303h-301v33h325l162 223h-487v33h512l219 303h41l-221 -303h301v-33h-324l-164 -223h488z" />
    <glyph glyph-name="lessequal" unicode="&#x2264;" horiz-adv-x="1159" 
d="M1006 0h-852v33h852v-33zM186 651v-4l820 -375v-36l-852 391v45l852 391v-37z" />
    <glyph glyph-name="greaterequal" unicode="&#x2265;" horiz-adv-x="1159" 
d="M154 0v33h852v-33h-852zM1006 627l-852 -391v36l819 375v4l-819 375v37l852 -391v-45z" />
    <glyph glyph-name="lozenge" unicode="&#x25ca;" horiz-adv-x="1089" 
d="M545 31l426 698l-426 698l-426 -698zM563 0h-37l-444 729l444 729h37l445 -729z" />
    <glyph glyph-name="uniF8FF" unicode="&#xf8ff;" horiz-adv-x="1187" 
d="M528 133v117h37v-117h-37zM907 1034q0 -86 -37 -147t-128 -139t-124 -122t-45 -102t-12 -164h-26v35q0 91 13 149t48 104q36 46 122 121t122 131q35 56 34 134q0 110 -80 180t-209 70q-128 0 -206 -73t-86 -205h-33q10 150 97 230t229 81q142 0 231 -79q90 -79 90 -204z
M94 113q0 -97 58 -155t155 -58h574q98 0 155 57t58 156v1233q0 98 -58 155t-155 58h-574q-98 -1 -155 -58t-58 -155v-1233zM1126 113q0 -115 -66 -181t-179 -65h-574q-113 -1 -179 65t-67 181v1233q0 114 67 180t179 65h574q114 1 180 -65t65 -180v-1233z" />
    <glyph glyph-name="ff" unicode="&#xfb00;" horiz-adv-x="960" 
d="M674 1217q0 247 203 247q29 0 53 -6v-33q-23 6 -53 7q-170 0 -170 -215v-177h221v-32h-221v-1008h-33v1008h-414v-1008h-33v1008h-196v32h196v177q1 123 53 185t150 62q29 0 53 -6v-33q-20 6 -53 7q-170 0 -170 -215v-177h414v177z" />
    <glyph glyph-name="fi" unicode="&#xfb01;" horiz-adv-x="919" 
d="M733 1040v-1040h-33v1040h33zM733 1300h-33v158h33v-158zM430 1464q29 0 53 -6v-33q-20 6 -53 7q-170 0 -170 -215v-177h221v-32h-221v-1008h-33v1008h-196v32h196v177q0 122 52.5 184.5t150.5 62.5z" />
    <glyph glyph-name="fl" unicode="&#xfb02;" horiz-adv-x="919" 
d="M260 1217v-177h221v-32h-221v-1008h-33v1008h-196v32h196v177q1 123 53 185t150 62q29 0 53 -6v-33q-20 6 -53 7q-170 0 -170 -215zM700 0v1458h33v-1458h-33z" />
    <glyph glyph-name="ffi" unicode="&#xfb03;" horiz-adv-x="1366" 
d="M1180 1040v-1040h-33v1040h33zM1180 1300h-33v158h33v-158zM674 1217q0 247 203 247q29 0 53 -6v-33q-23 6 -53 7q-170 0 -170 -215v-177h221v-32h-221v-1008h-33v1008h-414v-1008h-33v1008h-196v32h196v177q1 123 53 185t150 62q29 0 53 -6v-33q-20 6 -53 7
q-170 0 -170 -215v-177h414v177z" />
    <glyph glyph-name="ffl" unicode="&#xfb04;" horiz-adv-x="1366" 
d="M1180 0h-33v1458h33v-1458zM877 1464q29 0 53 -6v-33q-23 6 -53 7q-170 0 -170 -215v-177h221v-32h-221v-1008h-33v1008h-414v-1008h-33v1008h-196v32h196v177q0 123 52.5 185t150.5 62q29 0 53 -6v-33q-20 6 -53 7q-170 0 -170 -215v-177h414v177q0 122 52 184.5
t151 62.5z" />
    <glyph glyph-name="uniFEFF" unicode="&#xfeff;" horiz-adv-x="0" 
 />
    <glyph glyph-name="J.acute.loclNLD" horiz-adv-x="620" 
d="M111 -8q-45 0 -80 10v33q41 -10 80 -10q131 0 201.5 82.5t70.5 242.5v1108h33v-1108q0 -174 -80 -266t-225 -92zM301 1593l193 283h43l-201 -283h-35z" />
    <glyph glyph-name="Ccedilla.ss01" horiz-adv-x="1351" 
d="M692.5 1446q-161.5 0 -292 -88t-201 -250t-70.5 -379t68.5 -379t195.5 -250t286.5 -88t271.5 59.5t178.5 165t80.5 240.5h33q-16 -145 -86 -258t-189.5 -176t-287.5 -63t-303 92t-208 261t-73 396t75 396t213 261.5t309 92.5t288 -66.5t181.5 -178.5t72.5 -249h-33
q-10 129 -69.5 233.5t-169 166t-271 61.5zM471 -424l258 324h37l-250 -324h-45z" />
    <glyph glyph-name="Scedilla.ss01" horiz-adv-x="1179" 
d="M1022 993h-33q0 453 -434 453q-180 0 -285.5 -91t-105.5 -243q0 -104 43 -168.5t130 -104.5t252 -80t260 -82t146.5 -117t51.5 -206q0 -174 -122 -274t-346.5 -100t-348.5 126.5t-124 380.5h33q0 -475 453 -475q199 0 310.5 91.5t111.5 250.5q0 123 -48 191.5
t-135.5 104.5t-254.5 77t-259 86t-139 115.5t-47 183.5q0 166 115.5 266.5t327.5 100.5t330 -122t118 -364zM352 -424l258 324h37l-250 -324h-45z" />
    <glyph glyph-name="uni0162.ss01" horiz-adv-x="1163" 
d="M598 1425v-1425h-33v1425h-555v33h1143v-33h-555zM354 -424l258 324h37l-250 -324h-45z" />
    <glyph glyph-name="i.loclTRK" horiz-adv-x="405" 
d="M186 0v1040h33v-1040h-33zM186 1300v158h33v-158h-33z" />
    <glyph glyph-name="j.acute.loclNLD" horiz-adv-x="428" 
d="M18 -383q-20 0 -36 4v33q16 -4 36 -4q96 0 143.5 55t47.5 197v1138h33v-1138q0 -156 -56.5 -220.5t-167.5 -64.5zM127 1176l192 282h43l-200 -282h-35z" />
    <glyph glyph-name="ccedilla.ss01" horiz-adv-x="1009" 
d="M532 1028q-188 0 -294.5 -134t-106.5 -373.5t106.5 -374t294.5 -134.5q147 0 243.5 90.5t111.5 239.5h33q-14 -164 -120 -263t-268 -99q-203 0 -318.5 143t-115.5 397t116 397.5t318 143.5q162 0 267.5 -97.5t120.5 -254.5h-33q-12 143 -109.5 231t-245.5 88zM305 -424
l258 324h37l-250 -324h-45z" />
    <glyph glyph-name="scedilla.ss01" horiz-adv-x="915" 
d="M791 705h-33q0 152 -84 237.5t-223.5 85.5t-222.5 -65.5t-83 -174.5q0 -74 32 -115.5t93.5 -66t188 -52.5t206.5 -60.5t118 -87t38 -144.5q0 -125 -97 -203.5t-264 -78.5t-268.5 99t-101.5 277h33q0 -164 92 -254t244.5 -90t240.5 70t88 166t-35.5 143t-107.5 76t-199 55
q-126 28 -194 56q-138 58 -139 210q0 123 93 198t245.5 75t246 -95.5t93.5 -260.5zM229 -424l258 324h37l-250 -324h-45z" />
    <glyph glyph-name="uni0163.ss01" horiz-adv-x="552" 
d="M416 -4q-98 0 -143.5 56.5t-45.5 180.5v775h-198v32h198v240h33v-240h217v-32h-217v-775q0 -111 36 -157.5t120 -46.5q34 0 71 8v-33q-37 -8 -71 -8zM86 -424l258 324h37l-250 -324h-45z" />
    <glyph glyph-name="a.sups" horiz-adv-x="733" 
d="M94 861q0 -77 58 -123t170 -46t186 80q41 47 56.5 90t15.5 127v88q-186 -20 -282 -34t-150 -59.5t-54 -122.5zM59 862q0 90 61.5 142.5t174.5 68.5t285 35v45q0 121 -58.5 178.5t-164.5 57.5t-165 -55.5t-67 -147.5h-33q8 106 78 169.5t188 63.5t186 -66.5t68 -201.5
v-315q0 -92 15 -160h-33q-12 78 -12 151h-2q-78 -165 -275 -165q-111 0 -178.5 55t-67.5 145z" />
    <glyph glyph-name="b.sups" horiz-adv-x="804" 
d="M164 1040.5q0 -161.5 69.5 -255t194.5 -93.5t199.5 93.5t74.5 255t-74.5 255t-199.5 93.5t-194.5 -93.5t-69.5 -255zM424 1419q143 0 227 -101t84 -277.5t-83 -277.5t-228 -101q-102 0 -171 59t-93 166h-2q6 -70 6 -211h-33v1020h33v-291q0 -141 -6 -211h2
q25 106 93.5 165.5t170.5 59.5z" />
    <glyph glyph-name="c.sups" horiz-adv-x="731" 
d="M370 1386q-118 0 -193 -91t-75 -254.5t75 -256t193 -92.5t186.5 62.5t78.5 163.5h33q-10 -115 -87 -185.5t-210 -70.5t-217 100t-84 277t84 278.5t217 101.5t209.5 -69.5t87.5 -180.5h-33q-10 96 -78.5 156.5t-186.5 60.5z" />
    <glyph glyph-name="d.sups" horiz-adv-x="804" 
d="M102 1040.5q0 -161.5 75 -255t200 -93.5t194.5 93.5t69.5 255t-69.5 255t-194.5 93.5t-200 -93.5t-75 -255zM674 676h-33v184h-2q-29 -94 -95.5 -146t-162.5 -52q-145 0 -228 101t-83 277.5t84 277.5t227 101q96 0 162.5 -52t95.5 -146h2v475h33v-1020z" />
    <glyph glyph-name="e.sups" horiz-adv-x="763" 
d="M380 1386q-126 0 -200 -86t-78 -227h560q-2 150 -79 231.5t-203 81.5zM377.5 662q-134.5 0 -221 106t-86.5 279.5t84 272.5t217 99q133 -1 213 -71q110 -97 110 -306h-592q2 -162 81 -255t197 -93t187.5 53.5t83.5 143.5h33q-16 -104 -94 -166.5t-212.5 -62.5z" />
    <glyph glyph-name="egrave.sups" horiz-adv-x="763" 
d="M380 1386q-126 0 -200 -86t-78 -227h560q-2 150 -79 231.5t-203 81.5zM377.5 662q-134.5 0 -221 106t-86.5 279.5t84 272.5t217 99q133 -1 213 -71q110 -97 110 -306h-592q2 -162 81 -255t197 -93t187.5 53.5t83.5 143.5h33q-16 -104 -94 -166.5t-212.5 -62.5zM250 1696
h45l158 -197h-37z" />
    <glyph glyph-name="f.sups" horiz-adv-x="378" 
d="M313 1669q-116 0 -116 -145v-119h157v-33h-157v-696h-33v696h-141v33h141v119q0 178 149 178q25 0 43 -6v-33q-18 6 -43 6z" />
    <glyph glyph-name="g.sups" horiz-adv-x="806" 
d="M102 1052.5q0 -155.5 75 -244.5t201 -89t195.5 89t69.5 244.5t-69.5 244.5t-195.5 89t-201 -89t-75 -244.5zM70 1053q0 168 84 267t229 99q96 0 165.5 -56t98.5 -159h2q-6 66 -6 201h33v-684q0 -156 -75 -237t-213 -81t-214 60.5t-76 167.5h33q0 -92 66.5 -144.5
t181.5 -52.5q264 0 264 287q0 117 6 178h-2q-63 -213 -264 -213q-145 0 -229 99.5t-84 267.5z" />
    <glyph glyph-name="h.sups" horiz-adv-x="794" 
d="M674 1118v-442h-33v442q0 135 -58.5 201.5t-164.5 66.5t-180 -72.5t-74 -185.5v-452h-33v1020h33v-291q0 -113 -6 -170h2q29 88 100.5 136t157.5 48q123 0 189.5 -76.5t66.5 -224.5z" />
    <glyph glyph-name="i.sups" horiz-adv-x="294" 
d="M131 676v729h33v-729h-33zM131 1583v113h33v-113h-33z" />
    <glyph glyph-name="j.sups" horiz-adv-x="313" 
d="M16 408q-12 0 -28 4v32q16 -4 28 -4q68 0 101 36t33 130v799h32v-799q0 -106 -42 -152t-124 -46zM150 1583v113h32v-113h-32z" />
    <glyph glyph-name="k.sups" horiz-adv-x="653" 
d="M164 1063v-387h-33v1020h33v-613h2l399 322h51l-413 -332l456 -397h-49l-444 387h-2z" />
    <glyph glyph-name="l.sups" horiz-adv-x="294" 
d="M131 676v1020h33v-1020h-33z" />
    <glyph glyph-name="m.sups" horiz-adv-x="1200" 
d="M1047 1130q0 256 -205 256q-96 0 -158.5 -67.5t-62.5 -175.5v-467h-33v485q0 104 -53.5 164.5t-149.5 60.5t-158.5 -71.5t-62.5 -196.5v-442h-33v729h33q0 -106 -6 -160h2q27 80 87 127t144 47t143.5 -48t75.5 -130q25 82 87.5 130t160.5 48t159.5 -72.5t61.5 -213.5
v-457h-32v454z" />
    <glyph glyph-name="n.sups" horiz-adv-x="794" 
d="M674 1118v-442h-33v442q0 135 -58.5 201.5t-164.5 66.5t-180 -72.5t-74 -185.5v-452h-33v729h33q0 -113 -6 -170h2q29 88 100.5 136t157.5 48q123 0 189.5 -76.5t66.5 -224.5z" />
    <glyph glyph-name="o.sups" horiz-adv-x="782" 
d="M102 1040.5q0 -161.5 77 -254t212 -92.5t212 92.5t77 254t-77 253.5t-212 92t-212 -92t-77 -253.5zM713 1040.5q0 -176.5 -86 -277.5t-235.5 -101t-235.5 101t-86 277.5t86 277.5t235.5 101t235.5 -101t86 -277.5z" />
    <glyph glyph-name="p.sups" horiz-adv-x="804" 
d="M164 1040.5q0 -161.5 69.5 -255t194.5 -93.5t199.5 93.5t74.5 255t-74.5 255t-199.5 93.5t-194.5 -93.5t-69.5 -255zM424 1419q143 0 227 -101t84 -277.5t-83 -277.5t-228 -101q-102 0 -171 59t-93 166h-2q6 -70 6 -211v-264h-33v993h33q0 -141 -6 -211h2
q25 106 93.5 165.5t170.5 59.5z" />
    <glyph glyph-name="q.sups" horiz-adv-x="804" 
d="M102 1040.5q0 -161.5 75 -255t200 -93.5t194.5 93.5t69.5 255t-69.5 255t-194.5 93.5t-200 -93.5t-75 -255zM641 1221v184h33v-993h-33v448h-2q-29 -94 -95.5 -146t-162.5 -52q-145 0 -228 101t-83 277.5t84 277.5t227 101q96 0 162.5 -52t95.5 -146h2z" />
    <glyph glyph-name="r.sups" horiz-adv-x="475" 
d="M412 1374q-113 0 -180.5 -72.5t-67.5 -211.5v-414h-33v729h33q0 -123 -6 -180h2q27 88 92 135t160 47q18 0 43 -4v-33q-25 4 -43 4z" />
    <glyph glyph-name="s.sups" horiz-adv-x="663" 
d="M575 1169h-32q0 102 -58.5 159.5t-156.5 57.5t-156.5 -44t-58.5 -115.5t46.5 -100t156.5 -53.5t196 -58.5t86 -154.5q0 -88 -70.5 -143t-192.5 -55t-197 69.5t-75 192.5h33q0 -109 65 -169.5t173 -60.5t169.5 46t61.5 110t-24.5 96.5t-76.5 52t-163 43.5t-166 61.5
t-55 123.5t67 139t179 53t180.5 -66.5t68.5 -183.5z" />
    <glyph glyph-name="t.sups" horiz-adv-x="403" 
d="M195 844q0 -139 97 -139q46 0 66 6v-33q-20 -6 -51 -6q-76 0 -110.5 42t-34.5 130v528h-142v33h142v168h33v-168h155v-33h-155v-528z" />
    <glyph glyph-name="u.sups" horiz-adv-x="794" 
d="M121 963v442h33v-442q0 -135 58 -202t164 -67t180.5 73t74.5 185v453h33v-729h-33v149h-2q-33 -78 -101.5 -120.5t-150.5 -42.5q-121 0 -188.5 76.5t-67.5 224.5z" />
    <glyph glyph-name="v.sups" horiz-adv-x="641" 
d="M297 676l-295 729h35l282 -696h3l282 696h35l-295 -729h-47z" />
    <glyph glyph-name="w.sups" horiz-adv-x="1091" 
d="M784 676l-237 698h-2l-238 -698h-47l-246 729h33l236 -696h2l235 696h51l236 -696h2l235 696h33l-246 -729h-47z" />
    <glyph glyph-name="x.sups" horiz-adv-x="657" 
d="M651 676h-41l-280 352h-2l-281 -352h-41l301 379l-276 350h41l256 -326h2l256 326h41l-277 -350z" />
    <glyph glyph-name="y.sups" horiz-adv-x="641" 
d="M81 406q-46 0 -71 6v32q23 -8 66 -8t95.5 28t127.5 210l-297 731h35l278 -686h2l287 686h35l-311 -741q-82 -196 -141.5 -227t-105.5 -31z" />
    <glyph glyph-name="z.sups" horiz-adv-x="651" 
d="M66 709h557v-33h-594v41l542 653v2h-528v33h565v-41l-542 -653v-2z" />
    <glyph glyph-name="a.smcp" horiz-adv-x="1071" 
d="M823 446l-286 646h-2l-289 -646h577zM231 414l-184 -414h-35l502 1122h43l502 -1122h-35l-184 414h-609z" />
    <glyph glyph-name="aacute.smcp" horiz-adv-x="1071" 
d="M823 446l-286 646h-2l-289 -646h577zM231 414l-184 -414h-35l502 1122h43l502 -1122h-35l-184 414h-609zM438 1257l193 283h43l-201 -283h-35z" />
    <glyph glyph-name="abreve.smcp" horiz-adv-x="1071" 
d="M823 446l-286 646h-2l-289 -646h577zM231 414l-184 -414h-35l502 1122h43l502 -1122h-35l-184 414h-609zM537 1280q-129 0 -206 68.5t-89 191.5h32q12 -111 79 -169t183.5 -58t183 58.5t79.5 168.5h32q-12 -123 -88.5 -191.5t-205.5 -68.5z" />
    <glyph glyph-name="acircumflex.smcp" horiz-adv-x="1071" 
d="M823 446l-286 646h-2l-289 -646h577zM231 414l-184 -414h-35l502 1122h43l502 -1122h-35l-184 414h-609zM537 1509l-218 -252h-43l244 283h33l244 -283h-43z" />
    <glyph glyph-name="adieresis.smcp" horiz-adv-x="1071" 
d="M823 446l-286 646h-2l-289 -646h577zM231 414l-184 -414h-35l502 1122h43l502 -1122h-35l-184 414h-609zM709 1382v158h32v-158h-32zM332 1382v158h33v-158h-33z" />
    <glyph glyph-name="agrave.smcp" horiz-adv-x="1071" 
d="M823 446l-286 646h-2l-289 -646h577zM231 414l-184 -414h-35l502 1122h43l502 -1122h-35l-184 414h-609zM637 1257h-35l-201 283h43z" />
    <glyph glyph-name="amacron.smcp" horiz-adv-x="1071" 
d="M823 446l-286 646h-2l-289 -646h577zM231 414l-184 -414h-35l502 1122h43l502 -1122h-35l-184 414h-609zM305 1409v33h463v-33h-463z" />
    <glyph glyph-name="aogonek.smcp" horiz-adv-x="1071" 
d="M823 446l-286 646h-2l-289 -646h577zM982.5 -387q-55.5 0 -92 36t-36.5 101.5t38 123.5t128 134l-180 406h-609l-184 -414h-35l502 1122h43l502 -1122q-96 -78 -134 -134t-38 -116q0 -104 112 -104q39 0 66 10v-33q-27 -10 -82.5 -10z" />
    <glyph glyph-name="aring.smcp" horiz-adv-x="1071" 
d="M823 446l-286 646h-2l-289 -646h577zM231 414l-184 -414h-35l502 1122h43l502 -1122h-35l-184 414h-609zM397 1469.5q0 -58.5 41 -99.5t99.5 -41t98.5 41t40 99t-40 98.5t-98.5 40.5t-99.5 -40t-41 -98.5zM709 1468.5q0 -71.5 -50.5 -122t-122 -50.5t-121.5 50.5t-50 122
t51 121.5t121.5 50t121 -50t50.5 -121.5z" />
    <glyph glyph-name="atilde.smcp" horiz-adv-x="1071" 
d="M823 446l-286 646h-2l-289 -646h577zM231 414l-184 -414h-35l502 1122h43l502 -1122h-35l-184 414h-609zM698.5 1354q-51.5 0 -87.5 17.5t-82 51t-77.5 49t-73.5 15.5t-70.5 -34t-33.5 -99h-32q6 80 44 123t89 43t87 -17.5t82 -51.5t77.5 -49.5t73.5 -15.5t71 34t33 100
h32q-6 -80 -43.5 -123t-89 -43z" />
    <glyph glyph-name="ae.smcp" horiz-adv-x="1542" 
d="M684 1090h-35l-350 -615h489zM1421 0h-553l-75 442h-514l-252 -442h-37l641 1122h768v-32h-682l84 -496h569v-33h-565l92 -528h524v-33z" />
    <glyph glyph-name="b.smcp" horiz-adv-x="1036" 
d="M225 33h334q154 0 239 70.5t85 191.5t-89 192.5t-268 71.5h-301v-526zM225 592h301q168 0 248 70.5t80 184.5t-82 178.5t-246 64.5h-301v-498zM887 856q0 -119 -65.5 -190.5t-180.5 -87.5v-3q123 -14 198.5 -87.5t75.5 -199.5t-94 -207t-262 -81h-366v1122h333
q179 0 270 -73.5t91 -192.5z" />
    <glyph glyph-name="c.smcp" horiz-adv-x="1132" 
d="M605.5 1110q-160.5 0 -266.5 -67.5t-163 -191.5t-57 -290t55 -290t158.5 -191.5t262 -67.5t272.5 98.5t130 254.5h33q-18 -172 -139 -278.5t-316 -106.5q-147 0 -257.5 71.5t-171 202.5t-60.5 307t61.5 307t175 203t254 72t236.5 -50.5t149.5 -137.5t61.5 -193h-33
q-12 150 -118.5 249t-267 99z" />
    <glyph glyph-name="cacute.smcp" horiz-adv-x="1132" 
d="M605.5 1110q-160.5 0 -266.5 -67.5t-163 -191.5t-57 -290t55 -290t158.5 -191.5t262 -67.5t272.5 98.5t130 254.5h33q-18 -172 -139 -278.5t-316 -106.5q-147 0 -257.5 71.5t-171 202.5t-60.5 307t61.5 307t175 203t254 72t236.5 -50.5t149.5 -137.5t61.5 -193h-33
q-12 150 -118.5 249t-267 99zM489 1257l193 283h43l-201 -283h-35z" />
    <glyph glyph-name="ccaron.smcp" horiz-adv-x="1132" 
d="M605.5 1110q-160.5 0 -266.5 -67.5t-163 -191.5t-57 -290t55 -290t158.5 -191.5t262 -67.5t272.5 98.5t130 254.5h33q-18 -172 -139 -278.5t-316 -106.5q-147 0 -257.5 71.5t-171 202.5t-60.5 307t61.5 307t175 203t254 72t236.5 -50.5t149.5 -137.5t61.5 -193h-33
q-12 150 -118.5 249t-267 99zM571 1257l-243 283h43l217 -252l217 252h43l-244 -283h-33z" />
    <glyph glyph-name="ccedilla.smcp" horiz-adv-x="1132" 
d="M588 -135q80 0 123 -37t43 -102.5t-49.5 -105.5t-137.5 -40t-172 47l17 29q74 -43 152.5 -43t117.5 30.5t39 84.5q0 106 -133 106q-37 0 -68 -10l-22 22l90 134h-13q-147 0 -257.5 71.5t-171 202.5t-60.5 307t61.5 307t175 203t254 72t236.5 -50.5t149.5 -137.5
t61.5 -193h-33q-12 150 -118.5 249t-267 99t-266.5 -67.5t-163 -191.5t-57 -290t55 -290t158.5 -191.5t262 -67.5t272.5 98.5t130 254.5h33q-16 -160 -122.5 -264.5t-278.5 -118.5l-84 -123q18 6 43 6z" />
    <glyph glyph-name="ccircumflex.smcp" horiz-adv-x="1132" 
d="M605.5 1110q-160.5 0 -266.5 -67.5t-163 -191.5t-57 -290t55 -290t158.5 -191.5t262 -67.5t272.5 98.5t130 254.5h33q-18 -172 -139 -278.5t-316 -106.5q-147 0 -257.5 71.5t-171 202.5t-60.5 307t61.5 307t175 203t254 72t236.5 -50.5t149.5 -137.5t61.5 -193h-33
q-12 150 -118.5 249t-267 99zM588 1509l-217 -252h-43l243 283h33l244 -283h-43z" />
    <glyph glyph-name="cdotaccent.smcp" horiz-adv-x="1132" 
d="M605.5 1110q-160.5 0 -266.5 -67.5t-163 -191.5t-57 -290t55 -290t158.5 -191.5t262 -67.5t272.5 98.5t130 254.5h33q-18 -172 -139 -278.5t-316 -106.5q-147 0 -257.5 71.5t-171 202.5t-60.5 307t61.5 307t175 203t254 72t236.5 -50.5t149.5 -137.5t61.5 -193h-33
q-12 150 -118.5 249t-267 99zM571 1382v158h33v-158h-33z" />
    <glyph glyph-name="d.smcp" horiz-adv-x="1214" 
d="M225 33h297q279 0 426.5 136t147.5 392t-147.5 392.5t-426.5 136.5h-297v-1057zM1128 561q0 -270 -156.5 -415.5t-449.5 -145.5h-329v1122h329q293 0 449.5 -145.5t156.5 -415.5z" />
    <glyph glyph-name="eth.smcp" horiz-adv-x="1216" 
d="M1098 561q0 256 -147.5 392.5t-426.5 136.5h-297v-506h410v-33h-410v-518h297q279 0 426.5 136t147.5 392zM1130 561q0 -270 -156.5 -415.5t-449.5 -145.5h-329v551h-119v33h119v538h329q293 0 449.5 -145.5t156.5 -415.5z" />
    <glyph glyph-name="dcaron.smcp" horiz-adv-x="1214" 
d="M225 33h297q279 0 426.5 136t147.5 392t-147.5 392.5t-426.5 136.5h-297v-1057zM1128 561q0 -270 -156.5 -415.5t-449.5 -145.5h-329v1122h329q293 0 449.5 -145.5t156.5 -415.5zM539 1257l-244 283h43l217 -252l217 252h43l-244 -283h-32z" />
    <glyph glyph-name="dcroat.smcp" horiz-adv-x="1216" 
d="M227 1090v-506h410v-33h-410v-518h297q279 0 426 136t148 392q0 256 -148 392t-426 137h-297zM524 0h-329v551h-119v33h119v538h329q293 0 450 -145q156 -145 156 -415t-156 -417q-157 -145 -450 -145z" />
    <glyph glyph-name="e.smcp" horiz-adv-x="1015" 
d="M227 1090v-496h627v-33h-627v-528h678v-33h-710v1122h688v-32h-656z" />
    <glyph glyph-name="eacute.smcp" horiz-adv-x="1015" 
d="M227 1090v-496h627v-33h-627v-528h678v-33h-710v1122h688v-32h-656zM440 1257l193 283h43l-201 -283h-35z" />
    <glyph glyph-name="ebreve.smcp" horiz-adv-x="1015" 
d="M227 1090v-496h627v-33h-627v-528h678v-33h-710v1122h688v-32h-656zM539 1280q-129 0 -206 68.5t-89 191.5h32q12 -111 79 -169t183.5 -58t183 58.5t79.5 168.5h33q-13 -123 -89.5 -191.5t-205.5 -68.5z" />
    <glyph glyph-name="ecaron.smcp" horiz-adv-x="1015" 
d="M227 1090v-496h627v-33h-627v-528h678v-33h-710v1122h688v-32h-656zM522 1257l-243 283h43l217 -252l217 252h43l-244 -283h-33z" />
    <glyph glyph-name="ecircumflex.smcp" horiz-adv-x="1015" 
d="M227 1090v-496h627v-33h-627v-528h678v-33h-710v1122h688v-32h-656zM539 1509l-217 -252h-43l243 283h33l244 -283h-43z" />
    <glyph glyph-name="edieresis.smcp" horiz-adv-x="1015" 
d="M227 1090v-496h627v-33h-627v-528h678v-33h-710v1122h688v-32h-656zM711 1382v158h32v-158h-32zM334 1382v158h33v-158h-33z" />
    <glyph glyph-name="edotaccent.smcp" horiz-adv-x="1015" 
d="M227 1090v-496h627v-33h-627v-528h678v-33h-710v1122h688v-32h-656zM522 1382v158h33v-158h-33z" />
    <glyph glyph-name="egrave.smcp" horiz-adv-x="1015" 
d="M227 1090v-496h627v-33h-627v-528h678v-33h-710v1122h688v-32h-656zM639 1257h-35l-201 283h43z" />
    <glyph glyph-name="emacron.smcp" horiz-adv-x="1015" 
d="M227 1090v-496h627v-33h-627v-528h678v-33h-710v1122h688v-32h-656zM307 1409v33h463v-33h-463z" />
    <glyph glyph-name="eogonek.smcp" horiz-adv-x="1015" 
d="M829 -387q-55 0 -92 36t-37 101.5t36 120.5t122 129h-663v1122h688v-32h-656v-496h627v-33h-627v-528h678v-33q-96 -78 -134 -134t-38 -116q0 -104 113 -104q38 0 65 10v-33q-27 -10 -82 -10z" />
    <glyph glyph-name="f.smcp" horiz-adv-x="931" 
d="M225 1090v-492h609v-33h-609v-565h-32v1122h673v-32h-641z" />
    <glyph glyph-name="fi.smcp" horiz-adv-x="1351" 
d="M225 1090v-492h609v-33h-609v-565h-32v1122h673v-32h-641zM1126 0v1122h33v-1122h-33z" />
    <glyph glyph-name="fl.smcp" horiz-adv-x="1837" 
d="M225 1090v-492h609v-33h-609v-565h-32v1122h673v-32h-641zM1827 33v-33h-701v1122h33v-1089h668z" />
    <glyph glyph-name="g.smcp" horiz-adv-x="1196" 
d="M602 1106q-225 0 -354 -147.5t-129 -401.5t123 -397.5t322.5 -143.5t320.5 121t121 391h-396v33h428v-561h-32v100q0 160 6 238h-2q-31 -168 -144.5 -261t-276.5 -93t-273.5 68.5t-170 197.5t-59.5 306t62.5 309t179 203t290 71t287 -93.5t129.5 -246.5h-33
q-16 139 -120.5 223t-278.5 84z" />
    <glyph glyph-name="gbreve.smcp" horiz-adv-x="1196" 
d="M602 1106q-225 0 -354 -147.5t-129 -401.5t123 -397.5t322.5 -143.5t320.5 121t121 391h-396v33h428v-561h-32v100q0 160 6 238h-2q-31 -168 -144.5 -261t-276.5 -93t-273.5 68.5t-170 197.5t-59.5 306t62.5 309t179 203t290 71t287 -93.5t129.5 -246.5h-33
q-16 139 -120.5 223t-278.5 84zM586 1280q-129 0 -206 68.5t-89 191.5h33q12 -111 78.5 -169t183 -58t183.5 58.5t79 168.5h33q-13 -123 -89.5 -191.5t-205.5 -68.5z" />
    <glyph glyph-name="gcircumflex.smcp" horiz-adv-x="1196" 
d="M602 1106q-225 0 -354 -147.5t-129 -401.5t123 -397.5t322.5 -143.5t320.5 121t121 391h-396v33h428v-561h-32v100q0 160 6 238h-2q-31 -168 -144.5 -261t-276.5 -93t-273.5 68.5t-170 197.5t-59.5 306t62.5 309t179 203t290 71t287 -93.5t129.5 -246.5h-33
q-16 139 -120.5 223t-278.5 84zM586 1509l-217 -252h-43l243 283h33l244 -283h-43z" />
    <glyph glyph-name="gcommaaccent.smcp" horiz-adv-x="1196" 
d="M602 1106q-225 0 -354 -147.5t-129 -401.5t123 -397.5t322.5 -143.5t320.5 121t121 391h-396v33h428v-561h-32v100q0 160 6 238h-2q-31 -168 -144.5 -261t-276.5 -93t-273.5 68.5t-170 197.5t-59.5 306t62.5 309t179 203t290 71t287 -93.5t129.5 -246.5h-33
q-16 139 -120.5 223t-278.5 84zM569 -162h33v-135l-61 -192h-29l57 192v135z" />
    <glyph glyph-name="gdotaccent.smcp" horiz-adv-x="1196" 
d="M602 1106q-225 0 -354 -147.5t-129 -401.5t123 -397.5t322.5 -143.5t320.5 121t121 391h-396v33h428v-561h-32v100q0 160 6 238h-2q-31 -168 -144.5 -261t-276.5 -93t-273.5 68.5t-170 197.5t-59.5 306t62.5 309t179 203t290 71t287 -93.5t129.5 -246.5h-33
q-16 139 -120.5 223t-278.5 84zM569 1382v158h33v-158h-33z" />
    <glyph glyph-name="h.smcp" horiz-adv-x="1224" 
d="M997 0v567h-770v-567h-32v1122h32v-522h770v522h33v-1122h-33z" />
    <glyph glyph-name="hbar.smcp" horiz-adv-x="1222" 
d="M227 936v-336h770v336h-770zM1030 936v-936h-33v567h-770v-567h-32v936h-103v33h103v153h32v-153h770v153h33v-153h98v-33h-98z" />
    <glyph glyph-name="uni0125.smcp" horiz-adv-x="1224" 
d="M997 0v567h-770v-567h-32v1122h32v-522h770v522h33v-1122h-33zM612 1509l-217 -252h-43l244 283h33l243 -283h-43z" />
    <glyph glyph-name="i.smcp" horiz-adv-x="421" 
d="M195 0v1122h32v-1122h-32z" />
    <glyph glyph-name="iacute.smcp" horiz-adv-x="421" 
d="M195 0v1122h32v-1122h-32zM113 1257l192 283h43l-201 -283h-34z" />
    <glyph glyph-name="ibreve.smcp" horiz-adv-x="421" 
d="M195 0v1122h32v-1122h-32zM210.5 1280q-106.5 0 -168.5 67.5t-73 192.5h33q10 -111 63.5 -169t145.5 -58t145.5 58.5t63.5 168.5h33q-11 -123 -73.5 -191.5t-169 -68.5z" />
    <glyph glyph-name="icircumflex.smcp" horiz-adv-x="421" 
d="M195 0v1122h32v-1122h-32zM385 1260l-174 249l-176 -249h-41l199 280h34l199 -280h-41z" />
    <glyph glyph-name="idieresis.smcp" horiz-adv-x="421" 
d="M195 0v1122h32v-1122h-32zM342 1399v141h33v-141h-33zM47 1399v141h33v-141h-33z" />
    <glyph glyph-name="i.loclTRK.smcp" horiz-adv-x="421" 
d="M195 0v1122h32v-1122h-32zM195 1382v158h32v-158h-32z" />
    <glyph glyph-name="igrave.smcp" horiz-adv-x="421" 
d="M195 0v1122h32v-1122h-32zM311 1257h-35l-200 283h43z" />
    <glyph glyph-name="ij.smcp" horiz-adv-x="956" 
d="M195 0v1122h32v-1122h-32zM516 -6q-43 0 -65 8v33q27 -8 65 -8q106 0 164.5 62.5t58.5 182.5v850h33v-850q0 -135 -67.5 -206.5t-188.5 -71.5z" />
    <glyph glyph-name="imacron.smcp" horiz-adv-x="421" 
d="M195 0v1122h32v-1122h-32zM20 1409v33h381v-33h-381z" />
    <glyph glyph-name="iogonek.smcp" horiz-adv-x="421" 
d="M151 -387q-55 0 -91.5 36t-36.5 102.5t38.5 124.5t133.5 136v1110h32v-1122q-96 -78 -134 -134t-38 -116q0 -104 113 -104q38 0 65 10v-33q-27 -10 -82 -10z" />
    <glyph glyph-name="itilde.smcp" horiz-adv-x="421" 
d="M195 0v1122h32v-1122h-32zM345 1354q-46 0 -74.5 17.5t-69.5 52t-64.5 49t-52.5 14.5q-86 0 -96 -133h-33q4 80 39 123t81 43t74.5 -17.5t69.5 -52.5t64.5 -49.5t52.5 -14.5q86 0 96 134h33q-4 -80 -39 -123t-81 -43z" />
    <glyph glyph-name="j.smcp" horiz-adv-x="534" 
d="M94 -6q-43 0 -65 8v33q27 -8 65 -8q106 0 164.5 62.5t58.5 182.5v850h33v-850q0 -135 -67.5 -206.5t-188.5 -71.5z" />
    <glyph glyph-name="jcircumflex.smcp" horiz-adv-x="534" 
d="M94 -6q-43 0 -65 8v33q27 -8 65 -8q106 0 164.5 62.5t58.5 182.5v850h33v-850q0 -135 -67.5 -206.5t-188.5 -71.5zM508 1260l-174 249l-176 -249h-41l198 280h35l199 -280h-41z" />
    <glyph glyph-name="k.smcp" horiz-adv-x="923" 
d="M227 578v-578h-32v1122h32v-522h2l584 522h49l-596 -532l649 -590h-49l-637 578h-2z" />
    <glyph glyph-name="kcommaaccent.smcp" horiz-adv-x="923" 
d="M227 578v-578h-32v1122h32v-522h2l584 522h49l-596 -532l649 -590h-49l-637 578h-2zM522 -162h33v-135l-61 -192h-29l57 192v135z" />
    <glyph glyph-name="l.smcp" horiz-adv-x="905" 
d="M895 33v-33h-700v1122h32v-1089h668z" />
    <glyph glyph-name="lacute.smcp" horiz-adv-x="905" 
d="M895 33v-33h-700v1122h32v-1089h668zM199 1257l192 283h43l-201 -283h-34z" />
    <glyph glyph-name="lcaron.smcp" horiz-adv-x="905" 
d="M895 33v-33h-700v1122h32v-1089h668zM367 766l84 356h34l-90 -356h-28z" />
    <glyph glyph-name="lcommaaccent.smcp" horiz-adv-x="905" 
d="M895 33v-33h-700v1122h32v-1089h668zM528 -162h33v-135l-61 -192h-29l57 192v135z" />
    <glyph glyph-name="ldot.smcp" horiz-adv-x="1026" 
d="M705 553v147h36v-147h-36zM895 33v-33h-700v1122h32v-1089h668z" />
    <glyph glyph-name="j.acute.loclNLD.smcp" horiz-adv-x="534" 
d="M94 -6q-43 0 -65 8v33q27 -8 65 -8q106 0 164.5 62.5t58.5 182.5v850h33v-850q0 -135 -67.5 -206.5t-188.5 -71.5zM236 1257l192 283h43l-201 -283h-34z" />
    <glyph glyph-name="lslash.smcp" horiz-adv-x="890" 
d="M881 0h-701v502l-133 -76v37l133 76v583h33v-567l279 156v-37l-279 -156v-485h668v-33z" />
    <glyph glyph-name="m.smcp" horiz-adv-x="1472" 
d="M1245 0v1087h-2l-485 -1087h-43l-486 1087h-2v-1087h-32v1122h55l485 -1087h2l486 1087h55v-1122h-33z" />
    <glyph glyph-name="n.smcp" horiz-adv-x="1247" 
d="M227 1090v-1090h-32v1122h53l770 -1089h2v1089h33v-1122h-54l-770 1090h-2z" />
    <glyph glyph-name="nacute.smcp" horiz-adv-x="1247" 
d="M227 1090v-1090h-32v1122h53l770 -1089h2v1089h33v-1122h-54l-770 1090h-2zM526 1257l193 283h43l-201 -283h-35z" />
    <glyph glyph-name="ncaron.smcp" horiz-adv-x="1247" 
d="M227 1090v-1090h-32v1122h53l770 -1089h2v1089h33v-1122h-54l-770 1090h-2zM608 1257l-243 283h43l217 -252l217 252h43l-244 -283h-33z" />
    <glyph glyph-name="ncommaaccent.smcp" horiz-adv-x="1247" 
d="M227 1090v-1090h-32v1122h53l770 -1089h2v1089h33v-1122h-54l-770 1090h-2zM608 -162h33v-135l-61 -192h-29l57 192v135z" />
    <glyph glyph-name="eng.smcp" horiz-adv-x="1247" 
d="M1053 -76q0 -119 -48.5 -170t-138.5 -51q-16 0 -32 4v33q16 -4 30 -4q78 0 117 42t39 146v76l-404 555q-202 285 -387 537h-2v-1092h-32v1122h53l770 -1061h2v1061h33v-1198z" />
    <glyph glyph-name="ntilde.smcp" horiz-adv-x="1247" 
d="M227 1090v-1090h-32v1122h53l770 -1089h2v1089h33v-1122h-54l-770 1090h-2zM786.5 1354q-51.5 0 -87 17.5t-82 51t-78 49t-73.5 15.5t-70.5 -34t-33.5 -99h-32q6 80 44 123t89 43t87 -17.5t82 -51.5t77.5 -49.5t73.5 -15.5t71 34t33 100h33q-7 -80 -44.5 -123t-89 -43z
" />
    <glyph glyph-name="o.smcp" horiz-adv-x="1196" 
d="M119 561q0 -166 58.5 -290t167 -191.5t253.5 -67.5t254 67.5t167 191.5t58 290t-58 290t-167 191.5t-254 67.5t-253.5 -67.5t-167 -191.5t-58.5 -290zM1110 561q0 -176 -63.5 -307t-179 -202.5t-269.5 -71.5t-269.5 71.5t-179 202.5t-63.5 307t63.5 307t179 203t269.5 72
t269.5 -72t179 -203t63.5 -307z" />
    <glyph glyph-name="oacute.smcp" horiz-adv-x="1196" 
d="M119 561q0 -166 58.5 -290t167 -191.5t253.5 -67.5t254 67.5t167 191.5t58 290t-58 290t-167 191.5t-254 67.5t-253.5 -67.5t-167 -191.5t-58.5 -290zM1110 561q0 -176 -63.5 -307t-179 -202.5t-269.5 -71.5t-269.5 71.5t-179 202.5t-63.5 307t63.5 307t179 203t269.5 72
t269.5 -72t179 -203t63.5 -307zM500 1257l192 283h43l-200 -283h-35z" />
    <glyph glyph-name="obreve.smcp" horiz-adv-x="1196" 
d="M119 561q0 -166 58.5 -290t167 -191.5t253.5 -67.5t254 67.5t167 191.5t58 290t-58 290t-167 191.5t-254 67.5t-253.5 -67.5t-167 -191.5t-58.5 -290zM1110 561q0 -176 -63.5 -307t-179 -202.5t-269.5 -71.5t-269.5 71.5t-179 202.5t-63.5 307t63.5 307t179 203t269.5 72
t269.5 -72t179 -203t63.5 -307zM598 1280q-129 0 -206 68.5t-89 191.5h33q12 -111 78.5 -169t183.5 -58t183.5 58.5t78.5 168.5h33q-12 -123 -89 -191.5t-206 -68.5z" />
    </font>
</defs>
</svg>
