<?xml version="1.0" standalone="no"?>
<!DOCTYPE svg PUBLIC "-//W3C//DTD SVG 1.1//EN" "http://www.w3.org/Graphics/SVG/1.1/DTD/svg11.dtd" >
<svg xmlns="http://www.w3.org/2000/svg">
<metadata>
Created by FontPrep 20130207 at Sat Mar 12 16:03:22 2016
 By Matthew Higley
Copyright (c) 2015 Monotype Imaging Inc.  All rights reserved.
</metadata>
<defs>
<font id="8ce45e7e2f6472b67a907dbe9e63e78e" horiz-adv-x='1024' >
  <font-face 
    font-family="NeueHaasUnicaPro-XBlack"
    font-weight="1000"
    font-variant="small-caps"
    font-stretch="normal"
    units-per-em="2048"
    panose-1="2 11 11 4 3 2 6 2 2 3"
    ascent="1565"
    descent="-483"
    x-height="1040"
    cap-height="1458"
    bbox="-371 -696 2333 2060"
    underline-thickness="102"
    underline-position="-153"
    unicode-range="U+0020-FEFF"
  />
<missing-glyph horiz-adv-x="1351" 
d="M512 133v273h311v-273h-311zM741 1004q-1 81 -75 81q-36 0 -60 -36.5t-22 -110.5h-318q0 186 106 286.5t296 100.5t295.5 -84t105.5 -233q0 -82 -29.5 -140.5t-108.5 -133.5t-106.5 -125t-27.5 -122h-260q-19 156 8 217.5t93 127.5t84.5 99.5t18.5 72.5zM184 1305v-1151
q0 -57 33 -90t90 -33h737q57 0 90 32.5t33 90.5v1151q0 57 -32.5 89.5t-90.5 32.5h-737q-57 0 -90 -32.5t-33 -89.5zM1331 1305v-1151q0 -131 -76.5 -209t-210.5 -78h-737q-131 0 -209 78t-78 209v1151q0 133 78 209.5t209 76.5h737q134 0 210.5 -76.5t76.5 -209.5z" />
    <glyph glyph-name="f_f" unicode="ff" horiz-adv-x="1566" 
d="M1544 1040v-315h-184v-725h-447v725h-301v-725h-446v725h-154v315h154v41q0 199 112.5 299.5t327.5 100.5q104 0 203 -23v-297q-15 4 -69 4t-90 -29.5t-38 -95.5h301v41q0 199 113 299.5t328 100.5q104 0 202 -23v-297q-16 4 -69 4t-89 -29.5t-38 -95.5h184z" />
    <glyph glyph-name="f_f_i" unicode="ffi" horiz-adv-x="2205" 
d="M2109 1040v-1040h-446v1040h446zM2109 1147h-446v311h446v-311zM1354 1481q104 0 202 -23v-297q-16 4 -70 4t-89 -29.5t-37 -95.5h184v-315h-184v-725h-447v725h-301v-725h-446v725h-154v315h154v41q0 199 112.5 299.5t327.5 100.5q104 0 203 -23v-297q-15 4 -69 4
t-90 -29.5t-38 -95.5h301v41q0 199 113 299.5t328 100.5z" />
    <glyph glyph-name="f_f_l" unicode="ffl" horiz-adv-x="2205" 
d="M1544 1040v-315h-184v-725h-447v725h-301v-725h-446v725h-154v315h154v41q0 199 113 299t327 101q104 0 203 -23v-297q-15 4 -69 4q-54 1 -90 -29t-38 -96h301v41q0 199 113 299t328 101q104 0 202 -23v-297q-16 5 -69 5t-89 -30t-38 -96h184zM1663 0v1458h446v-1458
h-446z" />
    <glyph glyph-name="f_i" unicode="fi" horiz-adv-x="1458" 
d="M1362 1040v-1040h-447v1040h447zM1362 1147h-447v311h447v-311zM606 1481q104 0 203 -23v-297q-15 4 -69 4t-90 -29.5t-38 -95.5h185v-315h-185v-725h-446v725h-154v315h154v41q0 199 112.5 299.5t327.5 100.5z" />
    <glyph glyph-name="f_l" unicode="fl" horiz-adv-x="1458" 
d="M797 1040v-315h-185v-725h-446v725h-154v315h154v41q0 199 113 299t327 101q104 0 203 -23v-297q-15 5 -69 5t-90 -30t-38 -96h185zM915 0v1458h447v-1458h-447z" />
    <glyph glyph-name=".notdef" horiz-adv-x="1351" 
d="M512 133v273h311v-273h-311zM741 1004q-1 81 -75 81q-36 0 -60 -36.5t-22 -110.5h-318q0 186 106 286.5t296 100.5t295.5 -84t105.5 -233q0 -82 -29.5 -140.5t-108.5 -133.5t-106.5 -125t-27.5 -122h-260q-19 156 8 217.5t93 127.5t84.5 99.5t18.5 72.5zM184 1305v-1151
q0 -57 33 -90t90 -33h737q57 0 90 32.5t33 90.5v1151q0 57 -32.5 89.5t-90.5 32.5h-737q-57 0 -90 -32.5t-33 -89.5zM1331 1305v-1151q0 -131 -76.5 -209t-210.5 -78h-737q-131 0 -209 78t-78 209v1151q0 133 78 209.5t209 76.5h737q134 0 210.5 -76.5t76.5 -209.5z" />
    <glyph glyph-name=".null" horiz-adv-x="0" 
 />
    <glyph glyph-name="nonmarkingreturn" horiz-adv-x="681" 
 />
    <glyph glyph-name="NULL" horiz-adv-x="1228" 
 />
    <glyph glyph-name="NULL" horiz-adv-x="1228" 
 />
    <glyph glyph-name="space" unicode=" " horiz-adv-x="471" 
 />
    <glyph glyph-name="exclam" unicode="!" horiz-adv-x="796" 
d="M172 0v360h455v-360h-455zM209 481l-62 977h502l-59 -977h-381z" />
    <glyph glyph-name="quotedbl" unicode="&#x22;" horiz-adv-x="1060" 
d="M125 856l-51 602h428l-53 -602h-324zM610 856l-51 602h428l-53 -602h-324z" />
    <glyph glyph-name="numbersign" unicode="#" horiz-adv-x="1519" 
d="M678 793l-33 -203h197l32 203h-196zM1178 590h190l-49 -295h-189l-47 -295h-335l47 295h-197l-47 -295h-336l47 295h-192l47 295h192l31 203h-190l47 294h190l47 293h336l-47 -293h197l47 293h336l-48 -293h193l-49 -294h-191z" />
    <glyph glyph-name="dollar" unicode="$" horiz-adv-x="1400" 
d="M563 442q-1 -131 143 -131t144 84q0 33 -28 58.5t-198 70.5q-169 45 -340 122t-171 321q0 176 111.5 288.5t322.5 145.5v164h289v-158q217 -23 336.5 -136.5t119.5 -307.5h-465q0 122 -137 122q-61 0 -94 -22.5t-33 -58.5t27 -61t195 -64q169 -39 349.5 -118t180.5 -339
q0 -191 -125 -305.5t-354 -141.5v-178h-289v180q-223 31 -344 152t-121 313h481z" />
    <glyph glyph-name="percent" unicode="%" horiz-adv-x="2007" 
d="M1438 393q0 -219 88 -219t88 219t-88 219t-88 -219zM1915 393q0 -211 -101.5 -326.5t-288 -115.5t-287.5 115.5t-101 326.5t101 327t287.5 116t288 -116t101.5 -327zM393 987q0 -219 88 -219t88 219t-88 219t-88 -219zM870 987q0 -211 -101 -326.5t-287.5 -115.5
t-288 115.5t-101.5 326.5t101.5 327t288 116t287.5 -116t101 -327zM498 -61l733 1503h278l-733 -1503h-278z" />
    <glyph glyph-name="ampersand" unicode="&#x26;" horiz-adv-x="1656" 
d="M514 426q0 -80 48 -121t134 -41t144 58l-252 243q-74 -59 -74 -139zM760 1124q0 39 -25.5 64.5t-64.5 25.5t-64.5 -26.5t-25.5 -85.5t75 -141q105 86 105 163zM1495 760q0 -242 -143 -430l346 -330h-524l-95 90q-179 -123 -441 -123t-415 118t-153 318q0 251 276 404
q-84 84 -116.5 152.5t-32.5 166.5t60 184.5t167.5 133.5t249.5 47t251 -44t169.5 -124t60.5 -184q0 -232 -264 -371l168 -160q20 49 20 152h416z" />
    <glyph glyph-name="quotesingle" unicode="'" horiz-adv-x="575" 
d="M125 856l-51 602h428l-53 -602h-324z" />
    <glyph glyph-name="parenleft" unicode="(" horiz-adv-x="800" 
d="M537 610q0 -226 47 -442.5t155 -468.5h-352q-164 227 -235.5 445t-71.5 464t71.5 465t235.5 445h352q-108 -248 -155 -465t-47 -443z" />
    <glyph glyph-name="parenright" unicode=")" horiz-adv-x="800" 
d="M721 608q0 -246 -71.5 -464t-235.5 -445h-353q109 252 156 468t47 442t-47 443.5t-156 465.5h353q164 -226 235.5 -445t71.5 -465z" />
    <glyph glyph-name="asterisk" unicode="*" horiz-adv-x="1007" 
d="M868 1315l103 -318l-312 -24l238 -207l-272 -197l-121 289l-119 -289l-272 197l237 207l-313 24l104 318l267 -162l-72 305h338l-74 -305z" />
    <glyph glyph-name="plus" unicode="+" horiz-adv-x="1159" 
d="M1057 823v-346h-297v-305h-361v305h-297v346h297v305h361v-305h297z" />
    <glyph glyph-name="comma" unicode="," horiz-adv-x="628" 
d="M86 0v444h457v-444l-254 -391h-260l200 391h-143z" />
    <glyph glyph-name="hyphen" unicode="-" horiz-adv-x="757" 
d="M61 449v299h635v-299h-635z" />
    <glyph glyph-name="period" unicode="." horiz-adv-x="626" 
d="M86 0v444h455v-444h-455z" />
    <glyph glyph-name="slash" unicode="/" horiz-adv-x="1093" 
d="M61 -182l609 1708h319l-608 -1708h-320z" />
    <glyph glyph-name="zero" unicode="0" horiz-adv-x="1368" 
d="M512 690.5q0 -190.5 44 -294t128 -103.5t128 103.5t44 294t-44 293.5t-128 103t-128 -103t-44 -293.5zM1315 690q0 -346 -164 -534.5t-467 -188.5t-467 188.5t-164 534.5t164 534.5t467 188.5t467 -188.5t164 -534.5z" />
    <glyph glyph-name="one" unicode="1" horiz-adv-x="1368" 
d="M524 0v801h-336v332q186 0 276.5 58t110.5 189h412v-1380h-463z" />
    <glyph glyph-name="two" unicode="2" horiz-adv-x="1368" 
d="M1255 973q0 -164 -97 -263.5t-292 -173.5t-227.5 -110.5t-38.5 -67.5h694v-358h-1222q-4 49 -4 98q0 233 89 379t308 252q129 63 227.5 117t98.5 139q0 47 -29 73.5t-86 26.5t-95 -45t-38 -131h-457q-2 242 153.5 373t438.5 131q176 0 307 -58.5t200.5 -158.5t69.5 -223z
" />
    <glyph glyph-name="three" unicode="3" horiz-adv-x="1368" 
d="M802.5 1002.5q-0.5 82.5 -138.5 82.5q-70 0 -111 -45t-41 -125h-446q0 233 159.5 365.5t444.5 132.5q366 0 474.5 -137t108.5 -252t-55 -186.5t-180 -116.5v-4q133 -43 193.5 -119t60.5 -202t-74 -224t-208 -151.5t-314 -53.5q-307 0 -470 130t-163 378h467
q0 -180 164 -180q66 0 102.5 30.5t36.5 84.5q0 129 -190 129h-33v315h49q76 0 120 33t43.5 115.5z" />
    <glyph glyph-name="four" unicode="4" horiz-adv-x="1368" 
d="M670 573v125q0 199 14 371h-4q-72 -152 -170 -305l-121 -191h281zM1092 244v-244h-443v244h-633v344l500 792h576v-807h249v-329h-249z" />
    <glyph glyph-name="five" unicode="5" horiz-adv-x="1368" 
d="M814 932q146 0 251.5 -57.5t164 -160t58.5 -246.5t-75.5 -259t-214 -178.5t-320.5 -63.5q-274 0 -435 119t-161 332h463q0 -61 38.5 -97t106.5 -36t107 44t39 127t-40 126t-102 43q-114 0 -145 -115l-443 29l76 841h1010v-360h-637l-16 -184h4q125 96 271 96z" />
    <glyph glyph-name="six" unicode="6" horiz-adv-x="1368" 
d="M575 448.5q0 -69.5 39.5 -113.5t97.5 -44t96 44.5t38 112.5t-38 112t-98 44t-97.5 -43t-37.5 -112.5zM696 1102q-154 0 -168 -311h4q115 113 308 112q129 0 232.5 -56t161.5 -156.5t58 -235.5t-73.5 -248t-206.5 -176.5t-303 -63.5q-297 0 -462 180.5t-165 522.5
q0 227 77 395t220 258t338 90q244 0 393.5 -115.5t165.5 -326.5h-457q-12 131 -123 131z" />
    <glyph glyph-name="seven" unicode="7" horiz-adv-x="1368" 
d="M90 1008v372h1163v-344q-151 -205 -260.5 -476t-167.5 -560h-489q63 283 187 551t278 457h-711z" />
    <glyph glyph-name="eight" unicode="8" horiz-adv-x="1368" 
d="M537 417q0 -60 39.5 -97t107.5 -37t107.5 36.5t39.5 96.5t-38.5 95.5t-108.5 35.5t-108.5 -35t-38.5 -95zM541 976q0 -56 38.5 -90t104.5 -34t104.5 34t38.5 90t-38.5 91t-104.5 35t-104.5 -35t-38.5 -91zM1251 1022q0 -115 -67.5 -196t-188.5 -107v-4q129 -25 210 -116
t81 -218q0 -197 -157.5 -305.5t-444.5 -108.5t-444.5 108.5t-157.5 305.5q0 127 81 218t210 116v4q-121 27 -188.5 107.5t-67.5 195.5t69.5 204t198.5 138t299 49t299 -49t198.5 -138t69.5 -204z" />
    <glyph glyph-name="nine" unicode="9" horiz-adv-x="1368" 
d="M813 934q0 70 -39 114t-97 44t-96 -44t-38 -113t37.5 -113t97.5 -44t97.5 43t37.5 113zM549 479q-129 0 -232.5 56.5t-162 157t-58.5 235.5t74 247.5t207 176t303 63.5q297 0 462 -180t165 -522q0 -227 -77 -395t-220.5 -258.5t-337.5 -90.5q-244 0 -393.5 116
t-165.5 327h456q11 -131 133 -131q64 0 108 76.5t50 234.5h-4q-115 -113 -307 -113z" />
    <glyph glyph-name="colon" unicode=":" horiz-adv-x="626" 
d="M86 0v444h455v-444h-455zM86 596v444h455v-444h-455z" />
    <glyph glyph-name="semicolon" unicode=";" horiz-adv-x="628" 
d="M86 0v444h457v-444l-254 -391h-260l200 391h-143zM86 596v444h455v-444h-455z" />
    <glyph glyph-name="less" unicode="&#x3c;" horiz-adv-x="1159" 
d="M514 651v-4l543 -192v-361l-955 340v430l955 340v-360z" />
    <glyph glyph-name="equal" unicode="=" horiz-adv-x="1159" 
d="M102 254v317h955v-317h-955zM102 725v317h955v-317h-955z" />
    <glyph glyph-name="greater" unicode="&#x3e;" horiz-adv-x="1159" 
d="M1057 434l-955 -340v361l543 192v4l-543 193v360l955 -340v-430z" />
    <glyph glyph-name="question" unicode="?" horiz-adv-x="1259" 
d="M395 0v360h455v-360h-455zM1196 1090q0 -102 -42 -176t-155 -164t-151.5 -150.5t-38.5 -142.5h-375q-8 57 -8 127t13.5 114.5t48 88.5t111.5 113t101.5 104.5t24.5 81.5t-26.5 73t-69.5 27q-129 0 -123 -191h-459q0 242 152.5 369t424.5 127t422 -106.5t150 -294.5z" />
    <glyph glyph-name="at" unicode="@" horiz-adv-x="1771" 
d="M752 553q0 -145 90 -145q57 0 96 64.5t39 150.5q0 157 -88 157q-60 0 -98.5 -57t-38.5 -170zM1268 465q0 -92 69 -92q74 0 124 77.5t50 236.5t-73.5 289t-208.5 200.5t-329 70.5t-342 -88t-224 -241.5t-76 -345.5t77 -331t217 -212.5t331 -73.5q262 0 440 102l98 -194
q-225 -127 -509 -127t-475 100.5t-294.5 288.5t-103.5 440t106.5 457t304 324.5t452.5 119.5t440.5 -98t287 -277.5t101.5 -414.5q0 -178 -61.5 -302t-164 -184.5t-225.5 -60.5q-230 0 -281 156h-4q-86 -156 -245 -156t-242.5 105.5t-85.5 304.5q2 154 54 272.5t144 184
t220 65.5t186 -115h4l19 94h303q-84 -398 -84 -575z" />
    <glyph glyph-name="A" unicode="A" horiz-adv-x="1531" 
d="M874 672q-55 207 -106 452h-4q-51 -246 -107 -452l-26 -103h270zM539 215l-58 -215h-489l481 1458h586l481 -1458h-489l-58 215h-454z" />
    <glyph glyph-name="B" unicode="B" horiz-adv-x="1415" 
d="M571 332h136q94 0 134 28.5t40 94t-43 96.5t-138 31h-129v-250zM872 1009.5q0 118.5 -161 118.5h-140v-237h129q172 0 172 118.5zM1323 1081q0 -127 -56.5 -204.5t-179.5 -116.5v-4q131 -31 203 -120t72 -220q0 -193 -148.5 -304.5t-410.5 -111.5h-674v1458h664
q264 0 397 -101.5t133 -275.5z" />
    <glyph glyph-name="C" unicode="C" horiz-adv-x="1523" 
d="M768 1102q-102 0 -162.5 -99.5t-60.5 -272.5t61.5 -273.5t155.5 -100.5t149.5 58.5t63.5 160.5h498q-23 -293 -210.5 -450.5t-492.5 -157.5q-221 0 -382 92.5t-246 263.5t-85 406.5t86 407.5t246 263t379 91q311 0 497.5 -155.5t198.5 -438.5h-493q-21 205 -203 205z" />
    <glyph glyph-name="D" unicode="D" horiz-adv-x="1554" 
d="M592 387h102q150 0 234 90t84 252t-84 252t-234 90h-102v-684zM1497 729q0 -350 -205 -539.5t-581 -189.5h-582v1458h582q376 0 581 -189.5t205 -539.5z" />
    <glyph glyph-name="E" unicode="E" horiz-adv-x="1302" 
d="M592 1081v-166h571v-366h-571v-172h625v-377h-1088v1458h1077v-377h-614z" />
    <glyph glyph-name="F" unicode="F" horiz-adv-x="1236" 
d="M592 1065v-213h567v-389h-567v-463h-463v1458h1067v-393h-604z" />
    <glyph glyph-name="G" unicode="G" horiz-adv-x="1566" 
d="M793 1130q-115 0 -181.5 -109.5t-66.5 -300t67.5 -302t175 -111.5t169 61.5t67.5 157.5h-248v328h680v-854h-399v129h-4q-129 -160 -369 -160q-193 0 -334 91.5t-217 261.5t-76 404.5t89.5 407.5t255 265t374.5 92t356.5 -64.5t233.5 -182.5t94 -271h-491
q-10 74 -55.5 115.5t-120.5 41.5z" />
    <glyph glyph-name="H" unicode="H" horiz-adv-x="1601" 
d="M1010 0v553h-418v-553h-463v1458h463v-518h418v518h463v-1458h-463z" />
    <glyph glyph-name="I" unicode="I" horiz-adv-x="720" 
d="M129 0v1458h463v-1458h-463z" />
    <glyph glyph-name="J" unicode="J" horiz-adv-x="913" 
d="M244 -23q-109 0 -213 25v373q45 -8 107.5 -8t108.5 27.5t65.5 90t19.5 174.5v799h463v-909q0 -295 -135.5 -433.5t-415.5 -138.5z" />
    <glyph glyph-name="K" unicode="K" horiz-adv-x="1521" 
d="M592 637v-637h-463v1458h463v-602h4l332 602h565l-481 -686l504 -772h-576l-344 637h-4z" />
    <glyph glyph-name="L" unicode="L" horiz-adv-x="1210" 
d="M1196 387v-387h-1067v1458h463v-1071h604z" />
    <glyph glyph-name="M" unicode="M" horiz-adv-x="2193" 
d="M1638 0v686q0 266 13 526h-4q-43 -244 -107 -522l-158 -690h-571l-158 690q-63 279 -106 522h-4q12 -260 12 -526v-686h-426v1458h735l137 -604q59 -254 95 -537h4q29 242 92 537l139 604h733v-1458h-426z" />
    <glyph glyph-name="N" unicode="N" horiz-adv-x="1744" 
d="M571 512v-512h-442v1458h678l199 -543q100 -270 180 -546h4q-16 256 -16 577v512h442v-1458h-678l-199 543q-100 270 -180 547h-4q16 -256 16 -578z" />
    <glyph glyph-name="O" unicode="O" horiz-adv-x="1589" 
d="M1042 729q0 373 -247 373q-123 0 -185.5 -95.5t-62.5 -277.5t62.5 -277.5t185.5 -95.5q247 0 247 373zM1532 729q0 -229 -91 -401t-258 -266.5t-388.5 -94.5t-388 94.5t-258 266.5t-91.5 401t91.5 401.5t258 266.5t388 94t388.5 -94t258 -266.5t91 -401.5z" />
    <glyph glyph-name="P" unicode="P" horiz-adv-x="1415" 
d="M592 791h121q188 0 188 155.5t-188 155.5h-121v-311zM1378 946.5q0 -241.5 -150.5 -377t-449.5 -135.5h-186v-434h-463v1458h649q299 0 449.5 -135t150.5 -376.5z" />
    <glyph glyph-name="Q" unicode="Q" horiz-adv-x="1589" 
d="M1067 715q0 188 -66.5 287.5t-193.5 99.5t-193.5 -99.5t-66.5 -288.5t66.5 -289.5t193.5 -100.5h18l-141 159l225 201l138 -154q20 76 20 185zM1532 729q0 -327 -182 -534l149 -168l-227 -203l-176 196q-136 -53 -330 -53t-360 94.5t-257.5 266.5t-91.5 400t91.5 401.5
t258.5 267.5t387 94t388 -94t259 -266.5t91 -401.5z" />
    <glyph glyph-name="R" unicode="R" horiz-adv-x="1482" 
d="M592 807h156q184 0 184 162q0 152 -193 151h-147v-313zM834 1458q544 0 544 -422q0 -133 -71.5 -223t-202.5 -133v-4q80 -29 130 -97.5t105 -216.5l131 -362h-487l-98 297q-37 102 -85 143t-138 41h-70v-481h-463v1458h705z" />
    <glyph glyph-name="S" unicode="S" horiz-adv-x="1384" 
d="M543 469q0 -143 148.5 -143t148.5 92q0 37 -21.5 58.5t-66.5 36.5t-185.5 53t-249 85t-179 136.5t-70.5 234.5q0 219 164.5 344t458.5 125t456 -121t162 -352h-494q0 129 -143 129q-63 0 -97 -23.5t-34 -61.5t21.5 -58.5t68.5 -36t186 -49t254 -84t187.5 -144.5
t72.5 -246q0 -225 -170 -351t-477 -126t-478 132t-171 370h508z" />
    <glyph glyph-name="T" unicode="T" horiz-adv-x="1331" 
d="M897 1071v-1071h-463v1071h-420v387h1303v-387h-420z" />
    <glyph glyph-name="U" unicode="U" horiz-adv-x="1511" 
d="M756 -33q-305 0 -472 162t-167 455v874h463v-870q0 -106 45 -162.5t131 -56.5t131 56t45 163v870h463v-874q0 -293 -167 -455t-472 -162z" />
    <glyph glyph-name="V" unicode="V" horiz-adv-x="1458" 
d="M412 0l-410 1458h496l127 -555q68 -287 102 -528h4q35 242 103 528l127 555h495l-409 -1458h-635z" />
    <glyph glyph-name="W" unicode="W" horiz-adv-x="2170" 
d="M1253 0l-98 594q-49 313 -68 512h-4q-18 -199 -67 -512l-98 -594h-633l-275 1458h447l82 -516q41 -268 73 -569h4q31 291 80 569l90 516h598l91 -516q49 -279 79 -569h5q33 301 73 569l82 516h447l-275 -1458h-633z" />
    <glyph glyph-name="X" unicode="X" horiz-adv-x="1531" 
d="M1534 0h-549l-217 477h-4l-217 -477h-549l446 762l-413 696h534l199 -452h4l199 452h534l-414 -696z" />
    <glyph glyph-name="Y" unicode="Y" horiz-adv-x="1462" 
d="M963 0h-463v516l-502 942h506l102 -246q80 -193 123 -356h4q43 164 123 356l102 246h506l-501 -942v-516z" />
    <glyph glyph-name="Z" unicode="Z" horiz-adv-x="1261" 
d="M598 377h616v-377h-1173v395l586 682v4h-559v377h1114v-395l-584 -682v-4z" />
    <glyph glyph-name="bracketleft" unicode="[" horiz-adv-x="854" 
d="M530 1204v-1216h261v-307h-678v1837h680v-314h-263z" />
    <glyph glyph-name="backslash" unicode="\" horiz-adv-x="1093" 
d="M1032 -182h-319l-609 1708h320z" />
    <glyph glyph-name="bracketright" unicode="]" horiz-adv-x="854" 
d="M741 -319h-678v307h261v1216h-263v314h680v-1837z" />
    <glyph glyph-name="asciicircum" unicode="^" horiz-adv-x="1161" 
d="M745 760l-161 352h-4l-162 -352h-410l340 698h465l340 -698h-408z" />
    <glyph glyph-name="underscore" unicode="_" horiz-adv-x="1024" 
d="M0 -348v246h1024v-246h-1024z" />
    <glyph glyph-name="grave" unicode="`" horiz-adv-x="833" 
d="M731 1147h-336l-293 311h463z" />
    <glyph glyph-name="a" unicode="a" horiz-adv-x="1208" 
d="M566 233q126 0 126 191v37q-76 -5 -135 -21q-94 -25 -94 -110q0 -43 24.5 -70t78.5 -27zM1122 631v-320q0 -201 35 -311h-403q-16 55 -17 127h-4q-127 -158 -338 -158q-170 0 -268 93.5t-98 237.5t101 226q137 112 562 144v37q0 123 -98 122.5t-98 -120.5h-424
q10 160 137 262t391 102t393 -113.5t129 -328.5z" />
    <glyph glyph-name="b" unicode="b" horiz-adv-x="1298" 
d="M518 520q0 -98 37 -157.5t99 -59.5t98 58.5t36 159t-36 158.5t-98 58t-99 -59.5t-37 -157.5zM795 -33q-175 0 -269 144h-4v-111h-426v1458h447v-504h4q45 57 114.5 88t147.5 31q135 0 236.5 -67.5t156.5 -192.5t55 -293t-57 -293t-161.5 -192.5t-243.5 -67.5z" />
    <glyph glyph-name="c" unicode="c" horiz-adv-x="1232" 
d="M633 745q-121 0 -121 -224t123 -224q47 0 74.5 36t29.5 105h461q-16 -221 -171 -346t-404 -125q-176 0 -308.5 67.5t-204 194.5t-71.5 295t70.5 292t202.5 190.5t309 66.5q243 0 400 -121t177 -331h-461q-6 61 -34.5 92.5t-71.5 31.5z" />
    <glyph glyph-name="d" unicode="d" horiz-adv-x="1298" 
d="M510 520.5q0 -100.5 36 -159t98 -58.5t99 59.5t37 157.5t-37 157.5t-99 59.5t-98 -58t-36 -158.5zM504 -33q-139 0 -243.5 67.5t-162 192.5t-57.5 293t55.5 293t156.5 192.5t236 67.5q78 0 148 -30.5t115 -88.5h4v504h446v-1458h-426v111h-4q-94 -144 -268 -144z" />
    <glyph glyph-name="e" unicode="e" horiz-adv-x="1239" 
d="M617.5 807q-54.5 0 -89 -35t-47.5 -123h269q-4 84 -41 121t-91.5 37zM479 430q11 -184 131 -184q54 0 83.5 22.5t33.5 57.5h455q-23 -102 -100.5 -184.5t-196.5 -128.5t-282.5 -46t-296 74t-199 201t-66.5 283.5t67.5 280.5t197.5 195.5t317.5 71.5t321.5 -81
q202 -122 241 -370q12 -76 12 -192h-719z" />
    <glyph glyph-name="f" unicode="f" horiz-adv-x="819" 
d="M797 1040v-315h-185v-725h-446v725h-154v315h154v41q0 199 112.5 299.5t327.5 100.5q104 0 203 -23v-297q-15 4 -69 4t-90 -29.5t-38 -95.5h185z" />
    <glyph glyph-name="g" unicode="g" 
d="M498 544q0 -91 36.5 -144.5t98 -53.5t95.5 53.5t34 144.5t-35 145t-95.5 54t-97 -54t-36.5 -145zM748 51v105h-5q-41 -63 -119.5 -102.5t-185 -39.5t-201 65.5t-145.5 184.5t-51 278.5t52 279.5t150.5 184.5t207 64.5t189.5 -48t124 -122h4v139h414v-966
q0 -248 -146.5 -364t-435.5 -116q-225 0 -358 88.5t-156 251.5h416q9 -88 104 -88q142 0 142 205z" />
    <glyph glyph-name="h" unicode="h" 
d="M818 1071q173 0 273.5 -111.5t100.5 -318.5v-641h-447v584q0 145 -92 145q-57 0 -83.5 -53t-26.5 -172v-504h-447v1458h447v-502h4q98 115 271 115z" />
    <glyph glyph-name="i" unicode="i" horiz-adv-x="638" 
d="M96 0v1040h447v-1040h-447zM96 1147v311h447v-311h-447z" />
    <glyph glyph-name="j" unicode="j" horiz-adv-x="636" 
d="M102 -391q-127 0 -211 24v301q23 -6 50 -6q82 0 117.5 44t35.5 163v905h447v-987q0 -223 -120 -333.5t-319 -110.5zM94 1147v311h447v-311h-447z" />
    <glyph glyph-name="k" unicode="k" horiz-adv-x="1253" 
d="M543 438v-438h-447v1458h447v-805h4l162 387h534l-323 -497l354 -543h-545l-182 438h-4z" />
    <glyph glyph-name="l" unicode="l" horiz-adv-x="638" 
d="M96 0v1458h447v-1458h-447z" />
    <glyph glyph-name="m" unicode="m" horiz-adv-x="1904" 
d="M813 1071q211 0 307 -184q49 84 136 134t198 50q170 0 267.5 -111.5t97.5 -318.5v-641h-447v584q0 145 -82 145q-108 0 -108 -215v-514h-447v590q0 139 -84 139q-108 0 -108 -215v-514h-447v1040h412v-118h4q49 70 127 109.5t174 39.5z" />
    <glyph glyph-name="n" unicode="n" 
d="M1192 641v-641h-447v584q0 145 -92 145q-57 0 -83.5 -53t-26.5 -172v-504h-447v1040h414v-112h4q111 143 294 143t283.5 -111.5t100.5 -318.5z" />
    <glyph glyph-name="o" unicode="o" horiz-adv-x="1294" 
d="M647 743q-135 0 -135 -223t135 -223t135 223t-135 223zM1253 520q0 -168 -74.5 -293t-212 -192.5t-319.5 -67.5t-319.5 67.5t-212 192.5t-74.5 293t74.5 293t212 192.5t319.5 67.5t319.5 -67.5t212 -192.5t74.5 -293z" />
    <glyph glyph-name="p" unicode="p" horiz-adv-x="1298" 
d="M518 520q0 -98 37 -157.5t99 -59.5t98 58.5t36 159t-36 158.5t-98 58t-99 -59.5t-37 -157.5zM795 1073q139 0 243.5 -67.5t161.5 -192.5t57 -293t-55 -293t-156.5 -192.5t-236.5 -67.5q-78 0 -147.5 31t-114.5 88h-4v-465h-447v1419h426v-110h4q93 143 269 143z" />
    <glyph glyph-name="q" unicode="q" horiz-adv-x="1298" 
d="M510 520.5q0 -100.5 36 -159t98 -58.5t99 59.5t37 157.5t-37 157.5t-99 59.5t-98 -58t-36 -158.5zM504 1073q173 0 268 -143h4v110h426v-1419h-446v465h-4q-45 -57 -115 -88t-148 -31q-135 0 -236 67.5t-156.5 192.5t-55.5 293t57.5 293t162 192.5t243.5 67.5z" />
    <glyph glyph-name="r" unicode="r" horiz-adv-x="942" 
d="M801 678q-125 0 -191.5 -76t-66.5 -217v-385h-447v1040h416v-137h4q110 154 311 154q58 -1 107 -13v-378q-55 12 -133 12z" />
    <glyph glyph-name="s" unicode="s" horiz-adv-x="1181" 
d="M606 225q90 0 90 58q0 25 -26 46t-179 61t-233 74t-133 100.5t-53 172.5q0 154 126 245t380 91q520 0 520 -340h-422q0 96 -92 96q-76 0 -76 -55q0 -38 68 -64q40 -14 147.5 -42.5t199 -67.5t153 -108.5t61.5 -176.5q0 -162 -137.5 -255t-407.5 -93q-548 0 -547 371h444
q0 -61 27 -87t90 -26z" />
    <glyph glyph-name="t" unicode="t" horiz-adv-x="858" 
d="M606 475q0 -149 112 -149q54 0 89 10v-328q-100 -28 -211 -28q-227 0 -331.5 87t-104.5 275v383h-152v315h152v301h446v-301h191v-315h-191v-250z" />
    <glyph glyph-name="u" unicode="u" 
d="M86 399v641h446v-583q0 -145 93 -146q57 0 83.5 53.5t26.5 172.5v503h447v-1040h-414v113h-4q-111 -143 -294 -143.5t-283.5 111.5t-100.5 318z" />
    <glyph glyph-name="v" unicode="v" horiz-adv-x="1183" 
d="M285 0l-305 1040h485l61 -321q43 -231 64 -424h4q20 193 63 424l62 321h485l-305 -1040h-614z" />
    <glyph glyph-name="w" unicode="w" horiz-adv-x="1892" 
d="M1075 0l-65 352q-39 205 -62 424h-4q-23 -219 -61 -424l-66 -352h-575l-236 1040h426l45 -344q31 -211 43 -422h4q27 205 76 433l74 333h545l73 -333q49 -227 76 -433h4q12 211 43 422l45 344h426l-235 -1040h-576z" />
    <glyph glyph-name="x" unicode="x" horiz-adv-x="1204" 
d="M1217 0h-496l-117 299h-4l-117 -299h-495l329 535l-307 505h498l92 -278h4l92 278h498l-307 -505z" />
    <glyph glyph-name="y" unicode="y" horiz-adv-x="1193" 
d="M369 -4q0 23 -11.5 56.5t-62.5 168.5l-326 819h486l86 -346q55 -236 86 -430h4q18 160 67 434l64 342h452l-294 -970q-54 -176 -118.5 -276.5t-156.5 -144.5t-227 -44t-236 22v312q49 -12 90 -13q97 0 97 70z" />
    <glyph glyph-name="z" unicode="z" horiz-adv-x="1103" 
d="M627 332h413v-332h-977v340l402 365v4h-389v331h952v-340l-401 -364v-4z" />
    <glyph glyph-name="braceleft" unicode="{" horiz-adv-x="831" 
d="M623 1116v-221q0 -127 -58.5 -196.5t-177.5 -94.5v-6q119 -27 177.5 -96.5t58.5 -196.5v-219q0 -84 32.5 -114.5t108.5 -34.5v-254h-55q-190 0 -295 42t-147 129t-42 238v207q0 80 -29.5 116t-113.5 56v258q84 18 113.5 54t29.5 118v205q0 152 42 240t146.5 130t295.5 42
h55v-254q-76 -4 -108.5 -35t-32.5 -113z" />
    <glyph glyph-name="bar" unicode="|" horiz-adv-x="618" 
d="M131 -420v1919h356v-1919h-356z" />
    <glyph glyph-name="braceright" unicode="}" horiz-adv-x="831" 
d="M606 1106v-205q0 -82 30 -117.5t114 -54.5v-258q-84 -20 -114 -56t-30 -116v-207q0 -152 -42 -238.5t-146.5 -128.5t-294.5 -42h-55v254q76 4 108.5 34.5t32.5 114.5v219q0 127 58.5 196.5t176.5 96.5v6q-119 25 -177 94.5t-58 196.5v221q0 82 -33 113t-108 35v254h55
q190 0 294.5 -42t146.5 -130.5t42 -239.5z" />
    <glyph glyph-name="asciitilde" unicode="~" horiz-adv-x="1253" 
d="M828 758q34 0 62 34.5t28 90.5h284q0 -139 -50 -247t-139 -167t-204 -59q-66 0 -119.5 21.5t-113.5 56.5t-87.5 47t-62.5 12t-62.5 -34t-27.5 -89h-285q0 139 50.5 245.5t140.5 166t202 59.5q66 0 120 -22.5t112 -55.5t88 -46t64 -13z" />
    <glyph glyph-name="uni00A0" unicode="&#xa0;" horiz-adv-x="471" 
 />
    <glyph glyph-name="exclamdown" unicode="&#xa1;" horiz-adv-x="796" 
d="M588 559l61 -977h-502l60 977h381zM625 1040v-360h-455v360h455z" />
    <glyph glyph-name="cent" unicode="&#xa2;" horiz-adv-x="1400" 
d="M717 901q-121 0 -121 -224t123 -224q45 0 73.5 35.5t30.5 105.5h461q-14 -186 -129 -306t-305 -153v-198h-289v200q-205 39 -320.5 182.5t-115.5 359.5t115.5 357.5t320.5 180.5v202h289v-202q186 -33 302 -148t132 -293h-461q-6 61 -34.5 93t-71.5 32z" />
    <glyph glyph-name="sterling" unicode="&#xa3;" horiz-adv-x="1400" 
d="M893 936q0 133 -113 133q-66 0 -95.5 -46t-29.5 -151v-20h273v-309h-273q-10 -129 -100 -183v-4h756v-356h-1266v356q86 0 128 41t46 146h-174v309h174v18q0 254 149.5 398.5t413.5 144.5q158 0 279 -59.5t188.5 -167t67.5 -250.5h-424z" />
    <glyph glyph-name="currency" unicode="&#xa4;" horiz-adv-x="1400" 
d="M868 596q0 80 -47 129t-122.5 49t-123 -49t-47.5 -129t47.5 -129t123 -49t122.5 49t47 129zM700 176q-100 0 -180 31l-174 -187l-207 189l170 184q-45 90 -45 202t45 206l-170 182l207 188l174 -186q80 31 179 31t180 -31l174 186l204 -188l-170 -182q45 -94 45 -206
t-45 -202l173 -184l-207 -189l-174 187q-79 -31 -179 -31z" />
    <glyph glyph-name="yen" unicode="&#xa5;" horiz-adv-x="1400" 
d="M1237 680v-164h-305v-70h305v-163h-305v-283h-463v283h-305v163h305v70h-305v164h225l-340 700h498l49 -143q61 -176 102 -354h4q41 178 103 354l49 143h498l-340 -700h225z" />
    <glyph glyph-name="brokenbar" unicode="&#xa6;" horiz-adv-x="618" 
d="M131 -420v717h356v-717h-356zM131 782v717h356v-717h-356z" />
    <glyph glyph-name="section" unicode="&#xa7;" horiz-adv-x="1382" 
d="M487 652q0 -50 32 -78.5t136 -75.5l217 -97q41 39 41 93t-34.5 85t-140.5 73t-212 91q-39 -41 -39 -91zM606 1127q0 -30 21 -53t175 -78q154 -54 239 -97t147.5 -127t62.5 -215q0 -189 -147 -285v-4q111 -88 110 -235q0 -119 -63.5 -210t-180 -141.5t-270.5 -50.5
q-246 0 -375.5 105.5t-138.5 308.5h422q0 -113 84 -113t84 70q0 31 -16.5 51.5t-62.5 44.5t-177 80t-260 130.5t-129 291.5q0 92 41 160.5t109 99.5v4q-102 84 -103 232q0 184 135.5 289.5t368.5 105.5t362.5 -102.5t141.5 -288.5h-416q-4 96 -88 96q-37 0 -56.5 -19.5
t-19.5 -49.5z" />
    <glyph glyph-name="dieresis" unicode="&#xa8;" horiz-adv-x="1081" 
d="M606 1147v311h373v-311h-373zM102 1147v311h373v-311h-373z" />
    <glyph glyph-name="copyright" unicode="&#xa9;" horiz-adv-x="1617" 
d="M702 730q0 -93 31 -147.5t78 -54.5q95 0 104 113h308q-12 -172 -120.5 -262t-294.5 -90t-296.5 116.5t-110.5 322.5t110 323.5t297 117.5t294.5 -90t116.5 -256h-304q-8 106 -102 107q-49 0 -80 -53.5t-31 -146.5zM225 729q0 -178 73 -314t205 -211t306 -75t306 75
t205 211t73 314t-73 314.5t-205 211t-306 74.5t-306 -74.5t-205 -211t-73 -314.5zM1552 729q0 -227 -92 -400t-261 -268.5t-390 -95.5t-390 95.5t-261 268.5t-92 400t92 400.5t261 268.5t390 95t390 -95t261 -268.5t92 -400.5z" />
    <glyph glyph-name="ordfeminine" unicode="&#xaa;" horiz-adv-x="890" 
d="M412 848q41 0 59 24t23 42q4 19 4 57v24q-144 0 -146 -86q0 -61 60 -61zM827 1112v-213q0 -143 27 -223h-309q-12 35 -13 86h-4q-90 -109 -227 -109t-209 67t-72 169q0 101 74 159q103 80 404 99v27q0 76 -62 75q-61 0 -61 -78h-324q7 111 101 184t290 73t290 -82
q95 -82 95 -234z" />
    <glyph glyph-name="guillemotleft" unicode="&#xab;" horiz-adv-x="1325" 
d="M1243 111h-375l-233 409l233 410h375l-209 -410zM690 111h-375l-233 409l233 410h375l-209 -410z" />
    <glyph glyph-name="logicalnot" unicode="&#xac;" horiz-adv-x="1159" 
d="M711 233v402h-609v348h955v-750h-346z" />
    <glyph glyph-name="uni00AD" unicode="&#xad;" horiz-adv-x="757" 
d="M61 449v299h635v-299h-635z" />
    <glyph glyph-name="registered" unicode="&#xae;" horiz-adv-x="1212" 
d="M524 1006h68q94 0 94 75q0 31 -23.5 49.5t-66.5 18.5h-72v-143zM874 1110q0 -115 -126 -158v-4q37 -10 59 -38.5t49 -94.5l62 -156h-205l-51 132q-16 45 -40 63t-67 18h-31v-213h-196v629h325q109 0 165 -47t56 -131zM178 962.5q0 -131.5 53.5 -231.5t150.5 -155.5
t224 -55.5t224.5 55.5t150.5 155.5t53 231.5t-53 231.5t-150.5 155.5t-224.5 55.5t-224 -55.5t-150.5 -155.5t-53.5 -231.5zM1120 962.5q0 -157.5 -63.5 -277.5t-180 -185.5t-270 -65.5t-270.5 65.5t-180.5 185.5t-63.5 277.5t63.5 277.5t180.5 185.5t270.5 65.5t270 -65.5
t180 -185.5t63.5 -277.5z" />
    <glyph glyph-name="macron" unicode="&#xaf;" horiz-adv-x="1077" 
d="M102 1171v261h873v-261h-873z" />
    <glyph glyph-name="degree" unicode="&#xb0;" horiz-adv-x="747" 
d="M254 1164q0 -50 35 -86t86 -36t86 36t35 86t-35 85t-86 35t-86 -35t-35 -85zM688 1163q0 -86 -42 -157.5t-113.5 -113.5t-157.5 -42t-159 42t-115 113.5t-42 157.5t42 159t115 115t159 42t157.5 -42t113.5 -115t42 -159z" />
    <glyph glyph-name="plusminus" unicode="&#xb1;" horiz-adv-x="1159" 
d="M102 0v334h955v-334h-955zM1057 977v-334h-303v-242h-348v242h-304v334h304v242h348v-242h303z" />
    <glyph glyph-name="twosuperior" unicode="&#xb2;" horiz-adv-x="1017" 
d="M584 1356q0 65 -72 65q-41 0 -67.5 -29.5t-26.5 -84.5h-350q-2 170 113.5 264t326.5 94q131 0 280.5 -63.5t149.5 -263.5q0 -199 -279 -283q-117 -35 -154.5 -58.5t-43.5 -50.5h506v-270h-908q-4 37 -4 78q0 168 65.5 270t207.5 160t199 92.5t57 79.5z" />
    <glyph glyph-name="threesuperior" unicode="&#xb3;" horiz-adv-x="999" 
d="M594 963q0 84 -129 84h-23v235h37q49 0 79 20.5t30 54.5q0 73 -88 73q-55 0 -83 -33t-28 -84h-342q0 164 119.5 258t325.5 94t323 -74.5t117 -201.5q0 -76 -40 -125.5t-130 -81.5v-4q96 -31 139 -81t43 -134q0 -141 -119.5 -225.5t-335.5 -84.5t-337 92.5t-121 266.5h358
q0 -123 111 -123q94 0 94 74z" />
    <glyph glyph-name="acute" unicode="&#xb4;" horiz-adv-x="833" 
d="M102 1147l166 311h463l-293 -311h-336z" />
    <glyph glyph-name="mu" unicode="&#xb5;" horiz-adv-x="1337" 
d="M1188 406q0 -101 74 -101q34 0 59 6v-297q-111 -39 -254 -39q-203 0 -285 131h-4q-59 -117 -180 -116q-33 0 -55 8v-377h-447v1419h447v-565q0 -164 92 -164q53 0 80 45t26 156v528h447v-634z" />
    <glyph glyph-name="paragraph" unicode="&#xb6;" horiz-adv-x="1517" 
d="M1276 1176v-1422h-305v1422h-133v-1422h-303v795h-19q-199 0 -316.5 123t-117.5 331t117.5 331.5t316.5 123.5h924v-282h-164z" />
    <glyph glyph-name="periodcentered" unicode="&#xb7;" horiz-adv-x="626" 
d="M86 403v445h455v-445h-455z" />
    <glyph glyph-name="cedilla" unicode="&#xb8;" horiz-adv-x="763" 
d="M471 -109q191 1 191 -177q0 -90 -75 -153t-218 -63t-267 76l70 143q104 -47 172 -47t68 47t-53.5 47t-77.5 -14l-97 74l103 176h188l-72 -119q37 10 68 10z" />
    <glyph glyph-name="onesuperior" unicode="&#xb9;" horiz-adv-x="720" 
d="M264 676v536h-241v254q135 0 200.5 42t79.5 134h315v-966h-354z" />
    <glyph glyph-name="ordmasculine" unicode="&#xba;" horiz-adv-x="933" 
d="M381 1040q0 -137 86 -137t86 137t-86 138q-86 -1 -86 -138zM905 1040q0 -178 -119 -282q-120 -104 -320 -104t-319 104t-118 282q0 178 118 283q119 104 319 104t320 -104q119 -105 119 -283z" />
    <glyph glyph-name="guillemotright" unicode="&#xbb;" horiz-adv-x="1325" 
d="M1243 520l-233 -409h-375l209 409l-209 410h375zM690 520l-233 -409h-375l209 409l-209 410h375z" />
    <glyph glyph-name="onequarter" unicode="&#xbc;" horiz-adv-x="1783" 
d="M18 1233q204 0 242 147h287v-827h-320v465h-209v215zM309 0l717 1380h244l-717 -1380h-244zM1331 346v60q0 131 8 227h-4q-43 -94 -102 -187l-64 -100h162zM1602 137v-137h-287v137h-393v219l307 471h373v-481h161v-209h-161z" />
    <glyph glyph-name="onehalf" unicode="&#xbd;" horiz-adv-x="1816" 
d="M18 1233q204 0 242 147h287v-827h-320v465h-209v215zM309 0l717 1380h244l-717 -1380h-244zM1446 586q0 55 -64 55q-34 0 -58 -26t-24 -74h-296q0 145 99 226t281 81q111 0 194 -36q169 -73 169 -241q0 -167 -238 -247q-104 -36 -136 -54t-38 -43h437v-227h-779
q-2 20 -2 66q1 141 57 225t182 142t171 87t45 66z" />
    <glyph glyph-name="threequarters" unicode="&#xbe;" horiz-adv-x="2004" 
d="M807 795q0 -127 -96 -195t-286 -68t-295 80t-105 232h299q0 -104 104 -105q38 1 62 19t24 47q0 63 -108 63h-29v199h26q105 0 105 63q0 28 -24 46t-66 18t-69 -27q-26 -27 -25 -69h-285q0 143 102 223q103 80 277 80t276 -67t103 -177q0 -132 -150 -172v-4
q84 -25 122 -70t38 -116zM530 0l717 1380h244l-717 -1380h-244zM1552 346v60q0 131 9 227h-5q-43 -94 -102 -187l-63 -100h161zM1823 137v-137h-287v137h-393v219l307 471h373v-481h162v-209h-162z" />
    <glyph glyph-name="questiondown" unicode="&#xbf;" horiz-adv-x="1212" 
d="M63 -49q0 102 42 176t155 164t152 150.5t39 142.5h374q22 -156 2 -221.5t-55.5 -109.5t-111.5 -113t-100.5 -104.5t-24.5 -81.5t26.5 -72.5t69.5 -26.5q129 0 123 190h458q0 -242 -152.5 -369t-423.5 -127t-422 106.5t-151 295.5zM864 1040v-360h-454v360h454z" />
    <glyph glyph-name="Agrave" unicode="&#xc0;" horiz-adv-x="1531" 
d="M874 672q-55 207 -106 452h-4q-51 -246 -107 -452l-26 -103h270zM539 215l-58 -215h-489l481 1458h586l481 -1458h-489l-58 215h-454zM1006 1556h-336l-293 330h463z" />
    <glyph glyph-name="Aacute" unicode="&#xc1;" horiz-adv-x="1531" 
d="M874 672q-55 207 -106 452h-4q-51 -246 -107 -452l-26 -103h270zM539 215l-58 -215h-489l481 1458h586l481 -1458h-489l-58 215h-454zM526 1556l166 330h463l-293 -330h-336z" />
    <glyph glyph-name="Acircumflex" unicode="&#xc2;" horiz-adv-x="1531" 
d="M874 672q-55 207 -106 452h-4q-51 -246 -107 -452l-26 -103h270zM539 215l-58 -215h-489l481 1458h586l481 -1458h-489l-58 215h-454zM938 1886l274 -330h-325l-121 173l-121 -173h-326l273 330h346z" />
    <glyph glyph-name="Atilde" unicode="&#xc3;" horiz-adv-x="1531" 
d="M874 672q-55 207 -106 452h-4q-51 -246 -107 -452l-26 -103h270zM539 215l-58 -215h-489l481 1458h586l481 -1458h-489l-58 215h-454zM893 1810q66 0 74 76h225q-8 -153 -79 -240t-202 -87q-74 1 -158 39t-116 38q-63 0 -74 -77h-225q8 156 78.5 241.5t201.5 85.5
q77 0 161 -38t114 -38z" />
    <glyph glyph-name="Adieresis" unicode="&#xc4;" horiz-adv-x="1531" 
d="M874 672q-55 207 -106 452h-4q-51 -246 -107 -452l-26 -103h270zM539 215l-58 -215h-489l481 1458h586l481 -1458h-489l-58 215h-454zM831 1575v311h373v-311h-373zM328 1575v311h372v-311h-372z" />
    <glyph glyph-name="Aring" unicode="&#xc5;" horiz-adv-x="1531" 
d="M874 672q-55 207 -106 452h-4q-51 -246 -107 -452l-26 -103h270zM539 215l-58 -215h-489l481 1458h586l481 -1458h-489l-58 215h-454zM643 1802q0 -51 36 -87t87 -36t87 36t36 87t-36 87t-87 36t-87 -36t-36 -87zM1022 1802q0 -70 -34 -128t-93 -93t-129 -35t-129 35
t-94 94.5t-35 128t35 128t94 94t129 34.5q106 0 181 -75.5t75 -182.5z" />
    <glyph glyph-name="AE" unicode="&#xc6;" horiz-adv-x="2050" 
d="M926 1077h-29l-176 -459h270zM1964 0h-887l-35 252h-464l-97 -252h-493l594 1458h1380v-377h-604l24 -166h527v-366h-477l26 -172h506v-377z" />
    <glyph glyph-name="Ccedilla" unicode="&#xc7;" horiz-adv-x="1523" 
d="M858 -109q191 1 191 -177q0 -90 -75 -153t-218.5 -63t-266.5 76l70 143q104 -47 172 -47t68 47t-72 47q-35 0 -59 -14l-97 74l88 149q-285 35 -443.5 234t-158.5 522q0 236 86 408t246 263t379 91q311 0 497.5 -155.5t198.5 -438.5h-493q-20 205 -203 205
q-102 0 -162.5 -99.5t-60.5 -272.5t61.5 -273.5t155.5 -100.5t149.5 58.5t63.5 160.5h498q-21 -274 -188 -430.5t-441 -175.5l-53 -88q37 10 67 10z" />
    <glyph glyph-name="Egrave" unicode="&#xc8;" horiz-adv-x="1302" 
d="M592 1081v-166h571v-366h-571v-172h625v-377h-1088v1458h1077v-377h-614zM913 1556h-335l-293 330h463z" />
    <glyph glyph-name="Eacute" unicode="&#xc9;" horiz-adv-x="1302" 
d="M592 1081v-166h571v-366h-571v-172h625v-377h-1088v1458h1077v-377h-614zM434 1556l166 330h463l-293 -330h-336z" />
    <glyph glyph-name="Ecircumflex" unicode="&#xca;" horiz-adv-x="1302" 
d="M592 1081v-166h571v-366h-571v-172h625v-377h-1088v1458h1077v-377h-614zM846 1886l274 -330h-325l-121 173l-121 -173h-326l273 330h346z" />
    <glyph glyph-name="Edieresis" unicode="&#xcb;" horiz-adv-x="1302" 
d="M592 1081v-166h571v-366h-571v-172h625v-377h-1088v1458h1077v-377h-614zM739 1575v311h373v-311h-373zM236 1575v311h372v-311h-372z" />
    <glyph glyph-name="Igrave" unicode="&#xcc;" horiz-adv-x="720" 
d="M129 0v1458h463v-1458h-463zM598 1556h-336l-293 330h463z" />
    <glyph glyph-name="Iacute" unicode="&#xcd;" horiz-adv-x="720" 
d="M129 0v1458h463v-1458h-463zM119 1556l166 330h463l-293 -330h-336z" />
    <glyph glyph-name="Icircumflex" unicode="&#xce;" horiz-adv-x="720" 
d="M129 0v1458h463v-1458h-463zM530 1886l275 -330h-326l-121 173l-120 -173h-326l272 330h346z" />
    <glyph glyph-name="Idieresis" unicode="&#xcf;" horiz-adv-x="720" 
d="M129 0v1458h463v-1458h-463zM424 1575v311h373v-311h-373zM-80 1575v311h373v-311h-373z" />
    <glyph glyph-name="Eth" unicode="&#xd0;" horiz-adv-x="1564" 
d="M1022 729q0 162 -84 252t-233 90h-103v-203h260v-266h-260v-215h103q149 0 233 90t84 252zM1507 729q0 -350 -204.5 -539.5t-581.5 -189.5h-582v602h-119v266h119v590h582q377 0 581.5 -189.5t204.5 -539.5z" />
    <glyph glyph-name="Ntilde" unicode="&#xd1;" horiz-adv-x="1744" 
d="M571 512v-512h-442v1458h678l199 -543q100 -270 180 -546h4q-16 256 -16 577v512h442v-1458h-678l-199 543q-100 270 -180 547h-4q16 -256 16 -578zM999 1810q66 0 74 76h225q-8 -153 -78.5 -240t-201.5 -87q-74 1 -158 39t-117 38q-63 0 -73 -77h-226q8 156 79 241.5
t202 85.5q78 0 161 -38t113 -38z" />
    <glyph glyph-name="Ograve" unicode="&#xd2;" horiz-adv-x="1589" 
d="M1042 729q0 373 -247 373q-123 0 -185.5 -95.5t-62.5 -277.5t62.5 -277.5t185.5 -95.5q247 0 247 373zM1532 729q0 -229 -91 -401t-258 -266.5t-388.5 -94.5t-388 94.5t-258 266.5t-91.5 401t91.5 401.5t258 266.5t388 94t388.5 -94t258 -266.5t91 -401.5zM1034 1556
h-336l-292 330h462z" />
    <glyph glyph-name="Oacute" unicode="&#xd3;" horiz-adv-x="1589" 
d="M1042 729q0 373 -247 373q-123 0 -185.5 -95.5t-62.5 -277.5t62.5 -277.5t185.5 -95.5q247 0 247 373zM1532 729q0 -229 -91 -401t-258 -266.5t-388.5 -94.5t-388 94.5t-258 266.5t-91.5 401t91.5 401.5t258 266.5t388 94t388.5 -94t258 -266.5t91 -401.5zM555 1556
l166 330h463l-293 -330h-336z" />
    <glyph glyph-name="Ocircumflex" unicode="&#xd4;" horiz-adv-x="1589" 
d="M1042 729q0 373 -247 373q-123 0 -185.5 -95.5t-62.5 -277.5t62.5 -277.5t185.5 -95.5q247 0 247 373zM1532 729q0 -229 -91 -401t-258 -266.5t-388.5 -94.5t-388 94.5t-258 266.5t-91.5 401t91.5 401.5t258 266.5t388 94t388.5 -94t258 -266.5t91 -401.5zM967 1886
l274 -330h-326l-120 173l-121 -173h-326l273 330h346z" />
    <glyph glyph-name="Otilde" unicode="&#xd5;" horiz-adv-x="1589" 
d="M1042 729q0 373 -247 373q-123 0 -185.5 -95.5t-62.5 -277.5t62.5 -277.5t185.5 -95.5q247 0 247 373zM1532 729q0 -229 -91 -401t-258 -266.5t-388.5 -94.5t-388 94.5t-258 266.5t-91.5 401t91.5 401.5t258 266.5t388 94t388.5 -94t258 -266.5t91 -401.5zM922 1810
q65 0 73 76h226q-9 -153 -79.5 -240t-201.5 -87q-74 1 -158 39t-116 38q-63 0 -74 -77h-225q8 156 78.5 241.5t201.5 85.5q78 0 161 -38t114 -38z" />
    <glyph glyph-name="Odieresis" unicode="&#xd6;" horiz-adv-x="1589" 
d="M1042 729q0 373 -247 373q-123 0 -185.5 -95.5t-62.5 -277.5t62.5 -277.5t185.5 -95.5q247 0 247 373zM1532 729q0 -229 -91 -401t-258 -266.5t-388.5 -94.5t-388 94.5t-258 266.5t-91.5 401t91.5 401.5t258 266.5t388 94t388.5 -94t258 -266.5t91 -401.5zM860 1575v311
h373v-311h-373zM356 1575v311h373v-311h-373z" />
    <glyph glyph-name="multiply" unicode="&#xd7;" horiz-adv-x="1159" 
d="M825 662l322 -320l-244 -248l-321 322l-322 -322l-244 248l322 320l-322 319l244 248l322 -322l321 322l244 -248z" />
    <glyph glyph-name="Oslash" unicode="&#xd8;" horiz-adv-x="1589" 
d="M1071 729q0 90 -16 168l-389 -532q55 -31 129 -31q135 0 205.5 101.5t70.5 293.5zM537 561l389 533q-55 31 -131 30q-133 0 -204 -101t-71 -294q1 -90 17 -168zM1532 729q0 -229 -91 -401t-258 -266.5t-381 -94.5t-368 80l-123 -168l-180 127l125 170q-199 207 -199 553
q0 229 91.5 401.5t258 266.5t379 94t371.5 -80l123 168l180 -127l-125 -172q197 -207 197 -551z" />
    <glyph glyph-name="Ugrave" unicode="&#xd9;" horiz-adv-x="1511" 
d="M756 -33q-305 0 -472 162t-167 455v874h463v-870q0 -106 45 -162.5t131 -56.5t131 56t45 163v870h463v-874q0 -293 -167 -455t-472 -162zM993 1556h-336l-292 330h462z" />
    <glyph glyph-name="Uacute" unicode="&#xda;" horiz-adv-x="1511" 
d="M756 -33q-305 0 -472 162t-167 455v874h463v-870q0 -106 45 -162.5t131 -56.5t131 56t45 163v870h463v-874q0 -293 -167 -455t-472 -162zM514 1556l166 330h463l-293 -330h-336z" />
    <glyph glyph-name="Ucircumflex" unicode="&#xdb;" horiz-adv-x="1511" 
d="M756 -33q-305 0 -472 162t-167 455v874h463v-870q0 -106 45 -162.5t131 -56.5t131 56t45 163v870h463v-874q0 -293 -167 -455t-472 -162zM926 1886l274 -330h-326l-120 173l-121 -173h-326l273 330h346z" />
    <glyph glyph-name="Udieresis" unicode="&#xdc;" horiz-adv-x="1511" 
d="M756 -33q-305 0 -472 162t-167 455v874h463v-870q0 -106 45 -162.5t131 -56.5t131 56t45 163v870h463v-874q0 -293 -167 -455t-472 -162zM819 1575v311h373v-311h-373zM315 1575v311h373v-311h-373z" />
    <glyph glyph-name="Yacute" unicode="&#xdd;" horiz-adv-x="1462" 
d="M963 0h-463v516l-502 942h506l102 -246q80 -193 123 -356h4q43 164 123 356l102 246h506l-501 -942v-516zM492 1556l165 330h463l-293 -330h-335z" />
    <glyph glyph-name="Thorn" unicode="&#xde;" horiz-adv-x="1415" 
d="M594 594h94q115 0 164 35t49 120t-50 119.5t-163 34.5h-94v-309zM776 1274q299 0 450.5 -139t151.5 -387t-151.5 -387.5t-448.5 -139.5h-184v-221h-465v1458h465v-184h182z" />
    <glyph glyph-name="germandbls" unicode="&#xdf;" horiz-adv-x="1251" 
d="M745 1075q0 96 -101 96t-101 -159v-1012h-447v1040q0 209 144.5 330t392.5 121q160 0 280.5 -45t186 -128t65.5 -201t-61.5 -194.5t-192.5 -117.5v-4q154 -47 228.5 -140.5t74.5 -244.5q0 -213 -133 -316.5t-415 -103.5q-29 0 -62 4v326q12 -2 31 -2q57 0 90 37.5
t33 109.5q0 147 -135 147h-19v345q141 0 141 112z" />
    <glyph glyph-name="agrave" unicode="&#xe0;" horiz-adv-x="1208" 
d="M566 233q126 0 126 191v37q-76 -5 -135 -21q-94 -25 -94 -110q0 -43 24.5 -70t78.5 -27zM1122 631v-320q0 -201 35 -311h-403q-16 55 -17 127h-4q-127 -158 -338 -158q-170 0 -268 93.5t-98 237.5t101 226q137 112 562 144v37q0 123 -98 122.5t-98 -120.5h-424
q10 160 137 262t391 102t393 -113.5t129 -328.5zM825 1147h-336l-292 311h462z" />
    <glyph glyph-name="aacute" unicode="&#xe1;" horiz-adv-x="1208" 
d="M566 233q126 0 126 191v37q-76 -5 -135 -21q-94 -25 -94 -110q0 -43 24.5 -70t78.5 -27zM1122 631v-320q0 -201 35 -311h-403q-16 55 -17 127h-4q-127 -158 -338 -158q-170 0 -268 93.5t-98 237.5t101 226q137 112 562 144v37q0 123 -98 122.5t-98 -120.5h-424
q10 160 137 262t391 102t393 -113.5t129 -328.5zM346 1147l166 311h463l-293 -311h-336z" />
    <glyph glyph-name="acircumflex" unicode="&#xe2;" horiz-adv-x="1208" 
d="M566 233q126 0 126 191v37q-76 -5 -135 -21q-94 -25 -94 -110q0 -43 24.5 -70t78.5 -27zM1122 631v-320q0 -201 35 -311h-403q-16 55 -17 127h-4q-127 -158 -338 -158q-170 0 -268 93.5t-98 237.5t101 226q137 112 562 144v37q0 123 -98 122.5t-98 -120.5h-424
q10 160 137 262t391 102t393 -113.5t129 -328.5zM586 1300l-107 -153h-325l260 311h346l260 -311h-326z" />
    <glyph glyph-name="atilde" unicode="&#xe3;" horiz-adv-x="1208" 
d="M566 233q126 0 126 191v37q-76 -5 -135 -21q-94 -25 -94 -110q0 -43 24.5 -70t78.5 -27zM1122 631v-320q0 -201 35 -311h-403q-16 55 -17 127h-4q-127 -158 -338 -158q-170 0 -268 93.5t-98 237.5t101 226q137 112 562 144v37q0 123 -98 122.5t-98 -120.5h-424
q10 160 137 262t391 102t393 -113.5t129 -328.5zM713 1382q65 0 73 76h226q-8 -153 -79 -240.5t-202 -87.5q-72 0 -156.5 39t-117.5 39q-63 0 -74 -78h-225q8 156 78.5 242t201.5 86q78 0 161 -38t114 -38z" />
    <glyph glyph-name="adieresis" unicode="&#xe4;" horiz-adv-x="1208" 
d="M566 233q126 0 126 191v37q-76 -5 -135 -21q-94 -25 -94 -110q0 -43 24.5 -70t78.5 -27zM1122 631v-320q0 -201 35 -311h-403q-16 55 -17 127h-4q-127 -158 -338 -158q-170 0 -268 93.5t-98 237.5t101 226q137 112 562 144v37q0 123 -98 122.5t-98 -120.5h-424
q10 160 137 262t391 102t393 -113.5t129 -328.5zM651 1147v311h373v-311h-373zM147 1147v311h373v-311h-373z" />
    <glyph glyph-name="aring" unicode="&#xe5;" horiz-adv-x="1208" 
d="M566 233q126 0 126 191v37q-76 -5 -135 -21q-94 -25 -94 -110q0 -43 24.5 -70t78.5 -27zM1122 631v-320q0 -201 35 -311h-403q-16 55 -17 127h-4q-127 -158 -338 -158q-170 0 -268 93.5t-98 237.5t101 226q137 112 562 144v37q0 123 -98 122.5t-98 -120.5h-424
q10 160 137 262t391 102t393 -113.5t129 -328.5zM463 1374q0 -51 36 -87t87 -36t87 36t36 87t-36 87t-87 36t-87 -36t-36 -87zM842 1374q0 -70 -34 -128t-93.5 -93t-129 -35t-129 35t-94 94.5t-34.5 128t34.5 128t94 94t129.5 34.5q106 0 181 -75.5t75 -182.5z" />
    <glyph glyph-name="ae" unicode="&#xe6;" horiz-adv-x="1896" 
d="M561 221q158 0 158 205v29h-31q-225 0 -225 -129q0 -47 24.5 -76t73.5 -29zM1274 807q-113 0 -133 -158h266q-4 84 -41 121t-92 37zM1137 430q11 -184 131 -184q54 0 83 22.5t33 57.5h455q-23 -102 -100.5 -184.5t-196.5 -128.5t-260 -46q-254 0 -403 160
q-119 -160 -394 -160q-221 0 -338.5 93.5t-117.5 235.5t74.5 220t219 108.5t377.5 30.5h19v52q0 63 -25.5 92.5t-85.5 29.5q-111 0 -110 -120h-424q10 160 140 262t371.5 102t366.5 -92q131 92 324 92t327 -81q201 -120 240 -370q12 -76 12 -192h-718z" />
    <glyph glyph-name="ccedilla" unicode="&#xe7;" horiz-adv-x="1232" 
d="M713 -109q190 1 190 -177q0 -90 -74.5 -153t-219 -63t-265.5 76l70 143q104 -47 172 -47t67 45q1 49 -71 49q-34 0 -60 -14l-96 74l88 151q-221 29 -347 175.5t-126 375.5q0 166 70.5 290t202.5 190.5t309 66.5q244 0 400.5 -121t176.5 -331h-461q-6 61 -34.5 92.5
t-71.5 31.5q-121 0 -121 -224t123 -224q47 0 74.5 36t29.5 105h461q-14 -205 -148 -327.5t-354 -139.5l-53 -90q37 10 68 10z" />
    <glyph glyph-name="egrave" unicode="&#xe8;" horiz-adv-x="1239" 
d="M617.5 807q-54.5 0 -89 -35t-47.5 -123h269q-4 84 -41 121t-91.5 37zM479 430q11 -184 131 -184q54 0 83.5 22.5t33.5 57.5h455q-23 -102 -100.5 -184.5t-196.5 -128.5t-282.5 -46t-296 74t-199 201t-66.5 283.5t67.5 280.5t197.5 195.5t317.5 71.5t321.5 -81
q202 -122 241 -370q12 -76 12 -192h-719zM858 1147h-336l-293 311h463z" />
    <glyph glyph-name="eacute" unicode="&#xe9;" horiz-adv-x="1239" 
d="M617.5 807q-54.5 0 -89 -35t-47.5 -123h269q-4 84 -41 121t-91.5 37zM479 430q11 -184 131 -184q54 0 83.5 22.5t33.5 57.5h455q-23 -102 -100.5 -184.5t-196.5 -128.5t-282.5 -46t-296 74t-199 201t-66.5 283.5t67.5 280.5t197.5 195.5t317.5 71.5t321.5 -81
q202 -122 241 -370q12 -76 12 -192h-719zM379 1147l166 311h463l-293 -311h-336z" />
    <glyph glyph-name="ecircumflex" unicode="&#xea;" horiz-adv-x="1239" 
d="M617.5 807q-54.5 0 -89 -35t-47.5 -123h269q-4 84 -41 121t-91.5 37zM479 430q11 -184 131 -184q54 0 83.5 22.5t33.5 57.5h455q-23 -102 -100.5 -184.5t-196.5 -128.5t-282.5 -46t-296 74t-199 201t-66.5 283.5t67.5 280.5t197.5 195.5t317.5 71.5t321.5 -81
q202 -122 241 -370q12 -76 12 -192h-719zM618 1300l-106 -153h-326l260 311h347l260 -311h-326z" />
    <glyph glyph-name="edieresis" unicode="&#xeb;" horiz-adv-x="1239" 
d="M617.5 807q-54.5 0 -89 -35t-47.5 -123h269q-4 84 -41 121t-91.5 37zM479 430q11 -184 131 -184q54 0 83.5 22.5t33.5 57.5h455q-23 -102 -100.5 -184.5t-196.5 -128.5t-282.5 -46t-296 74t-199 201t-66.5 283.5t67.5 280.5t197.5 195.5t317.5 71.5t321.5 -81
q202 -122 241 -370q12 -76 12 -192h-719zM684 1147v311h373v-311h-373zM180 1147v311h373v-311h-373z" />
    <glyph glyph-name="igrave" unicode="&#xec;" horiz-adv-x="638" 
d="M96 0v1040h447v-1040h-447zM559 1147h-336l-293 311h463z" />
    <glyph glyph-name="iacute" unicode="&#xed;" horiz-adv-x="638" 
d="M96 0v1040h447v-1040h-447zM80 1147l166 311h463l-293 -311h-336z" />
    <glyph glyph-name="icircumflex" unicode="&#xee;" horiz-adv-x="638" 
d="M96 0v1040h447v-1040h-447zM414 1155l-95 119l-90 -119h-311l242 303h321l242 -303h-309z" />
    <glyph glyph-name="idieresis" unicode="&#xef;" horiz-adv-x="638" 
d="M96 0v1040h447v-1040h-447zM365 1147v311h311v-311h-311zM-37 1147v311h311v-311h-311z" />
    <glyph glyph-name="eth" unicode="&#xf0;" horiz-adv-x="1253" 
d="M514 510q0 -227 121 -227t121 227t-121 227t-121 -227zM1212 545q0 -274 -161.5 -426t-440.5 -152q-172 0 -301 62.5t-198.5 177.5t-69.5 273t58.5 278.5t165 186t247.5 65.5q55 0 102 -11v5q-35 39 -118 118l-269 -90l-61 174l164 56q-49 37 -117 81l395 148
q59 -37 131 -92l248 84l62 -174l-152 -52q214 -218 264.5 -394.5t50.5 -317.5z" />
    <glyph glyph-name="ntilde" unicode="&#xf1;" 
d="M1192 641v-641h-447v584q0 145 -92 145q-57 0 -83.5 -53t-26.5 -172v-504h-447v1040h414v-112h4q111 143 294 143t283.5 -111.5t100.5 -318.5zM772 1382q66 0 74 76h225q-8 -153 -78.5 -240.5t-201.5 -87.5q-71 0 -157 39t-118 39q-63 0 -74 -78h-225q8 156 79 242
t202 86q78 0 161 -38t113 -38z" />
    <glyph glyph-name="ograve" unicode="&#xf2;" horiz-adv-x="1294" 
d="M647 743q-135 0 -135 -223t135 -223t135 223t-135 223zM1253 520q0 -168 -74.5 -293t-212 -192.5t-319.5 -67.5t-319.5 67.5t-212 192.5t-74.5 293t74.5 293t212 192.5t319.5 67.5t319.5 -67.5t212 -192.5t74.5 -293zM887 1147h-336l-293 311h463z" />
    <glyph glyph-name="oacute" unicode="&#xf3;" horiz-adv-x="1294" 
d="M647 743q-135 0 -135 -223t135 -223t135 223t-135 223zM1253 520q0 -168 -74.5 -293t-212 -192.5t-319.5 -67.5t-319.5 67.5t-212 192.5t-74.5 293t74.5 293t212 192.5t319.5 67.5t319.5 -67.5t212 -192.5t74.5 -293zM408 1147l165 311h463l-293 -311h-335z" />
    <glyph glyph-name="ocircumflex" unicode="&#xf4;" horiz-adv-x="1294" 
d="M647 743q-135 0 -135 -223t135 -223t135 223t-135 223zM1253 520q0 -168 -74.5 -293t-212 -192.5t-319.5 -67.5t-319.5 67.5t-212 192.5t-74.5 293t74.5 293t212 192.5t319.5 67.5t319.5 -67.5t212 -192.5t74.5 -293zM647 1300l-106 -153h-326l260 311h346l260 -311h-325
z" />
    <glyph glyph-name="otilde" unicode="&#xf5;" horiz-adv-x="1294" 
d="M647 743q-135 0 -135 -223t135 -223t135 223t-135 223zM1253 520q0 -168 -74.5 -293t-212 -192.5t-319.5 -67.5t-319.5 67.5t-212 192.5t-74.5 293t74.5 293t212 192.5t319.5 67.5t319.5 -67.5t212 -192.5t74.5 -293zM774 1382q66 0 74 76h225q-8 -153 -78.5 -240.5
t-201.5 -87.5q-71 0 -157 39t-118 39q-63 0 -74 -78h-225q8 156 79 242t202 86q78 0 161 -38t113 -38z" />
    <glyph glyph-name="odieresis" unicode="&#xf6;" horiz-adv-x="1294" 
d="M647 743q-135 0 -135 -223t135 -223t135 223t-135 223zM1253 520q0 -168 -74.5 -293t-212 -192.5t-319.5 -67.5t-319.5 67.5t-212 192.5t-74.5 293t74.5 293t212 192.5t319.5 67.5t319.5 -67.5t212 -192.5t74.5 -293zM713 1147v311h372v-311h-372zM209 1147v311h373v-311
h-373z" />
    <glyph glyph-name="divide" unicode="&#xf7;" horiz-adv-x="1159" 
d="M389 125v274h381v-274h-381zM102 477v346h955v-346h-955zM389 901v273h381v-273h-381z" />
    <glyph glyph-name="oslash" unicode="&#xf8;" horiz-adv-x="1294" 
d="M815 494.5q0 86.5 -10 121.5l-232 -323q31 -18 74 -19q82 0 125 67t43 153.5zM479 520q0 -49 10 -96l234 324q-35 18 -76 18q-82 0 -125 -65.5t-43 -180.5zM1253 520q0 -168 -74.5 -293t-212 -192.5t-294 -67.5t-277.5 39l-108 -149l-156 112l94 131q-184 155 -184 420
q0 168 74.5 293t212 192.5t296 67.5t275.5 -39l109 150l157 -113l-96 -131q184 -147 184 -420z" />
    <glyph glyph-name="ugrave" unicode="&#xf9;" 
d="M86 399v641h446v-583q0 -145 93 -146q57 0 83.5 53.5t26.5 172.5v503h447v-1040h-414v113h-4q-111 -143 -294 -143.5t-283.5 111.5t-100.5 318zM881 1147h-336l-293 311h463z" />
    <glyph glyph-name="uacute" unicode="&#xfa;" 
d="M86 399v641h446v-583q0 -145 93 -146q57 0 83.5 53.5t26.5 172.5v503h447v-1040h-414v113h-4q-111 -143 -294 -143.5t-283.5 111.5t-100.5 318zM401 1147l166 311h463l-293 -311h-336z" />
    <glyph glyph-name="ucircumflex" unicode="&#xfb;" 
d="M86 399v641h446v-583q0 -145 93 -146q57 0 83.5 53.5t26.5 172.5v503h447v-1040h-414v113h-4q-111 -143 -294 -143.5t-283.5 111.5t-100.5 318zM641 1300l-106 -153h-326l260 311h346l260 -311h-325z" />
    <glyph glyph-name="udieresis" unicode="&#xfc;" 
d="M86 399v641h446v-583q0 -145 93 -146q57 0 83.5 53.5t26.5 172.5v503h447v-1040h-414v113h-4q-111 -143 -294 -143.5t-283.5 111.5t-100.5 318zM707 1147v311h372v-311h-372zM203 1147v311h372v-311h-372z" />
    <glyph glyph-name="yacute" unicode="&#xfd;" horiz-adv-x="1193" 
d="M369 -4q0 23 -11.5 56.5t-62.5 168.5l-326 819h486l86 -346q55 -236 86 -430h4q18 160 67 434l64 342h452l-294 -970q-54 -176 -118.5 -276.5t-156.5 -144.5t-227 -44t-236 22v312q49 -12 90 -13q97 0 97 70zM369 1147l166 311h462l-292 -311h-336z" />
    <glyph glyph-name="thorn" unicode="&#xfe;" horiz-adv-x="1298" 
d="M518 520q0 -98 37 -157.5t99 -59.5t98 58.5t36 159t-36 158.5t-98 58t-99 -59.5t-37 -157.5zM809 1073q135 0 236.5 -67.5t156.5 -192.5t55 -293t-55 -293t-156.5 -192.5t-236.5 -67.5q-78 0 -147.5 31t-114.5 88h-4v-465h-447v1837h447v-504h4q45 57 114.5 88t147.5 31z
" />
    <glyph glyph-name="ydieresis" unicode="&#xff;" horiz-adv-x="1193" 
d="M369 -4q0 23 -11.5 56.5t-62.5 168.5l-326 819h486l86 -346q55 -236 86 -430h4q18 160 67 434l64 342h452l-294 -970q-54 -176 -118.5 -276.5t-156.5 -144.5t-227 -44t-236 22v312q49 -12 90 -13q97 0 97 70zM674 1147v311h373v-311h-373zM170 1147v311h373v-311h-373z
" />
    <glyph glyph-name="Amacron" unicode="&#x100;" horiz-adv-x="1531" 
d="M874 672q-55 207 -106 452h-4q-51 -246 -107 -452l-26 -103h270zM539 215l-58 -215h-489l481 1458h586l481 -1458h-489l-58 215h-454zM330 1583v260h872v-260h-872z" />
    <glyph glyph-name="amacron" unicode="&#x101;" horiz-adv-x="1208" 
d="M566 233q126 0 126 191v37q-76 -5 -135 -21q-94 -25 -94 -110q0 -43 24.5 -70t78.5 -27zM1122 631v-320q0 -201 35 -311h-403q-16 55 -17 127h-4q-127 -158 -338 -158q-170 0 -268 93.5t-98 237.5t101 226q137 112 562 144v37q0 123 -98 122.5t-98 -120.5h-424
q10 160 137 262t391 102t393 -113.5t129 -328.5zM150 1171v261h872v-261h-872z" />
    <glyph glyph-name="Abreve" unicode="&#x102;" horiz-adv-x="1531" 
d="M874 672q-55 207 -106 452h-4q-51 -246 -107 -452l-26 -103h270zM539 215l-58 -215h-489l481 1458h586l481 -1458h-489l-58 215h-454zM766 1559q-178 0 -275.5 85t-101.5 242h262q2 -49 30 -70.5t85 -21.5t85 21.5t30 70.5h262q-4 -157 -101.5 -242t-275.5 -85z" />
    <glyph glyph-name="abreve" unicode="&#x103;" horiz-adv-x="1208" 
d="M566 233q126 0 126 191v37q-76 -5 -135 -21q-94 -25 -94 -110q0 -43 24.5 -70t78.5 -27zM1122 631v-320q0 -201 35 -311h-403q-16 55 -17 127h-4q-127 -158 -338 -158q-170 0 -268 93.5t-98 237.5t101 226q137 112 562 144v37q0 123 -98 122.5t-98 -120.5h-424
q10 160 137 262t391 102t393 -113.5t129 -328.5zM586 1130q-178 0 -275.5 85t-101.5 243h262q2 -49 29.5 -70.5t85 -21.5t85 21.5t29.5 70.5h263q-5 -158 -102 -243t-275 -85z" />
    <glyph glyph-name="Aogonek" unicode="&#x104;" horiz-adv-x="1531" 
d="M874 672q-55 207 -106 452h-4q-51 -246 -107 -452l-26 -103h270zM1004 -211q0 123 196 211h-149l-58 215h-454l-58 -215h-489l481 1458h586l481 -1458q-66 -39 -91.5 -67.5t-25.5 -59.5q0 -53 60 -53q31 0 63 14v-213q-111 -37 -253 -37t-215.5 53.5t-73.5 151.5z" />
    <glyph glyph-name="aogonek" unicode="&#x105;" horiz-adv-x="1208" 
d="M566 233q126 0 126 191v37q-76 -5 -135 -21q-94 -25 -94 -110q0 -43 24.5 -70t78.5 -27zM621 -211q0 123 196 211h-63q-16 55 -17 127h-4q-127 -158 -338 -158q-170 0 -268 93.5t-98 237.5t101 226q137 112 562 144v37q0 123 -98 122.5t-98 -120.5h-424q10 160 137 262
t391 102t393 -113.5t129 -328.5v-320q0 -201 35 -311q-66 -39 -91.5 -67.5t-25.5 -59.5q0 -53 60 -53q30 0 63 14v-213q-111 -37 -253 -37t-215.5 53.5t-73.5 151.5z" />
    <glyph glyph-name="Cacute" unicode="&#x106;" horiz-adv-x="1523" 
d="M768 1102q-102 0 -162.5 -99.5t-60.5 -272.5t61.5 -273.5t155.5 -100.5t149.5 58.5t63.5 160.5h498q-23 -293 -210.5 -450.5t-492.5 -157.5q-221 0 -382 92.5t-246 263.5t-85 406.5t86 407.5t246 263t379 91q311 0 497.5 -155.5t198.5 -438.5h-493q-21 205 -203 205z
M528 1556l166 330h463l-293 -330h-336z" />
    <glyph glyph-name="cacute" unicode="&#x107;" horiz-adv-x="1232" 
d="M633 745q-121 0 -121 -224t123 -224q47 0 74.5 36t29.5 105h461q-16 -221 -171 -346t-404 -125q-176 0 -308.5 67.5t-204 194.5t-71.5 295t70.5 292t202.5 190.5t309 66.5q243 0 400 -121t177 -331h-461q-6 61 -34.5 92.5t-71.5 31.5zM383 1147l166 311h463l-293 -311
h-336z" />
    <glyph glyph-name="Ccircumflex" unicode="&#x108;" horiz-adv-x="1523" 
d="M768 1102q-102 0 -162.5 -99.5t-60.5 -272.5t61.5 -273.5t155.5 -100.5t149.5 58.5t63.5 160.5h498q-23 -293 -210.5 -450.5t-492.5 -157.5q-221 0 -382 92.5t-246 263.5t-85 406.5t86 407.5t246 263t379 91q311 0 497.5 -155.5t198.5 -438.5h-493q-21 205 -203 205z
M940 1886l274 -330h-325l-121 173l-121 -173h-325l272 330h346z" />
    <glyph glyph-name="ccircumflex" unicode="&#x109;" horiz-adv-x="1232" 
d="M633 745q-121 0 -121 -224t123 -224q47 0 74.5 36t29.5 105h461q-16 -221 -171 -346t-404 -125q-176 0 -308.5 67.5t-204 194.5t-71.5 295t70.5 292t202.5 190.5t309 66.5q243 0 400 -121t177 -331h-461q-6 61 -34.5 92.5t-71.5 31.5zM623 1300l-107 -153h-326l261 311
h346l260 -311h-326z" />
    <glyph glyph-name="Cdotaccent" unicode="&#x10a;" horiz-adv-x="1523" 
d="M768 1102q-102 0 -162.5 -99.5t-60.5 -272.5t61.5 -273.5t155.5 -100.5t149.5 58.5t63.5 160.5h498q-23 -293 -210.5 -450.5t-492.5 -157.5q-221 0 -382 92.5t-246 263.5t-85 406.5t86 407.5t246 263t379 91q311 0 497.5 -155.5t198.5 -438.5h-493q-21 205 -203 205z
M543 1575v311h446v-311h-446z" />
    <glyph glyph-name="cdotaccent" unicode="&#x10b;" horiz-adv-x="1232" 
d="M633 745q-121 0 -121 -224t123 -224q47 0 74.5 36t29.5 105h461q-16 -221 -171 -346t-404 -125q-176 0 -308.5 67.5t-204 194.5t-71.5 295t70.5 292t202.5 190.5t309 66.5q243 0 400 -121t177 -331h-461q-6 61 -34.5 92.5t-71.5 31.5zM399 1147v311h447v-311h-447z" />
    <glyph glyph-name="Ccaron" unicode="&#x10c;" horiz-adv-x="1523" 
d="M768 1102q-102 0 -162.5 -99.5t-60.5 -272.5t61.5 -273.5t155.5 -100.5t149.5 58.5t63.5 160.5h498q-23 -293 -210.5 -450.5t-492.5 -157.5q-221 0 -382 92.5t-246 263.5t-85 406.5t86 407.5t246 263t379 91q311 0 497.5 -155.5t198.5 -438.5h-493q-21 205 -203 205z
M596 1556l-274 330h325l121 -172l121 172h325l-272 -330h-346z" />
    <glyph glyph-name="ccaron" unicode="&#x10d;" horiz-adv-x="1232" 
d="M633 745q-121 0 -121 -224t123 -224q47 0 74.5 36t29.5 105h461q-16 -221 -171 -346t-404 -125q-176 0 -308.5 67.5t-204 194.5t-71.5 295t70.5 292t202.5 190.5t309 66.5q243 0 400 -121t177 -331h-461q-6 61 -34.5 92.5t-71.5 31.5zM451 1147l-261 311h326l107 -153
l108 153h326l-260 -311h-346z" />
    <glyph glyph-name="Dcaron" unicode="&#x10e;" horiz-adv-x="1554" 
d="M592 387h102q150 0 234 90t84 252t-84 252t-234 90h-102v-684zM1497 729q0 -350 -205 -539.5t-581 -189.5h-582v1458h582q376 0 581 -189.5t205 -539.5zM553 1556l-274 330h325l121 -172l121 172h325l-272 -330h-346z" />
    <glyph glyph-name="dcaron" unicode="&#x10f;" horiz-adv-x="1298" 
d="M510 520q0 -100 36 -158t98 -59q62 0 99 59q37 60 37 158t-37 158t-99 59q-62 0 -98 -58q-36 -59 -36 -159zM504 -33q-139 0 -244 68q-104 69 -162 193t-57 292q0 168 55 293q54 125 156 193t237 67q78 0 148 -31t115 -88h4v504h446v-1458h-426v111h-4
q-94 -144 -268 -144zM1260 1092l38 366h349l-136 -366h-251z" />
    <glyph glyph-name="Dcroat" unicode="&#x110;" horiz-adv-x="1564" 
d="M1022 729q0 162 -84 252t-233 90h-103v-203h260v-266h-260v-215h103q149 0 233 90t84 252zM1507 729q0 -350 -204.5 -539.5t-581.5 -189.5h-582v602h-119v266h119v590h582q377 0 581.5 -189.5t204.5 -539.5z" />
    <glyph glyph-name="dcroat" unicode="&#x111;" horiz-adv-x="1296" 
d="M780 520q0 98 -37 157.5t-99 59.5t-98 -58t-36 -158.5t36 -159t98 -58.5t99 59.5t37 157.5zM504 -33q-139 0 -243.5 67.5t-162 192.5t-57.5 293t55.5 293t156.5 192.5t236 67.5q78 0 148 -30.5t115 -88.5h4v201h-293v186h293v117h446v-117h133v-186h-133v-1155h-426v111
h-4q-94 -144 -268 -144z" />
    <glyph glyph-name="Emacron" unicode="&#x112;" horiz-adv-x="1302" 
d="M592 1081v-166h571v-366h-571v-172h625v-377h-1088v1458h1077v-377h-614zM238 1583v260h872v-260h-872z" />
    <glyph glyph-name="emacron" unicode="&#x113;" horiz-adv-x="1239" 
d="M617.5 807q-54.5 0 -89 -35t-47.5 -123h269q-4 84 -41 121t-91.5 37zM479 430q11 -184 131 -184q54 0 83.5 22.5t33.5 57.5h455q-23 -102 -100.5 -184.5t-196.5 -128.5t-282.5 -46t-296 74t-199 201t-66.5 283.5t67.5 280.5t197.5 195.5t317.5 71.5t321.5 -81
q202 -122 241 -370q12 -76 12 -192h-719zM182 1171v261h873v-261h-873z" />
    <glyph glyph-name="Ebreve" unicode="&#x114;" horiz-adv-x="1302" 
d="M592 1081v-166h571v-366h-571v-172h625v-377h-1088v1458h1077v-377h-614zM674 1559q-178 0 -275.5 85t-101.5 242h262q2 -49 29.5 -70.5t85 -21.5t85 21.5t29.5 70.5h263q-4 -157 -101.5 -242t-275.5 -85z" />
    <glyph glyph-name="ebreve" unicode="&#x115;" horiz-adv-x="1239" 
d="M617.5 807q-54.5 0 -89 -35t-47.5 -123h269q-4 84 -41 121t-91.5 37zM479 430q11 -184 131 -184q54 0 83.5 22.5t33.5 57.5h455q-23 -102 -100.5 -184.5t-196.5 -128.5t-282.5 -46t-296 74t-199 201t-66.5 283.5t67.5 280.5t197.5 195.5t317.5 71.5t321.5 -81
q202 -122 241 -370q12 -76 12 -192h-719zM618.5 1130q-178.5 0 -275.5 85t-101 243h262q2 -49 29.5 -70.5t85 -21.5t85 21.5t29.5 70.5h262q-4 -158 -101 -243t-275.5 -85z" />
    <glyph glyph-name="Edotaccent" unicode="&#x116;" horiz-adv-x="1302" 
d="M592 1081v-166h571v-366h-571v-172h625v-377h-1088v1458h1077v-377h-614zM449 1575v311h446v-311h-446z" />
    <glyph glyph-name="edotaccent" unicode="&#x117;" horiz-adv-x="1239" 
d="M617.5 807q-54.5 0 -89 -35t-47.5 -123h269q-4 84 -41 121t-91.5 37zM479 430q11 -184 131 -184q54 0 83.5 22.5t33.5 57.5h455q-23 -102 -100.5 -184.5t-196.5 -128.5t-282.5 -46t-296 74t-199 201t-66.5 283.5t67.5 280.5t197.5 195.5t317.5 71.5t321.5 -81
q202 -122 241 -370q12 -76 12 -192h-719zM395 1147v311h447v-311h-447z" />
    <glyph glyph-name="Eogonek" unicode="&#x118;" horiz-adv-x="1302" 
d="M682 -211q0 124 197 211h-750v1458h1077v-377h-614v-166h571v-366h-571v-172h625v-377h2q-66 -39 -91.5 -67.5t-25.5 -59.5q0 -53 59 -53q31 0 64 14v-213q-111 -37 -253 -37t-216 53.5t-74 151.5z" />
    <glyph glyph-name="eogonek" unicode="&#x119;" horiz-adv-x="1239" 
d="M618 807q-54 0 -89 -35t-48 -123h269q-4 84 -41 121t-91 37zM479 430q11 -184 131 -184q53 0 83 22.5t34 57.5h455q-33 -133 -164 -260q-90 -88 -90 -179q0 -67 67 -67q33 0 62 14v-213q-111 -37 -253 -37t-216 53.5t-74 153.5t135 174v4l-24 -2q-186 0 -318.5 74
t-199 201.5t-66.5 283.5t67.5 280t197.5 195.5t318 71.5t355.5 -101.5t193 -264t25.5 -277.5h-719z" />
    <glyph glyph-name="Ecaron" unicode="&#x11a;" horiz-adv-x="1302" 
d="M592 1081v-166h571v-366h-571v-172h625v-377h-1088v1458h1077v-377h-614zM502 1556l-275 330h326l121 -172l121 172h325l-272 -330h-346z" />
    <glyph glyph-name="ecaron" unicode="&#x11b;" horiz-adv-x="1239" 
d="M617.5 807q-54.5 0 -89 -35t-47.5 -123h269q-4 84 -41 121t-91.5 37zM479 430q11 -184 131 -184q54 0 83.5 22.5t33.5 57.5h455q-23 -102 -100.5 -184.5t-196.5 -128.5t-282.5 -46t-296 74t-199 201t-66.5 283.5t67.5 280.5t197.5 195.5t317.5 71.5t321.5 -81
q202 -122 241 -370q12 -76 12 -192h-719zM446 1147l-260 311h326l106 -153l109 153h326l-260 -311h-347z" />
    <glyph glyph-name="Gcircumflex" unicode="&#x11c;" horiz-adv-x="1566" 
d="M793 1130q-115 0 -181.5 -109.5t-66.5 -300t67.5 -302t175 -111.5t169 61.5t67.5 157.5h-248v328h680v-854h-399v129h-4q-129 -160 -369 -160q-193 0 -334 91.5t-217 261.5t-76 404.5t89.5 407.5t255 265t374.5 92t356.5 -64.5t233.5 -182.5t94 -271h-491
q-10 74 -55.5 115.5t-120.5 41.5zM954 1886l275 -330h-326l-121 173l-120 -173h-326l272 330h346z" />
    <glyph glyph-name="gcircumflex" unicode="&#x11d;" 
d="M498 544q0 -91 36.5 -144.5t98 -53.5t95.5 53.5t34 144.5t-35 145t-95.5 54t-97 -54t-36.5 -145zM748 51v105h-5q-41 -63 -119.5 -102.5t-185 -39.5t-201 65.5t-145.5 184.5t-51 278.5t52 279.5t150.5 184.5t207 64.5t189.5 -48t124 -122h4v139h414v-966
q0 -248 -146.5 -364t-435.5 -116q-225 0 -358 88.5t-156 251.5h416q9 -88 104 -88q142 0 142 205zM606 1300l-106 -153h-326l260 311h346l260 -311h-325z" />
    <glyph glyph-name="Gbreve" unicode="&#x11e;" horiz-adv-x="1566" 
d="M793 1130q-115 0 -181.5 -109.5t-66.5 -300t67.5 -302t175 -111.5t169 61.5t67.5 157.5h-248v328h680v-854h-399v129h-4q-129 -160 -369 -160q-193 0 -334 91.5t-217 261.5t-76 404.5t89.5 407.5t255 265t374.5 92t356.5 -64.5t233.5 -182.5t94 -271h-491
q-10 74 -55.5 115.5t-120.5 41.5zM782.5 1559q-178.5 0 -275.5 85t-101 242h262q2 -49 29.5 -70.5t85 -21.5t85 21.5t29.5 70.5h262q-4 -157 -101 -242t-275.5 -85z" />
    <glyph glyph-name="gbreve" unicode="&#x11f;" 
d="M498 544q0 -91 36.5 -144.5t98 -53.5t95.5 53.5t34 144.5t-35 145t-95.5 54t-97 -54t-36.5 -145zM748 51v105h-5q-41 -63 -119.5 -102.5t-185 -39.5t-201 65.5t-145.5 184.5t-51 278.5t52 279.5t150.5 184.5t207 64.5t189.5 -48t124 -122h4v139h414v-966
q0 -248 -146.5 -364t-435.5 -116q-225 0 -358 88.5t-156 251.5h416q9 -88 104 -88q142 0 142 205zM606 1130q-178 0 -275.5 85t-101.5 243h263q2 -49 29.5 -70.5t85 -21.5t85 21.5t29.5 70.5h262q-4 -158 -101.5 -243t-275.5 -85z" />
    <glyph glyph-name="Gdotaccent" unicode="&#x120;" horiz-adv-x="1566" 
d="M793 1130q-115 0 -181.5 -109.5t-66.5 -300t67.5 -302t175 -111.5t169 61.5t67.5 157.5h-248v328h680v-854h-399v129h-4q-129 -160 -369 -160q-193 0 -334 91.5t-217 261.5t-76 404.5t89.5 407.5t255 265t374.5 92t356.5 -64.5t233.5 -182.5t94 -271h-491
q-10 74 -55.5 115.5t-120.5 41.5zM557 1575v311h447v-311h-447z" />
    <glyph glyph-name="gdotaccent" unicode="&#x121;" 
d="M498 544q0 -91 36.5 -144.5t98 -53.5t95.5 53.5t34 144.5t-35 145t-95.5 54t-97 -54t-36.5 -145zM748 51v105h-5q-41 -63 -119.5 -102.5t-185 -39.5t-201 65.5t-145.5 184.5t-51 278.5t52 279.5t150.5 184.5t207 64.5t189.5 -48t124 -122h4v139h414v-966
q0 -248 -146.5 -364t-435.5 -116q-225 0 -358 88.5t-156 251.5h416q9 -88 104 -88q142 0 142 205zM383 1147v311h446v-311h-446z" />
    <glyph glyph-name="Gcommaaccent" unicode="&#x122;" horiz-adv-x="1566" 
d="M793 1130q-115 0 -181.5 -109.5t-66.5 -300t67.5 -302t175 -111.5t169 61.5t67.5 157.5h-248v328h680v-854h-399v129h-4q-129 -160 -369 -160q-193 0 -334 91.5t-217 261.5t-76 404.5t89.5 407.5t255 265t374.5 92t356.5 -64.5t233.5 -182.5t94 -271h-491
q-10 74 -55.5 115.5t-120.5 41.5zM637 -354v264h313v-264l-155 -230h-158l98 230h-98z" />
    <glyph glyph-name="gcommaaccent" unicode="&#x123;" 
d="M498 544q0 -91 36.5 -144.5t98 -53.5t95.5 53.5t34 144.5t-35 145t-95.5 54t-97 -54t-36.5 -145zM748 51v105h-5q-41 -63 -119.5 -102.5t-185 -39.5t-201 65.5t-145.5 184.5t-51 278.5t52 279.5t150.5 184.5t207 64.5t189.5 -48t124 -122h4v139h414v-966
q0 -248 -146.5 -364t-435.5 -116q-225 0 -358 88.5t-156 251.5h416q9 -88 104 -88q142 0 142 205zM762 1415v-264h-313v264l155 230h158l-98 -230h98z" />
    <glyph glyph-name="Hcircumflex" unicode="&#x124;" horiz-adv-x="1601" 
d="M1010 0v553h-418v-553h-463v1458h463v-518h418v518h463v-1458h-463zM973 1886l274 -330h-325l-121 173l-121 -173h-326l273 330h346z" />
    <glyph glyph-name="hcircumflex" unicode="&#x125;" 
d="M818 1071q173 0 273.5 -111.5t100.5 -318.5v-641h-447v584q0 145 -92 145q-57 0 -83.5 -53t-26.5 -172v-504h-447v1458h447v-502h4q98 115 271 115zM809 1886l274 -330h-325l-121 173l-121 -173h-326l273 330h346z" />
    <glyph glyph-name="Hbar" unicode="&#x126;" horiz-adv-x="1601" 
d="M592 1137v-197h418v197h-418zM1473 1137v-1137h-463v553h-418v-553h-463v1137h-98v200h98v121h463v-121h418v121h463v-121h98v-200h-98z" />
    <glyph glyph-name="hbar" unicode="&#x127;" 
d="M818 1071q173 0 273.5 -111.5t100.5 -318.5v-641h-447v584q0 145 -92 145q-57 0 -83.5 -53t-26.5 -172v-504h-447v1155h-135v186h135v117h447v-117h291v-186h-291v-199h4q98 115 271 115z" />
    <glyph glyph-name="Itilde" unicode="&#x128;" horiz-adv-x="720" 
d="M129 0v1458h463v-1458h-463zM485 1810q66 0 74 76h225q-8 -153 -78.5 -240t-201.5 -87q-74 1 -158 39t-117 38q-63 0 -73 -77h-226q8 156 79 241.5t202 85.5q78 0 161 -38t113 -38z" />
    <glyph glyph-name="itilde" unicode="&#x129;" horiz-adv-x="638" 
d="M96 0v1040h447v-1040h-447zM440 1124q-59 0 -137 41t-104.5 41t-44 -20.5t-19.5 -61.5h-196q8 158 72.5 246t185.5 88q61 0 149 -47q69 -33 94 -33q55 0 62 80h198q-8 -155 -73.5 -244.5t-186.5 -89.5z" />
    <glyph glyph-name="Imacron" unicode="&#x12a;" horiz-adv-x="720" 
d="M129 0v1458h463v-1458h-463zM-78 1583v260h873v-260h-873z" />
    <glyph glyph-name="imacron" unicode="&#x12b;" horiz-adv-x="638" 
d="M96 0v1040h447v-1040h-447zM-16 1165v262h669v-262h-669z" />
    <glyph glyph-name="Ibreve" unicode="&#x12c;" horiz-adv-x="720" 
d="M129 0v1458h463v-1458h-463zM358.5 1559q-178.5 0 -275.5 85t-101 242h262q2 -49 29.5 -70.5t85 -21.5t85 21.5t29.5 70.5h262q-4 -157 -101 -242t-275.5 -85z" />
    <glyph glyph-name="ibreve" unicode="&#x12d;" horiz-adv-x="638" 
d="M96 0v1040h447v-1040h-447zM319.5 1130q-165.5 0 -252.5 85t-92 243h256q2 -51 21.5 -71.5t65.5 -20.5t65.5 20.5t24.5 71.5h256q-5 -158 -92 -243t-252.5 -85z" />
    <glyph glyph-name="Iogonek" unicode="&#x12e;" horiz-adv-x="720" 
d="M55 -211q0 123 197 211h-123v1458h463v-1458q-66 -39 -91.5 -67.5t-25.5 -59.5q0 -53 60 -53q31 0 63 14v-213q-111 -37 -253 -37t-216 53.5t-74 151.5z" />
    <glyph glyph-name="iogonek" unicode="&#x12f;" horiz-adv-x="638" 
d="M6 -211q0 124 197 211h-107v1040h447v-1040q-66 -39 -91.5 -67.5t-25.5 -59.5q0 -53 59 -53q31 0 64 14v-213q-111 -37 -253 -37t-216 53.5t-74 151.5zM96 1147v311h447v-311h-447z" />
    <glyph glyph-name="Idotaccent" unicode="&#x130;" horiz-adv-x="720" 
d="M129 0v1458h463v-1458h-463zM133 1575v311h447v-311h-447z" />
    <glyph glyph-name="dotlessi" unicode="&#x131;" horiz-adv-x="638" 
d="M96 0v1040h447v-1040h-447z" />
    <glyph glyph-name="IJ" unicode="&#x132;" horiz-adv-x="1634" 
d="M129 0v1458h463v-1458h-463zM965 -23q-109 0 -213 25v373q45 -8 107.5 -8t108.5 27.5t65.5 90t19.5 174.5v799h463v-909q0 -295 -135.5 -433.5t-415.5 -138.5z" />
    <glyph glyph-name="ij" unicode="&#x133;" horiz-adv-x="1275" 
d="M741 -391q-127 0 -211 24v301q23 -6 50 -6q82 0 117.5 44t35.5 163v905h447v-987q0 -223 -120 -333.5t-319 -110.5zM96 0v1040h447v-1040h-447zM733 1147v311h447v-311h-447zM96 1147v311h447v-311h-447z" />
    <glyph glyph-name="Jcircumflex" unicode="&#x134;" horiz-adv-x="913" 
d="M244 -23q-109 0 -213 25v373q45 -8 107.5 -8t108.5 27.5t65.5 90t19.5 174.5v799h463v-909q0 -295 -135.5 -433.5t-415.5 -138.5zM741 1886l275 -330h-326l-121 173l-120 -173h-326l272 330h346z" />
    <glyph glyph-name="jcircumflex" unicode="&#x135;" horiz-adv-x="636" 
d="M102 -391q-127 0 -211 24v301q23 -6 50 -6q82 0 117.5 44t35.5 163v905h447v-987q0 -223 -120 -333.5t-319 -110.5zM412 1155l-95 119l-90 -119h-311l242 303h321l242 -303h-309z" />
    <glyph glyph-name="Kcommaaccent" unicode="&#x136;" horiz-adv-x="1521" 
d="M592 637v-637h-463v1458h463v-602h4l332 602h565l-481 -686l504 -772h-576l-344 637h-4zM604 -354v264h314v-264l-156 -230h-158l98 230h-98z" />
    <glyph glyph-name="kcommaaccent" unicode="&#x137;" horiz-adv-x="1253" 
d="M543 438v-438h-447v1458h447v-805h4l162 387h534l-323 -497l354 -543h-545l-182 438h-4zM475 -354v264h313v-264l-155 -230h-158l98 230h-98z" />
    <glyph glyph-name="kgreenlandic" unicode="&#x138;" horiz-adv-x="1253" 
d="M543 438v-438h-447v1040h447v-387h4l162 387h534l-323 -497l354 -543h-545l-182 438h-4z" />
    <glyph glyph-name="Lacute" unicode="&#x139;" horiz-adv-x="1210" 
d="M1196 387v-387h-1067v1458h463v-1071h604zM182 1556l166 330h463l-293 -330h-336z" />
    <glyph glyph-name="lacute" unicode="&#x13a;" horiz-adv-x="638" 
d="M96 0v1458h447v-1458h-447zM98 1565l166 311h463l-293 -311h-336z" />
    <glyph glyph-name="Lcommaaccent" unicode="&#x13b;" horiz-adv-x="1210" 
d="M1196 387v-387h-1067v1458h463v-1071h604zM506 -354v264h313v-264l-155 -230h-158l98 230h-98z" />
    <glyph glyph-name="lcommaaccent" unicode="&#x13c;" horiz-adv-x="638" 
d="M96 0v1458h447v-1458h-447zM164 -354v264h313v-264l-155 -230h-158l98 230h-98z" />
    <glyph glyph-name="Lcaron" unicode="&#x13d;" horiz-adv-x="1210" 
d="M1196 387v-387h-1067v1458h463v-1071h604zM651 969l39 489h348l-135 -489h-252z" />
    <glyph glyph-name="lcaron" unicode="&#x13e;" horiz-adv-x="638" 
d="M96 0v1458h447v-1458h-447zM600 1092l39 366h348l-135 -366h-252z" />
    <glyph glyph-name="Ldot" unicode="&#x13f;" horiz-adv-x="1390" 
d="M1196 387v-387h-1067v1458h463v-1071h604zM840 692v445h454v-445h-454z" />
    <glyph glyph-name="ldot" unicode="&#x140;" horiz-adv-x="1171" 
d="M96 0v1458h447v-1458h-447zM678 506v444h455v-444h-455z" />
    <glyph glyph-name="Lslash" unicode="&#x141;" horiz-adv-x="1253" 
d="M1239 0h-1067v563l-154 -92v322l154 92v573h463v-352l313 186v-323l-313 -185v-397h604v-387z" />
    <glyph glyph-name="lslash" unicode="&#x142;" horiz-adv-x="802" 
d="M625 0h-447v512l-158 -94v305l158 94v641h447v-432l157 94v-303l-157 -94v-723z" />
    <glyph glyph-name="Nacute" unicode="&#x143;" horiz-adv-x="1744" 
d="M571 512v-512h-442v1458h678l199 -543q100 -270 180 -546h4q-16 256 -16 577v512h442v-1458h-678l-199 543q-100 270 -180 547h-4q16 -256 16 -578zM633 1556l166 330h463l-293 -330h-336z" />
    <glyph glyph-name="nacute" unicode="&#x144;" 
d="M1192 641v-641h-447v584q0 145 -92 145q-57 0 -83.5 -53t-26.5 -172v-504h-447v1040h414v-112h4q111 143 294 143t283.5 -111.5t100.5 -318.5zM406 1147l165 311h463l-293 -311h-335z" />
    <glyph glyph-name="Ncommaaccent" unicode="&#x145;" horiz-adv-x="1744" 
d="M571 512v-512h-442v1458h678l199 -543q100 -270 180 -546h4q-16 256 -16 577v512h442v-1458h-678l-199 543q-100 270 -180 547h-4q16 -256 16 -578zM715 -354v264h313v-264l-156 -230h-157l98 230h-98z" />
    <glyph glyph-name="ncommaaccent" unicode="&#x146;" 
d="M1192 641v-641h-447v584q0 145 -92 145q-57 0 -83.5 -53t-26.5 -172v-504h-447v1040h414v-112h4q111 143 294 143t283.5 -111.5t100.5 -318.5zM487 -354v264h314v-264l-156 -230h-158l99 230h-99z" />
    <glyph glyph-name="Ncaron" unicode="&#x147;" horiz-adv-x="1744" 
d="M571 512v-512h-442v1458h678l199 -543q100 -270 180 -546h4q-16 256 -16 577v512h442v-1458h-678l-199 543q-100 270 -180 547h-4q16 -256 16 -578zM700 1556l-274 330h326l120 -172l121 172h326l-272 -330h-347z" />
    <glyph glyph-name="ncaron" unicode="&#x148;" 
d="M1192 641v-641h-447v584q0 145 -92 145q-57 0 -83.5 -53t-26.5 -172v-504h-447v1040h414v-112h4q111 143 294 143t283.5 -111.5t100.5 -318.5zM473 1147l-260 311h326l106 -153l109 153h325l-260 -311h-346z" />
    <glyph glyph-name="napostrophe" unicode="&#x149;" horiz-adv-x="1705" 
d="M98 1079v379h387v-379l-215 -331h-221l172 331h-123zM1620 641v-641h-446v584q0 145 -93 145q-57 0 -83.5 -53t-26.5 -172v-504h-447v1040h414v-112h4q111 143 294 143t283.5 -111.5t100.5 -318.5z" />
    <glyph glyph-name="Eng" unicode="&#x14a;" horiz-adv-x="1611" 
d="M1036 -401q-127 0 -200 22v287q18 -6 68 -6q112 0 112 94q0 35 -14.5 69.5t-73.5 147.5l-185 356q-125 250 -192 432h-4q25 -252 24 -509v-492h-442v1458h569l168 -330q100 -188 195 -434h4q-25 256 -25 510v254h443v-1427q0 -219 -122 -325.5t-325 -106.5z" />
    <glyph glyph-name="eng" unicode="&#x14b;" 
d="M745 563q0 171 -92 168q-57 0 -83.5 -52t-26.5 -177v-502h-447v1040h455v-75h4q115 109 269 109t251 -93q59 -59 88 -143t29 -230v-551q0 -223 -120 -333.5t-318 -110.5q-125 0 -211 25v301q23 -6 49 -7q82 0 117.5 44t35.5 163v424z" />
    <glyph glyph-name="Omacron" unicode="&#x14c;" horiz-adv-x="1589" 
d="M1042 729q0 373 -247 373q-123 0 -185.5 -95.5t-62.5 -277.5t62.5 -277.5t185.5 -95.5q247 0 247 373zM1532 729q0 -229 -91 -401t-258 -266.5t-388.5 -94.5t-388 94.5t-258 266.5t-91.5 401t91.5 401.5t258 266.5t388 94t388.5 -94t258 -266.5t91 -401.5zM358 1583v260
h873v-260h-873z" />
    <glyph glyph-name="omacron" unicode="&#x14d;" horiz-adv-x="1294" 
d="M647 743q-135 0 -135 -223t135 -223t135 223t-135 223zM1253 520q0 -168 -74.5 -293t-212 -192.5t-319.5 -67.5t-319.5 67.5t-212 192.5t-74.5 293t74.5 293t212 192.5t319.5 67.5t319.5 -67.5t212 -192.5t74.5 -293zM211 1171v261h872v-261h-872z" />
    <glyph glyph-name="Obreve" unicode="&#x14e;" horiz-adv-x="1589" 
d="M1042 729q0 373 -247 373q-123 0 -185.5 -95.5t-62.5 -277.5t62.5 -277.5t185.5 -95.5q247 0 247 373zM1532 729q0 -229 -91 -401t-258 -266.5t-388.5 -94.5t-388 94.5t-258 266.5t-91.5 401t91.5 401.5t258 266.5t388 94t388.5 -94t258 -266.5t91 -401.5zM794.5 1559
q-178.5 0 -275.5 85t-101 242h262q2 -49 29.5 -70.5t85 -21.5t85 21.5t29.5 70.5h262q-4 -157 -101 -242t-275.5 -85z" />
    <glyph glyph-name="obreve" unicode="&#x14f;" horiz-adv-x="1294" 
d="M647 743q-135 0 -135 -223t135 -223t135 223t-135 223zM1253 520q0 -168 -74.5 -293t-212 -192.5t-319.5 -67.5t-319.5 67.5t-212 192.5t-74.5 293t74.5 293t212 192.5t319.5 67.5t319.5 -67.5t212 -192.5t74.5 -293zM647 1130q-178 0 -275.5 85t-101.5 243h262
q2 -49 30 -70.5t85.5 -21.5t85 21.5t29.5 70.5h262q-4 -158 -101.5 -243t-275.5 -85z" />
    <glyph glyph-name="Ohungarumlaut" unicode="&#x150;" horiz-adv-x="1589" 
d="M1042 729q0 373 -247 373q-123 0 -185.5 -95.5t-62.5 -277.5t62.5 -277.5t185.5 -95.5q247 0 247 373zM1532 729q0 -229 -91 -401t-258 -266.5t-388.5 -94.5t-388 94.5t-258 266.5t-91.5 401t91.5 401.5t258 266.5t388 94t388.5 -94t258 -266.5t91 -401.5zM838 1556
l206 330h394l-293 -330h-307zM354 1556l207 330h393l-292 -330h-308z" />
    <glyph glyph-name="ohungarumlaut" unicode="&#x151;" horiz-adv-x="1294" 
d="M647 743q-135 0 -135 -223t135 -223t135 223t-135 223zM1253 520q0 -168 -74.5 -293t-212 -192.5t-319.5 -67.5t-319.5 67.5t-212 192.5t-74.5 293t74.5 293t212 192.5t319.5 67.5t319.5 -67.5t212 -192.5t74.5 -293zM670 1147l207 311h393l-293 -311h-307zM186 1147
l207 311h393l-292 -311h-308z" />
    <glyph glyph-name="OE" unicode="&#x152;" horiz-adv-x="2095" 
d="M543 729q0 -168 81 -260t236 -92h82v704h-82q-155 0 -236 -92t-81 -260zM1384 1081v-166h570v-366h-570v-172h625v-377h-1153q-252 0 -431 86t-273.5 250t-94.5 393t94.5 393t273.5 250t431 86h1149v-377h-621z" />
    <glyph glyph-name="oe" unicode="&#x153;" horiz-adv-x="1961" 
d="M647 297q135 0 135 223t-135 223t-135 -223t135 -223zM1340.5 807q-54.5 0 -89 -35t-47.5 -123h269q-4 84 -41 121t-91.5 37zM1202 430q11 -184 131 -184q53 0 83 22.5t34 57.5h455q-23 -102 -101 -184.5t-196.5 -128.5t-259.5 -46q-223 0 -365 125
q-141 -125 -336.5 -125t-329 67.5t-205 192.5t-71.5 293t71.5 293t205 192.5t329 67.5t334.5 -123q139 123 346 123q402 0 541 -309q53 -121 53 -334h-719z" />
    <glyph glyph-name="Racute" unicode="&#x154;" horiz-adv-x="1482" 
d="M592 807h156q184 0 184 162q0 152 -193 151h-147v-313zM834 1458q544 0 544 -422q0 -133 -71.5 -223t-202.5 -133v-4q80 -29 130 -97.5t105 -216.5l131 -362h-487l-98 297q-37 102 -85 143t-138 41h-70v-481h-463v1458h705zM477 1556l166 330h463l-293 -330h-336z" />
    <glyph glyph-name="racute" unicode="&#x155;" horiz-adv-x="942" 
d="M801 678q-125 0 -191.5 -76t-66.5 -217v-385h-447v1040h416v-137h4q110 154 311 154q58 -1 107 -13v-378q-55 12 -133 12zM254 1147l166 311h463l-293 -311h-336z" />
    <glyph glyph-name="Rcommaaccent" unicode="&#x156;" horiz-adv-x="1482" 
d="M592 807h156q184 0 184 162q0 152 -193 151h-147v-313zM834 1458q544 0 544 -422q0 -133 -71.5 -223t-202.5 -133v-4q80 -29 130 -97.5t105 -216.5l131 -362h-487l-98 297q-37 102 -85 143t-138 41h-70v-481h-463v1458h705zM598 -354v264h313v-264l-155 -230h-158l98 230
h-98z" />
    <glyph glyph-name="rcommaaccent" unicode="&#x157;" horiz-adv-x="942" 
d="M801 678q-125 0 -191.5 -76t-66.5 -217v-385h-447v1040h416v-137h4q110 154 311 154q58 -1 107 -13v-378q-55 12 -133 12zM164 -354v264h313v-264l-155 -230h-158l98 230h-98z" />
    <glyph glyph-name="Rcaron" unicode="&#x158;" horiz-adv-x="1482" 
d="M592 807h156q184 0 184 162q0 152 -193 151h-147v-313zM834 1458q544 0 544 -422q0 -133 -71.5 -223t-202.5 -133v-4q80 -29 130 -97.5t105 -216.5l131 -362h-487l-98 297q-37 102 -85 143t-138 41h-70v-481h-463v1458h705zM545 1556l-275 330h326l121 -172l121 172h325
l-272 -330h-346z" />
    <glyph glyph-name="rcaron" unicode="&#x159;" horiz-adv-x="942" 
d="M801 678q-125 0 -191.5 -76t-66.5 -217v-385h-447v1040h416v-137h4q110 154 311 154q58 -1 107 -13v-378q-55 12 -133 12zM322 1147l-261 311h326l107 -153l108 153h326l-260 -311h-346z" />
    <glyph glyph-name="Sacute" unicode="&#x15a;" horiz-adv-x="1384" 
d="M543 469q0 -143 148.5 -143t148.5 92q0 37 -21.5 58.5t-66.5 36.5t-185.5 53t-249 85t-179 136.5t-70.5 234.5q0 219 164.5 344t458.5 125t456 -121t162 -352h-494q0 129 -143 129q-63 0 -97 -23.5t-34 -61.5t21.5 -58.5t68.5 -36t186 -49t254 -84t187.5 -144.5
t72.5 -246q0 -225 -170 -351t-477 -126t-478 132t-171 370h508zM461 1556l166 330h463l-293 -330h-336z" />
    <glyph glyph-name="sacute" unicode="&#x15b;" horiz-adv-x="1181" 
d="M606 225q90 0 90 58q0 25 -26 46t-179 61t-233 74t-133 100.5t-53 172.5q0 154 126 245t380 91q520 0 520 -340h-422q0 96 -92 96q-76 0 -76 -55q0 -38 68 -64q40 -14 147.5 -42.5t199 -67.5t153 -108.5t61.5 -176.5q0 -162 -137.5 -255t-407.5 -93q-548 0 -547 371h444
q0 -61 27 -87t90 -26zM350 1147l166 311h463l-293 -311h-336z" />
    <glyph glyph-name="Scircumflex" unicode="&#x15c;" horiz-adv-x="1384" 
d="M543 469q0 -143 148.5 -143t148.5 92q0 37 -21.5 58.5t-66.5 36.5t-185.5 53t-249 85t-179 136.5t-70.5 234.5q0 219 164.5 344t458.5 125t456 -121t162 -352h-494q0 129 -143 129q-63 0 -97 -23.5t-34 -61.5t21.5 -58.5t68.5 -36t186 -49t254 -84t187.5 -144.5
t72.5 -246q0 -225 -170 -351t-477 -126t-478 132t-171 370h508zM872 1886l275 -330h-326l-121 173l-120 -173h-326l272 330h346z" />
    <glyph glyph-name="scircumflex" unicode="&#x15d;" horiz-adv-x="1181" 
d="M606 225q90 0 90 58q0 25 -26 46t-179 61t-233 74t-133 100.5t-53 172.5q0 154 126 245t380 91q520 0 520 -340h-422q0 96 -92 96q-76 0 -76 -55q0 -38 68 -64q40 -14 147.5 -42.5t199 -67.5t153 -108.5t61.5 -176.5q0 -162 -137.5 -255t-407.5 -93q-548 0 -547 371h444
q0 -61 27 -87t90 -26zM590 1300l-107 -153h-325l260 311h346l260 -311h-326z" />
    <glyph glyph-name="Scedilla" unicode="&#x15e;" horiz-adv-x="1384" 
d="M543 469q0 -143 148.5 -143t148.5 92q0 37 -21.5 58.5t-66.5 36.5t-185.5 53t-249 85t-179 136.5t-70.5 234.5q0 219 164.5 344t458.5 125t456 -121t162 -352h-494q0 129 -143 129q-63 0 -97 -23.5t-34 -61.5t21.5 -58.5t68.5 -36t186 -49t254 -84t187.5 -144.5
t72.5 -246q0 -208 -148.5 -333t-420.5 -142l-53 -88q37 10 67 10q191 1 191 -177q0 -90 -75 -153t-219 -63t-265 76l69 143q104 -47 172 -47t68 47t-72 47q-35 0 -59 -14l-97 74l86 147q-258 23 -399 153t-141 345h508z" />
    <glyph glyph-name="scedilla" unicode="&#x15f;" horiz-adv-x="1181" 
d="M696 -109q191 1 191 -177q0 -90 -75 -153t-219 -63t-265 76l69 143q104 -47 172 -47t68 47t-72 47q-35 0 -59 -14l-96 74l86 147q-451 32 -451 367h444q0 -61 27 -87t90 -26q90 0 90 58q0 25 -25.5 46t-179 61t-233.5 74t-133 100.5t-53 172.5q0 154 126 245t380 91
q520 0 520 -340h-422q0 96 -92 96q-76 0 -76 -55q0 -38 68 -64q40 -14 147.5 -42.5t199 -67.5t153 -108.5t61.5 -176.5q0 -147 -118 -239t-337 -107l-53 -88q37 10 67 10z" />
    <glyph glyph-name="Scaron" unicode="&#x160;" horiz-adv-x="1384" 
d="M543 469q0 -143 148.5 -143t148.5 92q0 37 -21.5 58.5t-66.5 36.5t-185.5 53t-249 85t-179 136.5t-70.5 234.5q0 219 164.5 344t458.5 125t456 -121t162 -352h-494q0 129 -143 129q-63 0 -97 -23.5t-34 -61.5t21.5 -58.5t68.5 -36t186 -49t254 -84t187.5 -144.5
t72.5 -246q0 -225 -170 -351t-477 -126t-478 132t-171 370h508zM528 1556l-274 330h326l120 -172l121 172h326l-273 -330h-346z" />
    <glyph glyph-name="scaron" unicode="&#x161;" horiz-adv-x="1181" 
d="M606 225q90 0 90 58q0 25 -26 46t-179 61t-233 74t-133 100.5t-53 172.5q0 154 126 245t380 91q520 0 520 -340h-422q0 96 -92 96q-76 0 -76 -55q0 -38 68 -64q40 -14 147.5 -42.5t199 -67.5t153 -108.5t61.5 -176.5q0 -162 -137.5 -255t-407.5 -93q-548 0 -547 371h444
q0 -61 27 -87t90 -26zM418 1147l-260 311h325l107 -153l108 153h326l-260 -311h-346z" />
    <glyph glyph-name="uni0162" unicode="&#x162;" horiz-adv-x="1331" 
d="M897 1071v-1071h-463v1071h-420v387h1303v-387h-420zM508 -354v264h313v-264l-155 -230h-158l98 230h-98z" />
    <glyph glyph-name="uni0163" unicode="&#x163;" horiz-adv-x="858" 
d="M639 -90v-264l-156 -230h-157l98 230h-98v264h313zM606 475q0 -149 112 -149q54 0 89 10v-328q-100 -28 -211 -28q-227 0 -331.5 87t-104.5 275v383h-152v315h152v301h446v-301h191v-315h-191v-250z" />
    <glyph glyph-name="Tcaron" unicode="&#x164;" horiz-adv-x="1331" 
d="M897 1071v-1071h-463v1071h-420v387h1303v-387h-420zM494 1556l-275 330h326l121 -172l120 172h326l-272 -330h-346z" />
    <glyph glyph-name="tcaron" unicode="&#x165;" horiz-adv-x="858" 
d="M606 475q0 -149 112 -149q54 0 89 10v-328q-100 -28 -211 -28q-227 0 -331.5 87t-104.5 275v383h-152v315h152v301h446v-301h191v-315h-191v-250zM662 1092l38 366h349l-136 -366h-251z" />
    <glyph glyph-name="Tbar" unicode="&#x166;" horiz-adv-x="1331" 
d="M897 770h256v-266h-256v-504h-463v504h-256v266h256v301h-420v387h1303v-387h-420v-301z" />
    <glyph glyph-name="tbar" unicode="&#x167;" horiz-adv-x="858" 
d="M606 428q7 -123 115 -123q51 0 86 10v-307q-100 -28 -211 -28q-227 0 -331.5 87t-104.5 275v86h-140v207h140v110h-152v295h152v301h446v-301h191v-295h-191v-110h176v-207h-176z" />
    <glyph glyph-name="Utilde" unicode="&#x168;" horiz-adv-x="1511" 
d="M756 -33q-305 0 -472 162t-167 455v874h463v-870q0 -106 45 -162.5t131 -56.5t131 56t45 163v870h463v-874q0 -293 -167 -455t-472 -162zM881 1810q65 0 73 76h226q-9 -153 -79.5 -240t-201.5 -87q-74 1 -158 39t-116 38q-63 0 -74 -77h-225q8 156 78.5 241.5t201.5 85.5
q78 0 161 -38t114 -38z" />
    <glyph glyph-name="utilde" unicode="&#x169;" 
d="M86 399v641h446v-583q0 -145 93 -146q57 0 83.5 53.5t26.5 172.5v503h447v-1040h-414v113h-4q-111 -143 -294 -143.5t-283.5 111.5t-100.5 318zM768 1382q66 0 74 76h225q-8 -153 -78.5 -240.5t-202.5 -87.5q-70 0 -156 39t-118 39q-63 0 -74 -78h-225q8 156 78.5 242
t202.5 86q76 0 160 -38t114 -38z" />
    <glyph glyph-name="Umacron" unicode="&#x16a;" horiz-adv-x="1511" 
d="M756 -33q-305 0 -472 162t-167 455v874h463v-870q0 -106 45 -162.5t131 -56.5t131 56t45 163v870h463v-874q0 -293 -167 -455t-472 -162zM317 1583v260h873v-260h-873z" />
    <glyph glyph-name="umacron" unicode="&#x16b;" 
d="M86 399v641h446v-583q0 -145 93 -146q57 0 83.5 53.5t26.5 172.5v503h447v-1040h-414v113h-4q-111 -143 -294 -143.5t-283.5 111.5t-100.5 318zM205 1171v261h872v-261h-872z" />
    <glyph glyph-name="Ubreve" unicode="&#x16c;" horiz-adv-x="1511" 
d="M756 -33q-305 0 -472 162t-167 455v874h463v-870q0 -106 45 -162.5t131 -56.5t131 56t45 163v870h463v-874q0 -293 -167 -455t-472 -162zM753.5 1559q-178.5 0 -275.5 85t-101 242h262q2 -49 29.5 -70.5t85 -21.5t85 21.5t29.5 70.5h262q-4 -157 -101 -242t-275.5 -85z
" />
    <glyph glyph-name="ubreve" unicode="&#x16d;" 
d="M86 399v641h446v-583q0 -145 93 -146q57 0 83.5 53.5t26.5 172.5v503h447v-1040h-414v113h-4q-111 -143 -294 -143.5t-283.5 111.5t-100.5 318zM641 1130q-178 0 -275.5 85t-101.5 243h262q2 -49 30 -70.5t85 -21.5t85 21.5t30 70.5h262q-4 -158 -101.5 -243t-275.5 -85z
" />
    <glyph glyph-name="Uring" unicode="&#x16e;" horiz-adv-x="1511" 
d="M756 -33q-305 0 -472 162t-167 455v874h463v-870q0 -106 45 -162.5t131 -56.5t131 56t45 163v870h463v-874q0 -293 -167 -455t-472 -162zM631 1802q0 -51 35.5 -87t87 -36t87.5 36t36 87t-36 87t-87.5 36t-87 -36t-35.5 -87zM1010 1802q0 -70 -34 -128t-93.5 -93
t-129 -35t-129 35t-94 94.5t-34.5 128t34.5 128t94 94t129.5 34.5q106 0 181 -75.5t75 -182.5z" />
    <glyph glyph-name="uring" unicode="&#x16f;" 
d="M86 399v641h446v-583q0 -145 93 -146q57 0 83.5 53.5t26.5 172.5v503h447v-1040h-414v113h-4q-111 -143 -294 -143.5t-283.5 111.5t-100.5 318zM518 1374q0 -51 36 -87t87 -36t87 36t36 87t-36 87t-87 36t-87 -36t-36 -87zM897 1374q0 -70 -34 -128t-93 -93t-129 -35
t-129 35t-94 94.5t-35 128t35 128t94 94t129 34.5q107 0 181.5 -75.5t74.5 -182.5z" />
    <glyph glyph-name="Uhungarumlaut" unicode="&#x170;" horiz-adv-x="1511" 
d="M756 -33q-305 0 -472 162t-167 455v874h463v-870q0 -106 45 -162.5t131 -56.5t131 56t45 163v870h463v-874q0 -293 -167 -455t-472 -162zM797 1556l207 330h393l-293 -330h-307zM313 1556l207 330h393l-292 -330h-308z" />
    <glyph glyph-name="uhungarumlaut" unicode="&#x171;" 
d="M86 399v641h446v-583q0 -145 93 -146q57 0 83.5 53.5t26.5 172.5v503h447v-1040h-414v113h-4q-111 -143 -294 -143.5t-283.5 111.5t-100.5 318zM664 1147l206 311h394l-293 -311h-307zM180 1147l207 311h393l-293 -311h-307z" />
    <glyph glyph-name="Uogonek" unicode="&#x172;" horiz-adv-x="1511" 
d="M928 -414q-285 0 -285 204q0 101 133 173v4h-20q-305 0 -472 162t-167 455v874h463v-870q0 -106 45 -162.5t131 -56.5t131 56t45 163v870h463v-874q0 -172 -58.5 -297t-180.5 -228t-122 -190q0 -59 62 -59q35 0 63 14v-203q-109 -35 -231 -35z" />
    <glyph glyph-name="uogonek" unicode="&#x173;" 
d="M647 -211q0 123 197 211h-76v113h-4q-111 -143 -294 -143.5t-283.5 111.5t-100.5 318v641h446v-583q0 -145 93 -146q57 0 83.5 53.5t26.5 172.5v503h447v-1040h2q-66 -39 -91.5 -67.5t-25.5 -59.5q0 -53 59 -53q31 0 64 14v-213q-111 -37 -253 -37t-216 53.5t-74 151.5z
" />
    <glyph glyph-name="Wcircumflex" unicode="&#x174;" horiz-adv-x="2170" 
d="M1253 0l-98 594q-49 313 -68 512h-4q-18 -199 -67 -512l-98 -594h-633l-275 1458h447l82 -516q41 -268 73 -569h4q31 291 80 569l90 516h598l91 -516q49 -279 79 -569h5q33 301 73 569l82 516h447l-275 -1458h-633zM1257 1886l275 -330h-326l-121 173l-120 -173h-326
l272 330h346z" />
    <glyph glyph-name="wcircumflex" unicode="&#x175;" horiz-adv-x="1892" 
d="M1075 0l-65 352q-39 205 -62 424h-4q-23 -219 -61 -424l-66 -352h-575l-236 1040h426l45 -344q31 -211 43 -422h4q27 205 76 433l74 333h545l73 -333q49 -227 76 -433h4q12 211 43 422l45 344h426l-235 -1040h-576zM946 1300l-106 -153h-326l260 311h346l260 -311h-325z
" />
    <glyph glyph-name="Ycircumflex" unicode="&#x176;" horiz-adv-x="1462" 
d="M963 0h-463v516l-502 942h506l102 -246q80 -193 123 -356h4q43 164 123 356l102 246h506l-501 -942v-516zM903 1886l275 -330h-326l-121 173l-121 -173h-325l272 330h346z" />
    <glyph glyph-name="ycircumflex" unicode="&#x177;" horiz-adv-x="1193" 
d="M369 -4q0 23 -11.5 56.5t-62.5 168.5l-326 819h486l86 -346q55 -236 86 -430h4q18 160 67 434l64 342h452l-294 -970q-54 -176 -118.5 -276.5t-156.5 -144.5t-227 -44t-236 22v312q49 -12 90 -13q97 0 97 70zM608 1300l-106 -153h-326l260 311h346l260 -311h-325z" />
    <glyph glyph-name="Ydieresis" unicode="&#x178;" horiz-adv-x="1462" 
d="M963 0h-463v516l-502 942h506l102 -246q80 -193 123 -356h4q43 164 123 356l102 246h506l-501 -942v-516zM797 1575v311h372v-311h-372zM293 1575v311h373v-311h-373z" />
    <glyph glyph-name="Zacute" unicode="&#x179;" horiz-adv-x="1261" 
d="M598 377h616v-377h-1173v395l586 682v4h-559v377h1114v-395l-584 -682v-4zM387 1556l166 330h463l-293 -330h-336z" />
    <glyph glyph-name="zacute" unicode="&#x17a;" horiz-adv-x="1103" 
d="M627 332h413v-332h-977v340l402 365v4h-389v331h952v-340l-401 -364v-4zM330 1147l166 311h462l-292 -311h-336z" />
    <glyph glyph-name="Zdotaccent" unicode="&#x17b;" horiz-adv-x="1261" 
d="M598 377h616v-377h-1173v395l586 682v4h-559v377h1114v-395l-584 -682v-4zM401 1575v311h447v-311h-447z" />
    <glyph glyph-name="zdotaccent" unicode="&#x17c;" horiz-adv-x="1103" 
d="M627 332h413v-332h-977v340l402 365v4h-389v331h952v-340l-401 -364v-4zM346 1147v311h447v-311h-447z" />
    <glyph glyph-name="Zcaron" unicode="&#x17d;" horiz-adv-x="1261" 
d="M598 377h616v-377h-1173v395l586 682v4h-559v377h1114v-395l-584 -682v-4zM455 1556l-275 330h326l121 -172l121 172h325l-272 -330h-346z" />
    <glyph glyph-name="zcaron" unicode="&#x17e;" horiz-adv-x="1103" 
d="M627 332h413v-332h-977v340l402 365v4h-389v331h952v-340l-401 -364v-4zM397 1147l-260 311h326l106 -153l109 153h326l-261 -311h-346z" />
    <glyph glyph-name="longs" unicode="&#x17f;" horiz-adv-x="819" 
d="M738 1165q-54 0 -90 -30.5t-36 -102.5v-1032h-446v725h-154v315h154v41q0 199 112.5 299.5t327.5 100.5q105 0 203 -23v-297q-17 4 -71 4z" />
    <glyph glyph-name="florin" unicode="&#x192;" horiz-adv-x="1400" 
d="M1241 958v-299h-301l-147 -585q-119 -469 -545 -469q-102 0 -182 22v297q52 -12 122 -12t117 44t76 159l139 544h-205v299h277l33 123q102 406 524 406q106 0 186 -23v-297q-53 13 -126 13q-143 1 -177 -140l-20 -82h229z" />
    <glyph glyph-name="Scommaaccent" unicode="&#x218;" horiz-adv-x="1384" 
d="M543 469q0 -143 148.5 -143t148.5 92q0 37 -21.5 58.5t-66.5 36.5t-185.5 53t-249 85t-179 136.5t-70.5 234.5q0 219 164.5 344t458.5 125t456 -121t162 -352h-494q0 129 -143 129q-63 0 -97 -23.5t-34 -61.5t21.5 -58.5t68.5 -36t186 -49t254 -84t187.5 -144.5
t72.5 -246q0 -225 -170 -351t-477 -126t-478 132t-171 370h508zM528 -354v264h314v-264l-156 -230h-158l99 230h-99z" />
    <glyph glyph-name="scommaaccent" unicode="&#x219;" horiz-adv-x="1181" 
d="M606 225q90 0 90 58q0 25 -26 46t-179 61t-233 74t-133 100.5t-53 172.5q0 154 126 245t380 91q520 0 520 -340h-422q0 96 -92 96q-76 0 -76 -55q0 -38 68 -64q40 -14 147.5 -42.5t199 -67.5t153 -108.5t61.5 -176.5q0 -162 -137.5 -255t-407.5 -93q-548 0 -547 371h444
q0 -61 27 -87t90 -26zM449 -354v264h313v-264l-156 -230h-157l98 230h-98z" />
    <glyph glyph-name="uni021A" unicode="&#x21a;" horiz-adv-x="1331" 
d="M897 1071v-1071h-463v1071h-420v387h1303v-387h-420zM508 -354v264h313v-264l-155 -230h-158l98 230h-98z" />
    <glyph glyph-name="uni021B" unicode="&#x21b;" horiz-adv-x="858" 
d="M606 475q0 -149 112 -149q54 0 89 10v-328q-100 -28 -211 -28q-227 0 -331.5 87t-104.5 275v383h-152v315h152v301h446v-301h191v-315h-191v-250zM326 -354v264h313v-264l-156 -230h-157l98 230h-98z" />
    <glyph glyph-name="dotlessj" unicode="&#x237;" horiz-adv-x="636" 
d="M102 -391q-127 0 -211 24v301q23 -6 50 -6q82 0 117.5 44t35.5 163v905h447v-987q0 -223 -120 -333.5t-319 -110.5z" />
    <glyph glyph-name="uni02BC" unicode="&#x2bc;" horiz-adv-x="591" 
d="M98 1079v379h387v-379l-215 -331h-221l172 331h-123z" />
    <glyph glyph-name="circumflex" unicode="&#x2c6;" horiz-adv-x="1071" 
d="M535 1300l-107 -153h-326l260 311h347l260 -311h-326z" />
    <glyph glyph-name="caron" unicode="&#x2c7;" horiz-adv-x="1071" 
d="M362 1147l-260 311h326l107 -153l108 153h326l-260 -311h-347z" />
    <glyph glyph-name="uni02C9" unicode="&#x2c9;" horiz-adv-x="1077" 
d="M102 1171v261h873v-261h-873z" />
    <glyph glyph-name="breve" unicode="&#x2d8;" horiz-adv-x="958" 
d="M479 1130q-178 0 -275.5 85t-101.5 243h263q2 -49 29.5 -70.5t85 -21.5t85 21.5t29.5 70.5h262q-4 -158 -101.5 -243t-275.5 -85z" />
    <glyph glyph-name="dotaccent" unicode="&#x2d9;" horiz-adv-x="651" 
d="M102 1147v311h447v-311h-447z" />
    <glyph glyph-name="ring" unicode="&#x2da;" horiz-adv-x="718" 
d="M238 1374q0 -51 35.5 -87t87 -36t87 36t35.5 87t-35.5 87t-87 36t-87 -36t-35.5 -87zM616 1374q0 -70 -33.5 -128t-93 -93t-129 -35t-129 35t-94.5 95t-35 128t35 127.5t94.5 94t128.5 34.5q107 0 181.5 -75.5t74.5 -182.5z" />
    <glyph glyph-name="ogonek" unicode="&#x2db;" horiz-adv-x="747" 
d="M102 -211q0 123 197 211h340q-66 -39 -91.5 -67.5t-25.5 -59.5q0 -53 60 -53q31 0 63 14v-213q-111 -37 -253 -37t-216 53.5t-74 151.5z" />
    <glyph glyph-name="tilde" unicode="&#x2dc;" horiz-adv-x="1058" 
d="M657 1382q66 0 74 76h225q-8 -153 -78.5 -240.5t-201.5 -87.5q-72 0 -157 39t-118 39q-63 0 -73 -78h-226q8 156 79 242t202 86q78 0 161 -38t113 -38z" />
    <glyph glyph-name="hungarumlaut" unicode="&#x2dd;" horiz-adv-x="1286" 
d="M586 1147l207 311h393l-293 -311h-307zM102 1147l207 311h393l-292 -311h-308z" />
    <glyph glyph-name="uni0312" unicode="&#x312;" horiz-adv-x="0" 
d="M416 1415v-264h-314v264l156 230h158l-99 -230h99z" />
    <glyph glyph-name="commaaccent" unicode="&#x326;" horiz-adv-x="0" 
d="M102 -354v264h314v-264l-156 -230h-158l99 230h-99z" />
    <glyph glyph-name="uni0394" unicode="&#x394;" horiz-adv-x="1527" 
d="M874 672q-66 252 -108 456h-4q-43 -205 -109 -456l-84 -320h392zM-8 0l489 1458h566l489 -1458h-1544z" />
    <glyph glyph-name="uni03A9" unicode="&#x3a9;" horiz-adv-x="1581" 
d="M557 782q0 -225 154 -383v-399h-666v387h262v4q-113 102 -176 214t-63 259q0 307 196.5 467t526 160t526 -160t196.5 -467q0 -147 -63.5 -258.5t-175.5 -214.5v-4h262v-387h-666v399q154 158 154 383q0 154 -64.5 236t-169 82t-169 -82t-64.5 -236z" />
    <glyph glyph-name="uni03BC" unicode="&#x3bc;" horiz-adv-x="1337" 
d="M1188 406q0 -101 75 -101q34 0 58 6v-297q-111 -39 -254 -39q-203 0 -285 131h-4q-59 -117 -180 -116q-33 0 -55 8v-377h-447v1419h447v-565q0 -164 92 -164q53 0 79.5 45t26.5 156v528h447v-634z" />
    <glyph glyph-name="pi" unicode="&#x3c0;" horiz-adv-x="1435" 
d="M1157 -23q-186 0 -270 84t-84 285v379h-185v-725h-446v725h-160v315h1393v-315h-156v-315q0 -59 18.5 -81t58.5 -22t58 6v-309q-97 -27 -227 -27z" />
    <glyph glyph-name="Wgrave" unicode="&#x1e80;" horiz-adv-x="2170" 
d="M1253 0l-98 594q-49 313 -68 512h-4q-18 -199 -67 -512l-98 -594h-633l-275 1458h447l82 -516q41 -268 73 -569h4q31 291 80 569l90 516h598l91 -516q49 -279 79 -569h5q33 301 73 569l82 516h447l-275 -1458h-633zM1325 1556h-336l-293 330h463z" />
    <glyph glyph-name="wgrave" unicode="&#x1e81;" horiz-adv-x="1892" 
d="M1075 0l-65 352q-39 205 -62 424h-4q-23 -219 -61 -424l-66 -352h-575l-236 1040h426l45 -344q31 -211 43 -422h4q27 205 76 433l74 333h545l73 -333q49 -227 76 -433h4q12 211 43 422l45 344h426l-235 -1040h-576zM1186 1147h-336l-293 311h463z" />
    <glyph glyph-name="Wacute" unicode="&#x1e82;" horiz-adv-x="2170" 
d="M1253 0l-98 594q-49 313 -68 512h-4q-18 -199 -67 -512l-98 -594h-633l-275 1458h447l82 -516q41 -268 73 -569h4q31 291 80 569l90 516h598l91 -516q49 -279 79 -569h5q33 301 73 569l82 516h447l-275 -1458h-633zM846 1556l166 330h463l-293 -330h-336z" />
    <glyph glyph-name="wacute" unicode="&#x1e83;" horiz-adv-x="1892" 
d="M1075 0l-65 352q-39 205 -62 424h-4q-23 -219 -61 -424l-66 -352h-575l-236 1040h426l45 -344q31 -211 43 -422h4q27 205 76 433l74 333h545l73 -333q49 -227 76 -433h4q12 211 43 422l45 344h426l-235 -1040h-576zM707 1147l165 311h463l-293 -311h-335z" />
    <glyph glyph-name="Wdieresis" unicode="&#x1e84;" horiz-adv-x="2170" 
d="M1253 0l-98 594q-49 313 -68 512h-4q-18 -199 -67 -512l-98 -594h-633l-275 1458h447l82 -516q41 -268 73 -569h4q31 291 80 569l90 516h598l91 -516q49 -279 79 -569h5q33 301 73 569l82 516h447l-275 -1458h-633zM1151 1575v311h373v-311h-373zM647 1575v311h373v-311
h-373z" />
    <glyph glyph-name="wdieresis" unicode="&#x1e85;" horiz-adv-x="1892" 
d="M1075 0l-65 352q-39 205 -62 424h-4q-23 -219 -61 -424l-66 -352h-575l-236 1040h426l45 -344q31 -211 43 -422h4q27 205 76 433l74 333h545l73 -333q49 -227 76 -433h4q12 211 43 422l45 344h426l-235 -1040h-576zM1012 1147v311h372v-311h-372zM508 1147v311h373v-311
h-373z" />
    <glyph glyph-name="Germandbls" unicode="&#x1e9e;" horiz-adv-x="1720" 
d="M1212 410q0 180 -356 200v303l168 191q-57 29 -147 29q-150 0 -228 -83t-78 -245v-805h-462v797q0 342 204.5 519t595.5 177q213 0 390.5 -82t289.5 -221l-284 -324q180 -59 276 -175t96 -285q0 -211 -149.5 -326t-399.5 -115q-505 0 -505 467h381q0 -125 104 -125
t104 103z" />
    <glyph glyph-name="Ygrave" unicode="&#x1ef2;" horiz-adv-x="1462" 
d="M963 0h-463v516l-502 942h506l102 -246q80 -193 123 -356h4q43 164 123 356l102 246h506l-501 -942v-516zM971 1556h-336l-293 330h463z" />
    <glyph glyph-name="ygrave" unicode="&#x1ef3;" horiz-adv-x="1193" 
d="M369 -4q0 23 -11.5 56.5t-62.5 168.5l-326 819h486l86 -346q55 -236 86 -430h4q18 160 67 434l64 342h452l-294 -970q-54 -176 -118.5 -276.5t-156.5 -144.5t-227 -44t-236 22v312q49 -12 90 -13q97 0 97 70zM848 1147h-336l-293 311h463z" />
    <glyph glyph-name="uni2010" unicode="&#x2010;" horiz-adv-x="757" 
d="M61 449v299h635v-299h-635z" />
    <glyph glyph-name="endash" unicode="&#x2013;" horiz-adv-x="1024" 
d="M41 449v299h942v-299h-942z" />
    <glyph glyph-name="emdash" unicode="&#x2014;" horiz-adv-x="2048" 
d="M41 449v299h1966v-299h-1966z" />
    <glyph glyph-name="uni2015" unicode="&#x2015;" horiz-adv-x="2048" 
d="M41 449v299h1966v-299h-1966z" />
    <glyph glyph-name="underscoredbl" unicode="&#x2017;" horiz-adv-x="1024" 
d="M0 -696v225h1024v-225h-1024zM0 -328v226h1024v-226h-1024z" />
    <glyph glyph-name="quoteleft" unicode="&#x2018;" horiz-adv-x="591" 
d="M494 1126v-378h-388v378l216 332h221l-172 -332h123z" />
    <glyph glyph-name="quoteright" unicode="&#x2019;" horiz-adv-x="591" 
d="M98 1079v379h387v-379l-215 -331h-221l172 331h-123z" />
    <glyph glyph-name="quotesinglbase" unicode="&#x201a;" horiz-adv-x="591" 
d="M98 0v379h387v-379l-215 -332h-221l172 332h-123z" />
    <glyph glyph-name="quotedblleft" unicode="&#x201c;" horiz-adv-x="1075" 
d="M977 1126v-378h-387v378l215 332h221l-172 -332h123zM494 1126v-378h-388v378l216 332h221l-172 -332h123z" />
    <glyph glyph-name="quotedblright" unicode="&#x201d;" horiz-adv-x="1075" 
d="M98 1079v379h387v-379l-215 -331h-221l172 331h-123zM582 1079v379h387v-379l-215 -331h-222l173 331h-123z" />
    <glyph glyph-name="quotedblbase" unicode="&#x201e;" horiz-adv-x="1075" 
d="M98 0v379h387v-379l-215 -332h-221l172 332h-123zM582 0v379h387v-379l-215 -332h-222l173 332h-123z" />
    <glyph glyph-name="dagger" unicode="&#x2020;" horiz-adv-x="1413" 
d="M1284 1163v-397h-352v-1012h-451v1012h-352v393h352v299h451v-295h352z" />
    <glyph glyph-name="daggerdbl" unicode="&#x2021;" horiz-adv-x="1413" 
d="M1284 1163v-379h-352v-356h352v-379h-352v-295h-451v295h-352v379h352v356h-352v379h352v295h451v-295h352z" />
    <glyph glyph-name="bullet" unicode="&#x2022;" horiz-adv-x="917" 
d="M82 729q0 102 50 189.5t137 137.5t189 50t188.5 -50t138 -137.5t51.5 -189.5t-51.5 -189t-138 -137.5t-188.5 -50.5t-189 50.5t-137 137.5t-50 189z" />
    <glyph glyph-name="ellipsis" unicode="&#x2026;" horiz-adv-x="2117" 
d="M86 0v444h455v-444h-455zM831 0v444h455v-444h-455zM1577 0v444h455v-444h-455z" />
    <glyph glyph-name="perthousand" unicode="&#x2030;" horiz-adv-x="2394" 
d="M1973.5 512q-56.5 0 -56.5 -178t56.5 -178t73.5 43t17 135t-17 135t-73.5 43zM1248.5 512q-56.5 0 -56.5 -178t56.5 -178t73.5 43t17 135t-17 135t-73.5 43zM2333 333.5q0 -188.5 -88 -287.5t-254 -99t-254 99t-88 287.5t88 288t254 99.5t254 -99.5t88 -288zM1608 333.5
q0 -188.5 -88 -287.5t-254 -99t-254 99t-88 287.5t88 288t254 99.5t254 -99.5t88 -288zM403.5 1221q-73.5 0 -73.5 -178.5t73.5 -178.5t73.5 178.5t-73.5 178.5zM745 1042.5q0 -188.5 -88 -288t-253.5 -99.5t-254 99.5t-88.5 288t88.5 288t254 99.5t253.5 -99.5t88 -288z
M313 -61l750 1503h280l-749 -1503h-281z" />
    <glyph glyph-name="guilsinglleft" unicode="&#x2039;" horiz-adv-x="772" 
d="M690 111h-375l-233 409l233 410h375l-209 -410z" />
    <glyph glyph-name="guilsinglright" unicode="&#x203a;" horiz-adv-x="772" 
d="M690 522l-233 -409h-375l209 409l-209 410h375z" />
    <glyph glyph-name="interrobang" unicode="&#x203d;" horiz-adv-x="1259" 
d="M850 360v-360h-455v360h455zM1196 965q0 -125 -45 -196t-157 -137t-148.5 -100t-36.5 -75h-375q-4 29 -4 49q0 82 32 134t122 120t115.5 104.5t25.5 81.5t-26.5 71.5t-69.5 26.5q-127 0 -127 -174h-455q0 174 85 287t247 160l-8 141h501l-8 -135q160 -41 246 -137
t86 -221z" />
    <glyph glyph-name="overline" unicode="&#x203e;" horiz-adv-x="1024" 
d="M0 1583v260h1024v-260h-1024z" />
    <glyph glyph-name="fraction" unicode="&#x2044;" horiz-adv-x="309" 
d="M-326 0l717 1380h244l-717 -1380h-244z" />
    <glyph glyph-name="zero.superior" unicode="&#x2070;" horiz-adv-x="1032" 
d="M399 1159q0 -264 117 -264t117 264t-117 264t-117 -264zM983 1159.5q0 -241.5 -122 -374t-345 -132.5t-345 132.5t-122 374t122 373.5t345 132t345 -132t122 -373.5z" />
    <glyph glyph-name="four.superior" unicode="&#x2074;" horiz-adv-x="1026" 
d="M494 1083v80q0 111 10 244h-4q-49 -94 -111 -190l-86 -134h191zM815 836v-160h-338v160h-454v258l354 548h438v-559h189v-247h-189z" />
    <glyph glyph-name="five.superior" unicode="&#x2075;" horiz-adv-x="1009" 
d="M508 889q102 0 102 108q0 51 -26.5 79t-71.5 28q-76 0 -98 -76l-338 21l55 593h750v-274h-463l-10 -104h4q92 55 222 55t225 -85t95 -218q0 -166 -122.5 -264.5t-328.5 -98.5t-326 84t-120 238h355q0 -39 25.5 -62.5t70.5 -23.5z" />
    <glyph glyph-name="six.superior" unicode="&#x2076;" horiz-adv-x="989" 
d="M424 991q0 -45 25.5 -71.5t66.5 -26.5t66.5 26.5t25.5 71.5t-25.5 72t-66.5 27t-66.5 -27t-25.5 -72zM502 1436q-47 0 -77 -49.5t-34 -149.5h4q84 66 226 66t233.5 -83t91.5 -219q0 -100 -54 -179t-152.5 -124t-223.5 -45q-221 0 -344 128t-123 367t126 378t343 139
q180 0 292 -83t124 -232h-348q-8 86 -84 86z" />
    <glyph glyph-name="seven.superior" unicode="&#x2077;" horiz-adv-x="905" 
d="M23 1360v282h860v-256q-212 -269 -312 -710h-372q45 184 134 367.5t202 316.5h-512z" />
    <glyph glyph-name="eight.superior" unicode="&#x2078;" horiz-adv-x="987" 
d="M395 969q0 -39 27 -60.5t73 -21.5t71.5 21.5t25.5 60.5t-25.5 60.5t-71.5 21.5t-73 -21.5t-27 -60.5zM395 1356q0 -37 27 -58.5t72 -21.5t71.5 21.5t26.5 58.5t-26.5 58.5t-71.5 21.5t-72 -21.5t-27 -58.5zM913 1389q0 -78 -49 -135.5t-137 -73.5v-4q94 -16 153.5 -80
t59.5 -152q0 -139 -115.5 -215t-330.5 -76t-331 76t-116 215q0 88 59.5 151.5t153.5 80.5v4q-88 16 -137 73.5t-49 135.5q0 125 113.5 200.5t306 75.5t306 -76t113.5 -200z" />
    <glyph glyph-name="nine.superior" unicode="&#x2079;" horiz-adv-x="989" 
d="M565 1327q0 45 -25.5 71.5t-66.5 26.5t-66.5 -26.5t-25.5 -71.5t25.5 -71.5t66.5 -26.5t66.5 26.5t25.5 71.5zM487 883q47 0 77 49t34 149h-4q-84 -65 -226 -65t-233.5 83t-91.5 218q0 100 54.5 179t152.5 124t223 45q221 0 344 -128t123 -367t-126 -378t-343 -139
q-180 0 -291.5 83t-124.5 233h348q10 -86 84 -86z" />
    <glyph glyph-name="plussuperior" unicode="&#x207a;" horiz-adv-x="839" 
d="M768 1264v-265h-209v-206h-276v206h-211v265h211v206h276v-206h209z" />
    <glyph glyph-name="uni207B" unicode="&#x207b;" horiz-adv-x="839" 
d="M72 999v265h696v-265h-696z" />
    <glyph glyph-name="equalsuperior" unicode="&#x207c;" horiz-adv-x="839" 
d="M72 838v239h696v-239h-696zM72 1182v239h696v-239h-696z" />
    <glyph glyph-name="parenleftsuperior" unicode="&#x207d;" horiz-adv-x="589" 
d="M406 1104q0 -305 141 -639h-268q-119 162 -171.5 315.5t-52.5 322.5t52.5 322.5t171.5 313.5h268q-141 -330 -141 -635z" />
    <glyph glyph-name="parenrightsuperior" unicode="&#x207e;" horiz-adv-x="589" 
d="M184 1100q0 305 -141 639h268q119 -162 171.5 -315.5t52.5 -322.5t-52.5 -322.5t-171.5 -313.5h-268q141 330 141 635z" />
    <glyph glyph-name="zero.inferior" unicode="&#x2080;" horiz-adv-x="1032" 
d="M399 131q0 -264 117 -264t117 264t-117 264t-117 -264zM983 131q0 -242 -122 -374t-345 -132t-345 132t-122 374t122 374t345 132t345 -132t122 -374z" />
    <glyph glyph-name="one.inferior" unicode="&#x2081;" horiz-adv-x="720" 
d="M262 -352v536h-242v254q135 0 201 42t80 134h315v-966h-354z" />
    <glyph glyph-name="two.inferior" unicode="&#x2082;" horiz-adv-x="1017" 
d="M512 393q-41 1 -68 -29t-26 -85h-350q-2 170 113 264q116 94 327 94q131 0 229 -42q201 -86 201 -286t-279 -282q-117 -35 -155 -59t-43 -50h506v-270h-908q-4 37 -4 78q0 168 66 270t208 160t198 93q56 34 57 79q0 65 -72 65z" />
    <glyph glyph-name="three.inferior" unicode="&#x2083;" horiz-adv-x="999" 
d="M594 -66q0 84 -129 84h-23v236h37q49 0 79 20t30 54q0 72 -88 73q-55 -1 -83 -33t-28 -83h-342q0 164 119 258q120 94 326 94t323 -75t117 -202q0 -76 -40 -124t-130 -82v-4q96 -31 139 -81t43 -135q0 -141 -120 -225t-336 -84t-336 92q-121 92 -121 267h358
q0 -123 111 -123q94 0 94 73z" />
    <glyph glyph-name="four.inferior" unicode="&#x2084;" horiz-adv-x="1026" 
d="M492 55v80q0 111 10 244h-4q-49 -94 -111 -191l-86 -133h191zM813 -193v-159h-338v159h-455v259l355 548h438v-559h188v-248h-188z" />
    <glyph glyph-name="five.inferior" unicode="&#x2085;" horiz-adv-x="1009" 
d="M512 76q-76 0 -98 -76l-338 20l55 594h750v-274h-463l-10 -104h4q92 55 222 55t226 -85q94 -85 94 -218q0 -166 -123 -264t-329 -98t-325 83q-120 84 -120 238h355q0 -39 26 -63t70 -23q104 0 102 108q0 51 -26 79q-27 28 -72 28z" />
    <glyph glyph-name="six.inferior" unicode="&#x2086;" horiz-adv-x="989" 
d="M424 -37q0 -45 26 -72t66 -27t67 28q26 26 25 71q0 45 -25 72q-27 27 -67 27t-66 -27t-26 -72zM502 408q-47 0 -77 -50t-34 -149h4q84 65 226 65q141 0 233 -83t92 -218q0 -100 -54 -179t-152 -124t-224 -45q-221 0 -344 128t-123 367t126 378t343 139q180 0 292 -83
t124 -232h-348q-8 86 -84 86z" />
    <glyph glyph-name="seven.inferior" unicode="&#x2087;" horiz-adv-x="905" 
d="M20 332v282h861v-256q-212 -270 -312 -710h-372q45 184 134 367t201 317h-512z" />
    <glyph glyph-name="eight.inferior" unicode="&#x2088;" horiz-adv-x="987" 
d="M395 -60q0 -38 27 -60t73 -22q45 0 71 22t26 61t-26 61t-72 21q-46 0 -72 -22q-27 -23 -27 -61zM395 328q0 -36 27 -59q27 -21 72 -21q46 0 72 22t26 58t-27 58t-71 22t-72 -22q-27 -22 -27 -58zM940 -84q0 -139 -116 -215t-330 -76t-331 76q-116 76 -116 215
q0 88 59 152t154 79v5q-88 16 -137 73t-49 135q0 125 113 201q115 76 307 76t306 -76t113 -201q0 -78 -49 -135t-137 -73v-5q93 -16 153 -79t60 -152z" />
    <glyph glyph-name="nine.inferior" unicode="&#x2089;" horiz-adv-x="989" 
d="M381 299q0 -45 26 -72q27 -27 67 -27t66 27t25 72q0 45 -25 72q-26 27 -67 27t-67 -28q-26 -26 -25 -71zM487 -145q47 0 77 49t34 149h-4q-84 -65 -226 -65t-234 83q-91 83 -91 218q0 100 54 179q55 79 153 124t223 45q221 0 344 -128t123 -367t-126 -378t-343 -139
q-180 0 -292 83t-124 233h348q10 -86 84 -86z" />
    <glyph glyph-name="uni208A" unicode="&#x208a;" horiz-adv-x="839" 
d="M768 236v-265h-209v-207h-276v207h-211v265h211v206h276v-206h209z" />
    <glyph glyph-name="uni208B" unicode="&#x208b;" horiz-adv-x="839" 
d="M72 -29v265h696v-265h-696z" />
    <glyph glyph-name="uni208C" unicode="&#x208c;" horiz-adv-x="839" 
d="M72 -190v239h696v-239h-696zM72 154v239h696v-239h-696z" />
    <glyph glyph-name="uni208D" unicode="&#x208d;" horiz-adv-x="589" 
d="M547 711q-143 -335 -142 -637q1 -303 142 -637h-268q-119 161 -171 315t-53 322q0 336 224 637h268z" />
    <glyph glyph-name="uni208E" unicode="&#x208e;" horiz-adv-x="589" 
d="M43 -563q143 335 142 637q-1 303 -142 637h268q119 -162 171 -316t53 -321q0 -338 -224 -637h-268z" />
    <glyph glyph-name="franc" unicode="&#x20a3;" horiz-adv-x="1400" 
d="M653 872h568v-368h-568v-107h336v-288h-336v-109h-463v109h-145v288h145v983h1067v-372h-604v-136z" />
    <glyph glyph-name="lira" unicode="&#x20a4;" horiz-adv-x="1400" 
d="M893 936q0 133 -113 133q-66 0 -95.5 -46t-29.5 -151v-20h273v-164h-273v-70h273v-163h-293q-27 -61 -80 -95v-4h756v-356h-1266v356q66 0 104.5 22.5t55.5 76.5h-160v163h174v70h-174v164h174v18q0 254 149.5 398.5t413.5 144.5q158 0 279 -59.5t188.5 -167t67.5 -250.5
h-424z" />
    <glyph glyph-name="peseta" unicode="&#x20a7;" horiz-adv-x="2088" 
d="M860 868.5q0 155.5 -188 155.5h-80v-311h80q188 0 188 155.5zM1837 475q-1 -149 111 -149q54 0 90 10v-328q-100 -28 -211 -28q-227 0 -331.5 87t-104.5 275v383h-68q-41 -176 -187.5 -272.5t-398.5 -96.5h-145v-356h-463v1380h608q242 0 386.5 -88t191.5 -252h76v301
h446v-301h191v-315h-191v-250z" />
    <glyph glyph-name="Euro" unicode="&#x20ac;" horiz-adv-x="1400" 
d="M774 -33q-256 0 -422 136.5t-215 379.5h-135l33 164h82v70h-115l33 164h98q47 252 214 392t427 140t417 -129t175 -358h-453q-27 125 -165 125t-179 -170h389l-30 -164h-379v-70h366l-30 -164h-312q47 -153 185 -153t160 123h458q-28 -232 -187 -359t-415 -127z" />
    <glyph glyph-name="uni20B9" unicode="&#x20b9;" horiz-adv-x="1400" 
d="M252 496v270h117q161 0 227 92h-518l59 217h461q-55 88 -221 88h-299l59 217h1186l-59 -217h-258v-4q50 -27 79 -84h238l-59 -217h-160q-43 -209 -322 -266v-4q66 -25 117 -80t102 -160l170 -348h-532l-143 328q-74 168 -217 168h-27z" />
    <glyph glyph-name="uni20BA" unicode="&#x20ba;" horiz-adv-x="1400" 
d="M612 -27q-209 0 -422 27v451l-163 -91v213l163 91v90l-163 -90v213l163 90v413h469v-200l312 170v-213l-312 -170v-88l312 170v-213l-312 -170v-304q102 0 156.5 79t54.5 235h488q0 -344 -193.5 -523.5t-552.5 -179.5z" />
    <glyph glyph-name="uni20BC" unicode="&#x20bc;" horiz-adv-x="1728" 
d="M659 1458h410v-178q295 -23 449.5 -186.5t154.5 -462.5v-631h-409v598q0 160 -45 231.5t-150 81.5v-911h-410v911q-102 -10 -148 -81.5t-46 -231.5v-598h-410v631q0 299 156 462.5t448 186.5v178z" />
    <glyph glyph-name="uni20BD" unicode="&#x20bd;" horiz-adv-x="1400" 
d="M627 813h84q147 0 147 138t-147 139h-84v-277zM1335 952.5q0 -202.5 -139 -316.5t-418 -114h-151v-90h334v-258h-334v-174h-461v174h-127v258h127v90h-127v291h127v567h612q279 0 418 -112.5t139 -315z" />
    <glyph glyph-name="uni2113" unicode="&#x2113;" horiz-adv-x="935" 
d="M670 1016q0 155 -70 155q-33 0 -46 -31.5t-13 -115.5v-344q129 113 129 336zM654 289q58 0 96 12v-301q-90 -23 -201 -23q-215 0 -321.5 98.5t-112.5 301.5q-49 4 -88 12v203q43 -10 88 -12v323q0 368 132.5 439t286.5 71t255.5 -98t101.5 -316t-92 -359.5t-258 -207.5
v-16q0 -68 27.5 -97.5t85.5 -29.5z" />
    <glyph glyph-name="uni2117" unicode="&#x2117;" horiz-adv-x="1617" 
d="M834 756q102 0 102 78t-109 77h-57v-155h64zM1235 833.5q0 -147.5 -90 -229.5t-273 -82h-102v-219h-291v840h393q183 0 273 -81t90 -228.5zM225 729q0 -178 73 -314t205 -211t306 -75t306 75t205 211t73 314t-73 314.5t-205 211t-306 74.5t-306 -74.5t-205 -211
t-73 -314.5zM1552 729q0 -227 -92 -400t-261 -268.5t-390 -95.5t-390 95.5t-261 268.5t-92 400t92 400.5t261 268.5t390 95t390 -95t261 -268.5t92 -400.5z" />
    <glyph glyph-name="trademark" unicode="&#x2122;" horiz-adv-x="1867" 
d="M1563 729v578h-4q-12 -84 -46 -252l-67 -326h-336l-68 326q-33 168 -45 252h-4v-578h-239v729h417l64 -299q25 -131 41 -268h4q10 104 41 268l61 299h420v-729h-239zM494 1223v-494h-283v494h-201v235h682v-235h-198z" />
    <glyph glyph-name="Omega" unicode="&#x2126;" horiz-adv-x="1581" 
d="M557 782q0 -225 154 -383v-399h-666v387h262v4q-113 102 -176 214t-63 259q0 307 196 467t526 160t527 -160t196 -467q0 -147 -63 -259t-176 -214v-4h262v-387h-666v399q154 158 154 383q0 154 -65 236t-169 82t-168 -82q-65 -82 -65 -236z" />
    <glyph glyph-name="estimated" unicode="&#x212e;" horiz-adv-x="1767" 
d="M1350 717q26 0 26 24v342q0 57 -30 84q-195 193 -464 193t-462 -193q-33 -29 -33 -84v-342q0 -24 29 -24h934zM1669 672h-1253q-12 0 -20.5 -8.5t-8.5 -18.5v-342q0 -59 33 -90q190 -186 465 -186q147 0 277 62.5t212 162.5h142q-82 -115 -242 -196t-391 -81t-410.5 92.5
t-278 254t-98.5 367.5t95.5 371t275 259t419.5 94t417.5 -100.5t271.5 -270.5t94 -370z" />
    <glyph glyph-name="oneeighth" unicode="&#x215b;" horiz-adv-x="1787" 
d="M18 1233q204 0 242 147h287v-827h-320v465h-209v215zM309 0l717 1380h244l-717 -1380h-244zM1280 252q0 -33 24 -53q24 -21 62 -21t62 20t24 54q0 33 -24 51t-62 18t-62 -18t-24 -51zM1282 587q0 -30 23 -49q23 -20 61 -20t62 20q22 20 22 49q0 30 -23 48t-61 18t-61 -18
t-23 -48zM1724 604q0 -66 -43 -112t-118 -60v-4q84 -14 134 -68t50 -129q0 -121 -99 -187q-100 -66 -282 -64q-182 0 -282 65q-99 66 -99 186q0 76 50 129t134 68v4q-77 14 -119 60t-42 112q0 112 97 178t261 66t261 -67t97 -177z" />
    <glyph glyph-name="threeeighths" unicode="&#x215c;" horiz-adv-x="2009" 
d="M807 795q0 -127 -96 -195t-286 -68t-295 80t-105 232h299q0 -104 104 -105q38 1 62 19t24 47q0 63 -108 63h-29v199h26q105 0 105 63q0 28 -24 46t-66 18t-69 -27q-26 -27 -25 -69h-285q0 143 102 223q103 80 277 80t276 -67t103 -177q0 -132 -150 -172v-4
q84 -25 122 -70t38 -116zM530 0l717 1380h244l-717 -1380h-244zM1501 252q0 -33 24 -53q25 -21 63 -21t62 20t23 54q0 68 -86 70q-38 -1 -62 -19t-24 -51zM1503 587q0 -30 23 -49q24 -20 62 -20t61 20t23 49q0 30 -23 48t-61 18t-62 -18q-23 -18 -23 -48zM1968 231
q0 -121 -99 -187t-281 -64q-182 0 -282 66q-99 66 -100 185q0 76 50 129t135 68v4q-76 14 -119 60t-43 112q0 112 97 178t261 66t261 -67t98 -177q0 -66 -43 -112t-119 -60v-4q84 -14 134 -68t50 -129z" />
    <glyph glyph-name="fiveeighths" unicode="&#x215d;" horiz-adv-x="2017" 
d="M440 926q-65 0 -80 -68l-292 16l47 506h639v-229h-392l-10 -102h4q66 53 182 53t198 -75q81 -75 81 -203t-105 -210q-106 -82 -280 -82t-278 73t-105 202h303q0 -35 23 -57t65 -23q42 0 65 28q23 27 23 73t-23 72q-24 26 -65 26zM539 0l716 1380h244l-717 -1380h-243z
M1509 252q0 -33 24 -53q25 -21 63 -21t62 20t23 54q0 68 -86 70q-38 -1 -62 -19t-24 -51zM1511 587q0 -30 23 -49q24 -20 62 -20t61 20t23 49q0 30 -23 48t-61 18t-62 -18q-23 -18 -23 -48zM1954 604q0 -66 -43 -112t-119 -60v-4q84 -14 134 -68t50 -129q0 -121 -99 -187
t-281 -64q-182 0 -282 66q-99 66 -100 185q0 76 50 129t135 68v4q-76 14 -119 60t-43 112q0 112 97 178q98 66 262 66t261 -67t97 -177z" />
    <glyph glyph-name="seveneighths" unicode="&#x215e;" horiz-adv-x="1806" 
d="M18 1151v229h717v-215q-194 -247 -268 -612h-320q41 164 118 324t173 274h-420zM328 0l716 1380h244l-717 -1380h-243zM1298 252q0 -33 24 -53q24 -21 62 -21t63 20q24 20 23 54q0 68 -86 70q-38 -1 -62 -19t-24 -51zM1300 587q0 -30 23 -49q23 -20 61 -20t62 20
q22 20 22 49q0 30 -22 48q-24 18 -62 18t-61 -18t-23 -48zM1743 604q0 -66 -43 -112t-119 -60v-4q84 -14 134 -68t50 -129q0 -121 -99 -187q-100 -66 -282 -64q-182 0 -281 66t-99 185q0 76 50 129t134 68v4q-76 14 -119 60t-43 112q0 112 97 178t261 66t262 -67
q97 -67 97 -177z" />
    <glyph glyph-name="partialdiff" unicode="&#x2202;" horiz-adv-x="1325" 
d="M508 475q0 -199 117 -199q133 0 133 240q0 199 -117 199q-133 0 -133 -240zM1221 774q0 -406 -162.5 -606.5t-440.5 -200.5t-424.5 137.5t-146.5 370.5q0 145 61.5 260t176.5 180.5t263 65.5t226 -55h4q2 10 2 30q0 100 -36.5 163t-104.5 63q-94 0 -104 -115h-447
q23 199 160 311.5t377 112.5q301 0 448.5 -186.5t147.5 -530.5z" />
    <glyph glyph-name="Delta" unicode="&#x2206;" horiz-adv-x="1527" 
d="M874 672q-66 252 -108 456h-4q-43 -205 -109 -456l-84 -320h392zM-8 0l489 1458h566l489 -1458h-1544z" />
    <glyph glyph-name="product" unicode="&#x220f;" horiz-adv-x="1533" 
d="M940 -246v1317h-346v-1317h-465v1704h1276v-1704h-465z" />
    <glyph glyph-name="summation" unicode="&#x2211;" horiz-adv-x="1130" 
d="M1059 141v-387h-987v387l290 469l-290 463v385h987v-385h-498l281 -463l-279 -469h496z" />
    <glyph glyph-name="minus" unicode="&#x2212;" horiz-adv-x="1159" 
d="M102 477v346h955v-346h-955z" />
    <glyph glyph-name="uni2215" unicode="&#x2215;" horiz-adv-x="1093" 
d="M61 -182l609 1708h319l-608 -1708h-320z" />
    <glyph glyph-name="uni2219" unicode="&#x2219;" horiz-adv-x="798" 
d="M172 403v445h455v-445h-455z" />
    <glyph glyph-name="radical" unicode="&#x221a;" horiz-adv-x="1515" 
d="M51 471v354h471l174 -729h4l387 1362h388l-488 -1704h-594l-170 717h-172z" />
    <glyph glyph-name="infinity" unicode="&#x221e;" horiz-adv-x="1579" 
d="M1204 632q0 42 -24.5 67.5t-65.5 25.5t-71.5 -24.5t-65.5 -69.5q35 -45 65.5 -69.5t71.5 -24.5t65.5 26.5t24.5 68.5zM465 725q-41 0 -65.5 -25.5t-24.5 -67.5t24.5 -68.5t65.5 -26.5t71.5 24.5t65.5 69.5q-35 45 -65.5 69.5t-71.5 24.5zM1140 1061q193 0 300.5 -117
t107.5 -313.5t-107.5 -313t-302.5 -116.5t-347 168q-153 -168 -349 -168t-303.5 116.5t-107.5 313t107.5 313.5t303.5 117t349 -168q156 168 349 168z" />
    <glyph glyph-name="integral" unicode="&#x222b;" horiz-adv-x="843" 
d="M793 1165q-78 0 -115 -31.5t-37 -105.5v-1030q0 -199 -110.5 -299t-321.5 -100q-102 0 -201 22v297q16 -4 43 -4q78 0 115 31.5t37 105.5v1030q0 199 110.5 299.5t319.5 100.5q105 0 203 -23v-297q-16 4 -43 4z" />
    <glyph glyph-name="approxequal" unicode="&#x2248;" horiz-adv-x="1159" 
d="M432 309q-80 0 -80 -88h-248q0 178 85 287.5t229 109.5q51 0 94.5 -18t111.5 -57t104 -39t56.5 23.5t20.5 64.5h250q0 -178 -86 -287.5t-228 -109.5q-73 0 -175 57t-134 57zM432 795q-80 0 -80 -88h-248q0 178 85 287.5t229 109.5q51 0 94.5 -18.5t111.5 -57.5t104 -39
t56.5 23.5t20.5 64.5h250q0 -178 -86 -287.5t-228 -109.5q-71 0 -174 58q-102 58 -135 57z" />
    <glyph glyph-name="notequal" unicode="&#x2260;" horiz-adv-x="1159" 
d="M1057 571v-317h-527l-104 -211h-297l104 211h-131v317h289l76 154h-365v317h523l106 215h299l-106 -215h133v-317h-291l-78 -154h369z" />
    <glyph glyph-name="lessequal" unicode="&#x2264;" horiz-adv-x="1159" 
d="M1057 0h-955v291h955v-291zM514 776v-4l543 -149v-310l-955 281v358l955 283v-309z" />
    <glyph glyph-name="greaterequal" unicode="&#x2265;" horiz-adv-x="1159" 
d="M102 0v291h955v-291h-955zM1057 594l-955 -281v310l543 149v4l-543 150v309l955 -283v-358z" />
    <glyph glyph-name="lozenge" unicode="&#x25ca;" horiz-adv-x="1464" 
d="M731 315l193 414l-193 414l-192 -414zM1030 0h-598l-350 729l350 729h598l352 -729z" />
    <glyph glyph-name="uniF8FF" unicode="&#xf8ff;" horiz-adv-x="1228" 
d="M512 133v273h311v-273h-311zM741 1004q0 84 -74 82q-36 0 -61 -38q-25 -36 -22 -110h-318q0 186 106 286t297 101q190 0 295 -84t105 -233q0 -82 -30 -140q-31 -58 -109 -134q-78 -75 -106 -125t-27 -122h-260q-19 156 9 218q28 61 93 127t84 100q18 33 18 72zM184 1305
v-1151q0 -56 33 -90t90 -33h737q57 0 91 32q33 33 32 91v1151q0 57 -32 90q-33 33 -91 32h-737q-57 1 -90 -32t-33 -90zM1331 1305v-1151q0 -131 -77 -209t-210 -78h-737q-131 0 -209 78t-78 209v1151q0 133 78 209t209 77h737q133 0 210 -77t77 -209z" />
    <glyph glyph-name="ff" unicode="&#xfb00;" horiz-adv-x="1566" 
d="M1544 1040v-315h-184v-725h-447v725h-301v-725h-446v725h-154v315h154v41q0 199 113 299t327 101q104 0 203 -23v-297q-15 4 -69 4q-54 1 -90 -29t-38 -96h301v41q0 199 113 299t328 101q104 0 202 -23v-297q-16 5 -69 5t-89 -30t-38 -96h184z" />
    <glyph glyph-name="fi" unicode="&#xfb01;" horiz-adv-x="1458" 
d="M1362 1040v-1040h-447v1040h447zM1362 1147h-447v311h447v-311zM606 1481q104 0 203 -23v-297q-15 4 -69 4t-90 -29.5t-38 -95.5h185v-315h-185v-725h-446v725h-154v315h154v41q0 199 112.5 299.5t327.5 100.5z" />
    <glyph glyph-name="fl" unicode="&#xfb02;" horiz-adv-x="1458" 
d="M797 1040v-315h-185v-725h-446v725h-154v315h154v41q0 199 113 299t327 101q104 0 203 -23v-297q-15 5 -69 5t-90 -30t-38 -96h185zM915 0v1458h447v-1458h-447z" />
    <glyph glyph-name="ffi" unicode="&#xfb03;" horiz-adv-x="2205" 
d="M2109 1040v-1040h-446v1040h446zM2109 1147h-446v311h446v-311zM1486 1165q-54 1 -88 -29q-36 -30 -38 -96h184v-315h-184v-725h-447v725h-301v-725h-446v725h-154v315h154v41q0 199 113 299t327 101q104 0 203 -23v-297q-15 4 -69 4q-54 1 -90 -29t-38 -96h301v41
q0 199 113 299t328 101q104 0 202 -23v-297q-16 4 -70 4z" />
    <glyph glyph-name="ffl" unicode="&#xfb04;" horiz-adv-x="2205" 
d="M2109 0h-446v1458h446v-1458zM1354 1481q104 0 202 -23v-297q-16 4 -70 4t-89 -29.5t-37 -95.5h184v-315h-184v-725h-447v725h-301v-725h-446v725h-154v315h154v41q0 199 112.5 299.5t327.5 100.5q104 0 203 -23v-297q-15 4 -69 4t-90 -29.5t-38 -95.5h301v41
q0 199 113 299.5t328 100.5z" />
    <glyph glyph-name="uniFEFF" unicode="&#xfeff;" horiz-adv-x="0" 
 />
    <glyph glyph-name="J.acute.loclNLD" horiz-adv-x="913" 
d="M244 -23q-109 0 -213 25v373q45 -8 107.5 -8t108.5 27.5t65.5 90t19.5 174.5v799h463v-909q0 -295 -135.5 -433.5t-415.5 -138.5zM330 1565l166 311h462l-292 -311h-336z" />
    <glyph glyph-name="Ccedilla.ss01" horiz-adv-x="1523" 
d="M768 1102q-102 0 -162.5 -99.5t-60.5 -272.5t61.5 -273.5t155.5 -100.5t149.5 58.5t63.5 160.5h498q-23 -293 -210.5 -450.5t-492.5 -157.5q-221 0 -382 92.5t-246 263.5t-85 406.5t86 407.5t246 263t379 91q311 0 497.5 -155.5t198.5 -438.5h-493q-21 205 -203 205z
M373 -444l293 344h327l-209 -344h-411z" />
    <glyph glyph-name="Scedilla.ss01" horiz-adv-x="1384" 
d="M543 469q0 -143 148.5 -143t148.5 92q0 37 -21.5 58.5t-66.5 36.5t-185.5 53t-249 85t-179 136.5t-70.5 234.5q0 219 164.5 344t458.5 125t456 -121t162 -352h-494q0 129 -143 129q-63 0 -97 -23.5t-34 -61.5t21.5 -58.5t68.5 -36t186 -49t254 -84t187.5 -144.5
t72.5 -246q0 -225 -170 -351t-477 -126t-478 132t-171 370h508zM291 -444l293 344h327l-209 -344h-411z" />
    <glyph glyph-name="uni0162.ss01" horiz-adv-x="1331" 
d="M897 1071v-1071h-463v1071h-420v387h1303v-387h-420zM270 -444l293 344h328l-209 -344h-412z" />
    <glyph glyph-name="i.loclTRK" horiz-adv-x="638" 
d="M96 0v1040h447v-1040h-447zM96 1147v311h447v-311h-447z" />
    <glyph glyph-name="j.acute.loclNLD" horiz-adv-x="636" 
d="M102 -391q-127 0 -211 24v301q23 -6 50 -6q82 0 117.5 44t35.5 163v905h447v-987q0 -223 -120 -333.5t-319 -110.5zM78 1147l166 311h463l-293 -311h-336z" />
    <glyph glyph-name="ccedilla.ss01" horiz-adv-x="1232" 
d="M633 745q-121 0 -121 -224t123 -224q47 0 74.5 36t29.5 105h461q-16 -221 -171 -346t-404 -125q-176 0 -308.5 67.5t-204 194.5t-71.5 295t70.5 292t202.5 190.5t309 66.5q243 0 400 -121t177 -331h-461q-6 61 -34.5 92.5t-71.5 31.5zM227 -444l293 344h328l-209 -344
h-412z" />
    <glyph glyph-name="scedilla.ss01" horiz-adv-x="1181" 
d="M606 225q90 0 90 58q0 25 -26 46t-179 61t-233 74t-133 100.5t-53 172.5q0 154 126 245t380 91q520 0 520 -340h-422q0 96 -92 96q-76 0 -76 -55q0 -38 68 -64q40 -14 147.5 -42.5t199 -67.5t153 -108.5t61.5 -176.5q0 -162 -137.5 -255t-407.5 -93q-548 0 -547 371h444
q0 -61 27 -87t90 -26zM211 -444l293 344h327l-208 -344h-412z" />
    <glyph glyph-name="uni0163.ss01" horiz-adv-x="858" 
d="M606 475q0 -149 112 -149q54 0 89 10v-328q-100 -28 -211 -28q-227 0 -331.5 87t-104.5 275v383h-152v315h152v301h446v-301h191v-315h-191v-250zM88 -444l293 344h328l-209 -344h-412z" />
    <glyph glyph-name="a.sups" horiz-adv-x="890" 
d="M412 848q86 0 86 123v24q-144 0 -146 -86q0 -61 60 -61zM827 1112v-213q0 -143 27 -223h-309q-12 35 -13 86h-4q-90 -109 -227 -109t-209 66.5t-72 168.5t88.5 171t389.5 88v27q0 76 -61.5 75.5t-61.5 -78.5h-324q8 111 101.5 183.5t289.5 72.5t290.5 -81.5t94.5 -233.5z
" />
    <glyph glyph-name="b.sups" horiz-adv-x="950" 
d="M391 1040.5q0 -59.5 22.5 -96.5t62.5 -37t63.5 36t23.5 97.5t-23.5 97.5t-63.5 36t-62.5 -37t-22.5 -96.5zM596 1427q150 0 238 -104t88 -282.5t-91.5 -284t-244.5 -105.5q-121 0 -189 99h-4v-74h-325v1020h342v-346h4q65 77 182 77z" />
    <glyph glyph-name="c.sups" horiz-adv-x="903" 
d="M463 1180q-74 0 -74 -138t76 -139q63 0 65 84h351q-10 -158 -125.5 -246t-305.5 -88t-305.5 105.5t-115.5 283.5t114.5 281.5t302.5 103.5t304 -86t131 -237h-353q-8 76 -65 76z" />
    <glyph glyph-name="d.sups" horiz-adv-x="950" 
d="M387 1040.5q0 -61.5 23.5 -97.5t63.5 -36t62.5 37t22.5 96.5t-22.5 96.5t-62.5 37t-63.5 -36t-23.5 -97.5zM338 1427q133 0 199 -77h4v346h342v-1020h-326v74h-4q-68 -98 -188 -99q-154 0 -245 105.5t-91 284t88 282.5t221 104z" />
    <glyph glyph-name="e.sups" horiz-adv-x="907" 
d="M451 1229q-35 0 -56.5 -19.5t-29.5 -76.5h170q-6 96 -84 96zM365 971q7 -111 81 -111q68 0 72 45h348q-27 -111 -140.5 -181.5t-259.5 -70.5t-242.5 52.5t-145.5 141.5t-49 197.5t49 195.5t144 137q94 50 232 50q281 0 384 -210q41 -84 41 -246h-514z" />
    <glyph glyph-name="egrave.sups" horiz-adv-x="907" 
d="M451 1229q-35 0 -56.5 -19.5t-29.5 -76.5h170q-6 96 -84 96zM365 971q7 -111 81 -111q68 0 72 45h348q-27 -111 -140.5 -181.5t-259.5 -70.5t-242.5 52.5t-145.5 141.5t-49 197.5t49 195.5t144 137q94 50 232 50q281 0 384 -210q41 -84 41 -246h-514zM96 1696h387
l158 -213h-299z" />
    <glyph glyph-name="f.sups" horiz-adv-x="608" 
d="M590 1405v-240h-129v-489h-344v489h-109v240h109v18q0 143 85 217t244 74q80 0 154 -18v-223q-6 2 -35 2q-94 0 -102 -70h127z" />
    <glyph glyph-name="g.sups" horiz-adv-x="935" 
d="M377 1061q0 -57 22.5 -89t62.5 -32t62.5 32t22.5 89t-22.5 89t-62.5 32t-62.5 -32t-22.5 -89zM442 575q95 0 95 132v84h-5q-29 -41 -86 -68t-116 -27q-139 0 -220 99.5t-81 266.5t84 265t227 98q61 0 119.5 -33.5t87.5 -82.5h4v96h317v-676q0 -176 -107 -257t-297 -81
q-367 0 -403 248h316q2 -29 19.5 -46.5t45.5 -17.5z" />
    <glyph glyph-name="h.sups" horiz-adv-x="933" 
d="M874 1124v-448h-342v403q0 88 -55 88q-37 0 -52 -33.5t-15 -113.5v-344h-342v1020h342v-346h4q70 78 192 78t195 -79t73 -225z" />
    <glyph glyph-name="i.sups" horiz-adv-x="477" 
d="M68 676v729h342v-729h-342zM68 1468v228h342v-228h-342z" />
    <glyph glyph-name="j.sups" horiz-adv-x="479" 
d="M84 401q-98 0 -160 19v227q20 -4 35 -4q59 0 85 32t26 116v614h342v-678q0 -164 -89.5 -245t-238.5 -81zM70 1468v228h342v-228h-342z" />
    <glyph glyph-name="k.sups" horiz-adv-x="925" 
d="M410 975v-299h-342v1022h342v-559h4l94 266h412l-224 -352l244 -377h-416l-110 299h-4z" />
    <glyph glyph-name="l.sups" horiz-adv-x="477" 
d="M68 676v1020h342v-1020h-342z" />
    <glyph glyph-name="m.sups" horiz-adv-x="1386" 
d="M477 1167q-67 0 -67 -135v-356h-342v729h313v-84h4q33 47 91.5 76.5t127.5 29.5q152 0 221 -129q33 59 96.5 94t143.5 35q121 0 191.5 -78.5t70.5 -224.5v-448h-342v403q0 88 -49 88q-35 0 -51.5 -29.5t-16.5 -105.5v-356h-340v405q0 86 -51 86z" />
    <glyph glyph-name="n.sups" horiz-adv-x="933" 
d="M874 1124v-448h-342v403q0 88 -55 88q-37 0 -52 -33.5t-15 -113.5v-344h-342v729h315v-76h4q82 98 212 98t202.5 -78.5t72.5 -224.5z" />
    <glyph glyph-name="o.sups" horiz-adv-x="933" 
d="M381 1040.5q0 -137.5 86 -137.5t86 137.5t-86 137.5t-86 -137.5zM905 1040.5q0 -178.5 -118.5 -283t-319.5 -104.5t-319.5 104.5t-118.5 283t118.5 282.5t319.5 104t319.5 -104t118.5 -282.5z" />
    <glyph glyph-name="p.sups" horiz-adv-x="950" 
d="M391 1040.5q0 -59.5 22.5 -96.5t62.5 -37t63.5 36t23.5 97.5t-23.5 97.5t-63.5 36t-62.5 -37t-22.5 -96.5zM600 1427q139 0 230.5 -104t91.5 -282.5t-88 -284t-224 -105.5t-196 78h-4v-317h-342v993h325v-74h4q64 96 203 96z" />
    <glyph glyph-name="q.sups" horiz-adv-x="950" 
d="M387 1040.5q0 -61.5 23.5 -97.5t63.5 -36t62.5 37t22.5 96.5t-22.5 96.5t-62.5 37t-63.5 -36t-23.5 -97.5zM350 1427q139 0 203 -96h4v74h326v-993h-342v317h-4q-61 -78 -197 -78t-223.5 105.5t-87.5 284t91 282.5t230 104z" />
    <glyph glyph-name="r.sups" horiz-adv-x="700" 
d="M616 1415q47 0 78 -8v-287q-53 8 -100 8q-88 0 -136 -52t-48 -148v-252h-342v729h319v-94h4q81 104 225 104z" />
    <glyph glyph-name="s.sups" horiz-adv-x="868" 
d="M455 842q49 0 49 35q0 18 -19.5 32.5t-153.5 46.5q-134 31 -208 79t-74 156t91.5 172t281.5 64q386 0 387 -235h-322q0 57 -57 57q-47 0 -47 -32q0 -20 24.5 -33.5t143.5 -43.5t203 -83t84 -163t-100.5 -175.5t-301.5 -65.5q-405 0 -405 260h340q0 -37 17.5 -54t66.5 -17
z" />
    <glyph glyph-name="t.sups" horiz-adv-x="634" 
d="M455 1026q0 -102 82 -102q41 0 61 6v-248q-76 -23 -160 -23q-168 0 -246.5 62.5t-78.5 196.5v247h-107v240h107v215h342v-215h137v-240h-137v-139z" />
    <glyph glyph-name="u.sups" horiz-adv-x="933" 
d="M59 956v449h342v-404q0 -88 56 -88q37 0 52 34t15 114v344h342v-729h-315v76h-4q-82 -98 -212 -98t-203 78.5t-73 223.5z" />
    <glyph glyph-name="v.sups" horiz-adv-x="876" 
d="M199 676l-213 729h372l37 -211q27 -162 41 -293h4q14 131 41 293l37 211h373l-213 -729h-479z" />
    <glyph glyph-name="w.sups" horiz-adv-x="1392" 
d="M782 676l-43 237q-27 158 -41 293h-4q-14 -135 -41 -293l-43 -237h-436l-170 729h326l26 -231q23 -172 27 -291h4q18 147 53 301l52 221h409l51 -221q35 -154 54 -301h4q4 119 26 291l27 231h326l-170 -729h-437z" />
    <glyph glyph-name="x.sups" horiz-adv-x="888" 
d="M897 676h-377l-74 201h-4l-73 -201h-377l233 375l-217 354h379l55 -191h4l56 191h379l-217 -354z" />
    <glyph glyph-name="y.sups" horiz-adv-x="884" 
d="M330 397q-100 0 -176 17v231q28 -8 74 -8t46 37q0 27 -41 123l-256 608h375l60 -244q37 -160 57 -299h4q16 164 41 303l39 240h346l-194 -645q-43 -139 -91.5 -217t-116 -112t-167.5 -34z" />
    <glyph glyph-name="z.sups" horiz-adv-x="806" 
d="M477 926h285v-250h-717v256l274 219v4h-266v250h701v-258l-277 -217v-4z" />
    <glyph glyph-name="a.smcp" horiz-adv-x="1368" 
d="M770 510q-39 127 -84 326h-4q-8 -37 -59 -232l-48 -174h216zM502 158l-43 -158h-467l393 1122h598l393 -1122h-467l-43 158h-364z" />
    <glyph glyph-name="aacute.smcp" horiz-adv-x="1368" 
d="M770 510q-39 127 -84 326h-4q-8 -37 -59 -232l-48 -174h216zM502 158l-43 -158h-467l393 1122h598l393 -1122h-467l-43 158h-364zM444 1229l166 311h463l-293 -311h-336z" />
    <glyph glyph-name="abreve.smcp" horiz-adv-x="1368" 
d="M770 510q-39 127 -84 326h-4q-8 -37 -59 -232l-48 -174h216zM502 158l-43 -158h-467l393 1122h598l393 -1122h-467l-43 158h-364zM684 1212q-178 0 -275.5 85t-101.5 243h262q2 -49 30 -70.5t85 -21.5t85 21.5t30 70.5h262q-4 -158 -101.5 -243t-275.5 -85z" />
    <glyph glyph-name="acircumflex.smcp" horiz-adv-x="1368" 
d="M770 510q-39 127 -84 326h-4q-8 -37 -59 -232l-48 -174h216zM502 158l-43 -158h-467l393 1122h598l393 -1122h-467l-43 158h-364zM684 1382l-106 -153h-326l260 311h346l260 -311h-325z" />
    <glyph glyph-name="adieresis.smcp" horiz-adv-x="1368" 
d="M770 510q-39 127 -84 326h-4q-8 -37 -59 -232l-48 -174h216zM502 158l-43 -158h-467l393 1122h598l393 -1122h-467l-43 158h-364zM750 1229v311h372v-311h-372zM246 1229v311h372v-311h-372z" />
    <glyph glyph-name="agrave.smcp" horiz-adv-x="1368" 
d="M770 510q-39 127 -84 326h-4q-8 -37 -59 -232l-48 -174h216zM502 158l-43 -158h-467l393 1122h598l393 -1122h-467l-43 158h-364zM924 1229h-336l-293 311h463z" />
    <glyph glyph-name="amacron.smcp" horiz-adv-x="1368" 
d="M770 510q-39 127 -84 326h-4q-8 -37 -59 -232l-48 -174h216zM502 158l-43 -158h-467l393 1122h598l393 -1122h-467l-43 158h-364zM248 1253v260h872v-260h-872z" />
    <glyph glyph-name="aogonek.smcp" horiz-adv-x="1368" 
d="M770 510q-39 127 -84 326h-4q-8 -37 -59 -232l-48 -174h216zM840 -211q0 123 196 211h-127l-43 158h-364l-43 -158h-467l393 1122h598l393 -1122q-66 -39 -91 -67.5t-25 -59.5q0 -53 59 -53q31 0 63 14v-213q-111 -37 -252.5 -37t-215.5 53.5t-74 151.5z" />
    <glyph glyph-name="aring.smcp" horiz-adv-x="1368" 
d="M770 510q-39 127 -84 326h-4q-8 -37 -59 -232l-48 -174h216zM502 158l-43 -158h-467l393 1122h598l393 -1122h-467l-43 158h-364zM561 1456q0 -51 36 -87t87 -36t87 36t36 87t-36 87t-87 36t-87 -36t-36 -87zM940 1456q0 -70 -34 -128t-93 -93t-129 -35t-129 35t-94 94.5
t-35 128t35 128t94 94t129 34.5q107 0 181.5 -75.5t74.5 -182.5z" />
    <glyph glyph-name="atilde.smcp" horiz-adv-x="1368" 
d="M770 510q-39 127 -84 326h-4q-8 -37 -59 -232l-48 -174h216zM502 158l-43 -158h-467l393 1122h598l393 -1122h-467l-43 158h-364zM811 1464q66 0 74 76h225q-8 -154 -78.5 -241t-202.5 -87q-70 0 -156 39t-118 39q-63 0 -74 -78h-225q8 156 79 242t202 86q78 0 161 -38
t113 -38z" />
    <glyph glyph-name="ae.smcp" horiz-adv-x="1693" 
d="M758 809h-25l-139 -334h217zM1616 0h-727l-29 178h-389l-74 -178h-407l481 1122h1143v-307h-494l19 -106h434v-295h-389l18 -107h414v-307z" />
    <glyph glyph-name="b.smcp" horiz-adv-x="1298" 
d="M791 373.5q0 72.5 -140 72.5h-102v-188h106q72 0 104 21.5t32 94zM549 684h102q133 0 133 90t-125 90h-110v-180zM1219 831q0 -94 -45.5 -151t-145.5 -90v-4q104 -25 163.5 -94.5t59.5 -167.5q0 -150 -126 -237t-349 -87h-661v1122h657q221 0 334 -77.5t113 -213.5z" />
    <glyph glyph-name="c.smcp" horiz-adv-x="1271" 
d="M508 561q0 -129 36 -192.5t90 -63.5t86 40t38 112h467q-18 -240 -174 -365t-422 -125t-422 157t-156 435.5t155.5 437t423 158.5t424 -123t165.5 -358h-465q-15 143 -119 143q-59 0 -93 -63.5t-34 -192.5z" />
    <glyph glyph-name="cacute.smcp" horiz-adv-x="1271" 
d="M508 561q0 -129 36 -192.5t90 -63.5t86 40t38 112h467q-18 -240 -174 -365t-422 -125t-422 157t-156 435.5t155.5 437t423 158.5t424 -123t165.5 -358h-465q-15 143 -119 143q-59 0 -93 -63.5t-34 -192.5zM395 1229l166 311h463l-293 -311h-336z" />
    <glyph glyph-name="ccaron.smcp" horiz-adv-x="1271" 
d="M508 561q0 -129 36 -192.5t90 -63.5t86 40t38 112h467q-18 -240 -174 -365t-422 -125t-422 157t-156 435.5t155.5 437t423 158.5t424 -123t165.5 -358h-465q-15 143 -119 143q-59 0 -93 -63.5t-34 -192.5zM463 1229l-260 311h325l107 -154l108 154h326l-260 -311h-346z
" />
    <glyph glyph-name="ccedilla.smcp" horiz-adv-x="1271" 
d="M729 -109q191 1 191 -177q0 -90 -75 -153t-218.5 -63t-266.5 76l70 143q104 -47 172 -47t68 47t-72 47q-35 0 -59 -14l-97 74l88 149q-227 31 -353 184.5t-126 417t155.5 422t423 158.5t424 -123t165.5 -358h-465q-15 143 -119 143q-59 0 -93 -63.5t-34 -192.5t36 -192.5
t90 -63.5t86 40t38 112h467q-17 -221 -151 -345t-359 -143l-53 -88q37 10 67 10z" />
    <glyph glyph-name="ccircumflex.smcp" horiz-adv-x="1271" 
d="M508 561q0 -129 36 -192.5t90 -63.5t86 40t38 112h467q-18 -240 -174 -365t-422 -125t-422 157t-156 435.5t155.5 437t423 158.5t424 -123t165.5 -358h-465q-15 143 -119 143q-59 0 -93 -63.5t-34 -192.5zM635 1382l-107 -153h-325l260 311h346l260 -311h-326z" />
    <glyph glyph-name="cdotaccent.smcp" horiz-adv-x="1271" 
d="M508 561q0 -129 36 -192.5t90 -63.5t86 40t38 112h467q-18 -240 -174 -365t-422 -125t-422 157t-156 435.5t155.5 437t423 158.5t424 -123t165.5 -358h-465q-15 143 -119 143q-59 0 -93 -63.5t-34 -192.5zM412 1229v311h446v-311h-446z" />
    <glyph glyph-name="d.smcp" horiz-adv-x="1359" 
d="M565 324h66q104 0 162.5 63.5t58.5 174t-58.5 174t-162.5 63.5h-66v-475zM1309 562q0 -269 -173 -415.5t-491 -146.5h-530v1122h530q318 0 491 -145.5t173 -414.5z" />
    <glyph glyph-name="eth.smcp" horiz-adv-x="1374" 
d="M887 561q0 119 -64.5 188.5t-177.5 69.5h-86v-147h178v-213h-178v-156h86q113 0 177.5 69.5t64.5 188.5zM1323 562q0 -269 -173 -415.5t-491 -146.5h-530v459h-109v213h109v450h530q318 0 491 -145.5t173 -414.5z" />
    <glyph glyph-name="dcaron.smcp" horiz-adv-x="1359" 
d="M565 324h66q104 0 162.5 63.5t58.5 174t-58.5 174t-162.5 63.5h-66v-475zM1309 562q0 -269 -173 -415.5t-491 -146.5h-530v1122h530q318 0 491 -145.5t173 -414.5zM502 1229l-260 311h325l107 -154l108 154h326l-260 -311h-346z" />
    <glyph glyph-name="dcroat.smcp" horiz-adv-x="1374" 
d="M887 562q0 118 -65 188t-177 69h-86v-147h178v-213h-178v-156h86q112 0 177 70q65 71 65 189zM1323 562q0 -270 -173 -416t-491 -146h-530v459h-109v213h109v450h530q318 0 491 -145t173 -415z" />
    <glyph glyph-name="e.smcp" horiz-adv-x="1091" 
d="M508 815v-106h463v-295h-463v-107h506v-307h-897v1122h895v-307h-504z" />
    <glyph glyph-name="eacute.smcp" horiz-adv-x="1091" 
d="M508 815v-106h463v-295h-463v-107h506v-307h-897v1122h895v-307h-504zM326 1229l166 311h462l-292 -311h-336z" />
    <glyph glyph-name="ebreve.smcp" horiz-adv-x="1091" 
d="M508 815v-106h463v-295h-463v-107h506v-307h-897v1122h895v-307h-504zM565 1212q-178 0 -275 85t-102 243h263q2 -49 29.5 -70.5t85 -21.5t85 21.5t29.5 70.5h262q-4 -158 -101.5 -243t-275.5 -85z" />
    <glyph glyph-name="ecaron.smcp" horiz-adv-x="1091" 
d="M508 815v-106h463v-295h-463v-107h506v-307h-897v1122h895v-307h-504zM393 1229l-260 311h326l106 -154l109 154h325l-260 -311h-346z" />
    <glyph glyph-name="ecircumflex.smcp" horiz-adv-x="1091" 
d="M508 815v-106h463v-295h-463v-107h506v-307h-897v1122h895v-307h-504zM565 1382l-106 -153h-326l260 311h346l260 -311h-325z" />
    <glyph glyph-name="edieresis.smcp" horiz-adv-x="1091" 
d="M508 815v-106h463v-295h-463v-107h506v-307h-897v1122h895v-307h-504zM631 1229v311h373v-311h-373zM127 1229v311h373v-311h-373z" />
    <glyph glyph-name="edotaccent.smcp" horiz-adv-x="1091" 
d="M508 815v-106h463v-295h-463v-107h506v-307h-897v1122h895v-307h-504zM342 1229v311h446v-311h-446z" />
    <glyph glyph-name="egrave.smcp" horiz-adv-x="1091" 
d="M508 815v-106h463v-295h-463v-107h506v-307h-897v1122h895v-307h-504zM805 1229h-336l-293 311h463z" />
    <glyph glyph-name="emacron.smcp" horiz-adv-x="1091" 
d="M508 815v-106h463v-295h-463v-107h506v-307h-897v1122h895v-307h-504zM129 1253v260h872v-260h-872z" />
    <glyph glyph-name="eogonek.smcp" horiz-adv-x="1091" 
d="M477 -211q0 123 197 211h-557v1122h895v-307h-504v-106h463v-295h-463v-107h506v-307q-66 -39 -91.5 -67.5t-25.5 -59.5q0 -53 59 -53q31 0 64 14v-213q-111 -37 -253 -37t-216 53.5t-74 151.5z" />
    <glyph glyph-name="f.smcp" horiz-adv-x="1034" 
d="M506 805v-146h461v-315h-461v-344h-391v1122h882v-317h-491z" />
    <glyph glyph-name="fi.smcp" horiz-adv-x="1718" 
d="M506 805v-146h461v-315h-461v-344h-391v1122h882v-317h-491zM1151 0v1122h451v-1122h-451z" />
    <glyph glyph-name="fl.smcp" horiz-adv-x="2105" 
d="M506 805v-146h461v-315h-461v-344h-391v1122h882v-317h-491zM2091 365v-365h-940v1122h451v-757h489z" />
    <glyph glyph-name="g.smcp" horiz-adv-x="1349" 
d="M676 846q-168 0 -168 -289q0 -145 47 -219t120.5 -74t116 32t52.5 87h-178l-2 274h587v-657h-374v86h-5q-104 -115 -290 -115q-248 0 -389.5 157t-141.5 429q0 182 76 317.5t218 208t320.5 72.5t307.5 -52t202.5 -146.5t77.5 -215.5h-460q-4 45 -36 75t-81 30z" />
    <glyph glyph-name="gbreve.smcp" horiz-adv-x="1349" 
d="M676 846q-168 0 -168 -289q0 -145 47 -219t120.5 -74t116 32t52.5 87h-178l-2 274h587v-657h-374v86h-5q-104 -115 -290 -115q-248 0 -389.5 157t-141.5 429q0 182 76 317.5t218 208t320.5 72.5t307.5 -52t202.5 -146.5t77.5 -215.5h-460q-4 45 -36 75t-81 30zM674 1212
q-178 0 -275.5 85t-101.5 243h262q2 -49 29.5 -70.5t85 -21.5t85 21.5t29.5 70.5h263q-4 -158 -101.5 -243t-275.5 -85z" />
    <glyph glyph-name="gcircumflex.smcp" horiz-adv-x="1349" 
d="M676 846q-168 0 -168 -289q0 -145 47 -219t120.5 -74t116 32t52.5 87h-178l-2 274h587v-657h-374v86h-5q-104 -115 -290 -115q-248 0 -389.5 157t-141.5 429q0 182 76 317.5t218 208t320.5 72.5t307.5 -52t202.5 -146.5t77.5 -215.5h-460q-4 45 -36 75t-81 30zM674 1382
l-107 -153h-325l260 311h346l260 -311h-326z" />
    <glyph glyph-name="gcommaaccent.smcp" horiz-adv-x="1349" 
d="M676 846q-168 0 -168 -289q0 -145 47 -219t120.5 -74t116 32t52.5 87h-178l-2 274h587v-657h-374v86h-5q-104 -115 -290 -115q-248 0 -389.5 157t-141.5 429q0 182 76 317.5t218 208t320.5 72.5t307.5 -52t202.5 -146.5t77.5 -215.5h-460q-4 45 -36 75t-81 30zM506 -354
v264h313v-264l-155 -230h-158l98 230h-98z" />
    <glyph glyph-name="gdotaccent.smcp" horiz-adv-x="1349" 
d="M676 846q-168 0 -168 -289q0 -145 47 -219t120.5 -74t116 32t52.5 87h-178l-2 274h587v-657h-374v86h-5q-104 -115 -290 -115q-248 0 -389.5 157t-141.5 429q0 182 76 317.5t218 208t320.5 72.5t307.5 -52t202.5 -146.5t77.5 -215.5h-460q-4 45 -36 75t-81 30zM451 1229
v311h446v-311h-446z" />
    <glyph glyph-name="h.smcp" horiz-adv-x="1443" 
d="M877 0v391h-310v-391h-450v1122h450v-366h310v366h450v-1122h-450z" />
    <glyph glyph-name="hbar.smcp" horiz-adv-x="1443" 
d="M567 870v-114h310v114h-310zM1327 870v-870h-450v391h-310v-391h-450v870h-90v164h90v88h450v-88h310v88h450v-88h90v-164h-90z" />
    <glyph glyph-name="uni0125.smcp" horiz-adv-x="1443" 
d="M877 0v391h-310v-391h-450v1122h450v-366h310v366h450v-1122h-450zM723 1382l-107 -153h-325l260 311h346l260 -311h-326z" />
    <glyph glyph-name="i.smcp" horiz-adv-x="684" 
d="M117 0v1122h450v-1122h-450z" />
    <glyph glyph-name="iacute.smcp" horiz-adv-x="684" 
d="M117 0v1122h450v-1122h-450zM102 1229l166 311h463l-293 -311h-336z" />
    <glyph glyph-name="ibreve.smcp" horiz-adv-x="684" 
d="M117 0v1122h450v-1122h-450zM342 1212q-166 0 -253 85t-91 243h256q2 -51 21.5 -71.5t65.5 -20.5t65.5 20.5t23.5 71.5h256q-4 -158 -91 -243t-253 -85z" />
    <glyph glyph-name="icircumflex.smcp" horiz-adv-x="684" 
d="M117 0v1122h450v-1122h-450zM436 1237l-94 119l-90 -119h-311l241 303h322l241 -303h-309z" />
    <glyph glyph-name="idieresis.smcp" horiz-adv-x="684" 
d="M117 0v1122h450v-1122h-450zM387 1229v311h311v-311h-311zM-14 1229v311h311v-311h-311z" />
    <glyph glyph-name="i.loclTRK.smcp" horiz-adv-x="684" 
d="M117 0v1122h450v-1122h-450zM119 1229v311h446v-311h-446z" />
    <glyph glyph-name="igrave.smcp" horiz-adv-x="684" 
d="M117 0v1122h450v-1122h-450zM582 1229h-336l-293 311h463z" />
    <glyph glyph-name="ij.smcp" horiz-adv-x="1515" 
d="M117 0v1122h450v-1122h-450zM909 -18q-100 0 -196 20v350q31 -6 69 -6q100 0 138 50t38 177v549h451v-684q0 -235 -122 -345.5t-378 -110.5z" />
    <glyph glyph-name="imacron.smcp" horiz-adv-x="684" 
d="M117 0v1122h450v-1122h-450zM6 1247v262h670v-262h-670z" />
    <glyph glyph-name="iogonek.smcp" horiz-adv-x="684" 
d="M31 -211q0 123 196 211h-110v1122h450v-1122q-66 -39 -91 -67.5t-25 -59.5q0 -53 59 -53q31 0 63 14v-213q-111 -37 -252.5 -37t-215.5 53.5t-74 151.5z" />
    <glyph glyph-name="itilde.smcp" horiz-adv-x="684" 
d="M117 0v1122h450v-1122h-450zM463 1206q-60 0 -138 41t-104 41q-59 0 -63 -82h-197q8 158 72.5 246t185.5 88q62 0 150 -47q69 -33 94 -33q55 0 61 80h199q-8 -156 -73.5 -245t-186.5 -89z" />
    <glyph glyph-name="j.smcp" horiz-adv-x="831" 
d="M225 -18q-100 0 -196 20v350q31 -6 69 -6q100 0 138 50t38 177v549h451v-684q0 -235 -122 -345.5t-378 -110.5z" />
    <glyph glyph-name="jcircumflex.smcp" horiz-adv-x="831" 
d="M225 -18q-100 0 -196 20v350q31 -6 69 -6q100 0 138 50t38 177v549h451v-684q0 -235 -122 -345.5t-378 -110.5zM569 1237l-94 119l-90 -119h-311l241 303h322l242 -303h-310z" />
    <glyph glyph-name="k.smcp" horiz-adv-x="1394" 
d="M567 481v-481h-450v1122h450v-454h4l260 454h541l-389 -526l406 -596h-547l-271 481h-4z" />
    <glyph glyph-name="kcommaaccent.smcp" horiz-adv-x="1394" 
d="M567 481v-481h-450v1122h450v-454h4l260 454h541l-389 -526l406 -596h-547l-271 481h-4zM547 -354v264h313v-264l-155 -230h-158l98 230h-98z" />
    <glyph glyph-name="l.smcp" horiz-adv-x="1071" 
d="M1057 365v-365h-940v1122h450v-757h490z" />
    <glyph glyph-name="lacute.smcp" horiz-adv-x="1071" 
d="M1057 365v-365h-940v1122h450v-757h490zM182 1229l166 311h463l-293 -311h-336z" />
    <glyph glyph-name="lcaron.smcp" horiz-adv-x="1071" 
d="M1057 365v-365h-940v1122h450v-757h490zM616 756l39 366h349l-136 -366h-252z" />
    <glyph glyph-name="lcommaaccent.smcp" horiz-adv-x="1071" 
d="M1057 365v-365h-940v1122h450v-757h490zM387 -354v264h313v-264l-155 -230h-158l98 230h-98z" />
    <glyph glyph-name="ldot.smcp" horiz-adv-x="1214" 
d="M764 590v358h369v-358h-369zM1057 365v-365h-940v1122h450v-757h490z" />
    <glyph glyph-name="j.acute.loclNLD.smcp" horiz-adv-x="831" 
d="M225 -18q-100 0 -196 20v350q31 -6 69 -6q100 0 138 50t38 177v549h451v-684q0 -235 -122 -345.5t-378 -110.5zM236 1229l165 311h463l-293 -311h-335z" />
    <glyph glyph-name="lslash.smcp" horiz-adv-x="1081" 
d="M1067 0h-940v420l-111 -62v263l111 61v440h451v-221l215 121v-264l-215 -117v-276h489v-365z" />
    <glyph glyph-name="m.smcp" horiz-adv-x="2052" 
d="M1516 0v520q0 223 8 402h-4q-39 -205 -84 -400l-125 -522h-570l-125 522q-45 195 -84 400h-4q8 -178 9 -402v-520h-420v1122h725l108 -452q49 -205 74 -412h4q25 207 74 412l108 452h725v-1122h-419z" />
    <glyph glyph-name="n.smcp" horiz-adv-x="1656" 
d="M551 385v-385h-434v1122h698l156 -407q74 -188 141 -410h6q-12 172 -12 432v385h434v-1122h-698l-158 408q-86 229 -141 411h-4q12 -174 12 -434z" />
    <glyph glyph-name="nacute.smcp" horiz-adv-x="1656" 
d="M551 385v-385h-434v1122h698l156 -407q74 -188 141 -410h6q-12 172 -12 432v385h434v-1122h-698l-158 408q-86 229 -141 411h-4q12 -174 12 -434zM590 1229l166 311h463l-293 -311h-336z" />
    <glyph glyph-name="ncaron.smcp" horiz-adv-x="1656" 
d="M551 385v-385h-434v1122h698l156 -407q74 -188 141 -410h6q-12 172 -12 432v385h434v-1122h-698l-158 408q-86 229 -141 411h-4q12 -174 12 -434zM657 1229l-260 311h326l106 -154l109 154h326l-260 -311h-347z" />
    <glyph glyph-name="ncommaaccent.smcp" horiz-adv-x="1656" 
d="M551 385v-385h-434v1122h698l156 -407q74 -188 141 -410h6q-12 172 -12 432v385h434v-1122h-698l-158 408q-86 229 -141 411h-4q12 -174 12 -434zM672 -354v264h313v-264l-156 -230h-157l98 230h-98z" />
    <glyph glyph-name="eng.smcp" horiz-adv-x="1431" 
d="M897 -348q-115 0 -192 24v277q18 -6 54 -6t59.5 19.5t23.5 47.5t-8.5 50t-42.5 86l-129 247q-74 141 -123 283h-4q16 -156 16 -356v-324h-434v1122h538l107 -207q74 -143 131 -286h4q-16 162 -16 356v137h434v-1099q0 -185 -115 -278t-303 -93z" />
    <glyph glyph-name="ntilde.smcp" horiz-adv-x="1656" 
d="M551 385v-385h-434v1122h698l156 -407q74 -188 141 -410h6q-12 172 -12 432v385h434v-1122h-698l-158 408q-86 229 -141 411h-4q12 -174 12 -434zM956 1464q66 0 74 76h225q-8 -154 -78.5 -241t-201.5 -87q-72 0 -157 39t-118 39q-63 0 -73 -78h-226q8 156 79 242t202 86
q78 0 161 -38t113 -38z" />
    <glyph glyph-name="o.smcp" horiz-adv-x="1308" 
d="M655.5 809q-145.5 0 -145.5 -248t143 -248q76 0 112 59.5t36 188.5q0 248 -145.5 248zM1257 561q0 -178 -74.5 -312t-210.5 -208t-316.5 -74t-316.5 74t-211 208t-75 312t75 312.5t211 208t316.5 73.5t316.5 -73.5t210.5 -208t74.5 -312.5z" />
    <glyph glyph-name="oacute.smcp" horiz-adv-x="1308" 
d="M655.5 809q-145.5 0 -145.5 -248t143 -248q76 0 112 59.5t36 188.5q0 248 -145.5 248zM1257 561q0 -178 -74.5 -312t-210.5 -208t-316.5 -74t-316.5 74t-211 208t-75 312t75 312.5t211 208t316.5 73.5t316.5 -73.5t210.5 -208t74.5 -312.5zM416 1229l166 311h462
l-292 -311h-336z" />
    <glyph glyph-name="obreve.smcp" horiz-adv-x="1308" 
d="M655.5 809q-145.5 0 -145.5 -248t143 -248q76 0 112 59.5t36 188.5q0 248 -145.5 248zM1257 561q0 -178 -74.5 -312t-210.5 -208t-316.5 -74t-316.5 74t-211 208t-75 312t75 312.5t211 208t316.5 73.5t316.5 -73.5t210.5 -208t74.5 -312.5zM655.5 1212
q-178.5 0 -275.5 85t-101 243h262q2 -49 29.5 -70.5t85 -21.5t85 21.5t29.5 70.5h262q-4 -158 -101 -243t-275.5 -85z" />
    <glyph glyph-name="ocircumflex.smcp" horiz-adv-x="1308" 
d="M655.5 809q-145.5 0 -145.5 -248t143 -248q76 0 112 59.5t36 188.5q0 248 -145.5 248zM1257 561q0 -178 -74.5 -312t-210.5 -208t-316.5 -74t-316.5 74t-211 208t-75 312t75 312.5t211 208t316.5 73.5t316.5 -73.5t210.5 -208t74.5 -312.5zM655 1382l-106 -153h-326
l260 311h346l261 -311h-326z" />
    <glyph glyph-name="odieresis.smcp" horiz-adv-x="1308" 
d="M655.5 809q-145.5 0 -145.5 -248t143 -248q76 0 112 59.5t36 188.5q0 248 -145.5 248zM1257 561q0 -178 -74.5 -312t-210.5 -208t-316.5 -74t-316.5 74t-211 208t-75 312t75 312.5t211 208t316.5 73.5t316.5 -73.5t210.5 -208t74.5 -312.5zM721 1229v311h373v-311h-373z
M217 1229v311h373v-311h-373z" />
    <glyph glyph-name="ograve.smcp" horiz-adv-x="1308" 
d="M655.5 809q-145.5 0 -145.5 -248t143 -248q76 0 112 59.5t36 188.5q0 248 -145.5 248zM1257 561q0 -178 -74.5 -312t-210.5 -208t-316.5 -74t-316.5 74t-211 208t-75 312t75 312.5t211 208t316.5 73.5t316.5 -73.5t210.5 -208t74.5 -312.5zM895 1229h-336l-293 311h463z
" />
    <glyph glyph-name="ohungarumlaut.smcp" horiz-adv-x="1308" 
d="M655.5 809q-145.5 0 -145.5 -248t143 -248q76 0 112 59.5t36 188.5q0 248 -145.5 248zM1257 561q0 -178 -74.5 -312t-210.5 -208t-316.5 -74t-316.5 74t-211 208t-75 312t75 312.5t211 208t316.5 73.5t316.5 -73.5t210.5 -208t74.5 -312.5zM678 1229l207 311h393
l-293 -311h-307zM195 1229l206 311h394l-293 -311h-307z" />
    <glyph glyph-name="omacron.smcp" horiz-adv-x="1308" 
d="M655.5 809q-145.5 0 -145.5 -248t143 -248q76 0 112 59.5t36 188.5q0 248 -145.5 248zM1257 561q0 -178 -74.5 -312t-210.5 -208t-316.5 -74t-316.5 74t-211 208t-75 312t75 312.5t211 208t316.5 73.5t316.5 -73.5t210.5 -208t74.5 -312.5zM219 1253v260h873v-260h-873z
" />
    <glyph glyph-name="oslash.smcp" horiz-adv-x="1320" 
d="M852 561q0 57 -10 109l-271 -357q35 -20 91 -20q190 0 190 268zM471 561q0 -57 10 -112l275 358q-41 23 -94 22q-191 0 -191 -268zM53 561q0 178 76 312.5t213 208t308.5 73.5t297.5 -57l101 131l155 -117l-96 -125q162 -162 162 -426q0 -178 -76 -312t-213 -208
t-304 -74t-300 56l-103 -136l-155 117l98 129q-164 164 -164 428z" />
    <glyph glyph-name="otilde.smcp" horiz-adv-x="1308" 
d="M655.5 809q-145.5 0 -145.5 -248t143 -248q76 0 112 59.5t36 188.5q0 248 -145.5 248zM1257 561q0 -178 -74.5 -312t-210.5 -208t-316.5 -74t-316.5 74t-211 208t-75 312t75 312.5t211 208t316.5 73.5t316.5 -73.5t210.5 -208t74.5 -312.5zM782 1464q66 0 74 76h225
q-8 -154 -78.5 -241t-201.5 -87q-72 0 -157 39t-118 39q-63 0 -73 -78h-226q8 156 79 242t202 86q78 0 161 -38t113 -38z" />
    <glyph glyph-name="oe.smcp" horiz-adv-x="1724" 
d="M510 561q0 -119 51 -186.5t152 -67.5h53v508h-53q-101 0 -152 -67.5t-51 -186.5zM1141 815v-106h463v-295h-463v-107h506v-307h-938q-311 0 -483.5 147.5t-172.5 413.5t172 413.5t484 147.5h936v-307h-504z" />
    <glyph glyph-name="p.smcp" horiz-adv-x="1306" 
d="M567 586h95q147 0 147 120.5t-147 120.5h-95v-241zM1274 708q0 -198 -124 -307.5t-374 -109.5h-209v-291h-450v1122h659q250 0 374 -108t124 -306z" />
    <glyph glyph-name="thorn.smcp" horiz-adv-x="1306" 
d="M567 459h95q147 0 147 120.5t-147 120.5h-95v-241zM776 993q250 0 374 -108.5t124 -306.5t-124 -307t-374 -109h-209v-162h-450v1122h450v-129h209z" />
    <glyph glyph-name="q.smcp" horiz-adv-x="1308" 
d="M670 809q-166 0 -166 -195.5t40 -258t124 -62.5h10l-98 106l163 150l86 -92q6 43 7 94q0 258 -166 258zM632 -33q-158 0 -293.5 74t-210.5 208t-75 312t75 312.5t211 208t316.5 73.5t316.5 -73.5t210.5 -208t74.5 -312.5q0 -239 -131 -395l125 -133l-194 -180l-148 159
q-119 -45 -277 -45z" />
    <glyph glyph-name="r.smcp" horiz-adv-x="1343" 
d="M567 623h115q135 0 135 114q0 106 -141 107h-109v-221zM1255 797q0 -102 -59 -172t-168 -103v-4q68 -23 111 -77t88 -171l106 -270h-477l-78 219q-27 76 -60.5 106.5t-99.5 30.5h-51v-356h-450v1122h690q217 0 332.5 -76.5t115.5 -248.5z" />
    <glyph glyph-name="racute.smcp" horiz-adv-x="1343" 
d="M567 623h115q135 0 135 114q0 106 -141 107h-109v-221zM1255 797q0 -102 -59 -172t-168 -103v-4q68 -23 111 -77t88 -171l106 -270h-477l-78 219q-27 76 -60.5 106.5t-99.5 30.5h-51v-356h-450v1122h690q217 0 332.5 -76.5t115.5 -248.5zM426 1229l166 311h463l-293 -311
h-336z" />
    <glyph glyph-name="rcaron.smcp" horiz-adv-x="1343" 
d="M567 623h115q135 0 135 114q0 106 -141 107h-109v-221zM1255 797q0 -102 -59 -172t-168 -103v-4q68 -23 111 -77t88 -171l106 -270h-477l-78 219q-27 76 -60.5 106.5t-99.5 30.5h-51v-356h-450v1122h690q217 0 332.5 -76.5t115.5 -248.5zM494 1229l-261 311h326l107 -154
l108 154h326l-260 -311h-346z" />
    <glyph glyph-name="rcommaaccent.smcp" horiz-adv-x="1343" 
d="M567 623h115q135 0 135 114q0 106 -141 107h-109v-221zM1255 797q0 -102 -59 -172t-168 -103v-4q68 -23 111 -77t88 -171l106 -270h-477l-78 219q-27 76 -60.5 106.5t-99.5 30.5h-51v-356h-450v1122h690q217 0 332.5 -76.5t115.5 -248.5zM539 -354v264h313v-264
l-156 -230h-157l98 230h-98z" />
    <glyph glyph-name="s.smcp" horiz-adv-x="1148" 
d="M461 358q0 -106 113.5 -106t113.5 70q0 33 -37 50t-165 50q-128 32 -220 70q-206 85 -207 288q0 176 135.5 275.5t380 99.5t377.5 -95t133 -276h-417q0 96 -104.5 96.5t-104.5 -69.5q0 -33 35.5 -48t164.5 -43t225 -68q218 -90 218 -306q0 -180 -139.5 -279.5
t-395.5 -99.5t-396 103.5t-140 287.5h430z" />
    <glyph glyph-name="sacute.smcp" horiz-adv-x="1148" 
d="M461 358q0 -106 113.5 -106t113.5 70q0 33 -37 50t-165 50q-128 32 -220 70q-206 85 -207 288q0 176 135.5 275.5t380 99.5t377.5 -95t133 -276h-417q0 96 -104.5 96.5t-104.5 -69.5q0 -33 35.5 -48t164.5 -43t225 -68q218 -90 218 -306q0 -180 -139.5 -279.5
t-395.5 -99.5t-396 103.5t-140 287.5h430zM344 1229l166 311h463l-293 -311h-336z" />
    <glyph glyph-name="scaron.smcp" horiz-adv-x="1148" 
d="M461 358q0 -106 113.5 -106t113.5 70q0 33 -37 50t-165 50q-128 32 -220 70q-206 85 -207 288q0 176 135.5 275.5t380 99.5t377.5 -95t133 -276h-417q0 96 -104.5 96.5t-104.5 -69.5q0 -33 35.5 -48t164.5 -43t225 -68q218 -90 218 -306q0 -180 -139.5 -279.5
t-395.5 -99.5t-396 103.5t-140 287.5h430zM412 1229l-260 311h325l107 -154l108 154h326l-260 -311h-346z" />
    <glyph glyph-name="scedilla.smcp" horiz-adv-x="1148" 
d="M657 -109q191 1 191 -177q0 -90 -75 -153t-219 -63t-265 76l69 143q104 -47 172 -47t68 47t-72 47q-34 0 -59 -14l-96 74l86 149q-205 20 -315.5 121t-110.5 264h430q0 -106 113.5 -106t113.5 70q0 33 -37 50t-165 50q-128 32 -220 70q-206 85 -207 288
q0 176 135.5 275.5t380.5 99.5t377.5 -95t132.5 -276h-417q0 96 -104.5 96.5t-104.5 -69.5q0 -33 35.5 -48t164.5 -43t225 -68q218 -90 218 -306q0 -166 -119 -264t-340 -113l-53 -88q37 10 67 10z" />
    <glyph glyph-name="scircumflex.smcp" horiz-adv-x="1148" 
d="M461 358q0 -106 113.5 -106t113.5 70q0 33 -37 50t-165 50q-128 32 -220 70q-206 85 -207 288q0 176 135.5 275.5t380 99.5t377.5 -95t133 -276h-417q0 96 -104.5 96.5t-104.5 -69.5q0 -33 35.5 -48t164.5 -43t225 -68q218 -90 218 -306q0 -180 -139.5 -279.5
t-395.5 -99.5t-396 103.5t-140 287.5h430zM584 1382l-107 -153h-325l260 311h346l260 -311h-326z" />
    <glyph glyph-name="scommaaccent.smcp" horiz-adv-x="1148" 
d="M461 358q0 -106 113.5 -106t113.5 70q0 33 -37 50t-165 50q-128 32 -220 70q-206 85 -207 288q0 176 135.5 275.5t380 99.5t377.5 -95t133 -276h-417q0 96 -104.5 96.5t-104.5 -69.5q0 -33 35.5 -48t164.5 -43t225 -68q218 -90 218 -306q0 -180 -139.5 -279.5
t-395.5 -99.5t-396 103.5t-140 287.5h430zM410 -354v264h313v-264l-156 -230h-157l98 230h-98z" />
    <glyph glyph-name="germandbls.smcp" horiz-adv-x="1490" 
d="M1444 315q0 -166 -125 -257t-338 -91q-416 0 -416 379h348q0 -72 62 -72q57 0 57 45q0 117 -282 134v229l120 131q-35 14 -96 14q-239 0 -239 -239v-588h-426v598q0 272 170 414.5t495 142.5q186 0 344 -66.5t258 -181.5l-217 -239q285 -103 285 -353z" />
    <glyph glyph-name="t.smcp" horiz-adv-x="1105" 
d="M778 758v-758h-450v758h-314v364h1078v-364h-314z" />
    <glyph glyph-name="tbar.smcp" horiz-adv-x="1105" 
d="M778 584h164v-224h-164v-360h-450v360h-164v224h164v174h-314v364h1078v-364h-314v-174z" />
    <glyph glyph-name="tcaron.smcp" horiz-adv-x="1105" 
d="M778 758v-758h-450v758h-314v364h1078v-364h-314zM381 1229l-260 311h325l107 -154l109 154h325l-260 -311h-346z" />
    <glyph glyph-name="uni0163.smcp" horiz-adv-x="1105" 
d="M778 758v-758h-450v758h-314v364h1078v-364h-314zM395 -354v264h314v-264l-156 -230h-158l99 230h-99z" />
    <glyph glyph-name="uni021B.smcp" horiz-adv-x="1105" 
d="M778 758v-758h-450v758h-314v364h1078v-364h-314zM395 -354v264h314v-264l-156 -230h-158l99 230h-99z" />
    <glyph glyph-name="u.smcp" horiz-adv-x="1351" 
d="M675.5 -33q-272.5 0 -422 135.5t-149.5 374.5v645h451v-639q0 -133 121 -133t121 133v639h450v-645q0 -239 -149.5 -374.5t-422 -135.5z" />
    <glyph glyph-name="uacute.smcp" horiz-adv-x="1351" 
d="M675.5 -33q-272.5 0 -422 135.5t-149.5 374.5v645h451v-639q0 -133 121 -133t121 133v639h450v-645q0 -239 -149.5 -374.5t-422 -135.5zM436 1229l166 311h463l-293 -311h-336z" />
    <glyph glyph-name="ubreve.smcp" horiz-adv-x="1351" 
d="M675.5 -33q-272.5 0 -422 135.5t-149.5 374.5v645h451v-639q0 -133 121 -133t121 133v639h450v-645q0 -239 -149.5 -374.5t-422 -135.5zM676 1212q-178 0 -275.5 85t-101.5 243h262q2 -49 29.5 -70.5t85 -21.5t85 21.5t30.5 70.5h262q-4 -158 -101.5 -243t-275.5 -85z
" />
    <glyph glyph-name="ucircumflex.smcp" horiz-adv-x="1351" 
d="M675.5 -33q-272.5 0 -422 135.5t-149.5 374.5v645h451v-639q0 -133 121 -133t121 133v639h450v-645q0 -239 -149.5 -374.5t-422 -135.5zM676 1382l-107 -153h-325l260 311h346l260 -311h-326z" />
    <glyph glyph-name="udieresis.smcp" horiz-adv-x="1351" 
d="M675.5 -33q-272.5 0 -422 135.5t-149.5 374.5v645h451v-639q0 -133 121 -133t121 133v639h450v-645q0 -239 -149.5 -374.5t-422 -135.5zM741 1229v311h373v-311h-373zM238 1229v311h372v-311h-372z" />
    <glyph glyph-name="ugrave.smcp" horiz-adv-x="1351" 
d="M675.5 -33q-272.5 0 -422 135.5t-149.5 374.5v645h451v-639q0 -133 121 -133t121 133v639h450v-645q0 -239 -149.5 -374.5t-422 -135.5zM915 1229h-335l-293 311h463z" />
    <glyph glyph-name="uhungarumlaut.smcp" horiz-adv-x="1351" 
d="M675.5 -33q-272.5 0 -422 135.5t-149.5 374.5v645h451v-639q0 -133 121 -133t121 133v639h450v-645q0 -239 -149.5 -374.5t-422 -135.5zM698 1229l207 311h393l-292 -311h-308zM215 1229l207 311h393l-293 -311h-307z" />
    <glyph glyph-name="umacron.smcp" horiz-adv-x="1351" 
d="M675.5 -33q-272.5 0 -422 135.5t-149.5 374.5v645h451v-639q0 -133 121 -133t121 133v639h450v-645q0 -239 -149.5 -374.5t-422 -135.5zM240 1253v260h872v-260h-872z" />
    <glyph glyph-name="uogonek.smcp" horiz-adv-x="1351" 
d="M881 -416q-287 0 -287 206q0 103 135 181v4q-14 -2 -53 -2q-272 0 -422 135.5t-150 374.5v639h451v-633q0 -133 121 -133t121 133v633h450v-639q1 -233 -151 -413q-66 -78 -83.5 -115t-17.5 -74q0 -61 70 -61q31 0 63 14v-213q-111 -37 -247 -37z" />
    <glyph glyph-name="uring.smcp" horiz-adv-x="1351" 
d="M675.5 -33q-272.5 0 -422 135.5t-149.5 374.5v645h451v-639q0 -133 121 -133t121 133v639h450v-645q0 -239 -149.5 -374.5t-422 -135.5zM553 1456q0 -51 36 -87t87 -36t87 36t36 87t-36 87t-87 36t-87 -36t-36 -87zM932 1456q0 -70 -34 -128t-93.5 -93t-129 -35t-129 35
t-94 94.5t-34.5 128t34.5 128t94 94t129.5 34.5q106 0 181 -75.5t75 -182.5z" />
    <glyph glyph-name="utilde.smcp" horiz-adv-x="1351" 
d="M675.5 -33q-272.5 0 -422 135.5t-149.5 374.5v645h451v-639q0 -133 121 -133t121 133v639h450v-645q0 -239 -149.5 -374.5t-422 -135.5zM821 1212q-72 0 -157 39t-117 39q-63 0 -74 -78h-225q8 156 78.5 242t201.5 86q78 0 161 -38t116 -38q62 0 72 76h225
q-8 -154 -79 -241t-202 -87z" />
    <glyph glyph-name="v.smcp" horiz-adv-x="1331" 
d="M334 0l-332 1122h481l101 -424q53 -213 80 -393h4q27 180 80 393l100 424h481l-332 -1122h-663z" />
    <glyph glyph-name="w.smcp" horiz-adv-x="2007" 
d="M1135 0l-78 461q-37 221 -51 373h-5q-14 -152 -51 -373l-78 -461h-639l-223 1122h439l65 -393q39 -231 57 -428h4q25 221 62 428l72 393h589l72 -393q37 -207 62 -428h4q18 197 57 428l66 393h438l-223 -1122h-639z" />
    <glyph glyph-name="wacute.smcp" horiz-adv-x="2007" 
d="M1135 0l-78 461q-37 221 -51 373h-5q-14 -152 -51 -373l-78 -461h-639l-223 1122h439l65 -393q39 -231 57 -428h4q25 221 62 428l72 393h589l72 -393q37 -207 62 -428h4q18 197 57 428l66 393h438l-223 -1122h-639zM764 1229l166 311h463l-293 -311h-336z" />
    <glyph glyph-name="wcircumflex.smcp" horiz-adv-x="2007" 
d="M1135 0l-78 461q-37 221 -51 373h-5q-14 -152 -51 -373l-78 -461h-639l-223 1122h439l65 -393q39 -231 57 -428h4q25 221 62 428l72 393h589l72 -393q37 -207 62 -428h4q18 197 57 428l66 393h438l-223 -1122h-639zM1004 1382l-107 -153h-326l260 311h347l260 -311h-326z
" />
    <glyph glyph-name="wdieresis.smcp" horiz-adv-x="2007" 
d="M1135 0l-78 461q-37 221 -51 373h-5q-14 -152 -51 -373l-78 -461h-639l-223 1122h439l65 -393q39 -231 57 -428h4q25 221 62 428l72 393h589l72 -393q37 -207 62 -428h4q18 197 57 428l66 393h438l-223 -1122h-639zM1069 1229v311h373v-311h-373zM565 1229v311h373v-311
h-373z" />
    <glyph glyph-name="wgrave.smcp" horiz-adv-x="2007" 
d="M1135 0l-78 461q-37 221 -51 373h-5q-14 -152 -51 -373l-78 -461h-639l-223 1122h439l65 -393q39 -231 57 -428h4q25 221 62 428l72 393h589l72 -393q37 -207 62 -428h4q18 197 57 428l66 393h438l-223 -1122h-639zM1243 1229h-336l-293 311h463z" />
    <glyph glyph-name="x.smcp" horiz-adv-x="1273" 
d="M1276 0h-479l-158 346h-4l-160 -346h-477l358 588l-331 534h467l143 -327h4l141 327h469l-334 -534z" />
    <glyph glyph-name="y.smcp" horiz-adv-x="1212" 
d="M831 0h-450v369l-383 753h489l56 -190q39 -133 61 -262h4q16 98 62 262l55 190h489l-383 -753v-369z" />
    <glyph glyph-name="yacute.smcp" horiz-adv-x="1212" 
d="M831 0h-450v369l-383 753h489l56 -190q39 -133 61 -262h4q16 98 62 262l55 190h489l-383 -753v-369zM367 1229l165 311h463l-293 -311h-335z" />
    <glyph glyph-name="ycircumflex.smcp" horiz-adv-x="1212" 
d="M831 0h-450v369l-383 753h489l56 -190q39 -133 61 -262h4q16 98 62 262l55 190h489l-383 -753v-369zM606 1382l-106 -153h-326l260 311h346l260 -311h-325z" />
    <glyph glyph-name="ydieresis.smcp" horiz-adv-x="1212" 
d="M831 0h-450v369l-383 753h489l56 -190q39 -133 61 -262h4q16 98 62 262l55 190h489l-383 -753v-369zM672 1229v311h372v-311h-372zM168 1229v311h373v-311h-373z" />
    <glyph glyph-name="ygrave.smcp" horiz-adv-x="1212" 
d="M831 0h-450v369l-383 753h489l56 -190q39 -133 61 -262h4q16 98 62 262l55 190h489l-383 -753v-369zM846 1229h-336l-293 311h463z" />
    <glyph glyph-name="z.smcp" horiz-adv-x="1046" 
d="M559 354h445v-354h-967v371l422 393v4h-400v354h920v-370l-420 -394v-4z" />
    <glyph glyph-name="zacute.smcp" horiz-adv-x="1046" 
d="M559 354h445v-354h-967v371l422 393v4h-400v354h920v-370l-420 -394v-4zM281 1229l165 311h463l-293 -311h-335z" />
    <glyph glyph-name="zcaron.smcp" horiz-adv-x="1046" 
d="M559 354h445v-354h-967v371l422 393v4h-400v354h920v-370l-420 -394v-4zM348 1229l-260 311h326l106 -154l109 154h325l-260 -311h-346z" />
    <glyph glyph-name="zdotaccent.smcp" horiz-adv-x="1046" 
d="M559 354h445v-354h-967v371l422 393v4h-400v354h920v-370l-420 -394v-4zM297 1229v311h446v-311h-446z" />
    <glyph glyph-name="ccedilla.smcp.ss01" horiz-adv-x="1271" 
d="M508 561q0 -129 36 -192.5t90 -63.5t86 40t38 112h467q-18 -240 -174 -365t-422 -125t-422 157t-156 435.5t155.5 437t423 158.5t424 -123t165.5 -358h-465q-15 143 -119 143q-59 0 -93 -63.5t-34 -192.5zM244 -444l293 344h327l-209 -344h-411z" />
    <glyph glyph-name="scedilla.smcp.ss01" horiz-adv-x="1148" 
d="M461 358q0 -106 113.5 -106t113.5 70q0 33 -37 50t-165 50q-128 32 -220 70q-206 85 -207 288q0 176 135.5 275.5t380 99.5t377.5 -95t133 -276h-417q0 96 -104.5 96.5t-104.5 -69.5q0 -33 35.5 -48t164.5 -43t225 -68q218 -90 218 -306q0 -180 -139.5 -279.5
t-395.5 -99.5t-396 103.5t-140 287.5h430zM172 -444l293 344h328l-209 -344h-412z" />
    <glyph glyph-name="uni0163.smcp.ss01" horiz-adv-x="1105" 
d="M778 758v-758h-450v758h-314v364h1078v-364h-314zM158 -444l293 344h327l-209 -344h-411z" />
    <glyph glyph-name="zero.lf" horiz-adv-x="1400" 
d="M528 690q0 -190 44 -294t128 -103q84 0 128 103q44 104 44 294t-44 294t-128 103q-84 0 -128 -103q-44 -104 -44 -294zM1331 690q0 -346 -164 -534t-467 -188t-467 188t-163 534q0 346 163 535q164 188 467 188t467 -188q164 -189 164 -535z" />
    <glyph glyph-name="one.lf" horiz-adv-x="974" 
d="M367 0v801h-336v332q186 0 276 58t111 189h411v-1380h-462z" />
    <glyph glyph-name="two.lf" horiz-adv-x="1380" 
d="M1268 973q0 -164 -98 -263t-291 -173q-194 -74 -239 -123q-22 -25 -28 -56h695v-358h-1223q-4 49 -4 98q0 232 89 378t308 253q129 63 187 95q138 76 139 161q0 47 -29 74t-86 27t-95 -46q-38 -45 -38 -131h-457q-2 242 154 373t438 131q176 0 307 -58q131 -59 201 -159
t70 -223z" />
    <glyph glyph-name="three.lf" horiz-adv-x="1351" 
d="M803 973q-1 113 -139 113q-70 0 -111 -46q-41 -45 -41 -125h-446q0 233 159 366q160 132 445 132q365 0 513 -185q71 -89 71 -204q0 -114 -56 -186q-55 -72 -180 -117v-4q133 -43 193 -119q61 -76 61 -202t-74 -224t-208 -152t-314 -53q-307 0 -470 130t-163 378h467
q0 -180 164 -180q66 0 102 31t37 84q0 129 -190 129h-33v315h49q76 0 120 33t44 86z" />
    <glyph glyph-name="four.lf" horiz-adv-x="1388" 
d="M684 573v125q0 199 14 371h-4q-72 -152 -170 -305l-121 -191h281zM1106 244v-244h-442v244h-633v344l499 792h576v-807h250v-329h-250z" />
    <glyph glyph-name="five.lf" horiz-adv-x="1368" 
d="M814 932q146 0 252 -58t164 -159q58 -102 58 -246q0 -143 -76 -259t-214 -179t-320 -64q-274 0 -435 119t-161 332h463q0 -61 38 -97q39 -36 107 -36t107 44t39 127t-40 126t-102 43q-114 0 -145 -115l-443 29l76 841h1010v-360h-637l-16 -184h4q125 96 271 96z" />
    <glyph glyph-name="six.lf" horiz-adv-x="1341" 
d="M563 448q0 -70 39 -113q39 -44 97 -44t97 44q38 45 38 113t-38 112t-98 44t-98 -43q-37 -43 -37 -113zM674 1102q-64 0 -108 -77t-50 -234h4q115 113 307 112q129 0 233 -56q104 -57 162 -157t58 -235t-74 -248t-207 -176t-303 -64q-297 0 -462 180t-164 523
q0 227 76 395q160 348 583 348q219 0 369 -116t166 -326h-457q-12 131 -133 131z" />
    <glyph glyph-name="seven.lf" horiz-adv-x="1126" 
d="M31 1020v360h1063v-344q-152 -205 -261.5 -475t-166.5 -561h-492q66 289 189.5 561.5t277.5 458.5h-610z" />
    <glyph glyph-name="eight.lf" horiz-adv-x="1339" 
d="M522 417q0 -59 40 -97t108 -38t108 38q40 36 39 96q0 60 -39 96q-38 35 -108 35t-109 -35t-39 -95zM526 976q0 -56 39 -90t105 -34t104 34t39 90q0 56 -39 91q-38 35 -104 35t-105 -35t-39 -91zM1237 1022q0 -115 -68 -196t-188 -107v-4q129 -25 210 -116t81 -218
q0 -197 -158 -305t-444 -109q-286 0 -445 109q-158 109 -157 305q0 127 80 218q81 91 210 116v4q-120 27 -188 107t-68 196q0 115 70 204t199 138t299 49t299 -49t199 -138t69 -204z" />
    <glyph glyph-name="nine.lf" horiz-adv-x="1341" 
d="M799 934q0 70 -39 114t-97 44q-59 0 -97 -44t-38 -113t38 -113t98 -44t98 43q37 43 37 113zM535 479q-129 1 -233 57t-162 156t-58 236t74 248q74 113 206 176t304 63q298 0 462 -180t164 -522q0 -227 -77 -395t-220 -259q-143 -90 -362 -90t-369 116t-166 327h457
q6 -64 38 -98t85 -33q74 1 118 77t50 234h-4q-115 -113 -307 -113z" />
    <glyph glyph-name="zero.denominator" horiz-adv-x="884" 
d="M442.5 186q102.5 0 102.5 228t-102.5 228t-102.5 -228t102.5 -228zM844 414q0 -207 -104.5 -320.5t-297 -113.5t-297 113.5t-104.5 320.5t104.5 320.5t297 113.5t297 -113.5t104.5 -320.5z" />
    <glyph glyph-name="one.denominator" horiz-adv-x="634" 
d="M18 680q206 0 242 147h287v-827h-320v465h-209v215z" />
    <glyph glyph-name="two.denominator" horiz-adv-x="872" 
d="M502 586q0 55 -64 55q-35 0 -58.5 -25.5t-23.5 -74.5h-297q0 145 99.5 226t281.5 81q111 0 237 -54.5t126 -222.5t-238 -247q-104 -35 -136 -53.5t-38 -43.5h436v-227h-778q-2 20 -2 66q0 141 56.5 225t182.5 142t171 87t45 66z" />
    <glyph glyph-name="three.denominator" horiz-adv-x="856" 
d="M406 514q104 0 104 64q0 29 -23.5 46t-66.5 17t-68.5 -26.5t-25.5 -69.5h-285q0 143 102.5 223t276.5 80t276.5 -66.5t102.5 -177.5q0 -132 -150 -172v-4q84 -25 122 -70t38 -116q0 -127 -96.5 -194.5t-286.5 -67.5t-294.5 79.5t-104.5 231.5h299q0 -104 104 -105
q39 0 62.5 18.5t23.5 47.5q0 63 -108 63h-29v199h27z" />
    <glyph glyph-name="four.denominator" horiz-adv-x="880" 
d="M428 346v60q0 131 8 227h-4q-43 -94 -102 -187l-64 -100h162zM698 137v-137h-286v137h-394v219l308 471h372v-481h162v-209h-162z" />
    <glyph glyph-name="five.denominator" horiz-adv-x="864" 
d="M440 373q-65 0 -80 -68l-292 17l47 505h639v-229h-392l-10 -102h4q66 53 182 53t197.5 -74.5t81.5 -202.5t-105.5 -210t-279.5 -82t-278.5 72.5t-104.5 201.5h303q0 -35 22.5 -57.5t64.5 -22.5t65.5 28t23.5 74t-23.5 71.5t-64.5 25.5z" />
    <glyph glyph-name="six.denominator" horiz-adv-x="845" 
d="M362 272q0 -39 23 -63.5t57.5 -24.5t56 23.5t21.5 63.5t-21 63.5t-55 23.5t-58 -23.5t-24 -62.5zM524 537q122 0 203.5 -72t81.5 -171t-47 -168t-131 -107.5t-189 -38.5q-190 0 -295.5 109.5t-105.5 314t108.5 324.5t278.5 120t265 -70.5t106 -197.5h-297q-8 73 -74 73
q-100 0 -106 -182h4q76 66 198 66z" />
    <glyph glyph-name="seven.denominator" horiz-adv-x="755" 
d="M18 598v229h717v-215q-192 -246 -268 -612h-320q41 164 118 323.5t173 274.5h-420z" />
    <glyph glyph-name="eight.denominator" horiz-adv-x="843" 
d="M336 252q0 -33 23.5 -53.5t62.5 -20.5t62.5 20.5t23.5 53.5t-23.5 51.5t-62.5 18.5t-62.5 -18.5t-23.5 -51.5zM338 586q0 -30 22.5 -49t61.5 -19t61.5 19.5t22.5 49.5t-22.5 48t-61.5 18t-61.5 -18.5t-22.5 -48.5zM780 604q0 -66 -43 -112t-119 -60v-4
q84 -14 134.5 -67.5t50.5 -129.5q0 -121 -99.5 -186t-281.5 -65t-281.5 65.5t-99.5 185.5q0 76 50 129.5t134 67.5v4q-76 14 -119 60.5t-43 111.5q0 111 97.5 177.5t261.5 66.5t261 -66.5t97 -177.5z" />
    <glyph glyph-name="nine.denominator" horiz-adv-x="845" 
d="M485 557q0 39 -22.5 63.5t-57 24.5t-56 -23.5t-21.5 -63.5t21 -63.5t55 -23.5t57.5 23.5t23.5 62.5zM420 176q100 0 106 182h-4q-76 -66 -198 -66t-203.5 72t-81.5 172t47 168t131 107t189 39q190 0 295.5 -109.5t105.5 -314.5t-108.5 -324.5t-278.5 -119.5t-265.5 70.5
t-105.5 197.5h297q8 -74 74 -74z" />
    <glyph glyph-name="zero.numerator" horiz-adv-x="884" 
d="M545 966q-1 228 -103 228t-102 -226t102 -229q103 -1 103 227zM442 532q-193 0 -297 114t-104 321t104 321t297 113q193 0 297 -114q105 -115 105 -321t-104 -320t-298 -114z" />
    <glyph glyph-name="one.numerator" horiz-adv-x="634" 
d="M18 1233q206 0 242 147h287v-827h-320v465h-209v215z" />
    <glyph glyph-name="two.numerator" horiz-adv-x="872" 
d="M502 1139q0 55 -64 55q-34 0 -58 -26t-24 -74h-297q-1 145 99 226t282 81q111 0 194 -36q169 -73 169 -240t-238 -248q-104 -35 -136 -53t-38 -44h436v-227h-778q-2 20 -2 65q0 142 56 226q57 84 183 142t171 87t45 66z" />
    <glyph glyph-name="three.numerator" horiz-adv-x="856" 
d="M403 1067q105 0 105 63q0 29 -23.5 46.5t-66.5 17.5t-68.5 -26.5t-25.5 -69.5h-285q0 143 102.5 223t276.5 80t276.5 -66.5t102.5 -177.5q0 -132 -150 -172v-4q84 -25 122 -70t38 -116q0 -127 -96.5 -195t-286.5 -68t-294.5 80t-104.5 232h299q0 -104 104 -105
q39 0 62.5 18.5t23.5 47.5q0 63 -108 63h-29v199h26z" />
    <glyph glyph-name="four.numerator" horiz-adv-x="880" 
d="M428 899v59q0 131 8 228h-4q-43 -94 -102 -187l-64 -100h162zM698 690v-137h-286v137h-394v219l308 471h372v-481h162v-209h-162z" />
    <glyph glyph-name="five.numerator" horiz-adv-x="864" 
d="M440 926q-65 0 -80 -68l-292 16l47 506h639v-229h-392l-10 -102h4q66 53 182 53t197.5 -75t81.5 -203t-105.5 -210t-279.5 -82t-278.5 73t-104.5 202h303q0 -35 22.5 -57.5t64.5 -22.5t65.5 27.5t23.5 73.5t-23.5 72t-64.5 26z" />
    <glyph glyph-name="six.numerator" horiz-adv-x="845" 
d="M362 825q0 -39 23 -63t57 -25q34 0 57 24q21 23 21 63t-21 64t-55 24t-58 -24t-24 -63zM428 1206q-100 0 -106 -182h4q76 66 198 66t204 -72q81 -72 81 -171t-47 -168t-131 -108t-189 -39q-190 0 -296 110q-105 110 -105 314t109 325q108 120 278 120t265 -71t106 -197
h-297q-8 73 -74 73z" />
    <glyph glyph-name="seven.numerator" horiz-adv-x="755" 
d="M18 1151v229h717v-215q-192 -246 -268 -612h-320q41 164 118 323.5t173 274.5h-420z" />
    <glyph glyph-name="eight.numerator" horiz-adv-x="843" 
d="M508 805q0 33 -24 51t-62 18t-63 -18q-23 -18 -23 -51t24 -53t62 -20t62 20t24 53zM506 1140q0 30 -23 48t-61 18t-62 -18q-22 -18 -22 -48t22 -49t62 -19t62 18q22 20 22 50zM780 1157q0 -65 -43 -111t-119 -61v-4q84 -13 134 -67t51 -130q1 -120 -99 -186t-282 -66
t-282 66q-99 66 -99 186q0 76 50 129t134 68v4q-76 15 -119 61t-43 111q-1 111 97 177t262 67q164 0 261 -67t97 -177z" />
    <glyph glyph-name="nine.numerator" horiz-adv-x="845" 
d="M402 1024q34 0 58 24t24 62t-23 64q-23 24 -58 24t-57 -24t-20 -63q0 -39 22 -63q20 -24 54 -24zM37 1089q0 99 47 167t131 108q84 39 188 39q189 0 295 -110q106 -111 106 -315t-108 -324q-109 -120 -293 -119q-155 -1 -250 70t-106 198h297q8 -72 74 -74q100 0 106 182
h-4q-76 -65 -198 -65t-204 72q-81 72 -81 171z" />
    <glyph glyph-name="zero.smcp" horiz-adv-x="1163" 
d="M581.5 872q-141.5 0 -141.5 -230t36 -311t105.5 -81t105.5 81t36 311t-141.5 230zM1118 561.5q0 -280.5 -140 -434.5t-396 -154t-396.5 154t-140.5 434.5t140.5 434t396.5 153.5t396 -153.5t140 -434z" />
    <glyph glyph-name="one.smcp" horiz-adv-x="1163" 
d="M463 0v631h-283v289q156 0 232.5 47t93.5 155h356v-1122h-399z" />
    <glyph glyph-name="two.smcp" horiz-adv-x="1163" 
d="M1102 309v-309h-1043q-4 41 -4 88q0 193 77 312.5t259 201.5q18 8 147.5 66t129.5 131q0 33 -25 52t-69 19t-75.5 -34.5t-31.5 -102.5h-395q-2 199 130 307.5t373 108.5q152 0 323 -73.5t171 -303.5t-321 -332q-137 -45 -181.5 -71.5t-50.5 -59.5h586z" />
    <glyph glyph-name="three.smcp" horiz-adv-x="1163" 
d="M676 788q0 82 -107 82q-63 0 -97 -35.5t-34 -93.5h-387q0 190 137.5 299t373.5 109t370.5 -86t134.5 -234q0 -90 -47 -147t-152 -94v-4q113 -35 163 -95.5t50 -156.5q0 -164 -138 -261.5t-385 -97.5t-386 106.5t-139 309.5h405q0 -137 133 -137q53 0 83 22.5t30 61.5
q0 96 -156 96h-26v268h43q61 0 96 24t35 64z" />
    <glyph glyph-name="four.smcp" horiz-adv-x="1163" 
d="M565 471v94q0 147 13 289h-5q-63 -123 -135 -229l-102 -154h229zM930 188v-188h-383v188h-531v295l418 639h496v-651h215v-283h-215z" />
    <glyph glyph-name="five.smcp" horiz-adv-x="1163" 
d="M696 760q124 0 212.5 -47t138 -130t49.5 -199t-64.5 -212t-182.5 -147.5t-274 -51.5q-233 0 -370 97.5t-137 275.5h401q0 -47 30.5 -75.5t86.5 -28.5t88.5 34t32.5 96t-33 95t-86 33q-90 0 -117 -90l-381 24l64 688h860v-311h-539l-12 -129h4q105 78 229 78z" />
    <glyph glyph-name="six.smcp" horiz-adv-x="1163" 
d="M494 366.5q0 -51.5 31.5 -85t79.5 -33.5t79 33.5t31 82.5t-32 83t-80 34t-78.5 -31.5t-30.5 -83zM717 735q109 0 196.5 -45t137 -126.5t49.5 -191.5t-63.5 -202t-176 -144.5t-258.5 -52.5q-254 0 -394 147.5t-140 426.5q0 182 65.5 318t187 210t307.5 74t314.5 -95.5
t142.5 -269.5h-395q-8 100 -100 101q-59 0 -95 -57.5t-40 -178.5h4q94 86 258 86z" />
    <glyph glyph-name="seven.smcp" horiz-adv-x="1163" 
d="M84 784v338h973v-307q-232 -316 -332 -815h-444q47 213 144 424t220 360h-561z" />
    <glyph glyph-name="eight.smcp" horiz-adv-x="1163" 
d="M463 340q0 -45 32.5 -72.5t86 -27.5t86 27.5t32.5 72.5t-31.5 71.5t-87 26.5t-87 -26.5t-31.5 -71.5zM465 789q0 -42 31.5 -67.5t85 -25.5t85 26t31.5 68t-31.5 68.5t-85 26.5t-85 -27t-31.5 -69zM1063 830q0 -94 -57.5 -160t-157.5 -86v-2q109 -18 177.5 -93t68.5 -178
q0 -162 -134.5 -250t-378 -88t-377.5 88.5t-134 249.5q0 102 68.5 177t176.5 94v2q-100 20 -157.5 86.5t-57.5 159.5t59.5 166t168 113t254 40t254 -40t168 -112.5t59.5 -166.5z" />
    <glyph glyph-name="nine.smcp" horiz-adv-x="1163" 
d="M670 756q0 51 -32 84.5t-80 33.5t-78.5 -33.5t-30.5 -82.5t31.5 -83t79.5 -34t79 32t31 83zM573 238q59 0 95.5 57t40.5 178h-4q-94 -86 -259 -86q-109 0 -196.5 45t-137 126.5t-49.5 191.5t63.5 202t176.5 144.5t258 52.5q254 0 394.5 -147.5t140.5 -426.5
q0 -182 -65.5 -318t-188 -210t-308.5 -74t-314 95.5t-142 269.5h395q8 -100 100 -100z" />
    <glyph glyph-name="zero.lf.smcp" horiz-adv-x="1200" 
d="M459 561q-1 -311 141 -311q70 0 106 81t35 230q0 313 -141 311q-69 1 -105 -80t-36 -231zM600 -27q-256 0 -396 154q-140 155 -140 435t140 434t396 153q256 0 396 -154q140 -155 140 -435t-140 -434t-396 -153z" />
    <glyph glyph-name="one.lf.smcp" horiz-adv-x="839" 
d="M309 0v631h-282v289q157 0 233 47t92 155h357v-1122h-400z" />
    <glyph glyph-name="two.lf.smcp" horiz-adv-x="1183" 
d="M1118 309v-309h-1042q-4 41 -4 88q0 192 76 312t260 202q18 8 107 48q169 76 169 149q0 33 -25 52t-69 19t-76 -34q-31 -34 -31 -103h-395q-2 199 130 307t374 109q151 0 263 -48q230 -99 230 -329t-321 -332q-137 -46 -181 -72t-51 -59h586z" />
    <glyph glyph-name="three.lf.smcp" horiz-adv-x="1159" 
d="M690 336q0 98 -155 96h-27v268h43q61 0 96 24t35 64q0 85 -107 82q-63 0 -97 -36t-34 -93h-387q-1 190 137 299t374 109t371 -86q134 -86 134 -234q0 -90 -47 -147t-152 -94v-4q113 -36 163 -96t50 -156q0 -164 -138 -261q-139 -97 -385 -97t-386 106t-139 309h405
q0 -137 134 -137q52 0 82 22t30 62z" />
    <glyph glyph-name="four.lf.smcp" horiz-adv-x="1185" 
d="M578 471v94q0 147 12 289h-4q-63 -123 -135 -229l-103 -154h230zM942 188v-188h-383v188h-530v295l417 639h496v-651h215v-283h-215z" />
    <glyph glyph-name="five.lf.smcp" horiz-adv-x="1173" 
d="M713 373q0 61 -33 94t-86 33q-90 0 -117 -90l-381 24l64 688h860v-311h-539l-12 -129h4q105 78 229 78q244 0 351 -177q49 -83 49 -199t-65 -212t-183 -147t-272 -52q-232 -1 -370 97t-138 276h401q0 -47 31 -76t84 -28q123 0 123 131z" />
    <glyph glyph-name="six.lf.smcp" horiz-adv-x="1150" 
d="M489 367q0 -51 32 -85t80 -34t79 34t31 82t-32 83t-80 35t-79 -32t-31 -83zM713 735q109 0 197 -45t136 -127q50 -81 50 -191t-64 -202t-176 -144q-113 -52 -258 -53q-254 -1 -394 147t-141 427q0 182 66 318q137 284 495 284q186 0 315 -95q128 -95 142 -270h-395
q-8 100 -100 101q-60 1 -96 -57t-39 -179h4q94 86 258 86z" />
    <glyph glyph-name="seven.lf.smcp" horiz-adv-x="1028" 
d="M27 784v338h972v-307q-232 -318 -331 -815h-445q47 213 145 424q97 211 220 360h-561z" />
    <glyph glyph-name="eight.lf.smcp" horiz-adv-x="1144" 
d="M692 340q0 45 -32 72t-87 27t-87 -27t-32 -72t34 -73q32 -27 85 -27t86 28t33 72zM573 696q53 0 85 26t32 68t-32 68q-32 27 -85 27t-85 -27t-32 -69q0 -41 32 -67t85 -26zM573 -27q-243 0 -377 88t-135 250q0 102 69 177t177 94v2q-100 20 -157 87q-58 67 -58 159
t60 166q60 73 168 113t253 40t254 -40t168 -113t59 -166q0 -94 -56 -160q-58 -66 -158 -86v-2q110 -18 178 -94t67 -177q0 -162 -134 -250t-378 -88z" />
    <glyph glyph-name="nine.lf.smcp" horiz-adv-x="1150" 
d="M662 756q0 51 -32 85q-32 33 -80 33t-79 -34t-31 -82q0 -49 32 -83t80 -34t79 32t31 83zM565 238q59 0 95 57t40 178h-4q-94 -86 -258 -86q-108 0 -196 45t-138 127q-49 81 -49 191q-1 110 63 202t177 144t258 53q254 1 394 -147t140 -427q1 -182 -65 -318t-188 -210
q-122 -73 -308 -73t-314 95t-142 269h395q8 -100 100 -100z" />
    <glyph glyph-name="periodcentered.case" horiz-adv-x="626" 
d="M86 506v444h455v-444h-455z" />
    <glyph glyph-name="exclamdown.case" horiz-adv-x="796" 
d="M588 977l61 -977h-502l60 977h381zM625 1458v-360h-455v360h455z" />
    <glyph glyph-name="periodcentered.loclCAT.case" horiz-adv-x="180" 
d="M-371 692v445h455v-445h-455z" />
    <glyph glyph-name="questiondown.case" horiz-adv-x="1259" 
d="M63 369q0 102 42 175.5t155 163.5t152 151t39 142h374q22 -156 2 -221t-55.5 -109t-111.5 -113t-100.5 -104.5t-24.5 -81.5t26.5 -73t69.5 -27q129 0 123 191h458q0 -242 -152.5 -369t-423.5 -127t-422 106.5t-151 295.5zM864 1458v-360h-454v360h454z" />
    <glyph glyph-name="slash.case" horiz-adv-x="1093" 
d="M127 0l518 1458h320l-519 -1458h-319z" />
    <glyph glyph-name="periodcentered.loclCAT" horiz-adv-x="532" 
d="M39 506v444h455v-444h-455z" />
    <glyph glyph-name="braceleft.case" horiz-adv-x="831" 
d="M623 1180v-156q0 -127 -58.5 -196.5t-177.5 -96.5v-6q119 -25 177.5 -94.5t58.5 -196.5v-155q0 -82 32.5 -113t108.5 -35v-254h-55q-190 0 -295 42t-147 129t-42 239v141q0 80 -29.5 116t-113.5 56v258q84 18 113.5 54t29.5 118v141q0 152 42 239t146.5 129t295.5 42h55
v-254q-78 -4 -109.5 -34.5t-31.5 -112.5z" />
    <glyph glyph-name="braceright.case" horiz-adv-x="831" 
d="M606 1171v-141q0 -82 30 -117.5t114 -54.5v-258q-84 -20 -114 -56t-30 -116v-141q0 -152 -42 -239t-146.5 -129t-294.5 -42h-55v254q76 4 108.5 35t32.5 113v155q0 127 58.5 196.5t176.5 94.5v6q-119 27 -177 96.5t-58 196.5v156q0 82 -32 112.5t-109 34.5v254h55
q190 0 294.5 -42t146.5 -129t42 -239z" />
    <glyph glyph-name="bracketleft.case" horiz-adv-x="854" 
d="M530 1268v-1084h261v-307h-678v1704h680v-313h-263z" />
    <glyph glyph-name="bracketright.case" horiz-adv-x="854" 
d="M741 -123h-678v307h261v1084h-263v313h680v-1704z" />
    <glyph glyph-name="parenleft.case" horiz-adv-x="800" 
d="M537 729q0 -213 47 -415.5t155 -436.5h-352q-164 209 -235.5 415t-71.5 436t71.5 435t235.5 418h352q-108 -233 -155 -436t-47 -416z" />
    <glyph glyph-name="parenright.case" horiz-adv-x="800" 
d="M721 728q0 -230 -71.5 -436t-235.5 -415h-353q109 233 156 436t47 416t-47 416t-156 436h353q164 -213 235.5 -418t71.5 -435z" />
    <glyph glyph-name="bracketleft.sups" horiz-adv-x="628" 
d="M397 1507v-805h189v-237h-506v1288h506v-246h-189z" />
    <glyph glyph-name="bracketright.sups" horiz-adv-x="628" 
d="M549 465h-506v237h188v805h-188v246h506v-1288z" />
    <glyph glyph-name="emdash.case" horiz-adv-x="2048" 
d="M41 580v299h1966v-299h-1966z" />
    <glyph glyph-name="endash.case" horiz-adv-x="1024" 
d="M41 580v299h942v-299h-942z" />
    <glyph glyph-name="hyphen.case" horiz-adv-x="757" 
d="M61 580v299h635v-299h-635z" />
    <glyph glyph-name="guillemotleft.case" horiz-adv-x="1325" 
d="M1243 319h-375l-233 410l233 410h375l-209 -410zM690 319h-375l-233 410l233 410h375l-209 -410z" />
    <glyph glyph-name="guillemotright.case" horiz-adv-x="1325" 
d="M1243 729l-233 -410h-375l209 410l-209 410h375zM690 729l-233 -410h-375l209 410l-209 410h375z" />
    <glyph glyph-name="guilsinglleft.case" horiz-adv-x="772" 
d="M690 319h-375l-233 410l233 410h375l-209 -410z" />
    <glyph glyph-name="guilsinglright.case" horiz-adv-x="772" 
d="M690 729l-233 -410h-375l209 410l-209 410h375z" />
    <glyph glyph-name="quoteright.loclFRA" horiz-adv-x="632" 
d="M119 1079v379h387v-379l-215 -331h-221l172 331h-123z" />
    <glyph glyph-name="periodcentered.loclCAT.smcp" horiz-adv-x="143" 
d="M-307 590v358h368v-358h-368z" />
    <glyph glyph-name="ampersand.smcp" horiz-adv-x="1347" 
d="M428 330q0 -57 36 -87t102 -30t106 39l-195 178q-49 -43 -49 -100zM545 932q-61 0 -66 -70q0 -56 56 -114q76 55 75 118q2 29 -15 47.5t-50 18.5zM162 865q0 77 49 145.5t136 106.5t202 38t205 -36t139 -99.5t49 -148.5t-55.5 -158.5t-153.5 -118.5l119 -109q14 33 14 88
h348q0 -178 -112 -315l282 -258h-436l-74 68q-143 -92 -356 -92t-334 90t-123 247q4 191 215 305q-63 63 -88.5 116.5t-25.5 130.5z" />
    <glyph glyph-name="acute.cap" horiz-adv-x="833" 
d="M102 1556l166 330h463l-293 -330h-336z" />
    <glyph glyph-name="breve.cap" horiz-adv-x="958" 
d="M479 1559q-178 0 -275.5 85t-101.5 242h263q2 -49 29.5 -70.5t85 -21.5t85 21.5t29.5 70.5h262q-4 -157 -101.5 -242t-275.5 -85z" />
    <glyph glyph-name="caron.alt" horiz-adv-x="591" 
d="M102 1092l39 366h348l-135 -366h-252z" />
    <glyph glyph-name="caron.cap" horiz-adv-x="1071" 
d="M362 1556l-274 330h326l121 -172l120 172h326l-272 -330h-347z" />
    <glyph glyph-name="caron.alt.case" horiz-adv-x="591" 
d="M102 969l39 489h348l-135 -489h-252z" />
    <glyph glyph-name="circumflex.cap" horiz-adv-x="1071" 
d="M707 1886l274 -330h-326l-120 173l-121 -173h-326l272 330h347z" />
    <glyph glyph-name="dieresis.cap" horiz-adv-x="1081" 
d="M606 1575v311h373v-311h-373zM102 1575v311h373v-311h-373z" />
    <glyph glyph-name="dotaccent.cap" horiz-adv-x="651" 
d="M102 1575v311h447v-311h-447z" />
    <glyph glyph-name="grave.cap" horiz-adv-x="833" 
d="M731 1556h-336l-293 330h463z" />
    <glyph glyph-name="hungarumlaut.cap" horiz-adv-x="1247" 
d="M586 1556l207 330h393l-293 -330h-307zM102 1556l207 330h393l-292 -330h-308z" />
    <glyph glyph-name="macron.cap" horiz-adv-x="1077" 
d="M102 1583v260h873v-260h-873z" />
    <glyph glyph-name="breve.narrow" horiz-adv-x="892" 
d="M446.5 1130q-165.5 0 -253 85t-91.5 243h256q2 -51 21.5 -71.5t65.5 -20.5t65.5 20.5t24.5 71.5h256q-5 -158 -92 -243t-252.5 -85z" />
    <glyph glyph-name="circumflex.narrow" horiz-adv-x="1009" 
d="M598 1155l-94 119l-90 -119h-312l242 303h322l241 -303h-309z" />
    <glyph glyph-name="dieresis.narrow" horiz-adv-x="917" 
d="M504 1147v311h311v-311h-311zM102 1147v311h312v-311h-312z" />
    <glyph glyph-name="macron.narrow" horiz-adv-x="874" 
d="M102 1165v262h670v-262h-670z" />
    <glyph glyph-name="tilde.narrow" horiz-adv-x="966" 
d="M604 1124q-59 0 -137 41t-105 41q-59 0 -63 -82h-197q8 158 73 246t185 88q62 0 150 -47q69 -33 94 -33q55 0 62 80h198q-8 -155 -73.5 -244.5t-186.5 -89.5z" />
    <glyph glyph-name="ring.cap" horiz-adv-x="718" 
d="M238 1802q0 -51 35.5 -87t87 -36t87 36t35.5 87t-35.5 87t-87 36t-87 -36t-35.5 -87zM616 1802q0 -70 -33.5 -128t-93 -93t-129 -35t-129 35t-94.5 95t-35 128t35 127.5t94.5 94t128.5 34.5q107 0 181.5 -75.5t74.5 -182.5z" />
    <glyph glyph-name="cedilla.ss01" horiz-adv-x="825" 
d="M102 -444l293 344h328l-209 -344h-412z" />
    <glyph glyph-name="tilde.cap" horiz-adv-x="1058" 
d="M657 1810q66 0 74 76h225q-8 -153 -78.5 -240t-201.5 -87q-74 1 -158 39t-117 38q-63 0 -73 -77h-226q8 156 79 241.5t202 85.5q78 0 161 -38t113 -38z" />
    <glyph glyph-name="bracketleftinferior" horiz-adv-x="628" 
d="M397 479v-805h189v-237h-506v1288h506v-246h-189z" />
    <glyph glyph-name="bracketrightinferior" horiz-adv-x="628" 
d="M549 -563h-506v237h188v805h-188v246h506v-1288z" />
    </font>
</defs>
</svg>
