<?xml version="1.0" standalone="no"?>
<!DOCTYPE svg PUBLIC "-//W3C//DTD SVG 1.1//EN" "http://www.w3.org/Graphics/SVG/1.1/DTD/svg11.dtd" >
<svg xmlns="http://www.w3.org/2000/svg">
<metadata>
Created by FontPrep 20130207 at Sat Mar 12 16:03:19 2016
 By Matthew Higley
Copyright (c) 2015 Monotype Imaging Inc.  All rights reserved.
</metadata>
<defs>
<font id="e6285624ca1526588487902e57112092" horiz-adv-x='1024' >
  <font-face 
    font-family="NeueHaasUnicaPro-UltLightIt"
    font-weight="250"
    font-style="italic"
    font-variant="small-caps"
    font-stretch="normal"
    units-per-em="2048"
    panose-1="2 11 2 4 3 2 6 9 2 3"
    ascent="1565"
    descent="-483"
    x-height="1040"
    cap-height="1458"
    bbox="-446 -563 2062 1915"
    underline-thickness="102"
    underline-position="-153"
    slope="-14"
    unicode-range="U+0020-FEFF"
  />
<missing-glyph horiz-adv-x="1187" 
d="M528 133v117h37v-117h-37zM907 1034q0 -86 -36.5 -147t-128.5 -139t-124 -122t-44.5 -102.5t-12.5 -163.5h-26v35q0 92 13 149.5t48.5 103.5t121.5 121t121 131t35 134q0 111 -80.5 180.5t-208.5 69.5t-206 -72.5t-86 -205.5h-33q10 150 97 230.5t229 80.5t231.5 -79
t89.5 -204zM94 1346v-1233q0 -98 57.5 -155.5t155.5 -57.5h574q98 0 155.5 57t57.5 156v1233q0 98 -57.5 155.5t-155.5 57.5h-574q-98 0 -155.5 -57.5t-57.5 -155.5zM1126 1346v-1233q0 -115 -65.5 -180.5t-179.5 -65.5h-574q-113 0 -179.5 65.5t-66.5 180.5v1233
q0 115 67 180t179 65h574q114 0 179.5 -65.5t65.5 -179.5z" />
    <glyph glyph-name="f_f" unicode="ff" horiz-adv-x="962" 
d="M659 1464q33 0 58 -8l-8 -31q-20 6 -50 7q-170 0 -227 -224l-41 -168h414l43 177q62 247 258 247q32 0 57 -8l-8 -31q-23 6 -49 7q-170 0 -227 -224l-41 -168h219l-8 -32h-220l-251 -1008h-33l252 1008h-414l-252 -1008h-33l252 1008h-198l8 32h198l43 177
q62 247 258 247z" />
    <glyph glyph-name="f_f_i" unicode="ffi" horiz-adv-x="1368" 
d="M659 1464q33 0 58 -8l-8 -31q-20 6 -50 7q-170 0 -227 -224l-41 -168h414l43 177q62 247 258 247q32 0 57 -8l-8 -31q-23 6 -49 7q-170 0 -227 -224l-41 -168h219l-8 -32h-220l-251 -1008h-33l252 1008h-414l-252 -1008h-33l252 1008h-198l8 32h198l43 177
q62 247 258 247zM1020 0l258 1040h33l-258 -1040h-33zM1343 1300l39 158h33l-39 -158h-33z" />
    <glyph glyph-name="f_f_l" unicode="ffl" horiz-adv-x="1368" 
d="M659 1464q33 0 58 -8l-8 -31q-20 6 -50 7q-170 0 -227 -224l-41 -168h414l43 177q62 247 258 247q32 0 57 -8l-8 -31q-23 6 -49 7q-170 0 -227 -224l-41 -168h219l-8 -32h-220l-251 -1008h-33l252 1008h-414l-252 -1008h-33l252 1008h-198l8 32h198l43 177
q62 247 258 247zM1020 0l362 1458h33l-362 -1458h-33z" />
    <glyph glyph-name="f_i" unicode="fi" horiz-adv-x="921" 
d="M659 1464q33 0 58 -8l-8 -31q-20 6 -50 7q-170 0 -227 -224l-41 -168h219l-8 -32h-219l-252 -1008h-33l252 1008h-198l8 32h198l43 177q62 247 258 247zM573 0l258 1040h33l-258 -1040h-33zM897 1300l39 158h33l-39 -158h-33z" />
    <glyph glyph-name="f_l" unicode="fl" horiz-adv-x="921" 
d="M659 1464q33 0 58 -8l-8 -31q-20 6 -50 7q-170 0 -227 -224l-41 -168h219l-8 -32h-219l-252 -1008h-33l252 1008h-198l8 32h198l43 177q62 247 258 247zM573 0l363 1458h33l-363 -1458h-33z" />
    <glyph glyph-name=".notdef" horiz-adv-x="1187" 
d="M528 133v117h37v-117h-37zM907 1034q0 -86 -36.5 -147t-128.5 -139t-124 -122t-44.5 -102.5t-12.5 -163.5h-26v35q0 92 13 149.5t48.5 103.5t121.5 121t121 131t35 134q0 111 -80.5 180.5t-208.5 69.5t-206 -72.5t-86 -205.5h-33q10 150 97 230.5t229 80.5t231.5 -79
t89.5 -204zM94 1346v-1233q0 -98 57.5 -155.5t155.5 -57.5h574q98 0 155.5 57t57.5 156v1233q0 98 -57.5 155.5t-155.5 57.5h-574q-98 0 -155.5 -57.5t-57.5 -155.5zM1126 1346v-1233q0 -115 -65.5 -180.5t-179.5 -65.5h-574q-113 0 -179.5 65.5t-66.5 180.5v1233
q0 115 67 180t179 65h574q114 0 179.5 -65.5t65.5 -179.5z" />
    <glyph glyph-name=".null" horiz-adv-x="0" 
 />
    <glyph glyph-name="nonmarkingreturn" horiz-adv-x="681" 
 />
    <glyph glyph-name="NULL" horiz-adv-x="0" 
 />
    <glyph glyph-name="NULL" horiz-adv-x="0" 
 />
    <glyph glyph-name="space" unicode=" " horiz-adv-x="471" 
 />
    <glyph glyph-name="exclam" unicode="!" horiz-adv-x="413" 
d="M59 0l35 141h37l-35 -141h-37zM137 279l285 1179h37l-301 -1179h-21z" />
    <glyph glyph-name="quotedbl" unicode="&#x22;" horiz-adv-x="569" 
d="M279 958l118 500h37l-131 -500h-24zM483 958l119 500h37l-131 -500h-25z" />
    <glyph glyph-name="numbersign" unicode="#" horiz-adv-x="1267" 
d="M573 911l-178 -436h389l179 436h-390zM819 475h293l-14 -33h-293l-180 -442h-35l180 442h-389l-180 -442h-35l180 442h-293l15 33h292l179 436h-295l14 33h293l178 436h35l-178 -436h389l178 436h35l-178 -436h293l-15 -33h-291z" />
    <glyph glyph-name="dollar" unicode="$" 
d="M422 12q139 0 235.5 55.5t144.5 143.5t48 176t-33 141.5t-90 86t-160 69.5l-168 -672h23zM680 1368q-125 0 -215 -54t-136 -138t-46 -179t62.5 -157t199.5 -111l160 639h-25zM1030 1085q0 -63 -18 -143h-33q18 80 18 143q0 131 -63.5 200t-196.5 81l-162 -649
q109 -37 208.5 -97t99.5 -229q0 -102 -52.5 -196.5t-157 -154.5t-251.5 -60h-31l-45 -183h-33l47 185q-299 29 -299 329q0 68 21 152h33q-20 -84 -21 -152q0 -274 273 -297l170 682q-150 53 -218.5 121.5t-68.5 176.5t50 198t148.5 149.5t231.5 59.5h33l41 164h32l-41 -166
q285 -27 285 -314z" />
    <glyph glyph-name="percent" unicode="%" horiz-adv-x="1533" 
d="M905 238q0 -226 166 -226q98 0 167 73t103.5 177t34.5 206q0 214 -166 214q-98 0 -166.5 -72.5t-103.5 -176t-35 -195.5zM1409 457q0 -100 -39 -212t-115.5 -188.5t-183.5 -76.5q-199 0 -199 258q0 100 39 211.5t116 188.5t183 77q199 0 199 -258zM242 924
q0 -226 166 -226q98 0 166.5 73t103.5 177t35 206q0 214 -166 214q-98 0 -167 -72.5t-103.5 -176t-34.5 -195.5zM745 1143q0 -100 -38.5 -212t-115.5 -188.5t-183 -76.5q-199 0 -199 258q0 100 39 211.5t115.5 188.5t183.5 77q198 0 198 -258zM217 -61l1143 1503h41
l-1143 -1503h-41z" />
    <glyph glyph-name="ampersand" unicode="&#x26;" horiz-adv-x="1439" 
d="M133 270q0 -114 85 -186t245 -72q299 1 559 267l-404 514q-358 -159 -421.5 -284t-63.5 -239zM504 1134q0 -72 28.5 -141t96.5 -159q209 90 290.5 188t81.5 202t-55 163t-146 59t-158 -47t-102.5 -120t-35.5 -145zM463 -20q-174 0 -268.5 81t-94.5 207t71.5 259
t426.5 292q-70 96 -98.5 166t-28.5 151t40 159.5t113.5 131t177.5 52.5t168 -69.5t64 -183.5t-86 -220.5t-299 -200.5l395 -502q176 193 256 506h35q-82 -326 -270 -533l217 -276h-41l-199 254q-270 -274 -579 -274z" />
    <glyph glyph-name="quotesingle" unicode="'" horiz-adv-x="364" 
d="M279 958l118 500h37l-131 -500h-24z" />
    <glyph glyph-name="parenleft" unicode="(" horiz-adv-x="471" 
d="M131 274q0 -292 74 -575h-33q-74 279 -74 575t131 629.5t387 614.5h41q-260 -283 -393 -617.5t-133 -626.5z" />
    <glyph glyph-name="parenright" unicode=")" horiz-adv-x="471" 
d="M383 943q0 292 -74 575h33q74 -280 74 -576t-131 -629t-387 -614h-41q260 283 393 617.5t133 626.5z" />
    <glyph glyph-name="asterisk" unicode="*" horiz-adv-x="757" 
d="M844 1212l4 -38l-289 -13l113 -266l-33 -14l-102 272l-220 -190l-22 26l225 182l-250 146l23 33l239 -158l66 281l35 -9l-76 -278z" />
    <glyph glyph-name="plus" unicode="+" horiz-adv-x="1159" 
d="M1006 666v-33h-410v-410h-33v410h-409v33h409v409h33v-409h410z" />
    <glyph glyph-name="comma" unicode="," horiz-adv-x="278" 
d="M-90 -260h-29l133 260l37 147h33l-37 -147z" />
    <glyph glyph-name="hyphen" unicode="-" horiz-adv-x="561" 
d="M76 582l8 32h438l-8 -32h-438z" />
    <glyph glyph-name="period" unicode="." horiz-adv-x="278" 
d="M-8 0l37 147h37l-37 -147h-37z" />
    <glyph glyph-name="slash" unicode="/" horiz-adv-x="808" 
d="M-115 -182l1030 1708h39l-1030 -1708h-39z" />
    <glyph glyph-name="zero" unicode="0" horiz-adv-x="1064" 
d="M139 432q0 -420 295 -420q184 0 315.5 157t197 377t65.5 418q0 404 -297 404q-185 0 -315 -156.5t-195.5 -377t-65.5 -402.5zM1044 948q0 -195 -69.5 -422t-207.5 -386.5t-333 -159.5q-328 0 -328 452q0 195 70 422t207 387t332 160q329 0 329 -453z" />
    <glyph glyph-name="one" unicode="1" horiz-adv-x="1064" 
d="M412 0l315 1266h-2q-84 -148 -334 -148l8 33q145 0 226.5 52t130.5 177h32l-344 -1380h-32z" />
    <glyph glyph-name="two" unicode="2" horiz-adv-x="1064" 
d="M1049 1100q0 -128 -45.5 -209.5t-154 -158.5t-298.5 -161t-297 -165.5t-159 -168.5t-81 -204h817l-8 -33h-848q27 143 89.5 246.5t174 187.5t296.5 166t290 153.5t148 148t43 194.5t-79 195t-229 77t-263 -94t-164 -262h-35q53 180 176.5 284.5t285.5 104.5t251.5 -86.5
t89.5 -214.5z" />
    <glyph glyph-name="three" unicode="3" horiz-adv-x="1064" 
d="M1051 1083q0 -84 -42 -162.5t-125 -136t-200 -79.5v-3q227 -68 227 -301q0 -98 -59 -196.5t-171.5 -161.5t-276.5 -63t-257.5 79.5t-93.5 221.5q0 49 10 88h33q-10 -39 -10 -88q0 -125 84 -197t236 -72t257 59.5t160.5 149.5t55.5 180q0 137 -86 212t-242 75h-94l8 33h86
q156 0 261.5 56.5t155.5 139t50 166.5q0 131 -90 208t-246 77t-267.5 -92t-152.5 -260h-33q45 180 166 282.5t288 102.5t267.5 -87t100.5 -231z" />
    <glyph glyph-name="four" unicode="4" horiz-adv-x="1064" 
d="M676 457l221 882h-2l-829 -882h610zM702 424l-106 -424h-33l107 424h-652l11 41l860 915h51l-229 -923h284l-8 -33h-285z" />
    <glyph glyph-name="five" unicode="5" horiz-adv-x="1064" 
d="M582 883q164 0 252 -97.5t88 -271.5q0 -121 -61.5 -246t-180.5 -206.5t-277 -81.5t-242.5 73.5t-84.5 208.5q0 49 10 90h33q-10 -41 -10 -90q0 -121 75.5 -185.5t221.5 -64.5t257 78t168.5 194.5t57.5 229.5q0 160 -79 248t-228 88q-264 0 -408 -270l-31 2l279 798h672
l-9 -32h-643l-227 -652h2q134 187 365 187z" />
    <glyph glyph-name="six" unicode="6" horiz-adv-x="1064" 
d="M137 367q0 -354 316 -355q139 0 243.5 77t159.5 189.5t55 215.5q0 170 -80.5 267t-224.5 97t-250 -73.5t-162.5 -188.5t-56.5 -229zM453 -20q-349 0 -349 387q0 203 80 447.5t228.5 415.5t345.5 171q157 0 237 -79t80 -222q0 -18 -2 -35h-33q2 16 2 35q0 129 -70.5 198.5
t-203.5 69.5t-250 -86t-211 -260t-151 -430h4q53 127 175.5 213t274.5 86t243 -106.5t91 -290.5q0 -111 -59.5 -232t-172 -201.5t-259.5 -80.5z" />
    <glyph glyph-name="seven" unicode="7" horiz-adv-x="1064" 
d="M673 739.5q-222 -315.5 -421 -739.5h-37q205 432 424 746.5t483 601.5h-831l8 32h875l-9 -32q-270 -293 -492 -608.5z" />
    <glyph glyph-name="eight" unicode="8" horiz-adv-x="1064" 
d="M96 319q0 -141 92.5 -224t240.5 -83t251.5 59.5t157 148.5t53.5 177q0 133 -92.5 217t-238.5 84t-249.5 -57t-159 -144t-55.5 -178zM297 1004q0 -125 82 -200t223 -75t236.5 54.5t142.5 135t47 164.5q0 131 -83 208t-219 77t-231.5 -56.5t-146.5 -141.5t-51 -166z
M1061 1083q0 -86 -43 -165.5t-126 -136t-194 -74.5v-2q100 -33 163 -113t63 -186t-57.5 -203t-168 -160t-271.5 -63t-262.5 92t-101.5 247q0 88 48.5 175.5t140.5 149t213 77.5v2q-90 27 -145.5 101t-55.5 172t55.5 191t159 153.5t249.5 60.5t239.5 -86t93.5 -232z" />
    <glyph glyph-name="nine" unicode="9" horiz-adv-x="1064" 
d="M1014 1014q0 354 -316 354q-139 0 -243.5 -77t-159.5 -189.5t-55 -214.5q0 -170 81 -267.5t225 -97.5t249.5 74t162 188.5t56.5 229.5zM76 281q0 18 2 34h33q-2 -16 -2 -34q0 -129 70.5 -199t203.5 -70t250 86t211 260t151 430h-4q-53 -127 -175 -213t-274 -86
t-243.5 106.5t-91.5 291.5q0 111 59.5 231.5t171.5 201.5t272 81t248.5 -97.5t88.5 -295.5t-80 -442t-228.5 -415t-345.5 -171q-157 0 -237 78.5t-80 222.5z" />
    <glyph glyph-name="colon" unicode=":" horiz-adv-x="280" 
d="M-6 0l37 147h37l-37 -147h-37zM215 893l37 147h37l-37 -147h-37z" />
    <glyph glyph-name="semicolon" unicode=";" horiz-adv-x="280" 
d="M-90 -260h-29l133 260l37 147h33l-37 -147zM236 893l36 147h37l-37 -147h-36z" />
    <glyph glyph-name="less" unicode="&#x3c;" horiz-adv-x="1159" 
d="M186 651v-4l820 -375v-36l-852 391v45l852 391v-37z" />
    <glyph glyph-name="equal" unicode="=" horiz-adv-x="1159" 
d="M154 504v33h852v-33h-852zM154 760v33h852v-33h-852z" />
    <glyph glyph-name="greater" unicode="&#x3e;" horiz-adv-x="1159" 
d="M1006 627l-852 -391v36l819 375v4l-819 375v37l852 -391v-45z" />
    <glyph glyph-name="question" unicode="?" horiz-adv-x="958" 
d="M281 0l34 141h37l-35 -141h-36zM1024 1165q0 -80 -40.5 -176t-287.5 -266q-104 -72 -158.5 -124t-89 -124t-65.5 -194h-27q33 135 65 206.5t88 127t176 138.5t187.5 150.5t93 128t25.5 133.5q0 127 -83.5 204t-231.5 77t-260.5 -92t-163.5 -262h-35q55 186 177 286.5
t283 100.5t254 -86t93 -228z" />
    <glyph glyph-name="at" unicode="@" horiz-adv-x="1714" 
d="M520 443q0 -236 197 -236q123 0 222 106.5t155.5 254t56.5 250.5t-49 156.5t-139 53.5q-127 0 -228.5 -96t-158 -233.5t-56.5 -255.5zM1069 322q0 -115 123 -115t213 88t137 222t47 269q0 260 -150.5 408.5t-415.5 148.5t-457.5 -143t-293 -354t-100.5 -408
q0 -276 147.5 -427.5t413.5 -151.5t481 127l15 -29q-225 -131 -501 -131t-432.5 160.5t-156.5 451.5q0 205 104.5 424t304.5 366.5t478 147.5t437 -157.5t159 -432.5q0 -143 -52 -285.5t-149.5 -234.5t-226.5 -92q-158 0 -158 143q0 43 17 103h-2q-140 -246 -334 -246
q-229 0 -230 272q0 123 61.5 268.5t170.5 246t231 100.5t177 -64.5t55 -169.5q0 -18 -4 -51h2q47 119 112 264h33q-256 -569 -256 -718z" />
    <glyph glyph-name="A" unicode="A" horiz-adv-x="1298" 
d="M987 778q-74 438 -110 647h-3l-567 -847h715zM287 545l-365 -545h-39l975 1458h45l252 -1458h-33l-94 545h-741z" />
    <glyph glyph-name="B" unicode="B" horiz-adv-x="1204" 
d="M561 33q150 0 254.5 60.5t156.5 153.5t52 185q0 137 -86 218t-264 81h-373l-174 -698h434zM674 764q170 0 281.5 60.5t162.5 150.5t51 176q0 131 -85 202.5t-261 71.5h-350l-164 -661h365zM1202 1151q0 -86 -45 -173t-135 -149.5t-215 -80.5v-3q115 -23 182.5 -103
t67.5 -196t-56.5 -215.5t-169 -165t-270.5 -65.5h-475l363 1458h374q191 0 285 -81t94 -226z" />
    <glyph glyph-name="C" unicode="C" horiz-adv-x="1353" 
d="M1339 1026q0 -25 -4 -74h-32q4 49 4 74q0 186 -104.5 303t-316.5 117t-379 -139.5t-254 -350.5t-87 -436t117.5 -366.5t325.5 -141.5t366 121t223 311h35q-70 -209 -237 -336.5t-388 -127.5t-348 150.5t-127 388t91 455.5t265.5 361.5t398.5 143.5t337.5 -127t113.5 -326
z" />
    <glyph glyph-name="D" unicode="D" horiz-adv-x="1449" 
d="M537 33q281 0 470 121.5t278 307t89 378.5q0 287 -155.5 436t-458.5 149h-287l-346 -1392h410zM1407 840q0 -203 -94 -395.5t-290 -318.5t-486 -126h-451l363 1458h311q317 0 482 -159.5t165 -458.5z" />
    <glyph glyph-name="E" unicode="E" horiz-adv-x="1200" 
d="M473 1425l-164 -659h766l-8 -33h-766l-174 -700h829l-8 -33h-862l363 1458h833l-8 -33h-801z" />
    <glyph glyph-name="F" unicode="F" horiz-adv-x="1101" 
d="M473 1425l-162 -649h744l-8 -33h-744l-184 -743h-33l363 1458h815l-9 -33h-782z" />
    <glyph glyph-name="G" unicode="G" horiz-adv-x="1429" 
d="M1372 1069q0 -23 -4 -63h-33q4 37 4 63q0 174 -106.5 275.5t-326.5 101.5t-392 -136t-260 -346t-88 -437.5t116.5 -371t325.5 -143.5t386 151.5t261 495.5h-485l8 33h518l-172 -692h-32l49 197q33 135 59 215h-2q-80 -203 -234.5 -317.5t-366.5 -114.5t-338 152.5
t-126 392t92 456.5t272.5 357.5t412 140.5t347 -111t115.5 -299z" />
    <glyph glyph-name="H" unicode="H" horiz-adv-x="1443" 
d="M1067 0l184 741h-948l-184 -741h-33l363 1458h32l-170 -684h949l170 684h32l-362 -1458h-33z" />
    <glyph glyph-name="I" unicode="I" horiz-adv-x="462" 
d="M86 0l363 1458h32l-362 -1458h-33z" />
    <glyph glyph-name="J" unicode="J" horiz-adv-x="620" 
d="M-12 -8q-45 0 -86 12l8 31q37 -10 78 -10q131 0 222 82.5t130 242.5l276 1108h33l-278 -1116q-43 -172 -142.5 -261t-240.5 -89z" />
    <glyph glyph-name="K" unicode="K" horiz-adv-x="1089" 
d="M952 0h-41l-604 754h-2l-186 -754h-33l363 1458h32l-170 -680h2l883 680h53l-905 -696z" />
    <glyph glyph-name="L" unicode="L" horiz-adv-x="1075" 
d="M944 33l-8 -33h-850l363 1458h32l-354 -1425h817z" />
    <glyph glyph-name="M" unicode="M" horiz-adv-x="1738" 
d="M1362 0l223 901q53 209 131 524h-2l-950 -1425h-45l-244 1425h-2q-78 -315 -131 -524l-223 -901h-33l363 1458h53l243 -1425h3l950 1425h59l-362 -1458h-33z" />
    <glyph glyph-name="N" unicode="N" horiz-adv-x="1470" 
d="M1077 0l-602 1427h-2l-354 -1427h-33l363 1458h49l286 -682q150 -349 314 -745h2l356 1427h33l-363 -1458h-49z" />
    <glyph glyph-name="O" unicode="O" horiz-adv-x="1437" 
d="M170 559q0 -248 128 -397.5t353 -149.5t388 135.5t248 342t85 409.5q0 248 -128 397.5t-353 149.5t-388 -135t-248 -342t-85 -410zM1405 878.5q0 -192.5 -89 -405.5t-260 -353t-401 -140q-162 0 -279.5 72.5t-178 203.5t-60.5 323.5t89 405.5t260 353.5t401 140.5
q162 0 279.5 -73t178 -204t60.5 -323.5z" />
    <glyph glyph-name="P" unicode="P" horiz-adv-x="1177" 
d="M770 721q147 0 248.5 60.5t151 150.5t49.5 180q0 147 -87.5 230t-267.5 83h-391l-176 -704h473zM1251 1112q0 -100 -53 -197.5t-161.5 -162t-266.5 -64.5h-481l-170 -688h-33l363 1458h415q195 0 291 -92t96 -254z" />
    <glyph glyph-name="Q" unicode="Q" horiz-adv-x="1437" 
d="M1372 920q0 228 -128 377t-353 149t-388 -135t-248 -342t-85 -410q0 -248 128 -397.5t342 -149.5t372 115l-152 233l27 19l151 -234q158 127 246 337t88 438zM137 580q0 192 89 405t260 353.5t401 140.5q162 0 279.5 -73t178 -204.5t60.5 -325.5t-92 -411t-258 -346
l129 -199l-27 -18l-127 196q-168 -119 -375 -118q-162 0 -279.5 72.5t-178 204t-60.5 323.5z" />
    <glyph glyph-name="R" unicode="R" horiz-adv-x="1210" 
d="M672 733q170 0 283.5 63.5t167 157t53.5 185.5q0 137 -88.5 211.5t-268.5 74.5h-346l-172 -692h371zM1208 1139q0 -94 -48 -185.5t-140 -156t-221 -82.5v-2q74 -25 110.5 -82.5t53.5 -190.5l53 -440h-33l-51 430q-12 104 -37 160.5t-77 83t-146 26.5h-379l-174 -700h-33
l363 1458h370q195 0 292 -85t97 -234z" />
    <glyph glyph-name="S" unicode="S" horiz-adv-x="1179" 
d="M1126 1137q0 309 -348 309q-166 0 -266 -57.5t-150.5 -145.5t-50.5 -174q0 -121 77 -186.5t229.5 -115.5t229.5 -91t118 -104.5t41 -167.5t-57.5 -203t-173.5 -160t-281 -61q-416 0 -416 356q0 70 20 151h33q-20 -82 -20 -151q0 -324 383 -324q160 0 268 59.5
t159.5 149.5t51.5 185.5t-40 153.5t-111.5 94t-226 86t-235.5 124t-81 188.5t56 209t164.5 156t258.5 61.5q401 0 401 -342q0 -63 -18 -144h-33q18 80 18 144z" />
    <glyph glyph-name="T" unicode="T" horiz-adv-x="1163" 
d="M823 1425l-354 -1425h-33l355 1425h-555l8 33h1142l-8 -33h-555z" />
    <glyph glyph-name="U" unicode="U" horiz-adv-x="1372" 
d="M219 371q0 -359 361 -359q209 0 349 120t199 360l242 966h33l-244 -975q-63 -250 -210.5 -376.5t-368.5 -126.5q-393 0 -394 391q0 92 31 211l219 876h33l-221 -885q-29 -119 -29 -202z" />
    <glyph glyph-name="V" unicode="V" horiz-adv-x="1239" 
d="M467 0l-217 1458h33l213 -1423h2l919 1423h39l-942 -1458h-47z" />
    <glyph glyph-name="W" unicode="W" horiz-adv-x="1763" 
d="M1149 0l-21 694q-8 244 -20 731h-2l-746 -1425h-51l-51 1458h33l49 -1423h2l743 1423h56l18 -704l21 -719h2l753 1423h37l-772 -1458h-51z" />
    <glyph glyph-name="X" unicode="X" horiz-adv-x="1214" 
d="M1061 0h-37l-360 723h-2l-719 -723h-47l747 750l-354 708h37l340 -682h2l680 682h45l-707 -708z" />
    <glyph glyph-name="Y" unicode="Y" horiz-adv-x="1167" 
d="M471 0h-33l162 651l-352 807h35l338 -772h2l720 772h43l-753 -807z" />
    <glyph glyph-name="Z" unicode="Z" horiz-adv-x="1120" 
d="M-49 33h1014l-9 -33h-1050l12 49l1311 1374v2h-959l9 33h995l-12 -49l-1311 -1374v-2z" />
    <glyph glyph-name="bracketleft" unicode="[" horiz-adv-x="487" 
d="M436 1485l-436 -1755h250l-8 -33h-283l453 1821h282l-8 -33h-250z" />
    <glyph glyph-name="backslash" unicode="\" horiz-adv-x="808" 
d="M528 -182h-32l-185 1708h33z" />
    <glyph glyph-name="bracketright" unicode="]" horiz-adv-x="487" 
d="M94 -270l436 1755h-249l8 33h282l-452 -1821h-283l8 33h250z" />
    <glyph glyph-name="asciicircum" unicode="^" horiz-adv-x="786" 
d="M719 760l-324 665h-4l-323 -665h-37l340 698h45l340 -698h-37z" />
    <glyph glyph-name="underscore" unicode="_" 
d="M-164 -135l8 33h1024l-8 -33h-1024z" />
    <glyph glyph-name="grave" unicode="`" horiz-adv-x="442" 
d="M504 1176h-31l-135 282h39z" />
    <glyph glyph-name="a" unicode="a" horiz-adv-x="1011" 
d="M55 238q0 -106 70 -166t192 -60q176 0 298 108.5t171 305.5l39 156q-227 -18 -401 -47q-369 -55 -369 -297zM858 766q0 262 -282 262q-137 0 -233.5 -83t-127.5 -218h-35q35 152 142.5 243t256 91t230.5 -75t82 -220q0 -53 -21 -135l-102 -408q-32 -126 -37 -223h-33
q4 68 47 242h-2q-138 -262 -426 -262q-137 0 -215.5 69.5t-78.5 189.5t92 209t307 119q156 23 412 47l6 25q18 74 18 127z" />
    <glyph glyph-name="b" unicode="b" horiz-adv-x="1116" 
d="M205 354q0 -156 77.5 -249t227.5 -93t262.5 102.5t169.5 255t57 311.5t-77.5 253t-227.5 94t-261 -105.5t-169.5 -259t-58.5 -309.5zM712 1061q146 0 233 -103.5t87 -273.5t-62.5 -330.5t-181 -267t-283.5 -106.5t-250 109.5t-75 285.5h-2q-16 -86 -59 -258l-29 -117h-33
l365 1458h33l-111 -442q-49 -192 -72 -264h2q148 309 438 309z" />
    <glyph glyph-name="c" unicode="c" horiz-adv-x="1009" 
d="M956 719q0 -18 -2 -31h-32q2 12 2 31q0 143 -78 226t-226.5 83t-265 -103.5t-177 -257t-60.5 -312t81 -251t228 -92.5t259 84t159 226h35q-51 -156 -172 -249t-282 -93t-251 101t-90 271.5t64.5 332t189.5 269t284.5 107.5t246.5 -92t87 -250z" />
    <glyph glyph-name="d" unicode="d" horiz-adv-x="1112" 
d="M115 360q0 -158 77.5 -253t227.5 -95t261.5 105.5t169.5 259t58 309.5t-77.5 249t-227.5 93t-262.5 -102.5t-169.5 -255t-57 -310.5zM82 356q0 170 62.5 331t181 267.5t283.5 106.5t250 -109.5t75 -285.5h2q16 86 59 258l133 534h33l-364 -1458h-33l6 25q43 172 72 264
h-2q-148 -309 -438 -309q-146 0 -233 103t-87 273z" />
    <glyph glyph-name="e" unicode="e" horiz-adv-x="1054" 
d="M952 694q0 160 -83 247t-243.5 87t-294.5 -128t-190 -337h791q20 61 20 131zM115 365q0 -168 80.5 -260.5t228 -92.5t263.5 80t167 213h35q-55 -150 -181 -237.5t-286 -87.5t-250 101t-90 271.5t66.5 332t193.5 269t293 107.5t258 -96.5t92 -270.5q0 -76 -27 -164h-825
q-18 -87 -18 -165z" />
    <glyph glyph-name="f" unicode="f" horiz-adv-x="516" 
d="M659 1464q33 0 58 -8l-8 -31q-20 6 -50 7q-170 0 -227 -224l-41 -168h219l-8 -32h-219l-252 -1008h-33l252 1008h-198l8 32h198l43 177q62 247 258 247z" />
    <glyph glyph-name="g" unicode="g" horiz-adv-x="1116" 
d="M123 387.5q0 -155.5 75.5 -249t226.5 -93.5t263.5 103.5t169.5 252t57 296t-74.5 239.5t-223 92t-263 -97t-173 -242.5t-58.5 -301zM322 -387q-156 0 -246 68.5t-90 191.5q0 31 6 61h33q-6 -35 -7 -61q0 -109 80 -168t224 -59q356 0 460 417q45 180 72 265h-2
q-68 -150 -180.5 -233t-262 -83t-234.5 102.5t-85 270.5t62.5 320.5t184.5 254t281.5 101.5t242.5 -98.5t79 -282.5h2q23 115 70 303l14 57h33l-246 -985q-111 -442 -491 -442z" />
    <glyph glyph-name="h" unicode="h" horiz-adv-x="1101" 
d="M977 774q0 -70 -25 -166l-151 -608h-33l154 616q23 94 22 158q0 125 -66.5 189.5t-176 64.5t-199.5 -48t-156.5 -134t-93.5 -195l-162 -651h-33l363 1458h33l-103 -418q-39 -156 -67 -243h2q70 127 178 195.5t235 68.5t203 -74t76 -213z" />
    <glyph glyph-name="i" unicode="i" horiz-adv-x="405" 
d="M57 0l258 1040h33l-258 -1040h-33zM381 1300l39 158h33l-39 -158h-33z" />
    <glyph glyph-name="j" unicode="j" horiz-adv-x="428" 
d="M-201 -383q-25 0 -41 6l9 31q12 -4 32 -4q96 0 158.5 57t99.5 203l281 1130h33l-283 -1138q-39 -156 -110.5 -220.5t-178.5 -64.5zM403 1300l39 158h33l-39 -158h-33z" />
    <glyph glyph-name="k" unicode="k" horiz-adv-x="899" 
d="M778 0h-43l-506 555h-2l-137 -555h-33l363 1458h33l-220 -880h3l684 462h57l-709 -479z" />
    <glyph glyph-name="l" unicode="l" horiz-adv-x="405" 
d="M57 0l363 1458h33l-363 -1458h-33z" />
    <glyph glyph-name="m" unicode="m" horiz-adv-x="1658" 
d="M874 801q0 227 -236 227q-122 0 -234.5 -106.5t-157.5 -288.5l-158 -633h-33l260 1040h33q-33 -127 -65 -239h2q59 121 154 190.5t213 69.5t184.5 -68.5t66.5 -191.5l-2 -23q57 133 157.5 208t223.5 75t189.5 -66.5t66.5 -197.5q0 -78 -25 -172l-155 -625h-33l158 633
q23 96 22 164q0 231 -223 231q-133 0 -242.5 -98.5t-148.5 -255.5l-168 -674h-33l168 676q16 70 16 125z" />
    <glyph glyph-name="n" unicode="n" horiz-adv-x="1099" 
d="M975 774q0 -70 -25 -166l-151 -608h-33l154 616q23 94 22 158q0 125 -66.5 189.5t-176 64.5t-199.5 -48t-157 -134t-93 -195l-162 -651h-33l260 1040h33q-39 -156 -67 -243h2q70 127 178 195.5t235 68.5t203 -74t76 -213z" />
    <glyph glyph-name="o" unicode="o" horiz-adv-x="1081" 
d="M119 373q0 -162 87 -261.5t248 -99.5t274.5 98.5t171.5 246t58 309t-87 262t-247.5 100.5t-274 -98.5t-172 -246.5t-58.5 -310zM991 668.5q0 -173.5 -62.5 -329t-184 -257.5t-293.5 -102t-268.5 108.5t-96.5 282.5t62.5 328.5t184.5 258t293 103.5t268 -109.5t97 -283z
" />
    <glyph glyph-name="p" unicode="p" horiz-adv-x="1116" 
d="M999 681q0 159 -77.5 253t-227.5 94t-261 -105.5t-169.5 -259t-58.5 -309.5t77.5 -249t227.5 -93t262.5 102.5t169.5 255t57 311.5zM712 1061q146 0 233 -103.5t87 -273.5t-62.5 -330.5t-181 -267t-283.5 -106.5t-250 109.5t-75 285.5h-2q-16 -86 -59 -258l-123 -496h-33
l354 1419h33l-6 -24q-43 -172 -72 -264h2q149 309 438 309z" />
    <glyph glyph-name="q" unicode="q" horiz-adv-x="1112" 
d="M115 360q0 -158 77.5 -253t227.5 -95t261.5 105.5t169.5 259t58 309.5t-77.5 249t-227.5 93t-262.5 -102.5t-169.5 -255t-57 -310.5zM82 356q0 170 62.5 331t181 267.5t283.5 106.5t250 -109.5t75 -285.5h2q16 86 59 258l29 116h33l-355 -1419h-32l100 404q43 172 72 264
h-2q-148 -309 -438 -309q-146 0 -233 103t-87 273z" />
    <glyph glyph-name="r" unicode="r" horiz-adv-x="653" 
d="M690 1012q-158 0 -278.5 -104.5t-171.5 -307.5l-150 -600h-33l260 1040h33q-43 -172 -76 -270h2q145 274 422 274q27 0 56 -4l-9 -32q-29 4 -55 4z" />
    <glyph glyph-name="s" unicode="s" horiz-adv-x="915" 
d="M68 248q0 -236 303 -236q111 0 190.5 38t120.5 101.5t41 147.5t-63.5 132t-209 91t-207 94.5t-61.5 139.5t42 155.5t122 108.5t210 41t213 -67.5t83 -186.5q0 -51 -14 -102h-33q14 51 14 102q0 106 -72.5 163.5t-192 57.5t-191.5 -37t-110 -96t-38 -137t54.5 -121
t201 -86t216 -99.5t69.5 -151.5t-45 -166t-133.5 -112.5t-229.5 -41.5t-227 69.5t-86 198.5q0 53 14 108h33q-14 -55 -14 -108z" />
    <glyph glyph-name="t" unicode="t" horiz-adv-x="552" 
d="M174 127q0 -98 119 -98q37 0 74 8l-9 -35q-25 -6 -65 -6q-152 0 -152 137q0 45 17 109l192 766h-200l8 32h200l60 240h33l-60 -240h215l-8 -32h-215l-195 -775q-14 -57 -14 -106z" />
    <glyph glyph-name="u" unicode="u" horiz-adv-x="1099" 
d="M125 266q0 72 25 166l151 608h33l-154 -616q-23 -94 -22 -158q0 -125 66.5 -189.5t176 -64.5t199.5 48.5t156.5 134.5t93.5 194l162 651h32l-260 -1040h-32l55 219h-2q-68 -113 -173.5 -176t-230.5 -63t-200.5 73.5t-75.5 212.5z" />
    <glyph glyph-name="v" unicode="v" horiz-adv-x="882" 
d="M287 0l-154 1040h33l72 -489q43 -303 77 -520h2l654 1009h39l-674 -1040h-49z" />
    <glyph glyph-name="w" unicode="w" horiz-adv-x="1527" 
d="M977 0l-47 541l-6 63q-25 281 -35 406h-4q-47 -78 -137 -234l-140 -235l-315 -541h-53l-90 1040h32l88 -1007h4l590 1007h54l45 -497q29 -340 45 -510h4l587 1007h37l-606 -1040h-53z" />
    <glyph glyph-name="x" unicode="x" horiz-adv-x="901" 
d="M764 0h-37l-272 514h-2l-527 -514h-47l555 543l-262 497h37l250 -473h2l479 473h47l-508 -501z" />
    <glyph glyph-name="y" unicode="y" horiz-adv-x="882" 
d="M-116 -387q-66 0 -97 14l8 33q29 -14 87.5 -14t114.5 27.5t123.5 104.5t164.5 222l-152 1040h33l145 -995h2l656 995h39l-693 -1052q-185 -284 -303 -344q-60 -30 -128 -31z" />
    <glyph glyph-name="z" unicode="z" horiz-adv-x="903" 
d="M-43 33h784l-8 -33h-821l12 49l1002 955v4h-742l9 32h780l-12 -49l-1004 -954v-4z" />
    <glyph glyph-name="braceleft" unicode="{" horiz-adv-x="571" 
d="M229 454q0 -54 -14 -110l-82 -326q-16 -66 -16 -110q0 -92 52 -135t165 -43l-8 -33h-4q-119 0 -178.5 51t-59.5 160q0 51 18 119l82 325q28 128 -2 173.5t-82 68.5l11 45q86 27 129 72t67 137l96 389q37 145 127.5 213t239.5 68h8l-8 -33q-143 0 -223 -60.5t-113 -195.5
l-96 -389q-25 -94 -71 -145.5t-134 -78.5l-2 -4q98 -51 98 -158z" />
    <glyph glyph-name="bar" unicode="|" horiz-adv-x="483" 
d="M225 -420v1919h33v-1919h-33z" />
    <glyph glyph-name="braceright" unicode="}" horiz-adv-x="571" 
d="M385 768q0 47 14 102l82 326q16 66 17 111q0 92 -52.5 135t-164.5 43l8 33h4q237 0 237 -211q0 -51 -18 -119l-82 -326q-12 -55 -12 -103q0 -97 96 -138l-10 -46q-86 -27 -129 -71.5t-68 -136.5l-96 -390q-37 -145 -127 -212.5t-240 -67.5h-8l8 33q144 0 223.5 60
t112.5 196l96 389q25 94 71 145t134 78l2 4q-98 52 -98 166z" />
    <glyph glyph-name="asciitilde" unicode="~" horiz-adv-x="1159" 
d="M869 522q89 0 166 71t106 187h33q-33 -135 -119.5 -213t-184.5 -78t-152 37t-114 107t-111 105.5t-139 35.5t-164.5 -70.5t-105.5 -187.5h-33q33 135 117 213t184 78t153.5 -37t117.5 -108q57 -68 107 -104t139 -36z" />
    <glyph glyph-name="uni00A0" unicode="&#xa0;" horiz-adv-x="471" 
 />
    <glyph glyph-name="exclamdown" unicode="&#xa1;" horiz-adv-x="413" 
d="M276 762l-284 -1180h-37l301 1180h20zM354 1040l-35 -141h-36l34 141h37z" />
    <glyph glyph-name="cent" unicode="&#xa2;" 
d="M676 1190q-160 0 -276.5 -103.5t-177 -257t-60.5 -306.5t68.5 -243t203.5 -104l252 1014h-10zM1001 881q0 -18 -2 -31h-32q2 12 2 31q0 131 -65.5 212t-184.5 95l-252 -1014h12q139 0 251 84t159 225h35q-51 -156 -172 -249t-273 -93h-20l-45 -178h-33l45 180
q-145 16 -221 116.5t-76 262.5t64.5 324t189.5 269.5t293 107.5h18l45 178h33l-45 -180q129 -17 201.5 -107t72.5 -233z" />
    <glyph glyph-name="sterling" unicode="&#xa3;" 
d="M1075 1120q0 -57 -14 -116h-33q14 59 14 116q0 121 -64 184.5t-190 63.5t-218.5 -85t-133.5 -247l-88 -356h277l-9 -33h-276l-82 -323q-35 -133 -94.5 -204t-130.5 -91v-2q86 6 268 6h520l-8 -33h-893l8 33q109 0 185.5 75.5t113.5 223.5l80 315h-227l8 33h227l91 364
q43 172 143.5 264.5t240.5 92.5t212.5 -73t72.5 -208z" />
    <glyph glyph-name="currency" unicode="&#xa4;" 
d="M885 596q0 178 -102.5 285.5t-270.5 107.5t-270.5 -107.5t-102.5 -285.5t102.5 -285.5t270.5 -107.5t270.5 107.5t102.5 285.5zM511.5 170q-165.5 0 -275.5 100l-160 -170l-25 23l162 170q-106 117 -106.5 303t106.5 303l-162 170l25 23l160 -170q111 100 276.5 100
t275.5 -100l160 170l25 -23l-162 -170q106 -117 106 -303t-106 -303l162 -170l-25 -23l-160 170q-111 -100 -276.5 -100z" />
    <glyph glyph-name="yen" unicode="&#xa5;" 
d="M963 705l-9 -33h-389l-45 -185h389l-8 -32h-389l-113 -455h-32l112 455h-389l8 32h389l45 185h-389l9 33h366l-293 675h35l293 -673h2l401 430l230 243h43l-633 -675h367z" />
    <glyph glyph-name="brokenbar" unicode="&#xa6;" horiz-adv-x="483" 
d="M225 -420v717h33v-717h-33zM225 782v717h33v-717h-33z" />
    <glyph glyph-name="section" unicode="&#xa7;" horiz-adv-x="1001" 
d="M213 686q0 -80 47 -142.5t167 -154.5t163 -131q123 61 187.5 144t64.5 163t-49 148.5t-165 154.5t-167 133q-248 -145 -248 -315zM80 -43q0 -213 234 -213q114 0 187.5 45t109.5 114.5t36 138.5t-23.5 116t-69.5 88.5t-160 129.5t-164 155t-50 155q0 194 258 336v2
q-69 70 -69 154t37.5 149.5t110.5 108.5t173 43q268 0 268 -246q0 -37 -8 -76h-32q8 39 8 76q0 213 -220 213q-192 0 -248.5 -96.5t-56.5 -153.5t21.5 -97t64.5 -78.5t163 -130.5t172 -165.5t52 -160.5t-65.5 -174t-198.5 -154v-3q70 -78 70 -173t-41 -171.5t-121 -127
t-192 -50.5q-279 0 -279 246q0 45 14 100h33q-14 -55 -14 -100z" />
    <glyph glyph-name="dieresis" unicode="&#xa8;" horiz-adv-x="616" 
d="M676 1300l39 158h33l-39 -158h-33zM299 1300l39 158h33l-39 -158h-33z" />
    <glyph glyph-name="copyright" unicode="&#xa9;" horiz-adv-x="1683" 
d="M844 1221q-182 0 -287.5 -133.5t-105.5 -360.5t103.5 -358t267.5 -131t258 88t108 227h33q-16 -156 -120 -252t-248 -96t-238.5 63.5t-145.5 181t-51 276.5t52 278.5t149 184t243 64.5t244 -98t108 -246h-32q-12 133 -100.5 222.5t-237.5 89.5zM145 729q0 -213 87 -376
t245 -252t365 -89t364.5 89t244.5 252t87 376t-87 376t-244.5 252t-364.5 89t-365 -89t-245 -252t-87 -376zM1571 729q0 -221 -91 -391t-257 -264t-381 -94t-381 94t-257 264t-91 391t91 391t257 264.5t381 94.5t381 -94.5t257 -264.5t91 -391z" />
    <glyph glyph-name="ordfeminine" unicode="&#xaa;" horiz-adv-x="733" 
d="M178 846q0 -152 204 -152q106 0 192 73t120 208l25 100q-121 -8 -279 -31q-262 -39 -262 -198zM743 1210q0 176 -194 176q-102 0 -170 -55t-88 -145h-35q23 106 101 170q79 63 189 63t170 -53t60 -156q0 -39 -14 -94l-70 -280q-25 -106 -26 -160h-33q2 57 31 158h-2
q-98 -172 -300 -172q-100 0 -158 49t-59 133q0 193 291 233q129 20 291 31q16 64 16 102z" />
    <glyph glyph-name="guillemotleft" unicode="&#xab;" horiz-adv-x="737" 
d="M522 111h-35l-133 409l332 410h41l-336 -416zM281 111h-35l-133 409l331 410h41l-335 -416z" />
    <glyph glyph-name="logicalnot" unicode="&#xac;" horiz-adv-x="1159" 
d="M973 326v532h-819v33h852v-565h-33z" />
    <glyph glyph-name="uni00AD" unicode="&#xad;" horiz-adv-x="561" 
d="M76 582l8 32h438l-8 -32h-438z" />
    <glyph glyph-name="registered" unicode="&#xae;" horiz-adv-x="1179" 
d="M866 1126q0 142 -180 142h-151v-287h157q86 0 130 41t44 104zM899 1134q0 -74 -37 -116.5t-98 -52.5v-2q37 -10 58.5 -35t41.5 -84l72 -199h-35l-67 189q-23 66 -52.5 90t-89.5 24h-157v-303h-33v655h184q107 0 160 -46t53 -120zM236 966.5q0 -141.5 58 -250t163.5 -169
t243 -60.5t243 60.5t163.5 169t58 250t-58 250t-163.5 169t-243 60.5t-243 -60.5t-163.5 -169t-58 -250zM1198 966.5q0 -151.5 -62.5 -267t-175 -180t-260 -64.5t-260 64.5t-175 180t-62.5 267t62.5 267.5t175 180.5t260 64.5t260 -64.5t175 -180.5t62.5 -267.5z" />
    <glyph glyph-name="macron" unicode="&#xaf;" horiz-adv-x="669" 
d="M305 1327l8 33h463l-8 -33h-463z" />
    <glyph glyph-name="degree" unicode="&#xb0;" horiz-adv-x="593" 
d="M311 1275q0 -71 51.5 -122t121.5 -51t120.5 51t50.5 122t-50.5 121t-120.5 50t-121.5 -50t-51.5 -121zM688 1274q0 -84 -60.5 -144.5t-144.5 -60.5t-144 60.5t-60 144.5t60 144.5t144 60.5t144.5 -60.5t60.5 -144.5z" />
    <glyph glyph-name="plusminus" unicode="&#xb1;" horiz-adv-x="1159" 
d="M154 0v33h852v-33h-852zM1006 645v-33h-410v-409h-33v409h-409v33h409v410h33v-410h410z" />
    <glyph glyph-name="twosuperior" unicode="&#xb2;" horiz-adv-x="778" 
d="M897 1443q0 -89 -49 -173t-300 -195t-308.5 -200t-77.5 -166h586l-9 -33h-616q29 152 117 246t252 164t236.5 119.5t103 102t30.5 132.5t-55 132t-161 52t-184.5 -64.5t-115.5 -177.5h-35q37 129 127 202t209 73t184.5 -62.5t65.5 -151.5z" />
    <glyph glyph-name="threesuperior" unicode="&#xb3;" horiz-adv-x="774" 
d="M885 1438q0 -96 -65.5 -171t-190.5 -100v-2q160 -47 159 -209q0 -70 -41.5 -137t-123.5 -112t-201 -45t-187.5 57t-68.5 158q0 31 8 61h33q-6 -31 -6 -59q0 -88 59.5 -136.5t165.5 -48.5t179 40t111 100t38 138t-60.5 129.5t-173.5 51.5h-63l8 33h59q111 0 184.5 38
t108.5 94t35 129t-64 125t-172 52t-187 -62.5t-107 -177.5h-33q31 127 119 200t210 73t194.5 -61.5t72.5 -157.5z" />
    <glyph glyph-name="acute" unicode="&#xb4;" horiz-adv-x="440" 
d="M266 1176l258 282h47l-266 -282h-39z" />
    <glyph glyph-name="mu" unicode="&#xb5;" horiz-adv-x="1120" 
d="M829 101q0 -74 68 -74q33 0 57 8l-8 -35q-20 -6 -43 -6q-106 0 -106 104q0 49 30 146h-2q-57 -121 -165 -193t-228 -71q-281 0 -285 276h-2q-27 -135 -57 -256l-94 -379h-33l354 1419h33l-153 -616q-23 -94 -23 -158q0 -126 68 -190t175 -64q214 0 350 181q67 88 95 204
l160 643h33l-203 -817q-21 -80 -21 -122z" />
    <glyph glyph-name="paragraph" unicode="&#xb6;" horiz-adv-x="1013" 
d="M225 1042q0 96 46 193.5t136.5 160t215.5 62.5h583l-8 -33h-164l-416 -1671h-32l415 1671h-190l-416 -1671h-33l230 926q-178 8 -272.5 99t-94.5 263z" />
    <glyph glyph-name="periodcentered" unicode="&#xb7;" horiz-adv-x="278" 
d="M129 553l37 147h37l-37 -147h-37z" />
    <glyph glyph-name="cedilla" unicode="&#xb8;" horiz-adv-x="561" 
d="M121 -135q139 -1 139 -131q0 -64 -55 -109t-149 -45t-175 47l17 29q68 -43 152 -43t130.5 35t46.5 92q0 94 -106 94q-35 0 -70 -10l-20 22l143 154h45l-131 -139q17 4 33 4z" />
    <glyph glyph-name="onesuperior" unicode="&#xb9;" horiz-adv-x="442" 
d="M276 676l218 868h-2q-66 -94 -238 -94l8 31q104 0 163.5 36.5t94.5 124.5h31l-242 -966h-33z" />
    <glyph glyph-name="ordmasculine" unicode="&#xba;" horiz-adv-x="780" 
d="M223 941q-1 -111 61 -179t176 -68t194 67t119 167q40 100 40 210t-61 180q-61 69 -175 69t-194 -67t-120 -167t-40 -212zM846 1140q0 -122 -45 -230t-132 -178t-212 -70t-196 76t-71 200q0 122 46 230q45 108 132 180q88 72 212 72t195 -79t71 -201z" />
    <glyph glyph-name="guillemotright" unicode="&#xbb;" horiz-adv-x="737" 
d="M457 930h35l133 -410l-332 -409h-41l336 415zM215 930h35l133 -410l-332 -409h-41l336 415z" />
    <glyph glyph-name="onequarter" unicode="&#xbc;" horiz-adv-x="1196" 
d="M213 553l182 731h-2q-61 -74 -203 -74l9 33q90 0 140 31t81 106h33l-207 -827h-33zM-61 0l1151 1380h36l-1151 -1380h-36zM911 281l127 505h-2l-321 -335l-166 -170h362zM936 248l-62 -248h-32l61 248h-399l8 39l520 540h49l-137 -546h172l-8 -33h-172z" />
    <glyph glyph-name="onehalf" unicode="&#xbd;" horiz-adv-x="1265" 
d="M213 553l182 731h-2q-61 -74 -203 -74l9 33q90 0 140 31t81 106h33l-207 -827h-33zM-61 0l1151 1380h36l-1151 -1380h-36zM1202 641q0 -92 -68 -162q-68 -69 -235 -143t-233 -140t-88 -163h499l-8 -33h-532q23 131 98 211q76 80 244 154t229 134t61 141t-48 125t-136 44
t-159 -56t-93 -149h-35q31 111 108 174q78 63 180 63t159 -54t57 -146z" />
    <glyph glyph-name="threequarters" unicode="&#xbe;" horiz-adv-x="1480" 
d="M739 1206q0 -82 -56 -146t-163 -87v-2q135 -41 135 -178q0 -61 -35 -120q-36 -58 -106 -95t-174 -37t-162 50q-59 50 -59 138q0 25 6 49h33q-6 -25 -6 -49q0 -74 51 -115t142 -41t153 33t93 83q32 50 32 117q-1 68 -53 110t-148 42h-53l8 33h49q94 0 156 32t94 80
q31 47 31 109q1 62 -53 106t-148 44t-162 -53t-88 -150h-33q25 115 101 175t184 60t169 -53q62 -53 62 -135zM223 0l1151 1380h37l-1151 -1380h-37zM1196 281l127 505h-2l-487 -505h362zM1221 248l-62 -248h-33l62 248h-400l9 39l520 540h49l-137 -546h172l-8 -33h-172z" />
    <glyph glyph-name="questiondown" unicode="&#xbf;" horiz-adv-x="884" 
d="M-66 -125q0 80 41.5 176.5t286.5 265.5q104 72 158.5 124.5t89.5 124t65 194.5h27q-33 -135 -64.5 -207t-87.5 -127t-176 -138t-188 -150.5t-93.5 -128t-25.5 -134.5q0 -127 84 -204t232 -77t260 92.5t164 262.5h34q-55 -186 -177 -286.5t-282 -100.5t-254 86t-94 227z
M678 1040l-35 -141h-37l35 141h37z" />
    <glyph glyph-name="Agrave" unicode="&#xc0;" horiz-adv-x="1298" 
d="M987 778q-74 438 -110 647h-3l-567 -847h715zM287 545l-365 -545h-39l975 1458h45l252 -1458h-33l-94 545h-741zM987 1556l-164 259h41l158 -259h-35z" />
    <glyph glyph-name="Aacute" unicode="&#xc1;" horiz-adv-x="1298" 
d="M987 778q-74 438 -110 647h-3l-567 -847h715zM287 545l-365 -545h-39l975 1458h45l252 -1458h-33l-94 545h-741zM793 1556l280 259h49l-286 -259h-43z" />
    <glyph glyph-name="Acircumflex" unicode="&#xc2;" horiz-adv-x="1298" 
d="M987 778q-74 438 -110 647h-3l-567 -847h715zM287 545l-365 -545h-39l975 1458h45l252 -1458h-33l-94 545h-741zM989 1815l180 -259h-39l-159 228l-275 -228h-51l311 259h33z" />
    <glyph glyph-name="Atilde" unicode="&#xc3;" horiz-adv-x="1298" 
d="M987 778q-74 438 -110 647h-3l-567 -847h715zM287 545l-365 -545h-39l975 1458h45l252 -1458h-33l-94 545h-741zM1091.5 1628q-51.5 0 -83 17.5t-70.5 51.5t-65.5 49t-68.5 15t-80 -33.5t-58 -99.5h-35q27 80 74 123t98 43t83 -17.5t70.5 -51.5t65.5 -49t68.5 -15
t79.5 34t59 99h35q-27 -80 -74 -123t-98.5 -43z" />
    <glyph glyph-name="Adieresis" unicode="&#xc4;" horiz-adv-x="1298" 
d="M987 778q-74 438 -110 647h-3l-567 -847h715zM287 545l-365 -545h-39l975 1458h45l252 -1458h-33l-94 545h-741zM1090 1595l40 158h33l-41 -158h-32zM713 1595l41 158h32l-41 -158h-32z" />
    <glyph glyph-name="Aring" unicode="&#xc5;" horiz-adv-x="1298" 
d="M987 778q-74 438 -110 647h-3l-567 -847h715zM287 545l-365 -545h-39l975 1458h45l252 -1458h-33l-94 545h-741zM795 1744q0 -58 41 -99t99 -41t98 41t40 99t-40 98t-98 40t-99 -40t-41 -98zM1106 1743q0 -72 -50 -122t-122 -50t-122 50t-50 122t51 122t122 50t121 -50
t50 -122z" />
    <glyph glyph-name="AE" unicode="&#xc6;" horiz-adv-x="1853" 
d="M1020 1425l-635 -809h602l72 809h-39zM1032 766h697l-9 -33h-692l-61 -700h643l-8 -33h-672l53 584h-625l-458 -584h-41l1147 1458h929l-8 -33h-835z" />
    <glyph glyph-name="Ccedilla" unicode="&#xc7;" horiz-adv-x="1353" 
d="M559 -135q139 -1 139 -131q0 -64 -55 -109t-149 -45t-175 47l17 29q68 -43 153 -43t131 35t46 92q0 94 -107 94q-35 0 -70 -10l-20 22l125 134q-219 8 -340 157.5t-121 384t91 452.5t265.5 361.5t398.5 143.5t337.5 -127t113.5 -326q0 -25 -4 -74h-32q4 49 4 74
q0 186 -104.5 303t-316.5 117t-379 -139.5t-254 -350.5t-87 -436t117.5 -366.5t325.5 -141.5t366 121t223 311h35q-70 -201 -229.5 -328.5t-364.5 -135.5l-113 -119q16 4 33 4z" />
    <glyph glyph-name="Egrave" unicode="&#xc8;" horiz-adv-x="1200" 
d="M473 1425l-164 -659h766l-8 -33h-766l-174 -700h829l-8 -33h-862l363 1458h833l-8 -33h-801zM950 1556l-164 259h41l158 -259h-35z" />
    <glyph glyph-name="Eacute" unicode="&#xc9;" horiz-adv-x="1200" 
d="M473 1425l-164 -659h766l-8 -33h-766l-174 -700h829l-8 -33h-862l363 1458h833l-8 -33h-801zM756 1556l280 259h49l-286 -259h-43z" />
    <glyph glyph-name="Ecircumflex" unicode="&#xca;" horiz-adv-x="1200" 
d="M473 1425l-164 -659h766l-8 -33h-766l-174 -700h829l-8 -33h-862l363 1458h833l-8 -33h-801zM952 1815l181 -259h-39l-160 228l-275 -228h-51l312 259h32z" />
    <glyph glyph-name="Edieresis" unicode="&#xcb;" horiz-adv-x="1200" 
d="M473 1425l-164 -659h766l-8 -33h-766l-174 -700h829l-8 -33h-862l363 1458h833l-8 -33h-801zM1053 1595l41 158h32l-41 -158h-32zM676 1595l41 158h33l-41 -158h-33z" />
    <glyph glyph-name="Igrave" unicode="&#xcc;" horiz-adv-x="462" 
d="M86 0l363 1458h32l-362 -1458h-33zM569 1556l-163 259h40l158 -259h-35z" />
    <glyph glyph-name="Iacute" unicode="&#xcd;" horiz-adv-x="462" 
d="M86 0l363 1458h32l-362 -1458h-33zM375 1556l280 259h50l-287 -259h-43z" />
    <glyph glyph-name="Icircumflex" unicode="&#xce;" horiz-adv-x="462" 
d="M86 0l363 1458h32l-362 -1458h-33zM571 1815l181 -259h-39l-160 228l-274 -228h-52l312 259h32z" />
    <glyph glyph-name="Idieresis" unicode="&#xcf;" horiz-adv-x="462" 
d="M86 0l363 1458h32l-362 -1458h-33zM672 1595l41 158h32l-40 -158h-33zM295 1595l41 158h33l-41 -158h-33z" />
    <glyph glyph-name="Eth" unicode="&#xd0;" horiz-adv-x="1449" 
d="M1374 840q0 287 -155.5 436t-458.5 149h-287l-168 -671h524l-8 -33h-522l-172 -688h410q280 0 469.5 121.5t278.5 307t89 378.5zM1407 840q0 -203 -94 -395.5t-290 -318.5t-486 -126h-451l180 721h-125l9 33h122l177 704h311q317 0 482 -159.5t165 -458.5z" />
    <glyph glyph-name="Ntilde" unicode="&#xd1;" horiz-adv-x="1470" 
d="M1077 0l-602 1427h-2l-354 -1427h-33l363 1458h49l286 -682q150 -349 314 -745h2l356 1427h33l-363 -1458h-49zM1177.5 1628q-51.5 0 -83 17.5t-70.5 51.5t-65.5 49t-68.5 15t-80 -33.5t-58 -99.5h-35q27 80 74 123t98 43t83 -17.5t70.5 -51.5t65.5 -49t68.5 -15t79.5 34
t59 99h35q-27 -80 -74 -123t-98.5 -43z" />
    <glyph glyph-name="Ograve" unicode="&#xd2;" horiz-adv-x="1437" 
d="M170 559q0 -248 128 -397.5t353 -149.5t388 135.5t248 342t85 409.5q0 248 -128 397.5t-353 149.5t-388 -135t-248 -342t-85 -410zM1405 878.5q0 -192.5 -89 -405.5t-260 -353t-401 -140q-162 0 -279.5 72.5t-178 203.5t-60.5 323.5t89 405.5t260 353.5t401 140.5
q162 0 279.5 -73t178 -204t60.5 -323.5zM1008 1556l-164 259h41l157 -259h-34z" />
    <glyph glyph-name="Oacute" unicode="&#xd3;" horiz-adv-x="1437" 
d="M170 559q0 -248 128 -397.5t353 -149.5t388 135.5t248 342t85 409.5q0 248 -128 397.5t-353 149.5t-388 -135t-248 -342t-85 -410zM1405 878.5q0 -192.5 -89 -405.5t-260 -353t-401 -140q-162 0 -279.5 72.5t-178 203.5t-60.5 323.5t89 405.5t260 353.5t401 140.5
q162 0 279.5 -73t178 -204t60.5 -323.5zM813 1556l281 259h49l-287 -259h-43z" />
    <glyph glyph-name="Ocircumflex" unicode="&#xd4;" horiz-adv-x="1437" 
d="M170 559q0 -248 128 -397.5t353 -149.5t388 135.5t248 342t85 409.5q0 248 -128 397.5t-353 149.5t-388 -135t-248 -342t-85 -410zM1405 878.5q0 -192.5 -89 -405.5t-260 -353t-401 -140q-162 0 -279.5 72.5t-178 203.5t-60.5 323.5t89 405.5t260 353.5t401 140.5
q162 0 279.5 -73t178 -204t60.5 -323.5zM1010 1815l180 -259h-39l-160 228l-274 -228h-51l311 259h33z" />
    <glyph glyph-name="Otilde" unicode="&#xd5;" horiz-adv-x="1437" 
d="M170 559q0 -248 128 -397.5t353 -149.5t388 135.5t248 342t85 409.5q0 248 -128 397.5t-353 149.5t-388 -135t-248 -342t-85 -410zM1405 878.5q0 -192.5 -89 -405.5t-260 -353t-401 -140q-162 0 -279.5 72.5t-178 203.5t-60.5 323.5t89 405.5t260 353.5t401 140.5
q162 0 279.5 -73t178 -204t60.5 -323.5zM829 1761q-101 0 -143 -133h-35q27 80 74 123t98 43t83 -17.5t71 -51.5t65.5 -49t68.5 -15t80 34t58 99h35q-27 -80 -74 -123t-98 -43t-83 17.5t-71 51.5t-65.5 49t-63.5 15z" />
    <glyph glyph-name="Odieresis" unicode="&#xd6;" horiz-adv-x="1437" 
d="M170 559q0 -248 128 -397.5t353 -149.5t388 135.5t248 342t85 409.5q0 248 -128 397.5t-353 149.5t-388 -135t-248 -342t-85 -410zM1405 878.5q0 -192.5 -89 -405.5t-260 -353t-401 -140q-162 0 -279.5 72.5t-178 203.5t-60.5 323.5t89 405.5t260 353.5t401 140.5
q162 0 279.5 -73t178 -204t60.5 -323.5zM1110 1595l41 158h33l-41 -158h-33zM733 1595l41 158h33l-41 -158h-33z" />
    <glyph glyph-name="multiply" unicode="&#xd7;" horiz-adv-x="1159" 
d="M602 627l430 -430l-22 -23l-430 430l-428 -428l-23 23l428 428l-428 428l23 22l428 -428l430 430l22 -22z" />
    <glyph glyph-name="Oslash" unicode="&#xd8;" horiz-adv-x="1437" 
d="M1372 895q0 199 -76 330l-1032 -1018q131 -195 391 -195q221 0 384 135.5t248 342t85 405.5zM887 1446q-221 0 -384 -135t-248 -342t-85 -404t76 -332l1032 1018q-127 195 -391 195zM887 1479q272 0 416 -203l145 143l22 -22l-151 -150q86 -141 86 -351t-89 -423
t-260 -353t-401 -140q-274 0 -415 202l-146 -143l-22 22l151 150q-86 141 -86 351t89 423t260 353.5t401 140.5z" />
    <glyph glyph-name="Ugrave" unicode="&#xd9;" horiz-adv-x="1372" 
d="M219 371q0 -359 361 -359q209 0 349 120t199 360l242 966h33l-244 -975q-63 -250 -210.5 -376.5t-368.5 -126.5q-393 0 -394 391q0 92 31 211l219 876h33l-221 -885q-29 -119 -29 -202zM1004 1556l-164 259h41l157 -259h-34z" />
    <glyph glyph-name="Uacute" unicode="&#xda;" horiz-adv-x="1372" 
d="M219 371q0 -359 361 -359q209 0 349 120t199 360l242 966h33l-244 -975q-63 -250 -210.5 -376.5t-368.5 -126.5q-393 0 -394 391q0 92 31 211l219 876h33l-221 -885q-29 -119 -29 -202zM809 1556l281 259h49l-287 -259h-43z" />
    <glyph glyph-name="Ucircumflex" unicode="&#xdb;" horiz-adv-x="1372" 
d="M219 371q0 -359 361 -359q209 0 349 120t199 360l242 966h33l-244 -975q-63 -250 -210.5 -376.5t-368.5 -126.5q-393 0 -394 391q0 92 31 211l219 876h33l-221 -885q-29 -119 -29 -202zM1006 1815l180 -259h-39l-160 228l-274 -228h-51l311 259h33z" />
    <glyph glyph-name="Udieresis" unicode="&#xdc;" horiz-adv-x="1372" 
d="M219 371q0 -359 361 -359q209 0 349 120t199 360l242 966h33l-244 -975q-63 -250 -210.5 -376.5t-368.5 -126.5q-393 0 -394 391q0 92 31 211l219 876h33l-221 -885q-29 -119 -29 -202zM1106 1595l41 158h33l-41 -158h-33zM729 1595l41 158h33l-41 -158h-33z" />
    <glyph glyph-name="Yacute" unicode="&#xdd;" horiz-adv-x="1167" 
d="M471 0h-33l162 651l-352 807h35l338 -772h2l720 772h43l-753 -807zM707 1556l280 259h49l-286 -259h-43z" />
    <glyph glyph-name="Thorn" unicode="&#xde;" horiz-adv-x="1179" 
d="M692 403q147 0 248.5 60.5t151 151t49.5 180.5q0 147 -87 230t-268 83h-391l-176 -705h473zM786 1141q195 0 291.5 -92.5t96.5 -253.5q0 -100 -53.5 -197.5t-162 -162t-266.5 -64.5h-481l-92 -371h-33l363 1458h32l-78 -317h383z" />
    <glyph glyph-name="germandbls" unicode="&#xdf;" horiz-adv-x="1083" 
d="M1075 1197q0 -132 -88 -237.5t-258 -132.5v-2q109 -27 173.5 -110t64.5 -217t-62.5 -248.5t-187.5 -188t-307 -73.5q-78 0 -144 18l8 33q61 -18 136 -19q172 0 290.5 69t176 176.5t57.5 241.5t-85 219t-235 85h-12l8 33q150 0 247 54t141 136t44 182t-72 165t-216 65
t-251.5 -105.5t-154.5 -300.5l-258 -1040h-33l260 1049q51 207 167 318.5t272 111.5t237.5 -75t81.5 -207z" />
    <glyph glyph-name="agrave" unicode="&#xe0;" horiz-adv-x="1011" 
d="M55 238q0 -106 70 -166t192 -60q176 0 298 108.5t171 305.5l39 156q-227 -18 -401 -47q-369 -55 -369 -297zM858 766q0 262 -282 262q-137 0 -233.5 -83t-127.5 -218h-35q35 152 142.5 243t256 91t230.5 -75t82 -220q0 -53 -21 -135l-102 -408q-32 -126 -37 -223h-33
q4 68 47 242h-2q-138 -262 -426 -262q-137 0 -215.5 69.5t-78.5 189.5t92 209t307 119q156 23 412 47l6 25q18 74 18 127zM727 1176h-31l-135 282h39z" />
    <glyph glyph-name="aacute" unicode="&#xe1;" horiz-adv-x="1011" 
d="M55 238q0 -106 70 -166t192 -60q176 0 298 108.5t171 305.5l39 156q-227 -18 -401 -47q-369 -55 -369 -297zM858 766q0 262 -282 262q-137 0 -233.5 -83t-127.5 -218h-35q35 152 142.5 243t256 91t230.5 -75t82 -220q0 -53 -21 -135l-102 -408q-32 -126 -37 -223h-33
q4 68 47 242h-2q-138 -262 -426 -262q-137 0 -215.5 69.5t-78.5 189.5t92 209t307 119q156 23 412 47l6 25q18 74 18 127zM528 1176l258 282h48l-267 -282h-39z" />
    <glyph glyph-name="acircumflex" unicode="&#xe2;" horiz-adv-x="1011" 
d="M55 238q0 -106 70 -166t192 -60q176 0 298 108.5t171 305.5l39 156q-227 -18 -401 -47q-369 -55 -369 -297zM858 766q0 262 -282 262q-137 0 -233.5 -83t-127.5 -218h-35q35 152 142.5 243t256 91t230.5 -75t82 -220q0 -53 -21 -135l-102 -408q-32 -126 -37 -223h-33
q4 68 47 242h-2q-138 -262 -426 -262q-137 0 -215.5 69.5t-78.5 189.5t92 209t307 119q156 23 412 47l6 25q18 74 18 127zM848 1176l-154 251l-278 -251h-49l313 282h33l174 -282h-39z" />
    <glyph glyph-name="atilde" unicode="&#xe3;" horiz-adv-x="1011" 
d="M55 238q0 -106 70 -166t192 -60q176 0 298 108.5t171 305.5l39 156q-227 -18 -401 -47q-369 -55 -369 -297zM858 766q0 262 -282 262q-137 0 -233.5 -83t-127.5 -218h-35q35 152 142.5 243t256 91t230.5 -75t82 -220q0 -53 -21 -135l-102 -408q-32 -126 -37 -223h-33
q4 68 47 242h-2q-138 -262 -426 -262q-137 0 -215.5 69.5t-78.5 189.5t92 209t307 119q156 23 412 47l6 25q18 74 18 127zM815 1272q-51 0 -83 17.5t-69.5 51t-64.5 49t-68.5 15.5t-79.5 -34t-59 -99h-35q27 80 74 123t98.5 43t83 -17.5t69.5 -51.5t64.5 -49t68.5 -15
t80 33.5t58 99.5h35q-26 -80 -73.5 -123t-98.5 -43z" />
    <glyph glyph-name="adieresis" unicode="&#xe4;" horiz-adv-x="1011" 
d="M55 238q0 -106 70 -166t192 -60q176 0 298 108.5t171 305.5l39 156q-227 -18 -401 -47q-369 -55 -369 -297zM858 766q0 262 -282 262q-137 0 -233.5 -83t-127.5 -218h-35q35 152 142.5 243t256 91t230.5 -75t82 -220q0 -53 -21 -135l-102 -408q-32 -126 -37 -223h-33
q4 68 47 242h-2q-138 -262 -426 -262q-137 0 -215.5 69.5t-78.5 189.5t92 209t307 119q156 23 412 47l6 25q18 74 18 127zM829 1300l39 158h33l-39 -158h-33zM453 1300l39 158h32l-39 -158h-32z" />
    <glyph glyph-name="aring" unicode="&#xe5;" horiz-adv-x="1011" 
d="M55 238q0 -106 70 -166t192 -60q176 0 298 108.5t171 305.5l39 156q-227 -18 -401 -47q-369 -55 -369 -297zM858 766q0 262 -282 262q-137 0 -233.5 -83t-127.5 -218h-35q35 152 142.5 243t256 91t230.5 -75t82 -220q0 -53 -21 -135l-102 -408q-32 -126 -37 -223h-33
q4 68 47 242h-2q-138 -262 -426 -262q-137 0 -215.5 69.5t-78.5 189.5t92 209t307 119q156 23 412 47l6 25q18 74 18 127zM518 1387.5q0 -58.5 41 -99.5t99 -41t98.5 41t40.5 99t-40 98.5t-98.5 40.5t-99.5 -40t-41 -98.5zM829 1386.5q0 -71.5 -50 -122t-121.5 -50.5
t-122 50.5t-50.5 122t51.5 122t122 50.5t120.5 -50.5t50 -122z" />
    <glyph glyph-name="ae" unicode="&#xe6;" horiz-adv-x="1669" 
d="M489 530q-233 0 -333.5 -85t-100.5 -199.5t73 -174t202 -59.5q166 0 282.5 115t161.5 322l21 81h-306zM1296 1028q-161 0 -285 -128t-175 -337h710q20 61 21 131q0 160 -72 247t-199 87zM840 756q0 272 -268 272q-133 0 -229.5 -83t-127.5 -218h-35q35 152 142.5 243
t251.5 91q294 0 294 -305v-6h2q70 141 178.5 226t248 85t221 -96.5t81.5 -270.5q0 -76 -26 -164h-746q-18 -87 -18 -165q0 -166 71.5 -259.5t202.5 -93.5t235.5 80t149.5 213h35q-49 -150 -163.5 -237.5t-258 -87.5t-221.5 99t-80 279h-2q-33 -117 -102.5 -202.5
t-160.5 -130.5t-185 -45q-143 0 -225 68.5t-82 197.5t110.5 223t355.5 94h314l20 82q16 66 17 111z" />
    <glyph glyph-name="ccedilla" unicode="&#xe7;" horiz-adv-x="1009" 
d="M393 -135q139 -1 139 -131q0 -64 -55 -109t-149 -45t-174 47l16 29q68 -43 153 -43t131 35t46 92q0 94 -107 94q-35 0 -69 -10l-21 22l125 134q-168 2 -256 103t-88 270.5t64.5 331t189.5 269t284.5 107.5t246.5 -92t87 -250q0 -18 -2 -31h-32q2 12 2 31q0 143 -78 226
t-226.5 83t-265 -103.5t-177 -257t-60.5 -312t81 -251t228 -92.5t259 84t159 226h35q-47 -143 -157 -235.5t-249 -104.5l-113 -121q16 4 33 4z" />
    <glyph glyph-name="egrave" unicode="&#xe8;" horiz-adv-x="1054" 
d="M952 694q0 160 -83 247t-243.5 87t-294.5 -128t-190 -337h791q20 61 20 131zM115 365q0 -168 80.5 -260.5t228 -92.5t263.5 80t167 213h35q-55 -150 -181 -237.5t-286 -87.5t-250 101t-90 271.5t66.5 332t193.5 269t293 107.5t258 -96.5t92 -270.5q0 -76 -27 -164h-825
q-18 -87 -18 -165zM750 1176h-31l-135 282h39z" />
    <glyph glyph-name="eacute" unicode="&#xe9;" horiz-adv-x="1054" 
d="M952 694q0 160 -83 247t-243.5 87t-294.5 -128t-190 -337h791q20 61 20 131zM115 365q0 -168 80.5 -260.5t228 -92.5t263.5 80t167 213h35q-55 -150 -181 -237.5t-286 -87.5t-250 101t-90 271.5t66.5 332t193.5 269t293 107.5t258 -96.5t92 -270.5q0 -76 -27 -164h-825
q-18 -87 -18 -165zM551 1176l258 282h47l-266 -282h-39z" />
    <glyph glyph-name="ecircumflex" unicode="&#xea;" horiz-adv-x="1054" 
d="M952 694q0 160 -83 247t-243.5 87t-294.5 -128t-190 -337h791q20 61 20 131zM115 365q0 -168 80.5 -260.5t228 -92.5t263.5 80t167 213h35q-55 -150 -181 -237.5t-286 -87.5t-250 101t-90 271.5t66.5 332t193.5 269t293 107.5t258 -96.5t92 -270.5q0 -76 -27 -164h-825
q-18 -87 -18 -165zM870 1176l-153 251l-279 -251h-49l313 282h33l174 -282h-39z" />
    <glyph glyph-name="edieresis" unicode="&#xeb;" horiz-adv-x="1054" 
d="M952 694q0 160 -83 247t-243.5 87t-294.5 -128t-190 -337h791q20 61 20 131zM115 365q0 -168 80.5 -260.5t228 -92.5t263.5 80t167 213h35q-55 -150 -181 -237.5t-286 -87.5t-250 101t-90 271.5t66.5 332t193.5 269t293 107.5t258 -96.5t92 -270.5q0 -76 -27 -164h-825
q-18 -87 -18 -165zM852 1300l39 158h33l-39 -158h-33zM475 1300l39 158h33l-39 -158h-33z" />
    <glyph glyph-name="igrave" unicode="&#xec;" horiz-adv-x="405" 
d="M57 0l258 1040h33l-258 -1040h-33zM467 1176h-31l-135 282h39z" />
    <glyph glyph-name="iacute" unicode="&#xed;" horiz-adv-x="405" 
d="M57 0l258 1040h33l-258 -1040h-33zM268 1176l258 282h47l-266 -282h-39z" />
    <glyph glyph-name="icircumflex" unicode="&#xee;" horiz-adv-x="405" 
d="M57 0l258 1040h33l-258 -1040h-33zM545 1178l-113 247l-237 -247h-45l268 280h35l129 -280h-37z" />
    <glyph glyph-name="idieresis" unicode="&#xef;" horiz-adv-x="405" 
d="M57 0l258 1040h33l-258 -1040h-33zM532 1317l35 141h33l-35 -141h-33zM238 1317l34 141h33l-35 -141h-32z" />
    <glyph glyph-name="eth" unicode="&#xf0;" horiz-adv-x="1081" 
d="M958 668q0 162 -86 261t-244 99t-273 -99.5t-174.5 -249t-59.5 -311.5t86.5 -259t246.5 -97t275 98.5t172 247t57 310.5zM625 1061q216 0 301 -162l2 2q-68 209 -221 397l-285 -135l-14 29l278 131q-49 55 -127 131l23 25q70 -68 135 -142l284 136l15 -29l-279 -131
q254 -316 254 -662q0 -156 -62.5 -311.5t-184 -257.5t-293.5 -102t-267.5 106.5t-95.5 279.5t63.5 329.5t185.5 261t288 104.5z" />
    <glyph glyph-name="ntilde" unicode="&#xf1;" horiz-adv-x="1099" 
d="M975 774q0 -70 -25 -166l-151 -608h-33l154 616q23 94 22 158q0 125 -66.5 189.5t-176 64.5t-199.5 -48t-157 -134t-93 -195l-162 -651h-33l260 1040h33q-39 -156 -67 -243h2q70 127 178 195.5t235 68.5t203 -74t76 -213zM901 1272q-51 0 -83 17.5t-69.5 51t-64.5 49
t-68.5 15.5t-79.5 -34t-59 -99h-35q27 80 74 123t98.5 43t83 -17.5t69.5 -51.5t64.5 -49t68.5 -15t80 33.5t58 99.5h35q-26 -80 -73.5 -123t-98.5 -43z" />
    <glyph glyph-name="ograve" unicode="&#xf2;" horiz-adv-x="1081" 
d="M119 373q0 -162 87 -261.5t248 -99.5t274.5 98.5t171.5 246t58 309t-87 262t-247.5 100.5t-274 -98.5t-172 -246.5t-58.5 -310zM991 668.5q0 -173.5 -62.5 -329t-184 -257.5t-293.5 -102t-268.5 108.5t-96.5 282.5t62.5 328.5t184.5 258t293 103.5t268 -109.5t97 -283z
M764 1176h-31l-135 282h39z" />
    <glyph glyph-name="oacute" unicode="&#xf3;" horiz-adv-x="1081" 
d="M119 373q0 -162 87 -261.5t248 -99.5t274.5 98.5t171.5 246t58 309t-87 262t-247.5 100.5t-274 -98.5t-172 -246.5t-58.5 -310zM991 668.5q0 -173.5 -62.5 -329t-184 -257.5t-293.5 -102t-268.5 108.5t-96.5 282.5t62.5 328.5t184.5 258t293 103.5t268 -109.5t97 -283z
M565 1176l258 282h47l-266 -282h-39z" />
    <glyph glyph-name="ocircumflex" unicode="&#xf4;" horiz-adv-x="1081" 
d="M119 373q0 -162 87 -261.5t248 -99.5t274.5 98.5t171.5 246t58 309t-87 262t-247.5 100.5t-274 -98.5t-172 -246.5t-58.5 -310zM991 668.5q0 -173.5 -62.5 -329t-184 -257.5t-293.5 -102t-268.5 108.5t-96.5 282.5t62.5 328.5t184.5 258t293 103.5t268 -109.5t97 -283z
M885 1176l-154 251l-278 -251h-50l314 282h33l174 -282h-39z" />
    <glyph glyph-name="otilde" unicode="&#xf5;" horiz-adv-x="1081" 
d="M119 373q0 -162 87 -261.5t248 -99.5t274.5 98.5t171.5 246t58 309t-87 262t-247.5 100.5t-274 -98.5t-172 -246.5t-58.5 -310zM991 668.5q0 -173.5 -62.5 -329t-184 -257.5t-293.5 -102t-268.5 108.5t-96.5 282.5t62.5 328.5t184.5 258t293 103.5t268 -109.5t97 -283z
M571 1405q-100 0 -143 -133h-35q27 80 74 123t98 43t83 -17.5t70 -51.5t64.5 -49t68.5 -15t80 33.5t58 99.5h35q-27 -80 -74 -123t-98 -43t-83 17.5t-70 51t-64.5 49t-63.5 15.5z" />
    <glyph glyph-name="odieresis" unicode="&#xf6;" horiz-adv-x="1081" 
d="M119 373q0 -162 87 -261.5t248 -99.5t274.5 98.5t171.5 246t58 309t-87 262t-247.5 100.5t-274 -98.5t-172 -246.5t-58.5 -310zM991 668.5q0 -173.5 -62.5 -329t-184 -257.5t-293.5 -102t-268.5 108.5t-96.5 282.5t62.5 328.5t184.5 258t293 103.5t268 -109.5t97 -283z
M866 1300l39 158h33l-39 -158h-33zM489 1300l39 158h33l-39 -158h-33z" />
    <glyph glyph-name="divide" unicode="&#xf7;" horiz-adv-x="1159" 
d="M563 285v123h33v-123h-33zM154 633v33h852v-33h-852zM563 891v123h33v-123h-33z" />
    <glyph glyph-name="oslash" unicode="&#xf8;" horiz-adv-x="1081" 
d="M958 639q0 135 -43 223l-733 -725q86 -125 255 -125t286 98.5t176 246t59 282.5zM119 395.5q0 -139.5 47 -229.5l735 725q-83 137 -256.5 137t-290 -98.5t-176 -246.5t-59.5 -287.5zM433 -20q-181 0 -273 135l-127 -125l-23 22l131 129q-55 98 -55 251t64.5 307.5
t188.5 258t307.5 103.5t279.5 -146l127 125l22 -22l-133 -131q49 -99 49 -245.5t-64.5 -302t-188.5 -257.5t-305 -102z" />
    <glyph glyph-name="ugrave" unicode="&#xf9;" horiz-adv-x="1099" 
d="M125 266q0 72 25 166l151 608h33l-154 -616q-23 -94 -22 -158q0 -125 66.5 -189.5t176 -64.5t199.5 48.5t156.5 134.5t93.5 194l162 651h32l-260 -1040h-32l55 219h-2q-68 -113 -173.5 -176t-230.5 -63t-200.5 73.5t-75.5 212.5zM795 1176h-31l-135 282h39z" />
    <glyph glyph-name="uacute" unicode="&#xfa;" horiz-adv-x="1099" 
d="M125 266q0 72 25 166l151 608h33l-154 -616q-23 -94 -22 -158q0 -125 66.5 -189.5t176 -64.5t199.5 48.5t156.5 134.5t93.5 194l162 651h32l-260 -1040h-32l55 219h-2q-68 -113 -173.5 -176t-230.5 -63t-200.5 73.5t-75.5 212.5zM596 1176l258 282h47l-266 -282h-39z" />
    <glyph glyph-name="ucircumflex" unicode="&#xfb;" horiz-adv-x="1099" 
d="M125 266q0 72 25 166l151 608h33l-154 -616q-23 -94 -22 -158q0 -125 66.5 -189.5t176 -64.5t199.5 48.5t156.5 134.5t93.5 194l162 651h32l-260 -1040h-32l55 219h-2q-68 -113 -173.5 -176t-230.5 -63t-200.5 73.5t-75.5 212.5zM915 1176l-153 251l-279 -251h-49
l314 282h32l174 -282h-39z" />
    <glyph glyph-name="udieresis" unicode="&#xfc;" horiz-adv-x="1099" 
d="M125 266q0 72 25 166l151 608h33l-154 -616q-23 -94 -22 -158q0 -125 66.5 -189.5t176 -64.5t199.5 48.5t156.5 134.5t93.5 194l162 651h32l-260 -1040h-32l55 219h-2q-68 -113 -173.5 -176t-230.5 -63t-200.5 73.5t-75.5 212.5zM897 1300l39 158h33l-39 -158h-33z
M520 1300l39 158h33l-39 -158h-33z" />
    <glyph glyph-name="yacute" unicode="&#xfd;" horiz-adv-x="882" 
d="M-116 -387q-66 0 -97 14l8 33q29 -14 87.5 -14t114.5 27.5t123.5 104.5t164.5 222l-152 1040h33l145 -995h2l656 995h39l-693 -1052q-185 -284 -303 -344q-60 -30 -128 -31zM467 1176l258 282h47l-266 -282h-39z" />
    <glyph glyph-name="thorn" unicode="&#xfe;" horiz-adv-x="1116" 
d="M997 681q0 159 -77.5 253t-227.5 94t-261.5 -105.5t-169.5 -259t-58 -309.5t77.5 -249t227.5 -93t262.5 102.5t169.5 255t57 311.5zM710 1061q146 0 233 -103.5t87 -273.5t-62.5 -330.5t-181 -267t-283.5 -106.5t-250 109.5t-75 285.5h-2q-16 -86 -59 -258l-123 -496h-33
l459 1837h33l-111 -442q-43 -172 -72 -264h2q149 309 438 309z" />
    <glyph glyph-name="ydieresis" unicode="&#xff;" horiz-adv-x="882" 
d="M-116 -387q-66 0 -97 14l8 33q29 -14 87.5 -14t114.5 27.5t123.5 104.5t164.5 222l-152 1040h33l145 -995h2l656 995h39l-693 -1052q-185 -284 -303 -344q-60 -30 -128 -31zM768 1300l39 158h33l-39 -158h-33zM391 1300l39 158h33l-39 -158h-33z" />
    <glyph glyph-name="Amacron" unicode="&#x100;" horiz-adv-x="1298" 
d="M987 778q-74 438 -110 647h-3l-567 -847h715zM287 545l-365 -545h-39l975 1458h45l252 -1458h-33l-94 545h-741zM696 1642l9 33h462l-8 -33h-463z" />
    <glyph glyph-name="amacron" unicode="&#x101;" horiz-adv-x="1011" 
d="M55 238q0 -106 70 -166t192 -60q176 0 298 108.5t171 305.5l39 156q-227 -18 -401 -47q-369 -55 -369 -297zM858 766q0 262 -282 262q-137 0 -233.5 -83t-127.5 -218h-35q35 152 142.5 243t256 91t230.5 -75t82 -220q0 -53 -21 -135l-102 -408q-32 -126 -37 -223h-33
q4 68 47 242h-2q-138 -262 -426 -262q-137 0 -215.5 69.5t-78.5 189.5t92 209t307 119q156 23 412 47l6 25q18 74 18 127zM432 1327l8 33h463l-8 -33h-463z" />
    <glyph glyph-name="Abreve" unicode="&#x102;" horiz-adv-x="1298" 
d="M987 778q-74 438 -110 647h-3l-567 -847h715zM287 545l-365 -545h-39l975 1458h45l252 -1458h-33l-94 545h-741zM923 1554q-124 0 -185.5 57.5t-61.5 164.5q0 25 2 39h33q-2 -14 -2 -39q0 -188 209 -189q231 0 315 228h35q-41 -125 -131 -193t-214 -68z" />
    <glyph glyph-name="abreve" unicode="&#x103;" horiz-adv-x="1011" 
d="M55 238q0 -106 70 -166t192 -60q176 0 298 108.5t171 305.5l39 156q-227 -18 -401 -47q-369 -55 -369 -297zM858 766q0 262 -282 262q-137 0 -233.5 -83t-127.5 -218h-35q35 152 142.5 243t256 91t230.5 -75t82 -220q0 -53 -21 -135l-102 -408q-32 -126 -37 -223h-33
q4 68 47 242h-2q-138 -262 -426 -262q-137 0 -215.5 69.5t-78.5 189.5t92 209t307 119q156 23 412 47l6 25q18 74 18 127zM641 1231q230 0 315 227h35q-41 -125 -131 -192.5t-214 -67.5t-185.5 57.5t-61.5 163.5q0 25 2 39h33q-2 -14 -2 -39q0 -188 209 -188z" />
    <glyph glyph-name="Aogonek" unicode="&#x104;" horiz-adv-x="1298" 
d="M987 778q-74 438 -110 647h-3l-567 -847h715zM920 -274q0 -80 88 -80q37 0 67 10l-8 -35q-33 -8 -59 -8q-121 0 -121 113q0 68 52 134t181 152l-92 533h-741l-365 -545h-39l975 1458h45l252 -1458q-135 -90 -185 -153.5t-50 -120.5z" />
    <glyph glyph-name="aogonek" unicode="&#x105;" horiz-adv-x="1011" 
d="M55 238q0 -106 70 -166t192 -60q176 0 298 108.5t171 305.5l39 156q-227 -18 -401 -47q-369 -55 -369 -297zM858 766q0 262 -282 262q-137 0 -233.5 -83t-127.5 -218h-35q35 152 142.5 243t256 91t230.5 -75t82 -220q0 -53 -21 -135l-102 -408q-32 -132 -37 -223
q-135 -90 -185 -153.5t-50 -120.5q0 -80 88 -80q37 0 67 10l-8 -35q-33 -8 -59 -8q-121 0 -121 113q0 70 53 135t184 153q8 74 45 228h-2q-138 -262 -426 -262q-137 0 -215.5 69.5t-78.5 189.5t92 209t307 119q156 23 412 47l6 25q18 74 18 127z" />
    <glyph glyph-name="Cacute" unicode="&#x106;" horiz-adv-x="1353" 
d="M1339 1026q0 -25 -4 -74h-32q4 49 4 74q0 186 -104.5 303t-316.5 117t-379 -139.5t-254 -350.5t-87 -436t117.5 -366.5t325.5 -141.5t366 121t223 311h35q-70 -209 -237 -336.5t-388 -127.5t-348 150.5t-127 388t91 455.5t265.5 361.5t398.5 143.5t337.5 -127t113.5 -326
zM829 1556l281 259h49l-287 -259h-43z" />
    <glyph glyph-name="cacute" unicode="&#x107;" horiz-adv-x="1009" 
d="M956 719q0 -18 -2 -31h-32q2 12 2 31q0 143 -78 226t-226.5 83t-265 -103.5t-177 -257t-60.5 -312t81 -251t228 -92.5t259 84t159 226h35q-51 -156 -172 -249t-282 -93t-251 101t-90 271.5t64.5 332t189.5 269t284.5 107.5t246.5 -92t87 -250zM557 1176l258 282h47
l-266 -282h-39z" />
    <glyph glyph-name="Ccircumflex" unicode="&#x108;" horiz-adv-x="1353" 
d="M1339 1026q0 -25 -4 -74h-32q4 49 4 74q0 186 -104.5 303t-316.5 117t-379 -139.5t-254 -350.5t-87 -436t117.5 -366.5t325.5 -141.5t366 121t223 311h35q-70 -209 -237 -336.5t-388 -127.5t-348 150.5t-127 388t91 455.5t265.5 361.5t398.5 143.5t337.5 -127t113.5 -326
zM1026 1815l180 -259h-39l-159 228l-275 -228h-51l311 259h33z" />
    <glyph glyph-name="ccircumflex" unicode="&#x109;" horiz-adv-x="1009" 
d="M956 719q0 -18 -2 -31h-32q2 12 2 31q0 143 -78 226t-226.5 83t-265 -103.5t-177 -257t-60.5 -312t81 -251t228 -92.5t259 84t159 226h35q-51 -156 -172 -249t-282 -93t-251 101t-90 271.5t64.5 332t189.5 269t284.5 107.5t246.5 -92t87 -250zM877 1176l-154 251
l-279 -251h-49l314 282h32l174 -282h-38z" />
    <glyph glyph-name="Cdotaccent" unicode="&#x10a;" horiz-adv-x="1353" 
d="M1339 1026q0 -25 -4 -74h-32q4 49 4 74q0 186 -104.5 303t-316.5 117t-379 -139.5t-254 -350.5t-87 -436t117.5 -366.5t325.5 -141.5t366 121t223 311h35q-70 -209 -237 -336.5t-388 -127.5t-348 150.5t-127 388t91 455.5t265.5 361.5t398.5 143.5t337.5 -127t113.5 -326
zM938 1595l41 158h33l-41 -158h-33z" />
    <glyph glyph-name="cdotaccent" unicode="&#x10b;" horiz-adv-x="1009" 
d="M956 719q0 -18 -2 -31h-32q2 12 2 31q0 143 -78 226t-226.5 83t-265 -103.5t-177 -257t-60.5 -312t81 -251t228 -92.5t259 84t159 226h35q-51 -156 -172 -249t-282 -93t-251 101t-90 271.5t64.5 332t189.5 269t284.5 107.5t246.5 -92t87 -250zM670 1300l39 158h32
l-39 -158h-32z" />
    <glyph glyph-name="Ccaron" unicode="&#x10c;" horiz-adv-x="1353" 
d="M1339 1026q0 -25 -4 -74h-32q4 49 4 74q0 186 -104.5 303t-316.5 117t-379 -139.5t-254 -350.5t-87 -436t117.5 -366.5t325.5 -141.5t366 121t223 311h35q-70 -209 -237 -336.5t-388 -127.5t-348 150.5t-127 388t91 455.5t265.5 361.5t398.5 143.5t337.5 -127t113.5 -326
zM928 1556l-180 259h38l160 -228l275 228h51l-311 -259h-33z" />
    <glyph glyph-name="ccaron" unicode="&#x10d;" horiz-adv-x="1009" 
d="M956 719q0 -18 -2 -31h-32q2 12 2 31q0 143 -78 226t-226.5 83t-265 -103.5t-177 -257t-60.5 -312t81 -251t228 -92.5t259 84t159 226h35q-51 -156 -172 -249t-282 -93t-251 101t-90 271.5t64.5 332t189.5 269t284.5 107.5t246.5 -92t87 -250zM639 1176l-174 282h39
l153 -252l279 252h49l-313 -282h-33z" />
    <glyph glyph-name="Dcaron" unicode="&#x10e;" horiz-adv-x="1449" 
d="M537 33q281 0 470 121.5t278 307t89 378.5q0 287 -155.5 436t-458.5 149h-287l-346 -1392h410zM1407 840q0 -203 -94 -395.5t-290 -318.5t-486 -126h-451l363 1458h311q317 0 482 -159.5t165 -458.5zM897 1556l-180 259h39l159 -228l275 228h51l-311 -259h-33z" />
    <glyph glyph-name="dcaron" unicode="&#x10f;" horiz-adv-x="1112" 
d="M115 360q0 -158 78 -254q77 -94 227 -94t262 106t169 259q58 153 58 309t-78 249t-227 93t-262 -102t-170 -255t-57 -311zM82 356q0 170 62 332q62 160 182 266t284 106t249 -109q85 -110 75 -285h2q16 86 59 258l133 534h33l-364 -1458h-33l6 25q43 172 72 264h-2
q-149 -309 -439 -309q-145 0 -232 103t-87 273zM1194 1102l170 356h37l-176 -356h-31z" />
    <glyph glyph-name="Dcroat" unicode="&#x110;" horiz-adv-x="1449" 
d="M1374 840q0 287 -155.5 436t-458.5 149h-287l-168 -671h524l-8 -33h-522l-172 -688h410q280 0 469.5 121.5t278.5 307t89 378.5zM1407 840q0 -203 -94 -395.5t-290 -318.5t-486 -126h-451l180 721h-125l9 33h122l177 704h311q317 0 482 -159.5t165 -458.5z" />
    <glyph glyph-name="dcroat" unicode="&#x111;" horiz-adv-x="1114" 
d="M909 686q0 156 -77.5 249t-227.5 93t-262.5 -102.5t-169.5 -255t-57 -310.5t77.5 -253t227.5 -95t261.5 105.5t169.5 259t58 309.5zM82 356q0 170 62.5 331t181 267.5t283.5 106.5t250 -109.5t75 -285.5h2q16 86 59 258l74 297h-315l8 32h315l51 205h33l-51 -205h115
l-8 -32h-115l-305 -1221h-33l6 25q43 172 72 264h-2q-148 -309 -438 -309q-146 0 -233 103t-87 273z" />
    <glyph glyph-name="Emacron" unicode="&#x112;" horiz-adv-x="1200" 
d="M473 1425l-164 -659h766l-8 -33h-766l-174 -700h829l-8 -33h-862l363 1458h833l-8 -33h-801zM659 1642l9 33h462l-8 -33h-463z" />
    <glyph glyph-name="emacron" unicode="&#x113;" horiz-adv-x="1054" 
d="M952 694q0 160 -83 247t-243.5 87t-294.5 -128t-190 -337h791q20 61 20 131zM115 365q0 -168 80.5 -260.5t228 -92.5t263.5 80t167 213h35q-55 -150 -181 -237.5t-286 -87.5t-250 101t-90 271.5t66.5 332t193.5 269t293 107.5t258 -96.5t92 -270.5q0 -76 -27 -164h-825
q-18 -87 -18 -165zM455 1327l8 33h463l-8 -33h-463z" />
    <glyph glyph-name="Ebreve" unicode="&#x114;" horiz-adv-x="1200" 
d="M473 1425l-164 -659h766l-8 -33h-766l-174 -700h829l-8 -33h-862l363 1458h833l-8 -33h-801zM886 1554q-124 0 -185.5 57.5t-61.5 164.5q0 25 2 39h33q-2 -14 -2 -39q0 -188 209 -189q231 0 315 228h35q-41 -125 -131 -193t-214 -68z" />
    <glyph glyph-name="ebreve" unicode="&#x115;" horiz-adv-x="1054" 
d="M952 694q0 160 -83 247t-243.5 87t-294.5 -128t-190 -337h791q20 61 20 131zM115 365q0 -168 80.5 -260.5t228 -92.5t263.5 80t167 213h35q-55 -150 -181 -237.5t-286 -87.5t-250 101t-90 271.5t66.5 332t193.5 269t293 107.5t258 -96.5t92 -270.5q0 -76 -27 -164h-825
q-18 -87 -18 -165zM664 1231q230 0 315 227h35q-41 -125 -131 -192.5t-214 -67.5t-185.5 57.5t-61.5 163.5q0 25 2 39h33q-2 -14 -2 -39q0 -188 209 -188z" />
    <glyph glyph-name="Edotaccent" unicode="&#x116;" horiz-adv-x="1200" 
d="M473 1425l-164 -659h766l-8 -33h-766l-174 -700h829l-8 -33h-862l363 1458h833l-8 -33h-801zM864 1595l41 158h33l-41 -158h-33z" />
    <glyph glyph-name="edotaccent" unicode="&#x117;" horiz-adv-x="1054" 
d="M952 694q0 160 -83 247t-243.5 87t-294.5 -128t-190 -337h791q20 61 20 131zM115 365q0 -168 80.5 -260.5t228 -92.5t263.5 80t167 213h35q-55 -150 -181 -237.5t-286 -87.5t-250 101t-90 271.5t66.5 332t193.5 269t293 107.5t258 -96.5t92 -270.5q0 -76 -27 -164h-825
q-18 -87 -18 -165zM664 1300l38 158h33l-39 -158h-32z" />
    <glyph glyph-name="Eogonek" unicode="&#x118;" horiz-adv-x="1200" 
d="M713 -274q0 -80 88 -80q37 0 67 10l-8 -35q-33 -8 -59 -8q-121 0 -121 113q0 66 48 129t167 145h-809l363 1458h833l-8 -33h-801l-164 -659h766l-8 -33h-766l-174 -700h829l-8 -33q-135 -90 -185 -153.5t-50 -120.5z" />
    <glyph glyph-name="eogonek" unicode="&#x119;" horiz-adv-x="1052" 
d="M950 694q0 160 -83 247t-243 87t-294.5 -128t-190.5 -337h791q20 61 20 131zM391 -274q0 -80 88 -80q37 0 68 10l-8 -35q-33 -8 -60 -8q-121 0 -121 113q0 66 50.5 130t173.5 152v2q-74 -31 -156 -30q-166 0 -256 101t-90 271t66.5 332t193.5 269.5t293 107.5t258 -96.5
t92 -270.5q0 -76 -27 -164h-825q-18 -87 -18 -165q0 -168 80.5 -260.5t228.5 -92.5t263.5 80t166.5 213h35q-31 -86 -91 -154.5t-180 -149.5q-224 -152 -225 -275z" />
    <glyph glyph-name="Ecaron" unicode="&#x11a;" horiz-adv-x="1200" 
d="M473 1425l-164 -659h766l-8 -33h-766l-174 -700h829l-8 -33h-862l363 1458h833l-8 -33h-801zM854 1556l-180 259h39l159 -228l275 228h51l-311 -259h-33z" />
    <glyph glyph-name="ecaron" unicode="&#x11b;" horiz-adv-x="1054" 
d="M952 694q0 160 -83 247t-243.5 87t-294.5 -128t-190 -337h791q20 61 20 131zM115 365q0 -168 80.5 -260.5t228 -92.5t263.5 80t167 213h35q-55 -150 -181 -237.5t-286 -87.5t-250 101t-90 271.5t66.5 332t193.5 269t293 107.5t258 -96.5t92 -270.5q0 -76 -27 -164h-825
q-18 -87 -18 -165zM633 1176l-174 282h39l153 -252l279 252h49l-313 -282h-33z" />
    <glyph glyph-name="Gcircumflex" unicode="&#x11c;" horiz-adv-x="1429" 
d="M1372 1069q0 -23 -4 -63h-33q4 37 4 63q0 174 -106.5 275.5t-326.5 101.5t-392 -136t-260 -346t-88 -437.5t116.5 -371t325.5 -143.5t386 151.5t261 495.5h-485l8 33h518l-172 -692h-32l49 197q33 135 59 215h-2q-80 -203 -234.5 -317.5t-366.5 -114.5t-338 152.5
t-126 392t92 456.5t272.5 357.5t412 140.5t347 -111t115.5 -299zM1022 1815l180 -259h-39l-159 228l-275 -228h-51l311 259h33z" />
    <glyph glyph-name="gcircumflex" unicode="&#x11d;" horiz-adv-x="1116" 
d="M123 387.5q0 -155.5 75.5 -249t226.5 -93.5t263.5 103.5t169.5 252t57 296t-74.5 239.5t-223 92t-263 -97t-173 -242.5t-58.5 -301zM322 -387q-156 0 -246 68.5t-90 191.5q0 31 6 61h33q-6 -35 -7 -61q0 -109 80 -168t224 -59q356 0 460 417q45 180 72 265h-2
q-68 -150 -180.5 -233t-262 -83t-234.5 102.5t-85 270.5t62.5 320.5t184.5 254t281.5 101.5t242.5 -98.5t79 -282.5h2q23 115 70 303l14 57h33l-246 -985q-111 -442 -491 -442zM920 1176l-154 251l-279 -251h-49l314 282h32l174 -282h-38z" />
    <glyph glyph-name="Gbreve" unicode="&#x11e;" horiz-adv-x="1429" 
d="M1372 1069q0 -23 -4 -63h-33q4 37 4 63q0 174 -106.5 275.5t-326.5 101.5t-392 -136t-260 -346t-88 -437.5t116.5 -371t325.5 -143.5t386 151.5t261 495.5h-485l8 33h518l-172 -692h-32l49 197q33 135 59 215h-2q-80 -203 -234.5 -317.5t-366.5 -114.5t-338 152.5
t-126 392t92 456.5t272.5 357.5t412 140.5t347 -111t115.5 -299zM955 1554q-124 0 -185 57.5t-61 164.5q0 25 2 39h32q-2 -14 -2 -39q0 -188 209 -189q232 0 316 228h34q-40 -125 -130.5 -193t-214.5 -68z" />
    <glyph glyph-name="gbreve" unicode="&#x11f;" horiz-adv-x="1116" 
d="M123 387.5q0 -155.5 75.5 -249t226.5 -93.5t263.5 103.5t169.5 252t57 296t-74.5 239.5t-223 92t-263 -97t-173 -242.5t-58.5 -301zM322 -387q-156 0 -246 68.5t-90 191.5q0 31 6 61h33q-6 -35 -7 -61q0 -109 80 -168t224 -59q356 0 460 417q45 180 72 265h-2
q-68 -150 -180.5 -233t-262 -83t-234.5 102.5t-85 270.5t62.5 320.5t184.5 254t281.5 101.5t242.5 -98.5t79 -282.5h2q23 115 70 303l14 57h33l-246 -985q-111 -442 -491 -442zM713 1231q230 0 315 227h35q-41 -125 -131 -192.5t-214 -67.5t-185.5 57.5t-61.5 163.5
q0 25 2 39h33q-2 -14 -2 -39q0 -188 209 -188z" />
    <glyph glyph-name="Gdotaccent" unicode="&#x120;" horiz-adv-x="1429" 
d="M1372 1069q0 -23 -4 -63h-33q4 37 4 63q0 174 -106.5 275.5t-326.5 101.5t-392 -136t-260 -346t-88 -437.5t116.5 -371t325.5 -143.5t386 151.5t261 495.5h-485l8 33h518l-172 -692h-32l49 197q33 135 59 215h-2q-80 -203 -234.5 -317.5t-366.5 -114.5t-338 152.5
t-126 392t92 456.5t272.5 357.5t412 140.5t347 -111t115.5 -299zM934 1595l41 158h33l-41 -158h-33z" />
    <glyph glyph-name="gdotaccent" unicode="&#x121;" horiz-adv-x="1116" 
d="M123 387.5q0 -155.5 75.5 -249t226.5 -93.5t263.5 103.5t169.5 252t57 296t-74.5 239.5t-223 92t-263 -97t-173 -242.5t-58.5 -301zM322 -387q-156 0 -246 68.5t-90 191.5q0 31 6 61h33q-6 -35 -7 -61q0 -109 80 -168t224 -59q356 0 460 417q45 180 72 265h-2
q-68 -150 -180.5 -233t-262 -83t-234.5 102.5t-85 270.5t62.5 320.5t184.5 254t281.5 101.5t242.5 -98.5t79 -282.5h2q23 115 70 303l14 57h33l-246 -985q-111 -442 -491 -442zM713 1300l39 158h32l-39 -158h-32z" />
    <glyph glyph-name="Gcommaaccent" unicode="&#x122;" horiz-adv-x="1429" 
d="M1372 1069q0 -23 -4 -63h-33q4 37 4 63q0 174 -106.5 275.5t-326.5 101.5t-392 -136t-260 -346t-88 -437.5t116.5 -371t325.5 -143.5t386 151.5t261 495.5h-485l8 33h518l-172 -692h-32l49 197q33 135 59 215h-2q-80 -203 -234.5 -317.5t-366.5 -114.5t-338 152.5
t-126 392t92 456.5t272.5 357.5t412 140.5t347 -111t115.5 -299zM446 -489h-28l106 192l33 135h33l-33 -135z" />
    <glyph glyph-name="gcommaaccent" unicode="&#x123;" horiz-adv-x="1116" 
d="M123 387.5q0 -155.5 75.5 -249t226.5 -93.5t263.5 103.5t169.5 252t57 296t-74.5 239.5t-223 92t-263 -97t-173 -242.5t-58.5 -301zM322 -387q-156 0 -246 68.5t-90 191.5q0 31 6 61h33q-6 -35 -7 -61q0 -109 80 -168t224 -59q356 0 460 417q45 180 72 265h-2
q-68 -150 -180.5 -233t-262 -83t-234.5 102.5t-85 270.5t62.5 320.5t184.5 254t281.5 101.5t242.5 -98.5t79 -282.5h2q23 115 70 303l14 57h33l-246 -985q-111 -442 -491 -442zM692 1202h-33l33 135l109 193h30l-106 -193z" />
    <glyph glyph-name="Hcircumflex" unicode="&#x124;" horiz-adv-x="1443" 
d="M1067 0l184 741h-948l-184 -741h-33l363 1458h32l-170 -684h949l170 684h32l-362 -1458h-33zM1063 1815l180 -259h-39l-160 228l-274 -228h-51l311 259h33z" />
    <glyph glyph-name="hcircumflex" unicode="&#x125;" horiz-adv-x="1101" 
d="M977 774q0 -70 -25 -166l-151 -608h-33l154 616q23 94 22 158q0 125 -66.5 189.5t-176 64.5t-199.5 -48t-156.5 -134t-93.5 -195l-162 -651h-33l363 1458h33l-103 -418q-39 -156 -67 -243h2q70 127 178 195.5t235 68.5t203 -74t76 -213zM891 1815l180 -259h-39l-160 228
l-274 -228h-51l311 259h33z" />
    <glyph glyph-name="Hbar" unicode="&#x126;" horiz-adv-x="1443" 
d="M422 1221l-111 -447h949l110 447h-948zM1403 1221l-303 -1221h-33l184 741h-948l-184 -741h-33l303 1221h-123l8 32h123l52 205h32l-51 -205h948l52 205h32l-51 -205h123l-8 -32h-123z" />
    <glyph glyph-name="hbar" unicode="&#x127;" horiz-adv-x="1101" 
d="M977 774q0 -70 -25 -166l-151 -608h-33l154 616q23 94 22 158q0 125 -66.5 189.5t-176 64.5t-199.5 -48t-156.5 -134t-93.5 -195l-162 -651h-33l303 1221h-114l8 32h115l51 205h33l-52 -205h316l-8 -32h-314l-45 -181q-39 -156 -67 -243h2q70 127 178 195.5t235 68.5
t203 -74t76 -213z" />
    <glyph glyph-name="Itilde" unicode="&#x128;" horiz-adv-x="462" 
d="M86 0l363 1458h32l-362 -1458h-33zM674 1628q-51 0 -83 17.5t-71 51.5t-65.5 49t-68.5 15t-80 -33.5t-58 -99.5h-35q27 80 74 123t98 43t83 -17.5t71 -51.5t65.5 -49t68.5 -15t80 34t58 99h35q-27 -80 -74 -123t-98 -43z" />
    <glyph glyph-name="itilde" unicode="&#x129;" horiz-adv-x="405" 
d="M57 0l258 1040h33l-258 -1040h-33zM532.5 1272q-45.5 0 -72 17.5t-58.5 51t-54 49t-53 15.5q-82 0 -123 -133h-37q27 80 70 123t87 43t70.5 -17.5t58.5 -51.5t54.5 -49t52.5 -15q84 0 125 133h35q-24 -80 -67 -123t-88.5 -43z" />
    <glyph glyph-name="Imacron" unicode="&#x12a;" horiz-adv-x="462" 
d="M86 0l363 1458h32l-362 -1458h-33zM279 1642l8 33h463l-9 -33h-462z" />
    <glyph glyph-name="imacron" unicode="&#x12b;" horiz-adv-x="405" 
d="M57 0l258 1040h33l-258 -1040h-33zM213 1327l8 33h381l-8 -33h-381z" />
    <glyph glyph-name="Ibreve" unicode="&#x12c;" horiz-adv-x="462" 
d="M86 0l363 1458h32l-362 -1458h-33zM505 1554q-124 0 -185.5 57.5t-61.5 164.5q0 25 2 39h33q-2 -14 -2 -39q0 -188 209 -189q231 0 315 228h35q-41 -125 -131 -193t-214 -68z" />
    <glyph glyph-name="ibreve" unicode="&#x12d;" horiz-adv-x="405" 
d="M57 0l258 1040h33l-258 -1040h-33zM381 1231q188 0 264 227h33q-39 -125 -115 -192.5t-175 -67.5t-148.5 54.5t-49.5 152.5q0 25 5 53h30q-4 -29 -4 -53q0 -174 160 -174z" />
    <glyph glyph-name="Iogonek" unicode="&#x12e;" horiz-adv-x="462" 
d="M-117 -274q0 -80 88 -80q37 0 68 10l-8 -35q-33 -8 -60 -8q-121 0 -121 113q0 70 53.5 136t186.5 154l359 1442h32l-362 -1458q-135 -90 -185.5 -153.5t-50.5 -120.5z" />
    <glyph glyph-name="iogonek" unicode="&#x12f;" horiz-adv-x="405" 
d="M-145 -274q0 -80 88 -80q37 0 67 10l-8 -35q-33 -8 -59 -8q-121 0 -121 113q0 70 53 136t186 154l254 1024h33l-258 -1040q-135 -90 -185 -153.5t-50 -120.5zM414 1300h-33l39 158h33z" />
    <glyph glyph-name="Idotaccent" unicode="&#x130;" horiz-adv-x="462" 
d="M86 0l363 1458h32l-362 -1458h-33zM483 1595l41 158h33l-41 -158h-33z" />
    <glyph glyph-name="dotlessi" unicode="&#x131;" horiz-adv-x="405" 
d="M57 0l258 1040h33l-258 -1040h-33z" />
    <glyph glyph-name="IJ" unicode="&#x132;" horiz-adv-x="1083" 
d="M86 0l363 1458h32l-362 -1458h-33zM451 -8q-45 0 -86 12l8 31q37 -10 78 -10q131 0 222 82.5t130 242.5l276 1108h33l-278 -1116q-43 -172 -142.5 -261t-240.5 -89z" />
    <glyph glyph-name="ij" unicode="&#x133;" horiz-adv-x="833" 
d="M205 -383q-25 0 -41 6l8 31q12 -4 33 -4q96 0 158.5 57t99.5 203l280 1130h33l-282 -1138q-39 -156 -111 -220.5t-178 -64.5zM57 0l258 1040h33l-258 -1040h-33zM809 1300l39 158h33l-39 -158h-33zM381 1300l39 158h33l-39 -158h-33z" />
    <glyph glyph-name="Jcircumflex" unicode="&#x134;" horiz-adv-x="620" 
d="M-12 -8q-45 0 -86 12l8 31q37 -10 78 -10q131 0 222 82.5t130 242.5l276 1108h33l-278 -1116q-43 -172 -142.5 -261t-240.5 -89zM739 1815l181 -259h-39l-160 228l-275 -228h-51l312 259h32z" />
    <glyph glyph-name="jcircumflex" unicode="&#x135;" horiz-adv-x="428" 
d="M-201 -383q-25 0 -41 6l9 31q12 -4 32 -4q96 0 158.5 57t99.5 203l281 1130h33l-283 -1138q-39 -156 -110.5 -220.5t-178.5 -64.5zM567 1178l-112 247l-238 -247h-45l268 280h35l129 -280h-37z" />
    <glyph glyph-name="Kcommaaccent" unicode="&#x136;" horiz-adv-x="1089" 
d="M952 0h-41l-604 754h-2l-186 -754h-33l363 1458h32l-170 -680h2l883 680h53l-905 -696zM334 -489h-29l107 192l32 135h33l-33 -135z" />
    <glyph glyph-name="kcommaaccent" unicode="&#x137;" horiz-adv-x="899" 
d="M778 0h-43l-506 555h-2l-137 -555h-33l363 1458h33l-220 -880h3l684 462h57l-709 -479zM231 -489h-28l106 192l33 135h33l-33 -135z" />
    <glyph glyph-name="kgreenlandic" unicode="&#x138;" horiz-adv-x="927" 
d="M778 0h-43l-506 555h-2l-137 -555h-33l258 1040h33l-115 -462h3l684 462h57l-709 -479z" />
    <glyph glyph-name="Lacute" unicode="&#x139;" horiz-adv-x="1075" 
d="M944 33l-8 -33h-850l363 1458h32l-354 -1425h817zM457 1556l280 259h49l-286 -259h-43z" />
    <glyph glyph-name="lacute" unicode="&#x13a;" horiz-adv-x="405" 
d="M57 0l363 1458h33l-363 -1458h-33zM451 1593l258 283h47l-267 -283h-38z" />
    <glyph glyph-name="Lcommaaccent" unicode="&#x13b;" horiz-adv-x="1075" 
d="M944 33l-8 -33h-850l363 1458h32l-354 -1425h817zM344 -489h-29l107 192l33 135h32l-32 -135z" />
    <glyph glyph-name="lcommaaccent" unicode="&#x13c;" horiz-adv-x="405" 
d="M57 0l363 1458h33l-363 -1458h-33zM-84 -489h-29l107 192l33 135h32l-32 -135z" />
    <glyph glyph-name="Lcaron" unicode="&#x13d;" horiz-adv-x="1075" 
d="M944 33l-8 -33h-850l363 1458h32l-354 -1425h817zM537 1020l192 438h35l-199 -438h-28z" />
    <glyph glyph-name="lcaron" unicode="&#x13e;" horiz-adv-x="405" 
d="M57 0l363 1458h33l-363 -1458h-33zM487 1102l170 356h37l-176 -356h-31z" />
    <glyph glyph-name="Ldot" unicode="&#x13f;" horiz-adv-x="1239" 
d="M944 33l-8 -33h-850l363 1458h32l-354 -1425h817zM885 727l37 147h36l-36 -147h-37z" />
    <glyph glyph-name="ldot" unicode="&#x140;" horiz-adv-x="622" 
d="M57 0l363 1458h33l-363 -1458h-33zM528 651l37 148h37l-37 -148h-37z" />
    <glyph glyph-name="Lslash" unicode="&#x141;" horiz-adv-x="1075" 
d="M936 0h-850l162 649l-189 -98l11 41l188 98l191 768h32l-186 -749l387 200l-8 -41l-389 -202l-158 -633h817z" />
    <glyph glyph-name="lslash" unicode="&#x142;" horiz-adv-x="483" 
d="M336 827l-207 -827h-33l201 811l-236 -123l11 41l235 123l152 606h33l-148 -590l236 123l-11 -41z" />
    <glyph glyph-name="Nacute" unicode="&#x143;" horiz-adv-x="1470" 
d="M1077 0l-602 1427h-2l-354 -1427h-33l363 1458h49l286 -682q150 -349 314 -745h2l356 1427h33l-363 -1458h-49zM879 1556l280 259h49l-286 -259h-43z" />
    <glyph glyph-name="nacute" unicode="&#x144;" horiz-adv-x="1099" 
d="M975 774q0 -70 -25 -166l-151 -608h-33l154 616q23 94 22 158q0 125 -66.5 189.5t-176 64.5t-199.5 -48t-157 -134t-93 -195l-162 -651h-33l260 1040h33q-39 -156 -67 -243h2q70 127 178 195.5t235 68.5t203 -74t76 -213zM614 1176l258 282h48l-267 -282h-39z" />
    <glyph glyph-name="Ncommaaccent" unicode="&#x145;" horiz-adv-x="1470" 
d="M1077 0l-602 1427h-2l-354 -1427h-33l363 1458h49l286 -682q150 -349 314 -745h2l356 1427h33l-363 -1458h-49zM438 -489h-28l106 192l33 135h33l-33 -135z" />
    <glyph glyph-name="ncommaaccent" unicode="&#x146;" horiz-adv-x="1099" 
d="M975 774q0 -70 -25 -166l-151 -608h-33l154 616q23 94 22 158q0 125 -66.5 189.5t-176 64.5t-199.5 -48t-157 -134t-93 -195l-162 -651h-33l260 1040h33q-39 -156 -67 -243h2q70 127 178 195.5t235 68.5t203 -74t76 -213zM252 -489h-29l107 192l32 135h33l-33 -135z" />
    <glyph glyph-name="Ncaron" unicode="&#x147;" horiz-adv-x="1470" 
d="M1077 0l-602 1427h-2l-354 -1427h-33l363 1458h49l286 -682q150 -349 314 -745h2l356 1427h33l-363 -1458h-49zM977 1556l-180 259h39l159 -228l275 228h51l-311 -259h-33z" />
    <glyph glyph-name="ncaron" unicode="&#x148;" horiz-adv-x="1099" 
d="M975 774q0 -70 -25 -166l-151 -608h-33l154 616q23 94 22 158q0 125 -66.5 189.5t-176 64.5t-199.5 -48t-157 -134t-93 -195l-162 -651h-33l260 1040h33q-39 -156 -67 -243h2q70 127 178 195.5t235 68.5t203 -74t76 -213zM696 1176l-174 282h39l154 -252l278 252h49
l-313 -282h-33z" />
    <glyph glyph-name="napostrophe" unicode="&#x149;" horiz-adv-x="1181" 
d="M258 1053h-29l131 260l37 145h33l-37 -145zM1057 774q0 -70 -25 -166l-151 -608h-33l153 616q23 94 23 158q0 125 -66.5 189.5t-176 64.5t-199.5 -48t-157 -134t-93 -195l-162 -651h-33l260 1040h33q-39 -156 -68 -243h3q70 127 178 195.5t235 68.5t203 -74t76 -213z" />
    <glyph glyph-name="Eng" unicode="&#x14a;" horiz-adv-x="1470" 
d="M815 -383q-25 0 -43 6l8 31q16 -4 35 -4q96 0 157.5 58.5t98.5 205.5l21 84l-615 1429h-2l-356 -1427h-33l363 1458h51l604 -1403h2l350 1403h33l-387 -1556q-39 -156 -109.5 -220.5t-177.5 -64.5z" />
    <glyph glyph-name="eng" unicode="&#x14b;" horiz-adv-x="1099" 
d="M975 774q0 -74 -25 -166l-178 -714q-39 -152 -108.5 -214.5t-176.5 -62.5q-27 0 -43 6l9 31q12 -4 34 -4q96 0 158 55t96 197l179 714q23 94 22 158q0 125 -66 189.5t-176 64.5t-200 -48t-157 -134t-93 -195l-162 -651h-33l260 1040h33q-39 -156 -67 -243h2
q70 127 178 195.5t235 68.5t203 -74t76 -213z" />
    <glyph glyph-name="Omacron" unicode="&#x14c;" horiz-adv-x="1437" 
d="M170 559q0 -248 128 -397.5t353 -149.5t388 135.5t248 342t85 409.5q0 248 -128 397.5t-353 149.5t-388 -135t-248 -342t-85 -410zM1405 878.5q0 -192.5 -89 -405.5t-260 -353t-401 -140q-162 0 -279.5 72.5t-178 203.5t-60.5 323.5t89 405.5t260 353.5t401 140.5
q162 0 279.5 -73t178 -204t60.5 -323.5zM717 1642l8 33h463l-8 -33h-463z" />
    <glyph glyph-name="omacron" unicode="&#x14d;" horiz-adv-x="1081" 
d="M119 373q0 -162 87 -261.5t248 -99.5t274.5 98.5t171.5 246t58 309t-87 262t-247.5 100.5t-274 -98.5t-172 -246.5t-58.5 -310zM991 668.5q0 -173.5 -62.5 -329t-184 -257.5t-293.5 -102t-268.5 108.5t-96.5 282.5t62.5 328.5t184.5 258t293 103.5t268 -109.5t97 -283z
M469 1327l8 33h463l-8 -33h-463z" />
    <glyph glyph-name="Obreve" unicode="&#x14e;" horiz-adv-x="1437" 
d="M170 559q0 -248 128 -397.5t353 -149.5t388 135.5t248 342t85 409.5q0 248 -128 397.5t-353 149.5t-388 -135t-248 -342t-85 -410zM1405 878.5q0 -192.5 -89 -405.5t-260 -353t-401 -140q-162 0 -279.5 72.5t-178 203.5t-60.5 323.5t89 405.5t260 353.5t401 140.5
q162 0 279.5 -73t178 -204t60.5 -323.5zM943 1554q-124 0 -185.5 57.5t-61.5 164.5q0 25 2 39h33q-2 -14 -2 -39q0 -188 209 -189q231 0 315 228h35q-41 -125 -131 -193t-214 -68z" />
    <glyph glyph-name="obreve" unicode="&#x14f;" horiz-adv-x="1081" 
d="M119 373q0 -162 87 -261.5t248 -99.5t274.5 98.5t171.5 246t58 309t-87 262t-247.5 100.5t-274 -98.5t-172 -246.5t-58.5 -310zM991 668.5q0 -173.5 -62.5 -329t-184 -257.5t-293.5 -102t-268.5 108.5t-96.5 282.5t62.5 328.5t184.5 258t293 103.5t268 -109.5t97 -283z
M678 1231q230 0 315 227h35q-41 -125 -131 -192.5t-214 -67.5t-185.5 57.5t-61.5 163.5q0 25 2 39h33q-2 -14 -2 -39q0 -188 209 -188z" />
    <glyph glyph-name="Ohungarumlaut" unicode="&#x150;" horiz-adv-x="1437" 
d="M170 559q0 -248 128 -397.5t353 -149.5t388 135.5t248 342t85 409.5q0 248 -128 397.5t-353 149.5t-388 -135t-248 -342t-85 -410zM1405 878.5q0 -192.5 -89 -405.5t-260 -353t-401 -140q-162 0 -279.5 72.5t-178 203.5t-60.5 323.5t89 405.5t260 353.5t401 140.5
q162 0 279.5 -73t178 -204t60.5 -323.5zM956 1556l312 259h53l-322 -259h-43zM754 1556l311 259h53l-321 -259h-43z" />
    <glyph glyph-name="ohungarumlaut" unicode="&#x151;" horiz-adv-x="1081" 
d="M119 373q0 -162 87 -261.5t248 -99.5t274.5 98.5t171.5 246t58 309t-87 262t-247.5 100.5t-274 -98.5t-172 -246.5t-58.5 -310zM991 668.5q0 -173.5 -62.5 -329t-184 -257.5t-293.5 -102t-268.5 108.5t-96.5 282.5t62.5 328.5t184.5 258t293 103.5t268 -109.5t97 -283z
M692 1176l316 282h53l-326 -282h-43zM489 1176l316 282h53l-326 -282h-43z" />
    <glyph glyph-name="OE" unicode="&#x152;" horiz-adv-x="1972" 
d="M180 618q0 -285 137.5 -435t405.5 -150h143l346 1392h-225q-270 0 -452.5 -121.5t-268.5 -307t-86 -378.5zM723 0q-281 0 -428.5 159.5t-147.5 458.5q0 201 90.5 394.5t280 319.5t469.5 126h1067l-8 -33h-801l-164 -659h766l-8 -33h-766l-174 -700h830l-9 -33h-997z" />
    <glyph glyph-name="oe" unicode="&#x153;" horiz-adv-x="1746" 
d="M1647 707q0 156 -73 238.5t-200 82.5q-160 0 -283.5 -128t-179.5 -337h713q23 66 23 144zM881 677q0 159 -74 255t-216 96t-252 -101.5t-166 -253t-56 -311t72.5 -255t216 -95.5t252 101.5t166 253t57.5 310.5zM883 350q0 -162 70.5 -250t201.5 -88t237.5 80t155.5 213
h35q-53 -150 -168 -237.5t-259 -87.5t-224 94t-84 266q-66 -160 -180.5 -260t-266 -100t-234.5 104t-83 275.5t60.5 331t177 265t269 105.5t235.5 -100.5t87 -280.5h2q68 166 186 273.5t266 107.5t230 -93.5t82 -260.5q0 -74 -28 -177h-748q-20 -108 -20 -180z" />
    <glyph glyph-name="Racute" unicode="&#x154;" horiz-adv-x="1210" 
d="M672 733q170 0 283.5 63.5t167 157t53.5 185.5q0 137 -88.5 211.5t-268.5 74.5h-346l-172 -692h371zM1208 1139q0 -94 -48 -185.5t-140 -156t-221 -82.5v-2q74 -25 110.5 -82.5t53.5 -190.5l53 -440h-33l-51 430q-12 104 -37 160.5t-77 83t-146 26.5h-379l-174 -700h-33
l363 1458h370q195 0 292 -85t97 -234zM700 1556l281 259h49l-287 -259h-43z" />
    <glyph glyph-name="racute" unicode="&#x155;" horiz-adv-x="653" 
d="M690 1012q-158 0 -278.5 -104.5t-171.5 -307.5l-150 -600h-33l260 1040h33q-43 -172 -76 -270h2q145 274 422 274q27 0 56 -4l-9 -32q-29 4 -55 4zM457 1176l258 282h47l-266 -282h-39z" />
    <glyph glyph-name="Rcommaaccent" unicode="&#x156;" horiz-adv-x="1210" 
d="M672 733q170 0 283.5 63.5t167 157t53.5 185.5q0 137 -88.5 211.5t-268.5 74.5h-346l-172 -692h371zM1208 1139q0 -94 -48 -185.5t-140 -156t-221 -82.5v-2q74 -25 110.5 -82.5t53.5 -190.5l53 -440h-33l-51 430q-12 104 -37 160.5t-77 83t-146 26.5h-379l-174 -700h-33
l363 1458h370q195 0 292 -85t97 -234zM383 -489h-29l107 192l33 135h32l-32 -135z" />
    <glyph glyph-name="rcommaaccent" unicode="&#x157;" horiz-adv-x="653" 
d="M690 1012q-158 0 -278.5 -104.5t-171.5 -307.5l-150 -600h-33l260 1040h33q-43 -172 -76 -270h2q145 274 422 274q27 0 56 -4l-9 -32q-29 4 -55 4zM-94 -489h-29l107 192l32 135h33l-33 -135z" />
    <glyph glyph-name="Rcaron" unicode="&#x158;" horiz-adv-x="1210" 
d="M672 733q170 0 283.5 63.5t167 157t53.5 185.5q0 137 -88.5 211.5t-268.5 74.5h-346l-172 -692h371zM1208 1139q0 -94 -48 -185.5t-140 -156t-221 -82.5v-2q74 -25 110.5 -82.5t53.5 -190.5l53 -440h-33l-51 430q-12 104 -37 160.5t-77 83t-146 26.5h-379l-174 -700h-33
l363 1458h370q195 0 292 -85t97 -234zM799 1556l-181 259h39l160 -228l275 228h51l-312 -259h-32z" />
    <glyph glyph-name="rcaron" unicode="&#x159;" horiz-adv-x="653" 
d="M690 1012q-158 0 -278.5 -104.5t-171.5 -307.5l-150 -600h-33l260 1040h33q-43 -172 -76 -270h2q145 274 422 274q27 0 56 -4l-9 -32q-29 4 -55 4zM539 1176l-174 282h38l154 -252l279 252h49l-314 -282h-32z" />
    <glyph glyph-name="Sacute" unicode="&#x15a;" horiz-adv-x="1179" 
d="M1126 1137q0 309 -348 309q-166 0 -266 -57.5t-150.5 -145.5t-50.5 -174q0 -121 77 -186.5t229.5 -115.5t229.5 -91t118 -104.5t41 -167.5t-57.5 -203t-173.5 -160t-281 -61q-416 0 -416 356q0 70 20 151h33q-20 -82 -20 -151q0 -324 383 -324q160 0 268 59.5
t159.5 149.5t51.5 185.5t-40 153.5t-111.5 94t-226 86t-235.5 124t-81 188.5t56 209t164.5 156t258.5 61.5q401 0 401 -342q0 -63 -18 -144h-33q18 80 18 144zM668 1556l280 259h49l-286 -259h-43z" />
    <glyph glyph-name="sacute" unicode="&#x15b;" horiz-adv-x="915" 
d="M68 248q0 -236 303 -236q111 0 190.5 38t120.5 101.5t41 147.5t-63.5 132t-209 91t-207 94.5t-61.5 139.5t42 155.5t122 108.5t210 41t213 -67.5t83 -186.5q0 -51 -14 -102h-33q14 51 14 102q0 106 -72.5 163.5t-192 57.5t-191.5 -37t-110 -96t-38 -137t54.5 -121
t201 -86t216 -99.5t69.5 -151.5t-45 -166t-133.5 -112.5t-229.5 -41.5t-227 69.5t-86 198.5q0 53 14 108h33q-14 -55 -14 -108zM485 1176l258 282h48l-267 -282h-39z" />
    <glyph glyph-name="Scircumflex" unicode="&#x15c;" horiz-adv-x="1179" 
d="M1126 1137q0 309 -348 309q-166 0 -266 -57.5t-150.5 -145.5t-50.5 -174q0 -121 77 -186.5t229.5 -115.5t229.5 -91t118 -104.5t41 -167.5t-57.5 -203t-173.5 -160t-281 -61q-416 0 -416 356q0 70 20 151h33q-20 -82 -20 -151q0 -324 383 -324q160 0 268 59.5
t159.5 149.5t51.5 185.5t-40 153.5t-111.5 94t-226 86t-235.5 124t-81 188.5t56 209t164.5 156t258.5 61.5q401 0 401 -342q0 -63 -18 -144h-33q18 80 18 144zM864 1815l180 -259h-38l-160 228l-275 -228h-51l311 259h33z" />
    <glyph glyph-name="scircumflex" unicode="&#x15d;" horiz-adv-x="915" 
d="M68 248q0 -236 303 -236q111 0 190.5 38t120.5 101.5t41 147.5t-63.5 132t-209 91t-207 94.5t-61.5 139.5t42 155.5t122 108.5t210 41t213 -67.5t83 -186.5q0 -51 -14 -102h-33q14 51 14 102q0 106 -72.5 163.5t-192 57.5t-191.5 -37t-110 -96t-38 -137t54.5 -121
t201 -86t216 -99.5t69.5 -151.5t-45 -166t-133.5 -112.5t-229.5 -41.5t-227 69.5t-86 198.5q0 53 14 108h33q-14 -55 -14 -108zM805 1176l-154 251l-278 -251h-49l313 282h33l174 -282h-39z" />
    <glyph glyph-name="Scedilla" unicode="&#x15e;" horiz-adv-x="1179" 
d="M451 -135q139 -1 139 -131q0 -64 -55.5 -109t-149.5 -45t-174 47l16 29q68 -43 153 -43t131 35t46 92q0 94 -106 94q-35 0 -70 -10l-21 22l125 134q-408 4 -407 356q0 70 20 151h33q-20 -82 -20 -151q0 -324 383 -324q160 0 268 59.5t159.5 149.5t51.5 185.5t-40 153.5
t-111.5 94t-226 86t-235.5 124t-81 188.5t56 209t164.5 156t258.5 61.5q401 0 401 -342q0 -63 -18 -144h-33q18 80 18 144q0 309 -348 309q-166 0 -266 -57.5t-150.5 -145.5t-50.5 -174q0 -121 77 -186.5t229.5 -115.5t229.5 -91t118 -104.5t41 -166t-53.5 -196.5
t-161 -157.5t-261.5 -71.5l-112 -119q16 4 33 4z" />
    <glyph glyph-name="scedilla" unicode="&#x15f;" horiz-adv-x="915" 
d="M317 -135q140 -1 140 -131q0 -64 -55.5 -109t-149.5 -45t-174 47l16 29q68 -43 153 -43t131 35t46 92q0 94 -107 94q-35 0 -69 -10l-21 22l125 134q-156 4 -236.5 73.5t-80.5 194.5q0 53 14 108h33q-14 -55 -14 -108q0 -236 303 -236q111 0 190.5 38t120.5 101.5
t41 147.5t-63.5 132t-209 91t-207 94.5t-61.5 139.5t42 155.5t122 108.5t210 41t213 -67.5t83 -186.5q0 -51 -14 -102h-33q14 51 14 102q0 106 -72.5 163.5t-192 57.5t-191.5 -37t-110 -96t-38 -137t54.5 -121t201 -86t216 -99.5t69.5 -149.5t-42 -161.5t-123 -112.5
t-194 -48l-112 -119q16 4 32 4z" />
    <glyph glyph-name="Scaron" unicode="&#x160;" horiz-adv-x="1179" 
d="M1126 1137q0 309 -348 309q-166 0 -266 -57.5t-150.5 -145.5t-50.5 -174q0 -121 77 -186.5t229.5 -115.5t229.5 -91t118 -104.5t41 -167.5t-57.5 -203t-173.5 -160t-281 -61q-416 0 -416 356q0 70 20 151h33q-20 -82 -20 -151q0 -324 383 -324q160 0 268 59.5
t159.5 149.5t51.5 185.5t-40 153.5t-111.5 94t-226 86t-235.5 124t-81 188.5t56 209t164.5 156t258.5 61.5q401 0 401 -342q0 -63 -18 -144h-33q18 80 18 144zM766 1556l-180 259h39l159 -228l275 228h51l-311 -259h-33z" />
    <glyph glyph-name="scaron" unicode="&#x161;" horiz-adv-x="915" 
d="M68 248q0 -236 303 -236q111 0 190.5 38t120.5 101.5t41 147.5t-63.5 132t-209 91t-207 94.5t-61.5 139.5t42 155.5t122 108.5t210 41t213 -67.5t83 -186.5q0 -51 -14 -102h-33q14 51 14 102q0 106 -72.5 163.5t-192 57.5t-191.5 -37t-110 -96t-38 -137t54.5 -121
t201 -86t216 -99.5t69.5 -151.5t-45 -166t-133.5 -112.5t-229.5 -41.5t-227 69.5t-86 198.5q0 53 14 108h33q-14 -55 -14 -108zM567 1176l-174 282h39l154 -252l278 252h49l-313 -282h-33z" />
    <glyph glyph-name="uni0162" unicode="&#x162;" horiz-adv-x="1163" 
d="M823 1425l-354 -1425h-33l355 1425h-555l8 33h1142l-8 -33h-555zM295 -489h-29l107 192l33 135h32l-32 -135z" />
    <glyph glyph-name="uni0163" unicode="&#x163;" horiz-adv-x="552" 
d="M180 -162l-33 -135l-110 -192h-29l107 192l32 135h33zM174 127q0 -98 119 -98q37 0 74 8l-9 -35q-25 -6 -65 -6q-152 0 -152 137q0 45 17 109l192 766h-200l8 32h200l60 240h33l-60 -240h215l-8 -32h-215l-195 -775q-14 -57 -14 -106z" />
    <glyph glyph-name="Tcaron" unicode="&#x164;" horiz-adv-x="1163" 
d="M823 1425l-354 -1425h-33l355 1425h-555l8 33h1142l-8 -33h-555zM803 1556l-180 259h39l159 -228l275 228h51l-311 -259h-33z" />
    <glyph glyph-name="tcaron" unicode="&#x165;" horiz-adv-x="552" 
d="M174 127q0 -98 119 -98q37 0 74 8l-9 -35q-25 -6 -65 -6q-152 0 -152 137q0 45 17 109l192 766h-200l8 32h200l60 240h33l-60 -240h215l-8 -32h-215l-195 -775q-14 -57 -14 -106zM528 1102l170 356h37l-176 -356h-31z" />
    <glyph glyph-name="Tbar" unicode="&#x166;" horiz-adv-x="1163" 
d="M682 856h324l-9 -33h-323l-205 -823h-33l205 823h-324l9 33h323l142 569h-555l8 33h1142l-8 -33h-555z" />
    <glyph glyph-name="tbar" unicode="&#x167;" horiz-adv-x="552" 
d="M174 127q0 -98 119 -98q37 0 74 8l-9 -35q-25 -6 -65 -6q-152 0 -152 137q0 45 17 109l80 315h-197l8 33h197l104 418h-200l8 32h200l60 240h33l-60 -240h215l-8 -32h-215l-104 -418h210l-8 -33h-211l-82 -324q-14 -57 -14 -106z" />
    <glyph glyph-name="Utilde" unicode="&#x168;" horiz-adv-x="1372" 
d="M219 371q0 -359 361 -359q209 0 349 120t199 360l242 966h33l-244 -975q-63 -250 -210.5 -376.5t-368.5 -126.5q-393 0 -394 391q0 92 31 211l219 876h33l-221 -885q-29 -119 -29 -202zM1108 1628q-51 0 -83 17.5t-71 51.5t-65.5 49t-68.5 15t-80 -33.5t-58 -99.5h-35
q27 80 74 123t98 43t83 -17.5t71 -51.5t65.5 -49t68.5 -15t80 34t58 99h35q-27 -80 -74 -123t-98 -43z" />
    <glyph glyph-name="utilde" unicode="&#x169;" horiz-adv-x="1099" 
d="M125 266q0 72 25 166l151 608h33l-154 -616q-23 -94 -22 -158q0 -125 66.5 -189.5t176 -64.5t199.5 48.5t156.5 134.5t93.5 194l162 651h32l-260 -1040h-32l55 219h-2q-68 -113 -173.5 -176t-230.5 -63t-200.5 73.5t-75.5 212.5zM877 1305q101 0 143 133h35
q-27 -80 -74 -123t-98.5 -43t-83 17.5t-69.5 51t-64.5 49t-68.5 15.5t-80 -34t-58 -99h-35q27 80 74 123t98 43t83 -17.5t70 -51.5t64.5 -49t63.5 -15z" />
    <glyph glyph-name="Umacron" unicode="&#x16a;" horiz-adv-x="1372" 
d="M219 371q0 -359 361 -359q209 0 349 120t199 360l242 966h33l-244 -975q-63 -250 -210.5 -376.5t-368.5 -126.5q-393 0 -394 391q0 92 31 211l219 876h33l-221 -885q-29 -119 -29 -202zM713 1642l8 33h463l-8 -33h-463z" />
    <glyph glyph-name="umacron" unicode="&#x16b;" horiz-adv-x="1099" 
d="M125 266q0 72 25 166l151 608h33l-154 -616q-23 -94 -22 -158q0 -125 66.5 -189.5t176 -64.5t199.5 48.5t156.5 134.5t93.5 194l162 651h32l-260 -1040h-32l55 219h-2q-68 -113 -173.5 -176t-230.5 -63t-200.5 73.5t-75.5 212.5zM500 1327l8 33h463l-8 -33h-463z" />
    <glyph glyph-name="Ubreve" unicode="&#x16c;" horiz-adv-x="1372" 
d="M219 371q0 -359 361 -359q209 0 349 120t199 360l242 966h33l-244 -975q-63 -250 -210.5 -376.5t-368.5 -126.5q-393 0 -394 391q0 92 31 211l219 876h33l-221 -885q-29 -119 -29 -202zM939 1554q-124 0 -185.5 57.5t-61.5 164.5q0 25 2 39h33q-2 -14 -2 -39
q0 -188 209 -189q231 0 315 228h35q-41 -125 -131 -193t-214 -68z" />
    <glyph glyph-name="ubreve" unicode="&#x16d;" horiz-adv-x="1099" 
d="M125 266q0 72 25 166l151 608h33l-154 -616q-23 -94 -22 -158q0 -125 66.5 -189.5t176 -64.5t199.5 48.5t156.5 134.5t93.5 194l162 651h32l-260 -1040h-32l55 219h-2q-68 -113 -173.5 -176t-230.5 -63t-200.5 73.5t-75.5 212.5zM709 1231q230 0 315 227h35
q-41 -125 -131 -192.5t-214 -67.5t-185.5 57.5t-61.5 163.5q0 25 2 39h33q-2 -14 -2 -39q0 -188 209 -188z" />
    <glyph glyph-name="Uring" unicode="&#x16e;" horiz-adv-x="1372" 
d="M219 371q0 -359 361 -359q209 0 349 120t199 360l242 966h33l-244 -975q-63 -250 -210.5 -376.5t-368.5 -126.5q-393 0 -394 391q0 92 31 211l219 876h33l-221 -885q-29 -119 -29 -202zM811 1744q0 -58 41 -99t99 -41t98.5 41t40.5 99t-40 98t-98.5 40t-99.5 -40t-41 -98
zM1122 1743q0 -72 -50 -122t-121.5 -50t-122 50t-50.5 122t51.5 122t122 50t120.5 -50t50 -122z" />
    <glyph glyph-name="uring" unicode="&#x16f;" horiz-adv-x="1099" 
d="M125 266q0 72 25 166l151 608h33l-154 -616q-23 -94 -22 -158q0 -125 66.5 -189.5t176 -64.5t199.5 48.5t156.5 134.5t93.5 194l162 651h32l-260 -1040h-32l55 219h-2q-68 -113 -173.5 -176t-230.5 -63t-200.5 73.5t-75.5 212.5zM586 1387.5q0 -58.5 41 -99.5t99 -41
t98 41t40 99t-40 98.5t-98 40.5t-99 -40t-41 -98.5zM897 1386.5q0 -71.5 -50 -122t-122 -50.5t-122 50.5t-50 122t51 122t122 50.5t121 -50.5t50 -122z" />
    <glyph glyph-name="Uhungarumlaut" unicode="&#x170;" horiz-adv-x="1372" 
d="M219 371q0 -359 361 -359q209 0 349 120t199 360l242 966h33l-244 -975q-63 -250 -210.5 -376.5t-368.5 -126.5q-393 0 -394 391q0 92 31 211l219 876h33l-221 -885q-29 -119 -29 -202zM952 1556l312 259h53l-322 -259h-43zM750 1556l311 259h53l-321 -259h-43z" />
    <glyph glyph-name="uhungarumlaut" unicode="&#x171;" horiz-adv-x="1099" 
d="M125 266q0 72 25 166l151 608h33l-154 -616q-23 -94 -22 -158q0 -125 66.5 -189.5t176 -64.5t199.5 48.5t156.5 134.5t93.5 194l162 651h32l-260 -1040h-32l55 219h-2q-68 -113 -173.5 -176t-230.5 -63t-200.5 73.5t-75.5 212.5zM723 1176l315 282h54l-326 -282h-43z
M520 1176l316 282h53l-326 -282h-43z" />
    <glyph glyph-name="Uogonek" unicode="&#x172;" horiz-adv-x="1372" 
d="M215 354q0 -342 365 -342q425 0 553 496l237 950h33l-240 -958q-75 -306 -274 -437q-242 -162 -281 -227t-39 -110q0 -80 88 -80q37 0 68 10l-8 -35q-33 -8 -60 -8q-121 0 -120 113q0 66 48 129t167 145v2q-84 -23 -172 -22q-397 0 -398 374q0 92 31 211l223 893h33
l-225 -901q-29 -119 -29 -203z" />
    <glyph glyph-name="uogonek" unicode="&#x173;" horiz-adv-x="1099" 
d="M549 -274q0 -80 88 -80q37 0 68 10l-9 -35q-33 -8 -59 -8q-121 0 -121 113q0 70 53.5 136t186.5 154l51 203h-2q-68 -113 -173.5 -176t-230 -63t-200.5 73.5t-76 212.5q0 72 25 166l151 608h33l-154 -616q-23 -94 -22 -158q0 -125 66.5 -189.5t176 -64.5t199.5 48.5
t156.5 134.5t93.5 194l162 651h32l-260 -1040q-135 -90 -185 -153.5t-50 -120.5z" />
    <glyph glyph-name="Wcircumflex" unicode="&#x174;" horiz-adv-x="1763" 
d="M1149 0l-21 694q-8 244 -20 731h-2l-746 -1425h-51l-51 1458h33l49 -1423h2l743 1423h56l18 -704l21 -719h2l753 1423h37l-772 -1458h-51zM1221 1815l180 -259h-39l-160 228l-274 -228h-51l311 259h33z" />
    <glyph glyph-name="wcircumflex" unicode="&#x175;" horiz-adv-x="1527" 
d="M977 0l-47 541l-6 63q-25 281 -35 406h-4q-47 -78 -137 -234l-140 -235l-315 -541h-53l-90 1040h32l88 -1007h4l590 1007h54l45 -497q29 -340 45 -510h4l587 1007h37l-606 -1040h-53zM1147 1176l-154 251l-278 -251h-49l313 282h33l174 -282h-39z" />
    <glyph glyph-name="Ycircumflex" unicode="&#x176;" horiz-adv-x="1167" 
d="M471 0h-33l162 651l-352 807h35l338 -772h2l720 772h43l-753 -807zM903 1815l180 -259h-39l-159 228l-275 -228h-51l311 259h33z" />
    <glyph glyph-name="ycircumflex" unicode="&#x177;" horiz-adv-x="882" 
d="M-116 -387q-66 0 -97 14l8 33q29 -14 87.5 -14t114.5 27.5t123.5 104.5t164.5 222l-152 1040h33l145 -995h2l656 995h39l-693 -1052q-185 -284 -303 -344q-60 -30 -128 -31zM786 1176l-153 251l-279 -251h-49l313 282h33l174 -282h-39z" />
    <glyph glyph-name="Ydieresis" unicode="&#x178;" horiz-adv-x="1167" 
d="M471 0h-33l162 651l-352 807h35l338 -772h2l720 772h43l-753 -807zM1004 1595l40 158h33l-41 -158h-32zM627 1595l41 158h32l-41 -158h-32z" />
    <glyph glyph-name="Zacute" unicode="&#x179;" horiz-adv-x="1120" 
d="M-49 33h1014l-9 -33h-1050l12 49l1311 1374v2h-959l9 33h995l-12 -49l-1311 -1374v-2zM666 1556l280 259h49l-286 -259h-43z" />
    <glyph glyph-name="zacute" unicode="&#x17a;" horiz-adv-x="903" 
d="M-43 33h784l-8 -33h-821l12 49l1002 955v4h-742l9 32h780l-12 -49l-1004 -954v-4zM498 1176l258 282h47l-266 -282h-39z" />
    <glyph glyph-name="Zdotaccent" unicode="&#x17b;" horiz-adv-x="1120" 
d="M-49 33h1014l-9 -33h-1050l12 49l1311 1374v2h-959l9 33h995l-12 -49l-1311 -1374v-2zM774 1595l41 158h33l-41 -158h-33z" />
    <glyph glyph-name="zdotaccent" unicode="&#x17c;" horiz-adv-x="903" 
d="M-43 33h784l-8 -33h-821l12 49l1002 955v4h-742l9 32h780l-12 -49l-1004 -954v-4zM610 1300l39 158h33l-39 -158h-33z" />
    <glyph glyph-name="Zcaron" unicode="&#x17d;" horiz-adv-x="1120" 
d="M-49 33h1014l-9 -33h-1050l12 49l1311 1374v2h-959l9 33h995l-12 -49l-1311 -1374v-2zM764 1556l-180 259h39l159 -228l275 228h51l-311 -259h-33z" />
    <glyph glyph-name="zcaron" unicode="&#x17e;" horiz-adv-x="903" 
d="M-43 33h784l-8 -33h-821l12 49l1002 955v4h-742l9 32h780l-12 -49l-1004 -954v-4zM580 1176l-174 282h38l154 -252l279 252h49l-314 -282h-32z" />
    <glyph glyph-name="longs" unicode="&#x17f;" horiz-adv-x="516" 
d="M659 1464q33 0 58 -8l-8 -31q-20 6 -50 7q-170 0 -227 -224l-301 -1208h-33l252 1008h-198l8 32h198l43 177q62 247 258 247z" />
    <glyph glyph-name="florin" unicode="&#x192;" 
d="M1130 1427q-46 0 -93.5 -24.5t-89.5 -80.5t-95 -161l-104 -203h202l-8 -32h-211l-491 -979q-94 -186 -174 -257t-187 -71q-27 0 -47 4l8 33q16 -4 59 -4t120 39.5t192 271.5l483 963h-205l9 32h213l108 211q84 164 154.5 227.5t177.5 63.5q28 0 51 -6l-8 -33q-18 6 -64 6
z" />
    <glyph glyph-name="Scommaaccent" unicode="&#x218;" horiz-adv-x="1179" 
d="M1126 1137q0 309 -348 309q-166 0 -266 -57.5t-150.5 -145.5t-50.5 -174q0 -121 77 -186.5t229.5 -115.5t229.5 -91t118 -104.5t41 -167.5t-57.5 -203t-173.5 -160t-281 -61q-416 0 -416 356q0 70 20 151h33q-20 -82 -20 -151q0 -324 383 -324q160 0 268 59.5
t159.5 149.5t51.5 185.5t-40 153.5t-111.5 94t-226 86t-235.5 124t-81 188.5t56 209t164.5 156t258.5 61.5q401 0 401 -342q0 -63 -18 -144h-33q18 80 18 144zM313 -489h-28l106 192l33 135h33l-33 -135z" />
    <glyph glyph-name="scommaaccent" unicode="&#x219;" horiz-adv-x="915" 
d="M68 248q0 -236 303 -236q111 0 190.5 38t120.5 101.5t41 147.5t-63.5 132t-209 91t-207 94.5t-61.5 139.5t42 155.5t122 108.5t210 41t213 -67.5t83 -186.5q0 -51 -14 -102h-33q14 51 14 102q0 106 -72.5 163.5t-192 57.5t-191.5 -37t-110 -96t-38 -137t54.5 -121
t201 -86t216 -99.5t69.5 -151.5t-45 -166t-133.5 -112.5t-229.5 -41.5t-227 69.5t-86 198.5q0 53 14 108h33q-14 -55 -14 -108zM180 -489h-28l106 192l33 135h33l-33 -135z" />
    <glyph glyph-name="uni021A" unicode="&#x21a;" horiz-adv-x="1163" 
d="M823 1425l-354 -1425h-33l355 1425h-555l8 33h1142l-8 -33h-555zM295 -489h-29l107 192l33 135h32l-32 -135z" />
    <glyph glyph-name="uni021B" unicode="&#x21b;" horiz-adv-x="552" 
d="M174 127q0 -98 119 -98q37 0 74 8l-9 -35q-25 -6 -65 -6q-152 0 -152 137q0 45 17 109l192 766h-200l8 32h200l60 240h33l-60 -240h215l-8 -32h-215l-195 -775q-14 -57 -14 -106zM37 -489h-29l107 192l32 135h33l-33 -135z" />
    <glyph glyph-name="dotlessj" unicode="&#x237;" horiz-adv-x="428" 
d="M-201 -383q-25 0 -41 6l9 31q12 -4 32 -4q96 0 158.5 57t99.5 203l281 1130h33l-283 -1138q-39 -156 -110.5 -220.5t-178.5 -64.5z" />
    <glyph glyph-name="uni02BC" unicode="&#x2bc;" horiz-adv-x="317" 
d="M258 1053h-29l131 260l37 145h33l-37 -145z" />
    <glyph glyph-name="circumflex" unicode="&#x2c6;" horiz-adv-x="724" 
d="M748 1176l-154 251l-279 -251h-49l314 282h32l174 -282h-38z" />
    <glyph glyph-name="caron" unicode="&#x2c7;" horiz-adv-x="727" 
d="M512 1176l-174 282h39l153 -252l279 252h49l-313 -282h-33z" />
    <glyph glyph-name="uni02C9" unicode="&#x2c9;" horiz-adv-x="669" 
d="M305 1327l8 33h463l-8 -33h-463z" />
    <glyph glyph-name="breve" unicode="&#x2d8;" horiz-adv-x="794" 
d="M575 1231q231 0 316 227h35q-41 -125 -131.5 -192.5t-214.5 -67.5t-185 57.5t-61 163.5q0 25 2 39h33q-2 -14 -2 -39q0 -188 208 -188z" />
    <glyph glyph-name="dotaccent" unicode="&#x2d9;" horiz-adv-x="239" 
d="M299 1300l39 158h33l-39 -158h-33z" />
    <glyph glyph-name="ring" unicode="&#x2da;" horiz-adv-x="559" 
d="M356 1388q0 -58 41 -99.5t99 -41.5t98.5 41t40.5 99t-40.5 98.5t-98.5 40.5t-99 -40t-41 -98zM668 1386.5q0 -71.5 -50.5 -122t-122 -50.5t-121.5 50.5t-50 122t51 122t121 50.5t121 -50.5t51 -122z" />
    <glyph glyph-name="ogonek" unicode="&#x2db;" horiz-adv-x="417" 
d="M-55 -274q0 -80 88 -80q37 0 67 10l-8 -35q-33 -8 -59 -8q-121 0 -121 113q0 70 53 136t187 154l28 -16q-135 -90 -185 -153.5t-50 -120.5z" />
    <glyph glyph-name="tilde" unicode="&#x2dc;" horiz-adv-x="794" 
d="M743 1305q102 0 144 133h35q-27 -80 -73.5 -123t-98.5 -43t-83.5 17t-69.5 51t-64.5 49.5t-68.5 15.5t-80 -34t-58 -99h-35q27 80 74 123t98 43t83 -17.5t70 -51.5t64.5 -49t62.5 -15z" />
    <glyph glyph-name="hungarumlaut" unicode="&#x2dd;" horiz-adv-x="706" 
d="M469 1176l315 282h54l-326 -282h-43zM266 1176l316 282h53l-326 -282h-43z" />
    <glyph glyph-name="uni0312" unicode="&#x312;" horiz-adv-x="0" 
d="M305 1202h-33l33 135l109 193h30l-106 -193z" />
    <glyph glyph-name="commaaccent" unicode="&#x326;" horiz-adv-x="0" 
d="M-119 -489h-28l106 192l33 135h33l-33 -135z" />
    <glyph glyph-name="uni0394" unicode="&#x394;" horiz-adv-x="1296" 
d="M989 778q-74 438 -110 647h-2l-934 -1392h1173zM-117 0l977 1458h45l250 -1458h-1272z" />
    <glyph glyph-name="uni03A9" unicode="&#x3a9;" horiz-adv-x="1462" 
d="M1430 988q0 -247 -152 -478t-455 -475v-2h422l-8 -33h-471l8 33q317 256 470 483.5t153 465.5t-127.5 351t-353.5 113t-385.5 -114.5t-240.5 -294t-81 -358.5t57.5 -329.5t163.5 -316.5l-8 -33h-455l8 33h418v2q-104 162 -160.5 312.5t-56.5 334.5t85 371.5t253 306.5
t404 119t374 -122t138 -369z" />
    <glyph glyph-name="uni03BC" unicode="&#x3bc;" horiz-adv-x="1120" 
d="M829 101q0 -74 68 -74q33 0 57 8l-8 -35q-20 -6 -43 -6q-106 0 -106 104q0 49 30 146h-2q-57 -121 -164.5 -192.5t-228.5 -71.5q-279 0 -285 276h-2q-27 -135 -57 -256l-94 -379h-33l354 1419h33l-153 -616q-23 -94 -23 -158q0 -125 67 -189.5t175 -64.5t196 46
t154.5 134.5t95.5 204.5l160 643h33l-203 -817q-21 -80 -21 -122z" />
    <glyph glyph-name="pi" unicode="&#x3c0;" horiz-adv-x="1280" 
d="M1014 -6q-170 0 -170 172q0 49 18 123l178 719h-614l-250 -1008h-33l250 1008h-241l8 32h1208l-8 -32h-287l-180 -727q-16 -63 -16 -128q0 -126 137 -126q33 0 55 8l-8 -35q-20 -6 -47 -6z" />
    <glyph glyph-name="Wgrave" unicode="&#x1e80;" horiz-adv-x="1763" 
d="M1149 0l-21 694q-8 244 -20 731h-2l-746 -1425h-51l-51 1458h33l49 -1423h2l743 1423h56l18 -704l21 -719h2l753 1423h37l-772 -1458h-51zM1219 1556l-164 259h41l157 -259h-34z" />
    <glyph glyph-name="wgrave" unicode="&#x1e81;" horiz-adv-x="1527" 
d="M977 0l-47 541l-6 63q-25 281 -35 406h-4q-47 -78 -137 -234l-140 -235l-315 -541h-53l-90 1040h32l88 -1007h4l590 1007h54l45 -497q29 -340 45 -510h4l587 1007h37l-606 -1040h-53zM1026 1176h-31l-135 282h39z" />
    <glyph glyph-name="Wacute" unicode="&#x1e82;" horiz-adv-x="1763" 
d="M1149 0l-21 694q-8 244 -20 731h-2l-746 -1425h-51l-51 1458h33l49 -1423h2l743 1423h56l18 -704l21 -719h2l753 1423h37l-772 -1458h-51zM1024 1556l281 259h49l-287 -259h-43z" />
    <glyph glyph-name="wacute" unicode="&#x1e83;" horiz-adv-x="1527" 
d="M977 0l-47 541l-6 63q-25 281 -35 406h-4q-47 -78 -137 -234l-140 -235l-315 -541h-53l-90 1040h32l88 -1007h4l590 1007h54l45 -497q29 -340 45 -510h4l587 1007h37l-606 -1040h-53zM827 1176l258 282h48l-267 -282h-39z" />
    <glyph glyph-name="Wdieresis" unicode="&#x1e84;" horiz-adv-x="1763" 
d="M1149 0l-21 694q-8 244 -20 731h-2l-746 -1425h-51l-51 1458h33l49 -1423h2l743 1423h56l18 -704l21 -719h2l753 1423h37l-772 -1458h-51zM1321 1595l41 158h33l-41 -158h-33zM944 1595l41 158h33l-41 -158h-33z" />
    <glyph glyph-name="wdieresis" unicode="&#x1e85;" horiz-adv-x="1527" 
d="M977 0l-47 541l-6 63q-25 281 -35 406h-4q-47 -78 -137 -234l-140 -235l-315 -541h-53l-90 1040h32l88 -1007h4l590 1007h54l45 -497q29 -340 45 -510h4l587 1007h37l-606 -1040h-53zM1128 1300l39 158h33l-39 -158h-33zM752 1300l39 158h32l-39 -158h-32z" />
    <glyph glyph-name="Germandbls" unicode="&#x1e9e;" horiz-adv-x="1468" 
d="M815 12q158 0 265.5 62.5t159.5 160t52 197.5q0 174 -107.5 264t-328.5 115l8 33l520 424q-59 84 -164.5 131t-244.5 47q-516 0 -651 -541l-226 -905h-32l227 913q70 279 243 422.5t439 143.5q158 0 275.5 -58.5t176.5 -158.5l-520 -424q205 -31 311.5 -129.5
t106.5 -276.5q0 -111 -58.5 -215t-175 -170.5t-284.5 -66.5t-259 69.5t-91 200.5q0 39 8 74h33q-8 -35 -9 -74q0 -238 326 -238z" />
    <glyph glyph-name="Ygrave" unicode="&#x1ef2;" horiz-adv-x="1167" 
d="M471 0h-33l162 651l-352 807h35l338 -772h2l720 772h43l-753 -807zM901 1556l-164 259h41l158 -259h-35z" />
    <glyph glyph-name="ygrave" unicode="&#x1ef3;" horiz-adv-x="882" 
d="M-116 -387q-66 0 -97 14l8 33q29 -14 87.5 -14t114.5 27.5t123.5 104.5t164.5 222l-152 1040h33l145 -995h2l656 995h39l-693 -1052q-185 -284 -303 -344q-60 -30 -128 -31zM666 1176h-31l-135 282h39z" />
    <glyph glyph-name="uni2010" unicode="&#x2010;" horiz-adv-x="561" 
d="M76 582l8 32h438l-8 -32h-438z" />
    <glyph glyph-name="endash" unicode="&#x2013;" 
d="M55 582l8 32h943l-9 -32h-942z" />
    <glyph glyph-name="emdash" unicode="&#x2014;" horiz-adv-x="2048" 
d="M55 582l8 32h1967l-9 -32h-1966z" />
    <glyph glyph-name="uni2015" unicode="&#x2015;" horiz-adv-x="2048" 
d="M-74 582l8 32h1967l-9 -32h-1966z" />
    <glyph glyph-name="underscoredbl" unicode="&#x2017;" 
d="M-225 -381l8 33h1024l-8 -33h-1024zM-164 -135l8 33h1024l-8 -33h-1024z" />
    <glyph glyph-name="quoteleft" unicode="&#x2018;" horiz-adv-x="319" 
d="M428 1458h29l-131 -260l-37 -145h-33l37 145z" />
    <glyph glyph-name="quoteright" unicode="&#x2019;" horiz-adv-x="319" 
d="M258 1053h-29l131 260l37 145h33l-37 -145z" />
    <glyph glyph-name="quotesinglbase" unicode="&#x201a;" horiz-adv-x="319" 
d="M-78 -295h-28l131 260l36 146h33l-37 -146z" />
    <glyph glyph-name="quotedblleft" unicode="&#x201c;" horiz-adv-x="528" 
d="M637 1458h29l-131 -260l-37 -145h-33l37 145zM428 1458h29l-131 -260l-37 -145h-33l37 145z" />
    <glyph glyph-name="quotedblright" unicode="&#x201d;" horiz-adv-x="528" 
d="M258 1053h-29l131 260l37 145h33l-37 -145zM467 1053h-29l131 260l37 145h33l-37 -145z" />
    <glyph glyph-name="quotedblbase" unicode="&#x201e;" horiz-adv-x="528" 
d="M-78 -295h-28l131 260l36 146h33l-37 -146zM131 -295h-29l131 260l37 146h33l-37 -146z" />
    <glyph glyph-name="dagger" unicode="&#x2020;" 
d="M1038 1018l-8 -33h-385l-307 -1231h-33l307 1231h-385l9 33h385l108 440h33l-109 -440h385z" />
    <glyph glyph-name="daggerdbl" unicode="&#x2021;" 
d="M1038 1018l-8 -33h-385l-147 -586h385l-9 -32h-385l-151 -613h-33l152 613h-385l8 32h385l147 586h-385l9 33h385l108 440h33l-109 -440h385z" />
    <glyph glyph-name="bullet" unicode="&#x2022;" horiz-adv-x="614" 
d="M123 729q0 76 54 130t130 54t130.5 -54t54.5 -130t-53.5 -130t-130.5 -54t-131 54t-54 130z" />
    <glyph glyph-name="ellipsis" unicode="&#x2026;" horiz-adv-x="974" 
d="M-8 0l37 147h37l-37 -147h-37zM340 0l37 147h37l-37 -147h-37zM688 0l37 147h37l-37 -147h-37z" />
    <glyph glyph-name="perthousand" unicode="&#x2030;" horiz-adv-x="1728" 
d="M1184 205q0 -195 143 -195q84 0 143.5 63.5t89 154.5t29.5 173q0 193 -141 193q-84 0 -144.5 -63.5t-90 -153.5t-29.5 -172zM602 205q0 -195 143 -195q84 0 143.5 63.5t89.5 154.5t30 173q0 193 -142 193q-84 0 -144 -63.5t-90 -153.5t-30 -172zM1448 627q174 0 174 -226
q0 -90 -34 -188t-101.5 -165.5t-161.5 -67.5q-174 0 -174 225q0 88 34 187.5t101.5 167t161.5 67.5zM866 627q174 0 174 -226q0 -90 -33.5 -188t-101 -165.5t-162.5 -67.5q-174 0 -174 225q0 88 34 187.5t101.5 167t161.5 67.5zM225 983q0 -195 144 -195q84 0 143 63.5
t89 155t30 173.5q0 193 -142 192q-83 0 -143.5 -63.5t-90.5 -153.5t-30 -172zM489 1405q175 0 175 -225q0 -90 -34 -188.5t-101.5 -166t-161.5 -67.5q-174 0 -174 225q0 88 33.5 187.5t101 167t161.5 67.5zM-25 -61l1237 1503h43l-1237 -1503h-43z" />
    <glyph glyph-name="guilsinglleft" unicode="&#x2039;" horiz-adv-x="495" 
d="M281 111h-35l-133 409l331 410h41l-335 -416z" />
    <glyph glyph-name="guilsinglright" unicode="&#x203a;" horiz-adv-x="495" 
d="M215 930h35l133 -410l-332 -409h-41l336 415z" />
    <glyph glyph-name="interrobang" unicode="&#x203d;" horiz-adv-x="958" 
d="M410 141l-35 -141h-37l35 141h37zM950 1000q0 102 -73.5 175.5t-200.5 84.5l-203 -801h2q23 41 64 75.5t129 90.5q161 102 221.5 187.5t60.5 187.5zM983 1000q0 -114 -65.5 -204.5t-235.5 -199.5q-90 -57 -133 -93t-68.5 -85t-48.5 -137h-26l237 981h-6
q-156 0 -268.5 -86t-159.5 -248h-33q53 182 173 274t288 92h14l39 164h37l-43 -166q137 -14 218 -96t81 -196z" />
    <glyph glyph-name="overline" unicode="&#x203e;" 
d="M281 1642l8 33h1024l-8 -33h-1024z" />
    <glyph glyph-name="fraction" unicode="&#x2044;" horiz-adv-x="208" 
d="M-446 0l1151 1380h36l-1151 -1380h-36z" />
    <glyph glyph-name="zero.superior" unicode="&#x2070;" horiz-adv-x="802" 
d="M256 983q0 -291 207 -291q129 0 220 107.5t137 258t46 286.5q0 280 -211 280q-129 0 -219 -106.5t-135 -258t-45 -276.5zM899 1335q0 -137 -49 -294.5t-148.5 -268t-228.5 -110.5q-252 0 -252 321q0 137 49 295t148.5 268.5t238.5 110.5q242 0 242 -322z" />
    <glyph glyph-name="four.superior" unicode="&#x2074;" horiz-adv-x="747" 
d="M612 999l150 603h-2l-580 -603h432zM637 967l-74 -291h-33l74 291h-471l10 41l611 634h51l-160 -643h199l-8 -32h-199z" />
    <glyph glyph-name="five.superior" unicode="&#x2075;" horiz-adv-x="770" 
d="M549 1296q117 0 183.5 -70t66.5 -174t-44 -190t-129 -143t-199 -57t-178.5 53t-64.5 149q0 33 9 60h32q-8 -27 -8 -60q0 -82 54.5 -126t157.5 -44t180 53.5t117 132t40 170.5t-56.5 153t-160.5 61q-184 0 -287 -185l-31 2l197 561h492l-9 -32h-460l-152 -432h2
q92 118 248 118z" />
    <glyph glyph-name="six.superior" unicode="&#x2076;" horiz-adv-x="778" 
d="M244 936q0 -242 223 -242q98 0 171 51.5t110.5 128t37.5 146.5q0 115 -57 181.5t-159 66.5t-175 -50.5t-112 -127t-39 -154.5zM467 662q-256 0 -256 280q0 141 56.5 310t162 287t234.5 118q247 0 247 -215v-25h-34v23q0 184 -199 184q-133 0 -247 -132t-171 -386h2
q41 84 125.5 139t192.5 55t174.5 -74.5t66.5 -205.5q0 -78 -43 -162t-123 -140t-188 -56z" />
    <glyph glyph-name="seven.superior" unicode="&#x2077;" horiz-adv-x="679" 
d="M581.5 1190q-157.5 -221 -298.5 -514h-37q147 301 303 522t336 412h-592l8 32h635l-8 -32q-189 -199 -346.5 -420z" />
    <glyph glyph-name="eight.superior" unicode="&#x2078;" horiz-adv-x="782" 
d="M215 903q0 -96 64.5 -152.5t170.5 -56.5t177 40t108 101t37 135t-66 131.5t-168 57.5t-174.5 -38t-110.5 -97t-38 -121zM354 1363q0 -71 59 -122t159 -51t165.5 37t98 92t32.5 128t-59 125t-155 52t-163 -38t-102 -95t-35 -128zM901 1437q0 -97 -68.5 -172t-187.5 -96v-2
q74 -25 117 -81t43 -129t-41 -140t-121.5 -111t-196.5 -44t-190 65.5t-74 169.5t75 185t206 100v2q-66 20 -105 72.5t-39 119.5t40 132t115.5 107t181.5 42t175.5 -61.5t69.5 -158.5z" />
    <glyph glyph-name="nine.superior" unicode="&#x2079;" horiz-adv-x="778" 
d="M854 1382q0 242 -223 242q-98 0 -171 -51t-111 -128t-38 -147q0 -115 57.5 -181t159.5 -66t175 50t112 127t39 154zM631 1657q256 0 256 -281q0 -141 -56.5 -310t-162 -286.5t-234.5 -117.5q-248 0 -248 215v24h35v-22q0 -184 199 -185q133 0 246.5 132t171.5 386h-2
q-41 -84 -125 -139t-193 -55t-175.5 74.5t-66.5 205.5q0 78 43 162t123 140.5t189 56.5z" />
    <glyph glyph-name="plussuperior" unicode="&#x207a;" horiz-adv-x="831" 
d="M723 1147v-33h-291v-283h-33v283h-290v33h290v283h33v-283h291z" />
    <glyph glyph-name="uni207B" unicode="&#x207b;" horiz-adv-x="831" 
d="M109 1114v33h614v-33h-614z" />
    <glyph glyph-name="equalsuperior" unicode="&#x207c;" horiz-adv-x="829" 
d="M109 1022v33h614v-33h-614zM109 1206v33h614v-33h-614z" />
    <glyph glyph-name="parenleftsuperior" unicode="&#x207d;" horiz-adv-x="344" 
d="M229 866q0 -204 58 -401h-31q-59 188 -59 398t93 444.5t275 431.5h39q-184 -201 -279.5 -435t-95.5 -438z" />
    <glyph glyph-name="parenrightsuperior" unicode="&#x207e;" horiz-adv-x="344" 
d="M406 1338q0 204 -58 401h31q59 -188 59 -398t-93 -444.5t-275 -431.5h-39q184 201 279.5 435t95.5 438z" />
    <glyph glyph-name="zero.inferior" unicode="&#x2080;" horiz-adv-x="802" 
d="M0 -45q0 -291 207 -291q129 0 220 108t137 258t46 286q0 280 -211 280q-129 -1 -219 -107t-135 -258t-45 -276zM207 -367q-240 0 -242 322q0 137 49 295q48 158 148 268t239 111q242 0 242 -322q0 -137 -49 -295q-48 -158 -148 -268t-239 -111z" />
    <glyph glyph-name="one.inferior" unicode="&#x2081;" horiz-adv-x="442" 
d="M20 -352l218 868h-2q-66 -94 -238 -94l8 31q104 0 164 36q59 37 94 125h31l-242 -966h-33z" />
    <glyph glyph-name="two.inferior" unicode="&#x2082;" horiz-adv-x="778" 
d="M641 414q0 -90 -34 -147q-33 -58 -111 -111q-78 -52 -212 -112t-209 -116t-112 -112q-37 -57 -57 -135h586l-9 -33h-616q29 152 117 246t252 164t237 120t103 102t30 132t-55 132t-161 52t-184 -65t-116 -177h-35q37 129 127 202q90 72 208 72t185 -62q66 -62 66 -152z
" />
    <glyph glyph-name="three.inferior" unicode="&#x2083;" horiz-adv-x="776" 
d="M629 410q0 -96 -66 -172q-66 -74 -190 -99v-2q160 -47 159 -209q0 -70 -42 -138t-124 -112q-82 -45 -200 -45q-119 -1 -188 57t-68 158q0 31 8 62h33q-6 -31 -6 -60q0 -88 59 -136q60 -48 166 -48t179 40t111 100t38 138t-60 130t-174 51h-63l8 33h59q111 0 185 38
q75 38 109 94t34 113q0 89 -64 141t-172 52t-187 -62t-107 -178h-33q31 127 119 200q88 72 210 72t195 -61q72 -61 72 -157z" />
    <glyph glyph-name="four.inferior" unicode="&#x2084;" horiz-adv-x="745" 
d="M354 -29l150 602h-2l-580 -602h432zM379 -61l-74 -291h-33l74 291h-471l10 41l611 634h51l-160 -643h199l-8 -32h-199z" />
    <glyph glyph-name="five.inferior" unicode="&#x2085;" horiz-adv-x="768" 
d="M541 24q0 -104 -44 -190t-129 -143t-199 -57q-115 0 -179 52q-64 54 -64 150q0 33 8 60h33q-8 -27 -8 -60q0 -82 54 -126q53 -44 157 -44t181 53t117 133t40 171q0 92 -56 152t-161 61q-184 0 -287 -185l-31 2l197 561h492l-9 -32h-460l-152 -432h2q94 120 248 118
q117 0 183 -70t67 -174z" />
    <glyph glyph-name="six.inferior" unicode="&#x2086;" horiz-adv-x="776" 
d="M-14 -92q0 -242 223 -242q98 0 171 51t110 128q38 77 38 147q0 116 -57 182t-159 66t-175 -51q-75 -50 -113 -127t-38 -154zM653 414v-25h-35v23q0 184 -198 184q-133 0 -247 -132t-171 -386h2q41 84 125 139q85 55 193 55t175 -74t66 -206q0 -78 -43 -162t-123 -140
t-188 -57q-258 0 -256 281q0 141 56 310q55 169 161 287q106 117 236 117q248 0 247 -214z" />
    <glyph glyph-name="seven.inferior" unicode="&#x2087;" horiz-adv-x="677" 
d="M324 162q-158 -221 -299 -514h-37q147 301 303 522t336 412h-592l8 32h635l-8 -32q-188 -199 -346 -420z" />
    <glyph glyph-name="eight.inferior" unicode="&#x2088;" horiz-adv-x="784" 
d="M-41 -125q0 -97 65 -153t170 -56t177 40q73 40 109 100t36 135t-65 133q-66 57 -168 57t-175 -38t-111 -97t-38 -121zM98 335q0 -71 58 -122t160 -51q100 0 166 37t98 92q33 55 32 112q0 89 -59 141t-154 52t-163 -38t-103 -95t-35 -128zM645 408q-1 -98 -69 -172
t-187 -95v-2q74 -25 117 -81t43 -129t-41 -141t-121 -111q-81 -44 -197 -44t-190 66t-74 170t75 185t206 100v2q-66 20 -105 72t-39 120t40 132q40 65 115 107q75 41 181 41t176 -61t70 -159z" />
    <glyph glyph-name="nine.inferior" unicode="&#x2089;" horiz-adv-x="778" 
d="M598 354q0 242 -223 242q-98 0 -171 -51t-111 -128t-38 -147q-1 -116 57 -182t159 -66t175 51q74 50 113 127t39 154zM631 348q-1 -141 -57 -310t-161 -287q-105 -117 -235 -117q-246 1 -248 214v25h35v-23q0 -184 199 -184q133 0 247 132t171 386h-2q-41 -84 -125 -139
t-193 -55q-110 0 -176 75t-66 205q0 78 43 162t123 140t189 57q256 0 256 -281z" />
    <glyph glyph-name="uni208A" unicode="&#x208a;" horiz-adv-x="831" 
d="M723 119v-33h-291v-283h-33v283h-290v33h290v282h33v-282h291z" />
    <glyph glyph-name="uni208B" unicode="&#x208b;" horiz-adv-x="831" 
d="M109 86v33h614v-33h-614z" />
    <glyph glyph-name="uni208C" unicode="&#x208c;" horiz-adv-x="831" 
d="M109 -6v33h614v-33h-614zM109 178v33h614v-33h-614z" />
    <glyph glyph-name="uni208D" unicode="&#x208d;" horiz-adv-x="344" 
d="M-59 -165q0 211 93 445t275 431h39q-184 -202 -279 -436q-95 -233 -95 -437t57 -401h-31q-59 188 -59 398z" />
    <glyph glyph-name="uni208E" unicode="&#x208e;" horiz-adv-x="344" 
d="M147 310q0 204 -57 401h31q59 -188 59 -398q0 -211 -93 -445t-275 -431h-39q184 201 279 435t95 438z" />
    <glyph glyph-name="franc" unicode="&#x20a3;" 
d="M313 778h666l-8 -33h-666l-94 -378h375l-8 -33h-375l-84 -334h-33l84 334h-152l9 33h151l252 1013h737l-8 -32h-704z" />
    <glyph glyph-name="lira" unicode="&#x20a4;" 
d="M1075 1120q0 -57 -14 -116h-33q14 59 14 116q0 121 -64 184.5t-190 63.5t-218.5 -85t-133.5 -247l-88 -356h277l-9 -33h-276l-82 -323q-35 -133 -94.5 -204t-130.5 -91v-2q86 6 268 6h520l-8 -33h-893l8 33q109 0 185.5 75.5t113.5 223.5l80 315h-227l8 33h227l91 364
q43 172 143.5 264.5t240.5 92.5t212.5 -73t72.5 -208z" />
    <glyph glyph-name="peseta" unicode="&#x20a7;" horiz-adv-x="1525" 
d="M1100 1034q0 147 -87 230.5t-268 83.5h-292l-177 -705h375q148 0 249 60.5t150.5 150.5t49.5 180zM1147 127q0 -98 119 -98q37 0 73 8l-8 -35q-25 -6 -65 -6q-152 0 -152 137q0 45 16 109l193 766h-190q-8 -98 -63.5 -189.5t-162 -150t-256.5 -58.5h-383l-149 -610h-33
l342 1380h317q193 0 289 -91t99 -249h198l60 240h32l-59 -240h215l-8 -32h-215l-195 -775q-14 -57 -14 -106z" />
    <glyph glyph-name="Euro" unicode="&#x20ac;" 
d="M760 1401q334 0 334 -352q0 -27 -4 -76h-33q4 49 4 76q0 319 -301 319q-211 0 -352.5 -164t-208.5 -405h583l-14 -33h-578q-18 -72 -32 -164h540l-14 -33h-530q-6 -63 -7 -120q0 -221 79 -329t241 -108q313 0 453 367h32q-148 -399 -485 -399q-352 0 -352 469q0 57 6 120
h-107l15 33h96q14 92 33 164h-95l15 33h88q72 256 221.5 429t372.5 173z" />
    <glyph glyph-name="uni20B9" unicode="&#x20b9;" 
d="M872 1081v-4q0 -90 -55 -175t-166.5 -143.5t-273.5 -68.5v-2q82 -29 128 -94.5t77 -187.5l100 -406h-33l-96 389q-39 154 -104.5 222.5t-178.5 68.5h-49l8 33h62q184 0 308 55t182.5 139t58.5 170v4h-645l20 33h623q-25 233 -349 234h-227l21 32h901l-21 -32h-237
q-185 0 -269 6v-2q196 -50 213 -238h246l-20 -33h-224z" />
    <glyph glyph-name="uni20BA" unicode="&#x20ba;" 
d="M164 -4h-41l176 702l-231 -110l10 41l231 110l56 226l-232 -111l10 41l232 111l94 374h33l-90 -360l395 188l-10 -41l-396 -188l-57 -225l395 188l-10 -41l-395 -188l-170 -684q319 0 525 153.5t261 448.5h33q-61 -312 -273 -473.5t-546 -161.5z" />
    <glyph glyph-name="uni20BC" unicode="&#x20bc;" horiz-adv-x="1187" 
d="M1130 801q0 -102 -43 -279l-131 -522h-32l133 530q41 164 41 271q0 182 -79 263t-251 91l-287 -1155h-32l286 1157h-24q-160 -2 -261.5 -51t-169 -164t-118.5 -321l-156 -621h-33l158 629q53 215 125 334.5t179.5 172t275.5 54.5h32l68 268h33l-68 -270
q180 -12 267 -102.5t87 -284.5z" />
    <glyph glyph-name="uni20BD" unicode="&#x20bd;" 
d="M629 682q141 0 236.5 57.5t141.5 143.5t46 172q0 137 -82 215t-252 78h-287l-166 -666h363zM1085 1055q0 -96 -50 -189.5t-153.5 -155t-252.5 -61.5h-371l-57 -227h438l-8 -33h-438l-97 -389h-33l97 389h-170l8 33h170l57 227h-170l8 33h170l175 698h311q184 0 275 -87
t91 -238z" />
    <glyph glyph-name="uni2113" unicode="&#x2113;" horiz-adv-x="886" 
d="M766 1165q0 203 -119 203q-70 0 -116 -66.5t-89 -242.5l-149 -600q145 26 252.5 142t164 270.5t56.5 293.5zM371 -16q-176 0 -176 172q0 41 18 114l37 152l-31 -2q-53 0 -98 10l8 33q45 -10 81 -10t48 2l154 612q47 188 100 261t129 73q158 0 158 -236
q0 -150 -61.5 -313.5t-179.5 -284.5t-273 -143l-41 -162q-17 -74 -17 -128q0 -118 144 -118q45 0 92 15l-8 -37q-41 -10 -84 -10z" />
    <glyph glyph-name="uni2117" unicode="&#x2117;" horiz-adv-x="1683" 
d="M608 709h303q141 0 214 66.5t73 175t-72.5 175t-214.5 66.5h-303v-483zM1231 950q0 -123 -82 -198.5t-238 -75.5h-303v-471h-33v1020h336q156 0 238 -76t82 -199zM145 729q0 -213 87 -376t245 -252t365 -89t364.5 89t244.5 252t87 376t-87 376t-244.5 252t-364.5 89
t-365 -89t-245 -252t-87 -376zM1571 729q0 -221 -91 -391t-257 -264t-381 -94t-381 94t-257 264t-91 391t91 391t257 264.5t381 94.5t381 -94.5t257 -264.5t91 -391z" />
    <glyph glyph-name="trademark" unicode="&#x2122;" horiz-adv-x="1484" 
d="M1395 729l172 690h-2l-455 -690h-43l-59 381q-31 193 -52 309h-2l-172 -690h-32l182 729h51l64 -401q20 -139 47 -291h2l454 692h60l-183 -729h-32zM539 1425l-174 -696h-33l174 696h-270l8 33h573l-8 -33h-270z" />
    <glyph glyph-name="Omega" unicode="&#x2126;" horiz-adv-x="1462" 
d="M823 33h422l-8 -33h-471l8 33q317 256 470 484q153 227 153 465t-128 351q-127 113 -353 113t-386 -115t-240 -294t-81 -358q0 -179 57 -330t164 -316l-8 -33h-455l8 33h418v2q-105 163 -161 313t-56 334t85 372q85 187 253 306t404 119t374 -122t138 -369t-152 -478
t-455 -475v-2z" />
    <glyph glyph-name="estimated" unicode="&#x212e;" horiz-adv-x="1753" 
d="M385 1075v-340q0 -25 27 -24h925q27 0 27 24v340q0 56 -31 82q-193 190 -460 190t-457 -190q-31 -28 -31 -82zM1655 666h-1243q-12 0 -19.5 -7.5t-7.5 -17.5v-340q0 -62 31 -88q190 -186 461 -186q147 0 275 60t212 163h139q-82 -113 -240.5 -194t-387.5 -81t-406.5 91.5
t-275 252t-97.5 364.5t95.5 366.5t272 257t414.5 94.5t414 -99.5t269.5 -267.5t93.5 -368z" />
    <glyph glyph-name="oneeighth" unicode="&#x215b;" horiz-adv-x="1271" 
d="M213 553l182 731h-2q-61 -74 -203 -74l9 33q90 0 140 31t81 106h33l-207 -827h-33zM-61 0l1151 1380h36l-1151 -1380h-36zM1094 252q0 64 -56 112t-144 48t-148 -32t-93 -82t-32 -101q0 -82 55 -129q55 -48 145 -48t151 33q122 67 122 199zM741 590q-1 -60 49 -103
t134 -43t140 31t84 77t28 108t-50 105q-50 44 -132 44q-81 0 -137 -32t-86 -80q-30 -47 -30 -107zM1208 651q0 -84 -57 -147t-158 -82v-2q61 -20 97 -68t36 -110q-1 -140 -138 -216q-70 -38 -170 -38t-166 57t-64 145q0 88 64 158q64 68 175 86v2q-55 18 -88 62t-33 103
q0 58 34 114q34 55 99 91t158 36t152 -54q59 -53 59 -137z" />
    <glyph glyph-name="threeeighths" unicode="&#x215c;" horiz-adv-x="1556" 
d="M739 1206q0 -82 -56 -146t-163 -87v-2q135 -41 135 -178q0 -61 -35 -120q-36 -58 -106 -95t-174 -37t-162 50q-59 50 -59 138q0 25 6 49h33q-6 -25 -6 -49q0 -74 51 -115t142 -41t153 33t93 83q32 50 32 117q-1 68 -53 110t-148 42h-53l8 33h49q94 0 156 32t94 80
q31 47 31 109q1 62 -53 106t-148 44t-162 -53t-88 -150h-33q25 115 101 175t184 60t169 -53q62 -53 62 -135zM223 0l1151 1380h37l-1151 -1380h-37zM905 182q-1 -66 55 -114t146 -48q168 -1 242 117q31 51 30 101q0 78 -56 126t-144 48t-147 -32q-60 -32 -93 -82t-33 -116z
M1026 590q0 -60 49 -103t133 -43t140 31t85 77q27 46 27 108t-50 105q-50 44 -131 44t-137 -32t-86 -80q-30 -47 -30 -107zM1493 651q0 -84 -57 -147t-158 -82v-2q61 -20 97 -68t36 -110t-35 -120q-36 -58 -104 -96t-168 -38t-166 57t-66 145t65 158q65 68 175 86v2
q-55 18 -88 62t-33 103q0 57 34 113q35 56 99 92t158 36t152 -54q59 -53 59 -137z" />
    <glyph glyph-name="fiveeighths" unicode="&#x215d;" horiz-adv-x="1550" 
d="M341 541q-99 0 -155 47q-55 47 -55 129q0 23 6 49h33q-6 -27 -6 -49q0 -70 46 -107t133 -37t154 44t100 112q34 69 34 145t-49 127t-138 52q-159 0 -241 -156l-31 2l168 481h424l-8 -32h-396l-124 -359h2q76 98 206 96q102 0 160 -60q58 -59 60 -149q0 -90 -39 -164
t-112 -122q-73 -49 -172 -49zM217 0l1151 1380h37l-1151 -1380h-37zM899 182q0 -66 55 -114q56 -48 146 -48t150 33t91 84t31 115t-56 112t-144 48t-147 -32q-60 -32 -93 -82t-33 -116zM1020 590q0 -60 49 -103t133 -43t140 31t84 77t28 108t-50 105q-50 44 -131 44
t-137 -32t-86 -80q-30 -47 -30 -107zM1405 242q0 -62 -35 -120q-36 -58 -104 -96t-168 -38t-166 57t-66 145t65 158q65 68 175 86v2q-55 18 -88 62t-33 103q0 57 34 113q35 56 99 92t157 36t152 -54q59 -53 59 -137t-56 -147q-57 -63 -158 -82v-2q61 -20 97 -68t36 -110z
" />
    <glyph glyph-name="seveneighths" unicode="&#x215e;" horiz-adv-x="1370" 
d="M475 989q-135 -190 -254 -436h-37q125 256 257 444t284 351h-502l8 32h547l-8 -30q-160 -171 -295 -361zM37 0l1151 1380h37l-1151 -1380h-37zM719 182q0 -66 55 -114q56 -48 146 -48t150 33t91 84t31 115t-56 112t-144 48t-147 -32q-60 -32 -93 -82t-33 -116zM1022 444
q84 0 140 31t84 77t28 108t-50 105q-50 44 -132 44t-137 -32q-56 -32 -86 -80q-29 -47 -29 -107t49 -103t133 -43zM1225 242q0 -62 -35 -120t-104 -96t-169 -38q-99 0 -165 57t-66 145t65 158q65 68 175 86v2q-55 18 -88 62t-33 103q0 57 34 113q35 56 99 92t157 36t152 -54
q59 -53 59 -137t-56 -147q-58 -63 -158 -82v-2q61 -20 97 -68t36 -110z" />
    <glyph glyph-name="partialdiff" unicode="&#x2202;" horiz-adv-x="1159" 
d="M123 316q0 -136 74.5 -220t227.5 -84t268.5 98.5t177 231.5t61.5 231q0 162 -85 259.5t-239 97.5t-265.5 -98.5t-165.5 -239t-54 -276.5zM1069 1002q0 -224 -73.5 -459.5t-220 -399t-351.5 -163.5q-166 0 -250 92t-84 240t58.5 296t176 251.5t287.5 103.5
q121 0 233.5 -80t112.5 -293q0 -66 -14 -115h2q39 121 64.5 264.5t25.5 249.5q0 221 -84 339t-252 118q-133 0 -220 -80t-126 -221h-32q43 156 139 245t239 89q183 0 276 -126.5t93 -350.5z" />
    <glyph glyph-name="Delta" unicode="&#x2206;" horiz-adv-x="1296" 
d="M989 778q-74 438 -110 647h-2l-934 -1392h1173zM-117 0l977 1458h45l250 -1458h-1272z" />
    <glyph glyph-name="product" unicode="&#x220f;" horiz-adv-x="1280" 
d="M1032 -246v1671h-784v-1671h-33v1704h850v-1704h-33z" />
    <glyph glyph-name="summation" unicode="&#x2211;" horiz-adv-x="911" 
d="M840 -213v-33h-768v33l491 809l-491 829v33h768v-33h-731l491 -829l-491 -809h731z" />
    <glyph glyph-name="minus" unicode="&#x2212;" horiz-adv-x="1159" 
d="M154 633v33h852v-33h-852z" />
    <glyph glyph-name="uni2215" unicode="&#x2215;" horiz-adv-x="808" 
d="M-244 -182l1030 1708h39l-1030 -1708h-39z" />
    <glyph glyph-name="uni2219" unicode="&#x2219;" horiz-adv-x="520" 
d="M242 553v147h37v-147h-37z" />
    <glyph glyph-name="radical" unicode="&#x221a;" horiz-adv-x="989" 
d="M51 655v33h189l204 -860h5l464 1630h35l-487 -1704h-33l-213 901h-164z" />
    <glyph glyph-name="infinity" unicode="&#x221e;" horiz-adv-x="1122" 
d="M1059 631q0 94 -53.5 152.5t-142.5 58.5t-151.5 -53.5t-131.5 -157.5q70 -104 132 -157.5t151 -53.5t142.5 58.5t53.5 152.5zM259 842q-89 0 -142.5 -58.5t-53.5 -152.5t53.5 -152.5t142.5 -58.5t151.5 53t132.5 158q-70 104 -132.5 157.5t-151.5 53.5zM1092 630.5
q0 -108.5 -62.5 -176t-163 -67.5t-166 55.5t-139.5 161.5q-74 -106 -139.5 -161.5t-165.5 -55.5t-162.5 67.5t-62.5 176t62.5 176t162.5 67.5t165.5 -55t139.5 -162q74 106 139.5 161.5t166 55.5t163 -67.5t62.5 -176z" />
    <glyph glyph-name="integral" unicode="&#x222b;" horiz-adv-x="540" 
d="M254 1217q0 247 203 247q28 0 53 -6v-33q-23 6 -53 7q-170 0 -170 -215v-1354q0 -123 -52.5 -185.5t-150.5 -62.5q-29 0 -53 6v33q20 -6 53 -6q170 0 170 215v1354z" />
    <glyph glyph-name="approxequal" unicode="&#x2248;" horiz-adv-x="1159" 
d="M809 385q70 0 117 56.5t47 148.5h33q0 -106 -57.5 -172t-137.5 -66t-127.5 29t-111.5 88t-107 87t-113 28t-118 -56.5t-48 -148.5h-32q0 106 57 171.5t138 65.5t130 -30.5t111 -87.5t105.5 -85t113.5 -28zM809 715q70 0 117 56t47 149h33q0 -106 -57.5 -172t-137.5 -66
t-127.5 28t-111.5 88t-107 87.5t-114 27.5t-118 -56t-47 -148h-32q0 106 57 171.5t138 65.5t130 -30t111 -88t105.5 -85.5t113.5 -27.5z" />
    <glyph glyph-name="notequal" unicode="&#x2260;" horiz-adv-x="1159" 
d="M1006 537v-33h-510l-222 -303h-38l219 303h-301v33h325l162 223h-487v33h512l219 303h41l-221 -303h301v-33h-324l-164 -223h488z" />
    <glyph glyph-name="lessequal" unicode="&#x2264;" horiz-adv-x="1159" 
d="M1006 0h-852v33h852v-33zM186 651v-4l820 -375v-36l-852 391v45l852 391v-37z" />
    <glyph glyph-name="greaterequal" unicode="&#x2265;" horiz-adv-x="1159" 
d="M154 0v33h852v-33h-852zM1006 627l-852 -391v36l819 375v4l-819 375v37l852 -391v-45z" />
    <glyph glyph-name="lozenge" unicode="&#x25ca;" horiz-adv-x="1089" 
d="M545 31l426 698l-426 698l-426 -698zM563 0h-37l-444 729l444 729h37l445 -729z" />
    <glyph glyph-name="uniF8FF" unicode="&#xf8ff;" horiz-adv-x="1228" 
d="M528 133v117h37v-117h-37zM907 1034q0 -86 -37 -147t-128 -139t-124 -122t-45 -102t-12 -164h-26v35q0 91 13 149t48 104q36 46 122 121t122 131q35 56 34 134q0 110 -80 180t-209 70q-128 0 -206 -73t-86 -205h-33q10 150 97 230t229 81q142 0 231 -79q90 -79 90 -204z
M94 113q0 -97 58 -155t155 -58h574q98 0 155 57t58 156v1233q0 98 -58 155t-155 58h-574q-98 -1 -155 -58t-58 -155v-1233zM1126 113q0 -115 -66 -181t-179 -65h-574q-113 -1 -179 65t-67 181v1233q0 114 67 180t179 65h574q114 1 180 -65t65 -180v-1233z" />
    <glyph glyph-name="ff" unicode="&#xfb00;" horiz-adv-x="962" 
d="M659 1464q33 0 58 -8l-8 -31q-20 6 -50 7q-170 0 -227 -224l-41 -168h414l43 177q62 247 258 247q32 0 57 -8l-8 -31q-23 6 -49 7q-170 0 -227 -224l-41 -168h219l-8 -32h-220l-251 -1008h-33l252 1008h-414l-252 -1008h-33l252 1008h-198l8 32h198l43 177
q62 247 258 247z" />
    <glyph glyph-name="fi" unicode="&#xfb01;" horiz-adv-x="921" 
d="M659 1464q33 0 58 -8l-8 -31q-20 6 -50 7q-170 0 -227 -224l-41 -168h219l-8 -32h-219l-252 -1008h-33l252 1008h-198l8 32h198l43 177q62 247 258 247zM573 0l258 1040h33l-258 -1040h-33zM897 1300l39 158h33l-39 -158h-33z" />
    <glyph glyph-name="fl" unicode="&#xfb02;" horiz-adv-x="921" 
d="M659 1464q33 0 58 -8l-8 -31q-20 6 -50 7q-170 0 -227 -224l-41 -168h219l-8 -32h-219l-252 -1008h-33l252 1008h-198l8 32h198l43 177q62 247 258 247zM573 0l363 1458h33l-363 -1458h-33z" />
    <glyph glyph-name="ffi" unicode="&#xfb03;" horiz-adv-x="1368" 
d="M1311 1040l-258 -1040h-33l258 1040h33zM1376 1300h-33l39 158h33zM659 1464q33 0 58 -8l-8 -31q-20 6 -50 7q-170 0 -227 -224l-41 -168h414l43 177q62 247 258 247q33 0 57 -8l-8 -31q-23 6 -49 7q-170 0 -227 -224l-41 -168h219l-8 -32h-220l-251 -1008h-33l252 1008
h-414l-252 -1008h-33l252 1008h-198l8 32h198l43 177q62 247 258 247z" />
    <glyph glyph-name="ffl" unicode="&#xfb04;" horiz-adv-x="1368" 
d="M1053 0h-33l362 1458h33zM659 1464q33 0 58 -8l-8 -31q-20 6 -50 7q-170 0 -227 -224l-41 -168h414l43 177q62 247 258 247q33 0 57 -8l-8 -31q-23 6 -49 7q-170 0 -227 -224l-41 -168h219l-8 -32h-220l-251 -1008h-33l252 1008h-414l-252 -1008h-33l252 1008h-198l8 32
h198l43 177q62 247 258 247z" />
    <glyph glyph-name="uniFEFF" unicode="&#xfeff;" horiz-adv-x="0" 
 />
    <glyph glyph-name="J.acute.loclNLD" horiz-adv-x="620" 
d="M-12 -8q-45 0 -86 12l8 31q37 -10 78 -10q131 0 222 82.5t130 242.5l276 1108h33l-278 -1116q-43 -172 -142.5 -261t-240.5 -89zM569 1593l258 283h47l-266 -283h-39z" />
    <glyph glyph-name="Ccedilla.ss01" horiz-adv-x="1353" 
d="M1339 1026q0 -25 -4 -74h-32q4 49 4 74q0 186 -104.5 303t-316.5 117t-379 -139.5t-254 -350.5t-87 -436t117.5 -366.5t325.5 -141.5t366 121t223 311h35q-70 -209 -237 -336.5t-388 -127.5t-348 150.5t-127 388t91 455.5t265.5 361.5t398.5 143.5t337.5 -127t113.5 -326
zM256 -424l334 324h41l-326 -324h-49z" />
    <glyph glyph-name="Scedilla.ss01" horiz-adv-x="1179" 
d="M1126 1137q0 309 -348 309q-166 0 -266 -57.5t-150.5 -145.5t-50.5 -174q0 -121 77 -186.5t229.5 -115.5t229.5 -91t118 -104.5t41 -167.5t-57.5 -203t-173.5 -160t-281 -61q-416 0 -416 356q0 70 20 151h33q-20 -82 -20 -151q0 -324 383 -324q160 0 268 59.5
t159.5 149.5t51.5 185.5t-40 153.5t-111.5 94t-226 86t-235.5 124t-81 188.5t56 209t164.5 156t258.5 61.5q401 0 401 -342q0 -63 -18 -144h-33q18 80 18 144zM147 -424l334 324h41l-325 -324h-50z" />
    <glyph glyph-name="uni0162.ss01" horiz-adv-x="1163" 
d="M823 1425l-354 -1425h-33l355 1425h-555l8 33h1142l-8 -33h-555zM129 -424l334 324h41l-326 -324h-49z" />
    <glyph glyph-name="i.loclTRK" horiz-adv-x="405" 
d="M57 0l258 1040h33l-258 -1040h-33zM381 1300l39 158h33l-39 -158h-33z" />
    <glyph glyph-name="j.acute.loclNLD" horiz-adv-x="428" 
d="M-201 -383q-25 0 -41 6l9 31q12 -4 32 -4q96 0 158.5 57t99.5 203l281 1130h33l-283 -1138q-39 -156 -110.5 -220.5t-178.5 -64.5zM291 1176l258 282h47l-266 -282h-39z" />
    <glyph glyph-name="ccedilla.ss01" horiz-adv-x="1009" 
d="M956 719q0 -18 -2 -31h-32q2 12 2 31q0 143 -78 226t-226.5 83t-265 -103.5t-177 -257t-60.5 -312t81 -251t228 -92.5t259 84t159 226h35q-51 -156 -172 -249t-282 -93t-251 101t-90 271.5t64.5 332t189.5 269t284.5 107.5t246.5 -92t87 -250zM90 -424l334 324h41
l-326 -324h-49z" />
    <glyph glyph-name="scedilla.ss01" horiz-adv-x="915" 
d="M68 248q0 -236 303 -236q111 0 190.5 38t120.5 101.5t41 147.5t-63.5 132t-209 91t-207 94.5t-61.5 139.5t42 155.5t122 108.5t210 41t213 -67.5t83 -186.5q0 -51 -14 -102h-33q14 51 14 102q0 106 -72.5 163.5t-192 57.5t-191.5 -37t-110 -96t-38 -137t54.5 -121
t201 -86t216 -99.5t69.5 -151.5t-45 -166t-133.5 -112.5t-229.5 -41.5t-227 69.5t-86 198.5q0 53 14 108h33q-14 -55 -14 -108zM14 -424l334 324h41l-326 -324h-49z" />
    <glyph glyph-name="uni0163.ss01" horiz-adv-x="552" 
d="M174 127q0 -98 119 -98q37 0 74 8l-9 -35q-25 -6 -65 -6q-152 0 -152 137q0 45 17 109l192 766h-200l8 32h200l60 240h33l-60 -240h215l-8 -32h-215l-195 -775q-14 -57 -14 -106zM-129 -424l334 324h41l-326 -324h-49z" />
    <glyph glyph-name="a.sups" horiz-adv-x="733" 
d="M178 846q0 -152 204 -152q106 0 193 73t119 208l25 100q-121 -8 -279 -31q-262 -39 -262 -198zM743 1210q0 176 -194 176q-102 0 -170 -55t-88 -145h-35q23 106 101.5 169.5t188.5 63.5t170 -53t60 -156q0 -39 -14 -94l-70 -280q-25 -106 -26 -160h-33q2 57 31 158h-2
q-98 -172 -300 -172q-100 0 -158.5 49t-58.5 133q0 193 291 233q129 20 291 31q16 64 16 102z" />
    <glyph glyph-name="b.sups" horiz-adv-x="804" 
d="M283 928q0 -108 55 -171t162 -63t184.5 70t117.5 173t40 212t-54 173t-160 64t-184.5 -70.5t-119.5 -175t-41 -212.5zM644 1419q104 0 167 -73.5t63 -193.5t-44 -231.5t-130 -185t-200 -73.5t-176 65.5t-66 187.5h-2q-12 -76 -53 -239h-33l256 1020h33l-74 -291
q-30 -123 -53 -186h2q108 200 310 200z" />
    <glyph glyph-name="c.sups" horiz-adv-x="729" 
d="M825 1176v-21h-32v19q0 98 -56.5 155t-162.5 57t-188.5 -69.5t-124.5 -174t-42 -212.5t56.5 -172t159.5 -64t180 57.5t110 151.5h35q-35 -109 -122 -175t-203 -66t-182.5 72.5t-66.5 192.5t46.5 231.5t136 186t207.5 74.5t183.5 -66.5t65.5 -176.5z" />
    <glyph glyph-name="d.sups" horiz-adv-x="802" 
d="M221 930q0 -108 54.5 -172t158.5 -64t184 71t121 174t41 211t-54 172t-160 64t-185.5 -69.5t-119.5 -174t-40 -212.5zM188 928q0 119 44 231.5t131 186t201 73.5t175.5 -66.5t65.5 -187.5h2q12 76 53 240l74 291h33l-256 -1020h-33q31 123 53 186h-2q-109 -200 -311 -200
q-104 0 -167 73.5t-63 192.5z" />
    <glyph glyph-name="e.sups" horiz-adv-x="761" 
d="M807 1159q1 227 -229 227q-114 0 -209 -84.5t-131 -226.5h557q12 43 12 84zM219 936q0 -117 57.5 -179.5t161.5 -62.5t185.5 53.5t115.5 143.5h35q-39 -104 -129 -166.5t-208 -62.5t-184.5 71.5t-66.5 191.5t47.5 232.5t138.5 187t212 74.5t188.5 -68.5t67.5 -191.5
q0 -59 -19 -117h-592q-10 -65 -10 -106z" />
    <glyph glyph-name="egrave.sups" horiz-adv-x="761" 
d="M807 1159q1 227 -229 227q-114 0 -209 -84.5t-131 -226.5h557q12 43 12 84zM219 936q0 -117 57.5 -179.5t161.5 -62.5t185.5 53.5t115.5 143.5h35q-39 -104 -129 -166.5t-208 -62.5t-184.5 71.5t-66.5 191.5t47.5 232.5t138.5 187t212 74.5t188.5 -68.5t67.5 -191.5
q0 -59 -19 -117h-592q-10 -65 -10 -106zM512 1696h41l113 -197h-33z" />
    <glyph glyph-name="f.sups" horiz-adv-x="374" 
d="M602 1669q-119 0 -160 -151l-28 -113h157l-8 -33h-157l-173 -696h-32l172 696h-140l9 33h139l31 121q47 176 190 176q22 0 45 -6l-8 -33q-16 6 -37 6z" />
    <glyph glyph-name="g.sups" horiz-adv-x="802" 
d="M225 950q0 -106 53.5 -169.5t159.5 -63.5t185 69.5t120 170.5t41 203t-53 164t-159 62t-185.5 -66.5t-120.5 -165t-41 -204.5zM735 887q-107 -203 -313 -203q-106 0 -167.5 73.5t-61.5 190.5t45 223.5t132.5 177t199.5 70.5t173.5 -64.5t63.5 -180.5h2q18 100 51 231h33
l-172 -694q-37 -150 -126 -229t-216 -79t-192.5 49.5t-65.5 135.5q0 14 4 43h33q-4 -33 -4 -43q0 -74 56 -114t157 -40q252 0 323 287q29 111 47 166h-2z" />
    <glyph glyph-name="h.sups" horiz-adv-x="794" 
d="M627 1386q-106 0 -194.5 -71.5t-117.5 -186.5l-112 -452h-33l254 1020h33l-109 -434h2q49 74 123 115.5t163 41.5t144.5 -52t55.5 -153q0 -43 -17 -112l-106 -426h-33l108 430q14 72 15 108q0 172 -176 172z" />
    <glyph glyph-name="i.sups" horiz-adv-x="294" 
d="M170 676l180 729h33l-180 -729h-33zM395 1583l29 113h33l-29 -113h-33z" />
    <glyph glyph-name="j.sups" horiz-adv-x="313" 
d="M-4 408q-14 0 -35 4l8 30q12 -4 27 -4q68 0 111 39t67 137l197 791h32l-198 -799q-29 -108 -80 -153t-129 -45zM416 1583l28 113h33l-28 -113h-33z" />
    <glyph glyph-name="k.sups" horiz-adv-x="653" 
d="M698 676h-45l-352 387h-2l-96 -387h-33l254 1020h33l-154 -613h2l475 322h58l-496 -336z" />
    <glyph glyph-name="l.sups" horiz-adv-x="294" 
d="M170 676l254 1020h33l-254 -1020h-33z" />
    <glyph glyph-name="m.sups" horiz-adv-x="1200" 
d="M756 1229q0 157 -167 157q-87 0 -167 -72.5t-111 -197.5l-108 -440h-33l182 729h33q-23 -92 -45 -156h2q43 78 109.5 124t150.5 46t133 -49t49 -137q43 88 114 137t159 49t137 -48t49 -142q0 -47 -16 -117l-109 -436h-33l109 442q16 66 16 111q0 158 -155 157
q-96 0 -174 -67.5t-105 -177.5l-117 -465h-32l116 469q12 61 13 84z" />
    <glyph glyph-name="n.sups" horiz-adv-x="794" 
d="M627 1386q-106 0 -194.5 -71.5t-117.5 -186.5l-112 -452h-33l182 729h33q-23 -90 -45 -158h2q49 84 125 128t167 44t146.5 -52t55.5 -153q0 -43 -17 -112l-106 -426h-33l108 430q14 72 15 108q0 172 -176 172z" />
    <glyph glyph-name="o.sups" horiz-adv-x="780" 
d="M223 941q0 -112 61.5 -179.5t175.5 -67.5t193.5 66.5t119.5 167t40 210.5t-61.5 179t-175.5 69t-193.5 -66.5t-119.5 -166.5t-40 -212zM846 1141q0 -123 -45 -230.5t-132 -178t-212 -70.5t-196 77t-71 199t45.5 230t132.5 179.5t212 71.5t195.5 -77.5t70.5 -200.5z" />
    <glyph glyph-name="p.sups" horiz-adv-x="802" 
d="M281 928q0 -108 55 -171t162 -63t184.5 70t117.5 173t40 212t-54 173t-160 64t-185 -70.5t-119.5 -175t-40.5 -212.5zM332 1219q108 200 310 200q103 0 166.5 -73.5t63.5 -193.5t-44 -231.5t-130 -185t-200 -73.5t-176 65.5t-66 187.5h-2q-12 -76 -53 -239l-66 -264h-33
l248 993h33q-31 -123 -53 -186h2z" />
    <glyph glyph-name="q.sups" horiz-adv-x="802" 
d="M221 930q0 -108 54.5 -172t158.5 -64t184 71t121 174t41 211t-54 172t-160 64t-185.5 -69.5t-119.5 -174t-40 -212.5zM188 928q0 119 44 231.5t131 186t201 73.5t175.5 -66.5t65.5 -187.5h2q12 76 53 240h33l-248 -993h-33l66 264q31 123 53 186h-2q-109 -200 -311 -200
q-104 0 -167 73.5t-63 192.5z" />
    <glyph glyph-name="r.sups" horiz-adv-x="473" 
d="M633 1407q31 0 41 -2l-8 -33q-10 2 -41 2q-113 0 -199 -72.5t-121 -211.5l-102 -414h-33l182 729h33q-29 -115 -49 -172h2q102 174 295 174z" />
    <glyph glyph-name="s.sups" horiz-adv-x="661" 
d="M713 1237q0 149 -202 149q-101 0 -161.5 -51t-60.5 -117t37.5 -94t143.5 -58t158 -71t52 -125t-75 -146t-200 -62t-188 49t-63 141q0 41 10 72h33q-10 -31 -11 -72q0 -158 215 -158q117 0 181.5 53.5t64.5 124.5t-46.5 104.5t-150.5 61.5t-149 65t-45 115t69.5 139.5
t184.5 61.5t175 -48t60 -134q0 -35 -8 -68h-32q8 33 8 68z" />
    <glyph glyph-name="t.sups" horiz-adv-x="401" 
d="M264 768q0 -64 86 -63q35 0 53 6l-8 -33q-18 -6 -47 -6q-117 0 -117 106q0 25 13 74l131 520h-144l9 33h143l41 168h33l-41 -168h153l-8 -33h-153l-134 -528q-10 -46 -10 -76z" />
    <glyph glyph-name="u.sups" horiz-adv-x="794" 
d="M252 866q0 -172 176 -172q106 0 194.5 72t116.5 186l113 453h33l-183 -729h-32l37 143h-2q-49 -74 -123 -115.5t-163 -41.5t-144.5 52t-55.5 152q0 43 17 113l106 426h33l-109 -430q-14 -72 -14 -109z" />
    <glyph glyph-name="v.sups" horiz-adv-x="641" 
d="M336 676l-113 729h33l53 -340q29 -207 56 -356h2q152 233 233 356l221 340h39l-477 -729h-47z" />
    <glyph glyph-name="w.sups" horiz-adv-x="1099" 
d="M827 676l-32 371l-31 327h-2l-412 -698h-51l-66 729h33l64 -696h2l409 696h52l32 -346q20 -193 29 -301l4 -49h2l408 696h37l-426 -729h-52z" />
    <glyph glyph-name="x.sups" horiz-adv-x="657" 
d="M690 676h-37l-194 352h-2l-365 -352h-47l395 381l-188 348h37l176 -324h2l332 324h45l-361 -352z" />
    <glyph glyph-name="y.sups" horiz-adv-x="643" 
d="M57 406q-49 0 -71 8l8 32q24 -10 64 -10t98.5 28.5t181.5 211.5l-115 729h33l109 -684h2l456 684h37l-493 -741q-128 -195 -194.5 -226.5t-115.5 -31.5z" />
    <glyph glyph-name="z.sups" horiz-adv-x="649" 
d="M115 709h553l-9 -33h-591l10 43l702 651v2h-524l8 33h563l-10 -43l-702 -651v-2z" />
    <glyph glyph-name="a.smcp" horiz-adv-x="1073" 
d="M809 446l-129 646h-2l-447 -646h578zM209 414l-287 -414h-39l776 1122h48l223 -1122h-33l-82 414h-606z" />
    <glyph glyph-name="aacute.smcp" horiz-adv-x="1073" 
d="M809 446l-129 646h-2l-447 -646h578zM209 414l-287 -414h-39l776 1122h48l223 -1122h-33l-82 414h-606zM610 1257l258 283h47l-266 -283h-39z" />
    <glyph glyph-name="abreve.smcp" horiz-adv-x="1073" 
d="M809 446l-129 646h-2l-447 -646h578zM209 414l-287 -414h-39l776 1122h48l223 -1122h-33l-82 414h-606zM723 1313q230 0 315 227h35q-41 -125 -131 -192.5t-214 -67.5t-185.5 57.5t-61.5 163.5q0 25 2 39h33q-2 -14 -2 -39q0 -188 209 -188z" />
    <glyph glyph-name="acircumflex.smcp" horiz-adv-x="1073" 
d="M809 446l-129 646h-2l-447 -646h578zM209 414l-287 -414h-39l776 1122h48l223 -1122h-33l-82 414h-606zM930 1257l-154 252l-278 -252h-49l313 283h33l174 -283h-39z" />
    <glyph glyph-name="adieresis.smcp" horiz-adv-x="1073" 
d="M809 446l-129 646h-2l-447 -646h578zM209 414l-287 -414h-39l776 1122h48l223 -1122h-33l-82 414h-606zM911 1382l39 158h33l-39 -158h-33zM535 1382l38 158h33l-39 -158h-32z" />
    <glyph glyph-name="agrave.smcp" horiz-adv-x="1073" 
d="M809 446l-129 646h-2l-447 -646h578zM209 414l-287 -414h-39l776 1122h48l223 -1122h-33l-82 414h-606zM809 1257h-31l-135 283h39z" />
    <glyph glyph-name="amacron.smcp" horiz-adv-x="1073" 
d="M809 446l-129 646h-2l-447 -646h578zM209 414l-287 -414h-39l776 1122h48l223 -1122h-33l-82 414h-606zM514 1409l8 33h463l-8 -33h-463z" />
    <glyph glyph-name="aogonek.smcp" horiz-adv-x="1073" 
d="M809 446l-129 646h-2l-447 -646h578zM694 -274q0 -80 88 -80q37 0 68 10l-8 -35q-33 -8 -60 -8q-121 0 -120 113q0 68 52 134t181 152l-80 402h-606l-287 -414h-39l776 1122h48l223 -1122q-135 -90 -185.5 -153.5t-50.5 -120.5z" />
    <glyph glyph-name="aring.smcp" horiz-adv-x="1073" 
d="M809 446l-129 646h-2l-447 -646h578zM209 414l-287 -414h-39l776 1122h48l223 -1122h-33l-82 414h-606zM600 1469.5q0 -58.5 41 -99.5t99 -41t98.5 41t40.5 99t-40 98.5t-98.5 40.5t-99.5 -40t-41 -98.5zM911 1468.5q0 -71.5 -50 -122t-121.5 -50.5t-122 50.5t-50.5 122
t51.5 121.5t122 50t120.5 -50t50 -121.5z" />
    <glyph glyph-name="atilde.smcp" horiz-adv-x="1073" 
d="M809 446l-129 646h-2l-447 -646h578zM209 414l-287 -414h-39l776 1122h48l223 -1122h-33l-82 414h-606zM616 1487q-100 0 -143 -133h-35q27 80 74 123t98 43t83 -17.5t70 -51.5t64.5 -49.5t68.5 -15.5t80 34t58 100h35q-27 -80 -74 -123t-98 -43t-83 17.5t-70 51
t-64.5 49t-63.5 15.5z" />
    <glyph glyph-name="ae.smcp" horiz-adv-x="1536" 
d="M797 1090l-504 -615h487l49 615h-32zM823 594h570l-9 -33h-565l-39 -528h525l-9 -33h-553l35 442h-512l-362 -442h-43l919 1122h772l-8 -32h-682z" />
    <glyph glyph-name="b.smcp" horiz-adv-x="1036" 
d="M469 33q115 0 193.5 46t116.5 114.5t38 138.5q0 104 -70.5 165.5t-216.5 61.5h-305l-131 -526h375zM530 592q141 0 229.5 45t127.5 109.5t39 127.5q0 215 -248 216h-322l-123 -498h297zM958 874q0 -63 -34.5 -128.5t-105 -112.5t-173.5 -58v-2q94 -16 149.5 -78.5
t55.5 -152.5t-42 -166t-128 -126t-211 -50h-416l279 1122h346q141 0 210.5 -65.5t69.5 -182.5z" />
    <glyph glyph-name="c.smcp" horiz-adv-x="1132" 
d="M1077 807q0 -35 -6 -70h-33q6 37 6 70q0 135 -85 219t-257.5 84t-307 -106.5t-205 -266t-70.5 -333t93 -283t264 -109.5t301 91.5t184 236.5h34q-57 -162 -196.5 -261t-323.5 -99t-286.5 118.5t-102.5 327.5q0 160 75 328t216 278.5t325.5 110.5t279.5 -93.5t95 -242.5z
" />
    <glyph glyph-name="cacute.smcp" horiz-adv-x="1132" 
d="M1077 807q0 -35 -6 -70h-33q6 37 6 70q0 135 -85 219t-257.5 84t-307 -106.5t-205 -266t-70.5 -333t93 -283t264 -109.5t301 91.5t184 236.5h34q-57 -162 -196.5 -261t-323.5 -99t-286.5 118.5t-102.5 327.5q0 160 75 328t216 278.5t325.5 110.5t279.5 -93.5t95 -242.5z
M635 1257l258 283h47l-266 -283h-39z" />
    <glyph glyph-name="ccaron.smcp" horiz-adv-x="1132" 
d="M1077 807q0 -35 -6 -70h-33q6 37 6 70q0 135 -85 219t-257.5 84t-307 -106.5t-205 -266t-70.5 -333t93 -283t264 -109.5t301 91.5t184 236.5h34q-57 -162 -196.5 -261t-323.5 -99t-286.5 118.5t-102.5 327.5q0 160 75 328t216 278.5t325.5 110.5t279.5 -93.5t95 -242.5z
M717 1257l-174 283h39l153 -252l279 252h49l-313 -283h-33z" />
    <glyph glyph-name="ccedilla.smcp" horiz-adv-x="1132" 
d="M459 -135q139 -1 139 -131q0 -64 -55.5 -109t-149.5 -45t-174 47l17 29q68 -43 152.5 -43t130.5 35t46 92q0 94 -106 94q-35 0 -70 -10l-20 22l125 134h-15q-188 0 -290.5 118.5t-102.5 327.5q0 160 75 328t216 278.5t325.5 110.5t279.5 -93.5t95 -242.5q0 -37 -6 -70
h-33q6 37 6 70q0 135 -85 219t-257.5 84t-307 -106.5t-205 -266t-70.5 -333t93 -283t264 -109.5t301 91.5t184 236.5h34q-53 -147 -174 -243.5t-280 -112.5l-115 -123q16 4 33 4z" />
    <glyph glyph-name="ccircumflex.smcp" horiz-adv-x="1132" 
d="M1077 807q0 -35 -6 -70h-33q6 37 6 70q0 135 -85 219t-257.5 84t-307 -106.5t-205 -266t-70.5 -333t93 -283t264 -109.5t301 91.5t184 236.5h34q-57 -162 -196.5 -261t-323.5 -99t-286.5 118.5t-102.5 327.5q0 160 75 328t216 278.5t325.5 110.5t279.5 -93.5t95 -242.5z
M954 1257l-153 252l-279 -252h-49l313 283h33l174 -283h-39z" />
    <glyph glyph-name="cdotaccent.smcp" horiz-adv-x="1132" 
d="M1077 807q0 -35 -6 -70h-33q6 37 6 70q0 135 -85 219t-257.5 84t-307 -106.5t-205 -266t-70.5 -333t93 -283t264 -109.5t301 91.5t184 236.5h34q-57 -162 -196.5 -261t-323.5 -99t-286.5 118.5t-102.5 327.5q0 160 75 328t216 278.5t325.5 110.5t279.5 -93.5t95 -242.5z
M748 1382l38 158h33l-39 -158h-32z" />
    <glyph glyph-name="d.smcp" horiz-adv-x="1214" 
d="M453 33q219 0 363.5 92t212 231.5t67.5 286.5q0 217 -122 332t-362 115h-256l-262 -1057h359zM1128 643q0 -156 -71.5 -303t-223 -243.5t-380.5 -96.5h-400l279 1122h280q254 0 385 -124t131 -355z" />
    <glyph glyph-name="eth.smcp" horiz-adv-x="1216" 
d="M1106 643q0 217 -122 332t-361 115h-256l-125 -506h411l-8 -33h-412l-129 -518h359q219 0 363.5 92t212 231.5t67.5 286.5zM1139 643q0 -156 -72 -303t-223.5 -243.5t-380.5 -96.5h-400l138 551h-117l8 33h117l133 538h281q254 0 385 -124t131 -355z" />
    <glyph glyph-name="dcaron.smcp" horiz-adv-x="1214" 
d="M453 33q219 0 363.5 92t212 231.5t67.5 286.5q0 217 -122 332t-362 115h-256l-262 -1057h359zM1128 643q0 -156 -71.5 -303t-223 -243.5t-380.5 -96.5h-400l279 1122h280q254 0 385 -124t131 -355zM692 1257l-174 283h39l154 -252l278 252h49l-313 -283h-33z" />
    <glyph glyph-name="dcroat.smcp" horiz-adv-x="1216" 
d="M1106 643q0 217 -122 332t-361 115h-256l-125 -506h411l-8 -33h-412l-129 -518h359q219 0 363 92t212 231t68 287zM1139 643q0 -156 -72 -303t-223 -244q-152 -96 -381 -96h-400l138 551h-117l8 33h117l133 538h281q254 0 385 -124t131 -355z" />
    <glyph glyph-name="e.smcp" horiz-adv-x="1015" 
d="M369 1090l-123 -496h626l-8 -33h-626l-132 -528h678l-8 -33h-710l278 1122h688l-8 -32h-655z" />
    <glyph glyph-name="eacute.smcp" horiz-adv-x="1015" 
d="M369 1090l-123 -496h626l-8 -33h-626l-132 -528h678l-8 -33h-710l278 1122h688l-8 -32h-655zM625 1257l258 283h47l-266 -283h-39z" />
    <glyph glyph-name="ebreve.smcp" horiz-adv-x="1015" 
d="M369 1090l-123 -496h626l-8 -33h-626l-132 -528h678l-8 -33h-710l278 1122h688l-8 -32h-655zM737 1313q231 0 316 227h34q-40 -125 -130.5 -192.5t-214.5 -67.5t-185 57.5t-61 163.5q0 25 2 39h32q-2 -14 -2 -39q0 -188 209 -188z" />
    <glyph glyph-name="ecaron.smcp" horiz-adv-x="1015" 
d="M369 1090l-123 -496h626l-8 -33h-626l-132 -528h678l-8 -33h-710l278 1122h688l-8 -32h-655zM707 1257l-175 283h39l154 -252l279 252h49l-314 -283h-32z" />
    <glyph glyph-name="ecircumflex.smcp" horiz-adv-x="1015" 
d="M369 1090l-123 -496h626l-8 -33h-626l-132 -528h678l-8 -33h-710l278 1122h688l-8 -32h-655zM944 1257l-153 252l-279 -252h-49l313 283h33l174 -283h-39z" />
    <glyph glyph-name="edieresis.smcp" horiz-adv-x="1015" 
d="M369 1090l-123 -496h626l-8 -33h-626l-132 -528h678l-8 -33h-710l278 1122h688l-8 -32h-655zM926 1382l39 158h32l-39 -158h-32zM549 1382l39 158h33l-39 -158h-33z" />
    <glyph glyph-name="edotaccent.smcp" horiz-adv-x="1015" 
d="M369 1090l-123 -496h626l-8 -33h-626l-132 -528h678l-8 -33h-710l278 1122h688l-8 -32h-655zM737 1382l39 158h33l-39 -158h-33z" />
    <glyph glyph-name="egrave.smcp" horiz-adv-x="1015" 
d="M369 1090l-123 -496h626l-8 -33h-626l-132 -528h678l-8 -33h-710l278 1122h688l-8 -32h-655zM823 1257h-30l-136 283h39z" />
    <glyph glyph-name="emacron.smcp" horiz-adv-x="1015" 
d="M369 1090l-123 -496h626l-8 -33h-626l-132 -528h678l-8 -33h-710l278 1122h688l-8 -32h-655zM528 1409l9 33h462l-8 -33h-463z" />
    <glyph glyph-name="eogonek.smcp" horiz-adv-x="1015" 
d="M541 -274q0 -80 88 -80q37 0 67 10l-8 -35q-33 -8 -59 -8q-121 0 -121 113q0 66 48 129t167 145h-657l278 1122h688l-8 -32h-655l-123 -496h626l-8 -33h-626l-132 -528h678l-8 -33q-135 -90 -185 -153.5t-50 -120.5z" />
    <glyph glyph-name="f.smcp" horiz-adv-x="931" 
d="M369 1090l-123 -492h608l-8 -33h-608l-140 -565h-32l278 1122h674l-8 -32h-641z" />
    <glyph glyph-name="fi.smcp" horiz-adv-x="1353" 
d="M369 1090l-123 -492h608l-8 -33h-608l-140 -565h-32l278 1122h674l-8 -32h-641zM997 0l279 1122h33l-279 -1122h-33z" />
    <glyph glyph-name="fl.smcp" horiz-adv-x="1839" 
d="M369 1090l-123 -492h608l-8 -33h-608l-140 -565h-32l278 1122h674l-8 -32h-641zM1706 33l-8 -33h-701l279 1122h33l-271 -1089h668z" />
    <glyph glyph-name="g.smcp" horiz-adv-x="1198" 
d="M1104 829q0 -33 -4 -51h-33q4 37 4 51q0 129 -85 205t-262.5 76t-317.5 -105.5t-213.5 -264t-73.5 -335t91 -283t267 -106.5t319.5 116t207.5 372h-396l8 33h428l-133 -537h-32q53 215 84 313h-2q-63 -156 -192.5 -242.5t-304.5 -86.5t-276.5 115.5t-101.5 328.5
q0 162 78 329t226.5 276.5t336.5 109.5t282.5 -85t94.5 -229z" />
    <glyph glyph-name="gbreve.smcp" horiz-adv-x="1198" 
d="M1104 829q0 -33 -4 -51h-33q4 37 4 51q0 129 -85 205t-262.5 76t-317.5 -105.5t-213.5 -264t-73.5 -335t91 -283t267 -106.5t319.5 116t207.5 372h-396l8 33h428l-133 -537h-32q53 215 84 313h-2q-63 -156 -192.5 -242.5t-304.5 -86.5t-276.5 115.5t-101.5 328.5
q0 162 78 329t226.5 276.5t336.5 109.5t282.5 -85t94.5 -229zM766 1313q230 0 315 227h35q-41 -125 -131 -192.5t-214 -67.5t-185.5 57.5t-61.5 163.5q0 25 2 39h33q-2 -14 -2 -39q0 -188 209 -188z" />
    <glyph glyph-name="gcircumflex.smcp" horiz-adv-x="1198" 
d="M1104 829q0 -33 -4 -51h-33q4 37 4 51q0 129 -85 205t-262.5 76t-317.5 -105.5t-213.5 -264t-73.5 -335t91 -283t267 -106.5t319.5 116t207.5 372h-396l8 33h428l-133 -537h-32q53 215 84 313h-2q-63 -156 -192.5 -242.5t-304.5 -86.5t-276.5 115.5t-101.5 328.5
q0 162 78 329t226.5 276.5t336.5 109.5t282.5 -85t94.5 -229zM973 1257l-154 252l-278 -252h-49l313 283h33l174 -283h-39z" />
    <glyph glyph-name="gcommaaccent.smcp" horiz-adv-x="1198" 
d="M1104 829q0 -33 -4 -51h-33q4 37 4 51q0 129 -85 205t-262.5 76t-317.5 -105.5t-213.5 -264t-73.5 -335t91 -283t267 -106.5t319.5 116t207.5 372h-396l8 33h428l-133 -537h-32q53 215 84 313h-2q-63 -156 -192.5 -242.5t-304.5 -86.5t-276.5 115.5t-101.5 328.5
q0 162 78 329t226.5 276.5t336.5 109.5t282.5 -85t94.5 -229zM332 -489h-29l107 192l32 135h33l-33 -135z" />
    <glyph glyph-name="gdotaccent.smcp" horiz-adv-x="1198" 
d="M1104 829q0 -33 -4 -51h-33q4 37 4 51q0 129 -85 205t-262.5 76t-317.5 -105.5t-213.5 -264t-73.5 -335t91 -283t267 -106.5t319.5 116t207.5 372h-396l8 33h428l-133 -537h-32q53 215 84 313h-2q-63 -156 -192.5 -242.5t-304.5 -86.5t-276.5 115.5t-101.5 328.5
q0 162 78 329t226.5 276.5t336.5 109.5t282.5 -85t94.5 -229zM766 1382l39 158h33l-39 -158h-33z" />
    <glyph glyph-name="h.smcp" horiz-adv-x="1224" 
d="M868 0l142 567h-770l-142 -567h-32l278 1122h33l-129 -522h770l129 522h33l-279 -1122h-33z" />
    <glyph glyph-name="hbar.smcp" horiz-adv-x="1222" 
d="M332 936l-84 -336h770l84 336h-770zM1133 936l-232 -936h-33l142 567h-770l-142 -567h-32l231 936h-100l8 33h100l39 153h33l-39 -153h770l39 153h33l-39 -153h100l-8 -33h-100z" />
    <glyph glyph-name="uni0125.smcp" horiz-adv-x="1224" 
d="M868 0l142 567h-770l-142 -567h-32l278 1122h33l-129 -522h770l129 522h33l-279 -1122h-33zM1018 1257l-154 252l-278 -252h-49l313 283h33l174 -283h-39z" />
    <glyph glyph-name="i.smcp" horiz-adv-x="421" 
d="M66 0l278 1122h33l-279 -1122h-32z" />
    <glyph glyph-name="iacute.smcp" horiz-adv-x="421" 
d="M66 0l278 1122h33l-279 -1122h-32zM297 1257l258 283h47l-266 -283h-39z" />
    <glyph glyph-name="ibreve.smcp" horiz-adv-x="421" 
d="M66 0l278 1122h33l-279 -1122h-32zM410 1313q188 0 264 227h33q-39 -125 -115 -192.5t-175 -67.5t-148.5 54.5t-49.5 152.5q0 25 4 53h31q-4 -29 -4 -53q0 -174 160 -174z" />
    <glyph glyph-name="icircumflex.smcp" horiz-adv-x="421" 
d="M66 0l278 1122h33l-279 -1122h-32zM573 1260l-112 247l-238 -247h-45l268 280h35l129 -280h-37z" />
    <glyph glyph-name="idieresis.smcp" horiz-adv-x="421" 
d="M66 0l278 1122h33l-279 -1122h-32zM561 1399l35 141h33l-35 -141h-33zM266 1399l35 141h33l-35 -141h-33z" />
    <glyph glyph-name="i.loclTRK.smcp" horiz-adv-x="421" 
d="M66 0l278 1122h33l-279 -1122h-32zM410 1382l39 158h32l-39 -158h-32z" />
    <glyph glyph-name="igrave.smcp" horiz-adv-x="421" 
d="M66 0l278 1122h33l-279 -1122h-32zM496 1257h-31l-135 283h39z" />
    <glyph glyph-name="ij.smcp" horiz-adv-x="954" 
d="M66 0l278 1122h33l-279 -1122h-32zM391 -6q-47 0 -72 8l9 33q25 -8 63 -8q106 0 180 62.5t105 182.5l211 850h33l-213 -858q-33 -131 -115 -200.5t-201 -69.5z" />
    <glyph glyph-name="imacron.smcp" horiz-adv-x="421" 
d="M66 0l278 1122h33l-279 -1122h-32zM242 1409l8 33h381l-8 -33h-381z" />
    <glyph glyph-name="iogonek.smcp" horiz-adv-x="421" 
d="M-137 -274q0 -80 88 -80q37 0 67 10l-8 -35q-33 -8 -59 -8q-121 0 -121 113q0 70 53.5 136t186.5 154l274 1106h33l-279 -1122q-135 -90 -185 -153.5t-50 -120.5z" />
    <glyph glyph-name="itilde.smcp" horiz-adv-x="421" 
d="M66 0l278 1122h33l-279 -1122h-32zM561 1354q-45 0 -71.5 17.5t-58.5 51t-54.5 49t-52.5 15.5q-82 0 -123 -133h-37q27 80 69.5 123t87 43t71 -17.5t58.5 -51.5t54 -49.5t53 -15.5q84 0 125 134h35q-25 -80 -68 -123t-88 -43z" />
    <glyph glyph-name="j.smcp" horiz-adv-x="532" 
d="M-31 -6q-47 0 -71 8l8 33q25 -8 63 -8q106 0 180 62.5t105 182.5l211 850h33l-213 -858q-33 -131 -115 -200.5t-201 -69.5z" />
    <glyph glyph-name="jcircumflex.smcp" horiz-adv-x="532" 
d="M-31 -6q-47 0 -71 8l8 33q25 -8 63 -8q106 0 180 62.5t105 182.5l211 850h33l-213 -858q-33 -131 -115 -200.5t-201 -69.5zM694 1260l-112 247l-238 -247h-45l268 280h35l129 -280h-37z" />
    <glyph glyph-name="k.smcp" horiz-adv-x="923" 
d="M776 0h-43l-500 578h-2l-143 -578h-33l279 1122h33l-129 -522h2l706 522h55l-729 -538z" />
    <glyph glyph-name="kcommaaccent.smcp" horiz-adv-x="923" 
d="M776 0h-43l-500 578h-2l-143 -578h-33l279 1122h33l-129 -522h2l706 522h55l-729 -538zM252 -489h-29l107 192l32 135h33l-33 -135z" />
    <glyph glyph-name="l.smcp" horiz-adv-x="907" 
d="M774 33l-8 -33h-700l278 1122h33l-271 -1089h668z" />
    <glyph glyph-name="lacute.smcp" horiz-adv-x="907" 
d="M774 33l-8 -33h-700l278 1122h33l-271 -1089h668zM383 1257l258 283h47l-266 -283h-39z" />
    <glyph glyph-name="lcaron.smcp" horiz-adv-x="907" 
d="M774 33l-8 -33h-700l278 1122h33l-271 -1089h668zM428 766l170 356h37l-176 -356h-31z" />
    <glyph glyph-name="lcommaaccent.smcp" horiz-adv-x="907" 
d="M774 33l-8 -33h-700l278 1122h33l-271 -1089h668zM248 -489h-29l107 192l32 135h33l-33 -135z" />
    <glyph glyph-name="ldot.smcp" horiz-adv-x="1026" 
d="M713 553l37 147h36l-36 -147h-37zM774 33l-8 -33h-700l278 1122h33l-271 -1089h668z" />
    <glyph glyph-name="j.acute.loclNLD.smcp" horiz-adv-x="532" 
d="M-31 -6q-47 0 -71 8l8 33q25 -8 63 -8q106 0 180 62.5t105 182.5l211 850h33l-213 -858q-33 -131 -115 -200.5t-201 -69.5zM418 1257l258 283h47l-266 -283h-39z" />
    <glyph glyph-name="lslash.smcp" horiz-adv-x="890" 
d="M752 0h-701l125 502l-151 -76l10 41l151 76l144 579h32l-139 -563l318 156l-11 -41l-317 -156l-121 -485h668z" />
    <glyph glyph-name="m.smcp" horiz-adv-x="1472" 
d="M1116 0l270 1087h-2l-753 -1087h-45l-215 1087h-2l-271 -1087h-32l278 1122h53l215 -1087h2l754 1087h59l-278 -1122h-33z" />
    <glyph glyph-name="n.smcp" horiz-adv-x="1247" 
d="M866 0l-506 1090h-2q-47 -193 -82 -330l-188 -760h-33l279 1122h47l506 -1089h2l270 1089h33l-279 -1122h-47z" />
    <glyph glyph-name="nacute.smcp" horiz-adv-x="1247" 
d="M866 0l-506 1090h-2q-47 -193 -82 -330l-188 -760h-33l279 1122h47l506 -1089h2l270 1089h33l-279 -1122h-47zM680 1257l258 283h47l-266 -283h-39z" />
    <glyph glyph-name="ncaron.smcp" horiz-adv-x="1247" 
d="M866 0l-506 1090h-2q-47 -193 -82 -330l-188 -760h-33l279 1122h47l506 -1089h2l270 1089h33l-279 -1122h-47zM762 1257l-174 283h39l153 -252l279 252h49l-313 -283h-33z" />
    <glyph glyph-name="ncommaaccent.smcp" horiz-adv-x="1247" 
d="M866 0l-506 1090h-2q-47 -193 -82 -330l-188 -760h-33l279 1122h47l506 -1089h2l270 1089h33l-279 -1122h-47zM338 -489h-29l107 192l33 135h32l-32 -135z" />
    <glyph glyph-name="eng.smcp" horiz-adv-x="1247" 
d="M664 -297q-27 0 -43 6l8 31q16 -4 35 -4q74 0 122 42t74 146l21 78l-519 1090h-2l-272 -1092h-33l279 1122h49l508 -1067h2l266 1067h33l-301 -1206q-29 -115 -86 -164t-141 -49z" />
    <glyph glyph-name="ntilde.smcp" horiz-adv-x="1247" 
d="M866 0l-506 1090h-2q-47 -193 -82 -330l-188 -760h-33l279 1122h47l506 -1089h2l270 1089h33l-279 -1122h-47zM961 1386q100 0 143 134h35q-27 -80 -74 -123t-98.5 -43t-83 17.5t-69.5 51t-64.5 49t-68.5 15.5t-80 -34t-58 -99h-35q27 80 74 123t98 43t83 -17.5t70 -51.5
t64.5 -49.5t63.5 -15.5z" />
    <glyph glyph-name="o.smcp" horiz-adv-x="1196" 
d="M123 442q0 -203 99.5 -316.5t281.5 -113.5t316 103.5t205 259t71 307.5q0 201 -99.5 314.5t-282 113.5t-316.5 -103.5t-204.5 -258t-70.5 -306.5zM1128 682q0 -160 -74.5 -323.5t-217 -271t-335 -107.5t-302 123.5t-109.5 338.5q0 160 75 323t216 270.5t335.5 107.5
t303 -123t108.5 -338z" />
    <glyph glyph-name="oacute.smcp" horiz-adv-x="1196" 
d="M123 442q0 -203 99.5 -316.5t281.5 -113.5t316 103.5t205 259t71 307.5q0 201 -99.5 314.5t-282 113.5t-316.5 -103.5t-204.5 -258t-70.5 -306.5zM1128 682q0 -160 -74.5 -323.5t-217 -271t-335 -107.5t-302 123.5t-109.5 338.5q0 160 75 323t216 270.5t335.5 107.5
t303 -123t108.5 -338zM645 1257l258 283h47l-266 -283h-39z" />
    <glyph glyph-name="obreve.smcp" horiz-adv-x="1196" 
d="M123 442q0 -203 99.5 -316.5t281.5 -113.5t316 103.5t205 259t71 307.5q0 201 -99.5 314.5t-282 113.5t-316.5 -103.5t-204.5 -258t-70.5 -306.5zM1128 682q0 -160 -74.5 -323.5t-217 -271t-335 -107.5t-302 123.5t-109.5 338.5q0 160 75 323t216 270.5t335.5 107.5
t303 -123t108.5 -338zM758 1313q230 0 315 227h35q-41 -125 -131 -192.5t-214 -67.5t-185.5 57.5t-61.5 163.5q0 25 2 39h33q-2 -14 -2 -39q0 -188 209 -188z" />
    <glyph glyph-name="ocircumflex.smcp" horiz-adv-x="1196" 
d="M123 442q0 -203 99.5 -316.5t281.5 -113.5t316 103.5t205 259t71 307.5q0 201 -99.5 314.5t-282 113.5t-316.5 -103.5t-204.5 -258t-70.5 -306.5zM1128 682q0 -160 -74.5 -323.5t-217 -271t-335 -107.5t-302 123.5t-109.5 338.5q0 160 75 323t216 270.5t335.5 107.5
t303 -123t108.5 -338zM965 1257l-154 252l-279 -252h-49l314 283h32l175 -283h-39z" />
    <glyph glyph-name="odieresis.smcp" horiz-adv-x="1196" 
d="M123 442q0 -203 99.5 -316.5t281.5 -113.5t316 103.5t205 259t71 307.5q0 201 -99.5 314.5t-282 113.5t-316.5 -103.5t-204.5 -258t-70.5 -306.5zM1128 682q0 -160 -74.5 -323.5t-217 -271t-335 -107.5t-302 123.5t-109.5 338.5q0 160 75 323t216 270.5t335.5 107.5
t303 -123t108.5 -338zM946 1382l39 158h33l-39 -158h-33zM569 1382l39 158h33l-39 -158h-33z" />
    <glyph glyph-name="ograve.smcp" horiz-adv-x="1196" 
d="M123 442q0 -203 99.5 -316.5t281.5 -113.5t316 103.5t205 259t71 307.5q0 201 -99.5 314.5t-282 113.5t-316.5 -103.5t-204.5 -258t-70.5 -306.5zM1128 682q0 -160 -74.5 -323.5t-217 -271t-335 -107.5t-302 123.5t-109.5 338.5q0 160 75 323t216 270.5t335.5 107.5
t303 -123t108.5 -338zM844 1257h-31l-135 283h39z" />
    <glyph glyph-name="ohungarumlaut.smcp" horiz-adv-x="1196" 
d="M123 442q0 -203 99.5 -316.5t281.5 -113.5t316 103.5t205 259t71 307.5q0 201 -99.5 314.5t-282 113.5t-316.5 -103.5t-204.5 -258t-70.5 -306.5zM1128 682q0 -160 -74.5 -323.5t-217 -271t-335 -107.5t-302 123.5t-109.5 338.5q0 160 75 323t216 270.5t335.5 107.5
t303 -123t108.5 -338zM772 1257l315 283h54l-326 -283h-43zM569 1257l316 283h53l-326 -283h-43z" />
    <glyph glyph-name="omacron.smcp" horiz-adv-x="1196" 
d="M123 442q0 -203 99.5 -316.5t281.5 -113.5t316 103.5t205 259t71 307.5q0 201 -99.5 314.5t-282 113.5t-316.5 -103.5t-204.5 -258t-70.5 -306.5zM1128 682q0 -160 -74.5 -323.5t-217 -271t-335 -107.5t-302 123.5t-109.5 338.5q0 160 75 323t216 270.5t335.5 107.5
t303 -123t108.5 -338zM549 1409l8 33h463l-8 -33h-463z" />
    <glyph glyph-name="oslash.smcp" horiz-adv-x="1198" 
d="M1096 682q0 152 -62 262l-835 -788q97 -144 292 -144t329 103.5t205 259t71 307.5zM123 443q0 -151 57 -259l836 787q-98 139 -291 139t-327 -103.5t-204.5 -258t-70.5 -305.5zM490 -20q-204 0 -314 153l-123 -113l-20 25l125 117q-68 111 -68 275.5t75 327.5t216 270.5
t344 107.5t315 -148l121 113l23 -25l-125 -116q69 -117 69 -281t-74.5 -327.5t-217 -271t-346.5 -107.5z" />
    <glyph glyph-name="otilde.smcp" horiz-adv-x="1196" 
d="M123 442q0 -203 99.5 -316.5t281.5 -113.5t316 103.5t205 259t71 307.5q0 201 -99.5 314.5t-282 113.5t-316.5 -103.5t-204.5 -258t-70.5 -306.5zM1128 682q0 -160 -74.5 -323.5t-217 -271t-335 -107.5t-302 123.5t-109.5 338.5q0 160 75 323t216 270.5t335.5 107.5
t303 -123t108.5 -338zM932 1354q-51 0 -83 17.5t-70 51t-64.5 49t-68.5 15.5t-80 -34t-58 -99h-35q27 80 74 123t98 43t83 -17.5t70 -51.5t64.5 -49.5t68.5 -15.5t80 34t58 100h35q-27 -80 -74 -123t-98 -43z" />
    <glyph glyph-name="oe.smcp" horiz-adv-x="1636" 
d="M131 479q0 -217 115.5 -331.5t343.5 -114.5h104l262 1057h-206q-211 0 -350.5 -92.5t-204 -231.5t-64.5 -287zM590 0q-242 0 -367 124t-125 355q0 156 69 303.5t215 243.5t368 96h903l-8 -32h-656l-123 -496h627l-8 -33h-627l-131 -528h678l-8 -33h-807z" />
    <glyph glyph-name="p.smcp" horiz-adv-x="1001" 
d="M625 557q117 0 193.5 45t113.5 113.5t37 138.5q0 111 -72 173.5t-219 62.5h-320l-131 -533h398zM1001 854q0 -80 -40.5 -155.5t-125.5 -125t-210 -49.5h-406l-131 -524h-33l279 1122h344q162 0 242.5 -72.5t80.5 -195.5z" />
    <glyph glyph-name="thorn.smcp" horiz-adv-x="1001" 
d="M563 313q117 0 194 45t113.5 114t36.5 138q0 111 -71.5 173.5t-219.5 62.5h-319l-131 -533h397zM616 879q162 0 243 -73t81 -196q0 -80 -41 -155.5t-126 -124.5t-210 -49h-405l-70 -281h-33l279 1122h33l-62 -243h311z" />
    <glyph glyph-name="q.smcp" horiz-adv-x="1196" 
d="M496 12q174 0 311 94l-119 173l27 18l119 -170q123 96 192.5 250.5t69.5 304.5q0 201 -99.5 314.5t-281.5 113.5t-316.5 -103.5t-205 -258t-70.5 -306.5q0 -202 99.5 -316t273.5 -114zM494 -20q-186 0 -295 123.5t-109 338.5q0 160 75 323t216 270.5t336 107.5t303 -123
t108 -338q0 -158 -72.5 -319.5t-203.5 -264.5l109 -153l-27 -19l-107 154q-147 -100 -333 -100z" />
    <glyph glyph-name="r.smcp" horiz-adv-x="1021" 
d="M547 567q139 0 227 47.5t128 115t40 134.5q0 109 -72.5 167.5t-220.5 58.5h-280l-129 -523h307zM975 864q1 -158 -147 -256q-74 -49 -181 -61v-2q59 -16 91 -61.5t46 -145.5l50 -338h-33l-47 330q-10 78 -32 122q-42 83 -183 83h-308l-133 -535h-32l278 1122h305
q162 0 244 -67.5t82 -190.5z" />
    <glyph glyph-name="racute.smcp" horiz-adv-x="1021" 
d="M547 567q139 0 227 47.5t128 115t40 134.5q0 109 -72.5 167.5t-220.5 58.5h-280l-129 -523h307zM975 864q1 -158 -147 -256q-74 -49 -181 -61v-2q59 -16 91 -61.5t46 -145.5l50 -338h-33l-47 330q-10 78 -32 122q-42 83 -183 83h-308l-133 -535h-32l278 1122h305
q162 0 244 -67.5t82 -190.5zM598 1257l258 283h47l-266 -283h-39z" />
    <glyph glyph-name="rcaron.smcp" horiz-adv-x="1021" 
d="M547 567q139 0 227 47.5t128 115t40 134.5q0 109 -72.5 167.5t-220.5 58.5h-280l-129 -523h307zM975 864q1 -158 -147 -256q-74 -49 -181 -61v-2q59 -16 91 -61.5t46 -145.5l50 -338h-33l-47 330q-10 78 -32 122q-42 83 -183 83h-308l-133 -535h-32l278 1122h305
q162 0 244 -67.5t82 -190.5zM680 1257l-174 283h39l153 -252l279 252h49l-313 -283h-33z" />
    <glyph glyph-name="rcommaaccent.smcp" horiz-adv-x="1021" 
d="M547 567q139 0 227 47.5t128 115t40 134.5q0 109 -72.5 167.5t-220.5 58.5h-280l-129 -523h307zM975 864q1 -158 -147 -256q-74 -49 -181 -61v-2q59 -16 91 -61.5t46 -145.5l50 -338h-33l-47 330q-10 78 -32 122q-42 83 -183 83h-308l-133 -535h-32l278 1122h305
q162 0 244 -67.5t82 -190.5zM264 -489h-28l106 192l33 135h33l-33 -135z" />
    <glyph glyph-name="s.smcp" horiz-adv-x="989" 
d="M68 262q0 -250 294 -250q142 0 229 44t129 109.5t42 137.5t-33 117t-89 72.5t-185.5 70.5t-195.5 103.5t-66 152t45 162t132 116.5t210 46q331 -1 331 -271q0 -47 -12 -106h-33q12 59 13 106q0 238 -279 238q-242 0 -335 -148q-40 -64 -40 -143t60.5 -131.5t187.5 -94.5
t189 -74q134 -69 133 -220q0 -76 -46.5 -149.5t-141.5 -121.5t-232 -48q-340 0 -340 282q0 55 14 113h33q-14 -57 -14 -113z" />
    <glyph glyph-name="sacute.smcp" horiz-adv-x="989" 
d="M68 262q0 -250 294 -250q142 0 229 44t129 109.5t42 137.5t-33 117t-89 72.5t-185.5 70.5t-195.5 103.5t-66 152t45 162t132 116.5t210 46q331 -1 331 -271q0 -47 -12 -106h-33q12 59 13 106q0 238 -279 238q-242 0 -335 -148q-40 -64 -40 -143t60.5 -131.5t187.5 -94.5
t189 -74q134 -69 133 -220q0 -76 -46.5 -149.5t-141.5 -121.5t-232 -48q-340 0 -340 282q0 55 14 113h33q-14 -57 -14 -113zM518 1257l258 283h47l-266 -283h-39z" />
    <glyph glyph-name="scaron.smcp" horiz-adv-x="989" 
d="M68 262q0 -250 294 -250q142 0 229 44t129 109.5t42 137.5t-33 117t-89 72.5t-185.5 70.5t-195.5 103.5t-66 152t45 162t132 116.5t210 46q331 -1 331 -271q0 -47 -12 -106h-33q12 59 13 106q0 238 -279 238q-242 0 -335 -148q-40 -64 -40 -143t60.5 -131.5t187.5 -94.5
t189 -74q134 -69 133 -220q0 -76 -46.5 -149.5t-141.5 -121.5t-232 -48q-340 0 -340 282q0 55 14 113h33q-14 -57 -14 -113zM600 1257l-174 283h39l153 -252l279 252h49l-313 -283h-33z" />
    <glyph glyph-name="scedilla.smcp" horiz-adv-x="989" 
d="M342 -135q139 -1 139 -131q0 -64 -55 -109t-149 -45t-175 47l17 29q68 -43 153 -43t131 35t46 92q0 94 -107 94q-35 0 -70 -10l-20 22l123 134q-340 0 -340 282q0 55 14 113h33q-14 -57 -14 -113q0 -250 294 -250q142 0 229 44t129 109.5t42 137.5t-33 117t-89 72.5
t-185.5 70.5t-195.5 103.5t-66 152t45 162t132 116.5t210 46q331 -1 331 -271q0 -49 -12 -106h-33q12 57 13 106q0 238 -279 238q-242 0 -335 -148q-40 -64 -40 -143t60.5 -131.5t187.5 -94.5t189 -74q134 -69 133 -220q0 -72 -41 -141.5t-125 -118.5t-207 -57l-113 -121
q16 4 33 4z" />
    <glyph glyph-name="scircumflex.smcp" horiz-adv-x="989" 
d="M68 262q0 -250 294 -250q142 0 229 44t129 109.5t42 137.5t-33 117t-89 72.5t-185.5 70.5t-195.5 103.5t-66 152t45 162t132 116.5t210 46q331 -1 331 -271q0 -47 -12 -106h-33q12 59 13 106q0 238 -279 238q-242 0 -335 -148q-40 -64 -40 -143t60.5 -131.5t187.5 -94.5
t189 -74q134 -69 133 -220q0 -76 -46.5 -149.5t-141.5 -121.5t-232 -48q-340 0 -340 282q0 55 14 113h33q-14 -57 -14 -113zM838 1257l-154 252l-278 -252h-50l314 283h32l175 -283h-39z" />
    <glyph glyph-name="scommaaccent.smcp" horiz-adv-x="989" 
d="M68 262q0 -250 294 -250q142 0 229 44t129 109.5t42 137.5t-33 117t-89 72.5t-185.5 70.5t-195.5 103.5t-66 152t45 162t132 116.5t210 46q331 -1 331 -271q0 -47 -12 -106h-33q12 59 13 106q0 238 -279 238q-242 0 -335 -148q-40 -64 -40 -143t60.5 -131.5t187.5 -94.5
t189 -74q134 -69 133 -220q0 -76 -46.5 -149.5t-141.5 -121.5t-232 -48q-340 0 -340 282q0 55 14 113h33q-14 -57 -14 -113zM205 -489h-29l107 192l32 135h33l-33 -135z" />
    <glyph glyph-name="germandbls.smcp" horiz-adv-x="1265" 
d="M784 1110q-429 0 -532 -410l-174 -700h-33l176 709q53 213 193.5 323.5t359.5 110.5q131 0 228.5 -47t150.5 -127l-416 -322q164 -24 252 -105t88 -218q0 -82 -47 -162t-140 -131t-231 -51t-214 58t-76 165q0 31 4 49h33q-4 -18 -5 -49q0 -190 267 -191q121 0 205.5 46
t127.5 119t43 147q0 135 -91 206.5t-269 90.5l8 32l416 322q-105 135 -324 135z" />
    <glyph glyph-name="t.smcp" horiz-adv-x="958" 
d="M637 1090l-270 -1090h-33l270 1090h-452l8 32h938l-8 -32h-453z" />
    <glyph glyph-name="tbar.smcp" horiz-adv-x="958" 
d="M528 653h263l-9 -32h-262l-153 -621h-33l153 621h-262l8 32h263l108 437h-452l8 32h938l-8 -32h-453z" />
    <glyph glyph-name="tcaron.smcp" horiz-adv-x="958" 
d="M637 1090l-270 -1090h-33l270 1090h-452l8 32h938l-8 -32h-453zM647 1257l-174 283h39l154 -252l278 252h49l-313 -283h-33z" />
    <glyph glyph-name="uni0163.smcp" horiz-adv-x="958" 
d="M637 1090l-270 -1090h-33l270 1090h-452l8 32h938l-8 -32h-453zM182 -489h-28l106 192l33 135h33l-33 -135z" />
    <glyph glyph-name="uni021B.smcp" horiz-adv-x="958" 
d="M637 1090l-270 -1090h-33l270 1090h-452l8 32h938l-8 -32h-453zM182 -489h-28l106 192l33 135h33l-33 -135z" />
    <glyph glyph-name="u.smcp" horiz-adv-x="1163" 
d="M475 12q168 0 280.5 94.5t157.5 276.5l185 739h32l-186 -747q-49 -195 -169 -295t-300 -100q-336 0 -336 307q0 63 23 153l170 682h33l-172 -690q-20 -76 -21 -145q0 -275 303 -275z" />
    <glyph glyph-name="uacute.smcp" horiz-adv-x="1163" 
d="M475 12q168 0 280.5 94.5t157.5 276.5l185 739h32l-186 -747q-49 -195 -169 -295t-300 -100q-336 0 -336 307q0 63 23 153l170 682h33l-172 -690q-20 -76 -21 -145q0 -275 303 -275zM647 1257l258 283h47l-266 -283h-39z" />
    <glyph glyph-name="ubreve.smcp" horiz-adv-x="1163" 
d="M475 12q168 0 280.5 94.5t157.5 276.5l185 739h32l-186 -747q-49 -195 -169 -295t-300 -100q-336 0 -336 307q0 63 23 153l170 682h33l-172 -690q-20 -76 -21 -145q0 -275 303 -275zM760 1313q230 0 315 227h35q-41 -125 -131 -192.5t-214 -67.5t-185.5 57.5t-61.5 163.5
q0 25 2 39h33q-2 -14 -2 -39q0 -188 209 -188z" />
    <glyph glyph-name="ucircumflex.smcp" horiz-adv-x="1163" 
d="M475 12q168 0 280.5 94.5t157.5 276.5l185 739h32l-186 -747q-49 -195 -169 -295t-300 -100q-336 0 -336 307q0 63 23 153l170 682h33l-172 -690q-20 -76 -21 -145q0 -275 303 -275zM967 1257l-154 252l-278 -252h-50l314 283h32l175 -283h-39z" />
    <glyph glyph-name="udieresis.smcp" horiz-adv-x="1163" 
d="M475 12q168 0 280.5 94.5t157.5 276.5l185 739h32l-186 -747q-49 -195 -169 -295t-300 -100q-336 0 -336 307q0 63 23 153l170 682h33l-172 -690q-20 -76 -21 -145q0 -275 303 -275zM948 1382l39 158h33l-39 -158h-33zM571 1382l39 158h33l-39 -158h-33z" />
    <glyph glyph-name="ugrave.smcp" horiz-adv-x="1163" 
d="M475 12q168 0 280.5 94.5t157.5 276.5l185 739h32l-186 -747q-49 -195 -169 -295t-300 -100q-336 0 -336 307q0 63 23 153l170 682h33l-172 -690q-20 -76 -21 -145q0 -275 303 -275zM846 1257h-31l-135 283h39z" />
    <glyph glyph-name="uhungarumlaut.smcp" horiz-adv-x="1163" 
d="M475 12q168 0 280.5 94.5t157.5 276.5l185 739h32l-186 -747q-49 -195 -169 -295t-300 -100q-336 0 -336 307q0 63 23 153l170 682h33l-172 -690q-20 -76 -21 -145q0 -275 303 -275zM774 1257l316 283h53l-326 -283h-43zM571 1257l316 283h53l-326 -283h-43z" />
    <glyph glyph-name="umacron.smcp" horiz-adv-x="1163" 
d="M475 12q168 0 280.5 94.5t157.5 276.5l185 739h32l-186 -747q-49 -195 -169 -295t-300 -100q-336 0 -336 307q0 63 23 153l170 682h33l-172 -690q-20 -76 -21 -145q0 -275 303 -275zM551 1409l8 33h463l-8 -33h-463z" />
    <glyph glyph-name="uogonek.smcp" horiz-adv-x="1163" 
d="M475 12q168 0 280.5 94.5t157.5 276.5l185 739h32l-186 -747q-33 -135 -98.5 -219t-189.5 -163q-232 -147 -232 -267q0 -80 88 -80q37 0 68 10l-9 -35q-33 -8 -59 -8q-121 0 -121 113q0 68 50.5 132t174.5 140v2q-63 -20 -141 -20q-336 0 -336 307q0 63 23 153l170 682
h33l-172 -690q-20 -76 -21 -145q0 -275 303 -275z" />
    <glyph glyph-name="uring.smcp" horiz-adv-x="1163" 
d="M475 12q168 0 280.5 94.5t157.5 276.5l185 739h32l-186 -747q-49 -195 -169 -295t-300 -100q-336 0 -336 307q0 63 23 153l170 682h33l-172 -690q-20 -76 -21 -145q0 -275 303 -275zM637 1469.5q0 -58.5 41 -99.5t99 -41t98 41t40 99t-39.5 98.5t-98 40.5t-99.5 -40
t-41 -98.5zM948 1468.5q0 -71.5 -50 -122t-121.5 -50.5t-122 50.5t-50.5 122t51.5 121.5t122 50t120.5 -50t50 -121.5z" />
    <glyph glyph-name="utilde.smcp" horiz-adv-x="1163" 
d="M475 12q168 0 280.5 94.5t157.5 276.5l185 739h32l-186 -747q-49 -195 -169 -295t-300 -100q-336 0 -336 307q0 63 23 153l170 682h33l-172 -690q-20 -76 -21 -145q0 -275 303 -275zM934 1354q-51 0 -83 17.5t-70 51t-64.5 49t-68.5 15.5t-80 -34t-58 -99h-35
q27 80 74 123t98 43t83 -17.5t70 -51.5t64.5 -49.5t68.5 -15.5t80 34t58 100h35q-27 -80 -74 -123t-98 -43z" />
    <glyph glyph-name="v.smcp" horiz-adv-x="1017" 
d="M358 0l-194 1122h33l188 -1087h2q94 143 291 434l436 653h39l-752 -1122h-43z" />
    <glyph glyph-name="w.smcp" horiz-adv-x="1456" 
d="M920 0l-50 1090h-2q-186 -346 -303 -560l-286 -530h-48l-59 1122h33l53 -1028l2 -59h2l590 1087h47l49 -1087h2l596 1087h37l-616 -1122h-47z" />
    <glyph glyph-name="wacute.smcp" horiz-adv-x="1456" 
d="M920 0l-50 1090h-2q-186 -346 -303 -560l-286 -530h-48l-59 1122h33l53 -1028l2 -59h2l590 1087h47l49 -1087h2l596 1087h37l-616 -1122h-47zM805 1257l258 283h47l-266 -283h-39z" />
    <glyph glyph-name="wcircumflex.smcp" horiz-adv-x="1456" 
d="M920 0l-50 1090h-2q-186 -346 -303 -560l-286 -530h-48l-59 1122h33l53 -1028l2 -59h2l590 1087h47l49 -1087h2l596 1087h37l-616 -1122h-47zM1124 1257l-153 252l-279 -252h-49l313 283h33l174 -283h-39z" />
    <glyph glyph-name="wdieresis.smcp" horiz-adv-x="1456" 
d="M920 0l-50 1090h-2q-186 -346 -303 -560l-286 -530h-48l-59 1122h33l53 -1028l2 -59h2l590 1087h47l49 -1087h2l596 1087h37l-616 -1122h-47zM1106 1382l39 158h33l-39 -158h-33zM729 1382l39 158h33l-39 -158h-33z" />
    <glyph glyph-name="wgrave.smcp" horiz-adv-x="1456" 
d="M920 0l-50 1090h-2q-186 -346 -303 -560l-286 -530h-48l-59 1122h33l53 -1028l2 -59h2l590 1087h47l49 -1087h2l596 1087h37l-616 -1122h-47zM1004 1257h-31l-135 283h39z" />
    <glyph glyph-name="x.smcp" horiz-adv-x="1003" 
d="M852 0h-37l-299 553h-2l-573 -553h-47l600 580l-297 542h36l285 -520h2l539 520h47l-565 -547z" />
    <glyph glyph-name="y.smcp" horiz-adv-x="964" 
d="M360 0h-32l125 500l-301 622h36l283 -587h2l574 587h45l-607 -622z" />
    <glyph glyph-name="yacute.smcp" horiz-adv-x="964" 
d="M360 0h-32l125 500l-301 622h36l283 -587h2l574 587h45l-607 -622zM518 1257l258 283h47l-266 -283h-39z" />
    <glyph glyph-name="ycircumflex.smcp" horiz-adv-x="964" 
d="M360 0h-32l125 500l-301 622h36l283 -587h2l574 587h45l-607 -622zM838 1257l-154 252l-278 -252h-50l314 283h32l175 -283h-39z" />
    <glyph glyph-name="ydieresis.smcp" horiz-adv-x="964" 
d="M360 0h-32l125 500l-301 622h36l283 -587h2l574 587h45l-607 -622zM819 1382l39 158h33l-39 -158h-33zM442 1382l39 158h33l-39 -158h-33z" />
    <glyph glyph-name="ygrave.smcp" horiz-adv-x="964" 
d="M360 0h-32l125 500l-301 622h36l283 -587h2l574 587h45l-607 -622zM717 1257h-31l-135 283h39z" />
    <glyph glyph-name="z.smcp" horiz-adv-x="923" 
d="M-47 33h819l-8 -33h-862l10 41l1042 1046v3h-774l8 32h818l-11 -41l-1042 -1046v-2z" />
    <glyph glyph-name="zacute.smcp" horiz-adv-x="923" 
d="M-47 33h819l-8 -33h-862l10 41l1042 1046v3h-774l8 32h818l-11 -41l-1042 -1046v-2zM494 1257l258 283h47l-267 -283h-38z" />
    <glyph glyph-name="zcaron.smcp" horiz-adv-x="923" 
d="M-47 33h819l-8 -33h-862l10 41l1042 1046v3h-774l8 32h818l-11 -41l-1042 -1046v-2zM575 1257l-174 283h39l154 -252l278 252h50l-314 -283h-33z" />
    <glyph glyph-name="zdotaccent.smcp" horiz-adv-x="923" 
d="M-47 33h819l-8 -33h-862l10 41l1042 1046v3h-774l8 32h818l-11 -41l-1042 -1046v-2zM606 1382l39 158h33l-39 -158h-33z" />
    <glyph glyph-name="ccedilla.smcp.ss01" horiz-adv-x="1132" 
d="M1077 807q0 -35 -6 -70h-33q6 37 6 70q0 135 -85 219t-257.5 84t-307 -106.5t-205 -266t-70.5 -333t93 -283t264 -109.5t301 91.5t184 236.5h34q-57 -162 -196.5 -261t-323.5 -99t-286.5 118.5t-102.5 327.5q0 160 75 328t216 278.5t325.5 110.5t279.5 -93.5t95 -242.5z
M156 -424l333 324h41l-325 -324h-49z" />
    <glyph glyph-name="scedilla.smcp.ss01" horiz-adv-x="989" 
d="M68 262q0 -250 294 -250q142 0 229 44t129 109.5t42 137.5t-33 117t-89 72.5t-185.5 70.5t-195.5 103.5t-66 152t45 162t132 116.5t210 46q331 -1 331 -271q0 -47 -12 -106h-33q12 59 13 106q0 238 -279 238q-242 0 -335 -148q-40 -64 -40 -143t60.5 -131.5t187.5 -94.5
t189 -74q134 -69 133 -220q0 -76 -46.5 -149.5t-141.5 -121.5t-232 -48q-340 0 -340 282q0 55 14 113h33q-14 -57 -14 -113zM39 -424l334 324h41l-326 -324h-49z" />
    <glyph glyph-name="uni0163.smcp.ss01" horiz-adv-x="958" 
d="M637 1090l-270 -1090h-33l270 1090h-452l8 32h938l-8 -32h-453zM16 -424l334 324h41l-325 -324h-50z" />
    <glyph glyph-name="zero.lf" horiz-adv-x="1116" 
d="M739 1368q-184 0 -314 -157t-196 -377q-65 -220 -65 -417q1 -403 295 -405q184 0 315 157t197 377q65 220 65 418q-2 404 -297 404zM1069 948q0 -195 -70 -422q-69 -227 -207 -387t-333 -159q-328 0 -328 452q0 195 70 422t207 387t331 160q330 0 330 -453z" />
    <glyph glyph-name="one.lf" horiz-adv-x="608" 
d="M201 0l315 1266h-2q-84 -148 -334 -148l8 33q145 0 227 52q81 52 130 177h33l-345 -1380h-32z" />
    <glyph glyph-name="two.lf" horiz-adv-x="1079" 
d="M1063 1100q0 -128 -45 -210t-154 -158q-109 -77 -299 -161t-297 -165q-106 -82 -158 -169t-81 -204h817l-8 -33h-848q27 142 89 246t174 188t297 166t290 154q104 72 147 148t43 194t-79 195t-229 77t-262 -94q-114 -94 -165 -262h-35q53 180 177 284t286 104t251 -86
t89 -214z" />
    <glyph glyph-name="three.lf" horiz-adv-x="1077" 
d="M911 401q0 -98 -59 -196q-59 -97 -172 -161q-112 -64 -276 -64t-258 79q-93 80 -93 222q0 49 10 88h33q-10 -39 -10 -88q0 -125 84 -197t236 -72t256 60q106 60 161 149q55 90 56 180q0 137 -86 212t-242 75h-94l8 33h86q156 0 261 56t156 139q50 83 50 167
q0 131 -90 208t-246 77t-268 -92t-152 -260h-33q45 180 166 282t288 102t267 -86q100 -87 101 -231q0 -85 -42 -163t-125 -136t-200 -79v-3q227 -68 227 -301z" />
    <glyph glyph-name="four.lf" horiz-adv-x="1032" 
d="M664 457l221 882h-2l-830 -882h611zM690 424l-106 -424h-33l106 424h-651l10 41l861 915h51l-230 -923h285l-8 -33h-285z" />
    <glyph glyph-name="five.lf" horiz-adv-x="1064" 
d="M582 883q164 1 252 -97t88 -272q0 -121 -62 -246t-180 -207q-119 -81 -277 -81q-159 0 -243 74t-84 208q0 49 10 90h33q-10 -41 -10 -90q-1 -122 75 -186t222 -64t257 78q112 78 168 195q57 117 57 253t-78 224q-79 88 -228 88q-263 0 -408 -270l-31 2l279 798h672
l-9 -32h-643l-227 -652h2q134 187 365 187z" />
    <glyph glyph-name="six.lf" horiz-adv-x="1075" 
d="M614 858q-144 0 -250 -74t-162 -188t-57 -229q0 -354 316 -355q139 0 244 77q104 77 159 190t56 215q0 170 -81 267t-225 97zM113 367q0 203 80 447t228 416q148 171 345 171q158 0 238 -79t79 -222q0 -18 -2 -35h-32q2 16 2 35q0 128 -71 198t-204 70t-250 -86
t-211 -260t-151 -430h4q53 127 175 213q123 86 275 86q152 -1 243 -107t91 -290q0 -111 -59 -232t-172 -202t-260 -80q-348 0 -348 387z" />
    <glyph glyph-name="seven.lf" horiz-adv-x="937" 
d="M615.5 737.5q-222.5 -315.5 -420.5 -737.5h-35q207 432 427 746.5t486 601.5h-837l8 32h874l-8 -32q-272 -295 -494.5 -610.5z" />
    <glyph glyph-name="eight.lf" horiz-adv-x="1087" 
d="M439 12q147 0 251 60t158 148q53 89 53 177q0 133 -93 217q-92 84 -238 84t-249 -57t-159 -144t-56 -178q0 -141 92 -224t241 -83zM307 1004q0 -125 82 -200t223 -75q140 0 236 54q96 53 143 135t47 165q0 131 -83 208t-219 77t-231 -56t-147 -142t-51 -166zM1071 1083
q0 -85 -43 -165t-126 -136t-193 -75v-2q100 -33 162 -113q63 -80 63 -186t-57 -202t-168 -160t-272 -64t-262 92t-101 247q0 87 48 175t140 149t213 78v2q-90 27 -145 101q-56 74 -56 172t56 191t158 153q103 60 250 60t240 -85q93 -86 93 -232z" />
    <glyph glyph-name="nine.lf" horiz-adv-x="1075" 
d="M700 1368q-139 0 -243 -77q-103 -77 -159 -189t-56 -215q0 -170 81 -267q81 -98 225 -98t250 74q105 74 161 188t57 230q0 354 -316 354zM700 1401q349 0 349 -387q0 -203 -80 -448q-81 -246 -229 -416t-345 -170q-157 -1 -237 78t-80 223q0 18 2 34h33q-2 -16 -2 -34
q1 -129 71 -199t203 -70t250 86t211 260t151 430h-4q-53 -127 -175 -213t-274 -86q-152 1 -244 107q-91 106 -91 291q0 111 59 231t172 202q113 81 260 81z" />
    <glyph glyph-name="zero.denominator" horiz-adv-x="692" 
d="M580 563q0 246 -177 246q-110 0 -188 -91t-117 -219t-39 -243q0 -236 179 -236q109 0 186.5 90.5t116.5 218.5t39 234zM403 842q209 0 209 -279q0 -117 -43 -252t-127 -229t-204 -94q-211 0 -211 276q0 117 43 252t128 230.5t205 95.5z" />
    <glyph glyph-name="one.denominator" horiz-adv-x="385" 
d="M76 0l182 731h-2q-61 -74 -203 -74l8 33q90 0 140.5 31t81.5 106h32l-206 -827h-33z" />
    <glyph glyph-name="two.denominator" horiz-adv-x="671" 
d="M608 641q0 -92 -67.5 -161.5t-235.5 -143.5t-233.5 -140.5t-87.5 -162.5h499l-8 -33h-532q23 131 98.5 211t243.5 154t229 134t61 141t-48 125t-136 44t-158.5 -56.5t-93.5 -148.5h-35q31 111 108.5 174.5t179.5 63.5t159 -54.5t57 -146.5z" />
    <glyph glyph-name="three.denominator" horiz-adv-x="669" 
d="M602 653q0 -82 -56.5 -146.5t-162.5 -86.5v-2q135 -41 135 -178q0 -61 -36 -120t-105 -95.5t-173 -36.5t-163 50t-59 138q0 25 6 49h32q-6 -25 -6 -49q0 -74 51.5 -115t142.5 -41t152.5 33t93 83t31.5 117t-52 110t-148 43h-54l9 32h49q94 0 156.5 32t93 80t30.5 110
t-53 105.5t-147.5 43.5t-162 -53.5t-87.5 -149.5h-33q25 115 100.5 175.5t183.5 60.5t170 -53.5t62 -135.5z" />
    <glyph glyph-name="four.denominator" horiz-adv-x="643" 
d="M358 281l127 505h-2l-321 -335l-166 -170h362zM383 248l-61 -248h-33l61 248h-399l8 39l520 540h49l-137 -546h172l-8 -33h-172z" />
    <glyph glyph-name="five.denominator" horiz-adv-x="663" 
d="M292 532q117 0 175.5 -60t58.5 -150t-38.5 -163t-111.5 -122t-172 -49t-154.5 47t-55.5 129q0 23 6 49h33q-6 -27 -6 -49q0 -70 46 -107t133 -37t153.5 44.5t100.5 112t34 143.5t-49.5 128t-137.5 52q-161 0 -241 -156l-31 2l168 481h424l-9 -32h-395l-125 -359h2
q75 96 192 96z" />
    <glyph glyph-name="six.denominator" horiz-adv-x="669" 
d="M51 229q0 -209 189 -209q84 0 145 44.5t93 108t32 141.5t-49 134t-135 56t-147.5 -41t-94.5 -104.5t-33 -129.5zM621 655v-20h-33v16q0 76 -42 117t-120 41q-121 0 -215 -109.5t-145 -322.5h2q37 70 107.5 115t161.5 45t148.5 -65.5t57.5 -176.5q0 -68 -36 -139.5
t-105.5 -119.5t-169.5 -48t-157 62t-57 182t47.5 264.5t140.5 245t220 100.5q92 0 143.5 -50.5t51.5 -136.5z" />
    <glyph glyph-name="seven.denominator" horiz-adv-x="585" 
d="M633 797q-336 -357 -549 -797h-37q125 256 257 444.5t284 350.5h-502l8 32h547z" />
    <glyph glyph-name="eight.denominator" horiz-adv-x="677" 
d="M27 182q0 -66 55 -114t145 -48t150.5 33t91.5 84t31 115t-56.5 112t-143.5 48t-147.5 -32t-93 -82t-32.5 -116zM147 590q0 -60 49.5 -103t133.5 -43t140 31t84 77t28 108t-50.5 105.5t-131.5 43.5t-137 -32t-86 -79.5t-30 -107.5zM614 651q0 -84 -57 -147.5t-158 -81.5
v-2q61 -20 97 -67.5t36 -110.5t-34.5 -121t-103 -95.5t-169.5 -37.5t-166 57t-65 145t64.5 157t174.5 87v2q-55 18 -87.5 62.5t-32.5 102.5t33.5 113.5t97.5 91.5t158 36t153 -53.5t59 -137.5z" />
    <glyph glyph-name="nine.denominator" horiz-adv-x="669" 
d="M565 598q0 209 -188 209q-84 0 -145.5 -44t-93.5 -107.5t-32 -141.5t49.5 -134t135.5 -56t147.5 41t94 104t32.5 129zM377 840q221 0 221 -242q0 -123 -47 -267.5t-140.5 -244.5t-220.5 -100q-92 0 -143 50t-51 136v21h33v-17q0 -76 42 -117t119 -41q121 0 215.5 110
t145.5 323h-2q-37 -70 -107.5 -115t-161.5 -45t-148.5 65.5t-57.5 154.5t35.5 160.5t105.5 120t162 48.5z" />
    <glyph glyph-name="zero.numerator" horiz-adv-x="692" 
d="M719 1116q0 244 -176 246q-111 0 -189 -91t-116 -219t-39 -243q0 -234 178 -236q109 1 187 91t116 218q39 128 39 234zM377 541q-211 0 -211 276q0 117 43 252t128 230t206 96q207 0 209 -279q0 -117 -43 -252t-127 -229t-205 -94z" />
    <glyph glyph-name="one.numerator" horiz-adv-x="385" 
d="M213 553l182 731h-2q-61 -74 -203 -74l9 33q90 0 140 31t81 106h33l-207 -827h-33z" />
    <glyph glyph-name="two.numerator" horiz-adv-x="671" 
d="M745 1194q1 -92 -67 -162t-236 -144t-234 -140t-87 -162h500l-9 -33h-532q23 131 98 211q76 80 244 154t229 134t61 141t-47 125q-49 44 -137 44t-158 -56t-94 -149h-34q31 111 107 174q77 63 179 63t160 -54q57 -54 57 -146z" />
    <glyph glyph-name="three.numerator" horiz-adv-x="669" 
d="M739 1206q0 -82 -56 -146.5t-163 -86.5v-2q135 -41 135 -178q0 -61 -35.5 -120t-105.5 -95.5t-174 -36.5t-162.5 50t-58.5 138q0 25 6 49h33q-6 -25 -6 -49q0 -74 51 -115t142 -41t152.5 33t93.5 83t32 117t-52.5 109.5t-148.5 42.5h-53l8 33h49q94 0 156.5 32t93.5 79.5
t31 109.5t-53.5 106t-147.5 44t-162 -53.5t-88 -149.5h-33q25 115 100 175.5t183 60.5t170.5 -53.5t62.5 -135.5z" />
    <glyph glyph-name="four.numerator" horiz-adv-x="643" 
d="M498 834l127 505h-2l-488 -505h363zM522 801l-61 -248h-33l61 248h-399l8 39l520 540h50l-138 -546h172l-8 -33h-172z" />
    <glyph glyph-name="five.numerator" horiz-adv-x="663" 
d="M429 1085q117 0 176 -59.5t59 -149.5t-39 -163.5t-112 -122.5t-172 -49t-154.5 47t-55.5 129q0 23 6 49h33q-6 -27 -6 -49q0 -70 46 -107t133 -37t153.5 44.5t100.5 112.5t34 144t-49.5 127.5t-137.5 51.5q-159 0 -241 -156l-31 2l168 481h424l-8 -32h-396l-124 -359h2
q74 96 191 96z" />
    <glyph glyph-name="six.numerator" horiz-adv-x="669" 
d="M188 782q0 -209 189 -209q84 0 145 44q61 43 93 107t32 142t-49 134q-50 56 -136 56t-147 -40t-94 -104t-33 -130zM377 541q-221 0 -221 241q0 124 47 268t140 244t220 101q93 0 144 -50t51 -137v-20h-33v16q0 76 -42 117t-120 41q-121 0 -215 -110t-145 -322h2
q37 70 107 114t162 46q90 0 148 -66t58 -155q0 -182 -141 -280q-70 -48 -162 -48z" />
    <glyph glyph-name="seven.numerator" horiz-adv-x="585" 
d="M770 1350q-336 -357 -549 -797h-37q125 256 257 444.5t284 350.5h-502l8 32h547z" />
    <glyph glyph-name="eight.numerator" horiz-adv-x="677" 
d="M164 734q0 -66 55 -113t145 -47t151 32q60 33 91 84t31 115q0 63 -56 111q-55 48 -143 48t-148 -31q-60 -32 -93 -82q-33 -51 -33 -117zM467 997q84 0 140 31t84 77q28 45 28 107t-50 106q-49 44 -131 44t-138 -32t-86 -80t-30 -108t50 -102q49 -43 133 -43zM670 794
q0 -64 -35 -120q-35 -57 -104 -95t-169 -38t-166 57q-66 58 -65 146q0 88 65 156t175 87v2q-55 19 -88 63t-33 102t34 114t98 91t158 35q93 0 152 -53q60 -53 60 -137t-58 -147t-157 -82v-2q61 -19 97 -67t36 -112z" />
    <glyph glyph-name="nine.numerator" horiz-adv-x="669" 
d="M514 1360q-84 0 -145 -44t-93 -108t-32 -141q0 -78 49 -134t135 -56t147 41t95 104q33 63 32 129q0 209 -188 209zM133 725v20h33v-16q0 -76 42 -117t120 -41q121 0 215 110t145 323h-2q-38 -70 -108 -115t-161 -45t-149 65q-57 66 -57 155q0 183 141 281q70 48 170 48
q100 1 157 -61q56 -62 56 -183t-47 -265t-140 -244t-220 -101q-93 0 -144 50t-51 136z" />
    <glyph glyph-name="zero.smcp" horiz-adv-x="897" 
d="M98 356q0 -340 246 -340q154 0 260.5 125t159.5 300t53 335q0 330 -248 330q-151 0 -257.5 -125t-160 -301t-53.5 -324zM852 766q0 -158 -57.5 -341t-173 -312t-277.5 -129q-279 0 -278 372q0 158 57 342.5t171 312.5t275 128q283 0 283 -373z" />
    <glyph glyph-name="one.smcp" horiz-adv-x="897" 
d="M326 0l252 1012h-3q-76 -109 -276 -109l8 33q121 -2 189.5 41t107.5 145h33l-279 -1122h-32z" />
    <glyph glyph-name="two.smcp" horiz-adv-x="897" 
d="M856 892q0 -103 -56 -201.5t-353 -226.5q-298 -128 -361 -233.5t-88 -197.5h684l-8 -33h-715q33 174 135 283.5t294 191.5t278 139.5t121.5 119t35.5 154.5t-66.5 155.5t-190.5 62.5t-217 -76t-134 -209h-37q43 147 147.5 232.5t242.5 85.5t213 -72t75 -175z" />
    <glyph glyph-name="three.smcp" horiz-adv-x="897" 
d="M856 885q0 -110 -79 -197.5t-224 -116.5v-2q190 -55 190 -243q0 -80 -49 -160t-143.5 -131t-232.5 -51t-218 66.5t-80 180.5q0 39 9 70h32q-8 -31 -8 -68q0 -102 71 -159.5t198 -57.5t213 47.5t131 119t45 143.5q0 111 -73 170t-204 59h-76l9 33h69q129 0 216 45
t129 111.5t42 134.5q0 104 -75.5 165.5t-204.5 61.5t-221.5 -74t-124.5 -209h-33q35 150 136.5 233t243.5 83t227 -72t85 -182z" />
    <glyph glyph-name="four.smcp" horiz-adv-x="897" 
d="M547 375l45 184q53 217 131 522h-2l-682 -706h508zM571 342l-86 -342h-32l86 342h-547l10 39l713 741h51l-186 -747h235l-6 -33h-238z" />
    <glyph glyph-name="five.smcp" horiz-adv-x="897" 
d="M465 719q139 0 214 -80t75 -223q0 -98 -51.5 -198.5t-151 -167t-231.5 -66.5t-205.5 61t-73.5 172q0 37 8 70h33q-8 -33 -8 -70q0 -98 64 -149.5t184 -51.5t212.5 62.5t139.5 155t47 202.5t-66.5 180t-191.5 70q-223 0 -336 -217l-31 2l228 651h569l-8 -32h-539
l-182 -517h2q109 146 299 146z" />
    <glyph glyph-name="six.smcp" horiz-adv-x="897" 
d="M98 301q0 -285 262 -285q115 0 201 61.5t131 150.5t45 171q0 137 -67.5 215t-185.5 78t-206 -59.5t-134 -149.5t-46 -182zM360 -16q-294 0 -294 321q0 166 65.5 362.5t189 334t287.5 137.5q133 0 202 -65.5t69 -182.5q0 -16 -2 -27h-33q2 10 2 25q0 104 -59.5 160.5
t-178.5 56.5q-158 0 -292 -156.5t-201 -457.5h2q45 100 145 166.5t227 66.5t204 -88t77 -238q0 -90 -49 -187t-142.5 -162.5t-218.5 -65.5z" />
    <glyph glyph-name="seven.smcp" horiz-adv-x="897" 
d="M543.5 597q-183.5 -257 -346.5 -597h-39q168 348 349 603t398 487h-694l8 32h737l-8 -32q-221 -236 -404.5 -493z" />
    <glyph glyph-name="eight.smcp" horiz-adv-x="897" 
d="M61 262q0 -113 77 -179.5t202 -66.5t210 45t128 116t43 145q0 106 -78.5 174.5t-198.5 68.5t-205 -46t-131.5 -115.5t-46.5 -141.5zM225 802q0 -85 68.5 -145.5t186.5 -60.5t196 43t116.5 107.5t38.5 132.5q0 104 -69.5 165.5t-181.5 61.5t-192.5 -43t-121.5 -109.5
t-41 -151.5zM866 885q0 -112 -80.5 -199.5t-218.5 -112.5v-2q84 -27 135.5 -92t51.5 -152t-47.5 -165t-139.5 -128t-228 -50t-223 75.5t-87 202.5q0 72 40 141.5t115.5 118.5t175.5 64v2q-76 25 -121.5 85t-45.5 141t46 154.5t132 122t211 48.5t204.5 -71t79.5 -183z" />
    <glyph glyph-name="nine.smcp" horiz-adv-x="897" 
d="M819 821q0 285 -262 285q-115 0 -201 -61.5t-131 -150.5t-45 -171q0 -137 67.5 -215t186.5 -78t206 59.5t133 149.5t46 182zM39 231q0 16 2 27h33q-2 -10 -2 -25q0 -104 59 -160.5t178 -56.5q158 0 292 157t202 458h-2q-45 -100 -145.5 -167t-227.5 -67t-204 88t-77 238
q0 90 49.5 187.5t142.5 163t228 65.5t210 -81t75 -244t-65.5 -359.5t-189.5 -333.5t-288 -137q-133 0 -201.5 65.5t-68.5 181.5z" />
    <glyph glyph-name="zero.lf.smcp" horiz-adv-x="952" 
d="M125 356q0 -340 246 -340q154 0 260 125t160 300q53 175 53 335q0 330 -248 330q-152 0 -258 -125t-160 -301t-53 -324zM879 766q1 -158 -57 -341t-174 -312t-277 -129q-279 0 -279 372q0 158 58 342q57 184 171 312t275 129q283 0 283 -373z" />
    <glyph glyph-name="one.lf.smcp" horiz-adv-x="532" 
d="M150 0l251 1012h-2q-76 -109 -276 -109l8 33q121 -2 190 41t107 145h33l-279 -1122h-32z" />
    <glyph glyph-name="two.lf.smcp" horiz-adv-x="923" 
d="M842 888q0 94 -67 155q-67 63 -191 63t-216 -76q-93 -76 -135 -209h-36q43 147 147 233t242 85q138 0 213 -72t75 -175t-38 -170q-71 -127 -368 -256q-298 -129 -385 -271q-42 -70 -67 -162h684l-8 -33h-715q33 174 135 284t328 205q158 68 244 125q86 56 122 118t36 156
z" />
    <glyph glyph-name="three.lf.smcp" horiz-adv-x="921" 
d="M864 885q0 -109 -79 -197t-224 -117v-2q190 -55 191 -243q0 -80 -50 -160t-143 -131q-95 -51 -233 -51t-218 66t-79 181q0 39 8 70h33q-8 -31 -9 -68q0 -102 71 -159q71 -58 198 -58t213 47t131 119t45 144q0 111 -73 170t-204 59h-75l8 33h69q129 0 216 45t130 111
q42 67 41 135q0 104 -75 165q-76 62 -205 62t-221 -74t-125 -209h-33q35 150 136 233q102 83 244 83t227 -72t85 -182z" />
    <glyph glyph-name="four.lf.smcp" horiz-adv-x="874" 
d="M539 375l45 184q53 217 131 522h-2l-682 -706h508zM563 342l-86 -342h-33l86 342h-546l10 39l713 741h51l-187 -747h236l-6 -33h-238z" />
    <glyph glyph-name="five.lf.smcp" horiz-adv-x="913" 
d="M473 719q139 0 214 -80t75 -223q0 -98 -51 -198t-151 -168q-100 -66 -231 -66q-132 0 -206 61t-74 172q0 37 8 70h33q-8 -33 -8 -70q0 -199 248 -201q122 0 213 62q92 62 139 155q47 92 47 202q-1 111 -67 181t-191 70q-221 0 -336 -217l-31 2l228 651h569l-8 -32h-539
l-182 -517h2q109 146 299 146z" />
    <glyph glyph-name="six.lf.smcp" horiz-adv-x="915" 
d="M111 301q0 -285 262 -285q115 0 201 62t131 150q45 89 45 171q0 137 -68 215t-186 78t-206 -59q-87 -59 -133 -149t-46 -183zM891 891q0 -16 -2 -27h-33q2 10 2 25q0 105 -59 161t-178 56q-158 0 -292 -157t-202 -457h2q45 100 145 166t228 67q128 0 204 -88
q77 -88 76 -238q0 -90 -49 -187t-142 -163q-93 -65 -228 -65t-210 81t-75 243t65 360q66 198 190 334t272 136t217 -65q69 -66 69 -182z" />
    <glyph glyph-name="seven.lf.smcp" horiz-adv-x="794" 
d="M501 597q-183 -257 -347 -597h-39q168 348 349 603t398 487h-694l8 32h737l-8 -32q-221 -236 -404 -493z" />
    <glyph glyph-name="eight.lf.smcp" horiz-adv-x="931" 
d="M80 262q0 -114 77 -180t202 -66t209 45t128 116q43 71 43 145q0 106 -77 175q-78 69 -199 69t-206 -47q-85 -46 -131 -116t-46 -141zM244 802q0 -84 68 -146q69 -60 187 -60q117 0 195 43t117 107t39 133q0 104 -70 165q-70 62 -182 62t-192 -43t-121 -110t-41 -151z
M885 885q0 -111 -81 -199t-218 -113v-2q84 -27 135 -93t51 -152t-47 -164t-139 -128t-228 -50t-224 75q-87 76 -87 203q0 72 40 142t116 118q76 49 176 64v2q-76 25 -122 85t-46 141t46 155t132 122t211 48t205 -71t80 -183z" />
    <glyph glyph-name="nine.lf.smcp" horiz-adv-x="915" 
d="M825 821q0 285 -262 285q-115 0 -201 -62t-131 -150q-45 -89 -45 -171q0 -137 68 -215t186 -78t206 59q87 59 133 149t46 183zM45 231q0 16 2 27h33q-2 -10 -2 -25q0 -104 59 -160t178 -57q158 0 292 157t202 458h-2q-45 -100 -145 -167t-228 -67t-204 88q-77 88 -76 238
q0 90 49 187t142 163t228 66t210 -81t75 -244q0 -164 -66 -360t-189 -333q-124 -137 -288 -137q-132 -1 -201 65t-69 182z" />
    <glyph glyph-name="periodcentered.case" horiz-adv-x="278" 
d="M156 655l37 148h36l-36 -148h-37z" />
    <glyph glyph-name="exclamdown.case" horiz-adv-x="413" 
d="M381 1180l-285 -1180h-37l301 1180h21zM459 1458l-35 -141h-37l35 141h37z" />
    <glyph glyph-name="periodcentered.loclCAT.case" horiz-adv-x="163" 
d="M-190 727l36 147h37l-37 -147h-36z" />
    <glyph glyph-name="questiondown.case" horiz-adv-x="958" 
d="M39 293q0 80 40.5 176t287.5 266q104 72 158.5 124t89 124t65.5 195h27q-33 -135 -65 -207t-88 -127.5t-176 -137.5t-187.5 -150.5t-93 -128.5t-25.5 -134q0 -127 84 -204t232 -77t260 92.5t163 262.5h35q-55 -186 -177 -286.5t-283 -100.5t-254 86t-93 227zM782 1458
l-34 -141h-37l34 141h37z" />
    <glyph glyph-name="slash.case" horiz-adv-x="808" 
d="M-2 0l876 1458h39l-876 -1458h-39z" />
    <glyph glyph-name="periodcentered.loclCAT" horiz-adv-x="253" 
d="M139 651l37 148h37l-37 -148h-37z" />
    <glyph glyph-name="braceleft.case" horiz-adv-x="571" 
d="M260 574q0 -54 -14 -109l-68 -268q-16 -66 -16 -111q0 -92 52 -135t165 -43l-8 -33h-4q-119 0 -178.5 51t-59.5 160q0 51 18 119l68 268q12 55 12 103q0 96 -96 139l10 45q86 27 129 72t68 137l82 331q37 145 127 213t239 68h9l-9 -33q-143 0 -223 -60.5t-112 -195.5
l-82 -331q-25 -94 -71 -145.5t-134 -78.5l-2 -4q98 -52 98 -159z" />
    <glyph glyph-name="braceright.case" horiz-adv-x="571" 
d="M416 884q0 54 14 109l68 269q16 66 16 110q0 92 -52 135t-165 43l8 33h4q119 0 178.5 -51t59.5 -160q0 -51 -19 -119l-67 -268q-12 -55 -12 -103q0 -96 96 -139l-10 -45q-86 -27 -129.5 -71.5t-67.5 -137.5l-82 -331q-37 -145 -127 -213t-240 -68h-8l8 33q144 0 224 60.5
t112 195.5l82 332q25 94 71 145t134 78l2 4q-98 52 -98 159z" />
    <glyph glyph-name="bracketleft.case" horiz-adv-x="487" 
d="M453 1546l-408 -1636h250l-8 -33h-283l424 1702h283l-9 -33h-249z" />
    <glyph glyph-name="bracketright.case" horiz-adv-x="487" 
d="M139 -90l408 1636h-250l8 33h283l-424 -1702h-283l8 33h250z" />
    <glyph glyph-name="parenleft.case" horiz-adv-x="473" 
d="M133 434q0 275 126 583t372 564h41q-250 -260 -378 -569.5t-128 -577.5t82 -557h-33q-82 282 -82 557z" />
    <glyph glyph-name="parenright.case" horiz-adv-x="473" 
d="M444 1024q0 -275 -125.5 -583t-371.5 -564h-41q250 260 378 569.5t128 577.5t-82 557h32q82 -282 82 -557z" />
    <glyph glyph-name="bracketleft.sups" horiz-adv-x="350" 
d="M442 1706l-301 -1208h174l-8 -33h-207l318 1274h207l-9 -33h-174z" />
    <glyph glyph-name="bracketright.sups" horiz-adv-x="350" 
d="M18 465l9 33h174l301 1208h-174l8 33h207l-318 -1274h-207z" />
    <glyph glyph-name="emdash.case" horiz-adv-x="2048" 
d="M88 713l8 32h1966l-8 -32h-1966z" />
    <glyph glyph-name="endash.case" 
d="M88 713l8 32h942l-8 -32h-942z" />
    <glyph glyph-name="hyphen.case" horiz-adv-x="561" 
d="M109 713l8 32h438l-8 -32h-438z" />
    <glyph glyph-name="guillemotleft.case" horiz-adv-x="737" 
d="M573 319h-34l-133 410l331 410h41l-336 -416zM332 319h-35l-133 410l332 410h41l-336 -416z" />
    <glyph glyph-name="guillemotright.case" horiz-adv-x="735" 
d="M508 1139h35l133 -410l-332 -410h-41l336 416zM266 1139h35l133 -410l-332 -410h-41l336 416z" />
    <glyph glyph-name="guilsinglleft.case" horiz-adv-x="495" 
d="M332 319h-35l-133 410l332 410h41l-336 -416z" />
    <glyph glyph-name="guilsinglright.case" horiz-adv-x="493" 
d="M266 1139h35l133 -410l-332 -410h-41l336 416z" />
    <glyph glyph-name="quoteright.loclFRA" horiz-adv-x="419" 
d="M309 1053h-28l131 260l37 145h32l-37 -145z" />
    <glyph glyph-name="periodcentered.loclCAT.smcp" horiz-adv-x="122" 
d="M-190 553l36 147h37l-37 -147h-36z" />
    <glyph glyph-name="ampersand.smcp" horiz-adv-x="1175" 
d="M92 214q0 -87 67.5 -142.5t194.5 -55.5q234 0 437 199l-324 395q-278 -125 -326.5 -217t-48.5 -179zM381 877q0 -55 22.5 -106.5t75.5 -123.5q166 68 230.5 142.5t64.5 153.5t-45 123t-117 44t-124 -35t-79.5 -89t-27.5 -109zM59 232q0 118 87 214.5t303 188.5
q-55 74 -78 128.5t-23 116.5t32 122.5t91 100.5t143 40t138.5 -54.5t54.5 -144.5t-68.5 -171t-238.5 -152l313 -381q137 150 199 387h32q-58 -248 -208 -414l174 -213h-43l-156 188q-215 -205 -457 -204q-141 0 -218 65t-77 183z" />
    <glyph glyph-name="acute.cap" horiz-adv-x="473" 
d="M362 1556l281 259h49l-286 -259h-44z" />
    <glyph glyph-name="breve.cap" horiz-adv-x="796" 
d="M671 1554q-124 0 -185.5 57.5t-61.5 164.5q0 25 2 39h33q-2 -14 -2 -39q0 -188 209 -189q231 0 315 228h35q-41 -125 -131 -193t-214 -68z" />
    <glyph glyph-name="caron.alt" horiz-adv-x="323" 
d="M248 1102l170 356h37l-176 -356h-31z" />
    <glyph glyph-name="caron.cap" horiz-adv-x="731" 
d="M606 1556l-180 259h39l160 -228l274 228h51l-311 -259h-33z" />
    <glyph glyph-name="caron.alt.case" horiz-adv-x="323" 
d="M227 1020l193 438h35l-199 -438h-29z" />
    <glyph glyph-name="circumflex.cap" horiz-adv-x="731" 
d="M707 1815l180 -259h-39l-160 228l-274 -228h-52l312 259h33z" />
    <glyph glyph-name="dieresis.cap" horiz-adv-x="616" 
d="M748 1595l40 158h33l-41 -158h-32zM371 1595l41 158h32l-41 -158h-32z" />
    <glyph glyph-name="dotaccent.cap" horiz-adv-x="239" 
d="M371 1595l41 158h32l-41 -158h-32z" />
    <glyph glyph-name="grave.cap" horiz-adv-x="468" 
d="M590 1556l-164 259h41l158 -259h-35z" />
    <glyph glyph-name="hungarumlaut.cap" horiz-adv-x="710" 
d="M565 1556l312 259h53l-322 -259h-43zM362 1556l312 259h53l-321 -259h-44z" />
    <glyph glyph-name="macron.cap" horiz-adv-x="669" 
d="M383 1642l8 33h463l-8 -33h-463z" />
    <glyph glyph-name="breve.narrow" horiz-adv-x="688" 
d="M522 1231q190 0 264 227h33q-39 -125 -114 -192.5t-175 -67.5t-149 54.5t-49 152.5q0 25 4 53h31q-4 -29 -5 -53q0 -174 160 -174z" />
    <glyph glyph-name="circumflex.narrow" horiz-adv-x="636" 
d="M662 1178l-113 247l-238 -247h-45l269 280h34l129 -280h-36z" />
    <glyph glyph-name="dieresis.narrow" horiz-adv-x="534" 
d="M598 1317l35 141h33l-35 -141h-33zM303 1317l35 141h33l-35 -141h-33z" />
    <glyph glyph-name="macron.narrow" horiz-adv-x="587" 
d="M305 1327l8 33h381l-8 -33h-381z" />
    <glyph glyph-name="tilde.narrow" horiz-adv-x="716" 
d="M688 1272q-45 0 -71.5 17t-58.5 51t-54.5 49.5t-52.5 15.5q-82 0 -123 -133h-37q27 80 70 123t87 43t70.5 -17.5t58.5 -51.5t54 -49t53 -15q84 0 125 133h35q-25 -80 -68 -123t-88 -43z" />
    <glyph glyph-name="ring.cap" horiz-adv-x="559" 
d="M444 1744q0 -58 41 -99t99 -41t98.5 41t40.5 99t-40.5 98t-98.5 40t-99 -40t-41 -98zM756 1743q0 -72 -50.5 -122t-122 -50t-121.5 50t-50 122t51 122t121 50t121 -50t51 -122z" />
    <glyph glyph-name="cedilla.ss01" horiz-adv-x="501" 
d="M-131 -424l334 324h41l-326 -324h-49z" />
    <glyph glyph-name="tilde.cap" horiz-adv-x="796" 
d="M834 1661q100 0 143 133h35q-27 -80 -73.5 -123t-98.5 -43t-83.5 17.5t-70.5 51.5t-65.5 49t-68.5 15t-80 -33.5t-58 -99.5h-35q27 80 74 123t98 43t83 -17.5t71 -51.5t65.5 -49t63.5 -15z" />
    <glyph glyph-name="bracketrightinferior" horiz-adv-x="344" 
d="M-240 -563l9 33h174l301 1208h-174l8 33h207l-318 -1274h-207z" />
    <glyph glyph-name="bracketleftinferior" horiz-adv-x="344" 
d="M184 678l-301 -1208h174l-8 -33h-207l318 1274h207l-9 -33h-174z" />
    </font>
</defs>
</svg>
