<?xml version="1.0" standalone="no"?>
<!DOCTYPE svg PUBLIC "-//W3C//DTD SVG 1.1//EN" "http://www.w3.org/Graphics/SVG/1.1/DTD/svg11.dtd" >
<svg xmlns="http://www.w3.org/2000/svg">
<metadata>
Created by FontPrep 20130207 at Sat Mar 12 16:03:34 2016
 By Matthew Higley
Copyright (c) 2015 Monotype Imaging Inc.  All rights reserved.
</metadata>
<defs>
<font id="37f0fdf5b54e62273ee9997c9983c0c8" horiz-adv-x='1024' >
  <font-face 
    font-family="NeueHaasUnicaW1G-Heavy"
    font-weight="800"
    font-stretch="normal"
    units-per-em="2048"
    panose-1="2 11 9 4 3 2 6 2 2 3"
    ascent="1565"
    descent="-483"
    x-height="1040"
    cap-height="1458"
    bbox="-1024 -596 2490 2320"
    underline-thickness="102"
    underline-position="-153"
    unicode-range="U+0020-FEFF"
  />
<missing-glyph horiz-adv-x="1327" 
d="M514 133v244h279v-244h-279zM1042 1014q0 -84 -29.5 -142.5t-112.5 -135.5t-108.5 -130t-25.5 -145h-227q-2 27 -2 103t24.5 133t94.5 127t88 105.5t18 80.5t-25.5 71.5t-70.5 26.5q-117 0 -117 -160h-277q2 182 104 279.5t284 97.5t282 -83t100 -228zM170 1311v-1164
q0 -63 38 -101t101 -38h709q66 0 102.5 38t36.5 101v1164q0 66 -37 102.5t-102 36.5h-709q-63 0 -101 -37t-38 -102zM1298 1311v-1164q0 -129 -75.5 -204.5t-204.5 -75.5h-709q-129 0 -204.5 75.5t-75.5 204.5v1164q0 129 75.5 204.5t204.5 75.5h709q129 0 204.5 -75.5
t75.5 -204.5z" />
    <glyph glyph-name="f_f" unicode="ff" horiz-adv-x="1413" 
d="M1194 1077v-37h192v-247h-192v-793h-336v793h-338v-793h-336v793h-166v247h166v76q0 180 96.5 270.5t278.5 90.5q88 0 162 -19v-233q-20 4 -49 4q-78 0 -115 -35t-37 -117v-37h338v76q0 180 96.5 270.5t278.5 90.5q88 0 162 -19v-233q-20 4 -49 4q-78 0 -115 -35
t-37 -117z" />
    <glyph glyph-name="f_f_i" unicode="ffi" horiz-adv-x="2002" 
d="M1878 1040v-1040h-340v1040h340zM1878 1190h-340v268h340v-268zM1233 1477q88 0 162 -19v-233q-20 4 -49 4q-78 0 -115 -35t-37 -117v-37h192v-247h-192v-793h-336v793h-338v-793h-336v793h-166v247h166v76q0 180 96.5 270.5t278.5 90.5q88 0 162 -19v-233q-20 4 -49 4
q-78 0 -115 -35t-37 -117v-37h338v76q0 180 96.5 270.5t278.5 90.5z" />
    <glyph glyph-name="f_f_l" unicode="ffl" horiz-adv-x="2002" 
d="M858 1116q0 359 375 361q88 0 162 -19v-233q-20 4 -49 4q-78 0 -115 -35t-37 -117v-37h192v-247h-192v-793h-336v793h-338v-793h-336v793h-166v247h166v76q0 180 96 270t279 91q88 0 162 -19v-233q-20 4 -49 4q-78 0 -115 -35t-37 -117v-37h338v76zM1538 0v1458h340
v-1458h-340z" />
    <glyph glyph-name="f_i" unicode="fi" horiz-adv-x="1329" 
d="M1204 1040v-1040h-340v1040h340zM1204 1190h-340v268h340v-268zM559 1477q88 0 162 -19v-233q-20 4 -49 4q-78 0 -115 -35t-37 -117v-37h193v-247h-193v-793h-336v793h-166v247h166v76q0 180 96.5 270.5t278.5 90.5z" />
    <glyph glyph-name="f_l" unicode="fl" horiz-adv-x="1329" 
d="M520 1077v-37h193v-247h-193v-793h-336v793h-166v247h166v76q0 180 96 270t279 91q88 0 162 -19v-233q-20 4 -49 4q-78 0 -115 -35t-37 -117zM864 0v1458h340v-1458h-340z" />
    <glyph glyph-name=".notdef" horiz-adv-x="1327" 
d="M514 133v244h279v-244h-279zM1042 1014q0 -84 -29.5 -142.5t-112.5 -135.5t-108.5 -130t-25.5 -145h-227q-2 27 -2 103t24.5 133t94.5 127t88 105.5t18 80.5t-25.5 71.5t-70.5 26.5q-117 0 -117 -160h-277q2 182 104 279.5t284 97.5t282 -83t100 -228zM170 1311v-1164
q0 -63 38 -101t101 -38h709q66 0 102.5 38t36.5 101v1164q0 66 -37 102.5t-102 36.5h-709q-63 0 -101 -37t-38 -102zM1298 1311v-1164q0 -129 -75.5 -204.5t-204.5 -75.5h-709q-129 0 -204.5 75.5t-75.5 204.5v1164q0 129 75.5 204.5t204.5 75.5h709q129 0 204.5 -75.5
t75.5 -204.5z" />
    <glyph glyph-name=".null" horiz-adv-x="0" 
 />
    <glyph glyph-name="nonmarkingreturn" horiz-adv-x="681" 
 />
    <glyph glyph-name="NULL" horiz-adv-x="1228" 
 />
    <glyph glyph-name="NULL" horiz-adv-x="1228" 
 />
    <glyph glyph-name="space" unicode=" " horiz-adv-x="471" 
 />
    <glyph glyph-name="exclam" unicode="!" horiz-adv-x="708" 
d="M174 0v301h361v-301h-361zM217 430l-63 1028h399l-61 -1028h-275z" />
    <glyph glyph-name="quotedbl" unicode="&#x22;" horiz-adv-x="948" 
d="M143 885l-37 573h324l-39 -573h-248zM557 885l-37 573h324l-39 -573h-248z" />
    <glyph glyph-name="numbersign" unicode="#" horiz-adv-x="1423" 
d="M623 813l-39 -244h217l39 244h-217zM1077 569h199l-37 -235h-199l-53 -334h-276l53 334h-217l-53 -334h-277l53 334h-198l37 235h198l39 244h-199l37 236h199l53 331h277l-54 -331h218l53 331h276l-53 -331h199l-37 -236h-199z" />
    <glyph glyph-name="dollar" unicode="$" horiz-adv-x="1286" 
d="M760 -203h-242v176q-213 29 -327.5 150t-114.5 326h342q0 -223 231 -224q111 0 165 40.5t54 102.5t-31.5 94t-87 53t-187.5 57t-230.5 78t-166 125t-67.5 233t112 260t308 137v160h242v-160q199 -25 305 -138.5t106 -310.5h-333q0 207 -207 207q-92 0 -144.5 -38
t-52.5 -97t29 -90t82 -49.5t189 -52.5t236.5 -75.5t169 -128.5t68.5 -248t-118.5 -272.5t-329.5 -136.5v-178z" />
    <glyph glyph-name="percent" unicode="%" horiz-adv-x="1910" 
d="M1462.5 614.5q-108.5 -0.5 -108.5 -234.5t108.5 -234.5t108.5 234.5t-108.5 234.5zM1819 379q0 -201 -93.5 -309.5t-263.5 -108.5t-262 108.5t-92 309.5t92 309.5t262 108.5t263.5 -108.5t93.5 -309.5zM446.5 1234q-108.5 0 -108.5 -234t108.5 -234t108.5 234t-108.5 234
zM803 1001.5q0 -200.5 -93.5 -309t-263.5 -108.5t-262 108.5t-92 309t92 309t262 108.5t263.5 -108.5t93.5 -309zM473 -61l760 1503h205l-760 -1503h-205z" />
    <glyph glyph-name="ampersand" unicode="&#x26;" horiz-adv-x="1581" 
d="M432 404q0 -72 62 -123.5t174 -51.5t202 68l-311 313q-68 -43 -97.5 -88.5t-29.5 -117.5zM541 1126q0 -52 22.5 -93.5t85.5 -104.5q133 96 133 198q0 51 -34 84t-88 33t-86.5 -32.5t-32.5 -84.5zM82 397q0 274 293 416q-84 84 -117 154.5t-33 169.5t54.5 181.5
t153.5 127.5t229 45q199 0 316.5 -93t117.5 -249q0 -230 -258 -385l225 -225q49 94 49 264h328q-2 -289 -154 -490l313 -313h-434l-104 104q-166 -137 -429 -137t-406.5 116t-143.5 314z" />
    <glyph glyph-name="quotesingle" unicode="'" horiz-adv-x="536" 
d="M143 885l-37 573h324l-39 -573h-248z" />
    <glyph glyph-name="parenleft" unicode="(" horiz-adv-x="714" 
d="M440 609q0 -239 50.5 -454.5t162.5 -455.5h-274q-154 219 -224.5 437t-70.5 473t70.5 473t224.5 436h274q-112 -238 -162.5 -454t-50.5 -455z" />
    <glyph glyph-name="parenright" unicode=")" horiz-adv-x="714" 
d="M631 609q0 -255 -71 -473t-224 -437h-275q113 240 163 456.5t50 454.5t-50 454t-163 454h275q153 -218 224 -436t71 -473z" />
    <glyph glyph-name="asterisk" unicode="*" horiz-adv-x="917" 
d="M795 1305l75 -236l-284 -45l202 -203l-198 -145l-131 256l-129 -256l-201 145l203 203l-285 45l76 236l258 -131l-47 284h250l-47 -284z" />
    <glyph glyph-name="plus" unicode="+" horiz-adv-x="1159" 
d="M1038 780v-264h-325v-326h-267v326h-325v264h325v328h267v-328h325z" />
    <glyph glyph-name="comma" unicode="," horiz-adv-x="561" 
d="M100 0v377h363v-377l-187 -365h-200l141 365h-117z" />
    <glyph glyph-name="hyphen" unicode="-" horiz-adv-x="690" 
d="M61 473v250h568v-250h-568z" />
    <glyph glyph-name="period" unicode="." horiz-adv-x="561" 
d="M100 0v377h361v-377h-361z" />
    <glyph glyph-name="slash" unicode="/" horiz-adv-x="1030" 
d="M61 -182l611 1708h254l-609 -1708h-256z" />
    <glyph glyph-name="zero" unicode="0" horiz-adv-x="1275" 
d="M418 690q0 -217 56 -334.5t162.5 -117.5t164 117.5t57.5 333.5t-57.5 333t-164 117t-162.5 -116t-56 -333zM1214 689q0 -347 -149.5 -534.5t-428 -187.5t-428 187.5t-149.5 534.5t149.5 535.5t428 188.5t428 -188.5t149.5 -535.5z" />
    <glyph glyph-name="one" unicode="1" horiz-adv-x="1275" 
d="M528 0v891h-333v250q176 0 263 56t105 183h316v-1380h-351z" />
    <glyph glyph-name="two" unicode="2" horiz-adv-x="1275" 
d="M1151 1006q0 -118 -44 -202.5t-120.5 -144t-196.5 -121.5t-182.5 -105.5t-85 -77t-26.5 -74.5h690v-281h-1102q-2 18 -2 63q0 147 35 253t121 196t222 166t233.5 142.5t97.5 178.5q0 66 -41 104t-123 38t-129 -52.5t-47 -152.5h-351q2 229 143.5 353t391.5 124
q156 0 272.5 -51t180 -144.5t63.5 -211.5z" />
    <glyph glyph-name="three" unicode="3" horiz-adv-x="1275" 
d="M1155 1022q0 -115 -57.5 -187.5t-182.5 -117.5v-4q135 -45 198 -124t63 -206t-103 -271.5t-434 -144.5q-274 0 -420.5 126t-146.5 366h354q0 -219 213 -219q84 0 134 42t50 111q0 168 -248 168h-40v262h45q106 0 167.5 45t61.5 118t-49 114t-136 41t-137.5 -52.5
t-50.5 -154.5h-346q0 225 144 352t392 127t388.5 -105.5t140.5 -285.5z" />
    <glyph glyph-name="four" unicode="4" horiz-adv-x="1275" 
d="M692 551v154q0 229 15 430h-5q-104 -188 -239 -392l-131 -192h360zM1024 287v-287h-344v287h-655v278l542 815h457v-829h213v-264h-213z" />
    <glyph glyph-name="five" unicode="5" horiz-adv-x="1275" 
d="M1182 458q0 -142 -70 -255t-197 -174.5t-292 -61.5q-242 0 -385.5 114t-143.5 310h352q2 -74 53.5 -116t137.5 -42t137 55.5t51 161.5t-52 160t-133 54q-157 0 -187 -134l-342 23l77 827h916v-280h-635l-29 -279h4q110 103 260 103t255.5 -57.5t164 -162t58.5 -246.5z
" />
    <glyph glyph-name="six" unicode="6" horiz-adv-x="1275" 
d="M471 442q0 -94 50 -150t133 -56t134.5 57t51.5 151t-50.5 151.5t-133.5 57.5t-134 -58.5t-51 -152.5zM741 901q133 0 235.5 -56.5t159 -157.5t56.5 -238t-67.5 -248t-190.5 -172.5t-281 -61.5q-270 0 -416.5 175t-146.5 513q0 240 70.5 410t204 259t333.5 89
t331.5 -111.5t146.5 -308.5h-353q-21 156 -159 156q-104 0 -169 -93t-71 -288h4q121 133 313 133z" />
    <glyph glyph-name="seven" unicode="7" horiz-adv-x="1275" 
d="M88 1090v290h1075v-284q-153 -215 -268 -502t-170 -594h-377q70 330 199 618.5t276 471.5h-735z" />
    <glyph glyph-name="eight" unicode="8" horiz-adv-x="1275" 
d="M436 405.5q0 -77.5 54.5 -123.5t147.5 -46t147.5 46t54.5 123.5t-54.5 125t-147.5 47.5t-147.5 -47.5t-54.5 -125zM449 993q0 -72 50 -114.5t138 -42.5t139 43t51 115t-51 113.5t-138 41.5t-138 -42t-51 -114zM1159 1029q0 -114 -67.5 -196.5t-184.5 -113.5v-4
q129 -31 206 -122t77 -218q0 -190 -148.5 -299t-403.5 -109t-403.5 108.5t-148.5 299.5q0 127 77 218t206 122v4q-117 31 -184.5 113.5t-67.5 196.5t65.5 201t183 135t271.5 48t272.5 -48t184 -135t65.5 -201z" />
    <glyph glyph-name="nine" unicode="9" horiz-adv-x="1275" 
d="M782 940q0 94 -49 149.5t-133 55.5t-134 -56.5t-50 -150.5t50 -152.5t133 -58.5t133 59.5t50 153.5zM514 479q-133 0 -235.5 56.5t-160 159t-57.5 238.5t69 246.5t191.5 172t280.5 61.5q270 0 416.5 -175t146.5 -513q0 -240 -70.5 -410t-203.5 -259t-334 -89t-333 111.5
t-144 310.5h352q16 -156 160 -156q104 0 167.5 92.5t69.5 286.5h-4q-117 -133 -311 -133z" />
    <glyph glyph-name="colon" unicode=":" horiz-adv-x="561" 
d="M100 0v377h361v-377h-361zM100 664v376h361v-376h-361z" />
    <glyph glyph-name="semicolon" unicode=";" horiz-adv-x="561" 
d="M100 0v377h363v-377l-187 -365h-200l141 365h-117zM100 664v376h361v-376h-361z" />
    <glyph glyph-name="less" unicode="&#x3c;" horiz-adv-x="1159" 
d="M434 651v-4l604 -231v-283l-917 361v311l917 360v-282z" />
    <glyph glyph-name="equal" unicode="=" horiz-adv-x="1159" 
d="M121 313v254h917v-254h-917zM121 729v254h917v-254h-917z" />
    <glyph glyph-name="greater" unicode="&#x3e;" horiz-adv-x="1159" 
d="M1038 494l-917 -361v283l604 231v4l-604 232v282l917 -360v-311z" />
    <glyph glyph-name="question" unicode="?" horiz-adv-x="1167" 
d="M385 0v301h360v-301h-360zM1096 1102q0 -104 -42 -178t-161 -172q-76 -66 -114 -113t-53 -99.5t-15 -133.5h-287q-4 32 -4 106t14.5 132t53 110.5t120.5 126.5t106.5 115.5t24.5 99.5t-40 92.5t-111 34.5q-176 0 -178 -201h-353q2 227 140.5 347t382.5 120t380 -102.5
t136 -284.5z" />
    <glyph glyph-name="at" unicode="@" horiz-adv-x="1781" 
d="M719 574q0 -202 121 -201q72 0 120 75.5t48 183.5t-30 151.5t-96 43.5t-114.5 -72.5t-48.5 -180.5zM1249 457q0 -113 83 -113t138.5 84t55.5 253t-75 302t-213 206t-335 73t-346 -90.5t-226 -248t-77 -353.5t78 -338t220 -216.5t333 -74.5q266 0 444 106l86 -168
q-221 -127 -530 -127q-250 0 -435.5 98.5t-286 282.5t-100.5 431t103.5 448.5t297 319.5t442.5 118t430.5 -96.5t280.5 -272t99 -379.5t-58.5 -325t-155.5 -180.5t-214 -59.5q-219 0 -262 166h-4q-88 -166 -264 -166q-145 0 -228.5 104.5t-85.5 301.5q2 154 53.5 271.5
t142.5 182t206 64.5q152 0 209 -131h4l22 110h252q-84 -408 -84 -583z" />
    <glyph glyph-name="A" unicode="A" horiz-adv-x="1464" 
d="M881 698q-88 291 -148 531h-4q-61 -254 -143 -531l-29 -98h354zM469 309l-94 -309h-373l498 1458h465l497 -1458h-372l-93 309h-528z" />
    <glyph glyph-name="B" unicode="B" horiz-adv-x="1359" 
d="M504 276h192q123 0 177.5 39t54.5 125t-55.5 127t-182.5 41h-186v-332zM504 868h184q117 0 171 39t54 121t-51 119t-162 37h-196v-316zM1255 1083q0 -127 -60 -207.5t-187 -125.5v-5q285 -63 284 -339q0 -186 -141 -296t-391 -110h-604v1458h569q264 0 397 -100.5
t133 -274.5z" />
    <glyph glyph-name="C" unicode="C" horiz-adv-x="1464" 
d="M752 1184q-145 0 -228.5 -122t-83.5 -333t83 -333t225 -122q115 0 187.5 68t86.5 190h371q-20 -270 -192.5 -417.5t-452.5 -147.5q-209 0 -362 92.5t-234.5 263.5t-81.5 406.5t83 406.5t236.5 263t351 92t339 -68.5t221 -194.5t85.5 -294h-366q-12 119 -83 184.5
t-185 65.5z" />
    <glyph glyph-name="D" unicode="D" horiz-adv-x="1519" 
d="M664 301q417 0 417 428q0 213 -105.5 320.5t-311.5 107.5h-156v-856h156zM1450 729q0 -350 -201.5 -539.5t-576.5 -189.5h-516v1458h516q375 0 576.5 -189.5t201.5 -539.5z" />
    <glyph glyph-name="E" unicode="E" horiz-adv-x="1298" 
d="M510 1161v-276h631v-293h-631v-295h692v-297h-1046v1458h1030v-297h-676z" />
    <glyph glyph-name="F" unicode="F" horiz-adv-x="1210" 
d="M510 1155v-336h602v-301h-602v-518h-354v1458h1003v-303h-649z" />
    <glyph glyph-name="G" unicode="G" horiz-adv-x="1538" 
d="M70 726.5q0 234.5 86 407.5t244.5 265t357 92t337 -61.5t218.5 -173t92 -263.5h-381q-16 96 -79.5 148.5t-168.5 52.5q-156 0 -246 -126t-90 -347t89 -350t235.5 -129t222.5 78.5t80 224.5h-313v274h645v-819h-303v147h-4q-129 -176 -406 -176q-188 0 -327.5 90.5
t-214 260.5t-74.5 404.5z" />
    <glyph glyph-name="H" unicode="H" horiz-adv-x="1558" 
d="M1049 0v604h-539v-604h-354v1458h354v-553h539v553h354v-1458h-354z" />
    <glyph glyph-name="I" unicode="I" horiz-adv-x="665" 
d="M156 0v1458h354v-1458h-354z" />
    <glyph glyph-name="J" unicode="J" horiz-adv-x="839" 
d="M190 -16q-94 0 -159 18v295q47 -10 109 -10q62 1 109 25q91 48 91 259v887h354v-964q0 -263 -121.5 -386.5t-382.5 -123.5z" />
    <glyph glyph-name="K" unicode="K" horiz-adv-x="1413" 
d="M510 672v-672h-354v1458h354v-629h4l428 629h424l-530 -690l569 -768h-447l-444 672h-4z" />
    <glyph glyph-name="L" unicode="L" horiz-adv-x="1187" 
d="M1169 301v-301h-1013v1458h354v-1157h659z" />
    <glyph glyph-name="M" unicode="M" horiz-adv-x="2074" 
d="M1585 0v713q0 272 12 538h-4q-49 -211 -139 -530l-207 -721h-420l-206 721q-90 319 -140 530h-4q12 -266 12 -538v-713h-333v1458h567l186 -647q76 -274 127 -537h4q47 252 125 537l189 647h565v-1458h-334z" />
    <glyph glyph-name="N" unicode="N" horiz-adv-x="1640" 
d="M496 0h-340v1458h510l256 -575q135 -313 237 -584h4q-16 272 -16 614v545h340v-1458h-512l-254 575q-135 305 -238 584h-4q16 -328 17 -614v-545z" />
    <glyph glyph-name="O" unicode="O" horiz-adv-x="1550" 
d="M440 729q0 -215 88 -335t247 -120t247 120t88 335t-88 335t-247 120t-247 -120t-88 -335zM1481 729.5q0 -233.5 -86 -405.5t-245 -264.5t-375 -92.5t-374.5 92.5t-244.5 264.5t-86 405.5t86 405.5t244.5 264t374.5 92t375 -92t245 -264t86 -405.5z" />
    <glyph glyph-name="P" unicode="P" horiz-adv-x="1339" 
d="M510 774h180q242 0 242 200t-242 200h-180v-400zM1294 974q0 -226 -141 -355.5t-414 -129.5h-229v-489h-354v1458h583q273 0 414 -129t141 -355z" />
    <glyph glyph-name="Q" unicode="Q" horiz-adv-x="1550" 
d="M1126 719q0 219 -90 342t-251.5 123t-253 -123t-91.5 -342t91.5 -343t252.5 -124q62 0 111 18l-186 207l186 168l180 -203q51 115 51 277zM1481 729q0 -336 -176 -543l159 -180l-182 -168l-178 199q-145 -70 -345 -70t-358.5 92.5t-244.5 264.5t-86 405.5t86 405.5
t244.5 264t374.5 92t375 -92t245 -264t86 -406z" />
    <glyph glyph-name="R" unicode="R" horiz-adv-x="1402" 
d="M510 801h195q229 0 229 196q0 186 -244 187h-180v-383zM1284 1042q0 -133 -71.5 -226t-196.5 -130v-4q78 -27 125 -89.5t98 -203.5l141 -389h-381l-110 330q-39 115 -91.5 158.5t-154.5 43.5h-133v-532h-354v1458h592q536 0 536 -416z" />
    <glyph glyph-name="S" unicode="S" horiz-adv-x="1320" 
d="M1217 1014h-369q0 98 -56.5 150.5t-152.5 52.5t-148.5 -38t-52.5 -92.5t28 -84t87 -52t204.5 -58.5t253 -82t176 -136t68.5 -235.5t-73.5 -251t-207.5 -163t-315 -57.5q-287 0 -448.5 133t-161.5 375h377q0 -225 242 -225q100 0 157.5 41t57.5 103t-28 93t-81 50.5
t-200.5 57.5t-254 83t-176 133t-69.5 228.5t69.5 240.5t199.5 155.5t302 55.5q277 0 424.5 -122t147.5 -355z" />
    <glyph glyph-name="T" unicode="T" horiz-adv-x="1284" 
d="M819 1157v-1157h-354v1157h-447v301h1248v-301h-447z" />
    <glyph glyph-name="U" unicode="U" horiz-adv-x="1484" 
d="M742 -33q-288 0 -443.5 154.5t-155.5 443.5v893h355v-885q0 -143 62.5 -218.5t182 -75.5t182 75.5t62.5 218.5v885h354v-893q0 -289 -155.5 -443.5t-443.5 -154.5z" />
    <glyph glyph-name="V" unicode="V" horiz-adv-x="1357" 
d="M446 0l-438 1458h371l158 -563q84 -283 139 -573h4q49 256 139 573l160 563h369l-439 -1458h-463z" />
    <glyph glyph-name="W" unicode="W" horiz-adv-x="2029" 
d="M1247 0l-123 584q-68 301 -108 585h-4q-39 -266 -107 -585l-123 -584h-471l-295 1458h344l99 -526q59 -324 94 -610h4q51 311 117 610l114 526h453l115 -526q70 -313 114 -610h5q39 303 96 610l96 526h346l-295 -1458h-471z" />
    <glyph glyph-name="X" unicode="X" horiz-adv-x="1370" 
d="M1368 0h-418l-262 504h-4l-264 -504h-416l453 748l-428 710h407l248 -487h4l246 487h407l-428 -710z" />
    <glyph glyph-name="Y" unicode="Y" horiz-adv-x="1357" 
d="M856 0h-354v551l-500 907h393l127 -264q88 -182 156 -367h4q61 176 154 367l127 264h393l-500 -907v-551z" />
    <glyph glyph-name="Z" unicode="Z" horiz-adv-x="1214" 
d="M465 295h706v-295h-1130v307l674 852v4h-643v295h1067v-307l-674 -852v-4z" />
    <glyph glyph-name="bracketleft" unicode="[" horiz-adv-x="733" 
d="M453 1303v-1399h239v-213h-559v1827h559v-215h-239z" />
    <glyph glyph-name="backslash" unicode="\" horiz-adv-x="1030" 
d="M969 -182h-254l-611 1708h256z" />
    <glyph glyph-name="bracketright" unicode="]" horiz-adv-x="733" 
d="M600 -309h-559v213h240v1399h-240v215h559v-1827z" />
    <glyph glyph-name="asciicircum" unicode="^" horiz-adv-x="1064" 
d="M739 760l-204 432h-5l-204 -432h-312l340 698h357l340 -698h-312z" />
    <glyph glyph-name="underscore" unicode="_" horiz-adv-x="1024" 
d="M0 -289v187h1024v-187h-1024z" />
    <glyph glyph-name="grave" unicode="`" horiz-adv-x="755" 
d="M653 1155h-262l-289 303h392z" />
    <glyph glyph-name="a" unicode="a" horiz-adv-x="1148" 
d="M381 318q0 -56 35 -87.5t87 -31.5q103 0 154 53q31 33 41.5 73t10.5 109v37q-235 -10 -295 -66q-34 -31 -33 -87zM1036 651v-358q0 -184 31 -293h-307q-14 57 -15 135h-4q-119 -162 -338 -162q-166 0 -262 90.5t-96 228.5q-1 138 95 220q136 116 569 145v37q0 84 -39 124
t-108 40t-106.5 -38t-39.5 -107h-328q8 158 127 259t352.5 101t351 -107.5t117.5 -314.5z" />
    <glyph glyph-name="b" unicode="b" horiz-adv-x="1249" 
d="M446 520q0 -135 52.5 -213t139.5 -78t140 79t53 212t-53 212t-140 79t-139.5 -78t-52.5 -213zM776 1069q108 0 206.5 -67.5t152 -191.5t53.5 -290t-54.5 -290t-154.5 -191.5t-211 -67.5q-213 0 -311 158h-4v-129h-328v1458h340v-530h4q97 141 307 141z" />
    <glyph glyph-name="c" unicode="c" horiz-adv-x="1177" 
d="M597 817q-79 0 -129 -77.5t-50 -218t50 -218.5t130 -78t124 51.5t48 141.5h354q-16 -207 -156.5 -329t-361.5 -122q-164 0 -287.5 68.5t-190.5 193.5t-67 292t67 292t189.5 192.5t277.5 67.5t268.5 -54t182 -151.5t78.5 -224.5h-352q-8 82 -52 128t-123 46z" />
    <glyph glyph-name="d" unicode="d" horiz-adv-x="1249" 
d="M418 520q0 -133 53 -212t140 -79t139.5 78t52.5 213t-52.5 213t-139.5 78t-140 -79t-53 -212zM793 129q-97 -158 -311 -158q-110 0 -211 67.5t-155.5 191.5t-54.5 290t53.5 290t152.5 191.5t207 67.5q208 0 306 -141h4v530h340v-1458h-327v129h-4z" />
    <glyph glyph-name="e" unicode="e" horiz-adv-x="1196" 
d="M597 850q-167 0 -196 -207h392q-10 104 -63.5 155.5t-132.5 51.5zM584.5 -33q-152.5 0 -274.5 72t-185.5 199t-63.5 286.5t63.5 283.5t185.5 194.5t296 70.5t303 -89t185 -245q41 -105 41 -288h-740q6 -137 61.5 -196.5t134.5 -59.5t126 34.5t55 89.5h346
q-23 -98 -92.5 -179t-179 -127t-262 -46z" />
    <glyph glyph-name="f" unicode="f" horiz-adv-x="739" 
d="M520 1077v-37h193v-247h-193v-793h-336v793h-166v247h166v76q0 180 96.5 270.5t278.5 90.5q88 0 162 -19v-233q-20 4 -49 4q-78 0 -115 -35t-37 -117z" />
    <glyph glyph-name="g" unicode="g" horiz-adv-x="1232" 
d="M414 542q0 -120 50 -190.5t136 -70.5t137 70.5t51 190.5t-51 190.5t-137 70.5t-136 -70.5t-50 -190.5zM436 -66q9 -114 166 -114q80 0 128 57t48 191v96h-4q-109 -152 -289 -152q-129 0 -224 64.5t-147.5 184.5t-52.5 279.5t53.5 279.5t150.5 184.5t227 64.5
q183 0 294 -168h5v139h317v-972q0 -236 -136 -351.5t-369.5 -115.5t-356.5 88t-140 245h330z" />
    <glyph glyph-name="h" unicode="h" 
d="M751.5 1067q176.5 0 277.5 -109.5t101 -318.5v-639h-339v602q0 201 -152 201q-82 0 -128 -66.5t-46 -197.5v-539h-340v1458h340v-522h4q106 131 282.5 131z" />
    <glyph glyph-name="i" unicode="i" horiz-adv-x="589" 
d="M125 0v1040h340v-1040h-340zM125 1190v268h340v-268h-340z" />
    <glyph glyph-name="j" unicode="j" horiz-adv-x="591" 
d="M84 -389q-96 0 -164 18v238q25 -6 53 -6q80 0 117 43t37 155v981h340v-1038q0 -201 -103.5 -296t-279.5 -95zM127 1190v268h340v-268h-340z" />
    <glyph glyph-name="k" unicode="k" horiz-adv-x="1159" 
d="M465 471v-471h-340v1458h340v-827h4l279 409h393l-371 -485l410 -555h-418l-293 471h-4z" />
    <glyph glyph-name="l" unicode="l" horiz-adv-x="589" 
d="M125 0v1458h340v-1458h-340z" />
    <glyph glyph-name="m" unicode="m" horiz-adv-x="1859" 
d="M1380 1067q170 0 267.5 -109.5t97.5 -318.5v-639h-340v602q0 100 -36 150.5t-101 50.5q-162 0 -162 -275v-528h-340v616q0 90 -36 138.5t-101 48.5q-164 0 -164 -275v-528h-340v1040h317v-118h4q109 145 293 145q222 0 308 -180q121 180 333 180z" />
    <glyph glyph-name="n" unicode="n" 
d="M743 1067q185 0 286 -109.5t101 -318.5v-639h-339v602q0 201 -152 201q-82 0 -128 -66.5t-46 -197.5v-539h-340v1040h317v-125h4q112 152 297 152z" />
    <glyph glyph-name="o" unicode="o" horiz-adv-x="1236" 
d="M420 520q0 -137 52 -216t146.5 -79t146.5 79t52 216t-52 216t-146.5 79t-146.5 -79t-52 -216zM1176 520q0 -168 -69 -293t-195 -192.5t-293.5 -67.5t-293.5 67.5t-195 192.5t-69 293t69 293t195 192.5t293.5 67.5t293.5 -67.5t195 -192.5t69 -293z" />
    <glyph glyph-name="p" unicode="p" horiz-adv-x="1249" 
d="M446 520q0 -135 52.5 -213t139.5 -78t140 79t53 212t-53 212t-140 79t-139.5 -78t-52.5 -213zM457 911q98 158 311 158q111 0 211 -67.5t154.5 -191.5t54.5 -290t-53.5 -290t-152 -191.5t-206.5 -67.5q-209 0 -307 142h-4v-492h-340v1419h328v-129h4z" />
    <glyph glyph-name="q" unicode="q" horiz-adv-x="1249" 
d="M418 520q0 -133 53 -212t140 -79t139.5 78t52.5 213t-52.5 213t-139.5 78t-140 -79t-53 -212zM780 113q-98 -142 -306 -142q-108 0 -207 67.5t-152.5 191.5t-53.5 290t54.5 290t155.5 191.5t211 67.5q212 0 311 -158h4v129h327v-1419h-340v492h-4z" />
    <glyph glyph-name="r" unicode="r" horiz-adv-x="849" 
d="M731 764q-129 0 -197.5 -79t-68.5 -228v-457h-340v1040h315v-143h4q103 160 293 160q52 -1 99 -13v-290q-57 10 -105 10z" />
    <glyph glyph-name="s" unicode="s" horiz-adv-x="1110" 
d="M1008 725h-324q0 133 -139 133q-57 0 -89 -21.5t-32 -56.5t25 -60t172 -63.5t228 -72t138 -102t57 -181.5q0 -152 -129 -243t-362.5 -91t-361.5 92.5t-128 278.5h343q0 -147 159 -148q63 0 97 24t34 61.5t-23.5 60t-69.5 39t-156.5 45.5t-183.5 58.5t-124 94t-51 175.5
q0 145 121 235t339 90t339 -88t121 -260z" />
    <glyph glyph-name="t" unicode="t" horiz-adv-x="774" 
d="M516 408q0 -156 117 -156q55 0 90 10v-256q-77 -22 -172 -22q-197 0 -286 81.5t-89 264.5v463h-162v247h162v281h340v-281h197v-247h-197v-385z" />
    <glyph glyph-name="u" unicode="u" 
d="M115 401v639h340v-602q0 -200 151 -200q82 0 128 66.5t46 197.5v538h340v-1040h-317v125h-4q-112 -152 -297 -152t-286 110t-101 318z" />
    <glyph glyph-name="v" unicode="v" horiz-adv-x="1091" 
d="M319 0l-335 1040h360l102 -381q57 -229 97 -440h4q33 182 98 440l100 381h363l-336 -1040h-453z" />
    <glyph glyph-name="w" unicode="w" horiz-adv-x="1736" 
d="M1032 0l-84 391q-47 223 -78 436h-4q-31 -213 -78 -436l-83 -391h-465l-232 1040h332l68 -383q41 -227 65 -442h4q37 244 84 444l86 381h443l86 -381q47 -201 84 -444h4q25 215 65 442l68 383h332l-232 -1040h-465z" />
    <glyph glyph-name="x" unicode="x" horiz-adv-x="1095" 
d="M1108 0h-389l-170 334h-4l-170 -334h-387l348 535l-326 505h385l150 -297h4l149 297h387l-325 -505z" />
    <glyph glyph-name="y" unicode="y" horiz-adv-x="1085" 
d="M279.5 -393q-111.5 0 -199.5 18v258q49 -16 112.5 -16t106.5 36t43 90t-57 210l-305 837h366l100 -348q66 -242 105 -434h4q43 219 104 436l97 346h346l-346 -1022q-54 -155 -118.5 -244t-155.5 -128t-202.5 -39z" />
    <glyph glyph-name="z" unicode="z" horiz-adv-x="1028" 
d="M477 260h492v-260h-910v268l473 508v4h-454v260h874v-268l-475 -508v-4z" />
    <glyph glyph-name="braceleft" unicode="{" horiz-adv-x="739" 
d="M526 1151v-270q0 -119 -50 -183.5t-157 -91.5v-6q106 -29 156.5 -93.5t50.5 -182.5v-271q0 -94 35 -131t121 -41v-194h-51q-158 0 -247 38.5t-127 120.5t-38 220v251q0 84 -29.5 123t-107.5 60v205q78 20 107.5 59t29.5 123v252q0 137 38 219t127 121t247 39h51v-195
q-86 -4 -121 -41t-35 -131z" />
    <glyph glyph-name="bar" unicode="|" horiz-adv-x="608" 
d="M158 -420v1919h291v-1919h-291z" />
    <glyph glyph-name="braceright" unicode="}" horiz-adv-x="739" 
d="M518 1139v-252q0 -84 30 -123t109 -59v-205q-80 -20 -109.5 -59.5t-29.5 -123.5v-251q0 -137 -37 -219.5t-126 -121t-246 -38.5h-52v194q86 4 121 41t35 131v271q0 119 50 183t157 93v6q-106 27 -156.5 91.5t-50.5 183.5v270q0 94 -35 131t-121 41v195h52q157 0 246 -39
t126 -121t37 -219z" />
    <glyph glyph-name="asciitilde" unicode="~" horiz-adv-x="1228" 
d="M840 694q48 0 84.5 43t36.5 117h217q0 -127 -45.5 -223t-126 -148.5t-168.5 -52.5t-147 27t-123 71t-99 61t-82 17t-83 -44t-36 -116h-217q0 125 45 221.5t126 149.5t168 53t144.5 -26.5t121.5 -69.5t100 -61.5t84 -18.5z" />
    <glyph glyph-name="uni00A0" unicode="&#xa0;" horiz-adv-x="471" 
 />
    <glyph glyph-name="exclamdown" unicode="&#xa1;" horiz-adv-x="708" 
d="M492 610l61 -1028h-399l63 1028h275zM535 1040v-301h-363v301h363z" />
    <glyph glyph-name="cent" unicode="&#xa2;" horiz-adv-x="1286" 
d="M782 -57h-243v192q-197 35 -311.5 179.5t-114.5 364.5t113.5 363.5t312.5 178.5v194h243v-196q170 -33 274.5 -144.5t119.5 -273.5h-353q-8 82 -52 128t-124 46t-129 -78t-49 -218t50 -218t130 -78t124 51t48 141h355q-14 -174 -119 -290.5t-275 -147.5v-194z" />
    <glyph glyph-name="sterling" unicode="&#xa3;" horiz-adv-x="1286" 
d="M1208 276v-276h-1161v281q92 0 137 55t45 192v31h-182v262h182v84q0 250 131.5 379t365.5 129t364.5 -123t130.5 -332h-334q0 84 -39 130.5t-111 46.5q-162 0 -162 -228v-86h256v-262h-256v-27q0 -98 -27.5 -156.5t-90.5 -94.5v-5h751z" />
    <glyph glyph-name="currency" unicode="&#xa4;" horiz-adv-x="1286" 
d="M846 596q0 96 -55.5 154.5t-147.5 58.5t-148.5 -58.5t-56.5 -154.5t56.5 -154.5t148.5 -58.5t147.5 58.5t55.5 154.5zM643 158q-111 0 -203 41l-155 -168l-189 174l156 166q-55 96 -55 222t55 230l-156 164l189 174l155 -168q92 41 203 41t203 -41l155 168l187 -174
l-154 -164q55 -104 55 -227t-55 -227l154 -164l-187 -174l-155 168q-92 -41 -203 -41z" />
    <glyph glyph-name="yen" unicode="&#xa5;" horiz-adv-x="1286" 
d="M1141 700v-149h-320v-78h320v-151h-320v-322h-356v322h-320v151h320v78h-320v149h242l-352 680h387l80 -178q80 -188 139 -366h4q59 178 139 366l80 178h387l-352 -680h242z" />
    <glyph glyph-name="brokenbar" unicode="&#xa6;" horiz-adv-x="608" 
d="M158 -420v717h291v-717h-291zM158 782v717h291v-717h-291z" />
    <glyph glyph-name="section" unicode="&#xa7;" horiz-adv-x="1343" 
d="M913 496q0 73 -43 117t-163 94l-207 88q-64 -43 -64 -115t43 -115t149 -86t222 -96q63 40 63 113zM209 1130q0 166 127 263.5t340 97.5t331.5 -97.5t131.5 -287.5h-330q-4 63 -40 98t-95 35t-91 -25.5t-32 -65.5t17.5 -62.5t61.5 -43t170 -67.5t213 -92t143 -126t56 -206
q0 -188 -170 -297v-4q100 -76 100 -232t-127.5 -255t-347.5 -99t-347 98.5t-136 290.5h336q10 -135 148 -135q59 0 95 26.5t36 68.5t-30 77.5t-206 107.5t-304 149t-128 272t172 299v4q-94 74 -94 208z" />
    <glyph glyph-name="dieresis" unicode="&#xa8;" horiz-adv-x="960" 
d="M567 1190v268h291v-268h-291zM102 1190v268h293v-268h-293z" />
    <glyph glyph-name="copyright" unicode="&#xa9;" horiz-adv-x="1634" 
d="M816 1004q-79 0 -128 -74t-49 -201t48 -200.5t126 -73.5t122 44t52 119h236q-14 -168 -121.5 -260t-291.5 -92t-294 124t-110 339t110.5 339t295.5 124t290.5 -93t114.5 -253h-234q-4 74 -46 116t-121 42zM205 729.5q0 -188.5 75.5 -331t215 -221.5t321.5 -79t321.5 79
t216.5 221.5t77 331t-77 330.5t-216.5 221t-321.5 79t-321.5 -79t-215 -221t-75.5 -330.5zM1556 729q0 -225 -92 -398t-260 -267.5t-387 -94.5t-387 94.5t-260 267.5t-92 398t92 398t260 267.5t387 94.5t387 -94.5t260 -267.5t92 -398z" />
    <glyph glyph-name="ordfeminine" unicode="&#xaa;" horiz-adv-x="858" 
d="M508 977v24q-56 0 -110 -12q-54 -13 -73 -33t-19 -54t21 -54t69 -20t74 26q26 28 32 53t6 70zM776 1124v-235q0 -133 25 -213h-250q-12 41 -12 92h-4q-86 -113 -242 -113q-121 0 -192 65t-71 164q1 192 276 232q132 20 202 25v26q0 99 -88 99t-92 -92h-267q9 110 97 182
t265 72t265 -78t88 -226z" />
    <glyph glyph-name="guillemotleft" unicode="&#xab;" horiz-adv-x="1167" 
d="M1081 111h-290l-234 409l234 410h290l-217 -410zM612 111h-290l-234 409l234 410h290l-217 -410z" />
    <glyph glyph-name="logicalnot" unicode="&#xac;" horiz-adv-x="1159" 
d="M774 258v436h-653v264h917v-700h-264z" />
    <glyph glyph-name="uni00AD" unicode="&#xad;" horiz-adv-x="690" 
d="M61 473v250h568v-250h-568z" />
    <glyph glyph-name="registered" unicode="&#xae;" horiz-adv-x="1212" 
d="M702 1092q0 79 -108 79h-86v-167h82q112 0 112 88zM856 1124q0 -140 -121 -172v-4q33 -8 54.5 -34.5t44.5 -86.5l65 -176h-166l-53 150q-14 47 -40 66.5t-73 19.5h-59v-236h-158v641h283q110 0 166.5 -48t56.5 -120zM170 962.5q0 -133.5 54.5 -235.5t153.5 -158.5
t228 -56.5t228.5 56.5t153.5 158.5t54 235.5t-54 235.5t-153.5 158.5t-228.5 56.5t-228 -56.5t-153.5 -158.5t-54.5 -235.5zM1120 962.5q0 -157.5 -63.5 -277.5t-180 -185.5t-270 -65.5t-270.5 65.5t-180.5 185.5t-63.5 277.5t63.5 277.5t180.5 185.5t270.5 65.5t270 -65.5
t180 -185.5t63.5 -277.5z" />
    <glyph glyph-name="macron" unicode="&#xaf;" horiz-adv-x="940" 
d="M102 1206v211h736v-211h-736z" />
    <glyph glyph-name="degree" unicode="&#xb0;" horiz-adv-x="712" 
d="M227 1190q0 -53 38 -91t91.5 -38t91 38t37.5 91t-37.5 91t-91 38t-91.5 -38t-38 -91zM645 1189q0 -79 -39 -144.5t-105.5 -104.5t-144 -39t-145.5 39t-106.5 104.5t-38.5 144.5t38.5 145.5t106.5 105.5t145.5 39t144 -39t105.5 -105.5t39 -145.5z" />
    <glyph glyph-name="plusminus" unicode="&#xb1;" horiz-adv-x="1159" 
d="M121 0v260h917v-260h-917zM1038 887v-260h-327v-293h-262v293h-328v260h328v293h262v-293h327z" />
    <glyph glyph-name="twosuperior" unicode="&#xb2;" horiz-adv-x="964" 
d="M485 1454q-116 0 -120 -133h-287q2 166 108.5 255t296.5 89q119 0 208 -39t137.5 -105.5t48.5 -168.5t-68 -172t-195 -125t-167.5 -86t-45.5 -68h502v-225h-833q-4 33 -4 57q0 158 63.5 258.5t206.5 169.5t195.5 110.5t52.5 89.5q0 93 -99 93z" />
    <glyph glyph-name="threesuperior" unicode="&#xb3;" horiz-adv-x="950" 
d="M590 1362q0 94 -119 94q-59 0 -92 -35t-33 -98h-280q0 162 108 252t298 90t295 -73.5t105 -200.5q0 -78 -40.5 -128.5t-131.5 -82.5v-4q96 -31 140.5 -84.5t44.5 -141.5q0 -137 -109.5 -217t-306.5 -80t-308.5 90.5t-111.5 257.5h291q0 -139 139 -139q55 0 88 24.5
t33 69.5q0 104 -162 105h-26v203h32q68 0 107 26.5t39 71.5z" />
    <glyph glyph-name="acute" unicode="&#xb4;" horiz-adv-x="755" 
d="M102 1155l160 303h391l-288 -303h-263z" />
    <glyph glyph-name="mu" unicode="&#xb5;" horiz-adv-x="1282" 
d="M587 -12q-77 0 -122 32v-399h-340v1419h340v-596q0 -207 149 -206q80 0 126 63t46 193v546h340v-675q1 -70 21 -98q30 -42 117 -21v-236q-86 -29 -201 -28q-197 0 -246 153h-4q-29 -71 -89 -109t-137 -38z" />
    <glyph glyph-name="paragraph" unicode="&#xb6;" horiz-adv-x="1400" 
d="M1180 1233v-1479h-244v1479h-156v-1479h-241v826h-37q-193 0 -306.5 118.5t-113.5 319.5t113.5 320.5t306.5 119.5h841v-225h-163z" />
    <glyph glyph-name="periodcentered" unicode="&#xb7;" horiz-adv-x="561" 
d="M100 438v375h361v-375h-361z" />
    <glyph glyph-name="cedilla" unicode="&#xb8;" horiz-adv-x="712" 
d="M329 -346q83 0 83 47t-23.5 65.5t-62.5 18.5t-68 -12l-59 55l104 172h137l-75 -123q30 10 67 10q80 0 129 -43.5t49 -123.5t-68.5 -137.5t-197.5 -57.5t-242 65l54 109q90 -45 173 -45z" />
    <glyph glyph-name="onesuperior" unicode="&#xb9;" horiz-adv-x="686" 
d="M279 676v590h-256v207q137 0 204.5 39.5t81.5 129.5h256v-966h-286z" />
    <glyph glyph-name="ordmasculine" unicode="&#xba;" horiz-adv-x="909" 
d="M334 1040q0 -86 32 -133t89 -47t89 47t31 133q0 86 -31 134q-32 47 -89 47t-89 -47q-32 -48 -32 -134zM43 1039q0 177 112 283t300 105q188 0 300 -105q111 -104 111 -282t-112 -282t-299 -104q-188 0 -300 104t-112 281z" />
    <glyph glyph-name="guillemotright" unicode="&#xbb;" horiz-adv-x="1167" 
d="M1081 520l-233 -409h-293l217 409l-217 410h293zM612 520l-233 -409h-291l217 409l-217 410h291z" />
    <glyph glyph-name="onequarter" unicode="&#xbc;" horiz-adv-x="1687" 
d="M18 1235q197 0 236 145h242v-827h-267v500h-211v182zM268 0l744 1380h205l-744 -1380h-205zM1288 344v76q0 139 8 246h-2q-74 -135 -131 -217l-73 -105h198zM1524 156v-156h-248v156h-404v192l326 479h326v-483h143v-188h-143z" />
    <glyph glyph-name="onehalf" unicode="&#xbd;" horiz-adv-x="1738" 
d="M18 1235q197 0 236 145h242v-827h-267v500h-211v182zM268 0l744 1380h205l-744 -1380h-205zM1661 597q0 -105 -59 -167t-170 -108q-111 -45 -146 -70t-39 -55h439v-197h-732q-2 16 -2 51q0 137 54 222t194 155q113 53 158 86t45 73q0 75 -84 77q-47 0 -74 -29t-26 -84
h-254q0 141 93 219t256 78t255 -73t92 -178z" />
    <glyph glyph-name="threequarters" unicode="&#xbe;" horiz-adv-x="1929" 
d="M766 1161q0 -67 -36 -109t-116 -69v-2q84 -27 123 -74t39 -123q0 -120 -93 -186t-268 -66t-274 77q-98 77 -98 225h254q0 -115 123 -115q47 -1 76 21t28 57q0 82 -133 82h-29v178h27q59 1 94 23t35 59t-29 57t-79 20t-80 -28q-29 -29 -29 -80h-246q-1 137 95 215t260 78
t260 -66t96 -174zM510 0l743 1380h205l-743 -1380h-205zM1530 344v76q0 139 8 246h-2q-74 -135 -131 -217l-74 -105h199zM1765 156v-156h-247v156h-404v192l326 479h325v-483h144v-188h-144z" />
    <glyph glyph-name="questiondown" unicode="&#xbf;" horiz-adv-x="1110" 
d="M72 -61q0 104 42 177.5t139 155.5t135 129.5t53.5 99.5t15.5 134h286q5 -31 5 -105t-14.5 -133t-53.5 -111t-121 -126t-106.5 -116t-24.5 -100t40 -92t112 -34q176 0 178 200h352q-4 -229 -142 -348t-382 -119t-379 102.5t-135 285.5zM782 1040v-301h-362v301h362z" />
    <glyph glyph-name="Agrave" unicode="&#xc0;" horiz-adv-x="1464" 
d="M881 698q-88 291 -148 531h-4q-61 -254 -143 -531l-29 -98h354zM469 309l-94 -309h-373l498 1458h465l497 -1458h-372l-93 309h-528zM928 1556h-262l-289 310h391z" />
    <glyph glyph-name="Aacute" unicode="&#xc1;" horiz-adv-x="1464" 
d="M881 698q-88 291 -148 531h-4q-61 -254 -143 -531l-29 -98h354zM469 309l-94 -309h-373l498 1458h465l497 -1458h-372l-93 309h-528zM537 1556l159 310h391l-288 -310h-262z" />
    <glyph glyph-name="Acircumflex" unicode="&#xc2;" horiz-adv-x="1464" 
d="M881 698q-88 291 -148 531h-4q-61 -254 -143 -531l-29 -98h354zM469 309l-94 -309h-373l498 1458h465l497 -1458h-372l-93 309h-528zM891 1866l246 -310h-283l-123 162l-123 -162h-282l245 310h320z" />
    <glyph glyph-name="Atilde" unicode="&#xc3;" horiz-adv-x="1464" 
d="M881 698q-88 291 -148 531h-4q-61 -254 -143 -531l-29 -98h354zM469 309l-94 -309h-373l498 1458h465l497 -1458h-372l-93 309h-528zM874 1573q-73 0 -152.5 44t-121.5 44q-76 0 -86 -88h-182q6 137 71.5 215t182.5 78q47 0 80.5 -12.5t91.5 -38.5q63 -37 103 -37
q75 0 87 88h182q-8 -137 -73.5 -215t-182.5 -78z" />
    <glyph glyph-name="Adieresis" unicode="&#xc4;" horiz-adv-x="1464" 
d="M881 698q-88 291 -148 531h-4q-61 -254 -143 -531l-29 -98h354zM469 309l-94 -309h-373l498 1458h465l497 -1458h-372l-93 309h-528zM819 1575v268h291v-268h-291zM354 1575v268h293v-268h-293z" />
    <glyph glyph-name="Aring" unicode="&#xc5;" horiz-adv-x="1464" 
d="M881 698q-88 291 -148 531h-4q-61 -254 -143 -531l-29 -98h354zM469 309l-94 -309h-373l498 1458h465l497 -1458h-372l-93 309h-528zM616 1771.5q0 -47.5 34 -81t81 -33.5t81 33.5t34 81t-34 81t-81 33.5t-81 -33.5t-34 -81zM965 1771.5q0 -96.5 -69 -164t-165 -67.5
t-164.5 67.5t-68.5 164t68.5 165t164.5 68.5t165 -68.5t69 -165z" />
    <glyph glyph-name="AE" unicode="&#xc6;" horiz-adv-x="2000" 
d="M897 1171h-29l-229 -550h338zM1905 0h-840l-47 328h-502l-137 -328h-391l651 1458h1251v-297h-653l39 -276h565v-293h-524l43 -295h545v-297z" />
    <glyph glyph-name="Ccedilla" unicode="&#xc7;" horiz-adv-x="1464" 
d="M724 -346q83 0 83 64q0 30 -23.5 48.5t-63.5 18.5t-67 -12l-59 55l86 141q-188 14 -325.5 110.5t-211 262.5t-73.5 394.5t83 399.5t236.5 263t351 92t339 -68.5t221 -194.5t85.5 -294h-366q-12 119 -83 184.5t-185 65.5q-145 0 -228.5 -122t-83.5 -333t83 -333t225 -122
q115 0 187.5 68t86.5 190h371q-21 -251 -172.5 -397.5t-403.5 -165.5l-57 -92q31 10 67 10q80 0 129.5 -43t49.5 -123.5t-69 -138t-198 -57.5t-241 65l53 109q90 -45 173 -45z" />
    <glyph glyph-name="Egrave" unicode="&#xc8;" horiz-adv-x="1298" 
d="M510 1161v-276h631v-293h-631v-295h692v-297h-1046v1458h1030v-297h-676zM868 1556h-262l-289 310h392z" />
    <glyph glyph-name="Eacute" unicode="&#xc9;" horiz-adv-x="1298" 
d="M510 1161v-276h631v-293h-631v-295h692v-297h-1046v1458h1030v-297h-676zM477 1556l160 310h391l-289 -310h-262z" />
    <glyph glyph-name="Ecircumflex" unicode="&#xca;" horiz-adv-x="1298" 
d="M510 1161v-276h631v-293h-631v-295h692v-297h-1046v1458h1030v-297h-676zM831 1866l246 -310h-282l-123 162l-123 -162h-283l246 310h319z" />
    <glyph glyph-name="Edieresis" unicode="&#xcb;" horiz-adv-x="1298" 
d="M510 1161v-276h631v-293h-631v-295h692v-297h-1046v1458h1030v-297h-676zM760 1575v268h291v-268h-291zM295 1575v268h293v-268h-293z" />
    <glyph glyph-name="Igrave" unicode="&#xcc;" horiz-adv-x="665" 
d="M156 0v1458h354v-1458h-354zM528 1556h-262l-289 310h392z" />
    <glyph glyph-name="Iacute" unicode="&#xcd;" horiz-adv-x="665" 
d="M156 0v1458h354v-1458h-354zM137 1556l160 310h391l-289 -310h-262z" />
    <glyph glyph-name="Icircumflex" unicode="&#xce;" horiz-adv-x="665" 
d="M156 0v1458h354v-1458h-354zM492 1866l245 -310h-282l-123 162l-123 -162h-283l246 310h320z" />
    <glyph glyph-name="Idieresis" unicode="&#xcf;" horiz-adv-x="665" 
d="M156 0v1458h354v-1458h-354zM420 1575v268h291v-268h-291zM-45 1575v268h293v-268h-293z" />
    <glyph glyph-name="Eth" unicode="&#xd0;" horiz-adv-x="1523" 
d="M1085 729q0 213 -105.5 320.5t-311.5 107.5h-156v-303h313v-233h-313v-320h156q206 0 311.5 107.5t105.5 320.5zM1454 729q0 -350 -202.5 -539.5t-575.5 -189.5h-518v621h-127v233h127v604h518q373 0 575.5 -189.5t202.5 -539.5z" />
    <glyph glyph-name="Ntilde" unicode="&#xd1;" horiz-adv-x="1640" 
d="M496 0h-340v1458h510l256 -575q135 -313 237 -584h4q-16 272 -16 614v545h340v-1458h-512l-254 575q-135 305 -238 584h-4q16 -328 17 -614v-545zM965 1573q-74 0 -153.5 44t-121.5 44q-76 0 -86 -88h-182q6 137 71.5 215t182.5 78q47 0 81 -12.5t91 -38.5
q63 -37 103 -37q75 0 87 88h183q-9 -137 -74.5 -215t-181.5 -78z" />
    <glyph glyph-name="Ograve" unicode="&#xd2;" horiz-adv-x="1550" 
d="M440 729q0 -215 88 -335t247 -120t247 120t88 335t-88 335t-247 120t-247 -120t-88 -335zM1481 729.5q0 -233.5 -86 -405.5t-245 -264.5t-375 -92.5t-374.5 92.5t-244.5 264.5t-86 405.5t86 405.5t244.5 264t374.5 92t375 -92t245 -264t86 -405.5zM971 1556h-262
l-289 310h391z" />
    <glyph glyph-name="Oacute" unicode="&#xd3;" horiz-adv-x="1550" 
d="M440 729q0 -215 88 -335t247 -120t247 120t88 335t-88 335t-247 120t-247 -120t-88 -335zM1481 729.5q0 -233.5 -86 -405.5t-245 -264.5t-375 -92.5t-374.5 92.5t-244.5 264.5t-86 405.5t86 405.5t244.5 264t374.5 92t375 -92t245 -264t86 -405.5zM580 1556l159 310h391
l-288 -310h-262z" />
    <glyph glyph-name="Ocircumflex" unicode="&#xd4;" horiz-adv-x="1550" 
d="M440 729q0 -215 88 -335t247 -120t247 120t88 335t-88 335t-247 120t-247 -120t-88 -335zM1481 729.5q0 -233.5 -86 -405.5t-245 -264.5t-375 -92.5t-374.5 92.5t-244.5 264.5t-86 405.5t86 405.5t244.5 264t374.5 92t375 -92t245 -264t86 -405.5zM934 1866l246 -310
h-283l-123 162l-123 -162h-282l245 310h320z" />
    <glyph glyph-name="Otilde" unicode="&#xd5;" horiz-adv-x="1550" 
d="M440 729q0 -215 88 -335t247 -120t247 120t88 335t-88 335t-247 120t-247 -120t-88 -335zM1481 729.5q0 -233.5 -86 -405.5t-245 -264.5t-375 -92.5t-374.5 92.5t-244.5 264.5t-86 405.5t86 405.5t244.5 264t374.5 92t375 -92t245 -264t86 -405.5zM920 1573
q-74 0 -153.5 44t-121.5 44q-76 0 -86 -88h-182q6 137 71.5 215t182.5 78q47 0 80.5 -12.5t91.5 -38.5q63 -37 103 -37q75 0 87 88h183q-9 -137 -74.5 -215t-181.5 -78z" />
    <glyph glyph-name="Odieresis" unicode="&#xd6;" horiz-adv-x="1550" 
d="M440 729q0 -215 88 -335t247 -120t247 120t88 335t-88 335t-247 120t-247 -120t-88 -335zM1481 729.5q0 -233.5 -86 -405.5t-245 -264.5t-375 -92.5t-374.5 92.5t-244.5 264.5t-86 405.5t86 405.5t244.5 264t374.5 92t375 -92t245 -264t86 -405.5zM862 1575v268h291v-268
h-291zM397 1575v268h293v-268h-293z" />
    <glyph glyph-name="multiply" unicode="&#xd7;" horiz-adv-x="1159" 
d="M766 639l360 -358l-186 -189l-360 361l-359 -361l-186 189l358 358l-358 360l186 187l359 -359l360 359l186 -187z" />
    <glyph glyph-name="Oslash" unicode="&#xd8;" horiz-adv-x="1550" 
d="M1128 729q0 160 -45 264l-501 -678q82 -59 194 -59q168 0 260 125t92 348zM776 1202q-168 0 -260 -125t-92 -348q0 -149 45 -262l502 676q-82 59 -195 59zM1481 729q0 -233 -86 -405t-245 -264.5t-377 -92.5t-380 96l-119 -161l-145 106l125 170q-184 200 -184 551
q0 233 86 405.5t244.5 264.5t378.5 92t378 -96l121 161l143 -106l-125 -170q185 -201 185 -551z" />
    <glyph glyph-name="Ugrave" unicode="&#xd9;" horiz-adv-x="1484" 
d="M742 -33q-288 0 -443.5 154.5t-155.5 443.5v893h355v-885q0 -143 62.5 -218.5t182 -75.5t182 75.5t62.5 218.5v885h354v-893q0 -289 -155.5 -443.5t-443.5 -154.5zM938 1556h-262l-289 310h391z" />
    <glyph glyph-name="Uacute" unicode="&#xda;" horiz-adv-x="1484" 
d="M742 -33q-288 0 -443.5 154.5t-155.5 443.5v893h355v-885q0 -143 62.5 -218.5t182 -75.5t182 75.5t62.5 218.5v885h354v-893q0 -289 -155.5 -443.5t-443.5 -154.5zM545 1556l160 310h391l-289 -310h-262z" />
    <glyph glyph-name="Ucircumflex" unicode="&#xdb;" horiz-adv-x="1484" 
d="M742 -33q-288 0 -443.5 154.5t-155.5 443.5v893h355v-885q0 -143 62.5 -218.5t182 -75.5t182 75.5t62.5 218.5v885h354v-893q0 -289 -155.5 -443.5t-443.5 -154.5zM901 1866l246 -310h-283l-123 162l-123 -162h-282l246 310h319z" />
    <glyph glyph-name="Udieresis" unicode="&#xdc;" horiz-adv-x="1484" 
d="M742 -33q-288 0 -443.5 154.5t-155.5 443.5v893h355v-885q0 -143 62.5 -218.5t182 -75.5t182 75.5t62.5 218.5v885h354v-893q0 -289 -155.5 -443.5t-443.5 -154.5zM827 1575v268h291v-268h-291zM362 1575v268h293v-268h-293z" />
    <glyph glyph-name="Yacute" unicode="&#xdd;" horiz-adv-x="1357" 
d="M856 0h-354v551l-500 907h393l127 -264q88 -182 156 -367h4q61 176 154 367l127 264h393l-500 -907v-551zM483 1556l160 310h391l-289 -310h-262z" />
    <glyph glyph-name="Thorn" unicode="&#xde;" horiz-adv-x="1339" 
d="M682 549q250 0 250 199q0 100 -60.5 149t-189.5 49h-172v-397h172zM737 1237q272 0 414.5 -130t142.5 -358t-141 -359.5t-414 -131.5h-229v-258h-354v1458h354v-221h227z" />
    <glyph glyph-name="germandbls" unicode="&#xdf;" horiz-adv-x="1202" 
d="M760 1092q0 141 -142 141q-82 0 -117.5 -51.5t-35.5 -161.5v-1020h-340v1042q0 211 129 330t351 119t350 -98.5t128 -264.5q0 -240 -252 -319v-4q313 -70 314 -385q0 -207 -130 -317.5t-362 -110.5q-39 0 -88 8v262q16 -2 39 -2q92 0 141.5 50t49.5 148.5t-53.5 151
t-153.5 52.5h-23v270q100 0 147.5 39t47.5 121z" />
    <glyph glyph-name="agrave" unicode="&#xe0;" horiz-adv-x="1148" 
d="M381 318q0 -56 35 -87.5t87 -31.5q103 0 154 53q31 33 41.5 73t10.5 109v37q-235 -10 -295 -66q-34 -31 -33 -87zM1036 651v-358q0 -184 31 -293h-307q-14 57 -15 135h-4q-119 -162 -338 -162q-166 0 -262 90.5t-96 228.5q-1 138 95 220q136 116 569 145v37q0 84 -39 124
t-108 40t-106.5 -38t-39.5 -107h-328q8 158 127 259t352.5 101t351 -107.5t117.5 -314.5zM748 1155h-263l-288 303h391z" />
    <glyph glyph-name="aacute" unicode="&#xe1;" horiz-adv-x="1148" 
d="M381 318q0 -56 35 -87.5t87 -31.5q103 0 154 53q31 33 41.5 73t10.5 109v37q-235 -10 -295 -66q-34 -31 -33 -87zM1036 651v-358q0 -184 31 -293h-307q-14 57 -15 135h-4q-119 -162 -338 -162q-166 0 -262 90.5t-96 228.5q-1 138 95 220q136 116 569 145v37q0 84 -39 124
t-108 40t-106.5 -38t-39.5 -107h-328q8 158 127 259t352.5 101t351 -107.5t117.5 -314.5zM356 1155l160 303h391l-289 -303h-262z" />
    <glyph glyph-name="acircumflex" unicode="&#xe2;" horiz-adv-x="1148" 
d="M381 318q0 -56 35 -87.5t87 -31.5q103 0 154 53q31 33 41.5 73t10.5 109v37q-235 -10 -295 -66q-34 -31 -33 -87zM1036 651v-358q0 -184 31 -293h-307q-14 57 -15 135h-4q-119 -162 -338 -162q-166 0 -262 90.5t-96 228.5q-1 138 95 220q136 116 569 145v37q0 84 -39 124
t-108 40t-106.5 -38t-39.5 -107h-328q8 158 127 259t352.5 101t351 -107.5t117.5 -314.5zM551 1311l-119 -156h-282l241 303h320l241 -303h-282z" />
    <glyph glyph-name="atilde" unicode="&#xe3;" horiz-adv-x="1148" 
d="M381 318q0 -56 35 -87.5t87 -31.5q103 0 154 53q31 33 41.5 73t10.5 109v37q-235 -10 -295 -66q-34 -31 -33 -87zM1036 651v-358q0 -184 31 -293h-307q-14 57 -15 135h-4q-119 -162 -338 -162q-166 0 -262 90.5t-96 228.5q-1 138 95 220q136 116 569 145v37q0 84 -39 124
t-108 40t-106.5 -38t-39.5 -107h-328q8 158 127 259t352.5 101t351 -107.5t117.5 -314.5zM694 1165q-72 0 -152.5 44.5t-121.5 43.5q-76 0 -86 -88h-182q6 137 71.5 215t182.5 78q47 0 80.5 -12t91.5 -39q63 -37 103 -37q75 0 87 88h182q-8 -137 -73.5 -215t-182.5 -78z" />
    <glyph glyph-name="adieresis" unicode="&#xe4;" horiz-adv-x="1148" 
d="M381 318q0 -56 35 -87.5t87 -31.5q103 0 154 53q31 33 41.5 73t10.5 109v37q-235 -10 -295 -66q-34 -31 -33 -87zM1036 651v-358q0 -184 31 -293h-307q-14 57 -15 135h-4q-119 -162 -338 -162q-166 0 -262 90.5t-96 228.5q-1 138 95 220q136 116 569 145v37q0 84 -39 124
t-108 40t-106.5 -38t-39.5 -107h-328q8 158 127 259t352.5 101t351 -107.5t117.5 -314.5zM639 1190v268h291v-268h-291zM174 1190v268h293v-268h-293z" />
    <glyph glyph-name="aring" unicode="&#xe5;" horiz-adv-x="1148" 
d="M381 318q0 -56 35 -87.5t87 -31.5q103 0 154 53q31 33 41.5 73t10.5 109v37q-235 -10 -295 -66q-34 -31 -33 -87zM1036 651v-358q0 -184 31 -293h-307q-14 57 -15 135h-4q-119 -162 -338 -162q-166 0 -262 90.5t-96 228.5q-1 138 95 220q136 116 569 145v37q0 84 -39 124
t-108 40t-106.5 -38t-39.5 -107h-328q8 158 127 259t352.5 101t351 -107.5t117.5 -314.5zM436 1364q0 -47 34 -81t81 -34t81 34t34 81t-34 81t-81 34t-81 -34t-34 -81zM784 1364q0 -96 -68.5 -163.5t-164.5 -67.5t-165 67.5t-69 163.5t69 164.5t165 68.5t164.5 -68.5
t68.5 -164.5z" />
    <glyph glyph-name="ae" unicode="&#xe6;" horiz-adv-x="1832" 
d="M635 459q-254 1 -254 -135q-1 -136 153 -136q80 0 140 56q33 35 45 76.5t12 113.5v25h-96zM1242 850q-77 0 -128 -52.5t-63 -160.5h381q-8 106 -60.5 159.5t-129.5 53.5zM731 694q0 164 -158 164q-72 0 -112.5 -38t-42.5 -107h-328q8 158 130 259t354 101t346 -110
q131 111 317 110.5t314 -89.5q183 -126 213 -370q8 -68 8 -163h-723q10 -256 194 -256q70 0 114 34.5t54 89.5h346q-20 -98 -90 -179t-178.5 -127t-241.5 -46q-252 0 -389 174q-117 -174 -391 -174q-131 0 -226.5 42t-145.5 117t-50 167q0 178 137 262t436 84h113v55z" />
    <glyph glyph-name="ccedilla" unicode="&#xe7;" horiz-adv-x="1177" 
d="M576 -346q83 0 83 64q0 30 -23.5 48.5t-63.5 18.5t-66 -12l-60 55l86 143q-217 23 -344 170.5t-127 380.5q0 166 67 291t189.5 192.5t277 67.5t268.5 -54t182.5 -151.5t78.5 -224.5h-352q-8 82 -52 128t-123 46t-129 -77.5t-50 -218t50 -218.5t130 -78t124 51.5t48 141.5
h354q-16 -190 -137 -310t-317 -139l-58 -92q31 10 68 10q80 0 129 -43t49 -123.5t-68.5 -138t-197.5 -57.5t-242 65l53 109q90 -45 173 -45z" />
    <glyph glyph-name="egrave" unicode="&#xe8;" horiz-adv-x="1196" 
d="M597 850q-167 0 -196 -207h392q-10 104 -63.5 155.5t-132.5 51.5zM584.5 -33q-152.5 0 -274.5 72t-185.5 199t-63.5 286.5t63.5 283.5t185.5 194.5t296 70.5t303 -89t185 -245q41 -105 41 -288h-740q6 -137 61.5 -196.5t134.5 -59.5t126 34.5t55 89.5h346
q-23 -98 -92.5 -179t-179 -127t-262 -46zM793 1155h-263l-288 303h391z" />
    <glyph glyph-name="eacute" unicode="&#xe9;" horiz-adv-x="1196" 
d="M597 850q-167 0 -196 -207h392q-10 104 -63.5 155.5t-132.5 51.5zM584.5 -33q-152.5 0 -274.5 72t-185.5 199t-63.5 286.5t63.5 283.5t185.5 194.5t296 70.5t303 -89t185 -245q41 -105 41 -288h-740q6 -137 61.5 -196.5t134.5 -59.5t126 34.5t55 89.5h346
q-23 -98 -92.5 -179t-179 -127t-262 -46zM401 1155l160 303h391l-288 -303h-263z" />
    <glyph glyph-name="ecircumflex" unicode="&#xea;" horiz-adv-x="1196" 
d="M597 850q-167 0 -196 -207h392q-10 104 -63.5 155.5t-132.5 51.5zM584.5 -33q-152.5 0 -274.5 72t-185.5 199t-63.5 286.5t63.5 283.5t185.5 194.5t296 70.5t303 -89t185 -245q41 -105 41 -288h-740q6 -137 61.5 -196.5t134.5 -59.5t126 34.5t55 89.5h346
q-23 -98 -92.5 -179t-179 -127t-262 -46zM596 1311l-119 -156h-282l241 303h320l241 -303h-282z" />
    <glyph glyph-name="edieresis" unicode="&#xeb;" horiz-adv-x="1196" 
d="M597 850q-167 0 -196 -207h392q-10 104 -63.5 155.5t-132.5 51.5zM584.5 -33q-152.5 0 -274.5 72t-185.5 199t-63.5 286.5t63.5 283.5t185.5 194.5t296 70.5t303 -89t185 -245q41 -105 41 -288h-740q6 -137 61.5 -196.5t134.5 -59.5t126 34.5t55 89.5h346
q-23 -98 -92.5 -179t-179 -127t-262 -46zM684 1190v268h291v-268h-291zM219 1190v268h293v-268h-293z" />
    <glyph glyph-name="igrave" unicode="&#xec;" horiz-adv-x="589" 
d="M125 0v1040h340v-1040h-340zM492 1155h-263l-288 303h391z" />
    <glyph glyph-name="iacute" unicode="&#xed;" horiz-adv-x="589" 
d="M125 0v1040h340v-1040h-340zM98 1155l160 303h391l-289 -303h-262z" />
    <glyph glyph-name="icircumflex" unicode="&#xee;" horiz-adv-x="589" 
d="M125 0v1040h340v-1040h-340zM399 1159l-104 146l-102 -146h-269l221 299h299l222 -299h-267z" />
    <glyph glyph-name="idieresis" unicode="&#xef;" horiz-adv-x="589" 
d="M125 0v1040h340v-1040h-340zM344 1190v268h270v-268h-270zM-27 1190v268h273v-268h-273z" />
    <glyph glyph-name="eth" unicode="&#xf0;" horiz-adv-x="1222" 
d="M809 517q0 138 -52 217t-142.5 79t-142.5 -79t-52 -217t52 -218t142.5 -80t142.5 80t52 218zM1161 537q0 -174 -67.5 -303.5t-192.5 -198t-292 -68.5t-290.5 64.5t-190.5 183.5t-67 279t57.5 281.5t163 188t244.5 66.5q68 0 136 -24v4q-55 66 -152 151l-264 -98l-53 139
l186 70q-53 41 -127 92l283 127q76 -49 145 -105l258 97l53 -140l-184 -69q354 -331 354 -737z" />
    <glyph glyph-name="ntilde" unicode="&#xf1;" 
d="M743 1067q185 0 286 -109.5t101 -318.5v-639h-339v602q0 201 -152 201q-82 0 -128 -66.5t-46 -197.5v-539h-340v1040h317v-125h4q112 152 297 152zM772 1165q-72 0 -152.5 44.5t-121.5 43.5q-76 0 -86 -88h-183q6 137 72 215t182 78q47 0 81 -12t91 -39q63 -37 103.5 -37
t61 21.5t26.5 66.5h182q-8 -137 -73.5 -215t-182.5 -78z" />
    <glyph glyph-name="ograve" unicode="&#xf2;" horiz-adv-x="1236" 
d="M420 520q0 -137 52 -216t146.5 -79t146.5 79t52 216t-52 216t-146.5 79t-146.5 -79t-52 -216zM1176 520q0 -168 -69 -293t-195 -192.5t-293.5 -67.5t-293.5 67.5t-195 192.5t-69 293t69 293t195 192.5t293.5 67.5t293.5 -67.5t195 -192.5t69 -293zM815 1155h-262
l-289 303h391z" />
    <glyph glyph-name="oacute" unicode="&#xf3;" horiz-adv-x="1236" 
d="M420 520q0 -137 52 -216t146.5 -79t146.5 79t52 216t-52 216t-146.5 79t-146.5 -79t-52 -216zM1176 520q0 -168 -69 -293t-195 -192.5t-293.5 -67.5t-293.5 67.5t-195 192.5t-69 293t69 293t195 192.5t293.5 67.5t293.5 -67.5t195 -192.5t69 -293zM422 1155l160 303h391
l-289 -303h-262z" />
    <glyph glyph-name="ocircumflex" unicode="&#xf4;" horiz-adv-x="1236" 
d="M420 520q0 -137 52 -216t146.5 -79t146.5 79t52 216t-52 216t-146.5 79t-146.5 -79t-52 -216zM1176 520q0 -168 -69 -293t-195 -192.5t-293.5 -67.5t-293.5 67.5t-195 192.5t-69 293t69 293t195 192.5t293.5 67.5t293.5 -67.5t195 -192.5t69 -293zM618 1311l-118 -156
h-283l242 303h319l242 -303h-283z" />
    <glyph glyph-name="otilde" unicode="&#xf5;" horiz-adv-x="1236" 
d="M420 520q0 -137 52 -216t146.5 -79t146.5 79t52 216t-52 216t-146.5 79t-146.5 -79t-52 -216zM1176 520q0 -168 -69 -293t-195 -192.5t-293.5 -67.5t-293.5 67.5t-195 192.5t-69 293t69 293t195 192.5t293.5 67.5t293.5 -67.5t195 -192.5t69 -293zM762 1165
q-72 0 -152.5 44.5t-122.5 43.5q-76 0 -86 -88h-182q6 137 71.5 215t182.5 78q47 0 81 -12t91 -39q63 -37 103.5 -37t60.5 21.5t27 66.5h182q-8 -137 -73.5 -215t-182.5 -78z" />
    <glyph glyph-name="odieresis" unicode="&#xf6;" horiz-adv-x="1236" 
d="M420 520q0 -137 52 -216t146.5 -79t146.5 79t52 216t-52 216t-146.5 79t-146.5 -79t-52 -216zM1176 520q0 -168 -69 -293t-195 -192.5t-293.5 -67.5t-293.5 67.5t-195 192.5t-69 293t69 293t195 192.5t293.5 67.5t293.5 -67.5t195 -192.5t69 -293zM705 1190v268h290v-268
h-290zM240 1190v268h292v-268h-292z" />
    <glyph glyph-name="divide" unicode="&#xf7;" horiz-adv-x="1159" 
d="M436 154v241h287v-241h-287zM121 516v264h917v-264h-917zM436 903v240h287v-240h-287z" />
    <glyph glyph-name="oslash" unicode="&#xf8;" horiz-adv-x="1236" 
d="M840 520q0 80 -23 152l-315 -426q49 -37 116 -37q103 0 162.5 84t59.5 227zM397 520q0 -84 23 -155l317 428q-51 39 -119 38q-104 0 -162.5 -83.5t-58.5 -227.5zM1176 520q0 -168 -69 -293t-195 -192.5t-285 -67.5t-281 56l-104 -142l-125 90l102 140q-158 154 -158 409
q0 168 69 293t195 192.5t286.5 67.5t281.5 -57l104 143l125 -94l-102 -137q156 -152 156 -408z" />
    <glyph glyph-name="ugrave" unicode="&#xf9;" 
d="M115 401v639h340v-602q0 -200 151 -200q82 0 128 66.5t46 197.5v538h340v-1040h-317v125h-4q-112 -152 -297 -152t-286 110t-101 318zM819 1155h-262l-289 303h391z" />
    <glyph glyph-name="uacute" unicode="&#xfa;" 
d="M115 401v639h340v-602q0 -200 151 -200q82 0 128 66.5t46 197.5v538h340v-1040h-317v125h-4q-112 -152 -297 -152t-286 110t-101 318zM428 1155l160 303h391l-289 -303h-262z" />
    <glyph glyph-name="ucircumflex" unicode="&#xfb;" 
d="M115 401v639h340v-602q0 -200 151 -200q82 0 128 66.5t46 197.5v538h340v-1040h-317v125h-4q-112 -152 -297 -152t-286 110t-101 318zM623 1311l-119 -156h-283l242 303h319l242 -303h-283z" />
    <glyph glyph-name="udieresis" unicode="&#xfc;" 
d="M115 401v639h340v-602q0 -200 151 -200q82 0 128 66.5t46 197.5v538h340v-1040h-317v125h-4q-112 -152 -297 -152t-286 110t-101 318zM711 1190v268h290v-268h-290zM246 1190v268h293v-268h-293z" />
    <glyph glyph-name="yacute" unicode="&#xfd;" horiz-adv-x="1085" 
d="M279.5 -393q-111.5 0 -199.5 18v258q49 -16 112.5 -16t106.5 36t43 90t-57 210l-305 837h366l100 -348q66 -242 105 -434h4q43 219 104 436l97 346h346l-346 -1022q-54 -155 -118.5 -244t-155.5 -128t-202.5 -39zM350 1155l160 303h391l-289 -303h-262z" />
    <glyph glyph-name="thorn" unicode="&#xfe;" horiz-adv-x="1249" 
d="M446 520q0 -135 52.5 -213t139.5 -78t140 79t53 212t-53 212t-140 79t-139.5 -78t-52.5 -213zM750 1069q131 0 230 -67.5t153.5 -191.5t54.5 -290t-53.5 -290t-152 -191.5t-206.5 -67.5q-209 0 -307 142h-4v-492h-340v1837h340v-530h4q47 68 122 104.5t159 36.5z" />
    <glyph glyph-name="ydieresis" unicode="&#xff;" horiz-adv-x="1085" 
d="M279.5 -393q-111.5 0 -199.5 18v258q49 -16 112.5 -16t106.5 36t43 90t-57 210l-305 837h366l100 -348q66 -242 105 -434h4q43 219 104 436l97 346h346l-346 -1022q-54 -155 -118.5 -244t-155.5 -128t-202.5 -39zM633 1190v268h291v-268h-291zM168 1190v268h293v-268
h-293z" />
    <glyph glyph-name="Amacron" unicode="&#x100;" horiz-adv-x="1464" 
d="M881 698q-88 291 -148 531h-4q-61 -254 -143 -531l-29 -98h354zM469 309l-94 -309h-373l498 1458h465l497 -1458h-372l-93 309h-528zM365 1589v211h735v-211h-735z" />
    <glyph glyph-name="amacron" unicode="&#x101;" horiz-adv-x="1148" 
d="M381 318q0 -56 35 -87.5t87 -31.5q103 0 154 53q31 33 41.5 73t10.5 109v37q-235 -10 -295 -66q-34 -31 -33 -87zM1036 651v-358q0 -184 31 -293h-307q-14 57 -15 135h-4q-119 -162 -338 -162q-166 0 -262 90.5t-96 228.5q-1 138 95 220q136 116 569 145v37q0 84 -39 124
t-108 40t-106.5 -38t-39.5 -107h-328q8 158 127 259t352.5 101t351 -107.5t117.5 -314.5zM184 1206v211h736v-211h-736z" />
    <glyph glyph-name="Abreve" unicode="&#x102;" horiz-adv-x="1464" 
d="M881 698q-88 291 -148 531h-4q-61 -254 -143 -531l-29 -98h354zM469 309l-94 -309h-373l498 1458h465l497 -1458h-372l-93 309h-528zM732 1747q137 0 147 119h217q-9 -150 -104 -233t-261 -83t-261 83t-103 233h217q4 -57 42 -88t106 -31z" />
    <glyph glyph-name="abreve" unicode="&#x103;" horiz-adv-x="1148" 
d="M381 318q0 -56 35 -87.5t87 -31.5q103 0 154 53q31 33 41.5 73t10.5 109v37q-235 -10 -295 -66q-34 -31 -33 -87zM1036 651v-358q0 -184 31 -293h-307q-14 57 -15 135h-4q-119 -162 -338 -162q-166 0 -262 90.5t-96 228.5q-1 138 95 220q136 116 569 145v37q0 84 -39 124
t-108 40t-106.5 -38t-39.5 -107h-328q8 158 127 259t352.5 101t351 -107.5t117.5 -314.5zM551 1143q-166 0 -261 83t-104 232h217q4 -57 42 -88t105.5 -31t105.5 31t42 88h217q-8 -149 -103 -232t-261 -83z" />
    <glyph glyph-name="Aogonek" unicode="&#x104;" horiz-adv-x="1464" 
d="M881 698q-88 291 -148 531h-4q-61 -254 -143 -531l-29 -98h354zM1329 -162q0 -61 68 -61q37 0 71 14v-168q-86 -31 -200.5 -31t-178 49.5t-63.5 126.5t42 129t130 103h-108l-93 309h-528l-94 -309h-373l498 1458h465l497 -1458q-74 -49 -103.5 -86t-29.5 -76z" />
    <glyph glyph-name="aogonek" unicode="&#x105;" horiz-adv-x="1148" 
d="M381 318q0 -56 35 -87.5t87 -31.5q103 0 154 53q31 33 41.5 73t10.5 109v37q-235 -10 -295 -66q-34 -31 -33 -87zM872.5 -408q-114.5 0 -178 49.5t-63.5 126.5t42 129t130 103h-43q-14 57 -15 135h-4q-119 -162 -338 -162q-166 0 -262 90.5t-96 228.5q-1 138 95 220
q136 116 569 145v37q0 84 -39 124t-108 40t-106.5 -38t-39.5 -107h-328q8 158 127 259t352.5 101t351 -107.5t117.5 -314.5v-358q0 -184 31 -293q-74 -49 -103.5 -86t-29.5 -76q0 -61 67 -61q37 0 72 14v-168q-86 -31 -200.5 -31z" />
    <glyph glyph-name="Cacute" unicode="&#x106;" horiz-adv-x="1464" 
d="M752 1184q-145 0 -228.5 -122t-83.5 -333t83 -333t225 -122q115 0 187.5 68t86.5 190h371q-20 -270 -192.5 -417.5t-452.5 -147.5q-209 0 -362 92.5t-234.5 263.5t-81.5 406.5t83 406.5t236.5 263t351 92t339 -68.5t221 -194.5t85.5 -294h-366q-12 119 -83 184.5
t-185 65.5zM555 1556l160 310h391l-289 -310h-262z" />
    <glyph glyph-name="cacute" unicode="&#x107;" horiz-adv-x="1177" 
d="M597 817q-79 0 -129 -77.5t-50 -218t50 -218.5t130 -78t124 51.5t48 141.5h354q-16 -207 -156.5 -329t-361.5 -122q-164 0 -287.5 68.5t-190.5 193.5t-67 292t67 292t189.5 192.5t277.5 67.5t268.5 -54t182 -151.5t78.5 -224.5h-352q-8 82 -52 128t-123 46zM410 1155
l159 303h392l-289 -303h-262z" />
    <glyph glyph-name="Ccircumflex" unicode="&#x108;" horiz-adv-x="1464" 
d="M752 1184q-145 0 -228.5 -122t-83.5 -333t83 -333t225 -122q115 0 187.5 68t86.5 190h371q-20 -270 -192.5 -417.5t-452.5 -147.5q-209 0 -362 92.5t-234.5 263.5t-81.5 406.5t83 406.5t236.5 263t351 92t339 -68.5t221 -194.5t85.5 -294h-366q-12 119 -83 184.5
t-185 65.5zM911 1866l246 -310h-283l-122 162l-123 -162h-283l246 310h319z" />
    <glyph glyph-name="ccircumflex" unicode="&#x109;" horiz-adv-x="1177" 
d="M597 817q-79 0 -129 -77.5t-50 -218t50 -218.5t130 -78t124 51.5t48 141.5h354q-16 -207 -156.5 -329t-361.5 -122q-164 0 -287.5 68.5t-190.5 193.5t-67 292t67 292t189.5 192.5t277.5 67.5t268.5 -54t182 -151.5t78.5 -224.5h-352q-8 82 -52 128t-123 46zM604 1311
l-119 -156h-282l241 303h320l242 -303h-283z" />
    <glyph glyph-name="Cdotaccent" unicode="&#x10a;" horiz-adv-x="1464" 
d="M752 1184q-145 0 -228.5 -122t-83.5 -333t83 -333t225 -122q115 0 187.5 68t86.5 190h371q-20 -270 -192.5 -417.5t-452.5 -147.5q-209 0 -362 92.5t-234.5 263.5t-81.5 406.5t83 406.5t236.5 263t351 92t339 -68.5t221 -194.5t85.5 -294h-366q-12 119 -83 184.5
t-185 65.5zM582 1575v268h340v-268h-340z" />
    <glyph glyph-name="cdotaccent" unicode="&#x10b;" horiz-adv-x="1177" 
d="M597 817q-79 0 -129 -77.5t-50 -218t50 -218.5t130 -78t124 51.5t48 141.5h354q-16 -207 -156.5 -329t-361.5 -122q-164 0 -287.5 68.5t-190.5 193.5t-67 292t67 292t189.5 192.5t277.5 67.5t268.5 -54t182 -151.5t78.5 -224.5h-352q-8 82 -52 128t-123 46zM434 1190v268
h340v-268h-340z" />
    <glyph glyph-name="Ccaron" unicode="&#x10c;" horiz-adv-x="1464" 
d="M752 1184q-145 0 -228.5 -122t-83.5 -333t83 -333t225 -122q115 0 187.5 68t86.5 190h371q-20 -270 -192.5 -417.5t-452.5 -147.5q-209 0 -362 92.5t-234.5 263.5t-81.5 406.5t83 406.5t236.5 263t351 92t339 -68.5t221 -194.5t85.5 -294h-366q-12 119 -83 184.5
t-185 65.5zM592 1556l-246 310h283l123 -162l122 162h283l-246 -310h-319z" />
    <glyph glyph-name="ccaron" unicode="&#x10d;" horiz-adv-x="1177" 
d="M597 817q-79 0 -129 -77.5t-50 -218t50 -218.5t130 -78t124 51.5t48 141.5h354q-16 -207 -156.5 -329t-361.5 -122q-164 0 -287.5 68.5t-190.5 193.5t-67 292t67 292t189.5 192.5t277.5 67.5t268.5 -54t182 -151.5t78.5 -224.5h-352q-8 82 -52 128t-123 46zM444 1155
l-241 303h282l119 -155l119 155h283l-242 -303h-320z" />
    <glyph glyph-name="Dcaron" unicode="&#x10e;" horiz-adv-x="1519" 
d="M664 301q417 0 417 428q0 213 -105.5 320.5t-311.5 107.5h-156v-856h156zM1450 729q0 -350 -201.5 -539.5t-576.5 -189.5h-516v1458h516q375 0 576.5 -189.5t201.5 -539.5zM537 1556l-246 310h282l123 -162l123 162h283l-246 -310h-319z" />
    <glyph glyph-name="dcaron" unicode="&#x10f;" horiz-adv-x="1249" 
d="M418 520q0 -133 53 -212t140 -79t140 78q52 78 52 213t-52 213q-51 78 -139 78t-141 -79t-53 -212zM793 129q-97 -158 -311 -158q-110 0 -212 68q-100 67 -154 191t-55 290q0 166 54 290q53 124 151 192t207 67q208 0 307 -141h4v530h340v-1458h-327v129h-4zM1182 1094
l49 364h266l-123 -364h-192z" />
    <glyph glyph-name="Dcroat" unicode="&#x110;" horiz-adv-x="1523" 
d="M1085 729q0 213 -105.5 320.5t-311.5 107.5h-156v-303h313v-233h-313v-320h156q206 0 311.5 107.5t105.5 320.5zM1454 729q0 -350 -202.5 -539.5t-575.5 -189.5h-518v621h-127v233h127v604h518q373 0 575.5 -189.5t202.5 -539.5z" />
    <glyph glyph-name="dcroat" unicode="&#x111;" horiz-adv-x="1236" 
d="M803 520q0 135 -52.5 213t-139.5 78t-140 -79t-53 -212t53 -212t140 -79t139.5 78t52.5 213zM793 129q-97 -158 -311 -158q-110 0 -211 67.5t-155.5 191.5t-54.5 290t53.5 290t152.5 191.5t207 67.5q208 0 306 -141h4v243h-262v160h262v127h340v-127h136v-160h-136v-1171
h-327v129h-4z" />
    <glyph glyph-name="Emacron" unicode="&#x112;" horiz-adv-x="1298" 
d="M510 1161v-276h631v-293h-631v-295h692v-297h-1046v1458h1030v-297h-676zM305 1589v211h735v-211h-735z" />
    <glyph glyph-name="emacron" unicode="&#x113;" horiz-adv-x="1196" 
d="M597 850q-167 0 -196 -207h392q-10 104 -63.5 155.5t-132.5 51.5zM584.5 -33q-152.5 0 -274.5 72t-185.5 199t-63.5 286.5t63.5 283.5t185.5 194.5t296 70.5t303 -89t185 -245q41 -105 41 -288h-740q6 -137 61.5 -196.5t134.5 -59.5t126 34.5t55 89.5h346
q-23 -98 -92.5 -179t-179 -127t-262 -46zM229 1206v211h736v-211h-736z" />
    <glyph glyph-name="Ebreve" unicode="&#x114;" horiz-adv-x="1298" 
d="M510 1161v-276h631v-293h-631v-295h692v-297h-1046v1458h1030v-297h-676zM672 1747q139 0 147 119h217q-8 -150 -103 -233t-261 -83t-261.5 83t-103.5 233h217q4 -57 42 -88t106 -31z" />
    <glyph glyph-name="ebreve" unicode="&#x115;" horiz-adv-x="1196" 
d="M597 850q-167 0 -196 -207h392q-10 104 -63.5 155.5t-132.5 51.5zM584.5 -33q-152.5 0 -274.5 72t-185.5 199t-63.5 286.5t63.5 283.5t185.5 194.5t296 70.5t303 -89t185 -245q41 -105 41 -288h-740q6 -137 61.5 -196.5t134.5 -59.5t126 34.5t55 89.5h346
q-23 -98 -92.5 -179t-179 -127t-262 -46zM596 1143q-166 0 -261 83t-104 232h218q8 -119 147 -119t147 119h218q-9 -149 -104 -232t-261 -83z" />
    <glyph glyph-name="Edotaccent" unicode="&#x116;" horiz-adv-x="1298" 
d="M510 1161v-276h631v-293h-631v-295h692v-297h-1046v1458h1030v-297h-676zM502 1575v268h340v-268h-340z" />
    <glyph glyph-name="edotaccent" unicode="&#x117;" horiz-adv-x="1196" 
d="M597 850q-167 0 -196 -207h392q-10 104 -63.5 155.5t-132.5 51.5zM584.5 -33q-152.5 0 -274.5 72t-185.5 199t-63.5 286.5t63.5 283.5t185.5 194.5t296 70.5t303 -89t185 -245q41 -105 41 -288h-740q6 -137 61.5 -196.5t134.5 -59.5t126 34.5t55 89.5h346
q-23 -98 -92.5 -179t-179 -127t-262 -46zM426 1190v268h340v-268h-340z" />
    <glyph glyph-name="Eogonek" unicode="&#x118;" horiz-adv-x="1298" 
d="M510 1161v-276h631v-293h-631v-295h692v-297q-74 -49 -103.5 -86t-29.5 -76q0 -61 68 -61q37 0 71 14v-168q-86 -31 -200 -31t-178 49.5t-64 126.5t42 129t130 103h-782v1458h1030v-297h-676z" />
    <glyph glyph-name="eogonek" unicode="&#x119;" horiz-adv-x="1196" 
d="M597 850q-167 0 -196 -207h392q-10 104 -63.5 155.5t-132.5 51.5zM836 -152q0 -72 69 -71q37 0 70 14v-168q-82 -31 -199 -31t-180.5 49.5t-63.5 146.5t121 179v4q-33 -4 -51 -4q-170 0 -292 72t-185.5 198.5t-63.5 286.5t63.5 284t185.5 194.5t296 70.5t303 -89
t185 -245q41 -105 41 -288h-740q6 -137 61.5 -196.5t134.5 -59.5t126 34.5t55 89.5h346q-30 -135 -156 -257q-126 -121 -126 -214z" />
    <glyph glyph-name="Ecaron" unicode="&#x11a;" horiz-adv-x="1298" 
d="M510 1161v-276h631v-293h-631v-295h692v-297h-1046v1458h1030v-297h-676zM512 1556l-246 310h283l123 -162l123 162h282l-246 -310h-319z" />
    <glyph glyph-name="ecaron" unicode="&#x11b;" horiz-adv-x="1196" 
d="M597 850q-167 0 -196 -207h392q-10 104 -63.5 155.5t-132.5 51.5zM584.5 -33q-152.5 0 -274.5 72t-185.5 199t-63.5 286.5t63.5 283.5t185.5 194.5t296 70.5t303 -89t185 -245q41 -105 41 -288h-740q6 -137 61.5 -196.5t134.5 -59.5t126 34.5t55 89.5h346
q-23 -98 -92.5 -179t-179 -127t-262 -46zM436 1155l-241 303h282l119 -155l119 155h282l-241 -303h-320z" />
    <glyph glyph-name="Gcircumflex" unicode="&#x11c;" horiz-adv-x="1538" 
d="M70 726.5q0 234.5 86 407.5t244.5 265t357 92t337 -61.5t218.5 -173t92 -263.5h-381q-16 96 -79.5 148.5t-168.5 52.5q-156 0 -246 -126t-90 -347t89 -350t235.5 -129t222.5 78.5t80 224.5h-313v274h645v-819h-303v147h-4q-129 -176 -406 -176q-188 0 -327.5 90.5
t-214 260.5t-74.5 404.5zM922 1866l245 -310h-282l-123 162l-123 -162h-283l246 310h320z" />
    <glyph glyph-name="gcircumflex" unicode="&#x11d;" horiz-adv-x="1232" 
d="M414 542q0 -120 50 -190.5t136 -70.5t137 70.5t51 190.5t-51 190.5t-137 70.5t-136 -70.5t-50 -190.5zM436 -66q9 -114 166 -114q80 0 128 57t48 191v96h-4q-109 -152 -289 -152q-129 0 -224 64.5t-147.5 184.5t-52.5 279.5t53.5 279.5t150.5 184.5t227 64.5
q183 0 294 -168h5v139h317v-972q0 -236 -136 -351.5t-369.5 -115.5t-356.5 88t-140 245h330zM580 1311l-119 -156h-283l242 303h319l242 -303h-283z" />
    <glyph glyph-name="Gbreve" unicode="&#x11e;" horiz-adv-x="1538" 
d="M70 726.5q0 234.5 86 407.5t244.5 265t357 92t337 -61.5t218.5 -173t92 -263.5h-381q-16 96 -79.5 148.5t-168.5 52.5q-156 0 -246 -126t-90 -347t89 -350t235.5 -129t222.5 78.5t80 224.5h-313v274h645v-819h-303v147h-4q-129 -176 -406 -176q-188 0 -327.5 90.5
t-214 260.5t-74.5 404.5zM762 1747q139 0 147 119h217q-8 -150 -103 -233t-261 -83t-261 83t-104 233h217q4 -57 42 -88t106 -31z" />
    <glyph glyph-name="gbreve" unicode="&#x11f;" horiz-adv-x="1232" 
d="M414 542q0 -120 50 -190.5t136 -70.5t137 70.5t51 190.5t-51 190.5t-137 70.5t-136 -70.5t-50 -190.5zM436 -66q9 -114 166 -114q80 0 128 57t48 191v96h-4q-109 -152 -289 -152q-129 0 -224 64.5t-147.5 184.5t-52.5 279.5t53.5 279.5t150.5 184.5t227 64.5
q183 0 294 -168h5v139h317v-972q0 -236 -136 -351.5t-369.5 -115.5t-356.5 88t-140 245h330zM579.5 1143q-165.5 0 -261 83t-103.5 232h217q4 -57 42 -88t105.5 -31t105.5 31t42 88h217q-8 -149 -103.5 -232t-261 -83z" />
    <glyph glyph-name="Gdotaccent" unicode="&#x120;" horiz-adv-x="1538" 
d="M70 726.5q0 234.5 86 407.5t244.5 265t357 92t337 -61.5t218.5 -173t92 -263.5h-381q-16 96 -79.5 148.5t-168.5 52.5q-156 0 -246 -126t-90 -347t89 -350t235.5 -129t222.5 78.5t80 224.5h-313v274h645v-819h-303v147h-4q-129 -176 -406 -176q-188 0 -327.5 90.5
t-214 260.5t-74.5 404.5zM592 1575v268h340v-268h-340z" />
    <glyph glyph-name="gdotaccent" unicode="&#x121;" horiz-adv-x="1232" 
d="M414 542q0 -120 50 -190.5t136 -70.5t137 70.5t51 190.5t-51 190.5t-137 70.5t-136 -70.5t-50 -190.5zM436 -66q9 -114 166 -114q80 0 128 57t48 191v96h-4q-109 -152 -289 -152q-129 0 -224 64.5t-147.5 184.5t-52.5 279.5t53.5 279.5t150.5 184.5t227 64.5
q183 0 294 -168h5v139h317v-972q0 -236 -136 -351.5t-369.5 -115.5t-356.5 88t-140 245h330zM410 1190v268h340v-268h-340z" />
    <glyph glyph-name="Gcommaaccent" unicode="&#x122;" horiz-adv-x="1538" 
d="M70 726.5q0 234.5 86 407.5t244.5 265t357 92t337 -61.5t218.5 -173t92 -263.5h-381q-16 96 -79.5 148.5t-168.5 52.5q-156 0 -246 -126t-90 -347t89 -350t235.5 -129t222.5 78.5t80 224.5h-313v274h645v-819h-303v147h-4q-129 -176 -406 -176q-188 0 -327.5 90.5
t-214 260.5t-74.5 404.5zM627 -340v229h274v-229l-145 -223h-129l94 223h-94z" />
    <glyph glyph-name="gcommaaccent" unicode="&#x123;" horiz-adv-x="1232" 
d="M414 542q0 -120 50 -190.5t136 -70.5t137 70.5t51 190.5t-51 190.5t-137 70.5t-136 -70.5t-50 -190.5zM436 -66q9 -114 166 -114q80 0 128 57t48 191v96h-4q-109 -152 -289 -152q-129 0 -224 64.5t-147.5 184.5t-52.5 279.5t53.5 279.5t150.5 184.5t227 64.5
q183 0 294 -168h5v139h317v-972q0 -236 -136 -351.5t-369.5 -115.5t-356.5 88t-140 245h330zM717 1401v-230h-275v230l146 223h129l-94 -223h94z" />
    <glyph glyph-name="Hcircumflex" unicode="&#x124;" horiz-adv-x="1558" 
d="M1049 0v604h-539v-604h-354v1458h354v-553h539v553h354v-1458h-354zM938 1866l246 -310h-283l-123 162l-123 -162h-282l245 310h320z" />
    <glyph glyph-name="hcircumflex" unicode="&#x125;" 
d="M751.5 1067q176.5 0 277.5 -109.5t101 -318.5v-639h-339v602q0 201 -152 201q-82 0 -128 -66.5t-46 -197.5v-539h-340v1458h340v-522h4q106 131 282.5 131zM780 1866l246 -310h-283l-122 162l-123 -162h-283l246 310h319z" />
    <glyph glyph-name="Hbar" unicode="&#x126;" horiz-adv-x="1558" 
d="M510 1155v-250h539v250h-539zM1403 1155v-1155h-354v604h-539v-604h-354v1155h-109v164h109v139h354v-139h539v139h354v-139h108v-164h-108z" />
    <glyph glyph-name="hbar" unicode="&#x127;" 
d="M751.5 1067q176.5 0 277.5 -109.5t101 -318.5v-639h-339v602q0 201 -152 201q-82 0 -128 -66.5t-46 -197.5v-539h-340v1171h-145v150h145v137h340v-137h250v-150h-250v-235h4q106 131 282.5 131z" />
    <glyph glyph-name="Itilde" unicode="&#x128;" horiz-adv-x="665" 
d="M156 0v1458h354v-1458h-354zM475 1573q-74 0 -153.5 44t-120.5 44q-76 0 -86 -88h-183q6 137 72 215t182 78q47 0 81 -12.5t91 -38.5q63 -37 103.5 -37t61 21.5t26.5 66.5h182q-8 -137 -73.5 -215t-182.5 -78z" />
    <glyph glyph-name="itilde" unicode="&#x129;" horiz-adv-x="589" 
d="M125 0v1040h340v-1040h-340zM414 1366q67 0 75 92h160q-8 -139 -67.5 -217t-167.5 -78q-66 0 -136 46t-104 46q-68 0 -74 -92h-157q6 139 65.5 217t165.5 78q68 0 136 -46q69 -46 104 -46z" />
    <glyph glyph-name="Imacron" unicode="&#x12a;" horiz-adv-x="665" 
d="M156 0v1458h354v-1458h-354zM-35 1589v211h735v-211h-735z" />
    <glyph glyph-name="imacron" unicode="&#x12b;" horiz-adv-x="589" 
d="M125 0v1040h340v-1040h-340zM-12 1212v211h614v-211h-614z" />
    <glyph glyph-name="Ibreve" unicode="&#x12c;" horiz-adv-x="665" 
d="M156 0v1458h354v-1458h-354zM332 1747q139 0 147 119h217q-8 -150 -103 -233t-261 -83t-261.5 83t-103.5 233h217q4 -57 42 -88t106 -31z" />
    <glyph glyph-name="ibreve" unicode="&#x12d;" horiz-adv-x="589" 
d="M125 0v1040h340v-1040h-340zM295 1143q-154 0 -240 82t-92 233h205q10 -123 127 -123t127 123h205q-6 -149 -92 -232t-240 -83z" />
    <glyph glyph-name="Iogonek" unicode="&#x12e;" horiz-adv-x="665" 
d="M156 0v1458h354v-1458q-74 -49 -103.5 -86t-29.5 -76q0 -61 67 -61q37 0 72 14v-168q-86 -31 -200 -31t-178 49.5t-64 126.5t42 129t130 103h-90z" />
    <glyph glyph-name="iogonek" unicode="&#x12f;" horiz-adv-x="589" 
d="M270.5 -408q-114.5 0 -178 49.5t-63.5 126.5t42 129t130 103h-76v1040h340v-1040q-74 -49 -103.5 -86t-29.5 -76q0 -61 67 -61q37 0 72 14v-168q-86 -31 -200.5 -31zM125 1190v268h340v-268h-340z" />
    <glyph glyph-name="Idotaccent" unicode="&#x130;" horiz-adv-x="665" 
d="M156 0v1458h354v-1458h-354zM162 1575v268h340v-268h-340z" />
    <glyph glyph-name="dotlessi" unicode="&#x131;" horiz-adv-x="589" 
d="M125 0v1040h340v-1040h-340z" />
    <glyph glyph-name="IJ" unicode="&#x132;" horiz-adv-x="1505" 
d="M156 0v1458h354v-1458h-354zM856 -16q-94 0 -160 18v295q48 -10 110 -10q62 1 108 25q92 48 92 259v887h354v-964q0 -263 -122 -386.5t-382 -123.5z" />
    <glyph glyph-name="ij" unicode="&#x133;" horiz-adv-x="1181" 
d="M674 -389q-96 0 -164 18v238q25 -6 53 -6q80 0 117 43t37 155v981h340v-1038q0 -201 -103.5 -296t-279.5 -95zM125 0v1040h340v-1040h-340zM717 1190v268h340v-268h-340zM125 1190v268h340v-268h-340z" />
    <glyph glyph-name="Jcircumflex" unicode="&#x134;" horiz-adv-x="839" 
d="M190 -16q-94 0 -159 18v295q47 -10 109 -10q62 1 109 25q91 48 91 259v887h354v-964q0 -263 -121.5 -386.5t-382.5 -123.5zM680 1866l246 -310h-283l-123 162l-123 -162h-282l245 310h320z" />
    <glyph glyph-name="jcircumflex" unicode="&#x135;" horiz-adv-x="591" 
d="M84 -389q-96 0 -164 18v238q25 -6 53 -6q80 0 117 43t37 155v981h340v-1038q0 -201 -103.5 -296t-279.5 -95zM401 1159l-104 146l-102 -146h-269l221 299h299l222 -299h-267z" />
    <glyph glyph-name="Kcommaaccent" unicode="&#x136;" horiz-adv-x="1413" 
d="M510 672v-672h-354v1458h354v-629h4l428 629h424l-530 -690l569 -768h-447l-444 672h-4zM569 -340v229h275v-229l-146 -223h-129l95 223h-95z" />
    <glyph glyph-name="kcommaaccent" unicode="&#x137;" horiz-adv-x="1159" 
d="M465 471v-471h-340v1458h340v-827h4l279 409h393l-371 -485l410 -555h-418l-293 471h-4zM471 -340v229h274v-229l-145 -223h-129l94 223h-94z" />
    <glyph glyph-name="kgreenlandic" unicode="&#x138;" horiz-adv-x="1181" 
d="M465 471v-471h-340v1040h340v-409h4l279 409h393l-371 -485l410 -555h-418l-293 471h-4z" />
    <glyph glyph-name="Lacute" unicode="&#x139;" horiz-adv-x="1187" 
d="M1169 301v-301h-1013v1458h354v-1157h659zM197 1556l159 310h392l-289 -310h-262z" />
    <glyph glyph-name="lacute" unicode="&#x13a;" horiz-adv-x="589" 
d="M125 0v1458h340v-1458h-340zM125 1573l160 303h391l-289 -303h-262z" />
    <glyph glyph-name="Lcommaaccent" unicode="&#x13b;" horiz-adv-x="1187" 
d="M1169 301v-301h-1013v1458h354v-1157h659zM526 -340v229h275v-229l-146 -223h-129l95 223h-95z" />
    <glyph glyph-name="lcommaaccent" unicode="&#x13c;" horiz-adv-x="589" 
d="M125 0v1458h340v-1458h-340zM158 -340v229h274v-229l-145 -223h-129l94 223h-94z" />
    <glyph glyph-name="Lcaron" unicode="&#x13d;" horiz-adv-x="1187" 
d="M1169 301v-301h-1013v1458h354v-1157h659zM584 989l49 469h266l-123 -469h-192z" />
    <glyph glyph-name="lcaron" unicode="&#x13e;" horiz-adv-x="589" 
d="M125 0v1458h340v-1458h-340zM522 1094l49 364h267l-123 -364h-193z" />
    <glyph glyph-name="Ldot" unicode="&#x13f;" horiz-adv-x="1357" 
d="M1169 301v-301h-1013v1458h354v-1157h659zM825 707v374h361v-374h-361z" />
    <glyph glyph-name="ldot" unicode="&#x140;" horiz-adv-x="1050" 
d="M125 0v1458h340v-1458h-340zM641 541v374h360v-374h-360z" />
    <glyph glyph-name="Lslash" unicode="&#x141;" horiz-adv-x="1202" 
d="M1184 0h-1014v569l-145 -86v275l145 86v614h354v-434l295 176v-274l-295 -176v-449h660v-301z" />
    <glyph glyph-name="lslash" unicode="&#x142;" horiz-adv-x="720" 
d="M530 0h-340v551l-170 -100v260l170 100v647h340v-485l170 100v-260l-170 -100v-713z" />
    <glyph glyph-name="Nacute" unicode="&#x143;" horiz-adv-x="1640" 
d="M496 0h-340v1458h510l256 -575q135 -313 237 -584h4q-16 272 -16 614v545h340v-1458h-512l-254 575q-135 305 -238 584h-4q16 -328 17 -614v-545zM625 1556l159 310h392l-289 -310h-262z" />
    <glyph glyph-name="nacute" unicode="&#x144;" 
d="M743 1067q185 0 286 -109.5t101 -318.5v-639h-339v602q0 201 -152 201q-82 0 -128 -66.5t-46 -197.5v-539h-340v1040h317v-125h4q112 152 297 152zM432 1155l160 303h391l-289 -303h-262z" />
    <glyph glyph-name="Ncommaaccent" unicode="&#x145;" horiz-adv-x="1640" 
d="M496 0h-340v1458h510l256 -575q135 -313 237 -584h4q-16 272 -16 614v545h340v-1458h-512l-254 575q-135 305 -238 584h-4q16 -328 17 -614v-545zM684 -340v229h274v-229l-145 -223h-129l94 223h-94z" />
    <glyph glyph-name="ncommaaccent" unicode="&#x146;" 
d="M743 1067q185 0 286 -109.5t101 -318.5v-639h-339v602q0 201 -152 201q-82 0 -128 -66.5t-46 -197.5v-539h-340v1040h317v-125h4q112 152 297 152zM492 -340v229h274v-229l-145 -223h-129l94 223h-94z" />
    <glyph glyph-name="Ncaron" unicode="&#x147;" horiz-adv-x="1640" 
d="M496 0h-340v1458h510l256 -575q135 -313 237 -584h4q-16 272 -16 614v545h340v-1458h-512l-254 575q-135 305 -238 584h-4q16 -328 17 -614v-545zM659 1556l-245 310h282l123 -162l123 162h283l-246 -310h-320z" />
    <glyph glyph-name="ncaron" unicode="&#x148;" 
d="M743 1067q185 0 286 -109.5t101 -318.5v-639h-339v602q0 201 -152 201q-82 0 -128 -66.5t-46 -197.5v-539h-340v1040h317v-125h4q112 152 297 152zM469 1155l-242 303h283l119 -155l119 155h282l-242 -303h-319z" />
    <glyph glyph-name="napostrophe" unicode="&#x149;" horiz-adv-x="1593" 
d="M117 1139v319h307v-319l-158 -312h-170l121 312h-100zM1091.5 1067q184.5 0 286 -109.5t101.5 -318.5v-639h-340v602q0 201 -152 201q-82 0 -128 -66.5t-46 -197.5v-539h-340v1040h318v-125h4q112 152 296.5 152z" />
    <glyph glyph-name="Eng" unicode="&#x14a;" horiz-adv-x="1556" 
d="M1051 -31q0 35 -14.5 70t-73.5 139l-250 447q-135 248 -234 467h-4q20 -246 21 -517v-575h-340v1458h438l250 -446q137 -250 231 -467h4q-18 262 -18 518v395h340v-1466q0 -199 -103.5 -294t-281.5 -95q-94 0 -162 18v234q25 -6 57 -7q140 0 140 121z" />
    <glyph glyph-name="eng" unicode="&#x14b;" 
d="M749 1069q175 0 271 -96q59 -59 84.5 -141t25.5 -222v-604q0 -201 -103 -297t-279 -96q-92 0 -164 18v240q25 -6 53 -6q80 0 117 43t37 153v517q0 78 -10.5 118.5t-44.5 74.5t-106 34t-118.5 -66.5t-46.5 -197.5v-541h-340v1040h332v-114h4q113 143 288 143z" />
    <glyph glyph-name="Omacron" unicode="&#x14c;" horiz-adv-x="1550" 
d="M440 729q0 -215 88 -335t247 -120t247 120t88 335t-88 335t-247 120t-247 -120t-88 -335zM1481 729.5q0 -233.5 -86 -405.5t-245 -264.5t-375 -92.5t-374.5 92.5t-244.5 264.5t-86 405.5t86 405.5t244.5 264t374.5 92t375 -92t245 -264t86 -405.5zM408 1589v211h735v-211
h-735z" />
    <glyph glyph-name="omacron" unicode="&#x14d;" horiz-adv-x="1236" 
d="M420 520q0 -137 52 -216t146.5 -79t146.5 79t52 216t-52 216t-146.5 79t-146.5 -79t-52 -216zM1176 520q0 -168 -69 -293t-195 -192.5t-293.5 -67.5t-293.5 67.5t-195 192.5t-69 293t69 293t195 192.5t293.5 67.5t293.5 -67.5t195 -192.5t69 -293zM250 1206v211h735v-211
h-735z" />
    <glyph glyph-name="Obreve" unicode="&#x14e;" horiz-adv-x="1550" 
d="M440 729q0 -215 88 -335t247 -120t247 120t88 335t-88 335t-247 120t-247 -120t-88 -335zM1481 729.5q0 -233.5 -86 -405.5t-245 -264.5t-375 -92.5t-374.5 92.5t-244.5 264.5t-86 405.5t86 405.5t244.5 264t374.5 92t375 -92t245 -264t86 -405.5zM776 1747
q139 0 148 119h217q-8 -150 -103.5 -233t-261.5 -83t-261 83t-103 233h217q4 -57 41.5 -88t105.5 -31z" />
    <glyph glyph-name="obreve" unicode="&#x14f;" horiz-adv-x="1236" 
d="M420 520q0 -137 52 -216t146.5 -79t146.5 79t52 216t-52 216t-146.5 79t-146.5 -79t-52 -216zM1176 520q0 -168 -69 -293t-195 -192.5t-293.5 -67.5t-293.5 67.5t-195 192.5t-69 293t69 293t195 192.5t293.5 67.5t293.5 -67.5t195 -192.5t69 -293zM618.5 1143
q-165.5 0 -261 83t-103.5 232h217q4 -57 42 -88t105.5 -31t105.5 31t42 88h217q-8 -149 -103.5 -232t-261 -83z" />
    <glyph glyph-name="Ohungarumlaut" unicode="&#x150;" horiz-adv-x="1550" 
d="M440 729q0 -215 88 -335t247 -120t247 120t88 335t-88 335t-247 120t-247 -120t-88 -335zM1481 729.5q0 -233.5 -86 -405.5t-245 -264.5t-375 -92.5t-374.5 92.5t-244.5 264.5t-86 405.5t86 405.5t244.5 264t374.5 92t375 -92t245 -264t86 -405.5zM784 1556l203 310h340
l-289 -310h-254zM365 1556l200 310h340l-289 -310h-251z" />
    <glyph glyph-name="ohungarumlaut" unicode="&#x151;" horiz-adv-x="1236" 
d="M420 520q0 -137 52 -216t146.5 -79t146.5 79t52 216t-52 216t-146.5 79t-146.5 -79t-52 -216zM1176 520q0 -168 -69 -293t-195 -192.5t-293.5 -67.5t-293.5 67.5t-195 192.5t-69 293t69 293t195 192.5t293.5 67.5t293.5 -67.5t195 -192.5t69 -293zM649 1155l203 303h340
l-289 -303h-254zM229 1155l201 303h340l-289 -303h-252z" />
    <glyph glyph-name="OE" unicode="&#x152;" horiz-adv-x="2091" 
d="M438 729q0 -432 420 -432h96v864h-96q-420 0 -420 -432zM1303 1161v-276h628v-293h-628v-295h692v-297h-1137q-377 0 -582.5 190.5t-205.5 538.5t205.5 538.5t582.5 190.5h1122v-297h-677z" />
    <glyph glyph-name="oe" unicode="&#x153;" horiz-adv-x="1921" 
d="M817 520q0 137 -52 216t-146.5 79t-146.5 -79t-52 -216t52 -216t146.5 -79t146.5 79t52 216zM1331 850q-76 0 -126 -50t-64 -157h377q-8 104 -59.5 155.5t-127.5 51.5zM1860 451h-725q6 -137 59 -196.5t130 -59.5t121 34.5t52 89.5h348q-23 -98 -91 -179t-177 -127
t-244 -46q-230 0 -360 144q-137 -143 -361 -144q-166 0 -290.5 67.5t-192.5 192.5t-68 293t68 293t192.5 192.5t290.5 67.5q223 0 361 -143q129 143 356 143q182 0 310 -89t182 -245q39 -115 39 -288z" />
    <glyph glyph-name="Racute" unicode="&#x154;" horiz-adv-x="1402" 
d="M510 801h195q229 0 229 196q0 186 -244 187h-180v-383zM1284 1042q0 -133 -71.5 -226t-196.5 -130v-4q78 -27 125 -89.5t98 -203.5l141 -389h-381l-110 330q-39 115 -91.5 158.5t-154.5 43.5h-133v-532h-354v1458h592q536 0 536 -416zM487 1556l160 310h391l-288 -310
h-263z" />
    <glyph glyph-name="racute" unicode="&#x155;" horiz-adv-x="849" 
d="M731 764q-129 0 -197.5 -79t-68.5 -228v-457h-340v1040h315v-143h4q103 160 293 160q52 -1 99 -13v-290q-57 10 -105 10zM254 1155l160 303h391l-289 -303h-262z" />
    <glyph glyph-name="Rcommaaccent" unicode="&#x156;" horiz-adv-x="1402" 
d="M510 801h195q229 0 229 196q0 186 -244 187h-180v-383zM1284 1042q0 -133 -71.5 -226t-196.5 -130v-4q78 -27 125 -89.5t98 -203.5l141 -389h-381l-110 330q-39 115 -91.5 158.5t-154.5 43.5h-133v-532h-354v1458h592q536 0 536 -416zM588 -340v229h274v-229l-145 -223
h-129l94 223h-94z" />
    <glyph glyph-name="rcommaaccent" unicode="&#x157;" horiz-adv-x="849" 
d="M731 764q-129 0 -197.5 -79t-68.5 -228v-457h-340v1040h315v-143h4q103 160 293 160q52 -1 99 -13v-290q-57 10 -105 10zM158 -340v229h274v-229l-145 -223h-129l94 223h-94z" />
    <glyph glyph-name="Rcaron" unicode="&#x158;" horiz-adv-x="1402" 
d="M510 801h195q229 0 229 196q0 186 -244 187h-180v-383zM1284 1042q0 -133 -71.5 -226t-196.5 -130v-4q78 -27 125 -89.5t98 -203.5l141 -389h-381l-110 330q-39 115 -91.5 158.5t-154.5 43.5h-133v-532h-354v1458h592q536 0 536 -416zM522 1556l-246 310h283l123 -162
l123 162h282l-245 -310h-320z" />
    <glyph glyph-name="rcaron" unicode="&#x159;" horiz-adv-x="849" 
d="M731 764q-129 0 -197.5 -79t-68.5 -228v-457h-340v1040h315v-143h4q103 160 293 160q52 -1 99 -13v-290q-57 10 -105 10zM289 1155l-242 303h283l119 -155l118 155h283l-242 -303h-319z" />
    <glyph glyph-name="Sacute" unicode="&#x15a;" horiz-adv-x="1320" 
d="M1217 1014h-369q0 98 -56.5 150.5t-152.5 52.5t-148.5 -38t-52.5 -92.5t28 -84t87 -52t204.5 -58.5t253 -82t176 -136t68.5 -235.5t-73.5 -251t-207.5 -163t-315 -57.5q-287 0 -448.5 133t-161.5 375h377q0 -225 242 -225q100 0 157.5 41t57.5 103t-28 93t-81 50.5
t-200.5 57.5t-254 83t-176 133t-69.5 228.5t69.5 240.5t199.5 155.5t302 55.5q277 0 424.5 -122t147.5 -355zM449 1556l159 310h391l-288 -310h-262z" />
    <glyph glyph-name="sacute" unicode="&#x15b;" horiz-adv-x="1110" 
d="M1008 725h-324q0 133 -139 133q-57 0 -89 -21.5t-32 -56.5t25 -60t172 -63.5t228 -72t138 -102t57 -181.5q0 -152 -129 -243t-362.5 -91t-361.5 92.5t-128 278.5h343q0 -147 159 -148q63 0 97 24t34 61.5t-23.5 60t-69.5 39t-156.5 45.5t-183.5 58.5t-124 94t-51 175.5
q0 145 121 235t339 90t339 -88t121 -260zM352 1155l160 303h391l-289 -303h-262z" />
    <glyph glyph-name="Scircumflex" unicode="&#x15c;" horiz-adv-x="1320" 
d="M1217 1014h-369q0 98 -56.5 150.5t-152.5 52.5t-148.5 -38t-52.5 -92.5t28 -84t87 -52t204.5 -58.5t253 -82t176 -136t68.5 -235.5t-73.5 -251t-207.5 -163t-315 -57.5q-287 0 -448.5 133t-161.5 375h377q0 -225 242 -225q100 0 157.5 41t57.5 103t-28 93t-81 50.5
t-200.5 57.5t-254 83t-176 133t-69.5 228.5t69.5 240.5t199.5 155.5t302 55.5q277 0 424.5 -122t147.5 -355zM803 1866l246 -310h-283l-123 162l-123 -162h-282l245 310h320z" />
    <glyph glyph-name="scircumflex" unicode="&#x15d;" horiz-adv-x="1110" 
d="M1008 725h-324q0 133 -139 133q-57 0 -89 -21.5t-32 -56.5t25 -60t172 -63.5t228 -72t138 -102t57 -181.5q0 -152 -129 -243t-362.5 -91t-361.5 92.5t-128 278.5h343q0 -147 159 -148q63 0 97 24t34 61.5t-23.5 60t-69.5 39t-156.5 45.5t-183.5 58.5t-124 94t-51 175.5
q0 145 121 235t339 90t339 -88t121 -260zM547 1311l-119 -156h-283l242 303h320l241 -303h-282z" />
    <glyph glyph-name="Scedilla" unicode="&#x15e;" horiz-adv-x="1320" 
d="M622 -346q83 0 83 64q0 30 -24 48.5t-64 18.5t-66 -12l-59 55l86 141q-250 20 -389.5 151.5t-139.5 354.5h377q0 -225 242 -225q100 0 157.5 41t57.5 103t-28 93t-81 50.5t-200.5 57.5t-254 83t-176 133t-69.5 228.5t69.5 240.5t199.5 155.5t302 55.5q276 0 424 -122
t148 -355h-369q0 98 -56.5 150.5t-152.5 52.5t-148.5 -38t-52.5 -92.5t28 -84t87 -52t204.5 -58.5t253 -82t176 -136t68.5 -231.5t-66.5 -244t-188 -162t-285.5 -67.5l-58 -92q31 10 68 10q80 0 129 -43t49 -123.5t-68.5 -138t-197.5 -57.5t-242 65l54 109q90 -45 173 -45z
" />
    <glyph glyph-name="scedilla" unicode="&#x15f;" horiz-adv-x="1110" 
d="M531 -346q83 0 83 64q0 30 -23.5 48.5t-62.5 18.5t-67 -12l-60 55l86 141q-424 29 -424 369h343q0 -147 159 -148q63 0 97 24t34 61.5t-23.5 60t-69.5 39t-156.5 45.5t-183.5 58.5t-124 94t-51 175.5q0 145 121 235t339 90t339 -88t121 -260h-324q0 133 -139 133
q-57 0 -89 -21.5t-32 -56.5t25.5 -60t172 -63.5t227.5 -72t138 -102t57 -195.5t-111.5 -216t-307.5 -102l-58 -92q31 10 68 10q80 0 129 -43t49 -123.5t-68.5 -138t-197.5 -57.5t-242 65l53 109q90 -45 173 -45z" />
    <glyph glyph-name="Scaron" unicode="&#x160;" horiz-adv-x="1320" 
d="M1217 1014h-369q0 98 -56.5 150.5t-152.5 52.5t-148.5 -38t-52.5 -92.5t28 -84t87 -52t204.5 -58.5t253 -82t176 -136t68.5 -235.5t-73.5 -251t-207.5 -163t-315 -57.5q-287 0 -448.5 133t-161.5 375h377q0 -225 242 -225q100 0 157.5 41t57.5 103t-28 93t-81 50.5
t-200.5 57.5t-254 83t-176 133t-69.5 228.5t69.5 240.5t199.5 155.5t302 55.5q277 0 424.5 -122t147.5 -355zM483 1556l-245 310h282l123 -162l123 162h283l-246 -310h-320z" />
    <glyph glyph-name="scaron" unicode="&#x161;" horiz-adv-x="1110" 
d="M1008 725h-324q0 133 -139 133q-57 0 -89 -21.5t-32 -56.5t25 -60t172 -63.5t228 -72t138 -102t57 -181.5q0 -152 -129 -243t-362.5 -91t-361.5 92.5t-128 278.5h343q0 -147 159 -148q63 0 97 24t34 61.5t-23.5 60t-69.5 39t-156.5 45.5t-183.5 58.5t-124 94t-51 175.5
q0 145 121 235t339 90t339 -88t121 -260zM387 1155l-242 303h283l119 -155l119 155h282l-241 -303h-320z" />
    <glyph glyph-name="uni0162" unicode="&#x162;" horiz-adv-x="1284" 
d="M819 1157v-1157h-354v1157h-447v301h1248v-301h-447zM506 -340v229h274v-229l-145 -223h-129l94 223h-94z" />
    <glyph glyph-name="uni0163" unicode="&#x163;" horiz-adv-x="774" 
d="M569 -111v-229l-145 -223h-129l94 223h-94v229h274zM516 408q0 -156 117 -156q55 0 90 10v-256q-77 -22 -172 -22q-197 0 -286 81.5t-89 264.5v463h-162v247h162v281h340v-281h197v-247h-197v-385z" />
    <glyph glyph-name="Tcaron" unicode="&#x164;" horiz-adv-x="1284" 
d="M819 1157v-1157h-354v1157h-447v301h1248v-301h-447zM481 1556l-245 310h282l123 -162l123 162h283l-246 -310h-320z" />
    <glyph glyph-name="tcaron" unicode="&#x165;" horiz-adv-x="774" 
d="M516 408q0 -156 117 -156q55 0 90 10v-256q-77 -22 -172 -22q-197 0 -286 81.5t-89 264.5v463h-162v247h162v281h340v-281h197v-247h-197v-385zM573 1094l50 364h266l-123 -364h-193z" />
    <glyph glyph-name="Tbar" unicode="&#x166;" horiz-adv-x="1284" 
d="M819 803h271v-234h-271v-569h-354v569h-270v234h270v354h-447v301h1248v-301h-447v-354z" />
    <glyph glyph-name="tbar" unicode="&#x167;" horiz-adv-x="774" 
d="M516 401q0 -155 116 -155q56 0 91 10v-250q-77 -22 -172 -22q-197 0 -285 80.5t-88 265.5v121h-155v182h155v168h-164v239h164v281h338v-281h197v-239h-197v-168h186v-182h-186v-50z" />
    <glyph glyph-name="Utilde" unicode="&#x168;" horiz-adv-x="1484" 
d="M742 -33q-288 0 -443.5 154.5t-155.5 443.5v893h355v-885q0 -143 62.5 -218.5t182 -75.5t182 75.5t62.5 218.5v885h354v-893q0 -289 -155.5 -443.5t-443.5 -154.5zM885 1573q-74 0 -153.5 44t-121.5 44q-76 0 -86 -88h-182q6 137 71.5 215t182.5 78q47 0 81 -12.5
t91 -38.5q63 -37 103 -37q75 0 87 88h183q-8 -137 -74 -215t-182 -78z" />
    <glyph glyph-name="utilde" unicode="&#x169;" 
d="M115 401v639h340v-602q0 -200 151 -200q82 0 128 66.5t46 197.5v538h340v-1040h-317v125h-4q-112 -152 -297 -152t-286 110t-101 318zM766 1165q-72 0 -152.5 44.5t-121.5 43.5q-76 0 -86 -88h-183q6 137 71.5 215t182.5 78q47 0 81 -12t91 -39q63 -37 103.5 -37t61 21.5
t26.5 66.5h182q-8 -137 -73.5 -215t-182.5 -78z" />
    <glyph glyph-name="Umacron" unicode="&#x16a;" horiz-adv-x="1484" 
d="M742 -33q-288 0 -443.5 154.5t-155.5 443.5v893h355v-885q0 -143 62.5 -218.5t182 -75.5t182 75.5t62.5 218.5v885h354v-893q0 -289 -155.5 -443.5t-443.5 -154.5zM373 1589v211h735v-211h-735z" />
    <glyph glyph-name="umacron" unicode="&#x16b;" 
d="M115 401v639h340v-602q0 -200 151 -200q82 0 128 66.5t46 197.5v538h340v-1040h-317v125h-4q-112 -152 -297 -152t-286 110t-101 318zM256 1206v211h735v-211h-735z" />
    <glyph glyph-name="Ubreve" unicode="&#x16c;" horiz-adv-x="1484" 
d="M742 -33q-288 0 -443.5 154.5t-155.5 443.5v893h355v-885q0 -143 62.5 -218.5t182 -75.5t182 75.5t62.5 218.5v885h354v-893q0 -289 -155.5 -443.5t-443.5 -154.5zM742 1747q139 0 147 119h217q-8 -150 -103.5 -233t-261.5 -83t-261 83t-103 233h217q4 -57 42 -88
t106 -31z" />
    <glyph glyph-name="ubreve" unicode="&#x16d;" 
d="M115 401v639h340v-602q0 -200 151 -200q82 0 128 66.5t46 197.5v538h340v-1040h-317v125h-4q-112 -152 -297 -152t-286 110t-101 318zM622.5 1143q-165.5 0 -261 83t-103.5 232h217q4 -57 42 -88t105.5 -31t105.5 31t42 88h217q-8 -149 -103.5 -232t-261 -83z" />
    <glyph glyph-name="Uring" unicode="&#x16e;" horiz-adv-x="1484" 
d="M742 -33q-288 0 -443.5 154.5t-155.5 443.5v893h355v-885q0 -143 62.5 -218.5t182 -75.5t182 75.5t62.5 218.5v885h354v-893q0 -289 -155.5 -443.5t-443.5 -154.5zM627 1771.5q0 -47.5 33.5 -81t80.5 -33.5t81 33.5t34 81t-34 81t-81 33.5t-80.5 -33.5t-33.5 -81z
M975 1771.5q0 -96.5 -68.5 -164t-165 -67.5t-165 67.5t-68.5 164t68.5 165t165 68.5t165 -68.5t68.5 -165z" />
    <glyph glyph-name="uring" unicode="&#x16f;" 
d="M115 401v639h340v-602q0 -200 151 -200q82 0 128 66.5t46 197.5v538h340v-1040h-317v125h-4q-112 -152 -297 -152t-286 110t-101 318zM508 1364q0 -47 33.5 -81t81 -34t81 34t33.5 81t-33.5 81t-81 34t-81 -34t-33.5 -81zM856 1364q0 -96 -68.5 -163.5t-165 -67.5
t-165 67.5t-68.5 163.5t68.5 164.5t165 68.5t165 -68.5t68.5 -164.5z" />
    <glyph glyph-name="Uhungarumlaut" unicode="&#x170;" horiz-adv-x="1484" 
d="M742 -33q-288 0 -443.5 154.5t-155.5 443.5v893h355v-885q0 -143 62.5 -218.5t182 -75.5t182 75.5t62.5 218.5v885h354v-893q0 -289 -155.5 -443.5t-443.5 -154.5zM752 1556l202 310h340l-288 -310h-254zM332 1556l200 310h340l-288 -310h-252z" />
    <glyph glyph-name="uhungarumlaut" unicode="&#x171;" 
d="M115 401v639h340v-602q0 -200 151 -200q82 0 128 66.5t46 197.5v538h340v-1040h-317v125h-4q-112 -152 -297 -152t-286 110t-101 318zM653 1155l203 303h340l-289 -303h-254zM233 1155l201 303h340l-289 -303h-252z" />
    <glyph glyph-name="Uogonek" unicode="&#x172;" horiz-adv-x="1484" 
d="M975 -154q0 -72 67 -71q43 0 70 12v-164q-78 -31 -192 -31t-177 50.5t-63 140.5q0 55 29.5 98t89.5 86v4q-37 -4 -58 -4q-287 0 -442.5 154.5t-155.5 443.5v893h355v-885q0 -143 62 -218.5t182 -75.5t182.5 75.5t62.5 218.5v885h354v-893q0 -176 -59 -302t-176 -220
q-74 -59 -102.5 -104t-28.5 -93z" />
    <glyph glyph-name="uogonek" unicode="&#x173;" 
d="M455 438q0 -200 151 -200q82 0 128 66.5t46 197.5v538h340v-1040h2q-74 -49 -103.5 -86t-29.5 -76q0 -61 68 -61q34 0 71 14v-168q-86 -31 -200.5 -31t-178 49.5t-63.5 126.5t42 129t130 103h-55v125h-4q-112 -152 -296.5 -152t-286 110t-101.5 318v639h340v-602z" />
    <glyph glyph-name="Wcircumflex" unicode="&#x174;" horiz-adv-x="2029" 
d="M1247 0l-123 584q-68 301 -108 585h-4q-39 -266 -107 -585l-123 -584h-471l-295 1458h344l99 -526q59 -324 94 -610h4q51 311 117 610l114 526h453l115 -526q70 -313 114 -610h5q39 303 96 610l96 526h346l-295 -1458h-471zM1171 1866l246 -310h-282l-123 162l-123 -162
h-283l246 310h319z" />
    <glyph glyph-name="wcircumflex" unicode="&#x175;" horiz-adv-x="1736" 
d="M1032 0l-84 391q-47 223 -78 436h-4q-31 -213 -78 -436l-83 -391h-465l-232 1040h332l68 -383q41 -227 65 -442h4q37 244 84 444l86 381h443l86 -381q47 -201 84 -444h4q25 215 65 442l68 383h332l-232 -1040h-465zM868 1311l-118 -156h-283l242 303h319l242 -303h-283z
" />
    <glyph glyph-name="Ycircumflex" unicode="&#x176;" horiz-adv-x="1357" 
d="M856 0h-354v551l-500 907h393l127 -264q88 -182 156 -367h4q61 176 154 367l127 264h393l-500 -907v-551zM838 1866l245 -310h-282l-123 162l-123 -162h-283l246 310h320z" />
    <glyph glyph-name="ycircumflex" unicode="&#x177;" horiz-adv-x="1085" 
d="M279.5 -393q-111.5 0 -199.5 18v258q49 -16 112.5 -16t106.5 36t43 90t-57 210l-305 837h366l100 -348q66 -242 105 -434h4q43 219 104 436l97 346h346l-346 -1022q-54 -155 -118.5 -244t-155.5 -128t-202.5 -39zM547 1311l-119 -156h-283l242 303h320l241 -303h-282z
" />
    <glyph glyph-name="Ydieresis" unicode="&#x178;" horiz-adv-x="1357" 
d="M856 0h-354v551l-500 907h393l127 -264q88 -182 156 -367h4q61 176 154 367l127 264h393l-500 -907v-551zM766 1575v268h291v-268h-291zM301 1575v268h293v-268h-293z" />
    <glyph glyph-name="Zacute" unicode="&#x179;" horiz-adv-x="1214" 
d="M465 295h706v-295h-1130v307l674 852v4h-643v295h1067v-307l-674 -852v-4zM410 1556l159 310h392l-289 -310h-262z" />
    <glyph glyph-name="zacute" unicode="&#x17a;" horiz-adv-x="1028" 
d="M477 260h492v-260h-910v268l473 508v4h-454v260h874v-268l-475 -508v-4zM315 1155l160 303h391l-288 -303h-263z" />
    <glyph glyph-name="Zdotaccent" unicode="&#x17b;" horiz-adv-x="1214" 
d="M465 295h706v-295h-1130v307l674 852v4h-643v295h1067v-307l-674 -852v-4zM436 1575v268h340v-268h-340z" />
    <glyph glyph-name="zdotaccent" unicode="&#x17c;" horiz-adv-x="1028" 
d="M477 260h492v-260h-910v268l473 508v4h-454v260h874v-268l-475 -508v-4zM340 1190v268h340v-268h-340z" />
    <glyph glyph-name="Zcaron" unicode="&#x17d;" horiz-adv-x="1214" 
d="M465 295h706v-295h-1130v307l674 852v4h-643v295h1067v-307l-674 -852v-4zM446 1556l-245 310h282l123 -162l123 162h283l-246 -310h-320z" />
    <glyph glyph-name="zcaron" unicode="&#x17e;" horiz-adv-x="1028" 
d="M477 260h492v-260h-910v268l473 508v4h-454v260h874v-268l-475 -508v-4zM350 1155l-241 303h282l119 -155l119 155h282l-241 -303h-320z" />
    <glyph glyph-name="longs" unicode="&#x17f;" horiz-adv-x="739" 
d="M672 1229q-78 0 -115 -35t-37 -117v-1077h-336v793h-166v247h166v76q0 180 96.5 270.5t278.5 90.5q88 -1 162 -19v-233q-20 4 -49 4z" />
    <glyph glyph-name="Schwa" unicode="&#x18f;" horiz-adv-x="1587" 
d="M790 256q138 0 231 81t120 238h-697q20 -158 114 -238.5t232 -80.5zM1518 736q0 -222 -87.5 -396t-253 -273.5t-387.5 -99.5t-383 93.5t-249 264.5t-88 402q0 70 6 113h1073q-12 186 -115.5 275t-241.5 89t-212 -54t-93 -142h-378q29 135 115.5 244.5t228 174t347.5 64.5
t373.5 -94t256 -266.5t88.5 -394.5z" />
    <glyph glyph-name="florin" unicode="&#x192;" horiz-adv-x="1286" 
d="M1116 1229q-72 0 -118 -40t-68 -132l-25 -99h228v-241h-285l-174 -684q-57 -225 -168 -325.5t-303 -100.5q-88 0 -152 18v248q45 -12 115 -12t113 42t71 158l168 656h-207v241h264l33 127q53 205 163 301.5t294 96.5q92 -1 170 -21v-245q-47 12 -119 12z" />
    <glyph glyph-name="Aringacute" unicode="&#x1fa;" horiz-adv-x="1464" 
d="M881 698q-88 291 -148 531h-4q-61 -254 -143 -531l-29 -98h354zM469 309l-94 -309h-373l498 1458h465l497 -1458h-372l-93 309h-528zM616 1733q0 -47 34 -81t81 -34t81 34t34 81t-34 80.5t-81 33.5t-81 -33.5t-34 -80.5zM965 1732.5q0 -96.5 -69 -164t-165 -67.5
t-164.5 67.5t-68.5 164t68.5 165t164.5 68.5t165 -68.5t69 -165zM537 2011l159 309h391l-288 -309h-262z" />
    <glyph glyph-name="aringacute" unicode="&#x1fb;" horiz-adv-x="1148" 
d="M381 318q0 -56 35 -87.5t87 -31.5q103 0 154 53q31 33 41.5 73t10.5 109v37q-235 -10 -295 -66q-34 -31 -33 -87zM1036 651v-358q0 -184 31 -293h-307q-14 57 -15 135h-4q-119 -162 -338 -162q-166 0 -262 90.5t-96 228.5q-1 138 95 220q136 116 569 145v37q0 84 -39 124
t-108 40t-106.5 -38t-39.5 -107h-328q8 158 127 259t352.5 101t351 -107.5t117.5 -314.5zM436 1347.5q0 -47.5 34 -81t81 -33.5t81 33.5t34 81t-34 81t-81 33.5t-81 -33.5t-34 -81zM784 1347.5q0 -96.5 -68.5 -164t-164.5 -67.5t-165 67.5t-69 164t69 165t165 68.5
t164.5 -68.5t68.5 -165zM356 1626l160 303h391l-289 -303h-262z" />
    <glyph glyph-name="AEacute" unicode="&#x1fc;" horiz-adv-x="2000" 
d="M897 1171h-29l-229 -550h338zM1905 0h-840l-47 328h-502l-137 -328h-391l651 1458h1251v-297h-653l39 -276h565v-293h-524l43 -295h545v-297zM862 1556l160 310h391l-289 -310h-262z" />
    <glyph glyph-name="aeacute" unicode="&#x1fd;" horiz-adv-x="1832" 
d="M635 459q-254 1 -254 -135q-1 -136 153 -136q80 0 140 56q33 35 45 76.5t12 113.5v25h-96zM1242 850q-77 0 -128 -52.5t-63 -160.5h381q-8 106 -60.5 159.5t-129.5 53.5zM731 694q0 164 -158 164q-72 0 -112.5 -38t-42.5 -107h-328q8 158 130 259t354 101t346 -110
q131 111 317 110.5t314 -89.5q183 -126 213 -370q8 -68 8 -163h-723q10 -256 194 -256q70 0 114 34.5t54 89.5h346q-20 -98 -90 -179t-178.5 -127t-241.5 -46q-252 0 -389 174q-117 -174 -391 -174q-131 0 -226.5 42t-145.5 117t-50 167q0 178 137 262t436 84h113v55z
M715 1155l159 303h392l-289 -303h-262z" />
    <glyph glyph-name="Oslashacute" unicode="&#x1fe;" horiz-adv-x="1550" 
d="M1128 729q0 160 -45 264l-501 -678q82 -59 194 -59q168 0 260 125t92 348zM776 1202q-168 0 -260 -125t-92 -348q0 -149 45 -262l502 676q-82 59 -195 59zM1481 729q0 -233 -86 -405t-245 -264.5t-377 -92.5t-380 96l-119 -161l-145 106l125 170q-184 200 -184 551
q0 233 86 405.5t244.5 264.5t378.5 92t378 -96l121 161l143 -106l-125 -170q185 -201 185 -551zM580 1556l159 310h391l-288 -310h-262z" />
    <glyph glyph-name="oslashacute" unicode="&#x1ff;" horiz-adv-x="1236" 
d="M840 520q0 80 -23 152l-315 -426q49 -37 116 -37q103 0 162.5 84t59.5 227zM397 520q0 -84 23 -155l317 428q-51 39 -119 38q-104 0 -162.5 -83.5t-58.5 -227.5zM1176 520q0 -168 -69 -293t-195 -192.5t-285 -67.5t-281 56l-104 -142l-125 90l102 140q-158 154 -158 409
q0 168 69 293t195 192.5t286.5 67.5t281.5 -57l104 143l125 -94l-102 -137q156 -152 156 -408zM422 1155l160 303h391l-289 -303h-262z" />
    <glyph glyph-name="Scommaaccent" unicode="&#x218;" horiz-adv-x="1320" 
d="M1217 1014h-369q0 98 -56.5 150.5t-152.5 52.5t-148.5 -38t-52.5 -92.5t28 -84t87 -52t204.5 -58.5t253 -82t176 -136t68.5 -235.5t-73.5 -251t-207.5 -163t-315 -57.5q-287 0 -448.5 133t-161.5 375h377q0 -225 242 -225q100 0 157.5 41t57.5 103t-28 93t-81 50.5
t-200.5 57.5t-254 83t-176 133t-69.5 228.5t69.5 240.5t199.5 155.5t302 55.5q277 0 424.5 -122t147.5 -355zM512 -340v229h274v-229l-145 -223h-129l94 223h-94z" />
    <glyph glyph-name="scommaaccent" unicode="&#x219;" horiz-adv-x="1110" 
d="M1008 725h-324q0 133 -139 133q-57 0 -89 -21.5t-32 -56.5t25 -60t172 -63.5t228 -72t138 -102t57 -181.5q0 -152 -129 -243t-362.5 -91t-361.5 92.5t-128 278.5h343q0 -147 159 -148q63 0 97 24t34 61.5t-23.5 60t-69.5 39t-156.5 45.5t-183.5 58.5t-124 94t-51 175.5
q0 145 121 235t339 90t339 -88t121 -260zM422 -340v229h274v-229l-145 -223h-129l94 223h-94z" />
    <glyph glyph-name="uni021A" unicode="&#x21a;" horiz-adv-x="1284" 
d="M819 1157v-1157h-354v1157h-447v301h1248v-301h-447zM506 -340v229h274v-229l-145 -223h-129l94 223h-94z" />
    <glyph glyph-name="uni021B" unicode="&#x21b;" horiz-adv-x="774" 
d="M516 408q0 -156 117 -156q55 0 90 10v-256q-77 -22 -172 -22q-197 0 -286 81.5t-89 264.5v463h-162v247h162v281h340v-281h197v-247h-197v-385zM295 -340v229h274v-229l-145 -223h-129l94 223h-94z" />
    <glyph glyph-name="dotlessj" unicode="&#x237;" horiz-adv-x="591" 
d="M84 -389q-96 0 -164 18v238q25 -6 53 -6q80 0 117 43t37 155v981h340v-1038q0 -201 -103.5 -296t-279.5 -95z" />
    <glyph glyph-name="schwa" unicode="&#x259;" horiz-adv-x="1196" 
d="M597 190q79 0 131 52.5t67 160.5h-394q10 -106 63.5 -159.5t132.5 -53.5zM1135 524q0 -160 -64.5 -285.5t-186.5 -198.5t-286 -73t-284.5 67.5t-186.5 191.5t-66 292q0 41 5 78h733q-6 133 -61.5 191.5t-131.5 58.5t-119 -33t-53 -84h-346q23 96 90.5 175t172.5 124
t257 45t276 -70.5t187.5 -194.5t63.5 -284z" />
    <glyph glyph-name="uni02BC" unicode="&#x2bc;" horiz-adv-x="544" 
d="M117 1139v319h307v-319l-158 -312h-170l121 312h-100z" />
    <glyph glyph-name="circumflex" unicode="&#x2c6;" horiz-adv-x="1007" 
d="M504 1311l-119 -156h-283l242 303h320l241 -303h-282z" />
    <glyph glyph-name="caron" unicode="&#x2c7;" horiz-adv-x="1007" 
d="M344 1155l-242 303h283l119 -155l119 155h282l-241 -303h-320z" />
    <glyph glyph-name="uni02C9" unicode="&#x2c9;" horiz-adv-x="940" 
d="M102 1206v211h736v-211h-736z" />
    <glyph glyph-name="breve" unicode="&#x2d8;" horiz-adv-x="933" 
d="M502.5 1339q103.5 0 111.5 119h217q-8 -149 -103 -232t-261 -83t-261 83t-104 232h217q4 -57 42 -88t141.5 -31z" />
    <glyph glyph-name="dotaccent" unicode="&#x2d9;" horiz-adv-x="544" 
d="M102 1190v268h340v-268h-340z" />
    <glyph glyph-name="ring" unicode="&#x2da;" horiz-adv-x="671" 
d="M221 1364q0 -47 34 -81t81 -34t81 34t34 81t-34 81t-81 34t-81 -34t-34 -81zM569 1364q0 -96 -68.5 -163.5t-164.5 -67.5t-165 67.5t-69 163.5t69 164.5t165 68.5t164.5 -68.5t68.5 -164.5z" />
    <glyph glyph-name="ogonek" unicode="&#x2db;" horiz-adv-x="647" 
d="M406 -162q0 -61 67 -61q37 0 72 14v-168q-86 -31 -201 -31t-178.5 49.5t-63.5 126.5t42 129t130 103h265q-74 -49 -103.5 -86t-29.5 -76z" />
    <glyph glyph-name="tilde" unicode="&#x2dc;" horiz-adv-x="1003" 
d="M645 1165q-72 1 -153 45q-80 44 -121 43q-76 0 -86 -88h-183q6 137 72 215t182 78q47 0 81 -12t91 -39q64 -37 104 -37t60.5 21.5t26.5 66.5h182q-8 -137 -73.5 -215t-182.5 -78z" />
    <glyph glyph-name="hungarumlaut" unicode="&#x2dd;" horiz-adv-x="1165" 
d="M522 1155l203 303h340l-289 -303h-254zM102 1155l201 303h340l-289 -303h-252z" />
    <glyph glyph-name="uni0312" unicode="&#x312;" horiz-adv-x="0" 
d="M377 1401v-230h-275v230l146 223h129l-94 -223h94z" />
    <glyph glyph-name="commaaccent" unicode="&#x326;" horiz-adv-x="0" 
d="M102 -340v229h275v-229l-146 -223h-129l95 223h-95z" />
    <glyph glyph-name="uni0333" unicode="&#x333;" horiz-adv-x="0" 
d="M-1024 -596v172h1024v-172h-1024zM-1024 -274v172h1024v-172h-1024z" />
    <glyph glyph-name="numeralsigngreek" unicode="&#x374;" horiz-adv-x="479" 
d="M61 1040l56 418h301l-144 -418h-213z" />
    <glyph glyph-name="numeralsignlowergreek" unicode="&#x375;" horiz-adv-x="479" 
d="M61 -188l56 417h301l-144 -417h-213z" />
    <glyph glyph-name="questiongreek" unicode="&#x37e;" horiz-adv-x="561" 
d="M100 0v377h363v-377l-187 -365h-200l141 365h-117zM100 664v376h361v-376h-361z" />
    <glyph glyph-name="tonos" unicode="&#x384;" horiz-adv-x="602" 
d="M102 1159l66 340h332l-146 -340h-252z" />
    <glyph glyph-name="dieresistonos" unicode="&#x385;" horiz-adv-x="1179" 
d="M813 1182v256h264v-256h-264zM102 1182v256h265v-256h-265zM430 1159l64 330h276l-115 -330h-225z" />
    <glyph glyph-name="Alphatonos" unicode="&#x386;" horiz-adv-x="1464" 
d="M881 698q-88 291 -148 531h-4q-61 -254 -143 -531l-29 -98h354zM469 309l-94 -309h-373l498 1458h465l497 -1458h-372l-93 309h-528zM-35 1036l66 422h331l-145 -422h-252z" />
    <glyph glyph-name="anoteleia" unicode="&#x387;" horiz-adv-x="561" 
d="M100 666v374h361v-374h-361z" />
    <glyph glyph-name="Epsilontonos" unicode="&#x388;" horiz-adv-x="1298" 
d="M510 1161v-276h631v-293h-631v-295h692v-297h-1046v1458h1030v-297h-676zM-313 1036l65 422h332l-145 -422h-252z" />
    <glyph glyph-name="Etatonos" unicode="&#x389;" horiz-adv-x="1558" 
d="M1049 0v604h-539v-604h-354v1458h354v-553h539v553h354v-1458h-354zM-313 1036l65 422h332l-145 -422h-252z" />
    <glyph glyph-name="Iotatonos" unicode="&#x38a;" horiz-adv-x="665" 
d="M156 0v1458h354v-1458h-354zM-313 1036l65 422h332l-145 -422h-252z" />
    <glyph glyph-name="Omicrontonos" unicode="&#x38c;" horiz-adv-x="1550" 
d="M440 729q0 -215 88 -335t247 -120t247 120t88 335t-88 335t-247 120t-247 -120t-88 -335zM1481 729.5q0 -233.5 -86 -405.5t-245 -264.5t-375 -92.5t-374.5 92.5t-244.5 264.5t-86 405.5t86 405.5t244.5 264t374.5 92t375 -92t245 -264t86 -405.5zM-221 1036l65 422h332
l-145 -422h-252z" />
    <glyph glyph-name="Upsilontonos" unicode="&#x38e;" horiz-adv-x="1357" 
d="M856 0h-354v551l-500 907h393l127 -264q88 -182 156 -367h4q61 176 154 367l127 264h393l-500 -907v-551zM-430 1036l65 422h332l-145 -422h-252z" />
    <glyph glyph-name="Omegatonos" unicode="&#x38f;" horiz-adv-x="1529" 
d="M1450 854q0 -168 -70.5 -298t-199.5 -253v-4h293v-299h-613v311q104 106 161.5 220t57.5 284t-86 269.5t-228 99.5t-228 -99.5t-86 -269.5t57 -283.5t162 -220.5v-311h-613v299h293v4q-129 121 -199.5 252t-70.5 299q0 311 186.5 474t498.5 163t498.5 -162t186.5 -475z
M-244 1036l66 422h332l-146 -422h-252z" />
    <glyph glyph-name="iotadieresistonos" unicode="&#x390;" horiz-adv-x="684" 
d="M455 434q1 -188 119 -188q58 0 88 10v-252q-78 -20 -173 -20q-197 0 -285.5 92t-88.5 299v665h340v-606zM508 1182v256h264v-256h-264zM-203 1182v256h264v-256h-264zM125 1159l63 330h277l-115 -330h-225z" />
    <glyph glyph-name="Alpha" unicode="&#x391;" horiz-adv-x="1464" 
d="M881 698q-88 291 -148 531h-4q-61 -254 -143 -531l-29 -98h354zM469 309l-94 -309h-373l498 1458h465l497 -1458h-372l-93 309h-528z" />
    <glyph glyph-name="Beta" unicode="&#x392;" horiz-adv-x="1359" 
d="M504 276h192q123 0 177 39q55 39 55 125t-56 127t-182 41h-186v-332zM504 868h184q117 0 171 39t54 121t-51 119t-162 37h-196v-316zM1255 1083q0 -127 -60 -207t-187 -126v-5q285 -63 284 -339q0 -186 -141 -296t-391 -110h-604v1458h569q264 0 397 -100t133 -275z" />
    <glyph glyph-name="Gamma" unicode="&#x393;" horiz-adv-x="1062" 
d="M156 1458h888v-301h-534v-1157h-354v1458z" />
    <glyph glyph-name="uni0394" unicode="&#x394;" horiz-adv-x="1462" 
d="M877 698q-90 305 -146 531h-4q-55 -225 -145 -531l-123 -409h542zM2 0l502 1458h459l497 -1458h-1458z" />
    <glyph glyph-name="Epsilon" unicode="&#x395;" horiz-adv-x="1298" 
d="M510 1161v-276h631v-293h-631v-295h692v-297h-1046v1458h1030v-297h-676z" />
    <glyph glyph-name="Zeta" unicode="&#x396;" horiz-adv-x="1214" 
d="M465 295h706v-295h-1130v307l674 852v4h-643v295h1067v-307l-674 -852v-4z" />
    <glyph glyph-name="Eta" unicode="&#x397;" horiz-adv-x="1558" 
d="M1049 0v604h-539v-604h-354v1458h354v-553h539v553h354v-1458h-354z" />
    <glyph glyph-name="Theta" unicode="&#x398;" horiz-adv-x="1550" 
d="M520 606v248h512v-248h-512zM422 730q0 -220 93 -344t261 -124t260 124t92 345t-93 345t-260 124t-260 -125t-93 -345zM1481 730q0 -232 -86 -404t-245 -265.5t-374 -93.5t-374.5 93.5t-245.5 265.5t-86 404t86 404.5t245.5 264.5t374.5 92t374 -92t245 -264.5t86 -404.5
z" />
    <glyph glyph-name="Iota" unicode="&#x399;" horiz-adv-x="665" 
d="M156 0v1458h354v-1458h-354z" />
    <glyph glyph-name="Kappa" unicode="&#x39a;" horiz-adv-x="1413" 
d="M510 672v-672h-354v1458h354v-629h4l428 629h424l-530 -690l569 -768h-447l-444 672h-4z" />
    <glyph glyph-name="Lambda" unicode="&#x39b;" horiz-adv-x="1435" 
d="M1051 0l-197 686q-63 225 -135 526h-4q-61 -279 -133 -526l-197 -686h-383l479 1458h471l482 -1458h-383z" />
    <glyph glyph-name="Mu" unicode="&#x39c;" horiz-adv-x="2074" 
d="M1585 0v713q0 272 12 538h-4q-49 -211 -139 -530l-207 -721h-420l-206 721q-90 319 -140 530h-4q12 -266 12 -538v-713h-333v1458h567l186 -647q76 -274 127 -537h4q47 252 125 537l189 647h565v-1458h-334z" />
    <glyph glyph-name="Nu" unicode="&#x39d;" horiz-adv-x="1640" 
d="M496 0h-340v1458h510l256 -575q135 -313 237 -584h4q-16 272 -16 614v545h340v-1458h-512l-254 575q-135 305 -238 584h-4q16 -328 17 -614v-545z" />
    <glyph glyph-name="Xi" unicode="&#x39e;" horiz-adv-x="1384" 
d="M96 0v330h1192v-330h-1192zM160 569v330h1065v-330h-1065zM125 1128v330h1135v-330h-1135z" />
    <glyph glyph-name="Omicron" unicode="&#x39f;" horiz-adv-x="1550" 
d="M440 729q0 -215 88 -335t247 -120t247 120t88 335t-88 335t-247 120t-247 -120t-88 -335zM1481 729.5q0 -233.5 -86 -405.5t-245 -264.5t-375 -92.5t-374.5 92.5t-244.5 264.5t-86 405.5t86 405.5t244.5 264t374.5 92t375 -92t245 -264t86 -405.5z" />
    <glyph glyph-name="Pi" unicode="&#x3a0;" horiz-adv-x="1536" 
d="M1028 0v1157h-518v-1157h-354v1458h1224v-1458h-352z" />
    <glyph glyph-name="Rho" unicode="&#x3a1;" horiz-adv-x="1339" 
d="M510 774h180q242 0 242 200t-242 200h-180v-400zM1294 974q0 -226 -141 -356t-414 -129h-229v-489h-354v1458h583q273 0 414 -129t141 -355z" />
    <glyph glyph-name="Sigma" unicode="&#x3a3;" horiz-adv-x="1214" 
d="M483 1159v-4l324 -414l-350 -438v-4h714v-299h-1122v307l340 434l-317 416v301h1071v-299h-660z" />
    <glyph glyph-name="Tau" unicode="&#x3a4;" horiz-adv-x="1284" 
d="M819 1157v-1157h-354v1157h-447v301h1248v-301h-447z" />
    <glyph glyph-name="Upsilon" unicode="&#x3a5;" horiz-adv-x="1357" 
d="M856 0h-354v551l-500 907h393l127 -264q88 -182 156 -367h4q61 176 154 367l127 264h393l-500 -907v-551z" />
    <glyph glyph-name="Phi" unicode="&#x3a6;" horiz-adv-x="1761" 
d="M1333 735q0 174 -75.5 268.5t-215.5 106.5v-750q140 13 215.5 107t75.5 268zM428 739q0 -174 76 -270t215 -109v750q-141 -12 -216 -104.5t-75 -266.5zM1692 736q0 -302 -168 -466t-473 -186v-150h-340v150q-305 23 -473 188.5t-168 466.5t168 463t473 184v138h340v-138
q305 -22 473 -185t168 -465z" />
    <glyph glyph-name="Chi" unicode="&#x3a7;" horiz-adv-x="1370" 
d="M1368 0h-418l-262 504h-4l-264 -504h-416l453 748l-428 710h407l248 -487h4l246 487h407l-428 -710z" />
    <glyph glyph-name="Psi" unicode="&#x3a8;" horiz-adv-x="1761" 
d="M1055 0h-348v324q-319 23 -476 181.5t-157 471.5v481h348v-465q0 -188 65.5 -274t219.5 -101v840h348v-840q154 14 219 100.5t65 274.5v465h349v-481q0 -313 -157 -472t-476 -181v-324z" />
    <glyph glyph-name="uni03A9" unicode="&#x3a9;" horiz-adv-x="1529" 
d="M1450 854q0 -168 -70.5 -298t-199.5 -253v-4h293v-299h-613v311q104 106 161.5 220t57.5 284t-86 269.5t-228 99.5t-228 -99.5t-86 -269.5t57 -283.5t162 -220.5v-311h-613v299h293v4q-129 121 -199.5 252t-70.5 299q0 311 186.5 474t498.5 163t498.5 -162t186.5 -475z
" />
    <glyph glyph-name="Iotadieresis" unicode="&#x3aa;" horiz-adv-x="665" 
d="M156 0v1458h354v-1458h-354zM420 1608v268h291v-268h-291zM-45 1608v268h293v-268h-293z" />
    <glyph glyph-name="Upsilondieresis" unicode="&#x3ab;" horiz-adv-x="1357" 
d="M856 0h-354v551l-500 907h393l127 -264q88 -182 156 -367h4q61 176 154 367l127 264h393l-500 -907v-551zM766 1575v268h291v-268h-291zM301 1575v268h293v-268h-293z" />
    <glyph glyph-name="alphatonos" unicode="&#x3ac;" horiz-adv-x="1296" 
d="M418 520q0 -133 53 -212t140 -79t139.5 78t52.5 213t-52.5 213t-139.5 78t-140 -79t-53 -212zM805 133q-101 -162 -323 -162q-112 0 -212 67.5t-154.5 191.5t-54.5 290t54.5 290t154.5 192t212 67q215 0 313 -162h4q4 68 16 133h336q-20 -147 -21 -368v-307
q0 -125 78 -125q36 0 60 6v-236q-90 -29 -201 -28q-205 0 -258 151h-4zM481 1159l66 340h332l-146 -340h-252z" />
    <glyph glyph-name="epsilontonos" unicode="&#x3ad;" horiz-adv-x="1093" 
d="M1020 696h-318q0 66 -40.5 103t-110 37t-105.5 -27t-36 -75t39.5 -75.5t111.5 -27.5h103v-215h-103q-170 0 -170 -109q0 -47 41 -74.5t109 -27.5q172 0 172 145h327q0 -188 -130 -285.5t-362 -97.5t-357 83t-125 235q0 98 49 159.5t155 94.5v4q-96 33 -138 87t-42 138
q0 143 122 224t336 81t343 -100.5t129 -276.5zM406 1159l65 340h332l-146 -340h-251z" />
    <glyph glyph-name="etatonos" unicode="&#x3ae;" horiz-adv-x="1288" 
d="M168 666q0 139 -79 139q-38 0 -60 -6v229q102 31 199 31t156.5 -42t84.5 -136h4q53 88 138 138t190 50q174 0 273.5 -110.5t99.5 -319.5v-1018h-340v975q0 209 -152 209q-80 0 -127 -67.5t-47 -194.5v-543h-340v666zM438 1159l66 340h332l-146 -340h-252z" />
    <glyph glyph-name="iotatonos" unicode="&#x3af;" horiz-adv-x="684" 
d="M455 434q1 -188 119 -188q58 0 88 10v-252q-78 -20 -173 -20q-197 0 -285.5 92t-88.5 299v665h340v-606zM158 1159l65 340h332l-145 -340h-252z" />
    <glyph glyph-name="upsilondieresistonos" unicode="&#x3b0;" horiz-adv-x="1255" 
d="M504 719v-316q0 -94 34.5 -136t106.5 -42q184 0 184 324q0 266 -69 491h330q76 -226 76 -506q-1 -567 -515 -567q-244 0 -366.5 100.5t-122.5 313.5v262q0 90 -20.5 124t-58.5 34t-60 -6v233q98 31 190 31q149 0 220 -77t71 -263zM829 1182v256h265v-256h-265zM119 1182
v256h264v-256h-264zM446 1159l64 330h276l-114 -330h-226z" />
    <glyph glyph-name="alpha" unicode="&#x3b1;" horiz-adv-x="1296" 
d="M418 520q0 -133 53 -212t140 -79t139.5 78t52.5 213t-52.5 213t-139.5 78t-140 -79t-53 -212zM805 133q-101 -162 -323 -162q-112 0 -212 67.5t-154.5 191.5t-54.5 290t54.5 290t154.5 192t212 67q215 0 313 -162h4q4 68 16 133h336q-20 -147 -21 -368v-307
q0 -125 78 -125q36 0 60 6v-236q-90 -29 -201 -28q-205 0 -258 151h-4z" />
    <glyph glyph-name="beta" unicode="&#x3b2;" horiz-adv-x="1257" 
d="M465 999v-593q0 -82 46 -128.5t139 -46.5t147.5 53.5t54.5 151.5q0 205 -260 205h-27v264h27q106 0 161.5 46t55.5 126t-44 123t-129 43q-171 0 -171 -244zM1128 1116q0 -256 -254 -330v-4q160 -39 243 -131t83 -250q0 -195 -126 -308t-326 -113t-279 94h-4v-453h-340
l2 1368q0 238 133.5 370t367.5 132t367 -100.5t133 -274.5z" />
    <glyph glyph-name="gamma" unicode="&#x3b3;" horiz-adv-x="1173" 
d="M743 -12q0 -200 -22 -367h-340q22 167 22 333q0 165 -43 347t-103 308t-102 161t-94 35q-18 0 -47 -4v233q78 27 182 27t175 -53.5t147 -228.5t111 -402h4q146 320 172 663h352q-31 -292 -127 -525.5t-287 -502.5v-24z" />
    <glyph glyph-name="delta" unicode="&#x3b4;" horiz-adv-x="1226" 
d="M420 479q0 -121 51 -190.5t141 -69.5t142.5 69.5t52.5 190.5t-52.5 190.5t-142.5 69.5t-141 -69.5t-51 -190.5zM666 1239q-105 0 -105 -51q0 -31 48 -62.5t163 -89.5q199 -98 296 -230t97 -310t-68.5 -291t-193.5 -174.5t-290 -61.5t-289.5 61.5t-193.5 174t-69 274.5
t96.5 281t272.5 160v4q-119 78 -174 145.5t-55 151.5q0 258 420 258q236 0 426 -49v-267q-189 76 -381 76z" />
    <glyph glyph-name="epsilon" unicode="&#x3b5;" horiz-adv-x="1093" 
d="M1020 696h-318q0 66 -40.5 103t-110 37t-105.5 -27t-36 -75t39.5 -75.5t111.5 -27.5h103v-215h-103q-170 0 -170 -109q0 -47 41 -74.5t109 -27.5q172 0 172 145h327q0 -188 -130 -285.5t-362 -97.5t-357 83t-125 235q0 98 49 159.5t155 94.5v4q-96 33 -138 87t-42 138
q0 143 122 224t336 81t343 -100.5t129 -276.5z" />
    <glyph glyph-name="zeta" unicode="&#x3b6;" horiz-adv-x="1011" 
d="M987 -61q0 -124 -59 -236h-269q31 71 31 139t-41 106t-155 50q-238 29 -335.5 128t-97.5 311t142.5 415t394.5 358v4h-483v244h864v-244q-274 -151 -417.5 -328t-143.5 -392q0 -113 64.5 -171.5t225.5 -84.5t220 -100.5t59 -198.5z" />
    <glyph glyph-name="eta" unicode="&#x3b7;" horiz-adv-x="1288" 
d="M168 666q0 139 -79 139q-38 0 -60 -6v229q102 31 199 31t156.5 -42t84.5 -136h4q53 88 138 138t190 50q174 0 273.5 -110.5t99.5 -319.5v-1018h-340v975q0 209 -152 209q-80 0 -127 -67.5t-47 -194.5v-543h-340v666z" />
    <glyph glyph-name="theta" unicode="&#x3b8;" horiz-adv-x="1306" 
d="M416 614q28 -399 184 -399t216.5 102.5t72.5 296.5h-473zM653.5 1243q-102.5 0 -163 -101.5t-74.5 -297.5h473q-12 195 -72.5 297t-163 102zM1239 729q0 -367 -151.5 -563.5t-434 -196.5t-434 196.5t-151.5 563.5t151.5 563.5t434 196.5t434 -196.5t151.5 -563.5z" />
    <glyph glyph-name="iota" unicode="&#x3b9;" horiz-adv-x="684" 
d="M455 434q1 -188 119 -188q58 0 88 10v-252q-78 -20 -173 -20q-197 0 -285.5 92t-88.5 299v665h340v-606z" />
    <glyph glyph-name="kappa" unicode="&#x3ba;" horiz-adv-x="1196" 
d="M459 0h-340v1040h340v-417h4l168 196q115 133 208 185.5t214 52.5q57 0 110 -17v-278q-31 12 -93 12q-136 0 -320 -201l471 -573h-406l-272 340l-84 -94v-246z" />
    <glyph glyph-name="lambda" unicode="&#x3bb;" horiz-adv-x="1259" 
d="M1217 233q12 0 28 5v-238q-55 -18 -144 -18t-181 38t-172 275q-76 213 -134 391h-2q-61 -170 -149 -395l-115 -291h-364l460 1028q-37 104 -81 146.5t-107 42.5t-106 -17v250q70 29 188 29t197 -36t146 -127t130 -263l227 -609q47 -125 87 -168t92 -43z" />
    <glyph glyph-name="uni03BC" unicode="&#x3bc;" horiz-adv-x="1282" 
d="M1126 365q0 -125 77 -125q36 0 61 6v-236q-86 -29 -201 -28q-197 0 -246 153h-4q-29 -70 -89 -108.5t-137 -38.5t-122 32v-399h-340v1419h340v-596q0 -207 149 -206q80 0 126 63.5t46 192.5v546h340v-675z" />
    <glyph glyph-name="nu" unicode="&#x3bd;" horiz-adv-x="1148" 
d="M776 961q0 43 -6 79h336q10 -43 10 -130t-36.5 -250t-272.5 -660h-461l-170 633q-27 98 -53.5 135t-73.5 37q-18 0 -39 -4v227q72 31 182 31t187.5 -78t109.5 -252l97 -485h4q106 260 146 419.5t40 297.5z" />
    <glyph glyph-name="xi" unicode="&#x3be;" horiz-adv-x="1021" 
d="M997 -65q0 -128 -59 -232h-268q76 175 3 232t-214 71q-398 38 -398 348q0 309 316 379v4q-102 25 -158.5 89.5t-56.5 160.5q0 174 151 223v4h-204v244h884v-244h-215q-311 0 -311 -198q0 -76 59.5 -115t165.5 -39h221v-241h-198q-152 0 -224.5 -52.5t-72.5 -142.5
q0 -57 27.5 -94t93 -59.5t203.5 -40.5t196.5 -93.5t58.5 -203.5z" />
    <glyph glyph-name="omicron" unicode="&#x3bf;" horiz-adv-x="1236" 
d="M420 520q0 -137 52 -216t146.5 -79t146.5 79t52 216t-52 216t-146.5 79t-146.5 -79t-52 -216zM1176 520q0 -168 -69 -293t-195 -192.5t-293.5 -67.5t-293.5 67.5t-195 192.5t-69 293t69 293t195 192.5t293.5 67.5t293.5 -67.5t195 -192.5t69 -293z" />
    <glyph glyph-name="pi" unicode="&#x3c0;" horiz-adv-x="1396" 
d="M1174 793v-420q0 -78 24.5 -107.5t70.5 -29.5t64 6v-238q-72 -23 -184 -22q-164 0 -239.5 78.5t-75.5 265.5v467h-297v-793h-340v793h-181v247h1346v-247h-188z" />
    <glyph glyph-name="rho" unicode="&#x3c1;" horiz-adv-x="1251" 
d="M436 520q0 -133 52.5 -211t144.5 -78t146.5 77t54.5 212t-54.5 214t-146.5 79t-144.5 -80t-52.5 -213zM691 -27q-155 0 -232 90h-4v-442h-340v899q0 168 65.5 293t186 192.5t282.5 67.5t285 -69.5t189.5 -197.5t66.5 -295t-60.5 -287t-172 -185.5t-266.5 -65.5z" />
    <glyph glyph-name="sigma1" unicode="&#x3c2;" horiz-adv-x="1167" 
d="M592 817q-82 0 -130 -66.5t-48 -191.5t74.5 -198.5t243.5 -97.5t234.5 -105.5t65.5 -213.5t-59 -241h-268q31 67 31 141t-51.5 115t-197.5 57q-432 46 -432 514q0 256 143.5 399.5t392.5 143.5t384 -124t149 -337h-352q-6 94 -52 149.5t-128 55.5z" />
    <glyph glyph-name="sigma" unicode="&#x3c3;" horiz-adv-x="1298" 
d="M420 513q0 -138 51 -213t147 -75t147.5 75t51.5 213t-51.5 214t-147.5 76t-147 -76t-51 -214zM1163 487q0 -158 -66.5 -275.5t-189.5 -181t-290 -63.5t-292.5 65.5t-194.5 187.5t-69 285t69 283.5t195 186t293 65.5h662v-243h-240v-4q123 -110 123 -306z" />
    <glyph glyph-name="tau" unicode="&#x3c4;" horiz-adv-x="987" 
d="M653 797v-424q0 -78 24.5 -107.5t70.5 -29.5t65 6v-238q-72 -23 -184 -22q-164 0 -240 78.5t-76 265.5v471h-297v243h957v-243h-320z" />
    <glyph glyph-name="upsilon" unicode="&#x3c5;" horiz-adv-x="1255" 
d="M504 719v-316q0 -94 34.5 -136t106.5 -42q184 0 184 324q0 266 -69 491h330q76 -226 76 -506q-1 -567 -515 -567q-244 0 -366.5 100.5t-122.5 313.5v262q0 90 -20.5 124t-58.5 34t-60 -6v233q98 31 190 31q149 0 220 -77t71 -263z" />
    <glyph glyph-name="phi" unicode="&#x3c6;" horiz-adv-x="1662" 
d="M1255 520.5q0 143.5 -67.5 223t-194.5 87.5v-622q127 8 194.5 88t67.5 223.5zM408 520.5q0 -143.5 67.5 -223.5t194.5 -88v622q-127 -8 -194.5 -87.5t-67.5 -223zM993 -379h-323v346q-281 12 -445 157.5t-164 395.5t164 395.5t445 157.5v283h323v-283q281 -12 445 -157.5
t164 -395.5t-164 -395t-445 -158v-346z" />
    <glyph glyph-name="chi" unicode="&#x3c7;" horiz-adv-x="1263" 
d="M218 1069q116 0 192.5 -57.5t138.5 -202.5l92 -215h4l248 446h373l-428 -714l143 -303q47 -100 90 -133t87 -33t79 4v-228q-81 -31 -195 -31t-192 57.5t-141 203.5l-82 186h-4l-263 -428h-374l452 686l-155 334q-47 102 -90 138t-97 36t-82 -8v229q88 33 204 33z" />
    <glyph glyph-name="psi" unicode="&#x3c8;" horiz-adv-x="1732" 
d="M1042 -379h-340v361q-291 14 -439 136t-148 365v557h340v-522q0 -252 247 -280v1118h340v-1118q260 35 261 327q0 266 -80 475h336q83 -223 83 -490q-1 -540 -600 -568v-361z" />
    <glyph glyph-name="omega" unicode="&#x3c9;" horiz-adv-x="1746" 
d="M1657 459q0 -490 -432 -490q-287 0 -351 217h-4q-63 -217 -350 -217q-217 0 -323.5 126t-106.5 364q0 317 133 581h355q-136 -245 -136 -531t146 -286q115 0 114 164v412h340v-412q0 -164 117 -164q145 0 145.5 287t-135.5 530h355q133 -264 133 -581z" />
    <glyph glyph-name="iotadieresis" unicode="&#x3ca;" horiz-adv-x="684" 
d="M455 434q1 -188 119 -188q58 0 88 10v-252q-78 -20 -173 -20q-197 0 -285.5 92t-88.5 299v665h340v-606zM371 1190v268h291v-268h-291zM-94 1190v268h293v-268h-293z" />
    <glyph glyph-name="upsilondieresis" unicode="&#x3cb;" horiz-adv-x="1255" 
d="M504 719v-316q0 -94 34.5 -136t106.5 -42q184 0 184 324q0 266 -69 491h330q76 -226 76 -506q-1 -567 -515 -567q-244 0 -366.5 100.5t-122.5 313.5v262q0 90 -20.5 124t-58.5 34t-60 -6v233q98 31 190 31q149 0 220 -77t71 -263zM694 1190v268h291v-268h-291zM229 1190
v268h293v-268h-293z" />
    <glyph glyph-name="omicrontonos" unicode="&#x3cc;" horiz-adv-x="1236" 
d="M420 520q0 -137 52 -216t146.5 -79t146.5 79t52 216t-52 216t-146.5 79t-146.5 -79t-52 -216zM1176 520q0 -168 -69 -293t-195 -192.5t-293.5 -67.5t-293.5 67.5t-195 192.5t-69 293t69 293t195 192.5t293.5 67.5t293.5 -67.5t195 -192.5t69 -293zM492 1159l65 340h332
l-146 -340h-251z" />
    <glyph glyph-name="upsilontonos" unicode="&#x3cd;" horiz-adv-x="1255" 
d="M504 719v-316q0 -94 34.5 -136t106.5 -42q184 0 184 324q0 266 -69 491h330q76 -226 76 -506q-1 -567 -515 -567q-244 0 -366.5 100.5t-122.5 313.5v262q0 90 -20.5 124t-58.5 34t-60 -6v233q98 31 190 31q149 0 220 -77t71 -263zM479 1159l66 340h332l-146 -340h-252z
" />
    <glyph glyph-name="omegatonos" unicode="&#x3ce;" horiz-adv-x="1746" 
d="M1657 459q0 -490 -432 -490q-287 0 -351 217h-4q-63 -217 -350 -217q-217 0 -323.5 126t-106.5 364q0 317 133 581h355q-136 -245 -136 -531t146 -286q115 0 114 164v412h340v-412q0 -164 117 -164q145 0 145.5 287t-135.5 530h355q133 -264 133 -581zM745 1159l66 340
h332l-146 -340h-252z" />
    <glyph glyph-name="uni0400" unicode="&#x400;" horiz-adv-x="1298" 
d="M510 1161v-276h631v-293h-631v-295h692v-297h-1046v1458h1030v-297h-676zM868 1556h-262l-289 310h392z" />
    <glyph glyph-name="uni0401" unicode="&#x401;" horiz-adv-x="1298" 
d="M510 1161v-276h631v-293h-631v-295h692v-297h-1046v1458h1030v-297h-676zM760 1575v268h291v-268h-291zM295 1575v268h293v-268h-293z" />
    <glyph glyph-name="uni0402" unicode="&#x402;" horiz-adv-x="1677" 
d="M819 1157v-276q129 66 303 65q244 0 377 -128t133 -357t-131 -358.5t-366 -129.5q-109 0 -195 27v276q59 -16 125 -16q211 0 211 195q0 203 -227 202q-133 0 -230 -55v-602h-354v1157h-447v301h1248v-301h-447z" />
    <glyph glyph-name="uni0403" unicode="&#x403;" horiz-adv-x="1062" 
d="M156 1458h888v-301h-534v-1157h-354v1458zM403 1556l160 310h391l-288 -310h-263z" />
    <glyph glyph-name="uni0404" unicode="&#x404;" horiz-adv-x="1488" 
d="M764 -33q-215 0 -371.5 92.5t-239.5 263.5t-83 406.5t84 406.5t240.5 263t359 92t345 -67.5t223.5 -191.5t89 -292h-360q-16 119 -90 184.5t-197 65.5t-206 -83t-112 -235h465v-286h-465q27 -152 110 -235t206 -83t198.5 67.5t90.5 190.5h366q-22 -266 -196 -412.5
t-457 -146.5z" />
    <glyph glyph-name="uni0405" unicode="&#x405;" horiz-adv-x="1320" 
d="M1217 1014h-369q0 98 -56.5 150.5t-152.5 52.5t-148.5 -38t-52.5 -92.5t28 -84t87 -52t204.5 -58.5t253 -82t176 -136t68.5 -235.5t-73.5 -251t-207.5 -163t-315 -57.5q-287 0 -448.5 133t-161.5 375h377q0 -225 242 -225q100 0 157.5 41t57.5 103t-28 93t-81 50.5
t-200.5 57.5t-254 83t-176 133t-69.5 228.5t69.5 240.5t199.5 155.5t302 55.5q277 0 424.5 -122t147.5 -355z" />
    <glyph glyph-name="uni0406" unicode="&#x406;" horiz-adv-x="665" 
d="M156 0v1458h354v-1458h-354z" />
    <glyph glyph-name="uni0407" unicode="&#x407;" horiz-adv-x="665" 
d="M156 0v1458h354v-1458h-354zM420 1575v268h291v-268h-291zM-45 1575v268h293v-268h-293z" />
    <glyph glyph-name="uni0408" unicode="&#x408;" horiz-adv-x="839" 
d="M190 -16q-94 0 -159 18v295q47 -10 109 -10q62 1 109 25q91 48 91 259v887h354v-964q0 -263 -121.5 -386.5t-382.5 -123.5z" />
    <glyph glyph-name="uni0409" unicode="&#x409;" horiz-adv-x="2199" 
d="M1370 285h180q242 -1 242 199t-242 200h-180v-399zM1599 969q272 0 413.5 -129.5t141.5 -355.5t-141 -355t-414 -129h-583v1157h-359q-18 -492 -74.5 -741.5t-160 -339.5t-285.5 -90q-72 0 -114 14v287q16 -4 36 -4q96 0 145.5 87t76 332.5t41.5 755.5h1048v-489h229z
" />
    <glyph glyph-name="uni040A" unicode="&#x40a;" horiz-adv-x="2232" 
d="M1825 484q0 200 -242 200h-180v-399h180q242 -1 242 199zM2187 484q0 -226 -141 -355t-414 -129h-583v604h-539v-604h-354v1458h354v-553h539v553h354v-489h229q273 0 414 -129.5t141 -355.5z" />
    <glyph glyph-name="uni040B" unicode="&#x40b;" horiz-adv-x="1677" 
d="M1260 373q0 227 -227 227q-116 0 -214 -33v-567h-354v1157h-447v301h1248v-301h-447v-299q145 43 326 43q227 0 348 -118.5t121 -340.5v-442h-354v373z" />
    <glyph glyph-name="uni040C" unicode="&#x40c;" horiz-adv-x="1413" 
d="M510 672v-672h-354v1458h354v-629h4l428 629h424l-530 -690l569 -768h-447l-444 672h-4zM510 1556l160 310h391l-289 -310h-262z" />
    <glyph glyph-name="uni040D" unicode="&#x40d;" horiz-adv-x="1640" 
d="M496 913q0 -287 -17 -614h4q102 279 238 584l254 575h512v-1458h-340v545q0 342 16 614h-4q-102 -270 -237 -584l-256 -575h-510v1458h340v-545zM987 1556h-262l-289 310h391z" />
    <glyph glyph-name="uni040E" unicode="&#x40e;" horiz-adv-x="1431" 
d="M343.5 279q66.5 0 110.5 33.5t44 84t-14.5 84t-90.5 187.5l-391 790h385l191 -440q86 -203 139 -340h4q74 201 156 389l167 391h386l-564 -1167q-150 -311 -426 -311q-126 0 -204 20v291q41 -12 107.5 -12zM716 1747q139 0 148 119h217q-8 -150 -103 -233t-261 -83
t-261.5 83t-103.5 233h217q4 -57 41.5 -88t105.5 -31z" />
    <glyph glyph-name="uni040F" unicode="&#x40f;" horiz-adv-x="1538" 
d="M932 0v-328h-340v328h-436v1458h356v-1157h514v1157h356v-1458h-450z" />
    <glyph glyph-name="uni0410" unicode="&#x410;" horiz-adv-x="1464" 
d="M881 698q-88 291 -148 531h-4q-61 -254 -143 -531l-29 -98h354zM469 309l-94 -309h-373l498 1458h465l497 -1458h-372l-93 309h-528z" />
    <glyph glyph-name="uni0411" unicode="&#x411;" horiz-adv-x="1384" 
d="M504 274h205q236 0 235 179q0 182 -235 182h-205v-361zM504 1171v-264h276q250 0 390.5 -121.5t140.5 -332.5t-140.5 -332t-390.5 -121h-624v1458h1061v-287h-713z" />
    <glyph glyph-name="uni0412" unicode="&#x412;" horiz-adv-x="1359" 
d="M504 276h192q123 0 177 39q55 39 55 125t-56 127t-182 41h-186v-332zM504 868h184q117 0 171 39t54 121t-51 119t-162 37h-196v-316zM1255 1083q0 -127 -60 -207t-187 -126v-5q285 -63 284 -339q0 -186 -141 -296t-391 -110h-604v1458h569q264 0 397 -100t133 -275z" />
    <glyph glyph-name="uni0413" unicode="&#x413;" horiz-adv-x="1062" 
d="M156 1458h888v-301h-534v-1157h-354v1458z" />
    <glyph glyph-name="uni0414" unicode="&#x414;" horiz-adv-x="1652" 
d="M1096 301v856h-412q-16 -565 -106 -856h518zM1630 -328h-340v328h-919v-328h-340v629h178q61 129 95 383t44 774h1102v-1157h180v-629z" />
    <glyph glyph-name="uni0415" unicode="&#x415;" horiz-adv-x="1298" 
d="M510 1161v-276h631v-293h-631v-295h692v-297h-1046v1458h1030v-297h-676z" />
    <glyph glyph-name="uni0416" unicode="&#x416;" horiz-adv-x="1951" 
d="M1151 713v-713h-348v713h-4l-373 -713h-418l467 762l-432 696h408l348 -663h4v663h348v-663h4l346 663h408l-432 -696l467 -762h-418l-371 713h-4z" />
    <glyph glyph-name="uni0417" unicode="&#x417;" horiz-adv-x="1335" 
d="M662 1202q-224 0 -224 -215h-375q0 238 160.5 370t436.5 132t430.5 -108.5t154.5 -305.5q0 -121 -60.5 -196.5t-195.5 -122.5v-4q145 -47 213 -132t68 -223q0 -201 -160 -315.5t-450 -114.5t-453.5 131t-163.5 381h381q0 -225 250 -225q98 0 157.5 44t59.5 118
q0 176 -268 176h-91v278h91q119 0 186.5 46t67.5 122t-57.5 120t-157.5 44z" />
    <glyph glyph-name="uni0418" unicode="&#x418;" horiz-adv-x="1640" 
d="M496 913q0 -287 -17 -614h4q102 279 238 584l254 575h512v-1458h-340v545q0 342 16 614h-4q-102 -270 -237 -584l-256 -575h-510v1458h340v-545z" />
    <glyph glyph-name="uni0419" unicode="&#x419;" horiz-adv-x="1640" 
d="M496 913q0 -287 -17 -614h4q102 279 238 584l254 575h512v-1458h-340v545q0 342 16 614h-4q-102 -270 -237 -584l-256 -575h-510v1458h340v-545zM792 1747q139 0 148 119h217q-8 -150 -103.5 -233t-261 -83t-261 83t-103.5 233h217q4 -57 41.5 -88t105.5 -31z" />
    <glyph glyph-name="uni041A" unicode="&#x41a;" horiz-adv-x="1413" 
d="M510 672v-672h-354v1458h354v-629h4l428 629h424l-530 -690l569 -768h-447l-444 672h-4z" />
    <glyph glyph-name="uni041B" unicode="&#x41b;" horiz-adv-x="1525" 
d="M1016 0v1157h-359q-18 -492 -74.5 -741.5t-160 -339.5t-285.5 -90q-72 0 -114 14v287q16 -4 36 -4q96 0 145.5 87t76 332.5t41.5 755.5h1048v-1458h-354z" />
    <glyph glyph-name="uni041C" unicode="&#x41c;" horiz-adv-x="2074" 
d="M1585 0v713q0 272 12 538h-4q-49 -211 -139 -530l-207 -721h-420l-206 721q-90 319 -140 530h-4q12 -266 12 -538v-713h-333v1458h567l186 -647q76 -274 127 -537h4q47 252 125 537l189 647h565v-1458h-334z" />
    <glyph glyph-name="uni041D" unicode="&#x41d;" horiz-adv-x="1558" 
d="M1049 0v604h-539v-604h-354v1458h354v-553h539v553h354v-1458h-354z" />
    <glyph glyph-name="uni041E" unicode="&#x41e;" horiz-adv-x="1550" 
d="M440 729q0 -215 88 -335t247 -120t247 120t88 335t-88 335t-247 120t-247 -120t-88 -335zM1481 729.5q0 -233.5 -86 -405.5t-245 -264.5t-375 -92.5t-374.5 92.5t-244.5 264.5t-86 405.5t86 405.5t244.5 264t374.5 92t375 -92t245 -264t86 -405.5z" />
    <glyph glyph-name="uni041F" unicode="&#x41f;" horiz-adv-x="1536" 
d="M1028 0v1157h-518v-1157h-354v1458h1224v-1458h-352z" />
    <glyph glyph-name="uni0420" unicode="&#x420;" horiz-adv-x="1339" 
d="M510 774h180q242 0 242 200t-242 200h-180v-400zM1294 974q0 -226 -141 -356t-414 -129h-229v-489h-354v1458h583q273 0 414 -129t141 -355z" />
    <glyph glyph-name="uni0421" unicode="&#x421;" horiz-adv-x="1464" 
d="M752 1184q-145 0 -228.5 -122t-83.5 -333t83 -333t225 -122q115 0 187.5 68t86.5 190h371q-20 -270 -192.5 -417.5t-452.5 -147.5q-209 0 -362 92.5t-234.5 263.5t-81.5 406.5t83 406.5t236.5 263t351 92t339 -68.5t221 -194.5t85.5 -294h-366q-12 119 -83 184.5
t-185 65.5z" />
    <glyph glyph-name="uni0422" unicode="&#x422;" horiz-adv-x="1284" 
d="M819 1157v-1157h-354v1157h-447v301h1248v-301h-447z" />
    <glyph glyph-name="uni0423" unicode="&#x423;" horiz-adv-x="1431" 
d="M343.5 279q66.5 0 110.5 33.5t44 84t-14.5 84t-90.5 187.5l-391 790h385l191 -440q86 -203 139 -340h4q74 201 156 389l167 391h386l-564 -1167q-150 -311 -426 -311q-126 0 -204 20v291q41 -12 107.5 -12z" />
    <glyph glyph-name="uni0424" unicode="&#x424;" horiz-adv-x="1802" 
d="M434 729.5q0 -149.5 77 -238t224 -108.5v692q-147 -20 -224 -108t-77 -237.5zM1368 729.5q0 149.5 -78 237.5t-225 108v-692q147 20 225 108.5t78 238zM1071 -53h-342v153q-319 23 -489 184.5t-170 444.5t170 444.5t489 184.5v153h342v-153q319 -23 490.5 -183.5
t171.5 -445.5t-171 -445.5t-491 -183.5v-153z" />
    <glyph glyph-name="uni0425" unicode="&#x425;" horiz-adv-x="1370" 
d="M1368 0h-418l-262 504h-4l-264 -504h-416l453 748l-428 710h407l248 -487h4l246 487h407l-428 -710z" />
    <glyph glyph-name="uni0426" unicode="&#x426;" horiz-adv-x="1595" 
d="M1563 301v-629h-340v328h-1067v1458h356v-1157h514v1157h356v-1157h181z" />
    <glyph glyph-name="uni0427" unicode="&#x427;" horiz-adv-x="1427" 
d="M571 487q-246 0 -377 119t-131 338v514h355v-444q0 -109 64.5 -167.5t190.5 -58.5t245 31v639h354v-1458h-354v528q-164 -41 -347 -41z" />
    <glyph glyph-name="uni0428" unicode="&#x428;" horiz-adv-x="2138" 
d="M156 0v1458h356v-1157h379v1157h356v-1157h381v1157h354v-1458h-1826z" />
    <glyph glyph-name="uni0429" unicode="&#x429;" horiz-adv-x="2185" 
d="M2163 301v-629h-340v328h-1667v1458h356v-1157h379v1157h356v-1157h381v1157h354v-1157h181z" />
    <glyph glyph-name="uni042A" unicode="&#x42a;" horiz-adv-x="1587" 
d="M758 285h180q242 -1 242 199t-242 200h-180v-399zM987 969q272 0 413.5 -129.5t141.5 -355.5t-141 -355t-414 -129h-584v1157h-385v301h740v-489h229z" />
    <glyph glyph-name="uni042B" unicode="&#x42b;" horiz-adv-x="2004" 
d="M932 484q0 200 -242 200h-180v-399h180q242 -1 242 199zM1495 0v1458h354v-1458h-354zM156 1458h354v-489h229q272 0 413.5 -129t141.5 -355.5t-141 -355.5t-414 -129h-583v1458z" />
    <glyph glyph-name="uni042C" unicode="&#x42c;" horiz-adv-x="1339" 
d="M932 484q0 200 -242 200h-180v-399h180q242 -1 242 199zM156 1458h354v-489h229q272 0 413.5 -129.5t141.5 -355.5t-141 -355t-414 -129h-583v1458z" />
    <glyph glyph-name="uni042D" unicode="&#x42d;" horiz-adv-x="1488" 
d="M1419 729.5q0 -235.5 -83 -406.5t-239.5 -263.5t-369.5 -92.5q-285 0 -459 146.5t-196 412.5h366q16 -123 92 -190.5t199 -67.5t205 83t108 235h-464v286h464q-29 152 -111.5 235t-205.5 83t-196.5 -65.5t-88.5 -184.5h-362q8 166 89 291t224.5 192.5t345 67.5t358 -92
t240.5 -263t84 -406.5z" />
    <glyph glyph-name="uni042E" unicode="&#x42e;" horiz-adv-x="2158" 
d="M1722 728q0 214 -81.5 335t-227 121t-228.5 -120t-83 -335t83 -335t228.5 -120t227 120t81.5 334zM2089 727.5q0 -233.5 -82 -404.5t-235.5 -263.5t-360.5 -92.5q-276 0 -452.5 163t-213.5 450h-235v-580h-354v1458h354v-577h235q39 285 215.5 447.5t450.5 162.5
q207 0 360.5 -93t235.5 -265t82 -405.5z" />
    <glyph glyph-name="uni042F" unicode="&#x42f;" horiz-adv-x="1390" 
d="M670 1184q-244 0 -244 -197q0 -203 229 -203h226v400h-211zM1237 0h-356v516h-258l-244 -516h-381l301 584q-223 113 -223 409q0 225 138 345t413 120h610v-1458z" />
    <glyph glyph-name="uni0430" unicode="&#x430;" horiz-adv-x="1148" 
d="M381 318q0 -56 35 -87.5t87 -31.5q103 0 154 53q31 33 41.5 73t10.5 109v37q-235 -10 -295 -66q-34 -31 -33 -87zM1036 651v-358q0 -184 31 -293h-307q-14 57 -15 135h-4q-119 -162 -338 -162q-166 0 -262 90.5t-96 228.5q-1 138 95 220q136 116 569 145v37q0 84 -39 124
t-108 40t-106.5 -38t-39.5 -107h-328q8 158 127 259t352.5 101t351 -107.5t117.5 -314.5z" />
    <glyph glyph-name="uni0431" unicode="&#x431;" horiz-adv-x="1243" 
d="M612 770q-192 0 -192 -268q0 -135 51 -210t145.5 -75t145.5 71.5t51 203.5t-53 205t-148 73zM1169 508q0 -158 -67.5 -282t-192.5 -191.5t-291 -67.5q-266 0 -408 158t-142 468t68.5 491.5t208 261.5t397.5 98t370 47v-274q-106 -31 -304 -38t-291 -45t-136 -112
t-57 -197h4q86 180 354 181q147 0 258 -59.5t170 -170t59 -268.5z" />
    <glyph glyph-name="uni0432" unicode="&#x432;" horiz-adv-x="1163" 
d="M451 207h133q174 0 174 112.5t-174 112.5h-133v-225zM451 621h135q156 0 155.5 106.5t-155.5 106.5h-135v-213zM1098 291q0 -139 -113 -215t-321 -76h-539v1040h520q426 1 426 -280q0 -90 -48 -143.5t-149 -79.5v-5q224 -40 224 -241z" />
    <glyph glyph-name="uni0433" unicode="&#x433;" horiz-adv-x="925" 
d="M465 793v-793h-340v1040h782v-247h-442z" />
    <glyph glyph-name="uni0434" unicode="&#x434;" horiz-adv-x="1368" 
d="M877 248v545h-279q-18 -348 -78 -545h357zM1352 -328h-336v328h-664v-328h-336v576h125q55 90 87 261t51 531h933v-792h140v-576z" />
    <glyph glyph-name="uni0435" unicode="&#x435;" horiz-adv-x="1196" 
d="M597 850q-167 0 -196 -207h392q-10 104 -63.5 155.5t-132.5 51.5zM584.5 -33q-152.5 0 -274.5 72t-185.5 199t-63.5 286.5t63.5 283.5t185.5 194.5t296 70.5t303 -89t185 -245q41 -105 41 -288h-740q6 -137 61.5 -196.5t134.5 -59.5t126 34.5t55 89.5h346
q-23 -98 -92.5 -179t-179 -127t-262 -46z" />
    <glyph glyph-name="uni0436" unicode="&#x436;" horiz-adv-x="1628" 
d="M979 516v-516h-330v516h-4l-268 -516h-400l363 557l-326 483h377l254 -452h4v452h330v-452h4l254 452h377l-326 -483l363 -557h-402l-266 516h-4z" />
    <glyph glyph-name="uni0437" unicode="&#x437;" horiz-adv-x="1089" 
d="M999 768q0 -84 -42 -138.5t-138 -86.5v-4q109 -33 157 -94.5t48 -159.5q0 -154 -125 -236t-357 -82t-361.5 97.5t-129.5 285.5h326q0 -145 174 -145q68 0 107.5 27.5t39.5 74.5q0 109 -170 109h-100v215h100q72 0 112 27.5t40 75.5t-36 75t-106 27t-110.5 -37t-40.5 -103
h-315q0 176 129 276.5t342 100.5t334.5 -81t121.5 -224z" />
    <glyph glyph-name="uni0438" unicode="&#x438;" horiz-adv-x="1406" 
d="M952 0v369q0 207 19 411h-4q-59 -190 -154 -383l-197 -397h-491v1040h330v-370q0 -213 -21 -410h4q66 197 156 383l197 397h491v-1040h-330z" />
    <glyph glyph-name="uni0439" unicode="&#x439;" horiz-adv-x="1406" 
d="M952 0v369q0 207 19 411h-4q-59 -190 -154 -383l-197 -397h-491v1040h330v-370q0 -213 -21 -410h4q66 197 156 383l197 397h491v-1040h-330zM704.5 1143q-165.5 0 -261 83t-103.5 232h217q4 -57 42 -88t105.5 -31t105.5 31t42 88h217q-8 -149 -103.5 -232t-261 -83z" />
    <glyph glyph-name="uni043A" unicode="&#x43a;" horiz-adv-x="1181" 
d="M465 471v-471h-340v1040h340v-409h4l279 409h393l-371 -485l410 -555h-418l-293 471h-4z" />
    <glyph glyph-name="uni043B" unicode="&#x43b;" horiz-adv-x="1216" 
d="M752 0v793h-213q-10 -334 -56.5 -508t-130.5 -236.5t-225 -62.5q-66 0 -115 14v240q20 -4 41 -4q66 0 121 89t64 715h854v-1040h-340z" />
    <glyph glyph-name="uni043C" unicode="&#x43c;" horiz-adv-x="1736" 
d="M1305 0v463q0 164 10 368h-2q-49 -197 -101 -364l-143 -467h-401l-146 467q-72 256 -98 364h-4q10 -205 10 -368v-463h-305v1040h518l133 -432q51 -164 90 -381h4q31 186 88 381l134 432h520v-1040h-307z" />
    <glyph glyph-name="uni043D" unicode="&#x43d;" horiz-adv-x="1273" 
d="M809 0v406h-344v-406h-340v1040h340v-389h344v389h340v-1040h-340z" />
    <glyph glyph-name="uni043E" unicode="&#x43e;" horiz-adv-x="1236" 
d="M420 520q0 -137 52 -216t146.5 -79t146.5 79t52 216t-52 216t-146.5 79t-146.5 -79t-52 -216zM1176 520q0 -168 -69 -293t-195 -192.5t-293.5 -67.5t-293.5 67.5t-195 192.5t-69 293t69 293t195 192.5t293.5 67.5t293.5 -67.5t195 -192.5t69 -293z" />
    <glyph glyph-name="uni043F" unicode="&#x43f;" horiz-adv-x="1259" 
d="M795 0v793h-330v-793h-340v1040h1010v-1040h-340z" />
    <glyph glyph-name="uni0440" unicode="&#x440;" horiz-adv-x="1249" 
d="M638 229q87 0 140 79t53 212t-53 212t-140 79t-139 -78q-53 -78 -53 -213t52 -213t140 -78zM457 911q97 158 311 158q110 0 211 -68q101 -67 155 -191t54 -290t-53 -290t-151 -192t-208 -67q-209 0 -307 142h-4v-492h-340v1419h328v-129h4z" />
    <glyph glyph-name="uni0441" unicode="&#x441;" horiz-adv-x="1177" 
d="M597 817q-79 0 -129 -77.5t-50 -218t50 -218.5t130 -78t124 51.5t48 141.5h354q-16 -207 -156.5 -329t-361.5 -122q-164 0 -287.5 68.5t-190.5 193.5t-67 292t67 292t189.5 192.5t277.5 67.5t268.5 -54t182 -151.5t78.5 -224.5h-352q-8 82 -52 128t-123 46z" />
    <glyph glyph-name="uni0442" unicode="&#x442;" horiz-adv-x="997" 
d="M668 793v-793h-340v793h-320v247h981v-247h-321z" />
    <glyph glyph-name="uni0443" unicode="&#x443;" horiz-adv-x="1085" 
d="M279.5 -393q-111.5 0 -199.5 18v258q49 -16 112.5 -16t106.5 36t43 90t-57 210l-305 837h366l100 -348q66 -242 105 -434h4q43 219 104 436l97 346h346l-346 -1022q-54 -155 -118.5 -244t-155.5 -128t-202.5 -39z" />
    <glyph glyph-name="uni0444" unicode="&#x444;" horiz-adv-x="1722" 
d="M1124 225q86 0 136.5 80t50.5 215t-50.5 215t-136.5 80q-53 0 -96 -43v-504q43 -43 96 -43zM412 520q0 -135 50 -215t136 -80q53 0 96 43v504q-43 43 -96 43q-86 0 -136 -80t-50 -215zM1241 1069q123 0 219 -67.5t148.5 -191.5t52.5 -290t-52.5 -290t-148.5 -191.5
t-218 -67.5t-214 76v-426h-334v426q-92 -76 -214 -76t-218 67.5t-148.5 191.5t-52.5 290t52.5 290t147.5 191.5t219 67.5t214 -78v467h334v-467q90 78 213 78z" />
    <glyph glyph-name="uni0445" unicode="&#x445;" horiz-adv-x="1095" 
d="M1108 0h-389l-170 334h-4l-170 -334h-387l348 535l-326 505h385l150 -297h4l149 297h387l-325 -505z" />
    <glyph glyph-name="uni0446" unicode="&#x446;" horiz-adv-x="1286" 
d="M1270 248v-576h-340v328h-805v1040h340v-792h326v792h339v-792h140z" />
    <glyph glyph-name="uni0447" unicode="&#x447;" horiz-adv-x="1173" 
d="M393 719q0 -146 161 -146q81 0 155 25v442h340v-1040h-340v362q-133 -34 -298 -34t-261.5 84t-96.5 239v389h340v-321z" />
    <glyph glyph-name="uni0448" unicode="&#x448;" horiz-adv-x="1798" 
d="M125 0v1040h340v-792h264v792h340v-792h264v792h340v-1040h-1548z" />
    <glyph glyph-name="uni0449" unicode="&#x449;" horiz-adv-x="1828" 
d="M1812 248v-576h-339v328h-1348v1040h340v-792h264v792h340v-792h264v792h340v-792h139z" />
    <glyph glyph-name="uni044A" unicode="&#x44a;" horiz-adv-x="1329" 
d="M614 231h166q152 0 152 130t-152 131h-166v-261zM823 723q217 0 334 -90.5t117 -270.5t-117 -271t-334 -91h-549v793h-266v247h606v-317h209z" />
    <glyph glyph-name="uni044B" unicode="&#x44b;" horiz-adv-x="1716" 
d="M465 231h166q152 0 151 131q0 129 -151 130h-166v-261zM674 723q218 0 334 -91q116 -90 116 -270t-116.5 -271t-333.5 -91h-549v1040h340v-317h209zM1251 0v1040h340v-1040h-340z" />
    <glyph glyph-name="uni044C" unicode="&#x44c;" horiz-adv-x="1179" 
d="M465 231h166q152 0 151 131q0 129 -151 130h-166v-261zM674 723q217 0 333.5 -90.5t116.5 -270.5t-116.5 -271t-333.5 -91h-549v1040h340v-317h209z" />
    <glyph glyph-name="uni044D" unicode="&#x44d;" horiz-adv-x="1177" 
d="M1116 521q0 -167 -66.5 -292t-189.5 -193.5t-287 -68.5q-223 0 -363 117t-157 315h332q4 -90 55.5 -141t132 -51t134 57.5t69.5 161.5h-321v209h317q-18 96 -70.5 149.5t-130 53.5t-128 -47.5t-58.5 -128.5h-332q12 121 80 214t181.5 145t268 52t277.5 -67.5
t189.5 -192.5t66.5 -292z" />
    <glyph glyph-name="uni044E" unicode="&#x44e;" horiz-adv-x="1775" 
d="M1358 520q0 137 -52.5 216t-144.5 79t-144 -79t-52 -216t52 -216t144 -79t144.5 79t52.5 216zM1714 520q0 -168 -67.5 -293t-192.5 -192.5t-293 -67.5q-219 0 -362.5 116t-177.5 316h-156v-399h-340v1040h340v-395h156q35 199 178 313.5t362 114.5q168 0 293 -67.5
t192.5 -192.5t67.5 -293z" />
    <glyph glyph-name="uni044F" unicode="&#x44f;" horiz-adv-x="1191" 
d="M588 805q-188 0 -189 -127q0 -129 181 -129h155v256h-147zM1067 0h-332v322h-198l-168 -322h-361l225 385q-164 90 -163 307q0 170 115.5 259t346.5 89h535v-1040z" />
    <glyph glyph-name="uni0450" unicode="&#x450;" horiz-adv-x="1196" 
d="M597 850q-167 0 -196 -207h392q-10 104 -63.5 155.5t-132.5 51.5zM584.5 -33q-152.5 0 -274.5 72t-185.5 199t-63.5 286.5t63.5 283.5t185.5 194.5t296 70.5t303 -89t185 -245q41 -105 41 -288h-740q6 -137 61.5 -196.5t134.5 -59.5t126 34.5t55 89.5h346
q-23 -98 -92.5 -179t-179 -127t-262 -46zM793 1155h-263l-288 303h391z" />
    <glyph glyph-name="uni0451" unicode="&#x451;" horiz-adv-x="1196" 
d="M597 850q-167 0 -196 -207h392q-10 104 -63.5 155.5t-132.5 51.5zM584.5 -33q-152.5 0 -274.5 72t-185.5 199t-63.5 286.5t63.5 283.5t185.5 194.5t296 70.5t303 -89t185 -245q41 -105 41 -288h-740q6 -137 61.5 -196.5t134.5 -59.5t126 34.5t55 89.5h346
q-23 -98 -92.5 -179t-179 -127t-262 -46zM684 1190v268h291v-268h-291zM219 1190v268h293v-268h-293z" />
    <glyph glyph-name="uni0452" unicode="&#x452;" horiz-adv-x="1249" 
d="M795 489q0 201 -158 201q-78 0 -125 -66.5t-47 -197.5v-426h-340v1100h-145v200h145v158h340v-158h440v-200h-440v-277h4q106 131 284 131q177 0 279.5 -109.5t102.5 -318.5v-524q0 -201 -103.5 -296t-279.5 -95q-96 0 -164 18v238q25 -6 53 -6q80 0 117 43t37 155v430z
" />
    <glyph glyph-name="uni0453" unicode="&#x453;" horiz-adv-x="925" 
d="M465 793v-793h-340v1040h782v-247h-442zM322 1155l159 303h391l-288 -303h-262z" />
    <glyph glyph-name="uni0454" unicode="&#x454;" horiz-adv-x="1177" 
d="M606 -33q-164 0 -287.5 68.5t-190.5 193.5t-67 292t67 292t189.5 192.5t277 67.5t268.5 -52t182.5 -145.5t78.5 -213.5h-329q-8 82 -59.5 129t-129.5 47t-130 -53.5t-70 -149.5h317v-209h-322q16 -104 70.5 -161.5t135.5 -57.5t131 51t55 141h331q-16 -199 -155.5 -315.5
t-362.5 -116.5z" />
    <glyph glyph-name="uni0455" unicode="&#x455;" horiz-adv-x="1110" 
d="M1008 725h-324q0 133 -139 133q-57 0 -89 -21.5t-32 -56.5t25 -60t172 -63.5t228 -72t138 -102t57 -181.5q0 -152 -129 -243t-362.5 -91t-361.5 92.5t-128 278.5h343q0 -147 159 -148q63 0 97 24t34 61.5t-23.5 60t-69.5 39t-156.5 45.5t-183.5 58.5t-124 94t-51 175.5
q0 145 121 235t339 90t339 -88t121 -260z" />
    <glyph glyph-name="uni0456" unicode="&#x456;" horiz-adv-x="589" 
d="M125 0v1040h340v-1040h-340zM125 1190v268h340v-268h-340z" />
    <glyph glyph-name="uni0457" unicode="&#x457;" horiz-adv-x="589" 
d="M125 0v1040h340v-1040h-340zM344 1190v268h270v-268h-270zM-27 1190v268h273v-268h-273z" />
    <glyph glyph-name="uni0458" unicode="&#x458;" horiz-adv-x="591" 
d="M84 -389q-96 0 -164 18v238q25 -6 53 -6q80 0 117 43t37 155v981h340v-1038q0 -201 -103.5 -296t-279.5 -95zM127 1190v268h340v-268h-340z" />
    <glyph glyph-name="uni0459" unicode="&#x459;" horiz-adv-x="1808" 
d="M1092 231h165q152 0 152 130t-152 131h-165v-261zM1303 723q217 0 332.5 -90.5t115.5 -270.5t-115.5 -271t-332.5 -91h-551v793h-213q-10 -334 -56.5 -508t-130.5 -236.5t-225 -62.5q-66 0 -115 14v240q20 -4 41 -4q66 0 121 89t64 715h854v-317h211z" />
    <glyph glyph-name="uni045A" unicode="&#x45a;" horiz-adv-x="1859" 
d="M1145 231h166q152 0 151 131q0 129 -151 130h-166v-261zM1354 723q217 0 333.5 -90.5t116.5 -270.5t-116.5 -271t-333.5 -91h-549v406h-340v-406h-340v1040h340v-389h340v389h340v-317h209z" />
    <glyph glyph-name="uni045B" unicode="&#x45b;" horiz-adv-x="1249" 
d="M795 489q0 201 -158 201q-78 0 -125 -66.5t-47 -197.5v-426h-340v1100h-145v200h145v158h340v-158h440v-200h-440v-277h4q106 131 284 131q177 0 279.5 -109.5t102.5 -318.5v-526h-340v489z" />
    <glyph glyph-name="uni045C" unicode="&#x45c;" horiz-adv-x="1181" 
d="M465 471v-471h-340v1040h340v-409h4l279 409h393l-371 -485l410 -555h-418l-293 471h-4zM410 1155l159 303h392l-289 -303h-262z" />
    <glyph glyph-name="uni045D" unicode="&#x45d;" horiz-adv-x="1406" 
d="M952 0v369q0 207 19 411h-4q-59 -190 -154 -383l-197 -397h-491v1040h330v-370q0 -213 -21 -410h4q66 197 156 383l197 397h491v-1040h-330zM901 1155h-262l-289 303h391z" />
    <glyph glyph-name="uni045E" unicode="&#x45e;" horiz-adv-x="1085" 
d="M279.5 -393q-111.5 0 -199.5 18v258q49 -16 112.5 -16t106.5 36t43 90t-57 210l-305 837h366l100 -348q66 -242 105 -434h4q43 219 104 436l97 346h346l-346 -1022q-54 -155 -118.5 -244t-155.5 -128t-202.5 -39zM547 1143q-166 0 -261.5 83t-103.5 232h217q4 -57 42 -88
t105.5 -31t105.5 31t42 88h217q-8 -149 -103 -232t-261 -83z" />
    <glyph glyph-name="uni045F" unicode="&#x45f;" horiz-adv-x="1259" 
d="M797 0v-328h-340v328h-332v1040h340v-792h330v792h340v-1040h-338z" />
    <glyph glyph-name="uni0490" unicode="&#x490;" horiz-adv-x="1062" 
d="M510 1157v-1157h-354v1458h549v275h339v-576h-534z" />
    <glyph glyph-name="uni0491" unicode="&#x491;" horiz-adv-x="925" 
d="M465 793v-793h-340v1040h469v328h313v-575h-442z" />
    <glyph glyph-name="uni0492" unicode="&#x492;" horiz-adv-x="1067" 
d="M514 764h274v-234h-274v-530h-356v530h-127v234h127v694h891v-301h-535v-393z" />
    <glyph glyph-name="uni0493" unicode="&#x493;" horiz-adv-x="937" 
d="M479 559h250v-205h-250v-354h-340v354h-114v205h114v481h783v-247h-443v-234z" />
    <glyph glyph-name="uni0496" unicode="&#x496;" horiz-adv-x="1951" 
d="M1944 -328h-340v328h-78l-371 713h-4v-713h-348v713h-4l-373 -713h-418l467 762l-432 696h408l348 -663h4v663h348v-663h4l346 663h408l-432 -696l282 -461h185v-629z" />
    <glyph glyph-name="uni0497" unicode="&#x497;" horiz-adv-x="1628" 
d="M1651 -328h-340v328h-62l-266 516h-4v-516h-330v516h-4l-268 -516h-400l363 557l-326 483h377l254 -452h4v452h330v-452h4l254 452h377l-326 -483l201 -309h162v-576z" />
    <glyph glyph-name="uni049A" unicode="&#x49a;" horiz-adv-x="1413" 
d="M1405 -328h-340v328h-107l-444 672h-4v-672h-354v1458h354v-629h4l428 629h424l-530 -690l346 -467h223v-629z" />
    <glyph glyph-name="uni049B" unicode="&#x49b;" horiz-adv-x="1181" 
d="M1180 -328h-340v328h-78l-293 471h-4v-471h-340v1040h340v-409h4l279 409h393l-371 -485l227 -307h183v-576z" />
    <glyph glyph-name="uni049C" unicode="&#x49c;" horiz-adv-x="1556" 
d="M813 604v-309h-219v309h-90v-604h-348v1458h348v-553h90v307h219v-307h4l287 553h409l-428 -692l463 -766h-418l-313 604h-4z" />
    <glyph glyph-name="uni049D" unicode="&#x49d;" horiz-adv-x="1316" 
d="M705 428v-225h-179v225h-71v-428h-330v1040h330v-364h71v233h179v-233h14l205 364h376l-325 -483l362 -557h-399l-223 428h-10z" />
    <glyph glyph-name="uni04A2" unicode="&#x4a2;" horiz-adv-x="1615" 
d="M1243 -328v328h-194v604h-539v-604h-354v1458h354v-553h539v553h354v-1157h180v-629h-340z" />
    <glyph glyph-name="uni04A3" unicode="&#x4a3;" horiz-adv-x="1304" 
d="M948 -328v328h-139v406h-344v-406h-340v1040h340v-389h344v389h340v-792h139v-576h-340z" />
    <glyph glyph-name="uni04AE" unicode="&#x4ae;" horiz-adv-x="1357" 
d="M856 0h-354v551l-500 907h393l127 -264q88 -182 156 -367h4q61 176 154 367l127 264h393l-500 -907v-551z" />
    <glyph glyph-name="uni04AF" unicode="&#x4af;" horiz-adv-x="1091" 
d="M715 -379h-340v348l-391 1071h360l102 -333q53 -178 97 -396h4q39 197 98 396l100 333h363l-393 -1071v-348z" />
    <glyph glyph-name="uni04B2" unicode="&#x4b2;" horiz-adv-x="1370" 
d="M1368 -328h-340v328h-78l-262 504h-4l-264 -504h-416l453 748l-428 710h407l248 -487h4l246 487h407l-428 -710l273 -447h182v-629z" />
    <glyph glyph-name="uni04B3" unicode="&#x4b3;" horiz-adv-x="1095" 
d="M1108 -328h-340v328h-49l-170 334h-4l-170 -334h-387l348 535l-326 505h385l150 -297h4l149 297h387l-325 -505l186 -287h162v-576z" />
    <glyph glyph-name="uni04B8" unicode="&#x4b8;" horiz-adv-x="1427" 
d="M1272 0h-354v528q-45 -12 -134 -26v-264h-233v249q-236 4 -362 123t-126 334v514h355v-444q0 -163 133 -207v358h233v-370q78 10 134 24v639h354v-1458z" />
    <glyph glyph-name="uni04B9" unicode="&#x4b9;" horiz-adv-x="1193" 
d="M1069 0h-334v367q-31 -10 -86 -21v-184h-178v166h-31q-186 0 -286.5 88t-100.5 250v374h334v-307q0 -121 84 -147v276h178v-280q41 6 86 20v438h334v-1040z" />
    <glyph glyph-name="uni04BA" unicode="&#x4ba;" horiz-adv-x="1427" 
d="M510 1458v-528q158 41 346 41q246 0 377 -119t131 -338v-514h-356v444q0 109 -63.5 167.5t-190.5 58.5t-244 -31v-639h-354v1458h354z" />
    <glyph glyph-name="uni04BB" unicode="&#x4bb;" 
d="M751.5 1067q176.5 0 277.5 -109.5t101 -318.5v-639h-339v602q0 201 -152 201q-82 0 -128 -66.5t-46 -197.5v-539h-340v1458h340v-522h4q106 131 282.5 131z" />
    <glyph glyph-name="uni04C0" unicode="&#x4c0;" horiz-adv-x="665" 
d="M156 0v1458h354v-1458h-354z" />
    <glyph glyph-name="uni04CF" unicode="&#x4cf;" horiz-adv-x="589" 
d="M125 0v1458h340v-1458h-340z" />
    <glyph glyph-name="uni04D8" unicode="&#x4d8;" horiz-adv-x="1587" 
d="M790 256q138 0 231 81t120 238h-697q20 -159 114 -239t232 -80zM1518 736q0 -222 -87 -396t-253 -273t-388 -99t-382 92q-162 92 -250 264t-88 403q0 70 6 113h1073q-11 186 -115 275t-242 89t-212 -54t-93 -142h-378q29 134 115 244t228 174t348 65q206 0 374 -94
q168 -95 256 -267t88 -394z" />
    <glyph glyph-name="uni04D9" unicode="&#x4d9;" horiz-adv-x="1196" 
d="M597 191q79 0 131 52t67 160h-394q9 -106 63 -159t133 -53zM598 -33q-164 0 -285 68q-121 67 -187 191t-65 292q0 41 5 78h733q-5 133 -61 191q-56 59 -132 59t-120 -33q-42 -33 -52 -84h-346q23 96 90 175q145 169 410 169q172 0 296 -71q124 -70 187 -194t63 -284
t-64 -286t-186 -198q-122 -73 -286 -73z" />
    <glyph glyph-name="uni04E8" unicode="&#x4e8;" horiz-adv-x="1550" 
d="M776.5 256q141.5 0 231.5 89t116 251h-696q27 -162 117 -251t231.5 -89zM776.5 1202q-141.5 0 -231.5 -89t-117 -251h696q-27 162 -116.5 251t-231 89zM1481 729.5q0 -233.5 -86 -405.5t-245 -264.5t-375 -92.5t-374.5 92.5t-244.5 264.5t-86 405.5t86 405.5t244.5 264
t374.5 92t375 -92t245 -264t86 -405.5z" />
    <glyph glyph-name="uni04E9" unicode="&#x4e9;" horiz-adv-x="1236" 
d="M618 203q90 0 146.5 59.5t73.5 165.5h-441q16 -106 73.5 -165.5t147.5 -59.5zM620 838q-90 0 -147 -59.5t-74 -166.5h441q-16 106 -73 166t-147 60zM1176 520q0 -168 -69 -293t-195 -192.5t-293.5 -67.5t-293.5 67.5t-195 192.5t-69 293t69 293t195 192.5t293.5 67.5
t293.5 -67.5t195 -192.5t69 -293z" />
    <glyph glyph-name="Wgrave" unicode="&#x1e80;" horiz-adv-x="2029" 
d="M1247 0l-123 584q-68 301 -108 585h-4q-39 -266 -107 -585l-123 -584h-471l-295 1458h344l99 -526q59 -324 94 -610h4q51 311 117 610l114 526h453l115 -526q70 -313 114 -610h5q39 303 96 610l96 526h346l-295 -1458h-471zM1208 1556h-262l-289 310h392z" />
    <glyph glyph-name="wgrave" unicode="&#x1e81;" horiz-adv-x="1736" 
d="M1032 0l-84 391q-47 223 -78 436h-4q-31 -213 -78 -436l-83 -391h-465l-232 1040h332l68 -383q41 -227 65 -442h4q37 244 84 444l86 381h443l86 -381q47 -201 84 -444h4q25 215 65 442l68 383h332l-232 -1040h-465zM1065 1155h-262l-289 303h391z" />
    <glyph glyph-name="Wacute" unicode="&#x1e82;" horiz-adv-x="2029" 
d="M1247 0l-123 584q-68 301 -108 585h-4q-39 -266 -107 -585l-123 -584h-471l-295 1458h344l99 -526q59 -324 94 -610h4q51 311 117 610l114 526h453l115 -526q70 -313 114 -610h5q39 303 96 610l96 526h346l-295 -1458h-471zM815 1556l160 310h391l-289 -310h-262z" />
    <glyph glyph-name="wacute" unicode="&#x1e83;" horiz-adv-x="1736" 
d="M1032 0l-84 391q-47 223 -78 436h-4q-31 -213 -78 -436l-83 -391h-465l-232 1040h332l68 -383q41 -227 65 -442h4q37 244 84 444l86 381h443l86 -381q47 -201 84 -444h4q25 215 65 442l68 383h332l-232 -1040h-465zM672 1155l159 303h392l-289 -303h-262z" />
    <glyph glyph-name="Wdieresis" unicode="&#x1e84;" horiz-adv-x="2029" 
d="M1247 0l-123 584q-68 301 -108 585h-4q-39 -266 -107 -585l-123 -584h-471l-295 1458h344l99 -526q59 -324 94 -610h4q51 311 117 610l114 526h453l115 -526q70 -313 114 -610h5q39 303 96 610l96 526h346l-295 -1458h-471zM1098 1575v268h291v-268h-291zM633 1575v268
h293v-268h-293z" />
    <glyph glyph-name="wdieresis" unicode="&#x1e85;" horiz-adv-x="1736" 
d="M1032 0l-84 391q-47 223 -78 436h-4q-31 -213 -78 -436l-83 -391h-465l-232 1040h332l68 -383q41 -227 65 -442h4q37 244 84 444l86 381h443l86 -381q47 -201 84 -444h4q25 215 65 442l68 383h332l-232 -1040h-465zM954 1190v268h291v-268h-291zM489 1190v268h293v-268
h-293z" />
    <glyph glyph-name="Germandbls" unicode="&#x1e9e;" horiz-adv-x="1667" 
d="M1602 401q0 -205 -140.5 -318.5t-380 -113.5t-364.5 109.5t-125 327.5h319q0 -158 160 -158q78 0 121 40t43 118q0 117 -99.5 177t-297.5 72v238l221 246q-86 66 -219 65q-172 0 -261.5 -94t-89.5 -279v-831h-354v823q0 328 187.5 497t541.5 169q199 0 363 -78t270 -211
l-297 -330q402 -113 402 -469z" />
    <glyph glyph-name="Ygrave" unicode="&#x1ef2;" horiz-adv-x="1357" 
d="M856 0h-354v551l-500 907h393l127 -264q88 -182 156 -367h4q61 176 154 367l127 264h393l-500 -907v-551zM874 1556h-262l-288 310h391z" />
    <glyph glyph-name="ygrave" unicode="&#x1ef3;" horiz-adv-x="1085" 
d="M279.5 -393q-111.5 0 -199.5 18v258q49 -16 112.5 -16t106.5 36t43 90t-57 210l-305 837h366l100 -348q66 -242 105 -434h4q43 219 104 436l97 346h346l-346 -1022q-54 -155 -118.5 -244t-155.5 -128t-202.5 -39zM743 1155h-262l-288 303h391z" />
    <glyph glyph-name="uni2010" unicode="&#x2010;" horiz-adv-x="690" 
d="M61 473v250h568v-250h-568z" />
    <glyph glyph-name="endash" unicode="&#x2013;" horiz-adv-x="1024" 
d="M41 473v250h942v-250h-942z" />
    <glyph glyph-name="emdash" unicode="&#x2014;" horiz-adv-x="2048" 
d="M41 473v250h1966v-250h-1966z" />
    <glyph glyph-name="uni2015" unicode="&#x2015;" horiz-adv-x="2048" 
d="M41 473v250h1966v-250h-1966z" />
    <glyph glyph-name="underscoredbl" unicode="&#x2017;" horiz-adv-x="1024" 
d="M0 -596v172h1024v-172h-1024zM0 -274v172h1024v-172h-1024z" />
    <glyph glyph-name="quoteleft" unicode="&#x2018;" horiz-adv-x="544" 
d="M428 1149v-322h-307v322l158 309h170l-121 -309h100z" />
    <glyph glyph-name="quoteright" unicode="&#x2019;" horiz-adv-x="544" 
d="M117 1139v319h307v-319l-158 -312h-170l121 312h-100z" />
    <glyph glyph-name="quotesinglbase" unicode="&#x201a;" horiz-adv-x="544" 
d="M117 0v319h307v-319l-158 -311h-170l121 311h-100z" />
    <glyph glyph-name="quotereversed" unicode="&#x201b;" horiz-adv-x="544" 
d="M428 1139h-100l121 -312h-170l-158 312v319h307v-319z" />
    <glyph glyph-name="quotedblleft" unicode="&#x201c;" horiz-adv-x="954" 
d="M838 1149v-322h-308v322l158 309h170l-121 -309h101zM428 1149v-322h-307v322l158 309h170l-121 -309h100z" />
    <glyph glyph-name="quotedblright" unicode="&#x201d;" horiz-adv-x="954" 
d="M117 1139v319h307v-319l-158 -312h-170l121 312h-100zM526 1139v319h308v-319l-158 -312h-170l121 312h-101z" />
    <glyph glyph-name="quotedblbase" unicode="&#x201e;" horiz-adv-x="954" 
d="M117 0v319h307v-319l-158 -311h-170l121 311h-100zM526 0v319h308v-319l-158 -311h-170l121 311h-101z" />
    <glyph glyph-name="dagger" unicode="&#x2020;" horiz-adv-x="1241" 
d="M1124 1120v-284h-333v-1082h-340v1082h-334v282h334v340h340v-338h333z" />
    <glyph glyph-name="daggerdbl" unicode="&#x2021;" horiz-adv-x="1241" 
d="M1124 1120v-278h-333v-471h333v-279h-333v-338h-340v338h-334v279h334v471h-334v278h334v338h340v-338h333z" />
    <glyph glyph-name="bullet" unicode="&#x2022;" horiz-adv-x="796" 
d="M82 729q0 86 43 159t115.5 116t158.5 43t159 -43t115 -116t42 -159t-42 -158.5t-115 -115.5t-159 -43t-158.5 43t-115.5 115.5t-43 158.5z" />
    <glyph glyph-name="ellipsis" unicode="&#x2026;" horiz-adv-x="1931" 
d="M100 0v377h361v-377h-361zM786 0v377h361v-377h-361zM1470 0v377h361v-377h-361z" />
    <glyph glyph-name="perthousand" unicode="&#x2030;" horiz-adv-x="2287" 
d="M1821 323.5q0 -190.5 92 -190.5t92 190.5t-92 190.5t-92 -190.5zM1195 514q-93 0 -93 -190t93 -191q93 1 93 191t-93 190zM2226 324q0 -174 -81 -268.5t-232.5 -94.5t-232.5 94.5t-81 268.5t82 268t231.5 94t231.5 -94t82 -268zM1507 324q0 -174 -80.5 -268.5
t-232.5 -94.5t-232.5 94.5t-80.5 268.5t81.5 268t231 94t231.5 -94t82 -268zM283 1056.5q0 -190.5 92 -190.5t92 190.5t-92 190.5t-92 -190.5zM688 1057q0 -174 -81 -268.5t-232.5 -94.5t-232.5 94.5t-81 268.5t82 268t231.5 94t231.5 -94t82 -268zM266 -61l824 1503h208
l-823 -1503h-209z" />
    <glyph glyph-name="minute" unicode="&#x2032;" horiz-adv-x="485" 
d="M61 885l64 495h299l-150 -495h-213z" />
    <glyph glyph-name="second" unicode="&#x2033;" horiz-adv-x="880" 
d="M463 885l63 495h299l-149 -495h-213zM61 885l64 495h299l-150 -495h-213z" />
    <glyph glyph-name="guilsinglleft" unicode="&#x2039;" horiz-adv-x="700" 
d="M612 111h-290l-234 409l234 410h290l-217 -410z" />
    <glyph glyph-name="guilsinglright" unicode="&#x203a;" horiz-adv-x="700" 
d="M612 520l-233 -409h-291l217 409l-217 410h291z" />
    <glyph glyph-name="exclamdbl" unicode="&#x203c;" horiz-adv-x="1253" 
d="M721 0v301h360v-301h-360zM764 430l-64 1028h400l-62 -1028h-274zM174 0v301h361v-301h-361zM217 430l-63 1028h399l-61 -1028h-275z" />
    <glyph glyph-name="interrobang" unicode="&#x203d;" horiz-adv-x="1167" 
d="M745 301v-301h-360v301h360zM588 1081q-176 0 -180 -184h-351q2 174 88 281.5t246 146.5l-6 133h387l-8 -129q160 -35 246 -134t86 -233t-46 -209t-160 -148t-146.5 -108.5t-32.5 -90.5h-287q-4 37 -4 79t14.5 85.5t53 84.5t119.5 101t106.5 97.5t25.5 96.5t-40 95
t-111 36z" />
    <glyph glyph-name="overline" unicode="&#x203e;" horiz-adv-x="1024" 
d="M0 1589v211h1024v-211h-1024z" />
    <glyph glyph-name="fraction" unicode="&#x2044;" horiz-adv-x="305" 
d="M-322 0l744 1380h205l-744 -1380h-205z" />
    <glyph glyph-name="zero.superior" unicode="&#x2070;" horiz-adv-x="985" 
d="M494 862q141 0 141 296q-1 296 -143 296q-70 0 -107 -77t-37 -218q0 -297 146 -297zM926 1158q0 -243 -113 -374t-321 -131t-320.5 131t-112.5 374t112.5 375t320.5 132t321 -132t113 -375z" />
    <glyph glyph-name="four.superior" unicode="&#x2074;" horiz-adv-x="954" 
d="M500 1069v98q0 125 10 279h-4q-61 -111 -152 -242l-90 -135h236zM766 862v-186h-279v186h-464v217l376 563h367v-573h166v-207h-166z" />
    <glyph glyph-name="five.superior" unicode="&#x2075;" horiz-adv-x="954" 
d="M477 1126q-95 0 -119 -86l-278 17l55 585h690v-227h-458l-17 -160h4q82 66 215 66t226.5 -87.5t93.5 -237.5t-113.5 -246.5t-302 -96.5t-298 81t-109.5 227h286q2 -47 35 -75t90 -28t91 35t34 99t-33.5 99t-91.5 35z" />
    <glyph glyph-name="six.superior" unicode="&#x2076;" horiz-adv-x="942" 
d="M367 987q0 -57 32.5 -91t86 -34t87 34t33.5 91t-33 92t-87 35t-86.5 -35t-32.5 -92zM485 1462q-143 0 -151 -241h4q84 84 227 84t233.5 -85t90.5 -223q0 -100 -51.5 -178t-143.5 -122t-209 -44q-203 0 -314.5 125t-111.5 367t117 381t324 139q164 0 265 -80t112 -223
h-287q-12 100 -105 100z" />
    <glyph glyph-name="seven.superior" unicode="&#x2077;" horiz-adv-x="847" 
d="M23 1407v235h802v-221q-110 -145 -191 -340.5t-122 -404.5h-307q47 211 139 405.5t201 325.5h-522z" />
    <glyph glyph-name="eight.superior" unicode="&#x2078;" horiz-adv-x="944" 
d="M342 964q0 -48 35 -77t95 -29t95 29t35 77t-35 76.5t-95 28.5t-95 -28.5t-35 -76.5zM348 1365q0 -46 33 -72.5t90 -26.5t91 26.5t34 72.5t-34 71.5t-91 25.5t-90 -25.5t-33 -71.5zM862 1393q0 -80 -48 -136.5t-134 -76.5v-4q94 -18 150.5 -82t56.5 -154
q0 -135 -110.5 -211t-305.5 -76t-304.5 76t-109.5 211q0 90 56.5 153.5t150.5 82.5v4q-84 20 -134 77.5t-50 135.5q0 123 107.5 197.5t283.5 74.5t283.5 -74.5t107.5 -197.5z" />
    <glyph glyph-name="nine.superior" unicode="&#x2079;" horiz-adv-x="942" 
d="M575 1332q0 56 -33.5 90t-87 34t-86 -33.5t-32.5 -91t32.5 -92.5t86 -35t87 36t33.5 92zM377 1014q-143 0 -233.5 85t-90.5 222q0 100 51.5 178t142.5 122t210 44q203 0 314.5 -124.5t111.5 -366.5t-117 -381.5t-324 -139.5q-166 0 -266 80t-110 223h286q8 -100 105 -100
q143 0 151 242h-4q-84 -84 -227 -84z" />
    <glyph glyph-name="plussuperior" unicode="&#x207a;" horiz-adv-x="843" 
d="M758 1237v-215h-226v-219h-221v219h-225v215h225v221h221v-221h226z" />
    <glyph glyph-name="uni207B" unicode="&#x207b;" horiz-adv-x="843" 
d="M86 1022v215h672v-215h-672z" />
    <glyph glyph-name="equalsuperior" unicode="&#x207c;" horiz-adv-x="843" 
d="M86 872v203h672v-203h-672zM86 1184v202h672v-202h-672z" />
    <glyph glyph-name="parenleftsuperior" unicode="&#x207d;" horiz-adv-x="538" 
d="M350 1102q0 -315 146 -637h-222q-115 156 -166 309.5t-51 327.5t51.5 327.5t165.5 309.5h222q-146 -322 -146 -637z" />
    <glyph glyph-name="parenrightsuperior" unicode="&#x207e;" horiz-adv-x="538" 
d="M190 1100q0 311 -147 639h221q115 -156 166 -308.5t51 -328.5t-51 -330t-166 -307h-221q147 324 147 635z" />
    <glyph glyph-name="zero.inferior" unicode="&#x2080;" horiz-adv-x="985" 
d="M494 -166q141 0 141 296q-1 296 -143 296q-70 0 -107 -77t-37 -218q0 -297 146 -297zM926 130q0 -243 -113 -374t-321 -131t-320 131q-113 131 -113 374t113 375q112 132 320 132t321 -132t113 -375z" />
    <glyph glyph-name="one.inferior" unicode="&#x2081;" horiz-adv-x="686" 
d="M276 -352v590h-256v206q137 0 205 40t82 130h256v-966h-287z" />
    <glyph glyph-name="two.inferior" unicode="&#x2082;" horiz-adv-x="964" 
d="M485 426q-118 0 -120 -133h-287q2 166 108 255t297 89q119 0 208 -39q184 -81 186 -258q0 -118 -68 -188t-195 -125t-168 -86t-45 -68h502v-225h-833q-4 33 -4 57q0 158 63 258q63 99 207 169t195 112q53 42 53 89q0 93 -99 93z" />
    <glyph glyph-name="three.inferior" unicode="&#x2083;" horiz-adv-x="950" 
d="M590 334q0 94 -119 94q-59 0 -92 -35t-33 -98h-280q0 162 108 252t298 90t295 -74t105 -201q0 -78 -41 -128t-131 -82v-5q96 -31 140 -84t45 -141q0 -137 -110 -217q-111 -80 -307 -80t-308 90t-111 258h291q0 -139 139 -139q55 0 88 25t33 69q0 104 -162 105h-26v203h32
q68 0 107 26t39 72z" />
    <glyph glyph-name="four.inferior" unicode="&#x2084;" horiz-adv-x="954" 
d="M498 41v98q0 125 10 279h-4q-61 -111 -152 -242l-90 -135h236zM764 -166v-186h-279v186h-465v217l377 563h367v-573h166v-207h-166z" />
    <glyph glyph-name="five.inferior" unicode="&#x2085;" horiz-adv-x="954" 
d="M477 98q-97 0 -119 -86l-278 17l55 585h690v-227h-458l-17 -160h4q82 66 215 66t227 -87q94 -88 93 -238q0 -150 -114 -246t-302 -97q-188 0 -298 81t-109 226h286q2 -46 35 -74t90 -28t91 35t34 99t-34 99t-91 35z" />
    <glyph glyph-name="six.inferior" unicode="&#x2086;" horiz-adv-x="942" 
d="M485 -166q53 0 87 34t34 91t-33 92t-87 35t-87 -35t-33 -92t34 -91q32 -34 85 -34zM485 434q-143 0 -151 -241h4q84 83 227 83t233 -85t91 -222q0 -100 -51 -178q-52 -78 -144 -122t-209 -44q-203 0 -315 125t-111 367q0 242 117 381t324 139q164 0 265 -80t112 -223
h-287q-12 100 -105 100z" />
    <glyph glyph-name="seven.inferior" unicode="&#x2087;" horiz-adv-x="847" 
d="M20 379v235h803v-221q-110 -145 -191 -341t-122 -404h-307q47 212 139 406t201 325h-523z" />
    <glyph glyph-name="eight.inferior" unicode="&#x2088;" horiz-adv-x="944" 
d="M342 -65q0 -49 35 -77t95 -28t95 29t35 77t-35 76q-35 29 -95 29t-95 -29t-35 -77zM348 337q0 -46 33 -73q33 -26 90 -26t91 26t34 73q0 46 -34 72t-91 26t-90 -26t-33 -72zM470 -375q-194 0 -304 76t-109 211q1 90 57 154t150 81v5q-84 20 -134 77t-50 136
q0 123 108 197t283 75q176 0 284 -75t107 -197q0 -81 -48 -137t-134 -76v-5q94 -18 150 -81t57 -154q0 -135 -111 -211q-112 -76 -306 -76z" />
    <glyph glyph-name="nine.inferior" unicode="&#x2089;" horiz-adv-x="942" 
d="M455 428q-53 0 -86 -34t-33 -91t33 -92t86 -35t87 36t34 92t-34 90t-87 34zM377 -14q-143 0 -234 85q-90 85 -90 222q0 100 51 178q50 78 142 122t211 44q203 0 315 -125q112 -124 111 -366q0 -242 -117 -382t-324 -139q-166 0 -266 80t-110 223h286q8 -100 105 -100
q143 0 151 242h-4q-84 -84 -227 -84z" />
    <glyph glyph-name="uni208A" unicode="&#x208a;" horiz-adv-x="843" 
d="M758 209v-215h-226v-219h-221v219h-225v215h225v221h221v-221h226z" />
    <glyph glyph-name="uni208B" unicode="&#x208b;" horiz-adv-x="843" 
d="M86 -6v215h672v-215h-672z" />
    <glyph glyph-name="uni208C" unicode="&#x208c;" horiz-adv-x="843" 
d="M86 -156v203h672v-203h-672zM86 156v202h672v-202h-672z" />
    <glyph glyph-name="uni208D" unicode="&#x208d;" horiz-adv-x="538" 
d="M350 73q0 -316 146 -636h-222q-116 155 -166 309t-51 328q0 340 217 637h222q-146 -322 -146 -638z" />
    <glyph glyph-name="uni208E" unicode="&#x208e;" horiz-adv-x="538" 
d="M481 74q0 -176 -51 -330t-166 -307h-221q149 326 148 636t-148 638h221q115 -156 166 -309q51 -152 51 -328z" />
    <glyph glyph-name="uni2099" unicode="&#x2099;" horiz-adv-x="919" 
d="M840 96v-448h-277v413q0 121 -92 121q-104 0 -104 -170v-364h-279v729h258v-84h2q84 104 215 104t204 -78t73 -223z" />
    <glyph glyph-name="franc" unicode="&#x20a3;" horiz-adv-x="1286" 
d="M557 866h598v-295h-598v-159h336v-244h-336v-168h-354v168h-156v244h156v968h999v-297h-645v-217z" />
    <glyph glyph-name="lira" unicode="&#x20a4;" horiz-adv-x="1286" 
d="M457 276h751v-276h-1161v281q84 0 128 44t52 148h-180v150h182v77h-182v150h182v55q0 250 131.5 379t365.5 129t364.5 -123t130.5 -332h-334q0 84 -39 130.5t-111 46.5q-162 0 -162 -228v-57h256v-150h-256v-77h256v-150h-258q-15 -135 -116 -192v-5z" />
    <glyph glyph-name="peseta" unicode="&#x20a7;" horiz-adv-x="1918" 
d="M635 696q242 0 242 200t-242 200h-125v-400h125zM1661 408q1 -156 117 -156q56 0 90 10v-256q-77 -22 -172 -22q-197 0 -286 81.5t-89 264.5v463h-88q-31 -180 -170 -280.5t-379 -100.5h-174v-412h-354v1380h528q225 0 362.5 -89t178.5 -251h96v281h340v-281h197v-247
h-197v-385z" />
    <glyph glyph-name="Euro" unicode="&#x20ac;" horiz-adv-x="1286" 
d="M708 -33q-238 0 -388 136.5t-193 390.5h-125l29 149h82v78h-111l29 149h94q41 260 192.5 401.5t393.5 141.5t383 -125t157 -342h-340q-14 88 -66 136t-136 48q-195 0 -244 -260h430l-29 -149h-415v-78h401l-29 -149h-354q49 -244 240 -244q84 0 137 50t67 138h347
q-23 -221 -168.5 -346t-383.5 -125z" />
    <glyph glyph-name="uni20B9" unicode="&#x20b9;" horiz-adv-x="1286" 
d="M258 539h-31v217h103q206 0 270 123h-537l54 190h493q-51 121 -264 121h-283l54 190h1106l-52 -190h-290v-4q77 -35 108 -117h234l-52 -190h-174q-23 -104 -106.5 -172t-216.5 -93v-4q70 -27 123 -84t104 -164l178 -362h-407l-154 342q-49 104 -110.5 150.5t-149.5 46.5z
" />
    <glyph glyph-name="uni20BA" unicode="&#x20ba;" horiz-adv-x="1286" 
d="M532 -20q-162 0 -331 20v483l-174 -96v195l174 96v121l-174 -97v195l174 96v387h356v-221l330 180v-194l-330 -180v-121l330 180v-195l-330 -178v-364q156 0 239 95t83 284h370q0 -336 -186 -511t-531 -175z" />
    <glyph glyph-name="uni20BC" unicode="&#x20bc;" horiz-adv-x="1554" 
d="M618 1458h318v-186q274 -23 409.5 -182.5t135.5 -473.5v-616h-318v600q0 190 -52 276.5t-175 98.5v-975h-318v975q-123 -12 -176 -99.5t-53 -275.5v-600h-315v616q0 314 135 473.5t409 182.5v186z" />
    <glyph glyph-name="uni20BD" unicode="&#x20bd;" horiz-adv-x="1286" 
d="M530 772h142q199 0 198 180q0 178 -198 178h-142v-358zM1235 952.5q0 -200.5 -130 -315.5t-382 -115h-193v-104h359v-230h-359v-188h-354v188h-151v230h151v104h-151v250h151v608h547q252 0 382 -113.5t130 -314z" />
    <glyph glyph-name="uni2105" unicode="&#x2105;" horiz-adv-x="1974" 
d="M334 1026q0 -86 31 -133t80 -47t75 32t29 85h289q-10 -150 -116 -237t-284 -87q-176 0 -286 105q-110 104 -109 282q0 178 109 282t284 105q175 0 281 -84t121 -225h-287q-4 49 -32 76q-27 26 -75 26t-79 -47t-31 -133zM500 0l743 1380h205l-743 -1380h-205zM1405 354
q0 -86 32 -133t89 -47t89 47t32 133t-32 133t-89 47t-89 -47t-32 -133zM1114 353q0 177 112 283t300 105q188 0 300 -105q112 -104 112 -282t-112 -282t-300 -104t-300 104t-112 281z" />
    <glyph glyph-name="uni2113" unicode="&#x2113;" horiz-adv-x="925" 
d="M485 1020v-395q166 113 166 387q0 199 -90 198q-41 0 -58.5 -40t-17.5 -150zM485 369q0 -152 120 -152q58 0 106 14v-229q-84 -23 -181 -22q-195 0 -285.5 92t-90.5 288v21q-53 4 -97 12v172q47 -10 97 -12v385q0 346 112 410.5t250 64.5t231 -96.5t93 -320.5
t-93.5 -368.5t-261.5 -205.5v-53z" />
    <glyph glyph-name="uni2116" unicode="&#x2116;" horiz-adv-x="2490" 
d="M1671 172v236h733v-236h-733zM1919 896q0 -85 33 -133t90 -48t89 48t32 133t-32.5 132t-90.5 47t-89.5 -47t-31.5 -132zM2451 895q0 -178 -110.5 -282.5t-299 -104.5t-300 104.5t-111.5 282.5t111.5 282.5t300 104.5t299 -104.5t110.5 -282.5zM496 0h-340v1458h510
l256 -575q135 -313 237 -584h4q-16 272 -16 614v545h340v-1458h-512l-254 575q-135 305 -238 584h-4q16 -328 17 -614v-545z" />
    <glyph glyph-name="uni2117" unicode="&#x2117;" horiz-adv-x="1634" 
d="M1008 864q0 121 -154 121h-117v-242h119q152 0 152 121zM1239 864.5q0 -143.5 -89 -225.5t-263 -82h-150v-285h-225v897h375q176 0 264 -80.5t88 -224zM205 729.5q0 -188.5 75.5 -331t215 -221.5t321.5 -79t321.5 79t216.5 221.5t77 331t-77 330.5t-216.5 221t-321.5 79
t-321.5 -79t-215 -221t-75.5 -330.5zM1556 729q0 -225 -92 -398t-260 -267.5t-387 -94.5t-387 94.5t-260 267.5t-92 398t92 398t260 267.5t387 94.5t387 -94.5t260 -267.5t92 -398z" />
    <glyph glyph-name="trademark" unicode="&#x2122;" horiz-adv-x="1755" 
d="M1475 729v330q0 174 4 262h-4q-37 -172 -58 -258l-78 -334h-268l-78 334l-18 86q-6 29 -16.5 72t-20.5 100h-4q4 -176 4 -262v-330h-203v729h346l70 -293q31 -127 53 -268h4q18 129 52 268l69 293h348v-729h-202zM451 1266v-537h-230v537h-211v192h652v-192h-211z" />
    <glyph glyph-name="Omega" unicode="&#x2126;" horiz-adv-x="1529" 
d="M1450 854q0 -168 -71 -298t-199 -253v-4h293v-299h-613v311q104 106 162 220q57 114 57 284t-86 269q-86 100 -228 100t-228 -100t-86 -269q0 -170 57 -284t162 -220v-311h-613v299h293v4q-129 121 -199 252q-71 131 -71 299q0 311 186 474t499 163t499 -162t186 -475z
" />
    <glyph glyph-name="estimated" unicode="&#x212e;" horiz-adv-x="1767" 
d="M1350 717q26 0 26 24v342q0 57 -30 84q-195 193 -464 193t-462 -193q-33 -29 -33 -84v-342q0 -24 29 -24h934zM1669 672h-1253q-12 0 -20.5 -8.5t-8.5 -18.5v-342q0 -59 33 -90q190 -186 465 -186q147 0 277 62.5t212 162.5h142q-82 -115 -242 -196t-391 -81t-410.5 92.5
t-278 254t-98.5 367.5t95.5 371t275 259t419.5 94t417.5 -100.5t271.5 -270.5t94 -370z" />
    <glyph glyph-name="oneeighth" unicode="&#x215b;" horiz-adv-x="1718" 
d="M18 1235q197 0 236 145h242v-827h-267v500h-211v182zM268 0l744 1380h205l-744 -1380h-205zM1198 246q0 -40 29 -63t80 -23t81 24t30 63t-32 63t-80 24t-78 -24t-30 -64zM1202 592q0 -36 29 -60q29 -22 76 -22t75 22t29 60q0 36 -29 58q-30 22 -76 22t-75 -22t-29 -58z
M1669 229q0 -119 -96 -185t-266 -64q-170 0 -267 65q-96 66 -96 184q0 76 49 129t133 70v4q-76 16 -118 64t-43 112q0 108 94 174q95 66 249 66t247 -66t94 -174q0 -66 -42 -112t-118 -64v-4q82 -16 131 -70t49 -129z" />
    <glyph glyph-name="threeeighths" unicode="&#x215c;" horiz-adv-x="1959" 
d="M766 1161q0 -67 -36 -109t-116 -69v-2q84 -27 123 -74t39 -123q0 -120 -93 -186t-268 -66t-274 77q-98 77 -98 225h254q0 -115 123 -115q47 -1 76 21t28 57q0 82 -133 82h-29v178h27q59 1 94 23t35 59t-29 57t-79 20t-80 -28q-29 -29 -29 -80h-246q-1 137 95 215t260 78
t260 -66t96 -174zM510 0l743 1380h205l-743 -1380h-205zM1659 247q0 39 -31 63t-80 24t-79 -24q-29 -24 -29 -64t28 -63t80 -23q51 0 81 24t30 63zM1444 592q0 -36 29 -60q29 -22 75 -22t76 22q29 22 29 60q0 36 -29 58q-30 22 -76 22t-75 -22t-29 -58zM1890 608
q0 -66 -42 -112t-117 -64v-4q82 -16 131 -70t49 -129q0 -119 -96 -185q-97 -66 -267 -64q-170 0 -266 66t-96 183q0 76 49 129t133 70v4q-76 16 -119 64t-43 112q0 108 94 174t249 66t248 -66t93 -174z" />
    <glyph glyph-name="fiveeighths" unicode="&#x215d;" horiz-adv-x="1961" 
d="M422 938q-87 0 -103 -74l-249 15l49 501h604v-198h-397l-15 -131h4q69 55 185 55t197 -77t81 -206t-98 -210t-262 -81t-262 71t-99 194h258q2 -41 30 -64t76 -23t78 32q29 32 29 84t-28 82q-29 30 -78 30zM512 0l743 1380h205l-743 -1380h-205zM1661 247q0 39 -31 63
t-80 24t-79 -24q-29 -24 -29 -64t28 -63t80 -23q51 0 81 24t30 63zM1446 592q0 -36 29 -60q29 -22 75 -22t76 22q29 22 29 60q0 36 -29 58q-30 22 -76 22t-75 -22t-29 -58zM1892 608q0 -66 -42 -112t-117 -64v-4q82 -16 131 -70t49 -129q0 -119 -96 -185q-97 -66 -267 -64
q-170 0 -266 66t-96 183q0 76 49 129t133 70v4q-76 16 -119 64t-43 112q0 108 94 174t250 66q154 0 247 -66t93 -174z" />
    <glyph glyph-name="seveneighths" unicode="&#x215e;" horiz-adv-x="1759" 
d="M18 1180v200h695v-192q-192 -255 -271 -635h-272q41 180 120 347t173 280h-445zM309 0l744 1380h204l-743 -1380h-205zM1239 246q0 -40 29 -63t80 -23q50 0 80 24t30 63t-31 63t-79 24t-79 -24q-30 -24 -30 -64zM1243 592q0 -36 29 -60q29 -22 76 -22q48 0 76 22t28 60
q0 36 -29 58t-75 22t-76 -22q-29 -22 -29 -58zM1710 229q0 -119 -96 -185t-266 -64q-170 0 -267 65q-96 66 -96 184q0 76 49 129t133 70v4q-77 16 -119 64t-42 112q0 108 94 174t248 66t248 -66q93 -66 94 -174q0 -66 -42 -112t-118 -64v-4q82 -16 131 -70t49 -129z" />
    <glyph glyph-name="Sevenroman" unicode="&#x2166;" horiz-adv-x="2646" 
d="M446 0l-438 1458h371l158 -563q84 -283 139 -573h4q49 256 139 573l160 563h369l-439 -1458h-463zM1473 0v1458h354v-1458h-354zM2136 0v1458h354v-1458h-354z" />
    <glyph glyph-name="partialdiff" unicode="&#x2202;" horiz-adv-x="1294" 
d="M420 473q0 -244 184 -244q96 0 150.5 75t54.5 196t-48.5 185.5t-140.5 64.5t-146 -78t-54 -199zM1169 776q0 -408 -157.5 -608.5t-414.5 -200.5t-393 135.5t-136 362.5q0 147 60 265t175 184.5t273 66.5t253 -90h5q2 14 2 43q0 131 -62.5 213t-161.5 82q-135 0 -153 -142
h-346q18 188 142 296t343 108q285 0 428 -183.5t143 -531.5z" />
    <glyph glyph-name="Delta" unicode="&#x2206;" horiz-adv-x="1462" 
d="M877 698q-90 305 -146 531h-4q-55 -225 -145 -531l-123 -409h542zM2 0l502 1458h459l497 -1458h-1458z" />
    <glyph glyph-name="product" unicode="&#x220f;" horiz-adv-x="1437" 
d="M930 -246v1403h-420v-1403h-354v1704h1128v-1704h-354z" />
    <glyph glyph-name="summation" unicode="&#x2211;" horiz-adv-x="1079" 
d="M1008 59v-305h-936v305l338 547l-338 549v303h936v-303h-551l329 -549l-329 -547h551z" />
    <glyph glyph-name="minus" unicode="&#x2212;" horiz-adv-x="1159" 
d="M121 516v264h917v-264h-917z" />
    <glyph glyph-name="uni2215" unicode="&#x2215;" horiz-adv-x="1030" 
d="M61 -182l611 1708h254l-609 -1708h-256z" />
    <glyph glyph-name="uni2219" unicode="&#x2219;" horiz-adv-x="759" 
d="M201 438v375h360v-375h-360z" />
    <glyph glyph-name="radical" unicode="&#x221a;" horiz-adv-x="1380" 
d="M51 518v273h400l182 -762h4l407 1429h295l-487 -1704h-451l-180 764h-170z" />
    <glyph glyph-name="infinity" unicode="&#x221e;" horiz-adv-x="1445" 
d="M1157 630.5q0 57.5 -30.5 91.5t-84.5 34t-94.5 -32t-85.5 -93q45 -61 85.5 -93t94.5 -32t84.5 33.5t30.5 91zM405 756q-52 0 -84 -34t-32 -91.5t31.5 -91t83.5 -33.5t93.5 31.5t86.5 93.5q-45 61 -86 93t-93 32zM31 631q0 170 94 272.5t252 102.5q113 0 195.5 -48.5
t150.5 -132.5q68 84 150.5 132.5t195.5 48.5q158 0 252 -102.5t94 -272.5t-94 -272.5t-252 -102.5q-113 0 -195.5 48t-150.5 132q-146 -180 -346 -180q-158 0 -252 102.5t-94 272.5z" />
    <glyph glyph-name="integral" unicode="&#x222b;" horiz-adv-x="761" 
d="M213 1116q0 361 373 361q88 -1 162 -19v-233q-20 4 -48 4q-78 0 -114.5 -36t-36.5 -118v-1112q0 -180 -96.5 -270t-278.5 -90q-86 0 -160 18v234q20 -4 47 -5q78 0 115 36t37 118v1112z" />
    <glyph glyph-name="approxequal" unicode="&#x2248;" horiz-adv-x="1159" 
d="M754 475q36 0 62 31t26 86h200q0 -160 -78.5 -259.5t-207.5 -99.5q-55 0 -102.5 21.5t-102.5 58.5t-82 50.5t-63 13.5t-62.5 -32t-26.5 -85h-200q0 162 77.5 260t208.5 98q56 0 103 -22t102 -58t82.5 -49.5t63.5 -13.5zM754 922q36 0 62 31.5t26 84.5h200
q0 -160 -78.5 -259t-207.5 -99q-55 0 -102.5 21.5t-102.5 58.5t-82 50t-63 13t-62.5 -30.5t-26.5 -85.5h-200q0 162 77.5 260t208.5 98q56 0 103 -21.5t102 -58.5t82.5 -50t63.5 -13z" />
    <glyph glyph-name="notequal" unicode="&#x2260;" horiz-adv-x="1159" 
d="M1038 567v-254h-524l-127 -231h-231l125 231h-160v254h299l86 162h-385v254h524l125 231h234l-127 -231h161v-254h-299l-88 -162h387z" />
    <glyph glyph-name="lessequal" unicode="&#x2264;" horiz-adv-x="1159" 
d="M1038 0h-917v240h917v-240zM434 729v-4l604 -190v-254l-917 294v304l917 297v-254z" />
    <glyph glyph-name="greaterequal" unicode="&#x2265;" horiz-adv-x="1159" 
d="M121 0v240h917v-240h-917zM1038 575l-917 -294v254l604 190v4l-604 193v254l917 -297v-304z" />
    <glyph glyph-name="lozenge" unicode="&#x25ca;" horiz-adv-x="1368" 
d="M684 242l252 487l-252 488l-254 -488zM909 0h-452l-375 729l375 729h452l377 -729z" />
    <glyph glyph-name="uniF8FF" unicode="&#xf8ff;" horiz-adv-x="1327" 
d="M514 133v244h279v-244h-279zM1042 1014q0 -84 -30 -142t-112 -136q-82 -77 -108 -130t-26 -145h-227q-2 27 -2 103t24 132q25 57 95 128t87 106q18 35 19 80q0 46 -26 72t-70 26q-117 0 -117 -160h-277q2 182 104 280t284 97q182 0 282 -83t100 -228zM170 1311v-1164
q0 -63 38 -101t101 -38h709q66 0 102 38t37 101v1164q0 67 -37 103t-102 36h-709q-63 0 -101 -37t-38 -102zM1298 147q0 -129 -76 -205t-204 -75h-709q-129 0 -205 76t-75 204v1164q0 129 75 205q76 76 205 75h709q129 1 205 -75t75 -205v-1164z" />
    <glyph glyph-name="ff" unicode="&#xfb00;" horiz-adv-x="1413" 
d="M858 1116q0 359 375 361q88 0 162 -19v-233q-20 4 -49 4q-78 0 -115 -35t-37 -117v-37h192v-247h-192v-793h-336v793h-338v-793h-336v793h-166v247h166v76q0 180 96 270t279 91q88 0 162 -19v-233q-20 4 -49 4q-78 0 -115 -35t-37 -117v-37h338v76z" />
    <glyph glyph-name="fi" unicode="&#xfb01;" horiz-adv-x="1329" 
d="M1204 1040v-1040h-340v1040h340zM1204 1190h-340v268h340v-268zM559 1477q88 0 162 -19v-233q-20 4 -49 4q-78 0 -115 -35t-37 -117v-37h193v-247h-193v-793h-336v793h-166v247h166v76q0 180 96.5 270.5t278.5 90.5z" />
    <glyph glyph-name="fl" unicode="&#xfb02;" horiz-adv-x="1329" 
d="M520 1077v-37h193v-247h-193v-793h-336v793h-166v247h166v76q0 180 96 270t279 91q88 0 162 -19v-233q-20 4 -49 4q-78 0 -115 -35t-37 -117zM864 0v1458h340v-1458h-340z" />
    <glyph glyph-name="ffi" unicode="&#xfb03;" horiz-adv-x="2002" 
d="M1878 1040v-1040h-340v1040h340zM1878 1190h-340v268h340v-268zM858 1116q0 359 375 361q88 0 162 -19v-233q-20 4 -49 4q-78 0 -115 -35t-37 -117v-37h192v-247h-192v-793h-336v793h-338v-793h-336v793h-166v247h166v76q0 180 96 270t279 91q88 0 162 -19v-233
q-20 4 -49 4q-78 0 -115 -35t-37 -117v-37h338v76z" />
    <glyph glyph-name="ffl" unicode="&#xfb04;" horiz-adv-x="2002" 
d="M1878 0h-340v1458h340v-1458zM1233 1477q88 0 162 -19v-233q-20 4 -49 4q-78 0 -115 -35t-37 -117v-37h192v-247h-192v-793h-336v793h-338v-793h-336v793h-166v247h166v76q0 180 96.5 270.5t278.5 90.5q88 0 162 -19v-233q-20 4 -49 4q-78 0 -115 -35t-37 -117v-37h338
v76q0 180 96.5 270.5t278.5 90.5z" />
    <glyph glyph-name="uniFEFF" unicode="&#xfeff;" horiz-adv-x="0" 
 />
    <glyph glyph-name="J.acute.loclNLD" horiz-adv-x="839" 
d="M190 -16q-94 0 -159 18v295q47 -10 109 -10q62 1 109 25q91 48 91 259v887h354v-964q0 -263 -121.5 -386.5t-382.5 -123.5zM324 1573l159 303h391l-288 -303h-262z" />
    <glyph glyph-name="Ccedilla.ss01" horiz-adv-x="1464" 
d="M752 1184q-145 0 -228.5 -122t-83.5 -333t83 -333t225 -122q115 0 187.5 68t86.5 190h371q-20 -270 -192.5 -417.5t-452.5 -147.5q-209 0 -362 92.5t-234.5 263.5t-81.5 406.5t83 406.5t236.5 263t351 92t339 -68.5t221 -194.5t85.5 -294h-366q-12 119 -83 184.5
t-185 65.5zM365 -444l288 344h273l-201 -344h-360z" />
    <glyph glyph-name="Scedilla.ss01" horiz-adv-x="1320" 
d="M1217 1014h-369q0 98 -56.5 150.5t-152.5 52.5t-148.5 -38t-52.5 -92.5t28 -84t87 -52t204.5 -58.5t253 -82t176 -136t68.5 -235.5t-73.5 -251t-207.5 -163t-315 -57.5q-287 0 -448.5 133t-161.5 375h377q0 -225 242 -225q100 0 157.5 41t57.5 103t-28 93t-81 50.5
t-200.5 57.5t-254 83t-176 133t-69.5 228.5t69.5 240.5t199.5 155.5t302 55.5q277 0 424.5 -122t147.5 -355zM262 -444l289 344h272l-200 -344h-361z" />
    <glyph glyph-name="uni0162.ss01" horiz-adv-x="1284" 
d="M819 1157v-1157h-354v1157h-447v301h1248v-301h-447zM256 -444l289 344h272l-201 -344h-360z" />
    <glyph glyph-name="i.loclTRK" horiz-adv-x="589" 
d="M125 0v1040h340v-1040h-340zM125 1190v268h340v-268h-340z" />
    <glyph glyph-name="j.acute.loclNLD" horiz-adv-x="591" 
d="M84 -389q-96 0 -164 18v238q25 -6 53 -6q80 0 117 43t37 155v981h340v-1038q0 -201 -103.5 -296t-279.5 -95zM100 1155l160 303h391l-289 -303h-262z" />
    <glyph glyph-name="ccedilla.ss01" horiz-adv-x="1177" 
d="M597 817q-79 0 -129 -77.5t-50 -218t50 -218.5t130 -78t124 51.5t48 141.5h354q-16 -207 -156.5 -329t-361.5 -122q-164 0 -287.5 68.5t-190.5 193.5t-67 292t67 292t189.5 192.5t277.5 67.5t268.5 -54t182 -151.5t78.5 -224.5h-352q-8 82 -52 128t-123 46zM217 -444
l289 344h272l-200 -344h-361z" />
    <glyph glyph-name="scedilla.ss01" horiz-adv-x="1110" 
d="M1008 725h-324q0 133 -139 133q-57 0 -89 -21.5t-32 -56.5t25 -60t172 -63.5t228 -72t138 -102t57 -181.5q0 -152 -129 -243t-362.5 -91t-361.5 92.5t-128 278.5h343q0 -147 159 -148q63 0 97 24t34 61.5t-23.5 60t-69.5 39t-156.5 45.5t-183.5 58.5t-124 94t-51 175.5
q0 145 121 235t339 90t339 -88t121 -260zM172 -444l289 344h272l-201 -344h-360z" />
    <glyph glyph-name="uni0163.ss01" horiz-adv-x="774" 
d="M516 408q0 -156 117 -156q55 0 90 10v-256q-77 -22 -172 -22q-197 0 -286 81.5t-89 264.5v463h-162v247h162v281h340v-281h197v-247h-197v-385zM45 -444l289 344h272l-200 -344h-361z" />
    <glyph glyph-name="a.sups" horiz-adv-x="858" 
d="M396 827q112 0 112 150v24q-56 0 -117 -14q-86 -18 -86 -85q0 -75 91 -75zM422 1427q354 0 354 -303v-235q0 -133 25 -213h-250q-12 41 -12 92h-4q-86 -113 -242 -113q-121 0 -191.5 64.5t-70.5 164.5t71.5 157t203.5 76t202 24v26q0 99 -88 99t-92 -92h-267
q8 111 96.5 182t264.5 71z" />
    <glyph glyph-name="b.sups" horiz-adv-x="925" 
d="M352 1039q0 -81 32 -128t87 -47t89 49t34 129t-34 127.5t-89 47.5t-87 -48.5t-32 -129.5zM575 1425q135 0 221.5 -104t86.5 -280.5t-88 -282t-229 -105.5t-208 107h-4v-84h-266v1020h279v-361h4q69 90 204 90z" />
    <glyph glyph-name="c.sups" horiz-adv-x="874" 
d="M334 1040q0 -86 30 -133t80 -47t76.5 32t28.5 85h289q-10 -150 -117 -237t-283 -87t-285.5 105.5t-109.5 282.5t108.5 281.5t283.5 104.5t281.5 -83.5t121.5 -225.5h-287q-8 103 -107 103q-48 0 -79 -47.5t-31 -133.5z" />
    <glyph glyph-name="d.sups" horiz-adv-x="927" 
d="M334 1040q0 -82 33 -129t89 -47t87.5 47t31.5 128t-31.5 129.5t-87.5 48.5t-89 -47.5t-33 -129.5zM351 1425q136 0 206 -90h4v361h279v-1020h-269v84h-2q-67 -107 -208 -107t-229.5 105.5t-88.5 282t86 280.5t222 104z" />
    <glyph glyph-name="e.sups" horiz-adv-x="882" 
d="M440 1255q-105 0 -123 -127h244q-4 66 -38 96.5t-83 30.5zM444 653q-190 0 -295.5 109.5t-105.5 281.5q0 109 47 196t137 137t220 50t224.5 -58t137.5 -167q31 -71 31 -219h-525q8 -152 125 -152q43 0 73 19.5t34 50.5h282q-25 -109 -130 -178.5t-255 -69.5z" />
    <glyph glyph-name="egrave.sups" horiz-adv-x="882" 
d="M440 1255q-105 0 -123 -127h244q-4 66 -38 96.5t-83 30.5zM444 653q-190 0 -295.5 109.5t-105.5 281.5q0 109 47 196t137 137t220 50t224.5 -58t137.5 -167q31 -71 31 -219h-525q8 -152 125 -152q43 0 73 19.5t34 50.5h282q-25 -109 -130 -178.5t-255 -69.5zM115 1696
h336l149 -213h-244z" />
    <glyph glyph-name="f.sups" horiz-adv-x="561" 
d="M127 1444q0 268 293 268q59 0 129 -16v-187q-16 4 -54 4t-63.5 -23.5t-25.5 -76.5v-8h135v-199h-135v-530h-279v530h-115v199h115v39z" />
    <glyph glyph-name="g.sups" horiz-adv-x="911" 
d="M328 1061q0 -74 31.5 -116t85.5 -42t86 43t32 115t-31.5 115t-85.5 43t-86 -42t-32 -116zM347 1425q138 0 216 -116h2v96h260v-678q0 -334 -395 -334q-160 0 -251 62.5t-103 177.5h262q8 -72 96 -72q59 0 90 35t31 121v80h-4q-75 -101 -210 -101q-134 0 -216 99.5
t-82 266.5t83 265t221 98z" />
    <glyph glyph-name="h.sups" horiz-adv-x="919" 
d="M567 1425q127 0 200 -77.5t73 -223.5v-448h-277v414q0 121 -92 120q-104 0 -104 -170v-364h-279v1020h279v-357h4q69 86 196 86z" />
    <glyph glyph-name="i.sups" horiz-adv-x="452" 
d="M88 676v729h279v-729h-279zM88 1493v203h279v-203h-279z" />
    <glyph glyph-name="j.sups" horiz-adv-x="458" 
d="M78 403q-84 0 -133 15v190q25 -4 37 -4q57 0 83.5 31t26.5 110v660h279v-709q0 -147 -80 -220t-213 -73zM92 1493v203h279v-203h-279z" />
    <glyph glyph-name="k.sups" horiz-adv-x="870" 
d="M367 993v-317h-279v1022h279v-572h4l164 279h325l-252 -344l277 -385h-338l-176 317h-4z" />
    <glyph glyph-name="l.sups" horiz-adv-x="452" 
d="M88 676v1020h279v-1020h-279z" />
    <glyph glyph-name="m.sups" horiz-adv-x="1366" 
d="M1008 1090q0 120 -82 120q-100 0 -101 -170v-364h-276v422q0 113 -82 112q-100 0 -100 -170v-364h-279v729h258v-84h4q78 104 224 104t210 -127q86 127 240 127q123 0 192.5 -77.5t69.5 -223.5v-448h-278v414z" />
    <glyph glyph-name="n.sups" horiz-adv-x="919" 
d="M840 1124v-448h-277v414q0 121 -92 120q-104 0 -104 -170v-364h-279v729h258v-84h2q84 104 215 104t204 -77.5t73 -223.5z" />
    <glyph glyph-name="o.sups" horiz-adv-x="909" 
d="M334 1040q0 -86 31.5 -133t89 -47t89 47t31.5 133t-31.5 133.5t-89 47.5t-89 -47.5t-31.5 -133.5zM866 1040q0 -178 -111.5 -282.5t-300 -104.5t-300 104.5t-111.5 281.5t111.5 282.5t300 105.5t300 -104.5t111.5 -282.5z" />
    <glyph glyph-name="p.sups" horiz-adv-x="925" 
d="M352 1039q0 -81 32 -128t87 -47t89 49t34 129t-34 127.5t-89 47.5t-87 -48.5t-32 -129.5zM566 1425q141 0 229 -104t88 -280.5t-86 -282t-232 -105.5q-59 0 -111.5 23.5t-82.5 66.5h-4v-331h-279v993h266v-84h4q67 104 208 104z" />
    <glyph glyph-name="q.sups" horiz-adv-x="927" 
d="M334 1040q0 -82 33 -129t89 -47t87.5 47t31.5 128t-31.5 129.5t-87.5 48.5t-89 -47.5t-33 -129.5zM361 1425q142 0 208 -104h2v84h269v-993h-279v331h-4q-69 -90 -206 -90q-136 0 -222 105.5t-86 282t88 280.5t230 104z" />
    <glyph glyph-name="r.sups" horiz-adv-x="649" 
d="M367 969v-293h-279v729h258v-98h4q76 109 215 108q43 0 74 -8v-236q-49 8 -84 9q-92 0 -140 -54.5t-48 -156.5z" />
    <glyph glyph-name="s.sups" horiz-adv-x="829" 
d="M424 823q82 1 82 55q0 28 -33 43t-129 40t-150.5 46t-92.5 67t-38 122q0 104 88.5 167.5t256.5 63.5t259 -60t91 -181h-264q0 80 -84 80q-74 0 -74 -47q0 -27 27.5 -42t120.5 -39t196.5 -65t103.5 -182q0 -109 -94 -173.5t-266 -64.5q-379 0 -379 260h279q0 -90 100 -90z
" />
    <glyph glyph-name="t.sups" horiz-adv-x="585" 
d="M401 987q0 -106 84 -106q41 0 64 6v-207q-84 -18 -137 -18q-150 0 -218.5 59t-68.5 190v295h-115v199h115v203h276v-203h140v-199h-140v-219z" />
    <glyph glyph-name="u.sups" horiz-adv-x="919" 
d="M356 655q-131 0 -203.5 78t-72.5 223v449h278v-414q0 -121 91 -121q106 0 106 170v365h276v-729h-258v84h-2q-84 -105 -215 -105z" />
    <glyph glyph-name="v.sups" horiz-adv-x="819" 
d="M221 676l-233 729h299l61 -246q39 -168 60 -303h4q20 135 59 303l61 246h299l-233 -729h-377z" />
    <glyph glyph-name="w.sups" horiz-adv-x="1300" 
d="M758 676l-53 260q-35 162 -54 301h-2q-25 -168 -51 -301l-55 -260h-369l-168 729h268l43 -254q29 -180 39 -303h4q25 170 58 307l57 250h350l60 -250q39 -170 57 -307h4q10 123 39 303l41 254h268l-168 -729h-368z" />
    <glyph glyph-name="x.sups" horiz-adv-x="823" 
d="M831 676h-313l-104 221h-4l-105 -221h-313l244 375l-228 354h311l91 -201h4l90 201h311l-227 -354z" />
    <glyph glyph-name="y.sups" horiz-adv-x="821" 
d="M248 399q-86 0 -154 15v200q35 -10 75 -10t65.5 19.5t25.5 53.5t-47 148l-227 580h303l65 -244q45 -164 70 -301h4q27 158 64 303l57 242h282l-227 -684q-41 -123 -89 -192.5t-114.5 -99.5t-152.5 -30z" />
    <glyph glyph-name="z.sups" horiz-adv-x="759" 
d="M389 885h330v-209h-676v215l317 301v4h-307v209h654v-215l-318 -301v-4z" />
    <glyph glyph-name="a.smcp" horiz-adv-x="1255" 
d="M735 524q-61 193 -104 375h-4q-45 -180 -105 -375l-20 -71h256zM426 199l-59 -199h-365l395 1122h461l397 -1122h-364l-60 199h-405z" />
    <glyph glyph-name="aacute.smcp" horiz-adv-x="1255" 
d="M735 524q-61 193 -104 375h-4q-45 -180 -105 -375l-20 -71h256zM426 199l-59 -199h-365l395 1122h461l397 -1122h-364l-60 199h-405zM432 1237l160 303h391l-289 -303h-262z" />
    <glyph glyph-name="abreve.smcp" horiz-adv-x="1255" 
d="M735 524q-61 193 -104 375h-4q-45 -180 -105 -375l-20 -71h256zM426 199l-59 -199h-365l395 1122h461l397 -1122h-364l-60 199h-405zM629 1225q-166 0 -261.5 83t-103.5 232h217q4 -57 42 -88t105.5 -31t105.5 31t42 88h217q-8 -149 -103 -232t-261 -83z" />
    <glyph glyph-name="acircumflex.smcp" horiz-adv-x="1255" 
d="M735 524q-61 193 -104 375h-4q-45 -180 -105 -375l-20 -71h256zM426 199l-59 -199h-365l395 1122h461l397 -1122h-364l-60 199h-405zM627 1393l-119 -156h-283l242 303h319l242 -303h-283z" />
    <glyph glyph-name="adieresis.smcp" horiz-adv-x="1255" 
d="M735 524q-61 193 -104 375h-4q-45 -180 -105 -375l-20 -71h256zM426 199l-59 -199h-365l395 1122h461l397 -1122h-364l-60 199h-405zM715 1272v268h291v-268h-291zM250 1272v268h293v-268h-293z" />
    <glyph glyph-name="agrave.smcp" horiz-adv-x="1255" 
d="M735 524q-61 193 -104 375h-4q-45 -180 -105 -375l-20 -71h256zM426 199l-59 -199h-365l395 1122h461l397 -1122h-364l-60 199h-405zM823 1237h-262l-289 303h392z" />
    <glyph glyph-name="amacron.smcp" horiz-adv-x="1255" 
d="M735 524q-61 193 -104 375h-4q-45 -180 -105 -375l-20 -71h256zM426 199l-59 -199h-365l395 1122h461l397 -1122h-364l-60 199h-405zM260 1288v211h735v-211h-735z" />
    <glyph glyph-name="aogonek.smcp" horiz-adv-x="1255" 
d="M735 524q-61 193 -104 375h-4q-45 -180 -105 -375l-20 -71h256zM1122 -162q0 -61 68 -61q37 0 72 14v-168q-86 -31 -201 -31t-178.5 49.5t-63.5 126.5t42 129t130 103h-100l-60 199h-405l-59 -199h-365l395 1122h461l397 -1122q-74 -49 -103.5 -86t-29.5 -76z" />
    <glyph glyph-name="aring.smcp" horiz-adv-x="1255" 
d="M735 524q-61 193 -104 375h-4q-45 -180 -105 -375l-20 -71h256zM426 199l-59 -199h-365l395 1122h461l397 -1122h-364l-60 199h-405zM514 1446q0 -47 34 -81t81 -34t80.5 34t33.5 81t-33.5 81t-80.5 34t-81 -34t-34 -81zM862 1446q0 -96 -68.5 -164t-165 -68t-165 68
t-68.5 164t68.5 164.5t165 68.5t165 -68.5t68.5 -164.5z" />
    <glyph glyph-name="atilde.smcp" horiz-adv-x="1255" 
d="M735 524q-61 193 -104 375h-4q-45 -180 -105 -375l-20 -71h256zM426 199l-59 -199h-365l395 1122h461l397 -1122h-364l-60 199h-405zM772 1247q-70 0 -170 51q-63 37 -104 37q-76 0 -86 -88h-183q6 137 72 215t182 78q47 0 81 -12t91 -39q63 -37 103.5 -37t61 21.5
t26.5 66.5h182q-8 -137 -73.5 -215t-182.5 -78z" />
    <glyph glyph-name="ae.smcp" horiz-adv-x="1662" 
d="M735 860h-24l-164 -383h250zM1575 0h-705l-34 217h-402l-92 -217h-352l512 1122h1065v-266h-516l24 -162h451v-258h-410l27 -170h432v-266z" />
    <glyph glyph-name="b.smcp" horiz-adv-x="1206" 
d="M479 240h125q96 0 134 23.5t38 81.5t-40 84t-134 26h-123v-215zM600 678q166 0 166 79t-37 103.5t-117 24.5h-133v-207h121zM1102 834q0 -202 -203 -252v-4q233 -45 234 -263q0 -145 -119 -230t-328 -85h-547v1122h525q219 0 328.5 -77.5t109.5 -210.5z" />
    <glyph glyph-name="c.smcp" horiz-adv-x="1253" 
d="M422 561.5q0 -147.5 55 -229.5t140.5 -82t133.5 46t58 128h362q-18 -221 -162.5 -339t-394 -118t-400.5 158t-151 436q0 182 69 316.5t196 206t299 71.5q239 0 384.5 -118.5t153.5 -331.5h-358q-16 167 -188 167q-86 0 -141.5 -81.5t-55.5 -229z" />
    <glyph glyph-name="cacute.smcp" horiz-adv-x="1253" 
d="M422 561.5q0 -147.5 55 -229.5t140.5 -82t133.5 46t58 128h362q-18 -221 -162.5 -339t-394 -118t-400.5 158t-151 436q0 182 69 316.5t196 206t299 71.5q239 0 384.5 -118.5t153.5 -331.5h-358q-16 167 -188 167q-86 0 -141.5 -81.5t-55.5 -229zM430 1237l160 303h391
l-289 -303h-262z" />
    <glyph glyph-name="ccaron.smcp" horiz-adv-x="1253" 
d="M422 561.5q0 -147.5 55 -229.5t140.5 -82t133.5 46t58 128h362q-18 -221 -162.5 -339t-394 -118t-400.5 158t-151 436q0 182 69 316.5t196 206t299 71.5q239 0 384.5 -118.5t153.5 -331.5h-358q-16 167 -188 167q-86 0 -141.5 -81.5t-55.5 -229zM465 1237l-242 303h283
l119 -156l118 156h283l-242 -303h-319z" />
    <glyph glyph-name="ccedilla.smcp" horiz-adv-x="1253" 
d="M807 705q-16 167 -188 167q-86 0 -141.5 -81.5t-55.5 -229t55 -229.5t140.5 -82t133.5 46t58 128h362q-16 -205 -143 -321.5t-334 -133.5l-57 -92q31 10 68 10q80 0 129 -43t49 -123.5t-69 -138t-197.5 -57.5t-241.5 65l53 109q90 -45 173 -45t83 64q0 30 -23.5 48.5
t-63.5 18.5t-67 -12l-59 55l86 143q-231 20 -362.5 176t-131.5 414q0 182 69 316.5t196 206t299 71.5q240 0 385 -118.5t153 -331.5h-358z" />
    <glyph glyph-name="ccircumflex.smcp" horiz-adv-x="1253" 
d="M422 561.5q0 -147.5 55 -229.5t140.5 -82t133.5 46t58 128h362q-18 -221 -162.5 -339t-394 -118t-400.5 158t-151 436q0 182 69 316.5t196 206t299 71.5q239 0 384.5 -118.5t153.5 -331.5h-358q-16 167 -188 167q-86 0 -141.5 -81.5t-55.5 -229zM625 1393l-119 -156h-283
l242 303h319l242 -303h-283z" />
    <glyph glyph-name="cdotaccent.smcp" horiz-adv-x="1253" 
d="M422 561.5q0 -147.5 55 -229.5t140.5 -82t133.5 46t58 128h362q-18 -221 -162.5 -339t-394 -118t-400.5 158t-151 436q0 182 69 316.5t196 206t299 71.5q239 0 384.5 -118.5t153.5 -331.5h-358q-16 167 -188 167q-86 0 -141.5 -81.5t-55.5 -229zM455 1272v268h340v-268
h-340z" />
    <glyph glyph-name="d.smcp" horiz-adv-x="1302" 
d="M485 276h103q143 0 218 73t75 212t-75 212t-218 73h-103v-570zM1239 562q0 -269 -167 -415.5t-476 -146.5h-457v1122h457q309 0 476 -145.5t167 -414.5z" />
    <glyph glyph-name="eth.smcp" horiz-adv-x="1310" 
d="M897 561q0 141 -76 217t-223 76h-109v-188h209v-197h-209v-201h109q147 0 223 76t76 217zM1249 562q0 -269 -167 -415.5t-476 -146.5h-456v469h-121v197h121v456h456q309 0 476 -145.5t167 -414.5z" />
    <glyph glyph-name="dcaron.smcp" horiz-adv-x="1302" 
d="M485 276h103q143 0 218 73t75 212t-75 212t-218 73h-103v-570zM1239 562q0 -269 -167 -415.5t-476 -146.5h-457v1122h457q309 0 476 -145.5t167 -414.5zM455 1237l-242 303h283l118 -156l119 156h283l-242 -303h-319z" />
    <glyph glyph-name="dcroat.smcp" horiz-adv-x="1310" 
d="M897 561q0 141 -76 217t-223 76h-109v-188h209v-197h-209v-201h109q147 0 223 76t76 217zM1249 562q0 -270 -167 -416t-476 -146h-456v469h-121v197h121v456h456q309 0 476 -145t167 -415z" />
    <glyph glyph-name="e.smcp" horiz-adv-x="1095" 
d="M467 856v-162h494v-258h-494v-170h541v-266h-869v1122h862v-266h-534z" />
    <glyph glyph-name="eacute.smcp" horiz-adv-x="1095" 
d="M467 856v-162h494v-258h-494v-170h541v-266h-869v1122h862v-266h-534zM375 1237l160 303h391l-289 -303h-262z" />
    <glyph glyph-name="ebreve.smcp" horiz-adv-x="1095" 
d="M467 856v-162h494v-258h-494v-170h541v-266h-869v1122h862v-266h-534zM571.5 1225q-165.5 0 -261 83t-103.5 232h217q4 -57 42 -88t105.5 -31t105.5 31t42 88h217q-8 -149 -103.5 -232t-261 -83z" />
    <glyph glyph-name="ecaron.smcp" horiz-adv-x="1095" 
d="M467 856v-162h494v-258h-494v-170h541v-266h-869v1122h862v-266h-534zM410 1237l-242 303h283l118 -156l119 156h283l-242 -303h-319z" />
    <glyph glyph-name="ecircumflex.smcp" horiz-adv-x="1095" 
d="M467 856v-162h494v-258h-494v-170h541v-266h-869v1122h862v-266h-534zM569 1393l-118 -156h-283l242 303h319l242 -303h-283z" />
    <glyph glyph-name="edieresis.smcp" horiz-adv-x="1095" 
d="M467 856v-162h494v-258h-494v-170h541v-266h-869v1122h862v-266h-534zM657 1272v268h291v-268h-291zM193 1272v268h292v-268h-292z" />
    <glyph glyph-name="edotaccent.smcp" horiz-adv-x="1095" 
d="M467 856v-162h494v-258h-494v-170h541v-266h-869v1122h862v-266h-534zM401 1272v268h340v-268h-340z" />
    <glyph glyph-name="egrave.smcp" horiz-adv-x="1095" 
d="M467 856v-162h494v-258h-494v-170h541v-266h-869v1122h862v-266h-534zM766 1237h-262l-289 303h391z" />
    <glyph glyph-name="emacron.smcp" horiz-adv-x="1095" 
d="M467 856v-162h494v-258h-494v-170h541v-266h-869v1122h862v-266h-534zM203 1288v211h735v-211h-735z" />
    <glyph glyph-name="eogonek.smcp" horiz-adv-x="1095" 
d="M467 856v-162h494v-258h-494v-170h541v-266h2q-74 -49 -103.5 -86t-29.5 -76q0 -61 67 -61q37 0 72 14v-168q-86 -31 -201 -31t-178.5 49.5t-63.5 126.5t42 129t130 103h-606v1122h862v-266h-534z" />
    <glyph glyph-name="f.smcp" horiz-adv-x="1015" 
d="M467 850v-207h473v-272h-473v-371h-328v1122h838v-272h-510z" />
    <glyph glyph-name="fi.smcp" horiz-adv-x="1640" 
d="M467 850v-207h473v-272h-473v-371h-328v1122h838v-272h-510zM1155 0v1122h348v-1122h-348z" />
    <glyph glyph-name="fl.smcp" horiz-adv-x="2037" 
d="M467 850v-207h473v-272h-473v-371h-328v1122h838v-272h-510zM2019 289v-289h-864v1122h348v-833h516z" />
    <glyph glyph-name="g.smcp" horiz-adv-x="1308" 
d="M422 556q0 -159 62.5 -247t164.5 -88t155.5 48t57.5 132h-225v242h547v-643h-293v94h-4q-106 -121 -314 -121q-156 0 -271.5 71t-177 202t-61.5 313t73 316.5t207 207t338 72.5t345 -106.5t162 -288.5h-363q-25 127 -168 127q-109 0 -172 -86t-63 -245z" />
    <glyph glyph-name="gbreve.smcp" horiz-adv-x="1308" 
d="M422 556q0 -159 62.5 -247t164.5 -88t155.5 48t57.5 132h-225v242h547v-643h-293v94h-4q-106 -121 -314 -121q-156 0 -271.5 71t-177 202t-61.5 313t73 316.5t207 207t338 72.5t345 -106.5t162 -288.5h-363q-25 127 -168 127q-109 0 -172 -86t-63 -245zM647 1225
q-166 0 -261 83t-103 232h217q4 -57 42 -88t105.5 -31t105.5 31t42 88h217q-8 -149 -103.5 -232t-261.5 -83z" />
    <glyph glyph-name="gcircumflex.smcp" horiz-adv-x="1308" 
d="M422 556q0 -159 62.5 -247t164.5 -88t155.5 48t57.5 132h-225v242h547v-643h-293v94h-4q-106 -121 -314 -121q-156 0 -271.5 71t-177 202t-61.5 313t73 316.5t207 207t338 72.5t345 -106.5t162 -288.5h-363q-25 127 -168 127q-109 0 -172 -86t-63 -245zM645 1393
l-119 -156h-282l241 303h320l242 -303h-283z" />
    <glyph glyph-name="gcommaaccent.smcp" horiz-adv-x="1308" 
d="M422 556q0 -159 62.5 -247t164.5 -88t155.5 48t57.5 132h-225v242h547v-643h-293v94h-4q-106 -121 -314 -121q-156 0 -271.5 71t-177 202t-61.5 313t73 316.5t207 207t338 72.5t345 -106.5t162 -288.5h-363q-25 127 -168 127q-109 0 -172 -86t-63 -245zM508 -340v229h274
v-229l-145 -223h-129l94 223h-94z" />
    <glyph glyph-name="gdotaccent.smcp" horiz-adv-x="1308" 
d="M422 556q0 -159 62.5 -247t164.5 -88t155.5 48t57.5 132h-225v242h547v-643h-293v94h-4q-106 -121 -314 -121q-156 0 -271.5 71t-177 202t-61.5 313t73 316.5t207 207t338 72.5t345 -106.5t162 -288.5h-363q-25 127 -168 127q-109 0 -172 -86t-63 -245zM477 1272v268h340
v-268h-340z" />
    <glyph glyph-name="h.smcp" horiz-adv-x="1357" 
d="M870 0v434h-383v-434h-348v1122h348v-401h383v401h349v-1122h-349z" />
    <glyph glyph-name="hbar.smcp" horiz-adv-x="1357" 
d="M487 883v-162h383v162h-383zM1219 883v-883h-349v434h-383v-434h-348v883h-84v139h84v100h348v-100h383v100h349v-100h84v-139h-84z" />
    <glyph glyph-name="uni0125.smcp" horiz-adv-x="1357" 
d="M870 0v434h-383v-434h-348v1122h348v-401h383v401h349v-1122h-349zM678 1393l-119 -156h-283l242 303h320l241 -303h-282z" />
    <glyph glyph-name="i.smcp" horiz-adv-x="626" 
d="M139 0v1122h348v-1122h-348z" />
    <glyph glyph-name="iacute.smcp" horiz-adv-x="626" 
d="M139 0v1122h348v-1122h-348zM117 1237l159 303h392l-289 -303h-262z" />
    <glyph glyph-name="ibreve.smcp" horiz-adv-x="626" 
d="M139 0v1122h348v-1122h-348zM313.5 1225q-153.5 0 -239.5 82t-92 233h204q10 -123 127 -123t127 123h205q-6 -149 -92 -232t-239.5 -83z" />
    <glyph glyph-name="icircumflex.smcp" horiz-adv-x="626" 
d="M139 0v1122h348v-1122h-348zM418 1241l-105 145l-102 -145h-268l221 299h299l221 -299h-266z" />
    <glyph glyph-name="idieresis.smcp" horiz-adv-x="626" 
d="M139 0v1122h348v-1122h-348zM362 1272v268h271v-268h-271zM-8 1272v268h272v-268h-272z" />
    <glyph glyph-name="i.loclTRK.smcp" horiz-adv-x="626" 
d="M139 0v1122h348v-1122h-348zM143 1272v268h340v-268h-340z" />
    <glyph glyph-name="igrave.smcp" horiz-adv-x="626" 
d="M139 0v1122h348v-1122h-348zM510 1237h-262l-289 303h391z" />
    <glyph glyph-name="ij.smcp" horiz-adv-x="1370" 
d="M139 0v1122h348v-1122h-348zM805 -14q-84 0 -150 16l-2 279q37 -6 74 -7q94 0 131 46.5t37 173.5v628h346v-719q0 -217 -105.5 -317t-330.5 -100z" />
    <glyph glyph-name="imacron.smcp" horiz-adv-x="626" 
d="M139 0v1122h348v-1122h-348zM6 1294v211h615v-211h-615z" />
    <glyph glyph-name="iogonek.smcp" horiz-adv-x="626" 
d="M139 0v1122h348v-1122q-74 -49 -103.5 -86t-29.5 -76q0 -61 68 -61q37 0 72 14v-168q-86 -31 -201 -31t-178.5 49.5t-63.5 126.5t42 129t130 103h-84z" />
    <glyph glyph-name="itilde.smcp" horiz-adv-x="626" 
d="M139 0v1122h348v-1122h-348zM432 1448q68 0 76 92h160q-9 -139 -68 -217t-168 -78q-64 0 -136 46t-103 46q-68 0 -74 -92h-158q6 139 65.5 217t166.5 78q65 0 135 -46t104 -46z" />
    <glyph glyph-name="j.smcp" horiz-adv-x="745" 
d="M178 -14q-84 0 -149 16l-2 279q37 -6 73 -7q94 0 131 46.5t37 173.5v628h346v-719q0 -217 -105.5 -317t-330.5 -100z" />
    <glyph glyph-name="jcircumflex.smcp" horiz-adv-x="745" 
d="M178 -14q-84 0 -149 16l-2 279q37 -6 73 -7q94 0 131 46.5t37 173.5v628h346v-719q0 -217 -105.5 -317t-330.5 -100zM539 1241l-105 145l-102 -145h-269l222 299h299l221 -299h-266z" />
    <glyph glyph-name="k.smcp" 
d="M487 502v-502h-348v1122h348v-471h5l305 471h413l-403 -528l430 -594h-430l-315 502h-5z" />
    <glyph glyph-name="kcommaaccent.smcp" 
d="M487 502v-502h-348v1122h348v-471h5l305 471h413l-403 -528l430 -594h-430l-315 502h-5zM492 -340v229h274v-229l-145 -223h-129l94 223h-94z" />
    <glyph glyph-name="l.smcp" horiz-adv-x="1021" 
d="M1004 289v-289h-865v1122h348v-833h517z" />
    <glyph glyph-name="lacute.smcp" horiz-adv-x="1021" 
d="M1004 289v-289h-865v1122h348v-833h517zM180 1237l160 303h391l-289 -303h-262z" />
    <glyph glyph-name="lcaron.smcp" horiz-adv-x="1021" 
d="M1004 289v-289h-865v1122h348v-833h517zM559 758l49 364h266l-122 -364h-193z" />
    <glyph glyph-name="lcommaaccent.smcp" horiz-adv-x="1021" 
d="M1004 289v-289h-865v1122h348v-833h517zM410 -340v229h274v-229l-145 -223h-129l94 223h-94z" />
    <glyph glyph-name="ldot.smcp" horiz-adv-x="1150" 
d="M723 567v348h334v-348h-334zM1004 289v-289h-865v1122h348v-833h517z" />
    <glyph glyph-name="j.acute.loclNLD.smcp" horiz-adv-x="745" 
d="M178 -14q-84 0 -149 16l-2 279q37 -6 73 -7q94 0 131 46.5t37 173.5v628h346v-719q0 -217 -105.5 -317t-330.5 -100zM240 1237l159 303h392l-289 -303h-262z" />
    <glyph glyph-name="lslash.smcp" horiz-adv-x="1026" 
d="M1008 0h-863v436l-125 -69v229l125 70v456h347v-280l210 116v-229l-210 -117v-323h516v-289z" />
    <glyph glyph-name="m.smcp" horiz-adv-x="1843" 
d="M1376 0v535q0 182 10 407h-4q-47 -221 -98 -401l-149 -541h-424l-150 541q-43 154 -100 401h-4q12 -203 12 -407v-535h-330v1122h561l129 -475q63 -236 91 -409h4q33 199 90 409l131 475h559v-1122h-328z" />
    <glyph glyph-name="n.smcp" horiz-adv-x="1468" 
d="M473 403v-403h-334v1122h518l183 -426q92 -217 166 -428h4q-12 180 -13 451v403h332v-1122h-516l-182 426q-90 205 -168 428h-4q14 -209 14 -451z" />
    <glyph glyph-name="nacute.smcp" horiz-adv-x="1468" 
d="M473 403v-403h-334v1122h518l183 -426q92 -217 166 -428h4q-12 180 -13 451v403h332v-1122h-516l-182 426q-90 205 -168 428h-4q14 -209 14 -451zM539 1237l159 303h392l-289 -303h-262z" />
    <glyph glyph-name="ncaron.smcp" horiz-adv-x="1468" 
d="M473 403v-403h-334v1122h518l183 -426q92 -217 166 -428h4q-12 180 -13 451v403h332v-1122h-516l-182 426q-90 205 -168 428h-4q14 -209 14 -451zM575 1237l-241 303h282l119 -156l119 156h283l-242 -303h-320z" />
    <glyph glyph-name="ncommaaccent.smcp" horiz-adv-x="1468" 
d="M473 403v-403h-334v1122h518l183 -426q92 -217 166 -428h4q-12 180 -13 451v403h332v-1122h-516l-182 426q-90 205 -168 428h-4q14 -209 14 -451zM598 -340v229h274v-229l-145 -223h-129l94 223h-94z" />
    <glyph glyph-name="eng.smcp" horiz-adv-x="1361" 
d="M872 -342q-92 0 -153 18v222q18 -6 49 -7q104 0 104 93q0 25 -14 55.5t-61 112.5l-172 297q-98 168 -164 323h-4q16 -201 16 -375v-397h-334v1122h424l172 -297q94 -166 168 -325h4q-16 170 -16 374v248h332v-1136q0 -166 -95.5 -247t-255.5 -81z" />
    <glyph glyph-name="ntilde.smcp" horiz-adv-x="1468" 
d="M473 403v-403h-334v1122h518l183 -426q92 -217 166 -428h4q-12 180 -13 451v403h332v-1122h-516l-182 426q-90 205 -168 428h-4q14 -209 14 -451zM879 1247q-70 0 -170 51q-63 37 -105 37q-76 0 -86 -88h-182q6 137 71.5 215t182.5 78q47 0 81 -12t91 -39q63 -37 103 -37
q75 0 87 88h183q-9 -137 -74.5 -215t-181.5 -78z" />
    <glyph glyph-name="o.smcp" horiz-adv-x="1294" 
d="M422 561.5q0 -151.5 58.5 -231.5t167 -80t166.5 80t58 231.5t-58 231t-166.5 79.5t-167 -79.5t-58.5 -231zM1231 561q0 -180 -70.5 -314t-203 -207t-310.5 -73t-310 73t-203 207t-71 314t71 314.5t203 207t310 72.5t310.5 -72.5t203 -207t70.5 -314.5z" />
    <glyph glyph-name="oacute.smcp" horiz-adv-x="1294" 
d="M422 561.5q0 -151.5 58.5 -231.5t167 -80t166.5 80t58 231.5t-58 231t-166.5 79.5t-167 -79.5t-58.5 -231zM1231 561q0 -180 -70.5 -314t-203 -207t-310.5 -73t-310 73t-203 207t-71 314t71 314.5t203 207t310 72.5t310.5 -72.5t203 -207t70.5 -314.5zM451 1237l159 303
h391l-288 -303h-262z" />
    <glyph glyph-name="obreve.smcp" horiz-adv-x="1294" 
d="M422 561.5q0 -151.5 58.5 -231.5t167 -80t166.5 80t58 231.5t-58 231t-166.5 79.5t-167 -79.5t-58.5 -231zM1231 561q0 -180 -70.5 -314t-203 -207t-310.5 -73t-310 73t-203 207t-71 314t71 314.5t203 207t310 72.5t310.5 -72.5t203 -207t70.5 -314.5zM647 1225
q-166 0 -261 83t-103 232h217q4 -57 42 -88t105.5 -31t105.5 31t42 88h217q-8 -149 -103.5 -232t-261.5 -83z" />
    <glyph glyph-name="ocircumflex.smcp" horiz-adv-x="1294" 
d="M422 561.5q0 -151.5 58.5 -231.5t167 -80t166.5 80t58 231.5t-58 231t-166.5 79.5t-167 -79.5t-58.5 -231zM1231 561q0 -180 -70.5 -314t-203 -207t-310.5 -73t-310 73t-203 207t-71 314t71 314.5t203 207t310 72.5t310.5 -72.5t203 -207t70.5 -314.5zM647 1393
l-119 -156h-282l241 303h320l242 -303h-283z" />
    </font>
</defs>
</svg>
